G75*
%MOIN*%
%OFA0B0*%
%FSLAX25Y25*%
%IPPOS*%
%LPD*%
%AMOC8*
5,1,8,0,0,1.08239X$1,22.5*
%
%ADD10C,0.00400*%
%ADD11C,0.00500*%
%ADD12C,0.01000*%
%ADD13C,0.00600*%
%ADD14C,0.01600*%
%ADD15C,0.00700*%
%ADD16R,0.05512X0.00787*%
%ADD17C,0.00300*%
%ADD18R,0.00787X0.05512*%
%ADD19C,0.00800*%
%ADD20R,0.03000X0.03400*%
%ADD21R,0.06000X0.03400*%
%ADD22R,0.03400X0.03000*%
%ADD23R,0.03400X0.06000*%
%ADD24C,0.00200*%
%ADD25R,0.08268X0.01181*%
%ADD26R,0.01969X0.02953*%
%ADD27R,0.14000X0.03000*%
D10*
X0224009Y0044263D02*
X0224609Y0043663D01*
X0225810Y0043663D01*
X0226411Y0044263D01*
X0224009Y0046665D01*
X0224009Y0044263D01*
X0226411Y0044263D02*
X0226411Y0046665D01*
X0225810Y0047266D01*
X0224609Y0047266D01*
X0224009Y0046665D01*
X0227692Y0046665D02*
X0230094Y0044263D01*
X0230094Y0043663D01*
X0231375Y0044263D02*
X0231975Y0043663D01*
X0233177Y0043663D01*
X0233777Y0044263D01*
X0233777Y0046665D01*
X0233177Y0047266D01*
X0231975Y0047266D01*
X0231375Y0046665D01*
X0230094Y0047266D02*
X0227692Y0047266D01*
X0227692Y0046665D01*
X0228392Y0079163D02*
X0230794Y0079163D01*
X0228392Y0081565D01*
X0228392Y0082165D01*
X0228993Y0082766D01*
X0230194Y0082766D01*
X0230794Y0082165D01*
X0232076Y0082165D02*
X0232676Y0082766D01*
X0233877Y0082766D01*
X0234478Y0082165D01*
X0234478Y0079763D01*
X0233877Y0079163D01*
X0232676Y0079163D01*
X0232076Y0079763D01*
X0235759Y0079163D02*
X0238161Y0079163D01*
X0238161Y0082766D01*
X0235759Y0082766D01*
X0236960Y0080964D02*
X0238161Y0080964D01*
X0239442Y0080964D02*
X0240042Y0080364D01*
X0241844Y0080364D01*
X0240643Y0080364D02*
X0239442Y0079163D01*
X0239442Y0080964D02*
X0239442Y0082165D01*
X0240042Y0082766D01*
X0241844Y0082766D01*
X0241844Y0079163D01*
X0243125Y0079763D02*
X0243725Y0079163D01*
X0244927Y0079163D01*
X0245527Y0079763D01*
X0244927Y0080964D02*
X0245527Y0081565D01*
X0245527Y0082165D01*
X0244927Y0082766D01*
X0243725Y0082766D01*
X0243125Y0082165D01*
X0243725Y0080964D02*
X0243125Y0080364D01*
X0243125Y0079763D01*
X0243725Y0080964D02*
X0244927Y0080964D01*
X0234476Y0102413D02*
X0233275Y0102413D01*
X0232674Y0103013D01*
X0231393Y0103013D02*
X0230793Y0102413D01*
X0229592Y0102413D01*
X0228991Y0103013D01*
X0228991Y0103614D01*
X0229592Y0104214D01*
X0231393Y0104214D01*
X0231393Y0103013D01*
X0231393Y0104214D02*
X0230192Y0105415D01*
X0228991Y0106016D01*
X0227710Y0105415D02*
X0227110Y0106016D01*
X0225909Y0106016D01*
X0225308Y0105415D01*
X0225308Y0104815D01*
X0225909Y0104214D01*
X0225308Y0103614D01*
X0225308Y0103013D01*
X0225909Y0102413D01*
X0227110Y0102413D01*
X0227710Y0103013D01*
X0226509Y0104214D02*
X0225909Y0104214D01*
X0232674Y0105415D02*
X0233275Y0106016D01*
X0234476Y0106016D01*
X0235076Y0105415D01*
X0235076Y0103013D01*
X0234476Y0102413D01*
X0288259Y0111263D02*
X0288259Y0113665D01*
X0288859Y0114266D01*
X0290060Y0114266D01*
X0290661Y0113665D01*
X0290661Y0113065D01*
X0290060Y0112464D01*
X0288259Y0112464D01*
X0288259Y0111263D02*
X0288859Y0110663D01*
X0290060Y0110663D01*
X0290661Y0111263D01*
X0291942Y0111263D02*
X0292542Y0110663D01*
X0293743Y0110663D01*
X0294344Y0111263D01*
X0294344Y0111864D01*
X0293743Y0112464D01*
X0292542Y0112464D01*
X0291942Y0111864D01*
X0291942Y0111263D01*
X0292542Y0112464D02*
X0291942Y0113065D01*
X0291942Y0113665D01*
X0292542Y0114266D01*
X0293743Y0114266D01*
X0294344Y0113665D01*
X0294344Y0113065D01*
X0293743Y0112464D01*
X0295625Y0112464D02*
X0296225Y0111864D01*
X0298027Y0111864D01*
X0296826Y0111864D02*
X0295625Y0110663D01*
X0295625Y0112464D02*
X0295625Y0113665D01*
X0296225Y0114266D01*
X0298027Y0114266D01*
X0298027Y0110663D01*
X0297344Y0117913D02*
X0297344Y0118513D01*
X0294942Y0120915D01*
X0294942Y0121516D01*
X0297344Y0121516D01*
X0298625Y0120915D02*
X0299225Y0121516D01*
X0300427Y0121516D01*
X0301027Y0120915D01*
X0301027Y0118513D01*
X0300427Y0117913D01*
X0299225Y0117913D01*
X0298625Y0118513D01*
X0293661Y0119714D02*
X0291259Y0119714D01*
X0291859Y0117913D02*
X0291859Y0121516D01*
X0293661Y0119714D01*
X0305509Y0127013D02*
X0305509Y0128214D01*
X0306109Y0128815D01*
X0306710Y0128815D01*
X0307911Y0128214D01*
X0307911Y0130016D01*
X0305509Y0130016D01*
X0305509Y0127013D02*
X0306109Y0126413D01*
X0307310Y0126413D01*
X0307911Y0127013D01*
X0309192Y0129415D02*
X0311594Y0127013D01*
X0311594Y0126413D01*
X0312875Y0127013D02*
X0313475Y0126413D01*
X0314677Y0126413D01*
X0315277Y0127013D01*
X0315277Y0129415D01*
X0314677Y0130016D01*
X0313475Y0130016D01*
X0312875Y0129415D01*
X0311594Y0130016D02*
X0309192Y0130016D01*
X0309192Y0129415D01*
X0309792Y0133663D02*
X0310993Y0133663D01*
X0311594Y0134263D01*
X0311594Y0134864D01*
X0310993Y0135464D01*
X0309792Y0135464D01*
X0309192Y0134864D01*
X0309192Y0134263D01*
X0309792Y0133663D01*
X0309792Y0135464D02*
X0309192Y0136065D01*
X0309192Y0136665D01*
X0309792Y0137266D01*
X0310993Y0137266D01*
X0311594Y0136665D01*
X0311594Y0136065D01*
X0310993Y0135464D01*
X0312875Y0135464D02*
X0313475Y0134864D01*
X0315277Y0134864D01*
X0314076Y0134864D02*
X0312875Y0133663D01*
X0312875Y0135464D02*
X0312875Y0136665D01*
X0313475Y0137266D01*
X0315277Y0137266D01*
X0315277Y0133663D01*
X0307911Y0134263D02*
X0307310Y0133663D01*
X0306109Y0133663D01*
X0305509Y0134263D01*
X0305509Y0134864D01*
X0306109Y0135464D01*
X0307911Y0135464D01*
X0307911Y0134263D01*
X0307911Y0135464D02*
X0306710Y0136665D01*
X0305509Y0137266D01*
X0298826Y0136263D02*
X0298226Y0135663D01*
X0297025Y0135663D01*
X0296424Y0136263D01*
X0295143Y0136263D02*
X0295143Y0135663D01*
X0295143Y0136263D02*
X0292741Y0138665D01*
X0292741Y0139266D01*
X0295143Y0139266D01*
X0296424Y0138665D02*
X0297025Y0139266D01*
X0298226Y0139266D01*
X0298826Y0138665D01*
X0298826Y0136263D01*
X0291460Y0136263D02*
X0290860Y0135663D01*
X0289659Y0135663D01*
X0289058Y0136263D01*
X0289058Y0138665D01*
X0289659Y0139266D01*
X0290860Y0139266D01*
X0291460Y0138665D01*
X0291460Y0138065D01*
X0290860Y0137464D01*
X0289058Y0137464D01*
X0316308Y0153915D02*
X0318710Y0151513D01*
X0318710Y0150913D01*
X0319991Y0151513D02*
X0319991Y0153915D01*
X0320592Y0154516D01*
X0321793Y0154516D01*
X0322393Y0153915D01*
X0322393Y0153315D01*
X0321793Y0152714D01*
X0319991Y0152714D01*
X0319991Y0151513D02*
X0320592Y0150913D01*
X0321793Y0150913D01*
X0322393Y0151513D01*
X0323674Y0150913D02*
X0324875Y0152114D01*
X0324275Y0152114D02*
X0326076Y0152114D01*
X0326076Y0150913D02*
X0326076Y0154516D01*
X0324275Y0154516D01*
X0323674Y0153915D01*
X0323674Y0152714D01*
X0324275Y0152114D01*
X0318710Y0154516D02*
X0316308Y0154516D01*
X0316308Y0153915D01*
X0330308Y0154516D02*
X0332710Y0154516D01*
X0332710Y0152714D01*
X0331509Y0153315D01*
X0330909Y0153315D01*
X0330308Y0152714D01*
X0330308Y0151513D01*
X0330909Y0150913D01*
X0332110Y0150913D01*
X0332710Y0151513D01*
X0333991Y0151513D02*
X0333991Y0153915D01*
X0334592Y0154516D01*
X0335793Y0154516D01*
X0336393Y0153915D01*
X0336393Y0153315D01*
X0335793Y0152714D01*
X0333991Y0152714D01*
X0333991Y0151513D02*
X0334592Y0150913D01*
X0335793Y0150913D01*
X0336393Y0151513D01*
X0337674Y0150913D02*
X0338875Y0152114D01*
X0338275Y0152114D02*
X0340076Y0152114D01*
X0340076Y0150913D02*
X0340076Y0154516D01*
X0338275Y0154516D01*
X0337674Y0153915D01*
X0337674Y0152714D01*
X0338275Y0152114D01*
X0338775Y0144266D02*
X0339976Y0144266D01*
X0340576Y0143665D01*
X0340576Y0141263D01*
X0339976Y0140663D01*
X0338775Y0140663D01*
X0338174Y0141263D01*
X0336893Y0141263D02*
X0336893Y0140663D01*
X0336893Y0141263D02*
X0334491Y0143665D01*
X0334491Y0144266D01*
X0336893Y0144266D01*
X0338174Y0143665D02*
X0338775Y0144266D01*
X0333210Y0143665D02*
X0332610Y0144266D01*
X0331409Y0144266D01*
X0330808Y0143665D01*
X0330808Y0143065D01*
X0331409Y0142464D01*
X0332610Y0142464D01*
X0333210Y0143065D01*
X0333210Y0143665D01*
X0332610Y0142464D02*
X0333210Y0141864D01*
X0333210Y0141263D01*
X0332610Y0140663D01*
X0331409Y0140663D01*
X0330808Y0141263D01*
X0330808Y0141864D01*
X0331409Y0142464D01*
X0343677Y0138830D02*
X0343677Y0137629D01*
X0344278Y0137029D01*
X0343677Y0135748D02*
X0345479Y0133946D01*
X0344878Y0133346D02*
X0347280Y0135748D01*
X0346680Y0137029D02*
X0347280Y0137629D01*
X0347280Y0138830D01*
X0346680Y0139431D01*
X0346079Y0139431D01*
X0345479Y0138830D01*
X0344878Y0139431D01*
X0344278Y0139431D01*
X0343677Y0138830D01*
X0345479Y0138830D02*
X0345479Y0138230D01*
X0347280Y0133346D02*
X0343677Y0133346D01*
X0344278Y0132065D02*
X0346680Y0132065D01*
X0347280Y0131464D01*
X0347280Y0130263D01*
X0346680Y0129663D01*
X0344278Y0129663D01*
X0343677Y0130263D01*
X0343677Y0131464D01*
X0344278Y0132065D01*
X0357927Y0131714D02*
X0358528Y0132315D01*
X0360930Y0132315D01*
X0361530Y0131714D01*
X0361530Y0130513D01*
X0360930Y0129913D01*
X0358528Y0129913D01*
X0357927Y0130513D01*
X0357927Y0131714D01*
X0357927Y0133596D02*
X0361530Y0133596D01*
X0359729Y0134196D02*
X0357927Y0135998D01*
X0357927Y0137279D02*
X0360329Y0139681D01*
X0360930Y0139681D01*
X0361530Y0139080D01*
X0361530Y0137879D01*
X0360930Y0137279D01*
X0361530Y0135998D02*
X0359128Y0133596D01*
X0357927Y0137279D02*
X0357927Y0139681D01*
X0382427Y0135181D02*
X0382427Y0132779D01*
X0382427Y0133980D02*
X0386030Y0133980D01*
X0384829Y0132779D01*
X0384829Y0131498D02*
X0384229Y0130897D01*
X0384229Y0129696D01*
X0384829Y0129096D01*
X0385430Y0129096D01*
X0386030Y0129696D01*
X0386030Y0130897D01*
X0385430Y0131498D01*
X0384829Y0131498D01*
X0384229Y0130897D02*
X0383628Y0131498D01*
X0383028Y0131498D01*
X0382427Y0130897D01*
X0382427Y0129696D01*
X0383028Y0129096D01*
X0383628Y0129096D01*
X0384229Y0129696D01*
X0385430Y0127815D02*
X0386030Y0127214D01*
X0386030Y0126013D01*
X0385430Y0125413D01*
X0383028Y0125413D01*
X0382427Y0126013D01*
X0382427Y0127214D01*
X0383028Y0127815D01*
X0383677Y0159663D02*
X0387280Y0159663D01*
X0387280Y0161464D01*
X0386680Y0162065D01*
X0385479Y0162065D01*
X0384878Y0161464D01*
X0384878Y0159663D01*
X0384878Y0160864D02*
X0383677Y0162065D01*
X0385479Y0163346D02*
X0385479Y0165748D01*
X0386079Y0167029D02*
X0387280Y0168230D01*
X0383677Y0168230D01*
X0383677Y0167029D02*
X0383677Y0169431D01*
X0383677Y0165147D02*
X0387280Y0165147D01*
X0385479Y0163346D01*
X0358326Y0172763D02*
X0357726Y0172163D01*
X0356525Y0172163D01*
X0355924Y0172763D01*
X0354643Y0173964D02*
X0352241Y0173964D01*
X0350960Y0173964D02*
X0348558Y0173964D01*
X0349159Y0172163D02*
X0349159Y0175766D01*
X0350960Y0173964D01*
X0352842Y0172163D02*
X0352842Y0175766D01*
X0354643Y0173964D01*
X0355924Y0175165D02*
X0356525Y0175766D01*
X0357726Y0175766D01*
X0358326Y0175165D01*
X0358326Y0172763D01*
X0319576Y0174913D02*
X0319576Y0178516D01*
X0317775Y0178516D01*
X0317174Y0177915D01*
X0317174Y0176714D01*
X0317775Y0176114D01*
X0319576Y0176114D01*
X0318375Y0176114D02*
X0317174Y0174913D01*
X0315893Y0175513D02*
X0315293Y0174913D01*
X0314092Y0174913D01*
X0313491Y0175513D01*
X0313491Y0176714D01*
X0314092Y0177315D01*
X0314692Y0177315D01*
X0315893Y0176714D01*
X0315893Y0178516D01*
X0313491Y0178516D01*
X0312210Y0176714D02*
X0310409Y0178516D01*
X0310409Y0174913D01*
X0309808Y0176714D02*
X0312210Y0176714D01*
X0292527Y0184013D02*
X0292527Y0186415D01*
X0291927Y0187016D01*
X0290725Y0187016D01*
X0290125Y0186415D01*
X0288844Y0185214D02*
X0286442Y0185214D01*
X0285161Y0185815D02*
X0284560Y0185214D01*
X0282759Y0185214D01*
X0282759Y0184013D02*
X0282759Y0186415D01*
X0283359Y0187016D01*
X0284560Y0187016D01*
X0285161Y0186415D01*
X0285161Y0185815D01*
X0285161Y0184013D02*
X0284560Y0183413D01*
X0283359Y0183413D01*
X0282759Y0184013D01*
X0287042Y0183413D02*
X0287042Y0187016D01*
X0288844Y0185214D01*
X0290125Y0184013D02*
X0290725Y0183413D01*
X0291927Y0183413D01*
X0292527Y0184013D01*
X0285530Y0178180D02*
X0281927Y0178180D01*
X0281927Y0176979D02*
X0281927Y0179381D01*
X0284329Y0176979D02*
X0285530Y0178180D01*
X0284930Y0175698D02*
X0285530Y0175098D01*
X0285530Y0173897D01*
X0284930Y0173296D01*
X0284930Y0172015D02*
X0285530Y0171415D01*
X0285530Y0169613D01*
X0281927Y0169613D01*
X0281927Y0171415D01*
X0282528Y0172015D01*
X0284930Y0172015D01*
X0281927Y0173296D02*
X0284329Y0175698D01*
X0284930Y0175698D01*
X0281927Y0175698D02*
X0281927Y0173296D01*
X0269996Y0177476D02*
X0268194Y0177476D01*
X0267594Y0178076D01*
X0267594Y0180478D01*
X0268194Y0181079D01*
X0269996Y0181079D01*
X0269996Y0177476D01*
X0266313Y0177476D02*
X0263911Y0179878D01*
X0263911Y0180478D01*
X0264511Y0181079D01*
X0265712Y0181079D01*
X0266313Y0180478D01*
X0266313Y0177476D02*
X0263911Y0177476D01*
X0262629Y0178076D02*
X0260227Y0180478D01*
X0260227Y0178076D01*
X0260828Y0177476D01*
X0262029Y0177476D01*
X0262629Y0178076D01*
X0262629Y0180478D01*
X0262029Y0181079D01*
X0260828Y0181079D01*
X0260227Y0180478D01*
X0282759Y0192013D02*
X0282759Y0192614D01*
X0283359Y0193214D01*
X0285161Y0193214D01*
X0285161Y0192013D01*
X0284560Y0191413D01*
X0283359Y0191413D01*
X0282759Y0192013D01*
X0283960Y0194415D02*
X0285161Y0193214D01*
X0286442Y0193214D02*
X0288844Y0193214D01*
X0287042Y0195016D01*
X0287042Y0191413D01*
X0290125Y0192013D02*
X0290725Y0191413D01*
X0291927Y0191413D01*
X0292527Y0192013D01*
X0292527Y0194415D01*
X0291927Y0195016D01*
X0290725Y0195016D01*
X0290125Y0194415D01*
X0290125Y0198913D02*
X0291326Y0200114D01*
X0290725Y0200114D02*
X0292527Y0200114D01*
X0292527Y0198913D02*
X0292527Y0202516D01*
X0290725Y0202516D01*
X0290125Y0201915D01*
X0290125Y0200714D01*
X0290725Y0200114D01*
X0288844Y0200714D02*
X0287643Y0201315D01*
X0287042Y0201315D01*
X0286442Y0200714D01*
X0286442Y0199513D01*
X0287042Y0198913D01*
X0288243Y0198913D01*
X0288844Y0199513D01*
X0288844Y0200714D02*
X0288844Y0202516D01*
X0286442Y0202516D01*
X0285161Y0201915D02*
X0284560Y0202516D01*
X0283359Y0202516D01*
X0282759Y0201915D01*
X0285161Y0199513D01*
X0284560Y0198913D01*
X0283359Y0198913D01*
X0282759Y0199513D01*
X0282759Y0201915D01*
X0285161Y0201915D02*
X0285161Y0199513D01*
X0282759Y0195016D02*
X0283960Y0194415D01*
X0268076Y0197663D02*
X0268076Y0201266D01*
X0266275Y0201266D01*
X0265674Y0200665D01*
X0265674Y0199464D01*
X0266275Y0198864D01*
X0268076Y0198864D01*
X0266875Y0198864D02*
X0265674Y0197663D01*
X0264393Y0199464D02*
X0261991Y0199464D01*
X0260710Y0200065D02*
X0260110Y0199464D01*
X0258308Y0199464D01*
X0258308Y0198263D02*
X0258308Y0200665D01*
X0258909Y0201266D01*
X0260110Y0201266D01*
X0260710Y0200665D01*
X0260710Y0200065D01*
X0260710Y0198263D02*
X0260110Y0197663D01*
X0258909Y0197663D01*
X0258308Y0198263D01*
X0262592Y0197663D02*
X0262592Y0201266D01*
X0264393Y0199464D01*
X0282759Y0206163D02*
X0285161Y0206163D01*
X0282759Y0208565D01*
X0282759Y0209165D01*
X0283359Y0209766D01*
X0284560Y0209766D01*
X0285161Y0209165D01*
X0286442Y0209766D02*
X0288844Y0209766D01*
X0288844Y0207964D01*
X0287643Y0208565D01*
X0287042Y0208565D01*
X0286442Y0207964D01*
X0286442Y0206763D01*
X0287042Y0206163D01*
X0288243Y0206163D01*
X0288844Y0206763D01*
X0290125Y0206163D02*
X0291326Y0207364D01*
X0290725Y0207364D02*
X0292527Y0207364D01*
X0292527Y0206163D02*
X0292527Y0209766D01*
X0290725Y0209766D01*
X0290125Y0209165D01*
X0290125Y0207964D01*
X0290725Y0207364D01*
X0321536Y0205915D02*
X0321536Y0205315D01*
X0322137Y0204714D01*
X0321536Y0204114D01*
X0321536Y0203513D01*
X0322137Y0202913D01*
X0323338Y0202913D01*
X0323938Y0203513D01*
X0325220Y0203513D02*
X0325820Y0202913D01*
X0327021Y0202913D01*
X0327622Y0203513D01*
X0327622Y0205915D01*
X0327021Y0206516D01*
X0325820Y0206516D01*
X0325220Y0205915D01*
X0323938Y0205915D02*
X0323338Y0206516D01*
X0322137Y0206516D01*
X0321536Y0205915D01*
X0322137Y0204714D02*
X0322737Y0204714D01*
X0328876Y0202913D02*
X0330077Y0202913D01*
X0329477Y0202913D02*
X0329477Y0206516D01*
X0330077Y0206516D02*
X0328876Y0206516D01*
X0351058Y0208263D02*
X0351058Y0208864D01*
X0351659Y0209464D01*
X0353460Y0209464D01*
X0353460Y0208263D01*
X0352860Y0207663D01*
X0351659Y0207663D01*
X0351058Y0208263D01*
X0352259Y0210665D02*
X0353460Y0209464D01*
X0354741Y0209464D02*
X0355342Y0210065D01*
X0355942Y0210065D01*
X0357143Y0209464D01*
X0357143Y0211266D01*
X0354741Y0211266D01*
X0354741Y0209464D02*
X0354741Y0208263D01*
X0355342Y0207663D01*
X0356543Y0207663D01*
X0357143Y0208263D01*
X0358424Y0207663D02*
X0359625Y0208864D01*
X0359025Y0208864D02*
X0360826Y0208864D01*
X0360826Y0207663D02*
X0360826Y0211266D01*
X0359025Y0211266D01*
X0358424Y0210665D01*
X0358424Y0209464D01*
X0359025Y0208864D01*
X0359409Y0203766D02*
X0358808Y0203165D01*
X0361210Y0200763D01*
X0360610Y0200163D01*
X0359409Y0200163D01*
X0358808Y0200763D01*
X0358808Y0203165D01*
X0359409Y0203766D02*
X0360610Y0203766D01*
X0361210Y0203165D01*
X0361210Y0200763D01*
X0362491Y0200763D02*
X0363092Y0200163D01*
X0364293Y0200163D01*
X0364893Y0200763D01*
X0364893Y0201964D02*
X0363692Y0202565D01*
X0363092Y0202565D01*
X0362491Y0201964D01*
X0362491Y0200763D01*
X0364893Y0201964D02*
X0364893Y0203766D01*
X0362491Y0203766D01*
X0366174Y0203165D02*
X0366775Y0203766D01*
X0367976Y0203766D01*
X0368576Y0203165D01*
X0368576Y0200763D01*
X0367976Y0200163D01*
X0366775Y0200163D01*
X0366174Y0200763D01*
X0352259Y0210665D02*
X0351058Y0211266D01*
X0321030Y0229663D02*
X0321030Y0231464D01*
X0320430Y0232065D01*
X0319229Y0232065D01*
X0318628Y0231464D01*
X0318628Y0229663D01*
X0318628Y0230864D02*
X0317427Y0232065D01*
X0319229Y0233346D02*
X0319229Y0235748D01*
X0319229Y0237029D02*
X0319229Y0238830D01*
X0318628Y0239431D01*
X0318028Y0239431D01*
X0317427Y0238830D01*
X0317427Y0237629D01*
X0318028Y0237029D01*
X0319229Y0237029D01*
X0320430Y0238230D01*
X0321030Y0239431D01*
X0321030Y0235147D02*
X0317427Y0235147D01*
X0319229Y0233346D02*
X0321030Y0235147D01*
X0313280Y0235397D02*
X0311479Y0233596D01*
X0311479Y0235998D01*
X0311479Y0237279D02*
X0311479Y0239681D01*
X0313280Y0239080D02*
X0311479Y0237279D01*
X0313280Y0239080D02*
X0309677Y0239080D01*
X0306280Y0238830D02*
X0305680Y0239431D01*
X0305079Y0239431D01*
X0304479Y0238830D01*
X0303878Y0239431D01*
X0303278Y0239431D01*
X0302677Y0238830D01*
X0302677Y0237629D01*
X0303278Y0237029D01*
X0304479Y0238230D02*
X0304479Y0238830D01*
X0306280Y0238830D02*
X0306280Y0237629D01*
X0305680Y0237029D01*
X0304479Y0235748D02*
X0304479Y0233346D01*
X0306280Y0235147D01*
X0302677Y0235147D01*
X0303278Y0232065D02*
X0302677Y0231464D01*
X0302677Y0230263D01*
X0303278Y0229663D01*
X0305680Y0229663D01*
X0306280Y0230263D01*
X0306280Y0231464D01*
X0305680Y0232065D01*
X0309677Y0232315D02*
X0310878Y0231114D01*
X0310878Y0231714D02*
X0310878Y0229913D01*
X0309677Y0229913D02*
X0313280Y0229913D01*
X0313280Y0231714D01*
X0312680Y0232315D01*
X0311479Y0232315D01*
X0310878Y0231714D01*
X0309677Y0235397D02*
X0313280Y0235397D01*
X0317427Y0229663D02*
X0321030Y0229663D01*
X0298717Y0234832D02*
X0298717Y0237234D01*
X0298117Y0237234D01*
X0295715Y0234832D01*
X0295114Y0234832D01*
X0295114Y0237234D01*
X0295114Y0238515D02*
X0295114Y0240317D01*
X0295715Y0240917D01*
X0298117Y0240917D01*
X0298717Y0240317D01*
X0298717Y0238515D01*
X0295114Y0238515D01*
X0296916Y0242198D02*
X0296916Y0244600D01*
X0298717Y0244000D02*
X0296916Y0242198D01*
X0298717Y0244000D02*
X0295114Y0244000D01*
X0277530Y0262413D02*
X0273927Y0262413D01*
X0275128Y0262413D02*
X0275128Y0264214D01*
X0275729Y0264815D01*
X0276930Y0264815D01*
X0277530Y0264214D01*
X0277530Y0262413D01*
X0275128Y0263614D02*
X0273927Y0264815D01*
X0273927Y0266096D02*
X0276329Y0268498D01*
X0276930Y0268498D01*
X0277530Y0267897D01*
X0277530Y0266696D01*
X0276930Y0266096D01*
X0273927Y0266096D02*
X0273927Y0268498D01*
X0274528Y0269779D02*
X0273927Y0270379D01*
X0273927Y0271580D01*
X0274528Y0272181D01*
X0275128Y0272181D01*
X0275729Y0271580D01*
X0275729Y0270980D01*
X0275729Y0271580D02*
X0276329Y0272181D01*
X0276930Y0272181D01*
X0277530Y0271580D01*
X0277530Y0270379D01*
X0276930Y0269779D01*
X0277225Y0285663D02*
X0276625Y0286263D01*
X0276625Y0288665D01*
X0277225Y0289266D01*
X0279027Y0289266D01*
X0279027Y0285663D01*
X0277225Y0285663D01*
X0275344Y0285663D02*
X0272942Y0285663D01*
X0274143Y0285663D02*
X0274143Y0289266D01*
X0275344Y0288065D01*
X0271661Y0288665D02*
X0271060Y0289266D01*
X0269859Y0289266D01*
X0269259Y0288665D01*
X0271661Y0286263D01*
X0271060Y0285663D01*
X0269859Y0285663D01*
X0269259Y0286263D01*
X0269259Y0288665D01*
X0271661Y0288665D02*
X0271661Y0286263D01*
X0255027Y0315163D02*
X0255027Y0318766D01*
X0253225Y0318766D01*
X0252625Y0318165D01*
X0252625Y0316964D01*
X0253225Y0316364D01*
X0255027Y0316364D01*
X0253826Y0316364D02*
X0252625Y0315163D01*
X0251344Y0315163D02*
X0248942Y0317565D01*
X0248942Y0318165D01*
X0249542Y0318766D01*
X0250743Y0318766D01*
X0251344Y0318165D01*
X0251344Y0315163D02*
X0248942Y0315163D01*
X0247661Y0315763D02*
X0247060Y0315163D01*
X0245859Y0315163D01*
X0245259Y0315763D01*
X0245259Y0316364D01*
X0245859Y0316964D01*
X0247661Y0316964D01*
X0247661Y0315763D01*
X0247661Y0316964D02*
X0246460Y0318165D01*
X0245259Y0318766D01*
X0235780Y0318513D02*
X0235180Y0317913D01*
X0232778Y0317913D01*
X0232177Y0318513D01*
X0232177Y0319714D01*
X0232778Y0320315D01*
X0232778Y0321596D02*
X0232177Y0322196D01*
X0232177Y0323397D01*
X0232778Y0323998D01*
X0233378Y0323998D01*
X0233979Y0323397D01*
X0233979Y0322797D01*
X0233979Y0323397D02*
X0234579Y0323998D01*
X0235180Y0323998D01*
X0235780Y0323397D01*
X0235780Y0322196D01*
X0235180Y0321596D01*
X0235180Y0320315D02*
X0235780Y0319714D01*
X0235780Y0318513D01*
X0229030Y0318513D02*
X0228430Y0317913D01*
X0226028Y0317913D01*
X0225427Y0318513D01*
X0225427Y0319714D01*
X0226028Y0320315D01*
X0226028Y0321596D02*
X0225427Y0322196D01*
X0225427Y0323397D01*
X0226028Y0323998D01*
X0226628Y0323998D01*
X0227229Y0323397D01*
X0227229Y0322797D01*
X0227229Y0323397D02*
X0227829Y0323998D01*
X0228430Y0323998D01*
X0229030Y0323397D01*
X0229030Y0322196D01*
X0228430Y0321596D01*
X0228430Y0320315D02*
X0229030Y0319714D01*
X0229030Y0318513D01*
X0222280Y0318513D02*
X0221680Y0317913D01*
X0219278Y0317913D01*
X0218677Y0318513D01*
X0218677Y0319714D01*
X0219278Y0320315D01*
X0219278Y0321596D02*
X0218677Y0322196D01*
X0218677Y0323397D01*
X0219278Y0323998D01*
X0219878Y0323998D01*
X0220479Y0323397D01*
X0220479Y0322797D01*
X0220479Y0323397D02*
X0221079Y0323998D01*
X0221680Y0323998D01*
X0222280Y0323397D01*
X0222280Y0322196D01*
X0221680Y0321596D01*
X0221680Y0320315D02*
X0222280Y0319714D01*
X0222280Y0318513D01*
X0221680Y0325279D02*
X0222280Y0325879D01*
X0222280Y0327080D01*
X0221680Y0327681D01*
X0221079Y0327681D01*
X0220479Y0327080D01*
X0219878Y0327681D01*
X0219278Y0327681D01*
X0218677Y0327080D01*
X0218677Y0325879D01*
X0219278Y0325279D01*
X0220479Y0326480D02*
X0220479Y0327080D01*
X0225427Y0327681D02*
X0225427Y0325279D01*
X0227829Y0327681D01*
X0228430Y0327681D01*
X0229030Y0327080D01*
X0229030Y0325879D01*
X0228430Y0325279D01*
X0232177Y0325279D02*
X0232177Y0327681D01*
X0232177Y0326480D02*
X0235780Y0326480D01*
X0234579Y0325279D01*
X0241009Y0330763D02*
X0241609Y0330163D01*
X0242810Y0330163D01*
X0243411Y0330763D01*
X0243411Y0331964D02*
X0242210Y0332565D01*
X0241609Y0332565D01*
X0241009Y0331964D01*
X0241009Y0330763D01*
X0243411Y0331964D02*
X0243411Y0333766D01*
X0241009Y0333766D01*
X0244692Y0333165D02*
X0245292Y0333766D01*
X0246493Y0333766D01*
X0247094Y0333165D01*
X0248375Y0333165D02*
X0248375Y0331964D01*
X0248975Y0331364D01*
X0250777Y0331364D01*
X0249576Y0331364D02*
X0248375Y0330163D01*
X0247094Y0330163D02*
X0244692Y0332565D01*
X0244692Y0333165D01*
X0244692Y0330163D02*
X0247094Y0330163D01*
X0248375Y0333165D02*
X0248975Y0333766D01*
X0250777Y0333766D01*
X0250777Y0330163D01*
X0276977Y0321726D02*
X0279379Y0321726D01*
X0278178Y0321726D02*
X0278178Y0325329D01*
X0279379Y0324128D01*
X0280661Y0321726D02*
X0283063Y0321726D01*
X0281862Y0321726D02*
X0281862Y0325329D01*
X0283063Y0324128D01*
X0284344Y0324728D02*
X0284944Y0325329D01*
X0286746Y0325329D01*
X0286746Y0321726D01*
X0284944Y0321726D01*
X0284344Y0322326D01*
X0284344Y0324728D01*
X0284884Y0355163D02*
X0282482Y0355163D01*
X0283683Y0356964D02*
X0284884Y0356964D01*
X0286165Y0355763D02*
X0286165Y0358165D01*
X0286765Y0358766D01*
X0288567Y0358766D01*
X0288567Y0355163D01*
X0286765Y0355163D01*
X0286165Y0355763D01*
X0284884Y0355163D02*
X0284884Y0358766D01*
X0282482Y0358766D01*
X0289821Y0358766D02*
X0291022Y0358766D01*
X0290422Y0358766D02*
X0290422Y0355163D01*
X0291022Y0355163D02*
X0289821Y0355163D01*
X0292303Y0355763D02*
X0292904Y0355163D01*
X0294105Y0355163D01*
X0294705Y0355763D01*
X0294105Y0356964D02*
X0292904Y0356964D01*
X0292303Y0356364D01*
X0292303Y0355763D01*
X0294105Y0356964D02*
X0294705Y0357565D01*
X0294705Y0358165D01*
X0294105Y0358766D01*
X0292904Y0358766D01*
X0292303Y0358165D01*
X0295986Y0356964D02*
X0298388Y0356964D01*
X0299643Y0355163D02*
X0300844Y0355163D01*
X0300243Y0355163D02*
X0300243Y0358766D01*
X0299643Y0358766D02*
X0300844Y0358766D01*
X0302125Y0358766D02*
X0302125Y0355163D01*
X0302125Y0356964D02*
X0304527Y0356964D01*
X0304527Y0355163D02*
X0304527Y0358766D01*
X0206030Y0327080D02*
X0205430Y0327681D01*
X0204829Y0327681D01*
X0204229Y0327080D01*
X0204229Y0325879D01*
X0204829Y0325279D01*
X0205430Y0325279D01*
X0206030Y0325879D01*
X0206030Y0327080D01*
X0204229Y0327080D02*
X0203628Y0327681D01*
X0203028Y0327681D01*
X0202427Y0327080D01*
X0202427Y0325879D01*
X0203028Y0325279D01*
X0203628Y0325279D01*
X0204229Y0325879D01*
X0204829Y0323998D02*
X0204229Y0323397D01*
X0203628Y0323998D01*
X0203028Y0323998D01*
X0202427Y0323397D01*
X0202427Y0322196D01*
X0203028Y0321596D01*
X0203028Y0320315D02*
X0202427Y0319714D01*
X0202427Y0318513D01*
X0203028Y0317913D01*
X0205430Y0317913D01*
X0206030Y0318513D01*
X0206030Y0319714D01*
X0205430Y0320315D01*
X0205430Y0321596D02*
X0206030Y0322196D01*
X0206030Y0323397D01*
X0205430Y0323998D01*
X0204829Y0323998D01*
X0204229Y0323397D02*
X0204229Y0322797D01*
X0199530Y0323397D02*
X0198930Y0323998D01*
X0198329Y0323998D01*
X0197729Y0323397D01*
X0197128Y0323998D01*
X0196528Y0323998D01*
X0195927Y0323397D01*
X0195927Y0322196D01*
X0196528Y0321596D01*
X0196528Y0320315D02*
X0195927Y0319714D01*
X0195927Y0318513D01*
X0196528Y0317913D01*
X0198930Y0317913D01*
X0199530Y0318513D01*
X0199530Y0319714D01*
X0198930Y0320315D01*
X0198930Y0321596D02*
X0199530Y0322196D01*
X0199530Y0323397D01*
X0197729Y0323397D02*
X0197729Y0322797D01*
X0198329Y0325279D02*
X0197729Y0325879D01*
X0197729Y0327681D01*
X0198930Y0327681D02*
X0199530Y0327080D01*
X0199530Y0325879D01*
X0198930Y0325279D01*
X0198329Y0325279D01*
X0196528Y0325279D02*
X0195927Y0325879D01*
X0195927Y0327080D01*
X0196528Y0327681D01*
X0198930Y0327681D01*
X0192280Y0327080D02*
X0191680Y0327681D01*
X0189278Y0325279D01*
X0188677Y0325879D01*
X0188677Y0327080D01*
X0189278Y0327681D01*
X0191680Y0327681D01*
X0192280Y0327080D02*
X0192280Y0325879D01*
X0191680Y0325279D01*
X0189278Y0325279D01*
X0190479Y0323998D02*
X0190479Y0321596D01*
X0192280Y0323397D01*
X0188677Y0323397D01*
X0189278Y0320315D02*
X0188677Y0319714D01*
X0188677Y0318513D01*
X0189278Y0317913D01*
X0191680Y0317913D01*
X0192280Y0318513D01*
X0192280Y0319714D01*
X0191680Y0320315D01*
X0178777Y0329663D02*
X0178777Y0333266D01*
X0176975Y0333266D01*
X0176375Y0332665D01*
X0176375Y0331464D01*
X0176975Y0330864D01*
X0178777Y0330864D01*
X0177576Y0330864D02*
X0176375Y0329663D01*
X0175094Y0330263D02*
X0174493Y0329663D01*
X0173292Y0329663D01*
X0172692Y0330263D01*
X0172692Y0330864D01*
X0173292Y0331464D01*
X0173893Y0331464D01*
X0173292Y0331464D02*
X0172692Y0332065D01*
X0172692Y0332665D01*
X0173292Y0333266D01*
X0174493Y0333266D01*
X0175094Y0332665D01*
X0171411Y0332665D02*
X0171411Y0332065D01*
X0170810Y0331464D01*
X0169609Y0331464D01*
X0169009Y0330864D01*
X0169009Y0330263D01*
X0169609Y0329663D01*
X0170810Y0329663D01*
X0171411Y0330263D01*
X0171411Y0330864D01*
X0170810Y0331464D01*
X0169609Y0331464D02*
X0169009Y0332065D01*
X0169009Y0332665D01*
X0169609Y0333266D01*
X0170810Y0333266D01*
X0171411Y0332665D01*
X0148467Y0329250D02*
X0146666Y0327448D01*
X0146666Y0329850D01*
X0148467Y0329250D02*
X0144864Y0329250D01*
X0144864Y0326167D02*
X0144864Y0323765D01*
X0144864Y0324966D02*
X0148467Y0324966D01*
X0147266Y0323765D01*
X0147867Y0322484D02*
X0148467Y0321883D01*
X0148467Y0320082D01*
X0144864Y0320082D01*
X0144864Y0321883D01*
X0145465Y0322484D01*
X0147867Y0322484D01*
X0160028Y0309131D02*
X0159427Y0308531D01*
X0159427Y0307330D01*
X0160028Y0306729D01*
X0161229Y0306729D02*
X0161829Y0307930D01*
X0161829Y0308531D01*
X0161229Y0309131D01*
X0160028Y0309131D01*
X0161229Y0306729D02*
X0163030Y0306729D01*
X0163030Y0309131D01*
X0162430Y0305448D02*
X0161829Y0305448D01*
X0161229Y0304848D01*
X0160628Y0305448D01*
X0160028Y0305448D01*
X0159427Y0304848D01*
X0159427Y0303647D01*
X0160028Y0303046D01*
X0159427Y0301765D02*
X0160628Y0300564D01*
X0160628Y0301165D02*
X0160628Y0299363D01*
X0159427Y0299363D02*
X0163030Y0299363D01*
X0163030Y0301165D01*
X0162430Y0301765D01*
X0161229Y0301765D01*
X0160628Y0301165D01*
X0162430Y0303046D02*
X0163030Y0303647D01*
X0163030Y0304848D01*
X0162430Y0305448D01*
X0161229Y0304848D02*
X0161229Y0304247D01*
X0154030Y0298381D02*
X0153430Y0298381D01*
X0151028Y0295979D01*
X0150427Y0295979D01*
X0151028Y0294698D02*
X0150427Y0294098D01*
X0150427Y0292897D01*
X0151028Y0292296D01*
X0150427Y0291015D02*
X0151628Y0289814D01*
X0151628Y0290415D02*
X0151628Y0288613D01*
X0150427Y0288613D02*
X0154030Y0288613D01*
X0154030Y0290415D01*
X0153430Y0291015D01*
X0152229Y0291015D01*
X0151628Y0290415D01*
X0153430Y0292296D02*
X0154030Y0292897D01*
X0154030Y0294098D01*
X0153430Y0294698D01*
X0152829Y0294698D01*
X0152229Y0294098D01*
X0151628Y0294698D01*
X0151028Y0294698D01*
X0152229Y0294098D02*
X0152229Y0293497D01*
X0154030Y0295979D02*
X0154030Y0298381D01*
X0169028Y0283181D02*
X0171430Y0283181D01*
X0172030Y0282580D01*
X0172030Y0281379D01*
X0171430Y0280779D01*
X0170829Y0280779D01*
X0170229Y0281379D01*
X0170229Y0283181D01*
X0169028Y0283181D02*
X0168427Y0282580D01*
X0168427Y0281379D01*
X0169028Y0280779D01*
X0169028Y0279498D02*
X0168427Y0278897D01*
X0168427Y0277696D01*
X0169028Y0277096D01*
X0168427Y0275815D02*
X0169628Y0274614D01*
X0169628Y0275214D02*
X0169628Y0273413D01*
X0168427Y0273413D02*
X0172030Y0273413D01*
X0172030Y0275214D01*
X0171430Y0275815D01*
X0170229Y0275815D01*
X0169628Y0275214D01*
X0171430Y0277096D02*
X0172030Y0277696D01*
X0172030Y0278897D01*
X0171430Y0279498D01*
X0170829Y0279498D01*
X0170229Y0278897D01*
X0169628Y0279498D01*
X0169028Y0279498D01*
X0170229Y0278897D02*
X0170229Y0278297D01*
X0177778Y0265381D02*
X0178378Y0265381D01*
X0178979Y0264781D01*
X0178979Y0262979D01*
X0177778Y0262979D01*
X0177177Y0263580D01*
X0177177Y0264781D01*
X0177778Y0265381D01*
X0180180Y0264180D02*
X0178979Y0262979D01*
X0179579Y0261698D02*
X0178979Y0261098D01*
X0178378Y0261698D01*
X0177778Y0261698D01*
X0177177Y0261098D01*
X0177177Y0259897D01*
X0177778Y0259296D01*
X0177177Y0258015D02*
X0178378Y0256814D01*
X0178378Y0257415D02*
X0178378Y0255613D01*
X0177177Y0255613D02*
X0180780Y0255613D01*
X0180780Y0257415D01*
X0180180Y0258015D01*
X0178979Y0258015D01*
X0178378Y0257415D01*
X0180180Y0259296D02*
X0180780Y0259897D01*
X0180780Y0261098D01*
X0180180Y0261698D01*
X0179579Y0261698D01*
X0178979Y0261098D02*
X0178979Y0260497D01*
X0180180Y0264180D02*
X0180780Y0265381D01*
X0192677Y0265879D02*
X0193278Y0265279D01*
X0192677Y0265879D02*
X0192677Y0267080D01*
X0193278Y0267681D01*
X0193878Y0267681D01*
X0194479Y0267080D01*
X0194479Y0266480D01*
X0194479Y0267080D02*
X0195079Y0267681D01*
X0195680Y0267681D01*
X0196280Y0267080D01*
X0196280Y0265879D01*
X0195680Y0265279D01*
X0195680Y0263998D02*
X0195079Y0263998D01*
X0194479Y0263397D01*
X0193878Y0263998D01*
X0193278Y0263998D01*
X0192677Y0263397D01*
X0192677Y0262196D01*
X0193278Y0261596D01*
X0192677Y0260315D02*
X0193878Y0259114D01*
X0193878Y0259714D02*
X0193878Y0257913D01*
X0192677Y0257913D02*
X0196280Y0257913D01*
X0196280Y0259714D01*
X0195680Y0260315D01*
X0194479Y0260315D01*
X0193878Y0259714D01*
X0195680Y0261596D02*
X0196280Y0262196D01*
X0196280Y0263397D01*
X0195680Y0263998D01*
X0194479Y0263397D02*
X0194479Y0262797D01*
X0214677Y0246781D02*
X0215278Y0247381D01*
X0215878Y0247381D01*
X0216479Y0246781D01*
X0216479Y0246180D01*
X0216479Y0246781D02*
X0217079Y0247381D01*
X0217680Y0247381D01*
X0218280Y0246781D01*
X0218280Y0245580D01*
X0217680Y0244979D01*
X0216479Y0243698D02*
X0216479Y0241296D01*
X0218280Y0243098D01*
X0214677Y0243098D01*
X0215278Y0244979D02*
X0214677Y0245580D01*
X0214677Y0246781D01*
X0209777Y0245766D02*
X0207975Y0245766D01*
X0207375Y0245165D01*
X0207375Y0243964D01*
X0207975Y0243364D01*
X0209777Y0243364D01*
X0208576Y0243364D02*
X0207375Y0242163D01*
X0206094Y0242763D02*
X0205493Y0242163D01*
X0204292Y0242163D01*
X0203692Y0242763D01*
X0203692Y0243364D01*
X0204292Y0243964D01*
X0204893Y0243964D01*
X0204292Y0243964D02*
X0203692Y0244565D01*
X0203692Y0245165D01*
X0204292Y0245766D01*
X0205493Y0245766D01*
X0206094Y0245165D01*
X0209777Y0245766D02*
X0209777Y0242163D01*
X0214677Y0240015D02*
X0215878Y0238814D01*
X0215878Y0239415D02*
X0215878Y0237613D01*
X0214677Y0237613D02*
X0218280Y0237613D01*
X0218280Y0239415D01*
X0217680Y0240015D01*
X0216479Y0240015D01*
X0215878Y0239415D01*
X0222677Y0244363D02*
X0226280Y0244363D01*
X0226280Y0246165D01*
X0225680Y0246765D01*
X0224479Y0246765D01*
X0223878Y0246165D01*
X0223878Y0244363D01*
X0223878Y0245564D02*
X0222677Y0246765D01*
X0222677Y0248046D02*
X0225079Y0250448D01*
X0225680Y0250448D01*
X0226280Y0249848D01*
X0226280Y0248647D01*
X0225680Y0248046D01*
X0222677Y0248046D02*
X0222677Y0250448D01*
X0223278Y0251729D02*
X0222677Y0252330D01*
X0222677Y0253531D01*
X0223278Y0254131D01*
X0225680Y0254131D01*
X0226280Y0253531D01*
X0226280Y0252330D01*
X0225680Y0251729D01*
X0225079Y0251729D01*
X0224479Y0252330D01*
X0224479Y0254131D01*
X0230427Y0253281D02*
X0230427Y0252080D01*
X0231028Y0251479D01*
X0231628Y0251479D01*
X0232229Y0252080D01*
X0232229Y0253281D01*
X0231628Y0253881D01*
X0231028Y0253881D01*
X0230427Y0253281D01*
X0232229Y0253281D02*
X0232829Y0253881D01*
X0233430Y0253881D01*
X0234030Y0253281D01*
X0234030Y0252080D01*
X0233430Y0251479D01*
X0232829Y0251479D01*
X0232229Y0252080D01*
X0232829Y0250198D02*
X0230427Y0247796D01*
X0230427Y0250198D01*
X0232829Y0250198D02*
X0233430Y0250198D01*
X0234030Y0249598D01*
X0234030Y0248397D01*
X0233430Y0247796D01*
X0233430Y0246515D02*
X0232229Y0246515D01*
X0231628Y0245915D01*
X0231628Y0244113D01*
X0230427Y0244113D02*
X0234030Y0244113D01*
X0234030Y0245915D01*
X0233430Y0246515D01*
X0231628Y0245314D02*
X0230427Y0246515D01*
X0240427Y0247214D02*
X0241028Y0246613D01*
X0243430Y0246613D01*
X0244030Y0247214D01*
X0244030Y0248415D01*
X0243430Y0249015D01*
X0243430Y0250296D02*
X0244030Y0250897D01*
X0244030Y0252098D01*
X0243430Y0252698D01*
X0242829Y0252698D01*
X0240427Y0250296D01*
X0240427Y0252698D01*
X0241028Y0253979D02*
X0240427Y0254580D01*
X0240427Y0255781D01*
X0241028Y0256381D01*
X0243430Y0256381D01*
X0244030Y0255781D01*
X0244030Y0254580D01*
X0243430Y0253979D01*
X0242829Y0253979D01*
X0242229Y0254580D01*
X0242229Y0256381D01*
X0247927Y0257330D02*
X0248528Y0256729D01*
X0250930Y0259131D01*
X0248528Y0259131D01*
X0247927Y0258531D01*
X0247927Y0257330D01*
X0248528Y0256729D02*
X0250930Y0256729D01*
X0251530Y0257330D01*
X0251530Y0258531D01*
X0250930Y0259131D01*
X0250930Y0255448D02*
X0250329Y0255448D01*
X0249729Y0254848D01*
X0249128Y0255448D01*
X0248528Y0255448D01*
X0247927Y0254848D01*
X0247927Y0253647D01*
X0248528Y0253046D01*
X0248528Y0251765D02*
X0247927Y0251165D01*
X0247927Y0249964D01*
X0248528Y0249363D01*
X0250930Y0249363D01*
X0251530Y0249964D01*
X0251530Y0251165D01*
X0250930Y0251765D01*
X0250930Y0253046D02*
X0251530Y0253647D01*
X0251530Y0254848D01*
X0250930Y0255448D01*
X0249729Y0254848D02*
X0249729Y0254247D01*
X0241028Y0249015D02*
X0240427Y0248415D01*
X0240427Y0247214D01*
X0202411Y0243964D02*
X0200009Y0243964D01*
X0200609Y0242163D02*
X0200609Y0245766D01*
X0202411Y0243964D01*
X0219455Y0201516D02*
X0219455Y0197913D01*
X0219455Y0199714D02*
X0221858Y0199714D01*
X0223139Y0199114D02*
X0223139Y0198513D01*
X0223739Y0197913D01*
X0224940Y0197913D01*
X0225541Y0198513D01*
X0226822Y0198513D02*
X0226822Y0201516D01*
X0225541Y0200915D02*
X0225541Y0200315D01*
X0224940Y0199714D01*
X0223739Y0199714D01*
X0223139Y0199114D01*
X0221858Y0197913D02*
X0221858Y0201516D01*
X0223139Y0200915D02*
X0223739Y0201516D01*
X0224940Y0201516D01*
X0225541Y0200915D01*
X0226822Y0198513D02*
X0227422Y0197913D01*
X0228623Y0197913D01*
X0229224Y0198513D01*
X0229224Y0201516D01*
X0230505Y0200915D02*
X0230505Y0199714D01*
X0231105Y0199114D01*
X0232907Y0199114D01*
X0232907Y0197913D02*
X0232907Y0201516D01*
X0231105Y0201516D01*
X0230505Y0200915D01*
X0282759Y0163266D02*
X0282759Y0162665D01*
X0285161Y0160263D01*
X0285161Y0159663D01*
X0286442Y0160263D02*
X0287042Y0159663D01*
X0288243Y0159663D01*
X0288844Y0160263D01*
X0288844Y0161464D02*
X0287643Y0162065D01*
X0287042Y0162065D01*
X0286442Y0161464D01*
X0286442Y0160263D01*
X0288844Y0161464D02*
X0288844Y0163266D01*
X0286442Y0163266D01*
X0285161Y0163266D02*
X0282759Y0163266D01*
X0290125Y0162665D02*
X0290125Y0161464D01*
X0290725Y0160864D01*
X0292527Y0160864D01*
X0291326Y0160864D02*
X0290125Y0159663D01*
X0292527Y0159663D02*
X0292527Y0163266D01*
X0290725Y0163266D01*
X0290125Y0162665D01*
X0245527Y0141165D02*
X0245527Y0140565D01*
X0244927Y0139964D01*
X0243725Y0139964D01*
X0243125Y0139364D01*
X0243125Y0138763D01*
X0243725Y0138163D01*
X0244927Y0138163D01*
X0245527Y0138763D01*
X0245527Y0141165D02*
X0244927Y0141766D01*
X0243725Y0141766D01*
X0243125Y0141165D01*
X0241844Y0141766D02*
X0240042Y0141766D01*
X0239442Y0141165D01*
X0239442Y0139964D01*
X0240042Y0139364D01*
X0241844Y0139364D01*
X0240643Y0139364D02*
X0239442Y0138163D01*
X0238161Y0138163D02*
X0238161Y0141766D01*
X0235759Y0141766D01*
X0234478Y0141165D02*
X0234478Y0138763D01*
X0233877Y0138163D01*
X0232676Y0138163D01*
X0232076Y0138763D01*
X0230794Y0138163D02*
X0228392Y0138163D01*
X0229593Y0138163D02*
X0229593Y0141766D01*
X0230794Y0140565D01*
X0232076Y0141165D02*
X0232676Y0141766D01*
X0233877Y0141766D01*
X0234478Y0141165D01*
X0236960Y0139964D02*
X0238161Y0139964D01*
X0238161Y0138163D02*
X0235759Y0138163D01*
X0241844Y0138163D02*
X0241844Y0141766D01*
X0301509Y0099165D02*
X0302109Y0099766D01*
X0303310Y0099766D01*
X0303911Y0099165D01*
X0305192Y0099165D02*
X0305192Y0098565D01*
X0305792Y0097964D01*
X0306993Y0097964D01*
X0307594Y0098565D01*
X0307594Y0099165D01*
X0306993Y0099766D01*
X0305792Y0099766D01*
X0305192Y0099165D01*
X0305792Y0097964D02*
X0305192Y0097364D01*
X0305192Y0096763D01*
X0305792Y0096163D01*
X0306993Y0096163D01*
X0307594Y0096763D01*
X0307594Y0097364D01*
X0306993Y0097964D01*
X0308875Y0097964D02*
X0309475Y0097364D01*
X0311277Y0097364D01*
X0310076Y0097364D02*
X0308875Y0096163D01*
X0308875Y0097964D02*
X0308875Y0099165D01*
X0309475Y0099766D01*
X0311277Y0099766D01*
X0311277Y0096163D01*
X0303911Y0096163D02*
X0301509Y0098565D01*
X0301509Y0099165D01*
X0301509Y0096163D02*
X0303911Y0096163D01*
X0308528Y0082681D02*
X0307927Y0082080D01*
X0307927Y0080879D01*
X0308528Y0080279D01*
X0308528Y0078998D02*
X0307927Y0078397D01*
X0307927Y0077196D01*
X0308528Y0076596D01*
X0309128Y0076596D01*
X0309729Y0077196D01*
X0309729Y0078397D01*
X0309128Y0078998D01*
X0308528Y0078998D01*
X0309729Y0078397D02*
X0310329Y0078998D01*
X0310930Y0078998D01*
X0311530Y0078397D01*
X0311530Y0077196D01*
X0310930Y0076596D01*
X0310329Y0076596D01*
X0309729Y0077196D01*
X0309729Y0075315D02*
X0309128Y0074714D01*
X0309128Y0072913D01*
X0309128Y0074114D02*
X0307927Y0075315D01*
X0309729Y0075315D02*
X0310930Y0075315D01*
X0311530Y0074714D01*
X0311530Y0072913D01*
X0307927Y0072913D01*
X0308528Y0067681D02*
X0307927Y0067080D01*
X0307927Y0065879D01*
X0308528Y0065279D01*
X0309729Y0066480D02*
X0309729Y0067080D01*
X0309128Y0067681D01*
X0308528Y0067681D01*
X0309729Y0067080D02*
X0310329Y0067681D01*
X0310930Y0067681D01*
X0311530Y0067080D01*
X0311530Y0065879D01*
X0310930Y0065279D01*
X0310930Y0063998D02*
X0308528Y0061596D01*
X0307927Y0061596D01*
X0308528Y0060315D02*
X0307927Y0059714D01*
X0307927Y0058513D01*
X0308528Y0057913D01*
X0310930Y0057913D01*
X0311530Y0058513D01*
X0311530Y0059714D01*
X0310930Y0060315D01*
X0311530Y0061596D02*
X0311530Y0063998D01*
X0310930Y0063998D01*
X0298280Y0065830D02*
X0296479Y0064029D01*
X0296479Y0066431D01*
X0298280Y0065830D02*
X0294677Y0065830D01*
X0295278Y0062748D02*
X0297680Y0062748D01*
X0298280Y0062147D01*
X0298280Y0060946D01*
X0297680Y0060346D01*
X0297079Y0060346D01*
X0296479Y0060946D01*
X0296479Y0062748D01*
X0295278Y0062748D02*
X0294677Y0062147D01*
X0294677Y0060946D01*
X0295278Y0060346D01*
X0294677Y0059065D02*
X0295878Y0057864D01*
X0295878Y0058464D02*
X0295878Y0056663D01*
X0294677Y0056663D02*
X0298280Y0056663D01*
X0298280Y0058464D01*
X0297680Y0059065D01*
X0296479Y0059065D01*
X0295878Y0058464D01*
X0296128Y0071663D02*
X0296128Y0073464D01*
X0296729Y0074065D01*
X0297930Y0074065D01*
X0298530Y0073464D01*
X0298530Y0071663D01*
X0294927Y0071663D01*
X0296128Y0072864D02*
X0294927Y0074065D01*
X0295528Y0075346D02*
X0294927Y0075946D01*
X0294927Y0077147D01*
X0295528Y0077748D01*
X0297930Y0077748D01*
X0298530Y0077147D01*
X0298530Y0075946D01*
X0297930Y0075346D01*
X0297329Y0075346D01*
X0296729Y0075946D01*
X0296729Y0077748D01*
X0297930Y0079029D02*
X0298530Y0079629D01*
X0298530Y0080830D01*
X0297930Y0081431D01*
X0297329Y0081431D01*
X0296729Y0080830D01*
X0296128Y0081431D01*
X0295528Y0081431D01*
X0294927Y0080830D01*
X0294927Y0079629D01*
X0295528Y0079029D01*
X0296729Y0080230D02*
X0296729Y0080830D01*
X0308528Y0082681D02*
X0309128Y0082681D01*
X0309729Y0082080D01*
X0309729Y0081480D01*
X0309729Y0082080D02*
X0310329Y0082681D01*
X0310930Y0082681D01*
X0311530Y0082080D01*
X0311530Y0080879D01*
X0310930Y0080279D01*
X0331677Y0079147D02*
X0331677Y0077946D01*
X0332278Y0077346D01*
X0332878Y0077346D01*
X0333479Y0077946D01*
X0333479Y0079147D01*
X0332878Y0079748D01*
X0332278Y0079748D01*
X0331677Y0079147D01*
X0333479Y0079147D02*
X0334079Y0079748D01*
X0334680Y0079748D01*
X0335280Y0079147D01*
X0335280Y0077946D01*
X0334680Y0077346D01*
X0334079Y0077346D01*
X0333479Y0077946D01*
X0333479Y0076065D02*
X0332878Y0075464D01*
X0332878Y0073663D01*
X0332878Y0074864D02*
X0331677Y0076065D01*
X0333479Y0076065D02*
X0334680Y0076065D01*
X0335280Y0075464D01*
X0335280Y0073663D01*
X0331677Y0073663D01*
X0332278Y0067681D02*
X0331677Y0067080D01*
X0331677Y0065879D01*
X0332278Y0065279D01*
X0334680Y0067681D01*
X0332278Y0067681D01*
X0334680Y0067681D02*
X0335280Y0067080D01*
X0335280Y0065879D01*
X0334680Y0065279D01*
X0332278Y0065279D01*
X0332278Y0063998D02*
X0331677Y0063397D01*
X0331677Y0062196D01*
X0332278Y0061596D01*
X0332878Y0061596D01*
X0333479Y0062196D01*
X0333479Y0063397D01*
X0332878Y0063998D01*
X0332278Y0063998D01*
X0333479Y0063397D02*
X0334079Y0063998D01*
X0334680Y0063998D01*
X0335280Y0063397D01*
X0335280Y0062196D01*
X0334680Y0061596D01*
X0334079Y0061596D01*
X0333479Y0062196D01*
X0333479Y0060315D02*
X0332878Y0059714D01*
X0332878Y0057913D01*
X0332878Y0059114D02*
X0331677Y0060315D01*
X0333479Y0060315D02*
X0334680Y0060315D01*
X0335280Y0059714D01*
X0335280Y0057913D01*
X0331677Y0057913D01*
X0333479Y0081029D02*
X0333479Y0083431D01*
X0335280Y0082830D02*
X0333479Y0081029D01*
X0335280Y0082830D02*
X0331677Y0082830D01*
X0454009Y0095013D02*
X0454609Y0094413D01*
X0455810Y0094413D01*
X0456411Y0095013D01*
X0456411Y0096214D02*
X0455210Y0096815D01*
X0454609Y0096815D01*
X0454009Y0096214D01*
X0454009Y0095013D01*
X0456411Y0096214D02*
X0456411Y0098016D01*
X0454009Y0098016D01*
X0458893Y0098016D02*
X0458893Y0094413D01*
X0460094Y0094413D02*
X0457692Y0094413D01*
X0460094Y0096815D02*
X0458893Y0098016D01*
X0461375Y0097415D02*
X0461975Y0098016D01*
X0463177Y0098016D01*
X0463777Y0097415D01*
X0463777Y0095013D01*
X0463177Y0094413D01*
X0461975Y0094413D01*
X0461375Y0095013D01*
X0465759Y0095013D02*
X0466359Y0094413D01*
X0467560Y0094413D01*
X0468161Y0095013D01*
X0465759Y0097415D01*
X0465759Y0095013D01*
X0468161Y0095013D02*
X0468161Y0097415D01*
X0467560Y0098016D01*
X0466359Y0098016D01*
X0465759Y0097415D01*
X0469442Y0094413D02*
X0471844Y0094413D01*
X0470643Y0094413D02*
X0470643Y0098016D01*
X0471844Y0096815D01*
X0473125Y0097415D02*
X0473125Y0096214D01*
X0473725Y0095614D01*
X0475527Y0095614D01*
X0474326Y0095614D02*
X0473125Y0094413D01*
X0475527Y0094413D02*
X0475527Y0098016D01*
X0473725Y0098016D01*
X0473125Y0097415D01*
X0479990Y0125694D02*
X0479990Y0128096D01*
X0479990Y0129377D02*
X0479990Y0131179D01*
X0480591Y0131779D01*
X0482993Y0131779D01*
X0483593Y0131179D01*
X0483593Y0129377D01*
X0479990Y0129377D01*
X0482993Y0128096D02*
X0480591Y0125694D01*
X0479990Y0125694D01*
X0483593Y0125694D02*
X0483593Y0128096D01*
X0482993Y0128096D01*
X0482993Y0133060D02*
X0483593Y0133661D01*
X0483593Y0134862D01*
X0482993Y0135462D01*
X0482392Y0135462D01*
X0481792Y0134862D01*
X0481191Y0135462D01*
X0480591Y0135462D01*
X0479990Y0134862D01*
X0479990Y0133661D01*
X0480591Y0133060D01*
X0481792Y0134261D02*
X0481792Y0134862D01*
X0489177Y0133796D02*
X0489177Y0136198D01*
X0489177Y0137479D02*
X0489177Y0139881D01*
X0489177Y0138680D02*
X0492780Y0138680D01*
X0491579Y0137479D01*
X0491579Y0136198D02*
X0492180Y0136198D01*
X0492780Y0135598D01*
X0492780Y0134397D01*
X0492180Y0133796D01*
X0492180Y0132515D02*
X0490979Y0132515D01*
X0490378Y0131915D01*
X0490378Y0130113D01*
X0489177Y0130113D02*
X0492780Y0130113D01*
X0492780Y0131915D01*
X0492180Y0132515D01*
X0490378Y0131314D02*
X0489177Y0132515D01*
X0489177Y0133796D02*
X0491579Y0136198D01*
X0496677Y0136198D02*
X0496677Y0133796D01*
X0496677Y0134997D02*
X0500280Y0134997D01*
X0499079Y0133796D01*
X0498479Y0132515D02*
X0497878Y0131915D01*
X0497878Y0130113D01*
X0496677Y0130113D02*
X0500280Y0130113D01*
X0500280Y0131915D01*
X0499680Y0132515D01*
X0498479Y0132515D01*
X0497878Y0131314D02*
X0496677Y0132515D01*
X0496677Y0137479D02*
X0497278Y0137479D01*
X0499680Y0139881D01*
X0500280Y0139881D01*
X0500280Y0137479D01*
X0532824Y0147364D02*
X0532824Y0148565D01*
X0534025Y0149766D01*
X0535306Y0149766D02*
X0535306Y0147364D01*
X0536507Y0146163D01*
X0537708Y0147364D01*
X0537708Y0149766D01*
X0538989Y0149766D02*
X0541391Y0149766D01*
X0541391Y0147964D01*
X0540190Y0148565D01*
X0539590Y0148565D01*
X0538989Y0147964D01*
X0538989Y0146763D01*
X0539590Y0146163D01*
X0540791Y0146163D01*
X0541391Y0146763D01*
X0542632Y0146763D02*
X0542632Y0146163D01*
X0543233Y0146163D01*
X0543233Y0146763D01*
X0542632Y0146763D01*
X0544514Y0146163D02*
X0546916Y0146163D01*
X0544514Y0148565D01*
X0544514Y0149165D01*
X0545114Y0149766D01*
X0546316Y0149766D01*
X0546916Y0149165D01*
X0551840Y0146763D02*
X0551840Y0146163D01*
X0552441Y0146163D01*
X0552441Y0146763D01*
X0551840Y0146763D01*
X0553722Y0146163D02*
X0556124Y0148565D01*
X0557405Y0147964D02*
X0558005Y0148565D01*
X0559207Y0148565D01*
X0559207Y0147364D02*
X0557405Y0147364D01*
X0557405Y0147964D02*
X0557405Y0146163D01*
X0559207Y0146163D01*
X0559807Y0146763D01*
X0559207Y0147364D01*
X0561088Y0147964D02*
X0561088Y0146163D01*
X0562289Y0146163D02*
X0562289Y0147964D01*
X0561689Y0148565D01*
X0561088Y0147964D01*
X0562289Y0147964D02*
X0562890Y0148565D01*
X0563490Y0148565D01*
X0563490Y0146163D01*
X0564745Y0146163D02*
X0565946Y0147364D01*
X0565946Y0148565D01*
X0564745Y0149766D01*
X0570910Y0147964D02*
X0573312Y0147964D01*
X0572111Y0149165D02*
X0572111Y0146763D01*
X0574593Y0146163D02*
X0576995Y0146163D01*
X0576995Y0149766D01*
X0578276Y0149165D02*
X0578276Y0147964D01*
X0578877Y0147364D01*
X0580678Y0147364D01*
X0579477Y0147364D02*
X0578276Y0146163D01*
X0580678Y0146163D02*
X0580678Y0149766D01*
X0578877Y0149766D01*
X0578276Y0149165D01*
X0579477Y0152163D02*
X0579477Y0155766D01*
X0580678Y0155766D02*
X0578276Y0155766D01*
X0577195Y0156563D02*
X0595611Y0156563D01*
X0595411Y0155766D02*
X0593009Y0155766D01*
X0591728Y0154565D02*
X0591728Y0152163D01*
X0591728Y0153964D02*
X0589326Y0153964D01*
X0589326Y0154565D02*
X0589326Y0152163D01*
X0588044Y0152763D02*
X0587444Y0152163D01*
X0586243Y0152163D01*
X0585642Y0152763D01*
X0585642Y0155766D01*
X0584361Y0155766D02*
X0584361Y0152163D01*
X0581959Y0152163D01*
X0581959Y0149766D02*
X0584361Y0149766D01*
X0583160Y0149766D02*
X0583160Y0146163D01*
X0583160Y0143766D02*
X0583160Y0140163D01*
X0580678Y0140163D02*
X0580678Y0143766D01*
X0578877Y0143766D01*
X0578276Y0143165D01*
X0578276Y0141964D01*
X0578877Y0141364D01*
X0580678Y0141364D01*
X0579477Y0141364D02*
X0578276Y0140163D01*
X0576995Y0140163D02*
X0574593Y0140163D01*
X0573312Y0141964D02*
X0570910Y0141964D01*
X0576995Y0140163D02*
X0576995Y0143766D01*
X0581959Y0143766D02*
X0584361Y0143766D01*
X0585642Y0143165D02*
X0586243Y0143766D01*
X0587444Y0143766D01*
X0588044Y0143165D01*
X0588044Y0140763D01*
X0587444Y0140163D01*
X0586243Y0140163D01*
X0585642Y0140763D01*
X0586243Y0137766D02*
X0587444Y0137766D01*
X0588044Y0137165D01*
X0586243Y0137766D02*
X0585642Y0137165D01*
X0585642Y0136565D01*
X0588044Y0134163D01*
X0585642Y0134163D01*
X0584361Y0135364D02*
X0584361Y0137766D01*
X0581959Y0137766D02*
X0581959Y0135364D01*
X0583160Y0134163D01*
X0584361Y0135364D01*
X0585642Y0131766D02*
X0585642Y0129364D01*
X0586843Y0128163D01*
X0588044Y0129364D01*
X0588044Y0131766D01*
X0589326Y0131165D02*
X0589926Y0131766D01*
X0591127Y0131766D01*
X0591728Y0131165D01*
X0589326Y0131165D02*
X0589326Y0130565D01*
X0591728Y0128163D01*
X0589326Y0128163D01*
X0590527Y0125766D02*
X0590527Y0122163D01*
X0591728Y0122163D02*
X0589326Y0122163D01*
X0588044Y0122163D02*
X0585642Y0124565D01*
X0585642Y0125165D01*
X0586243Y0125766D01*
X0587444Y0125766D01*
X0588044Y0125165D01*
X0590527Y0125766D02*
X0591728Y0124565D01*
X0593009Y0123964D02*
X0595411Y0123964D01*
X0594210Y0125165D02*
X0594210Y0122763D01*
X0600375Y0122163D02*
X0602777Y0122163D01*
X0601576Y0122163D02*
X0601576Y0125766D01*
X0602777Y0124565D01*
X0602777Y0128163D02*
X0600375Y0130565D01*
X0600375Y0131165D01*
X0600975Y0131766D01*
X0602177Y0131766D01*
X0602777Y0131165D01*
X0602777Y0128163D02*
X0600375Y0128163D01*
X0595411Y0128163D02*
X0593009Y0128163D01*
X0594210Y0128163D02*
X0594210Y0131766D01*
X0595411Y0130565D01*
X0591728Y0134163D02*
X0589326Y0134163D01*
X0590527Y0134163D02*
X0590527Y0137766D01*
X0591728Y0136565D01*
X0593009Y0135964D02*
X0595411Y0135964D01*
X0594810Y0140163D02*
X0593609Y0140163D01*
X0593009Y0140763D01*
X0593009Y0143766D01*
X0591728Y0145562D02*
X0589326Y0145562D01*
X0588044Y0146763D02*
X0587444Y0146163D01*
X0586243Y0146163D01*
X0585642Y0146763D01*
X0585642Y0149165D02*
X0586243Y0149766D01*
X0587444Y0149766D01*
X0588044Y0149165D01*
X0588044Y0146763D01*
X0593009Y0146763D02*
X0593009Y0149766D01*
X0595411Y0149766D02*
X0595411Y0146763D01*
X0594810Y0146163D01*
X0593609Y0146163D01*
X0593009Y0146763D01*
X0595411Y0143766D02*
X0595411Y0140763D01*
X0594810Y0140163D01*
X0591728Y0139562D02*
X0589326Y0139562D01*
X0580678Y0131165D02*
X0580078Y0131766D01*
X0578877Y0131766D01*
X0578276Y0131165D01*
X0578276Y0129964D02*
X0579477Y0129964D01*
X0578276Y0129964D02*
X0578276Y0128763D01*
X0578877Y0128163D01*
X0580078Y0128163D01*
X0580678Y0128763D01*
X0580678Y0131165D01*
X0576995Y0131766D02*
X0574593Y0128163D01*
X0574593Y0131766D01*
X0573312Y0131766D02*
X0571510Y0131766D01*
X0570910Y0131165D01*
X0570910Y0128763D01*
X0571510Y0128163D01*
X0573312Y0128163D01*
X0573312Y0131766D01*
X0576995Y0131766D02*
X0576995Y0128163D01*
X0581959Y0127562D02*
X0584361Y0127562D01*
X0584361Y0125766D02*
X0584361Y0123364D01*
X0583160Y0122163D01*
X0581959Y0123364D01*
X0581959Y0125766D01*
X0585642Y0122163D02*
X0588044Y0122163D01*
X0600375Y0134763D02*
X0600975Y0134163D01*
X0602177Y0134163D01*
X0602777Y0134763D01*
X0601576Y0135964D02*
X0600975Y0135964D01*
X0600375Y0135364D01*
X0600375Y0134763D01*
X0600975Y0135964D02*
X0600375Y0136565D01*
X0600375Y0137165D01*
X0600975Y0137766D01*
X0602177Y0137766D01*
X0602777Y0137165D01*
X0600975Y0140163D02*
X0600975Y0143766D01*
X0602777Y0141964D01*
X0600375Y0141964D01*
X0600975Y0146163D02*
X0602177Y0146163D01*
X0602777Y0146763D01*
X0602777Y0147964D02*
X0601576Y0148565D01*
X0600975Y0148565D01*
X0600375Y0147964D01*
X0600375Y0146763D01*
X0600975Y0146163D01*
X0602777Y0147964D02*
X0602777Y0149766D01*
X0600375Y0149766D01*
X0600975Y0152163D02*
X0600375Y0152763D01*
X0600375Y0153364D01*
X0600975Y0153964D01*
X0602777Y0153964D01*
X0602777Y0152763D01*
X0602177Y0152163D01*
X0600975Y0152163D01*
X0602777Y0153964D02*
X0601576Y0155165D01*
X0600375Y0155766D01*
X0602777Y0158163D02*
X0602777Y0158763D01*
X0600375Y0161165D01*
X0600375Y0161766D01*
X0602777Y0161766D01*
X0602177Y0164163D02*
X0602777Y0164763D01*
X0602777Y0165364D01*
X0602177Y0165964D01*
X0600975Y0165964D01*
X0600375Y0165364D01*
X0600375Y0164763D01*
X0600975Y0164163D01*
X0602177Y0164163D01*
X0602177Y0165964D02*
X0602777Y0166565D01*
X0602777Y0167165D01*
X0602177Y0167766D01*
X0600975Y0167766D01*
X0600375Y0167165D01*
X0600375Y0166565D01*
X0600975Y0165964D01*
X0600975Y0170163D02*
X0600375Y0170763D01*
X0600375Y0173165D01*
X0600975Y0173766D01*
X0602177Y0173766D01*
X0602777Y0173165D01*
X0602777Y0172565D01*
X0602177Y0171964D01*
X0600375Y0171964D01*
X0600975Y0170163D02*
X0602177Y0170163D01*
X0602777Y0170763D01*
X0595411Y0171364D02*
X0595411Y0173766D01*
X0593009Y0173766D02*
X0593009Y0171364D01*
X0594210Y0170163D01*
X0595411Y0171364D01*
X0594810Y0167766D02*
X0595411Y0167165D01*
X0595411Y0164763D01*
X0594810Y0164163D01*
X0593609Y0164163D01*
X0593009Y0164763D01*
X0593009Y0165964D01*
X0594210Y0165964D01*
X0593009Y0167165D02*
X0593609Y0167766D01*
X0594810Y0167766D01*
X0591728Y0167766D02*
X0589326Y0164163D01*
X0589326Y0167766D01*
X0588044Y0167766D02*
X0586243Y0167766D01*
X0585642Y0167165D01*
X0585642Y0164763D01*
X0586243Y0164163D01*
X0588044Y0164163D01*
X0588044Y0167766D01*
X0591728Y0167766D02*
X0591728Y0164163D01*
X0593009Y0161766D02*
X0593009Y0159364D01*
X0594210Y0158163D01*
X0595411Y0159364D01*
X0595411Y0161766D01*
X0591728Y0159964D02*
X0589326Y0159964D01*
X0590527Y0161165D02*
X0590527Y0158763D01*
X0590527Y0155766D02*
X0589326Y0154565D01*
X0590527Y0155766D02*
X0591728Y0154565D01*
X0594210Y0153964D02*
X0595411Y0153964D01*
X0595411Y0152163D02*
X0595411Y0155766D01*
X0588044Y0155766D02*
X0588044Y0152763D01*
X0589326Y0171964D02*
X0591728Y0171964D01*
X0592361Y0178413D02*
X0592361Y0180815D01*
X0590560Y0180815D01*
X0589959Y0180214D01*
X0589959Y0178413D01*
X0588678Y0178413D02*
X0588678Y0180815D01*
X0586877Y0180815D01*
X0586276Y0180214D01*
X0586276Y0178413D01*
X0584995Y0179013D02*
X0584995Y0180214D01*
X0584395Y0180815D01*
X0583193Y0180815D01*
X0582593Y0180214D01*
X0582593Y0179614D01*
X0584995Y0179614D01*
X0584995Y0179013D02*
X0584395Y0178413D01*
X0583193Y0178413D01*
X0581312Y0179013D02*
X0580711Y0178413D01*
X0578910Y0178413D01*
X0577028Y0179013D02*
X0577028Y0181415D01*
X0576428Y0180815D02*
X0577629Y0180815D01*
X0578910Y0180815D02*
X0580711Y0180815D01*
X0581312Y0180214D01*
X0581312Y0179013D01*
X0577028Y0179013D02*
X0576428Y0178413D01*
X0575173Y0179013D02*
X0574573Y0178413D01*
X0573372Y0178413D01*
X0572771Y0179013D01*
X0572771Y0180214D01*
X0573372Y0180815D01*
X0574573Y0180815D01*
X0575173Y0180214D01*
X0575173Y0179013D01*
X0571490Y0178413D02*
X0571490Y0180815D01*
X0570289Y0180815D02*
X0569689Y0180815D01*
X0570289Y0180815D02*
X0571490Y0179614D01*
X0556277Y0187913D02*
X0556277Y0191516D01*
X0554475Y0191516D01*
X0553875Y0190915D01*
X0553875Y0189714D01*
X0554475Y0189114D01*
X0556277Y0189114D01*
X0555076Y0189114D02*
X0553875Y0187913D01*
X0552594Y0187913D02*
X0550192Y0187913D01*
X0551393Y0187913D02*
X0551393Y0191516D01*
X0552594Y0190315D01*
X0548911Y0190915D02*
X0548310Y0191516D01*
X0547109Y0191516D01*
X0546509Y0190915D01*
X0546509Y0190315D01*
X0548911Y0187913D01*
X0546509Y0187913D01*
X0543027Y0188513D02*
X0542427Y0187913D01*
X0541225Y0187913D01*
X0540625Y0188513D01*
X0539344Y0187913D02*
X0536942Y0187913D01*
X0538143Y0187913D02*
X0538143Y0191516D01*
X0539344Y0190315D01*
X0540625Y0190915D02*
X0541225Y0191516D01*
X0542427Y0191516D01*
X0543027Y0190915D01*
X0543027Y0188513D01*
X0535661Y0188513D02*
X0535661Y0187913D01*
X0535661Y0188513D02*
X0533259Y0190915D01*
X0533259Y0191516D01*
X0535661Y0191516D01*
X0499030Y0207863D02*
X0499030Y0209665D01*
X0498430Y0210265D01*
X0497229Y0210265D01*
X0496628Y0209665D01*
X0496628Y0207863D01*
X0495427Y0207863D02*
X0499030Y0207863D01*
X0496628Y0209064D02*
X0495427Y0210265D01*
X0495427Y0211546D02*
X0497829Y0213948D01*
X0498430Y0213948D01*
X0499030Y0213348D01*
X0499030Y0212147D01*
X0498430Y0211546D01*
X0495427Y0211546D02*
X0495427Y0213948D01*
X0496028Y0215229D02*
X0498430Y0217631D01*
X0496028Y0217631D01*
X0495427Y0217031D01*
X0495427Y0215830D01*
X0496028Y0215229D01*
X0498430Y0215229D01*
X0499030Y0215830D01*
X0499030Y0217031D01*
X0498430Y0217631D01*
X0492326Y0229913D02*
X0492326Y0233516D01*
X0490525Y0233516D01*
X0489924Y0232915D01*
X0489924Y0231714D01*
X0490525Y0231114D01*
X0492326Y0231114D01*
X0491125Y0231114D02*
X0489924Y0229913D01*
X0488643Y0229913D02*
X0486241Y0229913D01*
X0487442Y0229913D02*
X0487442Y0233516D01*
X0488643Y0232315D01*
X0484960Y0232315D02*
X0484960Y0232915D01*
X0484360Y0233516D01*
X0483159Y0233516D01*
X0482558Y0232915D01*
X0482558Y0232315D01*
X0483159Y0231714D01*
X0484360Y0231714D01*
X0484960Y0232315D01*
X0484360Y0231714D02*
X0484960Y0231114D01*
X0484960Y0230513D01*
X0484360Y0229913D01*
X0483159Y0229913D01*
X0482558Y0230513D01*
X0482558Y0231114D01*
X0483159Y0231714D01*
X0477280Y0245413D02*
X0473677Y0245413D01*
X0474878Y0245413D02*
X0474878Y0247214D01*
X0475479Y0247815D01*
X0476680Y0247815D01*
X0477280Y0247214D01*
X0477280Y0245413D01*
X0474878Y0246614D02*
X0473677Y0247815D01*
X0473677Y0249096D02*
X0473677Y0251498D01*
X0473677Y0250297D02*
X0477280Y0250297D01*
X0476079Y0249096D01*
X0475479Y0252779D02*
X0475479Y0254580D01*
X0474878Y0255181D01*
X0474278Y0255181D01*
X0473677Y0254580D01*
X0473677Y0253379D01*
X0474278Y0252779D01*
X0475479Y0252779D01*
X0476680Y0253980D01*
X0477280Y0255181D01*
X0459030Y0255431D02*
X0459030Y0253029D01*
X0458430Y0251748D02*
X0459030Y0251147D01*
X0459030Y0249946D01*
X0458430Y0249346D01*
X0458430Y0248065D02*
X0459030Y0247464D01*
X0459030Y0246263D01*
X0458430Y0245663D01*
X0456028Y0245663D01*
X0455427Y0246263D01*
X0455427Y0247464D01*
X0456028Y0248065D01*
X0455427Y0249346D02*
X0457829Y0251748D01*
X0458430Y0251748D01*
X0456028Y0253029D02*
X0455427Y0253029D01*
X0456028Y0253029D02*
X0458430Y0255431D01*
X0459030Y0255431D01*
X0455427Y0251748D02*
X0455427Y0249346D01*
X0452780Y0248147D02*
X0452780Y0246946D01*
X0452180Y0246346D01*
X0452180Y0245065D02*
X0452780Y0244464D01*
X0452780Y0243263D01*
X0452180Y0242663D01*
X0449778Y0242663D01*
X0449177Y0243263D01*
X0449177Y0244464D01*
X0449778Y0245065D01*
X0449177Y0246346D02*
X0451579Y0248748D01*
X0452180Y0248748D01*
X0452780Y0248147D01*
X0451579Y0250029D02*
X0452780Y0251230D01*
X0449177Y0251230D01*
X0449177Y0250029D02*
X0449177Y0252431D01*
X0449177Y0248748D02*
X0449177Y0246346D01*
X0431643Y0241665D02*
X0431643Y0239263D01*
X0431043Y0238663D01*
X0429842Y0238663D01*
X0429241Y0239263D01*
X0427960Y0240464D02*
X0425558Y0240464D01*
X0426159Y0238663D02*
X0426159Y0242266D01*
X0427960Y0240464D01*
X0429241Y0241665D02*
X0429842Y0242266D01*
X0431043Y0242266D01*
X0431643Y0241665D01*
X0428280Y0248796D02*
X0424677Y0248796D01*
X0425878Y0248796D02*
X0425878Y0250598D01*
X0426479Y0251198D01*
X0427680Y0251198D01*
X0428280Y0250598D01*
X0428280Y0248796D01*
X0425878Y0249997D02*
X0424677Y0251198D01*
X0426479Y0252479D02*
X0426479Y0254881D01*
X0428280Y0254281D02*
X0426479Y0252479D01*
X0428280Y0254281D02*
X0424677Y0254281D01*
X0425278Y0263163D02*
X0424677Y0263763D01*
X0424677Y0264964D01*
X0425278Y0265565D01*
X0425278Y0266846D02*
X0424677Y0267446D01*
X0424677Y0268647D01*
X0425278Y0269248D01*
X0425878Y0269248D01*
X0426479Y0268647D01*
X0426479Y0266846D01*
X0425278Y0266846D01*
X0426479Y0266846D02*
X0427680Y0268047D01*
X0428280Y0269248D01*
X0427680Y0265565D02*
X0428280Y0264964D01*
X0428280Y0263763D01*
X0427680Y0263163D01*
X0425278Y0263163D01*
X0412717Y0275582D02*
X0412717Y0277984D01*
X0412117Y0277984D01*
X0409715Y0275582D01*
X0409114Y0275582D01*
X0409114Y0277984D01*
X0409114Y0279265D02*
X0409114Y0281067D01*
X0409715Y0281667D01*
X0412117Y0281667D01*
X0412717Y0281067D01*
X0412717Y0279265D01*
X0409114Y0279265D01*
X0409114Y0282948D02*
X0409114Y0285350D01*
X0409114Y0284149D02*
X0412717Y0284149D01*
X0411516Y0282948D01*
X0362777Y0244165D02*
X0362777Y0241763D01*
X0362177Y0241163D01*
X0360975Y0241163D01*
X0360375Y0241763D01*
X0359094Y0241763D02*
X0358493Y0241163D01*
X0357292Y0241163D01*
X0356692Y0241763D01*
X0356692Y0242964D01*
X0357292Y0243565D01*
X0357893Y0243565D01*
X0359094Y0242964D01*
X0359094Y0244766D01*
X0356692Y0244766D01*
X0355411Y0244766D02*
X0355411Y0242964D01*
X0354210Y0243565D01*
X0353609Y0243565D01*
X0353009Y0242964D01*
X0353009Y0241763D01*
X0353609Y0241163D01*
X0354810Y0241163D01*
X0355411Y0241763D01*
X0355411Y0244766D02*
X0353009Y0244766D01*
X0360375Y0244165D02*
X0360975Y0244766D01*
X0362177Y0244766D01*
X0362777Y0244165D01*
X0400312Y0232413D02*
X0403381Y0232413D01*
X0404916Y0232413D02*
X0406450Y0233947D01*
X0405683Y0232413D02*
X0407218Y0232413D01*
X0407985Y0233180D01*
X0407985Y0236249D01*
X0407218Y0237017D01*
X0405683Y0237017D01*
X0404916Y0236249D01*
X0404916Y0233180D01*
X0405683Y0232413D01*
X0403381Y0235482D02*
X0401846Y0237017D01*
X0401846Y0232413D01*
X0410990Y0205756D02*
X0410990Y0203353D01*
X0413392Y0205756D01*
X0413993Y0205756D01*
X0414593Y0205155D01*
X0414593Y0203954D01*
X0413993Y0203353D01*
X0413993Y0202072D02*
X0414593Y0201472D01*
X0414593Y0199670D01*
X0410990Y0199670D01*
X0410990Y0201472D01*
X0411591Y0202072D01*
X0413993Y0202072D01*
X0413993Y0198389D02*
X0411591Y0195987D01*
X0410990Y0195987D01*
X0410990Y0198389D01*
X0413993Y0198389D02*
X0414593Y0198389D01*
X0414593Y0195987D01*
X0475558Y0201513D02*
X0476159Y0200913D01*
X0477360Y0200913D01*
X0477960Y0201513D01*
X0477960Y0202114D01*
X0477360Y0202714D01*
X0476159Y0202714D01*
X0475558Y0202114D01*
X0475558Y0201513D01*
X0476159Y0202714D02*
X0475558Y0203315D01*
X0475558Y0203915D01*
X0476159Y0204516D01*
X0477360Y0204516D01*
X0477960Y0203915D01*
X0477960Y0203315D01*
X0477360Y0202714D01*
X0479241Y0203315D02*
X0479241Y0203915D01*
X0479842Y0204516D01*
X0481043Y0204516D01*
X0481643Y0203915D01*
X0482924Y0203915D02*
X0483525Y0204516D01*
X0484726Y0204516D01*
X0485326Y0203915D01*
X0485326Y0201513D01*
X0484726Y0200913D01*
X0483525Y0200913D01*
X0482924Y0201513D01*
X0481643Y0200913D02*
X0479241Y0203315D01*
X0479241Y0200913D02*
X0481643Y0200913D01*
X0492927Y0190881D02*
X0492927Y0188479D01*
X0492927Y0189680D02*
X0496530Y0189680D01*
X0495329Y0188479D01*
X0496530Y0187198D02*
X0494128Y0184796D01*
X0494729Y0185397D02*
X0492927Y0187198D01*
X0492927Y0184796D02*
X0496530Y0184796D01*
X0495930Y0183515D02*
X0496530Y0182915D01*
X0496530Y0181714D01*
X0495930Y0181113D01*
X0493528Y0181113D01*
X0492927Y0181714D01*
X0492927Y0182915D01*
X0493528Y0183515D01*
X0495930Y0183515D01*
X0553722Y0148565D02*
X0556124Y0146163D01*
X0534025Y0146163D02*
X0532824Y0147364D01*
X0593642Y0179013D02*
X0593642Y0180214D01*
X0594243Y0180815D01*
X0595444Y0180815D01*
X0596044Y0180214D01*
X0596044Y0179013D01*
X0595444Y0178413D01*
X0594243Y0178413D01*
X0593642Y0179013D01*
X0597326Y0178413D02*
X0599127Y0178413D01*
X0599728Y0179013D01*
X0599728Y0180214D01*
X0599127Y0180815D01*
X0597326Y0180815D01*
X0604692Y0180815D02*
X0604692Y0181415D01*
X0605292Y0182016D01*
X0606493Y0182016D01*
X0607094Y0181415D01*
X0608375Y0182016D02*
X0610777Y0178413D01*
X0608375Y0178413D02*
X0610777Y0182016D01*
X0607094Y0178413D02*
X0604692Y0180815D01*
X0604692Y0178413D02*
X0607094Y0178413D01*
X0529030Y0243113D02*
X0525427Y0243113D01*
X0526628Y0243113D02*
X0526628Y0244915D01*
X0527229Y0245515D01*
X0528430Y0245515D01*
X0529030Y0244915D01*
X0529030Y0243113D01*
X0526628Y0244314D02*
X0525427Y0245515D01*
X0525427Y0246796D02*
X0525427Y0249198D01*
X0525427Y0247997D02*
X0529030Y0247997D01*
X0527829Y0246796D01*
X0528430Y0250479D02*
X0529030Y0251080D01*
X0529030Y0252281D01*
X0528430Y0252881D01*
X0527829Y0252881D01*
X0527229Y0252281D01*
X0526628Y0252881D01*
X0526028Y0252881D01*
X0525427Y0252281D01*
X0525427Y0251080D01*
X0526028Y0250479D01*
X0527229Y0251680D02*
X0527229Y0252281D01*
X0509326Y0247016D02*
X0507525Y0247016D01*
X0506924Y0246415D01*
X0506924Y0245214D01*
X0507525Y0244614D01*
X0509326Y0244614D01*
X0508125Y0244614D02*
X0506924Y0243413D01*
X0505643Y0243413D02*
X0503241Y0243413D01*
X0504442Y0243413D02*
X0504442Y0247016D01*
X0505643Y0245815D01*
X0501960Y0245214D02*
X0499558Y0245214D01*
X0500159Y0243413D02*
X0500159Y0247016D01*
X0501960Y0245214D01*
X0509326Y0243413D02*
X0509326Y0247016D01*
X0592435Y0300714D02*
X0596038Y0300714D01*
X0596038Y0302515D01*
X0595437Y0303116D01*
X0594236Y0303116D01*
X0593636Y0302515D01*
X0593636Y0300714D01*
X0593636Y0301915D02*
X0592435Y0303116D01*
X0593035Y0304397D02*
X0592435Y0304997D01*
X0592435Y0306198D01*
X0593035Y0306799D01*
X0593636Y0306799D01*
X0594236Y0306198D01*
X0594236Y0305598D01*
X0594236Y0306198D02*
X0594837Y0306799D01*
X0595437Y0306799D01*
X0596038Y0306198D01*
X0596038Y0304997D01*
X0595437Y0304397D01*
X0596038Y0320714D02*
X0596038Y0322515D01*
X0595437Y0323116D01*
X0594236Y0323116D01*
X0593636Y0322515D01*
X0593636Y0320714D01*
X0593636Y0321915D02*
X0592435Y0323116D01*
X0592435Y0324397D02*
X0594837Y0326799D01*
X0595437Y0326799D01*
X0596038Y0326198D01*
X0596038Y0324997D01*
X0595437Y0324397D01*
X0592435Y0324397D02*
X0592435Y0326799D01*
X0592435Y0320714D02*
X0596038Y0320714D01*
X0581326Y0087959D02*
X0580125Y0087959D01*
X0580725Y0087959D02*
X0580725Y0084956D01*
X0581326Y0084356D01*
X0581927Y0084356D01*
X0582527Y0084956D01*
X0578844Y0084356D02*
X0578844Y0087959D01*
X0577042Y0087959D01*
X0576442Y0087358D01*
X0576442Y0086157D01*
X0577042Y0085557D01*
X0578844Y0085557D01*
X0575161Y0086157D02*
X0573359Y0087959D01*
X0573359Y0084356D01*
X0572759Y0086157D02*
X0575161Y0086157D01*
X0566677Y0071016D02*
X0567277Y0070415D01*
X0567277Y0068013D01*
X0566677Y0067413D01*
X0565475Y0067413D01*
X0564875Y0068013D01*
X0563594Y0068013D02*
X0562993Y0067413D01*
X0561792Y0067413D01*
X0561192Y0068013D01*
X0561192Y0068614D01*
X0561792Y0069214D01*
X0563594Y0069214D01*
X0563594Y0068013D01*
X0563594Y0069214D02*
X0562393Y0070415D01*
X0561192Y0071016D01*
X0559911Y0069815D02*
X0558710Y0071016D01*
X0558710Y0067413D01*
X0559911Y0067413D02*
X0557509Y0067413D01*
X0564875Y0070415D02*
X0565475Y0071016D01*
X0566677Y0071016D01*
X0573609Y0058766D02*
X0574810Y0058766D01*
X0575411Y0058165D01*
X0576692Y0058766D02*
X0577893Y0058165D01*
X0579094Y0056964D01*
X0577292Y0056964D01*
X0576692Y0056364D01*
X0576692Y0055763D01*
X0577292Y0055163D01*
X0578493Y0055163D01*
X0579094Y0055763D01*
X0579094Y0056964D01*
X0580375Y0055763D02*
X0580975Y0055163D01*
X0582177Y0055163D01*
X0582777Y0055763D01*
X0582777Y0058165D01*
X0582177Y0058766D01*
X0580975Y0058766D01*
X0580375Y0058165D01*
X0575411Y0055163D02*
X0573009Y0057565D01*
X0573009Y0058165D01*
X0573609Y0058766D01*
X0573009Y0055163D02*
X0575411Y0055163D01*
X0558527Y0055513D02*
X0557927Y0054913D01*
X0556725Y0054913D01*
X0556125Y0055513D01*
X0554844Y0055513D02*
X0554243Y0054913D01*
X0553042Y0054913D01*
X0552442Y0055513D01*
X0552442Y0056114D01*
X0553042Y0056714D01*
X0554844Y0056714D01*
X0554844Y0055513D01*
X0554844Y0056714D02*
X0553643Y0057915D01*
X0552442Y0058516D01*
X0551161Y0057915D02*
X0551161Y0057315D01*
X0550560Y0056714D01*
X0548759Y0056714D01*
X0548759Y0055513D02*
X0548759Y0057915D01*
X0549359Y0058516D01*
X0550560Y0058516D01*
X0551161Y0057915D01*
X0551161Y0055513D02*
X0550560Y0054913D01*
X0549359Y0054913D01*
X0548759Y0055513D01*
X0556125Y0057915D02*
X0556725Y0058516D01*
X0557927Y0058516D01*
X0558527Y0057915D01*
X0558527Y0055513D01*
X0597058Y0055513D02*
X0597659Y0054913D01*
X0598860Y0054913D01*
X0599460Y0055513D01*
X0599460Y0056114D01*
X0598860Y0056714D01*
X0597659Y0056714D01*
X0597058Y0056114D01*
X0597058Y0055513D01*
X0597659Y0056714D02*
X0597058Y0057315D01*
X0597058Y0057915D01*
X0597659Y0058516D01*
X0598860Y0058516D01*
X0599460Y0057915D01*
X0599460Y0057315D01*
X0598860Y0056714D01*
X0600741Y0056114D02*
X0601342Y0056714D01*
X0603143Y0056714D01*
X0603143Y0055513D01*
X0602543Y0054913D01*
X0601342Y0054913D01*
X0600741Y0055513D01*
X0600741Y0056114D01*
X0601942Y0057915D02*
X0603143Y0056714D01*
X0601942Y0057915D02*
X0600741Y0058516D01*
X0604424Y0057915D02*
X0605025Y0058516D01*
X0606226Y0058516D01*
X0606826Y0057915D01*
X0606826Y0055513D01*
X0606226Y0054913D01*
X0605025Y0054913D01*
X0604424Y0055513D01*
X0480076Y0049266D02*
X0478275Y0049266D01*
X0477674Y0048665D01*
X0477674Y0047464D01*
X0478275Y0046864D01*
X0480076Y0046864D01*
X0478875Y0046864D02*
X0477674Y0045663D01*
X0476393Y0046263D02*
X0475793Y0045663D01*
X0474592Y0045663D01*
X0473991Y0046263D01*
X0473991Y0046864D01*
X0474592Y0047464D01*
X0476393Y0047464D01*
X0476393Y0046263D01*
X0476393Y0047464D02*
X0475192Y0048665D01*
X0473991Y0049266D01*
X0472710Y0047464D02*
X0470909Y0047464D01*
X0470308Y0046864D01*
X0470308Y0046263D01*
X0470909Y0045663D01*
X0472110Y0045663D01*
X0472710Y0046263D01*
X0472710Y0047464D01*
X0471509Y0048665D01*
X0470308Y0049266D01*
X0480076Y0049266D02*
X0480076Y0045663D01*
X0137657Y0197913D02*
X0137657Y0201516D01*
X0135855Y0201516D01*
X0135255Y0200915D01*
X0135255Y0199714D01*
X0135855Y0199114D01*
X0137657Y0199114D01*
X0133974Y0198513D02*
X0133373Y0197913D01*
X0132172Y0197913D01*
X0131572Y0198513D01*
X0131572Y0201516D01*
X0130291Y0201516D02*
X0130291Y0197913D01*
X0127889Y0197913D01*
X0126608Y0197913D02*
X0124205Y0197913D01*
X0126608Y0197913D02*
X0126608Y0201516D01*
X0133974Y0201516D02*
X0133974Y0198513D01*
X0042530Y0201495D02*
X0038927Y0201495D01*
X0038927Y0199693D01*
X0039528Y0199093D01*
X0040729Y0199093D01*
X0041329Y0199693D01*
X0041329Y0201495D01*
X0040729Y0202776D02*
X0041329Y0203377D01*
X0041329Y0204578D01*
X0040729Y0205178D01*
X0040128Y0205178D01*
X0040128Y0202776D01*
X0039528Y0202776D02*
X0040729Y0202776D01*
X0039528Y0202776D02*
X0038927Y0203377D01*
X0038927Y0204578D01*
X0038927Y0206459D02*
X0039528Y0206459D01*
X0039528Y0207060D01*
X0038927Y0207060D01*
X0038927Y0206459D01*
X0040729Y0206459D02*
X0041329Y0206459D01*
X0041329Y0207060D01*
X0040729Y0207060D01*
X0040729Y0206459D01*
X0040729Y0211984D02*
X0039528Y0211984D01*
X0038927Y0212584D01*
X0038927Y0214386D01*
X0038327Y0214386D02*
X0041329Y0214386D01*
X0041329Y0212584D01*
X0040729Y0211984D01*
X0037726Y0213185D02*
X0037726Y0213785D01*
X0038327Y0214386D01*
X0038927Y0215667D02*
X0038927Y0216868D01*
X0038927Y0216268D02*
X0041329Y0216268D01*
X0041329Y0215667D01*
X0042530Y0216268D02*
X0043131Y0216268D01*
X0041329Y0218122D02*
X0041329Y0219323D01*
X0041930Y0218723D02*
X0039528Y0218723D01*
X0038927Y0219323D01*
X0038927Y0220578D02*
X0042530Y0220578D01*
X0041329Y0221178D02*
X0041329Y0222379D01*
X0040729Y0222980D01*
X0038927Y0222980D01*
X0039528Y0224261D02*
X0038927Y0224862D01*
X0038927Y0226663D01*
X0041329Y0226663D01*
X0041329Y0227944D02*
X0041329Y0229746D01*
X0040729Y0230346D01*
X0039528Y0230346D01*
X0038927Y0229746D01*
X0038927Y0227944D01*
X0042530Y0227944D01*
X0041329Y0224261D02*
X0039528Y0224261D01*
X0041329Y0221178D02*
X0040729Y0220578D01*
X0039528Y0231627D02*
X0039528Y0232228D01*
X0038927Y0232228D01*
X0038927Y0231627D01*
X0039528Y0231627D01*
X0039528Y0233469D02*
X0038927Y0234069D01*
X0038927Y0235871D01*
X0039528Y0237152D02*
X0038927Y0237753D01*
X0038927Y0238954D01*
X0039528Y0239554D01*
X0040729Y0239554D01*
X0041329Y0238954D01*
X0041329Y0237753D01*
X0040729Y0237152D01*
X0039528Y0237152D01*
X0041329Y0235871D02*
X0041329Y0234069D01*
X0040729Y0233469D01*
X0039528Y0233469D01*
X0038927Y0240835D02*
X0041329Y0240835D01*
X0041329Y0241436D01*
X0040729Y0242036D01*
X0041329Y0242637D01*
X0040729Y0243237D01*
X0038927Y0243237D01*
X0038927Y0242036D02*
X0040729Y0242036D01*
X0038927Y0244518D02*
X0042530Y0246920D01*
X0040729Y0248201D02*
X0041329Y0248802D01*
X0041329Y0250003D01*
X0040729Y0250604D01*
X0040128Y0250604D01*
X0040128Y0248201D01*
X0039528Y0248201D02*
X0040729Y0248201D01*
X0039528Y0248201D02*
X0038927Y0248802D01*
X0038927Y0250003D01*
X0039528Y0251885D02*
X0040729Y0251885D01*
X0041329Y0252485D01*
X0041329Y0253686D01*
X0040729Y0254287D01*
X0040128Y0254287D01*
X0040128Y0251885D01*
X0039528Y0251885D02*
X0038927Y0252485D01*
X0038927Y0253686D01*
X0038927Y0255568D02*
X0038927Y0257970D01*
X0040729Y0259251D02*
X0040729Y0261653D01*
X0040729Y0262934D02*
X0039528Y0262934D01*
X0038927Y0263535D01*
X0038927Y0264736D01*
X0039528Y0265336D01*
X0040729Y0265336D01*
X0041329Y0264736D01*
X0041329Y0263535D01*
X0040729Y0262934D01*
X0041329Y0266617D02*
X0041329Y0268419D01*
X0040729Y0269019D01*
X0039528Y0269019D01*
X0038927Y0268419D01*
X0038927Y0266617D01*
X0037726Y0266617D02*
X0041329Y0266617D01*
X0040729Y0270300D02*
X0041329Y0270901D01*
X0041329Y0272102D01*
X0040729Y0272702D01*
X0040128Y0272702D01*
X0040128Y0270300D01*
X0039528Y0270300D02*
X0040729Y0270300D01*
X0039528Y0270300D02*
X0038927Y0270901D01*
X0038927Y0272102D01*
X0038927Y0273983D02*
X0041329Y0273983D01*
X0041329Y0275785D01*
X0040729Y0276386D01*
X0038927Y0276386D01*
X0038927Y0277667D02*
X0042530Y0280069D01*
X0041930Y0281350D02*
X0039528Y0281350D01*
X0038927Y0281950D01*
X0038927Y0283151D01*
X0039528Y0283752D01*
X0038927Y0285033D02*
X0042530Y0285033D01*
X0042530Y0287435D01*
X0040729Y0286234D02*
X0040729Y0285033D01*
X0041930Y0283752D02*
X0042530Y0283151D01*
X0042530Y0281950D01*
X0041930Y0281350D01*
X0040729Y0288716D02*
X0040729Y0291118D01*
X0042530Y0292399D02*
X0042530Y0294201D01*
X0041930Y0294801D01*
X0039528Y0294801D01*
X0038927Y0294201D01*
X0038927Y0292399D01*
X0042530Y0292399D01*
X0042530Y0296082D02*
X0042530Y0297283D01*
X0042530Y0296683D02*
X0038927Y0296683D01*
X0038927Y0297283D02*
X0038927Y0296082D01*
X0039528Y0298538D02*
X0038927Y0299138D01*
X0038927Y0300339D01*
X0039528Y0300940D01*
X0041930Y0300940D02*
X0042530Y0300339D01*
X0042530Y0299138D01*
X0041930Y0298538D01*
X0039528Y0298538D01*
X0041329Y0257970D02*
X0038927Y0255568D01*
X0041329Y0255568D02*
X0041329Y0257970D01*
X0040729Y0197812D02*
X0041329Y0197211D01*
X0041329Y0196010D01*
X0040729Y0195410D01*
X0039528Y0195410D01*
X0038927Y0196010D01*
X0038927Y0197211D01*
X0039528Y0197812D01*
X0040729Y0197812D01*
X0041329Y0194129D02*
X0041329Y0192327D01*
X0040729Y0191727D01*
X0039528Y0191727D01*
X0038927Y0192327D01*
X0038927Y0194129D01*
X0040128Y0186762D02*
X0040128Y0184360D01*
X0039528Y0184360D02*
X0040729Y0184360D01*
X0041329Y0184961D01*
X0041329Y0186162D01*
X0040729Y0186762D01*
X0040128Y0186762D01*
X0038927Y0186162D02*
X0038927Y0184961D01*
X0039528Y0184360D01*
X0038927Y0183079D02*
X0038927Y0181278D01*
X0039528Y0180677D01*
X0040729Y0180677D01*
X0041329Y0181278D01*
X0041329Y0183079D01*
X0041329Y0179409D02*
X0041329Y0178809D01*
X0040128Y0177608D01*
X0038927Y0177608D02*
X0041329Y0177608D01*
X0041329Y0176327D02*
X0038927Y0176327D01*
X0038927Y0174525D01*
X0039528Y0173925D01*
X0041329Y0173925D01*
X0040729Y0172644D02*
X0041329Y0172043D01*
X0041329Y0170842D01*
X0040729Y0170242D01*
X0039528Y0170242D01*
X0038927Y0170842D01*
X0038927Y0172043D01*
X0039528Y0172644D01*
X0040729Y0172644D01*
X0041329Y0168960D02*
X0041329Y0167159D01*
X0040729Y0166558D01*
X0040128Y0167159D01*
X0040128Y0168360D01*
X0039528Y0168960D01*
X0038927Y0168360D01*
X0038927Y0166558D01*
X0038927Y0161621D02*
X0039528Y0161020D01*
X0041930Y0161020D01*
X0041329Y0160420D02*
X0041329Y0161621D01*
X0041329Y0159139D02*
X0041329Y0157337D01*
X0040729Y0156737D01*
X0039528Y0156737D01*
X0038927Y0157337D01*
X0038927Y0159139D01*
X0040128Y0155456D02*
X0040128Y0153054D01*
X0039528Y0153054D02*
X0040729Y0153054D01*
X0041329Y0153654D01*
X0041329Y0154855D01*
X0040729Y0155456D01*
X0040128Y0155456D01*
X0038927Y0154855D02*
X0038927Y0153654D01*
X0039528Y0153054D01*
X0038327Y0151799D02*
X0041329Y0151799D01*
X0042530Y0151799D02*
X0043131Y0151799D01*
X0040729Y0149317D02*
X0041329Y0148717D01*
X0041329Y0147516D01*
X0040729Y0146915D01*
X0039528Y0146915D01*
X0038927Y0147516D01*
X0038927Y0148717D01*
X0039528Y0149317D01*
X0040729Y0149317D01*
X0037726Y0150598D02*
X0037726Y0151199D01*
X0038327Y0151799D01*
X0041329Y0145647D02*
X0041329Y0145047D01*
X0040128Y0143846D01*
X0038927Y0143846D02*
X0041329Y0143846D01*
X0040729Y0142565D02*
X0040128Y0141964D01*
X0040128Y0140163D01*
X0038927Y0140163D02*
X0042530Y0140163D01*
X0042530Y0141964D01*
X0041930Y0142565D01*
X0040729Y0142565D01*
X0183114Y0289332D02*
X0183114Y0291133D01*
X0183715Y0291734D01*
X0186117Y0291734D01*
X0186717Y0291133D01*
X0186717Y0289332D01*
X0183114Y0289332D01*
X0183114Y0293015D02*
X0183114Y0295417D01*
X0183114Y0294216D02*
X0186717Y0294216D01*
X0185516Y0293015D01*
X0186117Y0296698D02*
X0186717Y0297299D01*
X0186717Y0298500D01*
X0186117Y0299100D01*
X0185516Y0299100D01*
X0184916Y0298500D01*
X0184315Y0299100D01*
X0183715Y0299100D01*
X0183114Y0298500D01*
X0183114Y0297299D01*
X0183715Y0296698D01*
X0184916Y0297899D02*
X0184916Y0298500D01*
X0182027Y0355163D02*
X0179625Y0355163D01*
X0178344Y0355763D02*
X0177743Y0355163D01*
X0176542Y0355163D01*
X0175942Y0355763D01*
X0175942Y0358165D01*
X0176542Y0358766D01*
X0177743Y0358766D01*
X0178344Y0358165D01*
X0178344Y0355763D01*
X0182027Y0355163D02*
X0182027Y0358766D01*
X0174661Y0356964D02*
X0172259Y0356964D01*
X0170978Y0357565D02*
X0170377Y0356964D01*
X0169176Y0356964D01*
X0168576Y0356364D01*
X0168576Y0355763D01*
X0169176Y0355163D01*
X0170377Y0355163D01*
X0170978Y0355763D01*
X0170978Y0357565D02*
X0170978Y0358165D01*
X0170377Y0358766D01*
X0169176Y0358766D01*
X0168576Y0358165D01*
X0167294Y0358766D02*
X0166093Y0358766D01*
X0166694Y0358766D02*
X0166694Y0355163D01*
X0167294Y0355163D02*
X0166093Y0355163D01*
X0164839Y0355163D02*
X0164839Y0358766D01*
X0163037Y0358766D01*
X0162437Y0358165D01*
X0162437Y0355763D01*
X0163037Y0355163D01*
X0164839Y0355163D01*
X0161156Y0355163D02*
X0158754Y0355163D01*
X0159955Y0356964D02*
X0161156Y0356964D01*
X0161156Y0355163D02*
X0161156Y0358766D01*
X0158754Y0358766D01*
D11*
X0187585Y0045770D02*
X0187585Y0030156D01*
X0218869Y0030156D01*
X0218869Y0045770D01*
X0187585Y0045770D01*
X0188828Y0047713D02*
X0188828Y0048464D01*
X0189579Y0049215D01*
X0191831Y0049215D01*
X0191831Y0047713D01*
X0191080Y0046963D01*
X0189579Y0046963D01*
X0188828Y0047713D01*
X0190330Y0050716D02*
X0191831Y0049215D01*
X0190330Y0050716D02*
X0188828Y0051466D01*
X0193432Y0051466D02*
X0193432Y0050716D01*
X0196435Y0047713D01*
X0196435Y0046963D01*
X0198036Y0046963D02*
X0199538Y0048464D01*
X0198787Y0048464D02*
X0201039Y0048464D01*
X0201039Y0046963D02*
X0201039Y0051466D01*
X0198787Y0051466D01*
X0198036Y0050716D01*
X0198036Y0049215D01*
X0198787Y0048464D01*
X0196435Y0051466D02*
X0193432Y0051466D01*
X0220241Y0042801D02*
X0220241Y0030124D01*
X0239713Y0030124D01*
X0239713Y0042801D01*
X0220241Y0042801D01*
X0234416Y0060099D02*
X0235917Y0060099D01*
X0236668Y0060850D01*
X0236668Y0061600D01*
X0235917Y0062351D01*
X0234416Y0062351D01*
X0233665Y0061600D01*
X0233665Y0060850D01*
X0234416Y0060099D01*
X0234416Y0062351D02*
X0233665Y0063102D01*
X0233665Y0063852D01*
X0234416Y0064603D01*
X0235917Y0064603D01*
X0236668Y0063852D01*
X0236668Y0063102D01*
X0235917Y0062351D01*
X0238269Y0060850D02*
X0239020Y0060099D01*
X0240521Y0060099D01*
X0241272Y0060850D01*
X0241272Y0063852D01*
X0240521Y0064603D01*
X0239020Y0064603D01*
X0238269Y0063852D01*
X0238269Y0060850D01*
X0238269Y0060099D02*
X0239770Y0061600D01*
X0239463Y0088874D02*
X0219991Y0088874D01*
X0219991Y0101551D01*
X0239463Y0101551D01*
X0239463Y0088874D01*
X0218869Y0088906D02*
X0218869Y0104520D01*
X0187585Y0104520D01*
X0187585Y0088906D01*
X0218869Y0088906D01*
X0201039Y0105463D02*
X0201039Y0109966D01*
X0198787Y0109966D01*
X0198036Y0109216D01*
X0198036Y0107715D01*
X0198787Y0106964D01*
X0201039Y0106964D01*
X0199538Y0106964D02*
X0198036Y0105463D01*
X0196435Y0106213D02*
X0195684Y0105463D01*
X0194183Y0105463D01*
X0193432Y0106213D01*
X0193432Y0106964D01*
X0194183Y0107715D01*
X0196435Y0107715D01*
X0196435Y0106213D01*
X0196435Y0107715D02*
X0194934Y0109216D01*
X0193432Y0109966D01*
X0191831Y0109966D02*
X0188828Y0109966D01*
X0188828Y0109216D01*
X0191831Y0106213D01*
X0191831Y0105463D01*
X0233596Y0122784D02*
X0236599Y0119781D01*
X0236599Y0119030D01*
X0238200Y0119030D02*
X0239701Y0120532D01*
X0238200Y0119781D02*
X0238951Y0119030D01*
X0240452Y0119030D01*
X0241203Y0119781D01*
X0241203Y0122784D01*
X0240452Y0123534D01*
X0238951Y0123534D01*
X0238200Y0122784D01*
X0238200Y0119781D01*
X0236599Y0123534D02*
X0233596Y0123534D01*
X0233596Y0122784D01*
X0283491Y0126093D02*
X0283491Y0134833D01*
X0302963Y0134833D01*
X0302963Y0126093D01*
X0283491Y0126093D01*
X0298959Y0116083D02*
X0298959Y0108343D01*
X0314495Y0108343D01*
X0314495Y0116083D01*
X0298959Y0116083D01*
X0301928Y0116093D02*
X0314526Y0116093D01*
X0314526Y0122833D01*
X0301928Y0122833D01*
X0301928Y0116093D01*
X0298959Y0108333D02*
X0298959Y0100593D01*
X0314495Y0100593D01*
X0314495Y0108333D01*
X0298959Y0108333D01*
X0316209Y0124093D02*
X0316209Y0131833D01*
X0331745Y0131833D01*
X0331745Y0124093D01*
X0316209Y0124093D01*
X0305977Y0130463D02*
X0303477Y0130463D01*
X0304727Y0131713D02*
X0304727Y0129213D01*
X0316209Y0131843D02*
X0316209Y0139583D01*
X0331745Y0139583D01*
X0331745Y0131843D01*
X0316209Y0131843D01*
X0331857Y0124195D02*
X0339597Y0124195D01*
X0339597Y0139730D01*
X0331857Y0139730D01*
X0331857Y0124195D01*
X0332334Y0100966D02*
X0330833Y0100966D01*
X0330082Y0100216D01*
X0328481Y0100966D02*
X0325478Y0100966D01*
X0325478Y0100216D01*
X0328481Y0097213D01*
X0328481Y0096463D01*
X0330082Y0097213D02*
X0330833Y0096463D01*
X0332334Y0096463D01*
X0333085Y0097213D01*
X0333085Y0100216D01*
X0332334Y0100966D01*
X0334653Y0100966D02*
X0336154Y0100966D01*
X0335404Y0100966D02*
X0335404Y0096463D01*
X0336154Y0096463D02*
X0334653Y0096463D01*
X0330847Y0085730D02*
X0323107Y0085730D01*
X0323107Y0070195D01*
X0330847Y0070195D01*
X0330847Y0085730D01*
X0320097Y0085730D02*
X0312357Y0085730D01*
X0312357Y0070195D01*
X0320097Y0070195D01*
X0320097Y0085730D01*
X0307097Y0085730D02*
X0299357Y0085730D01*
X0299357Y0070195D01*
X0307097Y0070195D01*
X0307097Y0085730D01*
X0307097Y0070230D02*
X0299357Y0070230D01*
X0299357Y0054695D01*
X0307097Y0054695D01*
X0307097Y0070230D01*
X0312357Y0070230D02*
X0320097Y0070230D01*
X0320097Y0054695D01*
X0312357Y0054695D01*
X0312357Y0070230D01*
X0323107Y0070230D02*
X0330847Y0070230D01*
X0330847Y0054695D01*
X0323107Y0054695D01*
X0323107Y0070230D01*
X0317963Y0038583D02*
X0298491Y0038583D01*
X0298491Y0029343D01*
X0317963Y0029343D01*
X0317963Y0038583D01*
X0319328Y0036216D02*
X0319328Y0035466D01*
X0322331Y0032463D01*
X0322331Y0031713D01*
X0323932Y0032463D02*
X0323932Y0033214D01*
X0324683Y0033965D01*
X0326935Y0033965D01*
X0326935Y0032463D01*
X0326184Y0031713D01*
X0324683Y0031713D01*
X0323932Y0032463D01*
X0325434Y0035466D02*
X0323932Y0036216D01*
X0322331Y0036216D02*
X0319328Y0036216D01*
X0325434Y0035466D02*
X0326935Y0033965D01*
X0328536Y0035466D02*
X0329287Y0036216D01*
X0330788Y0036216D01*
X0331539Y0035466D01*
X0331539Y0032463D01*
X0330788Y0031713D01*
X0329287Y0031713D01*
X0328536Y0032463D01*
X0449459Y0085843D02*
X0449459Y0093583D01*
X0464995Y0093583D01*
X0464995Y0085843D01*
X0449459Y0085843D01*
X0464959Y0085843D02*
X0464959Y0093583D01*
X0480495Y0093583D01*
X0480495Y0085843D01*
X0464959Y0085843D01*
X0516357Y0071699D02*
X0525597Y0071699D01*
X0525597Y0052226D01*
X0516357Y0052226D01*
X0516357Y0071699D01*
X0526477Y0067111D02*
X0530981Y0067111D01*
X0528729Y0064859D01*
X0528729Y0067861D01*
X0527978Y0063257D02*
X0528729Y0062507D01*
X0528729Y0060255D01*
X0527228Y0060255D01*
X0526477Y0061005D01*
X0526477Y0062507D01*
X0527228Y0063257D01*
X0527978Y0063257D01*
X0530230Y0061756D02*
X0530981Y0063257D01*
X0530230Y0061756D02*
X0528729Y0060255D01*
X0530230Y0058653D02*
X0530981Y0057903D01*
X0530981Y0056401D01*
X0530230Y0055651D01*
X0527228Y0055651D01*
X0526477Y0056401D01*
X0526477Y0057903D01*
X0527228Y0058653D01*
X0527316Y0052199D02*
X0514638Y0052199D01*
X0514638Y0032726D01*
X0527316Y0032726D01*
X0527316Y0052199D01*
X0528978Y0048361D02*
X0528227Y0047611D01*
X0528227Y0046109D01*
X0528978Y0045359D01*
X0529728Y0045359D01*
X0530479Y0046109D01*
X0530479Y0047611D01*
X0529728Y0048361D01*
X0528978Y0048361D01*
X0530479Y0047611D02*
X0531230Y0048361D01*
X0531980Y0048361D01*
X0532731Y0047611D01*
X0532731Y0046109D01*
X0531980Y0045359D01*
X0531230Y0045359D01*
X0530479Y0046109D01*
X0529728Y0043757D02*
X0530479Y0043007D01*
X0530479Y0040755D01*
X0528978Y0040755D01*
X0528227Y0041505D01*
X0528227Y0043007D01*
X0528978Y0043757D01*
X0529728Y0043757D01*
X0531980Y0042256D02*
X0530479Y0040755D01*
X0530479Y0039153D02*
X0529728Y0038403D01*
X0529728Y0036151D01*
X0528227Y0036151D02*
X0532731Y0036151D01*
X0532731Y0038403D01*
X0531980Y0039153D01*
X0530479Y0039153D01*
X0529728Y0037652D02*
X0528227Y0039153D01*
X0531980Y0042256D02*
X0532731Y0043757D01*
X0548741Y0044843D02*
X0548741Y0054083D01*
X0568213Y0054083D01*
X0568213Y0044843D01*
X0548741Y0044843D01*
X0568241Y0044843D02*
X0568241Y0054083D01*
X0587713Y0054083D01*
X0587713Y0044843D01*
X0568241Y0044843D01*
X0587741Y0044843D02*
X0587741Y0054083D01*
X0607213Y0054083D01*
X0607213Y0044843D01*
X0587741Y0044843D01*
X0587713Y0064593D02*
X0568241Y0064593D01*
X0568241Y0073833D01*
X0587713Y0073833D01*
X0587713Y0064593D01*
X0482745Y0044583D02*
X0482745Y0036843D01*
X0467209Y0036843D01*
X0467209Y0044583D01*
X0482745Y0044583D01*
X0381597Y0122195D02*
X0373857Y0122195D01*
X0373857Y0137730D01*
X0381597Y0137730D01*
X0381597Y0122195D01*
X0382847Y0156445D02*
X0375107Y0156445D01*
X0375107Y0171980D01*
X0382847Y0171980D01*
X0382847Y0156445D01*
X0357745Y0176593D02*
X0357745Y0184333D01*
X0342209Y0184333D01*
X0342209Y0176593D01*
X0357745Y0176593D01*
X0357776Y0184343D02*
X0345178Y0184343D01*
X0345178Y0191083D01*
X0357776Y0191083D01*
X0357776Y0184343D01*
X0357776Y0191093D02*
X0345178Y0191093D01*
X0345178Y0197833D01*
X0357776Y0197833D01*
X0357776Y0191093D01*
X0357745Y0197843D02*
X0342209Y0197843D01*
X0342209Y0205583D01*
X0357745Y0205583D01*
X0357745Y0197843D01*
X0350245Y0205593D02*
X0350245Y0213333D01*
X0334709Y0213333D01*
X0334709Y0205593D01*
X0350245Y0205593D01*
X0323097Y0213195D02*
X0323097Y0228730D01*
X0315357Y0228730D01*
X0315357Y0213195D01*
X0323097Y0213195D01*
X0315347Y0213195D02*
X0307607Y0213195D01*
X0307607Y0228730D01*
X0315347Y0228730D01*
X0315347Y0213195D01*
X0308995Y0211583D02*
X0308995Y0203843D01*
X0293459Y0203843D01*
X0293459Y0211583D01*
X0308995Y0211583D01*
X0307597Y0216163D02*
X0300857Y0216163D01*
X0300857Y0228762D01*
X0307597Y0228762D01*
X0307597Y0216163D01*
X0308995Y0203833D02*
X0293459Y0203833D01*
X0293459Y0196093D01*
X0308995Y0196093D01*
X0308995Y0203833D01*
X0308995Y0196083D02*
X0293459Y0196083D01*
X0293459Y0188343D01*
X0308995Y0188343D01*
X0308995Y0196083D01*
X0308995Y0188333D02*
X0293459Y0188333D01*
X0293459Y0180593D01*
X0308995Y0180593D01*
X0308995Y0188333D01*
X0308995Y0180583D02*
X0293459Y0180583D01*
X0293459Y0172843D01*
X0308995Y0172843D01*
X0308995Y0180583D01*
X0308995Y0172833D02*
X0293459Y0172833D01*
X0293459Y0165093D01*
X0308995Y0165093D01*
X0308995Y0172833D01*
X0308995Y0165083D02*
X0293459Y0165083D01*
X0293459Y0157343D01*
X0308995Y0157343D01*
X0308995Y0165083D01*
X0316857Y0170980D02*
X0324597Y0170980D01*
X0324597Y0155445D01*
X0316857Y0155445D01*
X0316857Y0170980D01*
X0331107Y0170730D02*
X0338847Y0170730D01*
X0338847Y0155195D01*
X0331107Y0155195D01*
X0331107Y0170730D01*
X0269745Y0189093D02*
X0269745Y0196833D01*
X0254209Y0196833D01*
X0254209Y0189093D01*
X0269745Y0189093D01*
X0240727Y0234463D02*
X0238475Y0234463D01*
X0237724Y0235213D01*
X0237724Y0238216D01*
X0238475Y0238966D01*
X0240727Y0238966D01*
X0240727Y0234463D01*
X0236123Y0234463D02*
X0233121Y0234463D01*
X0234622Y0234463D02*
X0234622Y0238966D01*
X0236123Y0237465D01*
X0231519Y0236715D02*
X0229267Y0236715D01*
X0228517Y0235964D01*
X0228517Y0235213D01*
X0229267Y0234463D01*
X0230769Y0234463D01*
X0231519Y0235213D01*
X0231519Y0236715D01*
X0230018Y0238216D01*
X0228517Y0238966D01*
X0220347Y0248195D02*
X0212607Y0248195D01*
X0212607Y0263730D01*
X0220347Y0263730D01*
X0220347Y0248195D01*
X0220357Y0254945D02*
X0228097Y0254945D01*
X0228097Y0270480D01*
X0220357Y0270480D01*
X0220357Y0254945D01*
X0228107Y0254945D02*
X0235847Y0254945D01*
X0235847Y0270480D01*
X0228107Y0270480D01*
X0228107Y0254945D01*
X0238357Y0257445D02*
X0246097Y0257445D01*
X0246097Y0272980D01*
X0238357Y0272980D01*
X0238357Y0257445D01*
X0246107Y0260413D02*
X0252847Y0260413D01*
X0252847Y0273012D01*
X0246107Y0273012D01*
X0246107Y0260413D01*
X0265357Y0259695D02*
X0273097Y0259695D01*
X0273097Y0275230D01*
X0265357Y0275230D01*
X0265357Y0259695D01*
X0219276Y0263593D02*
X0219276Y0270333D01*
X0206678Y0270333D01*
X0206678Y0263593D01*
X0219276Y0263593D01*
X0204847Y0270230D02*
X0197107Y0270230D01*
X0197107Y0254695D01*
X0204847Y0254695D01*
X0204847Y0270230D01*
X0189347Y0268480D02*
X0181607Y0268480D01*
X0181607Y0252945D01*
X0189347Y0252945D01*
X0189347Y0268480D01*
X0180597Y0270445D02*
X0172857Y0270445D01*
X0172857Y0285980D01*
X0180597Y0285980D01*
X0180597Y0270445D01*
X0196959Y0254333D02*
X0196959Y0246593D01*
X0212495Y0246593D01*
X0212495Y0254333D01*
X0196959Y0254333D01*
X0162231Y0237361D02*
X0162231Y0235859D01*
X0161480Y0235109D01*
X0160730Y0235109D01*
X0159979Y0235859D01*
X0159979Y0238111D01*
X0161480Y0238111D02*
X0162231Y0237361D01*
X0161480Y0238111D02*
X0158478Y0238111D01*
X0157727Y0237361D01*
X0157727Y0235859D01*
X0158478Y0235109D01*
X0157727Y0233507D02*
X0157727Y0230505D01*
X0157727Y0232006D02*
X0162231Y0232006D01*
X0160730Y0230505D01*
X0161480Y0228903D02*
X0162231Y0228153D01*
X0162231Y0225901D01*
X0157727Y0225901D01*
X0157727Y0228153D01*
X0158478Y0228903D01*
X0161480Y0228903D01*
X0166329Y0202466D02*
X0165578Y0201716D01*
X0165578Y0200965D01*
X0166329Y0200215D01*
X0165578Y0199464D01*
X0165578Y0198713D01*
X0166329Y0197963D01*
X0167830Y0197963D01*
X0168581Y0198713D01*
X0170182Y0198713D02*
X0170933Y0197963D01*
X0172434Y0197963D01*
X0173185Y0198713D01*
X0173185Y0200215D02*
X0171684Y0200965D01*
X0170933Y0200965D01*
X0170182Y0200215D01*
X0170182Y0198713D01*
X0173185Y0200215D02*
X0173185Y0202466D01*
X0170182Y0202466D01*
X0168581Y0201716D02*
X0167830Y0202466D01*
X0166329Y0202466D01*
X0166329Y0200215D02*
X0167080Y0200215D01*
X0162709Y0196833D02*
X0162709Y0189093D01*
X0178245Y0189093D01*
X0178245Y0196833D01*
X0162709Y0196833D01*
X0174786Y0197963D02*
X0176288Y0199464D01*
X0175537Y0199464D02*
X0177789Y0199464D01*
X0177789Y0197963D02*
X0177789Y0202466D01*
X0175537Y0202466D01*
X0174786Y0201716D01*
X0174786Y0200215D01*
X0175537Y0199464D01*
X0175206Y0181279D02*
X0177458Y0181279D01*
X0177458Y0176776D01*
X0175206Y0176776D01*
X0174456Y0177526D01*
X0174456Y0180529D01*
X0175206Y0181279D01*
X0172854Y0180529D02*
X0172104Y0181279D01*
X0170602Y0181279D01*
X0169852Y0180529D01*
X0169852Y0179778D01*
X0172854Y0176776D01*
X0169852Y0176776D01*
X0168250Y0176776D02*
X0165248Y0179778D01*
X0165248Y0180529D01*
X0165998Y0181279D01*
X0167500Y0181279D01*
X0168250Y0180529D01*
X0168250Y0176776D02*
X0165248Y0176776D01*
X0144976Y0143466D02*
X0143475Y0143466D01*
X0142724Y0142716D01*
X0141123Y0141215D02*
X0138121Y0141215D01*
X0136519Y0141965D02*
X0135018Y0143466D01*
X0135018Y0138963D01*
X0136519Y0138963D02*
X0133517Y0138963D01*
X0133388Y0137949D02*
X0146066Y0137949D01*
X0146066Y0118476D01*
X0133388Y0118476D01*
X0133388Y0137949D01*
X0131369Y0132770D02*
X0131369Y0117156D01*
X0100085Y0117156D01*
X0100085Y0132770D01*
X0131369Y0132770D01*
X0138871Y0138963D02*
X0138871Y0143466D01*
X0141123Y0141215D01*
X0142724Y0139713D02*
X0143475Y0138963D01*
X0144976Y0138963D01*
X0145727Y0139713D01*
X0145727Y0142716D01*
X0144976Y0143466D01*
X0120977Y0138466D02*
X0120977Y0133963D01*
X0120977Y0135464D02*
X0118725Y0135464D01*
X0117974Y0136215D01*
X0117974Y0137716D01*
X0118725Y0138466D01*
X0120977Y0138466D01*
X0119476Y0135464D02*
X0117974Y0133963D01*
X0116373Y0134713D02*
X0115622Y0133963D01*
X0114121Y0133963D01*
X0113371Y0134713D01*
X0113371Y0135464D01*
X0114121Y0136215D01*
X0114872Y0136215D01*
X0114121Y0136215D02*
X0113371Y0136965D01*
X0113371Y0137716D01*
X0114121Y0138466D01*
X0115622Y0138466D01*
X0116373Y0137716D01*
X0111769Y0137716D02*
X0111019Y0138466D01*
X0109517Y0138466D01*
X0108767Y0137716D01*
X0108767Y0136965D01*
X0111769Y0133963D01*
X0108767Y0133963D01*
X0100119Y0132770D02*
X0100119Y0117156D01*
X0068835Y0117156D01*
X0068835Y0132770D01*
X0100119Y0132770D01*
X0090539Y0134113D02*
X0090539Y0138616D01*
X0088287Y0138616D01*
X0087536Y0137866D01*
X0087536Y0136365D01*
X0088287Y0135614D01*
X0090539Y0135614D01*
X0089038Y0135614D02*
X0087536Y0134113D01*
X0085935Y0134863D02*
X0085184Y0134113D01*
X0083683Y0134113D01*
X0082932Y0134863D01*
X0082932Y0135614D01*
X0083683Y0136365D01*
X0084434Y0136365D01*
X0083683Y0136365D02*
X0082932Y0137115D01*
X0082932Y0137866D01*
X0083683Y0138616D01*
X0085184Y0138616D01*
X0085935Y0137866D01*
X0081331Y0137866D02*
X0080580Y0138616D01*
X0079079Y0138616D01*
X0078328Y0137866D01*
X0081331Y0134863D01*
X0080580Y0134113D01*
X0079079Y0134113D01*
X0078328Y0134863D01*
X0078328Y0137866D01*
X0081331Y0137866D02*
X0081331Y0134863D01*
X0050997Y0140346D02*
X0046493Y0140346D01*
X0046493Y0143349D01*
X0046493Y0144950D02*
X0046493Y0147953D01*
X0046493Y0149554D02*
X0046493Y0152557D01*
X0046493Y0149554D02*
X0047243Y0149554D01*
X0050246Y0152557D01*
X0050997Y0152557D01*
X0050997Y0149554D01*
X0050997Y0147953D02*
X0050997Y0144950D01*
X0046493Y0144950D01*
X0048745Y0144950D02*
X0048745Y0146452D01*
X0050997Y0143349D02*
X0050997Y0140346D01*
X0048745Y0140346D02*
X0048745Y0141848D01*
X0050246Y0158762D02*
X0047243Y0158762D01*
X0046493Y0159513D01*
X0046493Y0161014D01*
X0047243Y0161765D01*
X0046493Y0163366D02*
X0050997Y0163366D01*
X0050997Y0166369D01*
X0048745Y0164867D02*
X0048745Y0163366D01*
X0050246Y0161765D02*
X0050997Y0161014D01*
X0050997Y0159513D01*
X0050246Y0158762D01*
X0048745Y0167970D02*
X0048745Y0170973D01*
X0050997Y0172574D02*
X0046493Y0172574D01*
X0046493Y0174826D01*
X0047243Y0175576D01*
X0050246Y0175576D01*
X0050997Y0174826D01*
X0050997Y0172574D01*
X0050997Y0177178D02*
X0050997Y0178679D01*
X0050997Y0177928D02*
X0046493Y0177928D01*
X0046493Y0177178D02*
X0046493Y0178679D01*
X0047243Y0180247D02*
X0046493Y0180998D01*
X0046493Y0182499D01*
X0047243Y0183250D01*
X0047243Y0180247D02*
X0050246Y0180247D01*
X0050997Y0180998D01*
X0050997Y0182499D01*
X0050246Y0183250D01*
X0049495Y0189455D02*
X0050997Y0190956D01*
X0050246Y0192524D02*
X0050997Y0193275D01*
X0050997Y0194776D01*
X0050246Y0195527D01*
X0047243Y0192524D01*
X0046493Y0193275D01*
X0046493Y0194776D01*
X0047243Y0195527D01*
X0050246Y0195527D01*
X0050246Y0197128D02*
X0050997Y0197879D01*
X0050997Y0199380D01*
X0050246Y0200131D01*
X0049495Y0200131D01*
X0048745Y0199380D01*
X0047994Y0200131D01*
X0047243Y0200131D01*
X0046493Y0199380D01*
X0046493Y0197879D01*
X0047243Y0197128D01*
X0048745Y0198629D02*
X0048745Y0199380D01*
X0046493Y0201732D02*
X0050997Y0204735D01*
X0050246Y0206336D02*
X0050997Y0207087D01*
X0050997Y0208588D01*
X0050246Y0209339D01*
X0049495Y0209339D01*
X0046493Y0206336D01*
X0046493Y0209339D01*
X0047243Y0210940D02*
X0050246Y0213943D01*
X0047243Y0213943D01*
X0046493Y0213192D01*
X0046493Y0211691D01*
X0047243Y0210940D01*
X0050246Y0210940D01*
X0050997Y0211691D01*
X0050997Y0213192D01*
X0050246Y0213943D01*
X0049495Y0215544D02*
X0050997Y0217045D01*
X0046493Y0217045D01*
X0046493Y0215544D02*
X0046493Y0218546D01*
X0047243Y0220148D02*
X0046493Y0220898D01*
X0046493Y0222400D01*
X0047243Y0223150D01*
X0050246Y0223150D01*
X0050997Y0222400D01*
X0050997Y0220898D01*
X0050246Y0220148D01*
X0049495Y0220148D01*
X0048745Y0220898D01*
X0048745Y0223150D01*
X0049495Y0229356D02*
X0046493Y0229356D01*
X0047994Y0229356D02*
X0049495Y0230857D01*
X0049495Y0231608D01*
X0048745Y0233192D02*
X0049495Y0234694D01*
X0049495Y0235444D01*
X0048745Y0236195D01*
X0047243Y0236195D01*
X0046493Y0235444D01*
X0046493Y0233943D01*
X0047243Y0233192D01*
X0048745Y0233192D02*
X0050997Y0233192D01*
X0050997Y0236195D01*
X0050997Y0237796D02*
X0050997Y0240048D01*
X0050246Y0240799D01*
X0049495Y0240799D01*
X0048745Y0240048D01*
X0048745Y0237796D01*
X0046493Y0237796D02*
X0050997Y0237796D01*
X0048745Y0240048D02*
X0047994Y0240799D01*
X0047243Y0240799D01*
X0046493Y0240048D01*
X0046493Y0237796D01*
X0046493Y0242400D02*
X0047243Y0242400D01*
X0050246Y0245403D01*
X0050997Y0245403D01*
X0050997Y0242400D01*
X0050997Y0247004D02*
X0049495Y0248505D01*
X0047994Y0248505D01*
X0046493Y0247004D01*
X0073170Y0260821D02*
X0088784Y0260821D01*
X0088784Y0292104D01*
X0073170Y0292104D01*
X0073170Y0260821D01*
X0088920Y0260821D02*
X0104534Y0260821D01*
X0104534Y0292104D01*
X0088920Y0292104D01*
X0088920Y0260821D01*
X0111078Y0276963D02*
X0114081Y0276963D01*
X0111078Y0279965D01*
X0111078Y0280716D01*
X0111829Y0281466D01*
X0113330Y0281466D01*
X0114081Y0280716D01*
X0115682Y0279215D02*
X0118685Y0279215D01*
X0116433Y0281466D01*
X0116433Y0276963D01*
X0120286Y0277713D02*
X0121037Y0276963D01*
X0122538Y0276963D01*
X0123289Y0277713D01*
X0123289Y0280716D01*
X0122538Y0281466D01*
X0121037Y0281466D01*
X0120286Y0280716D01*
X0102727Y0293463D02*
X0102727Y0297966D01*
X0100475Y0297966D01*
X0099724Y0297216D01*
X0099724Y0295715D01*
X0100475Y0294964D01*
X0102727Y0294964D01*
X0101226Y0294964D02*
X0099724Y0293463D01*
X0098123Y0295715D02*
X0095121Y0295715D01*
X0093519Y0297216D02*
X0092769Y0297966D01*
X0091267Y0297966D01*
X0090517Y0297216D01*
X0090517Y0296465D01*
X0093519Y0293463D01*
X0090517Y0293463D01*
X0086227Y0293213D02*
X0086227Y0297716D01*
X0083975Y0297716D01*
X0083224Y0296966D01*
X0083224Y0295465D01*
X0083975Y0294714D01*
X0086227Y0294714D01*
X0084726Y0294714D02*
X0083224Y0293213D01*
X0081623Y0295465D02*
X0078621Y0295465D01*
X0077019Y0293963D02*
X0077019Y0296966D01*
X0076269Y0297716D01*
X0074767Y0297716D01*
X0074017Y0296966D01*
X0077019Y0293963D01*
X0076269Y0293213D01*
X0074767Y0293213D01*
X0074017Y0293963D01*
X0074017Y0296966D01*
X0079371Y0297716D02*
X0081623Y0295465D01*
X0079371Y0293213D02*
X0079371Y0297716D01*
X0095871Y0297966D02*
X0098123Y0295715D01*
X0095871Y0293463D02*
X0095871Y0297966D01*
X0148607Y0299445D02*
X0156347Y0299445D01*
X0156347Y0314980D01*
X0148607Y0314980D01*
X0148607Y0299445D01*
X0157607Y0310195D02*
X0165347Y0310195D01*
X0165347Y0325730D01*
X0157607Y0325730D01*
X0157607Y0310195D01*
X0166209Y0320843D02*
X0166209Y0328583D01*
X0181745Y0328583D01*
X0181745Y0320843D01*
X0166209Y0320843D01*
X0187357Y0317012D02*
X0187357Y0304413D01*
X0194097Y0304413D01*
X0194097Y0317012D01*
X0187357Y0317012D01*
X0194107Y0317012D02*
X0194107Y0304413D01*
X0200847Y0304413D01*
X0200847Y0317012D01*
X0194107Y0317012D01*
X0200857Y0317012D02*
X0200857Y0304413D01*
X0207597Y0304413D01*
X0207597Y0317012D01*
X0200857Y0317012D01*
X0209227Y0311838D02*
X0209227Y0308836D01*
X0212230Y0311838D01*
X0212980Y0311838D01*
X0213731Y0311088D01*
X0213731Y0309586D01*
X0212980Y0308836D01*
X0212980Y0307234D02*
X0213731Y0306484D01*
X0213731Y0304983D01*
X0212980Y0304232D01*
X0209978Y0304232D01*
X0209227Y0304983D01*
X0209227Y0306484D01*
X0209978Y0307234D01*
X0209227Y0302664D02*
X0209227Y0301163D01*
X0209227Y0301913D02*
X0213731Y0301913D01*
X0213731Y0301163D02*
X0213731Y0302664D01*
X0216857Y0304413D02*
X0223597Y0304413D01*
X0223597Y0317012D01*
X0216857Y0317012D01*
X0216857Y0304413D01*
X0223607Y0304413D02*
X0230347Y0304413D01*
X0230347Y0317012D01*
X0223607Y0317012D01*
X0223607Y0304413D01*
X0230357Y0304413D02*
X0237097Y0304413D01*
X0237097Y0317012D01*
X0230357Y0317012D01*
X0230357Y0304413D01*
X0242209Y0319593D02*
X0257745Y0319593D01*
X0257745Y0327333D01*
X0242209Y0327333D01*
X0242209Y0319593D01*
X0251709Y0327843D02*
X0267245Y0327843D01*
X0267245Y0335583D01*
X0251709Y0335583D01*
X0251709Y0327843D01*
X0289517Y0319966D02*
X0291018Y0319216D01*
X0292519Y0317715D01*
X0290267Y0317715D01*
X0289517Y0316964D01*
X0289517Y0316213D01*
X0290267Y0315463D01*
X0291769Y0315463D01*
X0292519Y0316213D01*
X0292519Y0317715D01*
X0294121Y0318465D02*
X0294871Y0317715D01*
X0294121Y0316964D01*
X0294121Y0316213D01*
X0294871Y0315463D01*
X0296372Y0315463D01*
X0297123Y0316213D01*
X0298724Y0316213D02*
X0299475Y0315463D01*
X0300976Y0315463D01*
X0301727Y0316213D01*
X0301727Y0319216D01*
X0300976Y0319966D01*
X0299475Y0319966D01*
X0298724Y0319216D01*
X0297123Y0319216D02*
X0296372Y0319966D01*
X0294871Y0319966D01*
X0294121Y0319216D01*
X0294121Y0318465D01*
X0294871Y0317715D02*
X0295622Y0317715D01*
X0327991Y0296833D02*
X0327991Y0288093D01*
X0347463Y0288093D01*
X0347463Y0296833D01*
X0327991Y0296833D01*
X0331578Y0297963D02*
X0334581Y0297963D01*
X0331578Y0300965D01*
X0331578Y0301716D01*
X0332329Y0302466D01*
X0333830Y0302466D01*
X0334581Y0301716D01*
X0336182Y0301716D02*
X0336933Y0302466D01*
X0338434Y0302466D01*
X0339185Y0301716D01*
X0340786Y0301716D02*
X0340786Y0300215D01*
X0341537Y0299464D01*
X0343789Y0299464D01*
X0343789Y0297963D02*
X0343789Y0302466D01*
X0341537Y0302466D01*
X0340786Y0301716D01*
X0342288Y0299464D02*
X0340786Y0297963D01*
X0339185Y0297963D02*
X0336182Y0300965D01*
X0336182Y0301716D01*
X0336182Y0297963D02*
X0339185Y0297963D01*
X0325289Y0293716D02*
X0323037Y0293716D01*
X0322286Y0292966D01*
X0322286Y0291465D01*
X0323037Y0290714D01*
X0325289Y0290714D01*
X0325289Y0289213D02*
X0325289Y0293716D01*
X0323788Y0290714D02*
X0322286Y0289213D01*
X0320685Y0289213D02*
X0317682Y0292215D01*
X0317682Y0292966D01*
X0318433Y0293716D01*
X0319934Y0293716D01*
X0320685Y0292966D01*
X0320685Y0289213D02*
X0317682Y0289213D01*
X0316081Y0289213D02*
X0316081Y0289963D01*
X0313078Y0292966D01*
X0313078Y0293716D01*
X0316081Y0293716D01*
X0315107Y0288199D02*
X0323847Y0288199D01*
X0323847Y0268726D01*
X0315107Y0268726D01*
X0315107Y0288199D01*
X0363678Y0246333D02*
X0363678Y0239593D01*
X0376276Y0239593D01*
X0376276Y0246333D01*
X0363678Y0246333D01*
X0410928Y0243583D02*
X0410928Y0236843D01*
X0423526Y0236843D01*
X0423526Y0243583D01*
X0410928Y0243583D01*
X0415857Y0243445D02*
X0423597Y0243445D01*
X0423597Y0258980D01*
X0415857Y0258980D01*
X0415857Y0243445D01*
X0415857Y0258945D02*
X0423597Y0258945D01*
X0423597Y0274480D01*
X0415857Y0274480D01*
X0415857Y0258945D01*
X0447357Y0241762D02*
X0454097Y0241762D01*
X0454097Y0229163D01*
X0447357Y0229163D01*
X0447357Y0241762D01*
X0454107Y0244730D02*
X0461847Y0244730D01*
X0461847Y0229195D01*
X0454107Y0229195D01*
X0454107Y0244730D01*
X0461857Y0244730D02*
X0469597Y0244730D01*
X0469597Y0229195D01*
X0461857Y0229195D01*
X0461857Y0244730D01*
X0469607Y0244730D02*
X0469607Y0229195D01*
X0477347Y0229195D01*
X0477347Y0244730D01*
X0469607Y0244730D01*
X0494741Y0242333D02*
X0494741Y0233593D01*
X0514213Y0233593D01*
X0514213Y0242333D01*
X0494741Y0242333D01*
X0494741Y0252843D02*
X0494741Y0261583D01*
X0514213Y0261583D01*
X0514213Y0252843D01*
X0494741Y0252843D01*
X0500871Y0262713D02*
X0500121Y0263463D01*
X0500121Y0266466D01*
X0500871Y0267216D01*
X0502372Y0267216D01*
X0503123Y0266466D01*
X0503123Y0265715D01*
X0502372Y0264965D01*
X0500121Y0264965D01*
X0500871Y0262713D02*
X0502372Y0262713D01*
X0503123Y0263463D01*
X0504724Y0262713D02*
X0506226Y0264214D01*
X0505475Y0264214D02*
X0507727Y0264214D01*
X0507727Y0262713D02*
X0507727Y0267216D01*
X0505475Y0267216D01*
X0504724Y0266466D01*
X0504724Y0264965D01*
X0505475Y0264214D01*
X0515857Y0257199D02*
X0524597Y0257199D01*
X0524597Y0237726D01*
X0515857Y0237726D01*
X0515857Y0257199D01*
X0494495Y0228833D02*
X0478959Y0228833D01*
X0478959Y0221093D01*
X0494495Y0221093D01*
X0494495Y0228833D01*
X0494597Y0220980D02*
X0486857Y0220980D01*
X0486857Y0205445D01*
X0494597Y0205445D01*
X0494597Y0220980D01*
X0486745Y0221083D02*
X0486745Y0213343D01*
X0471209Y0213343D01*
X0471209Y0221083D01*
X0486745Y0221083D01*
X0486745Y0213333D02*
X0471209Y0213333D01*
X0471209Y0205593D01*
X0486745Y0205593D01*
X0486745Y0213333D01*
X0456777Y0198466D02*
X0455276Y0198466D01*
X0456026Y0198466D02*
X0456026Y0193963D01*
X0455276Y0193963D02*
X0456777Y0193963D01*
X0453708Y0194713D02*
X0453708Y0197716D01*
X0452957Y0198466D01*
X0451456Y0198466D01*
X0450705Y0197716D01*
X0449104Y0196965D02*
X0447603Y0198466D01*
X0447603Y0193963D01*
X0449104Y0193963D02*
X0446101Y0193963D01*
X0450705Y0194713D02*
X0451456Y0193963D01*
X0452957Y0193963D01*
X0453708Y0194713D01*
X0402607Y0194582D02*
X0402607Y0196833D01*
X0401856Y0197584D01*
X0398854Y0197584D01*
X0398103Y0196833D01*
X0398103Y0194582D01*
X0402607Y0194582D01*
X0402607Y0199185D02*
X0402607Y0202188D01*
X0401856Y0202188D01*
X0398854Y0199185D01*
X0398103Y0199185D01*
X0487107Y0156230D02*
X0494847Y0156230D01*
X0494847Y0140695D01*
X0487107Y0140695D01*
X0487107Y0156230D01*
X0494857Y0156230D02*
X0494857Y0140695D01*
X0502597Y0140695D01*
X0502597Y0156230D01*
X0494857Y0156230D01*
X0530709Y0179343D02*
X0530709Y0187083D01*
X0546245Y0187083D01*
X0546245Y0179343D01*
X0530709Y0179343D01*
X0546209Y0179343D02*
X0546209Y0187083D01*
X0561745Y0187083D01*
X0561745Y0179343D01*
X0546209Y0179343D01*
X0582615Y0294278D02*
X0591355Y0294278D01*
X0591355Y0313750D01*
X0582615Y0313750D01*
X0582615Y0294278D01*
X0582615Y0313778D02*
X0591355Y0313778D01*
X0591355Y0333250D01*
X0582615Y0333250D01*
X0582615Y0313778D01*
X0103395Y0330059D02*
X0101143Y0330059D01*
X0100393Y0330810D01*
X0100393Y0333812D01*
X0101143Y0334563D01*
X0103395Y0334563D01*
X0103395Y0330059D01*
X0098791Y0330059D02*
X0095789Y0330059D01*
X0097290Y0330059D02*
X0097290Y0334563D01*
X0098791Y0333062D01*
X0094187Y0332311D02*
X0092686Y0333062D01*
X0091935Y0333062D01*
X0091185Y0332311D01*
X0091185Y0330810D01*
X0091935Y0330059D01*
X0093437Y0330059D01*
X0094187Y0330810D01*
X0094187Y0332311D02*
X0094187Y0334563D01*
X0091185Y0334563D01*
X0050246Y0192524D02*
X0047243Y0192524D01*
X0046493Y0190956D02*
X0047994Y0189455D01*
X0049495Y0189455D01*
D12*
X0096727Y0309463D02*
X0096727Y0311963D01*
X0093971Y0312016D02*
X0099483Y0312016D01*
X0096727Y0316937D01*
X0093971Y0312016D01*
X0096727Y0317213D02*
X0096727Y0319713D01*
X0393292Y0224321D02*
X0393292Y0206604D01*
X0395556Y0206604D01*
X0407662Y0206604D02*
X0407662Y0224321D01*
X0405398Y0224321D01*
X0395556Y0224321D02*
X0393292Y0224321D01*
X0405398Y0206605D02*
X0406530Y0206614D01*
X0407662Y0206605D01*
X0607477Y0171963D02*
X0607479Y0172007D01*
X0607485Y0172051D01*
X0607495Y0172094D01*
X0607508Y0172136D01*
X0607525Y0172177D01*
X0607546Y0172216D01*
X0607570Y0172253D01*
X0607597Y0172288D01*
X0607627Y0172320D01*
X0607660Y0172350D01*
X0607696Y0172376D01*
X0607733Y0172400D01*
X0607773Y0172419D01*
X0607814Y0172436D01*
X0607857Y0172448D01*
X0607900Y0172457D01*
X0607944Y0172462D01*
X0607988Y0172463D01*
X0608032Y0172460D01*
X0608076Y0172453D01*
X0608119Y0172442D01*
X0608161Y0172428D01*
X0608201Y0172410D01*
X0608240Y0172388D01*
X0608276Y0172364D01*
X0608310Y0172336D01*
X0608342Y0172305D01*
X0608371Y0172271D01*
X0608397Y0172235D01*
X0608419Y0172197D01*
X0608438Y0172157D01*
X0608453Y0172115D01*
X0608465Y0172073D01*
X0608473Y0172029D01*
X0608477Y0171985D01*
X0608477Y0171941D01*
X0608473Y0171897D01*
X0608465Y0171853D01*
X0608453Y0171811D01*
X0608438Y0171769D01*
X0608419Y0171729D01*
X0608397Y0171691D01*
X0608371Y0171655D01*
X0608342Y0171621D01*
X0608310Y0171590D01*
X0608276Y0171562D01*
X0608240Y0171538D01*
X0608201Y0171516D01*
X0608161Y0171498D01*
X0608119Y0171484D01*
X0608076Y0171473D01*
X0608032Y0171466D01*
X0607988Y0171463D01*
X0607944Y0171464D01*
X0607900Y0171469D01*
X0607857Y0171478D01*
X0607814Y0171490D01*
X0607773Y0171507D01*
X0607733Y0171526D01*
X0607696Y0171550D01*
X0607660Y0171576D01*
X0607627Y0171606D01*
X0607597Y0171638D01*
X0607570Y0171673D01*
X0607546Y0171710D01*
X0607525Y0171749D01*
X0607508Y0171790D01*
X0607495Y0171832D01*
X0607485Y0171875D01*
X0607479Y0171919D01*
X0607477Y0171963D01*
X0607477Y0165963D02*
X0607479Y0166007D01*
X0607485Y0166051D01*
X0607495Y0166094D01*
X0607508Y0166136D01*
X0607525Y0166177D01*
X0607546Y0166216D01*
X0607570Y0166253D01*
X0607597Y0166288D01*
X0607627Y0166320D01*
X0607660Y0166350D01*
X0607696Y0166376D01*
X0607733Y0166400D01*
X0607773Y0166419D01*
X0607814Y0166436D01*
X0607857Y0166448D01*
X0607900Y0166457D01*
X0607944Y0166462D01*
X0607988Y0166463D01*
X0608032Y0166460D01*
X0608076Y0166453D01*
X0608119Y0166442D01*
X0608161Y0166428D01*
X0608201Y0166410D01*
X0608240Y0166388D01*
X0608276Y0166364D01*
X0608310Y0166336D01*
X0608342Y0166305D01*
X0608371Y0166271D01*
X0608397Y0166235D01*
X0608419Y0166197D01*
X0608438Y0166157D01*
X0608453Y0166115D01*
X0608465Y0166073D01*
X0608473Y0166029D01*
X0608477Y0165985D01*
X0608477Y0165941D01*
X0608473Y0165897D01*
X0608465Y0165853D01*
X0608453Y0165811D01*
X0608438Y0165769D01*
X0608419Y0165729D01*
X0608397Y0165691D01*
X0608371Y0165655D01*
X0608342Y0165621D01*
X0608310Y0165590D01*
X0608276Y0165562D01*
X0608240Y0165538D01*
X0608201Y0165516D01*
X0608161Y0165498D01*
X0608119Y0165484D01*
X0608076Y0165473D01*
X0608032Y0165466D01*
X0607988Y0165463D01*
X0607944Y0165464D01*
X0607900Y0165469D01*
X0607857Y0165478D01*
X0607814Y0165490D01*
X0607773Y0165507D01*
X0607733Y0165526D01*
X0607696Y0165550D01*
X0607660Y0165576D01*
X0607627Y0165606D01*
X0607597Y0165638D01*
X0607570Y0165673D01*
X0607546Y0165710D01*
X0607525Y0165749D01*
X0607508Y0165790D01*
X0607495Y0165832D01*
X0607485Y0165875D01*
X0607479Y0165919D01*
X0607477Y0165963D01*
X0607477Y0159963D02*
X0607479Y0160007D01*
X0607485Y0160051D01*
X0607495Y0160094D01*
X0607508Y0160136D01*
X0607525Y0160177D01*
X0607546Y0160216D01*
X0607570Y0160253D01*
X0607597Y0160288D01*
X0607627Y0160320D01*
X0607660Y0160350D01*
X0607696Y0160376D01*
X0607733Y0160400D01*
X0607773Y0160419D01*
X0607814Y0160436D01*
X0607857Y0160448D01*
X0607900Y0160457D01*
X0607944Y0160462D01*
X0607988Y0160463D01*
X0608032Y0160460D01*
X0608076Y0160453D01*
X0608119Y0160442D01*
X0608161Y0160428D01*
X0608201Y0160410D01*
X0608240Y0160388D01*
X0608276Y0160364D01*
X0608310Y0160336D01*
X0608342Y0160305D01*
X0608371Y0160271D01*
X0608397Y0160235D01*
X0608419Y0160197D01*
X0608438Y0160157D01*
X0608453Y0160115D01*
X0608465Y0160073D01*
X0608473Y0160029D01*
X0608477Y0159985D01*
X0608477Y0159941D01*
X0608473Y0159897D01*
X0608465Y0159853D01*
X0608453Y0159811D01*
X0608438Y0159769D01*
X0608419Y0159729D01*
X0608397Y0159691D01*
X0608371Y0159655D01*
X0608342Y0159621D01*
X0608310Y0159590D01*
X0608276Y0159562D01*
X0608240Y0159538D01*
X0608201Y0159516D01*
X0608161Y0159498D01*
X0608119Y0159484D01*
X0608076Y0159473D01*
X0608032Y0159466D01*
X0607988Y0159463D01*
X0607944Y0159464D01*
X0607900Y0159469D01*
X0607857Y0159478D01*
X0607814Y0159490D01*
X0607773Y0159507D01*
X0607733Y0159526D01*
X0607696Y0159550D01*
X0607660Y0159576D01*
X0607627Y0159606D01*
X0607597Y0159638D01*
X0607570Y0159673D01*
X0607546Y0159710D01*
X0607525Y0159749D01*
X0607508Y0159790D01*
X0607495Y0159832D01*
X0607485Y0159875D01*
X0607479Y0159919D01*
X0607477Y0159963D01*
X0607477Y0153963D02*
X0607479Y0154007D01*
X0607485Y0154051D01*
X0607495Y0154094D01*
X0607508Y0154136D01*
X0607525Y0154177D01*
X0607546Y0154216D01*
X0607570Y0154253D01*
X0607597Y0154288D01*
X0607627Y0154320D01*
X0607660Y0154350D01*
X0607696Y0154376D01*
X0607733Y0154400D01*
X0607773Y0154419D01*
X0607814Y0154436D01*
X0607857Y0154448D01*
X0607900Y0154457D01*
X0607944Y0154462D01*
X0607988Y0154463D01*
X0608032Y0154460D01*
X0608076Y0154453D01*
X0608119Y0154442D01*
X0608161Y0154428D01*
X0608201Y0154410D01*
X0608240Y0154388D01*
X0608276Y0154364D01*
X0608310Y0154336D01*
X0608342Y0154305D01*
X0608371Y0154271D01*
X0608397Y0154235D01*
X0608419Y0154197D01*
X0608438Y0154157D01*
X0608453Y0154115D01*
X0608465Y0154073D01*
X0608473Y0154029D01*
X0608477Y0153985D01*
X0608477Y0153941D01*
X0608473Y0153897D01*
X0608465Y0153853D01*
X0608453Y0153811D01*
X0608438Y0153769D01*
X0608419Y0153729D01*
X0608397Y0153691D01*
X0608371Y0153655D01*
X0608342Y0153621D01*
X0608310Y0153590D01*
X0608276Y0153562D01*
X0608240Y0153538D01*
X0608201Y0153516D01*
X0608161Y0153498D01*
X0608119Y0153484D01*
X0608076Y0153473D01*
X0608032Y0153466D01*
X0607988Y0153463D01*
X0607944Y0153464D01*
X0607900Y0153469D01*
X0607857Y0153478D01*
X0607814Y0153490D01*
X0607773Y0153507D01*
X0607733Y0153526D01*
X0607696Y0153550D01*
X0607660Y0153576D01*
X0607627Y0153606D01*
X0607597Y0153638D01*
X0607570Y0153673D01*
X0607546Y0153710D01*
X0607525Y0153749D01*
X0607508Y0153790D01*
X0607495Y0153832D01*
X0607485Y0153875D01*
X0607479Y0153919D01*
X0607477Y0153963D01*
X0607477Y0147963D02*
X0607479Y0148007D01*
X0607485Y0148051D01*
X0607495Y0148094D01*
X0607508Y0148136D01*
X0607525Y0148177D01*
X0607546Y0148216D01*
X0607570Y0148253D01*
X0607597Y0148288D01*
X0607627Y0148320D01*
X0607660Y0148350D01*
X0607696Y0148376D01*
X0607733Y0148400D01*
X0607773Y0148419D01*
X0607814Y0148436D01*
X0607857Y0148448D01*
X0607900Y0148457D01*
X0607944Y0148462D01*
X0607988Y0148463D01*
X0608032Y0148460D01*
X0608076Y0148453D01*
X0608119Y0148442D01*
X0608161Y0148428D01*
X0608201Y0148410D01*
X0608240Y0148388D01*
X0608276Y0148364D01*
X0608310Y0148336D01*
X0608342Y0148305D01*
X0608371Y0148271D01*
X0608397Y0148235D01*
X0608419Y0148197D01*
X0608438Y0148157D01*
X0608453Y0148115D01*
X0608465Y0148073D01*
X0608473Y0148029D01*
X0608477Y0147985D01*
X0608477Y0147941D01*
X0608473Y0147897D01*
X0608465Y0147853D01*
X0608453Y0147811D01*
X0608438Y0147769D01*
X0608419Y0147729D01*
X0608397Y0147691D01*
X0608371Y0147655D01*
X0608342Y0147621D01*
X0608310Y0147590D01*
X0608276Y0147562D01*
X0608240Y0147538D01*
X0608201Y0147516D01*
X0608161Y0147498D01*
X0608119Y0147484D01*
X0608076Y0147473D01*
X0608032Y0147466D01*
X0607988Y0147463D01*
X0607944Y0147464D01*
X0607900Y0147469D01*
X0607857Y0147478D01*
X0607814Y0147490D01*
X0607773Y0147507D01*
X0607733Y0147526D01*
X0607696Y0147550D01*
X0607660Y0147576D01*
X0607627Y0147606D01*
X0607597Y0147638D01*
X0607570Y0147673D01*
X0607546Y0147710D01*
X0607525Y0147749D01*
X0607508Y0147790D01*
X0607495Y0147832D01*
X0607485Y0147875D01*
X0607479Y0147919D01*
X0607477Y0147963D01*
X0607477Y0141963D02*
X0607479Y0142007D01*
X0607485Y0142051D01*
X0607495Y0142094D01*
X0607508Y0142136D01*
X0607525Y0142177D01*
X0607546Y0142216D01*
X0607570Y0142253D01*
X0607597Y0142288D01*
X0607627Y0142320D01*
X0607660Y0142350D01*
X0607696Y0142376D01*
X0607733Y0142400D01*
X0607773Y0142419D01*
X0607814Y0142436D01*
X0607857Y0142448D01*
X0607900Y0142457D01*
X0607944Y0142462D01*
X0607988Y0142463D01*
X0608032Y0142460D01*
X0608076Y0142453D01*
X0608119Y0142442D01*
X0608161Y0142428D01*
X0608201Y0142410D01*
X0608240Y0142388D01*
X0608276Y0142364D01*
X0608310Y0142336D01*
X0608342Y0142305D01*
X0608371Y0142271D01*
X0608397Y0142235D01*
X0608419Y0142197D01*
X0608438Y0142157D01*
X0608453Y0142115D01*
X0608465Y0142073D01*
X0608473Y0142029D01*
X0608477Y0141985D01*
X0608477Y0141941D01*
X0608473Y0141897D01*
X0608465Y0141853D01*
X0608453Y0141811D01*
X0608438Y0141769D01*
X0608419Y0141729D01*
X0608397Y0141691D01*
X0608371Y0141655D01*
X0608342Y0141621D01*
X0608310Y0141590D01*
X0608276Y0141562D01*
X0608240Y0141538D01*
X0608201Y0141516D01*
X0608161Y0141498D01*
X0608119Y0141484D01*
X0608076Y0141473D01*
X0608032Y0141466D01*
X0607988Y0141463D01*
X0607944Y0141464D01*
X0607900Y0141469D01*
X0607857Y0141478D01*
X0607814Y0141490D01*
X0607773Y0141507D01*
X0607733Y0141526D01*
X0607696Y0141550D01*
X0607660Y0141576D01*
X0607627Y0141606D01*
X0607597Y0141638D01*
X0607570Y0141673D01*
X0607546Y0141710D01*
X0607525Y0141749D01*
X0607508Y0141790D01*
X0607495Y0141832D01*
X0607485Y0141875D01*
X0607479Y0141919D01*
X0607477Y0141963D01*
X0607477Y0135963D02*
X0607479Y0136007D01*
X0607485Y0136051D01*
X0607495Y0136094D01*
X0607508Y0136136D01*
X0607525Y0136177D01*
X0607546Y0136216D01*
X0607570Y0136253D01*
X0607597Y0136288D01*
X0607627Y0136320D01*
X0607660Y0136350D01*
X0607696Y0136376D01*
X0607733Y0136400D01*
X0607773Y0136419D01*
X0607814Y0136436D01*
X0607857Y0136448D01*
X0607900Y0136457D01*
X0607944Y0136462D01*
X0607988Y0136463D01*
X0608032Y0136460D01*
X0608076Y0136453D01*
X0608119Y0136442D01*
X0608161Y0136428D01*
X0608201Y0136410D01*
X0608240Y0136388D01*
X0608276Y0136364D01*
X0608310Y0136336D01*
X0608342Y0136305D01*
X0608371Y0136271D01*
X0608397Y0136235D01*
X0608419Y0136197D01*
X0608438Y0136157D01*
X0608453Y0136115D01*
X0608465Y0136073D01*
X0608473Y0136029D01*
X0608477Y0135985D01*
X0608477Y0135941D01*
X0608473Y0135897D01*
X0608465Y0135853D01*
X0608453Y0135811D01*
X0608438Y0135769D01*
X0608419Y0135729D01*
X0608397Y0135691D01*
X0608371Y0135655D01*
X0608342Y0135621D01*
X0608310Y0135590D01*
X0608276Y0135562D01*
X0608240Y0135538D01*
X0608201Y0135516D01*
X0608161Y0135498D01*
X0608119Y0135484D01*
X0608076Y0135473D01*
X0608032Y0135466D01*
X0607988Y0135463D01*
X0607944Y0135464D01*
X0607900Y0135469D01*
X0607857Y0135478D01*
X0607814Y0135490D01*
X0607773Y0135507D01*
X0607733Y0135526D01*
X0607696Y0135550D01*
X0607660Y0135576D01*
X0607627Y0135606D01*
X0607597Y0135638D01*
X0607570Y0135673D01*
X0607546Y0135710D01*
X0607525Y0135749D01*
X0607508Y0135790D01*
X0607495Y0135832D01*
X0607485Y0135875D01*
X0607479Y0135919D01*
X0607477Y0135963D01*
X0607477Y0129963D02*
X0607479Y0130007D01*
X0607485Y0130051D01*
X0607495Y0130094D01*
X0607508Y0130136D01*
X0607525Y0130177D01*
X0607546Y0130216D01*
X0607570Y0130253D01*
X0607597Y0130288D01*
X0607627Y0130320D01*
X0607660Y0130350D01*
X0607696Y0130376D01*
X0607733Y0130400D01*
X0607773Y0130419D01*
X0607814Y0130436D01*
X0607857Y0130448D01*
X0607900Y0130457D01*
X0607944Y0130462D01*
X0607988Y0130463D01*
X0608032Y0130460D01*
X0608076Y0130453D01*
X0608119Y0130442D01*
X0608161Y0130428D01*
X0608201Y0130410D01*
X0608240Y0130388D01*
X0608276Y0130364D01*
X0608310Y0130336D01*
X0608342Y0130305D01*
X0608371Y0130271D01*
X0608397Y0130235D01*
X0608419Y0130197D01*
X0608438Y0130157D01*
X0608453Y0130115D01*
X0608465Y0130073D01*
X0608473Y0130029D01*
X0608477Y0129985D01*
X0608477Y0129941D01*
X0608473Y0129897D01*
X0608465Y0129853D01*
X0608453Y0129811D01*
X0608438Y0129769D01*
X0608419Y0129729D01*
X0608397Y0129691D01*
X0608371Y0129655D01*
X0608342Y0129621D01*
X0608310Y0129590D01*
X0608276Y0129562D01*
X0608240Y0129538D01*
X0608201Y0129516D01*
X0608161Y0129498D01*
X0608119Y0129484D01*
X0608076Y0129473D01*
X0608032Y0129466D01*
X0607988Y0129463D01*
X0607944Y0129464D01*
X0607900Y0129469D01*
X0607857Y0129478D01*
X0607814Y0129490D01*
X0607773Y0129507D01*
X0607733Y0129526D01*
X0607696Y0129550D01*
X0607660Y0129576D01*
X0607627Y0129606D01*
X0607597Y0129638D01*
X0607570Y0129673D01*
X0607546Y0129710D01*
X0607525Y0129749D01*
X0607508Y0129790D01*
X0607495Y0129832D01*
X0607485Y0129875D01*
X0607479Y0129919D01*
X0607477Y0129963D01*
X0607477Y0123963D02*
X0607479Y0124007D01*
X0607485Y0124051D01*
X0607495Y0124094D01*
X0607508Y0124136D01*
X0607525Y0124177D01*
X0607546Y0124216D01*
X0607570Y0124253D01*
X0607597Y0124288D01*
X0607627Y0124320D01*
X0607660Y0124350D01*
X0607696Y0124376D01*
X0607733Y0124400D01*
X0607773Y0124419D01*
X0607814Y0124436D01*
X0607857Y0124448D01*
X0607900Y0124457D01*
X0607944Y0124462D01*
X0607988Y0124463D01*
X0608032Y0124460D01*
X0608076Y0124453D01*
X0608119Y0124442D01*
X0608161Y0124428D01*
X0608201Y0124410D01*
X0608240Y0124388D01*
X0608276Y0124364D01*
X0608310Y0124336D01*
X0608342Y0124305D01*
X0608371Y0124271D01*
X0608397Y0124235D01*
X0608419Y0124197D01*
X0608438Y0124157D01*
X0608453Y0124115D01*
X0608465Y0124073D01*
X0608473Y0124029D01*
X0608477Y0123985D01*
X0608477Y0123941D01*
X0608473Y0123897D01*
X0608465Y0123853D01*
X0608453Y0123811D01*
X0608438Y0123769D01*
X0608419Y0123729D01*
X0608397Y0123691D01*
X0608371Y0123655D01*
X0608342Y0123621D01*
X0608310Y0123590D01*
X0608276Y0123562D01*
X0608240Y0123538D01*
X0608201Y0123516D01*
X0608161Y0123498D01*
X0608119Y0123484D01*
X0608076Y0123473D01*
X0608032Y0123466D01*
X0607988Y0123463D01*
X0607944Y0123464D01*
X0607900Y0123469D01*
X0607857Y0123478D01*
X0607814Y0123490D01*
X0607773Y0123507D01*
X0607733Y0123526D01*
X0607696Y0123550D01*
X0607660Y0123576D01*
X0607627Y0123606D01*
X0607597Y0123638D01*
X0607570Y0123673D01*
X0607546Y0123710D01*
X0607525Y0123749D01*
X0607508Y0123790D01*
X0607495Y0123832D01*
X0607485Y0123875D01*
X0607479Y0123919D01*
X0607477Y0123963D01*
D13*
X0604977Y0120963D02*
X0610977Y0120963D01*
X0610977Y0175213D01*
X0604977Y0175213D01*
X0604977Y0120963D01*
X0624423Y0079022D02*
X0624423Y0076520D01*
X0625257Y0075686D01*
X0628593Y0075686D01*
X0629427Y0076520D01*
X0629427Y0079022D01*
X0624423Y0079022D01*
X0625257Y0073866D02*
X0628593Y0073866D01*
X0629427Y0073032D01*
X0629427Y0071364D01*
X0628593Y0070530D01*
X0625257Y0070530D02*
X0624423Y0071364D01*
X0624423Y0073032D01*
X0625257Y0073866D01*
X0626925Y0063553D02*
X0628593Y0063553D01*
X0629427Y0062719D01*
X0629427Y0061051D01*
X0628593Y0060217D01*
X0626925Y0060217D01*
X0626091Y0061051D01*
X0626091Y0062719D01*
X0626925Y0063553D01*
X0626091Y0058397D02*
X0628593Y0058397D01*
X0629427Y0057563D01*
X0629427Y0055061D01*
X0626091Y0055061D01*
X0626091Y0053240D02*
X0626091Y0051572D01*
X0625257Y0052406D02*
X0628593Y0052406D01*
X0629427Y0051572D01*
X0484477Y0144213D02*
X0481977Y0147463D01*
X0479727Y0144213D01*
X0484477Y0144213D01*
X0484018Y0144809D02*
X0480140Y0144809D01*
X0480554Y0145407D02*
X0483558Y0145407D01*
X0483098Y0146006D02*
X0480969Y0146006D01*
X0481383Y0146604D02*
X0482637Y0146604D01*
X0482177Y0147203D02*
X0481797Y0147203D01*
X0482727Y0168763D02*
X0482727Y0181663D01*
X0487227Y0173963D02*
X0489727Y0170463D01*
X0489727Y0173963D01*
X0487227Y0173963D01*
X0487531Y0173537D02*
X0489727Y0173537D01*
X0489727Y0172939D02*
X0487958Y0172939D01*
X0488386Y0172340D02*
X0489727Y0172340D01*
X0489727Y0171742D02*
X0488813Y0171742D01*
X0489241Y0171143D02*
X0489727Y0171143D01*
X0489727Y0170545D02*
X0489668Y0170545D01*
X0491727Y0168763D02*
X0491727Y0174013D01*
X0491658Y0174015D01*
X0491590Y0174021D01*
X0491522Y0174031D01*
X0491455Y0174044D01*
X0491389Y0174062D01*
X0491324Y0174083D01*
X0491260Y0174108D01*
X0491198Y0174136D01*
X0491137Y0174168D01*
X0491078Y0174203D01*
X0491022Y0174242D01*
X0490967Y0174284D01*
X0490916Y0174329D01*
X0490866Y0174377D01*
X0490820Y0174427D01*
X0490777Y0174480D01*
X0490736Y0174536D01*
X0490699Y0174593D01*
X0490666Y0174653D01*
X0490635Y0174715D01*
X0490609Y0174778D01*
X0490586Y0174842D01*
X0490566Y0174908D01*
X0490551Y0174975D01*
X0490539Y0175042D01*
X0490531Y0175110D01*
X0490527Y0175179D01*
X0490527Y0175247D01*
X0490531Y0175316D01*
X0490539Y0175384D01*
X0490551Y0175451D01*
X0490566Y0175518D01*
X0490586Y0175584D01*
X0490609Y0175648D01*
X0490635Y0175711D01*
X0490666Y0175773D01*
X0490699Y0175833D01*
X0490736Y0175890D01*
X0490777Y0175946D01*
X0490820Y0175999D01*
X0490866Y0176049D01*
X0490916Y0176097D01*
X0490967Y0176142D01*
X0491022Y0176184D01*
X0491078Y0176223D01*
X0491137Y0176258D01*
X0491198Y0176290D01*
X0491260Y0176318D01*
X0491324Y0176343D01*
X0491389Y0176364D01*
X0491455Y0176382D01*
X0491522Y0176395D01*
X0491590Y0176405D01*
X0491658Y0176411D01*
X0491727Y0176413D01*
X0491727Y0181663D01*
X0469477Y0207513D02*
X0430477Y0207513D01*
X0430477Y0212763D01*
X0430546Y0212765D01*
X0430614Y0212771D01*
X0430682Y0212781D01*
X0430749Y0212794D01*
X0430815Y0212812D01*
X0430880Y0212833D01*
X0430944Y0212858D01*
X0431006Y0212886D01*
X0431067Y0212918D01*
X0431126Y0212953D01*
X0431182Y0212992D01*
X0431237Y0213034D01*
X0431288Y0213079D01*
X0431338Y0213127D01*
X0431384Y0213177D01*
X0431427Y0213230D01*
X0431468Y0213286D01*
X0431505Y0213343D01*
X0431538Y0213403D01*
X0431569Y0213465D01*
X0431595Y0213528D01*
X0431618Y0213592D01*
X0431638Y0213658D01*
X0431653Y0213725D01*
X0431665Y0213792D01*
X0431673Y0213860D01*
X0431677Y0213929D01*
X0431677Y0213997D01*
X0431673Y0214066D01*
X0431665Y0214134D01*
X0431653Y0214201D01*
X0431638Y0214268D01*
X0431618Y0214334D01*
X0431595Y0214398D01*
X0431569Y0214461D01*
X0431538Y0214523D01*
X0431505Y0214583D01*
X0431468Y0214640D01*
X0431427Y0214696D01*
X0431384Y0214749D01*
X0431338Y0214799D01*
X0431288Y0214847D01*
X0431237Y0214892D01*
X0431182Y0214934D01*
X0431126Y0214973D01*
X0431067Y0215008D01*
X0431006Y0215040D01*
X0430944Y0215068D01*
X0430880Y0215093D01*
X0430815Y0215114D01*
X0430749Y0215132D01*
X0430682Y0215145D01*
X0430614Y0215155D01*
X0430546Y0215161D01*
X0430477Y0215163D01*
X0430477Y0220413D01*
X0469477Y0220413D01*
X0469477Y0207513D01*
X0434977Y0215713D02*
X0432477Y0219213D01*
X0432477Y0215713D01*
X0434977Y0215713D01*
X0434749Y0216032D02*
X0432477Y0216032D01*
X0432477Y0216630D02*
X0434322Y0216630D01*
X0433894Y0217229D02*
X0432477Y0217229D01*
X0432477Y0217827D02*
X0433467Y0217827D01*
X0433039Y0218426D02*
X0432477Y0218426D01*
X0432477Y0219024D02*
X0432612Y0219024D01*
X0415477Y0214713D02*
X0412977Y0217963D01*
X0410727Y0214713D01*
X0415477Y0214713D01*
X0415383Y0214835D02*
X0410812Y0214835D01*
X0411226Y0215433D02*
X0414923Y0215433D01*
X0414462Y0216032D02*
X0411640Y0216032D01*
X0412055Y0216630D02*
X0414002Y0216630D01*
X0413542Y0217229D02*
X0412469Y0217229D01*
X0412883Y0217827D02*
X0413081Y0217827D01*
X0402877Y0238313D02*
X0399677Y0238313D01*
X0399677Y0241063D01*
X0405277Y0243363D02*
X0405277Y0245063D01*
X0402877Y0250113D02*
X0399677Y0250113D01*
X0399677Y0247363D01*
X0410727Y0263463D02*
X0408227Y0266713D01*
X0412977Y0266713D01*
X0410727Y0263463D01*
X0411039Y0263913D02*
X0410381Y0263913D01*
X0409920Y0264511D02*
X0411453Y0264511D01*
X0411867Y0265110D02*
X0409460Y0265110D01*
X0409000Y0265708D02*
X0412282Y0265708D01*
X0412696Y0266307D02*
X0408539Y0266307D01*
X0334777Y0201963D02*
X0327177Y0201963D01*
X0327175Y0201894D01*
X0327169Y0201826D01*
X0327159Y0201758D01*
X0327146Y0201691D01*
X0327128Y0201625D01*
X0327107Y0201560D01*
X0327082Y0201496D01*
X0327054Y0201434D01*
X0327022Y0201373D01*
X0326987Y0201314D01*
X0326948Y0201258D01*
X0326906Y0201203D01*
X0326861Y0201152D01*
X0326813Y0201102D01*
X0326763Y0201056D01*
X0326710Y0201013D01*
X0326654Y0200972D01*
X0326597Y0200935D01*
X0326537Y0200902D01*
X0326475Y0200871D01*
X0326412Y0200845D01*
X0326348Y0200822D01*
X0326282Y0200802D01*
X0326215Y0200787D01*
X0326148Y0200775D01*
X0326080Y0200767D01*
X0326011Y0200763D01*
X0325943Y0200763D01*
X0325874Y0200767D01*
X0325806Y0200775D01*
X0325739Y0200787D01*
X0325672Y0200802D01*
X0325606Y0200822D01*
X0325542Y0200845D01*
X0325479Y0200871D01*
X0325417Y0200902D01*
X0325357Y0200935D01*
X0325300Y0200972D01*
X0325244Y0201013D01*
X0325191Y0201056D01*
X0325141Y0201102D01*
X0325093Y0201152D01*
X0325048Y0201203D01*
X0325006Y0201258D01*
X0324967Y0201314D01*
X0324932Y0201373D01*
X0324900Y0201434D01*
X0324872Y0201496D01*
X0324847Y0201560D01*
X0324826Y0201625D01*
X0324808Y0201691D01*
X0324795Y0201758D01*
X0324785Y0201826D01*
X0324779Y0201894D01*
X0324777Y0201963D01*
X0317177Y0201963D01*
X0329477Y0199963D02*
X0329477Y0197963D01*
X0332727Y0199963D01*
X0329477Y0199963D01*
X0329477Y0199872D02*
X0332580Y0199872D01*
X0331607Y0199273D02*
X0329477Y0199273D01*
X0329477Y0198675D02*
X0330635Y0198675D01*
X0329662Y0198076D02*
X0329477Y0198076D01*
X0334777Y0180963D02*
X0317177Y0180963D01*
X0326290Y0178165D02*
X0334164Y0178165D01*
X0330977Y0175213D02*
X0328727Y0173713D01*
X0328727Y0176713D01*
X0330977Y0175213D01*
X0330796Y0175333D02*
X0328727Y0175333D01*
X0328727Y0175931D02*
X0329899Y0175931D01*
X0329001Y0176530D02*
X0328727Y0176530D01*
X0328727Y0174734D02*
X0330260Y0174734D01*
X0329362Y0174136D02*
X0328727Y0174136D01*
X0326290Y0172260D02*
X0334164Y0172260D01*
X0347727Y0152663D02*
X0347727Y0139763D01*
X0353192Y0143612D02*
X0354727Y0143612D01*
X0354727Y0144210D02*
X0352764Y0144210D01*
X0352337Y0144809D02*
X0354727Y0144809D01*
X0354727Y0144963D02*
X0352227Y0144963D01*
X0354727Y0141463D01*
X0354727Y0144963D01*
X0354727Y0143013D02*
X0353619Y0143013D01*
X0354047Y0142415D02*
X0354727Y0142415D01*
X0354727Y0141816D02*
X0354474Y0141816D01*
X0356727Y0139763D02*
X0356727Y0145013D01*
X0356658Y0145015D01*
X0356590Y0145021D01*
X0356522Y0145031D01*
X0356455Y0145044D01*
X0356389Y0145062D01*
X0356324Y0145083D01*
X0356260Y0145108D01*
X0356198Y0145136D01*
X0356137Y0145168D01*
X0356078Y0145203D01*
X0356022Y0145242D01*
X0355967Y0145284D01*
X0355916Y0145329D01*
X0355866Y0145377D01*
X0355820Y0145427D01*
X0355777Y0145480D01*
X0355736Y0145536D01*
X0355699Y0145593D01*
X0355666Y0145653D01*
X0355635Y0145715D01*
X0355609Y0145778D01*
X0355586Y0145842D01*
X0355566Y0145908D01*
X0355551Y0145975D01*
X0355539Y0146042D01*
X0355531Y0146110D01*
X0355527Y0146179D01*
X0355527Y0146247D01*
X0355531Y0146316D01*
X0355539Y0146384D01*
X0355551Y0146451D01*
X0355566Y0146518D01*
X0355586Y0146584D01*
X0355609Y0146648D01*
X0355635Y0146711D01*
X0355666Y0146773D01*
X0355699Y0146833D01*
X0355736Y0146890D01*
X0355777Y0146946D01*
X0355820Y0146999D01*
X0355866Y0147049D01*
X0355916Y0147097D01*
X0355967Y0147142D01*
X0356022Y0147184D01*
X0356078Y0147223D01*
X0356137Y0147258D01*
X0356198Y0147290D01*
X0356260Y0147318D01*
X0356324Y0147343D01*
X0356389Y0147364D01*
X0356455Y0147382D01*
X0356522Y0147395D01*
X0356590Y0147405D01*
X0356658Y0147411D01*
X0356727Y0147413D01*
X0356727Y0152663D01*
X0362227Y0152663D02*
X0362227Y0147413D01*
X0362296Y0147411D01*
X0362364Y0147405D01*
X0362432Y0147395D01*
X0362499Y0147382D01*
X0362565Y0147364D01*
X0362630Y0147343D01*
X0362694Y0147318D01*
X0362756Y0147290D01*
X0362817Y0147258D01*
X0362876Y0147223D01*
X0362932Y0147184D01*
X0362987Y0147142D01*
X0363038Y0147097D01*
X0363088Y0147049D01*
X0363134Y0146999D01*
X0363177Y0146946D01*
X0363218Y0146890D01*
X0363255Y0146833D01*
X0363288Y0146773D01*
X0363319Y0146711D01*
X0363345Y0146648D01*
X0363368Y0146584D01*
X0363388Y0146518D01*
X0363403Y0146451D01*
X0363415Y0146384D01*
X0363423Y0146316D01*
X0363427Y0146247D01*
X0363427Y0146179D01*
X0363423Y0146110D01*
X0363415Y0146042D01*
X0363403Y0145975D01*
X0363388Y0145908D01*
X0363368Y0145842D01*
X0363345Y0145778D01*
X0363319Y0145715D01*
X0363288Y0145653D01*
X0363255Y0145593D01*
X0363218Y0145536D01*
X0363177Y0145480D01*
X0363134Y0145427D01*
X0363088Y0145377D01*
X0363038Y0145329D01*
X0362987Y0145284D01*
X0362932Y0145242D01*
X0362876Y0145203D01*
X0362817Y0145168D01*
X0362756Y0145136D01*
X0362694Y0145108D01*
X0362630Y0145083D01*
X0362565Y0145062D01*
X0362499Y0145044D01*
X0362432Y0145031D01*
X0362364Y0145021D01*
X0362296Y0145015D01*
X0362227Y0145013D01*
X0362227Y0139763D01*
X0371227Y0139763D02*
X0371227Y0152663D01*
X0365630Y0148998D02*
X0364227Y0148998D01*
X0364227Y0148400D02*
X0366057Y0148400D01*
X0366485Y0147801D02*
X0364227Y0147801D01*
X0364227Y0147463D02*
X0366727Y0147463D01*
X0364227Y0150963D01*
X0364227Y0147463D01*
X0364227Y0149597D02*
X0365202Y0149597D01*
X0364775Y0150196D02*
X0364227Y0150196D01*
X0364227Y0150794D02*
X0364347Y0150794D01*
X0337596Y0121763D02*
X0331427Y0121763D01*
X0331425Y0121694D01*
X0331419Y0121626D01*
X0331409Y0121558D01*
X0331396Y0121491D01*
X0331378Y0121425D01*
X0331357Y0121360D01*
X0331332Y0121296D01*
X0331304Y0121234D01*
X0331272Y0121173D01*
X0331237Y0121114D01*
X0331198Y0121058D01*
X0331156Y0121003D01*
X0331111Y0120952D01*
X0331063Y0120902D01*
X0331013Y0120856D01*
X0330960Y0120813D01*
X0330904Y0120772D01*
X0330847Y0120735D01*
X0330787Y0120702D01*
X0330725Y0120671D01*
X0330662Y0120645D01*
X0330598Y0120622D01*
X0330532Y0120602D01*
X0330465Y0120587D01*
X0330398Y0120575D01*
X0330330Y0120567D01*
X0330261Y0120563D01*
X0330193Y0120563D01*
X0330124Y0120567D01*
X0330056Y0120575D01*
X0329989Y0120587D01*
X0329922Y0120602D01*
X0329856Y0120622D01*
X0329792Y0120645D01*
X0329729Y0120671D01*
X0329667Y0120702D01*
X0329607Y0120735D01*
X0329550Y0120772D01*
X0329494Y0120813D01*
X0329441Y0120856D01*
X0329391Y0120902D01*
X0329343Y0120952D01*
X0329298Y0121003D01*
X0329256Y0121058D01*
X0329217Y0121114D01*
X0329182Y0121173D01*
X0329150Y0121234D01*
X0329122Y0121296D01*
X0329097Y0121360D01*
X0329076Y0121425D01*
X0329058Y0121491D01*
X0329045Y0121558D01*
X0329035Y0121626D01*
X0329029Y0121694D01*
X0329027Y0121763D01*
X0322859Y0121763D01*
X0332977Y0119213D02*
X0332977Y0116713D01*
X0336477Y0119213D01*
X0332977Y0119213D01*
X0332977Y0119073D02*
X0336281Y0119073D01*
X0335444Y0118474D02*
X0332977Y0118474D01*
X0332977Y0117876D02*
X0334606Y0117876D01*
X0333768Y0117277D02*
X0332977Y0117277D01*
X0337596Y0102163D02*
X0322859Y0102163D01*
X0238627Y0110513D02*
X0234327Y0110513D01*
X0234327Y0114013D02*
X0238627Y0114013D01*
X0238627Y0128413D02*
X0234327Y0128413D01*
X0234327Y0131913D02*
X0238627Y0131913D01*
X0286274Y0170526D02*
X0286274Y0178400D01*
X0287727Y0175963D02*
X0289227Y0173713D01*
X0290727Y0175963D01*
X0287727Y0175963D01*
X0287748Y0175931D02*
X0290706Y0175931D01*
X0290307Y0175333D02*
X0288147Y0175333D01*
X0288546Y0174734D02*
X0289908Y0174734D01*
X0289509Y0174136D02*
X0288945Y0174136D01*
X0292180Y0170526D02*
X0292180Y0178400D01*
X0264727Y0183463D02*
X0264727Y0186463D01*
X0262477Y0184963D01*
X0264727Y0183463D01*
X0264727Y0183712D02*
X0264353Y0183712D01*
X0264727Y0184311D02*
X0263455Y0184311D01*
X0262557Y0184909D02*
X0264727Y0184909D01*
X0264727Y0185508D02*
X0263295Y0185508D01*
X0264192Y0186106D02*
X0264727Y0186106D01*
X0296727Y0222713D02*
X0294227Y0225963D01*
X0298977Y0225963D01*
X0296727Y0222713D01*
X0297074Y0223214D02*
X0296341Y0223214D01*
X0295881Y0223812D02*
X0297488Y0223812D01*
X0297903Y0224411D02*
X0295421Y0224411D01*
X0294960Y0225009D02*
X0298317Y0225009D01*
X0298731Y0225608D02*
X0294500Y0225608D01*
X0361774Y0195150D02*
X0361774Y0187276D01*
X0364727Y0190463D02*
X0363227Y0192713D01*
X0366227Y0192713D01*
X0364727Y0190463D01*
X0364439Y0190894D02*
X0365015Y0190894D01*
X0365414Y0191493D02*
X0364040Y0191493D01*
X0363641Y0192091D02*
X0365813Y0192091D01*
X0366212Y0192690D02*
X0363242Y0192690D01*
X0367680Y0195150D02*
X0367680Y0187276D01*
X0368524Y0187276D02*
X0368524Y0195150D01*
X0369977Y0192713D02*
X0371477Y0190463D01*
X0372977Y0192713D01*
X0369977Y0192713D01*
X0369992Y0192690D02*
X0372962Y0192690D01*
X0372563Y0192091D02*
X0370391Y0192091D01*
X0370790Y0191493D02*
X0372164Y0191493D01*
X0371765Y0190894D02*
X0371189Y0190894D01*
X0374430Y0187276D02*
X0374430Y0195150D01*
X0227727Y0279763D02*
X0188727Y0279763D01*
X0188727Y0292663D01*
X0227727Y0292663D01*
X0227727Y0287413D01*
X0227658Y0287411D01*
X0227590Y0287405D01*
X0227522Y0287395D01*
X0227455Y0287382D01*
X0227389Y0287364D01*
X0227324Y0287343D01*
X0227260Y0287318D01*
X0227198Y0287290D01*
X0227137Y0287258D01*
X0227078Y0287223D01*
X0227022Y0287184D01*
X0226967Y0287142D01*
X0226916Y0287097D01*
X0226866Y0287049D01*
X0226820Y0286999D01*
X0226777Y0286946D01*
X0226736Y0286890D01*
X0226699Y0286833D01*
X0226666Y0286773D01*
X0226635Y0286711D01*
X0226609Y0286648D01*
X0226586Y0286584D01*
X0226566Y0286518D01*
X0226551Y0286451D01*
X0226539Y0286384D01*
X0226531Y0286316D01*
X0226527Y0286247D01*
X0226527Y0286179D01*
X0226531Y0286110D01*
X0226539Y0286042D01*
X0226551Y0285975D01*
X0226566Y0285908D01*
X0226586Y0285842D01*
X0226609Y0285778D01*
X0226635Y0285715D01*
X0226666Y0285653D01*
X0226699Y0285593D01*
X0226736Y0285536D01*
X0226777Y0285480D01*
X0226820Y0285427D01*
X0226866Y0285377D01*
X0226916Y0285329D01*
X0226967Y0285284D01*
X0227022Y0285242D01*
X0227078Y0285203D01*
X0227137Y0285168D01*
X0227198Y0285136D01*
X0227260Y0285108D01*
X0227324Y0285083D01*
X0227389Y0285062D01*
X0227455Y0285044D01*
X0227522Y0285031D01*
X0227590Y0285021D01*
X0227658Y0285015D01*
X0227727Y0285013D01*
X0227727Y0279763D01*
X0225727Y0280963D02*
X0223227Y0284463D01*
X0225727Y0284463D01*
X0225727Y0280963D01*
X0225727Y0281269D02*
X0225508Y0281269D01*
X0225727Y0281868D02*
X0225080Y0281868D01*
X0224653Y0282467D02*
X0225727Y0282467D01*
X0225727Y0283065D02*
X0224225Y0283065D01*
X0223798Y0283664D02*
X0225727Y0283664D01*
X0225727Y0284262D02*
X0223370Y0284262D01*
X0186227Y0277963D02*
X0184727Y0280213D01*
X0183227Y0277963D01*
X0186227Y0277963D01*
X0186017Y0278277D02*
X0183437Y0278277D01*
X0183836Y0278875D02*
X0185618Y0278875D01*
X0185219Y0279474D02*
X0184235Y0279474D01*
X0184634Y0280072D02*
X0184820Y0280072D01*
X0152477Y0323963D02*
X0150977Y0326213D01*
X0153977Y0326213D01*
X0152477Y0323963D01*
X0152211Y0324362D02*
X0152743Y0324362D01*
X0153143Y0324961D02*
X0151812Y0324961D01*
X0151413Y0325559D02*
X0153542Y0325559D01*
X0153941Y0326158D02*
X0151014Y0326158D01*
X0266727Y0323463D02*
X0268977Y0324963D01*
X0268977Y0321963D01*
X0266727Y0323463D01*
X0267173Y0323165D02*
X0268977Y0323165D01*
X0268977Y0322567D02*
X0268071Y0322567D01*
X0268969Y0321968D02*
X0268977Y0321968D01*
X0268977Y0323764D02*
X0267179Y0323764D01*
X0268077Y0324362D02*
X0268977Y0324362D01*
X0268974Y0324961D02*
X0268977Y0324961D01*
X0170977Y0186463D02*
X0168727Y0184963D01*
X0170977Y0183463D01*
X0170977Y0186463D01*
X0170977Y0186106D02*
X0170442Y0186106D01*
X0170977Y0185508D02*
X0169545Y0185508D01*
X0168807Y0184909D02*
X0170977Y0184909D01*
X0170977Y0184311D02*
X0169705Y0184311D01*
X0170603Y0183712D02*
X0170977Y0183712D01*
X0234327Y0073163D02*
X0238627Y0073163D01*
X0238627Y0069663D02*
X0234327Y0069663D01*
X0234327Y0055263D02*
X0238627Y0055263D01*
X0238627Y0051763D02*
X0234327Y0051763D01*
X0623589Y0223141D02*
X0624423Y0223141D01*
X0626091Y0223141D02*
X0629427Y0223141D01*
X0629427Y0223975D02*
X0629427Y0222307D01*
X0629427Y0220537D02*
X0626091Y0220537D01*
X0626091Y0218035D01*
X0626925Y0217201D01*
X0629427Y0217201D01*
X0626091Y0223141D02*
X0626091Y0223975D01*
X0625257Y0230952D02*
X0624423Y0231786D01*
X0624423Y0233454D01*
X0625257Y0234288D01*
X0628593Y0234288D01*
X0629427Y0233454D01*
X0629427Y0231786D01*
X0628593Y0230952D01*
X0629427Y0236108D02*
X0626091Y0236108D01*
X0624423Y0237776D01*
X0626091Y0239444D01*
X0629427Y0239444D01*
X0626925Y0239444D02*
X0626925Y0236108D01*
D14*
X0465451Y0340081D02*
X0435451Y0340081D01*
X0450451Y0365081D01*
X0465451Y0340081D01*
X0451935Y0344013D02*
X0449519Y0344013D01*
X0448451Y0345081D02*
X0451451Y0342081D01*
X0452451Y0346081D01*
X0448451Y0345081D01*
X0450576Y0345612D02*
X0452334Y0345612D01*
X0451451Y0342581D02*
X0448951Y0350081D01*
X0453951Y0350081D01*
X0451451Y0357581D01*
X0451451Y0358081D02*
X0453451Y0350081D01*
X0449451Y0358081D01*
X0451451Y0358081D01*
X0451771Y0356801D02*
X0450091Y0356801D01*
X0450890Y0355203D02*
X0452171Y0355203D01*
X0452571Y0353604D02*
X0451690Y0353604D01*
X0452489Y0352006D02*
X0452970Y0352006D01*
X0453288Y0350407D02*
X0453370Y0350407D01*
X0451535Y0342415D02*
X0451117Y0342415D01*
D15*
X0435077Y0346563D02*
X0435077Y0352468D01*
X0435077Y0349515D02*
X0431141Y0349515D01*
X0431141Y0346563D02*
X0431141Y0352468D01*
X0429000Y0352468D02*
X0427032Y0352468D01*
X0428016Y0352468D02*
X0428016Y0346563D01*
X0429000Y0346563D02*
X0427032Y0346563D01*
X0424949Y0347547D02*
X0424949Y0351483D01*
X0423965Y0352468D01*
X0421996Y0352468D01*
X0421012Y0351483D01*
X0421012Y0349515D02*
X0422980Y0349515D01*
X0421012Y0349515D02*
X0421012Y0347547D01*
X0421996Y0346563D01*
X0423965Y0346563D01*
X0424949Y0347547D01*
X0418871Y0346563D02*
X0418871Y0352468D01*
X0418871Y0349515D02*
X0414935Y0349515D01*
X0414935Y0346563D02*
X0414935Y0352468D01*
X0413807Y0356463D02*
X0413807Y0360399D01*
X0411839Y0362368D01*
X0409870Y0360399D01*
X0409870Y0356463D01*
X0407730Y0357447D02*
X0406746Y0356463D01*
X0404777Y0356463D01*
X0403793Y0357447D01*
X0403793Y0362368D01*
X0401653Y0362368D02*
X0397716Y0362368D01*
X0399684Y0362368D02*
X0399684Y0356463D01*
X0399656Y0352468D02*
X0400640Y0351483D01*
X0400640Y0347547D01*
X0399656Y0346563D01*
X0397687Y0346563D01*
X0396703Y0347547D01*
X0396703Y0351483D01*
X0397687Y0352468D01*
X0399656Y0352468D01*
X0402780Y0352468D02*
X0402780Y0348531D01*
X0404749Y0346563D01*
X0406717Y0348531D01*
X0406717Y0352468D01*
X0407730Y0357447D02*
X0407730Y0362368D01*
X0409870Y0359415D02*
X0413807Y0359415D01*
X0415948Y0357447D02*
X0416932Y0356463D01*
X0418900Y0356463D01*
X0419884Y0357447D01*
X0419884Y0361383D01*
X0418900Y0362368D01*
X0416932Y0362368D01*
X0415948Y0361383D01*
X0395576Y0362368D02*
X0393607Y0362368D01*
X0394591Y0362368D02*
X0394591Y0356463D01*
X0393607Y0356463D02*
X0395576Y0356463D01*
X0394563Y0352468D02*
X0394563Y0346563D01*
X0390626Y0346563D01*
X0386517Y0346563D02*
X0386517Y0352468D01*
X0384549Y0352468D02*
X0388486Y0352468D01*
X0388572Y0356463D02*
X0387587Y0357447D01*
X0387587Y0361383D01*
X0388572Y0362368D01*
X0390540Y0362368D01*
X0391524Y0361383D01*
X0391524Y0357447D01*
X0390540Y0356463D01*
X0388572Y0356463D01*
X0385447Y0356463D02*
X0385447Y0362368D01*
X0381510Y0356463D01*
X0381510Y0362368D01*
X0380440Y0352468D02*
X0378472Y0350499D01*
X0378472Y0346563D01*
X0376331Y0347547D02*
X0375347Y0346563D01*
X0373379Y0346563D01*
X0372394Y0347547D01*
X0372394Y0349515D01*
X0374363Y0349515D01*
X0376331Y0351483D02*
X0376331Y0347547D01*
X0378472Y0349515D02*
X0382408Y0349515D01*
X0382408Y0350499D02*
X0382408Y0346563D01*
X0382408Y0350499D02*
X0380440Y0352468D01*
X0376331Y0351483D02*
X0375347Y0352468D01*
X0373379Y0352468D01*
X0372394Y0351483D01*
X0370254Y0352468D02*
X0370254Y0346563D01*
X0366317Y0346563D01*
X0368286Y0349515D02*
X0370254Y0349515D01*
X0370254Y0352468D02*
X0366317Y0352468D01*
D16*
X0410727Y0262850D03*
X0412977Y0218575D03*
X0371477Y0189850D03*
X0364727Y0189850D03*
X0296727Y0222100D03*
X0289227Y0173100D03*
X0184727Y0280825D03*
X0152477Y0323350D03*
X0481977Y0148075D03*
D17*
X0397417Y0136396D02*
X0396933Y0135913D01*
X0396449Y0135913D01*
X0395965Y0136396D01*
X0395965Y0138815D01*
X0395482Y0138815D02*
X0396449Y0138815D01*
X0394470Y0138815D02*
X0393019Y0138815D01*
X0392535Y0138331D01*
X0392535Y0137364D01*
X0393019Y0136880D01*
X0394470Y0136880D01*
X0394470Y0135913D02*
X0394470Y0138815D01*
X0391524Y0138815D02*
X0389589Y0138815D01*
X0389589Y0138331D01*
X0391524Y0136396D01*
X0391524Y0135913D01*
X0391540Y0119565D02*
X0390572Y0119565D01*
X0390089Y0119081D01*
X0390089Y0118598D01*
X0390572Y0118114D01*
X0391540Y0118114D01*
X0392024Y0118598D01*
X0392024Y0119081D01*
X0391540Y0119565D01*
X0391540Y0118114D02*
X0392024Y0117630D01*
X0392024Y0117146D01*
X0391540Y0116663D01*
X0390572Y0116663D01*
X0390089Y0117146D01*
X0390089Y0117630D01*
X0390572Y0118114D01*
X0393035Y0118114D02*
X0393519Y0117630D01*
X0394970Y0117630D01*
X0394970Y0116663D02*
X0394970Y0119565D01*
X0393519Y0119565D01*
X0393035Y0119081D01*
X0393035Y0118114D01*
X0395982Y0119565D02*
X0396949Y0119565D01*
X0396465Y0119565D02*
X0396465Y0117146D01*
X0396949Y0116663D01*
X0397433Y0116663D01*
X0397917Y0117146D01*
X0367167Y0115896D02*
X0366683Y0115413D01*
X0366199Y0115413D01*
X0365715Y0115896D01*
X0365715Y0118315D01*
X0365232Y0118315D02*
X0366199Y0118315D01*
X0364220Y0118315D02*
X0362769Y0118315D01*
X0362285Y0117831D01*
X0362285Y0116864D01*
X0362769Y0116380D01*
X0364220Y0116380D01*
X0364220Y0115413D02*
X0364220Y0118315D01*
X0361274Y0117831D02*
X0361274Y0117348D01*
X0360790Y0116864D01*
X0359339Y0116864D01*
X0359339Y0117831D02*
X0359822Y0118315D01*
X0360790Y0118315D01*
X0361274Y0117831D01*
X0361274Y0115896D02*
X0360790Y0115413D01*
X0359822Y0115413D01*
X0359339Y0115896D01*
X0359339Y0117831D01*
X0358879Y0162913D02*
X0358396Y0162913D01*
X0357912Y0163396D01*
X0357912Y0165815D01*
X0358396Y0165815D02*
X0357428Y0165815D01*
X0356417Y0165815D02*
X0354965Y0165815D01*
X0354482Y0165331D01*
X0354482Y0164364D01*
X0354965Y0163880D01*
X0356417Y0163880D01*
X0356417Y0162913D02*
X0356417Y0165815D01*
X0353470Y0164848D02*
X0352503Y0165815D01*
X0352503Y0162913D01*
X0353470Y0162913D02*
X0351535Y0162913D01*
X0350524Y0163396D02*
X0348589Y0165331D01*
X0348589Y0163396D01*
X0349072Y0162913D01*
X0350040Y0162913D01*
X0350524Y0163396D01*
X0350524Y0165331D01*
X0350040Y0165815D01*
X0349072Y0165815D01*
X0348589Y0165331D01*
X0346408Y0172300D02*
X0344957Y0172300D01*
X0344473Y0172783D01*
X0344473Y0174718D01*
X0344957Y0175202D01*
X0346408Y0175202D01*
X0346408Y0172300D01*
X0343461Y0172300D02*
X0341526Y0172300D01*
X0342494Y0172300D02*
X0342494Y0175202D01*
X0343461Y0174235D01*
X0340515Y0174235D02*
X0340515Y0174718D01*
X0340031Y0175202D01*
X0339063Y0175202D01*
X0338580Y0174718D01*
X0338580Y0174235D01*
X0339063Y0173751D01*
X0340031Y0173751D01*
X0340515Y0174235D01*
X0340031Y0173751D02*
X0340515Y0173267D01*
X0340515Y0172783D01*
X0340031Y0172300D01*
X0339063Y0172300D01*
X0338580Y0172783D01*
X0338580Y0173267D01*
X0339063Y0173751D01*
X0358377Y0184346D02*
X0358377Y0185314D01*
X0358861Y0185798D01*
X0359828Y0186809D02*
X0359828Y0188744D01*
X0359828Y0189756D02*
X0360312Y0190723D01*
X0360312Y0191207D01*
X0359828Y0191691D01*
X0358861Y0191691D01*
X0358377Y0191207D01*
X0358377Y0190239D01*
X0358861Y0189756D01*
X0359828Y0189756D02*
X0361280Y0189756D01*
X0361280Y0191691D01*
X0361280Y0188260D02*
X0359828Y0186809D01*
X0360796Y0185798D02*
X0361280Y0185314D01*
X0361280Y0184346D01*
X0360796Y0183863D01*
X0358861Y0183863D01*
X0358377Y0184346D01*
X0358377Y0188260D02*
X0361280Y0188260D01*
X0363661Y0182601D02*
X0363177Y0182117D01*
X0363177Y0181150D01*
X0363661Y0180666D01*
X0363177Y0179655D02*
X0363177Y0177720D01*
X0365112Y0179655D01*
X0365596Y0179655D01*
X0366080Y0179171D01*
X0366080Y0178203D01*
X0365596Y0177720D01*
X0365596Y0176708D02*
X0366080Y0176224D01*
X0366080Y0174773D01*
X0363177Y0174773D01*
X0363177Y0176224D01*
X0363661Y0176708D01*
X0365596Y0176708D01*
X0365596Y0180666D02*
X0366080Y0181150D01*
X0366080Y0182117D01*
X0365596Y0182601D01*
X0365112Y0182601D01*
X0364628Y0182117D01*
X0364145Y0182601D01*
X0363661Y0182601D01*
X0364628Y0182117D02*
X0364628Y0181634D01*
X0369677Y0182117D02*
X0369677Y0181150D01*
X0370161Y0180666D01*
X0371128Y0180666D02*
X0371612Y0181634D01*
X0371612Y0182117D01*
X0371128Y0182601D01*
X0370161Y0182601D01*
X0369677Y0182117D01*
X0371128Y0180666D02*
X0372580Y0180666D01*
X0372580Y0182601D01*
X0372096Y0179655D02*
X0372580Y0179171D01*
X0372580Y0178203D01*
X0372096Y0177720D01*
X0372096Y0176708D02*
X0372580Y0176224D01*
X0372580Y0174773D01*
X0369677Y0174773D01*
X0369677Y0176224D01*
X0370161Y0176708D01*
X0372096Y0176708D01*
X0369677Y0177720D02*
X0371612Y0179655D01*
X0372096Y0179655D01*
X0369677Y0179655D02*
X0369677Y0177720D01*
X0359363Y0163396D02*
X0358879Y0162913D01*
X0312780Y0165113D02*
X0312780Y0166564D01*
X0312296Y0167048D01*
X0311328Y0167048D01*
X0310845Y0166564D01*
X0310845Y0165113D01*
X0310845Y0166080D02*
X0309877Y0167048D01*
X0310361Y0168059D02*
X0309877Y0168543D01*
X0309877Y0169510D01*
X0310361Y0169994D01*
X0311328Y0169994D01*
X0311812Y0169510D01*
X0311812Y0169027D01*
X0311328Y0168059D01*
X0312780Y0168059D01*
X0312780Y0169994D01*
X0312780Y0171006D02*
X0311328Y0171006D01*
X0311812Y0171973D01*
X0311812Y0172457D01*
X0311328Y0172941D01*
X0310361Y0172941D01*
X0309877Y0172457D01*
X0309877Y0171489D01*
X0310361Y0171006D01*
X0312780Y0171006D02*
X0312780Y0172941D01*
X0312780Y0165113D02*
X0309877Y0165113D01*
X0341377Y0190096D02*
X0341377Y0191064D01*
X0341861Y0191548D01*
X0342828Y0192559D02*
X0342828Y0194494D01*
X0342345Y0195506D02*
X0342828Y0195989D01*
X0342828Y0196957D01*
X0342345Y0197441D01*
X0341861Y0197441D01*
X0341377Y0196957D01*
X0341377Y0195989D01*
X0341861Y0195506D01*
X0342345Y0195506D01*
X0342828Y0195989D02*
X0343312Y0195506D01*
X0343796Y0195506D01*
X0344280Y0195989D01*
X0344280Y0196957D01*
X0343796Y0197441D01*
X0343312Y0197441D01*
X0342828Y0196957D01*
X0341377Y0194010D02*
X0344280Y0194010D01*
X0342828Y0192559D01*
X0343796Y0191548D02*
X0344280Y0191064D01*
X0344280Y0190096D01*
X0343796Y0189613D01*
X0341861Y0189613D01*
X0341377Y0190096D01*
X0384749Y0239613D02*
X0386684Y0239613D01*
X0385717Y0239613D02*
X0385717Y0242515D01*
X0386684Y0241548D01*
X0387696Y0242031D02*
X0387696Y0241064D01*
X0388179Y0240580D01*
X0389631Y0240580D01*
X0389631Y0239613D02*
X0389631Y0242515D01*
X0388179Y0242515D01*
X0387696Y0242031D01*
X0390642Y0242515D02*
X0391610Y0242515D01*
X0391126Y0242515D02*
X0391126Y0240096D01*
X0391610Y0239613D01*
X0392093Y0239613D01*
X0392577Y0240096D01*
X0461589Y0246396D02*
X0461589Y0248331D01*
X0462072Y0248815D01*
X0463040Y0248815D01*
X0463524Y0248331D01*
X0463524Y0247848D01*
X0463040Y0247364D01*
X0461589Y0247364D01*
X0461589Y0246396D02*
X0462072Y0245913D01*
X0463040Y0245913D01*
X0463524Y0246396D01*
X0464535Y0245913D02*
X0466470Y0245913D01*
X0465503Y0245913D02*
X0465503Y0248815D01*
X0466470Y0247848D01*
X0467482Y0248331D02*
X0467482Y0247364D01*
X0467965Y0246880D01*
X0469417Y0246880D01*
X0469417Y0245913D02*
X0469417Y0248815D01*
X0467965Y0248815D01*
X0467482Y0248331D01*
X0468449Y0246880D02*
X0467482Y0245913D01*
X0470249Y0224765D02*
X0471217Y0224281D01*
X0472184Y0223314D01*
X0470733Y0223314D01*
X0470249Y0222830D01*
X0470249Y0222346D01*
X0470733Y0221863D01*
X0471700Y0221863D01*
X0472184Y0222346D01*
X0472184Y0223314D01*
X0473196Y0223798D02*
X0473196Y0224281D01*
X0473679Y0224765D01*
X0474647Y0224765D01*
X0475131Y0224281D01*
X0476142Y0224281D02*
X0476626Y0224765D01*
X0477593Y0224765D01*
X0478077Y0224281D01*
X0478077Y0222346D01*
X0477593Y0221863D01*
X0476626Y0221863D01*
X0476142Y0222346D01*
X0475131Y0221863D02*
X0473196Y0223798D01*
X0473196Y0221863D02*
X0475131Y0221863D01*
X0469343Y0293363D02*
X0468860Y0293363D01*
X0468376Y0293846D01*
X0468376Y0296265D01*
X0468860Y0296265D02*
X0467892Y0296265D01*
X0466881Y0296265D02*
X0465429Y0296265D01*
X0464946Y0295781D01*
X0464946Y0294814D01*
X0465429Y0294330D01*
X0466881Y0294330D01*
X0466881Y0293363D02*
X0466881Y0296265D01*
X0463934Y0295781D02*
X0463450Y0296265D01*
X0462483Y0296265D01*
X0461999Y0295781D01*
X0461999Y0295298D01*
X0462483Y0294814D01*
X0461999Y0294330D01*
X0461999Y0293846D01*
X0462483Y0293363D01*
X0463450Y0293363D01*
X0463934Y0293846D01*
X0462967Y0294814D02*
X0462483Y0294814D01*
X0469343Y0293363D02*
X0469827Y0293846D01*
X0592089Y0357413D02*
X0594024Y0357413D01*
X0592089Y0359348D01*
X0592089Y0359831D01*
X0592572Y0360315D01*
X0593540Y0360315D01*
X0594024Y0359831D01*
X0595035Y0359831D02*
X0595035Y0358864D01*
X0595519Y0358380D01*
X0596970Y0358380D01*
X0596970Y0357413D02*
X0596970Y0360315D01*
X0595519Y0360315D01*
X0595035Y0359831D01*
X0597982Y0360315D02*
X0598949Y0360315D01*
X0598465Y0360315D02*
X0598465Y0357896D01*
X0598949Y0357413D01*
X0599433Y0357413D01*
X0599917Y0357896D01*
X0210830Y0263601D02*
X0210830Y0261666D01*
X0210346Y0260655D02*
X0209862Y0260655D01*
X0209378Y0260171D01*
X0208895Y0260655D01*
X0208411Y0260655D01*
X0207927Y0260171D01*
X0207927Y0259203D01*
X0208411Y0258720D01*
X0208411Y0257708D02*
X0207927Y0257224D01*
X0207927Y0256257D01*
X0208411Y0255773D01*
X0210346Y0255773D01*
X0210830Y0256257D01*
X0210830Y0257224D01*
X0210346Y0257708D01*
X0210346Y0258720D02*
X0210830Y0259203D01*
X0210830Y0260171D01*
X0210346Y0260655D01*
X0209378Y0260171D02*
X0209378Y0259687D01*
X0208411Y0261666D02*
X0210346Y0263601D01*
X0210830Y0263601D01*
X0208411Y0261666D02*
X0207927Y0261666D01*
X0311589Y0046565D02*
X0312556Y0046081D01*
X0313524Y0045114D01*
X0312072Y0045114D01*
X0311589Y0044630D01*
X0311589Y0044146D01*
X0312072Y0043663D01*
X0313040Y0043663D01*
X0313524Y0044146D01*
X0313524Y0045114D01*
X0314535Y0045114D02*
X0315019Y0044630D01*
X0316470Y0044630D01*
X0316470Y0043663D02*
X0316470Y0046565D01*
X0315019Y0046565D01*
X0314535Y0046081D01*
X0314535Y0045114D01*
X0317482Y0046565D02*
X0318449Y0046565D01*
X0317965Y0046565D02*
X0317965Y0044146D01*
X0318449Y0043663D01*
X0318933Y0043663D01*
X0319417Y0044146D01*
D18*
X0331589Y0175213D03*
X0261865Y0184963D03*
X0168115Y0184963D03*
X0266115Y0323463D03*
D19*
X0264227Y0300114D02*
X0240627Y0300113D01*
X0264227Y0300114D02*
X0264227Y0274311D01*
X0240627Y0274313D01*
X0246577Y0232863D02*
X0222977Y0232864D01*
X0222977Y0207061D01*
X0246577Y0207063D01*
X0155879Y0216963D02*
X0155877Y0240563D01*
X0130077Y0240563D02*
X0130075Y0216963D01*
X0155879Y0216963D01*
D20*
X0221077Y0219963D03*
X0266127Y0287213D03*
D21*
X0267627Y0296213D03*
X0267627Y0278213D03*
X0219577Y0228963D03*
X0219577Y0210963D03*
D22*
X0142977Y0215063D03*
D23*
X0133977Y0213563D03*
X0151977Y0213563D03*
D24*
X0130432Y0260156D02*
X0105022Y0260156D01*
X0105022Y0275770D01*
X0130432Y0275770D01*
X0130432Y0260156D01*
X0288170Y0289258D02*
X0303784Y0289258D01*
X0303784Y0314667D01*
X0288170Y0314667D01*
X0288170Y0289258D01*
D25*
X0096727Y0317134D03*
D26*
X0394572Y0219892D03*
X0406383Y0219892D03*
D27*
X0400477Y0216963D03*
M02*
