G75*
G70*
%OFA0B0*%
%FSLAX24Y24*%
%IPPOS*%
%LPD*%
%AMOC8*
5,1,8,0,0,1.08239X$1,22.5*
%
%ADD10C,0.0040*%
%ADD11C,0.0050*%
%ADD12C,0.0100*%
%ADD13C,0.0060*%
%ADD14C,0.0160*%
%ADD15C,0.0070*%
%ADD16C,0.0030*%
%ADD17C,0.0080*%
%ADD18R,0.0327X0.0299*%
%ADD19R,0.0358X0.0299*%
%ADD20R,0.0079X0.0551*%
%ADD21R,0.0299X0.0327*%
%ADD22R,0.0299X0.0358*%
%ADD23R,0.0551X0.0079*%
%ADD24C,0.0020*%
%ADD25R,0.0620X0.0118*%
%ADD26R,0.0118X0.0827*%
D10*
X006461Y004670D02*
X006461Y004730D01*
X006221Y004970D01*
X006221Y005030D01*
X006461Y005030D01*
X006589Y005030D02*
X006829Y005030D01*
X006829Y004850D01*
X006709Y004910D01*
X006649Y004910D01*
X006589Y004850D01*
X006589Y004730D01*
X006649Y004670D01*
X006769Y004670D01*
X006829Y004730D01*
X006957Y004730D02*
X007017Y004670D01*
X007137Y004670D01*
X007197Y004730D01*
X007197Y004970D01*
X007137Y005030D01*
X007017Y005030D01*
X006957Y004970D01*
X010246Y004830D02*
X010486Y004830D01*
X010486Y004650D01*
X010366Y004710D01*
X010306Y004710D01*
X010246Y004650D01*
X010246Y004530D01*
X010306Y004470D01*
X010426Y004470D01*
X010486Y004530D01*
X010614Y004530D02*
X010614Y004590D01*
X010674Y004650D01*
X010854Y004650D01*
X010854Y004530D01*
X010794Y004470D01*
X010674Y004470D01*
X010614Y004530D01*
X010734Y004770D02*
X010854Y004650D01*
X010982Y004650D02*
X011042Y004590D01*
X011222Y004590D01*
X011102Y004590D02*
X010982Y004470D01*
X010982Y004650D02*
X010982Y004770D01*
X011042Y004830D01*
X011222Y004830D01*
X011222Y004470D01*
X010734Y004770D02*
X010614Y004830D01*
X011566Y005580D02*
X011566Y005640D01*
X011626Y005700D01*
X011806Y005700D01*
X011806Y005580D01*
X011746Y005520D01*
X011626Y005520D01*
X011566Y005580D01*
X011686Y005820D02*
X011806Y005700D01*
X011934Y005640D02*
X011994Y005700D01*
X012174Y005700D01*
X012174Y005580D01*
X012114Y005520D01*
X011994Y005520D01*
X011934Y005580D01*
X011934Y005640D01*
X012054Y005820D02*
X012174Y005700D01*
X012302Y005700D02*
X012362Y005640D01*
X012542Y005640D01*
X012422Y005640D02*
X012302Y005520D01*
X012302Y005700D02*
X012302Y005820D01*
X012362Y005880D01*
X012542Y005880D01*
X012542Y005520D01*
X012054Y005820D02*
X011934Y005880D01*
X011686Y005820D02*
X011566Y005880D01*
X013046Y004780D02*
X013286Y004780D01*
X013286Y004600D01*
X013166Y004660D01*
X013106Y004660D01*
X013046Y004600D01*
X013046Y004480D01*
X013106Y004420D01*
X013226Y004420D01*
X013286Y004480D01*
X013414Y004480D02*
X013414Y004540D01*
X013474Y004600D01*
X013654Y004600D01*
X013654Y004480D01*
X013594Y004420D01*
X013474Y004420D01*
X013414Y004480D01*
X013534Y004720D02*
X013654Y004600D01*
X013534Y004720D02*
X013414Y004780D01*
X013782Y004720D02*
X013842Y004780D01*
X013962Y004780D01*
X014022Y004720D01*
X014022Y004480D01*
X013962Y004420D01*
X013842Y004420D01*
X013782Y004480D01*
X012093Y004112D02*
X011913Y003932D01*
X011913Y004172D01*
X012093Y004112D02*
X011732Y004112D01*
X011793Y003804D02*
X011853Y003804D01*
X011913Y003743D01*
X011913Y003563D01*
X011793Y003563D01*
X011732Y003623D01*
X011732Y003743D01*
X011793Y003804D01*
X012033Y003683D02*
X011913Y003563D01*
X012033Y003683D02*
X012093Y003804D01*
X012033Y003435D02*
X012093Y003375D01*
X012093Y003255D01*
X012033Y003195D01*
X011793Y003195D01*
X011732Y003255D01*
X011732Y003375D01*
X011793Y003435D01*
X015371Y003480D02*
X015431Y003420D01*
X015551Y003420D01*
X015611Y003480D01*
X015739Y003480D02*
X015739Y003540D01*
X015799Y003600D01*
X015979Y003600D01*
X015979Y003480D01*
X015919Y003420D01*
X015799Y003420D01*
X015739Y003480D01*
X015859Y003720D02*
X015979Y003600D01*
X015859Y003720D02*
X015739Y003780D01*
X015611Y003720D02*
X015551Y003780D01*
X015431Y003780D01*
X015371Y003720D01*
X015371Y003660D01*
X015431Y003600D01*
X015371Y003540D01*
X015371Y003480D01*
X015431Y003600D02*
X015491Y003600D01*
X016107Y003480D02*
X016167Y003420D01*
X016287Y003420D01*
X016347Y003480D01*
X016347Y003720D01*
X016287Y003780D01*
X016167Y003780D01*
X016107Y003720D01*
X016176Y004512D02*
X016176Y004692D01*
X016236Y004752D01*
X016476Y004752D01*
X016536Y004692D01*
X016536Y004512D01*
X016176Y004512D01*
X016176Y004880D02*
X016416Y005120D01*
X016476Y005120D01*
X016536Y005060D01*
X016536Y004940D01*
X016476Y004880D01*
X016176Y004880D02*
X016176Y005120D01*
X016356Y005249D02*
X016356Y005489D01*
X016176Y005429D02*
X016536Y005429D01*
X016356Y005249D01*
X017416Y005820D02*
X017656Y005820D01*
X017416Y006060D01*
X017416Y006120D01*
X017476Y006180D01*
X017596Y006180D01*
X017656Y006120D01*
X017784Y006180D02*
X017904Y006120D01*
X018024Y006000D01*
X017844Y006000D01*
X017784Y005940D01*
X017784Y005880D01*
X017844Y005820D01*
X017964Y005820D01*
X018024Y005880D01*
X018024Y006000D01*
X018152Y006000D02*
X018212Y005940D01*
X018392Y005940D01*
X018272Y005940D02*
X018152Y005820D01*
X018152Y006000D02*
X018152Y006120D01*
X018212Y006180D01*
X018392Y006180D01*
X018392Y005820D01*
X018966Y005880D02*
X018966Y005940D01*
X019026Y006000D01*
X019086Y006000D01*
X019026Y006000D02*
X018966Y006060D01*
X018966Y006120D01*
X019026Y006180D01*
X019146Y006180D01*
X019206Y006120D01*
X019334Y006180D02*
X019454Y006120D01*
X019574Y006000D01*
X019394Y006000D01*
X019334Y005940D01*
X019334Y005880D01*
X019394Y005820D01*
X019514Y005820D01*
X019574Y005880D01*
X019574Y006000D01*
X019702Y006000D02*
X019762Y005940D01*
X019942Y005940D01*
X019822Y005940D02*
X019702Y005820D01*
X019702Y006000D02*
X019702Y006120D01*
X019762Y006180D01*
X019942Y006180D01*
X019942Y005820D01*
X019206Y005880D02*
X019146Y005820D01*
X019026Y005820D01*
X018966Y005880D01*
X018937Y006520D02*
X018817Y006520D01*
X018757Y006580D01*
X018629Y006580D02*
X018569Y006520D01*
X018449Y006520D01*
X018389Y006580D01*
X018389Y006640D01*
X018449Y006700D01*
X018629Y006700D01*
X018629Y006580D01*
X018629Y006700D02*
X018509Y006820D01*
X018389Y006880D01*
X018261Y006880D02*
X018021Y006880D01*
X018021Y006820D01*
X018261Y006580D01*
X018261Y006520D01*
X018757Y006820D02*
X018817Y006880D01*
X018937Y006880D01*
X018997Y006820D01*
X018997Y006580D01*
X018937Y006520D01*
X015218Y006529D02*
X015158Y006408D01*
X015038Y006288D01*
X015038Y006468D01*
X014978Y006529D01*
X014918Y006529D01*
X014857Y006468D01*
X014857Y006348D01*
X014918Y006288D01*
X015038Y006288D01*
X015038Y006160D02*
X014978Y006100D01*
X014978Y005920D01*
X014978Y006040D02*
X014857Y006160D01*
X015038Y006160D02*
X015158Y006160D01*
X015218Y006100D01*
X015218Y005920D01*
X014857Y005920D01*
X015038Y006657D02*
X015038Y006897D01*
X015218Y006837D02*
X015038Y006657D01*
X015218Y006837D02*
X014857Y006837D01*
X013986Y009987D02*
X013626Y009987D01*
X013626Y010167D01*
X013686Y010227D01*
X013926Y010227D01*
X013986Y010167D01*
X013986Y009987D01*
X013926Y010355D02*
X013986Y010415D01*
X013986Y010535D01*
X013926Y010595D01*
X013866Y010595D01*
X013626Y010355D01*
X013626Y010595D01*
X013686Y010724D02*
X013626Y010784D01*
X013626Y010904D01*
X013686Y010964D01*
X013806Y010964D01*
X013866Y010904D01*
X013866Y010844D01*
X013806Y010724D01*
X013986Y010724D01*
X013986Y010964D01*
X015721Y010920D02*
X015721Y010860D01*
X015781Y010800D01*
X015901Y010800D01*
X015961Y010860D01*
X015961Y010920D01*
X015901Y010980D01*
X015781Y010980D01*
X015721Y010920D01*
X015781Y010800D02*
X015721Y010740D01*
X015721Y010680D01*
X015781Y010620D01*
X015901Y010620D01*
X015961Y010680D01*
X015961Y010740D01*
X015901Y010800D01*
X016089Y010740D02*
X016149Y010800D01*
X016329Y010800D01*
X016329Y010680D01*
X016269Y010620D01*
X016149Y010620D01*
X016089Y010680D01*
X016089Y010740D01*
X016209Y010920D02*
X016329Y010800D01*
X016457Y010800D02*
X016517Y010740D01*
X016697Y010740D01*
X016577Y010740D02*
X016457Y010620D01*
X016457Y010800D02*
X016457Y010920D01*
X016517Y010980D01*
X016697Y010980D01*
X016697Y010620D01*
X016209Y010920D02*
X016089Y010980D01*
X017296Y010895D02*
X017356Y010955D01*
X017476Y010955D01*
X017536Y010895D01*
X017536Y010835D01*
X017476Y010775D01*
X017296Y010775D01*
X017296Y010655D02*
X017296Y010895D01*
X017296Y010655D02*
X017356Y010595D01*
X017476Y010595D01*
X017536Y010655D01*
X017664Y010655D02*
X017664Y010715D01*
X017724Y010775D01*
X017904Y010775D01*
X017904Y010655D01*
X017844Y010595D01*
X017724Y010595D01*
X017664Y010655D01*
X017784Y010895D02*
X017904Y010775D01*
X018032Y010775D02*
X018092Y010715D01*
X018272Y010715D01*
X018152Y010715D02*
X018032Y010595D01*
X018032Y010775D02*
X018032Y010895D01*
X018092Y010955D01*
X018272Y010955D01*
X018272Y010595D01*
X017784Y010895D02*
X017664Y010955D01*
X022407Y013630D02*
X022407Y013750D01*
X022468Y013810D01*
X022468Y013938D02*
X022407Y013938D01*
X022468Y013938D02*
X022708Y014179D01*
X022768Y014179D01*
X022768Y013938D01*
X022708Y013810D02*
X022768Y013750D01*
X022768Y013630D01*
X022708Y013570D01*
X022468Y013570D01*
X022407Y013630D01*
X022588Y014307D02*
X022588Y014547D01*
X022768Y014487D02*
X022588Y014307D01*
X022768Y014487D02*
X022407Y014487D01*
X024521Y013795D02*
X024521Y013735D01*
X024581Y013675D01*
X024701Y013675D01*
X024761Y013735D01*
X024761Y013795D01*
X024701Y013855D01*
X024581Y013855D01*
X024521Y013795D01*
X024581Y013675D02*
X024521Y013615D01*
X024521Y013555D01*
X024581Y013495D01*
X024701Y013495D01*
X024761Y013555D01*
X024761Y013615D01*
X024701Y013675D01*
X024889Y013795D02*
X025129Y013555D01*
X025129Y013495D01*
X025257Y013495D02*
X025377Y013615D01*
X025317Y013615D02*
X025497Y013615D01*
X025497Y013495D02*
X025497Y013855D01*
X025317Y013855D01*
X025257Y013795D01*
X025257Y013675D01*
X025317Y013615D01*
X025129Y013855D02*
X024889Y013855D01*
X024889Y013795D01*
X024778Y013990D02*
X024778Y014170D01*
X024838Y014230D01*
X024958Y014230D01*
X025018Y014170D01*
X025018Y013990D01*
X024657Y013990D01*
X024778Y014110D02*
X024657Y014230D01*
X024718Y014358D02*
X024778Y014358D01*
X024838Y014418D01*
X024838Y014539D01*
X024778Y014599D01*
X024718Y014599D01*
X024657Y014539D01*
X024657Y014418D01*
X024718Y014358D01*
X024838Y014418D02*
X024898Y014358D01*
X024958Y014358D01*
X025018Y014418D01*
X025018Y014539D01*
X024958Y014599D01*
X024898Y014599D01*
X024838Y014539D01*
X024838Y014727D02*
X024838Y014967D01*
X025018Y014907D02*
X024657Y014907D01*
X024838Y014727D02*
X025018Y014907D01*
X026032Y015315D02*
X026393Y015315D01*
X026393Y015495D01*
X026333Y015555D01*
X026213Y015555D01*
X026153Y015495D01*
X026153Y015315D01*
X026153Y015435D02*
X026032Y015555D01*
X026032Y015683D02*
X026093Y015683D01*
X026333Y015924D01*
X026393Y015924D01*
X026393Y015683D01*
X026213Y016052D02*
X026213Y016232D01*
X026153Y016292D01*
X026093Y016292D01*
X026032Y016232D01*
X026032Y016112D01*
X026093Y016052D01*
X026213Y016052D01*
X026333Y016172D01*
X026393Y016292D01*
X024818Y016945D02*
X024818Y017125D01*
X024758Y017185D01*
X024638Y017185D01*
X024578Y017125D01*
X024578Y016945D01*
X024578Y017065D02*
X024457Y017185D01*
X024518Y017313D02*
X024578Y017313D01*
X024638Y017373D01*
X024638Y017493D01*
X024578Y017554D01*
X024518Y017554D01*
X024457Y017493D01*
X024457Y017373D01*
X024518Y017313D01*
X024638Y017373D02*
X024698Y017313D01*
X024758Y017313D01*
X024818Y017373D01*
X024818Y017493D01*
X024758Y017554D01*
X024698Y017554D01*
X024638Y017493D01*
X024698Y017682D02*
X024818Y017802D01*
X024457Y017802D01*
X024457Y017682D02*
X024457Y017922D01*
X024457Y016945D02*
X024818Y016945D01*
X027246Y018280D02*
X027306Y018220D01*
X027426Y018220D01*
X027486Y018280D01*
X027614Y018220D02*
X027794Y018400D01*
X027854Y018340D02*
X027614Y018580D01*
X027486Y018520D02*
X027426Y018580D01*
X027306Y018580D01*
X027246Y018520D01*
X027246Y018460D01*
X027306Y018400D01*
X027246Y018340D01*
X027246Y018280D01*
X027306Y018400D02*
X027366Y018400D01*
X027854Y018580D02*
X027854Y018220D01*
X027982Y018280D02*
X027982Y018520D01*
X028042Y018580D01*
X028162Y018580D01*
X028222Y018520D01*
X028222Y018280D01*
X028162Y018220D01*
X028042Y018220D01*
X027982Y018280D01*
X026122Y018670D02*
X026122Y019030D01*
X025942Y019030D01*
X025882Y018970D01*
X025882Y018850D01*
X025942Y018790D01*
X026122Y018790D01*
X026002Y018790D02*
X025882Y018670D01*
X025754Y018670D02*
X025754Y018730D01*
X025514Y018970D01*
X025514Y019030D01*
X025754Y019030D01*
X025386Y018850D02*
X025146Y018850D01*
X025206Y018670D02*
X025206Y019030D01*
X025386Y018850D01*
X025429Y020745D02*
X025429Y020805D01*
X025189Y021045D01*
X025189Y021105D01*
X025429Y021105D01*
X025557Y021045D02*
X025557Y020925D01*
X025617Y020865D01*
X025797Y020865D01*
X025677Y020865D02*
X025557Y020745D01*
X025797Y020745D02*
X025797Y021105D01*
X025617Y021105D01*
X025557Y021045D01*
X025061Y021045D02*
X025001Y021105D01*
X024881Y021105D01*
X024821Y021045D01*
X024821Y020985D01*
X024881Y020925D01*
X024821Y020865D01*
X024821Y020805D01*
X024881Y020745D01*
X025001Y020745D01*
X025061Y020805D01*
X024941Y020925D02*
X024881Y020925D01*
X024197Y020865D02*
X024017Y020865D01*
X023957Y020925D01*
X023957Y021045D01*
X024017Y021105D01*
X024197Y021105D01*
X024197Y020745D01*
X024077Y020865D02*
X023957Y020745D01*
X023829Y020805D02*
X023769Y020745D01*
X023649Y020745D01*
X023589Y020805D01*
X023589Y020865D01*
X023649Y020925D01*
X023769Y020925D01*
X023829Y020985D01*
X023829Y021045D01*
X023769Y021105D01*
X023649Y021105D01*
X023589Y021045D01*
X023589Y020985D01*
X023649Y020925D01*
X023769Y020925D02*
X023829Y020865D01*
X023829Y020805D01*
X023461Y020805D02*
X023401Y020745D01*
X023281Y020745D01*
X023221Y020805D01*
X023221Y020865D01*
X023281Y020925D01*
X023341Y020925D01*
X023281Y020925D02*
X023221Y020985D01*
X023221Y021045D01*
X023281Y021105D01*
X023401Y021105D01*
X023461Y021045D01*
X022843Y021088D02*
X022843Y021329D01*
X022783Y021329D01*
X022543Y021088D01*
X022482Y021088D01*
X022543Y020960D02*
X022482Y020900D01*
X022482Y020780D01*
X022543Y020720D01*
X022783Y020720D01*
X022843Y020780D01*
X022843Y020900D01*
X022783Y020960D01*
X022783Y021457D02*
X022843Y021517D01*
X022843Y021637D01*
X022783Y021697D01*
X022543Y021457D01*
X022482Y021517D01*
X022482Y021637D01*
X022543Y021697D01*
X022783Y021697D01*
X022783Y021457D02*
X022543Y021457D01*
X020842Y021445D02*
X020842Y021805D01*
X020662Y021805D01*
X020602Y021745D01*
X020602Y021625D01*
X020662Y021565D01*
X020842Y021565D01*
X020722Y021565D02*
X020602Y021445D01*
X020474Y021445D02*
X020474Y021505D01*
X020234Y021745D01*
X020234Y021805D01*
X020474Y021805D01*
X020106Y021805D02*
X020106Y021625D01*
X019986Y021685D01*
X019926Y021685D01*
X019866Y021625D01*
X019866Y021505D01*
X019926Y021445D01*
X020046Y021445D01*
X020106Y021505D01*
X020106Y021805D02*
X019866Y021805D01*
X017992Y020895D02*
X017992Y020655D01*
X017932Y020595D01*
X017812Y020595D01*
X017752Y020655D01*
X017624Y020655D02*
X017564Y020595D01*
X017444Y020595D01*
X017384Y020655D01*
X017384Y020715D01*
X017444Y020775D01*
X017624Y020775D01*
X017624Y020655D01*
X017624Y020775D02*
X017504Y020895D01*
X017384Y020955D01*
X017256Y020775D02*
X017076Y020775D01*
X017016Y020715D01*
X017016Y020655D01*
X017076Y020595D01*
X017196Y020595D01*
X017256Y020655D01*
X017256Y020775D01*
X017136Y020895D01*
X017016Y020955D01*
X017752Y020895D02*
X017812Y020955D01*
X017932Y020955D01*
X017992Y020895D01*
X016018Y019572D02*
X016018Y019332D01*
X015838Y019332D01*
X015898Y019452D01*
X015898Y019512D01*
X015838Y019572D01*
X015718Y019572D01*
X015657Y019512D01*
X015657Y019392D01*
X015718Y019332D01*
X015958Y019204D02*
X015718Y018963D01*
X015657Y018963D01*
X015718Y018835D02*
X015657Y018775D01*
X015657Y018655D01*
X015718Y018595D01*
X015958Y018595D01*
X016018Y018655D01*
X016018Y018775D01*
X015958Y018835D01*
X016018Y018963D02*
X016018Y019204D01*
X015958Y019204D01*
X015147Y018895D02*
X015147Y018655D01*
X015087Y018595D01*
X014967Y018595D01*
X014907Y018655D01*
X014779Y018655D02*
X014779Y018595D01*
X014779Y018655D02*
X014539Y018895D01*
X014539Y018955D01*
X014779Y018955D01*
X014907Y018895D02*
X014967Y018955D01*
X015087Y018955D01*
X015147Y018895D01*
X014411Y018775D02*
X014231Y018775D01*
X014171Y018715D01*
X014171Y018655D01*
X014231Y018595D01*
X014351Y018595D01*
X014411Y018655D01*
X014411Y018775D01*
X014291Y018895D01*
X014171Y018955D01*
X012002Y017980D02*
X011882Y017980D01*
X011942Y017980D02*
X011942Y017620D01*
X012002Y017620D02*
X011882Y017620D01*
X011757Y017680D02*
X011697Y017620D01*
X011577Y017620D01*
X011517Y017680D01*
X011389Y017620D02*
X011148Y017620D01*
X011269Y017620D02*
X011269Y017980D01*
X011389Y017860D01*
X011517Y017920D02*
X011577Y017980D01*
X011697Y017980D01*
X011757Y017920D01*
X011757Y017680D01*
X011020Y017680D02*
X010960Y017620D01*
X010840Y017620D01*
X010780Y017680D01*
X010780Y017920D01*
X011020Y017680D01*
X011020Y017920D01*
X010960Y017980D01*
X010840Y017980D01*
X010780Y017920D01*
X012496Y016255D02*
X012616Y016195D01*
X012736Y016075D01*
X012556Y016075D01*
X012496Y016015D01*
X012496Y015955D01*
X012556Y015895D01*
X012676Y015895D01*
X012736Y015955D01*
X012736Y016075D01*
X012864Y016015D02*
X012864Y015955D01*
X012924Y015895D01*
X013044Y015895D01*
X013104Y015955D01*
X013104Y016015D01*
X013044Y016075D01*
X012924Y016075D01*
X012864Y016015D01*
X012924Y016075D02*
X012864Y016135D01*
X012864Y016195D01*
X012924Y016255D01*
X013044Y016255D01*
X013104Y016195D01*
X013104Y016135D01*
X013044Y016075D01*
X013232Y016075D02*
X013292Y016015D01*
X013472Y016015D01*
X013352Y016015D02*
X013232Y015895D01*
X013232Y016075D02*
X013232Y016195D01*
X013292Y016255D01*
X013472Y016255D01*
X013472Y015895D01*
X014391Y016580D02*
X014451Y016520D01*
X014571Y016520D01*
X014631Y016580D01*
X014631Y016700D02*
X014511Y016760D01*
X014451Y016760D01*
X014391Y016700D01*
X014391Y016580D01*
X014631Y016700D02*
X014631Y016880D01*
X014391Y016880D01*
X014759Y016820D02*
X014759Y016760D01*
X014819Y016700D01*
X014939Y016700D01*
X014999Y016760D01*
X014999Y016820D01*
X014939Y016880D01*
X014819Y016880D01*
X014759Y016820D01*
X014819Y016700D02*
X014759Y016640D01*
X014759Y016580D01*
X014819Y016520D01*
X014939Y016520D01*
X014999Y016580D01*
X014999Y016640D01*
X014939Y016700D01*
X015127Y016700D02*
X015187Y016640D01*
X015367Y016640D01*
X015247Y016640D02*
X015127Y016520D01*
X015127Y016700D02*
X015127Y016820D01*
X015187Y016880D01*
X015367Y016880D01*
X015367Y016520D01*
X017382Y017640D02*
X017743Y017640D01*
X017743Y017820D01*
X017683Y017880D01*
X017563Y017880D01*
X017503Y017820D01*
X017503Y017640D01*
X017503Y017760D02*
X017382Y017880D01*
X017382Y018008D02*
X017443Y018008D01*
X017683Y018249D01*
X017743Y018249D01*
X017743Y018008D01*
X018032Y018058D02*
X018093Y018058D01*
X018333Y018299D01*
X018393Y018299D01*
X018393Y018058D01*
X018333Y017930D02*
X018213Y017930D01*
X018153Y017870D01*
X018153Y017690D01*
X018153Y017810D02*
X018032Y017930D01*
X018032Y017690D02*
X018393Y017690D01*
X018393Y017870D01*
X018333Y017930D01*
X018516Y017820D02*
X018516Y017580D01*
X018576Y017520D01*
X018696Y017520D01*
X018756Y017580D01*
X018884Y017580D02*
X018884Y017640D01*
X018944Y017700D01*
X019124Y017700D01*
X019124Y017580D01*
X019064Y017520D01*
X018944Y017520D01*
X018884Y017580D01*
X018756Y017760D02*
X018696Y017700D01*
X018516Y017700D01*
X018516Y017820D02*
X018576Y017880D01*
X018696Y017880D01*
X018756Y017820D01*
X018756Y017760D01*
X018884Y017880D02*
X019004Y017820D01*
X019124Y017700D01*
X019252Y017580D02*
X019312Y017520D01*
X019432Y017520D01*
X019492Y017580D01*
X019492Y017820D01*
X019432Y017880D01*
X019312Y017880D01*
X019252Y017820D01*
X018393Y018487D02*
X018393Y018607D01*
X018333Y018667D01*
X018093Y018427D01*
X018032Y018487D01*
X018032Y018607D01*
X018093Y018667D01*
X018333Y018667D01*
X018393Y018487D02*
X018333Y018427D01*
X018093Y018427D01*
X017743Y018437D02*
X017743Y018557D01*
X017683Y018617D01*
X017623Y018617D01*
X017382Y018377D01*
X017382Y018617D01*
X017683Y018377D02*
X017743Y018437D01*
X010997Y021055D02*
X010937Y020995D01*
X010817Y020995D01*
X010757Y021055D01*
X010629Y020995D02*
X010389Y021235D01*
X010389Y021295D01*
X010449Y021355D01*
X010569Y021355D01*
X010629Y021295D01*
X010757Y021295D02*
X010817Y021355D01*
X010937Y021355D01*
X010997Y021295D01*
X010997Y021055D01*
X010629Y020995D02*
X010389Y020995D01*
X010261Y020995D02*
X010021Y021235D01*
X010021Y021295D01*
X010081Y021355D01*
X010201Y021355D01*
X010261Y021295D01*
X010261Y020995D02*
X010021Y020995D01*
X009672Y021545D02*
X009672Y021905D01*
X009492Y021905D01*
X009432Y021845D01*
X009432Y021725D01*
X009492Y021665D01*
X009672Y021665D01*
X009552Y021665D02*
X009432Y021545D01*
X009304Y021545D02*
X009064Y021545D01*
X009184Y021545D02*
X009184Y021905D01*
X009304Y021785D01*
X008936Y021725D02*
X008696Y021725D01*
X008756Y021545D02*
X008756Y021905D01*
X008936Y021725D01*
X008399Y021741D02*
X008399Y021922D01*
X008339Y021982D01*
X008099Y021982D01*
X008039Y021922D01*
X008039Y021741D01*
X008399Y021741D01*
X008399Y022110D02*
X008399Y022350D01*
X008339Y022350D01*
X008099Y022110D01*
X008039Y022110D01*
X007624Y022170D02*
X007564Y022110D01*
X007504Y022110D01*
X007444Y022170D01*
X007444Y022350D01*
X007564Y022350D02*
X007624Y022290D01*
X007624Y022170D01*
X007564Y022350D02*
X007324Y022350D01*
X007264Y022290D01*
X007264Y022170D01*
X007324Y022110D01*
X007324Y021982D02*
X007564Y021982D01*
X007624Y021922D01*
X007624Y021741D01*
X007264Y021741D01*
X007264Y021922D01*
X007324Y021982D01*
X006743Y023970D02*
X006743Y024150D01*
X006683Y024210D01*
X006563Y024210D01*
X006503Y024150D01*
X006503Y023970D01*
X006503Y024090D02*
X006382Y024210D01*
X006382Y024338D02*
X006382Y024579D01*
X006382Y024458D02*
X006743Y024458D01*
X006623Y024338D01*
X006683Y024707D02*
X006743Y024767D01*
X006743Y024887D01*
X006683Y024947D01*
X006623Y024947D01*
X006563Y024887D01*
X006503Y024947D01*
X006443Y024947D01*
X006382Y024887D01*
X006382Y024767D01*
X006443Y024707D01*
X006563Y024827D02*
X006563Y024887D01*
X005968Y024972D02*
X005968Y024732D01*
X005788Y024732D01*
X005848Y024852D01*
X005848Y024912D01*
X005788Y024972D01*
X005668Y024972D01*
X005607Y024912D01*
X005607Y024792D01*
X005668Y024732D01*
X005607Y024604D02*
X005607Y024363D01*
X005607Y024483D02*
X005968Y024483D01*
X005848Y024363D01*
X005908Y024235D02*
X005788Y024235D01*
X005728Y024175D01*
X005728Y023995D01*
X005728Y024115D02*
X005607Y024235D01*
X005607Y023995D02*
X005968Y023995D01*
X005968Y024175D01*
X005908Y024235D01*
X006382Y023970D02*
X006743Y023970D01*
X009007Y025220D02*
X009368Y025220D01*
X009368Y025400D01*
X009308Y025460D01*
X009188Y025460D01*
X009128Y025400D01*
X009128Y025220D01*
X009128Y025340D02*
X009007Y025460D01*
X009007Y025588D02*
X009007Y025829D01*
X009007Y025708D02*
X009368Y025708D01*
X009248Y025588D01*
X009308Y025957D02*
X009368Y026017D01*
X009368Y026137D01*
X009308Y026197D01*
X009248Y026197D01*
X009007Y025957D01*
X009007Y026197D01*
X010246Y026355D02*
X010306Y026295D01*
X010426Y026295D01*
X010486Y026355D01*
X010614Y026295D02*
X010854Y026295D01*
X010614Y026535D01*
X010614Y026595D01*
X010674Y026655D01*
X010794Y026655D01*
X010854Y026595D01*
X010982Y026595D02*
X011042Y026655D01*
X011162Y026655D01*
X011222Y026595D01*
X011222Y026355D01*
X011162Y026295D01*
X011042Y026295D01*
X010982Y026355D01*
X010486Y026595D02*
X010426Y026655D01*
X010306Y026655D01*
X010246Y026595D01*
X010246Y026535D01*
X010306Y026475D01*
X010246Y026415D01*
X010246Y026355D01*
X010306Y026475D02*
X010366Y026475D01*
X006599Y027016D02*
X006599Y027197D01*
X006539Y027257D01*
X006299Y027257D01*
X006239Y027197D01*
X006239Y027016D01*
X006599Y027016D01*
X006419Y027385D02*
X006299Y027385D01*
X006239Y027445D01*
X006239Y027565D01*
X006299Y027625D01*
X006359Y027625D01*
X006419Y027565D01*
X006419Y027385D01*
X006539Y027505D01*
X006599Y027625D01*
X005749Y027565D02*
X005749Y027445D01*
X005689Y027385D01*
X005689Y027257D02*
X005749Y027197D01*
X005749Y027016D01*
X005389Y027016D01*
X005389Y027197D01*
X005449Y027257D01*
X005689Y027257D01*
X005449Y027385D02*
X005389Y027445D01*
X005389Y027565D01*
X005449Y027625D01*
X005509Y027625D01*
X005569Y027565D01*
X005569Y027505D01*
X005569Y027565D02*
X005629Y027625D01*
X005689Y027625D01*
X005749Y027565D01*
X007351Y029445D02*
X007291Y029505D01*
X007291Y029565D01*
X007351Y029625D01*
X007531Y029625D01*
X007531Y029505D01*
X007471Y029445D01*
X007351Y029445D01*
X007531Y029625D02*
X007411Y029745D01*
X007291Y029805D01*
X007779Y029805D02*
X007779Y029445D01*
X007899Y029445D02*
X007659Y029445D01*
X007899Y029685D02*
X007779Y029805D01*
X008027Y029745D02*
X008087Y029805D01*
X008207Y029805D01*
X008267Y029745D01*
X008267Y029505D01*
X008207Y029445D01*
X008087Y029445D01*
X008027Y029505D01*
X005343Y030080D02*
X005283Y030020D01*
X005043Y030020D01*
X004982Y030080D01*
X004982Y030200D01*
X005043Y030260D01*
X004982Y030388D02*
X004982Y030629D01*
X004982Y030508D02*
X005343Y030508D01*
X005223Y030388D01*
X005283Y030260D02*
X005343Y030200D01*
X005343Y030080D01*
X005343Y030757D02*
X005343Y030997D01*
X005283Y030997D01*
X005043Y030757D01*
X004982Y030757D01*
X015567Y030655D02*
X015567Y030295D01*
X015747Y030295D01*
X015807Y030355D01*
X015807Y030475D01*
X015747Y030535D01*
X015567Y030535D01*
X015935Y030475D02*
X015995Y030535D01*
X016116Y030535D01*
X016176Y030475D01*
X016176Y030355D01*
X016116Y030295D01*
X015995Y030295D01*
X015935Y030355D01*
X015935Y030475D01*
X016304Y030475D02*
X016364Y030535D01*
X016484Y030535D01*
X016544Y030475D01*
X016544Y030355D01*
X016484Y030295D01*
X016364Y030295D01*
X016304Y030355D01*
X016304Y030475D01*
X016672Y030535D02*
X016852Y030535D01*
X016912Y030475D01*
X016912Y030355D01*
X016852Y030295D01*
X016672Y030295D01*
X016672Y030235D02*
X016672Y030535D01*
X016672Y030235D02*
X016732Y030175D01*
X016792Y030175D01*
X016733Y029935D02*
X016914Y029935D01*
X016974Y029875D01*
X016914Y029815D01*
X016794Y029815D01*
X016733Y029755D01*
X016794Y029695D01*
X016974Y029695D01*
X017102Y029695D02*
X017282Y029695D01*
X017342Y029755D01*
X017282Y029815D01*
X017102Y029815D01*
X017102Y029875D02*
X017102Y029695D01*
X017102Y029875D02*
X017162Y029935D01*
X017282Y029935D01*
X017527Y029935D02*
X017527Y029695D01*
X017467Y029695D02*
X017588Y029695D01*
X017716Y029755D02*
X017776Y029695D01*
X017956Y029695D01*
X017956Y030055D01*
X017776Y030055D01*
X017716Y029995D01*
X017716Y029935D01*
X017776Y029875D01*
X017956Y029875D01*
X017776Y029875D02*
X017716Y029815D01*
X017716Y029755D01*
X017588Y029935D02*
X017527Y029935D01*
X017527Y030055D02*
X017527Y030115D01*
X017527Y030295D02*
X017467Y030355D01*
X017407Y030295D01*
X017347Y030355D01*
X017347Y030535D01*
X017219Y030535D02*
X017219Y030295D01*
X017219Y030415D02*
X017099Y030535D01*
X017039Y030535D01*
X017099Y030895D02*
X016979Y031015D01*
X016979Y031255D01*
X016851Y031075D02*
X016791Y031135D01*
X016611Y031135D01*
X016611Y031255D02*
X016611Y030895D01*
X016791Y030895D01*
X016851Y030955D01*
X016851Y031075D01*
X017099Y030895D02*
X017219Y031015D01*
X017219Y031255D01*
X017347Y031255D02*
X017588Y031255D01*
X017588Y031075D01*
X017467Y031135D01*
X017407Y031135D01*
X017347Y031075D01*
X017347Y030955D01*
X017407Y030895D01*
X017527Y030895D01*
X017588Y030955D01*
X017716Y031075D02*
X017956Y031075D01*
X017836Y031195D02*
X017836Y030955D01*
X017776Y030655D02*
X017716Y030595D01*
X017716Y030475D01*
X017776Y030415D01*
X017956Y030415D01*
X017956Y030295D02*
X017956Y030655D01*
X017776Y030655D01*
X017588Y030535D02*
X017588Y030355D01*
X017527Y030295D01*
X016605Y029875D02*
X016365Y029875D01*
X016485Y029995D02*
X016485Y029755D01*
X016733Y029335D02*
X016914Y029335D01*
X016974Y029275D01*
X016914Y029215D01*
X016794Y029215D01*
X016733Y029155D01*
X016794Y029095D01*
X016974Y029095D01*
X017102Y029095D02*
X017282Y029095D01*
X017342Y029155D01*
X017282Y029215D01*
X017102Y029215D01*
X017102Y029275D02*
X017102Y029095D01*
X017102Y029275D02*
X017162Y029335D01*
X017282Y029335D01*
X017527Y029335D02*
X017527Y029095D01*
X017467Y029095D02*
X017588Y029095D01*
X017716Y029155D02*
X017776Y029095D01*
X017956Y029095D01*
X017956Y029455D01*
X017776Y029455D01*
X017716Y029395D01*
X017716Y029335D01*
X017776Y029275D01*
X017956Y029275D01*
X017776Y029275D02*
X017716Y029215D01*
X017716Y029155D01*
X017588Y029335D02*
X017527Y029335D01*
X017527Y029455D02*
X017527Y029515D01*
X016605Y029275D02*
X016365Y029275D01*
X016483Y028855D02*
X016242Y028495D01*
X016242Y028855D01*
X016483Y028855D02*
X016483Y028495D01*
X016611Y028555D02*
X016611Y028795D01*
X016671Y028855D01*
X016791Y028855D01*
X016851Y028795D01*
X016851Y028555D01*
X016791Y028495D01*
X016671Y028495D01*
X016611Y028555D01*
X016979Y028495D02*
X016979Y028855D01*
X017099Y028735D01*
X017219Y028855D01*
X017219Y028495D01*
X017347Y028435D02*
X017588Y028435D01*
X017716Y028555D02*
X017716Y028855D01*
X017956Y028855D02*
X017956Y028555D01*
X017896Y028495D01*
X017776Y028495D01*
X017716Y028555D01*
X018452Y028495D02*
X018692Y028495D01*
X018572Y028495D02*
X018572Y028855D01*
X018692Y028735D01*
X018692Y029095D02*
X018452Y029335D01*
X018452Y029395D01*
X018512Y029455D01*
X018632Y029455D01*
X018692Y029395D01*
X018692Y029095D02*
X018452Y029095D01*
X018512Y029695D02*
X018632Y029695D01*
X018692Y029755D01*
X018572Y029875D02*
X018512Y029875D01*
X018452Y029815D01*
X018452Y029755D01*
X018512Y029695D01*
X018512Y029875D02*
X018452Y029935D01*
X018452Y029995D01*
X018512Y030055D01*
X018632Y030055D01*
X018692Y029995D01*
X018512Y030295D02*
X018512Y030655D01*
X018692Y030475D01*
X018452Y030475D01*
X018512Y030895D02*
X018632Y030895D01*
X018692Y030955D01*
X018692Y031075D02*
X018572Y031135D01*
X018512Y031135D01*
X018452Y031075D01*
X018452Y030955D01*
X018512Y030895D01*
X018692Y031075D02*
X018692Y031255D01*
X018452Y031255D01*
X018512Y031495D02*
X018452Y031555D01*
X018452Y031615D01*
X018512Y031675D01*
X018692Y031675D01*
X018692Y031555D01*
X018632Y031495D01*
X018512Y031495D01*
X018692Y031675D02*
X018572Y031795D01*
X018452Y031855D01*
X018692Y032095D02*
X018692Y032155D01*
X018452Y032395D01*
X018452Y032455D01*
X018692Y032455D01*
X018632Y032695D02*
X018692Y032755D01*
X018692Y032815D01*
X018632Y032875D01*
X018512Y032875D01*
X018452Y032815D01*
X018452Y032755D01*
X018512Y032695D01*
X018632Y032695D01*
X018632Y032875D02*
X018692Y032935D01*
X018692Y032995D01*
X018632Y033055D01*
X018512Y033055D01*
X018452Y032995D01*
X018452Y032935D01*
X018512Y032875D01*
X017956Y032875D02*
X017716Y032875D01*
X017588Y032935D02*
X017527Y032875D01*
X017347Y032875D01*
X017347Y032755D02*
X017347Y032995D01*
X017407Y033055D01*
X017527Y033055D01*
X017588Y032995D01*
X017588Y032935D01*
X017588Y032755D02*
X017527Y032695D01*
X017407Y032695D01*
X017347Y032755D01*
X017219Y032815D02*
X017099Y032695D01*
X016979Y032815D01*
X016979Y033055D01*
X016851Y032875D02*
X016791Y032935D01*
X016611Y032935D01*
X016611Y033055D02*
X016611Y032695D01*
X016791Y032695D01*
X016851Y032755D01*
X016851Y032875D01*
X016483Y032875D02*
X016483Y032755D01*
X016423Y032695D01*
X016242Y032695D01*
X016242Y032935D02*
X016423Y032935D01*
X016483Y032875D01*
X016611Y032455D02*
X016611Y032095D01*
X016791Y032095D01*
X016851Y032155D01*
X016851Y032275D01*
X016791Y032335D01*
X016611Y032335D01*
X016483Y032275D02*
X016483Y032155D01*
X016423Y032095D01*
X016242Y032095D01*
X016242Y032335D02*
X016423Y032335D01*
X016483Y032275D01*
X016979Y032215D02*
X017099Y032095D01*
X017219Y032215D01*
X017219Y032455D01*
X017347Y032455D02*
X017588Y032455D01*
X017588Y032275D01*
X017467Y032335D01*
X017407Y032335D01*
X017347Y032275D01*
X017347Y032155D01*
X017407Y032095D01*
X017527Y032095D01*
X017588Y032155D01*
X017716Y032275D02*
X017956Y032275D01*
X017896Y031855D02*
X017956Y031795D01*
X017956Y031555D01*
X017896Y031495D01*
X017776Y031495D01*
X017716Y031555D01*
X017716Y031675D01*
X017836Y031675D01*
X017716Y031795D02*
X017776Y031855D01*
X017896Y031855D01*
X017588Y031735D02*
X017407Y031735D01*
X017347Y031675D01*
X017347Y031495D01*
X017219Y031555D02*
X017219Y031675D01*
X017159Y031735D01*
X016979Y031735D01*
X016979Y031855D02*
X016979Y031495D01*
X017159Y031495D01*
X017219Y031555D01*
X017588Y031495D02*
X017588Y031735D01*
X016979Y032215D02*
X016979Y032455D01*
X017219Y032815D02*
X017219Y033055D01*
X017283Y033545D02*
X017283Y033785D01*
X017102Y033785D01*
X017042Y033725D01*
X017042Y033545D01*
X016914Y033605D02*
X016914Y033725D01*
X016854Y033785D01*
X016734Y033785D01*
X016674Y033725D01*
X016674Y033665D01*
X016914Y033665D01*
X016914Y033605D02*
X016854Y033545D01*
X016734Y033545D01*
X016546Y033605D02*
X016486Y033545D01*
X016306Y033545D01*
X016118Y033605D02*
X016058Y033545D01*
X016118Y033605D02*
X016118Y033845D01*
X016178Y033785D02*
X016058Y033785D01*
X015932Y033725D02*
X015872Y033785D01*
X015752Y033785D01*
X015692Y033725D01*
X015692Y033605D01*
X015752Y033545D01*
X015872Y033545D01*
X015932Y033605D01*
X015932Y033725D01*
X015564Y033665D02*
X015444Y033785D01*
X015384Y033785D01*
X015564Y033785D02*
X015564Y033545D01*
X016306Y033785D02*
X016486Y033785D01*
X016546Y033725D01*
X016546Y033605D01*
X017411Y033545D02*
X017411Y033725D01*
X017471Y033785D01*
X017651Y033785D01*
X017651Y033545D01*
X017779Y033605D02*
X017779Y033725D01*
X017839Y033785D01*
X017959Y033785D01*
X018019Y033725D01*
X018019Y033605D01*
X017959Y033545D01*
X017839Y033545D01*
X017779Y033605D01*
X018147Y033545D02*
X018327Y033545D01*
X018388Y033605D01*
X018388Y033725D01*
X018327Y033785D01*
X018147Y033785D01*
X018884Y033785D02*
X018944Y033725D01*
X018884Y033665D01*
X018884Y033605D01*
X018944Y033545D01*
X019064Y033545D01*
X019124Y033605D01*
X019252Y033545D02*
X019492Y033905D01*
X019252Y033905D02*
X019492Y033545D01*
X019124Y033845D02*
X019064Y033905D01*
X018944Y033905D01*
X018884Y033845D01*
X018884Y033785D01*
X018944Y033725D02*
X019004Y033725D01*
X016423Y031135D02*
X016483Y031075D01*
X016483Y030955D01*
X016423Y030895D01*
X016242Y030895D01*
X016242Y031135D02*
X016423Y031135D01*
X016394Y026305D02*
X016514Y026305D01*
X016574Y026245D01*
X016702Y026245D02*
X016702Y026125D01*
X016762Y026065D01*
X016942Y026065D01*
X016822Y026065D02*
X016702Y025945D01*
X016574Y025945D02*
X016334Y026185D01*
X016334Y026245D01*
X016394Y026305D01*
X016206Y026245D02*
X016146Y026305D01*
X016026Y026305D01*
X015966Y026245D01*
X015966Y026185D01*
X016206Y025945D01*
X015966Y025945D01*
X016334Y025945D02*
X016574Y025945D01*
X016702Y026245D02*
X016762Y026305D01*
X016942Y026305D01*
X016942Y025945D01*
X016942Y024755D02*
X016762Y024755D01*
X016702Y024695D01*
X016702Y024575D01*
X016762Y024515D01*
X016942Y024515D01*
X016822Y024515D02*
X016702Y024395D01*
X016574Y024395D02*
X016334Y024395D01*
X016454Y024395D02*
X016454Y024755D01*
X016574Y024635D01*
X016206Y024635D02*
X016206Y024695D01*
X016146Y024755D01*
X016026Y024755D01*
X015966Y024695D01*
X015966Y024635D01*
X016026Y024575D01*
X016146Y024575D01*
X016206Y024635D01*
X016146Y024575D02*
X016206Y024515D01*
X016206Y024455D01*
X016146Y024395D01*
X016026Y024395D01*
X015966Y024455D01*
X015966Y024515D01*
X016026Y024575D01*
X016942Y024395D02*
X016942Y024755D01*
X019316Y025020D02*
X019556Y025020D01*
X019436Y025020D02*
X019436Y025380D01*
X019556Y025260D01*
X019684Y025380D02*
X019924Y025140D01*
X019864Y025200D02*
X019684Y025020D01*
X019924Y025020D02*
X019924Y025380D01*
X020052Y025320D02*
X020112Y025380D01*
X020232Y025380D01*
X020292Y025320D01*
X020292Y025080D01*
X020232Y025020D01*
X020112Y025020D01*
X020052Y025080D01*
X020052Y025320D01*
X027707Y025012D02*
X027707Y024892D01*
X027768Y024832D01*
X028008Y025072D01*
X027768Y025072D01*
X027707Y025012D01*
X027768Y024832D02*
X028008Y024832D01*
X028068Y024892D01*
X028068Y025012D01*
X028008Y025072D01*
X028008Y024704D02*
X028068Y024643D01*
X028068Y024523D01*
X028008Y024463D01*
X028008Y024335D02*
X027888Y024335D01*
X027828Y024275D01*
X027828Y024095D01*
X027828Y024215D02*
X027707Y024335D01*
X027707Y024463D02*
X027948Y024704D01*
X028008Y024704D01*
X027707Y024704D02*
X027707Y024463D01*
X028008Y024335D02*
X028068Y024275D01*
X028068Y024095D01*
X027707Y024095D01*
X027737Y022380D02*
X027677Y022320D01*
X027677Y022200D01*
X027737Y022140D01*
X027917Y022140D01*
X027797Y022140D02*
X027677Y022020D01*
X027549Y022080D02*
X027489Y022020D01*
X027369Y022020D01*
X027309Y022080D01*
X027309Y022320D01*
X027369Y022380D01*
X027489Y022380D01*
X027549Y022320D01*
X027549Y022260D01*
X027489Y022200D01*
X027309Y022200D01*
X027737Y022380D02*
X027917Y022380D01*
X027917Y022020D01*
X029196Y022040D02*
X029196Y021980D01*
X029256Y021920D01*
X029376Y021920D01*
X029436Y021980D01*
X029436Y022040D01*
X029376Y022100D01*
X029256Y022100D01*
X029196Y022040D01*
X029256Y022100D02*
X029196Y022160D01*
X029196Y022220D01*
X029256Y022280D01*
X029376Y022280D01*
X029436Y022220D01*
X029436Y022160D01*
X029376Y022100D01*
X029564Y022100D02*
X029624Y022040D01*
X029804Y022040D01*
X029804Y021920D02*
X029804Y022280D01*
X029624Y022280D01*
X029564Y022220D01*
X029564Y022100D01*
X029684Y022040D02*
X029564Y021920D01*
X038407Y020242D02*
X038407Y020002D01*
X038768Y020002D01*
X038768Y020242D01*
X038588Y020122D02*
X038588Y020002D01*
X038708Y019874D02*
X038768Y019814D01*
X038768Y019633D01*
X038407Y019633D01*
X038407Y019814D01*
X038468Y019874D01*
X038708Y019874D01*
X038768Y019508D02*
X038768Y019388D01*
X038768Y019448D02*
X038407Y019448D01*
X038407Y019388D02*
X038407Y019508D01*
X038468Y019260D02*
X038407Y019200D01*
X038407Y019080D01*
X038468Y019020D01*
X038588Y019080D02*
X038588Y019200D01*
X038528Y019260D01*
X038468Y019260D01*
X038588Y019080D02*
X038648Y019020D01*
X038708Y019020D01*
X038768Y019080D01*
X038768Y019200D01*
X038708Y019260D01*
X038588Y018891D02*
X038588Y018651D01*
X038708Y018523D02*
X038768Y018463D01*
X038768Y018343D01*
X038708Y018283D01*
X038468Y018283D01*
X038407Y018343D01*
X038407Y018463D01*
X038468Y018523D01*
X038708Y018523D01*
X038407Y018155D02*
X038407Y017915D01*
X038768Y017915D01*
X038826Y017055D02*
X038766Y016995D01*
X038766Y016935D01*
X038826Y016875D01*
X038946Y016875D01*
X039006Y016935D01*
X039006Y016995D01*
X038946Y017055D01*
X038826Y017055D01*
X038826Y016875D02*
X038766Y016815D01*
X038766Y016755D01*
X038826Y016695D01*
X038946Y016695D01*
X039006Y016755D01*
X039006Y016815D01*
X038946Y016875D01*
X039134Y016815D02*
X039134Y016755D01*
X039194Y016695D01*
X039314Y016695D01*
X039374Y016755D01*
X039502Y016695D02*
X039622Y016815D01*
X039562Y016815D02*
X039742Y016815D01*
X039742Y016695D02*
X039742Y017055D01*
X039562Y017055D01*
X039502Y016995D01*
X039502Y016875D01*
X039562Y016815D01*
X039374Y016995D02*
X039314Y017055D01*
X039194Y017055D01*
X039134Y016995D01*
X039134Y016935D01*
X039194Y016875D01*
X039134Y016815D01*
X039194Y016875D02*
X039254Y016875D01*
X041889Y017048D02*
X041889Y017228D01*
X041949Y017288D01*
X042189Y017288D01*
X042249Y017228D01*
X042249Y017048D01*
X041889Y017048D01*
X041889Y017416D02*
X041889Y017657D01*
X041889Y017537D02*
X042249Y017537D01*
X042129Y017416D01*
X042069Y017785D02*
X042069Y017965D01*
X042009Y018025D01*
X041949Y018025D01*
X041889Y017965D01*
X041889Y017845D01*
X041949Y017785D01*
X042069Y017785D01*
X042189Y017905D01*
X042249Y018025D01*
X042202Y018895D02*
X042322Y019015D01*
X042262Y019015D02*
X042442Y019015D01*
X042442Y018895D02*
X042442Y019255D01*
X042262Y019255D01*
X042202Y019195D01*
X042202Y019075D01*
X042262Y019015D01*
X042074Y019075D02*
X041834Y019075D01*
X041706Y018955D02*
X041466Y019195D01*
X041466Y018955D01*
X041526Y018895D01*
X041646Y018895D01*
X041706Y018955D01*
X041706Y019195D01*
X041646Y019255D01*
X041526Y019255D01*
X041466Y019195D01*
X041894Y019255D02*
X041894Y018895D01*
X042074Y019075D02*
X041894Y019255D01*
X042026Y020020D02*
X042146Y020020D01*
X042206Y020080D01*
X041966Y020320D01*
X041966Y020080D01*
X042026Y020020D01*
X042206Y020080D02*
X042206Y020320D01*
X042146Y020380D01*
X042026Y020380D01*
X041966Y020320D01*
X042334Y020200D02*
X042574Y020200D01*
X042394Y020380D01*
X042394Y020020D01*
X042702Y020080D02*
X042762Y020020D01*
X042882Y020020D01*
X042942Y020080D01*
X042942Y020320D01*
X042882Y020380D01*
X042762Y020380D01*
X042702Y020320D01*
X042762Y020720D02*
X042702Y020780D01*
X042762Y020720D02*
X042882Y020720D01*
X042942Y020780D01*
X042942Y021020D01*
X042882Y021080D01*
X042762Y021080D01*
X042702Y021020D01*
X042574Y021020D02*
X042514Y021080D01*
X042394Y021080D01*
X042334Y021020D01*
X042334Y020960D01*
X042394Y020900D01*
X042334Y020840D01*
X042334Y020780D01*
X042394Y020720D01*
X042514Y020720D01*
X042574Y020780D01*
X042454Y020900D02*
X042394Y020900D01*
X042206Y020960D02*
X042146Y020900D01*
X041966Y020900D01*
X041966Y020780D02*
X041966Y021020D01*
X042026Y021080D01*
X042146Y021080D01*
X042206Y021020D01*
X042206Y020960D01*
X042206Y020780D02*
X042146Y020720D01*
X042026Y020720D01*
X041966Y020780D01*
X042026Y021395D02*
X042146Y021395D01*
X042206Y021455D01*
X042206Y021515D01*
X042146Y021575D01*
X042026Y021575D01*
X041966Y021515D01*
X041966Y021455D01*
X042026Y021395D01*
X042026Y021575D02*
X041966Y021635D01*
X041966Y021695D01*
X042026Y021755D01*
X042146Y021755D01*
X042206Y021695D01*
X042206Y021635D01*
X042146Y021575D01*
X042334Y021515D02*
X042334Y021455D01*
X042394Y021395D01*
X042514Y021395D01*
X042574Y021455D01*
X042702Y021455D02*
X042762Y021395D01*
X042882Y021395D01*
X042942Y021455D01*
X042942Y021695D01*
X042882Y021755D01*
X042762Y021755D01*
X042702Y021695D01*
X042574Y021695D02*
X042514Y021755D01*
X042394Y021755D01*
X042334Y021695D01*
X042334Y021635D01*
X042394Y021575D01*
X042334Y021515D01*
X042394Y021575D02*
X042454Y021575D01*
X042419Y023045D02*
X042539Y023045D01*
X042599Y023105D01*
X042727Y023105D02*
X042787Y023045D01*
X042907Y023045D01*
X042967Y023105D01*
X042967Y023345D01*
X042907Y023405D01*
X042787Y023405D01*
X042727Y023345D01*
X042599Y023345D02*
X042539Y023405D01*
X042419Y023405D01*
X042359Y023345D01*
X042359Y023285D01*
X042419Y023225D01*
X042359Y023165D01*
X042359Y023105D01*
X042419Y023045D01*
X042419Y023225D02*
X042479Y023225D01*
X042231Y023225D02*
X042111Y023285D01*
X042051Y023285D01*
X041991Y023225D01*
X041991Y023105D01*
X042051Y023045D01*
X042171Y023045D01*
X042231Y023105D01*
X042231Y023225D02*
X042231Y023405D01*
X041991Y023405D01*
X042051Y023670D02*
X042051Y024030D01*
X042231Y023850D01*
X041991Y023850D01*
X042359Y023790D02*
X042359Y023730D01*
X042419Y023670D01*
X042539Y023670D01*
X042599Y023730D01*
X042727Y023730D02*
X042787Y023670D01*
X042907Y023670D01*
X042967Y023730D01*
X042967Y023970D01*
X042907Y024030D01*
X042787Y024030D01*
X042727Y023970D01*
X042599Y023970D02*
X042539Y024030D01*
X042419Y024030D01*
X042359Y023970D01*
X042359Y023910D01*
X042419Y023850D01*
X042359Y023790D01*
X042419Y023850D02*
X042479Y023850D01*
X042419Y024345D02*
X042539Y024345D01*
X042599Y024405D01*
X042727Y024405D02*
X042787Y024345D01*
X042907Y024345D01*
X042967Y024405D01*
X042967Y024645D01*
X042907Y024705D01*
X042787Y024705D01*
X042727Y024645D01*
X042599Y024645D02*
X042539Y024705D01*
X042419Y024705D01*
X042359Y024645D01*
X042359Y024585D01*
X042419Y024525D01*
X042359Y024465D01*
X042359Y024405D01*
X042419Y024345D01*
X042419Y024525D02*
X042479Y024525D01*
X042231Y024405D02*
X042171Y024345D01*
X042051Y024345D01*
X041991Y024405D01*
X041991Y024465D01*
X042051Y024525D01*
X042111Y024525D01*
X042051Y024525D02*
X041991Y024585D01*
X041991Y024645D01*
X042051Y024705D01*
X042171Y024705D01*
X042231Y024645D01*
X041242Y025870D02*
X041242Y026230D01*
X041062Y026230D01*
X041002Y026170D01*
X041002Y026050D01*
X041062Y025990D01*
X041242Y025990D01*
X041122Y025990D02*
X041002Y025870D01*
X040874Y025870D02*
X040634Y026110D01*
X040634Y026170D01*
X040694Y026230D01*
X040814Y026230D01*
X040874Y026170D01*
X040874Y025870D02*
X040634Y025870D01*
X040506Y025870D02*
X040506Y025930D01*
X040266Y026170D01*
X040266Y026230D01*
X040506Y026230D01*
X040359Y026564D02*
X040359Y026924D01*
X040539Y026744D01*
X040299Y026744D01*
X040667Y026564D02*
X040907Y026564D01*
X040787Y026564D02*
X040787Y026924D01*
X040907Y026804D01*
X041035Y026864D02*
X041095Y026924D01*
X041276Y026924D01*
X041276Y026564D01*
X041095Y026564D01*
X041035Y026624D01*
X041035Y026864D01*
X040976Y028620D02*
X041036Y028680D01*
X040976Y028620D02*
X040856Y028620D01*
X040796Y028680D01*
X040796Y028740D01*
X040856Y028800D01*
X040916Y028800D01*
X040856Y028800D02*
X040796Y028860D01*
X040796Y028920D01*
X040856Y028980D01*
X040976Y028980D01*
X041036Y028920D01*
X041164Y028920D02*
X041224Y028980D01*
X041344Y028980D01*
X041404Y028920D01*
X041532Y028920D02*
X041532Y028800D01*
X041592Y028740D01*
X041772Y028740D01*
X041652Y028740D02*
X041532Y028620D01*
X041404Y028620D02*
X041164Y028860D01*
X041164Y028920D01*
X041164Y028620D02*
X041404Y028620D01*
X041532Y028920D02*
X041592Y028980D01*
X041772Y028980D01*
X041772Y028620D01*
X042332Y029445D02*
X042332Y029625D01*
X042393Y029685D01*
X042633Y029685D01*
X042693Y029625D01*
X042693Y029445D01*
X042332Y029445D01*
X042332Y029813D02*
X042332Y030054D01*
X042332Y029933D02*
X042693Y029933D01*
X042573Y029813D01*
X042633Y030182D02*
X042693Y030242D01*
X042693Y030362D01*
X042633Y030422D01*
X042573Y030422D01*
X042332Y030182D01*
X042332Y030422D01*
X043282Y030362D02*
X043643Y030362D01*
X043463Y030182D01*
X043463Y030422D01*
X043523Y030054D02*
X043583Y030054D01*
X043643Y029993D01*
X043643Y029873D01*
X043583Y029813D01*
X043583Y029685D02*
X043463Y029685D01*
X043403Y029625D01*
X043403Y029445D01*
X043403Y029565D02*
X043282Y029685D01*
X043282Y029813D02*
X043523Y030054D01*
X043282Y030054D02*
X043282Y029813D01*
X043583Y029685D02*
X043643Y029625D01*
X043643Y029445D01*
X043282Y029445D01*
X044032Y029445D02*
X044393Y029445D01*
X044393Y029625D01*
X044333Y029685D01*
X044213Y029685D01*
X044153Y029625D01*
X044153Y029445D01*
X044153Y029565D02*
X044032Y029685D01*
X044032Y029813D02*
X044273Y030054D01*
X044333Y030054D01*
X044393Y029993D01*
X044393Y029873D01*
X044333Y029813D01*
X044032Y029813D02*
X044032Y030054D01*
X044093Y030182D02*
X044032Y030242D01*
X044032Y030362D01*
X044093Y030422D01*
X044213Y030422D01*
X044273Y030362D01*
X044273Y030302D01*
X044213Y030182D01*
X044393Y030182D01*
X044393Y030422D01*
X044314Y033720D02*
X044374Y033780D01*
X044374Y033900D01*
X044314Y033960D01*
X044134Y033960D01*
X044134Y034080D02*
X044134Y033720D01*
X044314Y033720D01*
X044503Y033780D02*
X044503Y033900D01*
X044563Y033960D01*
X044683Y033960D01*
X044743Y033900D01*
X044743Y033780D01*
X044683Y033720D01*
X044563Y033720D01*
X044503Y033780D01*
X044871Y033720D02*
X045051Y033720D01*
X045111Y033780D01*
X045111Y033900D01*
X045051Y033960D01*
X044871Y033960D01*
X045607Y033900D02*
X045607Y033840D01*
X045848Y033840D01*
X045848Y033780D02*
X045848Y033900D01*
X045788Y033960D01*
X045668Y033960D01*
X045607Y033900D01*
X045668Y033720D02*
X045788Y033720D01*
X045848Y033780D01*
X045976Y033720D02*
X046156Y033720D01*
X046216Y033780D01*
X046216Y033900D01*
X046156Y033960D01*
X045976Y033960D01*
X046343Y033960D02*
X046403Y033960D01*
X046523Y033840D01*
X046523Y033720D02*
X046523Y033960D01*
X046651Y033960D02*
X046651Y033720D01*
X046831Y033720D01*
X046891Y033780D01*
X046891Y033960D01*
X047019Y033900D02*
X047079Y033960D01*
X047200Y033960D01*
X047260Y033900D01*
X047260Y033780D01*
X047200Y033720D01*
X047079Y033720D01*
X047019Y033780D01*
X047019Y033900D01*
X047388Y033960D02*
X047568Y033960D01*
X047628Y033900D01*
X047568Y033840D01*
X047448Y033840D01*
X047388Y033780D01*
X047448Y033720D01*
X047628Y033720D01*
X048122Y033720D02*
X048182Y033780D01*
X048182Y034020D01*
X048242Y033960D02*
X048122Y033960D01*
X048370Y033960D02*
X048550Y033960D01*
X048610Y033900D01*
X048610Y033780D01*
X048550Y033720D01*
X048370Y033720D01*
X048738Y033840D02*
X048978Y033840D01*
X048978Y033780D02*
X048978Y033900D01*
X048918Y033960D01*
X048798Y033960D01*
X048738Y033900D01*
X048738Y033840D01*
X048798Y033720D02*
X048918Y033720D01*
X048978Y033780D01*
X049104Y033660D02*
X049104Y033960D01*
X049104Y034080D02*
X049104Y034140D01*
X049352Y033900D02*
X049412Y033960D01*
X049532Y033960D01*
X049592Y033900D01*
X049592Y033780D01*
X049532Y033720D01*
X049412Y033720D01*
X049352Y033780D01*
X049352Y033900D01*
X049224Y033600D02*
X049164Y033600D01*
X049104Y033660D01*
X049719Y033960D02*
X049779Y033960D01*
X049899Y033840D01*
X049899Y033720D02*
X049899Y033960D01*
X050027Y033900D02*
X050087Y033840D01*
X050267Y033840D01*
X050267Y033720D02*
X050267Y034080D01*
X050087Y034080D01*
X050027Y034020D01*
X050027Y033900D01*
X051218Y031097D02*
X051157Y031037D01*
X051157Y030917D01*
X051218Y030857D01*
X051338Y030857D02*
X051398Y030977D01*
X051398Y031037D01*
X051338Y031097D01*
X051218Y031097D01*
X051338Y030857D02*
X051518Y030857D01*
X051518Y031097D01*
X051458Y030729D02*
X051398Y030729D01*
X051338Y030668D01*
X051278Y030729D01*
X051218Y030729D01*
X051157Y030668D01*
X051157Y030548D01*
X051218Y030488D01*
X051157Y030360D02*
X051278Y030240D01*
X051278Y030300D02*
X051278Y030120D01*
X051157Y030120D02*
X051518Y030120D01*
X051518Y030300D01*
X051458Y030360D01*
X051338Y030360D01*
X051278Y030300D01*
X051458Y030488D02*
X051518Y030548D01*
X051518Y030668D01*
X051458Y030729D01*
X051338Y030668D02*
X051338Y030608D01*
X051348Y028967D02*
X051288Y028907D01*
X051228Y028967D01*
X051168Y028967D01*
X051107Y028907D01*
X051107Y028787D01*
X051168Y028727D01*
X051288Y028847D02*
X051288Y028907D01*
X051348Y028967D02*
X051408Y028967D01*
X051468Y028907D01*
X051468Y028787D01*
X051408Y028727D01*
X051288Y028599D02*
X051288Y028358D01*
X051468Y028539D01*
X051107Y028539D01*
X051107Y028230D02*
X051228Y028110D01*
X051228Y028170D02*
X051228Y027990D01*
X051107Y027990D02*
X051468Y027990D01*
X051468Y028170D01*
X051408Y028230D01*
X051288Y028230D01*
X051228Y028170D01*
X051033Y027072D02*
X051093Y027012D01*
X051093Y026892D01*
X051033Y026832D01*
X050973Y026832D01*
X050913Y026892D01*
X050913Y027072D01*
X050793Y027072D02*
X051033Y027072D01*
X050793Y027072D02*
X050732Y027012D01*
X050732Y026892D01*
X050793Y026832D01*
X050732Y026704D02*
X050732Y026463D01*
X050973Y026704D01*
X051033Y026704D01*
X051093Y026643D01*
X051093Y026523D01*
X051033Y026463D01*
X051033Y026335D02*
X051093Y026275D01*
X051093Y026155D01*
X051033Y026095D01*
X050793Y026095D01*
X050732Y026155D01*
X050732Y026275D01*
X050793Y026335D01*
X050293Y026275D02*
X050233Y026335D01*
X050113Y026335D01*
X050053Y026275D01*
X050053Y026095D01*
X050053Y026215D02*
X049932Y026335D01*
X049932Y026463D02*
X050173Y026704D01*
X050233Y026704D01*
X050293Y026643D01*
X050293Y026523D01*
X050233Y026463D01*
X050293Y026275D02*
X050293Y026095D01*
X049932Y026095D01*
X049932Y026463D02*
X049932Y026704D01*
X049993Y026832D02*
X049932Y026892D01*
X049932Y027012D01*
X049993Y027072D01*
X050053Y027072D01*
X050113Y027012D01*
X050113Y026832D01*
X049993Y026832D01*
X050113Y026832D02*
X050233Y026952D01*
X050293Y027072D01*
X051457Y026712D02*
X051457Y026592D01*
X051518Y026532D01*
X051758Y026772D01*
X051518Y026772D01*
X051457Y026712D01*
X051518Y026532D02*
X051758Y026532D01*
X051818Y026592D01*
X051818Y026712D01*
X051758Y026772D01*
X051758Y026404D02*
X051698Y026404D01*
X051638Y026343D01*
X051578Y026404D01*
X051518Y026404D01*
X051457Y026343D01*
X051457Y026223D01*
X051518Y026163D01*
X051518Y026035D02*
X051457Y025975D01*
X051457Y025855D01*
X051518Y025795D01*
X051758Y025795D01*
X051818Y025855D01*
X051818Y025975D01*
X051758Y026035D01*
X051758Y026163D02*
X051818Y026223D01*
X051818Y026343D01*
X051758Y026404D01*
X051638Y026343D02*
X051638Y026283D01*
X050997Y024080D02*
X050817Y024080D01*
X050757Y024020D01*
X050757Y023900D01*
X050817Y023840D01*
X050997Y023840D01*
X050877Y023840D02*
X050757Y023720D01*
X050629Y023780D02*
X050569Y023720D01*
X050449Y023720D01*
X050389Y023780D01*
X050389Y023840D01*
X050449Y023900D01*
X050509Y023900D01*
X050449Y023900D02*
X050389Y023960D01*
X050389Y024020D01*
X050449Y024080D01*
X050569Y024080D01*
X050629Y024020D01*
X050261Y024020D02*
X050201Y024080D01*
X050081Y024080D01*
X050021Y024020D01*
X050261Y023780D01*
X050201Y023720D01*
X050081Y023720D01*
X050021Y023780D01*
X050021Y024020D01*
X050261Y024020D02*
X050261Y023780D01*
X050201Y023305D02*
X050081Y023305D01*
X050021Y023245D01*
X050021Y023185D01*
X050081Y023125D01*
X050201Y023125D01*
X050261Y023185D01*
X050261Y023245D01*
X050201Y023305D01*
X050201Y023125D02*
X050261Y023065D01*
X050261Y023005D01*
X050201Y022945D01*
X050081Y022945D01*
X050021Y023005D01*
X050021Y023065D01*
X050081Y023125D01*
X050389Y023185D02*
X050389Y023245D01*
X050449Y023305D01*
X050569Y023305D01*
X050629Y023245D01*
X050757Y023245D02*
X050757Y023125D01*
X050817Y023065D01*
X050997Y023065D01*
X050877Y023065D02*
X050757Y022945D01*
X050629Y022945D02*
X050389Y023185D01*
X050389Y022945D02*
X050629Y022945D01*
X050757Y023245D02*
X050817Y023305D01*
X050997Y023305D01*
X050997Y022945D01*
X050972Y022180D02*
X050792Y022180D01*
X050732Y022120D01*
X050732Y022000D01*
X050792Y021940D01*
X050972Y021940D01*
X050852Y021940D02*
X050732Y021820D01*
X050604Y021880D02*
X050544Y021820D01*
X050424Y021820D01*
X050364Y021880D01*
X050364Y021940D01*
X050424Y022000D01*
X050484Y022000D01*
X050424Y022000D02*
X050364Y022060D01*
X050364Y022120D01*
X050424Y022180D01*
X050544Y022180D01*
X050604Y022120D01*
X050236Y022120D02*
X050176Y022180D01*
X050056Y022180D01*
X049996Y022120D01*
X049996Y022060D01*
X050236Y021820D01*
X049996Y021820D01*
X049942Y021280D02*
X049882Y021220D01*
X049882Y021100D01*
X049942Y021040D01*
X050122Y021040D01*
X050002Y021040D02*
X049882Y020920D01*
X049754Y020980D02*
X049694Y020920D01*
X049574Y020920D01*
X049514Y020980D01*
X049514Y021040D01*
X049574Y021100D01*
X049634Y021100D01*
X049574Y021100D02*
X049514Y021160D01*
X049514Y021220D01*
X049574Y021280D01*
X049694Y021280D01*
X049754Y021220D01*
X049942Y021280D02*
X050122Y021280D01*
X050122Y020920D01*
X050122Y020530D02*
X049942Y020530D01*
X049882Y020470D01*
X049882Y020350D01*
X049942Y020290D01*
X050122Y020290D01*
X050002Y020290D02*
X049882Y020170D01*
X049754Y020230D02*
X049694Y020170D01*
X049574Y020170D01*
X049514Y020230D01*
X049514Y020290D01*
X049574Y020350D01*
X049634Y020350D01*
X049574Y020350D02*
X049514Y020410D01*
X049514Y020470D01*
X049574Y020530D01*
X049694Y020530D01*
X049754Y020470D01*
X050122Y020530D02*
X050122Y020170D01*
X049386Y020230D02*
X049326Y020170D01*
X049206Y020170D01*
X049146Y020230D01*
X049146Y020290D01*
X049206Y020350D01*
X049386Y020350D01*
X049386Y020230D01*
X049386Y020350D02*
X049266Y020470D01*
X049146Y020530D01*
X049206Y020920D02*
X049326Y020920D01*
X049386Y020980D01*
X049266Y021100D02*
X049206Y021100D01*
X049146Y021040D01*
X049146Y020980D01*
X049206Y020920D01*
X049206Y021100D02*
X049146Y021160D01*
X049146Y021220D01*
X049206Y021280D01*
X049326Y021280D01*
X049386Y021220D01*
X050972Y021820D02*
X050972Y022180D01*
X050997Y023720D02*
X050997Y024080D01*
X048043Y024172D02*
X048043Y023932D01*
X047983Y023804D02*
X047923Y023804D01*
X047863Y023743D01*
X047803Y023804D01*
X047743Y023804D01*
X047682Y023743D01*
X047682Y023623D01*
X047743Y023563D01*
X047743Y023435D02*
X047682Y023375D01*
X047682Y023255D01*
X047743Y023195D01*
X047983Y023195D01*
X048043Y023255D01*
X048043Y023375D01*
X047983Y023435D01*
X047983Y023563D02*
X048043Y023623D01*
X048043Y023743D01*
X047983Y023804D01*
X047863Y023743D02*
X047863Y023683D01*
X047743Y023932D02*
X047682Y023932D01*
X047743Y023932D02*
X047983Y024172D01*
X048043Y024172D01*
X047617Y027070D02*
X047437Y027070D01*
X047377Y027130D01*
X047377Y027370D01*
X047437Y027430D01*
X047617Y027430D01*
X047617Y027070D01*
X047249Y027070D02*
X047009Y027070D01*
X047129Y027070D02*
X047129Y027430D01*
X047249Y027310D01*
X046881Y027370D02*
X046821Y027430D01*
X046701Y027430D01*
X046641Y027370D01*
X046641Y027310D01*
X046701Y027250D01*
X046641Y027190D01*
X046641Y027130D01*
X046701Y027070D01*
X046821Y027070D01*
X046881Y027130D01*
X046761Y027250D02*
X046701Y027250D01*
X038768Y029162D02*
X038407Y029162D01*
X038588Y029162D02*
X038588Y029403D01*
X038768Y029403D02*
X038407Y029403D01*
X038407Y029531D02*
X038407Y029651D01*
X038407Y029591D02*
X038768Y029591D01*
X038768Y029531D02*
X038768Y029651D01*
X038588Y029776D02*
X038588Y030016D01*
X038648Y030145D02*
X038588Y030205D01*
X038588Y030325D01*
X038528Y030385D01*
X038468Y030385D01*
X038407Y030325D01*
X038407Y030205D01*
X038468Y030145D01*
X038648Y030145D02*
X038708Y030145D01*
X038768Y030205D01*
X038768Y030325D01*
X038708Y030385D01*
X038768Y030513D02*
X038768Y030633D01*
X038768Y030573D02*
X038407Y030573D01*
X038407Y030513D02*
X038407Y030633D01*
X038407Y030758D02*
X038407Y030939D01*
X038468Y030999D01*
X038708Y030999D01*
X038768Y030939D01*
X038768Y030758D01*
X038407Y030758D01*
X038407Y031127D02*
X038407Y031367D01*
X038588Y031247D02*
X038588Y031127D01*
X038768Y031127D02*
X038407Y031127D01*
X038768Y031127D02*
X038768Y031367D01*
X038727Y033720D02*
X038487Y033720D01*
X038359Y033900D02*
X038118Y033900D01*
X037990Y033900D02*
X037990Y033780D01*
X037930Y033720D01*
X037810Y033720D01*
X037750Y033780D01*
X037750Y033900D01*
X037810Y033960D01*
X037930Y033960D01*
X037990Y033900D01*
X037622Y033960D02*
X037442Y033960D01*
X037382Y033900D01*
X037382Y033780D01*
X037442Y033720D01*
X037622Y033720D01*
X037622Y033600D02*
X037622Y033960D01*
X037254Y033900D02*
X037194Y033960D01*
X037074Y033960D01*
X037013Y033900D01*
X037013Y033840D01*
X037254Y033840D01*
X037254Y033780D02*
X037254Y033900D01*
X037254Y033780D02*
X037194Y033720D01*
X037074Y033720D01*
X036885Y033720D02*
X036885Y033960D01*
X036705Y033960D01*
X036645Y033900D01*
X036645Y033720D01*
X036517Y033720D02*
X036277Y034080D01*
X036149Y034020D02*
X036149Y033780D01*
X036089Y033720D01*
X035969Y033720D01*
X035909Y033780D01*
X035780Y033720D02*
X035780Y034080D01*
X035540Y034080D01*
X035660Y033900D02*
X035780Y033900D01*
X035909Y034020D02*
X035969Y034080D01*
X036089Y034080D01*
X036149Y034020D01*
X035412Y033900D02*
X035172Y033900D01*
X035044Y034080D02*
X035044Y033720D01*
X034864Y033720D01*
X034804Y033780D01*
X034804Y034020D01*
X034864Y034080D01*
X035044Y034080D01*
X034675Y034080D02*
X034555Y034080D01*
X034615Y034080D02*
X034615Y033720D01*
X034675Y033720D02*
X034555Y033720D01*
X034430Y033780D02*
X034370Y033720D01*
X034250Y033720D01*
X034190Y033780D01*
X034430Y033780D02*
X034430Y034020D01*
X034370Y034080D01*
X034250Y034080D01*
X034190Y034020D01*
X032754Y034005D02*
X032754Y033645D01*
X032754Y033765D02*
X032574Y033765D01*
X032514Y033825D01*
X032514Y033945D01*
X032574Y034005D01*
X032754Y034005D01*
X032634Y033765D02*
X032514Y033645D01*
X032386Y033705D02*
X032326Y033645D01*
X032206Y033645D01*
X032146Y033705D01*
X032146Y033825D01*
X032206Y033885D01*
X032266Y033885D01*
X032386Y033825D01*
X032386Y034005D01*
X032146Y034005D01*
X032206Y033280D02*
X032146Y033220D01*
X032146Y033160D01*
X032206Y033100D01*
X032326Y033100D01*
X032386Y033160D01*
X032386Y033220D01*
X032326Y033280D01*
X032206Y033280D01*
X032206Y033100D02*
X032146Y033040D01*
X032146Y032980D01*
X032206Y032920D01*
X032326Y032920D01*
X032386Y032980D01*
X032386Y033040D01*
X032326Y033100D01*
X032514Y032980D02*
X032574Y032920D01*
X032694Y032920D01*
X032754Y032980D01*
X032754Y033220D01*
X032694Y033280D01*
X032574Y033280D01*
X032514Y033220D01*
X032568Y032487D02*
X032628Y032427D01*
X032568Y032487D02*
X032448Y032487D01*
X032388Y032427D01*
X032388Y032367D01*
X032628Y032126D01*
X032388Y032126D01*
X032394Y031755D02*
X032274Y031755D01*
X032214Y031695D01*
X032086Y031575D02*
X031906Y031575D01*
X031846Y031515D01*
X031846Y031455D01*
X031906Y031395D01*
X032026Y031395D01*
X032086Y031455D01*
X032086Y031575D01*
X031966Y031695D01*
X031846Y031755D01*
X032214Y031455D02*
X032274Y031395D01*
X032394Y031395D01*
X032454Y031455D01*
X032454Y031695D01*
X032394Y031755D01*
X032816Y032126D02*
X032756Y032186D01*
X032756Y032427D01*
X032816Y032487D01*
X032996Y032487D01*
X032996Y032126D01*
X032816Y032126D01*
X033124Y032126D02*
X033364Y032126D01*
X033364Y032186D01*
X033124Y032427D01*
X033124Y032487D01*
X033364Y032487D01*
X030586Y029614D02*
X030226Y029614D01*
X030226Y029494D02*
X030226Y029734D01*
X030466Y029494D02*
X030586Y029614D01*
X030526Y029366D02*
X030286Y029366D01*
X030226Y029306D01*
X030226Y029126D01*
X030586Y029126D01*
X030586Y029306D01*
X030526Y029366D01*
X030526Y028998D02*
X030286Y028758D01*
X030226Y028758D01*
X030226Y028998D01*
X030526Y028998D02*
X030586Y028998D01*
X030586Y028758D01*
X029497Y028195D02*
X029497Y027955D01*
X029437Y027895D01*
X029317Y027895D01*
X029257Y027955D01*
X029129Y027895D02*
X028889Y028135D01*
X028889Y028195D01*
X028949Y028255D01*
X029069Y028255D01*
X029129Y028195D01*
X029257Y028195D02*
X029317Y028255D01*
X029437Y028255D01*
X029497Y028195D01*
X029129Y027895D02*
X028889Y027895D01*
X028761Y027955D02*
X028521Y028195D01*
X028521Y027955D01*
X028581Y027895D01*
X028701Y027895D01*
X028761Y027955D01*
X028761Y028195D01*
X028701Y028255D01*
X028581Y028255D01*
X028521Y028195D01*
X038487Y033960D02*
X038727Y033720D01*
X038855Y033840D02*
X039095Y033840D01*
X039095Y033780D02*
X039095Y033900D01*
X039035Y033960D01*
X038915Y033960D01*
X038855Y033900D01*
X038855Y033840D01*
X038915Y033720D02*
X039035Y033720D01*
X039095Y033780D01*
X039223Y033840D02*
X039464Y033840D01*
X039464Y033780D02*
X039464Y033900D01*
X039404Y033960D01*
X039283Y033960D01*
X039223Y033900D01*
X039223Y033840D01*
X039283Y033720D02*
X039404Y033720D01*
X039464Y033780D01*
X039592Y034080D02*
X039832Y033720D01*
X039960Y033720D02*
X039960Y033900D01*
X040020Y033960D01*
X040080Y033900D01*
X040080Y033720D01*
X040200Y033720D02*
X040200Y033960D01*
X040140Y033960D01*
X040080Y033900D01*
X040328Y033900D02*
X040388Y033960D01*
X040508Y033960D01*
X040569Y033900D01*
X040569Y033780D01*
X040508Y033720D01*
X040388Y033720D01*
X040328Y033780D01*
X040328Y033900D01*
X040697Y033960D02*
X040877Y033960D01*
X040937Y033900D01*
X040937Y033780D01*
X040877Y033720D01*
X040697Y033720D01*
X041061Y033720D02*
X041121Y033720D01*
X041121Y033780D01*
X041061Y033780D01*
X041061Y033720D01*
X041249Y033780D02*
X041249Y033900D01*
X041309Y033960D01*
X041489Y033960D01*
X041489Y034080D02*
X041489Y033720D01*
X041309Y033720D01*
X041249Y033780D01*
X041617Y033720D02*
X041617Y033960D01*
X041617Y033720D02*
X041798Y033720D01*
X041858Y033780D01*
X041858Y033960D01*
X041986Y033900D02*
X041986Y033720D01*
X041986Y033900D02*
X042046Y033960D01*
X042166Y033960D01*
X042226Y033900D01*
X042351Y033960D02*
X042471Y033960D01*
X042411Y034020D02*
X042411Y033780D01*
X042351Y033720D01*
X042226Y033720D02*
X042226Y034080D01*
X042657Y034080D02*
X042657Y034140D01*
X042657Y033960D02*
X042657Y033720D01*
X042717Y033720D02*
X042597Y033720D01*
X042657Y033960D02*
X042717Y033960D01*
X042845Y033960D02*
X043025Y033960D01*
X043085Y033900D01*
X043085Y033780D01*
X043025Y033720D01*
X042845Y033720D01*
X042845Y033660D02*
X042845Y033960D01*
X042845Y033660D02*
X042905Y033600D01*
X042965Y033600D01*
X043578Y033720D02*
X043578Y033780D01*
X043638Y033780D01*
X043638Y033720D01*
X043578Y033720D01*
X043578Y033900D02*
X043638Y033900D01*
X043638Y033960D01*
X043578Y033960D01*
X043578Y033900D01*
X043766Y033900D02*
X043766Y033840D01*
X044006Y033840D01*
X044006Y033780D02*
X044006Y033900D01*
X043946Y033960D01*
X043826Y033960D01*
X043766Y033900D01*
X043826Y033720D02*
X043946Y033720D01*
X044006Y033780D01*
X038727Y033960D02*
X038487Y033960D01*
X049223Y019162D02*
X049403Y018981D01*
X049163Y018981D01*
X049223Y018801D02*
X049223Y019162D01*
X049531Y019102D02*
X049591Y019162D01*
X049771Y019162D01*
X049771Y018801D01*
X049591Y018801D01*
X049531Y018861D01*
X049531Y019102D01*
X049899Y019102D02*
X050139Y018861D01*
X050139Y018801D01*
X049899Y018801D01*
X049899Y019102D02*
X049899Y019162D01*
X050139Y019162D01*
X049797Y018380D02*
X049617Y018380D01*
X049557Y018320D01*
X049557Y018200D01*
X049617Y018140D01*
X049797Y018140D01*
X049677Y018140D02*
X049557Y018020D01*
X049429Y018200D02*
X049189Y018200D01*
X049061Y018200D02*
X048821Y018200D01*
X048881Y018020D02*
X048881Y018380D01*
X049061Y018200D01*
X049249Y018020D02*
X049249Y018380D01*
X049429Y018200D01*
X049797Y018020D02*
X049797Y018380D01*
X050218Y016097D02*
X050157Y016037D01*
X050157Y015917D01*
X050218Y015857D01*
X050338Y015977D02*
X050338Y016037D01*
X050278Y016097D01*
X050218Y016097D01*
X050338Y016037D02*
X050398Y016097D01*
X050458Y016097D01*
X050518Y016037D01*
X050518Y015917D01*
X050458Y015857D01*
X050338Y015729D02*
X050338Y015488D01*
X050518Y015668D01*
X050157Y015668D01*
X050218Y015360D02*
X050157Y015300D01*
X050157Y015180D01*
X050218Y015120D01*
X050458Y015120D01*
X050518Y015180D01*
X050518Y015300D01*
X050458Y015360D01*
X049818Y015393D02*
X049638Y015213D01*
X049638Y015454D01*
X049638Y015582D02*
X049638Y015822D01*
X049818Y015762D02*
X049638Y015582D01*
X049818Y015762D02*
X049457Y015762D01*
X049457Y015393D02*
X049818Y015393D01*
X049758Y015085D02*
X049818Y015025D01*
X049818Y014905D01*
X049758Y014845D01*
X049518Y014845D01*
X049457Y014905D01*
X049457Y015025D01*
X049518Y015085D01*
X048718Y015205D02*
X048658Y015145D01*
X048418Y015145D01*
X048357Y015205D01*
X048357Y015325D01*
X048418Y015385D01*
X048538Y015513D02*
X048538Y015754D01*
X048598Y015882D02*
X048658Y015882D01*
X048718Y015942D01*
X048718Y016062D01*
X048658Y016122D01*
X048598Y016122D01*
X048538Y016062D01*
X048538Y015942D01*
X048598Y015882D01*
X048538Y015942D02*
X048478Y015882D01*
X048418Y015882D01*
X048357Y015942D01*
X048357Y016062D01*
X048418Y016122D01*
X048478Y016122D01*
X048538Y016062D01*
X048718Y015693D02*
X048538Y015513D01*
X048658Y015385D02*
X048718Y015325D01*
X048718Y015205D01*
X048718Y015693D02*
X048357Y015693D01*
X047993Y015600D02*
X047933Y015660D01*
X047813Y015660D01*
X047753Y015600D01*
X047753Y015420D01*
X047753Y015540D02*
X047632Y015660D01*
X047693Y015788D02*
X047632Y015848D01*
X047632Y015968D01*
X047693Y016029D01*
X047813Y016029D01*
X047873Y015968D01*
X047873Y015908D01*
X047813Y015788D01*
X047993Y015788D01*
X047993Y016029D01*
X047933Y016157D02*
X047993Y016217D01*
X047993Y016337D01*
X047933Y016397D01*
X047873Y016397D01*
X047632Y016157D01*
X047632Y016397D01*
X047218Y016362D02*
X047038Y016182D01*
X047038Y016422D01*
X047218Y016362D02*
X046857Y016362D01*
X046918Y016054D02*
X046857Y015993D01*
X046857Y015873D01*
X046918Y015813D01*
X047038Y015813D02*
X047098Y015933D01*
X047098Y015993D01*
X047038Y016054D01*
X046918Y016054D01*
X047038Y015813D02*
X047218Y015813D01*
X047218Y016054D01*
X047158Y015685D02*
X047038Y015685D01*
X046978Y015625D01*
X046978Y015445D01*
X046978Y015565D02*
X046857Y015685D01*
X046857Y015445D02*
X047218Y015445D01*
X047218Y015625D01*
X047158Y015685D01*
X047632Y015420D02*
X047993Y015420D01*
X047993Y015600D01*
X045618Y015625D02*
X045558Y015685D01*
X045318Y015685D01*
X045257Y015625D01*
X045257Y015505D01*
X045318Y015445D01*
X045558Y015445D01*
X045618Y015505D01*
X045618Y015625D01*
X045618Y015813D02*
X045618Y016054D01*
X045558Y016054D01*
X045318Y015813D01*
X045257Y015813D01*
X045257Y015685D02*
X045378Y015565D01*
X044193Y016965D02*
X044193Y017145D01*
X044133Y017205D01*
X044013Y017205D01*
X043953Y017145D01*
X043953Y016965D01*
X043953Y017085D02*
X043832Y017205D01*
X043893Y017333D02*
X043832Y017393D01*
X043832Y017514D01*
X043893Y017574D01*
X043953Y017574D01*
X044013Y017514D01*
X044013Y017453D01*
X044013Y017514D02*
X044073Y017574D01*
X044133Y017574D01*
X044193Y017514D01*
X044193Y017393D01*
X044133Y017333D01*
X044193Y016965D02*
X043832Y016965D01*
X043832Y017702D02*
X043893Y017702D01*
X044133Y017942D01*
X044193Y017942D01*
X044193Y017702D01*
X044532Y013497D02*
X044532Y013257D01*
X044532Y013377D02*
X044893Y013377D01*
X044773Y013257D01*
X044713Y013129D02*
X044593Y013129D01*
X044532Y013068D01*
X044532Y012948D01*
X044593Y012888D01*
X044713Y012888D02*
X044773Y013008D01*
X044773Y013068D01*
X044713Y013129D01*
X044893Y013129D02*
X044893Y012888D01*
X044713Y012888D01*
X044833Y012760D02*
X044893Y012700D01*
X044893Y012580D01*
X044833Y012520D01*
X044593Y012520D01*
X044532Y012580D01*
X044532Y012700D01*
X044593Y012760D01*
X046121Y012155D02*
X046361Y012155D01*
X046361Y011975D01*
X046241Y012035D01*
X046181Y012035D01*
X046121Y011975D01*
X046121Y011855D01*
X046181Y011795D01*
X046301Y011795D01*
X046361Y011855D01*
X046489Y011855D02*
X046549Y011795D01*
X046669Y011795D01*
X046729Y011855D01*
X046729Y011975D02*
X046609Y012035D01*
X046549Y012035D01*
X046489Y011975D01*
X046489Y011855D01*
X046729Y011975D02*
X046729Y012155D01*
X046489Y012155D01*
X046857Y012095D02*
X046857Y011975D01*
X046917Y011915D01*
X047097Y011915D01*
X046977Y011915D02*
X046857Y011795D01*
X047097Y011795D02*
X047097Y012155D01*
X046917Y012155D01*
X046857Y012095D01*
X045547Y011430D02*
X045427Y011430D01*
X045487Y011430D02*
X045487Y011130D01*
X045547Y011070D01*
X045607Y011070D01*
X045667Y011130D01*
X045299Y011070D02*
X045299Y011430D01*
X045119Y011430D01*
X045059Y011370D01*
X045059Y011250D01*
X045119Y011190D01*
X045299Y011190D01*
X044931Y011130D02*
X044871Y011070D01*
X044751Y011070D01*
X044691Y011130D01*
X044691Y011190D01*
X044751Y011250D01*
X044811Y011250D01*
X044751Y011250D02*
X044691Y011310D01*
X044691Y011370D01*
X044751Y011430D01*
X044871Y011430D01*
X044931Y011370D01*
X044626Y010599D02*
X044385Y010599D01*
X044385Y010539D01*
X044626Y010299D01*
X044626Y010239D01*
X044385Y010239D01*
X044257Y010239D02*
X044077Y010239D01*
X044017Y010299D01*
X044017Y010539D01*
X044077Y010599D01*
X044257Y010599D01*
X044257Y010239D01*
X043889Y010299D02*
X043829Y010239D01*
X043709Y010239D01*
X043649Y010299D01*
X043649Y010419D01*
X043709Y010479D01*
X043769Y010479D01*
X043889Y010419D01*
X043889Y010599D01*
X043649Y010599D01*
X047532Y008207D02*
X047593Y008267D01*
X047833Y008267D01*
X047593Y008027D01*
X047532Y008087D01*
X047532Y008207D01*
X047593Y008027D02*
X047833Y008027D01*
X047893Y008087D01*
X047893Y008207D01*
X047833Y008267D01*
X047893Y007899D02*
X047893Y007658D01*
X047713Y007658D01*
X047773Y007778D01*
X047773Y007839D01*
X047713Y007899D01*
X047593Y007899D01*
X047532Y007839D01*
X047532Y007718D01*
X047593Y007658D01*
X047532Y007530D02*
X047653Y007410D01*
X047653Y007470D02*
X047653Y007290D01*
X047646Y007180D02*
X047706Y007120D01*
X047706Y007060D01*
X047646Y007000D01*
X047466Y007000D01*
X047466Y006880D02*
X047466Y007120D01*
X047526Y007180D01*
X047646Y007180D01*
X047532Y007290D02*
X047893Y007290D01*
X047893Y007470D01*
X047833Y007530D01*
X047713Y007530D01*
X047653Y007470D01*
X047834Y007180D02*
X048074Y007180D01*
X048074Y007000D01*
X047954Y007060D01*
X047894Y007060D01*
X047834Y007000D01*
X047834Y006880D01*
X047894Y006820D01*
X048014Y006820D01*
X048074Y006880D01*
X048202Y006820D02*
X048322Y006940D01*
X048262Y006940D02*
X048442Y006940D01*
X048442Y006820D02*
X048442Y007180D01*
X048262Y007180D01*
X048202Y007120D01*
X048202Y007000D01*
X048262Y006940D01*
X048343Y007290D02*
X048282Y007350D01*
X048282Y007470D01*
X048343Y007530D01*
X048463Y007658D02*
X048463Y007899D01*
X048463Y008027D02*
X048523Y008147D01*
X048523Y008207D01*
X048463Y008267D01*
X048343Y008267D01*
X048282Y008207D01*
X048282Y008087D01*
X048343Y008027D01*
X048463Y008027D02*
X048643Y008027D01*
X048643Y008267D01*
X049082Y008207D02*
X049143Y008267D01*
X049383Y008267D01*
X049443Y008207D01*
X049443Y008087D01*
X049383Y008027D01*
X049323Y008027D01*
X049263Y008087D01*
X049263Y008267D01*
X049082Y008207D02*
X049082Y008087D01*
X049143Y008027D01*
X049263Y007899D02*
X049263Y007658D01*
X049443Y007839D01*
X049082Y007839D01*
X049143Y007530D02*
X049082Y007470D01*
X049082Y007350D01*
X049143Y007290D01*
X049383Y007290D01*
X049443Y007350D01*
X049443Y007470D01*
X049383Y007530D01*
X049857Y007530D02*
X049978Y007410D01*
X049978Y007470D02*
X049978Y007290D01*
X049857Y007290D02*
X050218Y007290D01*
X050218Y007470D01*
X050158Y007530D01*
X050038Y007530D01*
X049978Y007470D01*
X050038Y007658D02*
X050098Y007778D01*
X050098Y007839D01*
X050038Y007899D01*
X049918Y007899D01*
X049857Y007839D01*
X049857Y007718D01*
X049918Y007658D01*
X050038Y007658D02*
X050218Y007658D01*
X050218Y007899D01*
X050158Y008027D02*
X050218Y008087D01*
X050218Y008207D01*
X050158Y008267D01*
X050098Y008267D01*
X050038Y008207D01*
X049978Y008267D01*
X049918Y008267D01*
X049857Y008207D01*
X049857Y008087D01*
X049918Y008027D01*
X050038Y008147D02*
X050038Y008207D01*
X048643Y007839D02*
X048463Y007658D01*
X048583Y007530D02*
X048643Y007470D01*
X048643Y007350D01*
X048583Y007290D01*
X048343Y007290D01*
X048282Y007839D02*
X048643Y007839D01*
X047706Y006880D02*
X047646Y006820D01*
X047526Y006820D01*
X047466Y006880D01*
X047168Y007265D02*
X046807Y007265D01*
X046928Y007265D02*
X046928Y007445D01*
X046988Y007505D01*
X047108Y007505D01*
X047168Y007445D01*
X047168Y007265D01*
X046928Y007385D02*
X046807Y007505D01*
X046868Y007633D02*
X046807Y007693D01*
X046807Y007814D01*
X046868Y007874D01*
X046988Y007874D01*
X047048Y007814D01*
X047048Y007753D01*
X046988Y007633D01*
X047168Y007633D01*
X047168Y007874D01*
X047048Y008002D02*
X047168Y008122D01*
X046807Y008122D01*
X046807Y008002D02*
X046807Y008242D01*
X046293Y008242D02*
X046293Y008002D01*
X046113Y008002D01*
X046173Y008122D01*
X046173Y008182D01*
X046113Y008242D01*
X045993Y008242D01*
X045932Y008182D01*
X045932Y008062D01*
X045993Y008002D01*
X046113Y007874D02*
X046113Y007633D01*
X046293Y007814D01*
X045932Y007814D01*
X045932Y007505D02*
X046053Y007385D01*
X046053Y007445D02*
X046053Y007265D01*
X045932Y007265D02*
X046293Y007265D01*
X046293Y007445D01*
X046233Y007505D01*
X046113Y007505D01*
X046053Y007445D01*
X046066Y007137D02*
X046186Y007137D01*
X046246Y007077D01*
X046374Y007077D02*
X046374Y006836D01*
X046434Y006776D01*
X046614Y006776D01*
X046614Y007137D01*
X046434Y007137D01*
X046374Y007077D01*
X046066Y007137D02*
X046006Y007077D01*
X046006Y007017D01*
X046246Y006776D01*
X046006Y006776D01*
X046049Y006705D02*
X046229Y006525D01*
X045989Y006525D01*
X045861Y006585D02*
X045801Y006525D01*
X045621Y006525D01*
X045621Y006405D02*
X045621Y006645D01*
X045681Y006705D01*
X045801Y006705D01*
X045861Y006645D01*
X045861Y006585D01*
X045861Y006405D02*
X045801Y006345D01*
X045681Y006345D01*
X045621Y006405D01*
X045698Y006776D02*
X045818Y006776D01*
X045878Y006836D01*
X045638Y007077D01*
X045638Y006836D01*
X045698Y006776D01*
X045878Y006836D02*
X045878Y007077D01*
X045818Y007137D01*
X045698Y007137D01*
X045638Y007077D01*
X045543Y007265D02*
X045543Y007445D01*
X045483Y007505D01*
X045363Y007505D01*
X045303Y007445D01*
X045303Y007265D01*
X045303Y007385D02*
X045182Y007505D01*
X045363Y007633D02*
X045363Y007874D01*
X045363Y008002D02*
X045363Y008182D01*
X045303Y008242D01*
X045243Y008242D01*
X045182Y008182D01*
X045182Y008062D01*
X045243Y008002D01*
X045363Y008002D01*
X045483Y008122D01*
X045543Y008242D01*
X045543Y007814D02*
X045363Y007633D01*
X045182Y007814D02*
X045543Y007814D01*
X045543Y007265D02*
X045182Y007265D01*
X044818Y007325D02*
X044758Y007265D01*
X044518Y007265D01*
X044457Y007325D01*
X044457Y007445D01*
X044518Y007505D01*
X044638Y007633D02*
X044638Y007874D01*
X044758Y008002D02*
X044818Y008062D01*
X044818Y008182D01*
X044758Y008242D01*
X044698Y008242D01*
X044457Y008002D01*
X044457Y008242D01*
X044457Y007814D02*
X044818Y007814D01*
X044638Y007633D01*
X044758Y007505D02*
X044818Y007445D01*
X044818Y007325D01*
X044061Y006694D02*
X043701Y006694D01*
X043701Y006574D02*
X043701Y006814D01*
X043941Y006574D02*
X044061Y006694D01*
X044001Y006445D02*
X044061Y006385D01*
X044061Y006265D01*
X044001Y006205D01*
X044001Y006077D02*
X044061Y006017D01*
X044061Y005837D01*
X043701Y005837D01*
X043701Y006017D01*
X043761Y006077D01*
X044001Y006077D01*
X043701Y006205D02*
X043701Y006445D01*
X043701Y006205D02*
X043941Y006445D01*
X044001Y006445D01*
X046049Y006345D02*
X046049Y006705D01*
X046357Y006645D02*
X046357Y006525D01*
X046417Y006465D01*
X046597Y006465D01*
X046477Y006465D02*
X046357Y006345D01*
X046597Y006345D02*
X046597Y006705D01*
X046417Y006705D01*
X046357Y006645D01*
X045144Y003905D02*
X045024Y003905D01*
X044964Y003845D01*
X044964Y003605D01*
X045024Y003545D01*
X045144Y003545D01*
X045204Y003605D01*
X045204Y003845D01*
X045144Y003905D01*
X045084Y003665D02*
X044964Y003545D01*
X044836Y003605D02*
X044776Y003545D01*
X044656Y003545D01*
X044596Y003605D01*
X044596Y003725D01*
X044656Y003785D01*
X044716Y003785D01*
X044836Y003725D01*
X044836Y003905D01*
X044596Y003905D01*
X045541Y003155D02*
X045541Y003095D01*
X045781Y002855D01*
X045781Y002795D01*
X045909Y002855D02*
X045969Y002795D01*
X046089Y002795D01*
X046149Y002855D01*
X046149Y002975D02*
X046029Y003035D01*
X045969Y003035D01*
X045909Y002975D01*
X045909Y002855D01*
X046149Y002975D02*
X046149Y003155D01*
X045909Y003155D01*
X045781Y003155D02*
X045541Y003155D01*
X046277Y003095D02*
X046277Y002975D01*
X046337Y002915D01*
X046517Y002915D01*
X046397Y002915D02*
X046277Y002795D01*
X046517Y002795D02*
X046517Y003155D01*
X046337Y003155D01*
X046277Y003095D01*
X051271Y003870D02*
X051511Y003870D01*
X051271Y004110D01*
X051271Y004170D01*
X051331Y004230D01*
X051451Y004230D01*
X051511Y004170D01*
X051639Y004230D02*
X051879Y004230D01*
X051879Y004050D01*
X051759Y004110D01*
X051699Y004110D01*
X051639Y004050D01*
X051639Y003930D01*
X051699Y003870D01*
X051819Y003870D01*
X051879Y003930D01*
X052007Y003930D02*
X052067Y003870D01*
X052187Y003870D01*
X052247Y003930D01*
X052247Y004170D01*
X052187Y004230D01*
X052067Y004230D01*
X052007Y004170D01*
X052017Y004720D02*
X051957Y004780D01*
X052017Y004720D02*
X052137Y004720D01*
X052197Y004780D01*
X052197Y005020D01*
X052137Y005080D01*
X052017Y005080D01*
X051957Y005020D01*
X051829Y005080D02*
X051829Y004900D01*
X051709Y004960D01*
X051649Y004960D01*
X051589Y004900D01*
X051589Y004780D01*
X051649Y004720D01*
X051769Y004720D01*
X051829Y004780D01*
X051829Y005080D02*
X051589Y005080D01*
X051461Y005020D02*
X051401Y005080D01*
X051281Y005080D01*
X051221Y005020D01*
X051221Y004960D01*
X051281Y004900D01*
X051221Y004840D01*
X051221Y004780D01*
X051281Y004720D01*
X051401Y004720D01*
X051461Y004780D01*
X051341Y004900D02*
X051281Y004900D01*
X051556Y005395D02*
X051496Y005455D01*
X051496Y005515D01*
X051556Y005575D01*
X051736Y005575D01*
X051736Y005455D01*
X051676Y005395D01*
X051556Y005395D01*
X051736Y005575D02*
X051616Y005695D01*
X051496Y005755D01*
X051864Y005755D02*
X052104Y005755D01*
X052104Y005575D01*
X051984Y005635D01*
X051924Y005635D01*
X051864Y005575D01*
X051864Y005455D01*
X051924Y005395D01*
X052044Y005395D01*
X052104Y005455D01*
X052232Y005395D02*
X052352Y005515D01*
X052292Y005515D02*
X052472Y005515D01*
X052472Y005395D02*
X052472Y005755D01*
X052292Y005755D01*
X052232Y005695D01*
X052232Y005575D01*
X052292Y005515D01*
X052232Y006195D02*
X052352Y006315D01*
X052292Y006315D02*
X052472Y006315D01*
X052472Y006195D02*
X052472Y006555D01*
X052292Y006555D01*
X052232Y006495D01*
X052232Y006375D01*
X052292Y006315D01*
X052104Y006255D02*
X052044Y006195D01*
X051924Y006195D01*
X051864Y006255D01*
X051864Y006375D01*
X051924Y006435D01*
X051984Y006435D01*
X052104Y006375D01*
X052104Y006555D01*
X051864Y006555D01*
X051736Y006495D02*
X051736Y006435D01*
X051676Y006375D01*
X051556Y006375D01*
X051496Y006315D01*
X051496Y006255D01*
X051556Y006195D01*
X051676Y006195D01*
X051736Y006255D01*
X051736Y006315D01*
X051676Y006375D01*
X051556Y006375D02*
X051496Y006435D01*
X051496Y006495D01*
X051556Y006555D01*
X051676Y006555D01*
X051736Y006495D01*
X057134Y012445D02*
X057374Y012445D01*
X057254Y012445D02*
X057254Y012805D01*
X057374Y012685D01*
X057502Y012625D02*
X057562Y012565D01*
X057742Y012565D01*
X057622Y012565D02*
X057502Y012445D01*
X057502Y012625D02*
X057502Y012745D01*
X057562Y012805D01*
X057742Y012805D01*
X057742Y012445D01*
X058984Y012445D02*
X059224Y012445D01*
X058984Y012685D01*
X058984Y012745D01*
X059044Y012805D01*
X059164Y012805D01*
X059224Y012745D01*
X059352Y012745D02*
X059352Y012625D01*
X059412Y012565D01*
X059592Y012565D01*
X059472Y012565D02*
X059352Y012445D01*
X059592Y012445D02*
X059592Y012805D01*
X059412Y012805D01*
X059352Y012745D01*
X038768Y012583D02*
X038407Y012583D01*
X038407Y012824D01*
X038407Y012952D02*
X038407Y013192D01*
X038407Y012952D02*
X038768Y012952D01*
X038768Y012455D02*
X038468Y012455D01*
X038407Y012395D01*
X038407Y012275D01*
X038468Y012215D01*
X038768Y012215D01*
X038708Y012087D02*
X038588Y012087D01*
X038528Y012027D01*
X038528Y011847D01*
X038407Y011847D02*
X038768Y011847D01*
X038768Y012027D01*
X038708Y012087D01*
X038768Y006467D02*
X038407Y006467D01*
X038588Y006467D02*
X038588Y006227D01*
X038528Y006099D02*
X038468Y006099D01*
X038407Y006039D01*
X038407Y005918D01*
X038468Y005858D01*
X038468Y005730D02*
X038768Y005730D01*
X038708Y005858D02*
X038768Y005918D01*
X038768Y006039D01*
X038708Y006099D01*
X038588Y006039D02*
X038528Y006099D01*
X038588Y006039D02*
X038588Y005918D01*
X038648Y005858D01*
X038708Y005858D01*
X038468Y005730D02*
X038407Y005670D01*
X038407Y005550D01*
X038468Y005490D01*
X038768Y005490D01*
X038708Y005362D02*
X038768Y005302D01*
X038768Y005122D01*
X038407Y005122D01*
X038528Y005122D02*
X038528Y005302D01*
X038588Y005362D01*
X038708Y005362D01*
X038768Y006227D02*
X038407Y006227D01*
X028617Y003320D02*
X028617Y003080D01*
X028557Y003020D01*
X028437Y003020D01*
X028377Y003080D01*
X028377Y003320D01*
X028437Y003380D01*
X028557Y003380D01*
X028617Y003320D01*
X028249Y003380D02*
X028249Y003020D01*
X028249Y003140D02*
X028009Y003380D01*
X027881Y003320D02*
X027821Y003380D01*
X027701Y003380D01*
X027641Y003320D01*
X027641Y003260D01*
X027881Y003020D01*
X027641Y003020D01*
X028009Y003020D02*
X028189Y003200D01*
X024768Y010365D02*
X024407Y010365D01*
X024528Y010365D02*
X024528Y010545D01*
X024588Y010605D01*
X024708Y010605D01*
X024768Y010545D01*
X024768Y010365D01*
X024528Y010485D02*
X024407Y010605D01*
X024407Y010733D02*
X024468Y010733D01*
X024708Y010974D01*
X024768Y010974D01*
X024768Y010733D01*
X024768Y011102D02*
X024768Y011342D01*
X024708Y011342D01*
X024468Y011102D01*
X024407Y011102D01*
X024043Y011197D02*
X023682Y011197D01*
X023682Y011077D02*
X023682Y011317D01*
X023923Y011077D02*
X024043Y011197D01*
X024043Y010949D02*
X023983Y010949D01*
X023743Y010708D01*
X023682Y010708D01*
X023682Y010580D02*
X023803Y010460D01*
X023803Y010520D02*
X023803Y010340D01*
X023682Y010340D02*
X024043Y010340D01*
X024043Y010520D01*
X023983Y010580D01*
X023863Y010580D01*
X023803Y010520D01*
X024043Y010708D02*
X024043Y010949D01*
X004997Y018855D02*
X004937Y018795D01*
X004817Y018795D01*
X004757Y018855D01*
X004629Y018855D02*
X004569Y018795D01*
X004449Y018795D01*
X004389Y018855D01*
X004389Y018915D01*
X004449Y018975D01*
X004629Y018975D01*
X004629Y018855D01*
X004629Y018975D02*
X004509Y019095D01*
X004389Y019155D01*
X004261Y019035D02*
X004141Y019155D01*
X004141Y018795D01*
X004261Y018795D02*
X004021Y018795D01*
X004757Y019095D02*
X004817Y019155D01*
X004937Y019155D01*
X004997Y019095D01*
X004997Y018855D01*
D11*
X005264Y018712D02*
X005264Y017938D01*
X003711Y017938D01*
X003711Y018712D01*
X005264Y018712D01*
X005661Y017937D02*
X005661Y017013D01*
X003714Y017013D01*
X003714Y017937D01*
X005661Y017937D01*
X005848Y017750D02*
X005773Y017675D01*
X006073Y017375D01*
X005998Y017300D01*
X005848Y017300D01*
X005773Y017375D01*
X005773Y017675D01*
X005848Y017750D02*
X005998Y017750D01*
X006073Y017675D01*
X006073Y017375D01*
X006233Y017375D02*
X006233Y017450D01*
X006308Y017525D01*
X006533Y017525D01*
X006533Y017375D01*
X006458Y017300D01*
X006308Y017300D01*
X006233Y017375D01*
X006383Y017675D02*
X006533Y017525D01*
X006383Y017675D02*
X006233Y017750D01*
X006693Y017675D02*
X006768Y017750D01*
X006919Y017750D01*
X006994Y017675D01*
X006994Y017375D01*
X006919Y017300D01*
X006768Y017300D01*
X006693Y017375D01*
X006683Y015444D02*
X006833Y015369D01*
X006983Y015219D01*
X006758Y015219D01*
X006683Y015144D01*
X006683Y015069D01*
X006758Y014994D01*
X006908Y014994D01*
X006983Y015069D01*
X006983Y015219D01*
X007144Y015069D02*
X007144Y015369D01*
X007219Y015444D01*
X007444Y015444D01*
X007444Y014994D01*
X007219Y014994D01*
X007144Y015069D01*
X007604Y014994D02*
X007904Y014994D01*
X007904Y015069D01*
X007604Y015369D01*
X007604Y015444D01*
X007904Y015444D01*
X006424Y014599D02*
X005500Y014599D01*
X005500Y012651D01*
X006424Y012651D01*
X006424Y014599D01*
X004871Y014599D02*
X003604Y014599D01*
X003604Y012651D01*
X004871Y012651D01*
X004871Y014599D01*
X004837Y012550D02*
X004612Y012550D01*
X004537Y012475D01*
X004537Y012325D01*
X004612Y012250D01*
X004837Y012250D01*
X004687Y012250D02*
X004537Y012100D01*
X004377Y012175D02*
X004302Y012100D01*
X004152Y012100D01*
X004077Y012175D01*
X004077Y012250D01*
X004152Y012325D01*
X004377Y012325D01*
X004377Y012175D01*
X004377Y012325D02*
X004227Y012475D01*
X004077Y012550D01*
X003917Y012400D02*
X003767Y012550D01*
X003767Y012100D01*
X003917Y012100D02*
X003616Y012100D01*
X004837Y012100D02*
X004837Y012550D01*
X005373Y012450D02*
X005448Y012525D01*
X005598Y012525D01*
X005673Y012450D01*
X005833Y012525D02*
X005983Y012450D01*
X006133Y012300D01*
X005908Y012300D01*
X005833Y012225D01*
X005833Y012150D01*
X005908Y012075D01*
X006058Y012075D01*
X006133Y012150D01*
X006133Y012300D01*
X006293Y012150D02*
X006368Y012075D01*
X006519Y012075D01*
X006594Y012150D01*
X006594Y012450D01*
X006519Y012525D01*
X006368Y012525D01*
X006293Y012450D01*
X005673Y012075D02*
X005373Y012375D01*
X005373Y012450D01*
X005373Y012075D02*
X005673Y012075D01*
X012323Y008500D02*
X012323Y008425D01*
X012623Y008125D01*
X012623Y008050D01*
X012783Y008125D02*
X012858Y008050D01*
X013008Y008050D01*
X013083Y008125D01*
X013083Y008425D01*
X013008Y008500D01*
X012858Y008500D01*
X012783Y008425D01*
X012623Y008500D02*
X012323Y008500D01*
X013240Y008500D02*
X013390Y008500D01*
X013315Y008500D02*
X013315Y008050D01*
X013390Y008050D02*
X013240Y008050D01*
X012499Y007527D02*
X011725Y007527D01*
X011725Y005973D01*
X012499Y005973D01*
X012499Y007527D01*
X014150Y007998D02*
X014924Y007998D01*
X014924Y009552D01*
X014150Y009552D01*
X014150Y007998D01*
X015482Y007386D02*
X017043Y007386D01*
X017043Y010514D01*
X015482Y010514D01*
X015482Y007386D01*
X015964Y007162D02*
X015964Y006238D01*
X017911Y006238D01*
X017911Y007162D01*
X015964Y007162D01*
X017032Y007386D02*
X018593Y007386D01*
X018593Y010514D01*
X017032Y010514D01*
X017032Y007386D01*
X017132Y005714D02*
X018693Y005714D01*
X018693Y002586D01*
X017132Y002586D01*
X017132Y005714D01*
X015399Y005827D02*
X014625Y005827D01*
X014625Y004273D01*
X015399Y004273D01*
X015399Y005827D01*
X014121Y004299D02*
X012854Y004299D01*
X012854Y002351D01*
X014121Y002351D01*
X014121Y004299D01*
X014914Y003337D02*
X014914Y002413D01*
X016861Y002413D01*
X016861Y003337D01*
X014914Y003337D01*
X012849Y003045D02*
X012849Y004305D01*
X012175Y004305D01*
X012175Y003045D01*
X012849Y003045D01*
X011539Y003613D02*
X011539Y004387D01*
X009986Y004387D01*
X009986Y003613D01*
X011539Y003613D01*
X007199Y005126D02*
X006275Y005126D01*
X006275Y007074D01*
X007199Y007074D01*
X007199Y005126D01*
X018707Y005714D02*
X018707Y002586D01*
X020268Y002586D01*
X020268Y005714D01*
X018707Y005714D01*
X027307Y005011D02*
X028868Y005011D01*
X028868Y008139D01*
X027307Y008139D01*
X027307Y005011D01*
X027498Y004765D02*
X027573Y004840D01*
X027723Y004840D01*
X027798Y004765D01*
X027798Y004690D01*
X027723Y004615D01*
X027498Y004615D01*
X027498Y004465D02*
X027498Y004765D01*
X027498Y004465D02*
X027573Y004390D01*
X027723Y004390D01*
X027798Y004465D01*
X027958Y004390D02*
X028258Y004390D01*
X027958Y004690D01*
X027958Y004765D01*
X028033Y004840D01*
X028183Y004840D01*
X028258Y004765D01*
X028418Y004765D02*
X028418Y004615D01*
X028493Y004540D01*
X028719Y004540D01*
X028719Y004390D02*
X028719Y004840D01*
X028493Y004840D01*
X028418Y004765D01*
X028569Y004540D02*
X028418Y004390D01*
X030148Y003950D02*
X030148Y003650D01*
X030223Y003575D01*
X030373Y003575D01*
X030448Y003650D01*
X030373Y003800D02*
X030148Y003800D01*
X030148Y003950D02*
X030223Y004025D01*
X030373Y004025D01*
X030448Y003950D01*
X030448Y003875D01*
X030373Y003800D01*
X030608Y003575D02*
X030908Y003575D01*
X030758Y003575D02*
X030758Y004025D01*
X030908Y003875D01*
X031068Y003950D02*
X031068Y003650D01*
X031143Y003575D01*
X031369Y003575D01*
X031369Y004025D01*
X031143Y004025D01*
X031068Y003950D01*
X034773Y006969D02*
X034773Y007044D01*
X034473Y007344D01*
X034473Y007419D01*
X034773Y007419D01*
X035008Y007419D02*
X035008Y006969D01*
X034933Y007194D02*
X035233Y007194D01*
X035008Y007419D01*
X035393Y007344D02*
X035468Y007419D01*
X035619Y007419D01*
X035694Y007344D01*
X035694Y007044D01*
X035619Y006969D01*
X035468Y006969D01*
X035393Y007044D01*
X038961Y004737D02*
X038961Y003963D01*
X040514Y003963D01*
X040514Y004737D01*
X038961Y004737D01*
X040723Y004625D02*
X040723Y004550D01*
X041023Y004250D01*
X041023Y004175D01*
X041258Y004175D02*
X041258Y004625D01*
X041483Y004400D01*
X041183Y004400D01*
X041023Y004625D02*
X040723Y004625D01*
X041643Y004550D02*
X041643Y004400D01*
X041718Y004325D01*
X041944Y004325D01*
X041944Y004175D02*
X041944Y004625D01*
X041718Y004625D01*
X041643Y004550D01*
X041794Y004325D02*
X041643Y004175D01*
X041660Y003782D02*
X041886Y003782D01*
X041886Y003331D01*
X041660Y003331D01*
X041585Y003406D01*
X041585Y003707D01*
X041660Y003782D01*
X041425Y003707D02*
X041350Y003782D01*
X041200Y003782D01*
X041125Y003707D01*
X041125Y003632D01*
X041425Y003331D01*
X041125Y003331D01*
X040965Y003331D02*
X040665Y003632D01*
X040665Y003707D01*
X040740Y003782D01*
X040890Y003782D01*
X040965Y003707D01*
X040965Y003331D02*
X040665Y003331D01*
X045650Y003223D02*
X046424Y003223D01*
X046424Y004777D01*
X045650Y004777D01*
X045650Y003223D01*
X047530Y003375D02*
X047530Y003450D01*
X047605Y003525D01*
X047830Y003525D01*
X047830Y003375D01*
X047755Y003300D01*
X047605Y003300D01*
X047530Y003375D01*
X047680Y003675D02*
X047830Y003525D01*
X047680Y003675D02*
X047530Y003750D01*
X047990Y003675D02*
X048065Y003750D01*
X048215Y003750D01*
X048291Y003675D01*
X048291Y003375D01*
X048215Y003300D01*
X048065Y003300D01*
X047990Y003375D01*
X048447Y003300D02*
X048597Y003300D01*
X048522Y003300D02*
X048522Y003750D01*
X048597Y003750D02*
X048447Y003750D01*
X049833Y003738D02*
X049833Y004412D01*
X051092Y004412D01*
X051092Y003738D01*
X049833Y003738D01*
X049833Y004563D02*
X051092Y004563D01*
X051092Y005237D01*
X049833Y005237D01*
X049833Y004563D01*
X049836Y005238D02*
X049836Y006012D01*
X051389Y006012D01*
X051389Y005238D01*
X049836Y005238D01*
X049836Y006013D02*
X049836Y006787D01*
X051389Y006787D01*
X051389Y006013D01*
X049836Y006013D01*
X048764Y005963D02*
X048764Y006737D01*
X047211Y006737D01*
X047211Y005963D01*
X048764Y005963D01*
X046424Y006327D02*
X046424Y004773D01*
X045650Y004773D01*
X045650Y006327D01*
X046424Y006327D01*
X046524Y008348D02*
X045750Y008348D01*
X045750Y009902D01*
X046524Y009902D01*
X046524Y008348D01*
X046525Y008348D02*
X047299Y008348D01*
X047299Y009902D01*
X046525Y009902D01*
X046525Y008348D01*
X047300Y008348D02*
X048074Y008348D01*
X048074Y009902D01*
X047300Y009902D01*
X047300Y008348D01*
X048075Y008348D02*
X048849Y008348D01*
X048849Y009902D01*
X048075Y009902D01*
X048075Y008348D01*
X048850Y008348D02*
X049624Y008348D01*
X049624Y009902D01*
X048850Y009902D01*
X048850Y008348D01*
X049625Y008348D02*
X050399Y008348D01*
X050399Y009902D01*
X049625Y009902D01*
X049625Y008348D01*
X047314Y010863D02*
X045761Y010863D01*
X045761Y011637D01*
X047314Y011637D01*
X047314Y010863D01*
X045749Y009902D02*
X044975Y009902D01*
X044975Y008348D01*
X045749Y008348D01*
X045749Y009902D01*
X044974Y009605D02*
X044300Y009605D01*
X044300Y008345D01*
X044974Y008345D01*
X044974Y009605D01*
X044975Y012248D02*
X045749Y012248D01*
X045749Y013802D01*
X044975Y013802D01*
X044975Y012248D01*
X045761Y012238D02*
X045761Y013012D01*
X047314Y013012D01*
X047314Y012238D01*
X045761Y012238D01*
X045761Y013013D02*
X045761Y013787D01*
X047314Y013787D01*
X047314Y013013D01*
X045761Y013013D01*
X046625Y013798D02*
X047399Y013798D01*
X047399Y015352D01*
X046625Y015352D01*
X046625Y013798D01*
X047400Y013798D02*
X048174Y013798D01*
X048174Y015352D01*
X047400Y015352D01*
X047400Y013798D01*
X048175Y013795D02*
X048849Y013795D01*
X048849Y015055D01*
X048175Y015055D01*
X048175Y013795D01*
X049275Y013495D02*
X049275Y014755D01*
X049949Y014755D01*
X049949Y013495D01*
X049275Y013495D01*
X049950Y013498D02*
X050724Y013498D01*
X050724Y015052D01*
X049950Y015052D01*
X049950Y013498D01*
X049925Y011950D02*
X050225Y011950D01*
X050225Y011725D01*
X050075Y011800D01*
X050000Y011800D01*
X049925Y011725D01*
X049925Y011575D01*
X050000Y011500D01*
X050150Y011500D01*
X050225Y011575D01*
X050385Y011575D02*
X050460Y011500D01*
X050610Y011500D01*
X050686Y011575D01*
X050686Y011875D01*
X050610Y011950D01*
X050460Y011950D01*
X050385Y011875D01*
X050842Y011950D02*
X050992Y011950D01*
X050917Y011950D02*
X050917Y011500D01*
X050992Y011500D02*
X050842Y011500D01*
X056339Y012913D02*
X056339Y013787D01*
X058286Y013787D01*
X058286Y012913D01*
X056339Y012913D01*
X058289Y012913D02*
X058289Y013787D01*
X060236Y013787D01*
X060236Y012913D01*
X058289Y012913D01*
X048689Y017813D02*
X048689Y018587D01*
X047136Y018587D01*
X047136Y017813D01*
X048689Y017813D01*
X046417Y019425D02*
X046267Y019425D01*
X046342Y019425D02*
X046342Y019875D01*
X046417Y019875D02*
X046267Y019875D01*
X046111Y019800D02*
X046111Y019500D01*
X046035Y019425D01*
X045885Y019425D01*
X045810Y019500D01*
X045650Y019650D02*
X045350Y019650D01*
X045425Y019425D02*
X045425Y019875D01*
X045650Y019650D01*
X045810Y019800D02*
X045885Y019875D01*
X046035Y019875D01*
X046111Y019800D01*
X047486Y020088D02*
X049039Y020088D01*
X049039Y020862D01*
X047486Y020862D01*
X047486Y020088D01*
X047486Y020863D02*
X049039Y020863D01*
X049039Y021637D01*
X047486Y021637D01*
X047486Y020863D01*
X047475Y021820D02*
X048149Y021820D01*
X048149Y023080D01*
X047475Y023080D01*
X047475Y021820D01*
X048336Y021638D02*
X048336Y022412D01*
X049889Y022412D01*
X049889Y021638D01*
X048336Y021638D01*
X048361Y022688D02*
X048361Y023462D01*
X049914Y023462D01*
X049914Y022688D01*
X048361Y022688D01*
X048361Y023463D02*
X048361Y024237D01*
X049914Y024237D01*
X049914Y023463D01*
X048361Y023463D01*
X049750Y024448D02*
X050524Y024448D01*
X050524Y026002D01*
X049750Y026002D01*
X049750Y024448D01*
X050525Y024448D02*
X051299Y024448D01*
X051299Y026002D01*
X050525Y026002D01*
X050525Y024448D01*
X051300Y024445D02*
X051974Y024445D01*
X051974Y025705D01*
X051300Y025705D01*
X051300Y024445D01*
X050999Y027673D02*
X050225Y027673D01*
X050225Y029227D01*
X050999Y029227D01*
X050999Y027673D01*
X051049Y029676D02*
X050175Y029676D01*
X050175Y031624D01*
X051049Y031624D01*
X051049Y029676D01*
X046862Y031775D02*
X046787Y031700D01*
X046637Y031700D01*
X046562Y031775D01*
X046402Y031775D02*
X046327Y031700D01*
X046177Y031700D01*
X046102Y031775D01*
X046102Y031850D01*
X046177Y031925D01*
X046252Y031925D01*
X046177Y031925D02*
X046102Y032000D01*
X046102Y032075D01*
X046177Y032150D01*
X046327Y032150D01*
X046402Y032075D01*
X046562Y032075D02*
X046637Y032150D01*
X046787Y032150D01*
X046862Y032075D01*
X046862Y031775D01*
X045942Y031775D02*
X045942Y031925D01*
X045716Y031925D01*
X045641Y031850D01*
X045641Y031775D01*
X045716Y031700D01*
X045867Y031700D01*
X045942Y031775D01*
X045942Y031925D02*
X045792Y032075D01*
X045641Y032150D01*
X044574Y029352D02*
X043800Y029352D01*
X043800Y027798D01*
X044574Y027798D01*
X044574Y029352D01*
X043799Y029352D02*
X043025Y029352D01*
X043025Y027798D01*
X043799Y027798D01*
X043799Y029352D01*
X042064Y028512D02*
X042064Y027738D01*
X040511Y027738D01*
X040511Y028512D01*
X042064Y028512D01*
X041336Y026412D02*
X041336Y025638D01*
X042889Y025638D01*
X042889Y026412D01*
X041336Y026412D01*
X043058Y024862D02*
X043058Y024188D01*
X044317Y024188D01*
X044317Y024862D01*
X043058Y024862D01*
X043058Y024187D02*
X043058Y023513D01*
X044317Y023513D01*
X044317Y024187D01*
X043058Y024187D01*
X043058Y023512D02*
X043058Y022838D01*
X044317Y022838D01*
X044317Y023512D01*
X043058Y023512D01*
X043033Y021912D02*
X043033Y021238D01*
X044292Y021238D01*
X044292Y021912D01*
X043033Y021912D01*
X043033Y021237D02*
X043033Y020563D01*
X044292Y020563D01*
X044292Y021237D01*
X043033Y021237D01*
X043033Y020562D02*
X043033Y019888D01*
X044292Y019888D01*
X044292Y020562D01*
X043033Y020562D01*
X042536Y019437D02*
X042536Y018663D01*
X044089Y018663D01*
X044089Y019437D01*
X042536Y019437D01*
X042975Y018202D02*
X042975Y016648D01*
X043749Y016648D01*
X043749Y018202D01*
X042975Y018202D01*
X039649Y018727D02*
X039649Y017173D01*
X038875Y017173D01*
X038875Y018727D01*
X039649Y018727D01*
X035444Y016100D02*
X035444Y015800D01*
X035369Y015725D01*
X035218Y015725D01*
X035143Y015800D01*
X034983Y015950D02*
X034683Y015950D01*
X034523Y015950D02*
X034298Y015950D01*
X034223Y015875D01*
X034223Y015800D01*
X034298Y015725D01*
X034448Y015725D01*
X034523Y015800D01*
X034523Y015950D01*
X034373Y016100D01*
X034223Y016175D01*
X034758Y016175D02*
X034758Y015725D01*
X034983Y015950D02*
X034758Y016175D01*
X035143Y016100D02*
X035218Y016175D01*
X035369Y016175D01*
X035444Y016100D01*
X033143Y017861D02*
X031582Y017861D01*
X031582Y020989D01*
X033143Y020989D01*
X033143Y017861D01*
X031593Y017861D02*
X030032Y017861D01*
X030032Y020989D01*
X031593Y020989D01*
X031593Y017861D01*
X031594Y016125D02*
X031368Y016125D01*
X031293Y016050D01*
X031293Y015750D01*
X031368Y015675D01*
X031594Y015675D01*
X031594Y016125D01*
X031133Y015975D02*
X030983Y016125D01*
X030983Y015675D01*
X031133Y015675D02*
X030833Y015675D01*
X030673Y015750D02*
X030598Y015675D01*
X030448Y015675D01*
X030373Y015750D01*
X030373Y015825D01*
X030448Y015900D01*
X030598Y015900D01*
X030673Y015975D01*
X030673Y016050D01*
X030598Y016125D01*
X030448Y016125D01*
X030373Y016050D01*
X030373Y015975D01*
X030448Y015900D01*
X030598Y015900D02*
X030673Y015825D01*
X030673Y015750D01*
X028721Y013224D02*
X027454Y013224D01*
X027454Y011276D01*
X028721Y011276D01*
X028721Y013224D01*
X028862Y012896D02*
X028862Y012596D01*
X028862Y012746D02*
X029313Y012746D01*
X029163Y012596D01*
X029088Y012436D02*
X029088Y012135D01*
X029313Y012361D01*
X028862Y012361D01*
X028938Y011975D02*
X028862Y011900D01*
X028862Y011750D01*
X028938Y011675D01*
X029238Y011675D01*
X029313Y011750D01*
X029313Y011900D01*
X029238Y011975D01*
X028868Y011264D02*
X027307Y011264D01*
X027307Y008136D01*
X028868Y008136D01*
X028868Y011264D01*
X028962Y010396D02*
X028962Y010096D01*
X028962Y010246D02*
X029413Y010246D01*
X029263Y010096D01*
X029263Y009936D02*
X029188Y009861D01*
X029113Y009936D01*
X029038Y009936D01*
X028962Y009861D01*
X028962Y009710D01*
X029038Y009635D01*
X028962Y009475D02*
X029113Y009325D01*
X029113Y009400D02*
X029113Y009175D01*
X028962Y009175D02*
X029413Y009175D01*
X029413Y009400D01*
X029338Y009475D01*
X029188Y009475D01*
X029113Y009400D01*
X029338Y009635D02*
X029413Y009710D01*
X029413Y009861D01*
X029338Y009936D01*
X029263Y009936D01*
X029188Y009861D02*
X029188Y009786D01*
X024974Y011448D02*
X024974Y013002D01*
X024200Y013002D01*
X024200Y011448D01*
X024974Y011448D01*
X024199Y011448D02*
X023425Y011448D01*
X023425Y013002D01*
X024199Y013002D01*
X024199Y011448D01*
X024399Y013473D02*
X023625Y013473D01*
X023625Y015027D01*
X024399Y015027D01*
X024399Y013473D01*
X023624Y013473D02*
X022850Y013473D01*
X022850Y015027D01*
X023624Y015027D01*
X023624Y013473D01*
X024389Y015013D02*
X022836Y015013D01*
X022836Y015787D01*
X024389Y015787D01*
X024389Y015013D01*
X024400Y015023D02*
X025174Y015023D01*
X025174Y016577D01*
X024400Y016577D01*
X024400Y015023D01*
X025175Y015023D02*
X025949Y015023D01*
X025949Y016577D01*
X025175Y016577D01*
X025175Y015023D01*
X024389Y015813D02*
X024389Y016587D01*
X022836Y016587D01*
X022836Y015813D01*
X024389Y015813D01*
X024374Y016623D02*
X023600Y016623D01*
X023600Y018177D01*
X024374Y018177D01*
X024374Y016623D01*
X022824Y016577D02*
X022050Y016577D01*
X022050Y015023D01*
X022824Y015023D01*
X022824Y016577D01*
X021989Y016888D02*
X021989Y017662D01*
X020436Y017662D01*
X020436Y016888D01*
X021989Y016888D01*
X021692Y017663D02*
X021692Y018337D01*
X020433Y018337D01*
X020433Y017663D01*
X021692Y017663D01*
X022264Y018238D02*
X022264Y019112D01*
X024211Y019112D01*
X024211Y018238D01*
X022264Y018238D01*
X022250Y019098D02*
X023024Y019098D01*
X023024Y020652D01*
X022250Y020652D01*
X022250Y019098D01*
X023011Y019113D02*
X024564Y019113D01*
X024564Y019887D01*
X023011Y019887D01*
X023011Y019113D01*
X023011Y019888D02*
X024564Y019888D01*
X024564Y020662D01*
X023011Y020662D01*
X023011Y019888D01*
X021863Y020515D02*
X021863Y020665D01*
X021863Y020590D02*
X021412Y020590D01*
X021412Y020515D02*
X021412Y020665D01*
X021488Y020822D02*
X021412Y020897D01*
X021412Y021047D01*
X021488Y021122D01*
X021488Y021282D02*
X021563Y021282D01*
X021638Y021357D01*
X021638Y021508D01*
X021563Y021583D01*
X021488Y021583D01*
X021412Y021508D01*
X021412Y021357D01*
X021488Y021282D01*
X021638Y021357D02*
X021713Y021282D01*
X021788Y021282D01*
X021863Y021357D01*
X021863Y021508D01*
X021788Y021583D01*
X021713Y021583D01*
X021638Y021508D01*
X021788Y021122D02*
X021863Y021047D01*
X021863Y020897D01*
X021788Y020822D01*
X021488Y020822D01*
X021214Y020588D02*
X021214Y021362D01*
X019661Y021362D01*
X019661Y020588D01*
X021214Y020588D01*
X019367Y020438D02*
X019367Y021112D01*
X018108Y021112D01*
X018108Y020438D01*
X019367Y020438D01*
X018724Y020302D02*
X017950Y020302D01*
X017950Y018748D01*
X018724Y018748D01*
X018724Y020302D01*
X017949Y020302D02*
X017175Y020302D01*
X017175Y018748D01*
X017949Y018748D01*
X017949Y020302D01*
X016224Y018502D02*
X015450Y018502D01*
X015450Y016948D01*
X016224Y016948D01*
X016224Y018502D01*
X015439Y018512D02*
X015439Y017738D01*
X013886Y017738D01*
X013886Y018512D01*
X015439Y018512D01*
X015439Y017737D02*
X015439Y016963D01*
X013886Y016963D01*
X013886Y017737D01*
X015439Y017737D01*
X013689Y017112D02*
X012136Y017112D01*
X012136Y016338D01*
X013689Y016338D01*
X013689Y017112D01*
X018458Y017437D02*
X018458Y016763D01*
X019717Y016763D01*
X019717Y017437D01*
X018458Y017437D01*
X019755Y014575D02*
X019905Y014575D01*
X019980Y014500D01*
X019980Y014425D01*
X019905Y014350D01*
X019680Y014350D01*
X019680Y014200D02*
X019680Y014500D01*
X019755Y014575D01*
X019680Y014200D02*
X019755Y014125D01*
X019905Y014125D01*
X019980Y014200D01*
X020140Y014200D02*
X020215Y014125D01*
X020365Y014125D01*
X020441Y014200D01*
X020441Y014500D01*
X020365Y014575D01*
X020215Y014575D01*
X020140Y014500D01*
X020597Y014575D02*
X020747Y014575D01*
X020672Y014575D02*
X020672Y014125D01*
X020747Y014125D02*
X020597Y014125D01*
X024387Y018550D02*
X024387Y018800D01*
X024512Y018675D02*
X024262Y018675D01*
X024561Y019113D02*
X026114Y019113D01*
X026114Y019887D01*
X024561Y019887D01*
X024561Y019113D01*
X024561Y019888D02*
X024561Y020662D01*
X026114Y020662D01*
X026114Y019888D01*
X024561Y019888D01*
X026811Y022463D02*
X028364Y022463D01*
X028364Y023237D01*
X026811Y023237D01*
X026811Y022463D01*
X028364Y022388D02*
X028364Y023262D01*
X030311Y023262D01*
X030311Y022388D01*
X028364Y022388D01*
X027599Y023748D02*
X026825Y023748D01*
X026825Y025302D01*
X027599Y025302D01*
X027599Y023748D01*
X025899Y023623D02*
X025125Y023623D01*
X025125Y025177D01*
X025899Y025177D01*
X025899Y023623D01*
X025124Y023623D02*
X024350Y023623D01*
X024350Y025177D01*
X025124Y025177D01*
X025124Y023623D01*
X025889Y025163D02*
X024336Y025163D01*
X024336Y025937D01*
X025889Y025937D01*
X025889Y025163D01*
X026861Y025438D02*
X026861Y026212D01*
X028414Y026212D01*
X028414Y025438D01*
X026861Y025438D01*
X026861Y026213D02*
X028414Y026213D01*
X028414Y026987D01*
X026861Y026987D01*
X026861Y026213D01*
X026861Y026988D02*
X026861Y027762D01*
X028414Y027762D01*
X028414Y026988D01*
X026861Y026988D01*
X027158Y027763D02*
X028417Y027763D01*
X028417Y028437D01*
X027158Y028437D01*
X027158Y027763D01*
X023788Y027877D02*
X023713Y027802D01*
X023413Y027802D01*
X023337Y027877D01*
X023337Y028027D01*
X023413Y028102D01*
X023413Y028262D02*
X023337Y028337D01*
X023337Y028488D01*
X023413Y028563D01*
X023488Y028563D01*
X023563Y028488D01*
X023563Y028412D01*
X023563Y028488D02*
X023638Y028563D01*
X023713Y028563D01*
X023788Y028488D01*
X023788Y028337D01*
X023713Y028262D01*
X023713Y028102D02*
X023788Y028027D01*
X023788Y027877D01*
X023788Y027645D02*
X023788Y027495D01*
X023788Y027570D02*
X023337Y027570D01*
X023337Y027495D02*
X023337Y027645D01*
X018589Y026512D02*
X018589Y025738D01*
X017036Y025738D01*
X017036Y026512D01*
X018589Y026512D01*
X018589Y024937D02*
X017036Y024937D01*
X017036Y024163D01*
X018589Y024163D01*
X018589Y024937D01*
X013072Y023950D02*
X012922Y023950D01*
X012997Y023950D02*
X012997Y023500D01*
X013072Y023500D02*
X012922Y023500D01*
X012766Y023575D02*
X012690Y023500D01*
X012540Y023500D01*
X012465Y023575D01*
X012305Y023500D02*
X012005Y023500D01*
X012305Y023500D02*
X012005Y023800D01*
X012005Y023875D01*
X012080Y023950D01*
X012230Y023950D01*
X012305Y023875D01*
X012465Y023875D02*
X012540Y023950D01*
X012690Y023950D01*
X012766Y023875D01*
X012766Y023575D01*
X011711Y025338D02*
X011711Y026212D01*
X009764Y026212D01*
X009764Y025338D01*
X011711Y025338D01*
X009712Y025775D02*
X009462Y025775D01*
X009587Y025650D02*
X009587Y025900D01*
X009649Y025127D02*
X008875Y025127D01*
X008875Y023573D01*
X009649Y023573D01*
X009649Y025127D01*
X009649Y023577D02*
X008875Y023577D01*
X008875Y022023D01*
X009649Y022023D01*
X009649Y023577D01*
X009883Y022112D02*
X009883Y021438D01*
X011142Y021438D01*
X011142Y022112D01*
X009883Y022112D01*
X006974Y022348D02*
X006974Y023902D01*
X006200Y023902D01*
X006200Y022348D01*
X006974Y022348D01*
X006199Y022348D02*
X006199Y023902D01*
X005425Y023902D01*
X005425Y022348D01*
X006199Y022348D01*
X007011Y029888D02*
X007011Y030662D01*
X008564Y030662D01*
X008564Y029888D01*
X007011Y029888D01*
X006717Y029988D02*
X006717Y030662D01*
X005458Y030662D01*
X005458Y029988D01*
X006717Y029988D01*
X008380Y031550D02*
X008680Y031550D01*
X008530Y031550D02*
X008530Y032000D01*
X008680Y031850D01*
X008840Y031925D02*
X008915Y032000D01*
X009065Y032000D01*
X009141Y031925D01*
X009141Y031625D01*
X009065Y031550D01*
X008915Y031550D01*
X008840Y031625D01*
X009297Y031550D02*
X009447Y031550D01*
X009372Y031550D02*
X009372Y032000D01*
X009447Y032000D02*
X009297Y032000D01*
X030116Y021500D02*
X030191Y021575D01*
X030342Y021575D01*
X030417Y021500D01*
X030577Y021350D02*
X030877Y021350D01*
X030652Y021575D01*
X030652Y021125D01*
X030417Y021125D02*
X030116Y021425D01*
X030116Y021500D01*
X030116Y021125D02*
X030417Y021125D01*
X031037Y021125D02*
X031187Y021275D01*
X031112Y021275D02*
X031337Y021275D01*
X031337Y021125D02*
X031337Y021575D01*
X031112Y021575D01*
X031037Y021500D01*
X031037Y021350D01*
X031112Y021275D01*
X031823Y021100D02*
X032123Y021100D01*
X031973Y021100D02*
X031973Y021550D01*
X032123Y021400D01*
X032283Y021325D02*
X032583Y021325D01*
X032358Y021550D01*
X032358Y021100D01*
X032743Y021100D02*
X032894Y021250D01*
X032818Y021250D02*
X033044Y021250D01*
X033044Y021100D02*
X033044Y021550D01*
X032818Y021550D01*
X032743Y021475D01*
X032743Y021325D01*
X032818Y021250D01*
X031742Y031238D02*
X030483Y031238D01*
X030483Y031912D01*
X031742Y031912D01*
X031742Y031238D01*
X032064Y032713D02*
X030511Y032713D01*
X030511Y033487D01*
X032064Y033487D01*
X032064Y032713D01*
X032064Y033488D02*
X030511Y033488D01*
X030511Y034262D01*
X032064Y034262D01*
X032064Y033488D01*
X061189Y028918D02*
X061339Y029068D01*
X061489Y029068D01*
X061639Y028918D01*
X061639Y028758D02*
X061564Y028758D01*
X061264Y028458D01*
X061189Y028458D01*
X061264Y028298D02*
X061189Y028223D01*
X061189Y027998D01*
X061639Y027998D01*
X061639Y028223D01*
X061564Y028298D01*
X061489Y028298D01*
X061414Y028223D01*
X061414Y027998D01*
X061339Y027837D02*
X061264Y027837D01*
X061189Y027762D01*
X061189Y027612D01*
X061264Y027537D01*
X061414Y027687D02*
X061414Y027762D01*
X061339Y027837D01*
X061414Y027762D02*
X061489Y027837D01*
X061564Y027837D01*
X061639Y027762D01*
X061639Y027612D01*
X061564Y027537D01*
X061489Y027379D02*
X061489Y027304D01*
X061339Y027153D01*
X061189Y027153D02*
X061489Y027153D01*
X061889Y027229D02*
X061889Y027379D01*
X061964Y027454D01*
X061889Y027229D02*
X061964Y027153D01*
X062264Y027153D01*
X062339Y027229D01*
X062339Y027379D01*
X062264Y027454D01*
X062339Y026997D02*
X062339Y026847D01*
X062339Y026922D02*
X061889Y026922D01*
X061889Y026847D02*
X061889Y026997D01*
X061964Y026686D02*
X062264Y026686D01*
X062339Y026611D01*
X062339Y026386D01*
X061889Y026386D01*
X061889Y026611D01*
X061964Y026686D01*
X061639Y026458D02*
X061564Y026533D01*
X061489Y026533D01*
X061414Y026458D01*
X061414Y026308D01*
X061489Y026233D01*
X061564Y026233D01*
X061639Y026308D01*
X061639Y026458D01*
X061414Y026458D02*
X061339Y026533D01*
X061264Y026533D01*
X061189Y026458D01*
X061189Y026308D01*
X061264Y026233D01*
X061339Y026233D01*
X061414Y026308D01*
X061189Y026073D02*
X061189Y025772D01*
X061189Y025922D02*
X061639Y025922D01*
X061489Y025772D01*
X061564Y025612D02*
X061264Y025312D01*
X061189Y025387D01*
X061189Y025537D01*
X061264Y025612D01*
X061564Y025612D01*
X061639Y025537D01*
X061639Y025387D01*
X061564Y025312D01*
X061264Y025312D01*
X061189Y025152D02*
X061189Y024851D01*
X061489Y025152D01*
X061564Y025152D01*
X061639Y025077D01*
X061639Y024927D01*
X061564Y024851D01*
X061639Y024691D02*
X061189Y024391D01*
X061264Y024231D02*
X061189Y024156D01*
X061189Y024006D01*
X061264Y023931D01*
X061339Y023931D01*
X061414Y024006D01*
X061414Y024156D01*
X061339Y024231D01*
X061264Y024231D01*
X061414Y024156D02*
X061489Y024231D01*
X061564Y024231D01*
X061639Y024156D01*
X061639Y024006D01*
X061564Y023931D01*
X061489Y023931D01*
X061414Y024006D01*
X061264Y023771D02*
X061189Y023696D01*
X061189Y023545D01*
X061264Y023470D01*
X061564Y023771D01*
X061264Y023771D01*
X061564Y023771D02*
X061639Y023696D01*
X061639Y023545D01*
X061564Y023470D01*
X061264Y023470D01*
X061189Y023314D02*
X061339Y023163D01*
X061489Y023163D01*
X061639Y023314D01*
X061889Y023464D02*
X061889Y023163D01*
X062339Y023163D01*
X062339Y023464D01*
X062339Y023624D02*
X061889Y023624D01*
X061889Y023924D01*
X061889Y024084D02*
X061889Y024384D01*
X061889Y024084D02*
X061964Y024084D01*
X062264Y024384D01*
X062339Y024384D01*
X062339Y024084D01*
X062339Y023924D02*
X062339Y023624D01*
X062114Y023624D02*
X062114Y023774D01*
X062114Y023314D02*
X062114Y023163D01*
X061964Y025005D02*
X061889Y025080D01*
X061889Y025230D01*
X061964Y025305D01*
X061889Y025465D02*
X062339Y025465D01*
X062339Y025766D01*
X062114Y025615D02*
X062114Y025465D01*
X062264Y025305D02*
X062339Y025230D01*
X062339Y025080D01*
X062264Y025005D01*
X061964Y025005D01*
X062114Y025926D02*
X062114Y026226D01*
X061414Y028223D02*
X061339Y028298D01*
X061264Y028298D01*
X061639Y028458D02*
X061639Y028758D01*
D12*
X019162Y028675D02*
X019164Y028688D01*
X019169Y028701D01*
X019178Y028712D01*
X019189Y028719D01*
X019202Y028724D01*
X019215Y028725D01*
X019229Y028722D01*
X019241Y028716D01*
X019251Y028707D01*
X019258Y028695D01*
X019262Y028682D01*
X019262Y028668D01*
X019258Y028655D01*
X019251Y028643D01*
X019241Y028634D01*
X019229Y028628D01*
X019215Y028625D01*
X019202Y028626D01*
X019189Y028631D01*
X019178Y028638D01*
X019169Y028649D01*
X019164Y028662D01*
X019162Y028675D01*
X019162Y029275D02*
X019164Y029288D01*
X019169Y029301D01*
X019178Y029312D01*
X019189Y029319D01*
X019202Y029324D01*
X019215Y029325D01*
X019229Y029322D01*
X019241Y029316D01*
X019251Y029307D01*
X019258Y029295D01*
X019262Y029282D01*
X019262Y029268D01*
X019258Y029255D01*
X019251Y029243D01*
X019241Y029234D01*
X019229Y029228D01*
X019215Y029225D01*
X019202Y029226D01*
X019189Y029231D01*
X019178Y029238D01*
X019169Y029249D01*
X019164Y029262D01*
X019162Y029275D01*
X019162Y029875D02*
X019164Y029888D01*
X019169Y029901D01*
X019178Y029912D01*
X019189Y029919D01*
X019202Y029924D01*
X019215Y029925D01*
X019229Y029922D01*
X019241Y029916D01*
X019251Y029907D01*
X019258Y029895D01*
X019262Y029882D01*
X019262Y029868D01*
X019258Y029855D01*
X019251Y029843D01*
X019241Y029834D01*
X019229Y029828D01*
X019215Y029825D01*
X019202Y029826D01*
X019189Y029831D01*
X019178Y029838D01*
X019169Y029849D01*
X019164Y029862D01*
X019162Y029875D01*
X019162Y030475D02*
X019164Y030488D01*
X019169Y030501D01*
X019178Y030512D01*
X019189Y030519D01*
X019202Y030524D01*
X019215Y030525D01*
X019229Y030522D01*
X019241Y030516D01*
X019251Y030507D01*
X019258Y030495D01*
X019262Y030482D01*
X019262Y030468D01*
X019258Y030455D01*
X019251Y030443D01*
X019241Y030434D01*
X019229Y030428D01*
X019215Y030425D01*
X019202Y030426D01*
X019189Y030431D01*
X019178Y030438D01*
X019169Y030449D01*
X019164Y030462D01*
X019162Y030475D01*
X019162Y031075D02*
X019164Y031088D01*
X019169Y031101D01*
X019178Y031112D01*
X019189Y031119D01*
X019202Y031124D01*
X019215Y031125D01*
X019229Y031122D01*
X019241Y031116D01*
X019251Y031107D01*
X019258Y031095D01*
X019262Y031082D01*
X019262Y031068D01*
X019258Y031055D01*
X019251Y031043D01*
X019241Y031034D01*
X019229Y031028D01*
X019215Y031025D01*
X019202Y031026D01*
X019189Y031031D01*
X019178Y031038D01*
X019169Y031049D01*
X019164Y031062D01*
X019162Y031075D01*
X019162Y031675D02*
X019164Y031688D01*
X019169Y031701D01*
X019178Y031712D01*
X019189Y031719D01*
X019202Y031724D01*
X019215Y031725D01*
X019229Y031722D01*
X019241Y031716D01*
X019251Y031707D01*
X019258Y031695D01*
X019262Y031682D01*
X019262Y031668D01*
X019258Y031655D01*
X019251Y031643D01*
X019241Y031634D01*
X019229Y031628D01*
X019215Y031625D01*
X019202Y031626D01*
X019189Y031631D01*
X019178Y031638D01*
X019169Y031649D01*
X019164Y031662D01*
X019162Y031675D01*
X019162Y032275D02*
X019164Y032288D01*
X019169Y032301D01*
X019178Y032312D01*
X019189Y032319D01*
X019202Y032324D01*
X019215Y032325D01*
X019229Y032322D01*
X019241Y032316D01*
X019251Y032307D01*
X019258Y032295D01*
X019262Y032282D01*
X019262Y032268D01*
X019258Y032255D01*
X019251Y032243D01*
X019241Y032234D01*
X019229Y032228D01*
X019215Y032225D01*
X019202Y032226D01*
X019189Y032231D01*
X019178Y032238D01*
X019169Y032249D01*
X019164Y032262D01*
X019162Y032275D01*
X019162Y032875D02*
X019164Y032888D01*
X019169Y032901D01*
X019178Y032912D01*
X019189Y032919D01*
X019202Y032924D01*
X019215Y032925D01*
X019229Y032922D01*
X019241Y032916D01*
X019251Y032907D01*
X019258Y032895D01*
X019262Y032882D01*
X019262Y032868D01*
X019258Y032855D01*
X019251Y032843D01*
X019241Y032834D01*
X019229Y032828D01*
X019215Y032825D01*
X019202Y032826D01*
X019189Y032831D01*
X019178Y032838D01*
X019169Y032849D01*
X019164Y032862D01*
X019162Y032875D01*
X005386Y015501D02*
X004973Y015225D01*
X005386Y014930D01*
X005386Y015501D01*
D13*
X012607Y017210D02*
X012607Y017560D01*
X012607Y017210D02*
X012927Y017210D01*
X013167Y017640D02*
X013167Y017960D01*
X012927Y018390D02*
X012767Y018390D01*
X012607Y018390D01*
X012607Y018040D01*
X012897Y018270D02*
X012877Y018270D01*
X012858Y018274D01*
X012839Y018280D01*
X012821Y018290D01*
X012806Y018302D01*
X012792Y018316D01*
X012781Y018333D01*
X012773Y018351D01*
X012769Y018371D01*
X012767Y018390D01*
X019676Y018470D02*
X021149Y018470D01*
X020687Y019925D02*
X021037Y020175D01*
X020687Y020175D01*
X020687Y019925D01*
X020687Y019947D02*
X020718Y019947D01*
X020687Y020005D02*
X020800Y020005D01*
X020881Y020064D02*
X020687Y020064D01*
X020687Y020122D02*
X020963Y020122D01*
X021149Y020430D02*
X020532Y020430D01*
X020530Y020409D01*
X020525Y020389D01*
X020516Y020370D01*
X020504Y020353D01*
X020489Y020338D01*
X020472Y020326D01*
X020453Y020317D01*
X020433Y020312D01*
X020412Y020310D01*
X020391Y020312D01*
X020371Y020317D01*
X020352Y020326D01*
X020335Y020338D01*
X020320Y020353D01*
X020308Y020370D01*
X020299Y020389D01*
X020294Y020409D01*
X020292Y020430D01*
X019676Y020430D01*
X020142Y024000D02*
X020667Y024000D01*
X020669Y024021D01*
X020674Y024041D01*
X020683Y024060D01*
X020695Y024077D01*
X020710Y024092D01*
X020727Y024104D01*
X020746Y024113D01*
X020766Y024118D01*
X020787Y024120D01*
X020808Y024118D01*
X020828Y024113D01*
X020847Y024104D01*
X020864Y024092D01*
X020879Y024077D01*
X020891Y024060D01*
X020900Y024041D01*
X020905Y024021D01*
X020907Y024000D01*
X021432Y024000D01*
X020662Y024200D02*
X020662Y024450D01*
X020312Y024200D01*
X020662Y024200D01*
X020662Y024217D02*
X020336Y024217D01*
X020418Y024276D02*
X020662Y024276D01*
X020662Y024334D02*
X020500Y024334D01*
X020582Y024393D02*
X020662Y024393D01*
X020142Y024900D02*
X021432Y024900D01*
X024692Y026225D02*
X024692Y030125D01*
X025217Y030125D01*
X025219Y030104D01*
X025224Y030084D01*
X025233Y030065D01*
X025245Y030048D01*
X025260Y030033D01*
X025277Y030021D01*
X025296Y030012D01*
X025316Y030007D01*
X025337Y030005D01*
X025358Y030007D01*
X025378Y030012D01*
X025397Y030021D01*
X025414Y030033D01*
X025429Y030048D01*
X025441Y030065D01*
X025450Y030084D01*
X025455Y030104D01*
X025457Y030125D01*
X025982Y030125D01*
X025982Y026225D01*
X024692Y026225D01*
X019512Y028375D02*
X019512Y033200D01*
X018912Y033200D01*
X018912Y028375D01*
X019512Y028375D01*
X017562Y025475D02*
X017562Y025175D01*
X017787Y025325D01*
X017562Y025475D01*
X017562Y025446D02*
X017607Y025446D01*
X017562Y025387D02*
X017694Y025387D01*
X017782Y025329D02*
X017562Y025329D01*
X017562Y025270D02*
X017705Y025270D01*
X017617Y025212D02*
X017562Y025212D01*
X011917Y024265D02*
X011917Y023185D01*
X010437Y023825D02*
X010187Y024175D01*
X010187Y023825D01*
X010437Y023825D01*
X010408Y023866D02*
X010187Y023866D01*
X010187Y023925D02*
X010366Y023925D01*
X010325Y023983D02*
X010187Y023983D01*
X010187Y024042D02*
X010283Y024042D01*
X010241Y024100D02*
X010187Y024100D01*
X010187Y024159D02*
X010199Y024159D01*
X009957Y024265D02*
X009957Y023845D01*
X009978Y023843D01*
X009998Y023838D01*
X010017Y023829D01*
X010034Y023817D01*
X010049Y023802D01*
X010061Y023785D01*
X010070Y023766D01*
X010075Y023746D01*
X010077Y023725D01*
X010075Y023704D01*
X010070Y023684D01*
X010061Y023665D01*
X010049Y023648D01*
X010034Y023633D01*
X010017Y023621D01*
X009998Y023612D01*
X009978Y023607D01*
X009957Y023605D01*
X009957Y023185D01*
X009957Y023605D02*
X009978Y023607D01*
X009998Y023612D01*
X010017Y023621D01*
X010034Y023633D01*
X010049Y023648D01*
X010061Y023665D01*
X010070Y023684D01*
X010075Y023704D01*
X010077Y023725D01*
X010075Y023746D01*
X010070Y023766D01*
X010061Y023785D01*
X010049Y023802D01*
X010034Y023817D01*
X010017Y023829D01*
X009998Y023838D01*
X009978Y023843D01*
X009957Y023845D01*
X008437Y023700D02*
X008287Y023475D01*
X008137Y023700D01*
X008437Y023700D01*
X008431Y023691D02*
X008144Y023691D01*
X008183Y023632D02*
X008392Y023632D01*
X008353Y023574D02*
X008222Y023574D01*
X008261Y023515D02*
X008314Y023515D01*
X007612Y023400D02*
X007462Y023625D01*
X007312Y023400D01*
X007612Y023400D01*
X007575Y023457D02*
X007350Y023457D01*
X007389Y023515D02*
X007536Y023515D01*
X007497Y023574D02*
X007428Y023574D01*
X006587Y028625D02*
X006287Y028625D01*
X006437Y028850D01*
X006587Y028625D01*
X006562Y028663D02*
X006313Y028663D01*
X006352Y028722D02*
X006523Y028722D01*
X006484Y028780D02*
X006391Y028780D01*
X006430Y028839D02*
X006445Y028839D01*
X005737Y028925D02*
X005437Y028925D01*
X005587Y028700D01*
X005737Y028925D01*
X005719Y028897D02*
X005456Y028897D01*
X005495Y028839D02*
X005680Y028839D01*
X005641Y028780D02*
X005534Y028780D01*
X005573Y028722D02*
X005602Y028722D01*
X006126Y030770D02*
X006742Y030770D01*
X006744Y030791D01*
X006749Y030811D01*
X006758Y030830D01*
X006770Y030847D01*
X006785Y030862D01*
X006802Y030874D01*
X006821Y030883D01*
X006841Y030888D01*
X006862Y030890D01*
X006883Y030888D01*
X006903Y030883D01*
X006922Y030874D01*
X006939Y030862D01*
X006954Y030847D01*
X006966Y030830D01*
X006975Y030811D01*
X006980Y030791D01*
X006982Y030770D01*
X007599Y030770D01*
X006587Y031025D02*
X006587Y031275D01*
X006237Y031025D01*
X006587Y031025D01*
X006587Y031062D02*
X006289Y031062D01*
X006371Y031120D02*
X006587Y031120D01*
X006587Y031179D02*
X006453Y031179D01*
X006534Y031237D02*
X006587Y031237D01*
X006126Y032730D02*
X007599Y032730D01*
X025512Y029925D02*
X025512Y029675D01*
X025862Y029925D01*
X025512Y029925D01*
X025512Y029892D02*
X025816Y029892D01*
X025734Y029833D02*
X025512Y029833D01*
X025512Y029775D02*
X025652Y029775D01*
X025570Y029716D02*
X025512Y029716D01*
X028198Y030980D02*
X028532Y030980D01*
X028365Y030980D02*
X028365Y031480D01*
X028532Y031314D01*
X028714Y031397D02*
X028797Y031480D01*
X028964Y031480D01*
X029047Y031397D01*
X029047Y031063D01*
X028964Y030980D01*
X028797Y030980D01*
X028714Y031063D01*
X028714Y031397D01*
X028881Y031147D02*
X028714Y030980D01*
X029317Y031605D02*
X027857Y031605D01*
X027857Y031825D01*
X029317Y031605D02*
X029317Y034245D01*
X027857Y034245D01*
X027857Y034025D01*
X031287Y032300D02*
X031512Y032150D01*
X031512Y032450D01*
X031287Y032300D01*
X031302Y032290D02*
X031512Y032290D01*
X031512Y032232D02*
X031390Y032232D01*
X031478Y032173D02*
X031512Y032173D01*
X031512Y032349D02*
X031360Y032349D01*
X031448Y032407D02*
X031512Y032407D01*
X042217Y028969D02*
X042217Y028181D01*
X042362Y028425D02*
X042662Y028425D01*
X042512Y028650D01*
X042362Y028425D01*
X042365Y028429D02*
X042660Y028429D01*
X042621Y028488D02*
X042404Y028488D01*
X042443Y028546D02*
X042582Y028546D01*
X042543Y028605D02*
X042482Y028605D01*
X042808Y028969D02*
X042808Y028181D01*
X042362Y026900D02*
X042137Y026750D01*
X042362Y026600D01*
X042362Y026900D01*
X042362Y026850D02*
X042287Y026850D01*
X042362Y026791D02*
X042199Y026791D01*
X042164Y026733D02*
X042362Y026733D01*
X042362Y026674D02*
X042251Y026674D01*
X042339Y026616D02*
X042362Y026616D01*
X045242Y023925D02*
X045242Y020025D01*
X046532Y020025D01*
X046532Y023925D01*
X046007Y023925D01*
X046005Y023904D01*
X046000Y023884D01*
X045991Y023865D01*
X045979Y023848D01*
X045964Y023833D01*
X045947Y023821D01*
X045928Y023812D01*
X045908Y023807D01*
X045887Y023805D01*
X045866Y023807D01*
X045846Y023812D01*
X045827Y023821D01*
X045810Y023833D01*
X045795Y023848D01*
X045783Y023865D01*
X045774Y023884D01*
X045769Y023904D01*
X045767Y023925D01*
X045242Y023925D01*
X046062Y023725D02*
X046062Y023475D01*
X046412Y023725D01*
X046062Y023725D01*
X046062Y023691D02*
X046364Y023691D01*
X046282Y023632D02*
X046062Y023632D01*
X046062Y023574D02*
X046201Y023574D01*
X046119Y023515D02*
X046062Y023515D01*
X048312Y019175D02*
X048087Y019025D01*
X048312Y018875D01*
X048312Y019175D01*
X048312Y019128D02*
X048241Y019128D01*
X048312Y019069D02*
X048154Y019069D01*
X048109Y019011D02*
X048312Y019011D01*
X048312Y018952D02*
X048197Y018952D01*
X048285Y018894D02*
X048312Y018894D01*
X045552Y015315D02*
X045232Y015315D01*
X045232Y015040D01*
X045792Y014810D02*
X045792Y014640D01*
X045552Y014135D02*
X045232Y014135D01*
X045232Y014410D01*
X047762Y012605D02*
X047762Y011845D01*
X047783Y011843D01*
X047803Y011838D01*
X047822Y011829D01*
X047839Y011817D01*
X047854Y011802D01*
X047866Y011785D01*
X047875Y011766D01*
X047880Y011746D01*
X047882Y011725D01*
X047880Y011704D01*
X047875Y011684D01*
X047866Y011665D01*
X047854Y011648D01*
X047839Y011633D01*
X047822Y011621D01*
X047803Y011612D01*
X047783Y011607D01*
X047762Y011605D01*
X047762Y010845D01*
X047962Y012075D02*
X048162Y012075D01*
X047962Y012400D01*
X047962Y012075D01*
X047962Y012108D02*
X048142Y012108D01*
X048106Y012166D02*
X047962Y012166D01*
X047962Y012225D02*
X048070Y012225D01*
X048034Y012283D02*
X047962Y012283D01*
X047962Y012342D02*
X047998Y012342D01*
X049862Y012605D02*
X049862Y010845D01*
X045637Y010400D02*
X045412Y010250D01*
X045412Y010550D01*
X045637Y010400D01*
X045621Y010411D02*
X045412Y010411D01*
X045412Y010353D02*
X045566Y010353D01*
X045479Y010294D02*
X045412Y010294D01*
X045412Y010470D02*
X045533Y010470D01*
X045445Y010528D02*
X045412Y010528D01*
X045508Y006719D02*
X045508Y005931D01*
X045212Y006250D02*
X045062Y006475D01*
X045362Y006475D01*
X045212Y006250D01*
X045207Y006258D02*
X045217Y006258D01*
X045256Y006316D02*
X045168Y006316D01*
X045129Y006375D02*
X045295Y006375D01*
X045334Y006433D02*
X045090Y006433D01*
X044917Y006719D02*
X044917Y005931D01*
X044733Y005931D02*
X044733Y006719D01*
X044587Y006475D02*
X044287Y006475D01*
X044437Y006250D01*
X044587Y006475D01*
X044559Y006433D02*
X044315Y006433D01*
X044354Y006375D02*
X044520Y006375D01*
X044481Y006316D02*
X044393Y006316D01*
X044432Y006258D02*
X044442Y006258D01*
X044142Y005931D02*
X044142Y006719D01*
X044727Y005005D02*
X044897Y005005D01*
X045402Y004765D02*
X045402Y004445D01*
X045127Y004445D01*
X044497Y004445D02*
X044222Y004445D01*
X044222Y004765D01*
X047301Y003870D02*
X047917Y003870D01*
X047919Y003891D01*
X047924Y003911D01*
X047933Y003930D01*
X047945Y003947D01*
X047960Y003962D01*
X047977Y003974D01*
X047996Y003983D01*
X048016Y003988D01*
X048037Y003990D01*
X048058Y003988D01*
X048078Y003983D01*
X048097Y003974D01*
X048114Y003962D01*
X048129Y003947D01*
X048141Y003930D01*
X048150Y003911D01*
X048155Y003891D01*
X048157Y003870D01*
X048774Y003870D01*
X047762Y004125D02*
X047762Y004375D01*
X047412Y004125D01*
X047762Y004125D01*
X047762Y004152D02*
X047450Y004152D01*
X047531Y004210D02*
X047762Y004210D01*
X047762Y004269D02*
X047613Y004269D01*
X047695Y004327D02*
X047762Y004327D01*
X047301Y005830D02*
X048774Y005830D01*
X039787Y003675D02*
X039562Y003525D01*
X039787Y003375D01*
X039787Y003675D01*
X039787Y003625D02*
X039712Y003625D01*
X039787Y003567D02*
X039625Y003567D01*
X039588Y003508D02*
X039787Y003508D01*
X039787Y003450D02*
X039676Y003450D01*
X039763Y003391D02*
X039787Y003391D01*
X029632Y002925D02*
X029107Y002925D01*
X029105Y002904D01*
X029100Y002884D01*
X029091Y002865D01*
X029079Y002848D01*
X029064Y002833D01*
X029047Y002821D01*
X029028Y002812D01*
X029008Y002807D01*
X028987Y002805D01*
X028966Y002807D01*
X028946Y002812D01*
X028927Y002821D01*
X028910Y002833D01*
X028895Y002848D01*
X028883Y002865D01*
X028874Y002884D01*
X028869Y002904D01*
X028867Y002925D01*
X028342Y002925D01*
X029112Y002725D02*
X029112Y002475D01*
X029462Y002725D01*
X029112Y002725D01*
X029112Y002689D02*
X029412Y002689D01*
X029330Y002631D02*
X029112Y002631D01*
X029112Y002572D02*
X029248Y002572D01*
X029166Y002514D02*
X029112Y002514D01*
X029632Y002025D02*
X028342Y002025D01*
X015937Y004775D02*
X015787Y005000D01*
X015637Y004775D01*
X015937Y004775D01*
X015924Y004795D02*
X015651Y004795D01*
X015690Y004854D02*
X015885Y004854D01*
X015846Y004912D02*
X015729Y004912D01*
X015768Y004971D02*
X015807Y004971D01*
X014487Y005805D02*
X014487Y006330D01*
X014466Y006332D01*
X014446Y006337D01*
X014427Y006346D01*
X014410Y006358D01*
X014395Y006373D01*
X014383Y006390D01*
X014374Y006409D01*
X014369Y006429D01*
X014367Y006450D01*
X014369Y006471D01*
X014374Y006491D01*
X014383Y006510D01*
X014395Y006527D01*
X014410Y006542D01*
X014427Y006554D01*
X014446Y006563D01*
X014466Y006568D01*
X014487Y006570D01*
X014487Y007095D01*
X014287Y006325D02*
X014037Y006325D01*
X014287Y005975D01*
X014287Y006325D01*
X014287Y006316D02*
X014044Y006316D01*
X014086Y006258D02*
X014287Y006258D01*
X014287Y006199D02*
X014127Y006199D01*
X014169Y006141D02*
X014287Y006141D01*
X014287Y006082D02*
X014211Y006082D01*
X014253Y006024D02*
X014287Y006024D01*
X012587Y005805D02*
X012587Y007095D01*
X013812Y008925D02*
X013662Y009150D01*
X013962Y009150D01*
X013812Y008925D01*
X013797Y008949D02*
X013828Y008949D01*
X013867Y009007D02*
X013758Y009007D01*
X013719Y009066D02*
X013906Y009066D01*
X013945Y009124D02*
X013680Y009124D01*
X019576Y014695D02*
X021049Y014695D01*
X020587Y016150D02*
X020937Y016400D01*
X020587Y016400D01*
X020587Y016150D01*
X020587Y016203D02*
X020661Y016203D01*
X020587Y016261D02*
X020743Y016261D01*
X020825Y016320D02*
X020587Y016320D01*
X020587Y016378D02*
X020907Y016378D01*
X021049Y016655D02*
X020432Y016655D01*
X020430Y016634D01*
X020425Y016614D01*
X020416Y016595D01*
X020404Y016578D01*
X020389Y016563D01*
X020372Y016551D01*
X020353Y016542D01*
X020333Y016537D01*
X020312Y016535D01*
X020291Y016537D01*
X020271Y016542D01*
X020252Y016551D01*
X020235Y016563D01*
X020220Y016578D01*
X020208Y016595D01*
X020199Y016614D01*
X020194Y016634D01*
X020192Y016655D01*
X019576Y016655D01*
X026117Y017225D02*
X026642Y017225D01*
X026644Y017246D01*
X026649Y017266D01*
X026658Y017285D01*
X026670Y017302D01*
X026685Y017317D01*
X026702Y017329D01*
X026721Y017338D01*
X026741Y017343D01*
X026762Y017345D01*
X026783Y017343D01*
X026803Y017338D01*
X026822Y017329D01*
X026839Y017317D01*
X026854Y017302D01*
X026866Y017285D01*
X026875Y017266D01*
X026880Y017246D01*
X026882Y017225D01*
X027407Y017225D01*
X026637Y017425D02*
X026637Y017675D01*
X026287Y017425D01*
X026637Y017425D01*
X026637Y017431D02*
X026296Y017431D01*
X026378Y017490D02*
X026637Y017490D01*
X026637Y017548D02*
X026460Y017548D01*
X026542Y017607D02*
X026637Y017607D01*
X026637Y017665D02*
X026624Y017665D01*
X026117Y018125D02*
X027407Y018125D01*
X042462Y017475D02*
X042762Y017475D01*
X042612Y017700D01*
X042462Y017475D01*
X042472Y017490D02*
X042753Y017490D01*
X042714Y017548D02*
X042511Y017548D01*
X042550Y017607D02*
X042675Y017607D01*
X042636Y017665D02*
X042589Y017665D01*
D14*
X051999Y015878D02*
X051999Y012878D01*
X054499Y014378D01*
X051999Y015878D01*
X052499Y014578D02*
X052199Y014278D01*
X052599Y014178D01*
X052499Y014578D01*
X052521Y014490D02*
X052411Y014490D01*
X052561Y014331D02*
X052253Y014331D01*
X052249Y014278D02*
X052999Y014528D01*
X052999Y014028D01*
X053749Y014278D01*
X053799Y014278D02*
X052999Y014078D01*
X053799Y014478D01*
X053799Y014278D01*
X053799Y014331D02*
X053506Y014331D01*
X053379Y014173D02*
X053189Y014173D01*
D15*
X053088Y015960D02*
X052497Y015960D01*
X052793Y015960D02*
X052793Y016354D01*
X053088Y016354D02*
X052497Y016354D01*
X052497Y016568D02*
X052497Y016765D01*
X052497Y016666D02*
X053088Y016666D01*
X053088Y016568D02*
X053088Y016765D01*
X052990Y016973D02*
X052596Y016973D01*
X052497Y017071D01*
X052497Y017268D01*
X052596Y017367D01*
X052793Y017367D01*
X052793Y017170D01*
X052990Y017367D02*
X053088Y017268D01*
X053088Y017071D01*
X052990Y016973D01*
X053088Y017581D02*
X052497Y017581D01*
X052793Y017581D02*
X052793Y017974D01*
X053088Y017974D02*
X052497Y017974D01*
X052694Y018796D02*
X052497Y018993D01*
X052694Y019190D01*
X053088Y019190D01*
X052990Y019404D02*
X052596Y019404D01*
X052497Y019502D01*
X052497Y019699D01*
X052596Y019797D01*
X052990Y019797D01*
X053088Y019699D01*
X053088Y019502D01*
X052990Y019404D01*
X053372Y019405D02*
X053963Y019405D01*
X053963Y019208D02*
X053963Y019602D01*
X053963Y019816D02*
X053963Y020013D01*
X053963Y019914D02*
X053372Y019914D01*
X053372Y019816D02*
X053372Y020013D01*
X053471Y020221D02*
X053372Y020319D01*
X053372Y020516D01*
X053471Y020615D01*
X053865Y020615D01*
X053963Y020516D01*
X053963Y020319D01*
X053865Y020221D01*
X053471Y020221D01*
X053088Y020011D02*
X052497Y020011D01*
X052497Y020405D01*
X053088Y020619D02*
X053088Y021013D01*
X053088Y020816D02*
X052497Y020816D01*
X052497Y021227D02*
X052891Y021227D01*
X053088Y021424D01*
X052891Y021621D01*
X052497Y021621D01*
X052596Y021835D02*
X052497Y021933D01*
X052497Y022130D01*
X052596Y022228D01*
X052793Y022228D01*
X052793Y022031D01*
X052990Y021835D02*
X052596Y021835D01*
X052793Y021621D02*
X052793Y021227D01*
X053372Y021222D02*
X053963Y021222D01*
X054061Y021436D02*
X053668Y021436D01*
X053471Y021436D02*
X053372Y021436D01*
X053372Y021222D02*
X053963Y020829D01*
X053372Y020829D01*
X052990Y021835D02*
X053088Y021933D01*
X053088Y022130D01*
X052990Y022228D01*
X053088Y022442D02*
X052497Y022442D01*
X052497Y022836D01*
X052793Y022639D02*
X052793Y022442D01*
X053088Y022442D02*
X053088Y022836D01*
X053471Y018994D02*
X053963Y018994D01*
X053963Y018600D02*
X053471Y018600D01*
X053372Y018699D01*
X053372Y018896D01*
X053471Y018994D01*
X053088Y018796D02*
X052694Y018796D01*
X053372Y018386D02*
X053766Y018386D01*
X053963Y018190D01*
X053766Y017993D01*
X053372Y017993D01*
X053471Y017779D02*
X053372Y017680D01*
X053372Y017483D01*
X053471Y017385D01*
X053865Y017385D01*
X053963Y017483D01*
X053963Y017680D01*
X053865Y017779D01*
X053668Y017993D02*
X053668Y018386D01*
D16*
X048181Y013487D02*
X048181Y013293D01*
X048133Y013245D01*
X048036Y013245D01*
X047988Y013293D01*
X047887Y013293D02*
X047838Y013245D01*
X047742Y013245D01*
X047693Y013293D01*
X047693Y013390D01*
X047742Y013438D01*
X047790Y013438D01*
X047887Y013390D01*
X047887Y013535D01*
X047693Y013535D01*
X047592Y013487D02*
X047592Y013293D01*
X047399Y013487D01*
X047399Y013293D01*
X047447Y013245D01*
X047544Y013245D01*
X047592Y013293D01*
X047592Y013487D02*
X047544Y013535D01*
X047447Y013535D01*
X047399Y013487D01*
X047988Y013487D02*
X048036Y013535D01*
X048133Y013535D01*
X048181Y013487D01*
X028843Y026215D02*
X028552Y026215D01*
X028649Y026215D02*
X028649Y026360D01*
X028698Y026408D01*
X028794Y026408D01*
X028843Y026360D01*
X028843Y026215D01*
X028649Y026312D02*
X028552Y026408D01*
X028552Y026510D02*
X028552Y026703D01*
X028552Y026606D02*
X028843Y026606D01*
X028746Y026510D01*
X028746Y026804D02*
X028698Y026853D01*
X028698Y026998D01*
X028794Y026998D02*
X028843Y026949D01*
X028843Y026853D01*
X028794Y026804D01*
X028746Y026804D01*
X028601Y026804D02*
X028552Y026853D01*
X028552Y026949D01*
X028601Y026998D01*
X028794Y026998D01*
X028767Y027220D02*
X028767Y027268D01*
X028574Y027462D01*
X028574Y027510D01*
X028767Y027510D01*
X028868Y027462D02*
X028917Y027510D01*
X029013Y027510D01*
X029062Y027462D01*
X029163Y027462D02*
X029211Y027510D01*
X029308Y027510D01*
X029356Y027462D01*
X029356Y027268D01*
X029308Y027220D01*
X029211Y027220D01*
X029163Y027268D01*
X029062Y027220D02*
X028868Y027413D01*
X028868Y027462D01*
X028868Y027220D02*
X029062Y027220D01*
X026793Y026198D02*
X026744Y026198D01*
X026551Y026004D01*
X026502Y026004D01*
X026502Y025903D02*
X026502Y025710D01*
X026502Y025806D02*
X026793Y025806D01*
X026696Y025710D01*
X026744Y025608D02*
X026648Y025608D01*
X026599Y025560D01*
X026599Y025415D01*
X026502Y025415D02*
X026793Y025415D01*
X026793Y025560D01*
X026744Y025608D01*
X026599Y025512D02*
X026502Y025608D01*
X026793Y026004D02*
X026793Y026198D01*
X025977Y024823D02*
X025977Y024629D01*
X025977Y024726D02*
X026268Y024726D01*
X026171Y024629D01*
X026171Y024528D02*
X026219Y024528D01*
X026268Y024480D01*
X026268Y024383D01*
X026219Y024335D01*
X026219Y024233D02*
X026123Y024233D01*
X026074Y024185D01*
X026074Y024040D01*
X025977Y024040D02*
X026268Y024040D01*
X026268Y024185D01*
X026219Y024233D01*
X026074Y024137D02*
X025977Y024233D01*
X025977Y024335D02*
X026171Y024528D01*
X025977Y024528D02*
X025977Y024335D01*
X024273Y024424D02*
X024224Y024376D01*
X024273Y024424D02*
X024273Y024521D01*
X024224Y024569D01*
X024176Y024569D01*
X023982Y024376D01*
X023982Y024569D01*
X024031Y024670D02*
X023982Y024719D01*
X023982Y024815D01*
X024031Y024864D01*
X024079Y024864D01*
X024128Y024815D01*
X024128Y024670D01*
X024031Y024670D01*
X024128Y024670D02*
X024224Y024767D01*
X024273Y024864D01*
X024224Y025131D02*
X024031Y025131D01*
X023982Y025179D01*
X023982Y025276D01*
X024031Y025325D01*
X023982Y025426D02*
X024176Y025619D01*
X024224Y025619D01*
X024273Y025571D01*
X024273Y025474D01*
X024224Y025426D01*
X024224Y025325D02*
X024273Y025276D01*
X024273Y025179D01*
X024224Y025131D01*
X023982Y025426D02*
X023982Y025619D01*
X024031Y025720D02*
X024079Y025720D01*
X024128Y025769D01*
X024128Y025865D01*
X024079Y025914D01*
X024031Y025914D01*
X023982Y025865D01*
X023982Y025769D01*
X024031Y025720D01*
X024128Y025769D02*
X024176Y025720D01*
X024224Y025720D01*
X024273Y025769D01*
X024273Y025865D01*
X024224Y025914D01*
X024176Y025914D01*
X024128Y025865D01*
X024224Y024275D02*
X024273Y024226D01*
X024273Y024129D01*
X024224Y024081D01*
X024031Y024081D01*
X023982Y024129D01*
X023982Y024226D01*
X024031Y024275D01*
X024347Y022760D02*
X024444Y022760D01*
X024492Y022712D01*
X024593Y022712D02*
X024593Y022615D01*
X024642Y022567D01*
X024787Y022567D01*
X024787Y022470D02*
X024787Y022760D01*
X024642Y022760D01*
X024593Y022712D01*
X024347Y022760D02*
X024299Y022712D01*
X024299Y022663D01*
X024492Y022470D01*
X024299Y022470D01*
X024936Y022518D02*
X024936Y022760D01*
X024888Y022760D02*
X024985Y022760D01*
X024936Y022518D02*
X024985Y022470D01*
X025033Y022470D01*
X025081Y022518D01*
X024699Y019014D02*
X024748Y018965D01*
X024748Y018869D01*
X024699Y018820D01*
X024699Y018719D02*
X024651Y018719D01*
X024603Y018671D01*
X024603Y018574D01*
X024651Y018526D01*
X024699Y018526D01*
X024748Y018574D01*
X024748Y018671D01*
X024699Y018719D01*
X024603Y018671D02*
X024554Y018719D01*
X024506Y018719D01*
X024457Y018671D01*
X024457Y018574D01*
X024506Y018526D01*
X024554Y018526D01*
X024603Y018574D01*
X024603Y018425D02*
X024554Y018376D01*
X024554Y018231D01*
X024457Y018231D02*
X024748Y018231D01*
X024748Y018376D01*
X024699Y018425D01*
X024603Y018425D01*
X024554Y018328D02*
X024457Y018425D01*
X024457Y018820D02*
X024651Y019014D01*
X024699Y019014D01*
X024457Y019014D02*
X024457Y018820D01*
X023147Y018132D02*
X023147Y017938D01*
X023099Y017890D01*
X023002Y017890D01*
X022954Y017938D01*
X022853Y017938D02*
X022659Y018132D01*
X022659Y018180D01*
X022853Y018180D01*
X022954Y018132D02*
X023002Y018180D01*
X023099Y018180D01*
X023147Y018132D01*
X022853Y017938D02*
X022853Y017890D01*
X022558Y017938D02*
X022510Y017890D01*
X022413Y017890D01*
X022365Y017938D01*
X022365Y017987D01*
X022413Y018035D01*
X022461Y018035D01*
X022413Y018035D02*
X022365Y018083D01*
X022365Y018132D01*
X022413Y018180D01*
X022510Y018180D01*
X022558Y018132D01*
X022544Y017448D02*
X022593Y017399D01*
X022593Y017303D01*
X022544Y017254D01*
X022544Y017153D02*
X022351Y016960D01*
X022302Y016960D01*
X022351Y016858D02*
X022302Y016810D01*
X022302Y016713D01*
X022351Y016665D01*
X022544Y016665D01*
X022593Y016713D01*
X022593Y016810D01*
X022544Y016858D01*
X022593Y016960D02*
X022593Y017153D01*
X022544Y017153D01*
X022302Y017254D02*
X022496Y017448D01*
X022544Y017448D01*
X022302Y017448D02*
X022302Y017254D01*
X022836Y016980D02*
X022836Y016690D01*
X022740Y016690D02*
X022933Y016690D01*
X022933Y016883D02*
X022836Y016980D01*
X023034Y016980D02*
X023034Y016932D01*
X023228Y016738D01*
X023228Y016690D01*
X023329Y016738D02*
X023377Y016690D01*
X023474Y016690D01*
X023522Y016738D01*
X023522Y016932D01*
X023474Y016980D01*
X023377Y016980D01*
X023329Y016932D01*
X023228Y016980D02*
X023034Y016980D01*
X020348Y017026D02*
X020299Y017075D01*
X020203Y017075D01*
X020154Y017026D01*
X020154Y016881D01*
X020057Y016881D02*
X020348Y016881D01*
X020348Y017026D01*
X020348Y017176D02*
X020348Y017369D01*
X020299Y017369D01*
X020106Y017176D01*
X020057Y017176D01*
X020057Y017075D02*
X020154Y016978D01*
X020106Y017470D02*
X020057Y017519D01*
X020057Y017615D01*
X020106Y017664D01*
X020299Y017664D01*
X020348Y017615D01*
X020348Y017519D01*
X020299Y017470D01*
X020251Y017470D01*
X020203Y017519D01*
X020203Y017664D01*
X020227Y017915D02*
X020179Y017963D01*
X020227Y017915D02*
X020324Y017915D01*
X020372Y017963D01*
X020372Y018157D01*
X020324Y018205D01*
X020227Y018205D01*
X020179Y018157D01*
X020078Y018060D02*
X019933Y018060D01*
X019884Y018012D01*
X019884Y017963D01*
X019933Y017915D01*
X020029Y017915D01*
X020078Y017963D01*
X020078Y018060D01*
X019981Y018157D01*
X019884Y018205D01*
X019783Y018157D02*
X019783Y018108D01*
X019735Y018060D01*
X019638Y018060D01*
X019590Y018012D01*
X019590Y017963D01*
X019638Y017915D01*
X019735Y017915D01*
X019783Y017963D01*
X019783Y018012D01*
X019735Y018060D01*
X019638Y018060D02*
X019590Y018108D01*
X019590Y018157D01*
X019638Y018205D01*
X019735Y018205D01*
X019783Y018157D01*
X021997Y014935D02*
X021949Y014887D01*
X022142Y014693D01*
X022094Y014645D01*
X021997Y014645D01*
X021949Y014693D01*
X021949Y014887D01*
X021997Y014935D02*
X022094Y014935D01*
X022142Y014887D01*
X022142Y014693D01*
X022243Y014693D02*
X022292Y014645D01*
X022388Y014645D01*
X022437Y014693D01*
X022437Y014742D01*
X022388Y014790D01*
X022292Y014790D01*
X022243Y014742D01*
X022243Y014693D01*
X022292Y014790D02*
X022243Y014838D01*
X022243Y014887D01*
X022292Y014935D01*
X022388Y014935D01*
X022437Y014887D01*
X022437Y014838D01*
X022388Y014790D01*
X022538Y014790D02*
X022586Y014742D01*
X022731Y014742D01*
X022635Y014742D02*
X022538Y014645D01*
X022538Y014790D02*
X022538Y014887D01*
X022586Y014935D01*
X022731Y014935D01*
X022731Y014645D01*
X015293Y009223D02*
X015244Y009223D01*
X015051Y009029D01*
X015002Y009029D01*
X015051Y008928D02*
X015099Y008928D01*
X015148Y008880D01*
X015148Y008735D01*
X015051Y008735D01*
X015002Y008783D01*
X015002Y008880D01*
X015051Y008928D01*
X015244Y008831D02*
X015148Y008735D01*
X015148Y008633D02*
X015099Y008585D01*
X015099Y008440D01*
X015002Y008440D02*
X015293Y008440D01*
X015293Y008585D01*
X015244Y008633D01*
X015148Y008633D01*
X015099Y008537D02*
X015002Y008633D01*
X015244Y008831D02*
X015293Y008928D01*
X015293Y009029D02*
X015293Y009223D01*
X015996Y025184D02*
X016093Y025184D01*
X016141Y025232D01*
X016242Y025232D02*
X016242Y025426D01*
X016291Y025474D01*
X016436Y025474D01*
X016436Y025184D01*
X016291Y025184D01*
X016242Y025232D01*
X016141Y025426D02*
X016093Y025474D01*
X015996Y025474D01*
X015948Y025426D01*
X015948Y025377D01*
X015996Y025329D01*
X015948Y025280D01*
X015948Y025232D01*
X015996Y025184D01*
X015996Y025329D02*
X016044Y025329D01*
X016537Y025426D02*
X016731Y025232D01*
X016731Y025184D01*
X016537Y025184D01*
X016537Y025426D02*
X016537Y025474D01*
X016731Y025474D01*
D17*
X029448Y028890D02*
X029448Y029560D01*
X030077Y029560D02*
X030077Y028890D01*
X046084Y026945D02*
X046084Y026865D01*
X046084Y026945D02*
X048486Y026945D01*
X048486Y024355D01*
X046084Y024355D01*
X046084Y024435D01*
X032286Y015545D02*
X029884Y015545D01*
X029884Y015465D01*
X032286Y015545D02*
X032286Y012955D01*
X029884Y012955D01*
X029884Y013035D01*
X029367Y007048D02*
X029367Y004647D01*
X029447Y004647D01*
X031878Y004647D02*
X031958Y004647D01*
X031958Y007048D01*
X029367Y007048D01*
D18*
X032449Y014250D03*
X048649Y025650D03*
D19*
X048665Y024750D03*
X048665Y026550D03*
X032465Y015150D03*
X032465Y013350D03*
D20*
X045699Y010400D03*
X039501Y003525D03*
X048026Y019025D03*
X042076Y026750D03*
X031226Y032300D03*
X017849Y025325D03*
D21*
X030662Y007212D03*
D22*
X031562Y007227D03*
X029763Y007227D03*
D23*
X015787Y005061D03*
X013812Y008864D03*
X008287Y023414D03*
X007462Y023686D03*
X005587Y028639D03*
X006437Y028911D03*
X042512Y028711D03*
X042612Y017761D03*
X044437Y006189D03*
X045212Y006189D03*
D24*
X035793Y007505D02*
X034232Y007505D01*
X034232Y010045D01*
X035793Y010045D01*
X035793Y007505D01*
X035983Y014069D02*
X033442Y014069D01*
X033442Y015631D01*
X035983Y015631D01*
X035983Y014069D01*
X045507Y029080D02*
X047068Y029080D01*
X047068Y031620D01*
X045507Y031620D01*
X045507Y029080D01*
D25*
X029758Y029540D03*
D26*
X004953Y015225D03*
M02*
