G75*
%MOIN*%
%OFA0B0*%
%FSLAX25Y25*%
%IPPOS*%
%LPD*%
%AMOC8*
5,1,8,0,0,1.08239X$1,22.5*
%
%ADD10C,0.10600*%
%ADD11OC8,0.06600*%
%ADD12R,0.07698X0.06899*%
%ADD13C,0.10293*%
%ADD14C,0.12411*%
%ADD15OC8,0.06000*%
%ADD16R,0.22835X0.14961*%
%ADD17R,0.08868X0.08868*%
%ADD18OC8,0.08868*%
%ADD19C,0.00500*%
%ADD20R,0.04931X0.04537*%
%ADD21R,0.15167X0.05718*%
%ADD22R,0.40364X0.35639*%
%ADD23R,0.06899X0.07687*%
%ADD24C,0.12962*%
%ADD25OC8,0.12962*%
%ADD26OC8,0.07096*%
%ADD27R,0.05718X0.06506*%
%ADD28R,0.05324X0.06506*%
%ADD29R,0.06506X0.05718*%
%ADD30R,0.02962X0.09261*%
%ADD31R,0.04537X0.04931*%
%ADD32OC8,0.10600*%
%ADD33R,0.03000X0.06700*%
%ADD34C,0.07687*%
%ADD35OC8,0.07687*%
%ADD36R,0.06112X0.06112*%
%ADD37R,0.06702X0.02962*%
%ADD38R,0.04537X0.05324*%
%ADD39C,0.00100*%
%ADD40OC8,0.10293*%
%ADD41R,0.11230X0.06899*%
%ADD42R,0.07687X0.06899*%
%ADD43R,0.05324X0.04537*%
%ADD44C,0.04931*%
%ADD45C,0.05400*%
%ADD46R,0.06506X0.05324*%
%ADD47R,0.06112X0.04537*%
%ADD48R,0.06200X0.02000*%
%ADD49R,0.23041X0.22254*%
%ADD50R,0.07293X0.05718*%
%ADD51C,0.09899*%
%ADD52C,0.06600*%
%ADD53R,0.07687X0.13198*%
%ADD54R,0.06899X0.07698*%
%ADD55R,0.22254X0.23041*%
%ADD56R,0.05718X0.07293*%
%ADD57R,0.13198X0.07687*%
%ADD58R,0.13986X0.08080*%
%ADD59R,0.08080X0.13986*%
%ADD60OC8,0.09899*%
%ADD61C,0.05600*%
%ADD62R,0.09261X0.07687*%
%ADD63OC8,0.09200*%
%ADD64R,0.04143X0.04143*%
%ADD65OC8,0.06506*%
%ADD66R,0.05915X0.05915*%
%ADD67OC8,0.05915*%
%ADD68C,0.05915*%
%ADD69OC8,0.22254*%
%ADD70C,0.22254*%
D10*
X0500844Y0265963D03*
X0559880Y0293876D03*
X0609093Y0293876D03*
X0609093Y0333246D03*
X0559880Y0333246D03*
X0571344Y0128463D03*
D11*
X0538094Y0274213D03*
X0538094Y0333213D03*
X0631094Y0332713D03*
X0631094Y0273713D03*
D12*
X0597852Y0298415D03*
X0597852Y0309612D03*
X0597852Y0317915D03*
X0597852Y0329112D03*
X0516344Y0269811D03*
X0516344Y0258614D03*
D13*
X0595622Y0247909D02*
X0605315Y0247909D01*
X0605315Y0231374D02*
X0595622Y0231374D01*
X0595622Y0214839D02*
X0605315Y0214839D01*
D14*
X0629209Y0214839D03*
X0629209Y0247909D03*
X0628421Y0064051D03*
D15*
X0508094Y0171713D03*
X0518094Y0211713D03*
X0548844Y0221463D03*
X0588844Y0231463D03*
X0588844Y0247713D03*
X0548844Y0257713D03*
X0515844Y0302463D03*
X0515844Y0321713D03*
X0475844Y0312463D03*
X0475844Y0331713D03*
D16*
X0579587Y0333411D03*
X0579587Y0293911D03*
D17*
X0537161Y0365232D03*
D18*
X0517161Y0365232D03*
X0496661Y0365232D03*
X0477161Y0365232D03*
D19*
X0608461Y0367201D02*
X0608537Y0366333D01*
X0608762Y0365491D01*
X0609130Y0364701D01*
X0609630Y0363987D01*
X0610247Y0363371D01*
X0610961Y0362871D01*
X0611751Y0362502D01*
X0612592Y0362277D01*
X0613461Y0362201D01*
X0614329Y0362277D01*
X0615171Y0362502D01*
X0615961Y0362871D01*
X0616675Y0363371D01*
X0617291Y0363987D01*
X0617791Y0364701D01*
X0618159Y0365491D01*
X0618385Y0366333D01*
X0618461Y0367201D01*
X0618385Y0368069D01*
X0618159Y0368911D01*
X0617791Y0369701D01*
X0617291Y0370415D01*
X0616675Y0371031D01*
X0615961Y0371531D01*
X0615171Y0371899D01*
X0614329Y0372125D01*
X0613461Y0372201D01*
X0612592Y0372125D01*
X0611751Y0371899D01*
X0610961Y0371531D01*
X0610247Y0371031D01*
X0609630Y0370415D01*
X0609130Y0369701D01*
X0608762Y0368911D01*
X0608537Y0368069D01*
X0608461Y0367201D01*
X0608462Y0367184D02*
X0618459Y0367184D01*
X0618418Y0367682D02*
X0608503Y0367682D01*
X0608567Y0368181D02*
X0618355Y0368181D01*
X0618221Y0368679D02*
X0608700Y0368679D01*
X0608887Y0369178D02*
X0618035Y0369178D01*
X0617802Y0369676D02*
X0609119Y0369676D01*
X0609463Y0370175D02*
X0617459Y0370175D01*
X0617032Y0370673D02*
X0609889Y0370673D01*
X0610448Y0371172D02*
X0616473Y0371172D01*
X0615661Y0371671D02*
X0611260Y0371671D01*
X0613098Y0372169D02*
X0613824Y0372169D01*
X0618416Y0366685D02*
X0608506Y0366685D01*
X0608576Y0366187D02*
X0618346Y0366187D01*
X0618212Y0365688D02*
X0608709Y0365688D01*
X0608902Y0365190D02*
X0618019Y0365190D01*
X0617784Y0364691D02*
X0609137Y0364691D01*
X0609486Y0364193D02*
X0617435Y0364193D01*
X0616998Y0363694D02*
X0609923Y0363694D01*
X0610496Y0363196D02*
X0616425Y0363196D01*
X0615589Y0362697D02*
X0611332Y0362697D01*
X0058736Y0064583D02*
X0059104Y0063793D01*
X0059330Y0062951D01*
X0059406Y0062083D01*
X0059330Y0061214D01*
X0059104Y0060373D01*
X0058736Y0059583D01*
X0058236Y0058869D01*
X0057619Y0058252D01*
X0056906Y0057753D01*
X0056116Y0057384D01*
X0055274Y0057159D01*
X0054406Y0057083D01*
X0053537Y0057159D01*
X0052695Y0057384D01*
X0051906Y0057753D01*
X0051192Y0058252D01*
X0050575Y0058869D01*
X0050075Y0059583D01*
X0049707Y0060373D01*
X0049481Y0061214D01*
X0049406Y0062083D01*
X0049481Y0062951D01*
X0049707Y0063793D01*
X0050075Y0064583D01*
X0050575Y0065297D01*
X0051192Y0065913D01*
X0051906Y0066413D01*
X0052695Y0066781D01*
X0053537Y0067007D01*
X0054406Y0067083D01*
X0055274Y0067007D01*
X0056116Y0066781D01*
X0056906Y0066413D01*
X0057619Y0065913D01*
X0058236Y0065297D01*
X0058736Y0064583D01*
X0058732Y0064588D02*
X0050079Y0064588D01*
X0049845Y0064089D02*
X0058966Y0064089D01*
X0059158Y0063591D02*
X0049653Y0063591D01*
X0049519Y0063092D02*
X0059292Y0063092D01*
X0059361Y0062594D02*
X0049450Y0062594D01*
X0049407Y0062095D02*
X0059404Y0062095D01*
X0059363Y0061596D02*
X0049448Y0061596D01*
X0049513Y0061098D02*
X0059298Y0061098D01*
X0059165Y0060599D02*
X0049646Y0060599D01*
X0049834Y0060101D02*
X0058977Y0060101D01*
X0058745Y0059602D02*
X0050066Y0059602D01*
X0050411Y0059104D02*
X0058400Y0059104D01*
X0057972Y0058605D02*
X0050839Y0058605D01*
X0051399Y0058107D02*
X0057412Y0058107D01*
X0056596Y0057608D02*
X0052215Y0057608D01*
X0054095Y0057110D02*
X0054716Y0057110D01*
X0058383Y0065086D02*
X0050428Y0065086D01*
X0050863Y0065585D02*
X0057948Y0065585D01*
X0057376Y0066083D02*
X0051435Y0066083D01*
X0052267Y0066582D02*
X0056544Y0066582D01*
X0054435Y0067080D02*
X0054376Y0067080D01*
D20*
X0277998Y0092463D03*
X0284691Y0092463D03*
X0317748Y0119463D03*
X0324441Y0119463D03*
X0360998Y0187713D03*
X0367691Y0187713D03*
X0367691Y0194463D03*
X0360998Y0194463D03*
X0375998Y0242963D03*
X0382691Y0242963D03*
X0426748Y0251213D03*
X0433441Y0251213D03*
X0229191Y0266963D03*
X0222498Y0266963D03*
D21*
X0239079Y0132213D03*
X0239079Y0112213D03*
X0239079Y0083463D03*
X0239079Y0063463D03*
D22*
X0199315Y0073463D03*
X0199315Y0122213D03*
D23*
X0279333Y0100463D03*
X0290356Y0100463D03*
X0300583Y0130463D03*
X0311606Y0130463D03*
X0583583Y0051963D03*
X0583583Y0042713D03*
X0594606Y0042713D03*
X0594606Y0051963D03*
D24*
X0422844Y0047449D03*
X0351844Y0047449D03*
X0280594Y0047449D03*
X0367844Y0295449D03*
X0436844Y0318199D03*
D25*
X0436844Y0347726D03*
X0367844Y0324976D03*
X0351844Y0076976D03*
X0422844Y0076976D03*
X0280594Y0076976D03*
D26*
X0480844Y0071963D03*
D27*
X0480854Y0037713D03*
X0488335Y0037713D03*
X0340585Y0127963D03*
X0333104Y0127963D03*
X0333104Y0135713D03*
X0340585Y0135713D03*
X0323335Y0112213D03*
X0315854Y0112213D03*
X0315854Y0104463D03*
X0323335Y0104463D03*
X0317835Y0160963D03*
X0310354Y0160963D03*
X0310354Y0184463D03*
X0317835Y0184463D03*
X0317835Y0192213D03*
X0310354Y0192213D03*
X0310354Y0199963D03*
X0317835Y0199963D03*
X0317835Y0207713D03*
X0310354Y0207713D03*
X0278585Y0196213D03*
X0271104Y0196213D03*
X0221335Y0250463D03*
X0213854Y0250463D03*
X0187085Y0192963D03*
X0179604Y0192963D03*
X0327354Y0279713D03*
X0334835Y0279713D03*
X0266585Y0323463D03*
X0259104Y0323463D03*
X0268604Y0331713D03*
X0276085Y0331713D03*
X0190585Y0324713D03*
X0183104Y0324713D03*
X0359104Y0201963D03*
X0366585Y0201963D03*
X0366585Y0180463D03*
X0359104Y0180463D03*
X0488104Y0220463D03*
X0495585Y0220463D03*
X0495585Y0228213D03*
X0488104Y0228213D03*
X0495854Y0235963D03*
X0503335Y0235963D03*
X0503854Y0161213D03*
X0511335Y0161213D03*
X0511335Y0153463D03*
X0503854Y0153463D03*
D28*
X0494844Y0151004D03*
X0494844Y0162421D03*
X0423844Y0271004D03*
X0423844Y0282421D03*
X0310344Y0226921D03*
X0310344Y0215504D03*
X0197594Y0273754D03*
X0197594Y0285171D03*
X0165344Y0319004D03*
X0165344Y0330421D03*
D29*
X0174344Y0321703D03*
X0174344Y0314222D03*
X0165344Y0310953D03*
X0165344Y0303472D03*
X0189594Y0281953D03*
X0189594Y0274472D03*
X0198344Y0264453D03*
X0198344Y0256972D03*
X0213844Y0258722D03*
X0213844Y0266203D03*
X0229344Y0259703D03*
X0229344Y0252222D03*
X0237094Y0258972D03*
X0244844Y0258972D03*
X0255094Y0261472D03*
X0244844Y0266453D03*
X0237094Y0266453D03*
X0255094Y0268953D03*
X0282094Y0271203D03*
X0282094Y0263722D03*
X0324844Y0224453D03*
X0332594Y0224453D03*
X0332594Y0216972D03*
X0324844Y0216972D03*
X0350094Y0215453D03*
X0350094Y0207972D03*
X0359094Y0209972D03*
X0366844Y0209972D03*
X0366844Y0217453D03*
X0359094Y0217453D03*
X0317844Y0176453D03*
X0317844Y0168972D03*
X0310094Y0168972D03*
X0310094Y0176453D03*
X0348594Y0135703D03*
X0348594Y0128222D03*
X0390594Y0126222D03*
X0390594Y0133703D03*
X0391844Y0160472D03*
X0391844Y0167953D03*
X0503594Y0220472D03*
X0503594Y0227953D03*
X0516344Y0242972D03*
X0516344Y0250453D03*
X0486344Y0251703D03*
X0478594Y0251703D03*
X0470844Y0251703D03*
X0470844Y0244222D03*
X0478594Y0244222D03*
X0486344Y0244222D03*
X0432594Y0258472D03*
X0432594Y0265953D03*
X0432594Y0273972D03*
X0432594Y0281453D03*
X0330844Y0081703D03*
X0330844Y0074222D03*
X0320094Y0074222D03*
X0320094Y0081703D03*
X0330844Y0066203D03*
X0330844Y0058722D03*
X0527094Y0052703D03*
X0527094Y0045222D03*
D30*
X0382094Y0135583D03*
X0377094Y0135583D03*
X0367594Y0135583D03*
X0362594Y0135583D03*
X0362594Y0156843D03*
X0367594Y0156843D03*
X0377094Y0156843D03*
X0382094Y0156843D03*
X0497594Y0175583D03*
X0502594Y0175583D03*
X0502594Y0196843D03*
X0497594Y0196843D03*
D31*
X0463594Y0243116D03*
X0463594Y0249809D03*
X0317594Y0221309D03*
X0317594Y0214616D03*
X0262344Y0263366D03*
X0262344Y0270059D03*
X0246594Y0307366D03*
X0239844Y0307366D03*
X0233094Y0307366D03*
X0233094Y0314059D03*
X0239844Y0314059D03*
X0246594Y0314059D03*
X0217094Y0314059D03*
X0210344Y0314059D03*
X0203594Y0314059D03*
X0203594Y0307366D03*
X0210344Y0307366D03*
X0217094Y0307366D03*
X0320594Y0064309D03*
X0320594Y0057616D03*
D32*
X0571344Y0108463D03*
X0480844Y0265963D03*
D33*
X0480344Y0235563D03*
X0475344Y0235563D03*
X0470344Y0235563D03*
X0465344Y0235563D03*
X0460344Y0235563D03*
X0455344Y0235563D03*
X0450344Y0235563D03*
X0445344Y0235563D03*
X0445344Y0214363D03*
X0450344Y0214363D03*
X0455344Y0214363D03*
X0460344Y0214363D03*
X0465344Y0214363D03*
X0470344Y0214363D03*
X0475344Y0214363D03*
X0480344Y0214363D03*
X0238594Y0275613D03*
X0233594Y0275613D03*
X0228594Y0275613D03*
X0223594Y0275613D03*
X0218594Y0275613D03*
X0213594Y0275613D03*
X0208594Y0275613D03*
X0203594Y0275613D03*
X0203594Y0296813D03*
X0208594Y0296813D03*
X0213594Y0296813D03*
X0218594Y0296813D03*
X0223594Y0296813D03*
X0228594Y0296813D03*
X0233594Y0296813D03*
X0238594Y0296813D03*
D34*
X0418617Y0198833D03*
X0428459Y0198833D03*
X0448144Y0198833D03*
X0467830Y0198833D03*
X0472751Y0120093D03*
X0462908Y0120093D03*
X0453066Y0120093D03*
X0443223Y0120093D03*
X0433381Y0120093D03*
X0423538Y0120093D03*
X0413696Y0120093D03*
X0482593Y0120093D03*
D35*
X0477672Y0198833D03*
X0378094Y0350963D03*
X0129209Y0356374D03*
X0101650Y0173303D03*
D36*
X0411364Y0210963D03*
X0426325Y0210963D03*
D37*
X0353724Y0119443D03*
X0353724Y0114443D03*
X0353724Y0109443D03*
X0353724Y0104443D03*
X0332465Y0104443D03*
X0332465Y0109443D03*
X0332465Y0114443D03*
X0332465Y0119443D03*
D38*
X0302344Y0161594D03*
X0302344Y0171831D03*
X0377594Y0186094D03*
X0384344Y0186094D03*
X0384344Y0196331D03*
X0377594Y0196331D03*
D39*
X0336027Y0205280D02*
X0335828Y0204623D01*
X0335505Y0204018D01*
X0335069Y0203488D01*
X0334539Y0203052D01*
X0333934Y0202729D01*
X0333277Y0202530D01*
X0332594Y0202463D01*
X0331844Y0202463D01*
X0331844Y0209463D01*
X0331094Y0209463D01*
X0330412Y0209395D01*
X0329755Y0209196D01*
X0329150Y0208873D01*
X0328620Y0208437D01*
X0328184Y0207907D01*
X0327861Y0207302D01*
X0327662Y0206645D01*
X0327594Y0205963D01*
X0327662Y0205280D01*
X0327861Y0204623D01*
X0328184Y0204018D01*
X0328620Y0203488D01*
X0329150Y0203052D01*
X0329755Y0202729D01*
X0330412Y0202530D01*
X0331094Y0202463D01*
X0331844Y0202463D01*
X0331844Y0209463D01*
X0332594Y0209463D01*
X0333277Y0209395D01*
X0333934Y0209196D01*
X0334539Y0208873D01*
X0335069Y0208437D01*
X0335505Y0207907D01*
X0335828Y0207302D01*
X0336027Y0206645D01*
X0336094Y0205963D01*
X0336027Y0205280D01*
X0336019Y0205254D02*
X0331844Y0205254D01*
X0327670Y0205254D01*
X0327655Y0205353D02*
X0331844Y0205353D01*
X0336034Y0205353D01*
X0336044Y0205451D02*
X0331844Y0205451D01*
X0327645Y0205451D01*
X0327635Y0205550D02*
X0331844Y0205550D01*
X0336054Y0205550D01*
X0336064Y0205648D02*
X0331844Y0205648D01*
X0327625Y0205648D01*
X0327616Y0205747D02*
X0331844Y0205747D01*
X0336073Y0205747D01*
X0336083Y0205845D02*
X0331844Y0205845D01*
X0327606Y0205845D01*
X0327596Y0205944D02*
X0331844Y0205944D01*
X0336093Y0205944D01*
X0336087Y0206042D02*
X0331844Y0206042D01*
X0327602Y0206042D01*
X0327612Y0206141D02*
X0331844Y0206141D01*
X0336077Y0206141D01*
X0336067Y0206239D02*
X0331844Y0206239D01*
X0327622Y0206239D01*
X0327631Y0206338D02*
X0331844Y0206338D01*
X0336058Y0206338D01*
X0336048Y0206436D02*
X0331844Y0206436D01*
X0327641Y0206436D01*
X0327651Y0206535D02*
X0331844Y0206535D01*
X0336038Y0206535D01*
X0336028Y0206633D02*
X0331844Y0206633D01*
X0327661Y0206633D01*
X0327688Y0206732D02*
X0331844Y0206732D01*
X0336001Y0206732D01*
X0335971Y0206830D02*
X0331844Y0206830D01*
X0327718Y0206830D01*
X0327748Y0206929D02*
X0331844Y0206929D01*
X0335941Y0206929D01*
X0335911Y0207027D02*
X0331844Y0207027D01*
X0327778Y0207027D01*
X0327807Y0207126D02*
X0331844Y0207126D01*
X0335882Y0207126D01*
X0335852Y0207224D02*
X0331844Y0207224D01*
X0327837Y0207224D01*
X0327872Y0207323D02*
X0331844Y0207323D01*
X0335817Y0207323D01*
X0335764Y0207421D02*
X0331844Y0207421D01*
X0327925Y0207421D01*
X0327977Y0207520D02*
X0331844Y0207520D01*
X0335712Y0207520D01*
X0335659Y0207618D02*
X0331844Y0207618D01*
X0328030Y0207618D01*
X0328083Y0207717D02*
X0331844Y0207717D01*
X0335606Y0207717D01*
X0335554Y0207815D02*
X0331844Y0207815D01*
X0328135Y0207815D01*
X0328190Y0207914D02*
X0331844Y0207914D01*
X0335499Y0207914D01*
X0335418Y0208012D02*
X0331844Y0208012D01*
X0328271Y0208012D01*
X0328352Y0208111D02*
X0331844Y0208111D01*
X0335337Y0208111D01*
X0335257Y0208209D02*
X0331844Y0208209D01*
X0328432Y0208209D01*
X0328513Y0208308D02*
X0331844Y0208308D01*
X0335176Y0208308D01*
X0335095Y0208406D02*
X0331844Y0208406D01*
X0328594Y0208406D01*
X0328702Y0208505D02*
X0331844Y0208505D01*
X0334987Y0208505D01*
X0334867Y0208603D02*
X0331844Y0208603D01*
X0328822Y0208603D01*
X0328942Y0208702D02*
X0331844Y0208702D01*
X0334747Y0208702D01*
X0334627Y0208800D02*
X0331844Y0208800D01*
X0329062Y0208800D01*
X0329199Y0208899D02*
X0331844Y0208899D01*
X0334490Y0208899D01*
X0334306Y0208998D02*
X0331844Y0208998D01*
X0329383Y0208998D01*
X0329568Y0209096D02*
X0331844Y0209096D01*
X0334121Y0209096D01*
X0333937Y0209195D02*
X0331844Y0209195D01*
X0329752Y0209195D01*
X0330074Y0209293D02*
X0331844Y0209293D01*
X0333615Y0209293D01*
X0333290Y0209392D02*
X0331844Y0209392D01*
X0330399Y0209392D01*
X0331844Y0205156D02*
X0327699Y0205156D01*
X0327729Y0205057D02*
X0331844Y0205057D01*
X0335960Y0205057D01*
X0335990Y0205156D02*
X0331844Y0205156D01*
X0331844Y0204959D02*
X0327759Y0204959D01*
X0327789Y0204860D02*
X0331844Y0204860D01*
X0335900Y0204860D01*
X0335930Y0204959D02*
X0331844Y0204959D01*
X0331844Y0204762D02*
X0327819Y0204762D01*
X0327849Y0204663D02*
X0331844Y0204663D01*
X0335840Y0204663D01*
X0335870Y0204762D02*
X0331844Y0204762D01*
X0331844Y0204564D02*
X0327892Y0204564D01*
X0327945Y0204466D02*
X0331844Y0204466D01*
X0335744Y0204466D01*
X0335691Y0204367D02*
X0331844Y0204367D01*
X0327998Y0204367D01*
X0328050Y0204269D02*
X0331844Y0204269D01*
X0335639Y0204269D01*
X0335586Y0204170D02*
X0331844Y0204170D01*
X0328103Y0204170D01*
X0328156Y0204072D02*
X0331844Y0204072D01*
X0335533Y0204072D01*
X0335468Y0203973D02*
X0331844Y0203973D01*
X0328221Y0203973D01*
X0328302Y0203875D02*
X0331844Y0203875D01*
X0335387Y0203875D01*
X0335306Y0203776D02*
X0331844Y0203776D01*
X0328383Y0203776D01*
X0328464Y0203678D02*
X0331844Y0203678D01*
X0335225Y0203678D01*
X0335145Y0203579D02*
X0331844Y0203579D01*
X0328544Y0203579D01*
X0328628Y0203481D02*
X0331844Y0203481D01*
X0335061Y0203481D01*
X0334941Y0203382D02*
X0331844Y0203382D01*
X0328748Y0203382D01*
X0328868Y0203284D02*
X0331844Y0203284D01*
X0334821Y0203284D01*
X0334701Y0203185D02*
X0331844Y0203185D01*
X0328988Y0203185D01*
X0329108Y0203087D02*
X0331844Y0203087D01*
X0334581Y0203087D01*
X0334419Y0202988D02*
X0331844Y0202988D01*
X0329270Y0202988D01*
X0329454Y0202890D02*
X0331844Y0202890D01*
X0334235Y0202890D01*
X0334050Y0202791D02*
X0331844Y0202791D01*
X0329639Y0202791D01*
X0329875Y0202693D02*
X0331844Y0202693D01*
X0333814Y0202693D01*
X0333490Y0202594D02*
X0331844Y0202594D01*
X0330199Y0202594D01*
X0330758Y0202496D02*
X0331844Y0202496D01*
X0332931Y0202496D01*
X0331844Y0204564D02*
X0335797Y0204564D01*
X0354505Y0168446D02*
X0355162Y0168645D01*
X0355844Y0168713D01*
X0356527Y0168645D01*
X0357184Y0168446D01*
X0357789Y0168123D01*
X0358319Y0167687D01*
X0358755Y0167157D01*
X0359078Y0166552D01*
X0359277Y0165895D01*
X0359344Y0165213D01*
X0359344Y0164463D01*
X0352344Y0164463D01*
X0352344Y0163713D01*
X0352412Y0163030D01*
X0352611Y0162373D01*
X0352934Y0161768D01*
X0353370Y0161238D01*
X0353900Y0160802D01*
X0354505Y0160479D01*
X0355162Y0160280D01*
X0355844Y0160213D01*
X0356527Y0160280D01*
X0357184Y0160479D01*
X0357789Y0160802D01*
X0358319Y0161238D01*
X0358755Y0161768D01*
X0359078Y0162373D01*
X0359277Y0163030D01*
X0359344Y0163713D01*
X0359344Y0164463D01*
X0352344Y0164463D01*
X0352344Y0165213D01*
X0352412Y0165895D01*
X0352611Y0166552D01*
X0352934Y0167157D01*
X0353370Y0167687D01*
X0353900Y0168123D01*
X0354505Y0168446D01*
X0354439Y0168411D02*
X0357250Y0168411D01*
X0357434Y0168312D02*
X0354255Y0168312D01*
X0354070Y0168214D02*
X0357619Y0168214D01*
X0357798Y0168115D02*
X0353891Y0168115D01*
X0353771Y0168017D02*
X0357918Y0168017D01*
X0358038Y0167918D02*
X0353651Y0167918D01*
X0353531Y0167820D02*
X0358158Y0167820D01*
X0358278Y0167721D02*
X0353411Y0167721D01*
X0353316Y0167623D02*
X0358372Y0167623D01*
X0358453Y0167524D02*
X0353236Y0167524D01*
X0353155Y0167426D02*
X0358534Y0167426D01*
X0358615Y0167327D02*
X0353074Y0167327D01*
X0352993Y0167229D02*
X0358696Y0167229D01*
X0358769Y0167130D02*
X0352920Y0167130D01*
X0352867Y0167032D02*
X0358822Y0167032D01*
X0358874Y0166933D02*
X0352815Y0166933D01*
X0352762Y0166835D02*
X0358927Y0166835D01*
X0358980Y0166736D02*
X0352709Y0166736D01*
X0352657Y0166638D02*
X0359032Y0166638D01*
X0359082Y0166539D02*
X0352607Y0166539D01*
X0352577Y0166441D02*
X0359112Y0166441D01*
X0359142Y0166342D02*
X0352547Y0166342D01*
X0352517Y0166244D02*
X0359172Y0166244D01*
X0359202Y0166145D02*
X0352487Y0166145D01*
X0352458Y0166047D02*
X0359231Y0166047D01*
X0359261Y0165948D02*
X0352428Y0165948D01*
X0352407Y0165850D02*
X0359282Y0165850D01*
X0359291Y0165751D02*
X0352398Y0165751D01*
X0352388Y0165653D02*
X0359301Y0165653D01*
X0359311Y0165554D02*
X0352378Y0165554D01*
X0352368Y0165455D02*
X0359321Y0165455D01*
X0359330Y0165357D02*
X0352359Y0165357D01*
X0352349Y0165258D02*
X0359340Y0165258D01*
X0359344Y0165160D02*
X0352344Y0165160D01*
X0352344Y0165061D02*
X0359344Y0165061D01*
X0359344Y0164963D02*
X0352344Y0164963D01*
X0352344Y0164864D02*
X0359344Y0164864D01*
X0359344Y0164766D02*
X0352344Y0164766D01*
X0352344Y0164667D02*
X0359344Y0164667D01*
X0359344Y0164569D02*
X0352344Y0164569D01*
X0352344Y0164470D02*
X0359344Y0164470D01*
X0359344Y0164372D02*
X0352344Y0164372D01*
X0352344Y0164273D02*
X0359344Y0164273D01*
X0359344Y0164175D02*
X0352344Y0164175D01*
X0352344Y0164076D02*
X0359344Y0164076D01*
X0359344Y0163978D02*
X0352344Y0163978D01*
X0352344Y0163879D02*
X0359344Y0163879D01*
X0359344Y0163781D02*
X0352344Y0163781D01*
X0352347Y0163682D02*
X0359342Y0163682D01*
X0359332Y0163584D02*
X0352357Y0163584D01*
X0352367Y0163485D02*
X0359322Y0163485D01*
X0359312Y0163387D02*
X0352377Y0163387D01*
X0352386Y0163288D02*
X0359303Y0163288D01*
X0359293Y0163190D02*
X0352396Y0163190D01*
X0352406Y0163091D02*
X0359283Y0163091D01*
X0359266Y0162993D02*
X0352423Y0162993D01*
X0352453Y0162894D02*
X0359236Y0162894D01*
X0359206Y0162796D02*
X0352483Y0162796D01*
X0352513Y0162697D02*
X0359176Y0162697D01*
X0359146Y0162599D02*
X0352543Y0162599D01*
X0352572Y0162500D02*
X0359117Y0162500D01*
X0359087Y0162402D02*
X0352602Y0162402D01*
X0352648Y0162303D02*
X0359041Y0162303D01*
X0358988Y0162205D02*
X0352701Y0162205D01*
X0352754Y0162106D02*
X0358935Y0162106D01*
X0358883Y0162008D02*
X0352806Y0162008D01*
X0352859Y0161909D02*
X0358830Y0161909D01*
X0358777Y0161811D02*
X0352912Y0161811D01*
X0352980Y0161712D02*
X0358709Y0161712D01*
X0358628Y0161614D02*
X0353061Y0161614D01*
X0353142Y0161515D02*
X0358547Y0161515D01*
X0358466Y0161417D02*
X0353223Y0161417D01*
X0353304Y0161318D02*
X0358385Y0161318D01*
X0358297Y0161220D02*
X0353392Y0161220D01*
X0353512Y0161121D02*
X0358177Y0161121D01*
X0358057Y0161022D02*
X0353632Y0161022D01*
X0353752Y0160924D02*
X0357937Y0160924D01*
X0357817Y0160825D02*
X0353872Y0160825D01*
X0354041Y0160727D02*
X0357648Y0160727D01*
X0357463Y0160628D02*
X0354226Y0160628D01*
X0354410Y0160530D02*
X0357279Y0160530D01*
X0357027Y0160431D02*
X0354662Y0160431D01*
X0354987Y0160333D02*
X0356702Y0160333D01*
X0356066Y0160234D02*
X0355623Y0160234D01*
X0354713Y0168509D02*
X0356976Y0168509D01*
X0356651Y0168608D02*
X0355038Y0168608D01*
X0355781Y0168706D02*
X0355908Y0168706D01*
X0402684Y0140657D02*
X0403120Y0141187D01*
X0403650Y0141623D01*
X0404255Y0141946D01*
X0404912Y0142145D01*
X0405594Y0142213D01*
X0406344Y0142213D01*
X0406344Y0135213D01*
X0405594Y0135213D01*
X0404912Y0135280D01*
X0404255Y0135479D01*
X0403650Y0135802D01*
X0403120Y0136238D01*
X0402684Y0136768D01*
X0402361Y0137373D01*
X0402162Y0138030D01*
X0402094Y0138713D01*
X0402162Y0139395D01*
X0402361Y0140052D01*
X0402684Y0140657D01*
X0402670Y0140631D02*
X0406344Y0140631D01*
X0410019Y0140631D01*
X0410005Y0140657D02*
X0410328Y0140052D01*
X0410527Y0139395D01*
X0410594Y0138713D01*
X0410527Y0138030D01*
X0410328Y0137373D01*
X0410005Y0136768D01*
X0409569Y0136238D01*
X0409039Y0135802D01*
X0408434Y0135479D01*
X0407777Y0135280D01*
X0407094Y0135213D01*
X0406344Y0135213D01*
X0406344Y0142213D01*
X0407094Y0142213D01*
X0407777Y0142145D01*
X0408434Y0141946D01*
X0409039Y0141623D01*
X0409569Y0141187D01*
X0410005Y0140657D01*
X0409945Y0140729D02*
X0406344Y0140729D01*
X0402743Y0140729D01*
X0402824Y0140828D02*
X0406344Y0140828D01*
X0409865Y0140828D01*
X0409784Y0140926D02*
X0406344Y0140926D01*
X0402905Y0140926D01*
X0402986Y0141025D02*
X0406344Y0141025D01*
X0409703Y0141025D01*
X0409622Y0141123D02*
X0406344Y0141123D01*
X0403067Y0141123D01*
X0403161Y0141222D02*
X0406344Y0141222D01*
X0409528Y0141222D01*
X0409408Y0141320D02*
X0406344Y0141320D01*
X0403281Y0141320D01*
X0403401Y0141419D02*
X0406344Y0141419D01*
X0409288Y0141419D01*
X0409168Y0141517D02*
X0406344Y0141517D01*
X0403521Y0141517D01*
X0403641Y0141616D02*
X0406344Y0141616D01*
X0409047Y0141616D01*
X0408868Y0141714D02*
X0406344Y0141714D01*
X0403821Y0141714D01*
X0404006Y0141813D02*
X0406344Y0141813D01*
X0408683Y0141813D01*
X0408499Y0141911D02*
X0406344Y0141911D01*
X0404190Y0141911D01*
X0404465Y0142010D02*
X0406344Y0142010D01*
X0408224Y0142010D01*
X0407899Y0142108D02*
X0406344Y0142108D01*
X0404790Y0142108D01*
X0405536Y0142207D02*
X0406344Y0142207D01*
X0407153Y0142207D01*
X0406344Y0140532D02*
X0402618Y0140532D01*
X0402565Y0140434D02*
X0406344Y0140434D01*
X0410124Y0140434D01*
X0410071Y0140532D02*
X0406344Y0140532D01*
X0406344Y0140335D02*
X0402512Y0140335D01*
X0402460Y0140237D02*
X0406344Y0140237D01*
X0410229Y0140237D01*
X0410177Y0140335D02*
X0406344Y0140335D01*
X0406344Y0140138D02*
X0402407Y0140138D01*
X0402357Y0140040D02*
X0406344Y0140040D01*
X0410332Y0140040D01*
X0410362Y0139941D02*
X0406344Y0139941D01*
X0402327Y0139941D01*
X0402297Y0139843D02*
X0406344Y0139843D01*
X0410392Y0139843D01*
X0410421Y0139744D02*
X0406344Y0139744D01*
X0402267Y0139744D01*
X0402238Y0139646D02*
X0406344Y0139646D01*
X0410451Y0139646D01*
X0410481Y0139547D02*
X0406344Y0139547D01*
X0402208Y0139547D01*
X0402178Y0139449D02*
X0406344Y0139449D01*
X0410511Y0139449D01*
X0410532Y0139350D02*
X0406344Y0139350D01*
X0402157Y0139350D01*
X0402148Y0139251D02*
X0406344Y0139251D01*
X0410541Y0139251D01*
X0410551Y0139153D02*
X0406344Y0139153D01*
X0402138Y0139153D01*
X0402128Y0139054D02*
X0406344Y0139054D01*
X0410561Y0139054D01*
X0410571Y0138956D02*
X0406344Y0138956D01*
X0402118Y0138956D01*
X0402109Y0138857D02*
X0406344Y0138857D01*
X0410580Y0138857D01*
X0410590Y0138759D02*
X0406344Y0138759D01*
X0402099Y0138759D01*
X0402100Y0138660D02*
X0406344Y0138660D01*
X0410589Y0138660D01*
X0410580Y0138562D02*
X0406344Y0138562D01*
X0402109Y0138562D01*
X0402119Y0138463D02*
X0406344Y0138463D01*
X0410570Y0138463D01*
X0410560Y0138365D02*
X0406344Y0138365D01*
X0402129Y0138365D01*
X0402138Y0138266D02*
X0406344Y0138266D01*
X0410551Y0138266D01*
X0410541Y0138168D02*
X0406344Y0138168D01*
X0402148Y0138168D01*
X0402158Y0138069D02*
X0406344Y0138069D01*
X0410531Y0138069D01*
X0410509Y0137971D02*
X0406344Y0137971D01*
X0402180Y0137971D01*
X0402210Y0137872D02*
X0406344Y0137872D01*
X0410479Y0137872D01*
X0410450Y0137774D02*
X0406344Y0137774D01*
X0402239Y0137774D01*
X0402269Y0137675D02*
X0406344Y0137675D01*
X0410420Y0137675D01*
X0410390Y0137577D02*
X0406344Y0137577D01*
X0402299Y0137577D01*
X0402329Y0137478D02*
X0406344Y0137478D01*
X0410360Y0137478D01*
X0410330Y0137380D02*
X0406344Y0137380D01*
X0402359Y0137380D01*
X0402410Y0137281D02*
X0406344Y0137281D01*
X0410279Y0137281D01*
X0410226Y0137183D02*
X0406344Y0137183D01*
X0402463Y0137183D01*
X0402515Y0137084D02*
X0406344Y0137084D01*
X0410174Y0137084D01*
X0410121Y0136986D02*
X0406344Y0136986D01*
X0402568Y0136986D01*
X0402621Y0136887D02*
X0406344Y0136887D01*
X0410068Y0136887D01*
X0410016Y0136789D02*
X0406344Y0136789D01*
X0402673Y0136789D01*
X0402748Y0136690D02*
X0406344Y0136690D01*
X0409941Y0136690D01*
X0409860Y0136592D02*
X0406344Y0136592D01*
X0402829Y0136592D01*
X0402910Y0136493D02*
X0406344Y0136493D01*
X0409779Y0136493D01*
X0409698Y0136395D02*
X0406344Y0136395D01*
X0402991Y0136395D01*
X0403072Y0136296D02*
X0406344Y0136296D01*
X0409617Y0136296D01*
X0409521Y0136198D02*
X0406344Y0136198D01*
X0403168Y0136198D01*
X0403288Y0136099D02*
X0406344Y0136099D01*
X0409400Y0136099D01*
X0409280Y0136001D02*
X0406344Y0136001D01*
X0403409Y0136001D01*
X0403529Y0135902D02*
X0406344Y0135902D01*
X0409160Y0135902D01*
X0409040Y0135804D02*
X0406344Y0135804D01*
X0403649Y0135804D01*
X0403832Y0135705D02*
X0406344Y0135705D01*
X0408857Y0135705D01*
X0408673Y0135607D02*
X0406344Y0135607D01*
X0404016Y0135607D01*
X0404201Y0135508D02*
X0406344Y0135508D01*
X0408488Y0135508D01*
X0408205Y0135410D02*
X0406344Y0135410D01*
X0404484Y0135410D01*
X0404809Y0135311D02*
X0406344Y0135311D01*
X0407880Y0135311D01*
X0407491Y0131174D02*
X0406344Y0131174D01*
X0405198Y0131174D01*
X0404912Y0131145D02*
X0405594Y0131213D01*
X0406344Y0131213D01*
X0406344Y0124213D01*
X0407094Y0124213D01*
X0407777Y0124280D01*
X0408434Y0124479D01*
X0409039Y0124802D01*
X0409569Y0125238D01*
X0410005Y0125768D01*
X0410328Y0126373D01*
X0410527Y0127030D01*
X0410594Y0127713D01*
X0410527Y0128395D01*
X0410328Y0129052D01*
X0410005Y0129657D01*
X0409569Y0130187D01*
X0409039Y0130623D01*
X0408434Y0130946D01*
X0407777Y0131145D01*
X0407094Y0131213D01*
X0406344Y0131213D01*
X0406344Y0124213D01*
X0405594Y0124213D01*
X0404912Y0124280D01*
X0404255Y0124479D01*
X0403650Y0124802D01*
X0403120Y0125238D01*
X0402684Y0125768D01*
X0402361Y0126373D01*
X0402162Y0127030D01*
X0402094Y0127713D01*
X0402162Y0128395D01*
X0402361Y0129052D01*
X0402684Y0129657D01*
X0403120Y0130187D01*
X0403650Y0130623D01*
X0404255Y0130946D01*
X0404912Y0131145D01*
X0404680Y0131075D02*
X0406344Y0131075D01*
X0408009Y0131075D01*
X0408334Y0130977D02*
X0406344Y0130977D01*
X0404355Y0130977D01*
X0404128Y0130878D02*
X0406344Y0130878D01*
X0408561Y0130878D01*
X0408746Y0130780D02*
X0406344Y0130780D01*
X0403943Y0130780D01*
X0403759Y0130681D02*
X0406344Y0130681D01*
X0408930Y0130681D01*
X0409088Y0130582D02*
X0406344Y0130582D01*
X0403601Y0130582D01*
X0403481Y0130484D02*
X0406344Y0130484D01*
X0409208Y0130484D01*
X0409328Y0130385D02*
X0406344Y0130385D01*
X0403361Y0130385D01*
X0403241Y0130287D02*
X0406344Y0130287D01*
X0409448Y0130287D01*
X0409568Y0130188D02*
X0406344Y0130188D01*
X0403121Y0130188D01*
X0403040Y0130090D02*
X0406344Y0130090D01*
X0409649Y0130090D01*
X0409730Y0129991D02*
X0406344Y0129991D01*
X0402959Y0129991D01*
X0402878Y0129893D02*
X0406344Y0129893D01*
X0409811Y0129893D01*
X0409892Y0129794D02*
X0406344Y0129794D01*
X0402797Y0129794D01*
X0402716Y0129696D02*
X0406344Y0129696D01*
X0409973Y0129696D01*
X0410037Y0129597D02*
X0406344Y0129597D01*
X0402652Y0129597D01*
X0402600Y0129499D02*
X0406344Y0129499D01*
X0410089Y0129499D01*
X0410142Y0129400D02*
X0406344Y0129400D01*
X0402547Y0129400D01*
X0402494Y0129302D02*
X0406344Y0129302D01*
X0410195Y0129302D01*
X0410247Y0129203D02*
X0406344Y0129203D01*
X0402442Y0129203D01*
X0402389Y0129105D02*
X0406344Y0129105D01*
X0410300Y0129105D01*
X0410342Y0129006D02*
X0406344Y0129006D01*
X0402347Y0129006D01*
X0402317Y0128908D02*
X0406344Y0128908D01*
X0410372Y0128908D01*
X0410402Y0128809D02*
X0406344Y0128809D01*
X0402287Y0128809D01*
X0402257Y0128711D02*
X0406344Y0128711D01*
X0410432Y0128711D01*
X0410461Y0128612D02*
X0406344Y0128612D01*
X0402228Y0128612D01*
X0402198Y0128514D02*
X0406344Y0128514D01*
X0410491Y0128514D01*
X0410521Y0128415D02*
X0406344Y0128415D01*
X0402168Y0128415D01*
X0402154Y0128317D02*
X0406344Y0128317D01*
X0410535Y0128317D01*
X0410545Y0128218D02*
X0406344Y0128218D01*
X0402144Y0128218D01*
X0402135Y0128120D02*
X0406344Y0128120D01*
X0410554Y0128120D01*
X0410564Y0128021D02*
X0406344Y0128021D01*
X0402125Y0128021D01*
X0402115Y0127923D02*
X0406344Y0127923D01*
X0410574Y0127923D01*
X0410583Y0127824D02*
X0406344Y0127824D01*
X0402105Y0127824D01*
X0402096Y0127726D02*
X0406344Y0127726D01*
X0410593Y0127726D01*
X0410586Y0127627D02*
X0406344Y0127627D01*
X0402103Y0127627D01*
X0402113Y0127529D02*
X0406344Y0127529D01*
X0410576Y0127529D01*
X0410567Y0127430D02*
X0406344Y0127430D01*
X0402122Y0127430D01*
X0402132Y0127332D02*
X0406344Y0127332D01*
X0410557Y0127332D01*
X0410547Y0127233D02*
X0406344Y0127233D01*
X0402142Y0127233D01*
X0402151Y0127135D02*
X0406344Y0127135D01*
X0410538Y0127135D01*
X0410528Y0127036D02*
X0406344Y0127036D01*
X0402161Y0127036D01*
X0402190Y0126938D02*
X0406344Y0126938D01*
X0410499Y0126938D01*
X0410469Y0126839D02*
X0406344Y0126839D01*
X0402220Y0126839D01*
X0402249Y0126741D02*
X0406344Y0126741D01*
X0410440Y0126741D01*
X0410410Y0126642D02*
X0406344Y0126642D01*
X0402279Y0126642D01*
X0402309Y0126544D02*
X0406344Y0126544D01*
X0410380Y0126544D01*
X0410350Y0126445D02*
X0406344Y0126445D01*
X0402339Y0126445D01*
X0402375Y0126347D02*
X0406344Y0126347D01*
X0410314Y0126347D01*
X0410261Y0126248D02*
X0406344Y0126248D01*
X0402428Y0126248D01*
X0402480Y0126149D02*
X0406344Y0126149D01*
X0410208Y0126149D01*
X0410156Y0126051D02*
X0406344Y0126051D01*
X0402533Y0126051D01*
X0402586Y0125952D02*
X0406344Y0125952D01*
X0410103Y0125952D01*
X0410051Y0125854D02*
X0406344Y0125854D01*
X0402638Y0125854D01*
X0402695Y0125755D02*
X0406344Y0125755D01*
X0409994Y0125755D01*
X0409913Y0125657D02*
X0406344Y0125657D01*
X0402776Y0125657D01*
X0402856Y0125558D02*
X0406344Y0125558D01*
X0409833Y0125558D01*
X0409752Y0125460D02*
X0406344Y0125460D01*
X0402937Y0125460D01*
X0403018Y0125361D02*
X0406344Y0125361D01*
X0409671Y0125361D01*
X0409590Y0125263D02*
X0406344Y0125263D01*
X0403099Y0125263D01*
X0403209Y0125164D02*
X0406344Y0125164D01*
X0409480Y0125164D01*
X0409360Y0125066D02*
X0406344Y0125066D01*
X0403329Y0125066D01*
X0403449Y0124967D02*
X0406344Y0124967D01*
X0409240Y0124967D01*
X0409120Y0124869D02*
X0406344Y0124869D01*
X0403569Y0124869D01*
X0403710Y0124770D02*
X0406344Y0124770D01*
X0408979Y0124770D01*
X0408795Y0124672D02*
X0406344Y0124672D01*
X0403894Y0124672D01*
X0404079Y0124573D02*
X0406344Y0124573D01*
X0408610Y0124573D01*
X0408420Y0124475D02*
X0406344Y0124475D01*
X0404269Y0124475D01*
X0404594Y0124376D02*
X0406344Y0124376D01*
X0408095Y0124376D01*
X0407756Y0124278D02*
X0406344Y0124278D01*
X0404933Y0124278D01*
X0395005Y0119157D02*
X0394569Y0119687D01*
X0394039Y0120123D01*
X0393434Y0120446D01*
X0392777Y0120645D01*
X0392094Y0120713D01*
X0388844Y0120713D01*
X0388844Y0113713D01*
X0392094Y0113713D01*
X0392777Y0113780D01*
X0393434Y0113979D01*
X0394039Y0114302D01*
X0394569Y0114738D01*
X0395005Y0115268D01*
X0395328Y0115873D01*
X0395527Y0116530D01*
X0395594Y0117213D01*
X0395527Y0117895D01*
X0395328Y0118552D01*
X0395005Y0119157D01*
X0395006Y0119155D02*
X0388844Y0119155D01*
X0388844Y0119057D02*
X0395058Y0119057D01*
X0395111Y0118958D02*
X0388844Y0118958D01*
X0388844Y0118860D02*
X0395164Y0118860D01*
X0395216Y0118761D02*
X0388844Y0118761D01*
X0388844Y0118663D02*
X0395269Y0118663D01*
X0395322Y0118564D02*
X0388844Y0118564D01*
X0388844Y0118466D02*
X0395354Y0118466D01*
X0395384Y0118367D02*
X0388844Y0118367D01*
X0388844Y0118269D02*
X0395414Y0118269D01*
X0395444Y0118170D02*
X0388844Y0118170D01*
X0388844Y0118072D02*
X0395474Y0118072D01*
X0395504Y0117973D02*
X0388844Y0117973D01*
X0388844Y0117875D02*
X0395529Y0117875D01*
X0395539Y0117776D02*
X0388844Y0117776D01*
X0388844Y0117678D02*
X0395549Y0117678D01*
X0395558Y0117579D02*
X0388844Y0117579D01*
X0388844Y0117480D02*
X0395568Y0117480D01*
X0395578Y0117382D02*
X0388844Y0117382D01*
X0388844Y0117283D02*
X0395587Y0117283D01*
X0395592Y0117185D02*
X0388844Y0117185D01*
X0388844Y0117086D02*
X0395582Y0117086D01*
X0395572Y0116988D02*
X0388844Y0116988D01*
X0388844Y0116889D02*
X0395563Y0116889D01*
X0395553Y0116791D02*
X0388844Y0116791D01*
X0388844Y0116692D02*
X0395543Y0116692D01*
X0395534Y0116594D02*
X0388844Y0116594D01*
X0388844Y0116495D02*
X0395517Y0116495D01*
X0395487Y0116397D02*
X0388844Y0116397D01*
X0388844Y0116298D02*
X0395457Y0116298D01*
X0395427Y0116200D02*
X0388844Y0116200D01*
X0388844Y0116101D02*
X0395397Y0116101D01*
X0395367Y0116003D02*
X0388844Y0116003D01*
X0388844Y0115904D02*
X0395337Y0115904D01*
X0395292Y0115806D02*
X0388844Y0115806D01*
X0388844Y0115707D02*
X0395239Y0115707D01*
X0395187Y0115609D02*
X0388844Y0115609D01*
X0388844Y0115510D02*
X0395134Y0115510D01*
X0395081Y0115412D02*
X0388844Y0115412D01*
X0388844Y0115313D02*
X0395029Y0115313D01*
X0394961Y0115215D02*
X0388844Y0115215D01*
X0388844Y0115116D02*
X0394880Y0115116D01*
X0394799Y0115018D02*
X0388844Y0115018D01*
X0388844Y0114919D02*
X0394718Y0114919D01*
X0394637Y0114821D02*
X0388844Y0114821D01*
X0388844Y0114722D02*
X0394550Y0114722D01*
X0394430Y0114624D02*
X0388844Y0114624D01*
X0388844Y0114525D02*
X0394310Y0114525D01*
X0394190Y0114427D02*
X0388844Y0114427D01*
X0388844Y0114328D02*
X0394070Y0114328D01*
X0393903Y0114230D02*
X0388844Y0114230D01*
X0388844Y0114131D02*
X0393718Y0114131D01*
X0393534Y0114033D02*
X0388844Y0114033D01*
X0388844Y0113934D02*
X0393286Y0113934D01*
X0392961Y0113836D02*
X0388844Y0113836D01*
X0388844Y0113737D02*
X0392343Y0113737D01*
X0387344Y0113737D02*
X0383846Y0113737D01*
X0384094Y0113713D02*
X0383412Y0113780D01*
X0382755Y0113979D01*
X0382150Y0114302D01*
X0381620Y0114738D01*
X0381184Y0115268D01*
X0380861Y0115873D01*
X0380662Y0116530D01*
X0380594Y0117213D01*
X0380662Y0117895D01*
X0380861Y0118552D01*
X0381184Y0119157D01*
X0381620Y0119687D01*
X0382150Y0120123D01*
X0382755Y0120446D01*
X0383412Y0120645D01*
X0384094Y0120713D01*
X0387344Y0120713D01*
X0387344Y0113713D01*
X0384094Y0113713D01*
X0383228Y0113836D02*
X0387344Y0113836D01*
X0387344Y0113934D02*
X0382903Y0113934D01*
X0382655Y0114033D02*
X0387344Y0114033D01*
X0387344Y0114131D02*
X0382471Y0114131D01*
X0382286Y0114230D02*
X0387344Y0114230D01*
X0387344Y0114328D02*
X0382119Y0114328D01*
X0381999Y0114427D02*
X0387344Y0114427D01*
X0387344Y0114525D02*
X0381879Y0114525D01*
X0381759Y0114624D02*
X0387344Y0114624D01*
X0387344Y0114722D02*
X0381639Y0114722D01*
X0381552Y0114821D02*
X0387344Y0114821D01*
X0387344Y0114919D02*
X0381471Y0114919D01*
X0381390Y0115018D02*
X0387344Y0115018D01*
X0387344Y0115116D02*
X0381309Y0115116D01*
X0381228Y0115215D02*
X0387344Y0115215D01*
X0387344Y0115313D02*
X0381160Y0115313D01*
X0381108Y0115412D02*
X0387344Y0115412D01*
X0387344Y0115510D02*
X0381055Y0115510D01*
X0381002Y0115609D02*
X0387344Y0115609D01*
X0387344Y0115707D02*
X0380950Y0115707D01*
X0380897Y0115806D02*
X0387344Y0115806D01*
X0387344Y0115904D02*
X0380851Y0115904D01*
X0380822Y0116003D02*
X0387344Y0116003D01*
X0387344Y0116101D02*
X0380792Y0116101D01*
X0380762Y0116200D02*
X0387344Y0116200D01*
X0387344Y0116298D02*
X0380732Y0116298D01*
X0380702Y0116397D02*
X0387344Y0116397D01*
X0387344Y0116495D02*
X0380672Y0116495D01*
X0380655Y0116594D02*
X0387344Y0116594D01*
X0387344Y0116692D02*
X0380646Y0116692D01*
X0380636Y0116791D02*
X0387344Y0116791D01*
X0387344Y0116889D02*
X0380626Y0116889D01*
X0380617Y0116988D02*
X0387344Y0116988D01*
X0387344Y0117086D02*
X0380607Y0117086D01*
X0380597Y0117185D02*
X0387344Y0117185D01*
X0387344Y0117283D02*
X0380601Y0117283D01*
X0380611Y0117382D02*
X0387344Y0117382D01*
X0387344Y0117480D02*
X0380621Y0117480D01*
X0380631Y0117579D02*
X0387344Y0117579D01*
X0387344Y0117678D02*
X0380640Y0117678D01*
X0380650Y0117776D02*
X0387344Y0117776D01*
X0387344Y0117875D02*
X0380660Y0117875D01*
X0380685Y0117973D02*
X0387344Y0117973D01*
X0387344Y0118072D02*
X0380715Y0118072D01*
X0380745Y0118170D02*
X0387344Y0118170D01*
X0387344Y0118269D02*
X0380775Y0118269D01*
X0380805Y0118367D02*
X0387344Y0118367D01*
X0387344Y0118466D02*
X0380835Y0118466D01*
X0380867Y0118564D02*
X0387344Y0118564D01*
X0387344Y0118663D02*
X0380920Y0118663D01*
X0380973Y0118761D02*
X0387344Y0118761D01*
X0387344Y0118860D02*
X0381025Y0118860D01*
X0381078Y0118958D02*
X0387344Y0118958D01*
X0387344Y0119057D02*
X0381131Y0119057D01*
X0381183Y0119155D02*
X0387344Y0119155D01*
X0387344Y0119254D02*
X0381264Y0119254D01*
X0381344Y0119352D02*
X0387344Y0119352D01*
X0387344Y0119451D02*
X0381425Y0119451D01*
X0381506Y0119549D02*
X0387344Y0119549D01*
X0387344Y0119648D02*
X0381587Y0119648D01*
X0381691Y0119746D02*
X0387344Y0119746D01*
X0387344Y0119845D02*
X0381811Y0119845D01*
X0381931Y0119943D02*
X0387344Y0119943D01*
X0387344Y0120042D02*
X0382051Y0120042D01*
X0382183Y0120140D02*
X0387344Y0120140D01*
X0387344Y0120239D02*
X0382367Y0120239D01*
X0382551Y0120337D02*
X0387344Y0120337D01*
X0387344Y0120436D02*
X0382736Y0120436D01*
X0383046Y0120534D02*
X0387344Y0120534D01*
X0387344Y0120633D02*
X0383370Y0120633D01*
X0388844Y0120633D02*
X0392819Y0120633D01*
X0393143Y0120534D02*
X0388844Y0120534D01*
X0388844Y0120436D02*
X0393453Y0120436D01*
X0393638Y0120337D02*
X0388844Y0120337D01*
X0388844Y0120239D02*
X0393822Y0120239D01*
X0394006Y0120140D02*
X0388844Y0120140D01*
X0388844Y0120042D02*
X0394138Y0120042D01*
X0394258Y0119943D02*
X0388844Y0119943D01*
X0388844Y0119845D02*
X0394378Y0119845D01*
X0394498Y0119746D02*
X0388844Y0119746D01*
X0388844Y0119648D02*
X0394602Y0119648D01*
X0394683Y0119549D02*
X0388844Y0119549D01*
X0388844Y0119451D02*
X0394764Y0119451D01*
X0394845Y0119352D02*
X0388844Y0119352D01*
X0388844Y0119254D02*
X0394925Y0119254D01*
X0406344Y0140138D02*
X0410282Y0140138D01*
X0401844Y0258213D02*
X0401094Y0258213D01*
X0401094Y0265213D01*
X0400344Y0265213D01*
X0399662Y0265145D01*
X0399005Y0264946D01*
X0398400Y0264623D01*
X0397870Y0264187D01*
X0397434Y0263657D01*
X0397111Y0263052D01*
X0396912Y0262395D01*
X0396844Y0261713D01*
X0396912Y0261030D01*
X0397111Y0260373D01*
X0397434Y0259768D01*
X0397870Y0259238D01*
X0398400Y0258802D01*
X0399005Y0258479D01*
X0399662Y0258280D01*
X0400344Y0258213D01*
X0401094Y0258213D01*
X0401094Y0265213D01*
X0401844Y0265213D01*
X0402527Y0265145D01*
X0403184Y0264946D01*
X0403789Y0264623D01*
X0404319Y0264187D01*
X0404755Y0263657D01*
X0405078Y0263052D01*
X0405277Y0262395D01*
X0405344Y0261713D01*
X0405277Y0261030D01*
X0405078Y0260373D01*
X0404755Y0259768D01*
X0404319Y0259238D01*
X0403789Y0258802D01*
X0403184Y0258479D01*
X0402527Y0258280D01*
X0401844Y0258213D01*
X0402256Y0258253D02*
X0401094Y0258253D01*
X0399933Y0258253D01*
X0399425Y0258352D02*
X0401094Y0258352D01*
X0402764Y0258352D01*
X0403089Y0258450D02*
X0401094Y0258450D01*
X0399100Y0258450D01*
X0398875Y0258549D02*
X0401094Y0258549D01*
X0403314Y0258549D01*
X0403499Y0258647D02*
X0401094Y0258647D01*
X0398690Y0258647D01*
X0398506Y0258746D02*
X0401094Y0258746D01*
X0403683Y0258746D01*
X0403840Y0258844D02*
X0401094Y0258844D01*
X0398349Y0258844D01*
X0398229Y0258943D02*
X0401094Y0258943D01*
X0403960Y0258943D01*
X0404080Y0259041D02*
X0401094Y0259041D01*
X0398109Y0259041D01*
X0397989Y0259140D02*
X0401094Y0259140D01*
X0404200Y0259140D01*
X0404320Y0259238D02*
X0401094Y0259238D01*
X0397869Y0259238D01*
X0397788Y0259337D02*
X0401094Y0259337D01*
X0404401Y0259337D01*
X0404482Y0259435D02*
X0401094Y0259435D01*
X0397707Y0259435D01*
X0397627Y0259534D02*
X0401094Y0259534D01*
X0404562Y0259534D01*
X0404643Y0259632D02*
X0401094Y0259632D01*
X0397546Y0259632D01*
X0397465Y0259731D02*
X0401094Y0259731D01*
X0404724Y0259731D01*
X0404787Y0259829D02*
X0401094Y0259829D01*
X0397402Y0259829D01*
X0397349Y0259928D02*
X0401094Y0259928D01*
X0404840Y0259928D01*
X0404893Y0260026D02*
X0401094Y0260026D01*
X0397296Y0260026D01*
X0397244Y0260125D02*
X0401094Y0260125D01*
X0404945Y0260125D01*
X0404998Y0260223D02*
X0401094Y0260223D01*
X0397191Y0260223D01*
X0397138Y0260322D02*
X0401094Y0260322D01*
X0405051Y0260322D01*
X0405092Y0260420D02*
X0401094Y0260420D01*
X0397097Y0260420D01*
X0397067Y0260519D02*
X0401094Y0260519D01*
X0405122Y0260519D01*
X0405152Y0260617D02*
X0401094Y0260617D01*
X0397037Y0260617D01*
X0397007Y0260716D02*
X0401094Y0260716D01*
X0405182Y0260716D01*
X0405212Y0260814D02*
X0401094Y0260814D01*
X0396977Y0260814D01*
X0396947Y0260913D02*
X0401094Y0260913D01*
X0405242Y0260913D01*
X0405272Y0261011D02*
X0401094Y0261011D01*
X0396917Y0261011D01*
X0396904Y0261110D02*
X0401094Y0261110D01*
X0405285Y0261110D01*
X0405295Y0261209D02*
X0401094Y0261209D01*
X0396894Y0261209D01*
X0396884Y0261307D02*
X0401094Y0261307D01*
X0405305Y0261307D01*
X0405314Y0261406D02*
X0401094Y0261406D01*
X0396875Y0261406D01*
X0396865Y0261504D02*
X0401094Y0261504D01*
X0405324Y0261504D01*
X0405334Y0261603D02*
X0401094Y0261603D01*
X0396855Y0261603D01*
X0396846Y0261701D02*
X0401094Y0261701D01*
X0405343Y0261701D01*
X0405336Y0261800D02*
X0401094Y0261800D01*
X0396853Y0261800D01*
X0396863Y0261898D02*
X0401094Y0261898D01*
X0405326Y0261898D01*
X0405317Y0261997D02*
X0401094Y0261997D01*
X0396872Y0261997D01*
X0396882Y0262095D02*
X0401094Y0262095D01*
X0405307Y0262095D01*
X0405297Y0262194D02*
X0401094Y0262194D01*
X0396892Y0262194D01*
X0396902Y0262292D02*
X0401094Y0262292D01*
X0405287Y0262292D01*
X0405278Y0262391D02*
X0401094Y0262391D01*
X0396911Y0262391D01*
X0396940Y0262489D02*
X0401094Y0262489D01*
X0405249Y0262489D01*
X0405219Y0262588D02*
X0401094Y0262588D01*
X0396970Y0262588D01*
X0397000Y0262686D02*
X0401094Y0262686D01*
X0405189Y0262686D01*
X0405159Y0262785D02*
X0401094Y0262785D01*
X0397030Y0262785D01*
X0397060Y0262883D02*
X0401094Y0262883D01*
X0405129Y0262883D01*
X0405099Y0262982D02*
X0401094Y0262982D01*
X0397090Y0262982D01*
X0397126Y0263080D02*
X0401094Y0263080D01*
X0405063Y0263080D01*
X0405010Y0263179D02*
X0401094Y0263179D01*
X0397179Y0263179D01*
X0397231Y0263277D02*
X0401094Y0263277D01*
X0404958Y0263277D01*
X0404905Y0263376D02*
X0401094Y0263376D01*
X0397284Y0263376D01*
X0397337Y0263474D02*
X0401094Y0263474D01*
X0404852Y0263474D01*
X0404800Y0263573D02*
X0401094Y0263573D01*
X0397389Y0263573D01*
X0397446Y0263671D02*
X0401094Y0263671D01*
X0404743Y0263671D01*
X0404662Y0263770D02*
X0401094Y0263770D01*
X0397527Y0263770D01*
X0397608Y0263868D02*
X0401094Y0263868D01*
X0404581Y0263868D01*
X0404500Y0263967D02*
X0401094Y0263967D01*
X0397689Y0263967D01*
X0397769Y0264065D02*
X0401094Y0264065D01*
X0404420Y0264065D01*
X0404339Y0264164D02*
X0401094Y0264164D01*
X0397850Y0264164D01*
X0397961Y0264262D02*
X0401094Y0264262D01*
X0404228Y0264262D01*
X0404108Y0264361D02*
X0401094Y0264361D01*
X0398081Y0264361D01*
X0398201Y0264459D02*
X0401094Y0264459D01*
X0403988Y0264459D01*
X0403868Y0264558D02*
X0401094Y0264558D01*
X0398321Y0264558D01*
X0398463Y0264656D02*
X0401094Y0264656D01*
X0403726Y0264656D01*
X0403542Y0264755D02*
X0401094Y0264755D01*
X0398647Y0264755D01*
X0398832Y0264853D02*
X0401094Y0264853D01*
X0403357Y0264853D01*
X0403165Y0264952D02*
X0401094Y0264952D01*
X0399024Y0264952D01*
X0399349Y0265050D02*
X0401094Y0265050D01*
X0402840Y0265050D01*
X0402491Y0265149D02*
X0401094Y0265149D01*
X0399698Y0265149D01*
X0459361Y0286623D02*
X0459162Y0287280D01*
X0459094Y0287963D01*
X0459094Y0288713D01*
X0466094Y0288713D01*
X0466094Y0287963D01*
X0466027Y0287280D01*
X0465828Y0286623D01*
X0465505Y0286018D01*
X0465069Y0285488D01*
X0464539Y0285052D01*
X0463934Y0284729D01*
X0463277Y0284530D01*
X0462594Y0284463D01*
X0461912Y0284530D01*
X0461255Y0284729D01*
X0460650Y0285052D01*
X0460120Y0285488D01*
X0459684Y0286018D01*
X0459361Y0286623D01*
X0459361Y0286624D02*
X0465828Y0286624D01*
X0465858Y0286723D02*
X0459331Y0286723D01*
X0459301Y0286821D02*
X0465888Y0286821D01*
X0465918Y0286920D02*
X0459271Y0286920D01*
X0459241Y0287018D02*
X0465948Y0287018D01*
X0465978Y0287117D02*
X0459211Y0287117D01*
X0459181Y0287215D02*
X0466008Y0287215D01*
X0466031Y0287314D02*
X0459158Y0287314D01*
X0459149Y0287413D02*
X0466040Y0287413D01*
X0466050Y0287511D02*
X0459139Y0287511D01*
X0459129Y0287610D02*
X0466060Y0287610D01*
X0466069Y0287708D02*
X0459120Y0287708D01*
X0459110Y0287807D02*
X0466079Y0287807D01*
X0466089Y0287905D02*
X0459100Y0287905D01*
X0459094Y0288004D02*
X0466094Y0288004D01*
X0466094Y0288102D02*
X0459094Y0288102D01*
X0459094Y0288201D02*
X0466094Y0288201D01*
X0466094Y0288299D02*
X0459094Y0288299D01*
X0459094Y0288398D02*
X0466094Y0288398D01*
X0466094Y0288496D02*
X0459094Y0288496D01*
X0459094Y0288595D02*
X0466094Y0288595D01*
X0466094Y0288693D02*
X0459094Y0288693D01*
X0459094Y0288713D02*
X0466094Y0288713D01*
X0466094Y0289463D01*
X0466027Y0290145D01*
X0465828Y0290802D01*
X0465505Y0291407D01*
X0465069Y0291937D01*
X0464539Y0292373D01*
X0463934Y0292696D01*
X0463277Y0292895D01*
X0462594Y0292963D01*
X0461912Y0292895D01*
X0461255Y0292696D01*
X0460650Y0292373D01*
X0460120Y0291937D01*
X0459684Y0291407D01*
X0459361Y0290802D01*
X0459162Y0290145D01*
X0459094Y0289463D01*
X0459094Y0288713D01*
X0459094Y0288792D02*
X0466094Y0288792D01*
X0466094Y0288890D02*
X0459094Y0288890D01*
X0459094Y0288989D02*
X0466094Y0288989D01*
X0466094Y0289087D02*
X0459094Y0289087D01*
X0459094Y0289186D02*
X0466094Y0289186D01*
X0466094Y0289284D02*
X0459094Y0289284D01*
X0459094Y0289383D02*
X0466094Y0289383D01*
X0466093Y0289481D02*
X0459096Y0289481D01*
X0459106Y0289580D02*
X0466083Y0289580D01*
X0466073Y0289678D02*
X0459116Y0289678D01*
X0459125Y0289777D02*
X0466064Y0289777D01*
X0466054Y0289875D02*
X0459135Y0289875D01*
X0459145Y0289974D02*
X0466044Y0289974D01*
X0466034Y0290072D02*
X0459155Y0290072D01*
X0459169Y0290171D02*
X0466020Y0290171D01*
X0465990Y0290269D02*
X0459199Y0290269D01*
X0459229Y0290368D02*
X0465960Y0290368D01*
X0465930Y0290466D02*
X0459259Y0290466D01*
X0459289Y0290565D02*
X0465900Y0290565D01*
X0465870Y0290663D02*
X0459319Y0290663D01*
X0459349Y0290762D02*
X0465840Y0290762D01*
X0465797Y0290860D02*
X0459392Y0290860D01*
X0459445Y0290959D02*
X0465744Y0290959D01*
X0465692Y0291057D02*
X0459497Y0291057D01*
X0459550Y0291156D02*
X0465639Y0291156D01*
X0465586Y0291254D02*
X0459603Y0291254D01*
X0459655Y0291353D02*
X0465534Y0291353D01*
X0465468Y0291451D02*
X0459721Y0291451D01*
X0459802Y0291550D02*
X0465387Y0291550D01*
X0465307Y0291648D02*
X0459882Y0291648D01*
X0459963Y0291747D02*
X0465226Y0291747D01*
X0465145Y0291846D02*
X0460044Y0291846D01*
X0460128Y0291944D02*
X0465061Y0291944D01*
X0464941Y0292043D02*
X0460248Y0292043D01*
X0460368Y0292141D02*
X0464821Y0292141D01*
X0464701Y0292240D02*
X0460488Y0292240D01*
X0460608Y0292338D02*
X0464581Y0292338D01*
X0464420Y0292437D02*
X0460769Y0292437D01*
X0460954Y0292535D02*
X0464235Y0292535D01*
X0464051Y0292634D02*
X0461138Y0292634D01*
X0461374Y0292732D02*
X0463815Y0292732D01*
X0463491Y0292831D02*
X0461698Y0292831D01*
X0462255Y0292929D02*
X0462934Y0292929D01*
X0465776Y0286526D02*
X0459413Y0286526D01*
X0459466Y0286427D02*
X0465723Y0286427D01*
X0465671Y0286329D02*
X0459518Y0286329D01*
X0459571Y0286230D02*
X0465618Y0286230D01*
X0465565Y0286132D02*
X0459624Y0286132D01*
X0459676Y0286033D02*
X0465513Y0286033D01*
X0465436Y0285935D02*
X0459753Y0285935D01*
X0459834Y0285836D02*
X0465355Y0285836D01*
X0465275Y0285738D02*
X0459914Y0285738D01*
X0459995Y0285639D02*
X0465194Y0285639D01*
X0465113Y0285541D02*
X0460076Y0285541D01*
X0460175Y0285442D02*
X0465014Y0285442D01*
X0464894Y0285344D02*
X0460295Y0285344D01*
X0460415Y0285245D02*
X0464774Y0285245D01*
X0464654Y0285147D02*
X0460535Y0285147D01*
X0460658Y0285048D02*
X0464531Y0285048D01*
X0464347Y0284950D02*
X0460842Y0284950D01*
X0461026Y0284851D02*
X0464162Y0284851D01*
X0463978Y0284753D02*
X0461211Y0284753D01*
X0461502Y0284654D02*
X0463687Y0284654D01*
X0463362Y0284556D02*
X0461827Y0284556D01*
D40*
X0578028Y0064051D03*
X0599681Y0064051D03*
D41*
X0540344Y0046974D03*
X0540344Y0035951D03*
X0137594Y0122701D03*
X0137594Y0133724D03*
D42*
X0268594Y0043724D03*
X0268594Y0032701D03*
X0540344Y0055451D03*
X0540344Y0066474D03*
X0567594Y0055974D03*
X0567594Y0044951D03*
X0609594Y0044701D03*
X0609594Y0055724D03*
D43*
X0348713Y0174463D03*
X0338476Y0174463D03*
D44*
X0380892Y0249963D03*
X0386797Y0249963D03*
D45*
X0383344Y0109863D02*
X0383344Y0105063D01*
X0373344Y0105063D02*
X0373344Y0109863D01*
X0393344Y0109863D02*
X0393344Y0105063D01*
D46*
X0281803Y0188213D03*
X0270386Y0188213D03*
X0188053Y0184963D03*
X0176636Y0184963D03*
X0274636Y0323463D03*
X0286053Y0323463D03*
X0414636Y0219213D03*
X0426053Y0219213D03*
D47*
X0419675Y0251472D03*
X0419675Y0258953D03*
X0411014Y0255213D03*
D48*
X0350044Y0200419D03*
X0350044Y0197860D03*
X0350044Y0195301D03*
X0350044Y0192742D03*
X0350044Y0190183D03*
X0350044Y0187624D03*
X0350044Y0185065D03*
X0350044Y0182506D03*
X0327644Y0182506D03*
X0327644Y0185065D03*
X0327644Y0187624D03*
X0327644Y0190183D03*
X0327644Y0192742D03*
X0327644Y0195301D03*
X0327644Y0197860D03*
X0327644Y0200419D03*
D49*
X0253085Y0219963D03*
X0256854Y0287213D03*
D50*
X0282209Y0296209D03*
X0282209Y0278217D03*
X0227730Y0228959D03*
X0227730Y0210967D03*
D51*
X0217445Y0190437D02*
X0217445Y0181138D01*
X0239445Y0181138D02*
X0239445Y0190437D01*
X0261445Y0190437D02*
X0261445Y0181138D01*
X0166957Y0181138D02*
X0166957Y0190437D01*
X0144957Y0190437D02*
X0144957Y0181138D01*
X0122957Y0181138D02*
X0122957Y0190437D01*
X0162327Y0339240D02*
X0162327Y0348539D01*
X0184327Y0348539D02*
X0184327Y0339240D01*
X0206327Y0339240D02*
X0206327Y0348539D01*
X0284374Y0348539D02*
X0284374Y0339240D01*
X0306374Y0339240D02*
X0306374Y0348539D01*
X0328374Y0348539D02*
X0328374Y0339240D01*
D52*
X0257319Y0342390D02*
X0257319Y0348390D01*
X0237319Y0348390D02*
X0237319Y0342390D01*
D53*
X0124618Y0124963D03*
X0102571Y0124963D03*
X0093368Y0124963D03*
X0071321Y0124963D03*
D54*
X0342746Y0293963D03*
X0353943Y0293963D03*
D55*
X0155844Y0238203D03*
D56*
X0146848Y0212848D03*
X0164841Y0212848D03*
D57*
X0109594Y0265439D03*
X0093844Y0265439D03*
X0093844Y0287486D03*
X0109594Y0287486D03*
D58*
X0308844Y0294285D03*
X0308844Y0309640D03*
D59*
X0138272Y0267963D03*
X0122917Y0267963D03*
D60*
X0136374Y0149799D03*
X0108815Y0149799D03*
X0101925Y0035626D03*
X0115705Y0035626D03*
X0129484Y0035626D03*
X0143264Y0035626D03*
D61*
X0327157Y0271963D03*
X0335031Y0271963D03*
D62*
X0109594Y0304673D03*
X0109594Y0324752D03*
D63*
X0588844Y0076463D03*
D64*
X0568844Y0076463D03*
D65*
X0615547Y0084642D03*
X0625547Y0084642D03*
X0625547Y0094642D03*
X0615547Y0094642D03*
D66*
X0628421Y0114248D03*
D67*
X0628421Y0124091D03*
X0628421Y0133933D03*
X0628421Y0143776D03*
X0628421Y0153618D03*
X0628421Y0163461D03*
X0628421Y0173303D03*
X0628421Y0183146D03*
D68*
X0462594Y0282807D03*
X0462594Y0294618D03*
D69*
X0633146Y0357358D03*
D70*
X0062280Y0042398D03*
X0062280Y0357358D03*
X0633146Y0040429D03*
M02*
