G75*
G70*
%OFA0B0*%
%FSLAX24Y24*%
%IPPOS*%
%LPD*%
%AMOC8*
5,1,8,0,0,1.08239X$1,22.5*
%
%ADD10C,0.1000*%
%ADD11OC8,0.0600*%
%ADD12OC8,0.0827*%
%ADD13OC8,0.0540*%
%ADD14R,0.0827X0.0827*%
%ADD15C,0.0400*%
%ADD16C,0.0930*%
%ADD17R,0.0512X0.0591*%
%ADD18R,0.0591X0.0472*%
%ADD19C,0.0600*%
%ADD20R,0.0472X0.0591*%
%ADD21R,0.0591X0.0512*%
%ADD22R,0.0098X0.0197*%
%ADD23R,0.5512X0.1181*%
%ADD24R,0.1457X0.0512*%
%ADD25R,0.3976X0.3504*%
%ADD26C,0.1236*%
%ADD27OC8,0.1236*%
%ADD28OC8,0.0860*%
%ADD29R,0.0354X0.0354*%
%ADD30OC8,0.0650*%
%ADD31R,0.0591X0.0689*%
%ADD32R,0.0945X0.0945*%
%ADD33R,0.0689X0.0591*%
%ADD34R,0.0300X0.1280*%
%ADD35R,0.1280X0.0300*%
%ADD36R,0.0472X0.0472*%
%ADD37R,0.0630X0.0709*%
%ADD38R,0.0709X0.0630*%
%ADD39R,0.0866X0.0709*%
%ADD40R,0.1063X0.0630*%
%ADD41OC8,0.1000*%
%ADD42R,0.0394X0.0472*%
%ADD43C,0.0709*%
%ADD44OC8,0.0709*%
%ADD45R,0.0710X0.0630*%
%ADD46R,0.0600X0.1200*%
%ADD47R,0.1600X0.0430*%
%ADD48OC8,0.0930*%
%ADD49R,0.0500X0.0600*%
%ADD50R,0.1000X0.1200*%
%ADD51C,0.0000*%
%ADD52C,0.0001*%
%ADD53R,0.0350X0.0100*%
%ADD54R,0.0200X0.0100*%
%ADD55C,0.0480*%
%ADD56C,0.0433*%
%ADD57C,0.0400*%
%ADD58C,0.1800*%
%ADD59C,0.1000*%
%ADD60C,0.1500*%
%ADD61OC8,0.0317*%
%ADD62C,0.0320*%
%ADD63OC8,0.0357*%
%ADD64C,0.0120*%
%ADD65C,0.0160*%
%ADD66C,0.0240*%
%ADD67C,0.0100*%
%ADD68C,0.1200*%
%ADD69R,0.0317X0.0317*%
%ADD70C,0.0200*%
%ADD71C,0.0140*%
%ADD72R,0.0357X0.0357*%
%ADD73C,0.2165*%
D10*
X029462Y023075D03*
X007937Y025125D03*
X056569Y015411D03*
X060506Y015411D03*
X060506Y010489D03*
X056569Y010489D03*
D11*
X055587Y008125D03*
X061487Y008125D03*
X061487Y017950D03*
X055587Y017950D03*
D12*
X061780Y023028D03*
X061780Y024978D03*
X061780Y027028D03*
X057462Y005204D03*
X057462Y003550D03*
X057462Y001896D03*
X006114Y015350D03*
X004461Y015350D03*
D13*
X018787Y022575D03*
X022787Y021575D03*
X054662Y021150D03*
X058662Y021150D03*
X058662Y020150D03*
X062662Y020150D03*
D14*
X061780Y029028D03*
D15*
X062173Y004374D03*
X005874Y032721D03*
D16*
X036874Y031378D02*
X037804Y031378D01*
X037804Y029178D02*
X036874Y029178D01*
X036874Y026978D02*
X037804Y026978D01*
X037804Y020354D02*
X036874Y020354D01*
X036874Y018154D02*
X037804Y018154D01*
X037804Y015954D02*
X036874Y015954D01*
X036874Y013661D02*
X037804Y013661D01*
X037804Y011461D02*
X036874Y011461D01*
X036874Y009261D02*
X037804Y009261D01*
X037804Y006968D02*
X036874Y006968D01*
X036874Y004768D02*
X037804Y004768D01*
X037804Y002568D02*
X036874Y002568D01*
D17*
X038838Y016325D03*
X039586Y016325D03*
X004761Y004100D03*
X004013Y004100D03*
D18*
X038717Y015575D03*
X039858Y015575D03*
D19*
X037489Y022666D02*
X036889Y022666D01*
X036889Y024666D02*
X037489Y024666D01*
X004437Y024175D02*
X003837Y024175D01*
X003837Y023175D02*
X004437Y023175D01*
X004437Y022175D02*
X003837Y022175D01*
X003837Y025175D02*
X004437Y025175D01*
X004437Y026175D02*
X003837Y026175D01*
X003837Y027175D02*
X004437Y027175D01*
X004437Y028175D02*
X003837Y028175D01*
X003837Y029175D02*
X004437Y029175D01*
D20*
X039912Y009546D03*
X039912Y008404D03*
D21*
X039112Y008501D03*
X039112Y009249D03*
X014837Y020726D03*
X014837Y021474D03*
X014837Y022276D03*
X014837Y023024D03*
X010912Y026876D03*
X010912Y027624D03*
X010912Y028601D03*
X010912Y029349D03*
X010912Y030626D03*
X010912Y031374D03*
X010912Y032176D03*
X010912Y032924D03*
X025712Y032849D03*
X025712Y032101D03*
X025712Y031299D03*
X025712Y030551D03*
X026837Y028399D03*
X026837Y027651D03*
X028037Y027651D03*
X028037Y028399D03*
X012912Y019024D03*
X012912Y018276D03*
D22*
X054891Y027825D03*
X054984Y027825D03*
D23*
X045787Y020302D03*
X045787Y011798D03*
X045787Y010052D03*
X045787Y001548D03*
D24*
X013889Y001950D03*
X013889Y003950D03*
X013864Y006850D03*
X013864Y008850D03*
D25*
X017840Y007850D03*
X017865Y002950D03*
D26*
X010864Y004800D03*
X017687Y011924D03*
X012089Y012350D03*
X047737Y030776D03*
X054937Y030776D03*
D27*
X054937Y027824D03*
X047737Y027824D03*
X017687Y014876D03*
X009136Y012350D03*
X007911Y004800D03*
D28*
X003362Y017150D03*
D29*
X005362Y017150D03*
D30*
X013862Y014900D03*
X018962Y020850D03*
X028987Y015200D03*
X031612Y025650D03*
X039012Y025525D03*
X038912Y031250D03*
X051887Y006475D03*
D31*
X010912Y023760D03*
X010912Y025040D03*
X008687Y028835D03*
X008687Y030115D03*
D32*
X012287Y030934D03*
X012287Y032666D03*
X012262Y028791D03*
X012262Y027059D03*
X013437Y022966D03*
X013437Y021234D03*
X024412Y030884D03*
X024412Y032616D03*
D33*
X015203Y018850D03*
X013923Y018850D03*
D34*
X016837Y020750D03*
X016837Y022650D03*
X027912Y030225D03*
X027912Y032125D03*
D35*
X009187Y032075D03*
X007287Y032075D03*
D36*
X006512Y022513D03*
X006512Y021687D03*
D37*
X007786Y023500D03*
X008889Y023500D03*
D38*
X006887Y029024D03*
X006887Y030126D03*
D39*
X024362Y028404D03*
X024362Y026396D03*
D40*
X024387Y025451D03*
X024387Y024349D03*
D41*
X029462Y025075D03*
X007937Y027125D03*
D42*
X028862Y027513D03*
X029562Y027513D03*
X029562Y028537D03*
X028862Y028537D03*
D43*
X022549Y028600D03*
X022549Y026631D03*
X022549Y030569D03*
X022549Y031553D03*
X014675Y032045D03*
X014675Y031061D03*
X014675Y030076D03*
X014675Y029092D03*
X014675Y028108D03*
X014675Y027124D03*
X014675Y026139D03*
X014675Y025155D03*
D44*
X022549Y025647D03*
D45*
X025462Y025460D03*
X025462Y024340D03*
D46*
X005377Y005875D03*
X003397Y005875D03*
D47*
X003582Y008925D03*
X006042Y008925D03*
X006042Y012400D03*
X003582Y012400D03*
D48*
X021032Y010181D03*
X021032Y008804D03*
X021032Y007426D03*
X021032Y006048D03*
X032449Y006737D03*
X032449Y009493D03*
D49*
X010237Y018975D03*
X007912Y018950D03*
X040532Y027875D03*
X041262Y027875D03*
X041992Y027875D03*
X041992Y030875D03*
X041262Y030875D03*
X040532Y030875D03*
D50*
X040232Y029375D03*
X042292Y029375D03*
D51*
X010865Y019090D02*
X010882Y019034D01*
X010887Y018975D01*
X010882Y018916D01*
X010865Y018860D01*
X010837Y018808D01*
X010800Y018763D01*
X010754Y018726D01*
X010702Y018698D01*
X010646Y018681D01*
X010587Y018675D01*
X010587Y019275D01*
X010646Y019269D01*
X010702Y019252D01*
X010754Y019224D01*
X010800Y019187D01*
X010837Y019142D01*
X010865Y019090D01*
X010037Y019025D02*
X010037Y018925D01*
X009887Y018925D01*
X009887Y018675D01*
X009829Y018681D01*
X009773Y018698D01*
X009721Y018726D01*
X009675Y018763D01*
X009638Y018808D01*
X009610Y018860D01*
X009593Y018916D01*
X009587Y018975D01*
X009593Y019034D01*
X009610Y019090D01*
X009638Y019142D01*
X009675Y019187D01*
X009721Y019224D01*
X009773Y019252D01*
X009829Y019269D01*
X009887Y019275D01*
X009887Y019025D01*
X010037Y019025D01*
X008562Y018950D02*
X008557Y018891D01*
X008540Y018835D01*
X008512Y018783D01*
X008475Y018738D01*
X008429Y018701D01*
X008377Y018673D01*
X008321Y018656D01*
X008262Y018650D01*
X008262Y018900D01*
X008112Y018900D01*
X008112Y019000D01*
X008262Y019000D01*
X008262Y019250D01*
X008321Y019244D01*
X008377Y019227D01*
X008429Y019199D01*
X008475Y019162D01*
X008512Y019117D01*
X008540Y019065D01*
X008557Y019009D01*
X008562Y018950D01*
X007562Y018650D02*
X007504Y018656D01*
X007448Y018673D01*
X007396Y018701D01*
X007350Y018738D01*
X007313Y018783D01*
X007285Y018835D01*
X007268Y018891D01*
X007262Y018950D01*
X007268Y019009D01*
X007285Y019065D01*
X007313Y019117D01*
X007350Y019162D01*
X007396Y019199D01*
X007448Y019227D01*
X007504Y019244D01*
X007562Y019250D01*
X007562Y018650D01*
D52*
X007560Y018650D01*
X007562Y018651D02*
X007549Y018651D01*
X007539Y018652D02*
X007562Y018652D01*
X007562Y018653D02*
X007529Y018653D01*
X007519Y018654D02*
X007562Y018654D01*
X007562Y018655D02*
X007509Y018655D01*
X007502Y018656D02*
X007562Y018656D01*
X007562Y018657D02*
X007499Y018657D01*
X007496Y018658D02*
X007562Y018658D01*
X007562Y018659D02*
X007492Y018659D01*
X007489Y018660D02*
X007562Y018660D01*
X007562Y018661D02*
X007486Y018661D01*
X007482Y018662D02*
X007562Y018662D01*
X007562Y018663D02*
X007479Y018663D01*
X007476Y018664D02*
X007562Y018664D01*
X007562Y018665D02*
X007473Y018665D01*
X007469Y018666D02*
X007562Y018666D01*
X007562Y018667D02*
X007466Y018667D01*
X007463Y018668D02*
X007562Y018668D01*
X007562Y018669D02*
X007459Y018669D01*
X007456Y018670D02*
X007562Y018670D01*
X007562Y018671D02*
X007453Y018671D01*
X007450Y018672D02*
X007562Y018672D01*
X007562Y018673D02*
X007447Y018673D01*
X007445Y018674D02*
X007562Y018674D01*
X007562Y018675D02*
X007443Y018675D01*
X007441Y018676D02*
X007562Y018676D01*
X007562Y018677D02*
X007439Y018677D01*
X007438Y018678D02*
X007562Y018678D01*
X007562Y018679D02*
X007436Y018679D01*
X007434Y018680D02*
X007562Y018680D01*
X007562Y018681D02*
X007432Y018681D01*
X007430Y018682D02*
X007562Y018682D01*
X007562Y018683D02*
X007428Y018683D01*
X007426Y018684D02*
X007562Y018684D01*
X007562Y018685D02*
X007424Y018685D01*
X007423Y018686D02*
X007562Y018686D01*
X007562Y018687D02*
X007421Y018687D01*
X007419Y018688D02*
X007562Y018688D01*
X007562Y018689D02*
X007417Y018689D01*
X007415Y018690D02*
X007562Y018690D01*
X007562Y018691D02*
X007413Y018691D01*
X007411Y018692D02*
X007562Y018692D01*
X007562Y018693D02*
X007409Y018693D01*
X007408Y018694D02*
X007562Y018694D01*
X007562Y018695D02*
X007406Y018695D01*
X007404Y018696D02*
X007562Y018696D01*
X007562Y018697D02*
X007402Y018697D01*
X007400Y018698D02*
X007562Y018698D01*
X007562Y018699D02*
X007398Y018699D01*
X007396Y018700D02*
X007562Y018700D01*
X007562Y018701D02*
X007395Y018701D01*
X007394Y018702D02*
X007562Y018702D01*
X007562Y018703D02*
X007393Y018703D01*
X007391Y018704D02*
X007562Y018704D01*
X007562Y018705D02*
X007390Y018705D01*
X007389Y018706D02*
X007562Y018706D01*
X007562Y018707D02*
X007388Y018707D01*
X007386Y018708D02*
X007562Y018708D01*
X007562Y018709D02*
X007385Y018709D01*
X007384Y018710D02*
X007562Y018710D01*
X007562Y018711D02*
X007383Y018711D01*
X007382Y018712D02*
X007562Y018712D01*
X007562Y018713D02*
X007380Y018713D01*
X007379Y018714D02*
X007562Y018714D01*
X007562Y018715D02*
X007378Y018715D01*
X007377Y018716D02*
X007562Y018716D01*
X007562Y018717D02*
X007376Y018717D01*
X007374Y018718D02*
X007562Y018718D01*
X007562Y018719D02*
X007373Y018719D01*
X007372Y018720D02*
X007562Y018720D01*
X007562Y018721D02*
X007371Y018721D01*
X007369Y018722D02*
X007562Y018722D01*
X007562Y018723D02*
X007368Y018723D01*
X007367Y018724D02*
X007562Y018724D01*
X007562Y018725D02*
X007366Y018725D01*
X007365Y018726D02*
X007562Y018726D01*
X007562Y018727D02*
X007363Y018727D01*
X007362Y018728D02*
X007562Y018728D01*
X007562Y018729D02*
X007361Y018729D01*
X007360Y018730D02*
X007562Y018730D01*
X007562Y018731D02*
X007358Y018731D01*
X007357Y018732D02*
X007562Y018732D01*
X007562Y018733D02*
X007356Y018733D01*
X007355Y018734D02*
X007562Y018734D01*
X007562Y018735D02*
X007354Y018735D01*
X007352Y018736D02*
X007562Y018736D01*
X007562Y018737D02*
X007351Y018737D01*
X007350Y018738D02*
X007562Y018738D01*
X007562Y018739D02*
X007349Y018739D01*
X007348Y018740D02*
X007562Y018740D01*
X007562Y018741D02*
X007348Y018741D01*
X007347Y018742D02*
X007562Y018742D01*
X007562Y018743D02*
X007346Y018743D01*
X007345Y018744D02*
X007562Y018744D01*
X007562Y018745D02*
X007344Y018745D01*
X007344Y018746D02*
X007562Y018746D01*
X007562Y018747D02*
X007343Y018747D01*
X007342Y018748D02*
X007562Y018748D01*
X007562Y018749D02*
X007341Y018749D01*
X007340Y018750D02*
X007562Y018750D01*
X007562Y018751D02*
X007339Y018751D01*
X007339Y018752D02*
X007562Y018752D01*
X007562Y018753D02*
X007338Y018753D01*
X007337Y018754D02*
X007562Y018754D01*
X007562Y018755D02*
X007336Y018755D01*
X007335Y018756D02*
X007562Y018756D01*
X007562Y018757D02*
X007334Y018757D01*
X007334Y018758D02*
X007562Y018758D01*
X007562Y018759D02*
X007333Y018759D01*
X007332Y018760D02*
X007562Y018760D01*
X007562Y018761D02*
X007331Y018761D01*
X007330Y018762D02*
X007562Y018762D01*
X007562Y018763D02*
X007330Y018763D01*
X007329Y018764D02*
X007562Y018764D01*
X007562Y018765D02*
X007328Y018765D01*
X007327Y018766D02*
X007562Y018766D01*
X007562Y018767D02*
X007326Y018767D01*
X007325Y018768D02*
X007562Y018768D01*
X007562Y018769D02*
X007325Y018769D01*
X007324Y018770D02*
X007562Y018770D01*
X007562Y018771D02*
X007323Y018771D01*
X007322Y018772D02*
X007562Y018772D01*
X007562Y018773D02*
X007321Y018773D01*
X007321Y018774D02*
X007562Y018774D01*
X007562Y018775D02*
X007320Y018775D01*
X007319Y018776D02*
X007562Y018776D01*
X007562Y018777D02*
X007318Y018777D01*
X007317Y018778D02*
X007562Y018778D01*
X007562Y018779D02*
X007316Y018779D01*
X007316Y018780D02*
X007562Y018780D01*
X007562Y018781D02*
X007315Y018781D01*
X007314Y018782D02*
X007562Y018782D01*
X007562Y018783D02*
X007313Y018783D01*
X007313Y018784D02*
X007562Y018784D01*
X007562Y018785D02*
X007312Y018785D01*
X007312Y018786D02*
X007562Y018786D01*
X007562Y018787D02*
X007311Y018787D01*
X007310Y018788D02*
X007562Y018788D01*
X007562Y018789D02*
X007310Y018789D01*
X007309Y018790D02*
X007562Y018790D01*
X007562Y018791D02*
X007309Y018791D01*
X007308Y018792D02*
X007562Y018792D01*
X007562Y018793D02*
X007308Y018793D01*
X007307Y018794D02*
X007562Y018794D01*
X007562Y018795D02*
X007307Y018795D01*
X007306Y018796D02*
X007562Y018796D01*
X007562Y018797D02*
X007306Y018797D01*
X007305Y018798D02*
X007562Y018798D01*
X007562Y018799D02*
X007305Y018799D01*
X007304Y018800D02*
X007562Y018800D01*
X007562Y018801D02*
X007304Y018801D01*
X007303Y018802D02*
X007562Y018802D01*
X007562Y018803D02*
X007302Y018803D01*
X007302Y018804D02*
X007562Y018804D01*
X007562Y018805D02*
X007301Y018805D01*
X007301Y018806D02*
X007562Y018806D01*
X007562Y018807D02*
X007300Y018807D01*
X007300Y018808D02*
X007562Y018808D01*
X007562Y018809D02*
X007299Y018809D01*
X007299Y018810D02*
X007562Y018810D01*
X007562Y018811D02*
X007298Y018811D01*
X007298Y018812D02*
X007562Y018812D01*
X007562Y018813D02*
X007297Y018813D01*
X007297Y018814D02*
X007562Y018814D01*
X007562Y018815D02*
X007296Y018815D01*
X007296Y018816D02*
X007562Y018816D01*
X007562Y018817D02*
X007295Y018817D01*
X007294Y018818D02*
X007562Y018818D01*
X007562Y018819D02*
X007294Y018819D01*
X007293Y018820D02*
X007562Y018820D01*
X007562Y018821D02*
X007293Y018821D01*
X007292Y018822D02*
X007562Y018822D01*
X007562Y018823D02*
X007292Y018823D01*
X007291Y018824D02*
X007562Y018824D01*
X007562Y018825D02*
X007291Y018825D01*
X007290Y018826D02*
X007562Y018826D01*
X007562Y018827D02*
X007290Y018827D01*
X007289Y018828D02*
X007562Y018828D01*
X007562Y018829D02*
X007289Y018829D01*
X007288Y018830D02*
X007562Y018830D01*
X007562Y018831D02*
X007287Y018831D01*
X007287Y018832D02*
X007562Y018832D01*
X007562Y018833D02*
X007286Y018833D01*
X007286Y018834D02*
X007562Y018834D01*
X007562Y018835D02*
X007285Y018835D01*
X007285Y018836D02*
X007562Y018836D01*
X007562Y018837D02*
X007285Y018837D01*
X007284Y018838D02*
X007562Y018838D01*
X007562Y018839D02*
X007284Y018839D01*
X007284Y018840D02*
X007562Y018840D01*
X007562Y018841D02*
X007284Y018841D01*
X007283Y018842D02*
X007562Y018842D01*
X007562Y018843D02*
X007283Y018843D01*
X007283Y018844D02*
X007562Y018844D01*
X007562Y018845D02*
X007282Y018845D01*
X007282Y018846D02*
X007562Y018846D01*
X007562Y018847D02*
X007282Y018847D01*
X007281Y018848D02*
X007562Y018848D01*
X007562Y018849D02*
X007281Y018849D01*
X007281Y018850D02*
X007562Y018850D01*
X007562Y018851D02*
X007280Y018851D01*
X007280Y018852D02*
X007562Y018852D01*
X007562Y018853D02*
X007280Y018853D01*
X007280Y018854D02*
X007562Y018854D01*
X007562Y018855D02*
X007279Y018855D01*
X007279Y018856D02*
X007562Y018856D01*
X007562Y018857D02*
X007279Y018857D01*
X007278Y018858D02*
X007562Y018858D01*
X007562Y018859D02*
X007278Y018859D01*
X007278Y018860D02*
X007562Y018860D01*
X007562Y018861D02*
X007277Y018861D01*
X007277Y018862D02*
X007562Y018862D01*
X007562Y018863D02*
X007277Y018863D01*
X007277Y018864D02*
X007562Y018864D01*
X007562Y018865D02*
X007276Y018865D01*
X007276Y018866D02*
X007562Y018866D01*
X007562Y018867D02*
X007276Y018867D01*
X007275Y018868D02*
X007562Y018868D01*
X007562Y018869D02*
X007275Y018869D01*
X007275Y018870D02*
X007562Y018870D01*
X007562Y018871D02*
X007274Y018871D01*
X007274Y018872D02*
X007562Y018872D01*
X007562Y018873D02*
X007274Y018873D01*
X007274Y018874D02*
X007562Y018874D01*
X007562Y018875D02*
X007273Y018875D01*
X007273Y018876D02*
X007562Y018876D01*
X007562Y018877D02*
X007273Y018877D01*
X007272Y018878D02*
X007562Y018878D01*
X007562Y018879D02*
X007272Y018879D01*
X007272Y018880D02*
X007562Y018880D01*
X007562Y018881D02*
X007271Y018881D01*
X007271Y018882D02*
X007562Y018882D01*
X007562Y018883D02*
X007271Y018883D01*
X007270Y018884D02*
X007562Y018884D01*
X007562Y018885D02*
X007270Y018885D01*
X007270Y018886D02*
X007562Y018886D01*
X007562Y018887D02*
X007270Y018887D01*
X007269Y018888D02*
X007562Y018888D01*
X007562Y018889D02*
X007269Y018889D01*
X007269Y018890D02*
X007562Y018890D01*
X007562Y018891D02*
X007268Y018891D01*
X007268Y018892D02*
X007562Y018892D01*
X007562Y018893D02*
X007268Y018893D01*
X007268Y018894D02*
X007562Y018894D01*
X007562Y018895D02*
X007268Y018895D01*
X007268Y018896D02*
X007562Y018896D01*
X007562Y018897D02*
X007268Y018897D01*
X007268Y018898D02*
X007562Y018898D01*
X007562Y018899D02*
X007267Y018899D01*
X007267Y018900D02*
X007562Y018900D01*
X007562Y018901D02*
X007267Y018901D01*
X007267Y018902D02*
X007562Y018902D01*
X007562Y018903D02*
X007267Y018903D01*
X007267Y018904D02*
X007562Y018904D01*
X007562Y018905D02*
X007267Y018905D01*
X007267Y018906D02*
X007562Y018906D01*
X007562Y018907D02*
X007267Y018907D01*
X007267Y018908D02*
X007562Y018908D01*
X007562Y018909D02*
X007267Y018909D01*
X007266Y018910D02*
X007562Y018910D01*
X007562Y018911D02*
X007266Y018911D01*
X007266Y018912D02*
X007562Y018912D01*
X007562Y018913D02*
X007266Y018913D01*
X007266Y018914D02*
X007562Y018914D01*
X007562Y018915D02*
X007266Y018915D01*
X007266Y018916D02*
X007562Y018916D01*
X007562Y018917D02*
X007266Y018917D01*
X007266Y018918D02*
X007562Y018918D01*
X007562Y018919D02*
X007266Y018919D01*
X007265Y018920D02*
X007562Y018920D01*
X007562Y018921D02*
X007265Y018921D01*
X007265Y018922D02*
X007562Y018922D01*
X007562Y018923D02*
X007265Y018923D01*
X007265Y018924D02*
X007562Y018924D01*
X007562Y018925D02*
X007265Y018925D01*
X007265Y018926D02*
X007562Y018926D01*
X007562Y018927D02*
X007265Y018927D01*
X007265Y018928D02*
X007562Y018928D01*
X007562Y018929D02*
X007265Y018929D01*
X007264Y018930D02*
X007562Y018930D01*
X007562Y018931D02*
X007264Y018931D01*
X007264Y018932D02*
X007562Y018932D01*
X007562Y018933D02*
X007264Y018933D01*
X007264Y018934D02*
X007562Y018934D01*
X007562Y018935D02*
X007264Y018935D01*
X007264Y018936D02*
X007562Y018936D01*
X007562Y018937D02*
X007264Y018937D01*
X007264Y018938D02*
X007562Y018938D01*
X007562Y018939D02*
X007264Y018939D01*
X007263Y018940D02*
X007562Y018940D01*
X007562Y018941D02*
X007263Y018941D01*
X007263Y018942D02*
X007562Y018942D01*
X007562Y018943D02*
X007263Y018943D01*
X007263Y018944D02*
X007562Y018944D01*
X007562Y018945D02*
X007263Y018945D01*
X007263Y018946D02*
X007562Y018946D01*
X007562Y018947D02*
X007263Y018947D01*
X007263Y018948D02*
X007562Y018948D01*
X007562Y018949D02*
X007263Y018949D01*
X007262Y018950D02*
X007562Y018950D01*
X007562Y018951D02*
X007263Y018951D01*
X007263Y018952D02*
X007562Y018952D01*
X007562Y018953D02*
X007263Y018953D01*
X007263Y018954D02*
X007562Y018954D01*
X007562Y018955D02*
X007263Y018955D01*
X007263Y018956D02*
X007562Y018956D01*
X007562Y018957D02*
X007263Y018957D01*
X007263Y018958D02*
X007562Y018958D01*
X007562Y018959D02*
X007263Y018959D01*
X007263Y018960D02*
X007562Y018960D01*
X007562Y018961D02*
X007264Y018961D01*
X007264Y018962D02*
X007562Y018962D01*
X007562Y018963D02*
X007264Y018963D01*
X007264Y018964D02*
X007562Y018964D01*
X007562Y018965D02*
X007264Y018965D01*
X007264Y018966D02*
X007562Y018966D01*
X007562Y018967D02*
X007264Y018967D01*
X007264Y018968D02*
X007562Y018968D01*
X007562Y018969D02*
X007264Y018969D01*
X007264Y018970D02*
X007562Y018970D01*
X007562Y018971D02*
X007265Y018971D01*
X007265Y018972D02*
X007562Y018972D01*
X007562Y018973D02*
X007265Y018973D01*
X007265Y018974D02*
X007562Y018974D01*
X007562Y018975D02*
X007265Y018975D01*
X007265Y018976D02*
X007562Y018976D01*
X007562Y018977D02*
X007265Y018977D01*
X007265Y018978D02*
X007562Y018978D01*
X007562Y018979D02*
X007265Y018979D01*
X007265Y018980D02*
X007562Y018980D01*
X007562Y018981D02*
X007266Y018981D01*
X007266Y018982D02*
X007562Y018982D01*
X007562Y018983D02*
X007266Y018983D01*
X007266Y018984D02*
X007562Y018984D01*
X007562Y018985D02*
X007266Y018985D01*
X007266Y018986D02*
X007562Y018986D01*
X007562Y018987D02*
X007266Y018987D01*
X007266Y018988D02*
X007562Y018988D01*
X007562Y018989D02*
X007266Y018989D01*
X007266Y018990D02*
X007562Y018990D01*
X007562Y018991D02*
X007266Y018991D01*
X007267Y018992D02*
X007562Y018992D01*
X007562Y018993D02*
X007267Y018993D01*
X007267Y018994D02*
X007562Y018994D01*
X007562Y018995D02*
X007267Y018995D01*
X007267Y018996D02*
X007562Y018996D01*
X007562Y018997D02*
X007267Y018997D01*
X007267Y018998D02*
X007562Y018998D01*
X007562Y018999D02*
X007267Y018999D01*
X007267Y019000D02*
X007562Y019000D01*
X007562Y019001D02*
X007267Y019001D01*
X007268Y019002D02*
X007562Y019002D01*
X007562Y019003D02*
X007268Y019003D01*
X007268Y019004D02*
X007562Y019004D01*
X007562Y019005D02*
X007268Y019005D01*
X007268Y019006D02*
X007562Y019006D01*
X007562Y019007D02*
X007268Y019007D01*
X007268Y019008D02*
X007562Y019008D01*
X007562Y019009D02*
X007268Y019009D01*
X007269Y019010D02*
X007562Y019010D01*
X007562Y019011D02*
X007269Y019011D01*
X007269Y019012D02*
X007562Y019012D01*
X007562Y019013D02*
X007270Y019013D01*
X007270Y019014D02*
X007562Y019014D01*
X007562Y019015D02*
X007270Y019015D01*
X007270Y019016D02*
X007562Y019016D01*
X007562Y019017D02*
X007271Y019017D01*
X007271Y019018D02*
X007562Y019018D01*
X007562Y019019D02*
X007271Y019019D01*
X007272Y019020D02*
X007562Y019020D01*
X007562Y019021D02*
X007272Y019021D01*
X007272Y019022D02*
X007562Y019022D01*
X007562Y019023D02*
X007273Y019023D01*
X007273Y019024D02*
X007562Y019024D01*
X007562Y019025D02*
X007273Y019025D01*
X007274Y019026D02*
X007562Y019026D01*
X007562Y019027D02*
X007274Y019027D01*
X007274Y019028D02*
X007562Y019028D01*
X007562Y019029D02*
X007274Y019029D01*
X007275Y019030D02*
X007562Y019030D01*
X007562Y019031D02*
X007275Y019031D01*
X007275Y019032D02*
X007562Y019032D01*
X007562Y019033D02*
X007276Y019033D01*
X007276Y019034D02*
X007562Y019034D01*
X007562Y019035D02*
X007276Y019035D01*
X007277Y019036D02*
X007562Y019036D01*
X007562Y019037D02*
X007277Y019037D01*
X007277Y019038D02*
X007562Y019038D01*
X007562Y019039D02*
X007277Y019039D01*
X007278Y019040D02*
X007562Y019040D01*
X007562Y019041D02*
X007278Y019041D01*
X007278Y019042D02*
X007562Y019042D01*
X007562Y019043D02*
X007279Y019043D01*
X007279Y019044D02*
X007562Y019044D01*
X007562Y019045D02*
X007279Y019045D01*
X007280Y019046D02*
X007562Y019046D01*
X007562Y019047D02*
X007280Y019047D01*
X007280Y019048D02*
X007562Y019048D01*
X007562Y019049D02*
X007280Y019049D01*
X007281Y019050D02*
X007562Y019050D01*
X007562Y019051D02*
X007281Y019051D01*
X007281Y019052D02*
X007562Y019052D01*
X007562Y019053D02*
X007282Y019053D01*
X007282Y019054D02*
X007562Y019054D01*
X007562Y019055D02*
X007282Y019055D01*
X007283Y019056D02*
X007562Y019056D01*
X007562Y019057D02*
X007283Y019057D01*
X007283Y019058D02*
X007562Y019058D01*
X007562Y019059D02*
X007284Y019059D01*
X007284Y019060D02*
X007562Y019060D01*
X007562Y019061D02*
X007284Y019061D01*
X007284Y019062D02*
X007562Y019062D01*
X007562Y019063D02*
X007285Y019063D01*
X007285Y019064D02*
X007562Y019064D01*
X007562Y019065D02*
X007285Y019065D01*
X007286Y019066D02*
X007562Y019066D01*
X007562Y019067D02*
X007286Y019067D01*
X007287Y019068D02*
X007562Y019068D01*
X007562Y019069D02*
X007287Y019069D01*
X007288Y019070D02*
X007562Y019070D01*
X007562Y019071D02*
X007289Y019071D01*
X007289Y019072D02*
X007562Y019072D01*
X007562Y019073D02*
X007290Y019073D01*
X007290Y019074D02*
X007562Y019074D01*
X007562Y019075D02*
X007291Y019075D01*
X007291Y019076D02*
X007562Y019076D01*
X007562Y019077D02*
X007292Y019077D01*
X007292Y019078D02*
X007562Y019078D01*
X007562Y019079D02*
X007293Y019079D01*
X007293Y019080D02*
X007562Y019080D01*
X007562Y019081D02*
X007294Y019081D01*
X007294Y019082D02*
X007562Y019082D01*
X007562Y019083D02*
X007295Y019083D01*
X007295Y019084D02*
X007562Y019084D01*
X007562Y019085D02*
X007296Y019085D01*
X007297Y019086D02*
X007562Y019086D01*
X007562Y019087D02*
X007297Y019087D01*
X007298Y019088D02*
X007562Y019088D01*
X007562Y019089D02*
X007298Y019089D01*
X007299Y019090D02*
X007562Y019090D01*
X007562Y019091D02*
X007299Y019091D01*
X007300Y019092D02*
X007562Y019092D01*
X007562Y019093D02*
X007300Y019093D01*
X007301Y019094D02*
X007562Y019094D01*
X007562Y019095D02*
X007301Y019095D01*
X007302Y019096D02*
X007562Y019096D01*
X007562Y019097D02*
X007302Y019097D01*
X007303Y019098D02*
X007562Y019098D01*
X007562Y019099D02*
X007303Y019099D01*
X007304Y019100D02*
X007562Y019100D01*
X007562Y019101D02*
X007305Y019101D01*
X007305Y019102D02*
X007562Y019102D01*
X007562Y019103D02*
X007306Y019103D01*
X007306Y019104D02*
X007562Y019104D01*
X007562Y019105D02*
X007307Y019105D01*
X007307Y019106D02*
X007562Y019106D01*
X007562Y019107D02*
X007308Y019107D01*
X007308Y019108D02*
X007562Y019108D01*
X007562Y019109D02*
X007309Y019109D01*
X007309Y019110D02*
X007562Y019110D01*
X007562Y019111D02*
X007310Y019111D01*
X007310Y019112D02*
X007562Y019112D01*
X007562Y019113D02*
X007311Y019113D01*
X007312Y019114D02*
X007562Y019114D01*
X007562Y019115D02*
X007312Y019115D01*
X007313Y019116D02*
X007562Y019116D01*
X007562Y019117D02*
X007313Y019117D01*
X007314Y019118D02*
X007562Y019118D01*
X007562Y019119D02*
X007315Y019119D01*
X007316Y019120D02*
X007562Y019120D01*
X007562Y019121D02*
X007316Y019121D01*
X007317Y019122D02*
X007562Y019122D01*
X007562Y019123D02*
X007318Y019123D01*
X007319Y019124D02*
X007562Y019124D01*
X007562Y019125D02*
X007320Y019125D01*
X007321Y019126D02*
X007562Y019126D01*
X007562Y019127D02*
X007321Y019127D01*
X007322Y019128D02*
X007562Y019128D01*
X007562Y019129D02*
X007323Y019129D01*
X007324Y019130D02*
X007562Y019130D01*
X007562Y019131D02*
X007325Y019131D01*
X007325Y019132D02*
X007562Y019132D01*
X007562Y019133D02*
X007326Y019133D01*
X007327Y019134D02*
X007562Y019134D01*
X007562Y019135D02*
X007328Y019135D01*
X007329Y019136D02*
X007562Y019136D01*
X007562Y019137D02*
X007330Y019137D01*
X007330Y019138D02*
X007562Y019138D01*
X007562Y019139D02*
X007331Y019139D01*
X007332Y019140D02*
X007562Y019140D01*
X007562Y019141D02*
X007333Y019141D01*
X007334Y019142D02*
X007562Y019142D01*
X007562Y019143D02*
X007334Y019143D01*
X007335Y019144D02*
X007562Y019144D01*
X007562Y019145D02*
X007336Y019145D01*
X007337Y019146D02*
X007562Y019146D01*
X007562Y019147D02*
X007338Y019147D01*
X007339Y019148D02*
X007562Y019148D01*
X007562Y019149D02*
X007339Y019149D01*
X007340Y019150D02*
X007562Y019150D01*
X007562Y019151D02*
X007341Y019151D01*
X007342Y019152D02*
X007562Y019152D01*
X007562Y019153D02*
X007343Y019153D01*
X007343Y019154D02*
X007562Y019154D01*
X007562Y019155D02*
X007344Y019155D01*
X007345Y019156D02*
X007562Y019156D01*
X007562Y019157D02*
X007346Y019157D01*
X007347Y019158D02*
X007562Y019158D01*
X007562Y019159D02*
X007348Y019159D01*
X007348Y019160D02*
X007562Y019160D01*
X007562Y019161D02*
X007349Y019161D01*
X007350Y019162D02*
X007562Y019162D01*
X007562Y019163D02*
X007351Y019163D01*
X007352Y019164D02*
X007562Y019164D01*
X007562Y019165D02*
X007354Y019165D01*
X007355Y019166D02*
X007562Y019166D01*
X007562Y019167D02*
X007356Y019167D01*
X007357Y019168D02*
X007562Y019168D01*
X007562Y019169D02*
X007358Y019169D01*
X007360Y019170D02*
X007562Y019170D01*
X007562Y019171D02*
X007361Y019171D01*
X007362Y019172D02*
X007562Y019172D01*
X007562Y019173D02*
X007363Y019173D01*
X007365Y019174D02*
X007562Y019174D01*
X007562Y019175D02*
X007366Y019175D01*
X007367Y019176D02*
X007562Y019176D01*
X007562Y019177D02*
X007368Y019177D01*
X007369Y019178D02*
X007562Y019178D01*
X007562Y019179D02*
X007371Y019179D01*
X007372Y019180D02*
X007562Y019180D01*
X007562Y019181D02*
X007373Y019181D01*
X007374Y019182D02*
X007562Y019182D01*
X007562Y019183D02*
X007375Y019183D01*
X007377Y019184D02*
X007562Y019184D01*
X007562Y019185D02*
X007378Y019185D01*
X007379Y019186D02*
X007562Y019186D01*
X007562Y019187D02*
X007380Y019187D01*
X007382Y019188D02*
X007562Y019188D01*
X007562Y019189D02*
X007383Y019189D01*
X007384Y019190D02*
X007562Y019190D01*
X007562Y019191D02*
X007385Y019191D01*
X007386Y019192D02*
X007562Y019192D01*
X007562Y019193D02*
X007388Y019193D01*
X007389Y019194D02*
X007562Y019194D01*
X007562Y019195D02*
X007390Y019195D01*
X007391Y019196D02*
X007562Y019196D01*
X007562Y019197D02*
X007393Y019197D01*
X007394Y019198D02*
X007562Y019198D01*
X007562Y019199D02*
X007395Y019199D01*
X007396Y019200D02*
X007562Y019200D01*
X007562Y019201D02*
X007398Y019201D01*
X007400Y019202D02*
X007562Y019202D01*
X007562Y019203D02*
X007402Y019203D01*
X007404Y019204D02*
X007562Y019204D01*
X007562Y019205D02*
X007406Y019205D01*
X007408Y019206D02*
X007562Y019206D01*
X007562Y019207D02*
X007409Y019207D01*
X007411Y019208D02*
X007562Y019208D01*
X007562Y019209D02*
X007413Y019209D01*
X007415Y019210D02*
X007562Y019210D01*
X007562Y019211D02*
X007417Y019211D01*
X007419Y019212D02*
X007562Y019212D01*
X007562Y019213D02*
X007421Y019213D01*
X007423Y019214D02*
X007562Y019214D01*
X007562Y019215D02*
X007424Y019215D01*
X007426Y019216D02*
X007562Y019216D01*
X007562Y019217D02*
X007428Y019217D01*
X007430Y019218D02*
X007562Y019218D01*
X007562Y019219D02*
X007432Y019219D01*
X007434Y019220D02*
X007562Y019220D01*
X007562Y019221D02*
X007436Y019221D01*
X007437Y019222D02*
X007562Y019222D01*
X007562Y019223D02*
X007439Y019223D01*
X007441Y019224D02*
X007562Y019224D01*
X007562Y019225D02*
X007443Y019225D01*
X007445Y019226D02*
X007562Y019226D01*
X007562Y019227D02*
X007447Y019227D01*
X007449Y019228D02*
X007562Y019228D01*
X007562Y019229D02*
X007453Y019229D01*
X007456Y019230D02*
X007562Y019230D01*
X007562Y019231D02*
X007459Y019231D01*
X007463Y019232D02*
X007562Y019232D01*
X007562Y019233D02*
X007466Y019233D01*
X007469Y019234D02*
X007562Y019234D01*
X007562Y019235D02*
X007473Y019235D01*
X007476Y019236D02*
X007562Y019236D01*
X007562Y019237D02*
X007479Y019237D01*
X007482Y019238D02*
X007562Y019238D01*
X007562Y019239D02*
X007486Y019239D01*
X007489Y019240D02*
X007562Y019240D01*
X007562Y019241D02*
X007492Y019241D01*
X007496Y019242D02*
X007562Y019242D01*
X007562Y019243D02*
X007499Y019243D01*
X007502Y019244D02*
X007562Y019244D01*
X007562Y019245D02*
X007509Y019245D01*
X007519Y019246D02*
X007562Y019246D01*
X007562Y019247D02*
X007529Y019247D01*
X007539Y019248D02*
X007562Y019248D01*
X007562Y019249D02*
X007549Y019249D01*
X007559Y019250D02*
X007562Y019250D01*
X008112Y019000D02*
X008558Y019000D01*
X008557Y019001D02*
X008262Y019001D01*
X008262Y019002D02*
X008557Y019002D01*
X008557Y019003D02*
X008262Y019003D01*
X008262Y019004D02*
X008557Y019004D01*
X008557Y019005D02*
X008262Y019005D01*
X008262Y019006D02*
X008557Y019006D01*
X008557Y019007D02*
X008262Y019007D01*
X008262Y019008D02*
X008557Y019008D01*
X008557Y019009D02*
X008262Y019009D01*
X008262Y019010D02*
X008556Y019010D01*
X008556Y019011D02*
X008262Y019011D01*
X008262Y019012D02*
X008556Y019012D01*
X008555Y019013D02*
X008262Y019013D01*
X008262Y019014D02*
X008555Y019014D01*
X008555Y019015D02*
X008262Y019015D01*
X008262Y019016D02*
X008554Y019016D01*
X008554Y019017D02*
X008262Y019017D01*
X008262Y019018D02*
X008554Y019018D01*
X008554Y019019D02*
X008262Y019019D01*
X008262Y019020D02*
X008553Y019020D01*
X008553Y019021D02*
X008262Y019021D01*
X008262Y019022D02*
X008553Y019022D01*
X008552Y019023D02*
X008262Y019023D01*
X008262Y019024D02*
X008552Y019024D01*
X008552Y019025D02*
X008262Y019025D01*
X008262Y019026D02*
X008551Y019026D01*
X008551Y019027D02*
X008262Y019027D01*
X008262Y019028D02*
X008551Y019028D01*
X008551Y019029D02*
X008262Y019029D01*
X008262Y019030D02*
X008550Y019030D01*
X008550Y019031D02*
X008262Y019031D01*
X008262Y019032D02*
X008550Y019032D01*
X008549Y019033D02*
X008262Y019033D01*
X008262Y019034D02*
X008549Y019034D01*
X008549Y019035D02*
X008262Y019035D01*
X008262Y019036D02*
X008548Y019036D01*
X008548Y019037D02*
X008262Y019037D01*
X008262Y019038D02*
X008548Y019038D01*
X008547Y019039D02*
X008262Y019039D01*
X008262Y019040D02*
X008547Y019040D01*
X008547Y019041D02*
X008262Y019041D01*
X008262Y019042D02*
X008547Y019042D01*
X008546Y019043D02*
X008262Y019043D01*
X008262Y019044D02*
X008546Y019044D01*
X008546Y019045D02*
X008262Y019045D01*
X008262Y019046D02*
X008545Y019046D01*
X008545Y019047D02*
X008262Y019047D01*
X008262Y019048D02*
X008545Y019048D01*
X008544Y019049D02*
X008262Y019049D01*
X008262Y019050D02*
X008544Y019050D01*
X008544Y019051D02*
X008262Y019051D01*
X008262Y019052D02*
X008544Y019052D01*
X008543Y019053D02*
X008262Y019053D01*
X008262Y019054D02*
X008543Y019054D01*
X008543Y019055D02*
X008262Y019055D01*
X008262Y019056D02*
X008542Y019056D01*
X008542Y019057D02*
X008262Y019057D01*
X008262Y019058D02*
X008542Y019058D01*
X008541Y019059D02*
X008262Y019059D01*
X008262Y019060D02*
X008541Y019060D01*
X008541Y019061D02*
X008262Y019061D01*
X008262Y019062D02*
X008541Y019062D01*
X008540Y019063D02*
X008262Y019063D01*
X008262Y019064D02*
X008540Y019064D01*
X008540Y019065D02*
X008262Y019065D01*
X008262Y019066D02*
X008539Y019066D01*
X008539Y019067D02*
X008262Y019067D01*
X008262Y019068D02*
X008538Y019068D01*
X008537Y019069D02*
X008262Y019069D01*
X008262Y019070D02*
X008537Y019070D01*
X008536Y019071D02*
X008262Y019071D01*
X008262Y019072D02*
X008536Y019072D01*
X008535Y019073D02*
X008262Y019073D01*
X008262Y019074D02*
X008535Y019074D01*
X008534Y019075D02*
X008262Y019075D01*
X008262Y019076D02*
X008534Y019076D01*
X008533Y019077D02*
X008262Y019077D01*
X008262Y019078D02*
X008533Y019078D01*
X008532Y019079D02*
X008262Y019079D01*
X008262Y019080D02*
X008532Y019080D01*
X008531Y019081D02*
X008262Y019081D01*
X008262Y019082D02*
X008531Y019082D01*
X008530Y019083D02*
X008262Y019083D01*
X008262Y019084D02*
X008529Y019084D01*
X008529Y019085D02*
X008262Y019085D01*
X008262Y019086D02*
X008528Y019086D01*
X008528Y019087D02*
X008262Y019087D01*
X008262Y019088D02*
X008527Y019088D01*
X008527Y019089D02*
X008262Y019089D01*
X008262Y019090D02*
X008526Y019090D01*
X008526Y019091D02*
X008262Y019091D01*
X008262Y019092D02*
X008525Y019092D01*
X008525Y019093D02*
X008262Y019093D01*
X008262Y019094D02*
X008524Y019094D01*
X008524Y019095D02*
X008262Y019095D01*
X008262Y019096D02*
X008523Y019096D01*
X008523Y019097D02*
X008262Y019097D01*
X008262Y019098D02*
X008522Y019098D01*
X008521Y019099D02*
X008262Y019099D01*
X008262Y019100D02*
X008521Y019100D01*
X008520Y019101D02*
X008262Y019101D01*
X008262Y019102D02*
X008520Y019102D01*
X008519Y019103D02*
X008262Y019103D01*
X008262Y019104D02*
X008519Y019104D01*
X008518Y019105D02*
X008262Y019105D01*
X008262Y019106D02*
X008518Y019106D01*
X008517Y019107D02*
X008262Y019107D01*
X008262Y019108D02*
X008517Y019108D01*
X008516Y019109D02*
X008262Y019109D01*
X008262Y019110D02*
X008516Y019110D01*
X008515Y019111D02*
X008262Y019111D01*
X008262Y019112D02*
X008514Y019112D01*
X008514Y019113D02*
X008262Y019113D01*
X008262Y019114D02*
X008513Y019114D01*
X008513Y019115D02*
X008262Y019115D01*
X008262Y019116D02*
X008512Y019116D01*
X008512Y019117D02*
X008262Y019117D01*
X008262Y019118D02*
X008511Y019118D01*
X008510Y019119D02*
X008262Y019119D01*
X008262Y019120D02*
X008509Y019120D01*
X008509Y019121D02*
X008262Y019121D01*
X008262Y019122D02*
X008508Y019122D01*
X008507Y019123D02*
X008262Y019123D01*
X008262Y019124D02*
X008506Y019124D01*
X008505Y019125D02*
X008262Y019125D01*
X008262Y019126D02*
X008504Y019126D01*
X008504Y019127D02*
X008262Y019127D01*
X008262Y019128D02*
X008503Y019128D01*
X008502Y019129D02*
X008262Y019129D01*
X008262Y019130D02*
X008501Y019130D01*
X008500Y019131D02*
X008262Y019131D01*
X008262Y019132D02*
X008499Y019132D01*
X008499Y019133D02*
X008262Y019133D01*
X008262Y019134D02*
X008498Y019134D01*
X008497Y019135D02*
X008262Y019135D01*
X008262Y019136D02*
X008496Y019136D01*
X008495Y019137D02*
X008262Y019137D01*
X008262Y019138D02*
X008495Y019138D01*
X008494Y019139D02*
X008262Y019139D01*
X008262Y019140D02*
X008493Y019140D01*
X008492Y019141D02*
X008262Y019141D01*
X008262Y019142D02*
X008491Y019142D01*
X008490Y019143D02*
X008262Y019143D01*
X008262Y019144D02*
X008490Y019144D01*
X008489Y019145D02*
X008262Y019145D01*
X008262Y019146D02*
X008488Y019146D01*
X008487Y019147D02*
X008262Y019147D01*
X008262Y019148D02*
X008486Y019148D01*
X008486Y019149D02*
X008262Y019149D01*
X008262Y019150D02*
X008485Y019150D01*
X008484Y019151D02*
X008262Y019151D01*
X008262Y019152D02*
X008483Y019152D01*
X008482Y019153D02*
X008262Y019153D01*
X008262Y019154D02*
X008481Y019154D01*
X008481Y019155D02*
X008262Y019155D01*
X008262Y019156D02*
X008480Y019156D01*
X008479Y019157D02*
X008262Y019157D01*
X008262Y019158D02*
X008478Y019158D01*
X008477Y019159D02*
X008262Y019159D01*
X008262Y019160D02*
X008477Y019160D01*
X008476Y019161D02*
X008262Y019161D01*
X008262Y019162D02*
X008475Y019162D01*
X008474Y019163D02*
X008262Y019163D01*
X008262Y019164D02*
X008473Y019164D01*
X008471Y019165D02*
X008262Y019165D01*
X008262Y019166D02*
X008470Y019166D01*
X008469Y019167D02*
X008262Y019167D01*
X008262Y019168D02*
X008468Y019168D01*
X008467Y019169D02*
X008262Y019169D01*
X008262Y019170D02*
X008465Y019170D01*
X008464Y019171D02*
X008262Y019171D01*
X008262Y019172D02*
X008463Y019172D01*
X008462Y019173D02*
X008262Y019173D01*
X008262Y019174D02*
X008460Y019174D01*
X008459Y019175D02*
X008262Y019175D01*
X008262Y019176D02*
X008458Y019176D01*
X008457Y019177D02*
X008262Y019177D01*
X008262Y019178D02*
X008456Y019178D01*
X008454Y019179D02*
X008262Y019179D01*
X008262Y019180D02*
X008453Y019180D01*
X008452Y019181D02*
X008262Y019181D01*
X008262Y019182D02*
X008451Y019182D01*
X008449Y019183D02*
X008262Y019183D01*
X008262Y019184D02*
X008448Y019184D01*
X008447Y019185D02*
X008262Y019185D01*
X008262Y019186D02*
X008446Y019186D01*
X008445Y019187D02*
X008262Y019187D01*
X008262Y019188D02*
X008443Y019188D01*
X008442Y019189D02*
X008262Y019189D01*
X008262Y019190D02*
X008441Y019190D01*
X008440Y019191D02*
X008262Y019191D01*
X008262Y019192D02*
X008439Y019192D01*
X008437Y019193D02*
X008262Y019193D01*
X008262Y019194D02*
X008436Y019194D01*
X008435Y019195D02*
X008262Y019195D01*
X008262Y019196D02*
X008434Y019196D01*
X008432Y019197D02*
X008262Y019197D01*
X008262Y019198D02*
X008431Y019198D01*
X008430Y019199D02*
X008262Y019199D01*
X008262Y019200D02*
X008429Y019200D01*
X008427Y019201D02*
X008262Y019201D01*
X008262Y019202D02*
X008425Y019202D01*
X008423Y019203D02*
X008262Y019203D01*
X008262Y019204D02*
X008421Y019204D01*
X008419Y019205D02*
X008262Y019205D01*
X008262Y019206D02*
X008417Y019206D01*
X008415Y019207D02*
X008262Y019207D01*
X008262Y019208D02*
X008414Y019208D01*
X008412Y019209D02*
X008262Y019209D01*
X008262Y019210D02*
X008410Y019210D01*
X008408Y019211D02*
X008262Y019211D01*
X008262Y019212D02*
X008406Y019212D01*
X008404Y019213D02*
X008262Y019213D01*
X008262Y019214D02*
X008402Y019214D01*
X008401Y019215D02*
X008262Y019215D01*
X008262Y019216D02*
X008399Y019216D01*
X008397Y019217D02*
X008262Y019217D01*
X008262Y019218D02*
X008395Y019218D01*
X008393Y019219D02*
X008262Y019219D01*
X008262Y019220D02*
X008391Y019220D01*
X008389Y019221D02*
X008262Y019221D01*
X008262Y019222D02*
X008387Y019222D01*
X008386Y019223D02*
X008262Y019223D01*
X008262Y019224D02*
X008384Y019224D01*
X008382Y019225D02*
X008262Y019225D01*
X008262Y019226D02*
X008380Y019226D01*
X008378Y019227D02*
X008262Y019227D01*
X008262Y019228D02*
X008375Y019228D01*
X008372Y019229D02*
X008262Y019229D01*
X008262Y019230D02*
X008369Y019230D01*
X008366Y019231D02*
X008262Y019231D01*
X008262Y019232D02*
X008362Y019232D01*
X008359Y019233D02*
X008262Y019233D01*
X008262Y019234D02*
X008356Y019234D01*
X008352Y019235D02*
X008262Y019235D01*
X008262Y019236D02*
X008349Y019236D01*
X008346Y019237D02*
X008262Y019237D01*
X008262Y019238D02*
X008343Y019238D01*
X008339Y019239D02*
X008262Y019239D01*
X008262Y019240D02*
X008336Y019240D01*
X008333Y019241D02*
X008262Y019241D01*
X008262Y019242D02*
X008329Y019242D01*
X008326Y019243D02*
X008262Y019243D01*
X008262Y019244D02*
X008323Y019244D01*
X008316Y019245D02*
X008262Y019245D01*
X008262Y019246D02*
X008306Y019246D01*
X008296Y019247D02*
X008262Y019247D01*
X008262Y019248D02*
X008286Y019248D01*
X008276Y019249D02*
X008262Y019249D01*
X008262Y019250D02*
X008266Y019250D01*
X008112Y018999D02*
X008558Y018999D01*
X008558Y018998D02*
X008112Y018998D01*
X008112Y018997D02*
X008558Y018997D01*
X008558Y018996D02*
X008112Y018996D01*
X008112Y018995D02*
X008558Y018995D01*
X008558Y018994D02*
X008112Y018994D01*
X008112Y018993D02*
X008558Y018993D01*
X008558Y018992D02*
X008112Y018992D01*
X008112Y018991D02*
X008558Y018991D01*
X008559Y018990D02*
X008112Y018990D01*
X008112Y018989D02*
X008559Y018989D01*
X008559Y018988D02*
X008112Y018988D01*
X008112Y018987D02*
X008559Y018987D01*
X008559Y018986D02*
X008112Y018986D01*
X008112Y018985D02*
X008559Y018985D01*
X008559Y018984D02*
X008112Y018984D01*
X008112Y018983D02*
X008559Y018983D01*
X008559Y018982D02*
X008112Y018982D01*
X008112Y018981D02*
X008559Y018981D01*
X008560Y018980D02*
X008112Y018980D01*
X008112Y018979D02*
X008560Y018979D01*
X008560Y018978D02*
X008112Y018978D01*
X008112Y018977D02*
X008560Y018977D01*
X008560Y018976D02*
X008112Y018976D01*
X008112Y018975D02*
X008560Y018975D01*
X008560Y018974D02*
X008112Y018974D01*
X008112Y018973D02*
X008560Y018973D01*
X008560Y018972D02*
X008112Y018972D01*
X008112Y018971D02*
X008560Y018971D01*
X008560Y018970D02*
X008112Y018970D01*
X008112Y018969D02*
X008561Y018969D01*
X008561Y018968D02*
X008112Y018968D01*
X008112Y018967D02*
X008561Y018967D01*
X008561Y018966D02*
X008112Y018966D01*
X008112Y018965D02*
X008561Y018965D01*
X008561Y018964D02*
X008112Y018964D01*
X008112Y018963D02*
X008561Y018963D01*
X008561Y018962D02*
X008112Y018962D01*
X008112Y018961D02*
X008561Y018961D01*
X008561Y018960D02*
X008112Y018960D01*
X008112Y018959D02*
X008562Y018959D01*
X008562Y018958D02*
X008112Y018958D01*
X008112Y018957D02*
X008562Y018957D01*
X008562Y018956D02*
X008112Y018956D01*
X008112Y018955D02*
X008562Y018955D01*
X008562Y018954D02*
X008112Y018954D01*
X008112Y018953D02*
X008562Y018953D01*
X008562Y018952D02*
X008112Y018952D01*
X008112Y018951D02*
X008562Y018951D01*
X008562Y018950D02*
X008112Y018950D01*
X008112Y018949D02*
X008562Y018949D01*
X008562Y018948D02*
X008112Y018948D01*
X008112Y018947D02*
X008562Y018947D01*
X008562Y018946D02*
X008112Y018946D01*
X008112Y018945D02*
X008562Y018945D01*
X008562Y018944D02*
X008112Y018944D01*
X008112Y018943D02*
X008562Y018943D01*
X008562Y018942D02*
X008112Y018942D01*
X008112Y018941D02*
X008562Y018941D01*
X008561Y018940D02*
X008112Y018940D01*
X008112Y018939D02*
X008561Y018939D01*
X008561Y018938D02*
X008112Y018938D01*
X008112Y018937D02*
X008561Y018937D01*
X008561Y018936D02*
X008112Y018936D01*
X008112Y018935D02*
X008561Y018935D01*
X008561Y018934D02*
X008112Y018934D01*
X008112Y018933D02*
X008561Y018933D01*
X008561Y018932D02*
X008112Y018932D01*
X008112Y018931D02*
X008561Y018931D01*
X008560Y018930D02*
X008112Y018930D01*
X008112Y018929D02*
X008560Y018929D01*
X008560Y018928D02*
X008112Y018928D01*
X008112Y018927D02*
X008560Y018927D01*
X008560Y018926D02*
X008112Y018926D01*
X008112Y018925D02*
X008560Y018925D01*
X008560Y018924D02*
X008112Y018924D01*
X008112Y018923D02*
X008560Y018923D01*
X008560Y018922D02*
X008112Y018922D01*
X008112Y018921D02*
X008560Y018921D01*
X008560Y018920D02*
X008112Y018920D01*
X008112Y018919D02*
X008559Y018919D01*
X008559Y018918D02*
X008112Y018918D01*
X008112Y018917D02*
X008559Y018917D01*
X008559Y018916D02*
X008112Y018916D01*
X008112Y018915D02*
X008559Y018915D01*
X008559Y018914D02*
X008112Y018914D01*
X008112Y018913D02*
X008559Y018913D01*
X008559Y018912D02*
X008112Y018912D01*
X008112Y018911D02*
X008559Y018911D01*
X008559Y018910D02*
X008112Y018910D01*
X008112Y018909D02*
X008558Y018909D01*
X008558Y018908D02*
X008112Y018908D01*
X008112Y018907D02*
X008558Y018907D01*
X008558Y018906D02*
X008112Y018906D01*
X008112Y018905D02*
X008558Y018905D01*
X008558Y018904D02*
X008112Y018904D01*
X008112Y018903D02*
X008558Y018903D01*
X008558Y018902D02*
X008112Y018902D01*
X008112Y018901D02*
X008558Y018901D01*
X008558Y018900D02*
X008112Y018900D01*
X008262Y018899D02*
X008557Y018899D01*
X008557Y018898D02*
X008262Y018898D01*
X008262Y018897D02*
X008557Y018897D01*
X008557Y018896D02*
X008262Y018896D01*
X008262Y018895D02*
X008557Y018895D01*
X008557Y018894D02*
X008262Y018894D01*
X008262Y018893D02*
X008557Y018893D01*
X008557Y018892D02*
X008262Y018892D01*
X008262Y018891D02*
X008557Y018891D01*
X008556Y018890D02*
X008262Y018890D01*
X008262Y018889D02*
X008556Y018889D01*
X008556Y018888D02*
X008262Y018888D01*
X008262Y018887D02*
X008555Y018887D01*
X008555Y018886D02*
X008262Y018886D01*
X008262Y018885D02*
X008555Y018885D01*
X008554Y018884D02*
X008262Y018884D01*
X008262Y018883D02*
X008554Y018883D01*
X008554Y018882D02*
X008262Y018882D01*
X008262Y018881D02*
X008554Y018881D01*
X008553Y018880D02*
X008262Y018880D01*
X008262Y018879D02*
X008553Y018879D01*
X008553Y018878D02*
X008262Y018878D01*
X008262Y018877D02*
X008552Y018877D01*
X008552Y018876D02*
X008262Y018876D01*
X008262Y018875D02*
X008552Y018875D01*
X008551Y018874D02*
X008262Y018874D01*
X008262Y018873D02*
X008551Y018873D01*
X008551Y018872D02*
X008262Y018872D01*
X008262Y018871D02*
X008551Y018871D01*
X008550Y018870D02*
X008262Y018870D01*
X008262Y018869D02*
X008550Y018869D01*
X008550Y018868D02*
X008262Y018868D01*
X008262Y018867D02*
X008549Y018867D01*
X008549Y018866D02*
X008262Y018866D01*
X008262Y018865D02*
X008549Y018865D01*
X008548Y018864D02*
X008262Y018864D01*
X008262Y018863D02*
X008548Y018863D01*
X008548Y018862D02*
X008262Y018862D01*
X008262Y018861D02*
X008547Y018861D01*
X008547Y018860D02*
X008262Y018860D01*
X008262Y018859D02*
X008547Y018859D01*
X008547Y018858D02*
X008262Y018858D01*
X008262Y018857D02*
X008546Y018857D01*
X008546Y018856D02*
X008262Y018856D01*
X008262Y018855D02*
X008546Y018855D01*
X008545Y018854D02*
X008262Y018854D01*
X008262Y018853D02*
X008545Y018853D01*
X008545Y018852D02*
X008262Y018852D01*
X008262Y018851D02*
X008544Y018851D01*
X008544Y018850D02*
X008262Y018850D01*
X008262Y018849D02*
X008544Y018849D01*
X008544Y018848D02*
X008262Y018848D01*
X008262Y018847D02*
X008543Y018847D01*
X008543Y018846D02*
X008262Y018846D01*
X008262Y018845D02*
X008543Y018845D01*
X008542Y018844D02*
X008262Y018844D01*
X008262Y018843D02*
X008542Y018843D01*
X008542Y018842D02*
X008262Y018842D01*
X008262Y018841D02*
X008541Y018841D01*
X008541Y018840D02*
X008262Y018840D01*
X008262Y018839D02*
X008541Y018839D01*
X008541Y018838D02*
X008262Y018838D01*
X008262Y018837D02*
X008540Y018837D01*
X008540Y018836D02*
X008262Y018836D01*
X008262Y018835D02*
X008540Y018835D01*
X008539Y018834D02*
X008262Y018834D01*
X008262Y018833D02*
X008539Y018833D01*
X008538Y018832D02*
X008262Y018832D01*
X008262Y018831D02*
X008537Y018831D01*
X008537Y018830D02*
X008262Y018830D01*
X008262Y018829D02*
X008536Y018829D01*
X008536Y018828D02*
X008262Y018828D01*
X008262Y018827D02*
X008535Y018827D01*
X008535Y018826D02*
X008262Y018826D01*
X008262Y018825D02*
X008534Y018825D01*
X008534Y018824D02*
X008262Y018824D01*
X008262Y018823D02*
X008533Y018823D01*
X008533Y018822D02*
X008262Y018822D01*
X008262Y018821D02*
X008532Y018821D01*
X008532Y018820D02*
X008262Y018820D01*
X008262Y018819D02*
X008531Y018819D01*
X008531Y018818D02*
X008262Y018818D01*
X008262Y018817D02*
X008530Y018817D01*
X008529Y018816D02*
X008262Y018816D01*
X008262Y018815D02*
X008529Y018815D01*
X008528Y018814D02*
X008262Y018814D01*
X008262Y018813D02*
X008528Y018813D01*
X008527Y018812D02*
X008262Y018812D01*
X008262Y018811D02*
X008527Y018811D01*
X008526Y018810D02*
X008262Y018810D01*
X008262Y018809D02*
X008526Y018809D01*
X008525Y018808D02*
X008262Y018808D01*
X008262Y018807D02*
X008525Y018807D01*
X008524Y018806D02*
X008262Y018806D01*
X008262Y018805D02*
X008524Y018805D01*
X008523Y018804D02*
X008262Y018804D01*
X008262Y018803D02*
X008522Y018803D01*
X008522Y018802D02*
X008262Y018802D01*
X008262Y018801D02*
X008521Y018801D01*
X008521Y018800D02*
X008262Y018800D01*
X008262Y018799D02*
X008520Y018799D01*
X008520Y018798D02*
X008262Y018798D01*
X008262Y018797D02*
X008519Y018797D01*
X008519Y018796D02*
X008262Y018796D01*
X008262Y018795D02*
X008518Y018795D01*
X008518Y018794D02*
X008262Y018794D01*
X008262Y018793D02*
X008517Y018793D01*
X008517Y018792D02*
X008262Y018792D01*
X008262Y018791D02*
X008516Y018791D01*
X008516Y018790D02*
X008262Y018790D01*
X008262Y018789D02*
X008515Y018789D01*
X008514Y018788D02*
X008262Y018788D01*
X008262Y018787D02*
X008514Y018787D01*
X008513Y018786D02*
X008262Y018786D01*
X008262Y018785D02*
X008513Y018785D01*
X008512Y018784D02*
X008262Y018784D01*
X008262Y018783D02*
X008512Y018783D01*
X008511Y018782D02*
X008262Y018782D01*
X008262Y018781D02*
X008510Y018781D01*
X008509Y018780D02*
X008262Y018780D01*
X008262Y018779D02*
X008508Y018779D01*
X008508Y018778D02*
X008262Y018778D01*
X008262Y018777D02*
X008507Y018777D01*
X008506Y018776D02*
X008262Y018776D01*
X008262Y018775D02*
X008505Y018775D01*
X008504Y018774D02*
X008262Y018774D01*
X008262Y018773D02*
X008504Y018773D01*
X008503Y018772D02*
X008262Y018772D01*
X008262Y018771D02*
X008502Y018771D01*
X008501Y018770D02*
X008262Y018770D01*
X008262Y018769D02*
X008500Y018769D01*
X008499Y018768D02*
X008262Y018768D01*
X008262Y018767D02*
X008499Y018767D01*
X008498Y018766D02*
X008262Y018766D01*
X008262Y018765D02*
X008497Y018765D01*
X008496Y018764D02*
X008262Y018764D01*
X008262Y018763D02*
X008495Y018763D01*
X008495Y018762D02*
X008262Y018762D01*
X008262Y018761D02*
X008494Y018761D01*
X008493Y018760D02*
X008262Y018760D01*
X008262Y018759D02*
X008492Y018759D01*
X008491Y018758D02*
X008262Y018758D01*
X008262Y018757D02*
X008490Y018757D01*
X008490Y018756D02*
X008262Y018756D01*
X008262Y018755D02*
X008489Y018755D01*
X008488Y018754D02*
X008262Y018754D01*
X008262Y018753D02*
X008487Y018753D01*
X008486Y018752D02*
X008262Y018752D01*
X008262Y018751D02*
X008486Y018751D01*
X008485Y018750D02*
X008262Y018750D01*
X008262Y018749D02*
X008484Y018749D01*
X008483Y018748D02*
X008262Y018748D01*
X008262Y018747D02*
X008482Y018747D01*
X008481Y018746D02*
X008262Y018746D01*
X008262Y018745D02*
X008481Y018745D01*
X008480Y018744D02*
X008262Y018744D01*
X008262Y018743D02*
X008479Y018743D01*
X008478Y018742D02*
X008262Y018742D01*
X008262Y018741D02*
X008477Y018741D01*
X008477Y018740D02*
X008262Y018740D01*
X008262Y018739D02*
X008476Y018739D01*
X008475Y018738D02*
X008262Y018738D01*
X008262Y018737D02*
X008474Y018737D01*
X008473Y018736D02*
X008262Y018736D01*
X008262Y018735D02*
X008471Y018735D01*
X008470Y018734D02*
X008262Y018734D01*
X008262Y018733D02*
X008469Y018733D01*
X008468Y018732D02*
X008262Y018732D01*
X008262Y018731D02*
X008466Y018731D01*
X008465Y018730D02*
X008262Y018730D01*
X008262Y018729D02*
X008464Y018729D01*
X008463Y018728D02*
X008262Y018728D01*
X008262Y018727D02*
X008462Y018727D01*
X008460Y018726D02*
X008262Y018726D01*
X008262Y018725D02*
X008459Y018725D01*
X008458Y018724D02*
X008262Y018724D01*
X008262Y018723D02*
X008457Y018723D01*
X008456Y018722D02*
X008262Y018722D01*
X008262Y018721D02*
X008454Y018721D01*
X008453Y018720D02*
X008262Y018720D01*
X008262Y018719D02*
X008452Y018719D01*
X008451Y018718D02*
X008262Y018718D01*
X008262Y018717D02*
X008449Y018717D01*
X008448Y018716D02*
X008262Y018716D01*
X008262Y018715D02*
X008447Y018715D01*
X008446Y018714D02*
X008262Y018714D01*
X008262Y018713D02*
X008445Y018713D01*
X008443Y018712D02*
X008262Y018712D01*
X008262Y018711D02*
X008442Y018711D01*
X008441Y018710D02*
X008262Y018710D01*
X008262Y018709D02*
X008440Y018709D01*
X008438Y018708D02*
X008262Y018708D01*
X008262Y018707D02*
X008437Y018707D01*
X008436Y018706D02*
X008262Y018706D01*
X008262Y018705D02*
X008435Y018705D01*
X008434Y018704D02*
X008262Y018704D01*
X008262Y018703D02*
X008432Y018703D01*
X008431Y018702D02*
X008262Y018702D01*
X008262Y018701D02*
X008430Y018701D01*
X008429Y018700D02*
X008262Y018700D01*
X008262Y018699D02*
X008427Y018699D01*
X008425Y018698D02*
X008262Y018698D01*
X008262Y018697D02*
X008423Y018697D01*
X008421Y018696D02*
X008262Y018696D01*
X008262Y018695D02*
X008419Y018695D01*
X008417Y018694D02*
X008262Y018694D01*
X008262Y018693D02*
X008415Y018693D01*
X008414Y018692D02*
X008262Y018692D01*
X008262Y018691D02*
X008412Y018691D01*
X008410Y018690D02*
X008262Y018690D01*
X008262Y018689D02*
X008408Y018689D01*
X008406Y018688D02*
X008262Y018688D01*
X008262Y018687D02*
X008404Y018687D01*
X008402Y018686D02*
X008262Y018686D01*
X008262Y018685D02*
X008400Y018685D01*
X008399Y018684D02*
X008262Y018684D01*
X008262Y018683D02*
X008397Y018683D01*
X008395Y018682D02*
X008262Y018682D01*
X008262Y018681D02*
X008393Y018681D01*
X008391Y018680D02*
X008262Y018680D01*
X008262Y018679D02*
X008389Y018679D01*
X008387Y018678D02*
X008262Y018678D01*
X008262Y018677D02*
X008386Y018677D01*
X008384Y018676D02*
X008262Y018676D01*
X008262Y018675D02*
X008382Y018675D01*
X008380Y018674D02*
X008262Y018674D01*
X008262Y018673D02*
X008378Y018673D01*
X008375Y018672D02*
X008262Y018672D01*
X008262Y018671D02*
X008372Y018671D01*
X008369Y018670D02*
X008262Y018670D01*
X008262Y018669D02*
X008365Y018669D01*
X008362Y018668D02*
X008262Y018668D01*
X008262Y018667D02*
X008359Y018667D01*
X008356Y018666D02*
X008262Y018666D01*
X008262Y018665D02*
X008352Y018665D01*
X008349Y018664D02*
X008262Y018664D01*
X008262Y018663D02*
X008346Y018663D01*
X008342Y018662D02*
X008262Y018662D01*
X008262Y018661D02*
X008339Y018661D01*
X008336Y018660D02*
X008262Y018660D01*
X008262Y018659D02*
X008333Y018659D01*
X008329Y018658D02*
X008262Y018658D01*
X008262Y018657D02*
X008326Y018657D01*
X008323Y018656D02*
X008262Y018656D01*
X008262Y018655D02*
X008316Y018655D01*
X008306Y018654D02*
X008262Y018654D01*
X008262Y018653D02*
X008296Y018653D01*
X008286Y018652D02*
X008262Y018652D01*
X008262Y018651D02*
X008275Y018651D01*
X008265Y018650D02*
X008262Y018650D01*
X009593Y018916D02*
X009887Y018916D01*
X009887Y018915D02*
X009594Y018915D01*
X009594Y018914D02*
X009887Y018914D01*
X009887Y018913D02*
X009594Y018913D01*
X009595Y018912D02*
X009887Y018912D01*
X009887Y018911D02*
X009595Y018911D01*
X009595Y018910D02*
X009887Y018910D01*
X009887Y018909D02*
X009595Y018909D01*
X009596Y018908D02*
X009887Y018908D01*
X009887Y018907D02*
X009596Y018907D01*
X009596Y018906D02*
X009887Y018906D01*
X009887Y018905D02*
X009597Y018905D01*
X009597Y018904D02*
X009887Y018904D01*
X009887Y018903D02*
X009597Y018903D01*
X009598Y018902D02*
X009887Y018902D01*
X009887Y018901D02*
X009598Y018901D01*
X009598Y018900D02*
X009887Y018900D01*
X009887Y018899D02*
X009599Y018899D01*
X009599Y018898D02*
X009887Y018898D01*
X009887Y018897D02*
X009599Y018897D01*
X009599Y018896D02*
X009887Y018896D01*
X009887Y018895D02*
X009600Y018895D01*
X009600Y018894D02*
X009887Y018894D01*
X009887Y018893D02*
X009600Y018893D01*
X009601Y018892D02*
X009887Y018892D01*
X009887Y018891D02*
X009601Y018891D01*
X009601Y018890D02*
X009887Y018890D01*
X009887Y018889D02*
X009602Y018889D01*
X009602Y018888D02*
X009887Y018888D01*
X009887Y018887D02*
X009602Y018887D01*
X009602Y018886D02*
X009887Y018886D01*
X009887Y018885D02*
X009603Y018885D01*
X009603Y018884D02*
X009887Y018884D01*
X009887Y018883D02*
X009603Y018883D01*
X009604Y018882D02*
X009887Y018882D01*
X009887Y018881D02*
X009604Y018881D01*
X009604Y018880D02*
X009887Y018880D01*
X009887Y018879D02*
X009605Y018879D01*
X009605Y018878D02*
X009887Y018878D01*
X009887Y018877D02*
X009605Y018877D01*
X009605Y018876D02*
X009887Y018876D01*
X009887Y018875D02*
X009606Y018875D01*
X009606Y018874D02*
X009887Y018874D01*
X009887Y018873D02*
X009606Y018873D01*
X009607Y018872D02*
X009887Y018872D01*
X009887Y018871D02*
X009607Y018871D01*
X009607Y018870D02*
X009887Y018870D01*
X009887Y018869D02*
X009608Y018869D01*
X009608Y018868D02*
X009887Y018868D01*
X009887Y018867D02*
X009608Y018867D01*
X009609Y018866D02*
X009887Y018866D01*
X009887Y018865D02*
X009609Y018865D01*
X009609Y018864D02*
X009887Y018864D01*
X009887Y018863D02*
X009609Y018863D01*
X009610Y018862D02*
X009887Y018862D01*
X009887Y018861D02*
X009610Y018861D01*
X009610Y018860D02*
X009887Y018860D01*
X009887Y018859D02*
X009611Y018859D01*
X009611Y018858D02*
X009887Y018858D01*
X009887Y018857D02*
X009612Y018857D01*
X009613Y018856D02*
X009887Y018856D01*
X009887Y018855D02*
X009613Y018855D01*
X009614Y018854D02*
X009887Y018854D01*
X009887Y018853D02*
X009614Y018853D01*
X009615Y018852D02*
X009887Y018852D01*
X009887Y018851D02*
X009615Y018851D01*
X009616Y018850D02*
X009887Y018850D01*
X009887Y018849D02*
X009616Y018849D01*
X009617Y018848D02*
X009887Y018848D01*
X009887Y018847D02*
X009617Y018847D01*
X009618Y018846D02*
X009887Y018846D01*
X009887Y018845D02*
X009618Y018845D01*
X009619Y018844D02*
X009887Y018844D01*
X009887Y018843D02*
X009619Y018843D01*
X009620Y018842D02*
X009887Y018842D01*
X009887Y018841D02*
X009621Y018841D01*
X009621Y018840D02*
X009887Y018840D01*
X009887Y018839D02*
X009622Y018839D01*
X009622Y018838D02*
X009887Y018838D01*
X009887Y018837D02*
X009623Y018837D01*
X009623Y018836D02*
X009887Y018836D01*
X009887Y018835D02*
X009624Y018835D01*
X009624Y018834D02*
X009887Y018834D01*
X009887Y018833D02*
X009625Y018833D01*
X009625Y018832D02*
X009887Y018832D01*
X009887Y018831D02*
X009626Y018831D01*
X009626Y018830D02*
X009887Y018830D01*
X009887Y018829D02*
X009627Y018829D01*
X009627Y018828D02*
X009887Y018828D01*
X009887Y018827D02*
X009628Y018827D01*
X009629Y018826D02*
X009887Y018826D01*
X009887Y018825D02*
X009629Y018825D01*
X009630Y018824D02*
X009887Y018824D01*
X009887Y018823D02*
X009630Y018823D01*
X009631Y018822D02*
X009887Y018822D01*
X009887Y018821D02*
X009631Y018821D01*
X009632Y018820D02*
X009887Y018820D01*
X009887Y018819D02*
X009632Y018819D01*
X009633Y018818D02*
X009887Y018818D01*
X009887Y018817D02*
X009633Y018817D01*
X009634Y018816D02*
X009887Y018816D01*
X009887Y018815D02*
X009634Y018815D01*
X009635Y018814D02*
X009887Y018814D01*
X009887Y018813D02*
X009635Y018813D01*
X009636Y018812D02*
X009887Y018812D01*
X009887Y018811D02*
X009637Y018811D01*
X009637Y018810D02*
X009887Y018810D01*
X009887Y018809D02*
X009638Y018809D01*
X009638Y018808D02*
X009887Y018808D01*
X009887Y018807D02*
X009639Y018807D01*
X009640Y018806D02*
X009887Y018806D01*
X009887Y018805D02*
X009641Y018805D01*
X009641Y018804D02*
X009887Y018804D01*
X009887Y018803D02*
X009642Y018803D01*
X009643Y018802D02*
X009887Y018802D01*
X009887Y018801D02*
X009644Y018801D01*
X009645Y018800D02*
X009887Y018800D01*
X009887Y018799D02*
X009646Y018799D01*
X009646Y018798D02*
X009887Y018798D01*
X009887Y018797D02*
X009647Y018797D01*
X009648Y018796D02*
X009887Y018796D01*
X009887Y018795D02*
X009649Y018795D01*
X009650Y018794D02*
X009887Y018794D01*
X009887Y018793D02*
X009650Y018793D01*
X009651Y018792D02*
X009887Y018792D01*
X009887Y018791D02*
X009652Y018791D01*
X009653Y018790D02*
X009887Y018790D01*
X009887Y018789D02*
X009654Y018789D01*
X009655Y018788D02*
X009887Y018788D01*
X009887Y018787D02*
X009655Y018787D01*
X009656Y018786D02*
X009887Y018786D01*
X009887Y018785D02*
X009657Y018785D01*
X009658Y018784D02*
X009887Y018784D01*
X009887Y018783D02*
X009659Y018783D01*
X009660Y018782D02*
X009887Y018782D01*
X009887Y018781D02*
X009660Y018781D01*
X009661Y018780D02*
X009887Y018780D01*
X009887Y018779D02*
X009662Y018779D01*
X009663Y018778D02*
X009887Y018778D01*
X009887Y018777D02*
X009664Y018777D01*
X009664Y018776D02*
X009887Y018776D01*
X009887Y018775D02*
X009665Y018775D01*
X009666Y018774D02*
X009887Y018774D01*
X009887Y018773D02*
X009667Y018773D01*
X009668Y018772D02*
X009887Y018772D01*
X009887Y018771D02*
X009669Y018771D01*
X009669Y018770D02*
X009887Y018770D01*
X009887Y018769D02*
X009670Y018769D01*
X009671Y018768D02*
X009887Y018768D01*
X009887Y018767D02*
X009672Y018767D01*
X009673Y018766D02*
X009887Y018766D01*
X009887Y018765D02*
X009673Y018765D01*
X009674Y018764D02*
X009887Y018764D01*
X009887Y018763D02*
X009675Y018763D01*
X009676Y018762D02*
X009887Y018762D01*
X009887Y018761D02*
X009677Y018761D01*
X009679Y018760D02*
X009887Y018760D01*
X009887Y018759D02*
X009680Y018759D01*
X009681Y018758D02*
X009887Y018758D01*
X009887Y018757D02*
X009682Y018757D01*
X009683Y018756D02*
X009887Y018756D01*
X009887Y018755D02*
X009685Y018755D01*
X009686Y018754D02*
X009887Y018754D01*
X009887Y018753D02*
X009687Y018753D01*
X009688Y018752D02*
X009887Y018752D01*
X009887Y018751D02*
X009690Y018751D01*
X009691Y018750D02*
X009887Y018750D01*
X009887Y018749D02*
X009692Y018749D01*
X009693Y018748D02*
X009887Y018748D01*
X009887Y018747D02*
X009694Y018747D01*
X009696Y018746D02*
X009887Y018746D01*
X009887Y018745D02*
X009697Y018745D01*
X009698Y018744D02*
X009887Y018744D01*
X009887Y018743D02*
X009699Y018743D01*
X009701Y018742D02*
X009887Y018742D01*
X009887Y018741D02*
X009702Y018741D01*
X009703Y018740D02*
X009887Y018740D01*
X009887Y018739D02*
X009704Y018739D01*
X009705Y018738D02*
X009887Y018738D01*
X009887Y018737D02*
X009707Y018737D01*
X009708Y018736D02*
X009887Y018736D01*
X009887Y018735D02*
X009709Y018735D01*
X009710Y018734D02*
X009887Y018734D01*
X009887Y018733D02*
X009711Y018733D01*
X009713Y018732D02*
X009887Y018732D01*
X009887Y018731D02*
X009714Y018731D01*
X009715Y018730D02*
X009887Y018730D01*
X009887Y018729D02*
X009716Y018729D01*
X009718Y018728D02*
X009887Y018728D01*
X009887Y018727D02*
X009719Y018727D01*
X009720Y018726D02*
X009887Y018726D01*
X009887Y018725D02*
X009721Y018725D01*
X009723Y018724D02*
X009887Y018724D01*
X009887Y018723D02*
X009725Y018723D01*
X009727Y018722D02*
X009887Y018722D01*
X009887Y018721D02*
X009729Y018721D01*
X009731Y018720D02*
X009887Y018720D01*
X009887Y018719D02*
X009733Y018719D01*
X009735Y018718D02*
X009887Y018718D01*
X009887Y018717D02*
X009736Y018717D01*
X009738Y018716D02*
X009887Y018716D01*
X009887Y018715D02*
X009740Y018715D01*
X009742Y018714D02*
X009887Y018714D01*
X009887Y018713D02*
X009744Y018713D01*
X009746Y018712D02*
X009887Y018712D01*
X009887Y018711D02*
X009748Y018711D01*
X009749Y018710D02*
X009887Y018710D01*
X009887Y018709D02*
X009751Y018709D01*
X009753Y018708D02*
X009887Y018708D01*
X009887Y018707D02*
X009755Y018707D01*
X009757Y018706D02*
X009887Y018706D01*
X009887Y018705D02*
X009759Y018705D01*
X009761Y018704D02*
X009887Y018704D01*
X009887Y018703D02*
X009763Y018703D01*
X009764Y018702D02*
X009887Y018702D01*
X009887Y018701D02*
X009766Y018701D01*
X009768Y018700D02*
X009887Y018700D01*
X009887Y018699D02*
X009770Y018699D01*
X009772Y018698D02*
X009887Y018698D01*
X009887Y018697D02*
X009775Y018697D01*
X009778Y018696D02*
X009887Y018696D01*
X009887Y018695D02*
X009781Y018695D01*
X009785Y018694D02*
X009887Y018694D01*
X009887Y018693D02*
X009788Y018693D01*
X009791Y018692D02*
X009887Y018692D01*
X009887Y018691D02*
X009794Y018691D01*
X009798Y018690D02*
X009887Y018690D01*
X009887Y018689D02*
X009801Y018689D01*
X009804Y018688D02*
X009887Y018688D01*
X009887Y018687D02*
X009808Y018687D01*
X009811Y018686D02*
X009887Y018686D01*
X009887Y018685D02*
X009814Y018685D01*
X009817Y018684D02*
X009887Y018684D01*
X009887Y018683D02*
X009821Y018683D01*
X009824Y018682D02*
X009887Y018682D01*
X009887Y018681D02*
X009827Y018681D01*
X009834Y018680D02*
X009887Y018680D01*
X009887Y018679D02*
X009844Y018679D01*
X009854Y018678D02*
X009887Y018678D01*
X009887Y018677D02*
X009865Y018677D01*
X009875Y018676D02*
X009887Y018676D01*
X009887Y018675D02*
X009885Y018675D01*
X009887Y018917D02*
X009593Y018917D01*
X009593Y018918D02*
X009887Y018918D01*
X009887Y018919D02*
X009593Y018919D01*
X009593Y018920D02*
X009887Y018920D01*
X009887Y018921D02*
X009593Y018921D01*
X009593Y018922D02*
X009887Y018922D01*
X009887Y018923D02*
X009593Y018923D01*
X009592Y018924D02*
X009887Y018924D01*
X009887Y019026D02*
X009592Y019026D01*
X009593Y019027D02*
X009887Y019027D01*
X009887Y019028D02*
X009593Y019028D01*
X009593Y019029D02*
X009887Y019029D01*
X009887Y019030D02*
X009593Y019030D01*
X009593Y019031D02*
X009887Y019031D01*
X009887Y019032D02*
X009593Y019032D01*
X009593Y019033D02*
X009887Y019033D01*
X009887Y019034D02*
X009593Y019034D01*
X009594Y019035D02*
X009887Y019035D01*
X009887Y019036D02*
X009594Y019036D01*
X009594Y019037D02*
X009887Y019037D01*
X009887Y019038D02*
X009595Y019038D01*
X009595Y019039D02*
X009887Y019039D01*
X009887Y019040D02*
X009595Y019040D01*
X009595Y019041D02*
X009887Y019041D01*
X009887Y019042D02*
X009596Y019042D01*
X009596Y019043D02*
X009887Y019043D01*
X009887Y019044D02*
X009596Y019044D01*
X009597Y019045D02*
X009887Y019045D01*
X009887Y019046D02*
X009597Y019046D01*
X009597Y019047D02*
X009887Y019047D01*
X009887Y019048D02*
X009598Y019048D01*
X009598Y019049D02*
X009887Y019049D01*
X009887Y019050D02*
X009598Y019050D01*
X009598Y019051D02*
X009887Y019051D01*
X009887Y019052D02*
X009599Y019052D01*
X009599Y019053D02*
X009887Y019053D01*
X009887Y019054D02*
X009599Y019054D01*
X009600Y019055D02*
X009887Y019055D01*
X009887Y019056D02*
X009600Y019056D01*
X009600Y019057D02*
X009887Y019057D01*
X009887Y019058D02*
X009601Y019058D01*
X009601Y019059D02*
X009887Y019059D01*
X009887Y019060D02*
X009601Y019060D01*
X009602Y019061D02*
X009887Y019061D01*
X009887Y019062D02*
X009602Y019062D01*
X009602Y019063D02*
X009887Y019063D01*
X009887Y019064D02*
X009602Y019064D01*
X009603Y019065D02*
X009887Y019065D01*
X009887Y019066D02*
X009603Y019066D01*
X009603Y019067D02*
X009887Y019067D01*
X009887Y019068D02*
X009604Y019068D01*
X009604Y019069D02*
X009887Y019069D01*
X009887Y019070D02*
X009604Y019070D01*
X009605Y019071D02*
X009887Y019071D01*
X009887Y019072D02*
X009605Y019072D01*
X009605Y019073D02*
X009887Y019073D01*
X009887Y019074D02*
X009605Y019074D01*
X009606Y019075D02*
X009887Y019075D01*
X009887Y019076D02*
X009606Y019076D01*
X009606Y019077D02*
X009887Y019077D01*
X009887Y019078D02*
X009607Y019078D01*
X009607Y019079D02*
X009887Y019079D01*
X009887Y019080D02*
X009607Y019080D01*
X009608Y019081D02*
X009887Y019081D01*
X009887Y019082D02*
X009608Y019082D01*
X009608Y019083D02*
X009887Y019083D01*
X009887Y019084D02*
X009608Y019084D01*
X009609Y019085D02*
X009887Y019085D01*
X009887Y019086D02*
X009609Y019086D01*
X009609Y019087D02*
X009887Y019087D01*
X009887Y019088D02*
X009610Y019088D01*
X009610Y019089D02*
X009887Y019089D01*
X009887Y019090D02*
X009610Y019090D01*
X009611Y019091D02*
X009887Y019091D01*
X009887Y019092D02*
X009611Y019092D01*
X009612Y019093D02*
X009887Y019093D01*
X009887Y019094D02*
X009612Y019094D01*
X009613Y019095D02*
X009887Y019095D01*
X009887Y019096D02*
X009614Y019096D01*
X009614Y019097D02*
X009887Y019097D01*
X009887Y019098D02*
X009615Y019098D01*
X009615Y019099D02*
X009887Y019099D01*
X009887Y019100D02*
X009616Y019100D01*
X009616Y019101D02*
X009887Y019101D01*
X009887Y019102D02*
X009617Y019102D01*
X009617Y019103D02*
X009887Y019103D01*
X009887Y019104D02*
X009618Y019104D01*
X009618Y019105D02*
X009887Y019105D01*
X009887Y019106D02*
X009619Y019106D01*
X009619Y019107D02*
X009887Y019107D01*
X009887Y019108D02*
X009620Y019108D01*
X009620Y019109D02*
X009887Y019109D01*
X009887Y019110D02*
X009621Y019110D01*
X009622Y019111D02*
X009887Y019111D01*
X009887Y019112D02*
X009622Y019112D01*
X009623Y019113D02*
X009887Y019113D01*
X009887Y019114D02*
X009623Y019114D01*
X009624Y019115D02*
X009887Y019115D01*
X009887Y019116D02*
X009624Y019116D01*
X009625Y019117D02*
X009887Y019117D01*
X009887Y019118D02*
X009625Y019118D01*
X009626Y019119D02*
X009887Y019119D01*
X009887Y019120D02*
X009626Y019120D01*
X009627Y019121D02*
X009887Y019121D01*
X009887Y019122D02*
X009627Y019122D01*
X009628Y019123D02*
X009887Y019123D01*
X009887Y019124D02*
X009628Y019124D01*
X009629Y019125D02*
X009887Y019125D01*
X009887Y019126D02*
X009630Y019126D01*
X009630Y019127D02*
X009887Y019127D01*
X009887Y019128D02*
X009631Y019128D01*
X009631Y019129D02*
X009887Y019129D01*
X009887Y019130D02*
X009632Y019130D01*
X009632Y019131D02*
X009887Y019131D01*
X009887Y019132D02*
X009633Y019132D01*
X009633Y019133D02*
X009887Y019133D01*
X009887Y019134D02*
X009634Y019134D01*
X009634Y019135D02*
X009887Y019135D01*
X009887Y019136D02*
X009635Y019136D01*
X009635Y019137D02*
X009887Y019137D01*
X009887Y019138D02*
X009636Y019138D01*
X009636Y019139D02*
X009887Y019139D01*
X009887Y019140D02*
X009637Y019140D01*
X009638Y019141D02*
X009887Y019141D01*
X009887Y019142D02*
X009638Y019142D01*
X009639Y019143D02*
X009887Y019143D01*
X009887Y019144D02*
X009640Y019144D01*
X009641Y019145D02*
X009887Y019145D01*
X009887Y019146D02*
X009641Y019146D01*
X009642Y019147D02*
X009887Y019147D01*
X009887Y019148D02*
X009643Y019148D01*
X009644Y019149D02*
X009887Y019149D01*
X009887Y019150D02*
X009645Y019150D01*
X009646Y019151D02*
X009887Y019151D01*
X009887Y019152D02*
X009646Y019152D01*
X009647Y019153D02*
X009887Y019153D01*
X009887Y019154D02*
X009648Y019154D01*
X009649Y019155D02*
X009887Y019155D01*
X009887Y019156D02*
X009650Y019156D01*
X009650Y019157D02*
X009887Y019157D01*
X009887Y019158D02*
X009651Y019158D01*
X009652Y019159D02*
X009887Y019159D01*
X009887Y019160D02*
X009653Y019160D01*
X009654Y019161D02*
X009887Y019161D01*
X009887Y019162D02*
X009655Y019162D01*
X009655Y019163D02*
X009887Y019163D01*
X009887Y019164D02*
X009656Y019164D01*
X009657Y019165D02*
X009887Y019165D01*
X009887Y019166D02*
X009658Y019166D01*
X009659Y019167D02*
X009887Y019167D01*
X009887Y019168D02*
X009659Y019168D01*
X009660Y019169D02*
X009887Y019169D01*
X009887Y019170D02*
X009661Y019170D01*
X009662Y019171D02*
X009887Y019171D01*
X009887Y019172D02*
X009663Y019172D01*
X009664Y019173D02*
X009887Y019173D01*
X009887Y019174D02*
X009664Y019174D01*
X009665Y019175D02*
X009887Y019175D01*
X009887Y019176D02*
X009666Y019176D01*
X009667Y019177D02*
X009887Y019177D01*
X009887Y019178D02*
X009668Y019178D01*
X009668Y019179D02*
X009887Y019179D01*
X009887Y019180D02*
X009669Y019180D01*
X009670Y019181D02*
X009887Y019181D01*
X009887Y019182D02*
X009671Y019182D01*
X009672Y019183D02*
X009887Y019183D01*
X009887Y019184D02*
X009673Y019184D01*
X009673Y019185D02*
X009887Y019185D01*
X009887Y019186D02*
X009674Y019186D01*
X009675Y019187D02*
X009887Y019187D01*
X009887Y019188D02*
X009676Y019188D01*
X009677Y019189D02*
X009887Y019189D01*
X009887Y019190D02*
X009679Y019190D01*
X009680Y019191D02*
X009887Y019191D01*
X009887Y019192D02*
X009681Y019192D01*
X009682Y019193D02*
X009887Y019193D01*
X009887Y019194D02*
X009683Y019194D01*
X009685Y019195D02*
X009887Y019195D01*
X009887Y019196D02*
X009686Y019196D01*
X009687Y019197D02*
X009887Y019197D01*
X009887Y019198D02*
X009688Y019198D01*
X009689Y019199D02*
X009887Y019199D01*
X009887Y019200D02*
X009691Y019200D01*
X009692Y019201D02*
X009887Y019201D01*
X009887Y019202D02*
X009693Y019202D01*
X009694Y019203D02*
X009887Y019203D01*
X009887Y019204D02*
X009696Y019204D01*
X009697Y019205D02*
X009887Y019205D01*
X009887Y019206D02*
X009698Y019206D01*
X009699Y019207D02*
X009887Y019207D01*
X009887Y019208D02*
X009700Y019208D01*
X009702Y019209D02*
X009887Y019209D01*
X009887Y019210D02*
X009703Y019210D01*
X009704Y019211D02*
X009887Y019211D01*
X009887Y019212D02*
X009705Y019212D01*
X009707Y019213D02*
X009887Y019213D01*
X009887Y019214D02*
X009708Y019214D01*
X009709Y019215D02*
X009887Y019215D01*
X009887Y019216D02*
X009710Y019216D01*
X009711Y019217D02*
X009887Y019217D01*
X009887Y019218D02*
X009713Y019218D01*
X009714Y019219D02*
X009887Y019219D01*
X009887Y019220D02*
X009715Y019220D01*
X009716Y019221D02*
X009887Y019221D01*
X009887Y019222D02*
X009717Y019222D01*
X009719Y019223D02*
X009887Y019223D01*
X009887Y019224D02*
X009720Y019224D01*
X009721Y019225D02*
X009887Y019225D01*
X009887Y019226D02*
X009723Y019226D01*
X009725Y019227D02*
X009887Y019227D01*
X009887Y019228D02*
X009727Y019228D01*
X009729Y019229D02*
X009887Y019229D01*
X009887Y019230D02*
X009731Y019230D01*
X009733Y019231D02*
X009887Y019231D01*
X009887Y019232D02*
X009734Y019232D01*
X009736Y019233D02*
X009887Y019233D01*
X009887Y019234D02*
X009738Y019234D01*
X009740Y019235D02*
X009887Y019235D01*
X009887Y019236D02*
X009742Y019236D01*
X009744Y019237D02*
X009887Y019237D01*
X009887Y019238D02*
X009746Y019238D01*
X009747Y019239D02*
X009887Y019239D01*
X009887Y019240D02*
X009749Y019240D01*
X009751Y019241D02*
X009887Y019241D01*
X009887Y019242D02*
X009753Y019242D01*
X009755Y019243D02*
X009887Y019243D01*
X009887Y019244D02*
X009757Y019244D01*
X009759Y019245D02*
X009887Y019245D01*
X009887Y019246D02*
X009761Y019246D01*
X009762Y019247D02*
X009887Y019247D01*
X009887Y019248D02*
X009764Y019248D01*
X009766Y019249D02*
X009887Y019249D01*
X009887Y019250D02*
X009768Y019250D01*
X009770Y019251D02*
X009887Y019251D01*
X009887Y019252D02*
X009772Y019252D01*
X009774Y019253D02*
X009887Y019253D01*
X009887Y019254D02*
X009778Y019254D01*
X009781Y019255D02*
X009887Y019255D01*
X009887Y019256D02*
X009784Y019256D01*
X009788Y019257D02*
X009887Y019257D01*
X009887Y019258D02*
X009791Y019258D01*
X009794Y019259D02*
X009887Y019259D01*
X009887Y019260D02*
X009797Y019260D01*
X009801Y019261D02*
X009887Y019261D01*
X009887Y019262D02*
X009804Y019262D01*
X009807Y019263D02*
X009887Y019263D01*
X009887Y019264D02*
X009811Y019264D01*
X009814Y019265D02*
X009887Y019265D01*
X009887Y019266D02*
X009817Y019266D01*
X009820Y019267D02*
X009887Y019267D01*
X009887Y019268D02*
X009824Y019268D01*
X009827Y019269D02*
X009887Y019269D01*
X009887Y019270D02*
X009833Y019270D01*
X009843Y019271D02*
X009887Y019271D01*
X009887Y019272D02*
X009854Y019272D01*
X009864Y019273D02*
X009887Y019273D01*
X009887Y019274D02*
X009874Y019274D01*
X009884Y019275D02*
X009887Y019275D01*
X010037Y019025D02*
X009592Y019025D01*
X009592Y019024D02*
X010037Y019024D01*
X010037Y019023D02*
X009592Y019023D01*
X009592Y019022D02*
X010037Y019022D01*
X010037Y019021D02*
X009592Y019021D01*
X009592Y019020D02*
X010037Y019020D01*
X010037Y019019D02*
X009592Y019019D01*
X009592Y019018D02*
X010037Y019018D01*
X010037Y019017D02*
X009592Y019017D01*
X009591Y019016D02*
X010037Y019016D01*
X010037Y019015D02*
X009591Y019015D01*
X009591Y019014D02*
X010037Y019014D01*
X010037Y019013D02*
X009591Y019013D01*
X009591Y019012D02*
X010037Y019012D01*
X010037Y019011D02*
X009591Y019011D01*
X009591Y019010D02*
X010037Y019010D01*
X010037Y019009D02*
X009591Y019009D01*
X009591Y019008D02*
X010037Y019008D01*
X010037Y019007D02*
X009591Y019007D01*
X009591Y019006D02*
X010037Y019006D01*
X010037Y019005D02*
X009590Y019005D01*
X009590Y019004D02*
X010037Y019004D01*
X010037Y019003D02*
X009590Y019003D01*
X009590Y019002D02*
X010037Y019002D01*
X010037Y019001D02*
X009590Y019001D01*
X009590Y019000D02*
X010037Y019000D01*
X010037Y018999D02*
X009590Y018999D01*
X009590Y018998D02*
X010037Y018998D01*
X010037Y018997D02*
X009590Y018997D01*
X009590Y018996D02*
X010037Y018996D01*
X010037Y018995D02*
X009589Y018995D01*
X009589Y018994D02*
X010037Y018994D01*
X010037Y018993D02*
X009589Y018993D01*
X009589Y018992D02*
X010037Y018992D01*
X010037Y018991D02*
X009589Y018991D01*
X009589Y018990D02*
X010037Y018990D01*
X010037Y018989D02*
X009589Y018989D01*
X009589Y018988D02*
X010037Y018988D01*
X010037Y018987D02*
X009589Y018987D01*
X009589Y018986D02*
X010037Y018986D01*
X010037Y018985D02*
X009588Y018985D01*
X009588Y018984D02*
X010037Y018984D01*
X010037Y018983D02*
X009588Y018983D01*
X009588Y018982D02*
X010037Y018982D01*
X010037Y018981D02*
X009588Y018981D01*
X009588Y018980D02*
X010037Y018980D01*
X010037Y018979D02*
X009588Y018979D01*
X009588Y018978D02*
X010037Y018978D01*
X010037Y018977D02*
X009588Y018977D01*
X009588Y018976D02*
X010037Y018976D01*
X010037Y018975D02*
X009587Y018975D01*
X009588Y018974D02*
X010037Y018974D01*
X010037Y018973D02*
X009588Y018973D01*
X009588Y018972D02*
X010037Y018972D01*
X010037Y018971D02*
X009588Y018971D01*
X009588Y018970D02*
X010037Y018970D01*
X010037Y018969D02*
X009588Y018969D01*
X009588Y018968D02*
X010037Y018968D01*
X010037Y018967D02*
X009588Y018967D01*
X009588Y018966D02*
X010037Y018966D01*
X010037Y018965D02*
X009588Y018965D01*
X009589Y018964D02*
X010037Y018964D01*
X010037Y018963D02*
X009589Y018963D01*
X009589Y018962D02*
X010037Y018962D01*
X010037Y018961D02*
X009589Y018961D01*
X009589Y018960D02*
X010037Y018960D01*
X010037Y018959D02*
X009589Y018959D01*
X009589Y018958D02*
X010037Y018958D01*
X010037Y018957D02*
X009589Y018957D01*
X009589Y018956D02*
X010037Y018956D01*
X010037Y018955D02*
X009589Y018955D01*
X009590Y018954D02*
X010037Y018954D01*
X010037Y018953D02*
X009590Y018953D01*
X009590Y018952D02*
X010037Y018952D01*
X010037Y018951D02*
X009590Y018951D01*
X009590Y018950D02*
X010037Y018950D01*
X010037Y018949D02*
X009590Y018949D01*
X009590Y018948D02*
X010037Y018948D01*
X010037Y018947D02*
X009590Y018947D01*
X009590Y018946D02*
X010037Y018946D01*
X010037Y018945D02*
X009590Y018945D01*
X009591Y018944D02*
X010037Y018944D01*
X010037Y018943D02*
X009591Y018943D01*
X009591Y018942D02*
X010037Y018942D01*
X010037Y018941D02*
X009591Y018941D01*
X009591Y018940D02*
X010037Y018940D01*
X010037Y018939D02*
X009591Y018939D01*
X009591Y018938D02*
X010037Y018938D01*
X010037Y018937D02*
X009591Y018937D01*
X009591Y018936D02*
X010037Y018936D01*
X010037Y018935D02*
X009591Y018935D01*
X009592Y018934D02*
X010037Y018934D01*
X010037Y018933D02*
X009592Y018933D01*
X009592Y018932D02*
X010037Y018932D01*
X010037Y018931D02*
X009592Y018931D01*
X009592Y018930D02*
X010037Y018930D01*
X010037Y018929D02*
X009592Y018929D01*
X009592Y018928D02*
X010037Y018928D01*
X010037Y018927D02*
X009592Y018927D01*
X009592Y018926D02*
X010037Y018926D01*
X010037Y018925D02*
X009592Y018925D01*
X010587Y018926D02*
X010883Y018926D01*
X010883Y018927D02*
X010587Y018927D01*
X010587Y018928D02*
X010883Y018928D01*
X010883Y018929D02*
X010587Y018929D01*
X010587Y018930D02*
X010883Y018930D01*
X010883Y018931D02*
X010587Y018931D01*
X010587Y018932D02*
X010883Y018932D01*
X010883Y018933D02*
X010587Y018933D01*
X010587Y018934D02*
X010883Y018934D01*
X010884Y018935D02*
X010587Y018935D01*
X010587Y018936D02*
X010884Y018936D01*
X010884Y018937D02*
X010587Y018937D01*
X010587Y018938D02*
X010884Y018938D01*
X010884Y018939D02*
X010587Y018939D01*
X010587Y018940D02*
X010884Y018940D01*
X010884Y018941D02*
X010587Y018941D01*
X010587Y018942D02*
X010884Y018942D01*
X010884Y018943D02*
X010587Y018943D01*
X010587Y018944D02*
X010884Y018944D01*
X010885Y018945D02*
X010587Y018945D01*
X010587Y018946D02*
X010885Y018946D01*
X010885Y018947D02*
X010587Y018947D01*
X010587Y018948D02*
X010885Y018948D01*
X010885Y018949D02*
X010587Y018949D01*
X010587Y018950D02*
X010885Y018950D01*
X010885Y018951D02*
X010587Y018951D01*
X010587Y018952D02*
X010885Y018952D01*
X010885Y018953D02*
X010587Y018953D01*
X010587Y018954D02*
X010885Y018954D01*
X010885Y018955D02*
X010587Y018955D01*
X010587Y018956D02*
X010886Y018956D01*
X010886Y018957D02*
X010587Y018957D01*
X010587Y018958D02*
X010886Y018958D01*
X010886Y018959D02*
X010587Y018959D01*
X010587Y018960D02*
X010886Y018960D01*
X010886Y018961D02*
X010587Y018961D01*
X010587Y018962D02*
X010886Y018962D01*
X010886Y018963D02*
X010587Y018963D01*
X010587Y018964D02*
X010886Y018964D01*
X010886Y018965D02*
X010587Y018965D01*
X010587Y018966D02*
X010887Y018966D01*
X010887Y018967D02*
X010587Y018967D01*
X010587Y018968D02*
X010887Y018968D01*
X010887Y018969D02*
X010587Y018969D01*
X010587Y018970D02*
X010887Y018970D01*
X010887Y018971D02*
X010587Y018971D01*
X010587Y018972D02*
X010887Y018972D01*
X010887Y018973D02*
X010587Y018973D01*
X010587Y018974D02*
X010887Y018974D01*
X010887Y018975D02*
X010587Y018975D01*
X010587Y018976D02*
X010887Y018976D01*
X010887Y018977D02*
X010587Y018977D01*
X010587Y018978D02*
X010887Y018978D01*
X010887Y018979D02*
X010587Y018979D01*
X010587Y018980D02*
X010887Y018980D01*
X010887Y018981D02*
X010587Y018981D01*
X010587Y018982D02*
X010887Y018982D01*
X010887Y018983D02*
X010587Y018983D01*
X010587Y018984D02*
X010887Y018984D01*
X010886Y018985D02*
X010587Y018985D01*
X010587Y018986D02*
X010886Y018986D01*
X010886Y018987D02*
X010587Y018987D01*
X010587Y018988D02*
X010886Y018988D01*
X010886Y018989D02*
X010587Y018989D01*
X010587Y018990D02*
X010886Y018990D01*
X010886Y018991D02*
X010587Y018991D01*
X010587Y018992D02*
X010886Y018992D01*
X010886Y018993D02*
X010587Y018993D01*
X010587Y018994D02*
X010886Y018994D01*
X010886Y018995D02*
X010587Y018995D01*
X010587Y018996D02*
X010885Y018996D01*
X010885Y018997D02*
X010587Y018997D01*
X010587Y018998D02*
X010885Y018998D01*
X010885Y018999D02*
X010587Y018999D01*
X010587Y019000D02*
X010885Y019000D01*
X010885Y019001D02*
X010587Y019001D01*
X010587Y019002D02*
X010885Y019002D01*
X010885Y019003D02*
X010587Y019003D01*
X010587Y019004D02*
X010885Y019004D01*
X010885Y019005D02*
X010587Y019005D01*
X010587Y019006D02*
X010884Y019006D01*
X010884Y019007D02*
X010587Y019007D01*
X010587Y019008D02*
X010884Y019008D01*
X010884Y019009D02*
X010587Y019009D01*
X010587Y019010D02*
X010884Y019010D01*
X010884Y019011D02*
X010587Y019011D01*
X010587Y019012D02*
X010884Y019012D01*
X010884Y019013D02*
X010587Y019013D01*
X010587Y019014D02*
X010884Y019014D01*
X010884Y019015D02*
X010587Y019015D01*
X010587Y019016D02*
X010883Y019016D01*
X010883Y019017D02*
X010587Y019017D01*
X010587Y019018D02*
X010883Y019018D01*
X010883Y019019D02*
X010587Y019019D01*
X010587Y019020D02*
X010883Y019020D01*
X010883Y019021D02*
X010587Y019021D01*
X010587Y019022D02*
X010883Y019022D01*
X010883Y019023D02*
X010587Y019023D01*
X010587Y019024D02*
X010883Y019024D01*
X010883Y019025D02*
X010587Y019025D01*
X010587Y019026D02*
X010882Y019026D01*
X010882Y019027D02*
X010587Y019027D01*
X010587Y019028D02*
X010882Y019028D01*
X010882Y019029D02*
X010587Y019029D01*
X010587Y019030D02*
X010882Y019030D01*
X010882Y019031D02*
X010587Y019031D01*
X010587Y019032D02*
X010882Y019032D01*
X010882Y019033D02*
X010587Y019033D01*
X010587Y019034D02*
X010882Y019034D01*
X010881Y019035D02*
X010587Y019035D01*
X010587Y019036D02*
X010881Y019036D01*
X010881Y019037D02*
X010587Y019037D01*
X010587Y019038D02*
X010880Y019038D01*
X010880Y019039D02*
X010587Y019039D01*
X010587Y019040D02*
X010880Y019040D01*
X010879Y019041D02*
X010587Y019041D01*
X010587Y019042D02*
X010879Y019042D01*
X010879Y019043D02*
X010587Y019043D01*
X010587Y019044D02*
X010879Y019044D01*
X010878Y019045D02*
X010587Y019045D01*
X010587Y019046D02*
X010878Y019046D01*
X010878Y019047D02*
X010587Y019047D01*
X010587Y019048D02*
X010877Y019048D01*
X010877Y019049D02*
X010587Y019049D01*
X010587Y019050D02*
X010877Y019050D01*
X010876Y019051D02*
X010587Y019051D01*
X010587Y019052D02*
X010876Y019052D01*
X010876Y019053D02*
X010587Y019053D01*
X010587Y019054D02*
X010876Y019054D01*
X010875Y019055D02*
X010587Y019055D01*
X010587Y019056D02*
X010875Y019056D01*
X010875Y019057D02*
X010587Y019057D01*
X010587Y019058D02*
X010874Y019058D01*
X010874Y019059D02*
X010587Y019059D01*
X010587Y019060D02*
X010874Y019060D01*
X010873Y019061D02*
X010587Y019061D01*
X010587Y019062D02*
X010873Y019062D01*
X010873Y019063D02*
X010587Y019063D01*
X010587Y019064D02*
X010872Y019064D01*
X010872Y019065D02*
X010587Y019065D01*
X010587Y019066D02*
X010872Y019066D01*
X010872Y019067D02*
X010587Y019067D01*
X010587Y019068D02*
X010871Y019068D01*
X010871Y019069D02*
X010587Y019069D01*
X010587Y019070D02*
X010871Y019070D01*
X010870Y019071D02*
X010587Y019071D01*
X010587Y019072D02*
X010870Y019072D01*
X010870Y019073D02*
X010587Y019073D01*
X010587Y019074D02*
X010869Y019074D01*
X010869Y019075D02*
X010587Y019075D01*
X010587Y019076D02*
X010869Y019076D01*
X010869Y019077D02*
X010587Y019077D01*
X010587Y019078D02*
X010868Y019078D01*
X010868Y019079D02*
X010587Y019079D01*
X010587Y019080D02*
X010868Y019080D01*
X010867Y019081D02*
X010587Y019081D01*
X010587Y019082D02*
X010867Y019082D01*
X010867Y019083D02*
X010587Y019083D01*
X010587Y019084D02*
X010866Y019084D01*
X010866Y019085D02*
X010587Y019085D01*
X010587Y019086D02*
X010866Y019086D01*
X010866Y019087D02*
X010587Y019087D01*
X010587Y019088D02*
X010865Y019088D01*
X010865Y019089D02*
X010587Y019089D01*
X010587Y019090D02*
X010865Y019090D01*
X010864Y019091D02*
X010587Y019091D01*
X010587Y019092D02*
X010864Y019092D01*
X010863Y019093D02*
X010587Y019093D01*
X010587Y019094D02*
X010862Y019094D01*
X010862Y019095D02*
X010587Y019095D01*
X010587Y019096D02*
X010861Y019096D01*
X010861Y019097D02*
X010587Y019097D01*
X010587Y019098D02*
X010860Y019098D01*
X010860Y019099D02*
X010587Y019099D01*
X010587Y019100D02*
X010859Y019100D01*
X010859Y019101D02*
X010587Y019101D01*
X010587Y019102D02*
X010858Y019102D01*
X010858Y019103D02*
X010587Y019103D01*
X010587Y019104D02*
X010857Y019104D01*
X010857Y019105D02*
X010587Y019105D01*
X010587Y019106D02*
X010856Y019106D01*
X010856Y019107D02*
X010587Y019107D01*
X010587Y019108D02*
X010855Y019108D01*
X010854Y019109D02*
X010587Y019109D01*
X010587Y019110D02*
X010854Y019110D01*
X010853Y019111D02*
X010587Y019111D01*
X010587Y019112D02*
X010853Y019112D01*
X010852Y019113D02*
X010587Y019113D01*
X010587Y019114D02*
X010852Y019114D01*
X010851Y019115D02*
X010587Y019115D01*
X010587Y019116D02*
X010851Y019116D01*
X010850Y019117D02*
X010587Y019117D01*
X010587Y019118D02*
X010850Y019118D01*
X010849Y019119D02*
X010587Y019119D01*
X010587Y019120D02*
X010849Y019120D01*
X010848Y019121D02*
X010587Y019121D01*
X010587Y019122D02*
X010848Y019122D01*
X010847Y019123D02*
X010587Y019123D01*
X010587Y019124D02*
X010846Y019124D01*
X010846Y019125D02*
X010587Y019125D01*
X010587Y019126D02*
X010845Y019126D01*
X010845Y019127D02*
X010587Y019127D01*
X010587Y019128D02*
X010844Y019128D01*
X010844Y019129D02*
X010587Y019129D01*
X010587Y019130D02*
X010843Y019130D01*
X010843Y019131D02*
X010587Y019131D01*
X010587Y019132D02*
X010842Y019132D01*
X010842Y019133D02*
X010587Y019133D01*
X010587Y019134D02*
X010841Y019134D01*
X010841Y019135D02*
X010587Y019135D01*
X010587Y019136D02*
X010840Y019136D01*
X010840Y019137D02*
X010587Y019137D01*
X010587Y019138D02*
X010839Y019138D01*
X010838Y019139D02*
X010587Y019139D01*
X010587Y019140D02*
X010838Y019140D01*
X010837Y019141D02*
X010587Y019141D01*
X010587Y019142D02*
X010837Y019142D01*
X010836Y019143D02*
X010587Y019143D01*
X010587Y019144D02*
X010835Y019144D01*
X010834Y019145D02*
X010587Y019145D01*
X010587Y019146D02*
X010834Y019146D01*
X010833Y019147D02*
X010587Y019147D01*
X010587Y019148D02*
X010832Y019148D01*
X010831Y019149D02*
X010587Y019149D01*
X010587Y019150D02*
X010830Y019150D01*
X010829Y019151D02*
X010587Y019151D01*
X010587Y019152D02*
X010829Y019152D01*
X010828Y019153D02*
X010587Y019153D01*
X010587Y019154D02*
X010827Y019154D01*
X010826Y019155D02*
X010587Y019155D01*
X010587Y019156D02*
X010825Y019156D01*
X010825Y019157D02*
X010587Y019157D01*
X010587Y019158D02*
X010824Y019158D01*
X010823Y019159D02*
X010587Y019159D01*
X010587Y019160D02*
X010822Y019160D01*
X010821Y019161D02*
X010587Y019161D01*
X010587Y019162D02*
X010820Y019162D01*
X010820Y019163D02*
X010587Y019163D01*
X010587Y019164D02*
X010819Y019164D01*
X010818Y019165D02*
X010587Y019165D01*
X010587Y019166D02*
X010817Y019166D01*
X010816Y019167D02*
X010587Y019167D01*
X010587Y019168D02*
X010815Y019168D01*
X010815Y019169D02*
X010587Y019169D01*
X010587Y019170D02*
X010814Y019170D01*
X010813Y019171D02*
X010587Y019171D01*
X010587Y019172D02*
X010812Y019172D01*
X010811Y019173D02*
X010587Y019173D01*
X010587Y019174D02*
X010811Y019174D01*
X010810Y019175D02*
X010587Y019175D01*
X010587Y019176D02*
X010809Y019176D01*
X010808Y019177D02*
X010587Y019177D01*
X010587Y019178D02*
X010807Y019178D01*
X010806Y019179D02*
X010587Y019179D01*
X010587Y019180D02*
X010806Y019180D01*
X010805Y019181D02*
X010587Y019181D01*
X010587Y019182D02*
X010804Y019182D01*
X010803Y019183D02*
X010587Y019183D01*
X010587Y019184D02*
X010802Y019184D01*
X010802Y019185D02*
X010587Y019185D01*
X010587Y019186D02*
X010801Y019186D01*
X010800Y019187D02*
X010587Y019187D01*
X010587Y019188D02*
X010799Y019188D01*
X010798Y019189D02*
X010587Y019189D01*
X010587Y019190D02*
X010796Y019190D01*
X010795Y019191D02*
X010587Y019191D01*
X010587Y019192D02*
X010794Y019192D01*
X010793Y019193D02*
X010587Y019193D01*
X010587Y019194D02*
X010792Y019194D01*
X010790Y019195D02*
X010587Y019195D01*
X010587Y019196D02*
X010789Y019196D01*
X010788Y019197D02*
X010587Y019197D01*
X010587Y019198D02*
X010787Y019198D01*
X010785Y019199D02*
X010587Y019199D01*
X010587Y019200D02*
X010784Y019200D01*
X010783Y019201D02*
X010587Y019201D01*
X010587Y019202D02*
X010782Y019202D01*
X010781Y019203D02*
X010587Y019203D01*
X010587Y019204D02*
X010779Y019204D01*
X010778Y019205D02*
X010587Y019205D01*
X010587Y019206D02*
X010777Y019206D01*
X010776Y019207D02*
X010587Y019207D01*
X010587Y019208D02*
X010774Y019208D01*
X010773Y019209D02*
X010587Y019209D01*
X010587Y019210D02*
X010772Y019210D01*
X010771Y019211D02*
X010587Y019211D01*
X010587Y019212D02*
X010770Y019212D01*
X010768Y019213D02*
X010587Y019213D01*
X010587Y019214D02*
X010767Y019214D01*
X010766Y019215D02*
X010587Y019215D01*
X010587Y019216D02*
X010765Y019216D01*
X010764Y019217D02*
X010587Y019217D01*
X010587Y019218D02*
X010762Y019218D01*
X010761Y019219D02*
X010587Y019219D01*
X010587Y019220D02*
X010760Y019220D01*
X010759Y019221D02*
X010587Y019221D01*
X010587Y019222D02*
X010757Y019222D01*
X010756Y019223D02*
X010587Y019223D01*
X010587Y019224D02*
X010755Y019224D01*
X010754Y019225D02*
X010587Y019225D01*
X010587Y019226D02*
X010752Y019226D01*
X010750Y019227D02*
X010587Y019227D01*
X010587Y019228D02*
X010748Y019228D01*
X010746Y019229D02*
X010587Y019229D01*
X010587Y019230D02*
X010744Y019230D01*
X010742Y019231D02*
X010587Y019231D01*
X010587Y019232D02*
X010741Y019232D01*
X010739Y019233D02*
X010587Y019233D01*
X010587Y019234D02*
X010737Y019234D01*
X010735Y019235D02*
X010587Y019235D01*
X010587Y019236D02*
X010733Y019236D01*
X010731Y019237D02*
X010587Y019237D01*
X010587Y019238D02*
X010729Y019238D01*
X010727Y019239D02*
X010587Y019239D01*
X010587Y019240D02*
X010726Y019240D01*
X010724Y019241D02*
X010587Y019241D01*
X010587Y019242D02*
X010722Y019242D01*
X010720Y019243D02*
X010587Y019243D01*
X010587Y019244D02*
X010718Y019244D01*
X010716Y019245D02*
X010587Y019245D01*
X010587Y019246D02*
X010714Y019246D01*
X010713Y019247D02*
X010587Y019247D01*
X010587Y019248D02*
X010711Y019248D01*
X010709Y019249D02*
X010587Y019249D01*
X010587Y019250D02*
X010707Y019250D01*
X010705Y019251D02*
X010587Y019251D01*
X010587Y019252D02*
X010703Y019252D01*
X010701Y019253D02*
X010587Y019253D01*
X010587Y019254D02*
X010697Y019254D01*
X010694Y019255D02*
X010587Y019255D01*
X010587Y019256D02*
X010691Y019256D01*
X010687Y019257D02*
X010587Y019257D01*
X010587Y019258D02*
X010684Y019258D01*
X010681Y019259D02*
X010587Y019259D01*
X010587Y019260D02*
X010677Y019260D01*
X010674Y019261D02*
X010587Y019261D01*
X010587Y019262D02*
X010671Y019262D01*
X010668Y019263D02*
X010587Y019263D01*
X010587Y019264D02*
X010664Y019264D01*
X010661Y019265D02*
X010587Y019265D01*
X010587Y019266D02*
X010658Y019266D01*
X010654Y019267D02*
X010587Y019267D01*
X010587Y019268D02*
X010651Y019268D01*
X010648Y019269D02*
X010587Y019269D01*
X010587Y019270D02*
X010642Y019270D01*
X010631Y019271D02*
X010587Y019271D01*
X010587Y019272D02*
X010621Y019272D01*
X010611Y019273D02*
X010587Y019273D01*
X010587Y019274D02*
X010601Y019274D01*
X010591Y019275D02*
X010587Y019275D01*
X010587Y018925D02*
X010883Y018925D01*
X010882Y018924D02*
X010587Y018924D01*
X010587Y018923D02*
X010882Y018923D01*
X010882Y018922D02*
X010587Y018922D01*
X010587Y018921D02*
X010882Y018921D01*
X010882Y018920D02*
X010587Y018920D01*
X010587Y018919D02*
X010882Y018919D01*
X010882Y018918D02*
X010587Y018918D01*
X010587Y018917D02*
X010882Y018917D01*
X010882Y018916D02*
X010587Y018916D01*
X010587Y018915D02*
X010881Y018915D01*
X010881Y018914D02*
X010587Y018914D01*
X010587Y018913D02*
X010881Y018913D01*
X010880Y018912D02*
X010587Y018912D01*
X010587Y018911D02*
X010880Y018911D01*
X010880Y018910D02*
X010587Y018910D01*
X010587Y018909D02*
X010879Y018909D01*
X010879Y018908D02*
X010587Y018908D01*
X010587Y018907D02*
X010879Y018907D01*
X010879Y018906D02*
X010587Y018906D01*
X010587Y018905D02*
X010878Y018905D01*
X010878Y018904D02*
X010587Y018904D01*
X010587Y018903D02*
X010878Y018903D01*
X010877Y018902D02*
X010587Y018902D01*
X010587Y018901D02*
X010877Y018901D01*
X010877Y018900D02*
X010587Y018900D01*
X010587Y018899D02*
X010876Y018899D01*
X010876Y018898D02*
X010587Y018898D01*
X010587Y018897D02*
X010876Y018897D01*
X010876Y018896D02*
X010587Y018896D01*
X010587Y018895D02*
X010875Y018895D01*
X010875Y018894D02*
X010587Y018894D01*
X010587Y018893D02*
X010875Y018893D01*
X010874Y018892D02*
X010587Y018892D01*
X010587Y018891D02*
X010874Y018891D01*
X010874Y018890D02*
X010587Y018890D01*
X010587Y018889D02*
X010873Y018889D01*
X010873Y018888D02*
X010587Y018888D01*
X010587Y018887D02*
X010873Y018887D01*
X010872Y018886D02*
X010587Y018886D01*
X010587Y018885D02*
X010872Y018885D01*
X010872Y018884D02*
X010587Y018884D01*
X010587Y018883D02*
X010872Y018883D01*
X010871Y018882D02*
X010587Y018882D01*
X010587Y018881D02*
X010871Y018881D01*
X010871Y018880D02*
X010587Y018880D01*
X010587Y018879D02*
X010870Y018879D01*
X010870Y018878D02*
X010587Y018878D01*
X010587Y018877D02*
X010870Y018877D01*
X010869Y018876D02*
X010587Y018876D01*
X010587Y018875D02*
X010869Y018875D01*
X010869Y018874D02*
X010587Y018874D01*
X010587Y018873D02*
X010869Y018873D01*
X010868Y018872D02*
X010587Y018872D01*
X010587Y018871D02*
X010868Y018871D01*
X010868Y018870D02*
X010587Y018870D01*
X010587Y018869D02*
X010867Y018869D01*
X010867Y018868D02*
X010587Y018868D01*
X010587Y018867D02*
X010867Y018867D01*
X010866Y018866D02*
X010587Y018866D01*
X010587Y018865D02*
X010866Y018865D01*
X010866Y018864D02*
X010587Y018864D01*
X010587Y018863D02*
X010866Y018863D01*
X010865Y018862D02*
X010587Y018862D01*
X010587Y018861D02*
X010865Y018861D01*
X010865Y018860D02*
X010587Y018860D01*
X010587Y018859D02*
X010864Y018859D01*
X010863Y018858D02*
X010587Y018858D01*
X010587Y018857D02*
X010863Y018857D01*
X010862Y018856D02*
X010587Y018856D01*
X010587Y018855D02*
X010862Y018855D01*
X010861Y018854D02*
X010587Y018854D01*
X010587Y018853D02*
X010861Y018853D01*
X010860Y018852D02*
X010587Y018852D01*
X010587Y018851D02*
X010860Y018851D01*
X010859Y018850D02*
X010587Y018850D01*
X010587Y018849D02*
X010859Y018849D01*
X010858Y018848D02*
X010587Y018848D01*
X010587Y018847D02*
X010858Y018847D01*
X010857Y018846D02*
X010587Y018846D01*
X010587Y018845D02*
X010857Y018845D01*
X010856Y018844D02*
X010587Y018844D01*
X010587Y018843D02*
X010855Y018843D01*
X010855Y018842D02*
X010587Y018842D01*
X010587Y018841D02*
X010854Y018841D01*
X010854Y018840D02*
X010587Y018840D01*
X010587Y018839D02*
X010853Y018839D01*
X010853Y018838D02*
X010587Y018838D01*
X010587Y018837D02*
X010852Y018837D01*
X010852Y018836D02*
X010587Y018836D01*
X010587Y018835D02*
X010851Y018835D01*
X010851Y018834D02*
X010587Y018834D01*
X010587Y018833D02*
X010850Y018833D01*
X010850Y018832D02*
X010587Y018832D01*
X010587Y018831D02*
X010849Y018831D01*
X010849Y018830D02*
X010587Y018830D01*
X010587Y018829D02*
X010848Y018829D01*
X010847Y018828D02*
X010587Y018828D01*
X010587Y018827D02*
X010847Y018827D01*
X010846Y018826D02*
X010587Y018826D01*
X010587Y018825D02*
X010846Y018825D01*
X010845Y018824D02*
X010587Y018824D01*
X010587Y018823D02*
X010845Y018823D01*
X010844Y018822D02*
X010587Y018822D01*
X010587Y018821D02*
X010844Y018821D01*
X010843Y018820D02*
X010587Y018820D01*
X010587Y018819D02*
X010843Y018819D01*
X010842Y018818D02*
X010587Y018818D01*
X010587Y018817D02*
X010842Y018817D01*
X010841Y018816D02*
X010587Y018816D01*
X010587Y018815D02*
X010841Y018815D01*
X010840Y018814D02*
X010587Y018814D01*
X010587Y018813D02*
X010839Y018813D01*
X010839Y018812D02*
X010587Y018812D01*
X010587Y018811D02*
X010838Y018811D01*
X010838Y018810D02*
X010587Y018810D01*
X010587Y018809D02*
X010837Y018809D01*
X010837Y018808D02*
X010587Y018808D01*
X010587Y018807D02*
X010836Y018807D01*
X010835Y018806D02*
X010587Y018806D01*
X010587Y018805D02*
X010834Y018805D01*
X010833Y018804D02*
X010587Y018804D01*
X010587Y018803D02*
X010833Y018803D01*
X010832Y018802D02*
X010587Y018802D01*
X010587Y018801D02*
X010831Y018801D01*
X010830Y018800D02*
X010587Y018800D01*
X010587Y018799D02*
X010829Y018799D01*
X010829Y018798D02*
X010587Y018798D01*
X010587Y018797D02*
X010828Y018797D01*
X010827Y018796D02*
X010587Y018796D01*
X010587Y018795D02*
X010826Y018795D01*
X010825Y018794D02*
X010587Y018794D01*
X010587Y018793D02*
X010824Y018793D01*
X010824Y018792D02*
X010587Y018792D01*
X010587Y018791D02*
X010823Y018791D01*
X010822Y018790D02*
X010587Y018790D01*
X010587Y018789D02*
X010821Y018789D01*
X010820Y018788D02*
X010587Y018788D01*
X010587Y018787D02*
X010820Y018787D01*
X010819Y018786D02*
X010587Y018786D01*
X010587Y018785D02*
X010818Y018785D01*
X010817Y018784D02*
X010587Y018784D01*
X010587Y018783D02*
X010816Y018783D01*
X010815Y018782D02*
X010587Y018782D01*
X010587Y018781D02*
X010815Y018781D01*
X010814Y018780D02*
X010587Y018780D01*
X010587Y018779D02*
X010813Y018779D01*
X010812Y018778D02*
X010587Y018778D01*
X010587Y018777D02*
X010811Y018777D01*
X010811Y018776D02*
X010587Y018776D01*
X010587Y018775D02*
X010810Y018775D01*
X010809Y018774D02*
X010587Y018774D01*
X010587Y018773D02*
X010808Y018773D01*
X010807Y018772D02*
X010587Y018772D01*
X010587Y018771D02*
X010806Y018771D01*
X010806Y018770D02*
X010587Y018770D01*
X010587Y018769D02*
X010805Y018769D01*
X010804Y018768D02*
X010587Y018768D01*
X010587Y018767D02*
X010803Y018767D01*
X010802Y018766D02*
X010587Y018766D01*
X010587Y018765D02*
X010801Y018765D01*
X010801Y018764D02*
X010587Y018764D01*
X010587Y018763D02*
X010800Y018763D01*
X010799Y018762D02*
X010587Y018762D01*
X010587Y018761D02*
X010798Y018761D01*
X010796Y018760D02*
X010587Y018760D01*
X010587Y018759D02*
X010795Y018759D01*
X010794Y018758D02*
X010587Y018758D01*
X010587Y018757D02*
X010793Y018757D01*
X010791Y018756D02*
X010587Y018756D01*
X010587Y018755D02*
X010790Y018755D01*
X010789Y018754D02*
X010587Y018754D01*
X010587Y018753D02*
X010788Y018753D01*
X010787Y018752D02*
X010587Y018752D01*
X010587Y018751D02*
X010785Y018751D01*
X010784Y018750D02*
X010587Y018750D01*
X010587Y018749D02*
X010783Y018749D01*
X010782Y018748D02*
X010587Y018748D01*
X010587Y018747D02*
X010780Y018747D01*
X010779Y018746D02*
X010587Y018746D01*
X010587Y018745D02*
X010778Y018745D01*
X010777Y018744D02*
X010587Y018744D01*
X010587Y018743D02*
X010776Y018743D01*
X010774Y018742D02*
X010587Y018742D01*
X010587Y018741D02*
X010773Y018741D01*
X010772Y018740D02*
X010587Y018740D01*
X010587Y018739D02*
X010771Y018739D01*
X010770Y018738D02*
X010587Y018738D01*
X010587Y018737D02*
X010768Y018737D01*
X010767Y018736D02*
X010587Y018736D01*
X010587Y018735D02*
X010766Y018735D01*
X010765Y018734D02*
X010587Y018734D01*
X010587Y018733D02*
X010763Y018733D01*
X010762Y018732D02*
X010587Y018732D01*
X010587Y018731D02*
X010761Y018731D01*
X010760Y018730D02*
X010587Y018730D01*
X010587Y018729D02*
X010759Y018729D01*
X010757Y018728D02*
X010587Y018728D01*
X010587Y018727D02*
X010756Y018727D01*
X010755Y018726D02*
X010587Y018726D01*
X010587Y018725D02*
X010753Y018725D01*
X010752Y018724D02*
X010587Y018724D01*
X010587Y018723D02*
X010750Y018723D01*
X010748Y018722D02*
X010587Y018722D01*
X010587Y018721D02*
X010746Y018721D01*
X010744Y018720D02*
X010587Y018720D01*
X010587Y018719D02*
X010742Y018719D01*
X010740Y018718D02*
X010587Y018718D01*
X010587Y018717D02*
X010739Y018717D01*
X010737Y018716D02*
X010587Y018716D01*
X010587Y018715D02*
X010735Y018715D01*
X010733Y018714D02*
X010587Y018714D01*
X010587Y018713D02*
X010731Y018713D01*
X010729Y018712D02*
X010587Y018712D01*
X010587Y018711D02*
X010727Y018711D01*
X010725Y018710D02*
X010587Y018710D01*
X010587Y018709D02*
X010724Y018709D01*
X010722Y018708D02*
X010587Y018708D01*
X010587Y018707D02*
X010720Y018707D01*
X010718Y018706D02*
X010587Y018706D01*
X010587Y018705D02*
X010716Y018705D01*
X010714Y018704D02*
X010587Y018704D01*
X010587Y018703D02*
X010712Y018703D01*
X010710Y018702D02*
X010587Y018702D01*
X010587Y018701D02*
X010709Y018701D01*
X010707Y018700D02*
X010587Y018700D01*
X010587Y018699D02*
X010705Y018699D01*
X010703Y018698D02*
X010587Y018698D01*
X010587Y018697D02*
X010700Y018697D01*
X010697Y018696D02*
X010587Y018696D01*
X010587Y018695D02*
X010694Y018695D01*
X010690Y018694D02*
X010587Y018694D01*
X010587Y018693D02*
X010687Y018693D01*
X010684Y018692D02*
X010587Y018692D01*
X010587Y018691D02*
X010681Y018691D01*
X010677Y018690D02*
X010587Y018690D01*
X010587Y018689D02*
X010674Y018689D01*
X010671Y018688D02*
X010587Y018688D01*
X010587Y018687D02*
X010667Y018687D01*
X010664Y018686D02*
X010587Y018686D01*
X010587Y018685D02*
X010661Y018685D01*
X010657Y018684D02*
X010587Y018684D01*
X010587Y018683D02*
X010654Y018683D01*
X010651Y018682D02*
X010587Y018682D01*
X010587Y018681D02*
X010648Y018681D01*
X010641Y018680D02*
X010587Y018680D01*
X010587Y018679D02*
X010631Y018679D01*
X010620Y018678D02*
X010587Y018678D01*
X010587Y018677D02*
X010610Y018677D01*
X010600Y018676D02*
X010587Y018676D01*
X010587Y018675D02*
X010590Y018675D01*
D53*
X009787Y018975D03*
X008362Y018950D03*
D54*
X007387Y018950D03*
X010762Y018975D03*
D55*
X005937Y019260D02*
X005937Y019740D01*
X004937Y019740D02*
X004937Y019260D01*
X003937Y019260D02*
X003937Y019740D01*
D56*
X030887Y027405D03*
X030887Y027995D03*
D57*
X024362Y028404D02*
X022746Y028404D01*
X022549Y028600D01*
X022549Y026631D02*
X022549Y025647D01*
X022549Y025413D01*
X024037Y023925D01*
X024387Y024275D01*
X024387Y024349D01*
X025454Y024349D01*
X025462Y024340D01*
X024037Y023925D02*
X025162Y022800D01*
X029187Y022800D01*
X029462Y023075D01*
X024387Y025451D02*
X024387Y026396D01*
X024362Y026396D01*
X014675Y028108D02*
X014380Y028108D01*
X013687Y028800D01*
X012287Y028800D01*
X010362Y026876D02*
X009688Y026876D01*
X007937Y025125D01*
X008022Y025040D01*
X010912Y025040D01*
X057462Y001896D02*
X058809Y001896D01*
X060737Y003825D01*
X060737Y006650D01*
X058562Y008825D01*
X058562Y020150D01*
X058662Y020150D01*
X058562Y020150D02*
X058562Y021050D01*
X058662Y021150D01*
D58*
X054937Y027824D02*
X047737Y027824D01*
X047737Y030776D02*
X054937Y030776D01*
D59*
X042537Y029375D02*
X042292Y029375D01*
X040232Y029375D02*
X039737Y029375D01*
X045789Y011800D02*
X045787Y011798D01*
X045789Y011800D02*
X047962Y011800D01*
X047937Y011775D01*
X047937Y010900D01*
X047937Y010075D01*
X047914Y010052D01*
X045787Y010052D01*
D60*
X042053Y024666D02*
X037189Y024666D01*
X042053Y024666D02*
X045211Y027824D01*
X047737Y027824D01*
X044889Y030776D02*
X043487Y029375D01*
X042537Y029375D01*
X044889Y030776D02*
X047737Y030776D01*
X039737Y029375D02*
X039087Y029375D01*
X038889Y029178D01*
X037339Y029178D01*
D61*
X040537Y027075D03*
X041987Y027075D03*
X045462Y026025D03*
X045462Y023925D03*
X044037Y023825D03*
X043337Y022450D03*
X043328Y021790D03*
X043987Y018875D03*
X044512Y017450D03*
X043587Y017125D03*
X042997Y017385D03*
X042412Y015400D03*
X042412Y014975D03*
X039937Y014725D03*
X039287Y015125D03*
X036862Y016950D03*
X033312Y016950D03*
X030487Y016750D03*
X030487Y014525D03*
X025937Y013125D03*
X025412Y013450D03*
X025012Y012525D03*
X023562Y013200D03*
X023987Y014200D03*
X024637Y015100D03*
X024462Y016150D03*
X023237Y015100D03*
X021962Y015675D03*
X021912Y016375D03*
X020214Y014798D03*
X019937Y014325D03*
X020787Y014200D03*
X020787Y013350D03*
X021837Y014300D03*
X019412Y016475D03*
X017112Y016575D03*
X016212Y016475D03*
X016287Y015725D03*
X010687Y016025D03*
X010687Y018100D03*
X007037Y019900D03*
X006512Y021300D03*
X005737Y021300D03*
X004462Y017550D03*
X013137Y023850D03*
X012737Y024550D03*
X006437Y027525D03*
X007412Y028700D03*
X021612Y024475D03*
X021612Y023175D03*
X023762Y020800D03*
X021962Y018050D03*
X019062Y019500D03*
X024962Y017425D03*
X026562Y023725D03*
X028412Y024975D03*
X027262Y025950D03*
X026637Y025200D03*
X027437Y027375D03*
X027912Y028800D03*
X028837Y029200D03*
X030762Y030200D03*
X025837Y030125D03*
X047412Y018575D03*
X048637Y018675D03*
X050612Y019075D03*
X048637Y016700D03*
X048212Y013125D03*
X049612Y012450D03*
X051837Y009800D03*
X050287Y009550D03*
X049862Y009550D03*
X050437Y007725D03*
X051887Y007375D03*
X048837Y007700D03*
X045262Y007375D03*
X041587Y007925D03*
X044037Y013225D03*
X045512Y013225D03*
X051012Y023025D03*
X050912Y024850D03*
X013337Y007950D03*
X013387Y005975D03*
X013887Y005625D03*
X011687Y005975D03*
X012712Y003700D03*
D62*
X014862Y005650D02*
X014862Y005852D01*
X013864Y006850D01*
X025937Y013125D02*
X025937Y018625D01*
X023762Y020800D01*
X016837Y022650D02*
X016837Y024125D01*
X014823Y026139D01*
X014675Y026139D01*
X014675Y025155D02*
X014687Y025143D01*
X014687Y024500D01*
X013437Y023250D01*
X013437Y022966D01*
X010362Y026876D02*
X010362Y026900D01*
X012287Y030934D02*
X013396Y030934D01*
X014582Y032120D01*
X014675Y032045D01*
X024387Y025451D02*
X024537Y025601D01*
X024396Y025460D02*
X024387Y025451D01*
X024396Y025460D02*
X025462Y025460D01*
X029462Y025075D02*
X030037Y025650D01*
X030037Y027400D01*
X030037Y028425D01*
X030037Y028800D01*
X028612Y030225D01*
X027987Y030225D01*
X030487Y016750D02*
X030487Y014525D01*
X030662Y011475D02*
X030312Y011475D01*
X030662Y011475D02*
X030912Y011475D01*
X032449Y009938D01*
X032449Y009493D01*
X032462Y006725D02*
X028887Y006725D01*
D63*
X030312Y011475D03*
X030662Y011475D03*
X014637Y008825D03*
X014862Y005650D03*
X014562Y003525D03*
X014437Y001825D03*
X009587Y001725D03*
X007012Y016675D03*
X012137Y016825D03*
X011687Y020350D03*
X012137Y020725D03*
X009787Y020725D03*
X008287Y022175D03*
D64*
X008512Y022900D02*
X008887Y023275D01*
X008887Y023200D01*
X008887Y023275D02*
X008889Y023276D01*
X008889Y023500D01*
X009189Y023200D01*
X011387Y023200D01*
X012737Y024550D01*
X013137Y023850D02*
X013137Y025750D01*
X008512Y022900D02*
X006799Y022900D01*
X006512Y022613D01*
X006512Y022513D01*
X005737Y021300D02*
X005737Y024025D01*
X004587Y025175D01*
X004137Y025175D01*
X005737Y021300D02*
X006062Y020975D01*
X008687Y020975D01*
X009312Y020350D01*
X011687Y020350D01*
X010987Y018975D02*
X010762Y018975D01*
X009912Y018100D02*
X009562Y018450D01*
X007987Y018450D01*
X007912Y018525D01*
X007912Y018950D01*
X007387Y018950D02*
X007387Y018825D01*
X005287Y018825D01*
X004937Y019175D01*
X004937Y019500D01*
X004562Y017675D02*
X009262Y017675D01*
X009712Y017225D01*
X016612Y017225D01*
X017112Y016725D01*
X017112Y016575D01*
X017212Y016475D01*
X018437Y016475D01*
X019787Y015125D01*
X020362Y015125D01*
X020787Y014700D01*
X020787Y014200D01*
X019937Y014325D02*
X018237Y016025D01*
X010687Y016025D01*
X010687Y018100D02*
X009912Y018100D01*
X004562Y017675D02*
X004462Y017575D01*
X004462Y017550D01*
X016212Y016475D02*
X016437Y016250D01*
X018337Y016250D01*
X019789Y014798D01*
X020214Y014798D01*
X019612Y014325D02*
X019612Y014175D01*
X019962Y013825D01*
X025012Y013825D01*
X025012Y012525D01*
X025412Y013450D02*
X025412Y017500D01*
X024462Y018450D01*
X019062Y018450D01*
X021962Y018050D02*
X022587Y017425D01*
X022587Y016300D01*
X021962Y015675D01*
X023237Y015100D02*
X024637Y015100D01*
X025012Y015600D02*
X024462Y016150D01*
X025012Y015600D02*
X025012Y013825D01*
X023987Y014200D02*
X023887Y014300D01*
X021837Y014300D01*
X020787Y013350D02*
X023412Y013350D01*
X023562Y013200D01*
X019612Y014325D02*
X018137Y015800D01*
X016362Y015800D01*
X016287Y015725D01*
X022587Y017425D02*
X024962Y017425D01*
X021612Y023175D02*
X021612Y024475D01*
X026562Y023725D02*
X026637Y023800D01*
X026637Y025200D01*
X027262Y025950D02*
X027262Y026250D01*
X028037Y027025D01*
X028037Y027651D01*
X027437Y027375D02*
X027113Y027375D01*
X026837Y027651D01*
X027437Y027375D02*
X027437Y029000D01*
X027637Y029200D01*
X028837Y029200D01*
X028862Y028537D02*
X028175Y028537D01*
X028037Y028399D01*
X027912Y028524D01*
X027912Y028800D01*
X026837Y028399D02*
X026337Y028899D01*
X026337Y032700D01*
X026212Y032825D01*
X025713Y032825D01*
X026612Y032830D02*
X027638Y032830D01*
X027632Y032819D02*
X027622Y032783D01*
X027622Y032140D01*
X027897Y032140D01*
X027897Y032110D01*
X027622Y032110D01*
X027622Y031467D01*
X027632Y031431D01*
X027650Y031399D01*
X027677Y031373D01*
X027708Y031355D01*
X027744Y031345D01*
X027897Y031345D01*
X027897Y032110D01*
X027927Y032110D01*
X027927Y031345D01*
X028081Y031345D01*
X028117Y031355D01*
X028148Y031373D01*
X028174Y031399D01*
X028193Y031431D01*
X028202Y031467D01*
X028202Y032110D01*
X027927Y032110D01*
X027927Y032140D01*
X027897Y032140D01*
X027897Y032905D01*
X027744Y032905D01*
X027708Y032895D01*
X027677Y032877D01*
X027650Y032851D01*
X027632Y032819D01*
X027622Y032712D02*
X026617Y032712D01*
X026617Y032756D02*
X026612Y032768D01*
X026612Y033422D01*
X029262Y033422D01*
X029262Y031225D01*
X026617Y031225D01*
X026617Y032756D01*
X026617Y032593D02*
X027622Y032593D01*
X027622Y032475D02*
X026617Y032475D01*
X026617Y032356D02*
X027622Y032356D01*
X027622Y032238D02*
X026617Y032238D01*
X026617Y032119D02*
X027897Y032119D01*
X027912Y032125D02*
X028037Y032175D01*
X027927Y032140D02*
X028202Y032140D01*
X028202Y032783D01*
X028193Y032819D01*
X028174Y032851D01*
X028148Y032877D01*
X028117Y032895D01*
X028081Y032905D01*
X027927Y032905D01*
X027927Y032140D01*
X027927Y032119D02*
X029262Y032119D01*
X029262Y032001D02*
X028202Y032001D01*
X028202Y031882D02*
X029262Y031882D01*
X029262Y031764D02*
X028202Y031764D01*
X028202Y031645D02*
X029262Y031645D01*
X029262Y031527D02*
X028202Y031527D01*
X028180Y031408D02*
X029262Y031408D01*
X029262Y031290D02*
X026617Y031290D01*
X026617Y031408D02*
X027645Y031408D01*
X027622Y031527D02*
X026617Y031527D01*
X026617Y031645D02*
X027622Y031645D01*
X027622Y031764D02*
X026617Y031764D01*
X026617Y031882D02*
X027622Y031882D01*
X027622Y032001D02*
X026617Y032001D01*
X027897Y032001D02*
X027927Y032001D01*
X027927Y031882D02*
X027897Y031882D01*
X027897Y031764D02*
X027927Y031764D01*
X027927Y031645D02*
X027897Y031645D01*
X027897Y031527D02*
X027927Y031527D01*
X027927Y031408D02*
X027897Y031408D01*
X027897Y032238D02*
X027927Y032238D01*
X027927Y032356D02*
X027897Y032356D01*
X027897Y032475D02*
X027927Y032475D01*
X027927Y032593D02*
X027897Y032593D01*
X027897Y032712D02*
X027927Y032712D01*
X027927Y032830D02*
X027897Y032830D01*
X028187Y032830D02*
X029262Y032830D01*
X029262Y032712D02*
X028202Y032712D01*
X028202Y032593D02*
X029262Y032593D01*
X029262Y032475D02*
X028202Y032475D01*
X028202Y032356D02*
X029262Y032356D01*
X029262Y032238D02*
X028202Y032238D01*
X029262Y032949D02*
X026612Y032949D01*
X026612Y033067D02*
X029262Y033067D01*
X029262Y033186D02*
X026612Y033186D01*
X026612Y033304D02*
X029262Y033304D01*
X025837Y030501D02*
X025837Y030125D01*
X029562Y028537D02*
X029926Y028537D01*
X030037Y028425D01*
X029562Y027513D02*
X028862Y027513D01*
X028862Y026913D01*
X028412Y026463D01*
X028412Y024975D01*
X042737Y022325D02*
X042912Y022325D01*
X043337Y022450D01*
X043087Y021900D02*
X043062Y021875D01*
D65*
X043053Y021865D01*
X043328Y021790D01*
X044037Y023825D02*
X044137Y023925D01*
X045462Y023925D01*
X043412Y024325D02*
X043112Y024025D01*
X037830Y024025D01*
X037189Y024666D01*
X037187Y024650D02*
X037562Y024275D01*
X042987Y024275D01*
X043312Y024600D01*
X050662Y024600D01*
X050912Y024850D01*
X049712Y024325D02*
X051012Y023025D01*
X049712Y024325D02*
X043412Y024325D01*
X043987Y018875D02*
X043987Y018375D01*
X042997Y017385D01*
X043387Y016325D02*
X044512Y017450D01*
X043387Y016325D02*
X039586Y016325D01*
X039587Y016375D01*
X039586Y016325D02*
X039586Y016474D01*
X038838Y016325D02*
X038717Y016253D01*
X047412Y018575D02*
X047912Y019075D01*
X050612Y019075D01*
X048637Y018675D02*
X048212Y018250D01*
X048212Y013125D01*
X048637Y013425D02*
X049612Y012450D01*
X048637Y013425D02*
X048637Y016700D01*
X039112Y009249D02*
X039100Y009261D01*
X021912Y016375D02*
X021637Y016100D01*
X019187Y016100D01*
X017812Y017475D01*
X009812Y017475D01*
X009362Y017925D01*
X004012Y017925D01*
X002937Y019000D01*
X002937Y027450D01*
X003662Y028175D01*
X004137Y028175D01*
X006437Y028574D02*
X006437Y027525D01*
X006437Y028574D02*
X006887Y029024D01*
X006887Y028800D01*
X007312Y028800D01*
X007412Y028700D01*
X006887Y029024D02*
X006887Y029075D01*
X008512Y029075D01*
X008687Y028900D01*
X008687Y028835D01*
X004137Y026175D02*
X003487Y026175D01*
X003262Y025950D01*
X003262Y019050D01*
X004112Y018200D01*
X009462Y018200D01*
X009912Y017750D01*
X019062Y017750D01*
X019062Y018450D01*
X019062Y019500D01*
X019062Y017750D02*
X019062Y016825D01*
X019412Y016475D01*
X012912Y018276D02*
X012763Y018425D01*
X010312Y018425D01*
X010237Y018500D01*
X010237Y018975D01*
X009787Y018975D02*
X009687Y018975D01*
X008362Y020300D01*
X005637Y020300D01*
X005012Y020925D01*
X005012Y022575D01*
X004412Y023175D01*
X004137Y023175D01*
X004837Y024175D02*
X005337Y023675D01*
X005337Y021075D01*
X005762Y020650D01*
X008512Y020650D01*
X009212Y019950D01*
X011062Y019950D01*
X011988Y019024D01*
X012912Y019024D01*
X012137Y020725D02*
X010437Y020725D01*
X009262Y021900D01*
X009262Y023000D01*
X008987Y023275D01*
X007937Y023651D02*
X007887Y024000D01*
X007937Y023651D02*
X007786Y023500D01*
X004837Y024175D02*
X004137Y024175D01*
X007037Y019900D02*
X008037Y019900D01*
X008362Y019575D01*
X008362Y018950D01*
X007162Y016825D02*
X007012Y016675D01*
X007162Y016825D02*
X012137Y016825D01*
X013864Y008850D02*
X014637Y008825D01*
X015462Y009200D02*
X016687Y008000D01*
X016612Y007925D01*
X013887Y005625D02*
X012037Y005625D01*
X011687Y005975D01*
X010262Y005975D01*
X009362Y005075D01*
X008162Y005075D01*
X007912Y004825D01*
X005737Y005875D02*
X005377Y005875D01*
X005377Y004716D01*
X004761Y004100D01*
X004013Y004100D02*
X004013Y005259D01*
X003397Y005875D01*
X013889Y003950D02*
X014137Y003950D01*
X014562Y003525D01*
X013889Y001950D02*
X013887Y001825D01*
X014437Y001825D01*
X016622Y003735D02*
X017112Y004225D01*
X016622Y003735D02*
X017865Y002950D01*
X027912Y030225D02*
X027987Y030225D01*
D66*
X025837Y030501D02*
X025712Y030501D01*
X025712Y030551D01*
X025712Y030576D01*
X024720Y030576D01*
X024412Y030884D01*
X023744Y031553D01*
X022549Y031553D01*
X024404Y030875D02*
X024412Y030884D01*
X025712Y031299D02*
X025712Y032101D01*
X025713Y032825D02*
X024621Y032825D01*
X024412Y032616D01*
X024454Y032616D01*
X030762Y030200D02*
X030887Y030075D01*
X030887Y027995D01*
X030887Y027405D02*
X030042Y027405D01*
X030037Y027400D01*
X031162Y030200D02*
X033312Y028050D01*
X033312Y016950D01*
X036862Y016950D02*
X043412Y016950D01*
X043587Y017125D01*
X039858Y015575D02*
X039586Y015897D01*
X039586Y016325D01*
X038838Y016325D02*
X037710Y016325D01*
X037339Y015954D01*
X038717Y016253D02*
X038717Y015575D01*
X039912Y009546D02*
X039792Y009425D01*
X039112Y009425D01*
X039112Y009249D01*
X039100Y009261D02*
X037339Y009261D01*
X039112Y008501D02*
X039816Y008501D01*
X039912Y008404D01*
X017662Y019100D02*
X017662Y021800D01*
X016837Y022625D01*
X014837Y022966D02*
X014837Y023025D01*
X014837Y022966D02*
X013437Y022966D01*
X014837Y022276D02*
X014837Y021474D01*
X016837Y020750D02*
X016912Y020750D01*
X017262Y020400D01*
X017262Y019275D01*
X017012Y019025D01*
X015212Y019025D01*
X015203Y019015D01*
X015203Y018850D01*
X013923Y018850D02*
X013749Y019024D01*
X012912Y019024D01*
X012912Y018300D02*
X016862Y018300D01*
X017662Y019100D01*
X012912Y018300D02*
X012912Y018276D01*
X012912Y018225D01*
X009787Y020725D02*
X008887Y021625D01*
X008887Y022175D01*
X008287Y022175D01*
X008887Y022175D02*
X008887Y023499D01*
X008889Y023500D01*
X009149Y023760D01*
X010912Y023760D01*
X010912Y027624D02*
X010912Y028601D01*
X010912Y029349D02*
X011705Y029349D01*
X012262Y028791D01*
X011955Y030601D02*
X010912Y030601D01*
X010912Y030626D01*
X011955Y030601D02*
X012287Y030934D01*
X012237Y030884D01*
X010912Y031374D02*
X010912Y032176D01*
X009303Y032100D02*
X009187Y032075D01*
X008862Y032100D01*
X009111Y032076D02*
X009187Y032075D01*
X008687Y031450D02*
X008687Y030115D01*
X006887Y030126D02*
X006887Y032000D01*
X007087Y032000D01*
X006887Y032000D02*
X006887Y032050D01*
X025462Y025460D02*
X025604Y025551D01*
X030762Y030200D02*
X031162Y030200D01*
X008287Y004550D02*
X008287Y003025D01*
X009587Y001725D01*
D67*
X008262Y003350D02*
X006362Y003350D01*
X006162Y003550D01*
X006162Y004906D01*
X006283Y004906D01*
X006406Y005029D01*
X006406Y006721D01*
X006283Y006844D01*
X005894Y006844D01*
X005262Y007475D01*
X005262Y015450D01*
X005562Y015750D01*
X007362Y015750D01*
X007362Y008150D01*
X007562Y008150D01*
X007562Y015750D01*
X010448Y015743D01*
X010535Y015656D01*
X010840Y015656D01*
X010926Y015742D01*
X015919Y015731D01*
X015919Y015572D01*
X016135Y015356D01*
X016440Y015356D01*
X016614Y015530D01*
X018026Y015530D01*
X018837Y014718D01*
X018837Y013625D01*
X018362Y013150D01*
X012321Y013150D01*
X012254Y013178D01*
X011924Y013178D01*
X011620Y013052D01*
X011387Y012819D01*
X011261Y012515D01*
X011261Y012185D01*
X011387Y011881D01*
X011620Y011648D01*
X011812Y011568D01*
X011812Y009750D01*
X008362Y006300D01*
X008362Y003450D01*
X008262Y003350D01*
X008305Y003393D02*
X006319Y003393D01*
X006221Y003492D02*
X008362Y003492D01*
X008362Y003590D02*
X006162Y003590D01*
X006162Y003689D02*
X008362Y003689D01*
X008362Y003787D02*
X006162Y003787D01*
X006162Y003886D02*
X008362Y003886D01*
X008362Y003984D02*
X006162Y003984D01*
X006162Y004083D02*
X008362Y004083D01*
X008362Y004181D02*
X006162Y004181D01*
X006162Y004280D02*
X008362Y004280D01*
X008362Y004378D02*
X006162Y004378D01*
X006162Y004477D02*
X008362Y004477D01*
X008362Y004575D02*
X006162Y004575D01*
X006162Y004674D02*
X008362Y004674D01*
X008362Y004772D02*
X006162Y004772D01*
X006162Y004871D02*
X008362Y004871D01*
X008362Y004969D02*
X006346Y004969D01*
X006406Y005068D02*
X008362Y005068D01*
X008362Y005166D02*
X006406Y005166D01*
X006406Y005265D02*
X008362Y005265D01*
X008362Y005363D02*
X006406Y005363D01*
X006406Y005462D02*
X008362Y005462D01*
X008362Y005560D02*
X006406Y005560D01*
X006406Y005659D02*
X008362Y005659D01*
X008362Y005757D02*
X006406Y005757D01*
X006406Y005856D02*
X008362Y005856D01*
X008362Y005954D02*
X006406Y005954D01*
X006406Y006053D02*
X008362Y006053D01*
X008362Y006151D02*
X006406Y006151D01*
X006406Y006250D02*
X008362Y006250D01*
X008410Y006348D02*
X006406Y006348D01*
X006406Y006447D02*
X008509Y006447D01*
X008607Y006545D02*
X006406Y006545D01*
X006406Y006644D02*
X008706Y006644D01*
X008804Y006742D02*
X006385Y006742D01*
X006286Y006841D02*
X008903Y006841D01*
X009001Y006939D02*
X005798Y006939D01*
X005700Y007038D02*
X009100Y007038D01*
X009198Y007136D02*
X005601Y007136D01*
X005503Y007235D02*
X009297Y007235D01*
X009395Y007333D02*
X005404Y007333D01*
X005306Y007432D02*
X009494Y007432D01*
X009592Y007530D02*
X005262Y007530D01*
X005262Y007629D02*
X009691Y007629D01*
X009789Y007727D02*
X005262Y007727D01*
X005262Y007826D02*
X009888Y007826D01*
X009986Y007924D02*
X005262Y007924D01*
X005262Y008023D02*
X010085Y008023D01*
X010183Y008121D02*
X005262Y008121D01*
X005262Y008220D02*
X007362Y008220D01*
X007362Y008318D02*
X005262Y008318D01*
X005262Y008417D02*
X007362Y008417D01*
X007362Y008515D02*
X005262Y008515D01*
X005262Y008614D02*
X007362Y008614D01*
X007362Y008712D02*
X005262Y008712D01*
X005262Y008811D02*
X007362Y008811D01*
X007362Y008909D02*
X005262Y008909D01*
X005262Y009008D02*
X007362Y009008D01*
X007362Y009106D02*
X005262Y009106D01*
X005262Y009205D02*
X007362Y009205D01*
X007362Y009303D02*
X005262Y009303D01*
X005262Y009402D02*
X007362Y009402D01*
X007362Y009500D02*
X005262Y009500D01*
X005262Y009599D02*
X007362Y009599D01*
X007362Y009697D02*
X005262Y009697D01*
X005262Y009796D02*
X007362Y009796D01*
X007362Y009894D02*
X005262Y009894D01*
X005262Y009993D02*
X007362Y009993D01*
X007362Y010091D02*
X005262Y010091D01*
X005262Y010190D02*
X007362Y010190D01*
X007362Y010288D02*
X005262Y010288D01*
X005262Y010387D02*
X007362Y010387D01*
X007362Y010485D02*
X005262Y010485D01*
X005262Y010584D02*
X007362Y010584D01*
X007362Y010682D02*
X005262Y010682D01*
X005262Y010781D02*
X007362Y010781D01*
X007362Y010879D02*
X005262Y010879D01*
X005262Y010978D02*
X007362Y010978D01*
X007362Y011076D02*
X005262Y011076D01*
X005262Y011175D02*
X007362Y011175D01*
X007362Y011273D02*
X005262Y011273D01*
X005262Y011372D02*
X007362Y011372D01*
X007362Y011470D02*
X005262Y011470D01*
X005262Y011569D02*
X007362Y011569D01*
X007362Y011667D02*
X005262Y011667D01*
X005262Y011766D02*
X007362Y011766D01*
X007362Y011864D02*
X005262Y011864D01*
X005262Y011963D02*
X007362Y011963D01*
X007362Y012061D02*
X005262Y012061D01*
X005262Y012160D02*
X007362Y012160D01*
X007362Y012258D02*
X005262Y012258D01*
X005262Y012357D02*
X007362Y012357D01*
X007362Y012455D02*
X005262Y012455D01*
X005262Y012554D02*
X007362Y012554D01*
X007362Y012652D02*
X005262Y012652D01*
X005262Y012751D02*
X007362Y012751D01*
X007362Y012849D02*
X005262Y012849D01*
X005262Y012948D02*
X007362Y012948D01*
X007362Y013046D02*
X005262Y013046D01*
X005262Y013145D02*
X007362Y013145D01*
X007362Y013243D02*
X005262Y013243D01*
X005262Y013342D02*
X007362Y013342D01*
X007362Y013440D02*
X005262Y013440D01*
X005262Y013539D02*
X007362Y013539D01*
X007362Y013637D02*
X005262Y013637D01*
X005262Y013736D02*
X007362Y013736D01*
X007362Y013834D02*
X005262Y013834D01*
X005262Y013933D02*
X007362Y013933D01*
X007362Y014031D02*
X005262Y014031D01*
X005262Y014130D02*
X007362Y014130D01*
X007362Y014228D02*
X005262Y014228D01*
X005262Y014327D02*
X007362Y014327D01*
X007362Y014425D02*
X005262Y014425D01*
X005262Y014524D02*
X007362Y014524D01*
X007362Y014622D02*
X005262Y014622D01*
X005262Y014721D02*
X007362Y014721D01*
X007362Y014819D02*
X005262Y014819D01*
X005262Y014918D02*
X007362Y014918D01*
X007362Y015016D02*
X005262Y015016D01*
X005262Y015115D02*
X007362Y015115D01*
X007362Y015213D02*
X005262Y015213D01*
X005262Y015312D02*
X007362Y015312D01*
X007362Y015410D02*
X005262Y015410D01*
X005321Y015509D02*
X007362Y015509D01*
X007362Y015607D02*
X005420Y015607D01*
X005518Y015706D02*
X007362Y015706D01*
X007562Y015706D02*
X010485Y015706D01*
X010889Y015706D02*
X015919Y015706D01*
X015919Y015607D02*
X007562Y015607D01*
X007562Y015509D02*
X015982Y015509D01*
X016081Y015410D02*
X014109Y015410D01*
X014084Y015435D02*
X013641Y015435D01*
X013328Y015122D01*
X013328Y014678D01*
X013641Y014365D01*
X014084Y014365D01*
X014397Y014678D01*
X014397Y015122D01*
X014084Y015435D01*
X014207Y015312D02*
X018244Y015312D01*
X018146Y015410D02*
X016494Y015410D01*
X016592Y015509D02*
X018047Y015509D01*
X018343Y015213D02*
X014306Y015213D01*
X014397Y015115D02*
X018441Y015115D01*
X018540Y015016D02*
X014397Y015016D01*
X014397Y014918D02*
X018638Y014918D01*
X018737Y014819D02*
X014397Y014819D01*
X014397Y014721D02*
X018835Y014721D01*
X018837Y014622D02*
X014341Y014622D01*
X014242Y014524D02*
X018837Y014524D01*
X018837Y014425D02*
X014144Y014425D01*
X013581Y014425D02*
X007562Y014425D01*
X007562Y014327D02*
X018837Y014327D01*
X018837Y014228D02*
X007562Y014228D01*
X007562Y014130D02*
X018837Y014130D01*
X018837Y014031D02*
X007562Y014031D01*
X007562Y013933D02*
X018837Y013933D01*
X018837Y013834D02*
X007562Y013834D01*
X007562Y013736D02*
X018837Y013736D01*
X018837Y013637D02*
X007562Y013637D01*
X007562Y013539D02*
X018751Y013539D01*
X018653Y013440D02*
X007562Y013440D01*
X007562Y013342D02*
X018554Y013342D01*
X018456Y013243D02*
X007562Y013243D01*
X007562Y013145D02*
X011843Y013145D01*
X011614Y013046D02*
X007562Y013046D01*
X007562Y012948D02*
X011515Y012948D01*
X011417Y012849D02*
X007562Y012849D01*
X007562Y012751D02*
X011358Y012751D01*
X011318Y012652D02*
X007562Y012652D01*
X007562Y012554D02*
X011277Y012554D01*
X011261Y012455D02*
X007562Y012455D01*
X007562Y012357D02*
X011261Y012357D01*
X011261Y012258D02*
X007562Y012258D01*
X007562Y012160D02*
X011271Y012160D01*
X011312Y012061D02*
X007562Y012061D01*
X007562Y011963D02*
X011353Y011963D01*
X011404Y011864D02*
X007562Y011864D01*
X007562Y011766D02*
X011502Y011766D01*
X011601Y011667D02*
X007562Y011667D01*
X007562Y011569D02*
X011812Y011569D01*
X011812Y011470D02*
X007562Y011470D01*
X007562Y011372D02*
X011812Y011372D01*
X011812Y011273D02*
X007562Y011273D01*
X007562Y011175D02*
X011812Y011175D01*
X011812Y011076D02*
X007562Y011076D01*
X007562Y010978D02*
X011812Y010978D01*
X011812Y010879D02*
X007562Y010879D01*
X007562Y010781D02*
X011812Y010781D01*
X011812Y010682D02*
X007562Y010682D01*
X007562Y010584D02*
X011812Y010584D01*
X011812Y010485D02*
X007562Y010485D01*
X007562Y010387D02*
X011812Y010387D01*
X011812Y010288D02*
X007562Y010288D01*
X007562Y010190D02*
X011812Y010190D01*
X011812Y010091D02*
X007562Y010091D01*
X007562Y009993D02*
X011812Y009993D01*
X011812Y009894D02*
X007562Y009894D01*
X007562Y009796D02*
X011812Y009796D01*
X011759Y009697D02*
X007562Y009697D01*
X007562Y009599D02*
X011661Y009599D01*
X011562Y009500D02*
X007562Y009500D01*
X007562Y009402D02*
X011464Y009402D01*
X011365Y009303D02*
X007562Y009303D01*
X007562Y009205D02*
X011267Y009205D01*
X011168Y009106D02*
X007562Y009106D01*
X007562Y009008D02*
X011070Y009008D01*
X010971Y008909D02*
X007562Y008909D01*
X007562Y008811D02*
X010873Y008811D01*
X010774Y008712D02*
X007562Y008712D01*
X007562Y008614D02*
X010676Y008614D01*
X010577Y008515D02*
X007562Y008515D01*
X007562Y008417D02*
X010479Y008417D01*
X010380Y008318D02*
X007562Y008318D01*
X007562Y008220D02*
X010282Y008220D01*
X013337Y007950D02*
X016597Y007950D01*
X017840Y007850D01*
X020102Y007826D02*
X014962Y007826D01*
X014962Y007924D02*
X020102Y007924D01*
X020102Y007998D02*
X020102Y006698D01*
X020142Y006603D01*
X020215Y006530D01*
X020311Y006490D01*
X020520Y006490D01*
X020357Y006327D01*
X020357Y005768D01*
X020752Y005373D01*
X021311Y005373D01*
X021707Y005768D01*
X021707Y006327D01*
X021544Y006490D01*
X021802Y006490D01*
X021802Y004810D01*
X020043Y004810D01*
X019941Y004912D01*
X015790Y004912D01*
X015688Y004810D01*
X014962Y004810D01*
X014962Y005262D01*
X015023Y005262D01*
X015251Y005489D01*
X015251Y005811D01*
X015232Y005829D01*
X015232Y005925D01*
X015176Y006061D01*
X014962Y006275D01*
X014962Y008601D01*
X015026Y008664D01*
X015026Y008986D01*
X014962Y009049D01*
X014962Y012650D01*
X017277Y012650D01*
X017218Y012626D01*
X016985Y012393D01*
X016859Y012088D01*
X016859Y011759D01*
X016985Y011455D01*
X017218Y011222D01*
X017523Y011096D01*
X017852Y011096D01*
X018157Y011222D01*
X018390Y011455D01*
X018516Y011759D01*
X018516Y012088D01*
X018390Y012393D01*
X018157Y012626D01*
X018098Y012650D01*
X024644Y012650D01*
X024644Y012372D01*
X024860Y012156D01*
X025165Y012156D01*
X025381Y012372D01*
X025381Y012650D01*
X026062Y012650D01*
X026062Y008310D01*
X020311Y008310D01*
X020215Y008270D01*
X020142Y008197D01*
X020102Y008102D01*
X020102Y007998D01*
X020102Y008023D02*
X014962Y008023D01*
X014962Y008121D02*
X020110Y008121D01*
X020164Y008220D02*
X014962Y008220D01*
X014962Y008318D02*
X026062Y008318D01*
X026062Y008417D02*
X014962Y008417D01*
X014962Y008515D02*
X026062Y008515D01*
X026062Y008614D02*
X014975Y008614D01*
X015026Y008712D02*
X026062Y008712D01*
X026062Y008811D02*
X015026Y008811D01*
X015026Y008909D02*
X026062Y008909D01*
X026062Y009008D02*
X015004Y009008D01*
X014962Y009106D02*
X026062Y009106D01*
X026062Y009205D02*
X014962Y009205D01*
X014962Y009303D02*
X026062Y009303D01*
X026062Y009402D02*
X014962Y009402D01*
X014962Y009500D02*
X026062Y009500D01*
X026062Y009599D02*
X021403Y009599D01*
X021311Y009507D02*
X020752Y009507D01*
X020357Y009902D01*
X020357Y010461D01*
X020752Y010856D01*
X021311Y010856D01*
X021707Y010461D01*
X021707Y009902D01*
X021311Y009507D01*
X021502Y009697D02*
X026062Y009697D01*
X026062Y009796D02*
X021600Y009796D01*
X021699Y009894D02*
X026062Y009894D01*
X026062Y009993D02*
X021707Y009993D01*
X021707Y010091D02*
X026062Y010091D01*
X026062Y010190D02*
X021707Y010190D01*
X021707Y010288D02*
X026062Y010288D01*
X026062Y010387D02*
X021707Y010387D01*
X021683Y010485D02*
X026062Y010485D01*
X026062Y010584D02*
X021584Y010584D01*
X021486Y010682D02*
X026062Y010682D01*
X026062Y010781D02*
X021387Y010781D01*
X020676Y010781D02*
X014962Y010781D01*
X014962Y010879D02*
X026062Y010879D01*
X026062Y010978D02*
X014962Y010978D01*
X014962Y011076D02*
X026062Y011076D01*
X026062Y011175D02*
X018043Y011175D01*
X018208Y011273D02*
X026062Y011273D01*
X026062Y011372D02*
X018306Y011372D01*
X018396Y011470D02*
X026062Y011470D01*
X026062Y011569D02*
X018437Y011569D01*
X018478Y011667D02*
X026062Y011667D01*
X026062Y011766D02*
X018516Y011766D01*
X018516Y011864D02*
X026062Y011864D01*
X026062Y011963D02*
X018516Y011963D01*
X018516Y012061D02*
X026062Y012061D01*
X026062Y012160D02*
X025168Y012160D01*
X025267Y012258D02*
X026062Y012258D01*
X026062Y012357D02*
X025365Y012357D01*
X025381Y012455D02*
X026062Y012455D01*
X026062Y012554D02*
X025381Y012554D01*
X024856Y012160D02*
X018486Y012160D01*
X018445Y012258D02*
X024758Y012258D01*
X024659Y012357D02*
X018404Y012357D01*
X018327Y012455D02*
X024644Y012455D01*
X024644Y012554D02*
X018229Y012554D01*
X017146Y012554D02*
X014962Y012554D01*
X014962Y012455D02*
X017048Y012455D01*
X016970Y012357D02*
X014962Y012357D01*
X014962Y012258D02*
X016930Y012258D01*
X016889Y012160D02*
X014962Y012160D01*
X014962Y012061D02*
X016859Y012061D01*
X016859Y011963D02*
X014962Y011963D01*
X014962Y011864D02*
X016859Y011864D01*
X016859Y011766D02*
X014962Y011766D01*
X014962Y011667D02*
X016897Y011667D01*
X016938Y011569D02*
X014962Y011569D01*
X014962Y011470D02*
X016979Y011470D01*
X017068Y011372D02*
X014962Y011372D01*
X014962Y011273D02*
X017167Y011273D01*
X017332Y011175D02*
X014962Y011175D01*
X014962Y010682D02*
X020578Y010682D01*
X020479Y010584D02*
X014962Y010584D01*
X014962Y010485D02*
X020381Y010485D01*
X020357Y010387D02*
X014962Y010387D01*
X014962Y010288D02*
X020357Y010288D01*
X020357Y010190D02*
X014962Y010190D01*
X014962Y010091D02*
X020357Y010091D01*
X020357Y009993D02*
X014962Y009993D01*
X014962Y009894D02*
X020365Y009894D01*
X020463Y009796D02*
X014962Y009796D01*
X014962Y009697D02*
X020562Y009697D01*
X020660Y009599D02*
X014962Y009599D01*
X014962Y007727D02*
X020102Y007727D01*
X020102Y007629D02*
X014962Y007629D01*
X014962Y007530D02*
X020102Y007530D01*
X020102Y007432D02*
X014962Y007432D01*
X014962Y007333D02*
X020102Y007333D01*
X020102Y007235D02*
X014962Y007235D01*
X014962Y007136D02*
X020102Y007136D01*
X020102Y007038D02*
X014962Y007038D01*
X014962Y006939D02*
X020102Y006939D01*
X020102Y006841D02*
X014962Y006841D01*
X014962Y006742D02*
X020102Y006742D01*
X020125Y006644D02*
X014962Y006644D01*
X014962Y006545D02*
X020200Y006545D01*
X020362Y006750D02*
X020362Y008050D01*
X026062Y008050D01*
X026062Y000907D01*
X014962Y000907D01*
X014962Y004550D01*
X022062Y004550D01*
X022062Y006750D01*
X020362Y006750D01*
X020362Y006841D02*
X026062Y006841D01*
X026062Y006939D02*
X020362Y006939D01*
X020362Y007038D02*
X026062Y007038D01*
X026062Y007136D02*
X020362Y007136D01*
X020362Y007235D02*
X026062Y007235D01*
X026062Y007333D02*
X020362Y007333D01*
X020362Y007432D02*
X026062Y007432D01*
X026062Y007530D02*
X020362Y007530D01*
X020362Y007629D02*
X026062Y007629D01*
X026062Y007727D02*
X020362Y007727D01*
X020362Y007826D02*
X026062Y007826D01*
X026062Y007924D02*
X020362Y007924D01*
X020362Y008023D02*
X026062Y008023D01*
X027432Y008023D02*
X029862Y008023D01*
X029862Y008025D02*
X027432Y008025D01*
X027432Y003350D01*
X029862Y003350D01*
X029862Y008025D01*
X029862Y007924D02*
X027432Y007924D01*
X027432Y007826D02*
X029862Y007826D01*
X029862Y007727D02*
X027432Y007727D01*
X027432Y007629D02*
X029862Y007629D01*
X029862Y007530D02*
X027432Y007530D01*
X027432Y007432D02*
X029862Y007432D01*
X029862Y007333D02*
X027432Y007333D01*
X027432Y007235D02*
X029862Y007235D01*
X029862Y007136D02*
X027432Y007136D01*
X027432Y007038D02*
X029862Y007038D01*
X029862Y006939D02*
X027432Y006939D01*
X027432Y006841D02*
X029862Y006841D01*
X029862Y006742D02*
X027432Y006742D01*
X027432Y006644D02*
X029862Y006644D01*
X029862Y006545D02*
X027432Y006545D01*
X027432Y006447D02*
X029862Y006447D01*
X029862Y006348D02*
X027432Y006348D01*
X027432Y006250D02*
X029862Y006250D01*
X029862Y006151D02*
X027432Y006151D01*
X027432Y006053D02*
X029862Y006053D01*
X029862Y005954D02*
X027432Y005954D01*
X027432Y005856D02*
X029862Y005856D01*
X029862Y005757D02*
X027432Y005757D01*
X027432Y005659D02*
X029862Y005659D01*
X029862Y005560D02*
X027432Y005560D01*
X027432Y005462D02*
X029862Y005462D01*
X029862Y005363D02*
X027432Y005363D01*
X027432Y005265D02*
X029862Y005265D01*
X029862Y005166D02*
X027432Y005166D01*
X027432Y005068D02*
X029862Y005068D01*
X029862Y004969D02*
X027432Y004969D01*
X027432Y004871D02*
X029862Y004871D01*
X029862Y004772D02*
X027432Y004772D01*
X027432Y004674D02*
X029862Y004674D01*
X029862Y004575D02*
X027432Y004575D01*
X027432Y004477D02*
X029862Y004477D01*
X029862Y004378D02*
X027432Y004378D01*
X027432Y004280D02*
X029862Y004280D01*
X029862Y004181D02*
X027432Y004181D01*
X027432Y004083D02*
X029862Y004083D01*
X029862Y003984D02*
X027432Y003984D01*
X027432Y003886D02*
X029862Y003886D01*
X029862Y003787D02*
X027432Y003787D01*
X027432Y003689D02*
X029862Y003689D01*
X029862Y003590D02*
X027432Y003590D01*
X027432Y003492D02*
X029862Y003492D01*
X029862Y003393D02*
X027432Y003393D01*
X026062Y003393D02*
X014962Y003393D01*
X014962Y003295D02*
X026062Y003295D01*
X026062Y003196D02*
X014962Y003196D01*
X014962Y003098D02*
X026062Y003098D01*
X026062Y002999D02*
X014962Y002999D01*
X014962Y002901D02*
X026062Y002901D01*
X026062Y002802D02*
X014962Y002802D01*
X014962Y002704D02*
X026062Y002704D01*
X026062Y002605D02*
X014962Y002605D01*
X014962Y002507D02*
X026062Y002507D01*
X026062Y002408D02*
X014962Y002408D01*
X014962Y002310D02*
X026062Y002310D01*
X026062Y002211D02*
X014962Y002211D01*
X014962Y002113D02*
X026062Y002113D01*
X026062Y002014D02*
X014962Y002014D01*
X014962Y001916D02*
X026062Y001916D01*
X026062Y001817D02*
X014962Y001817D01*
X014962Y001719D02*
X026062Y001719D01*
X026062Y001620D02*
X014962Y001620D01*
X014962Y001522D02*
X026062Y001522D01*
X026062Y001423D02*
X014962Y001423D01*
X014962Y001325D02*
X026062Y001325D01*
X026062Y001226D02*
X014962Y001226D01*
X014962Y001128D02*
X026062Y001128D01*
X026062Y001029D02*
X014962Y001029D01*
X014962Y000931D02*
X026062Y000931D01*
X026062Y003492D02*
X014962Y003492D01*
X014962Y003590D02*
X026062Y003590D01*
X026062Y003689D02*
X014962Y003689D01*
X014962Y003787D02*
X026062Y003787D01*
X026062Y003886D02*
X014962Y003886D01*
X014962Y003984D02*
X026062Y003984D01*
X026062Y004083D02*
X014962Y004083D01*
X014962Y004181D02*
X026062Y004181D01*
X026062Y004280D02*
X014962Y004280D01*
X014962Y004378D02*
X026062Y004378D01*
X026062Y004477D02*
X014962Y004477D01*
X014962Y004871D02*
X015749Y004871D01*
X015223Y005462D02*
X020663Y005462D01*
X020565Y005560D02*
X015251Y005560D01*
X015251Y005659D02*
X020466Y005659D01*
X020368Y005757D02*
X015251Y005757D01*
X015232Y005856D02*
X020357Y005856D01*
X020357Y005954D02*
X015221Y005954D01*
X015180Y006053D02*
X020357Y006053D01*
X020357Y006151D02*
X015086Y006151D01*
X014988Y006250D02*
X020357Y006250D01*
X020378Y006348D02*
X014962Y006348D01*
X014962Y006447D02*
X020476Y006447D01*
X021587Y006447D02*
X021802Y006447D01*
X021802Y006348D02*
X021686Y006348D01*
X021707Y006250D02*
X021802Y006250D01*
X021802Y006151D02*
X021707Y006151D01*
X021707Y006053D02*
X021802Y006053D01*
X021802Y005954D02*
X021707Y005954D01*
X021707Y005856D02*
X021802Y005856D01*
X021802Y005757D02*
X021696Y005757D01*
X021597Y005659D02*
X021802Y005659D01*
X021802Y005560D02*
X021499Y005560D01*
X021400Y005462D02*
X021802Y005462D01*
X021802Y005363D02*
X015125Y005363D01*
X015026Y005265D02*
X021802Y005265D01*
X021802Y005166D02*
X014962Y005166D01*
X014962Y005068D02*
X021802Y005068D01*
X021802Y004969D02*
X014962Y004969D01*
X013387Y005975D02*
X013387Y006800D01*
X013337Y006850D01*
X012712Y003700D02*
X013462Y002950D01*
X017865Y002950D01*
X019982Y004871D02*
X021802Y004871D01*
X022062Y004871D02*
X026062Y004871D01*
X026062Y004969D02*
X022062Y004969D01*
X022062Y005068D02*
X026062Y005068D01*
X026062Y005166D02*
X022062Y005166D01*
X022062Y005265D02*
X026062Y005265D01*
X026062Y005363D02*
X022062Y005363D01*
X022062Y005462D02*
X026062Y005462D01*
X026062Y005560D02*
X022062Y005560D01*
X022062Y005659D02*
X026062Y005659D01*
X026062Y005757D02*
X022062Y005757D01*
X022062Y005856D02*
X026062Y005856D01*
X026062Y005954D02*
X022062Y005954D01*
X022062Y006053D02*
X026062Y006053D01*
X026062Y006151D02*
X022062Y006151D01*
X022062Y006250D02*
X026062Y006250D01*
X026062Y006348D02*
X022062Y006348D01*
X022062Y006447D02*
X026062Y006447D01*
X026062Y006545D02*
X022062Y006545D01*
X022062Y006644D02*
X026062Y006644D01*
X026062Y006742D02*
X022062Y006742D01*
X022062Y004772D02*
X026062Y004772D01*
X026062Y004674D02*
X022062Y004674D01*
X022062Y004575D02*
X026062Y004575D01*
X027432Y008925D02*
X027432Y013925D01*
X029862Y013925D01*
X029862Y008925D01*
X027432Y008925D01*
X027432Y009008D02*
X029862Y009008D01*
X029862Y009106D02*
X027432Y009106D01*
X027432Y009205D02*
X029862Y009205D01*
X029862Y009303D02*
X027432Y009303D01*
X027432Y009402D02*
X029862Y009402D01*
X029862Y009500D02*
X027432Y009500D01*
X027432Y009599D02*
X029862Y009599D01*
X029862Y009697D02*
X027432Y009697D01*
X027432Y009796D02*
X029862Y009796D01*
X029862Y009894D02*
X027432Y009894D01*
X027432Y009993D02*
X029862Y009993D01*
X029862Y010091D02*
X027432Y010091D01*
X027432Y010190D02*
X029862Y010190D01*
X029862Y010288D02*
X027432Y010288D01*
X027432Y010387D02*
X029862Y010387D01*
X029862Y010485D02*
X027432Y010485D01*
X027432Y010584D02*
X029862Y010584D01*
X029862Y010682D02*
X027432Y010682D01*
X027432Y010781D02*
X029862Y010781D01*
X029862Y010879D02*
X027432Y010879D01*
X027432Y010978D02*
X029862Y010978D01*
X029862Y011076D02*
X027432Y011076D01*
X027432Y011175D02*
X029862Y011175D01*
X029862Y011273D02*
X027432Y011273D01*
X027432Y011372D02*
X029862Y011372D01*
X029862Y011470D02*
X027432Y011470D01*
X027432Y011569D02*
X029862Y011569D01*
X029862Y011667D02*
X027432Y011667D01*
X027432Y011766D02*
X029862Y011766D01*
X029862Y011864D02*
X027432Y011864D01*
X027432Y011963D02*
X029862Y011963D01*
X029862Y012061D02*
X027432Y012061D01*
X027432Y012160D02*
X029862Y012160D01*
X029862Y012258D02*
X027432Y012258D01*
X027432Y012357D02*
X029862Y012357D01*
X029862Y012455D02*
X027432Y012455D01*
X027432Y012554D02*
X029862Y012554D01*
X029862Y012652D02*
X027432Y012652D01*
X027432Y012751D02*
X029862Y012751D01*
X029862Y012849D02*
X027432Y012849D01*
X027432Y012948D02*
X029862Y012948D01*
X029862Y013046D02*
X027432Y013046D01*
X027432Y013145D02*
X029862Y013145D01*
X029862Y013243D02*
X027432Y013243D01*
X027432Y013342D02*
X029862Y013342D01*
X029862Y013440D02*
X027432Y013440D01*
X027432Y013539D02*
X029862Y013539D01*
X029862Y013637D02*
X027432Y013637D01*
X027432Y013736D02*
X029862Y013736D01*
X029862Y013834D02*
X027432Y013834D01*
X016812Y019625D02*
X012112Y019625D01*
X012112Y020377D01*
X012282Y020377D01*
X012486Y020581D01*
X012486Y020869D01*
X012282Y021073D01*
X012112Y021073D01*
X012112Y022550D01*
X012795Y022550D01*
X012795Y022423D01*
X012895Y022324D01*
X013980Y022324D01*
X014080Y022423D01*
X014080Y022550D01*
X014372Y022550D01*
X014372Y021950D01*
X014447Y021875D01*
X014372Y021800D01*
X014372Y021148D01*
X014448Y021072D01*
X014438Y021062D01*
X014421Y021032D01*
X014412Y020999D01*
X014412Y020776D01*
X014787Y020776D01*
X014787Y020676D01*
X014412Y020676D01*
X014412Y020453D01*
X014421Y020420D01*
X014438Y020390D01*
X014462Y020366D01*
X014492Y020349D01*
X014525Y020340D01*
X014787Y020340D01*
X014787Y020676D01*
X014887Y020676D01*
X014887Y020340D01*
X015150Y020340D01*
X015183Y020349D01*
X015213Y020366D01*
X015237Y020390D01*
X015254Y020420D01*
X015263Y020453D01*
X015263Y020676D01*
X014887Y020676D01*
X014887Y020776D01*
X015263Y020776D01*
X015263Y020999D01*
X015254Y021032D01*
X015237Y021062D01*
X015227Y021072D01*
X015303Y021148D01*
X015303Y021800D01*
X015228Y021875D01*
X015303Y021950D01*
X015303Y022550D01*
X016517Y022550D01*
X016517Y021940D01*
X016617Y021840D01*
X016812Y021840D01*
X016812Y020775D01*
X016812Y020725D01*
X016557Y020725D01*
X016557Y020093D01*
X016566Y020060D01*
X016583Y020030D01*
X016608Y020006D01*
X016637Y019989D01*
X016670Y019980D01*
X016812Y019980D01*
X016812Y020725D01*
X016812Y020725D01*
X016812Y019625D01*
X016812Y019646D02*
X012112Y019646D01*
X012112Y019744D02*
X016812Y019744D01*
X016812Y019843D02*
X012112Y019843D01*
X012112Y019941D02*
X016812Y019941D01*
X016812Y020040D02*
X016812Y020040D01*
X016812Y020138D02*
X016812Y020138D01*
X016812Y020237D02*
X016812Y020237D01*
X016812Y020335D02*
X016812Y020335D01*
X016812Y020434D02*
X016812Y020434D01*
X016812Y020532D02*
X016812Y020532D01*
X016812Y020631D02*
X016812Y020631D01*
X016812Y020729D02*
X014887Y020729D01*
X014887Y020631D02*
X014787Y020631D01*
X014787Y020729D02*
X014036Y020729D01*
X014040Y020744D02*
X014040Y021184D01*
X013487Y021184D01*
X013487Y020631D01*
X013927Y020631D01*
X013960Y020640D01*
X013990Y020657D01*
X014014Y020682D01*
X014031Y020711D01*
X014040Y020744D01*
X014040Y020828D02*
X014412Y020828D01*
X014412Y020926D02*
X014040Y020926D01*
X014040Y021025D02*
X014419Y021025D01*
X014397Y021123D02*
X014040Y021123D01*
X014040Y021284D02*
X014040Y021723D01*
X014031Y021756D01*
X014014Y021786D01*
X013990Y021810D01*
X013960Y021827D01*
X013927Y021836D01*
X013487Y021836D01*
X013487Y021284D01*
X013387Y021284D01*
X013387Y021184D01*
X012835Y021184D01*
X012835Y020744D01*
X012844Y020711D01*
X012861Y020682D01*
X012885Y020657D01*
X012915Y020640D01*
X012948Y020631D01*
X013387Y020631D01*
X013387Y021184D01*
X013487Y021184D01*
X013487Y021284D01*
X014040Y021284D01*
X014040Y021320D02*
X014372Y021320D01*
X014372Y021222D02*
X013487Y021222D01*
X013487Y021320D02*
X013387Y021320D01*
X013387Y021284D02*
X013387Y021836D01*
X012948Y021836D01*
X012915Y021827D01*
X012885Y021810D01*
X012861Y021786D01*
X012844Y021756D01*
X012835Y021723D01*
X012835Y021284D01*
X013387Y021284D01*
X013387Y021222D02*
X012112Y021222D01*
X012112Y021320D02*
X012835Y021320D01*
X012835Y021419D02*
X012112Y021419D01*
X012112Y021517D02*
X012835Y021517D01*
X012835Y021616D02*
X012112Y021616D01*
X012112Y021714D02*
X012835Y021714D01*
X012889Y021813D02*
X012112Y021813D01*
X012112Y021911D02*
X014411Y021911D01*
X014384Y021813D02*
X013986Y021813D01*
X014040Y021714D02*
X014372Y021714D01*
X014372Y021616D02*
X014040Y021616D01*
X014040Y021517D02*
X014372Y021517D01*
X014372Y021419D02*
X014040Y021419D01*
X013487Y021419D02*
X013387Y021419D01*
X013387Y021517D02*
X013487Y021517D01*
X013487Y021616D02*
X013387Y021616D01*
X013387Y021714D02*
X013487Y021714D01*
X013487Y021813D02*
X013387Y021813D01*
X012815Y022404D02*
X012112Y022404D01*
X012112Y022502D02*
X012795Y022502D01*
X012112Y022305D02*
X014372Y022305D01*
X014372Y022207D02*
X012112Y022207D01*
X012112Y022108D02*
X014372Y022108D01*
X014372Y022010D02*
X012112Y022010D01*
X012112Y021123D02*
X012835Y021123D01*
X012835Y021025D02*
X012331Y021025D01*
X012429Y020926D02*
X012835Y020926D01*
X012835Y020828D02*
X012486Y020828D01*
X012486Y020729D02*
X012839Y020729D01*
X012486Y020631D02*
X014412Y020631D01*
X014412Y020532D02*
X012437Y020532D01*
X012339Y020434D02*
X014417Y020434D01*
X014787Y020434D02*
X014887Y020434D01*
X014887Y020532D02*
X014787Y020532D01*
X015263Y020532D02*
X016557Y020532D01*
X016557Y020434D02*
X015258Y020434D01*
X015263Y020631D02*
X016557Y020631D01*
X016557Y020775D02*
X016812Y020775D01*
X016812Y021520D01*
X016670Y021520D01*
X016637Y021511D01*
X016608Y021494D01*
X016583Y021470D01*
X016566Y021440D01*
X016557Y021407D01*
X016557Y020775D01*
X016557Y020828D02*
X015263Y020828D01*
X015263Y020926D02*
X016557Y020926D01*
X016557Y021025D02*
X015256Y021025D01*
X015278Y021123D02*
X016557Y021123D01*
X016557Y021222D02*
X015303Y021222D01*
X015303Y021320D02*
X016557Y021320D01*
X016561Y021419D02*
X015303Y021419D01*
X015303Y021517D02*
X016659Y021517D01*
X016812Y021517D02*
X016812Y021517D01*
X016812Y021419D02*
X016812Y021419D01*
X016812Y021320D02*
X016812Y021320D01*
X016812Y021222D02*
X016812Y021222D01*
X016812Y021123D02*
X016812Y021123D01*
X016812Y021025D02*
X016812Y021025D01*
X016812Y020926D02*
X016812Y020926D01*
X016812Y020828D02*
X016812Y020828D01*
X016812Y020775D02*
X016812Y020775D01*
X016557Y020335D02*
X012112Y020335D01*
X012112Y020237D02*
X016557Y020237D01*
X016557Y020138D02*
X012112Y020138D01*
X012112Y020040D02*
X016578Y020040D01*
X016812Y021616D02*
X015303Y021616D01*
X015303Y021714D02*
X016812Y021714D01*
X016812Y021813D02*
X015291Y021813D01*
X015264Y021911D02*
X016546Y021911D01*
X016517Y022010D02*
X015303Y022010D01*
X015303Y022108D02*
X016517Y022108D01*
X016517Y022207D02*
X015303Y022207D01*
X015303Y022305D02*
X016517Y022305D01*
X016517Y022404D02*
X015303Y022404D01*
X015303Y022502D02*
X016517Y022502D01*
X014372Y022502D02*
X014080Y022502D01*
X014060Y022404D02*
X014372Y022404D01*
X013487Y021123D02*
X013387Y021123D01*
X013387Y021025D02*
X013487Y021025D01*
X013487Y020926D02*
X013387Y020926D01*
X013387Y020828D02*
X013487Y020828D01*
X013487Y020729D02*
X013387Y020729D01*
X013337Y025625D02*
X010062Y025625D01*
X010062Y029550D01*
X010467Y029550D01*
X010467Y029031D01*
X010523Y028975D01*
X010467Y028919D01*
X010467Y028283D01*
X010555Y028195D01*
X010642Y028195D01*
X010642Y028030D01*
X010555Y028030D01*
X010467Y027942D01*
X010467Y027306D01*
X010537Y027236D01*
X010513Y027212D01*
X010496Y027182D01*
X010487Y027149D01*
X010487Y026926D01*
X010862Y026926D01*
X010862Y026826D01*
X010487Y026826D01*
X010487Y026603D01*
X010496Y026570D01*
X010513Y026540D01*
X010537Y026516D01*
X010567Y026499D01*
X010600Y026490D01*
X010862Y026490D01*
X010862Y026826D01*
X010962Y026826D01*
X010962Y026490D01*
X011225Y026490D01*
X011258Y026499D01*
X011288Y026516D01*
X011312Y026540D01*
X011329Y026570D01*
X011338Y026603D01*
X011338Y026826D01*
X010962Y026826D01*
X010962Y026926D01*
X011338Y026926D01*
X011338Y027149D01*
X011329Y027182D01*
X011312Y027212D01*
X011288Y027236D01*
X011358Y027306D01*
X011358Y027942D01*
X011270Y028030D01*
X011182Y028030D01*
X011182Y028195D01*
X011270Y028195D01*
X011358Y028283D01*
X011358Y028919D01*
X011302Y028975D01*
X011358Y029031D01*
X011358Y029079D01*
X011593Y029079D01*
X011640Y029032D01*
X011640Y028257D01*
X011728Y028169D01*
X012797Y028169D01*
X012885Y028257D01*
X012885Y028450D01*
X013337Y028450D01*
X013337Y025625D01*
X013337Y025654D02*
X010062Y025654D01*
X010062Y025753D02*
X013337Y025753D01*
X013337Y025851D02*
X010062Y025851D01*
X010062Y025950D02*
X013337Y025950D01*
X013337Y026048D02*
X010062Y026048D01*
X010062Y026147D02*
X013337Y026147D01*
X013337Y026245D02*
X010062Y026245D01*
X010062Y026344D02*
X013337Y026344D01*
X013337Y026442D02*
X010062Y026442D01*
X010062Y026541D02*
X010513Y026541D01*
X010487Y026639D02*
X010062Y026639D01*
X010062Y026738D02*
X010487Y026738D01*
X010487Y026935D02*
X010062Y026935D01*
X010062Y027033D02*
X010487Y027033D01*
X010487Y027132D02*
X010062Y027132D01*
X010062Y027230D02*
X010532Y027230D01*
X010467Y027329D02*
X010062Y027329D01*
X010062Y027427D02*
X010467Y027427D01*
X010467Y027526D02*
X010062Y027526D01*
X010062Y027624D02*
X010467Y027624D01*
X010467Y027723D02*
X010062Y027723D01*
X010062Y027821D02*
X010467Y027821D01*
X010467Y027920D02*
X010062Y027920D01*
X010062Y028018D02*
X010543Y028018D01*
X010642Y028117D02*
X010062Y028117D01*
X010062Y028215D02*
X010535Y028215D01*
X010467Y028314D02*
X010062Y028314D01*
X010062Y028412D02*
X010467Y028412D01*
X010467Y028511D02*
X010062Y028511D01*
X010062Y028609D02*
X010467Y028609D01*
X010467Y028708D02*
X010062Y028708D01*
X010062Y028806D02*
X010467Y028806D01*
X010467Y028905D02*
X010062Y028905D01*
X010062Y029003D02*
X010495Y029003D01*
X010467Y029102D02*
X010062Y029102D01*
X010062Y029200D02*
X010467Y029200D01*
X010467Y029299D02*
X010062Y029299D01*
X010062Y029397D02*
X010467Y029397D01*
X010467Y029496D02*
X010062Y029496D01*
X011330Y029003D02*
X011640Y029003D01*
X011640Y028905D02*
X011358Y028905D01*
X011358Y028806D02*
X011640Y028806D01*
X011640Y028708D02*
X011358Y028708D01*
X011358Y028609D02*
X011640Y028609D01*
X011640Y028511D02*
X011358Y028511D01*
X011358Y028412D02*
X011640Y028412D01*
X011640Y028314D02*
X011358Y028314D01*
X011290Y028215D02*
X011682Y028215D01*
X011358Y027920D02*
X013337Y027920D01*
X013337Y028018D02*
X011282Y028018D01*
X011182Y028117D02*
X013337Y028117D01*
X013337Y028215D02*
X012843Y028215D01*
X012885Y028314D02*
X013337Y028314D01*
X013337Y028412D02*
X012885Y028412D01*
X013337Y027821D02*
X011358Y027821D01*
X011358Y027723D02*
X013337Y027723D01*
X013337Y027624D02*
X012826Y027624D01*
X012815Y027635D02*
X012785Y027652D01*
X012752Y027661D01*
X012312Y027661D01*
X012312Y027109D01*
X012212Y027109D01*
X012212Y027009D01*
X011660Y027009D01*
X011660Y026569D01*
X011669Y026536D01*
X011686Y026507D01*
X011710Y026482D01*
X011740Y026465D01*
X011773Y026456D01*
X012212Y026456D01*
X012212Y027009D01*
X012312Y027009D01*
X012312Y026456D01*
X012752Y026456D01*
X012785Y026465D01*
X012815Y026482D01*
X012839Y026507D01*
X012856Y026536D01*
X012865Y026569D01*
X012865Y027009D01*
X012312Y027009D01*
X012312Y027109D01*
X012865Y027109D01*
X012865Y027548D01*
X012856Y027581D01*
X012839Y027611D01*
X012815Y027635D01*
X012865Y027526D02*
X013337Y027526D01*
X013337Y027427D02*
X012865Y027427D01*
X012865Y027329D02*
X013337Y027329D01*
X013337Y027230D02*
X012865Y027230D01*
X012865Y027132D02*
X013337Y027132D01*
X013337Y027033D02*
X012312Y027033D01*
X012312Y026935D02*
X012212Y026935D01*
X012212Y027033D02*
X011338Y027033D01*
X011338Y026935D02*
X011660Y026935D01*
X011660Y026836D02*
X010962Y026836D01*
X010962Y026738D02*
X010862Y026738D01*
X010862Y026836D02*
X010062Y026836D01*
X010862Y026639D02*
X010962Y026639D01*
X010962Y026541D02*
X010862Y026541D01*
X011312Y026541D02*
X011668Y026541D01*
X011660Y026639D02*
X011338Y026639D01*
X011338Y026738D02*
X011660Y026738D01*
X011660Y027109D02*
X011660Y027548D01*
X011669Y027581D01*
X011686Y027611D01*
X011710Y027635D01*
X011740Y027652D01*
X011773Y027661D01*
X012212Y027661D01*
X012212Y027109D01*
X011660Y027109D01*
X011660Y027132D02*
X011338Y027132D01*
X011293Y027230D02*
X011660Y027230D01*
X011660Y027329D02*
X011358Y027329D01*
X011358Y027427D02*
X011660Y027427D01*
X011660Y027526D02*
X011358Y027526D01*
X011358Y027624D02*
X011699Y027624D01*
X012212Y027624D02*
X012312Y027624D01*
X012312Y027526D02*
X012212Y027526D01*
X012212Y027427D02*
X012312Y027427D01*
X012312Y027329D02*
X012212Y027329D01*
X012212Y027230D02*
X012312Y027230D01*
X012312Y027132D02*
X012212Y027132D01*
X012212Y026836D02*
X012312Y026836D01*
X012312Y026738D02*
X012212Y026738D01*
X012212Y026639D02*
X012312Y026639D01*
X012312Y026541D02*
X012212Y026541D01*
X012857Y026541D02*
X013337Y026541D01*
X013337Y026639D02*
X012865Y026639D01*
X012865Y026738D02*
X013337Y026738D01*
X013337Y026836D02*
X012865Y026836D01*
X012865Y026935D02*
X013337Y026935D01*
X013268Y031244D02*
X012910Y031244D01*
X012910Y031468D01*
X012822Y031556D01*
X011753Y031556D01*
X011665Y031468D01*
X011665Y031125D01*
X011358Y031125D01*
X011358Y031692D01*
X011275Y031775D01*
X011358Y031858D01*
X011358Y032494D01*
X011288Y032564D01*
X011312Y032588D01*
X011329Y032618D01*
X011338Y032651D01*
X011338Y032874D01*
X010962Y032874D01*
X010962Y032974D01*
X010862Y032974D01*
X010862Y032874D01*
X010487Y032874D01*
X010487Y032651D01*
X010496Y032618D01*
X010513Y032588D01*
X010537Y032564D01*
X010467Y032494D01*
X010467Y031858D01*
X010550Y031775D01*
X010467Y031692D01*
X010467Y031125D01*
X008587Y031125D01*
X008587Y031795D01*
X009162Y031795D01*
X009162Y032050D01*
X008587Y032050D01*
X008587Y032100D01*
X009162Y032100D01*
X009162Y032050D01*
X009212Y032050D01*
X009212Y031795D01*
X009845Y031795D01*
X009878Y031804D01*
X009907Y031821D01*
X009931Y031845D01*
X009949Y031875D01*
X009957Y031908D01*
X009957Y032050D01*
X009212Y032050D01*
X009212Y032100D01*
X009162Y032100D01*
X009162Y032355D01*
X008587Y032355D01*
X008587Y033432D01*
X014062Y033432D01*
X014062Y032038D01*
X013268Y031244D01*
X013293Y031269D02*
X012910Y031269D01*
X012910Y031367D02*
X013391Y031367D01*
X013490Y031466D02*
X012910Y031466D01*
X013588Y031564D02*
X011358Y031564D01*
X011358Y031466D02*
X011665Y031466D01*
X011665Y031367D02*
X011358Y031367D01*
X011358Y031269D02*
X011665Y031269D01*
X011665Y031170D02*
X011358Y031170D01*
X011358Y031663D02*
X013687Y031663D01*
X013785Y031761D02*
X011289Y031761D01*
X011358Y031860D02*
X013884Y031860D01*
X013982Y031958D02*
X011358Y031958D01*
X011358Y032057D02*
X014062Y032057D01*
X014062Y032155D02*
X012884Y032155D01*
X012881Y032144D02*
X012890Y032177D01*
X012890Y032616D01*
X012337Y032616D01*
X012337Y032064D01*
X012777Y032064D01*
X012810Y032073D01*
X012840Y032090D01*
X012864Y032114D01*
X012881Y032144D01*
X012890Y032254D02*
X014062Y032254D01*
X014062Y032352D02*
X012890Y032352D01*
X012890Y032451D02*
X014062Y032451D01*
X014062Y032549D02*
X012890Y032549D01*
X012890Y032716D02*
X012890Y033156D01*
X012881Y033189D01*
X012864Y033218D01*
X012840Y033243D01*
X012810Y033260D01*
X012777Y033269D01*
X012337Y033269D01*
X012337Y032716D01*
X012237Y032716D01*
X012237Y032616D01*
X011685Y032616D01*
X011685Y032177D01*
X011694Y032144D01*
X011711Y032114D01*
X011735Y032090D01*
X011765Y032073D01*
X011798Y032064D01*
X012237Y032064D01*
X012237Y032616D01*
X012337Y032616D01*
X012337Y032716D01*
X012890Y032716D01*
X012890Y032746D02*
X014062Y032746D01*
X014062Y032648D02*
X012337Y032648D01*
X012337Y032746D02*
X012237Y032746D01*
X012237Y032716D02*
X012237Y033269D01*
X011798Y033269D01*
X011765Y033260D01*
X011735Y033243D01*
X011711Y033218D01*
X011694Y033189D01*
X011685Y033156D01*
X011685Y032716D01*
X012237Y032716D01*
X012237Y032648D02*
X011337Y032648D01*
X011338Y032746D02*
X011685Y032746D01*
X011685Y032845D02*
X011338Y032845D01*
X011338Y032974D02*
X011338Y033197D01*
X011329Y033230D01*
X011312Y033260D01*
X011288Y033284D01*
X011258Y033301D01*
X011225Y033310D01*
X010962Y033310D01*
X010962Y032974D01*
X011338Y032974D01*
X011338Y033042D02*
X011685Y033042D01*
X011685Y033140D02*
X011338Y033140D01*
X011324Y033239D02*
X011731Y033239D01*
X011685Y032943D02*
X010962Y032943D01*
X010962Y033042D02*
X010862Y033042D01*
X010862Y032974D02*
X010862Y033310D01*
X010600Y033310D01*
X010567Y033301D01*
X010537Y033284D01*
X010513Y033260D01*
X010496Y033230D01*
X010487Y033197D01*
X010487Y032974D01*
X010862Y032974D01*
X010862Y032943D02*
X008587Y032943D01*
X008587Y032845D02*
X010487Y032845D01*
X010487Y032746D02*
X008587Y032746D01*
X008587Y032648D02*
X010488Y032648D01*
X010522Y032549D02*
X008587Y032549D01*
X008587Y032451D02*
X010467Y032451D01*
X010467Y032352D02*
X009855Y032352D01*
X009845Y032355D02*
X009212Y032355D01*
X009212Y032100D01*
X009957Y032100D01*
X009957Y032242D01*
X009949Y032275D01*
X009931Y032305D01*
X009907Y032329D01*
X009878Y032346D01*
X009845Y032355D01*
X009954Y032254D02*
X010467Y032254D01*
X010467Y032155D02*
X009957Y032155D01*
X009957Y031958D02*
X010467Y031958D01*
X010467Y031860D02*
X009940Y031860D01*
X010467Y032057D02*
X009212Y032057D01*
X009162Y032057D02*
X008587Y032057D01*
X008587Y031761D02*
X010536Y031761D01*
X010467Y031663D02*
X008587Y031663D01*
X008587Y031564D02*
X010467Y031564D01*
X010467Y031466D02*
X008587Y031466D01*
X008587Y031367D02*
X010467Y031367D01*
X010467Y031269D02*
X008587Y031269D01*
X008587Y031170D02*
X010467Y031170D01*
X009212Y031860D02*
X009162Y031860D01*
X009162Y031958D02*
X009212Y031958D01*
X009212Y032155D02*
X009162Y032155D01*
X009162Y032254D02*
X009212Y032254D01*
X009212Y032352D02*
X009162Y032352D01*
X008587Y033042D02*
X010487Y033042D01*
X010487Y033140D02*
X008587Y033140D01*
X008587Y033239D02*
X010501Y033239D01*
X010862Y033239D02*
X010962Y033239D01*
X010962Y033140D02*
X010862Y033140D01*
X011303Y032549D02*
X011685Y032549D01*
X011685Y032451D02*
X011358Y032451D01*
X011358Y032352D02*
X011685Y032352D01*
X011685Y032254D02*
X011358Y032254D01*
X011358Y032155D02*
X011691Y032155D01*
X012237Y032155D02*
X012337Y032155D01*
X012337Y032254D02*
X012237Y032254D01*
X012237Y032352D02*
X012337Y032352D01*
X012337Y032451D02*
X012237Y032451D01*
X012237Y032549D02*
X012337Y032549D01*
X012337Y032845D02*
X012237Y032845D01*
X012237Y032943D02*
X012337Y032943D01*
X012337Y033042D02*
X012237Y033042D01*
X012237Y033140D02*
X012337Y033140D01*
X012337Y033239D02*
X012237Y033239D01*
X012844Y033239D02*
X014062Y033239D01*
X014062Y033337D02*
X008587Y033337D01*
X012890Y033140D02*
X014062Y033140D01*
X014062Y033042D02*
X012890Y033042D01*
X012890Y032943D02*
X014062Y032943D01*
X014062Y032845D02*
X012890Y032845D01*
X040532Y027875D02*
X040532Y027080D01*
X040537Y027075D01*
X041987Y027075D02*
X041992Y027080D01*
X041992Y027875D01*
X045462Y026025D02*
X045587Y026150D01*
X050737Y026150D01*
X052662Y024225D01*
X052662Y011075D01*
X049287Y007700D01*
X048837Y007700D01*
X050437Y007725D02*
X050437Y008575D01*
X051662Y009800D01*
X051837Y009800D01*
X051887Y007375D02*
X051887Y006475D01*
X051887Y007375D02*
X045262Y007375D01*
X045512Y013225D02*
X044037Y013225D01*
X042362Y014925D02*
X040137Y014925D01*
X039937Y014725D01*
X040037Y014825D01*
X039287Y015125D02*
X042137Y015125D01*
X042412Y015400D01*
X042412Y014975D02*
X042362Y014925D01*
X013616Y015410D02*
X007562Y015410D01*
X007562Y015312D02*
X013518Y015312D01*
X013419Y015213D02*
X007562Y015213D01*
X007562Y015115D02*
X013328Y015115D01*
X013328Y015016D02*
X007562Y015016D01*
X007562Y014918D02*
X013328Y014918D01*
X013328Y014819D02*
X007562Y014819D01*
X007562Y014721D02*
X013328Y014721D01*
X013384Y014622D02*
X007562Y014622D01*
X007562Y014524D02*
X013483Y014524D01*
X004762Y014524D02*
X002801Y014524D01*
X002801Y014622D02*
X004762Y014622D01*
X004762Y014721D02*
X002801Y014721D01*
X002801Y014819D02*
X004762Y014819D01*
X004762Y014918D02*
X002801Y014918D01*
X002801Y015016D02*
X004762Y015016D01*
X004762Y015115D02*
X002801Y015115D01*
X002801Y015213D02*
X004762Y015213D01*
X004762Y015312D02*
X002801Y015312D01*
X002801Y015410D02*
X004762Y015410D01*
X004762Y015509D02*
X002801Y015509D01*
X002801Y015607D02*
X004705Y015607D01*
X004762Y015550D02*
X004762Y004950D01*
X004562Y004750D01*
X002801Y004750D01*
X002801Y015750D01*
X004562Y015750D01*
X004762Y015550D01*
X004607Y015706D02*
X002801Y015706D01*
X002801Y014425D02*
X004762Y014425D01*
X004762Y014327D02*
X002801Y014327D01*
X002801Y014228D02*
X004762Y014228D01*
X004762Y014130D02*
X002801Y014130D01*
X002801Y014031D02*
X004762Y014031D01*
X004762Y013933D02*
X002801Y013933D01*
X002801Y013834D02*
X004762Y013834D01*
X004762Y013736D02*
X002801Y013736D01*
X002801Y013637D02*
X004762Y013637D01*
X004762Y013539D02*
X002801Y013539D01*
X002801Y013440D02*
X004762Y013440D01*
X004762Y013342D02*
X002801Y013342D01*
X002801Y013243D02*
X004762Y013243D01*
X004762Y013145D02*
X002801Y013145D01*
X002801Y013046D02*
X004762Y013046D01*
X004762Y012948D02*
X002801Y012948D01*
X002801Y012849D02*
X004762Y012849D01*
X004762Y012751D02*
X002801Y012751D01*
X002801Y012652D02*
X004762Y012652D01*
X004762Y012554D02*
X002801Y012554D01*
X002801Y012455D02*
X004762Y012455D01*
X004762Y012357D02*
X002801Y012357D01*
X002801Y012258D02*
X004762Y012258D01*
X004762Y012160D02*
X002801Y012160D01*
X002801Y012061D02*
X004762Y012061D01*
X004762Y011963D02*
X002801Y011963D01*
X002801Y011864D02*
X004762Y011864D01*
X004762Y011766D02*
X002801Y011766D01*
X002801Y011667D02*
X004762Y011667D01*
X004762Y011569D02*
X002801Y011569D01*
X002801Y011470D02*
X004762Y011470D01*
X004762Y011372D02*
X002801Y011372D01*
X002801Y011273D02*
X004762Y011273D01*
X004762Y011175D02*
X002801Y011175D01*
X002801Y011076D02*
X004762Y011076D01*
X004762Y010978D02*
X002801Y010978D01*
X002801Y010879D02*
X004762Y010879D01*
X004762Y010781D02*
X002801Y010781D01*
X002801Y010682D02*
X004762Y010682D01*
X004762Y010584D02*
X002801Y010584D01*
X002801Y010485D02*
X004762Y010485D01*
X004762Y010387D02*
X002801Y010387D01*
X002801Y010288D02*
X004762Y010288D01*
X004762Y010190D02*
X002801Y010190D01*
X002801Y010091D02*
X004762Y010091D01*
X004762Y009993D02*
X002801Y009993D01*
X002801Y009894D02*
X004762Y009894D01*
X004762Y009796D02*
X002801Y009796D01*
X002801Y009697D02*
X004762Y009697D01*
X004762Y009599D02*
X002801Y009599D01*
X002801Y009500D02*
X004762Y009500D01*
X004762Y009402D02*
X002801Y009402D01*
X002801Y009303D02*
X004762Y009303D01*
X004762Y009205D02*
X002801Y009205D01*
X002801Y009106D02*
X004762Y009106D01*
X004762Y009008D02*
X002801Y009008D01*
X002801Y008909D02*
X004762Y008909D01*
X004762Y008811D02*
X002801Y008811D01*
X002801Y008712D02*
X004762Y008712D01*
X004762Y008614D02*
X002801Y008614D01*
X002801Y008515D02*
X004762Y008515D01*
X004762Y008417D02*
X002801Y008417D01*
X002801Y008318D02*
X004762Y008318D01*
X004762Y008220D02*
X002801Y008220D01*
X002801Y008121D02*
X004762Y008121D01*
X004762Y008023D02*
X002801Y008023D01*
X002801Y007924D02*
X004762Y007924D01*
X004762Y007826D02*
X002801Y007826D01*
X002801Y007727D02*
X004762Y007727D01*
X004762Y007629D02*
X002801Y007629D01*
X002801Y007530D02*
X004762Y007530D01*
X004762Y007432D02*
X002801Y007432D01*
X002801Y007333D02*
X004762Y007333D01*
X004762Y007235D02*
X002801Y007235D01*
X002801Y007136D02*
X004762Y007136D01*
X004762Y007038D02*
X002801Y007038D01*
X002801Y006939D02*
X004762Y006939D01*
X004762Y006841D02*
X002801Y006841D01*
X002801Y006742D02*
X004762Y006742D01*
X004762Y006644D02*
X002801Y006644D01*
X002801Y006545D02*
X004762Y006545D01*
X004762Y006447D02*
X002801Y006447D01*
X002801Y006348D02*
X004762Y006348D01*
X004762Y006250D02*
X002801Y006250D01*
X002801Y006151D02*
X004762Y006151D01*
X004762Y006053D02*
X002801Y006053D01*
X002801Y005954D02*
X004762Y005954D01*
X004762Y005856D02*
X002801Y005856D01*
X002801Y005757D02*
X004762Y005757D01*
X004762Y005659D02*
X002801Y005659D01*
X002801Y005560D02*
X004762Y005560D01*
X004762Y005462D02*
X002801Y005462D01*
X002801Y005363D02*
X004762Y005363D01*
X004762Y005265D02*
X002801Y005265D01*
X002801Y005166D02*
X004762Y005166D01*
X004762Y005068D02*
X002801Y005068D01*
X002801Y004969D02*
X004762Y004969D01*
X004683Y004871D02*
X002801Y004871D01*
X002801Y004772D02*
X004584Y004772D01*
D68*
X007887Y004775D02*
X009961Y006850D01*
X013337Y006850D01*
X013864Y006850D01*
X010761Y001925D02*
X007911Y004800D01*
X008187Y004800D01*
X008188Y004800D02*
X008168Y004780D01*
X008146Y004763D01*
X008123Y004749D01*
X008097Y004738D01*
X008070Y004730D01*
X008043Y004726D01*
X008015Y004725D01*
X007987Y004728D01*
X007960Y004735D01*
X007934Y004745D01*
X007910Y004759D01*
X007887Y004775D01*
X010761Y001925D02*
X013887Y001925D01*
X037339Y004768D02*
X039006Y004768D01*
X040337Y006100D01*
X045587Y006100D01*
X046737Y004950D01*
X046737Y004350D01*
X045787Y003400D01*
X045787Y001548D01*
X047937Y010900D02*
X049487Y010900D01*
X051512Y012925D01*
X051512Y020350D01*
X049537Y022325D01*
X042737Y022325D01*
X040787Y020375D01*
X039787Y020375D01*
X039662Y020250D01*
X039662Y022300D01*
X039297Y022666D01*
X037189Y022666D01*
X039662Y020250D02*
X039662Y018550D01*
X039266Y018154D01*
X037339Y018154D01*
X040498Y011461D02*
X045787Y016750D01*
X045787Y020302D01*
X054891Y027825D02*
X055637Y027825D01*
X060435Y023028D01*
X061780Y023028D01*
X040498Y011461D02*
X037339Y011461D01*
D69*
X028537Y010225D03*
X028237Y010225D03*
X027937Y010225D03*
X027637Y010225D03*
X027637Y009275D03*
X027937Y009275D03*
X028237Y009275D03*
X028537Y009275D03*
X028537Y004925D03*
X028237Y004925D03*
X027937Y004925D03*
X027637Y004925D03*
X027637Y003925D03*
X027937Y003925D03*
X028237Y003925D03*
X028537Y003925D03*
X006037Y005275D03*
X005737Y005275D03*
X005737Y005575D03*
X005737Y005875D03*
X005737Y006175D03*
X005737Y006475D03*
X006037Y006475D03*
X006037Y006175D03*
X006037Y005875D03*
X006037Y005575D03*
X010987Y018975D03*
X007887Y024000D03*
X007587Y024000D03*
X007087Y031900D03*
X007087Y032375D03*
X026762Y032400D03*
X026762Y032050D03*
X026762Y031700D03*
X026762Y031350D03*
X026762Y032750D03*
X028762Y032750D03*
X028762Y032400D03*
X028762Y032050D03*
X028762Y031700D03*
X028762Y031350D03*
D70*
X007287Y032075D02*
X007087Y032000D01*
X007087Y031900D01*
D71*
X039912Y008404D02*
X040433Y008925D01*
X049387Y008925D01*
X049862Y009400D01*
X049862Y009550D01*
X050287Y009550D02*
X050287Y009475D01*
X049487Y008675D01*
X042337Y008675D01*
X041587Y007925D01*
X039912Y008375D02*
X039912Y008404D01*
X039887Y008400D02*
X039912Y008375D01*
D72*
X017112Y004225D03*
X017112Y003875D03*
X015462Y008850D03*
X015462Y009200D03*
D73*
X003906Y002012D03*
X003906Y032327D03*
X061780Y032327D03*
X061780Y002209D03*
M02*
