G75*
G70*
%OFA0B0*%
%FSLAX24Y24*%
%IPPOS*%
%LPD*%
%AMOC8*
5,1,8,0,0,1.08239X$1,22.5*
%
%ADD10C,0.0039*%
%ADD11C,0.0040*%
%ADD12C,0.0000*%
D10*
X002922Y001487D02*
X062764Y001487D01*
X062810Y001489D01*
X062856Y001494D01*
X062902Y001503D01*
X062947Y001516D01*
X062990Y001532D01*
X063032Y001551D01*
X063073Y001574D01*
X063111Y001600D01*
X063148Y001629D01*
X063182Y001660D01*
X063213Y001694D01*
X063242Y001731D01*
X063268Y001769D01*
X063291Y001810D01*
X063310Y001852D01*
X063326Y001895D01*
X063339Y001940D01*
X063348Y001986D01*
X063353Y002032D01*
X063355Y002078D01*
X063355Y034361D01*
X063353Y034407D01*
X063348Y034453D01*
X063339Y034499D01*
X063326Y034544D01*
X063310Y034587D01*
X063291Y034629D01*
X063268Y034670D01*
X063242Y034708D01*
X063213Y034745D01*
X063182Y034779D01*
X063148Y034810D01*
X063111Y034839D01*
X063073Y034865D01*
X063032Y034888D01*
X062990Y034907D01*
X062947Y034923D01*
X062902Y034936D01*
X062856Y034945D01*
X062810Y034950D01*
X062764Y034952D01*
X002922Y034952D01*
X002876Y034950D01*
X002830Y034945D01*
X002784Y034936D01*
X002739Y034923D01*
X002696Y034907D01*
X002654Y034888D01*
X002613Y034865D01*
X002575Y034839D01*
X002538Y034810D01*
X002504Y034779D01*
X002473Y034745D01*
X002444Y034708D01*
X002418Y034670D01*
X002395Y034629D01*
X002376Y034587D01*
X002360Y034544D01*
X002347Y034499D01*
X002338Y034453D01*
X002333Y034407D01*
X002331Y034361D01*
X002331Y002078D01*
X002333Y002032D01*
X002338Y001986D01*
X002347Y001940D01*
X002360Y001895D01*
X002376Y001852D01*
X002395Y001810D01*
X002418Y001769D01*
X002444Y001731D01*
X002473Y001694D01*
X002504Y001660D01*
X002538Y001629D01*
X002575Y001600D01*
X002613Y001574D01*
X002654Y001551D01*
X002696Y001532D01*
X002739Y001516D01*
X002784Y001503D01*
X002830Y001494D01*
X002876Y001489D01*
X002922Y001487D01*
X056125Y003451D02*
X056125Y003845D01*
X057700Y003845D01*
X057700Y003451D01*
X056125Y003451D01*
X056125Y005105D02*
X056125Y005499D01*
X057700Y005499D01*
X057700Y005105D01*
X056125Y005105D01*
X055481Y032780D02*
X055088Y032780D01*
X055088Y034355D01*
X055481Y034355D01*
X055481Y032780D01*
X057088Y032780D02*
X057481Y032780D01*
X057481Y034355D01*
X057088Y034355D01*
X057088Y032780D01*
X053481Y032780D02*
X053088Y032780D01*
X053088Y034355D01*
X053481Y034355D01*
X053481Y032780D01*
D11*
X026962Y020900D02*
X026562Y020900D01*
X026562Y003675D01*
X026962Y003675D01*
X026962Y020900D01*
X020987Y022150D02*
X020587Y022150D01*
X020587Y030150D01*
X021262Y030825D01*
X024987Y030825D01*
X025637Y030175D01*
X025637Y027825D01*
X025237Y027825D01*
X025237Y030025D01*
X024837Y030425D01*
X021412Y030425D01*
X020987Y030000D01*
X020987Y022150D01*
D12*
X054136Y003648D02*
X054138Y003696D01*
X054144Y003744D01*
X054154Y003791D01*
X054167Y003837D01*
X054185Y003882D01*
X054205Y003926D01*
X054230Y003968D01*
X054258Y004007D01*
X054288Y004044D01*
X054322Y004078D01*
X054359Y004110D01*
X054397Y004139D01*
X054438Y004164D01*
X054481Y004186D01*
X054526Y004204D01*
X054572Y004218D01*
X054619Y004229D01*
X054667Y004236D01*
X054715Y004239D01*
X054763Y004238D01*
X054811Y004233D01*
X054859Y004224D01*
X054905Y004212D01*
X054950Y004195D01*
X054994Y004175D01*
X055036Y004152D01*
X055076Y004125D01*
X055114Y004095D01*
X055149Y004062D01*
X055181Y004026D01*
X055211Y003988D01*
X055237Y003947D01*
X055259Y003904D01*
X055279Y003860D01*
X055294Y003815D01*
X055306Y003768D01*
X055314Y003720D01*
X055318Y003672D01*
X055318Y003624D01*
X055314Y003576D01*
X055306Y003528D01*
X055294Y003481D01*
X055279Y003436D01*
X055259Y003392D01*
X055237Y003349D01*
X055211Y003308D01*
X055181Y003270D01*
X055149Y003234D01*
X055114Y003201D01*
X055076Y003171D01*
X055036Y003144D01*
X054994Y003121D01*
X054950Y003101D01*
X054905Y003084D01*
X054859Y003072D01*
X054811Y003063D01*
X054763Y003058D01*
X054715Y003057D01*
X054667Y003060D01*
X054619Y003067D01*
X054572Y003078D01*
X054526Y003092D01*
X054481Y003110D01*
X054438Y003132D01*
X054397Y003157D01*
X054359Y003186D01*
X054322Y003218D01*
X054288Y003252D01*
X054258Y003289D01*
X054230Y003328D01*
X054205Y003370D01*
X054185Y003414D01*
X054167Y003459D01*
X054154Y003505D01*
X054144Y003552D01*
X054138Y003600D01*
X054136Y003648D01*
X057837Y006129D02*
X057839Y006177D01*
X057845Y006225D01*
X057855Y006272D01*
X057868Y006318D01*
X057886Y006363D01*
X057906Y006407D01*
X057931Y006449D01*
X057959Y006488D01*
X057989Y006525D01*
X058023Y006559D01*
X058060Y006591D01*
X058098Y006620D01*
X058139Y006645D01*
X058182Y006667D01*
X058227Y006685D01*
X058273Y006699D01*
X058320Y006710D01*
X058368Y006717D01*
X058416Y006720D01*
X058464Y006719D01*
X058512Y006714D01*
X058560Y006705D01*
X058606Y006693D01*
X058651Y006676D01*
X058695Y006656D01*
X058737Y006633D01*
X058777Y006606D01*
X058815Y006576D01*
X058850Y006543D01*
X058882Y006507D01*
X058912Y006469D01*
X058938Y006428D01*
X058960Y006385D01*
X058980Y006341D01*
X058995Y006296D01*
X059007Y006249D01*
X059015Y006201D01*
X059019Y006153D01*
X059019Y006105D01*
X059015Y006057D01*
X059007Y006009D01*
X058995Y005962D01*
X058980Y005917D01*
X058960Y005873D01*
X058938Y005830D01*
X058912Y005789D01*
X058882Y005751D01*
X058850Y005715D01*
X058815Y005682D01*
X058777Y005652D01*
X058737Y005625D01*
X058695Y005602D01*
X058651Y005582D01*
X058606Y005565D01*
X058560Y005553D01*
X058512Y005544D01*
X058464Y005539D01*
X058416Y005538D01*
X058368Y005541D01*
X058320Y005548D01*
X058273Y005559D01*
X058227Y005573D01*
X058182Y005591D01*
X058139Y005613D01*
X058098Y005638D01*
X058060Y005667D01*
X058023Y005699D01*
X057989Y005733D01*
X057959Y005770D01*
X057931Y005809D01*
X057906Y005851D01*
X057886Y005895D01*
X057868Y005940D01*
X057855Y005986D01*
X057845Y006033D01*
X057839Y006081D01*
X057837Y006129D01*
M02*
