G75*
G70*
%OFA0B0*%
%FSLAX24Y24*%
%IPPOS*%
%LPD*%
%AMOC8*
5,1,8,0,0,1.08239X$1,22.5*
%
%ADD10C,0.0039*%
%ADD11C,0.0040*%
%ADD12C,0.0000*%
D10*
X002331Y001028D02*
X002331Y033311D01*
X002333Y033357D01*
X002338Y033403D01*
X002347Y033449D01*
X002360Y033494D01*
X002376Y033537D01*
X002395Y033579D01*
X002418Y033620D01*
X002444Y033658D01*
X002473Y033695D01*
X002504Y033729D01*
X002538Y033760D01*
X002575Y033789D01*
X002613Y033815D01*
X002654Y033838D01*
X002696Y033857D01*
X002739Y033873D01*
X002784Y033886D01*
X002830Y033895D01*
X002876Y033900D01*
X002922Y033902D01*
X062764Y033902D01*
X062810Y033900D01*
X062856Y033895D01*
X062902Y033886D01*
X062947Y033873D01*
X062990Y033857D01*
X063032Y033838D01*
X063073Y033815D01*
X063111Y033789D01*
X063148Y033760D01*
X063182Y033729D01*
X063213Y033695D01*
X063242Y033658D01*
X063268Y033620D01*
X063291Y033579D01*
X063310Y033537D01*
X063326Y033494D01*
X063339Y033449D01*
X063348Y033403D01*
X063353Y033357D01*
X063355Y033311D01*
X063355Y001028D01*
X063353Y000982D01*
X063348Y000936D01*
X063339Y000890D01*
X063326Y000845D01*
X063310Y000802D01*
X063291Y000760D01*
X063268Y000719D01*
X063242Y000681D01*
X063213Y000644D01*
X063182Y000610D01*
X063148Y000579D01*
X063111Y000550D01*
X063073Y000524D01*
X063032Y000501D01*
X062990Y000482D01*
X062947Y000466D01*
X062902Y000453D01*
X062856Y000444D01*
X062810Y000439D01*
X062764Y000437D01*
X002922Y000437D01*
X002876Y000439D01*
X002830Y000444D01*
X002784Y000453D01*
X002739Y000466D01*
X002696Y000482D01*
X002654Y000501D01*
X002613Y000524D01*
X002575Y000550D01*
X002538Y000579D01*
X002504Y000610D01*
X002473Y000644D01*
X002444Y000681D01*
X002418Y000719D01*
X002395Y000760D01*
X002376Y000802D01*
X002360Y000845D01*
X002347Y000890D01*
X002338Y000936D01*
X002333Y000982D01*
X002331Y001028D01*
X056675Y002526D02*
X056675Y002920D01*
X058250Y002920D01*
X058250Y002526D01*
X056675Y002526D01*
X056675Y004180D02*
X056675Y004574D01*
X058250Y004574D01*
X058250Y004180D01*
X056675Y004180D01*
X060992Y023831D02*
X060992Y024225D01*
X062567Y024225D01*
X062567Y023831D01*
X060992Y023831D01*
X060992Y025831D02*
X060992Y026225D01*
X062567Y026225D01*
X062567Y025831D01*
X060992Y025831D01*
X060992Y027831D02*
X060992Y028225D01*
X062567Y028225D01*
X062567Y027831D01*
X060992Y027831D01*
D11*
X026962Y019850D02*
X026562Y019850D01*
X026562Y002625D01*
X026962Y002625D01*
X026962Y019850D01*
X020987Y021100D02*
X020587Y021100D01*
X020587Y029100D01*
X021262Y029775D01*
X024987Y029775D01*
X025637Y029125D01*
X025637Y026775D01*
X025237Y026775D01*
X025237Y028975D01*
X024837Y029375D01*
X021412Y029375D01*
X020987Y028950D01*
X020987Y021100D01*
D12*
X054686Y002723D02*
X054688Y002771D01*
X054694Y002819D01*
X054704Y002866D01*
X054717Y002912D01*
X054735Y002957D01*
X054755Y003001D01*
X054780Y003043D01*
X054808Y003082D01*
X054838Y003119D01*
X054872Y003153D01*
X054909Y003185D01*
X054947Y003214D01*
X054988Y003239D01*
X055031Y003261D01*
X055076Y003279D01*
X055122Y003293D01*
X055169Y003304D01*
X055217Y003311D01*
X055265Y003314D01*
X055313Y003313D01*
X055361Y003308D01*
X055409Y003299D01*
X055455Y003287D01*
X055500Y003270D01*
X055544Y003250D01*
X055586Y003227D01*
X055626Y003200D01*
X055664Y003170D01*
X055699Y003137D01*
X055731Y003101D01*
X055761Y003063D01*
X055787Y003022D01*
X055809Y002979D01*
X055829Y002935D01*
X055844Y002890D01*
X055856Y002843D01*
X055864Y002795D01*
X055868Y002747D01*
X055868Y002699D01*
X055864Y002651D01*
X055856Y002603D01*
X055844Y002556D01*
X055829Y002511D01*
X055809Y002467D01*
X055787Y002424D01*
X055761Y002383D01*
X055731Y002345D01*
X055699Y002309D01*
X055664Y002276D01*
X055626Y002246D01*
X055586Y002219D01*
X055544Y002196D01*
X055500Y002176D01*
X055455Y002159D01*
X055409Y002147D01*
X055361Y002138D01*
X055313Y002133D01*
X055265Y002132D01*
X055217Y002135D01*
X055169Y002142D01*
X055122Y002153D01*
X055076Y002167D01*
X055031Y002185D01*
X054988Y002207D01*
X054947Y002232D01*
X054909Y002261D01*
X054872Y002293D01*
X054838Y002327D01*
X054808Y002364D01*
X054780Y002403D01*
X054755Y002445D01*
X054735Y002489D01*
X054717Y002534D01*
X054704Y002580D01*
X054694Y002627D01*
X054688Y002675D01*
X054686Y002723D01*
X058387Y005204D02*
X058389Y005252D01*
X058395Y005300D01*
X058405Y005347D01*
X058418Y005393D01*
X058436Y005438D01*
X058456Y005482D01*
X058481Y005524D01*
X058509Y005563D01*
X058539Y005600D01*
X058573Y005634D01*
X058610Y005666D01*
X058648Y005695D01*
X058689Y005720D01*
X058732Y005742D01*
X058777Y005760D01*
X058823Y005774D01*
X058870Y005785D01*
X058918Y005792D01*
X058966Y005795D01*
X059014Y005794D01*
X059062Y005789D01*
X059110Y005780D01*
X059156Y005768D01*
X059201Y005751D01*
X059245Y005731D01*
X059287Y005708D01*
X059327Y005681D01*
X059365Y005651D01*
X059400Y005618D01*
X059432Y005582D01*
X059462Y005544D01*
X059488Y005503D01*
X059510Y005460D01*
X059530Y005416D01*
X059545Y005371D01*
X059557Y005324D01*
X059565Y005276D01*
X059569Y005228D01*
X059569Y005180D01*
X059565Y005132D01*
X059557Y005084D01*
X059545Y005037D01*
X059530Y004992D01*
X059510Y004948D01*
X059488Y004905D01*
X059462Y004864D01*
X059432Y004826D01*
X059400Y004790D01*
X059365Y004757D01*
X059327Y004727D01*
X059287Y004700D01*
X059245Y004677D01*
X059201Y004657D01*
X059156Y004640D01*
X059110Y004628D01*
X059062Y004619D01*
X059014Y004614D01*
X058966Y004613D01*
X058918Y004616D01*
X058870Y004623D01*
X058823Y004634D01*
X058777Y004648D01*
X058732Y004666D01*
X058689Y004688D01*
X058648Y004713D01*
X058610Y004742D01*
X058573Y004774D01*
X058539Y004808D01*
X058509Y004845D01*
X058481Y004884D01*
X058456Y004926D01*
X058436Y004970D01*
X058418Y005015D01*
X058405Y005061D01*
X058395Y005108D01*
X058389Y005156D01*
X058387Y005204D01*
M02*
