G75*
%MOIN*%
%OFA0B0*%
%FSLAX25Y25*%
%IPPOS*%
%LPD*%
%AMOC8*
5,1,8,0,0,1.08239X$1,22.5*
%
%ADD10C,0.10600*%
%ADD11OC8,0.06600*%
%ADD12R,0.07698X0.06899*%
%ADD13OC8,0.08868*%
%ADD14C,0.12411*%
%ADD15OC8,0.06000*%
%ADD16R,0.22835X0.14961*%
%ADD17R,0.08868X0.08868*%
%ADD18C,0.00500*%
%ADD19R,0.04537X0.04931*%
%ADD20R,0.06506X0.05718*%
%ADD21R,0.07687X0.13198*%
%ADD22R,0.07687X0.06899*%
%ADD23C,0.12962*%
%ADD24OC8,0.12962*%
%ADD25R,0.05324X0.06506*%
%ADD26OC8,0.07096*%
%ADD27R,0.06506X0.05324*%
%ADD28R,0.05718X0.06506*%
%ADD29R,0.04931X0.04537*%
%ADD30OC8,0.10600*%
%ADD31R,0.06700X0.03000*%
%ADD32C,0.07687*%
%ADD33OC8,0.07687*%
%ADD34R,0.06112X0.06112*%
%ADD35R,0.06702X0.02962*%
%ADD36R,0.02962X0.06702*%
%ADD37R,0.06899X0.07687*%
%ADD38R,0.06899X0.07698*%
%ADD39R,0.02962X0.09261*%
%ADD40C,0.06600*%
%ADD41R,0.06899X0.11230*%
%ADD42C,0.04931*%
%ADD43C,0.05400*%
%ADD44R,0.06112X0.04537*%
%ADD45R,0.06200X0.02000*%
%ADD46R,0.22254X0.23041*%
%ADD47R,0.05718X0.07293*%
%ADD48C,0.09899*%
%ADD49R,0.13198X0.07687*%
%ADD50R,0.23041X0.22254*%
%ADD51R,0.07293X0.05718*%
%ADD52R,0.08080X0.13986*%
%ADD53OC8,0.09899*%
%ADD54C,0.05600*%
%ADD55R,0.07687X0.09261*%
%ADD56C,0.00100*%
%ADD57R,0.22254X0.22254*%
%ADD58R,0.10049X0.10049*%
%ADD59C,0.22254*%
%ADD60R,0.04562X0.04562*%
D10*
X0051763Y0122506D03*
X0100975Y0122506D03*
X0100975Y0161876D03*
X0051763Y0161876D03*
X0352227Y0109343D03*
X0576727Y0074843D03*
D11*
X0146735Y0087694D03*
X0146735Y0028694D03*
X0070769Y0203491D03*
X0070769Y0262491D03*
D12*
X0089735Y0157742D03*
X0089735Y0146545D03*
X0089735Y0138242D03*
X0089735Y0127045D03*
D13*
X0065771Y0081183D03*
X0065771Y0064648D03*
X0065771Y0048112D03*
X0039963Y0208020D03*
X0039963Y0227520D03*
X0039963Y0248020D03*
X0601097Y0146843D03*
X0622357Y0146843D03*
D14*
X0080928Y0081183D03*
X0043920Y0056380D03*
D15*
X0088278Y0059085D03*
X0092926Y0040350D03*
X0078278Y0019085D03*
X0102926Y0080350D03*
X0089227Y0199593D03*
X0089477Y0239593D03*
X0099227Y0239593D03*
X0099477Y0279593D03*
X0428727Y0128093D03*
X0468727Y0118093D03*
D16*
X0071469Y0122541D03*
X0071469Y0162041D03*
D17*
X0039963Y0268020D03*
D18*
X0064292Y0027609D02*
X0063450Y0027384D01*
X0062660Y0027015D01*
X0061946Y0026515D01*
X0061330Y0025899D01*
X0060830Y0025185D01*
X0060462Y0024395D01*
X0060236Y0023553D01*
X0060160Y0022685D01*
X0060236Y0021817D01*
X0060462Y0020975D01*
X0060830Y0020185D01*
X0061330Y0019471D01*
X0061946Y0018855D01*
X0062660Y0018355D01*
X0063450Y0017987D01*
X0064292Y0017761D01*
X0065160Y0017685D01*
X0066028Y0017761D01*
X0066870Y0017987D01*
X0067660Y0018355D01*
X0068374Y0018855D01*
X0068990Y0019471D01*
X0069490Y0020185D01*
X0069859Y0020975D01*
X0070084Y0021817D01*
X0070160Y0022685D01*
X0070084Y0023553D01*
X0069859Y0024395D01*
X0069490Y0025185D01*
X0068990Y0025899D01*
X0068374Y0026515D01*
X0067660Y0027015D01*
X0066870Y0027384D01*
X0066028Y0027609D01*
X0065160Y0027685D01*
X0064292Y0027609D01*
X0063270Y0027299D02*
X0067051Y0027299D01*
X0067966Y0026801D02*
X0062354Y0026801D01*
X0061733Y0026302D02*
X0068587Y0026302D01*
X0069057Y0025804D02*
X0061263Y0025804D01*
X0060914Y0025305D02*
X0069406Y0025305D01*
X0069667Y0024807D02*
X0060654Y0024807D01*
X0060438Y0024308D02*
X0069882Y0024308D01*
X0070015Y0023810D02*
X0060305Y0023810D01*
X0060215Y0023311D02*
X0070105Y0023311D01*
X0070149Y0022813D02*
X0060171Y0022813D01*
X0060193Y0022314D02*
X0070128Y0022314D01*
X0070084Y0021816D02*
X0060236Y0021816D01*
X0060370Y0021317D02*
X0069950Y0021317D01*
X0069786Y0020819D02*
X0060534Y0020819D01*
X0060767Y0020320D02*
X0069553Y0020320D01*
X0069236Y0019822D02*
X0061084Y0019822D01*
X0061478Y0019323D02*
X0068842Y0019323D01*
X0068331Y0018825D02*
X0061989Y0018825D01*
X0062722Y0018326D02*
X0067598Y0018326D01*
X0066277Y0017828D02*
X0064043Y0017828D01*
X0625791Y0331209D02*
X0625422Y0331999D01*
X0625197Y0332840D01*
X0625121Y0333709D01*
X0625197Y0334577D01*
X0625422Y0335419D01*
X0625791Y0336209D01*
X0626291Y0336923D01*
X0626907Y0337539D01*
X0627621Y0338039D01*
X0628411Y0338407D01*
X0629252Y0338633D01*
X0630121Y0338709D01*
X0630989Y0338633D01*
X0631831Y0338407D01*
X0632621Y0338039D01*
X0633335Y0337539D01*
X0633951Y0336923D01*
X0634451Y0336209D01*
X0634819Y0335419D01*
X0635045Y0334577D01*
X0635121Y0333709D01*
X0635045Y0332840D01*
X0634819Y0331999D01*
X0634451Y0331209D01*
X0633951Y0330495D01*
X0633335Y0329878D01*
X0632621Y0329379D01*
X0631831Y0329010D01*
X0630989Y0328785D01*
X0630121Y0328709D01*
X0629252Y0328785D01*
X0628411Y0329010D01*
X0627621Y0329379D01*
X0626907Y0329878D01*
X0626291Y0330495D01*
X0625791Y0331209D01*
X0625705Y0331391D02*
X0634536Y0331391D01*
X0634768Y0331890D02*
X0625473Y0331890D01*
X0625318Y0332388D02*
X0634924Y0332388D01*
X0635049Y0332887D02*
X0625193Y0332887D01*
X0625149Y0333385D02*
X0635092Y0333385D01*
X0635105Y0333884D02*
X0625136Y0333884D01*
X0625180Y0334382D02*
X0635062Y0334382D01*
X0634963Y0334881D02*
X0625278Y0334881D01*
X0625412Y0335379D02*
X0634830Y0335379D01*
X0634605Y0335878D02*
X0625636Y0335878D01*
X0625908Y0336376D02*
X0634333Y0336376D01*
X0633984Y0336875D02*
X0626257Y0336875D01*
X0626741Y0337373D02*
X0633500Y0337373D01*
X0632859Y0337872D02*
X0627382Y0337872D01*
X0628332Y0338370D02*
X0631910Y0338370D01*
X0634230Y0330893D02*
X0626012Y0330893D01*
X0626391Y0330394D02*
X0633850Y0330394D01*
X0633352Y0329896D02*
X0626890Y0329896D01*
X0627594Y0329397D02*
X0632647Y0329397D01*
X0631415Y0328899D02*
X0628827Y0328899D01*
D19*
X0591227Y0211439D03*
X0591227Y0204746D03*
X0424477Y0345496D03*
X0424477Y0352189D03*
X0217477Y0199439D03*
X0217477Y0192746D03*
D20*
X0159727Y0160833D03*
X0159727Y0153352D03*
X0153477Y0241102D03*
X0153477Y0248583D03*
X0219727Y0251833D03*
X0219727Y0244352D03*
X0287977Y0244352D03*
X0287977Y0251833D03*
X0247477Y0301352D03*
X0237727Y0301352D03*
X0237727Y0308833D03*
X0247477Y0308833D03*
X0286977Y0308852D03*
X0294727Y0308852D03*
X0294727Y0316333D03*
X0286977Y0316333D03*
X0302477Y0316333D03*
X0302477Y0308852D03*
X0432977Y0347602D03*
X0432977Y0355083D03*
X0445477Y0354833D03*
X0453227Y0354833D03*
X0460977Y0354833D03*
X0460977Y0347352D03*
X0453227Y0347352D03*
X0445477Y0347352D03*
X0460977Y0339333D03*
X0460977Y0331852D03*
X0444727Y0324083D03*
X0444727Y0316602D03*
X0444727Y0308583D03*
X0444727Y0301102D03*
X0480977Y0339602D03*
X0480977Y0347083D03*
X0488727Y0347083D03*
X0488727Y0339602D03*
X0527227Y0343352D03*
X0534977Y0343352D03*
X0534977Y0350833D03*
X0527227Y0350833D03*
X0623977Y0261833D03*
X0623977Y0254352D03*
X0571227Y0211583D03*
X0571227Y0204102D03*
X0601727Y0202852D03*
X0601727Y0210333D03*
X0600227Y0186833D03*
X0600227Y0179352D03*
X0575477Y0163333D03*
X0575477Y0155852D03*
X0399727Y0107333D03*
X0391977Y0107333D03*
X0391977Y0099852D03*
X0399727Y0099852D03*
X0384227Y0107602D03*
X0384227Y0115083D03*
D21*
X0530703Y0166843D03*
X0530703Y0182343D03*
X0552751Y0182343D03*
X0552751Y0166843D03*
X0558251Y0234843D03*
X0536203Y0234843D03*
X0536203Y0250593D03*
X0558251Y0250593D03*
D22*
X0583227Y0217104D03*
X0583227Y0206081D03*
X0611727Y0298331D03*
X0611727Y0309354D03*
X0472477Y0332081D03*
X0472477Y0343104D03*
D23*
X0458477Y0289079D03*
X0529477Y0289079D03*
X0600477Y0289079D03*
X0174227Y0344856D03*
X0070977Y0326606D03*
D24*
X0070977Y0297079D03*
X0174227Y0315329D03*
X0458477Y0318606D03*
X0529477Y0318606D03*
X0600477Y0318606D03*
D25*
X0563227Y0216551D03*
X0563227Y0205134D03*
X0567977Y0163051D03*
X0567977Y0151634D03*
X0400977Y0037801D03*
X0400977Y0026384D03*
X0160727Y0238134D03*
X0160727Y0249551D03*
X0296227Y0252801D03*
X0296227Y0241384D03*
D26*
X0587477Y0142843D03*
D27*
X0351936Y0040843D03*
X0340518Y0040843D03*
X0310686Y0147343D03*
X0299268Y0147343D03*
X0210686Y0167843D03*
X0199268Y0167843D03*
X0170186Y0144843D03*
X0158768Y0144843D03*
X0314018Y0260843D03*
X0325436Y0260843D03*
D28*
X0325467Y0268593D03*
X0317987Y0268593D03*
X0317987Y0276343D03*
X0325467Y0276343D03*
X0325467Y0284093D03*
X0317987Y0284093D03*
X0317987Y0291843D03*
X0325467Y0291843D03*
X0325467Y0299593D03*
X0317987Y0299593D03*
X0317987Y0307343D03*
X0325467Y0307343D03*
X0325467Y0315093D03*
X0317987Y0315093D03*
X0273967Y0302843D03*
X0266487Y0302843D03*
X0251717Y0280843D03*
X0244237Y0280843D03*
X0262987Y0275843D03*
X0270467Y0275843D03*
X0270467Y0268093D03*
X0262987Y0268093D03*
X0262987Y0260343D03*
X0270467Y0260343D03*
X0222967Y0225343D03*
X0215487Y0225343D03*
X0217987Y0215093D03*
X0225467Y0215093D03*
X0225467Y0207343D03*
X0217987Y0207343D03*
X0226737Y0191843D03*
X0234217Y0191843D03*
X0225717Y0184093D03*
X0218237Y0184093D03*
X0219987Y0168593D03*
X0227467Y0168593D03*
X0209967Y0159843D03*
X0202487Y0159843D03*
X0167467Y0136093D03*
X0159987Y0136093D03*
X0302237Y0155343D03*
X0309717Y0155343D03*
X0369987Y0125093D03*
X0377467Y0125093D03*
X0392237Y0115343D03*
X0399717Y0115343D03*
X0375967Y0098093D03*
X0368487Y0098093D03*
X0368487Y0090343D03*
X0375967Y0090343D03*
X0375967Y0082593D03*
X0368487Y0082593D03*
X0350717Y0032843D03*
X0343237Y0032843D03*
X0343237Y0025093D03*
X0350717Y0025093D03*
X0385737Y0328843D03*
X0393217Y0328843D03*
X0393217Y0339093D03*
X0385737Y0339093D03*
X0385737Y0346843D03*
X0393217Y0346843D03*
X0393217Y0357593D03*
X0385737Y0357593D03*
X0445737Y0339593D03*
X0453217Y0339593D03*
X0480987Y0331593D03*
X0488467Y0331593D03*
X0502237Y0333343D03*
X0509717Y0333343D03*
X0222717Y0351593D03*
X0215237Y0351593D03*
D29*
X0268381Y0295593D03*
X0275073Y0295593D03*
X0272073Y0284593D03*
X0265381Y0284593D03*
X0221073Y0232593D03*
X0214381Y0232593D03*
X0177073Y0216843D03*
X0170381Y0216843D03*
X0170381Y0210093D03*
X0177073Y0210093D03*
X0177073Y0203343D03*
X0170381Y0203343D03*
X0170381Y0187343D03*
X0177073Y0187343D03*
X0177073Y0180593D03*
X0170381Y0180593D03*
X0170381Y0173843D03*
X0177073Y0173843D03*
X0370381Y0075343D03*
X0377073Y0075343D03*
X0352073Y0048093D03*
X0345381Y0048093D03*
X0520881Y0333843D03*
X0527573Y0333843D03*
X0489573Y0354593D03*
X0482881Y0354593D03*
D30*
X0352227Y0089343D03*
X0556727Y0074843D03*
D31*
X0405827Y0077093D03*
X0405827Y0082093D03*
X0405827Y0087093D03*
X0405827Y0092093D03*
X0384627Y0092093D03*
X0384627Y0087093D03*
X0384627Y0082093D03*
X0384627Y0077093D03*
X0384627Y0072093D03*
X0384627Y0067093D03*
X0384627Y0062093D03*
X0384627Y0057093D03*
X0405827Y0057093D03*
X0405827Y0062093D03*
X0405827Y0067093D03*
X0405827Y0072093D03*
X0208827Y0173843D03*
X0208827Y0178843D03*
X0208827Y0183843D03*
X0208827Y0188843D03*
X0208827Y0193843D03*
X0208827Y0198843D03*
X0208827Y0203843D03*
X0208827Y0208843D03*
X0187627Y0208843D03*
X0187627Y0203843D03*
X0187627Y0198843D03*
X0187627Y0193843D03*
X0187627Y0188843D03*
X0187627Y0183843D03*
X0187627Y0178843D03*
X0187627Y0173843D03*
D32*
X0421357Y0079578D03*
X0421357Y0059893D03*
X0421357Y0040207D03*
X0421357Y0030365D03*
X0500097Y0035286D03*
X0500097Y0025444D03*
X0500097Y0045129D03*
X0500097Y0054971D03*
X0500097Y0064814D03*
X0500097Y0074656D03*
X0500097Y0084499D03*
X0500097Y0094341D03*
D33*
X0421357Y0089420D03*
D34*
X0409227Y0038073D03*
X0409227Y0023112D03*
D35*
X0497097Y0340612D03*
X0497097Y0345612D03*
X0497097Y0350612D03*
X0497097Y0355612D03*
X0518357Y0355612D03*
X0518357Y0350612D03*
X0518357Y0345612D03*
X0518357Y0340612D03*
D36*
X0416957Y0333713D03*
X0411957Y0333713D03*
X0406957Y0333713D03*
X0401957Y0333713D03*
X0401957Y0354972D03*
X0406957Y0354972D03*
X0411957Y0354972D03*
X0416957Y0354972D03*
D37*
X0595465Y0230843D03*
X0606489Y0230843D03*
X0619465Y0180343D03*
X0630489Y0180343D03*
X0630489Y0169093D03*
X0619465Y0169093D03*
X0617489Y0156343D03*
X0606465Y0156343D03*
X0606465Y0137343D03*
X0617489Y0137343D03*
D38*
X0361825Y0125343D03*
X0350629Y0125343D03*
X0200075Y0351593D03*
X0188879Y0351593D03*
D39*
X0577227Y0193329D03*
X0582227Y0193329D03*
X0587227Y0193329D03*
X0592227Y0193329D03*
X0592227Y0172856D03*
X0587227Y0172856D03*
X0582227Y0172856D03*
X0577227Y0172856D03*
D40*
X0620727Y0119593D02*
X0626727Y0119593D01*
X0626727Y0109593D02*
X0620727Y0109593D01*
X0620727Y0099593D02*
X0626727Y0099593D01*
X0626727Y0089593D02*
X0620727Y0089593D01*
X0620727Y0079593D02*
X0626727Y0079593D01*
X0626727Y0069593D02*
X0620727Y0069593D01*
X0620727Y0059593D02*
X0626727Y0059593D01*
X0626727Y0049593D02*
X0620727Y0049593D01*
X0141152Y0207567D02*
X0135152Y0207567D01*
X0135152Y0227567D02*
X0141152Y0227567D01*
D41*
X0352715Y0228093D03*
X0363739Y0228093D03*
X0614965Y0230843D03*
X0625989Y0230843D03*
D42*
X0245727Y0325640D03*
X0245727Y0331545D03*
D43*
X0547977Y0348443D02*
X0547977Y0353243D01*
X0557977Y0353243D02*
X0557977Y0348443D01*
X0567977Y0348443D02*
X0567977Y0353243D01*
D44*
X0362896Y0034083D03*
X0371558Y0030343D03*
X0362896Y0026602D03*
D45*
X0306927Y0278636D03*
X0306927Y0281195D03*
X0306927Y0283754D03*
X0306927Y0286313D03*
X0306927Y0288872D03*
X0306927Y0291431D03*
X0306927Y0293990D03*
X0306927Y0296549D03*
X0284527Y0296549D03*
X0284527Y0293990D03*
X0284527Y0291431D03*
X0284527Y0288872D03*
X0284527Y0286313D03*
X0284527Y0283754D03*
X0284527Y0281195D03*
X0284527Y0278636D03*
D46*
X0268227Y0223333D03*
X0197227Y0227102D03*
D47*
X0188231Y0252457D03*
X0206223Y0252457D03*
X0259231Y0197978D03*
X0277223Y0197978D03*
D48*
X0289168Y0187693D02*
X0298467Y0187693D01*
X0298467Y0209693D02*
X0289168Y0209693D01*
X0289168Y0231693D02*
X0298467Y0231693D01*
X0298467Y0137205D02*
X0289168Y0137205D01*
X0289168Y0115205D02*
X0298467Y0115205D01*
X0298467Y0093205D02*
X0289168Y0093205D01*
X0144302Y0132575D02*
X0135003Y0132575D01*
X0135003Y0154575D02*
X0144302Y0154575D01*
X0144302Y0176575D02*
X0135003Y0176575D01*
X0135003Y0254622D02*
X0144302Y0254622D01*
X0144302Y0276622D02*
X0135003Y0276622D01*
X0135003Y0298622D02*
X0144302Y0298622D01*
D49*
X0208977Y0299069D03*
X0224727Y0299069D03*
X0224727Y0321116D03*
X0208977Y0321116D03*
X0366227Y0215366D03*
X0366227Y0193319D03*
X0366227Y0184116D03*
X0366227Y0162069D03*
D50*
X0251237Y0126093D03*
D51*
X0276591Y0135089D03*
X0276591Y0117096D03*
D52*
X0190154Y0279093D03*
X0174800Y0279093D03*
X0174800Y0299093D03*
X0190154Y0299093D03*
D53*
X0337890Y0212622D03*
X0337890Y0185063D03*
X0452064Y0178173D03*
X0452064Y0191953D03*
X0452064Y0205732D03*
X0452064Y0219512D03*
D54*
X0222914Y0358593D03*
X0215040Y0358593D03*
D55*
X0209016Y0333593D03*
X0188938Y0333593D03*
D56*
X0299067Y0269037D02*
X0299502Y0269567D01*
X0300033Y0270003D01*
X0300638Y0270326D01*
X0301294Y0270525D01*
X0301977Y0270593D01*
X0302660Y0270525D01*
X0303316Y0270326D01*
X0303922Y0270003D01*
X0304452Y0269567D01*
X0304887Y0269037D01*
X0305211Y0268432D01*
X0305410Y0267775D01*
X0305477Y0267093D01*
X0305477Y0266343D01*
X0298477Y0266343D01*
X0298477Y0265593D01*
X0298544Y0264910D01*
X0298743Y0264253D01*
X0299067Y0263648D01*
X0299502Y0263118D01*
X0300033Y0262682D01*
X0300638Y0262359D01*
X0301294Y0262160D01*
X0301977Y0262093D01*
X0302660Y0262160D01*
X0303316Y0262359D01*
X0303922Y0262682D01*
X0304452Y0263118D01*
X0304887Y0263648D01*
X0305211Y0264253D01*
X0305410Y0264910D01*
X0305477Y0265593D01*
X0305477Y0266343D01*
X0298477Y0266343D01*
X0298477Y0267093D01*
X0298544Y0267775D01*
X0298743Y0268432D01*
X0299067Y0269037D01*
X0299094Y0269070D02*
X0304860Y0269070D01*
X0304922Y0268972D02*
X0299032Y0268972D01*
X0298979Y0268873D02*
X0304975Y0268873D01*
X0305027Y0268775D02*
X0298927Y0268775D01*
X0298874Y0268676D02*
X0305080Y0268676D01*
X0305133Y0268578D02*
X0298821Y0268578D01*
X0298769Y0268479D02*
X0305185Y0268479D01*
X0305226Y0268381D02*
X0298728Y0268381D01*
X0298698Y0268282D02*
X0305256Y0268282D01*
X0305286Y0268184D02*
X0298668Y0268184D01*
X0298638Y0268085D02*
X0305316Y0268085D01*
X0305346Y0267987D02*
X0298608Y0267987D01*
X0298579Y0267888D02*
X0305376Y0267888D01*
X0305405Y0267790D02*
X0298549Y0267790D01*
X0298536Y0267691D02*
X0305418Y0267691D01*
X0305428Y0267593D02*
X0298526Y0267593D01*
X0298517Y0267494D02*
X0305437Y0267494D01*
X0305447Y0267396D02*
X0298507Y0267396D01*
X0298497Y0267297D02*
X0305457Y0267297D01*
X0305467Y0267199D02*
X0298487Y0267199D01*
X0298478Y0267100D02*
X0305476Y0267100D01*
X0305477Y0267002D02*
X0298477Y0267002D01*
X0298477Y0266903D02*
X0305477Y0266903D01*
X0305477Y0266805D02*
X0298477Y0266805D01*
X0298477Y0266706D02*
X0305477Y0266706D01*
X0305477Y0266608D02*
X0298477Y0266608D01*
X0298477Y0266509D02*
X0305477Y0266509D01*
X0305477Y0266411D02*
X0298477Y0266411D01*
X0298477Y0266312D02*
X0305477Y0266312D01*
X0305477Y0266214D02*
X0298477Y0266214D01*
X0298477Y0266115D02*
X0305477Y0266115D01*
X0305477Y0266017D02*
X0298477Y0266017D01*
X0298477Y0265918D02*
X0305477Y0265918D01*
X0305477Y0265820D02*
X0298477Y0265820D01*
X0298477Y0265721D02*
X0305477Y0265721D01*
X0305477Y0265623D02*
X0298477Y0265623D01*
X0298484Y0265524D02*
X0305470Y0265524D01*
X0305461Y0265426D02*
X0298493Y0265426D01*
X0298503Y0265327D02*
X0305451Y0265327D01*
X0305441Y0265229D02*
X0298513Y0265229D01*
X0298523Y0265130D02*
X0305431Y0265130D01*
X0305422Y0265031D02*
X0298532Y0265031D01*
X0298542Y0264933D02*
X0305412Y0264933D01*
X0305387Y0264834D02*
X0298567Y0264834D01*
X0298597Y0264736D02*
X0305357Y0264736D01*
X0305327Y0264637D02*
X0298627Y0264637D01*
X0298657Y0264539D02*
X0305297Y0264539D01*
X0305267Y0264440D02*
X0298687Y0264440D01*
X0298717Y0264342D02*
X0305238Y0264342D01*
X0305205Y0264243D02*
X0298749Y0264243D01*
X0298801Y0264145D02*
X0305153Y0264145D01*
X0305100Y0264046D02*
X0298854Y0264046D01*
X0298907Y0263948D02*
X0305047Y0263948D01*
X0304995Y0263849D02*
X0298959Y0263849D01*
X0299012Y0263751D02*
X0304942Y0263751D01*
X0304889Y0263652D02*
X0299065Y0263652D01*
X0299144Y0263554D02*
X0304810Y0263554D01*
X0304729Y0263455D02*
X0299225Y0263455D01*
X0299306Y0263357D02*
X0304648Y0263357D01*
X0304567Y0263258D02*
X0299387Y0263258D01*
X0299468Y0263160D02*
X0304486Y0263160D01*
X0304383Y0263061D02*
X0299571Y0263061D01*
X0299691Y0262963D02*
X0304263Y0262963D01*
X0304143Y0262864D02*
X0299811Y0262864D01*
X0299931Y0262766D02*
X0304023Y0262766D01*
X0303893Y0262667D02*
X0300061Y0262667D01*
X0300245Y0262569D02*
X0303709Y0262569D01*
X0303525Y0262470D02*
X0300429Y0262470D01*
X0300614Y0262372D02*
X0303340Y0262372D01*
X0303034Y0262273D02*
X0300920Y0262273D01*
X0301245Y0262175D02*
X0302709Y0262175D01*
X0304779Y0269169D02*
X0299175Y0269169D01*
X0299256Y0269267D02*
X0304698Y0269267D01*
X0304617Y0269366D02*
X0299337Y0269366D01*
X0299418Y0269465D02*
X0304536Y0269465D01*
X0304455Y0269563D02*
X0299499Y0269563D01*
X0299617Y0269662D02*
X0304337Y0269662D01*
X0304217Y0269760D02*
X0299737Y0269760D01*
X0299857Y0269859D02*
X0304097Y0269859D01*
X0303977Y0269957D02*
X0299977Y0269957D01*
X0300132Y0270056D02*
X0303823Y0270056D01*
X0303638Y0270154D02*
X0300316Y0270154D01*
X0300500Y0270253D02*
X0303454Y0270253D01*
X0303234Y0270351D02*
X0300720Y0270351D01*
X0301045Y0270450D02*
X0302909Y0270450D01*
X0302428Y0270548D02*
X0301526Y0270548D01*
X0412243Y0309753D02*
X0412567Y0309148D01*
X0413002Y0308618D01*
X0413533Y0308182D01*
X0414138Y0307859D01*
X0414794Y0307660D01*
X0415477Y0307593D01*
X0416160Y0307660D01*
X0416816Y0307859D01*
X0417422Y0308182D01*
X0417952Y0308618D01*
X0418387Y0309148D01*
X0418711Y0309753D01*
X0418910Y0310410D01*
X0418977Y0311093D01*
X0418977Y0311843D01*
X0411977Y0311843D01*
X0411977Y0312593D01*
X0412044Y0313275D01*
X0412243Y0313932D01*
X0412567Y0314537D01*
X0413002Y0315067D01*
X0413533Y0315503D01*
X0414138Y0315826D01*
X0414794Y0316025D01*
X0415477Y0316093D01*
X0416160Y0316025D01*
X0416816Y0315826D01*
X0417422Y0315503D01*
X0417952Y0315067D01*
X0418387Y0314537D01*
X0418711Y0313932D01*
X0418910Y0313275D01*
X0418977Y0312593D01*
X0418977Y0311843D01*
X0411977Y0311843D01*
X0411977Y0311093D01*
X0412044Y0310410D01*
X0412243Y0309753D01*
X0412243Y0309756D02*
X0418711Y0309756D01*
X0418741Y0309854D02*
X0412213Y0309854D01*
X0412183Y0309953D02*
X0418771Y0309953D01*
X0418801Y0310051D02*
X0412153Y0310051D01*
X0412123Y0310150D02*
X0418831Y0310150D01*
X0418861Y0310248D02*
X0412093Y0310248D01*
X0412063Y0310347D02*
X0418891Y0310347D01*
X0418913Y0310445D02*
X0412041Y0310445D01*
X0412031Y0310544D02*
X0418923Y0310544D01*
X0418933Y0310642D02*
X0412021Y0310642D01*
X0412012Y0310741D02*
X0418942Y0310741D01*
X0418952Y0310839D02*
X0412002Y0310839D01*
X0411992Y0310938D02*
X0418962Y0310938D01*
X0418971Y0311036D02*
X0411983Y0311036D01*
X0411977Y0311135D02*
X0418977Y0311135D01*
X0418977Y0311233D02*
X0411977Y0311233D01*
X0411977Y0311332D02*
X0418977Y0311332D01*
X0418977Y0311430D02*
X0411977Y0311430D01*
X0411977Y0311529D02*
X0418977Y0311529D01*
X0418977Y0311627D02*
X0411977Y0311627D01*
X0411977Y0311726D02*
X0418977Y0311726D01*
X0418977Y0311824D02*
X0411977Y0311824D01*
X0411977Y0311923D02*
X0418977Y0311923D01*
X0418977Y0312021D02*
X0411977Y0312021D01*
X0411977Y0312120D02*
X0418977Y0312120D01*
X0418977Y0312218D02*
X0411977Y0312218D01*
X0411977Y0312317D02*
X0418977Y0312317D01*
X0418977Y0312415D02*
X0411977Y0312415D01*
X0411977Y0312514D02*
X0418977Y0312514D01*
X0418975Y0312612D02*
X0411979Y0312612D01*
X0411989Y0312711D02*
X0418965Y0312711D01*
X0418956Y0312809D02*
X0411998Y0312809D01*
X0412008Y0312908D02*
X0418946Y0312908D01*
X0418936Y0313007D02*
X0412018Y0313007D01*
X0412027Y0313105D02*
X0418927Y0313105D01*
X0418917Y0313204D02*
X0412037Y0313204D01*
X0412052Y0313302D02*
X0418902Y0313302D01*
X0418872Y0313401D02*
X0412082Y0313401D01*
X0412112Y0313499D02*
X0418842Y0313499D01*
X0418812Y0313598D02*
X0412142Y0313598D01*
X0412172Y0313696D02*
X0418782Y0313696D01*
X0418752Y0313795D02*
X0412202Y0313795D01*
X0412232Y0313893D02*
X0418722Y0313893D01*
X0418679Y0313992D02*
X0412275Y0313992D01*
X0412328Y0314090D02*
X0418626Y0314090D01*
X0418573Y0314189D02*
X0412381Y0314189D01*
X0412433Y0314287D02*
X0418521Y0314287D01*
X0418468Y0314386D02*
X0412486Y0314386D01*
X0412539Y0314484D02*
X0418415Y0314484D01*
X0418350Y0314583D02*
X0412604Y0314583D01*
X0412685Y0314681D02*
X0418269Y0314681D01*
X0418188Y0314780D02*
X0412766Y0314780D01*
X0412847Y0314878D02*
X0418107Y0314878D01*
X0418026Y0314977D02*
X0412928Y0314977D01*
X0413012Y0315075D02*
X0417942Y0315075D01*
X0417822Y0315174D02*
X0413132Y0315174D01*
X0413252Y0315272D02*
X0417702Y0315272D01*
X0417582Y0315371D02*
X0413372Y0315371D01*
X0413492Y0315469D02*
X0417462Y0315469D01*
X0417300Y0315568D02*
X0413654Y0315568D01*
X0413839Y0315666D02*
X0417115Y0315666D01*
X0416931Y0315765D02*
X0414023Y0315765D01*
X0414260Y0315863D02*
X0416694Y0315863D01*
X0416369Y0315962D02*
X0414585Y0315962D01*
X0415150Y0316060D02*
X0415804Y0316060D01*
X0419993Y0313932D02*
X0419794Y0313275D01*
X0419727Y0312593D01*
X0419727Y0311843D01*
X0426727Y0311843D01*
X0426727Y0311093D01*
X0426660Y0310410D01*
X0426461Y0309753D01*
X0426137Y0309148D01*
X0425702Y0308618D01*
X0425172Y0308182D01*
X0424566Y0307859D01*
X0423910Y0307660D01*
X0423227Y0307593D01*
X0422544Y0307660D01*
X0421888Y0307859D01*
X0421283Y0308182D01*
X0420752Y0308618D01*
X0420317Y0309148D01*
X0419993Y0309753D01*
X0419794Y0310410D01*
X0419727Y0311093D01*
X0419727Y0311843D01*
X0426727Y0311843D01*
X0426727Y0312593D01*
X0426660Y0313275D01*
X0426461Y0313932D01*
X0426137Y0314537D01*
X0425702Y0315067D01*
X0425172Y0315503D01*
X0424566Y0315826D01*
X0423910Y0316025D01*
X0423227Y0316093D01*
X0422544Y0316025D01*
X0421888Y0315826D01*
X0421283Y0315503D01*
X0420752Y0315067D01*
X0420317Y0314537D01*
X0419993Y0313932D01*
X0419982Y0313893D02*
X0426472Y0313893D01*
X0426502Y0313795D02*
X0419952Y0313795D01*
X0419922Y0313696D02*
X0426532Y0313696D01*
X0426562Y0313598D02*
X0419892Y0313598D01*
X0419862Y0313499D02*
X0426592Y0313499D01*
X0426622Y0313401D02*
X0419832Y0313401D01*
X0419802Y0313302D02*
X0426652Y0313302D01*
X0426667Y0313204D02*
X0419787Y0313204D01*
X0419777Y0313105D02*
X0426677Y0313105D01*
X0426686Y0313007D02*
X0419768Y0313007D01*
X0419758Y0312908D02*
X0426696Y0312908D01*
X0426706Y0312809D02*
X0419748Y0312809D01*
X0419739Y0312711D02*
X0426715Y0312711D01*
X0426725Y0312612D02*
X0419729Y0312612D01*
X0419727Y0312514D02*
X0426727Y0312514D01*
X0426727Y0312415D02*
X0419727Y0312415D01*
X0419727Y0312317D02*
X0426727Y0312317D01*
X0426727Y0312218D02*
X0419727Y0312218D01*
X0419727Y0312120D02*
X0426727Y0312120D01*
X0426727Y0312021D02*
X0419727Y0312021D01*
X0419727Y0311923D02*
X0426727Y0311923D01*
X0426727Y0311824D02*
X0419727Y0311824D01*
X0419727Y0311726D02*
X0426727Y0311726D01*
X0426727Y0311627D02*
X0419727Y0311627D01*
X0419727Y0311529D02*
X0426727Y0311529D01*
X0426727Y0311430D02*
X0419727Y0311430D01*
X0419727Y0311332D02*
X0426727Y0311332D01*
X0426727Y0311233D02*
X0419727Y0311233D01*
X0419727Y0311135D02*
X0426727Y0311135D01*
X0426721Y0311036D02*
X0419733Y0311036D01*
X0419742Y0310938D02*
X0426712Y0310938D01*
X0426702Y0310839D02*
X0419752Y0310839D01*
X0419762Y0310741D02*
X0426692Y0310741D01*
X0426683Y0310642D02*
X0419771Y0310642D01*
X0419781Y0310544D02*
X0426673Y0310544D01*
X0426663Y0310445D02*
X0419791Y0310445D01*
X0419813Y0310347D02*
X0426641Y0310347D01*
X0426611Y0310248D02*
X0419843Y0310248D01*
X0419873Y0310150D02*
X0426581Y0310150D01*
X0426551Y0310051D02*
X0419903Y0310051D01*
X0419933Y0309953D02*
X0426521Y0309953D01*
X0426491Y0309854D02*
X0419963Y0309854D01*
X0419993Y0309756D02*
X0426461Y0309756D01*
X0426409Y0309657D02*
X0420045Y0309657D01*
X0420097Y0309559D02*
X0426357Y0309559D01*
X0426304Y0309460D02*
X0420150Y0309460D01*
X0420203Y0309362D02*
X0426251Y0309362D01*
X0426199Y0309263D02*
X0420255Y0309263D01*
X0420308Y0309165D02*
X0426146Y0309165D01*
X0426070Y0309066D02*
X0420384Y0309066D01*
X0420465Y0308968D02*
X0425989Y0308968D01*
X0425908Y0308869D02*
X0420546Y0308869D01*
X0420627Y0308771D02*
X0425827Y0308771D01*
X0425747Y0308672D02*
X0420708Y0308672D01*
X0420806Y0308573D02*
X0425648Y0308573D01*
X0425528Y0308475D02*
X0420926Y0308475D01*
X0421046Y0308376D02*
X0425408Y0308376D01*
X0425288Y0308278D02*
X0421166Y0308278D01*
X0421288Y0308179D02*
X0425166Y0308179D01*
X0424982Y0308081D02*
X0421472Y0308081D01*
X0421657Y0307982D02*
X0424797Y0307982D01*
X0424613Y0307884D02*
X0421841Y0307884D01*
X0422130Y0307785D02*
X0424324Y0307785D01*
X0423999Y0307687D02*
X0422455Y0307687D01*
X0418659Y0309657D02*
X0412295Y0309657D01*
X0412347Y0309559D02*
X0418607Y0309559D01*
X0418554Y0309460D02*
X0412400Y0309460D01*
X0412453Y0309362D02*
X0418501Y0309362D01*
X0418449Y0309263D02*
X0412505Y0309263D01*
X0412558Y0309165D02*
X0418396Y0309165D01*
X0418320Y0309066D02*
X0412634Y0309066D01*
X0412715Y0308968D02*
X0418239Y0308968D01*
X0418158Y0308869D02*
X0412796Y0308869D01*
X0412877Y0308771D02*
X0418077Y0308771D01*
X0417997Y0308672D02*
X0412958Y0308672D01*
X0413056Y0308573D02*
X0417898Y0308573D01*
X0417778Y0308475D02*
X0413176Y0308475D01*
X0413296Y0308376D02*
X0417658Y0308376D01*
X0417538Y0308278D02*
X0413416Y0308278D01*
X0413538Y0308179D02*
X0417416Y0308179D01*
X0417232Y0308081D02*
X0413722Y0308081D01*
X0413907Y0307982D02*
X0417047Y0307982D01*
X0416863Y0307884D02*
X0414091Y0307884D01*
X0414380Y0307785D02*
X0416574Y0307785D01*
X0416249Y0307687D02*
X0414705Y0307687D01*
X0420025Y0313992D02*
X0426429Y0313992D01*
X0426376Y0314090D02*
X0420078Y0314090D01*
X0420131Y0314189D02*
X0426323Y0314189D01*
X0426271Y0314287D02*
X0420183Y0314287D01*
X0420236Y0314386D02*
X0426218Y0314386D01*
X0426165Y0314484D02*
X0420289Y0314484D01*
X0420354Y0314583D02*
X0426100Y0314583D01*
X0426019Y0314681D02*
X0420435Y0314681D01*
X0420516Y0314780D02*
X0425938Y0314780D01*
X0425857Y0314878D02*
X0420597Y0314878D01*
X0420678Y0314977D02*
X0425776Y0314977D01*
X0425692Y0315075D02*
X0420762Y0315075D01*
X0420882Y0315174D02*
X0425572Y0315174D01*
X0425452Y0315272D02*
X0421002Y0315272D01*
X0421122Y0315371D02*
X0425332Y0315371D01*
X0425212Y0315469D02*
X0421242Y0315469D01*
X0421404Y0315568D02*
X0425050Y0315568D01*
X0424865Y0315666D02*
X0421589Y0315666D01*
X0421773Y0315765D02*
X0424681Y0315765D01*
X0424444Y0315863D02*
X0422010Y0315863D01*
X0422335Y0315962D02*
X0424119Y0315962D01*
X0423554Y0316060D02*
X0422900Y0316060D01*
D57*
X0043507Y0026622D03*
D58*
X0466227Y0144093D03*
X0477977Y0144093D03*
X0489727Y0144093D03*
X0501477Y0144093D03*
X0501477Y0155843D03*
X0489727Y0155843D03*
X0477977Y0155843D03*
X0466227Y0155843D03*
X0466227Y0167593D03*
X0477977Y0167593D03*
X0489727Y0167593D03*
X0501477Y0167593D03*
X0501477Y0179343D03*
X0489727Y0179343D03*
X0477977Y0179343D03*
X0466227Y0179093D03*
X0466477Y0216843D03*
X0477977Y0216843D03*
X0489727Y0216843D03*
X0501477Y0216843D03*
X0501477Y0228593D03*
X0489727Y0228593D03*
X0477977Y0228593D03*
X0466477Y0228593D03*
X0466477Y0240343D03*
X0477977Y0240343D03*
X0489727Y0240343D03*
X0501477Y0240343D03*
X0501477Y0252093D03*
X0489727Y0252093D03*
X0477977Y0252093D03*
X0466477Y0252093D03*
D59*
X0626184Y0353394D03*
X0626184Y0026622D03*
X0043507Y0353394D03*
D60*
X0221727Y0130093D03*
X0225477Y0130093D03*
X0229227Y0130093D03*
X0229227Y0126343D03*
X0225477Y0126343D03*
X0221727Y0126343D03*
X0221727Y0122593D03*
X0225477Y0122593D03*
X0229227Y0122593D03*
X0244727Y0079843D03*
X0248477Y0079843D03*
X0252227Y0079843D03*
X0252227Y0076093D03*
X0248477Y0076093D03*
X0244727Y0076093D03*
X0244727Y0072343D03*
X0248477Y0072343D03*
X0252227Y0072343D03*
M02*
