%
M48
M72
T01C0.01575
T02C0.01969
T03C0.02362
T04C0.02756
T05C0.03150
T06C0.03200
T07C0.03543
T08C0.03600
T09C0.03937
T10C0.04000
T11C0.04331
T12C0.04724
T13C0.05512
T14C0.06299
T15C0.06693
T16C0.11811
T17C0.12598
%
T01
X62977Y119593
X174477Y171093
X240227Y197843
X265977Y211343
X285477Y217593
X290977Y212593
X286977Y208843
X292477Y204593
X292477Y194843
X314227Y195843
X320477Y203093
X337227Y192593
X340227Y199593
X361977Y204093
X368727Y210093
X360727Y215593
X367727Y218343
X373727Y218593
X380227Y216093
X361227Y223093
X357477Y236343
X374977Y233343
X383977Y251843
X398227Y253843
X418477Y234343
X423977Y240843
X431477Y246593
X438227Y251843
X434477Y234593
X424227Y227843
X452227Y230343
X461977Y234352
X463977Y246843
X484727Y232843
X496987Y233102
X494977Y210593
X484977Y192843
X526727Y151343
X524977Y143593
X532727Y136093
X533727Y128593
X542727Y126093
X524977Y122593
X527477Y111843
X531727Y107593
X569727Y107593
X579727Y97843
X589477Y92343
X591977Y118093
X591227Y134843
X591227Y137843
X591477Y152343
X485477Y88093
X479977Y88093
X525977Y80843
X528977Y80843
X463977Y133843
X405977Y116843
X390977Y111343
X375227Y111093
X364227Y119843
X356977Y116093
X343965Y122280
X332465Y105530
X321727Y113843
X306477Y122593
X314573Y128843
X277965Y106280
X295727Y102343
X294715Y97030
X290215Y84780
X307227Y84343
X313727Y91093
X320215Y89530
X326477Y93593
X346977Y99593
X388477Y123343
X388227Y128843
X403227Y128593
X361477Y145843
X362477Y158093
X357477Y164593
X362477Y169593
X353977Y174593
X348977Y175093
X342727Y181843
X342977Y186083
X328227Y178093
X321977Y176343
X318977Y176343
X330977Y171093
X339977Y169093
X343227Y159093
X314727Y160593
X310477Y164093
X310477Y157093
X292477Y175843
X280477Y171093
X262215Y124280
X238477Y119593
X234477Y112093
X262227Y92843
X265227Y85843
X237977Y77093
X378477Y161593
X376977Y171093
X315227Y220343
X304977Y225093
X307227Y229843
X311977Y229843
X326727Y236343
X281727Y224593
X275727Y230343
X256977Y230343
X257227Y253343
X257727Y262093
X276477Y267843
X292727Y279343
X295727Y279343
X298727Y279343
X240477Y288593
X228227Y288593
X230477Y297093
X185227Y300093
X185477Y287843
X120977Y259843
X120977Y256593
X96727Y337843
X423977Y274093
X431477Y268593
T02
X261227Y297593
X261227Y300843
X261227Y304093
X257727Y304093
X257727Y300843
X257727Y297593
X219727Y218343
X225727Y96843
X230477Y50093
X468477Y32093
X476477Y23343
X505727Y34593
X514227Y31343
X525477Y28093
X528727Y28093
X514227Y46843
X526977Y58843
T03
X562727Y63343
X204477Y82593
X199977Y82593
X195477Y82593
X190977Y82593
X186477Y82593
X181977Y82593
X177477Y82593
X172977Y82593
X168477Y82593
X163977Y82593
X163977Y78343
X163977Y74093
X163977Y69843
X163977Y65593
X163977Y61343
X163977Y57093
X163977Y52843
X163977Y48593
X159477Y48593
X159477Y52843
X159477Y57093
X159477Y61343
X159477Y65593
X159477Y69843
X159477Y74093
X159477Y78343
X159477Y82593
X159477Y102593
X159477Y106843
X159477Y111093
X163977Y111093
X163977Y106843
X163977Y102593
X163977Y115343
X163977Y119593
X163977Y123843
X163977Y128093
X163977Y132343
X159477Y132343
X159477Y128093
X159477Y123843
X159477Y119593
X159477Y115343
X168477Y132343
X172977Y132343
X177477Y132343
X181977Y132343
X186477Y132343
X190977Y132343
X195477Y132343
X199977Y132343
X204477Y132343
X64227Y222343
X64227Y226093
X64227Y229843
X60477Y229843
X56727Y229843
X56727Y226093
X60477Y226093
X60477Y222343
X56727Y222343
X139477Y245343
X139477Y249093
X139477Y252843
X143227Y252843
X146977Y252843
X146977Y249093
X143227Y249093
X143227Y245343
X146977Y245343
T04
X368024Y240093
X373930Y240093
T05
X322164Y262093
X314290Y262093
T06
X360477Y97593
X370477Y97593
X380477Y97593
T07
X615554Y104378
X615554Y114220
X615554Y124063
X615554Y133906
X615554Y143748
X615554Y153591
X615554Y163433
X615554Y173276
T08
X575977Y221593
X575977Y237843
X535977Y247843
X535977Y211593
X505227Y201843
X495227Y161843
X502977Y292593
X502977Y311843
X462977Y302593
X462977Y321843
T09
X602680Y84772
X612680Y84772
X612680Y74772
X602680Y74772
T10
X558477Y98593
X558477Y118593
X484727Y258093
X464727Y258093
X525227Y264343
X618227Y263843
X618227Y322843
X525227Y323343
X244451Y335520
X224451Y335520
T11
X354977Y315106
X354977Y285579
X423977Y308329
X423977Y337856
X409977Y67106
X409977Y37579
X467977Y62093
X582727Y63343
X338977Y67106
X338977Y37579
X267727Y37579
X267727Y67106
T12
X400828Y110222
X410671Y110222
X420513Y110222
X430356Y110222
X440198Y110222
X450041Y110222
X459883Y110222
X469726Y110222
X464805Y188963
X454962Y188963
X435277Y188963
X415592Y188963
X405749Y188963
X547013Y284006
X596225Y284006
X596225Y323376
X547013Y323376
X365227Y341093
X116341Y346504
X88782Y163433
T13
X464294Y355362
X483794Y355362
X504294Y355362
X524294Y355362
T14
X315507Y334020
X293507Y334020
X271507Y334020
X193459Y334020
X171459Y334020
X149459Y334020
X154089Y175917
X132089Y175917
X110089Y175917
X123507Y139929
X95948Y139929
X204577Y175917
X226577Y175917
X248577Y175917
X130396Y25756
X116617Y25756
X102837Y25756
X89058Y25756
T15
X565160Y52213
X586814Y52213
X587601Y204969
X587601Y221504
X587601Y238039
T16
X616341Y238039
X616341Y204969
X615554Y52213
T17
X43507Y26622
X43507Y353394
X626184Y353394
X626184Y26622
M30
