%
M48
M72
T01C0.01575
T02C0.01969
T03C0.02362
T04C0.02756
T05C0.03150
T06C0.03200
T07C0.03543
T08C0.03600
T09C0.03937
T10C0.04000
T11C0.04331
T12C0.04724
T13C0.05512
T14C0.06299
T15C0.06693
T16C0.11811
T17C0.12598
%
T01
X78227Y129463
X251227Y71213
X262227Y76713
X280965Y78400
X280965Y81900
X280965Y74900
X280965Y71400
X314477Y93963
X309465Y94900
X314477Y100963
X320215Y99400
X326477Y103463
X332465Y115400
X321727Y123713
X306477Y132463
X314573Y138713
X343965Y132150
X356977Y125963
X364227Y129713
X388477Y131713
X388477Y124213
X392977Y112713
X375227Y112963
X346977Y109463
X294715Y106900
X294227Y112213
X255477Y128213
X315737Y159472
X315227Y168213
X314727Y173213
X310477Y176463
X319227Y181963
X319977Y186213
X317227Y186213
X326477Y181963
X327227Y188963
X342727Y191713
X343477Y195953
X339227Y203463
X334727Y203963
X334227Y211213
X318727Y211963
X314727Y204213
X292477Y201963
X277477Y194713
X292227Y186213
X276977Y183713
X330727Y166963
X329477Y159213
X345977Y168463
X354977Y172713
X362477Y167963
X378477Y171463
X376977Y180963
X362477Y179463
X353977Y184463
X348977Y184963
X340477Y178963
X361477Y155713
X361977Y213963
X368727Y219963
X380227Y225963
X373727Y228463
X367727Y228213
X360727Y225463
X361227Y232963
X379227Y238963
X383977Y235463
X398227Y252713
X423977Y239713
X431477Y245463
X438227Y251463
X431477Y267463
X423977Y272963
X463977Y245713
X461977Y233222
X452227Y229213
X434477Y233463
X424227Y226713
X418477Y233213
X357477Y246213
X326727Y245463
X311977Y239713
X307227Y239713
X300227Y234963
X313477Y230213
X290977Y222463
X286977Y225963
X286977Y218713
X254477Y221463
X256977Y240213
X279727Y240213
X257227Y263213
X257727Y271963
X281977Y277713
X292727Y289213
X295727Y289213
X298727Y289213
X240477Y298463
X228227Y298463
X230477Y306963
X185227Y309963
X185477Y297713
X120977Y269713
X120977Y266463
X96727Y347713
X484477Y229213
X488227Y240713
X505977Y209463
X491727Y198463
X484977Y191713
X534727Y187463
X557717Y178041
X595727Y180963
X598727Y180963
X595227Y160463
X595227Y154463
X607477Y139713
X604227Y132213
X601227Y132213
X622727Y129963
X584727Y103963
X580227Y99963
X584977Y89713
X564227Y78713
X553727Y84963
X544727Y84963
X547727Y109963
X550727Y109963
X524477Y124713
X531227Y130713
X527727Y134963
X527727Y143463
X491227Y91713
X491227Y88713
X476477Y93963
X453477Y93963
X591227Y353213
T02
X261227Y313963
X261227Y310713
X261227Y307463
X257727Y307463
X257727Y310713
X257727Y313963
X219727Y228213
X520977Y66963
X505727Y44463
X514477Y40963
X517727Y40963
X476227Y41963
X468477Y41963
T03
X565727Y38963
X223727Y83463
X219227Y83463
X214727Y83463
X210227Y83463
X205727Y83463
X201227Y83463
X196727Y83463
X192227Y83463
X187727Y83463
X183227Y83463
X183227Y79213
X183227Y74963
X183227Y70713
X183227Y66463
X183227Y62213
X183227Y57963
X183227Y53713
X183227Y49463
X178727Y49463
X178727Y53713
X178727Y57963
X178727Y62213
X178727Y66463
X178727Y70713
X178727Y74963
X178727Y79213
X178727Y83463
X178727Y108213
X178727Y112463
X178727Y116713
X178727Y120963
X178727Y125213
X178727Y129463
X178727Y133713
X178727Y137963
X178727Y142213
X183227Y142213
X183227Y137963
X183227Y133713
X183227Y129463
X183227Y125213
X183227Y120963
X183227Y116713
X183227Y112463
X183227Y108213
X187727Y142213
X192227Y142213
X196727Y142213
X201227Y142213
X205727Y142213
X210227Y142213
X214727Y142213
X219227Y142213
X223727Y142213
X64227Y232213
X64227Y235963
X64227Y239713
X60477Y239713
X56727Y239713
X56727Y235963
X60477Y235963
X60477Y232213
X56727Y232213
X139477Y255213
X139477Y258963
X139477Y262713
X143227Y262713
X146977Y262713
X146977Y258963
X143227Y258963
X143227Y255213
X146977Y255213
T04
X368024Y249963
X373930Y249963
T05
X307914Y270463
X300040Y270463
X268914Y49213
X261040Y49213
T06
X360477Y107463
X370477Y107463
X380477Y107463
T07
X617522Y105390
X617522Y115232
X617522Y125075
X617522Y134917
X617522Y144760
X617522Y154602
X617522Y164445
X617522Y174287
X617522Y184130
X471883Y289213
X460072Y289213
T08
X466477Y316213
X466477Y331713
X506477Y321713
X506477Y306213
X536477Y253713
X576477Y243713
X576477Y227463
X536477Y217463
X509477Y201963
X499477Y161963
T09
X445070Y187833
X425385Y187833
X604648Y90114
X604648Y80114
X614648Y80114
X614648Y90114
T10
X544477Y137713
X544477Y157713
X487977Y254963
X467977Y254963
X525227Y274213
X525227Y333213
X622227Y332713
X622227Y273713
X244451Y345390
X224451Y345390
T11
X354977Y324976
X354977Y295449
X425227Y304949
X425227Y334476
X288977Y76476
X288977Y46949
X451977Y68463
X585727Y38963
T12
X469676Y109093
X459833Y109093
X449991Y109093
X440148Y109093
X430306Y109093
X420463Y109093
X410621Y109093
X400778Y109093
X405699Y187833
X415542Y187833
X435227Y187833
X454912Y187833
X464755Y187833
X549013Y293876
X598225Y293876
X598225Y333246
X549013Y333246
X116341Y356374
X88782Y173303
T13
X464294Y366713
X483794Y366713
X504294Y366713
X524294Y366713
T14
X315507Y343890
X293507Y343890
X271507Y343890
X193459Y343890
X171459Y343890
X149459Y343890
X154089Y185787
X132089Y185787
X110089Y185787
X110948Y149799
X138507Y149799
X204577Y185787
X226577Y185787
X248577Y185787
X145396Y35626
X131617Y35626
X117837Y35626
X104058Y35626
T15
X567129Y59720
X588782Y59720
X589963Y210902
X589963Y227437
X589963Y243972
T16
X618703Y243972
X618703Y210902
X617522Y59720
T17
X49412Y42398
X49412Y357358
X620278Y357358
X620278Y40429
M30
