%
M48
M72
T01C0.01575
T02C0.01969
T03C0.02362
T04C0.02756
T05C0.03150
T06C0.03200
T07C0.03600
T08C0.04000
T09C0.04331
T10C0.04724
T11C0.05512
T12C0.06299
T13C0.11811
T14C0.12598
%
T01
X178477Y53343
X339227Y25093
X356477Y22843
X375977Y43093
X382477Y48843
X375727Y59093
X369727Y56093
X363727Y56093
X358477Y62843
X341727Y56093
X341727Y53093
X355477Y48093
X379977Y76843
X375967Y86593
X363477Y88593
X377477Y109343
X377477Y121093
X412977Y120093
X432727Y113093
X435227Y105593
X452977Y139843
X490227Y123093
X495727Y126593
X507727Y115343
X531977Y107593
X542477Y113843
X546227Y107593
X542477Y130343
X579227Y130093
X593227Y126593
X597727Y124843
X602977Y120343
X593227Y109343
X590977Y92343
X599727Y86093
X602477Y86093
X602477Y59343
X599477Y59343
X570977Y34843
X570977Y28843
X565227Y31843
X571227Y155093
X582227Y167593
X572477Y174093
X600227Y175593
X608477Y171593
X614727Y180343
X584727Y212843
X581727Y212843
X591227Y215093
X570977Y214843
X553227Y250843
X553227Y253843
X427227Y323593
X423227Y316843
X415477Y316843
X405477Y323593
X411477Y326593
X416727Y339343
X403977Y339843
X403727Y345593
X424477Y355593
X432977Y343593
X476477Y348843
X492727Y355093
X517477Y333843
X532977Y339343
X562977Y356093
X606477Y341093
X375727Y338343
X371727Y341343
X375727Y346843
X363727Y355093
X360477Y344843
X344227Y357343
X338477Y341593
X332477Y341093
X318477Y335343
X310477Y326593
X304477Y331593
X288977Y336843
X289227Y344593
X278977Y344593
X270727Y346343
X258727Y342843
X267227Y357343
X308477Y351343
X334227Y328343
X344227Y327593
X330727Y315093
X325977Y321343
X318477Y321343
X306727Y316343
X290727Y308843
X283227Y300093
X274977Y298843
X264977Y295593
X257477Y295093
X251477Y301343
X257477Y281593
X257477Y273593
X274727Y275852
X283227Y274843
X307727Y276593
X303227Y255093
X307977Y248093
X320477Y248093
X273727Y260593
X249977Y258343
X249977Y255093
X242227Y252093
X220727Y264343
X220727Y267593
X206227Y260343
X195227Y275843
X195227Y278843
X195227Y281843
X219727Y240343
X215477Y235843
X242227Y234093
X191977Y209093
X177727Y199843
X170227Y169093
X186727Y168593
X72227Y186593
X34727Y179843
X266977Y320093
X272977Y327593
X279727Y325593
X279727Y321093
X302477Y304843
X296227Y295593
X363727Y319593
X351727Y170843
X312727Y160093
T02
X259227Y202843
X176977Y234843
X173727Y234843
X170477Y234843
X170477Y238343
X173727Y238343
X176977Y238343
X548977Y187843
X548977Y184343
X590727Y230843
X623977Y250343
X622227Y268593
X622227Y272093
X618727Y272093
X618727Y268593
X625727Y268593
X625727Y272093
X629227Y272093
X629227Y268593
X630727Y232343
X630727Y228843
T03
X252227Y79843
X248477Y79843
X244727Y79843
X244727Y76093
X248477Y76093
X252227Y76093
X252227Y72343
X248477Y72343
X244727Y72343
X229227Y122593
X229227Y126343
X229227Y130093
X225477Y130093
X221727Y130093
X221727Y126343
X225477Y126343
X225477Y122593
X221727Y122593
T04
X245727Y325640
X245727Y331545
T05
X222914Y358593
X215040Y358593
T06
X547977Y350843
X557977Y350843
X567977Y350843
T07
X428727Y128093
X468727Y118093
X102926Y80350
X88278Y59085
X92926Y40350
X78278Y19085
X89227Y199593
X89477Y239593
X99227Y239593
X99477Y279593
T08
X70769Y262491
X138152Y227567
X138152Y207567
X70769Y203491
X146735Y87694
X146735Y28694
X352227Y89343
X352227Y109343
X556727Y74843
X576727Y74843
X621727Y79593
X621727Y89593
X621727Y99593
X621727Y109593
X621727Y119593
X621727Y69593
X621727Y59593
X621727Y49593
T09
X587477Y142843
X600477Y289079
X600477Y318606
X529477Y318606
X529477Y289079
X458477Y289079
X458477Y318606
X174227Y315329
X174227Y344856
X70977Y326606
X70977Y297079
T10
X51763Y161876
X100975Y161876
X100975Y122506
X51763Y122506
X421357Y89420
X421357Y79578
X421357Y59893
X421357Y40207
X421357Y30365
X500097Y35286
X500097Y25444
X500097Y45129
X500097Y54971
X500097Y64814
X500097Y74656
X500097Y84499
X500097Y94341
T11
X601097Y146843
X622357Y146843
X65771Y81183
X65771Y64648
X65771Y48112
X39963Y208020
X39963Y227520
X39963Y248020
X39963Y268020
T12
X139652Y276622
X139652Y254622
X139652Y298622
X293818Y231693
X293818Y209693
X293818Y187693
X337890Y185063
X337890Y212622
X452064Y205732
X452064Y191953
X466227Y179093
X477977Y179343
X489727Y179343
X501477Y179343
X501477Y167593
X489727Y167593
X477977Y167593
X466227Y167593
X452064Y178173
X466227Y155843
X477977Y155843
X489727Y155843
X501477Y155843
X501477Y144093
X489727Y144093
X477977Y144093
X466227Y144093
X466477Y216843
X477977Y216843
X489727Y216843
X501477Y216843
X501477Y228593
X489727Y228593
X477977Y228593
X466477Y228593
X452064Y219512
X466477Y240343
X477977Y240343
X489727Y240343
X501477Y240343
X501477Y252093
X489727Y252093
X477977Y252093
X466477Y252093
X293818Y137205
X293818Y115205
X293818Y93205
X139652Y132575
X139652Y154575
X139652Y176575
T13
X80928Y81183
X43920Y56380
T14
X43507Y26622
X43507Y353394
X626184Y353394
X626184Y26622
M30
