G75*
%MOIN*%
%OFA0B0*%
%FSLAX25Y25*%
%IPPOS*%
%LPD*%
%AMOC8*
5,1,8,0,0,1.08239X$1,22.5*
%
%ADD10C,0.00400*%
%ADD11C,0.00500*%
%ADD12C,0.01000*%
%ADD13C,0.00600*%
%ADD14C,0.01600*%
%ADD15C,0.00700*%
%ADD16C,0.00800*%
%ADD17R,0.03000X0.03400*%
%ADD18R,0.10196X0.03544*%
%ADD19R,0.05512X0.00787*%
%ADD20C,0.00300*%
%ADD21R,0.00787X0.05512*%
%ADD22R,0.03268X0.02992*%
%ADD23R,0.03583X0.02992*%
%ADD24R,0.02992X0.03268*%
%ADD25R,0.02992X0.03583*%
%ADD26C,0.00200*%
%ADD27R,0.08268X0.01181*%
D10*
X0227892Y0089163D02*
X0230294Y0089163D01*
X0229093Y0089163D02*
X0229093Y0092766D01*
X0230294Y0091565D01*
X0231576Y0092165D02*
X0232176Y0092766D01*
X0233377Y0092766D01*
X0233978Y0092165D01*
X0233978Y0089763D01*
X0233377Y0089163D01*
X0232176Y0089163D01*
X0231576Y0089763D01*
X0235259Y0089163D02*
X0237661Y0089163D01*
X0237661Y0092766D01*
X0235259Y0092766D01*
X0236460Y0090964D02*
X0237661Y0090964D01*
X0238942Y0090964D02*
X0239542Y0090364D01*
X0241344Y0090364D01*
X0240143Y0090364D02*
X0238942Y0089163D01*
X0238942Y0090964D02*
X0238942Y0092165D01*
X0239542Y0092766D01*
X0241344Y0092766D01*
X0241344Y0089163D01*
X0242625Y0089763D02*
X0243225Y0089163D01*
X0244427Y0089163D01*
X0245027Y0089763D01*
X0244427Y0090964D02*
X0243225Y0090964D01*
X0242625Y0090364D01*
X0242625Y0089763D01*
X0244427Y0090964D02*
X0245027Y0091565D01*
X0245027Y0092165D01*
X0244427Y0092766D01*
X0243225Y0092766D01*
X0242625Y0092165D01*
X0262509Y0095013D02*
X0263109Y0094413D01*
X0264310Y0094413D01*
X0264911Y0095013D01*
X0264911Y0096214D02*
X0263710Y0096815D01*
X0263109Y0096815D01*
X0262509Y0096214D01*
X0262509Y0095013D01*
X0264911Y0096214D02*
X0264911Y0098016D01*
X0262509Y0098016D01*
X0266192Y0098016D02*
X0267393Y0097415D01*
X0268594Y0096214D01*
X0266792Y0096214D01*
X0266192Y0095614D01*
X0266192Y0095013D01*
X0266792Y0094413D01*
X0267993Y0094413D01*
X0268594Y0095013D01*
X0268594Y0096214D01*
X0269875Y0095013D02*
X0270475Y0094413D01*
X0271677Y0094413D01*
X0272277Y0095013D01*
X0272277Y0097415D01*
X0271677Y0098016D01*
X0270475Y0098016D01*
X0269875Y0097415D01*
X0269875Y0102138D02*
X0271076Y0103339D01*
X0270475Y0103339D02*
X0272277Y0103339D01*
X0272277Y0102138D02*
X0272277Y0105741D01*
X0270475Y0105741D01*
X0269875Y0105140D01*
X0269875Y0103939D01*
X0270475Y0103339D01*
X0268594Y0102738D02*
X0268594Y0102138D01*
X0268594Y0102738D02*
X0266192Y0105140D01*
X0266192Y0105741D01*
X0268594Y0105741D01*
X0264911Y0105140D02*
X0264310Y0105741D01*
X0263109Y0105741D01*
X0262509Y0105140D01*
X0262509Y0104540D01*
X0264911Y0102138D01*
X0262509Y0102138D01*
X0262759Y0090266D02*
X0263960Y0089665D01*
X0265161Y0088464D01*
X0263359Y0088464D01*
X0262759Y0087864D01*
X0262759Y0087263D01*
X0263359Y0086663D01*
X0264560Y0086663D01*
X0265161Y0087263D01*
X0265161Y0088464D01*
X0266442Y0087864D02*
X0267042Y0088464D01*
X0268844Y0088464D01*
X0268844Y0087263D01*
X0268243Y0086663D01*
X0267042Y0086663D01*
X0266442Y0087263D01*
X0266442Y0087864D01*
X0267643Y0089665D02*
X0266442Y0090266D01*
X0267643Y0089665D02*
X0268844Y0088464D01*
X0270125Y0087263D02*
X0270725Y0086663D01*
X0271927Y0086663D01*
X0272527Y0087263D01*
X0272527Y0089665D01*
X0271927Y0090266D01*
X0270725Y0090266D01*
X0270125Y0089665D01*
X0301509Y0096163D02*
X0303911Y0096163D01*
X0301509Y0098565D01*
X0301509Y0099165D01*
X0302109Y0099766D01*
X0303310Y0099766D01*
X0303911Y0099165D01*
X0305192Y0099165D02*
X0305192Y0098565D01*
X0305792Y0097964D01*
X0306993Y0097964D01*
X0307594Y0098565D01*
X0307594Y0099165D01*
X0306993Y0099766D01*
X0305792Y0099766D01*
X0305192Y0099165D01*
X0305792Y0097964D02*
X0305192Y0097364D01*
X0305192Y0096763D01*
X0305792Y0096163D01*
X0306993Y0096163D01*
X0307594Y0096763D01*
X0307594Y0097364D01*
X0306993Y0097964D01*
X0308875Y0097964D02*
X0309475Y0097364D01*
X0311277Y0097364D01*
X0310076Y0097364D02*
X0308875Y0096163D01*
X0308875Y0097964D02*
X0308875Y0099165D01*
X0309475Y0099766D01*
X0311277Y0099766D01*
X0311277Y0096163D01*
X0298027Y0110663D02*
X0298027Y0114266D01*
X0296225Y0114266D01*
X0295625Y0113665D01*
X0295625Y0112464D01*
X0296225Y0111864D01*
X0298027Y0111864D01*
X0296826Y0111864D02*
X0295625Y0110663D01*
X0294344Y0111263D02*
X0293743Y0110663D01*
X0292542Y0110663D01*
X0291942Y0111263D01*
X0291942Y0111864D01*
X0292542Y0112464D01*
X0293743Y0112464D01*
X0294344Y0113065D01*
X0294344Y0113665D01*
X0293743Y0114266D01*
X0292542Y0114266D01*
X0291942Y0113665D01*
X0291942Y0113065D01*
X0292542Y0112464D01*
X0293743Y0112464D02*
X0294344Y0111864D01*
X0294344Y0111263D01*
X0290661Y0111263D02*
X0290060Y0110663D01*
X0288859Y0110663D01*
X0288259Y0111263D01*
X0288259Y0113665D01*
X0288859Y0114266D01*
X0290060Y0114266D01*
X0290661Y0113665D01*
X0290661Y0113065D01*
X0290060Y0112464D01*
X0288259Y0112464D01*
X0291859Y0117913D02*
X0293060Y0117913D01*
X0293661Y0118513D01*
X0292460Y0119714D02*
X0291859Y0119714D01*
X0291259Y0119114D01*
X0291259Y0118513D01*
X0291859Y0117913D01*
X0291859Y0119714D02*
X0291259Y0120315D01*
X0291259Y0120915D01*
X0291859Y0121516D01*
X0293060Y0121516D01*
X0293661Y0120915D01*
X0294942Y0120915D02*
X0297344Y0118513D01*
X0297344Y0117913D01*
X0298625Y0118513D02*
X0299225Y0117913D01*
X0300427Y0117913D01*
X0301027Y0118513D01*
X0301027Y0120915D01*
X0300427Y0121516D01*
X0299225Y0121516D01*
X0298625Y0120915D01*
X0297344Y0121516D02*
X0294942Y0121516D01*
X0294942Y0120915D01*
X0306109Y0126413D02*
X0306109Y0130016D01*
X0307911Y0128214D01*
X0305509Y0128214D01*
X0309192Y0129415D02*
X0311594Y0127013D01*
X0311594Y0126413D01*
X0312875Y0127013D02*
X0313475Y0126413D01*
X0314677Y0126413D01*
X0315277Y0127013D01*
X0315277Y0129415D01*
X0314677Y0130016D01*
X0313475Y0130016D01*
X0312875Y0129415D01*
X0311594Y0130016D02*
X0309192Y0130016D01*
X0309192Y0129415D01*
X0309792Y0133663D02*
X0310993Y0133663D01*
X0311594Y0134263D01*
X0311594Y0134864D01*
X0310993Y0135464D01*
X0309792Y0135464D01*
X0309192Y0134864D01*
X0309192Y0134263D01*
X0309792Y0133663D01*
X0309792Y0135464D02*
X0309192Y0136065D01*
X0309192Y0136665D01*
X0309792Y0137266D01*
X0310993Y0137266D01*
X0311594Y0136665D01*
X0311594Y0136065D01*
X0310993Y0135464D01*
X0312875Y0135464D02*
X0313475Y0134864D01*
X0315277Y0134864D01*
X0314076Y0134864D02*
X0312875Y0133663D01*
X0312875Y0135464D02*
X0312875Y0136665D01*
X0313475Y0137266D01*
X0315277Y0137266D01*
X0315277Y0133663D01*
X0307911Y0134263D02*
X0307310Y0133663D01*
X0306109Y0133663D01*
X0305509Y0134263D01*
X0305509Y0134864D01*
X0306109Y0135464D01*
X0307911Y0135464D01*
X0307911Y0134263D01*
X0307911Y0135464D02*
X0306710Y0136665D01*
X0305509Y0137266D01*
X0298826Y0136263D02*
X0298226Y0135663D01*
X0297025Y0135663D01*
X0296424Y0136263D01*
X0295143Y0136263D02*
X0295143Y0135663D01*
X0295143Y0136263D02*
X0292741Y0138665D01*
X0292741Y0139266D01*
X0295143Y0139266D01*
X0296424Y0138665D02*
X0297025Y0139266D01*
X0298226Y0139266D01*
X0298826Y0138665D01*
X0298826Y0136263D01*
X0291460Y0136263D02*
X0290860Y0135663D01*
X0289659Y0135663D01*
X0289058Y0136263D01*
X0289058Y0136864D01*
X0289659Y0137464D01*
X0290860Y0137464D01*
X0291460Y0138065D01*
X0291460Y0138665D01*
X0290860Y0139266D01*
X0289659Y0139266D01*
X0289058Y0138665D01*
X0289058Y0138065D01*
X0289659Y0137464D01*
X0290860Y0137464D02*
X0291460Y0136864D01*
X0291460Y0136263D01*
X0316308Y0151513D02*
X0316909Y0150913D01*
X0318110Y0150913D01*
X0318710Y0151513D01*
X0318710Y0152714D02*
X0317509Y0153315D01*
X0316909Y0153315D01*
X0316308Y0152714D01*
X0316308Y0151513D01*
X0318710Y0152714D02*
X0318710Y0154516D01*
X0316308Y0154516D01*
X0319991Y0153915D02*
X0319991Y0151513D01*
X0320592Y0150913D01*
X0321793Y0150913D01*
X0322393Y0151513D01*
X0321793Y0152714D02*
X0319991Y0152714D01*
X0319991Y0153915D02*
X0320592Y0154516D01*
X0321793Y0154516D01*
X0322393Y0153915D01*
X0322393Y0153315D01*
X0321793Y0152714D01*
X0323674Y0152714D02*
X0324275Y0152114D01*
X0326076Y0152114D01*
X0324875Y0152114D02*
X0323674Y0150913D01*
X0323674Y0152714D02*
X0323674Y0153915D01*
X0324275Y0154516D01*
X0326076Y0154516D01*
X0326076Y0150913D01*
X0330308Y0151513D02*
X0330909Y0150913D01*
X0332110Y0150913D01*
X0332710Y0151513D01*
X0333991Y0151513D02*
X0333991Y0153915D01*
X0334592Y0154516D01*
X0335793Y0154516D01*
X0336393Y0153915D01*
X0336393Y0153315D01*
X0335793Y0152714D01*
X0333991Y0152714D01*
X0333991Y0151513D02*
X0334592Y0150913D01*
X0335793Y0150913D01*
X0336393Y0151513D01*
X0337674Y0150913D02*
X0338875Y0152114D01*
X0338275Y0152114D02*
X0340076Y0152114D01*
X0340076Y0150913D02*
X0340076Y0154516D01*
X0338275Y0154516D01*
X0337674Y0153915D01*
X0337674Y0152714D01*
X0338275Y0152114D01*
X0332710Y0153915D02*
X0332110Y0154516D01*
X0330909Y0154516D01*
X0330308Y0153915D01*
X0330308Y0153315D01*
X0330909Y0152714D01*
X0330308Y0152114D01*
X0330308Y0151513D01*
X0330909Y0152714D02*
X0331509Y0152714D01*
X0330808Y0144266D02*
X0330808Y0143665D01*
X0333210Y0141263D01*
X0333210Y0140663D01*
X0334491Y0143665D02*
X0336893Y0141263D01*
X0336893Y0140663D01*
X0338174Y0141263D02*
X0338775Y0140663D01*
X0339976Y0140663D01*
X0340576Y0141263D01*
X0340576Y0143665D01*
X0339976Y0144266D01*
X0338775Y0144266D01*
X0338174Y0143665D01*
X0336893Y0144266D02*
X0334491Y0144266D01*
X0334491Y0143665D01*
X0333210Y0144266D02*
X0330808Y0144266D01*
X0343677Y0138830D02*
X0343677Y0137629D01*
X0344278Y0137029D01*
X0343677Y0135748D02*
X0345479Y0133946D01*
X0344878Y0133346D02*
X0347280Y0135748D01*
X0346680Y0137029D02*
X0347280Y0137629D01*
X0347280Y0138830D01*
X0346680Y0139431D01*
X0346079Y0139431D01*
X0345479Y0138830D01*
X0344878Y0139431D01*
X0344278Y0139431D01*
X0343677Y0138830D01*
X0345479Y0138830D02*
X0345479Y0138230D01*
X0347280Y0133346D02*
X0343677Y0133346D01*
X0344278Y0132065D02*
X0346680Y0132065D01*
X0347280Y0131464D01*
X0347280Y0130263D01*
X0346680Y0129663D01*
X0344278Y0129663D01*
X0343677Y0130263D01*
X0343677Y0131464D01*
X0344278Y0132065D01*
X0357927Y0131714D02*
X0358528Y0132315D01*
X0360930Y0132315D01*
X0361530Y0131714D01*
X0361530Y0130513D01*
X0360930Y0129913D01*
X0358528Y0129913D01*
X0357927Y0130513D01*
X0357927Y0131714D01*
X0357927Y0133596D02*
X0361530Y0133596D01*
X0359729Y0134196D02*
X0357927Y0135998D01*
X0357927Y0137279D02*
X0360329Y0139681D01*
X0360930Y0139681D01*
X0361530Y0139080D01*
X0361530Y0137879D01*
X0360930Y0137279D01*
X0361530Y0135998D02*
X0359128Y0133596D01*
X0357927Y0137279D02*
X0357927Y0139681D01*
X0382427Y0134580D02*
X0382427Y0133379D01*
X0383028Y0132779D01*
X0385430Y0135181D01*
X0383028Y0135181D01*
X0382427Y0134580D01*
X0383028Y0132779D02*
X0385430Y0132779D01*
X0386030Y0133379D01*
X0386030Y0134580D01*
X0385430Y0135181D01*
X0385430Y0131498D02*
X0384829Y0131498D01*
X0384229Y0130897D01*
X0384229Y0129696D01*
X0384829Y0129096D01*
X0385430Y0129096D01*
X0386030Y0129696D01*
X0386030Y0130897D01*
X0385430Y0131498D01*
X0384229Y0130897D02*
X0383628Y0131498D01*
X0383028Y0131498D01*
X0382427Y0130897D01*
X0382427Y0129696D01*
X0383028Y0129096D01*
X0383628Y0129096D01*
X0384229Y0129696D01*
X0385430Y0127815D02*
X0386030Y0127214D01*
X0386030Y0126013D01*
X0385430Y0125413D01*
X0383028Y0125413D01*
X0382427Y0126013D01*
X0382427Y0127214D01*
X0383028Y0127815D01*
X0383677Y0159663D02*
X0387280Y0159663D01*
X0387280Y0161464D01*
X0386680Y0162065D01*
X0385479Y0162065D01*
X0384878Y0161464D01*
X0384878Y0159663D01*
X0384878Y0160864D02*
X0383677Y0162065D01*
X0385479Y0163346D02*
X0385479Y0165748D01*
X0386079Y0167029D02*
X0387280Y0168230D01*
X0383677Y0168230D01*
X0383677Y0167029D02*
X0383677Y0169431D01*
X0383677Y0165147D02*
X0387280Y0165147D01*
X0385479Y0163346D01*
X0358326Y0172763D02*
X0357726Y0172163D01*
X0356525Y0172163D01*
X0355924Y0172763D01*
X0354643Y0173964D02*
X0352241Y0173964D01*
X0350960Y0173964D02*
X0348558Y0173964D01*
X0349159Y0172163D02*
X0349159Y0175766D01*
X0350960Y0173964D01*
X0352842Y0172163D02*
X0352842Y0175766D01*
X0354643Y0173964D01*
X0355924Y0175165D02*
X0356525Y0175766D01*
X0357726Y0175766D01*
X0358326Y0175165D01*
X0358326Y0172763D01*
X0319576Y0174913D02*
X0319576Y0178516D01*
X0317775Y0178516D01*
X0317174Y0177915D01*
X0317174Y0176714D01*
X0317775Y0176114D01*
X0319576Y0176114D01*
X0318375Y0176114D02*
X0317174Y0174913D01*
X0315893Y0175513D02*
X0315293Y0174913D01*
X0314092Y0174913D01*
X0313491Y0175513D01*
X0313491Y0176714D01*
X0314092Y0177315D01*
X0314692Y0177315D01*
X0315893Y0176714D01*
X0315893Y0178516D01*
X0313491Y0178516D01*
X0312210Y0176714D02*
X0310409Y0178516D01*
X0310409Y0174913D01*
X0309808Y0176714D02*
X0312210Y0176714D01*
X0292527Y0184013D02*
X0292527Y0186415D01*
X0291927Y0187016D01*
X0290725Y0187016D01*
X0290125Y0186415D01*
X0288844Y0185214D02*
X0286442Y0185214D01*
X0285161Y0185815D02*
X0284560Y0185214D01*
X0282759Y0185214D01*
X0282759Y0184013D02*
X0282759Y0186415D01*
X0283359Y0187016D01*
X0284560Y0187016D01*
X0285161Y0186415D01*
X0285161Y0185815D01*
X0285161Y0184013D02*
X0284560Y0183413D01*
X0283359Y0183413D01*
X0282759Y0184013D01*
X0287042Y0183413D02*
X0287042Y0187016D01*
X0288844Y0185214D01*
X0290125Y0184013D02*
X0290725Y0183413D01*
X0291927Y0183413D01*
X0292527Y0184013D01*
X0285530Y0178180D02*
X0281927Y0178180D01*
X0281927Y0176979D02*
X0281927Y0179381D01*
X0284329Y0176979D02*
X0285530Y0178180D01*
X0284930Y0175698D02*
X0285530Y0175098D01*
X0285530Y0173897D01*
X0284930Y0173296D01*
X0284930Y0172015D02*
X0285530Y0171415D01*
X0285530Y0169613D01*
X0281927Y0169613D01*
X0281927Y0171415D01*
X0282528Y0172015D01*
X0284930Y0172015D01*
X0281927Y0173296D02*
X0284329Y0175698D01*
X0284930Y0175698D01*
X0281927Y0175698D02*
X0281927Y0173296D01*
X0269996Y0177476D02*
X0268194Y0177476D01*
X0267594Y0178076D01*
X0267594Y0180478D01*
X0268194Y0181079D01*
X0269996Y0181079D01*
X0269996Y0177476D01*
X0266313Y0177476D02*
X0263911Y0179878D01*
X0263911Y0180478D01*
X0264511Y0181079D01*
X0265712Y0181079D01*
X0266313Y0180478D01*
X0266313Y0177476D02*
X0263911Y0177476D01*
X0262629Y0178076D02*
X0260227Y0180478D01*
X0260227Y0178076D01*
X0260828Y0177476D01*
X0262029Y0177476D01*
X0262629Y0178076D01*
X0262629Y0180478D01*
X0262029Y0181079D01*
X0260828Y0181079D01*
X0260227Y0180478D01*
X0282759Y0192013D02*
X0282759Y0192614D01*
X0283359Y0193214D01*
X0285161Y0193214D01*
X0285161Y0192013D01*
X0284560Y0191413D01*
X0283359Y0191413D01*
X0282759Y0192013D01*
X0283960Y0194415D02*
X0285161Y0193214D01*
X0286442Y0193214D02*
X0288844Y0193214D01*
X0287042Y0195016D01*
X0287042Y0191413D01*
X0290125Y0192013D02*
X0290725Y0191413D01*
X0291927Y0191413D01*
X0292527Y0192013D01*
X0292527Y0194415D01*
X0291927Y0195016D01*
X0290725Y0195016D01*
X0290125Y0194415D01*
X0290125Y0198913D02*
X0291326Y0200114D01*
X0290725Y0200114D02*
X0292527Y0200114D01*
X0292527Y0198913D02*
X0292527Y0202516D01*
X0290725Y0202516D01*
X0290125Y0201915D01*
X0290125Y0200714D01*
X0290725Y0200114D01*
X0288844Y0200714D02*
X0287643Y0201315D01*
X0287042Y0201315D01*
X0286442Y0200714D01*
X0286442Y0199513D01*
X0287042Y0198913D01*
X0288243Y0198913D01*
X0288844Y0199513D01*
X0288844Y0200714D02*
X0288844Y0202516D01*
X0286442Y0202516D01*
X0285161Y0201915D02*
X0284560Y0202516D01*
X0283359Y0202516D01*
X0282759Y0201915D01*
X0285161Y0199513D01*
X0284560Y0198913D01*
X0283359Y0198913D01*
X0282759Y0199513D01*
X0282759Y0201915D01*
X0285161Y0201915D02*
X0285161Y0199513D01*
X0282759Y0195016D02*
X0283960Y0194415D01*
X0268076Y0197663D02*
X0268076Y0201266D01*
X0266275Y0201266D01*
X0265674Y0200665D01*
X0265674Y0199464D01*
X0266275Y0198864D01*
X0268076Y0198864D01*
X0266875Y0198864D02*
X0265674Y0197663D01*
X0264393Y0199464D02*
X0261991Y0199464D01*
X0260710Y0200065D02*
X0260110Y0199464D01*
X0258308Y0199464D01*
X0258308Y0198263D02*
X0258308Y0200665D01*
X0258909Y0201266D01*
X0260110Y0201266D01*
X0260710Y0200665D01*
X0260710Y0200065D01*
X0260710Y0198263D02*
X0260110Y0197663D01*
X0258909Y0197663D01*
X0258308Y0198263D01*
X0262592Y0197663D02*
X0262592Y0201266D01*
X0264393Y0199464D01*
X0282759Y0206163D02*
X0285161Y0206163D01*
X0282759Y0208565D01*
X0282759Y0209165D01*
X0283359Y0209766D01*
X0284560Y0209766D01*
X0285161Y0209165D01*
X0286442Y0209766D02*
X0288844Y0209766D01*
X0288844Y0207964D01*
X0287643Y0208565D01*
X0287042Y0208565D01*
X0286442Y0207964D01*
X0286442Y0206763D01*
X0287042Y0206163D01*
X0288243Y0206163D01*
X0288844Y0206763D01*
X0290125Y0206163D02*
X0291326Y0207364D01*
X0290725Y0207364D02*
X0292527Y0207364D01*
X0292527Y0206163D02*
X0292527Y0209766D01*
X0290725Y0209766D01*
X0290125Y0209165D01*
X0290125Y0207964D01*
X0290725Y0207364D01*
X0321536Y0205915D02*
X0321536Y0205315D01*
X0322137Y0204714D01*
X0321536Y0204114D01*
X0321536Y0203513D01*
X0322137Y0202913D01*
X0323338Y0202913D01*
X0323938Y0203513D01*
X0325220Y0203513D02*
X0325820Y0202913D01*
X0327021Y0202913D01*
X0327622Y0203513D01*
X0327622Y0205915D01*
X0327021Y0206516D01*
X0325820Y0206516D01*
X0325220Y0205915D01*
X0323938Y0205915D02*
X0323338Y0206516D01*
X0322137Y0206516D01*
X0321536Y0205915D01*
X0322137Y0204714D02*
X0322737Y0204714D01*
X0328876Y0202913D02*
X0330077Y0202913D01*
X0329477Y0202913D02*
X0329477Y0206516D01*
X0330077Y0206516D02*
X0328876Y0206516D01*
X0351058Y0208263D02*
X0351058Y0208864D01*
X0351659Y0209464D01*
X0353460Y0209464D01*
X0353460Y0208263D01*
X0352860Y0207663D01*
X0351659Y0207663D01*
X0351058Y0208263D01*
X0352259Y0210665D02*
X0353460Y0209464D01*
X0354741Y0209464D02*
X0355342Y0210065D01*
X0355942Y0210065D01*
X0357143Y0209464D01*
X0357143Y0211266D01*
X0354741Y0211266D01*
X0354741Y0209464D02*
X0354741Y0208263D01*
X0355342Y0207663D01*
X0356543Y0207663D01*
X0357143Y0208263D01*
X0358424Y0207663D02*
X0359625Y0208864D01*
X0359025Y0208864D02*
X0360826Y0208864D01*
X0360826Y0207663D02*
X0360826Y0211266D01*
X0359025Y0211266D01*
X0358424Y0210665D01*
X0358424Y0209464D01*
X0359025Y0208864D01*
X0359409Y0203766D02*
X0358808Y0203165D01*
X0361210Y0200763D01*
X0360610Y0200163D01*
X0359409Y0200163D01*
X0358808Y0200763D01*
X0358808Y0203165D01*
X0359409Y0203766D02*
X0360610Y0203766D01*
X0361210Y0203165D01*
X0361210Y0200763D01*
X0362491Y0200763D02*
X0363092Y0200163D01*
X0364293Y0200163D01*
X0364893Y0200763D01*
X0364893Y0201964D02*
X0363692Y0202565D01*
X0363092Y0202565D01*
X0362491Y0201964D01*
X0362491Y0200763D01*
X0364893Y0201964D02*
X0364893Y0203766D01*
X0362491Y0203766D01*
X0366174Y0203165D02*
X0366775Y0203766D01*
X0367976Y0203766D01*
X0368576Y0203165D01*
X0368576Y0200763D01*
X0367976Y0200163D01*
X0366775Y0200163D01*
X0366174Y0200763D01*
X0352259Y0210665D02*
X0351058Y0211266D01*
X0321030Y0229663D02*
X0321030Y0231464D01*
X0320430Y0232065D01*
X0319229Y0232065D01*
X0318628Y0231464D01*
X0318628Y0229663D01*
X0318628Y0230864D02*
X0317427Y0232065D01*
X0319229Y0233346D02*
X0319229Y0235748D01*
X0319229Y0237029D02*
X0319229Y0238830D01*
X0318628Y0239431D01*
X0318028Y0239431D01*
X0317427Y0238830D01*
X0317427Y0237629D01*
X0318028Y0237029D01*
X0319229Y0237029D01*
X0320430Y0238230D01*
X0321030Y0239431D01*
X0321030Y0235147D02*
X0317427Y0235147D01*
X0319229Y0233346D02*
X0321030Y0235147D01*
X0313280Y0235397D02*
X0311479Y0233596D01*
X0311479Y0235998D01*
X0311479Y0237279D02*
X0311479Y0239681D01*
X0313280Y0239080D02*
X0311479Y0237279D01*
X0313280Y0239080D02*
X0309677Y0239080D01*
X0306280Y0238830D02*
X0305680Y0239431D01*
X0305079Y0239431D01*
X0304479Y0238830D01*
X0303878Y0239431D01*
X0303278Y0239431D01*
X0302677Y0238830D01*
X0302677Y0237629D01*
X0303278Y0237029D01*
X0304479Y0238230D02*
X0304479Y0238830D01*
X0306280Y0238830D02*
X0306280Y0237629D01*
X0305680Y0237029D01*
X0304479Y0235748D02*
X0304479Y0233346D01*
X0306280Y0235147D01*
X0302677Y0235147D01*
X0303278Y0232065D02*
X0302677Y0231464D01*
X0302677Y0230263D01*
X0303278Y0229663D01*
X0305680Y0229663D01*
X0306280Y0230263D01*
X0306280Y0231464D01*
X0305680Y0232065D01*
X0309677Y0232315D02*
X0310878Y0231114D01*
X0310878Y0231714D02*
X0310878Y0229913D01*
X0309677Y0229913D02*
X0313280Y0229913D01*
X0313280Y0231714D01*
X0312680Y0232315D01*
X0311479Y0232315D01*
X0310878Y0231714D01*
X0309677Y0235397D02*
X0313280Y0235397D01*
X0317427Y0229663D02*
X0321030Y0229663D01*
X0298967Y0231832D02*
X0298967Y0234234D01*
X0298367Y0234234D01*
X0295965Y0231832D01*
X0295364Y0231832D01*
X0295364Y0234234D01*
X0295364Y0235515D02*
X0295364Y0237317D01*
X0295965Y0237917D01*
X0298367Y0237917D01*
X0298967Y0237317D01*
X0298967Y0235515D01*
X0295364Y0235515D01*
X0297166Y0239198D02*
X0297166Y0241600D01*
X0298967Y0241000D02*
X0297166Y0239198D01*
X0298967Y0241000D02*
X0295364Y0241000D01*
X0277530Y0262413D02*
X0273927Y0262413D01*
X0275128Y0262413D02*
X0275128Y0264214D01*
X0275729Y0264815D01*
X0276930Y0264815D01*
X0277530Y0264214D01*
X0277530Y0262413D01*
X0275128Y0263614D02*
X0273927Y0264815D01*
X0273927Y0266096D02*
X0276329Y0268498D01*
X0276930Y0268498D01*
X0277530Y0267897D01*
X0277530Y0266696D01*
X0276930Y0266096D01*
X0273927Y0266096D02*
X0273927Y0268498D01*
X0274528Y0269779D02*
X0273927Y0270379D01*
X0273927Y0271580D01*
X0274528Y0272181D01*
X0275128Y0272181D01*
X0275729Y0271580D01*
X0275729Y0270980D01*
X0275729Y0271580D02*
X0276329Y0272181D01*
X0276930Y0272181D01*
X0277530Y0271580D01*
X0277530Y0270379D01*
X0276930Y0269779D01*
X0276027Y0285663D02*
X0274225Y0285663D01*
X0273625Y0286263D01*
X0273625Y0288665D01*
X0274225Y0289266D01*
X0276027Y0289266D01*
X0276027Y0285663D01*
X0272344Y0285663D02*
X0269942Y0285663D01*
X0271143Y0285663D02*
X0271143Y0289266D01*
X0272344Y0288065D01*
X0268661Y0288665D02*
X0268661Y0286263D01*
X0266259Y0288665D01*
X0266259Y0286263D01*
X0266859Y0285663D01*
X0268060Y0285663D01*
X0268661Y0286263D01*
X0268661Y0288665D02*
X0268060Y0289266D01*
X0266859Y0289266D01*
X0266259Y0288665D01*
X0255027Y0315163D02*
X0255027Y0318766D01*
X0253225Y0318766D01*
X0252625Y0318165D01*
X0252625Y0316964D01*
X0253225Y0316364D01*
X0255027Y0316364D01*
X0253826Y0316364D02*
X0252625Y0315163D01*
X0251344Y0315163D02*
X0248942Y0317565D01*
X0248942Y0318165D01*
X0249542Y0318766D01*
X0250743Y0318766D01*
X0251344Y0318165D01*
X0251344Y0315163D02*
X0248942Y0315163D01*
X0247661Y0315763D02*
X0247060Y0315163D01*
X0245859Y0315163D01*
X0245259Y0315763D01*
X0245259Y0316364D01*
X0245859Y0316964D01*
X0247661Y0316964D01*
X0247661Y0315763D01*
X0247661Y0316964D02*
X0246460Y0318165D01*
X0245259Y0318766D01*
X0235780Y0318513D02*
X0235180Y0317913D01*
X0232778Y0317913D01*
X0232177Y0318513D01*
X0232177Y0319714D01*
X0232778Y0320315D01*
X0232778Y0321596D02*
X0232177Y0322196D01*
X0232177Y0323397D01*
X0232778Y0323998D01*
X0233378Y0323998D01*
X0233979Y0323397D01*
X0233979Y0322797D01*
X0233979Y0323397D02*
X0234579Y0323998D01*
X0235180Y0323998D01*
X0235780Y0323397D01*
X0235780Y0322196D01*
X0235180Y0321596D01*
X0235180Y0320315D02*
X0235780Y0319714D01*
X0235780Y0318513D01*
X0229030Y0318513D02*
X0228430Y0317913D01*
X0226028Y0317913D01*
X0225427Y0318513D01*
X0225427Y0319714D01*
X0226028Y0320315D01*
X0226028Y0321596D02*
X0225427Y0322196D01*
X0225427Y0323397D01*
X0226028Y0323998D01*
X0226628Y0323998D01*
X0227229Y0323397D01*
X0227229Y0322797D01*
X0227229Y0323397D02*
X0227829Y0323998D01*
X0228430Y0323998D01*
X0229030Y0323397D01*
X0229030Y0322196D01*
X0228430Y0321596D01*
X0228430Y0320315D02*
X0229030Y0319714D01*
X0229030Y0318513D01*
X0222280Y0318513D02*
X0221680Y0317913D01*
X0219278Y0317913D01*
X0218677Y0318513D01*
X0218677Y0319714D01*
X0219278Y0320315D01*
X0219278Y0321596D02*
X0218677Y0322196D01*
X0218677Y0323397D01*
X0219278Y0323998D01*
X0219878Y0323998D01*
X0220479Y0323397D01*
X0220479Y0322797D01*
X0220479Y0323397D02*
X0221079Y0323998D01*
X0221680Y0323998D01*
X0222280Y0323397D01*
X0222280Y0322196D01*
X0221680Y0321596D01*
X0221680Y0320315D02*
X0222280Y0319714D01*
X0222280Y0318513D01*
X0221680Y0325279D02*
X0222280Y0325879D01*
X0222280Y0327080D01*
X0221680Y0327681D01*
X0221079Y0327681D01*
X0220479Y0327080D01*
X0219878Y0327681D01*
X0219278Y0327681D01*
X0218677Y0327080D01*
X0218677Y0325879D01*
X0219278Y0325279D01*
X0220479Y0326480D02*
X0220479Y0327080D01*
X0225427Y0327681D02*
X0225427Y0325279D01*
X0227829Y0327681D01*
X0228430Y0327681D01*
X0229030Y0327080D01*
X0229030Y0325879D01*
X0228430Y0325279D01*
X0232177Y0325279D02*
X0232177Y0327681D01*
X0232177Y0326480D02*
X0235780Y0326480D01*
X0234579Y0325279D01*
X0241009Y0330763D02*
X0241609Y0330163D01*
X0242810Y0330163D01*
X0243411Y0330763D01*
X0243411Y0331964D02*
X0242210Y0332565D01*
X0241609Y0332565D01*
X0241009Y0331964D01*
X0241009Y0330763D01*
X0243411Y0331964D02*
X0243411Y0333766D01*
X0241009Y0333766D01*
X0244692Y0333165D02*
X0245292Y0333766D01*
X0246493Y0333766D01*
X0247094Y0333165D01*
X0248375Y0333165D02*
X0248375Y0331964D01*
X0248975Y0331364D01*
X0250777Y0331364D01*
X0249576Y0331364D02*
X0248375Y0330163D01*
X0247094Y0330163D02*
X0244692Y0332565D01*
X0244692Y0333165D01*
X0244692Y0330163D02*
X0247094Y0330163D01*
X0248375Y0333165D02*
X0248975Y0333766D01*
X0250777Y0333766D01*
X0250777Y0330163D01*
X0276977Y0321726D02*
X0279379Y0321726D01*
X0278178Y0321726D02*
X0278178Y0325329D01*
X0279379Y0324128D01*
X0280661Y0321726D02*
X0283063Y0321726D01*
X0281862Y0321726D02*
X0281862Y0325329D01*
X0283063Y0324128D01*
X0284344Y0324728D02*
X0284944Y0325329D01*
X0286746Y0325329D01*
X0286746Y0321726D01*
X0284944Y0321726D01*
X0284344Y0322326D01*
X0284344Y0324728D01*
X0284884Y0355163D02*
X0282482Y0355163D01*
X0283683Y0356964D02*
X0284884Y0356964D01*
X0286165Y0355763D02*
X0286165Y0358165D01*
X0286765Y0358766D01*
X0288567Y0358766D01*
X0288567Y0355163D01*
X0286765Y0355163D01*
X0286165Y0355763D01*
X0284884Y0355163D02*
X0284884Y0358766D01*
X0282482Y0358766D01*
X0289821Y0358766D02*
X0291022Y0358766D01*
X0290422Y0358766D02*
X0290422Y0355163D01*
X0291022Y0355163D02*
X0289821Y0355163D01*
X0292303Y0355763D02*
X0292904Y0355163D01*
X0294105Y0355163D01*
X0294705Y0355763D01*
X0294105Y0356964D02*
X0292904Y0356964D01*
X0292303Y0356364D01*
X0292303Y0355763D01*
X0294105Y0356964D02*
X0294705Y0357565D01*
X0294705Y0358165D01*
X0294105Y0358766D01*
X0292904Y0358766D01*
X0292303Y0358165D01*
X0295986Y0356964D02*
X0298388Y0356964D01*
X0299643Y0355163D02*
X0300844Y0355163D01*
X0300243Y0355163D02*
X0300243Y0358766D01*
X0299643Y0358766D02*
X0300844Y0358766D01*
X0302125Y0358766D02*
X0302125Y0355163D01*
X0302125Y0356964D02*
X0304527Y0356964D01*
X0304527Y0355163D02*
X0304527Y0358766D01*
X0206030Y0327080D02*
X0205430Y0327681D01*
X0204829Y0327681D01*
X0204229Y0327080D01*
X0204229Y0325879D01*
X0204829Y0325279D01*
X0205430Y0325279D01*
X0206030Y0325879D01*
X0206030Y0327080D01*
X0204229Y0327080D02*
X0203628Y0327681D01*
X0203028Y0327681D01*
X0202427Y0327080D01*
X0202427Y0325879D01*
X0203028Y0325279D01*
X0203628Y0325279D01*
X0204229Y0325879D01*
X0204829Y0323998D02*
X0204229Y0323397D01*
X0203628Y0323998D01*
X0203028Y0323998D01*
X0202427Y0323397D01*
X0202427Y0322196D01*
X0203028Y0321596D01*
X0203028Y0320315D02*
X0202427Y0319714D01*
X0202427Y0318513D01*
X0203028Y0317913D01*
X0205430Y0317913D01*
X0206030Y0318513D01*
X0206030Y0319714D01*
X0205430Y0320315D01*
X0205430Y0321596D02*
X0206030Y0322196D01*
X0206030Y0323397D01*
X0205430Y0323998D01*
X0204829Y0323998D01*
X0204229Y0323397D02*
X0204229Y0322797D01*
X0199530Y0323397D02*
X0198930Y0323998D01*
X0198329Y0323998D01*
X0197729Y0323397D01*
X0197128Y0323998D01*
X0196528Y0323998D01*
X0195927Y0323397D01*
X0195927Y0322196D01*
X0196528Y0321596D01*
X0196528Y0320315D02*
X0195927Y0319714D01*
X0195927Y0318513D01*
X0196528Y0317913D01*
X0198930Y0317913D01*
X0199530Y0318513D01*
X0199530Y0319714D01*
X0198930Y0320315D01*
X0198930Y0321596D02*
X0199530Y0322196D01*
X0199530Y0323397D01*
X0197729Y0323397D02*
X0197729Y0322797D01*
X0198329Y0325279D02*
X0197729Y0325879D01*
X0197729Y0327681D01*
X0198930Y0327681D02*
X0199530Y0327080D01*
X0199530Y0325879D01*
X0198930Y0325279D01*
X0198329Y0325279D01*
X0196528Y0325279D02*
X0195927Y0325879D01*
X0195927Y0327080D01*
X0196528Y0327681D01*
X0198930Y0327681D01*
X0192280Y0327080D02*
X0191680Y0327681D01*
X0189278Y0325279D01*
X0188677Y0325879D01*
X0188677Y0327080D01*
X0189278Y0327681D01*
X0191680Y0327681D01*
X0192280Y0327080D02*
X0192280Y0325879D01*
X0191680Y0325279D01*
X0189278Y0325279D01*
X0190479Y0323998D02*
X0190479Y0321596D01*
X0192280Y0323397D01*
X0188677Y0323397D01*
X0189278Y0320315D02*
X0188677Y0319714D01*
X0188677Y0318513D01*
X0189278Y0317913D01*
X0191680Y0317913D01*
X0192280Y0318513D01*
X0192280Y0319714D01*
X0191680Y0320315D01*
X0178777Y0329663D02*
X0178777Y0333266D01*
X0176975Y0333266D01*
X0176375Y0332665D01*
X0176375Y0331464D01*
X0176975Y0330864D01*
X0178777Y0330864D01*
X0177576Y0330864D02*
X0176375Y0329663D01*
X0175094Y0330263D02*
X0174493Y0329663D01*
X0173292Y0329663D01*
X0172692Y0330263D01*
X0172692Y0330864D01*
X0173292Y0331464D01*
X0173893Y0331464D01*
X0173292Y0331464D02*
X0172692Y0332065D01*
X0172692Y0332665D01*
X0173292Y0333266D01*
X0174493Y0333266D01*
X0175094Y0332665D01*
X0171411Y0332665D02*
X0171411Y0332065D01*
X0170810Y0331464D01*
X0169609Y0331464D01*
X0169009Y0330864D01*
X0169009Y0330263D01*
X0169609Y0329663D01*
X0170810Y0329663D01*
X0171411Y0330263D01*
X0171411Y0330864D01*
X0170810Y0331464D01*
X0169609Y0331464D02*
X0169009Y0332065D01*
X0169009Y0332665D01*
X0169609Y0333266D01*
X0170810Y0333266D01*
X0171411Y0332665D01*
X0148467Y0329250D02*
X0146666Y0327448D01*
X0146666Y0329850D01*
X0148467Y0329250D02*
X0144864Y0329250D01*
X0144864Y0326167D02*
X0144864Y0323765D01*
X0144864Y0324966D02*
X0148467Y0324966D01*
X0147266Y0323765D01*
X0147867Y0322484D02*
X0148467Y0321883D01*
X0148467Y0320082D01*
X0144864Y0320082D01*
X0144864Y0321883D01*
X0145465Y0322484D01*
X0147867Y0322484D01*
X0160028Y0309131D02*
X0159427Y0308531D01*
X0159427Y0307330D01*
X0160028Y0306729D01*
X0161229Y0306729D02*
X0161829Y0307930D01*
X0161829Y0308531D01*
X0161229Y0309131D01*
X0160028Y0309131D01*
X0161229Y0306729D02*
X0163030Y0306729D01*
X0163030Y0309131D01*
X0162430Y0305448D02*
X0161829Y0305448D01*
X0161229Y0304848D01*
X0160628Y0305448D01*
X0160028Y0305448D01*
X0159427Y0304848D01*
X0159427Y0303647D01*
X0160028Y0303046D01*
X0159427Y0301765D02*
X0160628Y0300564D01*
X0160628Y0301165D02*
X0160628Y0299363D01*
X0159427Y0299363D02*
X0163030Y0299363D01*
X0163030Y0301165D01*
X0162430Y0301765D01*
X0161229Y0301765D01*
X0160628Y0301165D01*
X0162430Y0303046D02*
X0163030Y0303647D01*
X0163030Y0304848D01*
X0162430Y0305448D01*
X0161229Y0304848D02*
X0161229Y0304247D01*
X0154030Y0298381D02*
X0153430Y0298381D01*
X0151028Y0295979D01*
X0150427Y0295979D01*
X0151028Y0294698D02*
X0150427Y0294098D01*
X0150427Y0292897D01*
X0151028Y0292296D01*
X0150427Y0291015D02*
X0151628Y0289814D01*
X0151628Y0290415D02*
X0151628Y0288613D01*
X0150427Y0288613D02*
X0154030Y0288613D01*
X0154030Y0290415D01*
X0153430Y0291015D01*
X0152229Y0291015D01*
X0151628Y0290415D01*
X0153430Y0292296D02*
X0154030Y0292897D01*
X0154030Y0294098D01*
X0153430Y0294698D01*
X0152829Y0294698D01*
X0152229Y0294098D01*
X0151628Y0294698D01*
X0151028Y0294698D01*
X0152229Y0294098D02*
X0152229Y0293497D01*
X0154030Y0295979D02*
X0154030Y0298381D01*
X0169028Y0283181D02*
X0171430Y0283181D01*
X0172030Y0282580D01*
X0172030Y0281379D01*
X0171430Y0280779D01*
X0170829Y0280779D01*
X0170229Y0281379D01*
X0170229Y0283181D01*
X0169028Y0283181D02*
X0168427Y0282580D01*
X0168427Y0281379D01*
X0169028Y0280779D01*
X0169028Y0279498D02*
X0168427Y0278897D01*
X0168427Y0277696D01*
X0169028Y0277096D01*
X0168427Y0275815D02*
X0169628Y0274614D01*
X0169628Y0275214D02*
X0169628Y0273413D01*
X0168427Y0273413D02*
X0172030Y0273413D01*
X0172030Y0275214D01*
X0171430Y0275815D01*
X0170229Y0275815D01*
X0169628Y0275214D01*
X0171430Y0277096D02*
X0172030Y0277696D01*
X0172030Y0278897D01*
X0171430Y0279498D01*
X0170829Y0279498D01*
X0170229Y0278897D01*
X0169628Y0279498D01*
X0169028Y0279498D01*
X0170229Y0278897D02*
X0170229Y0278297D01*
X0177778Y0265381D02*
X0178378Y0265381D01*
X0178979Y0264781D01*
X0178979Y0262979D01*
X0177778Y0262979D01*
X0177177Y0263580D01*
X0177177Y0264781D01*
X0177778Y0265381D01*
X0180180Y0264180D02*
X0178979Y0262979D01*
X0179579Y0261698D02*
X0178979Y0261098D01*
X0178378Y0261698D01*
X0177778Y0261698D01*
X0177177Y0261098D01*
X0177177Y0259897D01*
X0177778Y0259296D01*
X0177177Y0258015D02*
X0178378Y0256814D01*
X0178378Y0257415D02*
X0178378Y0255613D01*
X0177177Y0255613D02*
X0180780Y0255613D01*
X0180780Y0257415D01*
X0180180Y0258015D01*
X0178979Y0258015D01*
X0178378Y0257415D01*
X0180180Y0259296D02*
X0180780Y0259897D01*
X0180780Y0261098D01*
X0180180Y0261698D01*
X0179579Y0261698D01*
X0178979Y0261098D02*
X0178979Y0260497D01*
X0180180Y0264180D02*
X0180780Y0265381D01*
X0192677Y0265879D02*
X0193278Y0265279D01*
X0192677Y0265879D02*
X0192677Y0267080D01*
X0193278Y0267681D01*
X0193878Y0267681D01*
X0194479Y0267080D01*
X0194479Y0266480D01*
X0194479Y0267080D02*
X0195079Y0267681D01*
X0195680Y0267681D01*
X0196280Y0267080D01*
X0196280Y0265879D01*
X0195680Y0265279D01*
X0195680Y0263998D02*
X0195079Y0263998D01*
X0194479Y0263397D01*
X0193878Y0263998D01*
X0193278Y0263998D01*
X0192677Y0263397D01*
X0192677Y0262196D01*
X0193278Y0261596D01*
X0192677Y0260315D02*
X0193878Y0259114D01*
X0193878Y0259714D02*
X0193878Y0257913D01*
X0192677Y0257913D02*
X0196280Y0257913D01*
X0196280Y0259714D01*
X0195680Y0260315D01*
X0194479Y0260315D01*
X0193878Y0259714D01*
X0195680Y0261596D02*
X0196280Y0262196D01*
X0196280Y0263397D01*
X0195680Y0263998D01*
X0194479Y0263397D02*
X0194479Y0262797D01*
X0214677Y0246781D02*
X0215278Y0247381D01*
X0215878Y0247381D01*
X0216479Y0246781D01*
X0216479Y0246180D01*
X0216479Y0246781D02*
X0217079Y0247381D01*
X0217680Y0247381D01*
X0218280Y0246781D01*
X0218280Y0245580D01*
X0217680Y0244979D01*
X0216479Y0243698D02*
X0216479Y0241296D01*
X0218280Y0243098D01*
X0214677Y0243098D01*
X0215278Y0244979D02*
X0214677Y0245580D01*
X0214677Y0246781D01*
X0209777Y0245766D02*
X0207975Y0245766D01*
X0207375Y0245165D01*
X0207375Y0243964D01*
X0207975Y0243364D01*
X0209777Y0243364D01*
X0208576Y0243364D02*
X0207375Y0242163D01*
X0206094Y0242763D02*
X0205493Y0242163D01*
X0204292Y0242163D01*
X0203692Y0242763D01*
X0203692Y0243364D01*
X0204292Y0243964D01*
X0204893Y0243964D01*
X0204292Y0243964D02*
X0203692Y0244565D01*
X0203692Y0245165D01*
X0204292Y0245766D01*
X0205493Y0245766D01*
X0206094Y0245165D01*
X0209777Y0245766D02*
X0209777Y0242163D01*
X0214677Y0240015D02*
X0215878Y0238814D01*
X0215878Y0239415D02*
X0215878Y0237613D01*
X0214677Y0237613D02*
X0218280Y0237613D01*
X0218280Y0239415D01*
X0217680Y0240015D01*
X0216479Y0240015D01*
X0215878Y0239415D01*
X0222677Y0244363D02*
X0226280Y0244363D01*
X0226280Y0246165D01*
X0225680Y0246765D01*
X0224479Y0246765D01*
X0223878Y0246165D01*
X0223878Y0244363D01*
X0223878Y0245564D02*
X0222677Y0246765D01*
X0222677Y0248046D02*
X0225079Y0250448D01*
X0225680Y0250448D01*
X0226280Y0249848D01*
X0226280Y0248647D01*
X0225680Y0248046D01*
X0222677Y0248046D02*
X0222677Y0250448D01*
X0223278Y0251729D02*
X0222677Y0252330D01*
X0222677Y0253531D01*
X0223278Y0254131D01*
X0225680Y0254131D01*
X0226280Y0253531D01*
X0226280Y0252330D01*
X0225680Y0251729D01*
X0225079Y0251729D01*
X0224479Y0252330D01*
X0224479Y0254131D01*
X0230427Y0253281D02*
X0230427Y0252080D01*
X0231028Y0251479D01*
X0231628Y0251479D01*
X0232229Y0252080D01*
X0232229Y0253281D01*
X0231628Y0253881D01*
X0231028Y0253881D01*
X0230427Y0253281D01*
X0232229Y0253281D02*
X0232829Y0253881D01*
X0233430Y0253881D01*
X0234030Y0253281D01*
X0234030Y0252080D01*
X0233430Y0251479D01*
X0232829Y0251479D01*
X0232229Y0252080D01*
X0232829Y0250198D02*
X0230427Y0247796D01*
X0230427Y0250198D01*
X0232829Y0250198D02*
X0233430Y0250198D01*
X0234030Y0249598D01*
X0234030Y0248397D01*
X0233430Y0247796D01*
X0233430Y0246515D02*
X0232229Y0246515D01*
X0231628Y0245915D01*
X0231628Y0244113D01*
X0230427Y0244113D02*
X0234030Y0244113D01*
X0234030Y0245915D01*
X0233430Y0246515D01*
X0231628Y0245314D02*
X0230427Y0246515D01*
X0240427Y0247214D02*
X0241028Y0246613D01*
X0243430Y0246613D01*
X0244030Y0247214D01*
X0244030Y0248415D01*
X0243430Y0249015D01*
X0243430Y0250296D02*
X0244030Y0250897D01*
X0244030Y0252098D01*
X0243430Y0252698D01*
X0242829Y0252698D01*
X0240427Y0250296D01*
X0240427Y0252698D01*
X0241028Y0253979D02*
X0240427Y0254580D01*
X0240427Y0255781D01*
X0241028Y0256381D01*
X0243430Y0256381D01*
X0244030Y0255781D01*
X0244030Y0254580D01*
X0243430Y0253979D01*
X0242829Y0253979D01*
X0242229Y0254580D01*
X0242229Y0256381D01*
X0247927Y0257330D02*
X0248528Y0256729D01*
X0250930Y0259131D01*
X0248528Y0259131D01*
X0247927Y0258531D01*
X0247927Y0257330D01*
X0248528Y0256729D02*
X0250930Y0256729D01*
X0251530Y0257330D01*
X0251530Y0258531D01*
X0250930Y0259131D01*
X0250930Y0255448D02*
X0250329Y0255448D01*
X0249729Y0254848D01*
X0249128Y0255448D01*
X0248528Y0255448D01*
X0247927Y0254848D01*
X0247927Y0253647D01*
X0248528Y0253046D01*
X0248528Y0251765D02*
X0247927Y0251165D01*
X0247927Y0249964D01*
X0248528Y0249363D01*
X0250930Y0249363D01*
X0251530Y0249964D01*
X0251530Y0251165D01*
X0250930Y0251765D01*
X0250930Y0253046D02*
X0251530Y0253647D01*
X0251530Y0254848D01*
X0250930Y0255448D01*
X0249729Y0254848D02*
X0249729Y0254247D01*
X0241028Y0249015D02*
X0240427Y0248415D01*
X0240427Y0247214D01*
X0202411Y0243964D02*
X0200009Y0243964D01*
X0200609Y0242163D02*
X0200609Y0245766D01*
X0202411Y0243964D01*
X0219455Y0201516D02*
X0219455Y0197913D01*
X0219455Y0199714D02*
X0221858Y0199714D01*
X0223139Y0199114D02*
X0223139Y0198513D01*
X0223739Y0197913D01*
X0224940Y0197913D01*
X0225541Y0198513D01*
X0226822Y0198513D02*
X0226822Y0201516D01*
X0225541Y0200915D02*
X0225541Y0200315D01*
X0224940Y0199714D01*
X0223739Y0199714D01*
X0223139Y0199114D01*
X0221858Y0197913D02*
X0221858Y0201516D01*
X0223139Y0200915D02*
X0223739Y0201516D01*
X0224940Y0201516D01*
X0225541Y0200915D01*
X0226822Y0198513D02*
X0227422Y0197913D01*
X0228623Y0197913D01*
X0229224Y0198513D01*
X0229224Y0201516D01*
X0230505Y0200915D02*
X0230505Y0199714D01*
X0231105Y0199114D01*
X0232907Y0199114D01*
X0232907Y0197913D02*
X0232907Y0201516D01*
X0231105Y0201516D01*
X0230505Y0200915D01*
X0282759Y0163266D02*
X0282759Y0162665D01*
X0285161Y0160263D01*
X0285161Y0159663D01*
X0286442Y0160263D02*
X0287042Y0159663D01*
X0288243Y0159663D01*
X0288844Y0160263D01*
X0288844Y0161464D02*
X0287643Y0162065D01*
X0287042Y0162065D01*
X0286442Y0161464D01*
X0286442Y0160263D01*
X0288844Y0161464D02*
X0288844Y0163266D01*
X0286442Y0163266D01*
X0285161Y0163266D02*
X0282759Y0163266D01*
X0290125Y0162665D02*
X0290125Y0161464D01*
X0290725Y0160864D01*
X0292527Y0160864D01*
X0291326Y0160864D02*
X0290125Y0159663D01*
X0292527Y0159663D02*
X0292527Y0163266D01*
X0290725Y0163266D01*
X0290125Y0162665D01*
X0245527Y0141165D02*
X0245527Y0140565D01*
X0244927Y0139964D01*
X0243725Y0139964D01*
X0243125Y0139364D01*
X0243125Y0138763D01*
X0243725Y0138163D01*
X0244927Y0138163D01*
X0245527Y0138763D01*
X0245527Y0141165D02*
X0244927Y0141766D01*
X0243725Y0141766D01*
X0243125Y0141165D01*
X0241844Y0141766D02*
X0240042Y0141766D01*
X0239442Y0141165D01*
X0239442Y0139964D01*
X0240042Y0139364D01*
X0241844Y0139364D01*
X0240643Y0139364D02*
X0239442Y0138163D01*
X0238161Y0138163D02*
X0238161Y0141766D01*
X0235759Y0141766D01*
X0234478Y0141165D02*
X0234478Y0138763D01*
X0233877Y0138163D01*
X0232676Y0138163D01*
X0232076Y0138763D01*
X0230794Y0138163D02*
X0228392Y0140565D01*
X0228392Y0141165D01*
X0228993Y0141766D01*
X0230194Y0141766D01*
X0230794Y0141165D01*
X0232076Y0141165D02*
X0232676Y0141766D01*
X0233877Y0141766D01*
X0234478Y0141165D01*
X0236960Y0139964D02*
X0238161Y0139964D01*
X0238161Y0138163D02*
X0235759Y0138163D01*
X0230794Y0138163D02*
X0228392Y0138163D01*
X0241844Y0138163D02*
X0241844Y0141766D01*
X0137657Y0197913D02*
X0137657Y0201516D01*
X0135855Y0201516D01*
X0135255Y0200915D01*
X0135255Y0199714D01*
X0135855Y0199114D01*
X0137657Y0199114D01*
X0133974Y0198513D02*
X0133373Y0197913D01*
X0132172Y0197913D01*
X0131572Y0198513D01*
X0131572Y0201516D01*
X0130291Y0201516D02*
X0130291Y0197913D01*
X0127889Y0197913D01*
X0126608Y0197913D02*
X0124205Y0197913D01*
X0126608Y0197913D02*
X0126608Y0201516D01*
X0133974Y0201516D02*
X0133974Y0198513D01*
X0042530Y0201495D02*
X0038927Y0201495D01*
X0038927Y0199693D01*
X0039528Y0199093D01*
X0040729Y0199093D01*
X0041329Y0199693D01*
X0041329Y0201495D01*
X0040729Y0202776D02*
X0041329Y0203377D01*
X0041329Y0204578D01*
X0040729Y0205178D01*
X0040128Y0205178D01*
X0040128Y0202776D01*
X0039528Y0202776D02*
X0040729Y0202776D01*
X0039528Y0202776D02*
X0038927Y0203377D01*
X0038927Y0204578D01*
X0038927Y0206459D02*
X0039528Y0206459D01*
X0039528Y0207060D01*
X0038927Y0207060D01*
X0038927Y0206459D01*
X0040729Y0206459D02*
X0041329Y0206459D01*
X0041329Y0207060D01*
X0040729Y0207060D01*
X0040729Y0206459D01*
X0040729Y0211984D02*
X0039528Y0211984D01*
X0038927Y0212584D01*
X0038927Y0214386D01*
X0038327Y0214386D02*
X0041329Y0214386D01*
X0041329Y0212584D01*
X0040729Y0211984D01*
X0037726Y0213185D02*
X0037726Y0213785D01*
X0038327Y0214386D01*
X0038927Y0215667D02*
X0038927Y0216868D01*
X0038927Y0216268D02*
X0041329Y0216268D01*
X0041329Y0215667D01*
X0042530Y0216268D02*
X0043131Y0216268D01*
X0041329Y0218122D02*
X0041329Y0219323D01*
X0041930Y0218723D02*
X0039528Y0218723D01*
X0038927Y0219323D01*
X0038927Y0220578D02*
X0042530Y0220578D01*
X0041329Y0221178D02*
X0041329Y0222379D01*
X0040729Y0222980D01*
X0038927Y0222980D01*
X0039528Y0224261D02*
X0038927Y0224862D01*
X0038927Y0226663D01*
X0041329Y0226663D01*
X0041329Y0227944D02*
X0041329Y0229746D01*
X0040729Y0230346D01*
X0039528Y0230346D01*
X0038927Y0229746D01*
X0038927Y0227944D01*
X0042530Y0227944D01*
X0041329Y0224261D02*
X0039528Y0224261D01*
X0041329Y0221178D02*
X0040729Y0220578D01*
X0039528Y0231627D02*
X0039528Y0232228D01*
X0038927Y0232228D01*
X0038927Y0231627D01*
X0039528Y0231627D01*
X0039528Y0233469D02*
X0038927Y0234069D01*
X0038927Y0235871D01*
X0039528Y0237152D02*
X0038927Y0237753D01*
X0038927Y0238954D01*
X0039528Y0239554D01*
X0040729Y0239554D01*
X0041329Y0238954D01*
X0041329Y0237753D01*
X0040729Y0237152D01*
X0039528Y0237152D01*
X0041329Y0235871D02*
X0041329Y0234069D01*
X0040729Y0233469D01*
X0039528Y0233469D01*
X0038927Y0240835D02*
X0041329Y0240835D01*
X0041329Y0241436D01*
X0040729Y0242036D01*
X0041329Y0242637D01*
X0040729Y0243237D01*
X0038927Y0243237D01*
X0038927Y0242036D02*
X0040729Y0242036D01*
X0038927Y0244518D02*
X0042530Y0246920D01*
X0040729Y0248201D02*
X0041329Y0248802D01*
X0041329Y0250003D01*
X0040729Y0250604D01*
X0040128Y0250604D01*
X0040128Y0248201D01*
X0039528Y0248201D02*
X0040729Y0248201D01*
X0039528Y0248201D02*
X0038927Y0248802D01*
X0038927Y0250003D01*
X0039528Y0251885D02*
X0040729Y0251885D01*
X0041329Y0252485D01*
X0041329Y0253686D01*
X0040729Y0254287D01*
X0040128Y0254287D01*
X0040128Y0251885D01*
X0039528Y0251885D02*
X0038927Y0252485D01*
X0038927Y0253686D01*
X0038927Y0255568D02*
X0038927Y0257970D01*
X0040729Y0259251D02*
X0040729Y0261653D01*
X0040729Y0262934D02*
X0039528Y0262934D01*
X0038927Y0263535D01*
X0038927Y0264736D01*
X0039528Y0265336D01*
X0040729Y0265336D01*
X0041329Y0264736D01*
X0041329Y0263535D01*
X0040729Y0262934D01*
X0041329Y0266617D02*
X0041329Y0268419D01*
X0040729Y0269019D01*
X0039528Y0269019D01*
X0038927Y0268419D01*
X0038927Y0266617D01*
X0037726Y0266617D02*
X0041329Y0266617D01*
X0040729Y0270300D02*
X0041329Y0270901D01*
X0041329Y0272102D01*
X0040729Y0272702D01*
X0040128Y0272702D01*
X0040128Y0270300D01*
X0039528Y0270300D02*
X0040729Y0270300D01*
X0039528Y0270300D02*
X0038927Y0270901D01*
X0038927Y0272102D01*
X0038927Y0273983D02*
X0041329Y0273983D01*
X0041329Y0275785D01*
X0040729Y0276386D01*
X0038927Y0276386D01*
X0038927Y0277667D02*
X0042530Y0280069D01*
X0041930Y0281350D02*
X0039528Y0281350D01*
X0038927Y0281950D01*
X0038927Y0283151D01*
X0039528Y0283752D01*
X0038927Y0285033D02*
X0042530Y0285033D01*
X0042530Y0287435D01*
X0040729Y0286234D02*
X0040729Y0285033D01*
X0041930Y0283752D02*
X0042530Y0283151D01*
X0042530Y0281950D01*
X0041930Y0281350D01*
X0040729Y0288716D02*
X0040729Y0291118D01*
X0042530Y0292399D02*
X0042530Y0294201D01*
X0041930Y0294801D01*
X0039528Y0294801D01*
X0038927Y0294201D01*
X0038927Y0292399D01*
X0042530Y0292399D01*
X0042530Y0296082D02*
X0042530Y0297283D01*
X0042530Y0296683D02*
X0038927Y0296683D01*
X0038927Y0297283D02*
X0038927Y0296082D01*
X0039528Y0298538D02*
X0038927Y0299138D01*
X0038927Y0300339D01*
X0039528Y0300940D01*
X0041930Y0300940D02*
X0042530Y0300339D01*
X0042530Y0299138D01*
X0041930Y0298538D01*
X0039528Y0298538D01*
X0041329Y0257970D02*
X0038927Y0255568D01*
X0041329Y0255568D02*
X0041329Y0257970D01*
X0040729Y0197812D02*
X0041329Y0197211D01*
X0041329Y0196010D01*
X0040729Y0195410D01*
X0039528Y0195410D01*
X0038927Y0196010D01*
X0038927Y0197211D01*
X0039528Y0197812D01*
X0040729Y0197812D01*
X0041329Y0194129D02*
X0041329Y0192327D01*
X0040729Y0191727D01*
X0039528Y0191727D01*
X0038927Y0192327D01*
X0038927Y0194129D01*
X0040128Y0186762D02*
X0040128Y0184360D01*
X0039528Y0184360D02*
X0040729Y0184360D01*
X0041329Y0184961D01*
X0041329Y0186162D01*
X0040729Y0186762D01*
X0040128Y0186762D01*
X0038927Y0186162D02*
X0038927Y0184961D01*
X0039528Y0184360D01*
X0038927Y0183079D02*
X0038927Y0181278D01*
X0039528Y0180677D01*
X0040729Y0180677D01*
X0041329Y0181278D01*
X0041329Y0183079D01*
X0041329Y0179409D02*
X0041329Y0178809D01*
X0040128Y0177608D01*
X0038927Y0177608D02*
X0041329Y0177608D01*
X0041329Y0176327D02*
X0038927Y0176327D01*
X0038927Y0174525D01*
X0039528Y0173925D01*
X0041329Y0173925D01*
X0040729Y0172644D02*
X0041329Y0172043D01*
X0041329Y0170842D01*
X0040729Y0170242D01*
X0039528Y0170242D01*
X0038927Y0170842D01*
X0038927Y0172043D01*
X0039528Y0172644D01*
X0040729Y0172644D01*
X0041329Y0168960D02*
X0041329Y0167159D01*
X0040729Y0166558D01*
X0040128Y0167159D01*
X0040128Y0168360D01*
X0039528Y0168960D01*
X0038927Y0168360D01*
X0038927Y0166558D01*
X0038927Y0161621D02*
X0039528Y0161020D01*
X0041930Y0161020D01*
X0041329Y0160420D02*
X0041329Y0161621D01*
X0041329Y0159139D02*
X0041329Y0157337D01*
X0040729Y0156737D01*
X0039528Y0156737D01*
X0038927Y0157337D01*
X0038927Y0159139D01*
X0040128Y0155456D02*
X0040128Y0153054D01*
X0039528Y0153054D02*
X0040729Y0153054D01*
X0041329Y0153654D01*
X0041329Y0154855D01*
X0040729Y0155456D01*
X0040128Y0155456D01*
X0038927Y0154855D02*
X0038927Y0153654D01*
X0039528Y0153054D01*
X0038327Y0151799D02*
X0041329Y0151799D01*
X0042530Y0151799D02*
X0043131Y0151799D01*
X0040729Y0149317D02*
X0041329Y0148717D01*
X0041329Y0147516D01*
X0040729Y0146915D01*
X0039528Y0146915D01*
X0038927Y0147516D01*
X0038927Y0148717D01*
X0039528Y0149317D01*
X0040729Y0149317D01*
X0037726Y0150598D02*
X0037726Y0151199D01*
X0038327Y0151799D01*
X0041329Y0145647D02*
X0041329Y0145047D01*
X0040128Y0143846D01*
X0038927Y0143846D02*
X0041329Y0143846D01*
X0040729Y0142565D02*
X0040128Y0141964D01*
X0040128Y0140163D01*
X0038927Y0140163D02*
X0042530Y0140163D01*
X0042530Y0141964D01*
X0041930Y0142565D01*
X0040729Y0142565D01*
X0183114Y0289332D02*
X0183114Y0291133D01*
X0183715Y0291734D01*
X0186117Y0291734D01*
X0186717Y0291133D01*
X0186717Y0289332D01*
X0183114Y0289332D01*
X0183114Y0293015D02*
X0183114Y0295417D01*
X0183114Y0294216D02*
X0186717Y0294216D01*
X0185516Y0293015D01*
X0186117Y0296698D02*
X0186717Y0297299D01*
X0186717Y0298500D01*
X0186117Y0299100D01*
X0185516Y0299100D01*
X0184916Y0298500D01*
X0184315Y0299100D01*
X0183715Y0299100D01*
X0183114Y0298500D01*
X0183114Y0297299D01*
X0183715Y0296698D01*
X0184916Y0297899D02*
X0184916Y0298500D01*
X0182027Y0355163D02*
X0179625Y0355163D01*
X0178344Y0355763D02*
X0177743Y0355163D01*
X0176542Y0355163D01*
X0175942Y0355763D01*
X0175942Y0358165D01*
X0176542Y0358766D01*
X0177743Y0358766D01*
X0178344Y0358165D01*
X0178344Y0355763D01*
X0182027Y0355163D02*
X0182027Y0358766D01*
X0174661Y0356964D02*
X0172259Y0356964D01*
X0170978Y0357565D02*
X0170377Y0356964D01*
X0169176Y0356964D01*
X0168576Y0356364D01*
X0168576Y0355763D01*
X0169176Y0355163D01*
X0170377Y0355163D01*
X0170978Y0355763D01*
X0170978Y0357565D02*
X0170978Y0358165D01*
X0170377Y0358766D01*
X0169176Y0358766D01*
X0168576Y0358165D01*
X0167294Y0358766D02*
X0166093Y0358766D01*
X0166694Y0358766D02*
X0166694Y0355163D01*
X0167294Y0355163D02*
X0166093Y0355163D01*
X0164839Y0355163D02*
X0164839Y0358766D01*
X0163037Y0358766D01*
X0162437Y0358165D01*
X0162437Y0355763D01*
X0163037Y0355163D01*
X0164839Y0355163D01*
X0161156Y0355163D02*
X0158754Y0355163D01*
X0159955Y0356964D02*
X0161156Y0356964D01*
X0161156Y0355163D02*
X0161156Y0358766D01*
X0158754Y0358766D01*
X0349509Y0244766D02*
X0351911Y0244766D01*
X0351911Y0242964D01*
X0350710Y0243565D01*
X0350109Y0243565D01*
X0349509Y0242964D01*
X0349509Y0241763D01*
X0350109Y0241163D01*
X0351310Y0241163D01*
X0351911Y0241763D01*
X0353192Y0241763D02*
X0353792Y0241163D01*
X0354993Y0241163D01*
X0355594Y0241763D01*
X0355594Y0242964D02*
X0354393Y0243565D01*
X0353792Y0243565D01*
X0353192Y0242964D01*
X0353192Y0241763D01*
X0355594Y0242964D02*
X0355594Y0244766D01*
X0353192Y0244766D01*
X0356875Y0244165D02*
X0357475Y0244766D01*
X0358677Y0244766D01*
X0359277Y0244165D01*
X0359277Y0241763D01*
X0358677Y0241163D01*
X0357475Y0241163D01*
X0356875Y0241763D01*
X0400312Y0232413D02*
X0403381Y0232413D01*
X0404916Y0232413D02*
X0406450Y0233947D01*
X0405683Y0232413D02*
X0407218Y0232413D01*
X0407985Y0233180D01*
X0407985Y0236249D01*
X0407218Y0237017D01*
X0405683Y0237017D01*
X0404916Y0236249D01*
X0404916Y0233180D01*
X0405683Y0232413D01*
X0403381Y0235482D02*
X0401846Y0237017D01*
X0401846Y0232413D01*
X0425558Y0240464D02*
X0427960Y0240464D01*
X0426159Y0242266D01*
X0426159Y0238663D01*
X0429241Y0239263D02*
X0429842Y0238663D01*
X0431043Y0238663D01*
X0431643Y0239263D01*
X0431643Y0241665D01*
X0431043Y0242266D01*
X0429842Y0242266D01*
X0429241Y0241665D01*
X0428280Y0248796D02*
X0424677Y0248796D01*
X0425878Y0248796D02*
X0425878Y0250598D01*
X0426479Y0251198D01*
X0427680Y0251198D01*
X0428280Y0250598D01*
X0428280Y0248796D01*
X0425878Y0249997D02*
X0424677Y0251198D01*
X0426479Y0252479D02*
X0426479Y0254881D01*
X0428280Y0254281D02*
X0426479Y0252479D01*
X0428280Y0254281D02*
X0424677Y0254281D01*
X0425278Y0263163D02*
X0424677Y0263763D01*
X0424677Y0264964D01*
X0425278Y0265565D01*
X0425278Y0266846D02*
X0424677Y0267446D01*
X0424677Y0268647D01*
X0425278Y0269248D01*
X0425878Y0269248D01*
X0426479Y0268647D01*
X0426479Y0266846D01*
X0425278Y0266846D01*
X0426479Y0266846D02*
X0427680Y0268047D01*
X0428280Y0269248D01*
X0427680Y0265565D02*
X0428280Y0264964D01*
X0428280Y0263763D01*
X0427680Y0263163D01*
X0425278Y0263163D01*
X0412967Y0275582D02*
X0412967Y0277984D01*
X0412367Y0277984D01*
X0409965Y0275582D01*
X0409364Y0275582D01*
X0409364Y0277984D01*
X0409364Y0279265D02*
X0409364Y0281067D01*
X0409965Y0281667D01*
X0412367Y0281667D01*
X0412967Y0281067D01*
X0412967Y0279265D01*
X0409364Y0279265D01*
X0409364Y0282948D02*
X0409364Y0285350D01*
X0409364Y0284149D02*
X0412967Y0284149D01*
X0411766Y0282948D01*
X0456028Y0253029D02*
X0458430Y0255431D01*
X0459030Y0255431D01*
X0459030Y0253029D01*
X0458430Y0251748D02*
X0459030Y0251147D01*
X0459030Y0249946D01*
X0458430Y0249346D01*
X0458430Y0248065D02*
X0459030Y0247464D01*
X0459030Y0246263D01*
X0458430Y0245663D01*
X0456028Y0245663D01*
X0455427Y0246263D01*
X0455427Y0247464D01*
X0456028Y0248065D01*
X0455427Y0249346D02*
X0457829Y0251748D01*
X0458430Y0251748D01*
X0456028Y0253029D02*
X0455427Y0253029D01*
X0455427Y0251748D02*
X0455427Y0249346D01*
X0452780Y0248147D02*
X0452780Y0246946D01*
X0452180Y0246346D01*
X0452180Y0245065D02*
X0452780Y0244464D01*
X0452780Y0243263D01*
X0452180Y0242663D01*
X0449778Y0242663D01*
X0449177Y0243263D01*
X0449177Y0244464D01*
X0449778Y0245065D01*
X0449177Y0246346D02*
X0451579Y0248748D01*
X0452180Y0248748D01*
X0452780Y0248147D01*
X0451579Y0250029D02*
X0452780Y0251230D01*
X0449177Y0251230D01*
X0449177Y0250029D02*
X0449177Y0252431D01*
X0449177Y0248748D02*
X0449177Y0246346D01*
X0473677Y0245413D02*
X0477280Y0245413D01*
X0477280Y0247214D01*
X0476680Y0247815D01*
X0475479Y0247815D01*
X0474878Y0247214D01*
X0474878Y0245413D01*
X0474878Y0246614D02*
X0473677Y0247815D01*
X0473677Y0249096D02*
X0473677Y0251498D01*
X0473677Y0250297D02*
X0477280Y0250297D01*
X0476079Y0249096D01*
X0475479Y0252779D02*
X0475479Y0254580D01*
X0474878Y0255181D01*
X0474278Y0255181D01*
X0473677Y0254580D01*
X0473677Y0253379D01*
X0474278Y0252779D01*
X0475479Y0252779D01*
X0476680Y0253980D01*
X0477280Y0255181D01*
X0483159Y0233516D02*
X0484360Y0233516D01*
X0484960Y0232915D01*
X0484960Y0232315D01*
X0484360Y0231714D01*
X0482558Y0231714D01*
X0482558Y0230513D02*
X0482558Y0232915D01*
X0483159Y0233516D01*
X0482558Y0230513D02*
X0483159Y0229913D01*
X0484360Y0229913D01*
X0484960Y0230513D01*
X0486241Y0229913D02*
X0488643Y0229913D01*
X0487442Y0229913D02*
X0487442Y0233516D01*
X0488643Y0232315D01*
X0489924Y0232915D02*
X0489924Y0231714D01*
X0490525Y0231114D01*
X0492326Y0231114D01*
X0491125Y0231114D02*
X0489924Y0229913D01*
X0492326Y0229913D02*
X0492326Y0233516D01*
X0490525Y0233516D01*
X0489924Y0232915D01*
X0496028Y0217631D02*
X0495427Y0217031D01*
X0495427Y0215830D01*
X0496028Y0215229D01*
X0498430Y0217631D01*
X0496028Y0217631D01*
X0496028Y0215229D02*
X0498430Y0215229D01*
X0499030Y0215830D01*
X0499030Y0217031D01*
X0498430Y0217631D01*
X0498430Y0213948D02*
X0497829Y0213948D01*
X0495427Y0211546D01*
X0495427Y0213948D01*
X0498430Y0213948D02*
X0499030Y0213348D01*
X0499030Y0212147D01*
X0498430Y0211546D01*
X0498430Y0210265D02*
X0497229Y0210265D01*
X0496628Y0209665D01*
X0496628Y0207863D01*
X0495427Y0207863D02*
X0499030Y0207863D01*
X0499030Y0209665D01*
X0498430Y0210265D01*
X0496628Y0209064D02*
X0495427Y0210265D01*
X0485326Y0203915D02*
X0485326Y0201513D01*
X0484726Y0200913D01*
X0483525Y0200913D01*
X0482924Y0201513D01*
X0481643Y0200913D02*
X0479241Y0203315D01*
X0479241Y0203915D01*
X0479842Y0204516D01*
X0481043Y0204516D01*
X0481643Y0203915D01*
X0482924Y0203915D02*
X0483525Y0204516D01*
X0484726Y0204516D01*
X0485326Y0203915D01*
X0481643Y0200913D02*
X0479241Y0200913D01*
X0477960Y0201513D02*
X0477960Y0202114D01*
X0477360Y0202714D01*
X0476159Y0202714D01*
X0475558Y0202114D01*
X0475558Y0201513D01*
X0476159Y0200913D01*
X0477360Y0200913D01*
X0477960Y0201513D01*
X0477360Y0202714D02*
X0477960Y0203315D01*
X0477960Y0203915D01*
X0477360Y0204516D01*
X0476159Y0204516D01*
X0475558Y0203915D01*
X0475558Y0203315D01*
X0476159Y0202714D01*
X0492927Y0190881D02*
X0492927Y0188479D01*
X0492927Y0189680D02*
X0496530Y0189680D01*
X0495329Y0188479D01*
X0496530Y0187198D02*
X0494128Y0184796D01*
X0494729Y0185397D02*
X0492927Y0187198D01*
X0492927Y0184796D02*
X0496530Y0184796D01*
X0495930Y0183515D02*
X0496530Y0182915D01*
X0496530Y0181714D01*
X0495930Y0181113D01*
X0493528Y0181113D01*
X0492927Y0181714D01*
X0492927Y0182915D01*
X0493528Y0183515D01*
X0495930Y0183515D01*
X0533259Y0190915D02*
X0535661Y0188513D01*
X0535661Y0187913D01*
X0536942Y0187913D02*
X0539344Y0187913D01*
X0538143Y0187913D02*
X0538143Y0191516D01*
X0539344Y0190315D01*
X0540625Y0190915D02*
X0541225Y0191516D01*
X0542427Y0191516D01*
X0543027Y0190915D01*
X0543027Y0188513D01*
X0542427Y0187913D01*
X0541225Y0187913D01*
X0540625Y0188513D01*
X0535661Y0191516D02*
X0533259Y0191516D01*
X0533259Y0190915D01*
X0546509Y0187913D02*
X0548911Y0187913D01*
X0547710Y0187913D02*
X0547710Y0191516D01*
X0548911Y0190315D01*
X0550192Y0187913D02*
X0552594Y0187913D01*
X0551393Y0187913D02*
X0551393Y0191516D01*
X0552594Y0190315D01*
X0553875Y0190915D02*
X0553875Y0189714D01*
X0554475Y0189114D01*
X0556277Y0189114D01*
X0555076Y0189114D02*
X0553875Y0187913D01*
X0556277Y0187913D02*
X0556277Y0191516D01*
X0554475Y0191516D01*
X0553875Y0190915D01*
X0569189Y0176065D02*
X0569789Y0176065D01*
X0570990Y0174864D01*
X0570990Y0173663D02*
X0570990Y0176065D01*
X0572271Y0175464D02*
X0572872Y0176065D01*
X0574073Y0176065D01*
X0574673Y0175464D01*
X0574673Y0174263D01*
X0574073Y0173663D01*
X0572872Y0173663D01*
X0572271Y0174263D01*
X0572271Y0175464D01*
X0575928Y0176065D02*
X0577129Y0176065D01*
X0576528Y0176665D02*
X0576528Y0174263D01*
X0575928Y0173663D01*
X0578410Y0173663D02*
X0580211Y0173663D01*
X0580812Y0174263D01*
X0580812Y0175464D01*
X0580211Y0176065D01*
X0578410Y0176065D01*
X0582093Y0175464D02*
X0582093Y0174864D01*
X0584495Y0174864D01*
X0584495Y0175464D02*
X0583895Y0176065D01*
X0582693Y0176065D01*
X0582093Y0175464D01*
X0582693Y0173663D02*
X0583895Y0173663D01*
X0584495Y0174263D01*
X0584495Y0175464D01*
X0585776Y0175464D02*
X0585776Y0173663D01*
X0585776Y0175464D02*
X0586377Y0176065D01*
X0588178Y0176065D01*
X0588178Y0173663D01*
X0589459Y0173663D02*
X0589459Y0175464D01*
X0590060Y0176065D01*
X0591861Y0176065D01*
X0591861Y0173663D01*
X0593142Y0174263D02*
X0593142Y0175464D01*
X0593743Y0176065D01*
X0594944Y0176065D01*
X0595544Y0175464D01*
X0595544Y0174263D01*
X0594944Y0173663D01*
X0593743Y0173663D01*
X0593142Y0174263D01*
X0596826Y0173663D02*
X0598627Y0173663D01*
X0599228Y0174263D01*
X0599228Y0175464D01*
X0598627Y0176065D01*
X0596826Y0176065D01*
X0594911Y0169016D02*
X0594911Y0166614D01*
X0593710Y0165413D01*
X0592509Y0166614D01*
X0592509Y0169016D01*
X0591228Y0167214D02*
X0588826Y0167214D01*
X0588826Y0163016D02*
X0588826Y0159413D01*
X0591228Y0163016D01*
X0591228Y0159413D01*
X0592509Y0160013D02*
X0592509Y0161214D01*
X0593710Y0161214D01*
X0594911Y0162415D02*
X0594911Y0160013D01*
X0594310Y0159413D01*
X0593109Y0159413D01*
X0592509Y0160013D01*
X0592509Y0162415D02*
X0593109Y0163016D01*
X0594310Y0163016D01*
X0594911Y0162415D01*
X0599875Y0162415D02*
X0599875Y0161815D01*
X0600475Y0161214D01*
X0601677Y0161214D01*
X0602277Y0161815D01*
X0602277Y0162415D01*
X0601677Y0163016D01*
X0600475Y0163016D01*
X0599875Y0162415D01*
X0600475Y0161214D02*
X0599875Y0160614D01*
X0599875Y0160013D01*
X0600475Y0159413D01*
X0601677Y0159413D01*
X0602277Y0160013D01*
X0602277Y0160614D01*
X0601677Y0161214D01*
X0601677Y0165413D02*
X0600475Y0165413D01*
X0599875Y0166013D01*
X0599875Y0168415D01*
X0600475Y0169016D01*
X0601677Y0169016D01*
X0602277Y0168415D01*
X0602277Y0167815D01*
X0601677Y0167214D01*
X0599875Y0167214D01*
X0601677Y0165413D02*
X0602277Y0166013D01*
X0604192Y0173663D02*
X0606594Y0173663D01*
X0604192Y0176065D01*
X0604192Y0176665D01*
X0604792Y0177266D01*
X0605993Y0177266D01*
X0606594Y0176665D01*
X0607875Y0177266D02*
X0610277Y0173663D01*
X0607875Y0173663D02*
X0610277Y0177266D01*
X0587544Y0163016D02*
X0585743Y0163016D01*
X0585142Y0162415D01*
X0585142Y0160013D01*
X0585743Y0159413D01*
X0587544Y0159413D01*
X0587544Y0163016D01*
X0592509Y0157016D02*
X0592509Y0154614D01*
X0593710Y0153413D01*
X0594911Y0154614D01*
X0594911Y0157016D01*
X0591228Y0155214D02*
X0588826Y0155214D01*
X0590027Y0156415D02*
X0590027Y0154013D01*
X0590027Y0151016D02*
X0588826Y0149815D01*
X0588826Y0147413D01*
X0587544Y0148013D02*
X0586944Y0147413D01*
X0585743Y0147413D01*
X0585142Y0148013D01*
X0585142Y0151016D01*
X0583861Y0151016D02*
X0583861Y0147413D01*
X0581459Y0147413D01*
X0582060Y0145016D02*
X0581459Y0144415D01*
X0581459Y0142013D01*
X0582060Y0141413D01*
X0583261Y0141413D01*
X0583861Y0142013D01*
X0583861Y0144415D01*
X0583261Y0145016D01*
X0582060Y0145016D01*
X0580178Y0145016D02*
X0577776Y0141413D01*
X0577776Y0145016D01*
X0576495Y0143214D02*
X0574093Y0143214D01*
X0575294Y0144415D02*
X0575294Y0142013D01*
X0577776Y0139016D02*
X0577776Y0135413D01*
X0580178Y0139016D01*
X0580178Y0135413D01*
X0581459Y0136013D02*
X0582060Y0135413D01*
X0583261Y0135413D01*
X0583861Y0136013D01*
X0583861Y0138415D01*
X0583261Y0139016D01*
X0582060Y0139016D01*
X0581459Y0138415D01*
X0581459Y0136013D01*
X0581459Y0133016D02*
X0581459Y0130614D01*
X0582660Y0129413D01*
X0583861Y0130614D01*
X0583861Y0133016D01*
X0585142Y0132415D02*
X0585743Y0133016D01*
X0586944Y0133016D01*
X0587544Y0132415D01*
X0585142Y0132415D02*
X0585142Y0131815D01*
X0587544Y0129413D01*
X0585142Y0129413D01*
X0585142Y0127016D02*
X0585142Y0124614D01*
X0586343Y0123413D01*
X0587544Y0124614D01*
X0587544Y0127016D01*
X0588826Y0126415D02*
X0589426Y0127016D01*
X0590627Y0127016D01*
X0591228Y0126415D01*
X0588826Y0126415D02*
X0588826Y0125815D01*
X0591228Y0123413D01*
X0588826Y0123413D01*
X0590027Y0121016D02*
X0590027Y0117413D01*
X0591228Y0117413D02*
X0588826Y0117413D01*
X0587544Y0117413D02*
X0585142Y0119815D01*
X0585142Y0120415D01*
X0585743Y0121016D01*
X0586944Y0121016D01*
X0587544Y0120415D01*
X0590027Y0121016D02*
X0591228Y0119815D01*
X0592509Y0119214D02*
X0594911Y0119214D01*
X0593710Y0120415D02*
X0593710Y0118013D01*
X0593710Y0123413D02*
X0593710Y0127016D01*
X0594911Y0125815D01*
X0594911Y0123413D02*
X0592509Y0123413D01*
X0599875Y0123413D02*
X0602277Y0123413D01*
X0599875Y0125815D01*
X0599875Y0126415D01*
X0600475Y0127016D01*
X0601677Y0127016D01*
X0602277Y0126415D01*
X0601677Y0129413D02*
X0602277Y0130013D01*
X0601677Y0129413D02*
X0600475Y0129413D01*
X0599875Y0130013D01*
X0599875Y0130614D01*
X0600475Y0131214D01*
X0601076Y0131214D01*
X0600475Y0131214D02*
X0599875Y0131815D01*
X0599875Y0132415D01*
X0600475Y0133016D01*
X0601677Y0133016D01*
X0602277Y0132415D01*
X0600475Y0135413D02*
X0600475Y0139016D01*
X0602277Y0137214D01*
X0599875Y0137214D01*
X0600475Y0141413D02*
X0601677Y0141413D01*
X0602277Y0142013D01*
X0602277Y0143214D02*
X0601076Y0143815D01*
X0600475Y0143815D01*
X0599875Y0143214D01*
X0599875Y0142013D01*
X0600475Y0141413D01*
X0602277Y0143214D02*
X0602277Y0145016D01*
X0599875Y0145016D01*
X0600475Y0147413D02*
X0599875Y0148013D01*
X0599875Y0148614D01*
X0600475Y0149214D01*
X0602277Y0149214D01*
X0602277Y0148013D01*
X0601677Y0147413D01*
X0600475Y0147413D01*
X0602277Y0149214D02*
X0601076Y0150415D01*
X0599875Y0151016D01*
X0602277Y0153413D02*
X0602277Y0154013D01*
X0599875Y0156415D01*
X0599875Y0157016D01*
X0602277Y0157016D01*
X0595111Y0151813D02*
X0576695Y0151813D01*
X0577776Y0151016D02*
X0580178Y0151016D01*
X0578977Y0151016D02*
X0578977Y0147413D01*
X0580178Y0145016D02*
X0580178Y0141413D01*
X0585142Y0141413D02*
X0585142Y0145016D01*
X0586343Y0143815D01*
X0587544Y0145016D01*
X0587544Y0141413D01*
X0588826Y0140812D02*
X0591228Y0140812D01*
X0592509Y0142013D02*
X0592509Y0145016D01*
X0594911Y0145016D02*
X0594911Y0142013D01*
X0594310Y0141413D01*
X0593109Y0141413D01*
X0592509Y0142013D01*
X0592509Y0139016D02*
X0592509Y0136013D01*
X0593109Y0135413D01*
X0594310Y0135413D01*
X0594911Y0136013D01*
X0594911Y0139016D01*
X0591228Y0134812D02*
X0588826Y0134812D01*
X0587544Y0135413D02*
X0587544Y0139016D01*
X0586343Y0137815D01*
X0585142Y0139016D01*
X0585142Y0135413D01*
X0590027Y0133016D02*
X0590027Y0129413D01*
X0591228Y0129413D02*
X0588826Y0129413D01*
X0591228Y0131815D02*
X0590027Y0133016D01*
X0592509Y0131214D02*
X0594911Y0131214D01*
X0601076Y0121016D02*
X0601076Y0117413D01*
X0602277Y0117413D02*
X0599875Y0117413D01*
X0602277Y0119815D02*
X0601076Y0121016D01*
X0587544Y0117413D02*
X0585142Y0117413D01*
X0583861Y0118614D02*
X0583861Y0121016D01*
X0583861Y0122812D02*
X0581459Y0122812D01*
X0580178Y0124013D02*
X0579578Y0123413D01*
X0578377Y0123413D01*
X0577776Y0124013D01*
X0577776Y0125214D01*
X0578977Y0125214D01*
X0580178Y0126415D02*
X0580178Y0124013D01*
X0580178Y0126415D02*
X0579578Y0127016D01*
X0578377Y0127016D01*
X0577776Y0126415D01*
X0576495Y0127016D02*
X0574093Y0123413D01*
X0574093Y0127016D01*
X0572812Y0127016D02*
X0571010Y0127016D01*
X0570410Y0126415D01*
X0570410Y0124013D01*
X0571010Y0123413D01*
X0572812Y0123413D01*
X0572812Y0127016D01*
X0576495Y0127016D02*
X0576495Y0123413D01*
X0581459Y0121016D02*
X0581459Y0118614D01*
X0582660Y0117413D01*
X0583861Y0118614D01*
X0574527Y0108266D02*
X0572725Y0108266D01*
X0572125Y0107665D01*
X0572125Y0106464D01*
X0572725Y0105864D01*
X0574527Y0105864D01*
X0573326Y0105864D02*
X0572125Y0104663D01*
X0570844Y0104663D02*
X0570844Y0105263D01*
X0568442Y0107665D01*
X0568442Y0108266D01*
X0570844Y0108266D01*
X0574527Y0108266D02*
X0574527Y0104663D01*
X0570893Y0097516D02*
X0569092Y0097516D01*
X0568491Y0096915D01*
X0568491Y0095714D01*
X0569092Y0095114D01*
X0570893Y0095114D01*
X0569692Y0095114D02*
X0568491Y0093913D01*
X0567210Y0094513D02*
X0566610Y0093913D01*
X0565409Y0093913D01*
X0564808Y0094513D01*
X0564808Y0095114D01*
X0565409Y0095714D01*
X0567210Y0095714D01*
X0567210Y0094513D01*
X0567210Y0095714D02*
X0566009Y0096915D01*
X0564808Y0097516D01*
X0570893Y0097516D02*
X0570893Y0093913D01*
X0571393Y0088766D02*
X0569592Y0088766D01*
X0568991Y0088165D01*
X0568991Y0086964D01*
X0569592Y0086364D01*
X0571393Y0086364D01*
X0571393Y0085163D02*
X0571393Y0088766D01*
X0572674Y0088766D02*
X0573875Y0088766D01*
X0573275Y0088766D02*
X0573275Y0085763D01*
X0573875Y0085163D01*
X0574476Y0085163D01*
X0575076Y0085763D01*
X0567710Y0085763D02*
X0567110Y0085163D01*
X0565909Y0085163D01*
X0565308Y0085763D01*
X0565308Y0086364D01*
X0565909Y0086964D01*
X0566509Y0086964D01*
X0565909Y0086964D02*
X0565308Y0087565D01*
X0565308Y0088165D01*
X0565909Y0088766D01*
X0567110Y0088766D01*
X0567710Y0088165D01*
X0562677Y0077266D02*
X0563277Y0076665D01*
X0563277Y0074263D01*
X0562677Y0073663D01*
X0561475Y0073663D01*
X0560875Y0074263D01*
X0559594Y0074263D02*
X0558993Y0073663D01*
X0557792Y0073663D01*
X0557192Y0074263D01*
X0557192Y0074864D01*
X0557792Y0075464D01*
X0559594Y0075464D01*
X0559594Y0074263D01*
X0559594Y0075464D02*
X0558393Y0076665D01*
X0557192Y0077266D01*
X0555911Y0076665D02*
X0555911Y0076065D01*
X0555310Y0075464D01*
X0553509Y0075464D01*
X0553509Y0074263D02*
X0553509Y0076665D01*
X0554109Y0077266D01*
X0555310Y0077266D01*
X0555911Y0076665D01*
X0555911Y0074263D02*
X0555310Y0073663D01*
X0554109Y0073663D01*
X0553509Y0074263D01*
X0560875Y0076665D02*
X0561475Y0077266D01*
X0562677Y0077266D01*
X0573759Y0073663D02*
X0576161Y0073663D01*
X0574960Y0073663D02*
X0574960Y0077266D01*
X0576161Y0076065D01*
X0577442Y0077266D02*
X0578643Y0076665D01*
X0579844Y0075464D01*
X0578042Y0075464D01*
X0577442Y0074864D01*
X0577442Y0074263D01*
X0578042Y0073663D01*
X0579243Y0073663D01*
X0579844Y0074263D01*
X0579844Y0075464D01*
X0581125Y0074263D02*
X0581725Y0073663D01*
X0582927Y0073663D01*
X0583527Y0074263D01*
X0583527Y0076665D01*
X0582927Y0077266D01*
X0581725Y0077266D01*
X0581125Y0076665D01*
X0592558Y0076665D02*
X0592558Y0076065D01*
X0593159Y0075464D01*
X0594360Y0075464D01*
X0594960Y0076065D01*
X0594960Y0076665D01*
X0594360Y0077266D01*
X0593159Y0077266D01*
X0592558Y0076665D01*
X0593159Y0075464D02*
X0592558Y0074864D01*
X0592558Y0074263D01*
X0593159Y0073663D01*
X0594360Y0073663D01*
X0594960Y0074263D01*
X0594960Y0074864D01*
X0594360Y0075464D01*
X0596241Y0074864D02*
X0596842Y0075464D01*
X0598643Y0075464D01*
X0598643Y0074263D01*
X0598043Y0073663D01*
X0596842Y0073663D01*
X0596241Y0074263D01*
X0596241Y0074864D01*
X0597442Y0076665D02*
X0598643Y0075464D01*
X0597442Y0076665D02*
X0596241Y0077266D01*
X0599924Y0076665D02*
X0600525Y0077266D01*
X0601726Y0077266D01*
X0602326Y0076665D01*
X0602326Y0074263D01*
X0601726Y0073663D01*
X0600525Y0073663D01*
X0599924Y0074263D01*
X0582777Y0057165D02*
X0582177Y0057766D01*
X0580975Y0057766D01*
X0580375Y0057165D01*
X0579094Y0055964D02*
X0577292Y0055964D01*
X0576692Y0055364D01*
X0576692Y0054763D01*
X0577292Y0054163D01*
X0578493Y0054163D01*
X0579094Y0054763D01*
X0579094Y0055964D01*
X0577893Y0057165D01*
X0576692Y0057766D01*
X0575411Y0057165D02*
X0574810Y0057766D01*
X0573609Y0057766D01*
X0573009Y0057165D01*
X0573009Y0056565D01*
X0575411Y0054163D01*
X0573009Y0054163D01*
X0580375Y0054763D02*
X0580975Y0054163D01*
X0582177Y0054163D01*
X0582777Y0054763D01*
X0582777Y0057165D01*
X0515530Y0058163D02*
X0515530Y0059964D01*
X0514930Y0060565D01*
X0513729Y0060565D01*
X0513128Y0059964D01*
X0513128Y0058163D01*
X0513128Y0059364D02*
X0511927Y0060565D01*
X0511927Y0061846D02*
X0512528Y0061846D01*
X0514930Y0064248D01*
X0515530Y0064248D01*
X0515530Y0061846D01*
X0515530Y0058163D02*
X0511927Y0058163D01*
X0511927Y0065529D02*
X0511927Y0067931D01*
X0511927Y0066730D02*
X0515530Y0066730D01*
X0514329Y0065529D01*
X0476826Y0046266D02*
X0476826Y0042663D01*
X0476826Y0043864D02*
X0475025Y0043864D01*
X0474424Y0044464D01*
X0474424Y0045665D01*
X0475025Y0046266D01*
X0476826Y0046266D01*
X0475625Y0043864D02*
X0474424Y0042663D01*
X0473143Y0043263D02*
X0472543Y0042663D01*
X0471342Y0042663D01*
X0470741Y0043263D01*
X0470741Y0043864D01*
X0471342Y0044464D01*
X0473143Y0044464D01*
X0473143Y0043263D01*
X0473143Y0044464D02*
X0471942Y0045665D01*
X0470741Y0046266D01*
X0469460Y0044464D02*
X0467659Y0044464D01*
X0467058Y0043864D01*
X0467058Y0043263D01*
X0467659Y0042663D01*
X0468860Y0042663D01*
X0469460Y0043263D01*
X0469460Y0044464D01*
X0468259Y0045665D01*
X0467058Y0046266D01*
X0455277Y0093163D02*
X0455277Y0096766D01*
X0453475Y0096766D01*
X0452875Y0096165D01*
X0452875Y0094964D01*
X0453475Y0094364D01*
X0455277Y0094364D01*
X0454076Y0094364D02*
X0452875Y0093163D01*
X0451594Y0093163D02*
X0449192Y0093163D01*
X0450393Y0093163D02*
X0450393Y0096766D01*
X0451594Y0095565D01*
X0447911Y0096165D02*
X0447310Y0096766D01*
X0446109Y0096766D01*
X0445509Y0096165D01*
X0447911Y0093763D01*
X0447310Y0093163D01*
X0446109Y0093163D01*
X0445509Y0093763D01*
X0445509Y0096165D01*
X0443527Y0096165D02*
X0443527Y0093763D01*
X0442927Y0093163D01*
X0441725Y0093163D01*
X0441125Y0093763D01*
X0439844Y0093163D02*
X0437442Y0093163D01*
X0438643Y0093163D02*
X0438643Y0096766D01*
X0439844Y0095565D01*
X0441125Y0096165D02*
X0441725Y0096766D01*
X0442927Y0096766D01*
X0443527Y0096165D01*
X0447911Y0096165D02*
X0447911Y0093763D01*
X0436161Y0093763D02*
X0435560Y0093163D01*
X0434359Y0093163D01*
X0433759Y0093763D01*
X0433759Y0094964D01*
X0434359Y0095565D01*
X0434960Y0095565D01*
X0436161Y0094964D01*
X0436161Y0096766D01*
X0433759Y0096766D01*
X0479740Y0128194D02*
X0479740Y0130596D01*
X0479740Y0131877D02*
X0479740Y0133679D01*
X0480341Y0134279D01*
X0482743Y0134279D01*
X0483343Y0133679D01*
X0483343Y0131877D01*
X0479740Y0131877D01*
X0482743Y0130596D02*
X0480341Y0128194D01*
X0479740Y0128194D01*
X0483343Y0128194D02*
X0483343Y0130596D01*
X0482743Y0130596D01*
X0482743Y0135560D02*
X0483343Y0136161D01*
X0483343Y0137362D01*
X0482743Y0137962D01*
X0482142Y0137962D01*
X0481542Y0137362D01*
X0480941Y0137962D01*
X0480341Y0137962D01*
X0479740Y0137362D01*
X0479740Y0136161D01*
X0480341Y0135560D01*
X0481542Y0136761D02*
X0481542Y0137362D01*
X0488177Y0137479D02*
X0488177Y0139881D01*
X0488177Y0138680D02*
X0491780Y0138680D01*
X0490579Y0137479D01*
X0490579Y0136198D02*
X0491180Y0136198D01*
X0491780Y0135598D01*
X0491780Y0134397D01*
X0491180Y0133796D01*
X0491180Y0132515D02*
X0489979Y0132515D01*
X0489378Y0131915D01*
X0489378Y0130113D01*
X0488177Y0130113D02*
X0491780Y0130113D01*
X0491780Y0131915D01*
X0491180Y0132515D01*
X0489378Y0131314D02*
X0488177Y0132515D01*
X0488177Y0133796D02*
X0490579Y0136198D01*
X0488177Y0136198D02*
X0488177Y0133796D01*
X0495677Y0133997D02*
X0499280Y0133997D01*
X0498079Y0132796D01*
X0497479Y0131515D02*
X0496878Y0130915D01*
X0496878Y0129113D01*
X0495677Y0129113D02*
X0499280Y0129113D01*
X0499280Y0130915D01*
X0498680Y0131515D01*
X0497479Y0131515D01*
X0496878Y0130314D02*
X0495677Y0131515D01*
X0495677Y0132796D02*
X0495677Y0135198D01*
X0495677Y0136479D02*
X0496278Y0136479D01*
X0498680Y0138881D01*
X0499280Y0138881D01*
X0499280Y0136479D01*
X0536007Y0142614D02*
X0536007Y0143815D01*
X0537208Y0145016D01*
X0538489Y0145016D02*
X0538489Y0142614D01*
X0539690Y0141413D01*
X0540891Y0142614D01*
X0540891Y0145016D01*
X0542172Y0145016D02*
X0544574Y0145016D01*
X0544574Y0143214D01*
X0543373Y0143815D01*
X0542773Y0143815D01*
X0542172Y0143214D01*
X0542172Y0142013D01*
X0542773Y0141413D01*
X0543974Y0141413D01*
X0544574Y0142013D01*
X0545816Y0142013D02*
X0545816Y0141413D01*
X0546416Y0141413D01*
X0546416Y0142013D01*
X0545816Y0142013D01*
X0547697Y0141413D02*
X0550099Y0141413D01*
X0547697Y0143815D01*
X0547697Y0144415D01*
X0548298Y0145016D01*
X0549499Y0145016D01*
X0550099Y0144415D01*
X0555023Y0142013D02*
X0555023Y0141413D01*
X0555624Y0141413D01*
X0555624Y0142013D01*
X0555023Y0142013D01*
X0556905Y0141413D02*
X0559307Y0143815D01*
X0560588Y0143214D02*
X0560588Y0141413D01*
X0562390Y0141413D01*
X0562990Y0142013D01*
X0562390Y0142614D01*
X0560588Y0142614D01*
X0560588Y0143214D02*
X0561189Y0143815D01*
X0562390Y0143815D01*
X0564271Y0143214D02*
X0564271Y0141413D01*
X0565472Y0141413D02*
X0565472Y0143214D01*
X0564872Y0143815D01*
X0564271Y0143214D01*
X0565472Y0143214D02*
X0566073Y0143815D01*
X0566673Y0143815D01*
X0566673Y0141413D01*
X0567928Y0141413D02*
X0569129Y0142614D01*
X0569129Y0143815D01*
X0567928Y0145016D01*
X0559307Y0141413D02*
X0556905Y0143815D01*
X0574093Y0137214D02*
X0576495Y0137214D01*
X0587544Y0148013D02*
X0587544Y0151016D01*
X0588826Y0149214D02*
X0591228Y0149214D01*
X0591228Y0149815D02*
X0590027Y0151016D01*
X0591228Y0149815D02*
X0591228Y0147413D01*
X0593710Y0149214D02*
X0594911Y0149214D01*
X0594911Y0147413D02*
X0594911Y0151016D01*
X0592509Y0151016D01*
X0537208Y0141413D02*
X0536007Y0142614D01*
X0397108Y0206350D02*
X0395306Y0206350D01*
X0394706Y0206950D01*
X0394706Y0209352D01*
X0395306Y0209953D01*
X0397108Y0209953D01*
X0397108Y0206350D01*
X0393425Y0206350D02*
X0393425Y0206950D01*
X0391023Y0209352D01*
X0391023Y0209953D01*
X0393425Y0209953D01*
X0590435Y0300714D02*
X0594038Y0300714D01*
X0594038Y0302515D01*
X0593437Y0303116D01*
X0592236Y0303116D01*
X0591636Y0302515D01*
X0591636Y0300714D01*
X0591636Y0301915D02*
X0590435Y0303116D01*
X0591035Y0304397D02*
X0590435Y0304997D01*
X0590435Y0306198D01*
X0591035Y0306799D01*
X0591636Y0306799D01*
X0592236Y0306198D01*
X0592236Y0305598D01*
X0592236Y0306198D02*
X0592837Y0306799D01*
X0593437Y0306799D01*
X0594038Y0306198D01*
X0594038Y0304997D01*
X0593437Y0304397D01*
X0594038Y0320714D02*
X0590435Y0320714D01*
X0591636Y0320714D02*
X0591636Y0322515D01*
X0592236Y0323116D01*
X0593437Y0323116D01*
X0594038Y0322515D01*
X0594038Y0320714D01*
X0591636Y0321915D02*
X0590435Y0323116D01*
X0590435Y0324397D02*
X0592837Y0326799D01*
X0593437Y0326799D01*
X0594038Y0326198D01*
X0594038Y0324997D01*
X0593437Y0324397D01*
X0590435Y0324397D02*
X0590435Y0326799D01*
X0373530Y0082830D02*
X0371729Y0081029D01*
X0371729Y0083431D01*
X0373530Y0082830D02*
X0369927Y0082830D01*
X0370528Y0079748D02*
X0369927Y0079147D01*
X0369927Y0077946D01*
X0370528Y0077346D01*
X0371128Y0077346D01*
X0371729Y0077946D01*
X0371729Y0079147D01*
X0371128Y0079748D01*
X0370528Y0079748D01*
X0371729Y0079147D02*
X0372329Y0079748D01*
X0372930Y0079748D01*
X0373530Y0079147D01*
X0373530Y0077946D01*
X0372930Y0077346D01*
X0372329Y0077346D01*
X0371729Y0077946D01*
X0371729Y0076065D02*
X0371128Y0075464D01*
X0371128Y0073663D01*
X0371128Y0074864D02*
X0369927Y0076065D01*
X0371729Y0076065D02*
X0372930Y0076065D01*
X0373530Y0075464D01*
X0373530Y0073663D01*
X0369927Y0073663D01*
X0370528Y0067681D02*
X0369927Y0067080D01*
X0369927Y0065879D01*
X0370528Y0065279D01*
X0372930Y0067681D01*
X0370528Y0067681D01*
X0372930Y0067681D02*
X0373530Y0067080D01*
X0373530Y0065879D01*
X0372930Y0065279D01*
X0370528Y0065279D01*
X0370528Y0063998D02*
X0369927Y0063397D01*
X0369927Y0062196D01*
X0370528Y0061596D01*
X0371128Y0061596D01*
X0371729Y0062196D01*
X0371729Y0063397D01*
X0371128Y0063998D01*
X0370528Y0063998D01*
X0371729Y0063397D02*
X0372329Y0063998D01*
X0372930Y0063998D01*
X0373530Y0063397D01*
X0373530Y0062196D01*
X0372930Y0061596D01*
X0372329Y0061596D01*
X0371729Y0062196D01*
X0371729Y0060315D02*
X0371128Y0059714D01*
X0371128Y0057913D01*
X0371128Y0059114D02*
X0369927Y0060315D01*
X0371729Y0060315D02*
X0372930Y0060315D01*
X0373530Y0059714D01*
X0373530Y0057913D01*
X0369927Y0057913D01*
X0349780Y0058513D02*
X0349180Y0057913D01*
X0346778Y0057913D01*
X0346177Y0058513D01*
X0346177Y0059714D01*
X0346778Y0060315D01*
X0346778Y0061596D02*
X0346177Y0061596D01*
X0346778Y0061596D02*
X0349180Y0063998D01*
X0349780Y0063998D01*
X0349780Y0061596D01*
X0349180Y0060315D02*
X0349780Y0059714D01*
X0349780Y0058513D01*
X0349180Y0065279D02*
X0349780Y0065879D01*
X0349780Y0067080D01*
X0349180Y0067681D01*
X0348579Y0067681D01*
X0346177Y0065279D01*
X0346177Y0067681D01*
X0346177Y0072913D02*
X0349780Y0072913D01*
X0349780Y0074714D01*
X0349180Y0075315D01*
X0347979Y0075315D01*
X0347378Y0074714D01*
X0347378Y0072913D01*
X0347378Y0074114D02*
X0346177Y0075315D01*
X0346778Y0076596D02*
X0346177Y0077196D01*
X0346177Y0078397D01*
X0346778Y0078998D01*
X0347378Y0078998D01*
X0347979Y0078397D01*
X0347979Y0077196D01*
X0348579Y0076596D01*
X0349180Y0076596D01*
X0349780Y0077196D01*
X0349780Y0078397D01*
X0349180Y0078998D01*
X0348579Y0078998D01*
X0347979Y0078397D01*
X0347979Y0077196D02*
X0347378Y0076596D01*
X0346778Y0076596D01*
X0346778Y0080279D02*
X0346177Y0080879D01*
X0346177Y0082080D01*
X0346778Y0082681D01*
X0347378Y0082681D01*
X0347979Y0082080D01*
X0347979Y0081480D01*
X0347979Y0082080D02*
X0348579Y0082681D01*
X0349180Y0082681D01*
X0349780Y0082080D01*
X0349780Y0080879D01*
X0349180Y0080279D01*
D11*
X0350607Y0085730D02*
X0358347Y0085730D01*
X0358347Y0070195D01*
X0350607Y0070195D01*
X0350607Y0085730D01*
X0361357Y0085730D02*
X0369097Y0085730D01*
X0369097Y0070195D01*
X0361357Y0070195D01*
X0361357Y0085730D01*
X0361357Y0070230D02*
X0369097Y0070230D01*
X0369097Y0054695D01*
X0361357Y0054695D01*
X0361357Y0070230D01*
X0358347Y0070230D02*
X0350607Y0070230D01*
X0350607Y0054695D01*
X0358347Y0054695D01*
X0358347Y0070230D01*
X0336154Y0096463D02*
X0334653Y0096463D01*
X0335404Y0096463D02*
X0335404Y0100966D01*
X0336154Y0100966D02*
X0334653Y0100966D01*
X0333085Y0100216D02*
X0333085Y0097213D01*
X0332334Y0096463D01*
X0330833Y0096463D01*
X0330082Y0097213D01*
X0328481Y0097213D02*
X0328481Y0096463D01*
X0328481Y0097213D02*
X0325478Y0100216D01*
X0325478Y0100966D01*
X0328481Y0100966D01*
X0330082Y0100216D02*
X0330833Y0100966D01*
X0332334Y0100966D01*
X0333085Y0100216D01*
X0314495Y0100593D02*
X0314495Y0108333D01*
X0298959Y0108333D01*
X0298959Y0100593D01*
X0314495Y0100593D01*
X0314495Y0108343D02*
X0298959Y0108343D01*
X0298959Y0116083D01*
X0314495Y0116083D01*
X0314495Y0108343D01*
X0314526Y0116093D02*
X0301928Y0116093D01*
X0301928Y0122833D01*
X0314526Y0122833D01*
X0314526Y0116093D01*
X0316209Y0124093D02*
X0316209Y0131833D01*
X0331745Y0131833D01*
X0331745Y0124093D01*
X0316209Y0124093D01*
X0305977Y0130463D02*
X0303477Y0130463D01*
X0304727Y0131713D02*
X0304727Y0129213D01*
X0302963Y0126093D02*
X0302963Y0134833D01*
X0283491Y0134833D01*
X0283491Y0126093D01*
X0302963Y0126093D01*
X0316209Y0131843D02*
X0316209Y0139583D01*
X0331745Y0139583D01*
X0331745Y0131843D01*
X0316209Y0131843D01*
X0331857Y0124195D02*
X0339597Y0124195D01*
X0339597Y0139730D01*
X0331857Y0139730D01*
X0331857Y0124195D01*
X0288995Y0107333D02*
X0288995Y0099593D01*
X0273459Y0099593D01*
X0273459Y0107333D01*
X0288995Y0107333D01*
X0286026Y0099583D02*
X0273428Y0099583D01*
X0273428Y0092843D01*
X0286026Y0092843D01*
X0286026Y0099583D01*
X0292963Y0092833D02*
X0273491Y0092833D01*
X0273491Y0083593D01*
X0292963Y0083593D01*
X0292963Y0092833D01*
X0239522Y0074602D02*
X0239522Y0071600D01*
X0238771Y0070849D01*
X0237270Y0070849D01*
X0236519Y0071600D01*
X0236519Y0074602D01*
X0237270Y0075353D01*
X0238771Y0075353D01*
X0239522Y0074602D01*
X0238020Y0072350D02*
X0236519Y0070849D01*
X0234918Y0070849D02*
X0234918Y0071600D01*
X0231915Y0074602D01*
X0231915Y0075353D01*
X0234918Y0075353D01*
X0234348Y0120030D02*
X0235099Y0120781D01*
X0235099Y0121532D01*
X0234348Y0122282D01*
X0232847Y0122282D01*
X0232096Y0121532D01*
X0232096Y0120781D01*
X0232847Y0120030D01*
X0234348Y0120030D01*
X0234348Y0122282D02*
X0235099Y0123033D01*
X0235099Y0123784D01*
X0234348Y0124534D01*
X0232847Y0124534D01*
X0232096Y0123784D01*
X0232096Y0123033D01*
X0232847Y0122282D01*
X0236700Y0120781D02*
X0237451Y0120030D01*
X0238952Y0120030D01*
X0239703Y0120781D01*
X0239703Y0123784D01*
X0238952Y0124534D01*
X0237451Y0124534D01*
X0236700Y0123784D01*
X0236700Y0120781D01*
X0236700Y0120030D02*
X0238201Y0121532D01*
X0293459Y0157343D02*
X0293459Y0165083D01*
X0308995Y0165083D01*
X0308995Y0157343D01*
X0293459Y0157343D01*
X0293459Y0165093D02*
X0293459Y0172833D01*
X0308995Y0172833D01*
X0308995Y0165093D01*
X0293459Y0165093D01*
X0293459Y0172843D02*
X0293459Y0180583D01*
X0308995Y0180583D01*
X0308995Y0172843D01*
X0293459Y0172843D01*
X0293459Y0180593D02*
X0293459Y0188333D01*
X0308995Y0188333D01*
X0308995Y0180593D01*
X0293459Y0180593D01*
X0293459Y0188343D02*
X0293459Y0196083D01*
X0308995Y0196083D01*
X0308995Y0188343D01*
X0293459Y0188343D01*
X0293459Y0196093D02*
X0308995Y0196093D01*
X0308995Y0203833D01*
X0293459Y0203833D01*
X0293459Y0196093D01*
X0293459Y0203843D02*
X0308995Y0203843D01*
X0308995Y0211583D01*
X0293459Y0211583D01*
X0293459Y0203843D01*
X0307607Y0213195D02*
X0315347Y0213195D01*
X0315347Y0228730D01*
X0307607Y0228730D01*
X0307607Y0213195D01*
X0307597Y0216163D02*
X0300857Y0216163D01*
X0300857Y0228762D01*
X0307597Y0228762D01*
X0307597Y0216163D01*
X0315357Y0213195D02*
X0323097Y0213195D01*
X0323097Y0228730D01*
X0315357Y0228730D01*
X0315357Y0213195D01*
X0334709Y0213333D02*
X0334709Y0205593D01*
X0350245Y0205593D01*
X0350245Y0213333D01*
X0334709Y0213333D01*
X0342209Y0205583D02*
X0342209Y0197843D01*
X0357745Y0197843D01*
X0357745Y0205583D01*
X0342209Y0205583D01*
X0345178Y0197833D02*
X0345178Y0191093D01*
X0357776Y0191093D01*
X0357776Y0197833D01*
X0345178Y0197833D01*
X0345178Y0191083D02*
X0345178Y0184343D01*
X0357776Y0184343D01*
X0357776Y0191083D01*
X0345178Y0191083D01*
X0342209Y0184333D02*
X0342209Y0176593D01*
X0357745Y0176593D01*
X0357745Y0184333D01*
X0342209Y0184333D01*
X0338847Y0170730D02*
X0331107Y0170730D01*
X0331107Y0155195D01*
X0338847Y0155195D01*
X0338847Y0170730D01*
X0324597Y0170980D02*
X0316857Y0170980D01*
X0316857Y0155445D01*
X0324597Y0155445D01*
X0324597Y0170980D01*
X0375107Y0171980D02*
X0375107Y0156445D01*
X0382847Y0156445D01*
X0382847Y0171980D01*
X0375107Y0171980D01*
X0373857Y0137730D02*
X0381597Y0137730D01*
X0381597Y0122195D01*
X0373857Y0122195D01*
X0373857Y0137730D01*
X0429209Y0092333D02*
X0429209Y0084593D01*
X0444745Y0084593D01*
X0444745Y0092333D01*
X0429209Y0092333D01*
X0444709Y0092333D02*
X0444709Y0084593D01*
X0460245Y0084593D01*
X0460245Y0092333D01*
X0444709Y0092333D01*
X0510357Y0056730D02*
X0518097Y0056730D01*
X0518097Y0041195D01*
X0510357Y0041195D01*
X0510357Y0056730D01*
X0521138Y0051199D02*
X0533816Y0051199D01*
X0533816Y0031726D01*
X0521138Y0031726D01*
X0521138Y0051199D01*
X0522857Y0051226D02*
X0532097Y0051226D01*
X0532097Y0070699D01*
X0522857Y0070699D01*
X0522857Y0051226D01*
X0532977Y0055401D02*
X0532977Y0056903D01*
X0533728Y0057653D01*
X0533728Y0059255D02*
X0532977Y0060005D01*
X0532977Y0061507D01*
X0533728Y0062257D01*
X0534478Y0062257D01*
X0535229Y0061507D01*
X0535229Y0059255D01*
X0533728Y0059255D01*
X0535229Y0059255D02*
X0536730Y0060756D01*
X0537481Y0062257D01*
X0535229Y0063859D02*
X0535229Y0066861D01*
X0537481Y0066111D02*
X0535229Y0063859D01*
X0532977Y0066111D02*
X0537481Y0066111D01*
X0536730Y0057653D02*
X0537481Y0056903D01*
X0537481Y0055401D01*
X0536730Y0054651D01*
X0533728Y0054651D01*
X0532977Y0055401D01*
X0538480Y0047361D02*
X0535478Y0044359D01*
X0534727Y0044359D01*
X0535478Y0042757D02*
X0536228Y0042757D01*
X0536979Y0042007D01*
X0536979Y0039755D01*
X0535478Y0039755D01*
X0534727Y0040505D01*
X0534727Y0042007D01*
X0535478Y0042757D01*
X0538480Y0041256D02*
X0536979Y0039755D01*
X0536979Y0038153D02*
X0536228Y0037403D01*
X0536228Y0035151D01*
X0534727Y0035151D02*
X0539231Y0035151D01*
X0539231Y0037403D01*
X0538480Y0038153D01*
X0536979Y0038153D01*
X0536228Y0036652D02*
X0534727Y0038153D01*
X0538480Y0041256D02*
X0539231Y0042757D01*
X0539231Y0044359D02*
X0539231Y0047361D01*
X0538480Y0047361D01*
X0548741Y0063593D02*
X0548741Y0072833D01*
X0568213Y0072833D01*
X0568213Y0063593D01*
X0548741Y0063593D01*
X0568241Y0063593D02*
X0568241Y0072833D01*
X0587713Y0072833D01*
X0587713Y0063593D01*
X0568241Y0063593D01*
X0568241Y0053083D02*
X0568241Y0043843D01*
X0587713Y0043843D01*
X0587713Y0053083D01*
X0568241Y0053083D01*
X0587741Y0063593D02*
X0587741Y0072833D01*
X0607213Y0072833D01*
X0607213Y0063593D01*
X0587741Y0063593D01*
X0590995Y0091593D02*
X0575459Y0091593D01*
X0575459Y0099333D01*
X0590995Y0099333D01*
X0590995Y0091593D01*
X0590995Y0102593D02*
X0575459Y0102593D01*
X0575459Y0110333D01*
X0590995Y0110333D01*
X0590995Y0102593D01*
X0501597Y0140695D02*
X0493857Y0140695D01*
X0493857Y0156230D01*
X0501597Y0156230D01*
X0501597Y0140695D01*
X0493847Y0140695D02*
X0493847Y0156230D01*
X0486107Y0156230D01*
X0486107Y0140695D01*
X0493847Y0140695D01*
X0530709Y0179343D02*
X0530709Y0187083D01*
X0546245Y0187083D01*
X0546245Y0179343D01*
X0530709Y0179343D01*
X0546209Y0179343D02*
X0546209Y0187083D01*
X0561745Y0187083D01*
X0561745Y0179343D01*
X0546209Y0179343D01*
X0494597Y0205445D02*
X0494597Y0220980D01*
X0486857Y0220980D01*
X0486857Y0205445D01*
X0494597Y0205445D01*
X0486745Y0205593D02*
X0486745Y0213333D01*
X0471209Y0213333D01*
X0471209Y0205593D01*
X0486745Y0205593D01*
X0486745Y0213343D02*
X0471209Y0213343D01*
X0471209Y0221083D01*
X0486745Y0221083D01*
X0486745Y0213343D01*
X0494495Y0221093D02*
X0478959Y0221093D01*
X0478959Y0228833D01*
X0494495Y0228833D01*
X0494495Y0221093D01*
X0500857Y0225476D02*
X0509597Y0225476D01*
X0509597Y0244949D01*
X0500857Y0244949D01*
X0500857Y0225476D01*
X0510477Y0229651D02*
X0514981Y0229651D01*
X0514981Y0231903D01*
X0514230Y0232653D01*
X0512729Y0232653D01*
X0511978Y0231903D01*
X0511978Y0229651D01*
X0511978Y0231152D02*
X0510477Y0232653D01*
X0510477Y0234255D02*
X0510477Y0237257D01*
X0510477Y0235756D02*
X0514981Y0235756D01*
X0513480Y0234255D01*
X0514230Y0238859D02*
X0514981Y0239609D01*
X0514981Y0241111D01*
X0514230Y0241861D01*
X0513480Y0241861D01*
X0510477Y0238859D01*
X0510477Y0241861D01*
X0509597Y0249476D02*
X0500857Y0249476D01*
X0500857Y0268949D01*
X0509597Y0268949D01*
X0509597Y0249476D01*
X0510727Y0255963D02*
X0515231Y0255963D01*
X0515231Y0258215D01*
X0514480Y0258965D01*
X0512979Y0258965D01*
X0512228Y0258215D01*
X0512228Y0255963D01*
X0512228Y0257464D02*
X0510727Y0258965D01*
X0511478Y0260567D02*
X0512228Y0260567D01*
X0512979Y0261317D01*
X0512979Y0262818D01*
X0512228Y0263569D01*
X0511478Y0263569D01*
X0510727Y0262818D01*
X0510727Y0261317D01*
X0511478Y0260567D01*
X0512979Y0261317D02*
X0513730Y0260567D01*
X0514480Y0260567D01*
X0515231Y0261317D01*
X0515231Y0262818D01*
X0514480Y0263569D01*
X0513730Y0263569D01*
X0512979Y0262818D01*
X0477347Y0244730D02*
X0469607Y0244730D01*
X0469607Y0229195D01*
X0477347Y0229195D01*
X0477347Y0244730D01*
X0469597Y0244730D02*
X0461857Y0244730D01*
X0461857Y0229195D01*
X0469597Y0229195D01*
X0469597Y0244730D01*
X0461847Y0244730D02*
X0454107Y0244730D01*
X0454107Y0229195D01*
X0461847Y0229195D01*
X0461847Y0244730D01*
X0454097Y0241762D02*
X0447357Y0241762D01*
X0447357Y0229163D01*
X0454097Y0229163D01*
X0454097Y0241762D01*
X0423597Y0243445D02*
X0423597Y0258980D01*
X0415857Y0258980D01*
X0415857Y0243445D01*
X0423597Y0243445D01*
X0423526Y0243583D02*
X0410928Y0243583D01*
X0410928Y0236843D01*
X0423526Y0236843D01*
X0423526Y0243583D01*
X0423597Y0258945D02*
X0415857Y0258945D01*
X0415857Y0274480D01*
X0423597Y0274480D01*
X0423597Y0258945D01*
X0372776Y0246333D02*
X0372776Y0239593D01*
X0360178Y0239593D01*
X0360178Y0246333D01*
X0372776Y0246333D01*
X0323847Y0268726D02*
X0323847Y0288199D01*
X0315107Y0288199D01*
X0315107Y0268726D01*
X0323847Y0268726D01*
X0327991Y0288093D02*
X0347463Y0288093D01*
X0347463Y0296833D01*
X0327991Y0296833D01*
X0327991Y0288093D01*
X0325289Y0289213D02*
X0325289Y0293716D01*
X0323037Y0293716D01*
X0322286Y0292966D01*
X0322286Y0291465D01*
X0323037Y0290714D01*
X0325289Y0290714D01*
X0323788Y0290714D02*
X0322286Y0289213D01*
X0320685Y0289213D02*
X0317682Y0292215D01*
X0317682Y0292966D01*
X0318433Y0293716D01*
X0319934Y0293716D01*
X0320685Y0292966D01*
X0320685Y0289213D02*
X0317682Y0289213D01*
X0316081Y0289213D02*
X0316081Y0289963D01*
X0313078Y0292966D01*
X0313078Y0293716D01*
X0316081Y0293716D01*
X0331578Y0297963D02*
X0334581Y0297963D01*
X0331578Y0300965D01*
X0331578Y0301716D01*
X0332329Y0302466D01*
X0333830Y0302466D01*
X0334581Y0301716D01*
X0336182Y0301716D02*
X0336933Y0302466D01*
X0338434Y0302466D01*
X0339185Y0301716D01*
X0340786Y0301716D02*
X0340786Y0300215D01*
X0341537Y0299464D01*
X0343789Y0299464D01*
X0343789Y0297963D02*
X0343789Y0302466D01*
X0341537Y0302466D01*
X0340786Y0301716D01*
X0342288Y0299464D02*
X0340786Y0297963D01*
X0339185Y0297963D02*
X0336182Y0300965D01*
X0336182Y0301716D01*
X0336182Y0297963D02*
X0339185Y0297963D01*
X0301727Y0316213D02*
X0301727Y0319216D01*
X0300976Y0319966D01*
X0299475Y0319966D01*
X0298724Y0319216D01*
X0297123Y0319216D02*
X0296372Y0319966D01*
X0294871Y0319966D01*
X0294121Y0319216D01*
X0294121Y0318465D01*
X0294871Y0317715D01*
X0294121Y0316964D01*
X0294121Y0316213D01*
X0294871Y0315463D01*
X0296372Y0315463D01*
X0297123Y0316213D01*
X0298724Y0316213D02*
X0299475Y0315463D01*
X0300976Y0315463D01*
X0301727Y0316213D01*
X0295622Y0317715D02*
X0294871Y0317715D01*
X0292519Y0317715D02*
X0290267Y0317715D01*
X0289517Y0316964D01*
X0289517Y0316213D01*
X0290267Y0315463D01*
X0291769Y0315463D01*
X0292519Y0316213D01*
X0292519Y0317715D01*
X0291018Y0319216D01*
X0289517Y0319966D01*
X0267245Y0327843D02*
X0267245Y0335583D01*
X0251709Y0335583D01*
X0251709Y0327843D01*
X0267245Y0327843D01*
X0257745Y0327333D02*
X0257745Y0319593D01*
X0242209Y0319593D01*
X0242209Y0327333D01*
X0257745Y0327333D01*
X0237097Y0317012D02*
X0230357Y0317012D01*
X0230357Y0304413D01*
X0237097Y0304413D01*
X0237097Y0317012D01*
X0230347Y0317012D02*
X0223607Y0317012D01*
X0223607Y0304413D01*
X0230347Y0304413D01*
X0230347Y0317012D01*
X0223597Y0317012D02*
X0216857Y0317012D01*
X0216857Y0304413D01*
X0223597Y0304413D01*
X0223597Y0317012D01*
X0213731Y0311088D02*
X0213731Y0309586D01*
X0212980Y0308836D01*
X0212980Y0307234D02*
X0213731Y0306484D01*
X0213731Y0304983D01*
X0212980Y0304232D01*
X0209978Y0304232D01*
X0209227Y0304983D01*
X0209227Y0306484D01*
X0209978Y0307234D01*
X0209227Y0308836D02*
X0212230Y0311838D01*
X0212980Y0311838D01*
X0213731Y0311088D01*
X0209227Y0311838D02*
X0209227Y0308836D01*
X0207597Y0304413D02*
X0207597Y0317012D01*
X0200857Y0317012D01*
X0200857Y0304413D01*
X0207597Y0304413D01*
X0209227Y0302664D02*
X0209227Y0301163D01*
X0209227Y0301913D02*
X0213731Y0301913D01*
X0213731Y0301163D02*
X0213731Y0302664D01*
X0200847Y0304413D02*
X0194107Y0304413D01*
X0194107Y0317012D01*
X0200847Y0317012D01*
X0200847Y0304413D01*
X0194097Y0304413D02*
X0187357Y0304413D01*
X0187357Y0317012D01*
X0194097Y0317012D01*
X0194097Y0304413D01*
X0181745Y0320843D02*
X0166209Y0320843D01*
X0166209Y0328583D01*
X0181745Y0328583D01*
X0181745Y0320843D01*
X0165347Y0325730D02*
X0165347Y0310195D01*
X0157607Y0310195D01*
X0157607Y0325730D01*
X0165347Y0325730D01*
X0156347Y0314980D02*
X0148607Y0314980D01*
X0148607Y0299445D01*
X0156347Y0299445D01*
X0156347Y0314980D01*
X0172857Y0285980D02*
X0172857Y0270445D01*
X0180597Y0270445D01*
X0180597Y0285980D01*
X0172857Y0285980D01*
X0181607Y0268480D02*
X0189347Y0268480D01*
X0189347Y0252945D01*
X0181607Y0252945D01*
X0181607Y0268480D01*
X0197107Y0270230D02*
X0197107Y0254695D01*
X0204847Y0254695D01*
X0204847Y0270230D01*
X0197107Y0270230D01*
X0206678Y0270333D02*
X0206678Y0263593D01*
X0219276Y0263593D01*
X0219276Y0270333D01*
X0206678Y0270333D01*
X0212607Y0263730D02*
X0212607Y0248195D01*
X0220347Y0248195D01*
X0220347Y0263730D01*
X0212607Y0263730D01*
X0220357Y0270480D02*
X0228097Y0270480D01*
X0228097Y0254945D01*
X0220357Y0254945D01*
X0220357Y0270480D01*
X0228107Y0270480D02*
X0235847Y0270480D01*
X0235847Y0254945D01*
X0228107Y0254945D01*
X0228107Y0270480D01*
X0238357Y0272980D02*
X0246097Y0272980D01*
X0246097Y0257445D01*
X0238357Y0257445D01*
X0238357Y0272980D01*
X0246107Y0273012D02*
X0252847Y0273012D01*
X0252847Y0260413D01*
X0246107Y0260413D01*
X0246107Y0273012D01*
X0265357Y0275230D02*
X0273097Y0275230D01*
X0273097Y0259695D01*
X0265357Y0259695D01*
X0265357Y0275230D01*
X0212495Y0254333D02*
X0212495Y0246593D01*
X0196959Y0246593D01*
X0196959Y0254333D01*
X0212495Y0254333D01*
X0228517Y0238966D02*
X0230018Y0238216D01*
X0231519Y0236715D01*
X0229267Y0236715D01*
X0228517Y0235964D01*
X0228517Y0235213D01*
X0229267Y0234463D01*
X0230769Y0234463D01*
X0231519Y0235213D01*
X0231519Y0236715D01*
X0233121Y0234463D02*
X0236123Y0234463D01*
X0234622Y0234463D02*
X0234622Y0238966D01*
X0236123Y0237465D01*
X0237724Y0238216D02*
X0238475Y0238966D01*
X0240727Y0238966D01*
X0240727Y0234463D01*
X0238475Y0234463D01*
X0237724Y0235213D01*
X0237724Y0238216D01*
X0177789Y0202466D02*
X0175537Y0202466D01*
X0174786Y0201716D01*
X0174786Y0200215D01*
X0175537Y0199464D01*
X0177789Y0199464D01*
X0177789Y0197963D02*
X0177789Y0202466D01*
X0176288Y0199464D02*
X0174786Y0197963D01*
X0173185Y0198713D02*
X0172434Y0197963D01*
X0170933Y0197963D01*
X0170182Y0198713D01*
X0170182Y0200215D01*
X0170933Y0200965D01*
X0171684Y0200965D01*
X0173185Y0200215D01*
X0173185Y0202466D01*
X0170182Y0202466D01*
X0168581Y0201716D02*
X0167830Y0202466D01*
X0166329Y0202466D01*
X0165578Y0201716D01*
X0165578Y0200965D01*
X0166329Y0200215D01*
X0165578Y0199464D01*
X0165578Y0198713D01*
X0166329Y0197963D01*
X0167830Y0197963D01*
X0168581Y0198713D01*
X0167080Y0200215D02*
X0166329Y0200215D01*
X0162709Y0196833D02*
X0162709Y0189093D01*
X0178245Y0189093D01*
X0178245Y0196833D01*
X0162709Y0196833D01*
X0165998Y0181279D02*
X0167500Y0181279D01*
X0168250Y0180529D01*
X0169852Y0180529D02*
X0170602Y0181279D01*
X0172104Y0181279D01*
X0172854Y0180529D01*
X0174456Y0180529D02*
X0175206Y0181279D01*
X0177458Y0181279D01*
X0177458Y0176776D01*
X0175206Y0176776D01*
X0174456Y0177526D01*
X0174456Y0180529D01*
X0172854Y0176776D02*
X0169852Y0179778D01*
X0169852Y0180529D01*
X0169852Y0176776D02*
X0172854Y0176776D01*
X0168250Y0176776D02*
X0165248Y0179778D01*
X0165248Y0180529D01*
X0165998Y0181279D01*
X0165248Y0176776D02*
X0168250Y0176776D01*
X0144976Y0143466D02*
X0143475Y0143466D01*
X0142724Y0142716D01*
X0141123Y0141215D02*
X0138121Y0141215D01*
X0136519Y0141965D02*
X0135018Y0143466D01*
X0135018Y0138963D01*
X0136519Y0138963D02*
X0133517Y0138963D01*
X0133388Y0137949D02*
X0146066Y0137949D01*
X0146066Y0118476D01*
X0133388Y0118476D01*
X0133388Y0137949D01*
X0131369Y0132770D02*
X0131369Y0117156D01*
X0100085Y0117156D01*
X0100085Y0132770D01*
X0131369Y0132770D01*
X0138871Y0138963D02*
X0138871Y0143466D01*
X0141123Y0141215D01*
X0142724Y0139713D02*
X0143475Y0138963D01*
X0144976Y0138963D01*
X0145727Y0139713D01*
X0145727Y0142716D01*
X0144976Y0143466D01*
X0120977Y0138466D02*
X0120977Y0133963D01*
X0120977Y0135464D02*
X0118725Y0135464D01*
X0117974Y0136215D01*
X0117974Y0137716D01*
X0118725Y0138466D01*
X0120977Y0138466D01*
X0119476Y0135464D02*
X0117974Y0133963D01*
X0116373Y0134713D02*
X0115622Y0133963D01*
X0114121Y0133963D01*
X0113371Y0134713D01*
X0113371Y0135464D01*
X0114121Y0136215D01*
X0114872Y0136215D01*
X0114121Y0136215D02*
X0113371Y0136965D01*
X0113371Y0137716D01*
X0114121Y0138466D01*
X0115622Y0138466D01*
X0116373Y0137716D01*
X0111769Y0137716D02*
X0111019Y0138466D01*
X0109517Y0138466D01*
X0108767Y0137716D01*
X0108767Y0136965D01*
X0111769Y0133963D01*
X0108767Y0133963D01*
X0100119Y0132770D02*
X0100119Y0117156D01*
X0068835Y0117156D01*
X0068835Y0132770D01*
X0100119Y0132770D01*
X0090539Y0134113D02*
X0090539Y0138616D01*
X0088287Y0138616D01*
X0087536Y0137866D01*
X0087536Y0136365D01*
X0088287Y0135614D01*
X0090539Y0135614D01*
X0089038Y0135614D02*
X0087536Y0134113D01*
X0085935Y0134863D02*
X0085184Y0134113D01*
X0083683Y0134113D01*
X0082932Y0134863D01*
X0082932Y0135614D01*
X0083683Y0136365D01*
X0084434Y0136365D01*
X0083683Y0136365D02*
X0082932Y0137115D01*
X0082932Y0137866D01*
X0083683Y0138616D01*
X0085184Y0138616D01*
X0085935Y0137866D01*
X0081331Y0137866D02*
X0080580Y0138616D01*
X0079079Y0138616D01*
X0078328Y0137866D01*
X0081331Y0134863D01*
X0080580Y0134113D01*
X0079079Y0134113D01*
X0078328Y0134863D01*
X0078328Y0137866D01*
X0081331Y0137866D02*
X0081331Y0134863D01*
X0050997Y0140346D02*
X0046493Y0140346D01*
X0046493Y0143349D01*
X0046493Y0144950D02*
X0046493Y0147953D01*
X0046493Y0149554D02*
X0046493Y0152557D01*
X0046493Y0149554D02*
X0047243Y0149554D01*
X0050246Y0152557D01*
X0050997Y0152557D01*
X0050997Y0149554D01*
X0050997Y0147953D02*
X0050997Y0144950D01*
X0046493Y0144950D01*
X0048745Y0144950D02*
X0048745Y0146452D01*
X0050997Y0143349D02*
X0050997Y0140346D01*
X0048745Y0140346D02*
X0048745Y0141848D01*
X0050246Y0158762D02*
X0047243Y0158762D01*
X0046493Y0159513D01*
X0046493Y0161014D01*
X0047243Y0161765D01*
X0046493Y0163366D02*
X0050997Y0163366D01*
X0050997Y0166369D01*
X0048745Y0164867D02*
X0048745Y0163366D01*
X0050246Y0161765D02*
X0050997Y0161014D01*
X0050997Y0159513D01*
X0050246Y0158762D01*
X0048745Y0167970D02*
X0048745Y0170973D01*
X0050997Y0172574D02*
X0046493Y0172574D01*
X0046493Y0174826D01*
X0047243Y0175576D01*
X0050246Y0175576D01*
X0050997Y0174826D01*
X0050997Y0172574D01*
X0050997Y0177178D02*
X0050997Y0178679D01*
X0050997Y0177928D02*
X0046493Y0177928D01*
X0046493Y0177178D02*
X0046493Y0178679D01*
X0047243Y0180247D02*
X0046493Y0180998D01*
X0046493Y0182499D01*
X0047243Y0183250D01*
X0047243Y0180247D02*
X0050246Y0180247D01*
X0050997Y0180998D01*
X0050997Y0182499D01*
X0050246Y0183250D01*
X0049495Y0189455D02*
X0050997Y0190956D01*
X0050246Y0192524D02*
X0050997Y0193275D01*
X0050997Y0194776D01*
X0050246Y0195527D01*
X0047243Y0192524D01*
X0046493Y0193275D01*
X0046493Y0194776D01*
X0047243Y0195527D01*
X0050246Y0195527D01*
X0049495Y0197128D02*
X0050997Y0198629D01*
X0046493Y0198629D01*
X0046493Y0197128D02*
X0046493Y0200131D01*
X0046493Y0201732D02*
X0050997Y0204735D01*
X0050246Y0206336D02*
X0050997Y0207087D01*
X0050997Y0208588D01*
X0050246Y0209339D01*
X0049495Y0209339D01*
X0046493Y0206336D01*
X0046493Y0209339D01*
X0047243Y0210940D02*
X0050246Y0213943D01*
X0047243Y0213943D01*
X0046493Y0213192D01*
X0046493Y0211691D01*
X0047243Y0210940D01*
X0050246Y0210940D01*
X0050997Y0211691D01*
X0050997Y0213192D01*
X0050246Y0213943D01*
X0049495Y0215544D02*
X0050997Y0217045D01*
X0046493Y0217045D01*
X0046493Y0215544D02*
X0046493Y0218546D01*
X0047243Y0220148D02*
X0046493Y0220898D01*
X0046493Y0222400D01*
X0047243Y0223150D01*
X0050246Y0223150D01*
X0050997Y0222400D01*
X0050997Y0220898D01*
X0050246Y0220148D01*
X0049495Y0220148D01*
X0048745Y0220898D01*
X0048745Y0223150D01*
X0049495Y0229356D02*
X0046493Y0229356D01*
X0047994Y0229356D02*
X0049495Y0230857D01*
X0049495Y0231608D01*
X0048745Y0233192D02*
X0049495Y0234694D01*
X0049495Y0235444D01*
X0048745Y0236195D01*
X0047243Y0236195D01*
X0046493Y0235444D01*
X0046493Y0233943D01*
X0047243Y0233192D01*
X0048745Y0233192D02*
X0050997Y0233192D01*
X0050997Y0236195D01*
X0050997Y0237796D02*
X0050997Y0240048D01*
X0050246Y0240799D01*
X0049495Y0240799D01*
X0048745Y0240048D01*
X0048745Y0237796D01*
X0046493Y0237796D02*
X0050997Y0237796D01*
X0048745Y0240048D02*
X0047994Y0240799D01*
X0047243Y0240799D01*
X0046493Y0240048D01*
X0046493Y0237796D01*
X0047243Y0242400D02*
X0046493Y0243151D01*
X0046493Y0244652D01*
X0047243Y0245403D01*
X0047994Y0245403D01*
X0048745Y0244652D01*
X0048745Y0242400D01*
X0047243Y0242400D01*
X0048745Y0242400D02*
X0050246Y0243901D01*
X0050997Y0245403D01*
X0050997Y0247004D02*
X0049495Y0248505D01*
X0047994Y0248505D01*
X0046493Y0247004D01*
X0073170Y0260821D02*
X0088784Y0260821D01*
X0088784Y0292104D01*
X0073170Y0292104D01*
X0073170Y0260821D01*
X0088920Y0260821D02*
X0104534Y0260821D01*
X0104534Y0292104D01*
X0088920Y0292104D01*
X0088920Y0260821D01*
X0111078Y0276963D02*
X0114081Y0276963D01*
X0111078Y0279965D01*
X0111078Y0280716D01*
X0111829Y0281466D01*
X0113330Y0281466D01*
X0114081Y0280716D01*
X0115682Y0279215D02*
X0118685Y0279215D01*
X0116433Y0281466D01*
X0116433Y0276963D01*
X0120286Y0277713D02*
X0121037Y0276963D01*
X0122538Y0276963D01*
X0123289Y0277713D01*
X0123289Y0280716D01*
X0122538Y0281466D01*
X0121037Y0281466D01*
X0120286Y0280716D01*
X0102727Y0293463D02*
X0102727Y0297966D01*
X0100475Y0297966D01*
X0099724Y0297216D01*
X0099724Y0295715D01*
X0100475Y0294964D01*
X0102727Y0294964D01*
X0101226Y0294964D02*
X0099724Y0293463D01*
X0098123Y0295715D02*
X0095121Y0295715D01*
X0093519Y0297216D02*
X0092769Y0297966D01*
X0091267Y0297966D01*
X0090517Y0297216D01*
X0090517Y0296465D01*
X0093519Y0293463D01*
X0090517Y0293463D01*
X0086227Y0293213D02*
X0086227Y0297716D01*
X0083975Y0297716D01*
X0083224Y0296966D01*
X0083224Y0295465D01*
X0083975Y0294714D01*
X0086227Y0294714D01*
X0084726Y0294714D02*
X0083224Y0293213D01*
X0081623Y0295465D02*
X0078621Y0295465D01*
X0077019Y0293963D02*
X0077019Y0296966D01*
X0076269Y0297716D01*
X0074767Y0297716D01*
X0074017Y0296966D01*
X0077019Y0293963D01*
X0076269Y0293213D01*
X0074767Y0293213D01*
X0074017Y0293963D01*
X0074017Y0296966D01*
X0079371Y0297716D02*
X0081623Y0295465D01*
X0079371Y0293213D02*
X0079371Y0297716D01*
X0095871Y0297966D02*
X0098123Y0295715D01*
X0095871Y0293463D02*
X0095871Y0297966D01*
X0095789Y0330059D02*
X0098791Y0330059D01*
X0097290Y0330059D02*
X0097290Y0334563D01*
X0098791Y0333062D01*
X0100393Y0333812D02*
X0100393Y0330810D01*
X0101143Y0330059D01*
X0103395Y0330059D01*
X0103395Y0334563D01*
X0101143Y0334563D01*
X0100393Y0333812D01*
X0094187Y0334563D02*
X0094187Y0332311D01*
X0092686Y0333062D01*
X0091935Y0333062D01*
X0091185Y0332311D01*
X0091185Y0330810D01*
X0091935Y0330059D01*
X0093437Y0330059D01*
X0094187Y0330810D01*
X0094187Y0334563D02*
X0091185Y0334563D01*
X0158478Y0242111D02*
X0161480Y0242111D01*
X0162231Y0241361D01*
X0162231Y0239859D01*
X0161480Y0239109D01*
X0160730Y0239109D01*
X0159979Y0239859D01*
X0159979Y0242111D01*
X0158478Y0242111D02*
X0157727Y0241361D01*
X0157727Y0239859D01*
X0158478Y0239109D01*
X0157727Y0237507D02*
X0157727Y0234505D01*
X0157727Y0236006D02*
X0162231Y0236006D01*
X0160730Y0234505D01*
X0161480Y0232903D02*
X0162231Y0232153D01*
X0162231Y0229901D01*
X0157727Y0229901D01*
X0157727Y0232153D01*
X0158478Y0232903D01*
X0161480Y0232903D01*
X0254209Y0196833D02*
X0254209Y0189093D01*
X0269745Y0189093D01*
X0269745Y0196833D01*
X0254209Y0196833D01*
X0446101Y0193963D02*
X0449104Y0193963D01*
X0447603Y0193963D02*
X0447603Y0198466D01*
X0449104Y0196965D01*
X0450705Y0197716D02*
X0451456Y0198466D01*
X0452957Y0198466D01*
X0453708Y0197716D01*
X0453708Y0194713D01*
X0452957Y0193963D01*
X0451456Y0193963D01*
X0450705Y0194713D01*
X0455276Y0193963D02*
X0456777Y0193963D01*
X0456026Y0193963D02*
X0456026Y0198466D01*
X0455276Y0198466D02*
X0456777Y0198466D01*
X0580615Y0294278D02*
X0589355Y0294278D01*
X0589355Y0313750D01*
X0580615Y0313750D01*
X0580615Y0294278D01*
X0580615Y0313778D02*
X0589355Y0313778D01*
X0589355Y0333250D01*
X0580615Y0333250D01*
X0580615Y0313778D01*
X0331347Y0047949D02*
X0322107Y0047949D01*
X0322107Y0028476D01*
X0331347Y0028476D01*
X0331347Y0047949D01*
X0320731Y0043111D02*
X0319980Y0043111D01*
X0316978Y0040109D01*
X0316227Y0040109D01*
X0316978Y0038507D02*
X0317728Y0038507D01*
X0318479Y0037757D01*
X0318479Y0035505D01*
X0316978Y0035505D01*
X0316227Y0036255D01*
X0316227Y0037757D01*
X0316978Y0038507D01*
X0319980Y0037006D02*
X0318479Y0035505D01*
X0319980Y0037006D02*
X0320731Y0038507D01*
X0320731Y0040109D02*
X0320731Y0043111D01*
X0319980Y0033903D02*
X0320731Y0033153D01*
X0320731Y0031651D01*
X0319980Y0030901D01*
X0316978Y0030901D01*
X0316227Y0031651D01*
X0316227Y0033153D01*
X0316978Y0033903D01*
X0463959Y0033843D02*
X0463959Y0041583D01*
X0479495Y0041583D01*
X0479495Y0033843D01*
X0463959Y0033843D01*
X0049495Y0189455D02*
X0047994Y0189455D01*
X0046493Y0190956D01*
X0047243Y0192524D02*
X0050246Y0192524D01*
D12*
X0096727Y0309463D02*
X0096727Y0311963D01*
X0093971Y0312016D02*
X0099483Y0312016D01*
X0096727Y0316937D01*
X0093971Y0312016D01*
X0096727Y0317213D02*
X0096727Y0319713D01*
X0606977Y0167213D02*
X0606979Y0167257D01*
X0606985Y0167301D01*
X0606995Y0167344D01*
X0607008Y0167386D01*
X0607025Y0167427D01*
X0607046Y0167466D01*
X0607070Y0167503D01*
X0607097Y0167538D01*
X0607127Y0167570D01*
X0607160Y0167600D01*
X0607196Y0167626D01*
X0607233Y0167650D01*
X0607273Y0167669D01*
X0607314Y0167686D01*
X0607357Y0167698D01*
X0607400Y0167707D01*
X0607444Y0167712D01*
X0607488Y0167713D01*
X0607532Y0167710D01*
X0607576Y0167703D01*
X0607619Y0167692D01*
X0607661Y0167678D01*
X0607701Y0167660D01*
X0607740Y0167638D01*
X0607776Y0167614D01*
X0607810Y0167586D01*
X0607842Y0167555D01*
X0607871Y0167521D01*
X0607897Y0167485D01*
X0607919Y0167447D01*
X0607938Y0167407D01*
X0607953Y0167365D01*
X0607965Y0167323D01*
X0607973Y0167279D01*
X0607977Y0167235D01*
X0607977Y0167191D01*
X0607973Y0167147D01*
X0607965Y0167103D01*
X0607953Y0167061D01*
X0607938Y0167019D01*
X0607919Y0166979D01*
X0607897Y0166941D01*
X0607871Y0166905D01*
X0607842Y0166871D01*
X0607810Y0166840D01*
X0607776Y0166812D01*
X0607740Y0166788D01*
X0607701Y0166766D01*
X0607661Y0166748D01*
X0607619Y0166734D01*
X0607576Y0166723D01*
X0607532Y0166716D01*
X0607488Y0166713D01*
X0607444Y0166714D01*
X0607400Y0166719D01*
X0607357Y0166728D01*
X0607314Y0166740D01*
X0607273Y0166757D01*
X0607233Y0166776D01*
X0607196Y0166800D01*
X0607160Y0166826D01*
X0607127Y0166856D01*
X0607097Y0166888D01*
X0607070Y0166923D01*
X0607046Y0166960D01*
X0607025Y0166999D01*
X0607008Y0167040D01*
X0606995Y0167082D01*
X0606985Y0167125D01*
X0606979Y0167169D01*
X0606977Y0167213D01*
X0606977Y0161213D02*
X0606979Y0161257D01*
X0606985Y0161301D01*
X0606995Y0161344D01*
X0607008Y0161386D01*
X0607025Y0161427D01*
X0607046Y0161466D01*
X0607070Y0161503D01*
X0607097Y0161538D01*
X0607127Y0161570D01*
X0607160Y0161600D01*
X0607196Y0161626D01*
X0607233Y0161650D01*
X0607273Y0161669D01*
X0607314Y0161686D01*
X0607357Y0161698D01*
X0607400Y0161707D01*
X0607444Y0161712D01*
X0607488Y0161713D01*
X0607532Y0161710D01*
X0607576Y0161703D01*
X0607619Y0161692D01*
X0607661Y0161678D01*
X0607701Y0161660D01*
X0607740Y0161638D01*
X0607776Y0161614D01*
X0607810Y0161586D01*
X0607842Y0161555D01*
X0607871Y0161521D01*
X0607897Y0161485D01*
X0607919Y0161447D01*
X0607938Y0161407D01*
X0607953Y0161365D01*
X0607965Y0161323D01*
X0607973Y0161279D01*
X0607977Y0161235D01*
X0607977Y0161191D01*
X0607973Y0161147D01*
X0607965Y0161103D01*
X0607953Y0161061D01*
X0607938Y0161019D01*
X0607919Y0160979D01*
X0607897Y0160941D01*
X0607871Y0160905D01*
X0607842Y0160871D01*
X0607810Y0160840D01*
X0607776Y0160812D01*
X0607740Y0160788D01*
X0607701Y0160766D01*
X0607661Y0160748D01*
X0607619Y0160734D01*
X0607576Y0160723D01*
X0607532Y0160716D01*
X0607488Y0160713D01*
X0607444Y0160714D01*
X0607400Y0160719D01*
X0607357Y0160728D01*
X0607314Y0160740D01*
X0607273Y0160757D01*
X0607233Y0160776D01*
X0607196Y0160800D01*
X0607160Y0160826D01*
X0607127Y0160856D01*
X0607097Y0160888D01*
X0607070Y0160923D01*
X0607046Y0160960D01*
X0607025Y0160999D01*
X0607008Y0161040D01*
X0606995Y0161082D01*
X0606985Y0161125D01*
X0606979Y0161169D01*
X0606977Y0161213D01*
X0606977Y0155213D02*
X0606979Y0155257D01*
X0606985Y0155301D01*
X0606995Y0155344D01*
X0607008Y0155386D01*
X0607025Y0155427D01*
X0607046Y0155466D01*
X0607070Y0155503D01*
X0607097Y0155538D01*
X0607127Y0155570D01*
X0607160Y0155600D01*
X0607196Y0155626D01*
X0607233Y0155650D01*
X0607273Y0155669D01*
X0607314Y0155686D01*
X0607357Y0155698D01*
X0607400Y0155707D01*
X0607444Y0155712D01*
X0607488Y0155713D01*
X0607532Y0155710D01*
X0607576Y0155703D01*
X0607619Y0155692D01*
X0607661Y0155678D01*
X0607701Y0155660D01*
X0607740Y0155638D01*
X0607776Y0155614D01*
X0607810Y0155586D01*
X0607842Y0155555D01*
X0607871Y0155521D01*
X0607897Y0155485D01*
X0607919Y0155447D01*
X0607938Y0155407D01*
X0607953Y0155365D01*
X0607965Y0155323D01*
X0607973Y0155279D01*
X0607977Y0155235D01*
X0607977Y0155191D01*
X0607973Y0155147D01*
X0607965Y0155103D01*
X0607953Y0155061D01*
X0607938Y0155019D01*
X0607919Y0154979D01*
X0607897Y0154941D01*
X0607871Y0154905D01*
X0607842Y0154871D01*
X0607810Y0154840D01*
X0607776Y0154812D01*
X0607740Y0154788D01*
X0607701Y0154766D01*
X0607661Y0154748D01*
X0607619Y0154734D01*
X0607576Y0154723D01*
X0607532Y0154716D01*
X0607488Y0154713D01*
X0607444Y0154714D01*
X0607400Y0154719D01*
X0607357Y0154728D01*
X0607314Y0154740D01*
X0607273Y0154757D01*
X0607233Y0154776D01*
X0607196Y0154800D01*
X0607160Y0154826D01*
X0607127Y0154856D01*
X0607097Y0154888D01*
X0607070Y0154923D01*
X0607046Y0154960D01*
X0607025Y0154999D01*
X0607008Y0155040D01*
X0606995Y0155082D01*
X0606985Y0155125D01*
X0606979Y0155169D01*
X0606977Y0155213D01*
X0606977Y0149213D02*
X0606979Y0149257D01*
X0606985Y0149301D01*
X0606995Y0149344D01*
X0607008Y0149386D01*
X0607025Y0149427D01*
X0607046Y0149466D01*
X0607070Y0149503D01*
X0607097Y0149538D01*
X0607127Y0149570D01*
X0607160Y0149600D01*
X0607196Y0149626D01*
X0607233Y0149650D01*
X0607273Y0149669D01*
X0607314Y0149686D01*
X0607357Y0149698D01*
X0607400Y0149707D01*
X0607444Y0149712D01*
X0607488Y0149713D01*
X0607532Y0149710D01*
X0607576Y0149703D01*
X0607619Y0149692D01*
X0607661Y0149678D01*
X0607701Y0149660D01*
X0607740Y0149638D01*
X0607776Y0149614D01*
X0607810Y0149586D01*
X0607842Y0149555D01*
X0607871Y0149521D01*
X0607897Y0149485D01*
X0607919Y0149447D01*
X0607938Y0149407D01*
X0607953Y0149365D01*
X0607965Y0149323D01*
X0607973Y0149279D01*
X0607977Y0149235D01*
X0607977Y0149191D01*
X0607973Y0149147D01*
X0607965Y0149103D01*
X0607953Y0149061D01*
X0607938Y0149019D01*
X0607919Y0148979D01*
X0607897Y0148941D01*
X0607871Y0148905D01*
X0607842Y0148871D01*
X0607810Y0148840D01*
X0607776Y0148812D01*
X0607740Y0148788D01*
X0607701Y0148766D01*
X0607661Y0148748D01*
X0607619Y0148734D01*
X0607576Y0148723D01*
X0607532Y0148716D01*
X0607488Y0148713D01*
X0607444Y0148714D01*
X0607400Y0148719D01*
X0607357Y0148728D01*
X0607314Y0148740D01*
X0607273Y0148757D01*
X0607233Y0148776D01*
X0607196Y0148800D01*
X0607160Y0148826D01*
X0607127Y0148856D01*
X0607097Y0148888D01*
X0607070Y0148923D01*
X0607046Y0148960D01*
X0607025Y0148999D01*
X0607008Y0149040D01*
X0606995Y0149082D01*
X0606985Y0149125D01*
X0606979Y0149169D01*
X0606977Y0149213D01*
X0606977Y0143213D02*
X0606979Y0143257D01*
X0606985Y0143301D01*
X0606995Y0143344D01*
X0607008Y0143386D01*
X0607025Y0143427D01*
X0607046Y0143466D01*
X0607070Y0143503D01*
X0607097Y0143538D01*
X0607127Y0143570D01*
X0607160Y0143600D01*
X0607196Y0143626D01*
X0607233Y0143650D01*
X0607273Y0143669D01*
X0607314Y0143686D01*
X0607357Y0143698D01*
X0607400Y0143707D01*
X0607444Y0143712D01*
X0607488Y0143713D01*
X0607532Y0143710D01*
X0607576Y0143703D01*
X0607619Y0143692D01*
X0607661Y0143678D01*
X0607701Y0143660D01*
X0607740Y0143638D01*
X0607776Y0143614D01*
X0607810Y0143586D01*
X0607842Y0143555D01*
X0607871Y0143521D01*
X0607897Y0143485D01*
X0607919Y0143447D01*
X0607938Y0143407D01*
X0607953Y0143365D01*
X0607965Y0143323D01*
X0607973Y0143279D01*
X0607977Y0143235D01*
X0607977Y0143191D01*
X0607973Y0143147D01*
X0607965Y0143103D01*
X0607953Y0143061D01*
X0607938Y0143019D01*
X0607919Y0142979D01*
X0607897Y0142941D01*
X0607871Y0142905D01*
X0607842Y0142871D01*
X0607810Y0142840D01*
X0607776Y0142812D01*
X0607740Y0142788D01*
X0607701Y0142766D01*
X0607661Y0142748D01*
X0607619Y0142734D01*
X0607576Y0142723D01*
X0607532Y0142716D01*
X0607488Y0142713D01*
X0607444Y0142714D01*
X0607400Y0142719D01*
X0607357Y0142728D01*
X0607314Y0142740D01*
X0607273Y0142757D01*
X0607233Y0142776D01*
X0607196Y0142800D01*
X0607160Y0142826D01*
X0607127Y0142856D01*
X0607097Y0142888D01*
X0607070Y0142923D01*
X0607046Y0142960D01*
X0607025Y0142999D01*
X0607008Y0143040D01*
X0606995Y0143082D01*
X0606985Y0143125D01*
X0606979Y0143169D01*
X0606977Y0143213D01*
X0606977Y0137213D02*
X0606979Y0137257D01*
X0606985Y0137301D01*
X0606995Y0137344D01*
X0607008Y0137386D01*
X0607025Y0137427D01*
X0607046Y0137466D01*
X0607070Y0137503D01*
X0607097Y0137538D01*
X0607127Y0137570D01*
X0607160Y0137600D01*
X0607196Y0137626D01*
X0607233Y0137650D01*
X0607273Y0137669D01*
X0607314Y0137686D01*
X0607357Y0137698D01*
X0607400Y0137707D01*
X0607444Y0137712D01*
X0607488Y0137713D01*
X0607532Y0137710D01*
X0607576Y0137703D01*
X0607619Y0137692D01*
X0607661Y0137678D01*
X0607701Y0137660D01*
X0607740Y0137638D01*
X0607776Y0137614D01*
X0607810Y0137586D01*
X0607842Y0137555D01*
X0607871Y0137521D01*
X0607897Y0137485D01*
X0607919Y0137447D01*
X0607938Y0137407D01*
X0607953Y0137365D01*
X0607965Y0137323D01*
X0607973Y0137279D01*
X0607977Y0137235D01*
X0607977Y0137191D01*
X0607973Y0137147D01*
X0607965Y0137103D01*
X0607953Y0137061D01*
X0607938Y0137019D01*
X0607919Y0136979D01*
X0607897Y0136941D01*
X0607871Y0136905D01*
X0607842Y0136871D01*
X0607810Y0136840D01*
X0607776Y0136812D01*
X0607740Y0136788D01*
X0607701Y0136766D01*
X0607661Y0136748D01*
X0607619Y0136734D01*
X0607576Y0136723D01*
X0607532Y0136716D01*
X0607488Y0136713D01*
X0607444Y0136714D01*
X0607400Y0136719D01*
X0607357Y0136728D01*
X0607314Y0136740D01*
X0607273Y0136757D01*
X0607233Y0136776D01*
X0607196Y0136800D01*
X0607160Y0136826D01*
X0607127Y0136856D01*
X0607097Y0136888D01*
X0607070Y0136923D01*
X0607046Y0136960D01*
X0607025Y0136999D01*
X0607008Y0137040D01*
X0606995Y0137082D01*
X0606985Y0137125D01*
X0606979Y0137169D01*
X0606977Y0137213D01*
X0606977Y0131213D02*
X0606979Y0131257D01*
X0606985Y0131301D01*
X0606995Y0131344D01*
X0607008Y0131386D01*
X0607025Y0131427D01*
X0607046Y0131466D01*
X0607070Y0131503D01*
X0607097Y0131538D01*
X0607127Y0131570D01*
X0607160Y0131600D01*
X0607196Y0131626D01*
X0607233Y0131650D01*
X0607273Y0131669D01*
X0607314Y0131686D01*
X0607357Y0131698D01*
X0607400Y0131707D01*
X0607444Y0131712D01*
X0607488Y0131713D01*
X0607532Y0131710D01*
X0607576Y0131703D01*
X0607619Y0131692D01*
X0607661Y0131678D01*
X0607701Y0131660D01*
X0607740Y0131638D01*
X0607776Y0131614D01*
X0607810Y0131586D01*
X0607842Y0131555D01*
X0607871Y0131521D01*
X0607897Y0131485D01*
X0607919Y0131447D01*
X0607938Y0131407D01*
X0607953Y0131365D01*
X0607965Y0131323D01*
X0607973Y0131279D01*
X0607977Y0131235D01*
X0607977Y0131191D01*
X0607973Y0131147D01*
X0607965Y0131103D01*
X0607953Y0131061D01*
X0607938Y0131019D01*
X0607919Y0130979D01*
X0607897Y0130941D01*
X0607871Y0130905D01*
X0607842Y0130871D01*
X0607810Y0130840D01*
X0607776Y0130812D01*
X0607740Y0130788D01*
X0607701Y0130766D01*
X0607661Y0130748D01*
X0607619Y0130734D01*
X0607576Y0130723D01*
X0607532Y0130716D01*
X0607488Y0130713D01*
X0607444Y0130714D01*
X0607400Y0130719D01*
X0607357Y0130728D01*
X0607314Y0130740D01*
X0607273Y0130757D01*
X0607233Y0130776D01*
X0607196Y0130800D01*
X0607160Y0130826D01*
X0607127Y0130856D01*
X0607097Y0130888D01*
X0607070Y0130923D01*
X0607046Y0130960D01*
X0607025Y0130999D01*
X0607008Y0131040D01*
X0606995Y0131082D01*
X0606985Y0131125D01*
X0606979Y0131169D01*
X0606977Y0131213D01*
X0606977Y0125213D02*
X0606979Y0125257D01*
X0606985Y0125301D01*
X0606995Y0125344D01*
X0607008Y0125386D01*
X0607025Y0125427D01*
X0607046Y0125466D01*
X0607070Y0125503D01*
X0607097Y0125538D01*
X0607127Y0125570D01*
X0607160Y0125600D01*
X0607196Y0125626D01*
X0607233Y0125650D01*
X0607273Y0125669D01*
X0607314Y0125686D01*
X0607357Y0125698D01*
X0607400Y0125707D01*
X0607444Y0125712D01*
X0607488Y0125713D01*
X0607532Y0125710D01*
X0607576Y0125703D01*
X0607619Y0125692D01*
X0607661Y0125678D01*
X0607701Y0125660D01*
X0607740Y0125638D01*
X0607776Y0125614D01*
X0607810Y0125586D01*
X0607842Y0125555D01*
X0607871Y0125521D01*
X0607897Y0125485D01*
X0607919Y0125447D01*
X0607938Y0125407D01*
X0607953Y0125365D01*
X0607965Y0125323D01*
X0607973Y0125279D01*
X0607977Y0125235D01*
X0607977Y0125191D01*
X0607973Y0125147D01*
X0607965Y0125103D01*
X0607953Y0125061D01*
X0607938Y0125019D01*
X0607919Y0124979D01*
X0607897Y0124941D01*
X0607871Y0124905D01*
X0607842Y0124871D01*
X0607810Y0124840D01*
X0607776Y0124812D01*
X0607740Y0124788D01*
X0607701Y0124766D01*
X0607661Y0124748D01*
X0607619Y0124734D01*
X0607576Y0124723D01*
X0607532Y0124716D01*
X0607488Y0124713D01*
X0607444Y0124714D01*
X0607400Y0124719D01*
X0607357Y0124728D01*
X0607314Y0124740D01*
X0607273Y0124757D01*
X0607233Y0124776D01*
X0607196Y0124800D01*
X0607160Y0124826D01*
X0607127Y0124856D01*
X0607097Y0124888D01*
X0607070Y0124923D01*
X0607046Y0124960D01*
X0607025Y0124999D01*
X0607008Y0125040D01*
X0606995Y0125082D01*
X0606985Y0125125D01*
X0606979Y0125169D01*
X0606977Y0125213D01*
X0606977Y0119213D02*
X0606979Y0119257D01*
X0606985Y0119301D01*
X0606995Y0119344D01*
X0607008Y0119386D01*
X0607025Y0119427D01*
X0607046Y0119466D01*
X0607070Y0119503D01*
X0607097Y0119538D01*
X0607127Y0119570D01*
X0607160Y0119600D01*
X0607196Y0119626D01*
X0607233Y0119650D01*
X0607273Y0119669D01*
X0607314Y0119686D01*
X0607357Y0119698D01*
X0607400Y0119707D01*
X0607444Y0119712D01*
X0607488Y0119713D01*
X0607532Y0119710D01*
X0607576Y0119703D01*
X0607619Y0119692D01*
X0607661Y0119678D01*
X0607701Y0119660D01*
X0607740Y0119638D01*
X0607776Y0119614D01*
X0607810Y0119586D01*
X0607842Y0119555D01*
X0607871Y0119521D01*
X0607897Y0119485D01*
X0607919Y0119447D01*
X0607938Y0119407D01*
X0607953Y0119365D01*
X0607965Y0119323D01*
X0607973Y0119279D01*
X0607977Y0119235D01*
X0607977Y0119191D01*
X0607973Y0119147D01*
X0607965Y0119103D01*
X0607953Y0119061D01*
X0607938Y0119019D01*
X0607919Y0118979D01*
X0607897Y0118941D01*
X0607871Y0118905D01*
X0607842Y0118871D01*
X0607810Y0118840D01*
X0607776Y0118812D01*
X0607740Y0118788D01*
X0607701Y0118766D01*
X0607661Y0118748D01*
X0607619Y0118734D01*
X0607576Y0118723D01*
X0607532Y0118716D01*
X0607488Y0118713D01*
X0607444Y0118714D01*
X0607400Y0118719D01*
X0607357Y0118728D01*
X0607314Y0118740D01*
X0607273Y0118757D01*
X0607233Y0118776D01*
X0607196Y0118800D01*
X0607160Y0118826D01*
X0607127Y0118856D01*
X0607097Y0118888D01*
X0607070Y0118923D01*
X0607046Y0118960D01*
X0607025Y0118999D01*
X0607008Y0119040D01*
X0606995Y0119082D01*
X0606985Y0119125D01*
X0606979Y0119169D01*
X0606977Y0119213D01*
D13*
X0604477Y0116213D02*
X0610477Y0116213D01*
X0610477Y0170463D01*
X0604477Y0170463D01*
X0604477Y0116213D01*
X0624423Y0079022D02*
X0624423Y0076520D01*
X0625257Y0075686D01*
X0628593Y0075686D01*
X0629427Y0076520D01*
X0629427Y0079022D01*
X0624423Y0079022D01*
X0625257Y0073866D02*
X0628593Y0073866D01*
X0629427Y0073032D01*
X0629427Y0071364D01*
X0628593Y0070530D01*
X0625257Y0070530D02*
X0624423Y0071364D01*
X0624423Y0073032D01*
X0625257Y0073866D01*
X0626925Y0063553D02*
X0628593Y0063553D01*
X0629427Y0062719D01*
X0629427Y0061051D01*
X0628593Y0060217D01*
X0626925Y0060217D01*
X0626091Y0061051D01*
X0626091Y0062719D01*
X0626925Y0063553D01*
X0626091Y0058397D02*
X0628593Y0058397D01*
X0629427Y0057563D01*
X0629427Y0055061D01*
X0626091Y0055061D01*
X0626091Y0053240D02*
X0626091Y0051572D01*
X0625257Y0052406D02*
X0628593Y0052406D01*
X0629427Y0051572D01*
X0483227Y0146963D02*
X0481727Y0149213D01*
X0480227Y0146963D01*
X0483227Y0146963D01*
X0483067Y0147203D02*
X0480387Y0147203D01*
X0480786Y0147801D02*
X0482668Y0147801D01*
X0482269Y0148400D02*
X0481185Y0148400D01*
X0481584Y0148998D02*
X0481870Y0148998D01*
X0482727Y0168763D02*
X0482727Y0181663D01*
X0487227Y0173963D02*
X0489727Y0170463D01*
X0489727Y0173963D01*
X0487227Y0173963D01*
X0487531Y0173537D02*
X0489727Y0173537D01*
X0489727Y0172939D02*
X0487958Y0172939D01*
X0488386Y0172340D02*
X0489727Y0172340D01*
X0489727Y0171742D02*
X0488813Y0171742D01*
X0489241Y0171143D02*
X0489727Y0171143D01*
X0489727Y0170545D02*
X0489668Y0170545D01*
X0491727Y0168763D02*
X0491727Y0174013D01*
X0491658Y0174015D01*
X0491590Y0174021D01*
X0491522Y0174031D01*
X0491455Y0174044D01*
X0491389Y0174062D01*
X0491324Y0174083D01*
X0491260Y0174108D01*
X0491198Y0174136D01*
X0491137Y0174168D01*
X0491078Y0174203D01*
X0491022Y0174242D01*
X0490967Y0174284D01*
X0490916Y0174329D01*
X0490866Y0174377D01*
X0490820Y0174427D01*
X0490777Y0174480D01*
X0490736Y0174536D01*
X0490699Y0174593D01*
X0490666Y0174653D01*
X0490635Y0174715D01*
X0490609Y0174778D01*
X0490586Y0174842D01*
X0490566Y0174908D01*
X0490551Y0174975D01*
X0490539Y0175042D01*
X0490531Y0175110D01*
X0490527Y0175179D01*
X0490527Y0175247D01*
X0490531Y0175316D01*
X0490539Y0175384D01*
X0490551Y0175451D01*
X0490566Y0175518D01*
X0490586Y0175584D01*
X0490609Y0175648D01*
X0490635Y0175711D01*
X0490666Y0175773D01*
X0490699Y0175833D01*
X0490736Y0175890D01*
X0490777Y0175946D01*
X0490820Y0175999D01*
X0490866Y0176049D01*
X0490916Y0176097D01*
X0490967Y0176142D01*
X0491022Y0176184D01*
X0491078Y0176223D01*
X0491137Y0176258D01*
X0491198Y0176290D01*
X0491260Y0176318D01*
X0491324Y0176343D01*
X0491389Y0176364D01*
X0491455Y0176382D01*
X0491522Y0176395D01*
X0491590Y0176405D01*
X0491658Y0176411D01*
X0491727Y0176413D01*
X0491727Y0181663D01*
X0469477Y0207513D02*
X0430477Y0207513D01*
X0430477Y0212763D01*
X0430546Y0212765D01*
X0430614Y0212771D01*
X0430682Y0212781D01*
X0430749Y0212794D01*
X0430815Y0212812D01*
X0430880Y0212833D01*
X0430944Y0212858D01*
X0431006Y0212886D01*
X0431067Y0212918D01*
X0431126Y0212953D01*
X0431182Y0212992D01*
X0431237Y0213034D01*
X0431288Y0213079D01*
X0431338Y0213127D01*
X0431384Y0213177D01*
X0431427Y0213230D01*
X0431468Y0213286D01*
X0431505Y0213343D01*
X0431538Y0213403D01*
X0431569Y0213465D01*
X0431595Y0213528D01*
X0431618Y0213592D01*
X0431638Y0213658D01*
X0431653Y0213725D01*
X0431665Y0213792D01*
X0431673Y0213860D01*
X0431677Y0213929D01*
X0431677Y0213997D01*
X0431673Y0214066D01*
X0431665Y0214134D01*
X0431653Y0214201D01*
X0431638Y0214268D01*
X0431618Y0214334D01*
X0431595Y0214398D01*
X0431569Y0214461D01*
X0431538Y0214523D01*
X0431505Y0214583D01*
X0431468Y0214640D01*
X0431427Y0214696D01*
X0431384Y0214749D01*
X0431338Y0214799D01*
X0431288Y0214847D01*
X0431237Y0214892D01*
X0431182Y0214934D01*
X0431126Y0214973D01*
X0431067Y0215008D01*
X0431006Y0215040D01*
X0430944Y0215068D01*
X0430880Y0215093D01*
X0430815Y0215114D01*
X0430749Y0215132D01*
X0430682Y0215145D01*
X0430614Y0215155D01*
X0430546Y0215161D01*
X0430477Y0215163D01*
X0430477Y0220413D01*
X0469477Y0220413D01*
X0469477Y0207513D01*
X0434977Y0215713D02*
X0432477Y0219213D01*
X0432477Y0215713D01*
X0434977Y0215713D01*
X0434749Y0216032D02*
X0432477Y0216032D01*
X0432477Y0216630D02*
X0434322Y0216630D01*
X0433894Y0217229D02*
X0432477Y0217229D01*
X0432477Y0217827D02*
X0433467Y0217827D01*
X0433039Y0218426D02*
X0432477Y0218426D01*
X0432477Y0219024D02*
X0432612Y0219024D01*
X0408227Y0208213D02*
X0405977Y0206713D01*
X0405977Y0209713D01*
X0408227Y0208213D01*
X0408169Y0208251D02*
X0405977Y0208251D01*
X0405977Y0207653D02*
X0407387Y0207653D01*
X0406489Y0207054D02*
X0405977Y0207054D01*
X0405977Y0208850D02*
X0407272Y0208850D01*
X0406374Y0209448D02*
X0405977Y0209448D01*
X0403477Y0202213D02*
X0403477Y0197463D01*
X0406727Y0199963D01*
X0403477Y0202213D01*
X0403477Y0201667D02*
X0404264Y0201667D01*
X0403477Y0201069D02*
X0405129Y0201069D01*
X0405993Y0200470D02*
X0403477Y0200470D01*
X0403477Y0199872D02*
X0406609Y0199872D01*
X0405831Y0199273D02*
X0403477Y0199273D01*
X0403477Y0198675D02*
X0405053Y0198675D01*
X0404275Y0198076D02*
X0403477Y0198076D01*
X0403477Y0197478D02*
X0403497Y0197478D01*
X0374430Y0195150D02*
X0374430Y0187276D01*
X0371477Y0190463D02*
X0369977Y0192713D01*
X0372977Y0192713D01*
X0371477Y0190463D01*
X0371189Y0190894D02*
X0371765Y0190894D01*
X0372164Y0191493D02*
X0370790Y0191493D01*
X0370391Y0192091D02*
X0372563Y0192091D01*
X0372962Y0192690D02*
X0369992Y0192690D01*
X0368524Y0195150D02*
X0368524Y0187276D01*
X0367680Y0187276D02*
X0367680Y0195150D01*
X0366227Y0192713D02*
X0363227Y0192713D01*
X0364727Y0190463D01*
X0366227Y0192713D01*
X0366212Y0192690D02*
X0363242Y0192690D01*
X0363641Y0192091D02*
X0365813Y0192091D01*
X0365414Y0191493D02*
X0364040Y0191493D01*
X0364439Y0190894D02*
X0365015Y0190894D01*
X0361774Y0187276D02*
X0361774Y0195150D01*
X0334777Y0201963D02*
X0327177Y0201963D01*
X0327175Y0201894D01*
X0327169Y0201826D01*
X0327159Y0201758D01*
X0327146Y0201691D01*
X0327128Y0201625D01*
X0327107Y0201560D01*
X0327082Y0201496D01*
X0327054Y0201434D01*
X0327022Y0201373D01*
X0326987Y0201314D01*
X0326948Y0201258D01*
X0326906Y0201203D01*
X0326861Y0201152D01*
X0326813Y0201102D01*
X0326763Y0201056D01*
X0326710Y0201013D01*
X0326654Y0200972D01*
X0326597Y0200935D01*
X0326537Y0200902D01*
X0326475Y0200871D01*
X0326412Y0200845D01*
X0326348Y0200822D01*
X0326282Y0200802D01*
X0326215Y0200787D01*
X0326148Y0200775D01*
X0326080Y0200767D01*
X0326011Y0200763D01*
X0325943Y0200763D01*
X0325874Y0200767D01*
X0325806Y0200775D01*
X0325739Y0200787D01*
X0325672Y0200802D01*
X0325606Y0200822D01*
X0325542Y0200845D01*
X0325479Y0200871D01*
X0325417Y0200902D01*
X0325357Y0200935D01*
X0325300Y0200972D01*
X0325244Y0201013D01*
X0325191Y0201056D01*
X0325141Y0201102D01*
X0325093Y0201152D01*
X0325048Y0201203D01*
X0325006Y0201258D01*
X0324967Y0201314D01*
X0324932Y0201373D01*
X0324900Y0201434D01*
X0324872Y0201496D01*
X0324847Y0201560D01*
X0324826Y0201625D01*
X0324808Y0201691D01*
X0324795Y0201758D01*
X0324785Y0201826D01*
X0324779Y0201894D01*
X0324777Y0201963D01*
X0317177Y0201963D01*
X0329477Y0199963D02*
X0329477Y0197963D01*
X0332727Y0199963D01*
X0329477Y0199963D01*
X0329477Y0199872D02*
X0332580Y0199872D01*
X0331607Y0199273D02*
X0329477Y0199273D01*
X0329477Y0198675D02*
X0330635Y0198675D01*
X0329662Y0198076D02*
X0329477Y0198076D01*
X0334777Y0180963D02*
X0317177Y0180963D01*
X0326290Y0178165D02*
X0334164Y0178165D01*
X0330977Y0175213D02*
X0328727Y0173713D01*
X0328727Y0176713D01*
X0330977Y0175213D01*
X0330796Y0175333D02*
X0328727Y0175333D01*
X0328727Y0175931D02*
X0329899Y0175931D01*
X0329001Y0176530D02*
X0328727Y0176530D01*
X0328727Y0174734D02*
X0330260Y0174734D01*
X0329362Y0174136D02*
X0328727Y0174136D01*
X0326290Y0172260D02*
X0334164Y0172260D01*
X0347727Y0152663D02*
X0347727Y0139763D01*
X0353192Y0143612D02*
X0354727Y0143612D01*
X0354727Y0144210D02*
X0352764Y0144210D01*
X0352337Y0144809D02*
X0354727Y0144809D01*
X0354727Y0144963D02*
X0352227Y0144963D01*
X0354727Y0141463D01*
X0354727Y0144963D01*
X0354727Y0143013D02*
X0353619Y0143013D01*
X0354047Y0142415D02*
X0354727Y0142415D01*
X0354727Y0141816D02*
X0354474Y0141816D01*
X0356727Y0139763D02*
X0356727Y0145013D01*
X0356658Y0145015D01*
X0356590Y0145021D01*
X0356522Y0145031D01*
X0356455Y0145044D01*
X0356389Y0145062D01*
X0356324Y0145083D01*
X0356260Y0145108D01*
X0356198Y0145136D01*
X0356137Y0145168D01*
X0356078Y0145203D01*
X0356022Y0145242D01*
X0355967Y0145284D01*
X0355916Y0145329D01*
X0355866Y0145377D01*
X0355820Y0145427D01*
X0355777Y0145480D01*
X0355736Y0145536D01*
X0355699Y0145593D01*
X0355666Y0145653D01*
X0355635Y0145715D01*
X0355609Y0145778D01*
X0355586Y0145842D01*
X0355566Y0145908D01*
X0355551Y0145975D01*
X0355539Y0146042D01*
X0355531Y0146110D01*
X0355527Y0146179D01*
X0355527Y0146247D01*
X0355531Y0146316D01*
X0355539Y0146384D01*
X0355551Y0146451D01*
X0355566Y0146518D01*
X0355586Y0146584D01*
X0355609Y0146648D01*
X0355635Y0146711D01*
X0355666Y0146773D01*
X0355699Y0146833D01*
X0355736Y0146890D01*
X0355777Y0146946D01*
X0355820Y0146999D01*
X0355866Y0147049D01*
X0355916Y0147097D01*
X0355967Y0147142D01*
X0356022Y0147184D01*
X0356078Y0147223D01*
X0356137Y0147258D01*
X0356198Y0147290D01*
X0356260Y0147318D01*
X0356324Y0147343D01*
X0356389Y0147364D01*
X0356455Y0147382D01*
X0356522Y0147395D01*
X0356590Y0147405D01*
X0356658Y0147411D01*
X0356727Y0147413D01*
X0356727Y0152663D01*
X0362227Y0152663D02*
X0362227Y0147413D01*
X0362296Y0147411D01*
X0362364Y0147405D01*
X0362432Y0147395D01*
X0362499Y0147382D01*
X0362565Y0147364D01*
X0362630Y0147343D01*
X0362694Y0147318D01*
X0362756Y0147290D01*
X0362817Y0147258D01*
X0362876Y0147223D01*
X0362932Y0147184D01*
X0362987Y0147142D01*
X0363038Y0147097D01*
X0363088Y0147049D01*
X0363134Y0146999D01*
X0363177Y0146946D01*
X0363218Y0146890D01*
X0363255Y0146833D01*
X0363288Y0146773D01*
X0363319Y0146711D01*
X0363345Y0146648D01*
X0363368Y0146584D01*
X0363388Y0146518D01*
X0363403Y0146451D01*
X0363415Y0146384D01*
X0363423Y0146316D01*
X0363427Y0146247D01*
X0363427Y0146179D01*
X0363423Y0146110D01*
X0363415Y0146042D01*
X0363403Y0145975D01*
X0363388Y0145908D01*
X0363368Y0145842D01*
X0363345Y0145778D01*
X0363319Y0145715D01*
X0363288Y0145653D01*
X0363255Y0145593D01*
X0363218Y0145536D01*
X0363177Y0145480D01*
X0363134Y0145427D01*
X0363088Y0145377D01*
X0363038Y0145329D01*
X0362987Y0145284D01*
X0362932Y0145242D01*
X0362876Y0145203D01*
X0362817Y0145168D01*
X0362756Y0145136D01*
X0362694Y0145108D01*
X0362630Y0145083D01*
X0362565Y0145062D01*
X0362499Y0145044D01*
X0362432Y0145031D01*
X0362364Y0145021D01*
X0362296Y0145015D01*
X0362227Y0145013D01*
X0362227Y0139763D01*
X0371227Y0139763D02*
X0371227Y0152663D01*
X0365630Y0148998D02*
X0364227Y0148998D01*
X0364227Y0148400D02*
X0366057Y0148400D01*
X0366485Y0147801D02*
X0364227Y0147801D01*
X0364227Y0147463D02*
X0366727Y0147463D01*
X0364227Y0150963D01*
X0364227Y0147463D01*
X0364227Y0149597D02*
X0365202Y0149597D01*
X0364775Y0150196D02*
X0364227Y0150196D01*
X0364227Y0150794D02*
X0364347Y0150794D01*
X0337596Y0121763D02*
X0331427Y0121763D01*
X0331425Y0121694D01*
X0331419Y0121626D01*
X0331409Y0121558D01*
X0331396Y0121491D01*
X0331378Y0121425D01*
X0331357Y0121360D01*
X0331332Y0121296D01*
X0331304Y0121234D01*
X0331272Y0121173D01*
X0331237Y0121114D01*
X0331198Y0121058D01*
X0331156Y0121003D01*
X0331111Y0120952D01*
X0331063Y0120902D01*
X0331013Y0120856D01*
X0330960Y0120813D01*
X0330904Y0120772D01*
X0330847Y0120735D01*
X0330787Y0120702D01*
X0330725Y0120671D01*
X0330662Y0120645D01*
X0330598Y0120622D01*
X0330532Y0120602D01*
X0330465Y0120587D01*
X0330398Y0120575D01*
X0330330Y0120567D01*
X0330261Y0120563D01*
X0330193Y0120563D01*
X0330124Y0120567D01*
X0330056Y0120575D01*
X0329989Y0120587D01*
X0329922Y0120602D01*
X0329856Y0120622D01*
X0329792Y0120645D01*
X0329729Y0120671D01*
X0329667Y0120702D01*
X0329607Y0120735D01*
X0329550Y0120772D01*
X0329494Y0120813D01*
X0329441Y0120856D01*
X0329391Y0120902D01*
X0329343Y0120952D01*
X0329298Y0121003D01*
X0329256Y0121058D01*
X0329217Y0121114D01*
X0329182Y0121173D01*
X0329150Y0121234D01*
X0329122Y0121296D01*
X0329097Y0121360D01*
X0329076Y0121425D01*
X0329058Y0121491D01*
X0329045Y0121558D01*
X0329035Y0121626D01*
X0329029Y0121694D01*
X0329027Y0121763D01*
X0322859Y0121763D01*
X0332977Y0119213D02*
X0332977Y0116713D01*
X0336477Y0119213D01*
X0332977Y0119213D01*
X0332977Y0119073D02*
X0336281Y0119073D01*
X0335444Y0118474D02*
X0332977Y0118474D01*
X0332977Y0117876D02*
X0334606Y0117876D01*
X0333768Y0117277D02*
X0332977Y0117277D01*
X0337596Y0102163D02*
X0322859Y0102163D01*
X0292180Y0170526D02*
X0292180Y0178400D01*
X0290727Y0175963D02*
X0287727Y0175963D01*
X0289227Y0173713D01*
X0290727Y0175963D01*
X0290706Y0175931D02*
X0287748Y0175931D01*
X0288147Y0175333D02*
X0290307Y0175333D01*
X0289908Y0174734D02*
X0288546Y0174734D01*
X0288945Y0174136D02*
X0289509Y0174136D01*
X0286274Y0170526D02*
X0286274Y0178400D01*
X0264727Y0183463D02*
X0264727Y0186463D01*
X0262477Y0184963D01*
X0264727Y0183463D01*
X0264727Y0183712D02*
X0264353Y0183712D01*
X0264727Y0184311D02*
X0263455Y0184311D01*
X0262557Y0184909D02*
X0264727Y0184909D01*
X0264727Y0185508D02*
X0263295Y0185508D01*
X0264192Y0186106D02*
X0264727Y0186106D01*
X0297227Y0221463D02*
X0295727Y0223713D01*
X0298727Y0223713D01*
X0297227Y0221463D01*
X0296858Y0222017D02*
X0297597Y0222017D01*
X0297996Y0222615D02*
X0296459Y0222615D01*
X0296059Y0223214D02*
X0298395Y0223214D01*
X0227727Y0279763D02*
X0188727Y0279763D01*
X0188727Y0292663D01*
X0227727Y0292663D01*
X0227727Y0287413D01*
X0227658Y0287411D01*
X0227590Y0287405D01*
X0227522Y0287395D01*
X0227455Y0287382D01*
X0227389Y0287364D01*
X0227324Y0287343D01*
X0227260Y0287318D01*
X0227198Y0287290D01*
X0227137Y0287258D01*
X0227078Y0287223D01*
X0227022Y0287184D01*
X0226967Y0287142D01*
X0226916Y0287097D01*
X0226866Y0287049D01*
X0226820Y0286999D01*
X0226777Y0286946D01*
X0226736Y0286890D01*
X0226699Y0286833D01*
X0226666Y0286773D01*
X0226635Y0286711D01*
X0226609Y0286648D01*
X0226586Y0286584D01*
X0226566Y0286518D01*
X0226551Y0286451D01*
X0226539Y0286384D01*
X0226531Y0286316D01*
X0226527Y0286247D01*
X0226527Y0286179D01*
X0226531Y0286110D01*
X0226539Y0286042D01*
X0226551Y0285975D01*
X0226566Y0285908D01*
X0226586Y0285842D01*
X0226609Y0285778D01*
X0226635Y0285715D01*
X0226666Y0285653D01*
X0226699Y0285593D01*
X0226736Y0285536D01*
X0226777Y0285480D01*
X0226820Y0285427D01*
X0226866Y0285377D01*
X0226916Y0285329D01*
X0226967Y0285284D01*
X0227022Y0285242D01*
X0227078Y0285203D01*
X0227137Y0285168D01*
X0227198Y0285136D01*
X0227260Y0285108D01*
X0227324Y0285083D01*
X0227389Y0285062D01*
X0227455Y0285044D01*
X0227522Y0285031D01*
X0227590Y0285021D01*
X0227658Y0285015D01*
X0227727Y0285013D01*
X0227727Y0279763D01*
X0225727Y0280963D02*
X0223227Y0284463D01*
X0225727Y0284463D01*
X0225727Y0280963D01*
X0225727Y0281269D02*
X0225508Y0281269D01*
X0225727Y0281868D02*
X0225080Y0281868D01*
X0224653Y0282467D02*
X0225727Y0282467D01*
X0225727Y0283065D02*
X0224225Y0283065D01*
X0223798Y0283664D02*
X0225727Y0283664D01*
X0225727Y0284262D02*
X0223370Y0284262D01*
X0186227Y0277963D02*
X0184727Y0280213D01*
X0183227Y0277963D01*
X0186227Y0277963D01*
X0186017Y0278277D02*
X0183437Y0278277D01*
X0183836Y0278875D02*
X0185618Y0278875D01*
X0185219Y0279474D02*
X0184235Y0279474D01*
X0184634Y0280072D02*
X0184820Y0280072D01*
X0152477Y0323963D02*
X0150977Y0326213D01*
X0153977Y0326213D01*
X0152477Y0323963D01*
X0152211Y0324362D02*
X0152743Y0324362D01*
X0153143Y0324961D02*
X0151812Y0324961D01*
X0151413Y0325559D02*
X0153542Y0325559D01*
X0153941Y0326158D02*
X0151014Y0326158D01*
X0266727Y0323463D02*
X0268977Y0324963D01*
X0268977Y0321963D01*
X0266727Y0323463D01*
X0267173Y0323165D02*
X0268977Y0323165D01*
X0268977Y0322567D02*
X0268071Y0322567D01*
X0268969Y0321968D02*
X0268977Y0321968D01*
X0268977Y0323764D02*
X0267179Y0323764D01*
X0268077Y0324362D02*
X0268977Y0324362D01*
X0268974Y0324961D02*
X0268977Y0324961D01*
X0399677Y0250113D02*
X0402877Y0250113D01*
X0399677Y0250113D02*
X0399677Y0247363D01*
X0405277Y0245063D02*
X0405277Y0243363D01*
X0399677Y0241063D02*
X0399677Y0238313D01*
X0402877Y0238313D01*
X0410977Y0264963D02*
X0409477Y0267213D01*
X0412477Y0267213D01*
X0410977Y0264963D01*
X0410879Y0265110D02*
X0411075Y0265110D01*
X0411474Y0265708D02*
X0410480Y0265708D01*
X0410081Y0266307D02*
X0411873Y0266307D01*
X0412272Y0266905D02*
X0409682Y0266905D01*
X0624423Y0237776D02*
X0626091Y0236108D01*
X0629427Y0236108D01*
X0628593Y0234288D02*
X0625257Y0234288D01*
X0624423Y0233454D01*
X0624423Y0231786D01*
X0625257Y0230952D01*
X0628593Y0230952D02*
X0629427Y0231786D01*
X0629427Y0233454D01*
X0628593Y0234288D01*
X0626925Y0236108D02*
X0626925Y0239444D01*
X0626091Y0239444D02*
X0624423Y0237776D01*
X0626091Y0239444D02*
X0629427Y0239444D01*
X0629427Y0223975D02*
X0629427Y0222307D01*
X0629427Y0223141D02*
X0626091Y0223141D01*
X0626091Y0223975D01*
X0624423Y0223141D02*
X0623589Y0223141D01*
X0626091Y0220537D02*
X0626091Y0218035D01*
X0626925Y0217201D01*
X0629427Y0217201D01*
X0629427Y0220537D02*
X0626091Y0220537D01*
X0170977Y0186463D02*
X0168727Y0184963D01*
X0170977Y0183463D01*
X0170977Y0186463D01*
X0170977Y0186106D02*
X0170442Y0186106D01*
X0170977Y0185508D02*
X0169545Y0185508D01*
X0168807Y0184909D02*
X0170977Y0184909D01*
X0170977Y0184311D02*
X0169705Y0184311D01*
X0170603Y0183712D02*
X0170977Y0183712D01*
D14*
X0435451Y0340081D02*
X0450451Y0365081D01*
X0465451Y0340081D01*
X0435451Y0340081D01*
X0448451Y0345081D02*
X0452451Y0346081D01*
X0451451Y0342081D01*
X0448451Y0345081D01*
X0449519Y0344013D02*
X0451935Y0344013D01*
X0451451Y0342581D02*
X0448951Y0350081D01*
X0453951Y0350081D01*
X0451451Y0357581D01*
X0451451Y0358081D02*
X0453451Y0350081D01*
X0449451Y0358081D01*
X0451451Y0358081D01*
X0451771Y0356801D02*
X0450091Y0356801D01*
X0450890Y0355203D02*
X0452171Y0355203D01*
X0452571Y0353604D02*
X0451690Y0353604D01*
X0452489Y0352006D02*
X0452970Y0352006D01*
X0453288Y0350407D02*
X0453370Y0350407D01*
X0452334Y0345612D02*
X0450576Y0345612D01*
X0451117Y0342415D02*
X0451535Y0342415D01*
D15*
X0435077Y0346563D02*
X0435077Y0352468D01*
X0435077Y0349515D02*
X0431141Y0349515D01*
X0431141Y0346563D02*
X0431141Y0352468D01*
X0429000Y0352468D02*
X0427032Y0352468D01*
X0428016Y0352468D02*
X0428016Y0346563D01*
X0429000Y0346563D02*
X0427032Y0346563D01*
X0424949Y0347547D02*
X0424949Y0351483D01*
X0423965Y0352468D01*
X0421996Y0352468D01*
X0421012Y0351483D01*
X0421012Y0349515D02*
X0422980Y0349515D01*
X0421012Y0349515D02*
X0421012Y0347547D01*
X0421996Y0346563D01*
X0423965Y0346563D01*
X0424949Y0347547D01*
X0418871Y0346563D02*
X0418871Y0352468D01*
X0418871Y0349515D02*
X0414935Y0349515D01*
X0414935Y0346563D02*
X0414935Y0352468D01*
X0413807Y0356463D02*
X0413807Y0360399D01*
X0411839Y0362368D01*
X0409870Y0360399D01*
X0409870Y0356463D01*
X0407730Y0357447D02*
X0406746Y0356463D01*
X0404777Y0356463D01*
X0403793Y0357447D01*
X0403793Y0362368D01*
X0401653Y0362368D02*
X0397716Y0362368D01*
X0399684Y0362368D02*
X0399684Y0356463D01*
X0399656Y0352468D02*
X0400640Y0351483D01*
X0400640Y0347547D01*
X0399656Y0346563D01*
X0397687Y0346563D01*
X0396703Y0347547D01*
X0396703Y0351483D01*
X0397687Y0352468D01*
X0399656Y0352468D01*
X0402780Y0352468D02*
X0402780Y0348531D01*
X0404749Y0346563D01*
X0406717Y0348531D01*
X0406717Y0352468D01*
X0407730Y0357447D02*
X0407730Y0362368D01*
X0409870Y0359415D02*
X0413807Y0359415D01*
X0415948Y0357447D02*
X0416932Y0356463D01*
X0418900Y0356463D01*
X0419884Y0357447D01*
X0419884Y0361383D01*
X0418900Y0362368D01*
X0416932Y0362368D01*
X0415948Y0361383D01*
X0395576Y0362368D02*
X0393607Y0362368D01*
X0394591Y0362368D02*
X0394591Y0356463D01*
X0393607Y0356463D02*
X0395576Y0356463D01*
X0394563Y0352468D02*
X0394563Y0346563D01*
X0390626Y0346563D01*
X0386517Y0346563D02*
X0386517Y0352468D01*
X0384549Y0352468D02*
X0388486Y0352468D01*
X0388572Y0356463D02*
X0387587Y0357447D01*
X0387587Y0361383D01*
X0388572Y0362368D01*
X0390540Y0362368D01*
X0391524Y0361383D01*
X0391524Y0357447D01*
X0390540Y0356463D01*
X0388572Y0356463D01*
X0385447Y0356463D02*
X0385447Y0362368D01*
X0381510Y0356463D01*
X0381510Y0362368D01*
X0380440Y0352468D02*
X0378472Y0350499D01*
X0378472Y0346563D01*
X0376331Y0347547D02*
X0375347Y0346563D01*
X0373379Y0346563D01*
X0372394Y0347547D01*
X0372394Y0349515D01*
X0374363Y0349515D01*
X0376331Y0351483D02*
X0376331Y0347547D01*
X0378472Y0349515D02*
X0382408Y0349515D01*
X0382408Y0350499D02*
X0382408Y0346563D01*
X0382408Y0350499D02*
X0380440Y0352468D01*
X0376331Y0351483D02*
X0375347Y0352468D01*
X0373379Y0352468D01*
X0372394Y0351483D01*
X0370254Y0352468D02*
X0370254Y0346563D01*
X0366317Y0346563D01*
X0368286Y0349515D02*
X0370254Y0349515D01*
X0370254Y0352468D02*
X0366317Y0352468D01*
D16*
X0226717Y0054104D02*
X0191268Y0054104D01*
X0226717Y0054104D02*
X0226717Y0092821D01*
X0191268Y0092821D01*
X0191268Y0102854D02*
X0226717Y0102854D01*
X0226717Y0141571D01*
X0191268Y0141571D01*
X0222245Y0207010D02*
X0246260Y0207010D01*
X0246260Y0207809D01*
X0222245Y0207010D02*
X0222245Y0232915D01*
X0246260Y0232915D01*
X0246260Y0232116D01*
X0237944Y0274260D02*
X0237944Y0275059D01*
X0237944Y0274260D02*
X0261959Y0274260D01*
X0261959Y0300165D01*
X0237944Y0300165D01*
X0237944Y0299366D01*
X0155930Y0244246D02*
X0155131Y0244246D01*
X0155930Y0244246D02*
X0155930Y0220230D01*
X0130024Y0220230D01*
X0130024Y0244246D01*
X0130823Y0244246D01*
D17*
X0228381Y0122213D03*
X0228381Y0073463D03*
D18*
X0232213Y0063463D03*
X0232213Y0083463D03*
X0232213Y0112213D03*
X0232213Y0132213D03*
D19*
X0289227Y0173100D03*
X0364727Y0189850D03*
X0371477Y0189850D03*
X0297227Y0220850D03*
X0410977Y0264350D03*
X0481727Y0149825D03*
X0184727Y0280825D03*
X0152477Y0323350D03*
D20*
X0210346Y0263601D02*
X0208411Y0261666D01*
X0207927Y0261666D01*
X0208411Y0260655D02*
X0207927Y0260171D01*
X0207927Y0259203D01*
X0208411Y0258720D01*
X0208411Y0257708D02*
X0207927Y0257224D01*
X0207927Y0256257D01*
X0208411Y0255773D01*
X0210346Y0255773D01*
X0210830Y0256257D01*
X0210830Y0257224D01*
X0210346Y0257708D01*
X0210346Y0258720D02*
X0210830Y0259203D01*
X0210830Y0260171D01*
X0210346Y0260655D01*
X0209862Y0260655D01*
X0209378Y0260171D01*
X0208895Y0260655D01*
X0208411Y0260655D01*
X0209378Y0260171D02*
X0209378Y0259687D01*
X0210830Y0261666D02*
X0210830Y0263601D01*
X0210346Y0263601D01*
X0341377Y0196957D02*
X0341377Y0195989D01*
X0341861Y0195506D01*
X0342345Y0195506D01*
X0342828Y0195989D01*
X0342828Y0196957D01*
X0342345Y0197441D01*
X0341861Y0197441D01*
X0341377Y0196957D01*
X0342828Y0196957D02*
X0343312Y0197441D01*
X0343796Y0197441D01*
X0344280Y0196957D01*
X0344280Y0195989D01*
X0343796Y0195506D01*
X0343312Y0195506D01*
X0342828Y0195989D01*
X0342828Y0194494D02*
X0342828Y0192559D01*
X0344280Y0194010D01*
X0341377Y0194010D01*
X0341861Y0191548D02*
X0341377Y0191064D01*
X0341377Y0190096D01*
X0341861Y0189613D01*
X0343796Y0189613D01*
X0344280Y0190096D01*
X0344280Y0191064D01*
X0343796Y0191548D01*
X0358377Y0191207D02*
X0358377Y0190239D01*
X0358861Y0189756D01*
X0359828Y0189756D02*
X0360312Y0190723D01*
X0360312Y0191207D01*
X0359828Y0191691D01*
X0358861Y0191691D01*
X0358377Y0191207D01*
X0359828Y0189756D02*
X0361280Y0189756D01*
X0361280Y0191691D01*
X0359828Y0188744D02*
X0359828Y0186809D01*
X0361280Y0188260D01*
X0358377Y0188260D01*
X0358861Y0185798D02*
X0358377Y0185314D01*
X0358377Y0184346D01*
X0358861Y0183863D01*
X0360796Y0183863D01*
X0361280Y0184346D01*
X0361280Y0185314D01*
X0360796Y0185798D01*
X0363661Y0182601D02*
X0363177Y0182117D01*
X0363177Y0181150D01*
X0363661Y0180666D01*
X0363177Y0179655D02*
X0363177Y0177720D01*
X0365112Y0179655D01*
X0365596Y0179655D01*
X0366080Y0179171D01*
X0366080Y0178203D01*
X0365596Y0177720D01*
X0365596Y0176708D02*
X0366080Y0176224D01*
X0366080Y0174773D01*
X0363177Y0174773D01*
X0363177Y0176224D01*
X0363661Y0176708D01*
X0365596Y0176708D01*
X0365596Y0180666D02*
X0366080Y0181150D01*
X0366080Y0182117D01*
X0365596Y0182601D01*
X0365112Y0182601D01*
X0364628Y0182117D01*
X0364145Y0182601D01*
X0363661Y0182601D01*
X0364628Y0182117D02*
X0364628Y0181634D01*
X0369677Y0182117D02*
X0369677Y0181150D01*
X0370161Y0180666D01*
X0371128Y0180666D02*
X0371612Y0181634D01*
X0371612Y0182117D01*
X0371128Y0182601D01*
X0370161Y0182601D01*
X0369677Y0182117D01*
X0371128Y0180666D02*
X0372580Y0180666D01*
X0372580Y0182601D01*
X0372096Y0179655D02*
X0372580Y0179171D01*
X0372580Y0178203D01*
X0372096Y0177720D01*
X0372096Y0176708D02*
X0372580Y0176224D01*
X0372580Y0174773D01*
X0369677Y0174773D01*
X0369677Y0176224D01*
X0370161Y0176708D01*
X0372096Y0176708D01*
X0369677Y0177720D02*
X0371612Y0179655D01*
X0372096Y0179655D01*
X0369677Y0179655D02*
X0369677Y0177720D01*
X0355449Y0165815D02*
X0354482Y0165815D01*
X0354965Y0165815D02*
X0354965Y0163396D01*
X0355449Y0162913D01*
X0355933Y0162913D01*
X0356417Y0163396D01*
X0353470Y0162913D02*
X0353470Y0165815D01*
X0352019Y0165815D01*
X0351535Y0165331D01*
X0351535Y0164364D01*
X0352019Y0163880D01*
X0353470Y0163880D01*
X0350524Y0163396D02*
X0350040Y0162913D01*
X0349072Y0162913D01*
X0348589Y0163396D01*
X0348589Y0165331D01*
X0349072Y0165815D01*
X0350040Y0165815D01*
X0350524Y0165331D01*
X0350524Y0164848D01*
X0350040Y0164364D01*
X0348589Y0164364D01*
X0346408Y0172300D02*
X0344957Y0172300D01*
X0344473Y0172783D01*
X0344473Y0174718D01*
X0344957Y0175202D01*
X0346408Y0175202D01*
X0346408Y0172300D01*
X0343461Y0172300D02*
X0341526Y0172300D01*
X0342494Y0172300D02*
X0342494Y0175202D01*
X0343461Y0174235D01*
X0340515Y0174235D02*
X0340515Y0174718D01*
X0340031Y0175202D01*
X0339063Y0175202D01*
X0338580Y0174718D01*
X0338580Y0174235D01*
X0339063Y0173751D01*
X0340031Y0173751D01*
X0340515Y0174235D01*
X0340031Y0173751D02*
X0340515Y0173267D01*
X0340515Y0172783D01*
X0340031Y0172300D01*
X0339063Y0172300D01*
X0338580Y0172783D01*
X0338580Y0173267D01*
X0339063Y0173751D01*
X0312780Y0172941D02*
X0312780Y0171006D01*
X0311328Y0171006D01*
X0311812Y0171973D01*
X0311812Y0172457D01*
X0311328Y0172941D01*
X0310361Y0172941D01*
X0309877Y0172457D01*
X0309877Y0171489D01*
X0310361Y0171006D01*
X0310361Y0169994D02*
X0309877Y0169510D01*
X0309877Y0168543D01*
X0310361Y0168059D01*
X0311328Y0168059D02*
X0311812Y0169027D01*
X0311812Y0169510D01*
X0311328Y0169994D01*
X0310361Y0169994D01*
X0311328Y0168059D02*
X0312780Y0168059D01*
X0312780Y0169994D01*
X0312296Y0167048D02*
X0311328Y0167048D01*
X0310845Y0166564D01*
X0310845Y0165113D01*
X0310845Y0166080D02*
X0309877Y0167048D01*
X0309877Y0165113D02*
X0312780Y0165113D01*
X0312780Y0166564D01*
X0312296Y0167048D01*
X0386623Y0198550D02*
X0388558Y0198550D01*
X0386623Y0200485D01*
X0386623Y0200968D01*
X0387107Y0201452D01*
X0388074Y0201452D01*
X0388558Y0200968D01*
X0389570Y0200968D02*
X0390053Y0201452D01*
X0391505Y0201452D01*
X0391505Y0198550D01*
X0390053Y0198550D01*
X0389570Y0199033D01*
X0389570Y0200968D01*
X0392516Y0200968D02*
X0394451Y0199033D01*
X0394451Y0198550D01*
X0392516Y0198550D01*
X0392516Y0200968D02*
X0392516Y0201452D01*
X0394451Y0201452D01*
X0470249Y0222346D02*
X0470249Y0222830D01*
X0470733Y0223314D01*
X0472184Y0223314D01*
X0472184Y0222346D01*
X0471700Y0221863D01*
X0470733Y0221863D01*
X0470249Y0222346D01*
X0471217Y0224281D02*
X0472184Y0223314D01*
X0473196Y0223798D02*
X0473196Y0224281D01*
X0473679Y0224765D01*
X0474647Y0224765D01*
X0475131Y0224281D01*
X0476142Y0224281D02*
X0476626Y0224765D01*
X0477593Y0224765D01*
X0478077Y0224281D01*
X0478077Y0222346D01*
X0477593Y0221863D01*
X0476626Y0221863D01*
X0476142Y0222346D01*
X0475131Y0221863D02*
X0473196Y0223798D01*
X0473196Y0221863D02*
X0475131Y0221863D01*
X0471217Y0224281D02*
X0470249Y0224765D01*
X0469417Y0245913D02*
X0469417Y0248815D01*
X0467965Y0248815D01*
X0467482Y0248331D01*
X0467482Y0247364D01*
X0467965Y0246880D01*
X0469417Y0246880D01*
X0468449Y0246880D02*
X0467482Y0245913D01*
X0466470Y0245913D02*
X0464535Y0245913D01*
X0465503Y0245913D02*
X0465503Y0248815D01*
X0466470Y0247848D01*
X0463524Y0247848D02*
X0463524Y0248331D01*
X0463040Y0248815D01*
X0462072Y0248815D01*
X0461589Y0248331D01*
X0461589Y0247848D01*
X0462072Y0247364D01*
X0463040Y0247364D01*
X0463524Y0247848D01*
X0463040Y0247364D02*
X0463524Y0246880D01*
X0463524Y0246396D01*
X0463040Y0245913D01*
X0462072Y0245913D01*
X0461589Y0246396D01*
X0461589Y0246880D01*
X0462072Y0247364D01*
X0392077Y0266346D02*
X0391593Y0265863D01*
X0391110Y0265863D01*
X0390626Y0266346D01*
X0390626Y0268765D01*
X0391110Y0268765D02*
X0390142Y0268765D01*
X0389131Y0268765D02*
X0389131Y0265863D01*
X0389131Y0266830D02*
X0387679Y0266830D01*
X0387196Y0267314D01*
X0387196Y0268281D01*
X0387679Y0268765D01*
X0389131Y0268765D01*
X0386184Y0267798D02*
X0385217Y0268765D01*
X0385217Y0265863D01*
X0386184Y0265863D02*
X0384249Y0265863D01*
X0462483Y0293363D02*
X0462483Y0296265D01*
X0463934Y0294814D01*
X0461999Y0294814D01*
X0464946Y0294814D02*
X0465429Y0294330D01*
X0466881Y0294330D01*
X0466881Y0293363D02*
X0466881Y0296265D01*
X0465429Y0296265D01*
X0464946Y0295781D01*
X0464946Y0294814D01*
X0467892Y0296265D02*
X0468860Y0296265D01*
X0468376Y0296265D02*
X0468376Y0293846D01*
X0468860Y0293363D01*
X0469343Y0293363D01*
X0469827Y0293846D01*
X0592089Y0357413D02*
X0594024Y0357413D01*
X0592089Y0359348D01*
X0592089Y0359831D01*
X0592572Y0360315D01*
X0593540Y0360315D01*
X0594024Y0359831D01*
X0595035Y0359831D02*
X0595035Y0358864D01*
X0595519Y0358380D01*
X0596970Y0358380D01*
X0596970Y0357413D02*
X0596970Y0360315D01*
X0595519Y0360315D01*
X0595035Y0359831D01*
X0597982Y0360315D02*
X0598949Y0360315D01*
X0598465Y0360315D02*
X0598465Y0357896D01*
X0598949Y0357413D01*
X0599433Y0357413D01*
X0599917Y0357896D01*
X0396449Y0138815D02*
X0395482Y0138815D01*
X0395965Y0138815D02*
X0395965Y0136396D01*
X0396449Y0135913D01*
X0396933Y0135913D01*
X0397417Y0136396D01*
X0394470Y0135913D02*
X0394470Y0138815D01*
X0393019Y0138815D01*
X0392535Y0138331D01*
X0392535Y0137364D01*
X0393019Y0136880D01*
X0394470Y0136880D01*
X0391524Y0136396D02*
X0391040Y0135913D01*
X0390072Y0135913D01*
X0389589Y0136396D01*
X0389589Y0136880D01*
X0390072Y0137364D01*
X0391524Y0137364D01*
X0391524Y0136396D01*
X0391524Y0137364D02*
X0390556Y0138331D01*
X0389589Y0138815D01*
X0390089Y0119565D02*
X0390089Y0119081D01*
X0392024Y0117146D01*
X0392024Y0116663D01*
X0393035Y0118114D02*
X0393519Y0117630D01*
X0394970Y0117630D01*
X0394970Y0116663D02*
X0394970Y0119565D01*
X0393519Y0119565D01*
X0393035Y0119081D01*
X0393035Y0118114D01*
X0392024Y0119565D02*
X0390089Y0119565D01*
X0395982Y0119565D02*
X0396949Y0119565D01*
X0396465Y0119565D02*
X0396465Y0117146D01*
X0396949Y0116663D01*
X0397433Y0116663D01*
X0397917Y0117146D01*
X0367167Y0115896D02*
X0366683Y0115413D01*
X0366199Y0115413D01*
X0365715Y0115896D01*
X0365715Y0118315D01*
X0365232Y0118315D02*
X0366199Y0118315D01*
X0364220Y0118315D02*
X0362769Y0118315D01*
X0362285Y0117831D01*
X0362285Y0116864D01*
X0362769Y0116380D01*
X0364220Y0116380D01*
X0364220Y0115413D02*
X0364220Y0118315D01*
X0361274Y0117831D02*
X0361274Y0117348D01*
X0360790Y0116864D01*
X0359822Y0116864D01*
X0359339Y0116380D01*
X0359339Y0115896D01*
X0359822Y0115413D01*
X0360790Y0115413D01*
X0361274Y0115896D01*
X0361274Y0116380D01*
X0360790Y0116864D01*
X0359822Y0116864D02*
X0359339Y0117348D01*
X0359339Y0117831D01*
X0359822Y0118315D01*
X0360790Y0118315D01*
X0361274Y0117831D01*
D21*
X0331589Y0175213D03*
X0261865Y0184963D03*
X0168115Y0184963D03*
X0407339Y0199963D03*
X0408839Y0208213D03*
X0266115Y0323463D03*
D22*
X0263593Y0287213D03*
X0220611Y0219963D03*
D23*
X0220453Y0228959D03*
X0220453Y0210967D03*
X0263751Y0278217D03*
X0263751Y0296209D03*
D24*
X0142977Y0218596D03*
D25*
X0133981Y0218439D03*
X0151973Y0218439D03*
D26*
X0130432Y0260156D02*
X0105022Y0260156D01*
X0105022Y0275770D01*
X0130432Y0275770D01*
X0130432Y0260156D01*
X0288170Y0289258D02*
X0303784Y0289258D01*
X0303784Y0314667D01*
X0288170Y0314667D01*
X0288170Y0289258D01*
D27*
X0096727Y0317134D03*
M02*
