%
M48
M72
T01C0.01575
T02C0.01969
T03C0.02362
T04C0.02756
T05C0.03200
T06C0.03600
T07C0.04000
T08C0.04331
T09C0.04724
T10C0.05512
T11C0.06299
T12C0.11811
T13C0.12598
%
T01
X98477Y18843
X186977Y87593
X188977Y91593
X186227Y94593
X190477Y95593
X192727Y99593
X187727Y107843
X228477Y101093
X233477Y103343
X233727Y110843
X257977Y104843
X266227Y96093
X262727Y92593
X271727Y93593
X295727Y95093
X295727Y87343
X297477Y82093
X280227Y73593
X252477Y69843
X236977Y71593
X236977Y61093
X241227Y45843
X241727Y41093
X250227Y44343
X269727Y52093
X288477Y44593
X300477Y47093
X303977Y53343
X339727Y53093
X339727Y56093
X358477Y62843
X362227Y56093
X367977Y56093
X375727Y59093
X382477Y48843
X375977Y43093
X356477Y22843
X339477Y25593
X379977Y76843
X375967Y86593
X363477Y88593
X377477Y109343
X377477Y121093
X389477Y125843
X389477Y132343
X419977Y120093
X432727Y111343
X438227Y104343
X461227Y100343
X464727Y106343
X464977Y111343
X464727Y131343
X461227Y138843
X471477Y138593
X465227Y148093
X482977Y154093
X497727Y152083
X513227Y141343
X520227Y146093
X523227Y146093
X528727Y130593
X538727Y127843
X550727Y136343
X559977Y138093
X563227Y131593
X584227Y145593
X582227Y149843
X575227Y150343
X596227Y161093
X621477Y131843
X598727Y130843
X586977Y123593
X564977Y102093
X546227Y106843
X538727Y118343
X519727Y117093
X507227Y116843
X497727Y120343
X519727Y129093
X491477Y138343
X507727Y100593
X485227Y94093
X509977Y74843
X565227Y31843
X570977Y34843
X570977Y28843
X582227Y28593
X582227Y25593
X595227Y75343
X595227Y78343
X599477Y81843
X586977Y84843
X607477Y99093
X571227Y193093
X582227Y205093
X572477Y209843
X595977Y218343
X584727Y250843
X581727Y250843
X591227Y253093
X570727Y251843
X553227Y288843
X553227Y291843
X384477Y263343
X384477Y194343
X306977Y130343
X315727Y122093
X295727Y110593
X295727Y102843
X282477Y125593
X275477Y125343
X268977Y140093
X265977Y143093
X277268Y145134
X235477Y91093
X232977Y85343
X147227Y100843
X130477Y102093
X128477Y142093
X128477Y149843
X135227Y156343
X143977Y144343
X121467Y163602
X125477Y171093
X135977Y176593
X157727Y191593
T02
X351977Y51593
X601227Y202593
X601227Y206093
X627727Y206093
X627727Y202593
X557727Y219843
X557727Y223343
X620477Y306593
X620477Y310093
X623977Y310093
X627477Y310093
X630977Y310093
X630977Y306593
X627477Y306593
X623977Y306593
T03
X620227Y287093
X633727Y271093
X633727Y267343
X593977Y269093
X508477Y271093
X508477Y276093
X508477Y281093
X503477Y281093
X503477Y276093
X503477Y271093
X503477Y266093
X508477Y266093
X508477Y261093
X503477Y261093
X503477Y256093
X508477Y256093
X508477Y251093
X503477Y251093
X503727Y211343
X508727Y211343
X508727Y206343
X503727Y206343
X503727Y201343
X508727Y201343
X508727Y196343
X503727Y196343
X503727Y191343
X508727Y191343
X508727Y186343
X503727Y186343
X503727Y181343
X508727Y181343
X601227Y167843
X249477Y239593
X212727Y239843
X212727Y267593
X249727Y281093
X212727Y204343
X82227Y177843
X217227Y114843
T04
X257774Y38093
X263680Y38093
X334774Y65843
X340680Y65843
T05
X606227Y150593
X616227Y150593
X626227Y150593
T06
X468727Y116093
X428727Y126093
X116426Y282850
X100278Y312835
X126426Y322850
X110278Y352835
X37227Y177843
X37227Y158093
X77227Y167843
X77227Y148093
T07
X100578Y197635
X41578Y197635
X173585Y187882
X173585Y207882
X100328Y291585
X41328Y291585
X352227Y106843
X352227Y86843
X554977Y67343
X574977Y67343
X623727Y69593
X623727Y59593
X623727Y49593
X623727Y79593
X623727Y89593
X623727Y99593
X623727Y109593
X623727Y119593
T08
X621227Y167843
X586977Y182343
X426727Y139843
X314727Y111093
X259227Y130093
X194727Y156843
X179469Y171291
X201227Y66606
X201227Y37079
X106727Y37079
X106727Y66606
X442477Y315079
X442477Y344606
X513477Y344606
X513477Y315079
X584477Y315079
X584477Y344606
T09
X500097Y94341
X500097Y84499
X500097Y74656
X500097Y64814
X500097Y54971
X500097Y45129
X500097Y35286
X500097Y25444
X421357Y30365
X421357Y40207
X421357Y59893
X421357Y79578
X421357Y89420
X100563Y220378
X61193Y220378
X61193Y269591
X100563Y269591
T10
X73683Y316752
X73683Y333287
X73683Y349823
X39963Y125520
X39963Y105520
X39963Y85020
X39963Y65520
X602959Y185593
X619495Y185593
T11
X477014Y208236
X477014Y222016
X477014Y235795
X477014Y249575
X362841Y242685
X336503Y250685
X336503Y272685
X336503Y294685
X336503Y219882
X362841Y215126
X336503Y197882
X336503Y175882
X175085Y156890
X175085Y134890
X175085Y112890
X175085Y231000
X175085Y253000
X175085Y275000
T12
X88841Y349823
X51833Y325020
T13
X43507Y26622
X43507Y353394
X626184Y353394
X626184Y26622
M30
