G75*
G70*
%OFA0B0*%
%FSLAX24Y24*%
%IPPOS*%
%LPD*%
%AMOC8*
5,1,8,0,0,1.08239X$1,22.5*
%
%ADD10C,0.1060*%
%ADD11OC8,0.0660*%
%ADD12OC8,0.0887*%
%ADD13C,0.1241*%
%ADD14OC8,0.0600*%
%ADD15R,0.0887X0.0887*%
%ADD16C,0.0050*%
%ADD17C,0.0990*%
%ADD18R,0.0572X0.0651*%
%ADD19R,0.0651X0.0532*%
%ADD20C,0.0660*%
%ADD21R,0.0532X0.0651*%
%ADD22R,0.0651X0.0572*%
%ADD23R,0.5572X0.1241*%
%ADD24R,0.1517X0.0572*%
%ADD25R,0.4036X0.3564*%
%ADD26C,0.1296*%
%ADD27OC8,0.1296*%
%ADD28OC8,0.0920*%
%ADD29R,0.0414X0.0414*%
%ADD30OC8,0.0710*%
%ADD31R,0.0651X0.0749*%
%ADD32R,0.1005X0.1005*%
%ADD33R,0.0749X0.0651*%
%ADD34R,0.0360X0.1340*%
%ADD35R,0.1340X0.0360*%
%ADD36R,0.0532X0.0532*%
%ADD37R,0.0690X0.0769*%
%ADD38R,0.0769X0.0690*%
%ADD39R,0.0926X0.0769*%
%ADD40R,0.1123X0.0690*%
%ADD41OC8,0.1060*%
%ADD42R,0.0454X0.0532*%
%ADD43C,0.0769*%
%ADD44OC8,0.0769*%
%ADD45R,0.0770X0.0690*%
%ADD46R,0.0660X0.1260*%
%ADD47R,0.1660X0.0490*%
%ADD48OC8,0.0990*%
%ADD49R,0.0560X0.0660*%
%ADD50R,0.1060X0.1260*%
%ADD51C,0.0010*%
%ADD52C,0.0540*%
%ADD53C,0.0493*%
%ADD54R,0.2225X0.2225*%
%ADD55C,0.2225*%
D10*
X029462Y024125D03*
X007937Y026175D03*
X056319Y017186D03*
X060256Y017186D03*
X060256Y012264D03*
X056319Y012264D03*
D11*
X055612Y010050D03*
X061512Y010050D03*
X061512Y019350D03*
X055612Y019350D03*
D12*
X056912Y006129D03*
X056912Y004475D03*
X056912Y002821D03*
X005864Y016400D03*
X004211Y016400D03*
X054285Y033567D03*
X056335Y033567D03*
X058285Y033567D03*
D13*
X058428Y006129D03*
X054727Y003648D03*
D14*
X053512Y005025D03*
X058662Y008225D03*
X062662Y007225D03*
X054512Y009025D03*
X058662Y021200D03*
X058662Y022200D03*
X062662Y021200D03*
X054662Y022200D03*
X022787Y022625D03*
X018787Y023625D03*
D15*
X052285Y033567D03*
D16*
X006374Y033771D02*
X006367Y033684D01*
X006344Y033600D01*
X006307Y033521D01*
X006257Y033449D01*
X006196Y033388D01*
X006124Y033338D01*
X006045Y033301D01*
X005961Y033278D01*
X005874Y033271D01*
X005787Y033278D01*
X005703Y033301D01*
X005624Y033338D01*
X005553Y033388D01*
X005491Y033449D01*
X005441Y033521D01*
X005404Y033600D01*
X005382Y033684D01*
X005374Y033771D01*
X005382Y033858D01*
X005404Y033942D01*
X005441Y034021D01*
X005491Y034092D01*
X005553Y034154D01*
X005624Y034204D01*
X005703Y034241D01*
X005787Y034263D01*
X005874Y034271D01*
X005961Y034263D01*
X006045Y034241D01*
X006124Y034204D01*
X006196Y034154D01*
X006257Y034092D01*
X006307Y034021D01*
X006344Y033942D01*
X006367Y033858D01*
X006374Y033771D01*
X006374Y033777D02*
X005375Y033777D01*
X005378Y033729D02*
X006371Y033729D01*
X006366Y033680D02*
X005383Y033680D01*
X005396Y033632D02*
X006353Y033632D01*
X006336Y033583D02*
X005412Y033583D01*
X005435Y033535D02*
X006314Y033535D01*
X006283Y033486D02*
X005466Y033486D01*
X005503Y033438D02*
X006245Y033438D01*
X006197Y033389D02*
X005552Y033389D01*
X005620Y033341D02*
X006128Y033341D01*
X006012Y033292D02*
X005736Y033292D01*
X005379Y033826D02*
X006369Y033826D01*
X006362Y033874D02*
X005386Y033874D01*
X005399Y033923D02*
X006349Y033923D01*
X006330Y033971D02*
X005418Y033971D01*
X005441Y034020D02*
X006308Y034020D01*
X006274Y034068D02*
X005474Y034068D01*
X005516Y034117D02*
X006233Y034117D01*
X006180Y034165D02*
X005569Y034165D01*
X005645Y034214D02*
X006103Y034214D01*
X005965Y034262D02*
X005783Y034262D01*
X061740Y005674D02*
X061790Y005746D01*
X061852Y005807D01*
X061923Y005857D01*
X062002Y005894D01*
X062087Y005917D01*
X062173Y005924D01*
X062260Y005917D01*
X062345Y005894D01*
X062423Y005857D01*
X062495Y005807D01*
X062557Y005746D01*
X062607Y005674D01*
X062643Y005595D01*
X062666Y005511D01*
X062673Y005424D01*
X062666Y005338D01*
X062643Y005253D01*
X062607Y005174D01*
X062557Y005103D01*
X062495Y005041D01*
X062423Y004991D01*
X062345Y004955D01*
X062260Y004932D01*
X062173Y004924D01*
X062087Y004932D01*
X062002Y004955D01*
X061923Y004991D01*
X061852Y005041D01*
X061790Y005103D01*
X061740Y005174D01*
X061704Y005253D01*
X061681Y005338D01*
X061673Y005424D01*
X061681Y005511D01*
X061704Y005595D01*
X061740Y005674D01*
X061755Y005696D02*
X062592Y005696D01*
X062619Y005647D02*
X061728Y005647D01*
X061705Y005599D02*
X062642Y005599D01*
X062655Y005550D02*
X061691Y005550D01*
X061680Y005502D02*
X062667Y005502D01*
X062671Y005453D02*
X061676Y005453D01*
X061675Y005405D02*
X062672Y005405D01*
X062668Y005356D02*
X061679Y005356D01*
X061689Y005308D02*
X062658Y005308D01*
X062645Y005259D02*
X061702Y005259D01*
X061724Y005211D02*
X062623Y005211D01*
X062598Y005162D02*
X061749Y005162D01*
X061783Y005114D02*
X062564Y005114D01*
X062519Y005065D02*
X061828Y005065D01*
X061888Y005017D02*
X062459Y005017D01*
X062373Y004968D02*
X061974Y004968D01*
X061789Y005744D02*
X062558Y005744D01*
X062510Y005793D02*
X061837Y005793D01*
X061900Y005841D02*
X062447Y005841D01*
X062355Y005890D02*
X061992Y005890D01*
D17*
X037804Y005818D02*
X036874Y005818D01*
X036874Y003618D02*
X037804Y003618D01*
X037804Y008018D02*
X036874Y008018D01*
X036874Y010311D02*
X037804Y010311D01*
X037804Y012511D02*
X036874Y012511D01*
X036874Y014711D02*
X037804Y014711D01*
X037804Y017004D02*
X036874Y017004D01*
X036874Y019204D02*
X037804Y019204D01*
X037804Y021404D02*
X036874Y021404D01*
X036874Y028028D02*
X037804Y028028D01*
X037804Y030228D02*
X036874Y030228D01*
X036874Y032428D02*
X037804Y032428D01*
D18*
X038838Y017375D03*
X039586Y017375D03*
X004761Y005150D03*
X004013Y005150D03*
D19*
X038717Y016625D03*
X039858Y016625D03*
D20*
X037489Y023716D02*
X036889Y023716D01*
X036889Y025716D02*
X037489Y025716D01*
X004437Y025225D02*
X003837Y025225D01*
X003837Y026225D02*
X004437Y026225D01*
X004437Y027225D02*
X003837Y027225D01*
X003837Y028225D02*
X004437Y028225D01*
X004437Y029225D02*
X003837Y029225D01*
X003837Y030225D02*
X004437Y030225D01*
X004437Y024225D02*
X003837Y024225D01*
X003837Y023225D02*
X004437Y023225D01*
D21*
X039912Y010596D03*
X039912Y009454D03*
D22*
X039112Y009551D03*
X039112Y010299D03*
X014837Y021776D03*
X014837Y022524D03*
X014837Y023326D03*
X014837Y024074D03*
X012912Y020074D03*
X012912Y019326D03*
X010912Y027926D03*
X010912Y028674D03*
X010912Y029651D03*
X010912Y030399D03*
X010912Y031676D03*
X010912Y032424D03*
X010912Y033226D03*
X010912Y033974D03*
X025712Y033899D03*
X025712Y033151D03*
X025712Y032349D03*
X025712Y031601D03*
X026837Y029449D03*
X026837Y028701D03*
X028037Y028701D03*
X028037Y029449D03*
D23*
X045787Y021352D03*
X045787Y012848D03*
X045787Y011102D03*
X045787Y002598D03*
D24*
X013889Y003000D03*
X013889Y005000D03*
X013864Y007900D03*
X013864Y009900D03*
D25*
X017840Y008900D03*
X017865Y004000D03*
D26*
X010864Y005850D03*
X017687Y012974D03*
X012089Y013400D03*
X047737Y031826D03*
X054362Y028976D03*
D27*
X054362Y026024D03*
X047737Y028874D03*
X017687Y015926D03*
X009136Y013400D03*
X007911Y005850D03*
D28*
X003362Y018200D03*
D29*
X005362Y018200D03*
D30*
X013862Y015950D03*
X018962Y021900D03*
X028987Y016250D03*
X039012Y026575D03*
X031612Y026700D03*
X038912Y032300D03*
X051887Y007525D03*
D31*
X010912Y024810D03*
X010912Y026090D03*
X008687Y029885D03*
X008687Y031165D03*
D32*
X012287Y031984D03*
X012287Y033716D03*
X012262Y029841D03*
X012262Y028109D03*
X013437Y024016D03*
X013437Y022284D03*
X024412Y031934D03*
X024412Y033666D03*
D33*
X015203Y019900D03*
X013923Y019900D03*
D34*
X016837Y021800D03*
X016837Y023700D03*
X027912Y031275D03*
X027912Y033175D03*
D35*
X009187Y033125D03*
X007287Y033125D03*
D36*
X006512Y023563D03*
X006512Y022737D03*
D37*
X007786Y024550D03*
X008889Y024550D03*
D38*
X006887Y030074D03*
X006887Y031176D03*
D39*
X024362Y029454D03*
X024362Y027446D03*
D40*
X024387Y026501D03*
X024387Y025399D03*
D41*
X029462Y026125D03*
X007937Y028175D03*
D42*
X028862Y028563D03*
X029562Y028563D03*
X029562Y029587D03*
X028862Y029587D03*
D43*
X022549Y029650D03*
X022549Y027681D03*
X022549Y031619D03*
X022549Y032603D03*
X014675Y033095D03*
X014675Y032111D03*
X014675Y031126D03*
X014675Y030142D03*
X014675Y029158D03*
X014675Y028174D03*
X014675Y027189D03*
X014675Y026205D03*
D44*
X022549Y026697D03*
D45*
X025462Y026510D03*
X025462Y025390D03*
D46*
X005377Y006925D03*
X003397Y006925D03*
D47*
X003582Y009975D03*
X006042Y009975D03*
X006042Y013450D03*
X003582Y013450D03*
D48*
X021032Y011231D03*
X021032Y009854D03*
X021032Y008476D03*
X021032Y007098D03*
X032449Y007787D03*
X032449Y010543D03*
D49*
X040532Y028925D03*
X041262Y028925D03*
X041992Y028925D03*
X041992Y031925D03*
X041262Y031925D03*
X040532Y031925D03*
D50*
X040232Y030425D03*
X042292Y030425D03*
D51*
X010911Y020159D02*
X010878Y020219D01*
X010835Y020272D01*
X010782Y020316D01*
X010721Y020348D01*
X010656Y020368D01*
X010587Y020375D01*
X010337Y020375D01*
X010337Y019675D01*
X010587Y019675D01*
X010656Y019682D01*
X010721Y019702D01*
X010782Y019734D01*
X010835Y019778D01*
X010878Y019831D01*
X010911Y019891D01*
X010931Y019957D01*
X010937Y020025D01*
X010931Y020093D01*
X010911Y020159D01*
X010911Y020157D02*
X010337Y020157D01*
X010337Y020149D02*
X010914Y020149D01*
X010917Y020140D02*
X010337Y020140D01*
X010337Y020132D02*
X010919Y020132D01*
X010922Y020123D02*
X010337Y020123D01*
X010337Y020115D02*
X010924Y020115D01*
X010927Y020106D02*
X010337Y020106D01*
X010337Y020098D02*
X010929Y020098D01*
X010931Y020089D02*
X010337Y020089D01*
X010337Y020081D02*
X010932Y020081D01*
X010933Y020072D02*
X010337Y020072D01*
X010337Y020064D02*
X010934Y020064D01*
X010935Y020055D02*
X010337Y020055D01*
X010337Y020047D02*
X010935Y020047D01*
X010936Y020038D02*
X010337Y020038D01*
X010337Y020030D02*
X010937Y020030D01*
X010937Y020021D02*
X010337Y020021D01*
X010337Y020013D02*
X010936Y020013D01*
X010935Y020004D02*
X010337Y020004D01*
X010337Y019996D02*
X010935Y019996D01*
X010934Y019987D02*
X010337Y019987D01*
X010337Y019979D02*
X010933Y019979D01*
X010932Y019970D02*
X010337Y019970D01*
X010337Y019962D02*
X010931Y019962D01*
X010930Y019953D02*
X010337Y019953D01*
X010337Y019945D02*
X010927Y019945D01*
X010924Y019936D02*
X010337Y019936D01*
X010337Y019928D02*
X010922Y019928D01*
X010919Y019919D02*
X010337Y019919D01*
X010337Y019911D02*
X010917Y019911D01*
X010914Y019902D02*
X010337Y019902D01*
X010337Y019894D02*
X010912Y019894D01*
X010908Y019885D02*
X010337Y019885D01*
X010337Y019877D02*
X010903Y019877D01*
X010899Y019868D02*
X010337Y019868D01*
X010337Y019860D02*
X010894Y019860D01*
X010889Y019851D02*
X010337Y019851D01*
X010337Y019843D02*
X010885Y019843D01*
X010880Y019834D02*
X010337Y019834D01*
X010337Y019826D02*
X010874Y019826D01*
X010867Y019817D02*
X010337Y019817D01*
X010337Y019809D02*
X010860Y019809D01*
X010853Y019800D02*
X010337Y019800D01*
X010337Y019792D02*
X010846Y019792D01*
X010840Y019783D02*
X010337Y019783D01*
X010337Y019775D02*
X010831Y019775D01*
X010821Y019766D02*
X010337Y019766D01*
X010337Y019758D02*
X010811Y019758D01*
X010800Y019749D02*
X010337Y019749D01*
X010337Y019741D02*
X010790Y019741D01*
X010778Y019732D02*
X010337Y019732D01*
X010337Y019724D02*
X010762Y019724D01*
X010746Y019715D02*
X010337Y019715D01*
X010337Y019707D02*
X010731Y019707D01*
X010710Y019698D02*
X010337Y019698D01*
X010337Y019690D02*
X010682Y019690D01*
X010649Y019681D02*
X010337Y019681D01*
X010137Y019681D02*
X009826Y019681D01*
X009819Y019682D02*
X009887Y019675D01*
X010137Y019675D01*
X010137Y020375D01*
X009887Y020375D01*
X009819Y020368D01*
X009754Y020348D01*
X009693Y020316D01*
X009640Y020272D01*
X009596Y020219D01*
X009564Y020159D01*
X009544Y020093D01*
X009537Y020025D01*
X009544Y019957D01*
X009564Y019891D01*
X009596Y019831D01*
X009640Y019778D01*
X009693Y019734D01*
X009754Y019702D01*
X009819Y019682D01*
X009793Y019690D02*
X010137Y019690D01*
X010137Y019698D02*
X009765Y019698D01*
X009744Y019707D02*
X010137Y019707D01*
X010137Y019715D02*
X009728Y019715D01*
X009713Y019724D02*
X010137Y019724D01*
X010137Y019732D02*
X009697Y019732D01*
X009685Y019741D02*
X010137Y019741D01*
X010137Y019749D02*
X009675Y019749D01*
X009664Y019758D02*
X010137Y019758D01*
X010137Y019766D02*
X009654Y019766D01*
X009644Y019775D02*
X010137Y019775D01*
X010137Y019783D02*
X009635Y019783D01*
X009628Y019792D02*
X010137Y019792D01*
X010137Y019800D02*
X009621Y019800D01*
X009615Y019809D02*
X010137Y019809D01*
X010137Y019817D02*
X009608Y019817D01*
X009601Y019826D02*
X010137Y019826D01*
X010137Y019834D02*
X009595Y019834D01*
X009590Y019843D02*
X010137Y019843D01*
X010137Y019851D02*
X009585Y019851D01*
X009581Y019860D02*
X010137Y019860D01*
X010137Y019868D02*
X009576Y019868D01*
X009572Y019877D02*
X010137Y019877D01*
X010137Y019885D02*
X009567Y019885D01*
X009563Y019894D02*
X010137Y019894D01*
X010137Y019902D02*
X009561Y019902D01*
X009558Y019911D02*
X010137Y019911D01*
X010137Y019919D02*
X009556Y019919D01*
X009553Y019928D02*
X010137Y019928D01*
X010137Y019936D02*
X009550Y019936D01*
X009548Y019945D02*
X010137Y019945D01*
X010137Y019953D02*
X009545Y019953D01*
X009544Y019962D02*
X010137Y019962D01*
X010137Y019970D02*
X009543Y019970D01*
X009542Y019979D02*
X010137Y019979D01*
X010137Y019987D02*
X009541Y019987D01*
X009540Y019996D02*
X010137Y019996D01*
X010137Y020004D02*
X009540Y020004D01*
X009539Y020013D02*
X010137Y020013D01*
X010137Y020021D02*
X009538Y020021D01*
X009538Y020030D02*
X010137Y020030D01*
X010137Y020038D02*
X009539Y020038D01*
X009540Y020047D02*
X010137Y020047D01*
X010137Y020055D02*
X009540Y020055D01*
X009541Y020064D02*
X010137Y020064D01*
X010137Y020072D02*
X009542Y020072D01*
X009543Y020081D02*
X010137Y020081D01*
X010137Y020089D02*
X009544Y020089D01*
X009545Y020098D02*
X010137Y020098D01*
X010137Y020106D02*
X009548Y020106D01*
X009551Y020115D02*
X010137Y020115D01*
X010137Y020123D02*
X009553Y020123D01*
X009556Y020132D02*
X010137Y020132D01*
X010137Y020140D02*
X009558Y020140D01*
X009561Y020149D02*
X010137Y020149D01*
X010137Y020157D02*
X009564Y020157D01*
X009568Y020166D02*
X010137Y020166D01*
X010137Y020174D02*
X009572Y020174D01*
X009577Y020183D02*
X010137Y020183D01*
X010137Y020191D02*
X009581Y020191D01*
X009586Y020200D02*
X010137Y020200D01*
X010137Y020208D02*
X009590Y020208D01*
X009595Y020217D02*
X010137Y020217D01*
X010137Y020225D02*
X009601Y020225D01*
X009608Y020234D02*
X010137Y020234D01*
X010137Y020242D02*
X009615Y020242D01*
X009622Y020251D02*
X010137Y020251D01*
X010137Y020259D02*
X009629Y020259D01*
X009636Y020268D02*
X010137Y020268D01*
X010137Y020276D02*
X009644Y020276D01*
X009655Y020285D02*
X010137Y020285D01*
X010137Y020293D02*
X009665Y020293D01*
X009675Y020302D02*
X010137Y020302D01*
X010137Y020310D02*
X009686Y020310D01*
X009698Y020319D02*
X010137Y020319D01*
X010137Y020327D02*
X009714Y020327D01*
X009730Y020336D02*
X010137Y020336D01*
X010137Y020344D02*
X009746Y020344D01*
X009767Y020353D02*
X010137Y020353D01*
X010137Y020361D02*
X009795Y020361D01*
X009832Y020370D02*
X010137Y020370D01*
X010337Y020370D02*
X010643Y020370D01*
X010680Y020361D02*
X010337Y020361D01*
X010337Y020353D02*
X010708Y020353D01*
X010729Y020344D02*
X010337Y020344D01*
X010337Y020336D02*
X010745Y020336D01*
X010761Y020327D02*
X010337Y020327D01*
X010337Y020319D02*
X010777Y020319D01*
X010789Y020310D02*
X010337Y020310D01*
X010337Y020302D02*
X010800Y020302D01*
X010810Y020293D02*
X010337Y020293D01*
X010337Y020285D02*
X010820Y020285D01*
X010831Y020276D02*
X010337Y020276D01*
X010337Y020268D02*
X010839Y020268D01*
X010846Y020259D02*
X010337Y020259D01*
X010337Y020251D02*
X010853Y020251D01*
X010860Y020242D02*
X010337Y020242D01*
X010337Y020234D02*
X010867Y020234D01*
X010874Y020225D02*
X010337Y020225D01*
X010337Y020217D02*
X010880Y020217D01*
X010885Y020208D02*
X010337Y020208D01*
X010337Y020200D02*
X010889Y020200D01*
X010894Y020191D02*
X010337Y020191D01*
X010337Y020183D02*
X010898Y020183D01*
X010903Y020174D02*
X010337Y020174D01*
X010337Y020166D02*
X010907Y020166D01*
X008612Y020000D02*
X008606Y020068D01*
X008586Y020134D01*
X008553Y020194D01*
X008510Y020247D01*
X008457Y020291D01*
X008396Y020323D01*
X008331Y020343D01*
X008262Y020350D01*
X008012Y020350D01*
X008012Y019650D01*
X008262Y019650D01*
X008331Y019657D01*
X008396Y019677D01*
X008457Y019709D01*
X008510Y019753D01*
X008553Y019806D01*
X008586Y019866D01*
X008606Y019932D01*
X008612Y020000D01*
X008612Y020004D02*
X008012Y020004D01*
X008012Y019996D02*
X008612Y019996D01*
X008611Y019987D02*
X008012Y019987D01*
X008012Y019979D02*
X008610Y019979D01*
X008610Y019970D02*
X008012Y019970D01*
X008012Y019962D02*
X008609Y019962D01*
X008608Y019953D02*
X008012Y019953D01*
X008012Y019945D02*
X008607Y019945D01*
X008606Y019936D02*
X008012Y019936D01*
X008012Y019928D02*
X008604Y019928D01*
X008602Y019919D02*
X008012Y019919D01*
X008012Y019911D02*
X008599Y019911D01*
X008597Y019902D02*
X008012Y019902D01*
X008012Y019894D02*
X008594Y019894D01*
X008592Y019885D02*
X008012Y019885D01*
X008012Y019877D02*
X008589Y019877D01*
X008586Y019868D02*
X008012Y019868D01*
X008012Y019860D02*
X008582Y019860D01*
X008578Y019851D02*
X008012Y019851D01*
X008012Y019843D02*
X008573Y019843D01*
X008569Y019834D02*
X008012Y019834D01*
X008012Y019826D02*
X008564Y019826D01*
X008560Y019817D02*
X008012Y019817D01*
X008012Y019809D02*
X008555Y019809D01*
X008549Y019800D02*
X008012Y019800D01*
X008012Y019792D02*
X008542Y019792D01*
X008535Y019783D02*
X008012Y019783D01*
X008012Y019775D02*
X008528Y019775D01*
X008521Y019766D02*
X008012Y019766D01*
X008012Y019758D02*
X008514Y019758D01*
X008506Y019749D02*
X008012Y019749D01*
X008012Y019741D02*
X008495Y019741D01*
X008485Y019732D02*
X008012Y019732D01*
X008012Y019724D02*
X008475Y019724D01*
X008464Y019715D02*
X008012Y019715D01*
X008012Y019707D02*
X008452Y019707D01*
X008436Y019698D02*
X008012Y019698D01*
X008012Y019690D02*
X008421Y019690D01*
X008405Y019681D02*
X008012Y019681D01*
X008012Y019673D02*
X008383Y019673D01*
X008355Y019664D02*
X008012Y019664D01*
X008012Y019656D02*
X008319Y019656D01*
X008611Y020013D02*
X008012Y020013D01*
X008012Y020021D02*
X008610Y020021D01*
X008610Y020030D02*
X008012Y020030D01*
X008012Y020038D02*
X008609Y020038D01*
X008608Y020047D02*
X008012Y020047D01*
X008012Y020055D02*
X008607Y020055D01*
X008606Y020064D02*
X008012Y020064D01*
X008012Y020072D02*
X008605Y020072D01*
X008602Y020081D02*
X008012Y020081D01*
X008012Y020089D02*
X008599Y020089D01*
X008597Y020098D02*
X008012Y020098D01*
X008012Y020106D02*
X008594Y020106D01*
X008592Y020115D02*
X008012Y020115D01*
X008012Y020123D02*
X008589Y020123D01*
X008587Y020132D02*
X008012Y020132D01*
X008012Y020140D02*
X008583Y020140D01*
X008578Y020149D02*
X008012Y020149D01*
X008012Y020157D02*
X008573Y020157D01*
X008569Y020166D02*
X008012Y020166D01*
X008012Y020174D02*
X008564Y020174D01*
X008560Y020183D02*
X008012Y020183D01*
X008012Y020191D02*
X008555Y020191D01*
X008549Y020200D02*
X008012Y020200D01*
X008012Y020208D02*
X008542Y020208D01*
X008535Y020217D02*
X008012Y020217D01*
X008012Y020225D02*
X008528Y020225D01*
X008521Y020234D02*
X008012Y020234D01*
X008012Y020242D02*
X008514Y020242D01*
X008506Y020251D02*
X008012Y020251D01*
X008012Y020259D02*
X008496Y020259D01*
X008485Y020268D02*
X008012Y020268D01*
X008012Y020276D02*
X008475Y020276D01*
X008465Y020285D02*
X008012Y020285D01*
X008012Y020293D02*
X008453Y020293D01*
X008437Y020302D02*
X008012Y020302D01*
X008012Y020310D02*
X008421Y020310D01*
X008405Y020319D02*
X008012Y020319D01*
X008012Y020327D02*
X008384Y020327D01*
X008356Y020336D02*
X008012Y020336D01*
X008012Y020344D02*
X008323Y020344D01*
X007812Y020344D02*
X007502Y020344D01*
X007494Y020343D02*
X007429Y020323D01*
X007368Y020291D01*
X007315Y020247D01*
X007271Y020194D01*
X007239Y020134D01*
X007219Y020068D01*
X007212Y020000D01*
X007219Y019932D01*
X007239Y019866D01*
X007271Y019806D01*
X007315Y019753D01*
X007368Y019709D01*
X007429Y019677D01*
X007494Y019657D01*
X007562Y019650D01*
X007812Y019650D01*
X007812Y020350D01*
X007562Y020350D01*
X007494Y020343D01*
X007469Y020336D02*
X007812Y020336D01*
X007812Y020327D02*
X007441Y020327D01*
X007420Y020319D02*
X007812Y020319D01*
X007812Y020310D02*
X007404Y020310D01*
X007388Y020302D02*
X007812Y020302D01*
X007812Y020293D02*
X007372Y020293D01*
X007360Y020285D02*
X007812Y020285D01*
X007812Y020276D02*
X007350Y020276D01*
X007339Y020268D02*
X007812Y020268D01*
X007812Y020259D02*
X007329Y020259D01*
X007319Y020251D02*
X007812Y020251D01*
X007812Y020242D02*
X007311Y020242D01*
X007304Y020234D02*
X007812Y020234D01*
X007812Y020225D02*
X007297Y020225D01*
X007290Y020217D02*
X007812Y020217D01*
X007812Y020208D02*
X007283Y020208D01*
X007276Y020200D02*
X007812Y020200D01*
X007812Y020191D02*
X007270Y020191D01*
X007265Y020183D02*
X007812Y020183D01*
X007812Y020174D02*
X007261Y020174D01*
X007256Y020166D02*
X007812Y020166D01*
X007812Y020157D02*
X007251Y020157D01*
X007247Y020149D02*
X007812Y020149D01*
X007812Y020140D02*
X007242Y020140D01*
X007238Y020132D02*
X007812Y020132D01*
X007812Y020123D02*
X007236Y020123D01*
X007233Y020115D02*
X007812Y020115D01*
X007812Y020106D02*
X007231Y020106D01*
X007228Y020098D02*
X007812Y020098D01*
X007812Y020089D02*
X007225Y020089D01*
X007223Y020081D02*
X007812Y020081D01*
X007812Y020072D02*
X007220Y020072D01*
X007219Y020064D02*
X007812Y020064D01*
X007812Y020055D02*
X007218Y020055D01*
X007217Y020047D02*
X007812Y020047D01*
X007812Y020038D02*
X007216Y020038D01*
X007215Y020030D02*
X007812Y020030D01*
X007812Y020021D02*
X007215Y020021D01*
X007214Y020013D02*
X007812Y020013D01*
X007812Y020004D02*
X007213Y020004D01*
X007213Y019996D02*
X007812Y019996D01*
X007812Y019987D02*
X007214Y019987D01*
X007215Y019979D02*
X007812Y019979D01*
X007812Y019970D02*
X007215Y019970D01*
X007216Y019962D02*
X007812Y019962D01*
X007812Y019953D02*
X007217Y019953D01*
X007218Y019945D02*
X007812Y019945D01*
X007812Y019936D02*
X007219Y019936D01*
X007220Y019928D02*
X007812Y019928D01*
X007812Y019919D02*
X007223Y019919D01*
X007226Y019911D02*
X007812Y019911D01*
X007812Y019902D02*
X007228Y019902D01*
X007231Y019894D02*
X007812Y019894D01*
X007812Y019885D02*
X007233Y019885D01*
X007236Y019877D02*
X007812Y019877D01*
X007812Y019868D02*
X007239Y019868D01*
X007243Y019860D02*
X007812Y019860D01*
X007812Y019851D02*
X007247Y019851D01*
X007252Y019843D02*
X007812Y019843D01*
X007812Y019834D02*
X007256Y019834D01*
X007261Y019826D02*
X007812Y019826D01*
X007812Y019817D02*
X007265Y019817D01*
X007270Y019809D02*
X007812Y019809D01*
X007812Y019800D02*
X007276Y019800D01*
X007283Y019792D02*
X007812Y019792D01*
X007812Y019783D02*
X007290Y019783D01*
X007297Y019775D02*
X007812Y019775D01*
X007812Y019766D02*
X007304Y019766D01*
X007311Y019758D02*
X007812Y019758D01*
X007812Y019749D02*
X007319Y019749D01*
X007330Y019741D02*
X007812Y019741D01*
X007812Y019732D02*
X007340Y019732D01*
X007350Y019724D02*
X007812Y019724D01*
X007812Y019715D02*
X007361Y019715D01*
X007373Y019707D02*
X007812Y019707D01*
X007812Y019698D02*
X007388Y019698D01*
X007404Y019690D02*
X007812Y019690D01*
X007812Y019681D02*
X007420Y019681D01*
X007442Y019673D02*
X007812Y019673D01*
X007812Y019664D02*
X007470Y019664D01*
X007506Y019656D02*
X007812Y019656D01*
D52*
X005937Y020310D02*
X005937Y020790D01*
X004937Y020790D02*
X004937Y020310D01*
X003937Y020310D02*
X003937Y020790D01*
D53*
X030887Y028455D03*
X030887Y029045D03*
D54*
X061780Y003259D03*
D55*
X003906Y003062D03*
X003906Y033377D03*
X061780Y033377D03*
M02*
