G75*
%MOIN*%
%OFA0B0*%
%FSLAX25Y25*%
%IPPOS*%
%LPD*%
%AMOC8*
5,1,8,0,0,1.08239X$1,22.5*
%
%ADD10C,0.10600*%
%ADD11OC8,0.06600*%
%ADD12C,0.10293*%
%ADD13C,0.12411*%
%ADD14OC8,0.06000*%
%ADD15R,0.08868X0.08868*%
%ADD16OC8,0.08868*%
%ADD17C,0.00500*%
%ADD18C,0.00457*%
%ADD19C,0.00461*%
%ADD20C,0.00414*%
%ADD21OC8,0.10600*%
%ADD22C,0.12962*%
%ADD23OC8,0.12962*%
%ADD24C,0.00426*%
%ADD25OC8,0.07096*%
%ADD26C,0.00455*%
%ADD27C,0.00402*%
%ADD28C,0.00468*%
%ADD29C,0.00454*%
%ADD30C,0.00504*%
%ADD31C,0.00462*%
%ADD32C,0.00448*%
%ADD33C,0.02650*%
%ADD34C,0.00100*%
%ADD35OC8,0.10293*%
%ADD36C,0.00438*%
%ADD37C,0.04931*%
%ADD38C,0.05400*%
%ADD39C,0.09899*%
%ADD40C,0.06600*%
%ADD41C,0.03103*%
%ADD42OC8,0.09899*%
%ADD43C,0.05600*%
%ADD44OC8,0.07687*%
%ADD45OC8,0.09200*%
%ADD46OC8,0.04143*%
%ADD47OC8,0.06506*%
%ADD48R,0.05915X0.05915*%
%ADD49OC8,0.05915*%
%ADD50C,0.00441*%
%ADD51C,0.05915*%
%ADD52C,0.07687*%
%ADD53C,0.04537*%
%ADD54C,0.22254*%
%ADD55OC8,0.22254*%
D10*
X0408727Y0046949D03*
X0545227Y0152463D03*
X0487977Y0254963D03*
X0547013Y0293876D03*
X0596225Y0293876D03*
X0596225Y0333246D03*
X0547013Y0333246D03*
D11*
X0525227Y0333213D03*
X0618227Y0332713D03*
X0618227Y0273713D03*
X0525227Y0274213D03*
D12*
X0585117Y0243972D02*
X0594810Y0243972D01*
X0594810Y0227437D02*
X0585117Y0227437D01*
X0585117Y0210902D02*
X0594810Y0210902D01*
D13*
X0618703Y0210902D03*
X0618703Y0243972D03*
X0617522Y0059720D03*
D14*
X0494977Y0161963D03*
X0504977Y0201963D03*
X0536477Y0217463D03*
X0576477Y0227463D03*
X0576477Y0243713D03*
X0536477Y0253713D03*
X0506477Y0306213D03*
X0506477Y0321713D03*
X0466477Y0316213D03*
X0466477Y0331713D03*
D15*
X0524294Y0365232D03*
D16*
X0504294Y0365232D03*
X0483794Y0365232D03*
X0464294Y0365232D03*
D17*
X0595593Y0367201D02*
X0595669Y0366333D01*
X0595895Y0365491D01*
X0596263Y0364701D01*
X0596763Y0363987D01*
X0597379Y0363371D01*
X0598093Y0362871D01*
X0598883Y0362502D01*
X0599725Y0362277D01*
X0600593Y0362201D01*
X0601461Y0362277D01*
X0602303Y0362502D01*
X0603093Y0362871D01*
X0603807Y0363371D01*
X0604423Y0363987D01*
X0604923Y0364701D01*
X0605292Y0365491D01*
X0605517Y0366333D01*
X0605593Y0367201D01*
X0605517Y0368069D01*
X0605292Y0368911D01*
X0604923Y0369701D01*
X0604423Y0370415D01*
X0603807Y0371031D01*
X0603093Y0371531D01*
X0602303Y0371899D01*
X0601461Y0372125D01*
X0600593Y0372201D01*
X0599725Y0372125D01*
X0598883Y0371899D01*
X0598093Y0371531D01*
X0597379Y0371031D01*
X0596763Y0370415D01*
X0596263Y0369701D01*
X0595895Y0368911D01*
X0595669Y0368069D01*
X0595593Y0367201D01*
X0595595Y0367184D02*
X0605592Y0367184D01*
X0605551Y0367682D02*
X0595635Y0367682D01*
X0595699Y0368181D02*
X0605487Y0368181D01*
X0605354Y0368679D02*
X0595833Y0368679D01*
X0596019Y0369178D02*
X0605167Y0369178D01*
X0604935Y0369676D02*
X0596252Y0369676D01*
X0596595Y0370175D02*
X0604591Y0370175D01*
X0604165Y0370673D02*
X0597022Y0370673D01*
X0597581Y0371172D02*
X0603606Y0371172D01*
X0602794Y0371671D02*
X0598393Y0371671D01*
X0600230Y0372169D02*
X0600956Y0372169D01*
X0605548Y0366685D02*
X0595638Y0366685D01*
X0595708Y0366187D02*
X0605478Y0366187D01*
X0605345Y0365688D02*
X0595842Y0365688D01*
X0596035Y0365190D02*
X0605151Y0365190D01*
X0604917Y0364691D02*
X0596270Y0364691D01*
X0596619Y0364193D02*
X0604568Y0364193D01*
X0604131Y0363694D02*
X0597055Y0363694D01*
X0597629Y0363196D02*
X0603558Y0363196D01*
X0602721Y0362697D02*
X0598465Y0362697D01*
X0045868Y0064583D02*
X0046237Y0063793D01*
X0046462Y0062951D01*
X0046538Y0062083D01*
X0046462Y0061214D01*
X0046237Y0060373D01*
X0045868Y0059583D01*
X0045368Y0058869D01*
X0044752Y0058252D01*
X0044038Y0057753D01*
X0043248Y0057384D01*
X0042406Y0057159D01*
X0041538Y0057083D01*
X0040670Y0057159D01*
X0039828Y0057384D01*
X0039038Y0057753D01*
X0038324Y0058252D01*
X0037708Y0058869D01*
X0037208Y0059583D01*
X0036840Y0060373D01*
X0036614Y0061214D01*
X0036538Y0062083D01*
X0036614Y0062951D01*
X0036840Y0063793D01*
X0037208Y0064583D01*
X0037708Y0065297D01*
X0038324Y0065913D01*
X0039038Y0066413D01*
X0039828Y0066781D01*
X0040670Y0067007D01*
X0041538Y0067083D01*
X0042406Y0067007D01*
X0043248Y0066781D01*
X0044038Y0066413D01*
X0044752Y0065913D01*
X0045368Y0065297D01*
X0045868Y0064583D01*
X0045865Y0064588D02*
X0037211Y0064588D01*
X0036978Y0064089D02*
X0046098Y0064089D01*
X0046291Y0063591D02*
X0036785Y0063591D01*
X0036652Y0063092D02*
X0046424Y0063092D01*
X0046493Y0062594D02*
X0036583Y0062594D01*
X0036539Y0062095D02*
X0046537Y0062095D01*
X0046496Y0061596D02*
X0036581Y0061596D01*
X0036645Y0061098D02*
X0046431Y0061098D01*
X0046297Y0060599D02*
X0036779Y0060599D01*
X0036966Y0060101D02*
X0046110Y0060101D01*
X0045877Y0059602D02*
X0037199Y0059602D01*
X0037543Y0059104D02*
X0045533Y0059104D01*
X0045105Y0058605D02*
X0037971Y0058605D01*
X0038532Y0058107D02*
X0044544Y0058107D01*
X0043729Y0057608D02*
X0039347Y0057608D01*
X0041227Y0057110D02*
X0041849Y0057110D01*
X0045516Y0065086D02*
X0037560Y0065086D01*
X0037996Y0065585D02*
X0045080Y0065585D01*
X0044509Y0066083D02*
X0038567Y0066083D01*
X0039400Y0066582D02*
X0043676Y0066582D01*
X0041567Y0067080D02*
X0041509Y0067080D01*
D18*
X0256606Y0119688D02*
X0261868Y0119688D01*
X0256606Y0119688D02*
X0256606Y0125738D01*
X0261868Y0125738D01*
X0261868Y0119688D01*
X0261868Y0120144D02*
X0256606Y0120144D01*
X0256606Y0120600D02*
X0261868Y0120600D01*
X0261868Y0121056D02*
X0256606Y0121056D01*
X0256606Y0121512D02*
X0261868Y0121512D01*
X0261868Y0121968D02*
X0256606Y0121968D01*
X0256606Y0122424D02*
X0261868Y0122424D01*
X0261868Y0122880D02*
X0256606Y0122880D01*
X0256606Y0123336D02*
X0261868Y0123336D01*
X0261868Y0123792D02*
X0256606Y0123792D01*
X0256606Y0124248D02*
X0261868Y0124248D01*
X0261868Y0124704D02*
X0256606Y0124704D01*
X0256606Y0125160D02*
X0261868Y0125160D01*
X0261868Y0125616D02*
X0256606Y0125616D01*
X0264086Y0119688D02*
X0269348Y0119688D01*
X0264086Y0119688D02*
X0264086Y0125738D01*
X0269348Y0125738D01*
X0269348Y0119688D01*
X0269348Y0120144D02*
X0264086Y0120144D01*
X0264086Y0120600D02*
X0269348Y0120600D01*
X0269348Y0121056D02*
X0264086Y0121056D01*
X0264086Y0121512D02*
X0269348Y0121512D01*
X0269348Y0121968D02*
X0264086Y0121968D01*
X0264086Y0122424D02*
X0269348Y0122424D01*
X0269348Y0122880D02*
X0264086Y0122880D01*
X0264086Y0123336D02*
X0269348Y0123336D01*
X0269348Y0123792D02*
X0264086Y0123792D01*
X0264086Y0124248D02*
X0269348Y0124248D01*
X0269348Y0124704D02*
X0264086Y0124704D01*
X0264086Y0125160D02*
X0269348Y0125160D01*
X0269348Y0125616D02*
X0264086Y0125616D01*
X0284356Y0127738D02*
X0289618Y0127738D01*
X0289618Y0121688D01*
X0284356Y0121688D01*
X0284356Y0127738D01*
X0284356Y0122144D02*
X0289618Y0122144D01*
X0289618Y0122600D02*
X0284356Y0122600D01*
X0284356Y0123056D02*
X0289618Y0123056D01*
X0289618Y0123512D02*
X0284356Y0123512D01*
X0284356Y0123968D02*
X0289618Y0123968D01*
X0289618Y0124424D02*
X0284356Y0124424D01*
X0284356Y0124880D02*
X0289618Y0124880D01*
X0289618Y0125336D02*
X0284356Y0125336D01*
X0284356Y0125792D02*
X0289618Y0125792D01*
X0289618Y0126248D02*
X0284356Y0126248D01*
X0284356Y0126704D02*
X0289618Y0126704D01*
X0289618Y0127160D02*
X0284356Y0127160D01*
X0284356Y0127616D02*
X0289618Y0127616D01*
X0291836Y0127738D02*
X0297098Y0127738D01*
X0297098Y0121688D01*
X0291836Y0121688D01*
X0291836Y0127738D01*
X0291836Y0122144D02*
X0297098Y0122144D01*
X0297098Y0122600D02*
X0291836Y0122600D01*
X0291836Y0123056D02*
X0297098Y0123056D01*
X0297098Y0123512D02*
X0291836Y0123512D01*
X0291836Y0123968D02*
X0297098Y0123968D01*
X0297098Y0124424D02*
X0291836Y0124424D01*
X0291836Y0124880D02*
X0297098Y0124880D01*
X0297098Y0125336D02*
X0291836Y0125336D01*
X0291836Y0125792D02*
X0297098Y0125792D01*
X0297098Y0126248D02*
X0291836Y0126248D01*
X0291836Y0126704D02*
X0297098Y0126704D01*
X0297098Y0127160D02*
X0291836Y0127160D01*
X0291836Y0127616D02*
X0297098Y0127616D01*
X0299452Y0127603D02*
X0299452Y0122341D01*
X0299452Y0127603D02*
X0305502Y0127603D01*
X0305502Y0122341D01*
X0299452Y0122341D01*
X0299452Y0122797D02*
X0305502Y0122797D01*
X0305502Y0123253D02*
X0299452Y0123253D01*
X0299452Y0123709D02*
X0305502Y0123709D01*
X0305502Y0124165D02*
X0299452Y0124165D01*
X0299452Y0124621D02*
X0305502Y0124621D01*
X0305502Y0125077D02*
X0299452Y0125077D01*
X0299452Y0125533D02*
X0305502Y0125533D01*
X0305502Y0125989D02*
X0299452Y0125989D01*
X0299452Y0126445D02*
X0305502Y0126445D01*
X0305502Y0126901D02*
X0299452Y0126901D01*
X0299452Y0127357D02*
X0305502Y0127357D01*
X0307202Y0127603D02*
X0307202Y0122341D01*
X0307202Y0127603D02*
X0313252Y0127603D01*
X0313252Y0122341D01*
X0307202Y0122341D01*
X0307202Y0122797D02*
X0313252Y0122797D01*
X0313252Y0123253D02*
X0307202Y0123253D01*
X0307202Y0123709D02*
X0313252Y0123709D01*
X0313252Y0124165D02*
X0307202Y0124165D01*
X0307202Y0124621D02*
X0313252Y0124621D01*
X0313252Y0125077D02*
X0307202Y0125077D01*
X0307202Y0125533D02*
X0313252Y0125533D01*
X0313252Y0125989D02*
X0307202Y0125989D01*
X0307202Y0126445D02*
X0313252Y0126445D01*
X0313252Y0126901D02*
X0307202Y0126901D01*
X0307202Y0127357D02*
X0313252Y0127357D01*
X0321002Y0127603D02*
X0321002Y0122341D01*
X0314952Y0122341D01*
X0314952Y0127603D01*
X0321002Y0127603D01*
X0321002Y0122797D02*
X0314952Y0122797D01*
X0314952Y0123253D02*
X0321002Y0123253D01*
X0321002Y0123709D02*
X0314952Y0123709D01*
X0314952Y0124165D02*
X0321002Y0124165D01*
X0321002Y0124621D02*
X0314952Y0124621D01*
X0314952Y0125077D02*
X0321002Y0125077D01*
X0321002Y0125533D02*
X0314952Y0125533D01*
X0314952Y0125989D02*
X0321002Y0125989D01*
X0321002Y0126445D02*
X0314952Y0126445D01*
X0314952Y0126901D02*
X0321002Y0126901D01*
X0321002Y0127357D02*
X0314952Y0127357D01*
X0321002Y0129822D02*
X0321002Y0135084D01*
X0321002Y0129822D02*
X0314952Y0129822D01*
X0314952Y0135084D01*
X0321002Y0135084D01*
X0321002Y0130278D02*
X0314952Y0130278D01*
X0314952Y0130734D02*
X0321002Y0130734D01*
X0321002Y0131190D02*
X0314952Y0131190D01*
X0314952Y0131646D02*
X0321002Y0131646D01*
X0321002Y0132102D02*
X0314952Y0132102D01*
X0314952Y0132558D02*
X0321002Y0132558D01*
X0321002Y0133014D02*
X0314952Y0133014D01*
X0314952Y0133470D02*
X0321002Y0133470D01*
X0321002Y0133926D02*
X0314952Y0133926D01*
X0314952Y0134382D02*
X0321002Y0134382D01*
X0321002Y0134838D02*
X0314952Y0134838D01*
X0307202Y0135084D02*
X0307202Y0129822D01*
X0307202Y0135084D02*
X0313252Y0135084D01*
X0313252Y0129822D01*
X0307202Y0129822D01*
X0307202Y0130278D02*
X0313252Y0130278D01*
X0313252Y0130734D02*
X0307202Y0130734D01*
X0307202Y0131190D02*
X0313252Y0131190D01*
X0313252Y0131646D02*
X0307202Y0131646D01*
X0307202Y0132102D02*
X0313252Y0132102D01*
X0313252Y0132558D02*
X0307202Y0132558D01*
X0307202Y0133014D02*
X0313252Y0133014D01*
X0313252Y0133470D02*
X0307202Y0133470D01*
X0307202Y0133926D02*
X0313252Y0133926D01*
X0313252Y0134382D02*
X0307202Y0134382D01*
X0307202Y0134838D02*
X0313252Y0134838D01*
X0299452Y0135084D02*
X0299452Y0129822D01*
X0299452Y0135084D02*
X0305502Y0135084D01*
X0305502Y0129822D01*
X0299452Y0129822D01*
X0299452Y0130278D02*
X0305502Y0130278D01*
X0305502Y0130734D02*
X0299452Y0130734D01*
X0299452Y0131190D02*
X0305502Y0131190D01*
X0305502Y0131646D02*
X0299452Y0131646D01*
X0299452Y0132102D02*
X0305502Y0132102D01*
X0305502Y0132558D02*
X0299452Y0132558D01*
X0299452Y0133014D02*
X0305502Y0133014D01*
X0305502Y0133470D02*
X0299452Y0133470D01*
X0299452Y0133926D02*
X0305502Y0133926D01*
X0305502Y0134382D02*
X0299452Y0134382D01*
X0299452Y0134838D02*
X0305502Y0134838D01*
X0297098Y0135488D02*
X0291836Y0135488D01*
X0297098Y0135488D02*
X0297098Y0129438D01*
X0291836Y0129438D01*
X0291836Y0135488D01*
X0291836Y0129894D02*
X0297098Y0129894D01*
X0297098Y0130350D02*
X0291836Y0130350D01*
X0291836Y0130806D02*
X0297098Y0130806D01*
X0297098Y0131262D02*
X0291836Y0131262D01*
X0291836Y0131718D02*
X0297098Y0131718D01*
X0297098Y0132174D02*
X0291836Y0132174D01*
X0291836Y0132630D02*
X0297098Y0132630D01*
X0297098Y0133086D02*
X0291836Y0133086D01*
X0291836Y0133542D02*
X0297098Y0133542D01*
X0297098Y0133998D02*
X0291836Y0133998D01*
X0291836Y0134454D02*
X0297098Y0134454D01*
X0297098Y0134910D02*
X0291836Y0134910D01*
X0291836Y0135366D02*
X0297098Y0135366D01*
X0289618Y0135488D02*
X0284356Y0135488D01*
X0289618Y0135488D02*
X0289618Y0129438D01*
X0284356Y0129438D01*
X0284356Y0135488D01*
X0284356Y0129894D02*
X0289618Y0129894D01*
X0289618Y0130350D02*
X0284356Y0130350D01*
X0284356Y0130806D02*
X0289618Y0130806D01*
X0289618Y0131262D02*
X0284356Y0131262D01*
X0284356Y0131718D02*
X0289618Y0131718D01*
X0289618Y0132174D02*
X0284356Y0132174D01*
X0284356Y0132630D02*
X0289618Y0132630D01*
X0289618Y0133086D02*
X0284356Y0133086D01*
X0284356Y0133542D02*
X0289618Y0133542D01*
X0289618Y0133998D02*
X0284356Y0133998D01*
X0284356Y0134454D02*
X0289618Y0134454D01*
X0289618Y0134910D02*
X0284356Y0134910D01*
X0284356Y0135366D02*
X0289618Y0135366D01*
X0334752Y0136834D02*
X0334752Y0131572D01*
X0328702Y0131572D01*
X0328702Y0136834D01*
X0334752Y0136834D01*
X0334752Y0132028D02*
X0328702Y0132028D01*
X0328702Y0132484D02*
X0334752Y0132484D01*
X0334752Y0132940D02*
X0328702Y0132940D01*
X0328702Y0133396D02*
X0334752Y0133396D01*
X0334752Y0133852D02*
X0328702Y0133852D01*
X0328702Y0134308D02*
X0334752Y0134308D01*
X0334752Y0134764D02*
X0328702Y0134764D01*
X0328702Y0135220D02*
X0334752Y0135220D01*
X0334752Y0135676D02*
X0328702Y0135676D01*
X0328702Y0136132D02*
X0334752Y0136132D01*
X0334752Y0136588D02*
X0328702Y0136588D01*
X0342502Y0136834D02*
X0342502Y0131572D01*
X0336452Y0131572D01*
X0336452Y0136834D01*
X0342502Y0136834D01*
X0342502Y0132028D02*
X0336452Y0132028D01*
X0336452Y0132484D02*
X0342502Y0132484D01*
X0342502Y0132940D02*
X0336452Y0132940D01*
X0336452Y0133396D02*
X0342502Y0133396D01*
X0342502Y0133852D02*
X0336452Y0133852D01*
X0336452Y0134308D02*
X0342502Y0134308D01*
X0342502Y0134764D02*
X0336452Y0134764D01*
X0336452Y0135220D02*
X0342502Y0135220D01*
X0342502Y0135676D02*
X0336452Y0135676D01*
X0336452Y0136132D02*
X0342502Y0136132D01*
X0342502Y0136588D02*
X0336452Y0136588D01*
X0355752Y0135834D02*
X0355752Y0130572D01*
X0349702Y0130572D01*
X0349702Y0135834D01*
X0355752Y0135834D01*
X0355752Y0131028D02*
X0349702Y0131028D01*
X0349702Y0131484D02*
X0355752Y0131484D01*
X0355752Y0131940D02*
X0349702Y0131940D01*
X0349702Y0132396D02*
X0355752Y0132396D01*
X0355752Y0132852D02*
X0349702Y0132852D01*
X0349702Y0133308D02*
X0355752Y0133308D01*
X0355752Y0133764D02*
X0349702Y0133764D01*
X0349702Y0134220D02*
X0355752Y0134220D01*
X0355752Y0134676D02*
X0349702Y0134676D01*
X0349702Y0135132D02*
X0355752Y0135132D01*
X0355752Y0135588D02*
X0349702Y0135588D01*
X0355752Y0128353D02*
X0355752Y0123091D01*
X0349702Y0123091D01*
X0349702Y0128353D01*
X0355752Y0128353D01*
X0355752Y0123547D02*
X0349702Y0123547D01*
X0349702Y0124003D02*
X0355752Y0124003D01*
X0355752Y0124459D02*
X0349702Y0124459D01*
X0349702Y0124915D02*
X0355752Y0124915D01*
X0355752Y0125371D02*
X0349702Y0125371D01*
X0349702Y0125827D02*
X0355752Y0125827D01*
X0355752Y0126283D02*
X0349702Y0126283D01*
X0349702Y0126739D02*
X0355752Y0126739D01*
X0355752Y0127195D02*
X0349702Y0127195D01*
X0349702Y0127651D02*
X0355752Y0127651D01*
X0355752Y0128107D02*
X0349702Y0128107D01*
X0342502Y0129353D02*
X0342502Y0124091D01*
X0336452Y0124091D01*
X0336452Y0129353D01*
X0342502Y0129353D01*
X0342502Y0124547D02*
X0336452Y0124547D01*
X0336452Y0125003D02*
X0342502Y0125003D01*
X0342502Y0125459D02*
X0336452Y0125459D01*
X0336452Y0125915D02*
X0342502Y0125915D01*
X0342502Y0126371D02*
X0336452Y0126371D01*
X0336452Y0126827D02*
X0342502Y0126827D01*
X0342502Y0127283D02*
X0336452Y0127283D01*
X0336452Y0127739D02*
X0342502Y0127739D01*
X0342502Y0128195D02*
X0336452Y0128195D01*
X0336452Y0128651D02*
X0342502Y0128651D01*
X0342502Y0129107D02*
X0336452Y0129107D01*
X0334752Y0129353D02*
X0334752Y0124091D01*
X0328702Y0124091D01*
X0328702Y0129353D01*
X0334752Y0129353D01*
X0334752Y0124547D02*
X0328702Y0124547D01*
X0328702Y0125003D02*
X0334752Y0125003D01*
X0334752Y0125459D02*
X0328702Y0125459D01*
X0328702Y0125915D02*
X0334752Y0125915D01*
X0334752Y0126371D02*
X0328702Y0126371D01*
X0328702Y0126827D02*
X0334752Y0126827D01*
X0334752Y0127283D02*
X0328702Y0127283D01*
X0328702Y0127739D02*
X0334752Y0127739D01*
X0334752Y0128195D02*
X0328702Y0128195D01*
X0328702Y0128651D02*
X0334752Y0128651D01*
X0334752Y0129107D02*
X0328702Y0129107D01*
X0330952Y0112584D02*
X0330952Y0107322D01*
X0330952Y0112584D02*
X0337002Y0112584D01*
X0337002Y0107322D01*
X0330952Y0107322D01*
X0330952Y0107778D02*
X0337002Y0107778D01*
X0337002Y0108234D02*
X0330952Y0108234D01*
X0330952Y0108690D02*
X0337002Y0108690D01*
X0337002Y0109146D02*
X0330952Y0109146D01*
X0330952Y0109602D02*
X0337002Y0109602D01*
X0337002Y0110058D02*
X0330952Y0110058D01*
X0330952Y0110514D02*
X0337002Y0110514D01*
X0337002Y0110970D02*
X0330952Y0110970D01*
X0330952Y0111426D02*
X0337002Y0111426D01*
X0337002Y0111882D02*
X0330952Y0111882D01*
X0330952Y0112338D02*
X0337002Y0112338D01*
X0344752Y0112584D02*
X0344752Y0107322D01*
X0338702Y0107322D01*
X0338702Y0112584D01*
X0344752Y0112584D01*
X0344752Y0107778D02*
X0338702Y0107778D01*
X0338702Y0108234D02*
X0344752Y0108234D01*
X0344752Y0108690D02*
X0338702Y0108690D01*
X0338702Y0109146D02*
X0344752Y0109146D01*
X0344752Y0109602D02*
X0338702Y0109602D01*
X0338702Y0110058D02*
X0344752Y0110058D01*
X0344752Y0110514D02*
X0338702Y0110514D01*
X0338702Y0110970D02*
X0344752Y0110970D01*
X0344752Y0111426D02*
X0338702Y0111426D01*
X0338702Y0111882D02*
X0344752Y0111882D01*
X0344752Y0112338D02*
X0338702Y0112338D01*
X0344752Y0105103D02*
X0344752Y0099841D01*
X0338702Y0099841D01*
X0338702Y0105103D01*
X0344752Y0105103D01*
X0344752Y0100297D02*
X0338702Y0100297D01*
X0338702Y0100753D02*
X0344752Y0100753D01*
X0344752Y0101209D02*
X0338702Y0101209D01*
X0338702Y0101665D02*
X0344752Y0101665D01*
X0344752Y0102121D02*
X0338702Y0102121D01*
X0338702Y0102577D02*
X0344752Y0102577D01*
X0344752Y0103033D02*
X0338702Y0103033D01*
X0338702Y0103489D02*
X0344752Y0103489D01*
X0344752Y0103945D02*
X0338702Y0103945D01*
X0338702Y0104401D02*
X0344752Y0104401D01*
X0344752Y0104857D02*
X0338702Y0104857D01*
X0330952Y0105103D02*
X0330952Y0099841D01*
X0330952Y0105103D02*
X0337002Y0105103D01*
X0337002Y0099841D01*
X0330952Y0099841D01*
X0330952Y0100297D02*
X0337002Y0100297D01*
X0337002Y0100753D02*
X0330952Y0100753D01*
X0330952Y0101209D02*
X0337002Y0101209D01*
X0337002Y0101665D02*
X0330952Y0101665D01*
X0330952Y0102121D02*
X0337002Y0102121D01*
X0337002Y0102577D02*
X0330952Y0102577D01*
X0330952Y0103033D02*
X0337002Y0103033D01*
X0337002Y0103489D02*
X0330952Y0103489D01*
X0330952Y0103945D02*
X0337002Y0103945D01*
X0337002Y0104401D02*
X0330952Y0104401D01*
X0330952Y0104857D02*
X0337002Y0104857D01*
X0294252Y0089084D02*
X0294252Y0083822D01*
X0288202Y0083822D01*
X0288202Y0089084D01*
X0294252Y0089084D01*
X0294252Y0084278D02*
X0288202Y0084278D01*
X0288202Y0084734D02*
X0294252Y0084734D01*
X0294252Y0085190D02*
X0288202Y0085190D01*
X0288202Y0085646D02*
X0294252Y0085646D01*
X0294252Y0086102D02*
X0288202Y0086102D01*
X0288202Y0086558D02*
X0294252Y0086558D01*
X0294252Y0087014D02*
X0288202Y0087014D01*
X0288202Y0087470D02*
X0294252Y0087470D01*
X0294252Y0087926D02*
X0288202Y0087926D01*
X0288202Y0088382D02*
X0294252Y0088382D01*
X0294252Y0088838D02*
X0288202Y0088838D01*
X0294252Y0081603D02*
X0294252Y0076341D01*
X0288202Y0076341D01*
X0288202Y0081603D01*
X0294252Y0081603D01*
X0294252Y0076797D02*
X0288202Y0076797D01*
X0288202Y0077253D02*
X0294252Y0077253D01*
X0294252Y0077709D02*
X0288202Y0077709D01*
X0288202Y0078165D02*
X0294252Y0078165D01*
X0294252Y0078621D02*
X0288202Y0078621D01*
X0288202Y0079077D02*
X0294252Y0079077D01*
X0294252Y0079533D02*
X0288202Y0079533D01*
X0288202Y0079989D02*
X0294252Y0079989D01*
X0294252Y0080445D02*
X0288202Y0080445D01*
X0288202Y0080901D02*
X0294252Y0080901D01*
X0294252Y0081357D02*
X0288202Y0081357D01*
X0273098Y0064938D02*
X0267836Y0064938D01*
X0267836Y0070988D01*
X0273098Y0070988D01*
X0273098Y0064938D01*
X0273098Y0065394D02*
X0267836Y0065394D01*
X0267836Y0065850D02*
X0273098Y0065850D01*
X0273098Y0066306D02*
X0267836Y0066306D01*
X0267836Y0066762D02*
X0273098Y0066762D01*
X0273098Y0067218D02*
X0267836Y0067218D01*
X0267836Y0067674D02*
X0273098Y0067674D01*
X0273098Y0068130D02*
X0267836Y0068130D01*
X0267836Y0068586D02*
X0273098Y0068586D01*
X0273098Y0069042D02*
X0267836Y0069042D01*
X0267836Y0069498D02*
X0273098Y0069498D01*
X0273098Y0069954D02*
X0267836Y0069954D01*
X0267836Y0070410D02*
X0273098Y0070410D01*
X0273098Y0070866D02*
X0267836Y0070866D01*
X0265618Y0064938D02*
X0260356Y0064938D01*
X0260356Y0070988D01*
X0265618Y0070988D01*
X0265618Y0064938D01*
X0265618Y0065394D02*
X0260356Y0065394D01*
X0260356Y0065850D02*
X0265618Y0065850D01*
X0265618Y0066306D02*
X0260356Y0066306D01*
X0260356Y0066762D02*
X0265618Y0066762D01*
X0265618Y0067218D02*
X0260356Y0067218D01*
X0260356Y0067674D02*
X0265618Y0067674D01*
X0265618Y0068130D02*
X0260356Y0068130D01*
X0260356Y0068586D02*
X0265618Y0068586D01*
X0265618Y0069042D02*
X0260356Y0069042D01*
X0260356Y0069498D02*
X0265618Y0069498D01*
X0265618Y0069954D02*
X0260356Y0069954D01*
X0260356Y0070410D02*
X0265618Y0070410D01*
X0265618Y0070866D02*
X0260356Y0070866D01*
X0289502Y0157841D02*
X0289502Y0163103D01*
X0289502Y0157841D02*
X0283452Y0157841D01*
X0283452Y0163103D01*
X0289502Y0163103D01*
X0289502Y0158297D02*
X0283452Y0158297D01*
X0283452Y0158753D02*
X0289502Y0158753D01*
X0289502Y0159209D02*
X0283452Y0159209D01*
X0283452Y0159665D02*
X0289502Y0159665D01*
X0289502Y0160121D02*
X0283452Y0160121D01*
X0283452Y0160577D02*
X0289502Y0160577D01*
X0289502Y0161033D02*
X0283452Y0161033D01*
X0283452Y0161489D02*
X0289502Y0161489D01*
X0289502Y0161945D02*
X0283452Y0161945D01*
X0283452Y0162401D02*
X0289502Y0162401D01*
X0289502Y0162857D02*
X0283452Y0162857D01*
X0289502Y0165322D02*
X0289502Y0170584D01*
X0289502Y0165322D02*
X0283452Y0165322D01*
X0283452Y0170584D01*
X0289502Y0170584D01*
X0289502Y0165778D02*
X0283452Y0165778D01*
X0283452Y0166234D02*
X0289502Y0166234D01*
X0289502Y0166690D02*
X0283452Y0166690D01*
X0283452Y0167146D02*
X0289502Y0167146D01*
X0289502Y0167602D02*
X0283452Y0167602D01*
X0283452Y0168058D02*
X0289502Y0168058D01*
X0289502Y0168514D02*
X0283452Y0168514D01*
X0283452Y0168970D02*
X0289502Y0168970D01*
X0289502Y0169426D02*
X0283452Y0169426D01*
X0283452Y0169882D02*
X0289502Y0169882D01*
X0289502Y0170338D02*
X0283452Y0170338D01*
X0297252Y0170584D02*
X0297252Y0165322D01*
X0291202Y0165322D01*
X0291202Y0170584D01*
X0297252Y0170584D01*
X0297252Y0165778D02*
X0291202Y0165778D01*
X0291202Y0166234D02*
X0297252Y0166234D01*
X0297252Y0166690D02*
X0291202Y0166690D01*
X0291202Y0167146D02*
X0297252Y0167146D01*
X0297252Y0167602D02*
X0291202Y0167602D01*
X0291202Y0168058D02*
X0297252Y0168058D01*
X0297252Y0168514D02*
X0291202Y0168514D01*
X0291202Y0168970D02*
X0297252Y0168970D01*
X0297252Y0169426D02*
X0291202Y0169426D01*
X0291202Y0169882D02*
X0297252Y0169882D01*
X0297252Y0170338D02*
X0291202Y0170338D01*
X0305002Y0170584D02*
X0305002Y0165322D01*
X0298952Y0165322D01*
X0298952Y0170584D01*
X0305002Y0170584D01*
X0305002Y0165778D02*
X0298952Y0165778D01*
X0298952Y0166234D02*
X0305002Y0166234D01*
X0305002Y0166690D02*
X0298952Y0166690D01*
X0298952Y0167146D02*
X0305002Y0167146D01*
X0305002Y0167602D02*
X0298952Y0167602D01*
X0298952Y0168058D02*
X0305002Y0168058D01*
X0305002Y0168514D02*
X0298952Y0168514D01*
X0298952Y0168970D02*
X0305002Y0168970D01*
X0305002Y0169426D02*
X0298952Y0169426D01*
X0298952Y0169882D02*
X0305002Y0169882D01*
X0305002Y0170338D02*
X0298952Y0170338D01*
X0306702Y0170584D02*
X0306702Y0165322D01*
X0306702Y0170584D02*
X0312752Y0170584D01*
X0312752Y0165322D01*
X0306702Y0165322D01*
X0306702Y0165778D02*
X0312752Y0165778D01*
X0312752Y0166234D02*
X0306702Y0166234D01*
X0306702Y0166690D02*
X0312752Y0166690D01*
X0312752Y0167146D02*
X0306702Y0167146D01*
X0306702Y0167602D02*
X0312752Y0167602D01*
X0312752Y0168058D02*
X0306702Y0168058D01*
X0306702Y0168514D02*
X0312752Y0168514D01*
X0312752Y0168970D02*
X0306702Y0168970D01*
X0306702Y0169426D02*
X0312752Y0169426D01*
X0312752Y0169882D02*
X0306702Y0169882D01*
X0306702Y0170338D02*
X0312752Y0170338D01*
X0306702Y0163103D02*
X0306702Y0157841D01*
X0306702Y0163103D02*
X0312752Y0163103D01*
X0312752Y0157841D01*
X0306702Y0157841D01*
X0306702Y0158297D02*
X0312752Y0158297D01*
X0312752Y0158753D02*
X0306702Y0158753D01*
X0306702Y0159209D02*
X0312752Y0159209D01*
X0312752Y0159665D02*
X0306702Y0159665D01*
X0306702Y0160121D02*
X0312752Y0160121D01*
X0312752Y0160577D02*
X0306702Y0160577D01*
X0306702Y0161033D02*
X0312752Y0161033D01*
X0312752Y0161489D02*
X0306702Y0161489D01*
X0306702Y0161945D02*
X0312752Y0161945D01*
X0312752Y0162401D02*
X0306702Y0162401D01*
X0306702Y0162857D02*
X0312752Y0162857D01*
X0305002Y0163103D02*
X0305002Y0157841D01*
X0298952Y0157841D01*
X0298952Y0163103D01*
X0305002Y0163103D01*
X0305002Y0158297D02*
X0298952Y0158297D01*
X0298952Y0158753D02*
X0305002Y0158753D01*
X0305002Y0159209D02*
X0298952Y0159209D01*
X0298952Y0159665D02*
X0305002Y0159665D01*
X0305002Y0160121D02*
X0298952Y0160121D01*
X0298952Y0160577D02*
X0305002Y0160577D01*
X0305002Y0161033D02*
X0298952Y0161033D01*
X0298952Y0161489D02*
X0305002Y0161489D01*
X0305002Y0161945D02*
X0298952Y0161945D01*
X0298952Y0162401D02*
X0305002Y0162401D01*
X0305002Y0162857D02*
X0298952Y0162857D01*
X0297252Y0163103D02*
X0297252Y0157841D01*
X0291202Y0157841D01*
X0291202Y0163103D01*
X0297252Y0163103D01*
X0297252Y0158297D02*
X0291202Y0158297D01*
X0291202Y0158753D02*
X0297252Y0158753D01*
X0297252Y0159209D02*
X0291202Y0159209D01*
X0291202Y0159665D02*
X0297252Y0159665D01*
X0297252Y0160121D02*
X0291202Y0160121D01*
X0291202Y0160577D02*
X0297252Y0160577D01*
X0297252Y0161033D02*
X0291202Y0161033D01*
X0291202Y0161489D02*
X0297252Y0161489D01*
X0297252Y0161945D02*
X0291202Y0161945D01*
X0291202Y0162401D02*
X0297252Y0162401D01*
X0297252Y0162857D02*
X0291202Y0162857D01*
X0348952Y0162822D02*
X0348952Y0168084D01*
X0355002Y0168084D01*
X0355002Y0162822D01*
X0348952Y0162822D01*
X0348952Y0163278D02*
X0355002Y0163278D01*
X0355002Y0163734D02*
X0348952Y0163734D01*
X0348952Y0164190D02*
X0355002Y0164190D01*
X0355002Y0164646D02*
X0348952Y0164646D01*
X0348952Y0165102D02*
X0355002Y0165102D01*
X0355002Y0165558D02*
X0348952Y0165558D01*
X0348952Y0166014D02*
X0355002Y0166014D01*
X0355002Y0166470D02*
X0348952Y0166470D01*
X0348952Y0166926D02*
X0355002Y0166926D01*
X0355002Y0167382D02*
X0348952Y0167382D01*
X0348952Y0167838D02*
X0355002Y0167838D01*
X0348952Y0160603D02*
X0348952Y0155341D01*
X0348952Y0160603D02*
X0355002Y0160603D01*
X0355002Y0155341D01*
X0348952Y0155341D01*
X0348952Y0155797D02*
X0355002Y0155797D01*
X0355002Y0156253D02*
X0348952Y0156253D01*
X0348952Y0156709D02*
X0355002Y0156709D01*
X0355002Y0157165D02*
X0348952Y0157165D01*
X0348952Y0157621D02*
X0355002Y0157621D01*
X0355002Y0158077D02*
X0348952Y0158077D01*
X0348952Y0158533D02*
X0355002Y0158533D01*
X0355002Y0158989D02*
X0348952Y0158989D01*
X0348952Y0159445D02*
X0355002Y0159445D01*
X0355002Y0159901D02*
X0348952Y0159901D01*
X0348952Y0160357D02*
X0355002Y0160357D01*
X0366606Y0182438D02*
X0371868Y0182438D01*
X0366606Y0182438D02*
X0366606Y0188488D01*
X0371868Y0188488D01*
X0371868Y0182438D01*
X0371868Y0182894D02*
X0366606Y0182894D01*
X0366606Y0183350D02*
X0371868Y0183350D01*
X0371868Y0183806D02*
X0366606Y0183806D01*
X0366606Y0184262D02*
X0371868Y0184262D01*
X0371868Y0184718D02*
X0366606Y0184718D01*
X0366606Y0185174D02*
X0371868Y0185174D01*
X0371868Y0185630D02*
X0366606Y0185630D01*
X0366606Y0186086D02*
X0371868Y0186086D01*
X0371868Y0186542D02*
X0366606Y0186542D01*
X0366606Y0186998D02*
X0371868Y0186998D01*
X0371868Y0187454D02*
X0366606Y0187454D01*
X0366606Y0187910D02*
X0371868Y0187910D01*
X0371868Y0188366D02*
X0366606Y0188366D01*
X0365952Y0192341D02*
X0365952Y0197603D01*
X0372002Y0197603D01*
X0372002Y0192341D01*
X0365952Y0192341D01*
X0365952Y0192797D02*
X0372002Y0192797D01*
X0372002Y0193253D02*
X0365952Y0193253D01*
X0365952Y0193709D02*
X0372002Y0193709D01*
X0372002Y0194165D02*
X0365952Y0194165D01*
X0365952Y0194621D02*
X0372002Y0194621D01*
X0372002Y0195077D02*
X0365952Y0195077D01*
X0365952Y0195533D02*
X0372002Y0195533D01*
X0372002Y0195989D02*
X0365952Y0195989D01*
X0365952Y0196445D02*
X0372002Y0196445D01*
X0372002Y0196901D02*
X0365952Y0196901D01*
X0365952Y0197357D02*
X0372002Y0197357D01*
X0379752Y0197603D02*
X0379752Y0192341D01*
X0373702Y0192341D01*
X0373702Y0197603D01*
X0379752Y0197603D01*
X0379752Y0192797D02*
X0373702Y0192797D01*
X0373702Y0193253D02*
X0379752Y0193253D01*
X0379752Y0193709D02*
X0373702Y0193709D01*
X0373702Y0194165D02*
X0379752Y0194165D01*
X0379752Y0194621D02*
X0373702Y0194621D01*
X0373702Y0195077D02*
X0379752Y0195077D01*
X0379752Y0195533D02*
X0373702Y0195533D01*
X0373702Y0195989D02*
X0379752Y0195989D01*
X0379752Y0196445D02*
X0373702Y0196445D01*
X0373702Y0196901D02*
X0379752Y0196901D01*
X0379752Y0197357D02*
X0373702Y0197357D01*
X0379752Y0199822D02*
X0379752Y0205084D01*
X0379752Y0199822D02*
X0373702Y0199822D01*
X0373702Y0205084D01*
X0379752Y0205084D01*
X0379752Y0200278D02*
X0373702Y0200278D01*
X0373702Y0200734D02*
X0379752Y0200734D01*
X0379752Y0201190D02*
X0373702Y0201190D01*
X0373702Y0201646D02*
X0379752Y0201646D01*
X0379752Y0202102D02*
X0373702Y0202102D01*
X0373702Y0202558D02*
X0379752Y0202558D01*
X0379752Y0203014D02*
X0373702Y0203014D01*
X0373702Y0203470D02*
X0379752Y0203470D01*
X0379752Y0203926D02*
X0373702Y0203926D01*
X0373702Y0204382D02*
X0379752Y0204382D01*
X0379752Y0204838D02*
X0373702Y0204838D01*
X0365952Y0205084D02*
X0365952Y0199822D01*
X0365952Y0205084D02*
X0372002Y0205084D01*
X0372002Y0199822D01*
X0365952Y0199822D01*
X0365952Y0200278D02*
X0372002Y0200278D01*
X0372002Y0200734D02*
X0365952Y0200734D01*
X0365952Y0201190D02*
X0372002Y0201190D01*
X0372002Y0201646D02*
X0365952Y0201646D01*
X0365952Y0202102D02*
X0372002Y0202102D01*
X0372002Y0202558D02*
X0365952Y0202558D01*
X0365952Y0203014D02*
X0372002Y0203014D01*
X0372002Y0203470D02*
X0365952Y0203470D01*
X0365952Y0203926D02*
X0372002Y0203926D01*
X0372002Y0204382D02*
X0365952Y0204382D01*
X0365952Y0204838D02*
X0372002Y0204838D01*
X0374086Y0182438D02*
X0379348Y0182438D01*
X0374086Y0182438D02*
X0374086Y0188488D01*
X0379348Y0188488D01*
X0379348Y0182438D01*
X0379348Y0182894D02*
X0374086Y0182894D01*
X0374086Y0183350D02*
X0379348Y0183350D01*
X0379348Y0183806D02*
X0374086Y0183806D01*
X0374086Y0184262D02*
X0379348Y0184262D01*
X0379348Y0184718D02*
X0374086Y0184718D01*
X0374086Y0185174D02*
X0379348Y0185174D01*
X0379348Y0185630D02*
X0374086Y0185630D01*
X0374086Y0186086D02*
X0379348Y0186086D01*
X0379348Y0186542D02*
X0374086Y0186542D01*
X0374086Y0186998D02*
X0379348Y0186998D01*
X0379348Y0187454D02*
X0374086Y0187454D01*
X0374086Y0187910D02*
X0379348Y0187910D01*
X0379348Y0188366D02*
X0374086Y0188366D01*
X0411702Y0198591D02*
X0411702Y0203853D01*
X0417752Y0203853D01*
X0417752Y0198591D01*
X0411702Y0198591D01*
X0411702Y0199047D02*
X0417752Y0199047D01*
X0417752Y0199503D02*
X0411702Y0199503D01*
X0411702Y0199959D02*
X0417752Y0199959D01*
X0417752Y0200415D02*
X0411702Y0200415D01*
X0411702Y0200871D02*
X0417752Y0200871D01*
X0417752Y0201327D02*
X0411702Y0201327D01*
X0411702Y0201783D02*
X0417752Y0201783D01*
X0417752Y0202239D02*
X0411702Y0202239D01*
X0411702Y0202695D02*
X0417752Y0202695D01*
X0417752Y0203151D02*
X0411702Y0203151D01*
X0411702Y0203607D02*
X0417752Y0203607D01*
X0411702Y0206072D02*
X0411702Y0211334D01*
X0417752Y0211334D01*
X0417752Y0206072D01*
X0411702Y0206072D01*
X0411702Y0206528D02*
X0417752Y0206528D01*
X0417752Y0206984D02*
X0411702Y0206984D01*
X0411702Y0207440D02*
X0417752Y0207440D01*
X0417752Y0207896D02*
X0411702Y0207896D01*
X0411702Y0208352D02*
X0417752Y0208352D01*
X0417752Y0208808D02*
X0411702Y0208808D01*
X0411702Y0209264D02*
X0417752Y0209264D01*
X0417752Y0209720D02*
X0411702Y0209720D01*
X0411702Y0210176D02*
X0417752Y0210176D01*
X0417752Y0210632D02*
X0411702Y0210632D01*
X0411702Y0211088D02*
X0417752Y0211088D01*
X0411702Y0214091D02*
X0411702Y0219353D01*
X0417752Y0219353D01*
X0417752Y0214091D01*
X0411702Y0214091D01*
X0411702Y0214547D02*
X0417752Y0214547D01*
X0417752Y0215003D02*
X0411702Y0215003D01*
X0411702Y0215459D02*
X0417752Y0215459D01*
X0417752Y0215915D02*
X0411702Y0215915D01*
X0411702Y0216371D02*
X0417752Y0216371D01*
X0417752Y0216827D02*
X0411702Y0216827D01*
X0411702Y0217283D02*
X0417752Y0217283D01*
X0417752Y0217739D02*
X0411702Y0217739D01*
X0411702Y0218195D02*
X0417752Y0218195D01*
X0417752Y0218651D02*
X0411702Y0218651D01*
X0411702Y0219107D02*
X0417752Y0219107D01*
X0411702Y0221572D02*
X0411702Y0226834D01*
X0417752Y0226834D01*
X0417752Y0221572D01*
X0411702Y0221572D01*
X0411702Y0222028D02*
X0417752Y0222028D01*
X0417752Y0222484D02*
X0411702Y0222484D01*
X0411702Y0222940D02*
X0417752Y0222940D01*
X0417752Y0223396D02*
X0411702Y0223396D01*
X0411702Y0223852D02*
X0417752Y0223852D01*
X0417752Y0224308D02*
X0411702Y0224308D01*
X0411702Y0224764D02*
X0417752Y0224764D01*
X0417752Y0225220D02*
X0411702Y0225220D01*
X0411702Y0225676D02*
X0417752Y0225676D01*
X0417752Y0226132D02*
X0411702Y0226132D01*
X0411702Y0226588D02*
X0417752Y0226588D01*
X0437106Y0236488D02*
X0442368Y0236488D01*
X0442368Y0230438D01*
X0437106Y0230438D01*
X0437106Y0236488D01*
X0437106Y0230894D02*
X0442368Y0230894D01*
X0442368Y0231350D02*
X0437106Y0231350D01*
X0437106Y0231806D02*
X0442368Y0231806D01*
X0442368Y0232262D02*
X0437106Y0232262D01*
X0437106Y0232718D02*
X0442368Y0232718D01*
X0442368Y0233174D02*
X0437106Y0233174D01*
X0437106Y0233630D02*
X0442368Y0233630D01*
X0442368Y0234086D02*
X0437106Y0234086D01*
X0437106Y0234542D02*
X0442368Y0234542D01*
X0442368Y0234998D02*
X0437106Y0234998D01*
X0437106Y0235454D02*
X0442368Y0235454D01*
X0442368Y0235910D02*
X0437106Y0235910D01*
X0437106Y0236366D02*
X0442368Y0236366D01*
X0444586Y0236488D02*
X0449848Y0236488D01*
X0449848Y0230438D01*
X0444586Y0230438D01*
X0444586Y0236488D01*
X0444586Y0230894D02*
X0449848Y0230894D01*
X0449848Y0231350D02*
X0444586Y0231350D01*
X0444586Y0231806D02*
X0449848Y0231806D01*
X0449848Y0232262D02*
X0444586Y0232262D01*
X0444586Y0232718D02*
X0449848Y0232718D01*
X0449848Y0233174D02*
X0444586Y0233174D01*
X0444586Y0233630D02*
X0449848Y0233630D01*
X0449848Y0234086D02*
X0444586Y0234086D01*
X0444586Y0234542D02*
X0449848Y0234542D01*
X0449848Y0234998D02*
X0444586Y0234998D01*
X0444586Y0235454D02*
X0449848Y0235454D01*
X0449848Y0235910D02*
X0444586Y0235910D01*
X0444586Y0236366D02*
X0449848Y0236366D01*
X0376848Y0235938D02*
X0371586Y0235938D01*
X0371586Y0241988D01*
X0376848Y0241988D01*
X0376848Y0235938D01*
X0376848Y0236394D02*
X0371586Y0236394D01*
X0371586Y0236850D02*
X0376848Y0236850D01*
X0376848Y0237306D02*
X0371586Y0237306D01*
X0371586Y0237762D02*
X0376848Y0237762D01*
X0376848Y0238218D02*
X0371586Y0238218D01*
X0371586Y0238674D02*
X0376848Y0238674D01*
X0376848Y0239130D02*
X0371586Y0239130D01*
X0371586Y0239586D02*
X0376848Y0239586D01*
X0376848Y0240042D02*
X0371586Y0240042D01*
X0371586Y0240498D02*
X0376848Y0240498D01*
X0376848Y0240954D02*
X0371586Y0240954D01*
X0371586Y0241410D02*
X0376848Y0241410D01*
X0376848Y0241866D02*
X0371586Y0241866D01*
X0369368Y0235938D02*
X0364106Y0235938D01*
X0364106Y0241988D01*
X0369368Y0241988D01*
X0369368Y0235938D01*
X0369368Y0236394D02*
X0364106Y0236394D01*
X0364106Y0236850D02*
X0369368Y0236850D01*
X0369368Y0237306D02*
X0364106Y0237306D01*
X0364106Y0237762D02*
X0369368Y0237762D01*
X0369368Y0238218D02*
X0364106Y0238218D01*
X0364106Y0238674D02*
X0369368Y0238674D01*
X0369368Y0239130D02*
X0364106Y0239130D01*
X0364106Y0239586D02*
X0369368Y0239586D01*
X0369368Y0240042D02*
X0364106Y0240042D01*
X0364106Y0240498D02*
X0369368Y0240498D01*
X0369368Y0240954D02*
X0364106Y0240954D01*
X0364106Y0241410D02*
X0369368Y0241410D01*
X0369368Y0241866D02*
X0364106Y0241866D01*
X0360098Y0237938D02*
X0354836Y0237938D01*
X0354836Y0243988D01*
X0360098Y0243988D01*
X0360098Y0237938D01*
X0360098Y0238394D02*
X0354836Y0238394D01*
X0354836Y0238850D02*
X0360098Y0238850D01*
X0360098Y0239306D02*
X0354836Y0239306D01*
X0354836Y0239762D02*
X0360098Y0239762D01*
X0360098Y0240218D02*
X0354836Y0240218D01*
X0354836Y0240674D02*
X0360098Y0240674D01*
X0360098Y0241130D02*
X0354836Y0241130D01*
X0354836Y0241586D02*
X0360098Y0241586D01*
X0360098Y0242042D02*
X0354836Y0242042D01*
X0354836Y0242498D02*
X0360098Y0242498D01*
X0360098Y0242954D02*
X0354836Y0242954D01*
X0354836Y0243410D02*
X0360098Y0243410D01*
X0360098Y0243866D02*
X0354836Y0243866D01*
X0352618Y0237938D02*
X0347356Y0237938D01*
X0347356Y0243988D01*
X0352618Y0243988D01*
X0352618Y0237938D01*
X0352618Y0238394D02*
X0347356Y0238394D01*
X0347356Y0238850D02*
X0352618Y0238850D01*
X0352618Y0239306D02*
X0347356Y0239306D01*
X0347356Y0239762D02*
X0352618Y0239762D01*
X0352618Y0240218D02*
X0347356Y0240218D01*
X0347356Y0240674D02*
X0352618Y0240674D01*
X0352618Y0241130D02*
X0347356Y0241130D01*
X0347356Y0241586D02*
X0352618Y0241586D01*
X0352618Y0242042D02*
X0347356Y0242042D01*
X0347356Y0242498D02*
X0352618Y0242498D01*
X0352618Y0242954D02*
X0347356Y0242954D01*
X0347356Y0243410D02*
X0352618Y0243410D01*
X0352618Y0243866D02*
X0347356Y0243866D01*
X0346856Y0255738D02*
X0352118Y0255738D01*
X0352118Y0249688D01*
X0346856Y0249688D01*
X0346856Y0255738D01*
X0346856Y0250144D02*
X0352118Y0250144D01*
X0352118Y0250600D02*
X0346856Y0250600D01*
X0346856Y0251056D02*
X0352118Y0251056D01*
X0352118Y0251512D02*
X0346856Y0251512D01*
X0346856Y0251968D02*
X0352118Y0251968D01*
X0352118Y0252424D02*
X0346856Y0252424D01*
X0346856Y0252880D02*
X0352118Y0252880D01*
X0352118Y0253336D02*
X0346856Y0253336D01*
X0346856Y0253792D02*
X0352118Y0253792D01*
X0352118Y0254248D02*
X0346856Y0254248D01*
X0346856Y0254704D02*
X0352118Y0254704D01*
X0352118Y0255160D02*
X0346856Y0255160D01*
X0346856Y0255616D02*
X0352118Y0255616D01*
X0354336Y0255738D02*
X0359598Y0255738D01*
X0359598Y0249688D01*
X0354336Y0249688D01*
X0354336Y0255738D01*
X0354336Y0250144D02*
X0359598Y0250144D01*
X0359598Y0250600D02*
X0354336Y0250600D01*
X0354336Y0251056D02*
X0359598Y0251056D01*
X0359598Y0251512D02*
X0354336Y0251512D01*
X0354336Y0251968D02*
X0359598Y0251968D01*
X0359598Y0252424D02*
X0354336Y0252424D01*
X0354336Y0252880D02*
X0359598Y0252880D01*
X0359598Y0253336D02*
X0354336Y0253336D01*
X0354336Y0253792D02*
X0359598Y0253792D01*
X0359598Y0254248D02*
X0354336Y0254248D01*
X0354336Y0254704D02*
X0359598Y0254704D01*
X0359598Y0255160D02*
X0354336Y0255160D01*
X0354336Y0255616D02*
X0359598Y0255616D01*
X0342348Y0255738D02*
X0337086Y0255738D01*
X0342348Y0255738D02*
X0342348Y0249688D01*
X0337086Y0249688D01*
X0337086Y0255738D01*
X0337086Y0250144D02*
X0342348Y0250144D01*
X0342348Y0250600D02*
X0337086Y0250600D01*
X0337086Y0251056D02*
X0342348Y0251056D01*
X0342348Y0251512D02*
X0337086Y0251512D01*
X0337086Y0251968D02*
X0342348Y0251968D01*
X0342348Y0252424D02*
X0337086Y0252424D01*
X0337086Y0252880D02*
X0342348Y0252880D01*
X0342348Y0253336D02*
X0337086Y0253336D01*
X0337086Y0253792D02*
X0342348Y0253792D01*
X0342348Y0254248D02*
X0337086Y0254248D01*
X0337086Y0254704D02*
X0342348Y0254704D01*
X0342348Y0255160D02*
X0337086Y0255160D01*
X0337086Y0255616D02*
X0342348Y0255616D01*
X0334868Y0255738D02*
X0329606Y0255738D01*
X0334868Y0255738D02*
X0334868Y0249688D01*
X0329606Y0249688D01*
X0329606Y0255738D01*
X0329606Y0250144D02*
X0334868Y0250144D01*
X0334868Y0250600D02*
X0329606Y0250600D01*
X0329606Y0251056D02*
X0334868Y0251056D01*
X0334868Y0251512D02*
X0329606Y0251512D01*
X0329606Y0251968D02*
X0334868Y0251968D01*
X0334868Y0252424D02*
X0329606Y0252424D01*
X0329606Y0252880D02*
X0334868Y0252880D01*
X0334868Y0253336D02*
X0329606Y0253336D01*
X0329606Y0253792D02*
X0334868Y0253792D01*
X0334868Y0254248D02*
X0329606Y0254248D01*
X0329606Y0254704D02*
X0334868Y0254704D01*
X0334868Y0255160D02*
X0329606Y0255160D01*
X0329606Y0255616D02*
X0334868Y0255616D01*
X0347356Y0236238D02*
X0352618Y0236238D01*
X0352618Y0230188D01*
X0347356Y0230188D01*
X0347356Y0236238D01*
X0347356Y0230644D02*
X0352618Y0230644D01*
X0352618Y0231100D02*
X0347356Y0231100D01*
X0347356Y0231556D02*
X0352618Y0231556D01*
X0352618Y0232012D02*
X0347356Y0232012D01*
X0347356Y0232468D02*
X0352618Y0232468D01*
X0352618Y0232924D02*
X0347356Y0232924D01*
X0347356Y0233380D02*
X0352618Y0233380D01*
X0352618Y0233836D02*
X0347356Y0233836D01*
X0347356Y0234292D02*
X0352618Y0234292D01*
X0352618Y0234748D02*
X0347356Y0234748D01*
X0347356Y0235204D02*
X0352618Y0235204D01*
X0352618Y0235660D02*
X0347356Y0235660D01*
X0347356Y0236116D02*
X0352618Y0236116D01*
X0354836Y0236238D02*
X0360098Y0236238D01*
X0360098Y0230188D01*
X0354836Y0230188D01*
X0354836Y0236238D01*
X0354836Y0230644D02*
X0360098Y0230644D01*
X0360098Y0231100D02*
X0354836Y0231100D01*
X0354836Y0231556D02*
X0360098Y0231556D01*
X0360098Y0232012D02*
X0354836Y0232012D01*
X0354836Y0232468D02*
X0360098Y0232468D01*
X0360098Y0232924D02*
X0354836Y0232924D01*
X0354836Y0233380D02*
X0360098Y0233380D01*
X0360098Y0233836D02*
X0354836Y0233836D01*
X0354836Y0234292D02*
X0360098Y0234292D01*
X0360098Y0234748D02*
X0354836Y0234748D01*
X0354836Y0235204D02*
X0360098Y0235204D01*
X0360098Y0235660D02*
X0354836Y0235660D01*
X0354836Y0236116D02*
X0360098Y0236116D01*
X0342348Y0233488D02*
X0337086Y0233488D01*
X0342348Y0233488D02*
X0342348Y0227438D01*
X0337086Y0227438D01*
X0337086Y0233488D01*
X0337086Y0227894D02*
X0342348Y0227894D01*
X0342348Y0228350D02*
X0337086Y0228350D01*
X0337086Y0228806D02*
X0342348Y0228806D01*
X0342348Y0229262D02*
X0337086Y0229262D01*
X0337086Y0229718D02*
X0342348Y0229718D01*
X0342348Y0230174D02*
X0337086Y0230174D01*
X0337086Y0230630D02*
X0342348Y0230630D01*
X0342348Y0231086D02*
X0337086Y0231086D01*
X0337086Y0231542D02*
X0342348Y0231542D01*
X0342348Y0231998D02*
X0337086Y0231998D01*
X0337086Y0232454D02*
X0342348Y0232454D01*
X0342348Y0232910D02*
X0337086Y0232910D01*
X0337086Y0233366D02*
X0342348Y0233366D01*
X0334868Y0233488D02*
X0329606Y0233488D01*
X0334868Y0233488D02*
X0334868Y0227438D01*
X0329606Y0227438D01*
X0329606Y0233488D01*
X0329606Y0227894D02*
X0334868Y0227894D01*
X0334868Y0228350D02*
X0329606Y0228350D01*
X0329606Y0228806D02*
X0334868Y0228806D01*
X0334868Y0229262D02*
X0329606Y0229262D01*
X0329606Y0229718D02*
X0334868Y0229718D01*
X0334868Y0230174D02*
X0329606Y0230174D01*
X0329606Y0230630D02*
X0334868Y0230630D01*
X0334868Y0231086D02*
X0329606Y0231086D01*
X0329606Y0231542D02*
X0334868Y0231542D01*
X0334868Y0231998D02*
X0329606Y0231998D01*
X0329606Y0232454D02*
X0334868Y0232454D01*
X0334868Y0232910D02*
X0329606Y0232910D01*
X0329606Y0233366D02*
X0334868Y0233366D01*
X0334868Y0219688D02*
X0329606Y0219688D01*
X0329606Y0225738D01*
X0334868Y0225738D01*
X0334868Y0219688D01*
X0334868Y0220144D02*
X0329606Y0220144D01*
X0329606Y0220600D02*
X0334868Y0220600D01*
X0334868Y0221056D02*
X0329606Y0221056D01*
X0329606Y0221512D02*
X0334868Y0221512D01*
X0334868Y0221968D02*
X0329606Y0221968D01*
X0329606Y0222424D02*
X0334868Y0222424D01*
X0334868Y0222880D02*
X0329606Y0222880D01*
X0329606Y0223336D02*
X0334868Y0223336D01*
X0334868Y0223792D02*
X0329606Y0223792D01*
X0329606Y0224248D02*
X0334868Y0224248D01*
X0334868Y0224704D02*
X0329606Y0224704D01*
X0329606Y0225160D02*
X0334868Y0225160D01*
X0334868Y0225616D02*
X0329606Y0225616D01*
X0337086Y0219688D02*
X0342348Y0219688D01*
X0337086Y0219688D02*
X0337086Y0225738D01*
X0342348Y0225738D01*
X0342348Y0219688D01*
X0342348Y0220144D02*
X0337086Y0220144D01*
X0337086Y0220600D02*
X0342348Y0220600D01*
X0342348Y0221056D02*
X0337086Y0221056D01*
X0337086Y0221512D02*
X0342348Y0221512D01*
X0342348Y0221968D02*
X0337086Y0221968D01*
X0337086Y0222424D02*
X0342348Y0222424D01*
X0342348Y0222880D02*
X0337086Y0222880D01*
X0337086Y0223336D02*
X0342348Y0223336D01*
X0342348Y0223792D02*
X0337086Y0223792D01*
X0337086Y0224248D02*
X0342348Y0224248D01*
X0342348Y0224704D02*
X0337086Y0224704D01*
X0337086Y0225160D02*
X0342348Y0225160D01*
X0342348Y0225616D02*
X0337086Y0225616D01*
X0337086Y0211938D02*
X0342348Y0211938D01*
X0337086Y0211938D02*
X0337086Y0217988D01*
X0342348Y0217988D01*
X0342348Y0211938D01*
X0342348Y0212394D02*
X0337086Y0212394D01*
X0337086Y0212850D02*
X0342348Y0212850D01*
X0342348Y0213306D02*
X0337086Y0213306D01*
X0337086Y0213762D02*
X0342348Y0213762D01*
X0342348Y0214218D02*
X0337086Y0214218D01*
X0337086Y0214674D02*
X0342348Y0214674D01*
X0342348Y0215130D02*
X0337086Y0215130D01*
X0337086Y0215586D02*
X0342348Y0215586D01*
X0342348Y0216042D02*
X0337086Y0216042D01*
X0337086Y0216498D02*
X0342348Y0216498D01*
X0342348Y0216954D02*
X0337086Y0216954D01*
X0337086Y0217410D02*
X0342348Y0217410D01*
X0342348Y0217866D02*
X0337086Y0217866D01*
X0334868Y0211938D02*
X0329606Y0211938D01*
X0329606Y0217988D01*
X0334868Y0217988D01*
X0334868Y0211938D01*
X0334868Y0212394D02*
X0329606Y0212394D01*
X0329606Y0212850D02*
X0334868Y0212850D01*
X0334868Y0213306D02*
X0329606Y0213306D01*
X0329606Y0213762D02*
X0334868Y0213762D01*
X0334868Y0214218D02*
X0329606Y0214218D01*
X0329606Y0214674D02*
X0334868Y0214674D01*
X0334868Y0215130D02*
X0329606Y0215130D01*
X0329606Y0215586D02*
X0334868Y0215586D01*
X0334868Y0216042D02*
X0329606Y0216042D01*
X0329606Y0216498D02*
X0334868Y0216498D01*
X0334868Y0216954D02*
X0329606Y0216954D01*
X0329606Y0217410D02*
X0334868Y0217410D01*
X0334868Y0217866D02*
X0329606Y0217866D01*
X0276598Y0212488D02*
X0271336Y0212488D01*
X0276598Y0212488D02*
X0276598Y0206438D01*
X0271336Y0206438D01*
X0271336Y0212488D01*
X0271336Y0206894D02*
X0276598Y0206894D01*
X0276598Y0207350D02*
X0271336Y0207350D01*
X0271336Y0207806D02*
X0276598Y0207806D01*
X0276598Y0208262D02*
X0271336Y0208262D01*
X0271336Y0208718D02*
X0276598Y0208718D01*
X0276598Y0209174D02*
X0271336Y0209174D01*
X0271336Y0209630D02*
X0276598Y0209630D01*
X0276598Y0210086D02*
X0271336Y0210086D01*
X0271336Y0210542D02*
X0276598Y0210542D01*
X0276598Y0210998D02*
X0271336Y0210998D01*
X0271336Y0211454D02*
X0276598Y0211454D01*
X0276598Y0211910D02*
X0271336Y0211910D01*
X0271336Y0212366D02*
X0276598Y0212366D01*
X0269118Y0212488D02*
X0263856Y0212488D01*
X0269118Y0212488D02*
X0269118Y0206438D01*
X0263856Y0206438D01*
X0263856Y0212488D01*
X0263856Y0206894D02*
X0269118Y0206894D01*
X0269118Y0207350D02*
X0263856Y0207350D01*
X0263856Y0207806D02*
X0269118Y0207806D01*
X0269118Y0208262D02*
X0263856Y0208262D01*
X0263856Y0208718D02*
X0269118Y0208718D01*
X0269118Y0209174D02*
X0263856Y0209174D01*
X0263856Y0209630D02*
X0269118Y0209630D01*
X0269118Y0210086D02*
X0263856Y0210086D01*
X0263856Y0210542D02*
X0269118Y0210542D01*
X0269118Y0210998D02*
X0263856Y0210998D01*
X0263856Y0211454D02*
X0269118Y0211454D01*
X0269118Y0211910D02*
X0263856Y0211910D01*
X0263856Y0212366D02*
X0269118Y0212366D01*
X0257598Y0212488D02*
X0252336Y0212488D01*
X0257598Y0212488D02*
X0257598Y0206438D01*
X0252336Y0206438D01*
X0252336Y0212488D01*
X0252336Y0206894D02*
X0257598Y0206894D01*
X0257598Y0207350D02*
X0252336Y0207350D01*
X0252336Y0207806D02*
X0257598Y0207806D01*
X0257598Y0208262D02*
X0252336Y0208262D01*
X0252336Y0208718D02*
X0257598Y0208718D01*
X0257598Y0209174D02*
X0252336Y0209174D01*
X0252336Y0209630D02*
X0257598Y0209630D01*
X0257598Y0210086D02*
X0252336Y0210086D01*
X0252336Y0210542D02*
X0257598Y0210542D01*
X0257598Y0210998D02*
X0252336Y0210998D01*
X0252336Y0211454D02*
X0257598Y0211454D01*
X0257598Y0211910D02*
X0252336Y0211910D01*
X0252336Y0212366D02*
X0257598Y0212366D01*
X0250118Y0212488D02*
X0244856Y0212488D01*
X0250118Y0212488D02*
X0250118Y0206438D01*
X0244856Y0206438D01*
X0244856Y0212488D01*
X0244856Y0206894D02*
X0250118Y0206894D01*
X0250118Y0207350D02*
X0244856Y0207350D01*
X0244856Y0207806D02*
X0250118Y0207806D01*
X0250118Y0208262D02*
X0244856Y0208262D01*
X0244856Y0208718D02*
X0250118Y0208718D01*
X0250118Y0209174D02*
X0244856Y0209174D01*
X0244856Y0209630D02*
X0250118Y0209630D01*
X0250118Y0210086D02*
X0244856Y0210086D01*
X0244856Y0210542D02*
X0250118Y0210542D01*
X0250118Y0210998D02*
X0244856Y0210998D01*
X0244856Y0211454D02*
X0250118Y0211454D01*
X0250118Y0211910D02*
X0244856Y0211910D01*
X0244856Y0212366D02*
X0250118Y0212366D01*
X0267606Y0289838D02*
X0272868Y0289838D01*
X0272868Y0283788D01*
X0267606Y0283788D01*
X0267606Y0289838D01*
X0267606Y0284244D02*
X0272868Y0284244D01*
X0272868Y0284700D02*
X0267606Y0284700D01*
X0267606Y0285156D02*
X0272868Y0285156D01*
X0272868Y0285612D02*
X0267606Y0285612D01*
X0267606Y0286068D02*
X0272868Y0286068D01*
X0272868Y0286524D02*
X0267606Y0286524D01*
X0267606Y0286980D02*
X0272868Y0286980D01*
X0272868Y0287436D02*
X0267606Y0287436D01*
X0267606Y0287892D02*
X0272868Y0287892D01*
X0272868Y0288348D02*
X0267606Y0288348D01*
X0267606Y0288804D02*
X0272868Y0288804D01*
X0272868Y0289260D02*
X0267606Y0289260D01*
X0267606Y0289716D02*
X0272868Y0289716D01*
X0275086Y0289838D02*
X0280348Y0289838D01*
X0280348Y0283788D01*
X0275086Y0283788D01*
X0275086Y0289838D01*
X0275086Y0284244D02*
X0280348Y0284244D01*
X0280348Y0284700D02*
X0275086Y0284700D01*
X0275086Y0285156D02*
X0280348Y0285156D01*
X0280348Y0285612D02*
X0275086Y0285612D01*
X0275086Y0286068D02*
X0280348Y0286068D01*
X0280348Y0286524D02*
X0275086Y0286524D01*
X0275086Y0286980D02*
X0280348Y0286980D01*
X0280348Y0287436D02*
X0275086Y0287436D01*
X0275086Y0287892D02*
X0280348Y0287892D01*
X0280348Y0288348D02*
X0275086Y0288348D01*
X0275086Y0288804D02*
X0280348Y0288804D01*
X0280348Y0289260D02*
X0275086Y0289260D01*
X0275086Y0289716D02*
X0280348Y0289716D01*
X0484606Y0151738D02*
X0489868Y0151738D01*
X0489868Y0145688D01*
X0484606Y0145688D01*
X0484606Y0151738D01*
X0484606Y0146144D02*
X0489868Y0146144D01*
X0489868Y0146600D02*
X0484606Y0146600D01*
X0484606Y0147056D02*
X0489868Y0147056D01*
X0489868Y0147512D02*
X0484606Y0147512D01*
X0484606Y0147968D02*
X0489868Y0147968D01*
X0489868Y0148424D02*
X0484606Y0148424D01*
X0484606Y0148880D02*
X0489868Y0148880D01*
X0489868Y0149336D02*
X0484606Y0149336D01*
X0484606Y0149792D02*
X0489868Y0149792D01*
X0489868Y0150248D02*
X0484606Y0150248D01*
X0484606Y0150704D02*
X0489868Y0150704D01*
X0489868Y0151160D02*
X0484606Y0151160D01*
X0484606Y0151616D02*
X0489868Y0151616D01*
X0492086Y0151738D02*
X0497348Y0151738D01*
X0497348Y0145688D01*
X0492086Y0145688D01*
X0492086Y0151738D01*
X0492086Y0146144D02*
X0497348Y0146144D01*
X0497348Y0146600D02*
X0492086Y0146600D01*
X0492086Y0147056D02*
X0497348Y0147056D01*
X0497348Y0147512D02*
X0492086Y0147512D01*
X0492086Y0147968D02*
X0497348Y0147968D01*
X0497348Y0148424D02*
X0492086Y0148424D01*
X0492086Y0148880D02*
X0497348Y0148880D01*
X0497348Y0149336D02*
X0492086Y0149336D01*
X0492086Y0149792D02*
X0497348Y0149792D01*
X0497348Y0150248D02*
X0492086Y0150248D01*
X0492086Y0150704D02*
X0497348Y0150704D01*
X0497348Y0151160D02*
X0492086Y0151160D01*
X0492086Y0151616D02*
X0497348Y0151616D01*
X0500106Y0151738D02*
X0505368Y0151738D01*
X0505368Y0145688D01*
X0500106Y0145688D01*
X0500106Y0151738D01*
X0500106Y0146144D02*
X0505368Y0146144D01*
X0505368Y0146600D02*
X0500106Y0146600D01*
X0500106Y0147056D02*
X0505368Y0147056D01*
X0505368Y0147512D02*
X0500106Y0147512D01*
X0500106Y0147968D02*
X0505368Y0147968D01*
X0505368Y0148424D02*
X0500106Y0148424D01*
X0500106Y0148880D02*
X0505368Y0148880D01*
X0505368Y0149336D02*
X0500106Y0149336D01*
X0500106Y0149792D02*
X0505368Y0149792D01*
X0505368Y0150248D02*
X0500106Y0150248D01*
X0500106Y0150704D02*
X0505368Y0150704D01*
X0505368Y0151160D02*
X0500106Y0151160D01*
X0500106Y0151616D02*
X0505368Y0151616D01*
X0507586Y0151738D02*
X0512848Y0151738D01*
X0512848Y0145688D01*
X0507586Y0145688D01*
X0507586Y0151738D01*
X0507586Y0146144D02*
X0512848Y0146144D01*
X0512848Y0146600D02*
X0507586Y0146600D01*
X0507586Y0147056D02*
X0512848Y0147056D01*
X0512848Y0147512D02*
X0507586Y0147512D01*
X0507586Y0147968D02*
X0512848Y0147968D01*
X0512848Y0148424D02*
X0507586Y0148424D01*
X0507586Y0148880D02*
X0512848Y0148880D01*
X0512848Y0149336D02*
X0507586Y0149336D01*
X0507586Y0149792D02*
X0512848Y0149792D01*
X0512848Y0150248D02*
X0507586Y0150248D01*
X0507586Y0150704D02*
X0512848Y0150704D01*
X0512848Y0151160D02*
X0507586Y0151160D01*
X0507586Y0151616D02*
X0512848Y0151616D01*
X0512598Y0124238D02*
X0507336Y0124238D01*
X0512598Y0124238D02*
X0512598Y0118188D01*
X0507336Y0118188D01*
X0507336Y0124238D01*
X0507336Y0118644D02*
X0512598Y0118644D01*
X0512598Y0119100D02*
X0507336Y0119100D01*
X0507336Y0119556D02*
X0512598Y0119556D01*
X0512598Y0120012D02*
X0507336Y0120012D01*
X0507336Y0120468D02*
X0512598Y0120468D01*
X0512598Y0120924D02*
X0507336Y0120924D01*
X0507336Y0121380D02*
X0512598Y0121380D01*
X0512598Y0121836D02*
X0507336Y0121836D01*
X0507336Y0122292D02*
X0512598Y0122292D01*
X0512598Y0122748D02*
X0507336Y0122748D01*
X0507336Y0123204D02*
X0512598Y0123204D01*
X0512598Y0123660D02*
X0507336Y0123660D01*
X0507336Y0124116D02*
X0512598Y0124116D01*
X0505118Y0124238D02*
X0499856Y0124238D01*
X0505118Y0124238D02*
X0505118Y0118188D01*
X0499856Y0118188D01*
X0499856Y0124238D01*
X0499856Y0118644D02*
X0505118Y0118644D01*
X0505118Y0119100D02*
X0499856Y0119100D01*
X0499856Y0119556D02*
X0505118Y0119556D01*
X0505118Y0120012D02*
X0499856Y0120012D01*
X0499856Y0120468D02*
X0505118Y0120468D01*
X0505118Y0120924D02*
X0499856Y0120924D01*
X0499856Y0121380D02*
X0505118Y0121380D01*
X0505118Y0121836D02*
X0499856Y0121836D01*
X0499856Y0122292D02*
X0505118Y0122292D01*
X0505118Y0122748D02*
X0499856Y0122748D01*
X0499856Y0123204D02*
X0505118Y0123204D01*
X0505118Y0123660D02*
X0499856Y0123660D01*
X0499856Y0124116D02*
X0505118Y0124116D01*
X0497098Y0124238D02*
X0491836Y0124238D01*
X0497098Y0124238D02*
X0497098Y0118188D01*
X0491836Y0118188D01*
X0491836Y0124238D01*
X0491836Y0118644D02*
X0497098Y0118644D01*
X0497098Y0119100D02*
X0491836Y0119100D01*
X0491836Y0119556D02*
X0497098Y0119556D01*
X0497098Y0120012D02*
X0491836Y0120012D01*
X0491836Y0120468D02*
X0497098Y0120468D01*
X0497098Y0120924D02*
X0491836Y0120924D01*
X0491836Y0121380D02*
X0497098Y0121380D01*
X0497098Y0121836D02*
X0491836Y0121836D01*
X0491836Y0122292D02*
X0497098Y0122292D01*
X0497098Y0122748D02*
X0491836Y0122748D01*
X0491836Y0123204D02*
X0497098Y0123204D01*
X0497098Y0123660D02*
X0491836Y0123660D01*
X0491836Y0124116D02*
X0497098Y0124116D01*
X0489618Y0124238D02*
X0484356Y0124238D01*
X0489618Y0124238D02*
X0489618Y0118188D01*
X0484356Y0118188D01*
X0484356Y0124238D01*
X0484356Y0118644D02*
X0489618Y0118644D01*
X0489618Y0119100D02*
X0484356Y0119100D01*
X0484356Y0119556D02*
X0489618Y0119556D01*
X0489618Y0120012D02*
X0484356Y0120012D01*
X0484356Y0120468D02*
X0489618Y0120468D01*
X0489618Y0120924D02*
X0484356Y0120924D01*
X0484356Y0121380D02*
X0489618Y0121380D01*
X0489618Y0121836D02*
X0484356Y0121836D01*
X0484356Y0122292D02*
X0489618Y0122292D01*
X0489618Y0122748D02*
X0484356Y0122748D01*
X0484356Y0123204D02*
X0489618Y0123204D01*
X0489618Y0123660D02*
X0484356Y0123660D01*
X0484356Y0124116D02*
X0489618Y0124116D01*
X0528252Y0095584D02*
X0528252Y0090322D01*
X0522202Y0090322D01*
X0522202Y0095584D01*
X0528252Y0095584D01*
X0528252Y0090778D02*
X0522202Y0090778D01*
X0522202Y0091234D02*
X0528252Y0091234D01*
X0528252Y0091690D02*
X0522202Y0091690D01*
X0522202Y0092146D02*
X0528252Y0092146D01*
X0528252Y0092602D02*
X0522202Y0092602D01*
X0522202Y0093058D02*
X0528252Y0093058D01*
X0528252Y0093514D02*
X0522202Y0093514D01*
X0522202Y0093970D02*
X0528252Y0093970D01*
X0528252Y0094426D02*
X0522202Y0094426D01*
X0522202Y0094882D02*
X0528252Y0094882D01*
X0528252Y0095338D02*
X0522202Y0095338D01*
X0528252Y0088103D02*
X0528252Y0082841D01*
X0522202Y0082841D01*
X0522202Y0088103D01*
X0528252Y0088103D01*
X0528252Y0083297D02*
X0522202Y0083297D01*
X0522202Y0083753D02*
X0528252Y0083753D01*
X0528252Y0084209D02*
X0522202Y0084209D01*
X0522202Y0084665D02*
X0528252Y0084665D01*
X0528252Y0085121D02*
X0522202Y0085121D01*
X0522202Y0085577D02*
X0528252Y0085577D01*
X0528252Y0086033D02*
X0522202Y0086033D01*
X0522202Y0086489D02*
X0528252Y0086489D01*
X0528252Y0086945D02*
X0522202Y0086945D01*
X0522202Y0087401D02*
X0528252Y0087401D01*
X0528252Y0087857D02*
X0522202Y0087857D01*
X0563106Y0092488D02*
X0568368Y0092488D01*
X0568368Y0086438D01*
X0563106Y0086438D01*
X0563106Y0092488D01*
X0563106Y0086894D02*
X0568368Y0086894D01*
X0568368Y0087350D02*
X0563106Y0087350D01*
X0563106Y0087806D02*
X0568368Y0087806D01*
X0568368Y0088262D02*
X0563106Y0088262D01*
X0563106Y0088718D02*
X0568368Y0088718D01*
X0568368Y0089174D02*
X0563106Y0089174D01*
X0563106Y0089630D02*
X0568368Y0089630D01*
X0568368Y0090086D02*
X0563106Y0090086D01*
X0563106Y0090542D02*
X0568368Y0090542D01*
X0568368Y0090998D02*
X0563106Y0090998D01*
X0563106Y0091454D02*
X0568368Y0091454D01*
X0568368Y0091910D02*
X0563106Y0091910D01*
X0563106Y0092366D02*
X0568368Y0092366D01*
X0570586Y0092488D02*
X0575848Y0092488D01*
X0575848Y0086438D01*
X0570586Y0086438D01*
X0570586Y0092488D01*
X0570586Y0086894D02*
X0575848Y0086894D01*
X0575848Y0087350D02*
X0570586Y0087350D01*
X0570586Y0087806D02*
X0575848Y0087806D01*
X0575848Y0088262D02*
X0570586Y0088262D01*
X0570586Y0088718D02*
X0575848Y0088718D01*
X0575848Y0089174D02*
X0570586Y0089174D01*
X0570586Y0089630D02*
X0575848Y0089630D01*
X0575848Y0090086D02*
X0570586Y0090086D01*
X0570586Y0090542D02*
X0575848Y0090542D01*
X0575848Y0090998D02*
X0570586Y0090998D01*
X0570586Y0091454D02*
X0575848Y0091454D01*
X0575848Y0091910D02*
X0570586Y0091910D01*
X0570586Y0092366D02*
X0575848Y0092366D01*
X0583856Y0091688D02*
X0589118Y0091688D01*
X0583856Y0091688D02*
X0583856Y0097738D01*
X0589118Y0097738D01*
X0589118Y0091688D01*
X0589118Y0092144D02*
X0583856Y0092144D01*
X0583856Y0092600D02*
X0589118Y0092600D01*
X0589118Y0093056D02*
X0583856Y0093056D01*
X0583856Y0093512D02*
X0589118Y0093512D01*
X0589118Y0093968D02*
X0583856Y0093968D01*
X0583856Y0094424D02*
X0589118Y0094424D01*
X0589118Y0094880D02*
X0583856Y0094880D01*
X0583856Y0095336D02*
X0589118Y0095336D01*
X0589118Y0095792D02*
X0583856Y0095792D01*
X0583856Y0096248D02*
X0589118Y0096248D01*
X0589118Y0096704D02*
X0583856Y0096704D01*
X0583856Y0097160D02*
X0589118Y0097160D01*
X0589118Y0097616D02*
X0583856Y0097616D01*
X0591336Y0091688D02*
X0596598Y0091688D01*
X0591336Y0091688D02*
X0591336Y0097738D01*
X0596598Y0097738D01*
X0596598Y0091688D01*
X0596598Y0092144D02*
X0591336Y0092144D01*
X0591336Y0092600D02*
X0596598Y0092600D01*
X0596598Y0093056D02*
X0591336Y0093056D01*
X0591336Y0093512D02*
X0596598Y0093512D01*
X0596598Y0093968D02*
X0591336Y0093968D01*
X0591336Y0094424D02*
X0596598Y0094424D01*
X0596598Y0094880D02*
X0591336Y0094880D01*
X0591336Y0095336D02*
X0596598Y0095336D01*
X0596598Y0095792D02*
X0591336Y0095792D01*
X0591336Y0096248D02*
X0596598Y0096248D01*
X0596598Y0096704D02*
X0591336Y0096704D01*
X0591336Y0097160D02*
X0596598Y0097160D01*
X0596598Y0097616D02*
X0591336Y0097616D01*
X0591336Y0083938D02*
X0596598Y0083938D01*
X0591336Y0083938D02*
X0591336Y0089988D01*
X0596598Y0089988D01*
X0596598Y0083938D01*
X0596598Y0084394D02*
X0591336Y0084394D01*
X0591336Y0084850D02*
X0596598Y0084850D01*
X0596598Y0085306D02*
X0591336Y0085306D01*
X0591336Y0085762D02*
X0596598Y0085762D01*
X0596598Y0086218D02*
X0591336Y0086218D01*
X0591336Y0086674D02*
X0596598Y0086674D01*
X0596598Y0087130D02*
X0591336Y0087130D01*
X0591336Y0087586D02*
X0596598Y0087586D01*
X0596598Y0088042D02*
X0591336Y0088042D01*
X0591336Y0088498D02*
X0596598Y0088498D01*
X0596598Y0088954D02*
X0591336Y0088954D01*
X0591336Y0089410D02*
X0596598Y0089410D01*
X0596598Y0089866D02*
X0591336Y0089866D01*
X0589118Y0083938D02*
X0583856Y0083938D01*
X0583856Y0089988D01*
X0589118Y0089988D01*
X0589118Y0083938D01*
X0589118Y0084394D02*
X0583856Y0084394D01*
X0583856Y0084850D02*
X0589118Y0084850D01*
X0589118Y0085306D02*
X0583856Y0085306D01*
X0583856Y0085762D02*
X0589118Y0085762D01*
X0589118Y0086218D02*
X0583856Y0086218D01*
X0583856Y0086674D02*
X0589118Y0086674D01*
X0589118Y0087130D02*
X0583856Y0087130D01*
X0583856Y0087586D02*
X0589118Y0087586D01*
X0589118Y0088042D02*
X0583856Y0088042D01*
X0583856Y0088498D02*
X0589118Y0088498D01*
X0589118Y0088954D02*
X0583856Y0088954D01*
X0583856Y0089410D02*
X0589118Y0089410D01*
X0589118Y0089866D02*
X0583856Y0089866D01*
D19*
X0530858Y0062349D02*
X0530858Y0055123D01*
X0530858Y0062349D02*
X0543596Y0062349D01*
X0543596Y0055123D01*
X0530858Y0055123D01*
X0530858Y0055583D02*
X0543596Y0055583D01*
X0543596Y0056043D02*
X0530858Y0056043D01*
X0530858Y0056503D02*
X0543596Y0056503D01*
X0543596Y0056963D02*
X0530858Y0056963D01*
X0530858Y0057423D02*
X0543596Y0057423D01*
X0543596Y0057883D02*
X0530858Y0057883D01*
X0530858Y0058343D02*
X0543596Y0058343D01*
X0543596Y0058803D02*
X0530858Y0058803D01*
X0530858Y0059263D02*
X0543596Y0059263D01*
X0543596Y0059723D02*
X0530858Y0059723D01*
X0530858Y0060183D02*
X0543596Y0060183D01*
X0543596Y0060643D02*
X0530858Y0060643D01*
X0530858Y0061103D02*
X0543596Y0061103D01*
X0543596Y0061563D02*
X0530858Y0061563D01*
X0530858Y0062023D02*
X0543596Y0062023D01*
X0530858Y0040302D02*
X0530858Y0033076D01*
X0530858Y0040302D02*
X0543596Y0040302D01*
X0543596Y0033076D01*
X0530858Y0033076D01*
X0530858Y0033536D02*
X0543596Y0033536D01*
X0543596Y0033996D02*
X0530858Y0033996D01*
X0530858Y0034456D02*
X0543596Y0034456D01*
X0543596Y0034916D02*
X0530858Y0034916D01*
X0530858Y0035376D02*
X0543596Y0035376D01*
X0543596Y0035836D02*
X0530858Y0035836D01*
X0530858Y0036296D02*
X0543596Y0036296D01*
X0543596Y0036756D02*
X0530858Y0036756D01*
X0530858Y0037216D02*
X0543596Y0037216D01*
X0543596Y0037676D02*
X0530858Y0037676D01*
X0530858Y0038136D02*
X0543596Y0038136D01*
X0543596Y0038596D02*
X0530858Y0038596D01*
X0530858Y0039056D02*
X0543596Y0039056D01*
X0543596Y0039516D02*
X0530858Y0039516D01*
X0530858Y0039976D02*
X0543596Y0039976D01*
X0458129Y0209113D02*
X0450903Y0209113D01*
X0458129Y0209113D02*
X0458129Y0200313D01*
X0450903Y0200313D01*
X0450903Y0209113D01*
X0450903Y0200773D02*
X0458129Y0200773D01*
X0458129Y0201233D02*
X0450903Y0201233D01*
X0450903Y0201693D02*
X0458129Y0201693D01*
X0458129Y0202153D02*
X0450903Y0202153D01*
X0450903Y0202613D02*
X0458129Y0202613D01*
X0458129Y0203073D02*
X0450903Y0203073D01*
X0450903Y0203533D02*
X0458129Y0203533D01*
X0458129Y0203993D02*
X0450903Y0203993D01*
X0450903Y0204453D02*
X0458129Y0204453D01*
X0458129Y0204913D02*
X0450903Y0204913D01*
X0450903Y0205373D02*
X0458129Y0205373D01*
X0458129Y0205833D02*
X0450903Y0205833D01*
X0450903Y0206293D02*
X0458129Y0206293D01*
X0458129Y0206753D02*
X0450903Y0206753D01*
X0450903Y0207213D02*
X0458129Y0207213D01*
X0458129Y0207673D02*
X0450903Y0207673D01*
X0450903Y0208133D02*
X0458129Y0208133D01*
X0458129Y0208593D02*
X0450903Y0208593D01*
X0450903Y0209053D02*
X0458129Y0209053D01*
X0438051Y0209113D02*
X0430825Y0209113D01*
X0438051Y0209113D02*
X0438051Y0200313D01*
X0430825Y0200313D01*
X0430825Y0209113D01*
X0430825Y0200773D02*
X0438051Y0200773D01*
X0438051Y0201233D02*
X0430825Y0201233D01*
X0430825Y0201693D02*
X0438051Y0201693D01*
X0438051Y0202153D02*
X0430825Y0202153D01*
X0430825Y0202613D02*
X0438051Y0202613D01*
X0438051Y0203073D02*
X0430825Y0203073D01*
X0430825Y0203533D02*
X0438051Y0203533D01*
X0438051Y0203993D02*
X0430825Y0203993D01*
X0430825Y0204453D02*
X0438051Y0204453D01*
X0438051Y0204913D02*
X0430825Y0204913D01*
X0430825Y0205373D02*
X0438051Y0205373D01*
X0438051Y0205833D02*
X0430825Y0205833D01*
X0430825Y0206293D02*
X0438051Y0206293D01*
X0438051Y0206753D02*
X0430825Y0206753D01*
X0430825Y0207213D02*
X0438051Y0207213D01*
X0438051Y0207673D02*
X0430825Y0207673D01*
X0430825Y0208133D02*
X0438051Y0208133D01*
X0438051Y0208593D02*
X0430825Y0208593D01*
X0430825Y0209053D02*
X0438051Y0209053D01*
X0228614Y0114844D02*
X0221388Y0114844D01*
X0221388Y0127582D01*
X0228614Y0127582D01*
X0228614Y0114844D01*
X0228614Y0115304D02*
X0221388Y0115304D01*
X0221388Y0115764D02*
X0228614Y0115764D01*
X0228614Y0116224D02*
X0221388Y0116224D01*
X0221388Y0116684D02*
X0228614Y0116684D01*
X0228614Y0117144D02*
X0221388Y0117144D01*
X0221388Y0117604D02*
X0228614Y0117604D01*
X0228614Y0118064D02*
X0221388Y0118064D01*
X0221388Y0118524D02*
X0228614Y0118524D01*
X0228614Y0118984D02*
X0221388Y0118984D01*
X0221388Y0119444D02*
X0228614Y0119444D01*
X0228614Y0119904D02*
X0221388Y0119904D01*
X0221388Y0120364D02*
X0228614Y0120364D01*
X0228614Y0120824D02*
X0221388Y0120824D01*
X0221388Y0121284D02*
X0228614Y0121284D01*
X0228614Y0121744D02*
X0221388Y0121744D01*
X0221388Y0122204D02*
X0228614Y0122204D01*
X0228614Y0122664D02*
X0221388Y0122664D01*
X0221388Y0123124D02*
X0228614Y0123124D01*
X0228614Y0123584D02*
X0221388Y0123584D01*
X0221388Y0124044D02*
X0228614Y0124044D01*
X0228614Y0124504D02*
X0221388Y0124504D01*
X0221388Y0124964D02*
X0228614Y0124964D01*
X0228614Y0125424D02*
X0221388Y0125424D01*
X0221388Y0125884D02*
X0228614Y0125884D01*
X0228614Y0126344D02*
X0221388Y0126344D01*
X0221388Y0126804D02*
X0228614Y0126804D01*
X0228614Y0127264D02*
X0221388Y0127264D01*
X0206566Y0114844D02*
X0199340Y0114844D01*
X0199340Y0127582D01*
X0206566Y0127582D01*
X0206566Y0114844D01*
X0206566Y0115304D02*
X0199340Y0115304D01*
X0199340Y0115764D02*
X0206566Y0115764D01*
X0206566Y0116224D02*
X0199340Y0116224D01*
X0199340Y0116684D02*
X0206566Y0116684D01*
X0206566Y0117144D02*
X0199340Y0117144D01*
X0199340Y0117604D02*
X0206566Y0117604D01*
X0206566Y0118064D02*
X0199340Y0118064D01*
X0199340Y0118524D02*
X0206566Y0118524D01*
X0206566Y0118984D02*
X0199340Y0118984D01*
X0199340Y0119444D02*
X0206566Y0119444D01*
X0206566Y0119904D02*
X0199340Y0119904D01*
X0199340Y0120364D02*
X0206566Y0120364D01*
X0206566Y0120824D02*
X0199340Y0120824D01*
X0199340Y0121284D02*
X0206566Y0121284D01*
X0206566Y0121744D02*
X0199340Y0121744D01*
X0199340Y0122204D02*
X0206566Y0122204D01*
X0206566Y0122664D02*
X0199340Y0122664D01*
X0199340Y0123124D02*
X0206566Y0123124D01*
X0206566Y0123584D02*
X0199340Y0123584D01*
X0199340Y0124044D02*
X0206566Y0124044D01*
X0206566Y0124504D02*
X0199340Y0124504D01*
X0199340Y0124964D02*
X0206566Y0124964D01*
X0206566Y0125424D02*
X0199340Y0125424D01*
X0199340Y0125884D02*
X0206566Y0125884D01*
X0206566Y0126344D02*
X0199340Y0126344D01*
X0199340Y0126804D02*
X0206566Y0126804D01*
X0206566Y0127264D02*
X0199340Y0127264D01*
X0199340Y0099094D02*
X0206566Y0099094D01*
X0199340Y0099094D02*
X0199340Y0111832D01*
X0206566Y0111832D01*
X0206566Y0099094D01*
X0206566Y0099554D02*
X0199340Y0099554D01*
X0199340Y0100014D02*
X0206566Y0100014D01*
X0206566Y0100474D02*
X0199340Y0100474D01*
X0199340Y0100934D02*
X0206566Y0100934D01*
X0206566Y0101394D02*
X0199340Y0101394D01*
X0199340Y0101854D02*
X0206566Y0101854D01*
X0206566Y0102314D02*
X0199340Y0102314D01*
X0199340Y0102774D02*
X0206566Y0102774D01*
X0206566Y0103234D02*
X0199340Y0103234D01*
X0199340Y0103694D02*
X0206566Y0103694D01*
X0206566Y0104154D02*
X0199340Y0104154D01*
X0199340Y0104614D02*
X0206566Y0104614D01*
X0206566Y0105074D02*
X0199340Y0105074D01*
X0199340Y0105534D02*
X0206566Y0105534D01*
X0206566Y0105994D02*
X0199340Y0105994D01*
X0199340Y0106454D02*
X0206566Y0106454D01*
X0206566Y0106914D02*
X0199340Y0106914D01*
X0199340Y0107374D02*
X0206566Y0107374D01*
X0206566Y0107834D02*
X0199340Y0107834D01*
X0199340Y0108294D02*
X0206566Y0108294D01*
X0206566Y0108754D02*
X0199340Y0108754D01*
X0199340Y0109214D02*
X0206566Y0109214D01*
X0206566Y0109674D02*
X0199340Y0109674D01*
X0199340Y0110134D02*
X0206566Y0110134D01*
X0206566Y0110594D02*
X0199340Y0110594D01*
X0199340Y0111054D02*
X0206566Y0111054D01*
X0206566Y0111514D02*
X0199340Y0111514D01*
X0221388Y0099094D02*
X0228614Y0099094D01*
X0221388Y0099094D02*
X0221388Y0111832D01*
X0228614Y0111832D01*
X0228614Y0099094D01*
X0228614Y0099554D02*
X0221388Y0099554D01*
X0221388Y0100014D02*
X0228614Y0100014D01*
X0228614Y0100474D02*
X0221388Y0100474D01*
X0221388Y0100934D02*
X0228614Y0100934D01*
X0228614Y0101394D02*
X0221388Y0101394D01*
X0221388Y0101854D02*
X0228614Y0101854D01*
X0228614Y0102314D02*
X0221388Y0102314D01*
X0221388Y0102774D02*
X0228614Y0102774D01*
X0228614Y0103234D02*
X0221388Y0103234D01*
X0221388Y0103694D02*
X0228614Y0103694D01*
X0228614Y0104154D02*
X0221388Y0104154D01*
X0221388Y0104614D02*
X0228614Y0104614D01*
X0228614Y0105074D02*
X0221388Y0105074D01*
X0221388Y0105534D02*
X0228614Y0105534D01*
X0228614Y0105994D02*
X0221388Y0105994D01*
X0221388Y0106454D02*
X0228614Y0106454D01*
X0228614Y0106914D02*
X0221388Y0106914D01*
X0221388Y0107374D02*
X0228614Y0107374D01*
X0228614Y0107834D02*
X0221388Y0107834D01*
X0221388Y0108294D02*
X0228614Y0108294D01*
X0228614Y0108754D02*
X0221388Y0108754D01*
X0221388Y0109214D02*
X0228614Y0109214D01*
X0228614Y0109674D02*
X0221388Y0109674D01*
X0221388Y0110134D02*
X0228614Y0110134D01*
X0228614Y0110594D02*
X0221388Y0110594D01*
X0221388Y0111054D02*
X0228614Y0111054D01*
X0228614Y0111514D02*
X0221388Y0111514D01*
X0221388Y0072094D02*
X0228614Y0072094D01*
X0221388Y0072094D02*
X0221388Y0084832D01*
X0228614Y0084832D01*
X0228614Y0072094D01*
X0228614Y0072554D02*
X0221388Y0072554D01*
X0221388Y0073014D02*
X0228614Y0073014D01*
X0228614Y0073474D02*
X0221388Y0073474D01*
X0221388Y0073934D02*
X0228614Y0073934D01*
X0228614Y0074394D02*
X0221388Y0074394D01*
X0221388Y0074854D02*
X0228614Y0074854D01*
X0228614Y0075314D02*
X0221388Y0075314D01*
X0221388Y0075774D02*
X0228614Y0075774D01*
X0228614Y0076234D02*
X0221388Y0076234D01*
X0221388Y0076694D02*
X0228614Y0076694D01*
X0228614Y0077154D02*
X0221388Y0077154D01*
X0221388Y0077614D02*
X0228614Y0077614D01*
X0228614Y0078074D02*
X0221388Y0078074D01*
X0221388Y0078534D02*
X0228614Y0078534D01*
X0228614Y0078994D02*
X0221388Y0078994D01*
X0221388Y0079454D02*
X0228614Y0079454D01*
X0228614Y0079914D02*
X0221388Y0079914D01*
X0221388Y0080374D02*
X0228614Y0080374D01*
X0228614Y0080834D02*
X0221388Y0080834D01*
X0221388Y0081294D02*
X0228614Y0081294D01*
X0228614Y0081754D02*
X0221388Y0081754D01*
X0221388Y0082214D02*
X0228614Y0082214D01*
X0228614Y0082674D02*
X0221388Y0082674D01*
X0221388Y0083134D02*
X0228614Y0083134D01*
X0228614Y0083594D02*
X0221388Y0083594D01*
X0221388Y0084054D02*
X0228614Y0084054D01*
X0228614Y0084514D02*
X0221388Y0084514D01*
X0206566Y0072094D02*
X0199340Y0072094D01*
X0199340Y0084832D01*
X0206566Y0084832D01*
X0206566Y0072094D01*
X0206566Y0072554D02*
X0199340Y0072554D01*
X0199340Y0073014D02*
X0206566Y0073014D01*
X0206566Y0073474D02*
X0199340Y0073474D01*
X0199340Y0073934D02*
X0206566Y0073934D01*
X0206566Y0074394D02*
X0199340Y0074394D01*
X0199340Y0074854D02*
X0206566Y0074854D01*
X0206566Y0075314D02*
X0199340Y0075314D01*
X0199340Y0075774D02*
X0206566Y0075774D01*
X0206566Y0076234D02*
X0199340Y0076234D01*
X0199340Y0076694D02*
X0206566Y0076694D01*
X0206566Y0077154D02*
X0199340Y0077154D01*
X0199340Y0077614D02*
X0206566Y0077614D01*
X0206566Y0078074D02*
X0199340Y0078074D01*
X0199340Y0078534D02*
X0206566Y0078534D01*
X0206566Y0078994D02*
X0199340Y0078994D01*
X0199340Y0079454D02*
X0206566Y0079454D01*
X0206566Y0079914D02*
X0199340Y0079914D01*
X0199340Y0080374D02*
X0206566Y0080374D01*
X0206566Y0080834D02*
X0199340Y0080834D01*
X0199340Y0081294D02*
X0206566Y0081294D01*
X0206566Y0081754D02*
X0199340Y0081754D01*
X0199340Y0082214D02*
X0206566Y0082214D01*
X0206566Y0082674D02*
X0199340Y0082674D01*
X0199340Y0083134D02*
X0206566Y0083134D01*
X0206566Y0083594D02*
X0199340Y0083594D01*
X0199340Y0084054D02*
X0206566Y0084054D01*
X0206566Y0084514D02*
X0199340Y0084514D01*
X0199340Y0056344D02*
X0206566Y0056344D01*
X0199340Y0056344D02*
X0199340Y0069082D01*
X0206566Y0069082D01*
X0206566Y0056344D01*
X0206566Y0056804D02*
X0199340Y0056804D01*
X0199340Y0057264D02*
X0206566Y0057264D01*
X0206566Y0057724D02*
X0199340Y0057724D01*
X0199340Y0058184D02*
X0206566Y0058184D01*
X0206566Y0058644D02*
X0199340Y0058644D01*
X0199340Y0059104D02*
X0206566Y0059104D01*
X0206566Y0059564D02*
X0199340Y0059564D01*
X0199340Y0060024D02*
X0206566Y0060024D01*
X0206566Y0060484D02*
X0199340Y0060484D01*
X0199340Y0060944D02*
X0206566Y0060944D01*
X0206566Y0061404D02*
X0199340Y0061404D01*
X0199340Y0061864D02*
X0206566Y0061864D01*
X0206566Y0062324D02*
X0199340Y0062324D01*
X0199340Y0062784D02*
X0206566Y0062784D01*
X0206566Y0063244D02*
X0199340Y0063244D01*
X0199340Y0063704D02*
X0206566Y0063704D01*
X0206566Y0064164D02*
X0199340Y0064164D01*
X0199340Y0064624D02*
X0206566Y0064624D01*
X0206566Y0065084D02*
X0199340Y0065084D01*
X0199340Y0065544D02*
X0206566Y0065544D01*
X0206566Y0066004D02*
X0199340Y0066004D01*
X0199340Y0066464D02*
X0206566Y0066464D01*
X0206566Y0066924D02*
X0199340Y0066924D01*
X0199340Y0067384D02*
X0206566Y0067384D01*
X0206566Y0067844D02*
X0199340Y0067844D01*
X0199340Y0068304D02*
X0206566Y0068304D01*
X0206566Y0068764D02*
X0199340Y0068764D01*
X0221388Y0056344D02*
X0228614Y0056344D01*
X0221388Y0056344D02*
X0221388Y0069082D01*
X0228614Y0069082D01*
X0228614Y0056344D01*
X0228614Y0056804D02*
X0221388Y0056804D01*
X0221388Y0057264D02*
X0228614Y0057264D01*
X0228614Y0057724D02*
X0221388Y0057724D01*
X0221388Y0058184D02*
X0228614Y0058184D01*
X0228614Y0058644D02*
X0221388Y0058644D01*
X0221388Y0059104D02*
X0228614Y0059104D01*
X0228614Y0059564D02*
X0221388Y0059564D01*
X0221388Y0060024D02*
X0228614Y0060024D01*
X0228614Y0060484D02*
X0221388Y0060484D01*
X0221388Y0060944D02*
X0228614Y0060944D01*
X0228614Y0061404D02*
X0221388Y0061404D01*
X0221388Y0061864D02*
X0228614Y0061864D01*
X0228614Y0062324D02*
X0221388Y0062324D01*
X0221388Y0062784D02*
X0228614Y0062784D01*
X0228614Y0063244D02*
X0221388Y0063244D01*
X0221388Y0063704D02*
X0228614Y0063704D01*
X0228614Y0064164D02*
X0221388Y0064164D01*
X0221388Y0064624D02*
X0228614Y0064624D01*
X0228614Y0065084D02*
X0221388Y0065084D01*
X0221388Y0065544D02*
X0228614Y0065544D01*
X0228614Y0066004D02*
X0221388Y0066004D01*
X0221388Y0066464D02*
X0228614Y0066464D01*
X0228614Y0066924D02*
X0221388Y0066924D01*
X0221388Y0067384D02*
X0228614Y0067384D01*
X0228614Y0067844D02*
X0221388Y0067844D01*
X0221388Y0068304D02*
X0228614Y0068304D01*
X0228614Y0068764D02*
X0221388Y0068764D01*
D20*
X0230723Y0056077D02*
X0237207Y0056077D01*
X0230723Y0056077D02*
X0230723Y0063349D01*
X0237207Y0063349D01*
X0237207Y0056077D01*
X0237207Y0056490D02*
X0230723Y0056490D01*
X0230723Y0056903D02*
X0237207Y0056903D01*
X0237207Y0057316D02*
X0230723Y0057316D01*
X0230723Y0057729D02*
X0237207Y0057729D01*
X0237207Y0058142D02*
X0230723Y0058142D01*
X0230723Y0058555D02*
X0237207Y0058555D01*
X0237207Y0058968D02*
X0230723Y0058968D01*
X0230723Y0059381D02*
X0237207Y0059381D01*
X0237207Y0059794D02*
X0230723Y0059794D01*
X0230723Y0060207D02*
X0237207Y0060207D01*
X0237207Y0060620D02*
X0230723Y0060620D01*
X0230723Y0061033D02*
X0237207Y0061033D01*
X0237207Y0061446D02*
X0230723Y0061446D01*
X0230723Y0061859D02*
X0237207Y0061859D01*
X0237207Y0062272D02*
X0230723Y0062272D01*
X0230723Y0062685D02*
X0237207Y0062685D01*
X0237207Y0063098D02*
X0230723Y0063098D01*
X0241747Y0056077D02*
X0248231Y0056077D01*
X0241747Y0056077D02*
X0241747Y0063349D01*
X0248231Y0063349D01*
X0248231Y0056077D01*
X0248231Y0056490D02*
X0241747Y0056490D01*
X0241747Y0056903D02*
X0248231Y0056903D01*
X0248231Y0057316D02*
X0241747Y0057316D01*
X0241747Y0057729D02*
X0248231Y0057729D01*
X0248231Y0058142D02*
X0241747Y0058142D01*
X0241747Y0058555D02*
X0248231Y0058555D01*
X0248231Y0058968D02*
X0241747Y0058968D01*
X0241747Y0059381D02*
X0248231Y0059381D01*
X0248231Y0059794D02*
X0241747Y0059794D01*
X0241747Y0060207D02*
X0248231Y0060207D01*
X0248231Y0060620D02*
X0241747Y0060620D01*
X0241747Y0061033D02*
X0248231Y0061033D01*
X0248231Y0061446D02*
X0241747Y0061446D01*
X0241747Y0061859D02*
X0248231Y0061859D01*
X0248231Y0062272D02*
X0241747Y0062272D01*
X0241747Y0062685D02*
X0248231Y0062685D01*
X0248231Y0063098D02*
X0241747Y0063098D01*
X0241747Y0100077D02*
X0248231Y0100077D01*
X0241747Y0100077D02*
X0241747Y0107349D01*
X0248231Y0107349D01*
X0248231Y0100077D01*
X0248231Y0100490D02*
X0241747Y0100490D01*
X0241747Y0100903D02*
X0248231Y0100903D01*
X0248231Y0101316D02*
X0241747Y0101316D01*
X0241747Y0101729D02*
X0248231Y0101729D01*
X0248231Y0102142D02*
X0241747Y0102142D01*
X0241747Y0102555D02*
X0248231Y0102555D01*
X0248231Y0102968D02*
X0241747Y0102968D01*
X0241747Y0103381D02*
X0248231Y0103381D01*
X0248231Y0103794D02*
X0241747Y0103794D01*
X0241747Y0104207D02*
X0248231Y0104207D01*
X0248231Y0104620D02*
X0241747Y0104620D01*
X0241747Y0105033D02*
X0248231Y0105033D01*
X0248231Y0105446D02*
X0241747Y0105446D01*
X0241747Y0105859D02*
X0248231Y0105859D01*
X0248231Y0106272D02*
X0241747Y0106272D01*
X0241747Y0106685D02*
X0248231Y0106685D01*
X0248231Y0107098D02*
X0241747Y0107098D01*
X0237207Y0100077D02*
X0230723Y0100077D01*
X0230723Y0107349D01*
X0237207Y0107349D01*
X0237207Y0100077D01*
X0237207Y0100490D02*
X0230723Y0100490D01*
X0230723Y0100903D02*
X0237207Y0100903D01*
X0237207Y0101316D02*
X0230723Y0101316D01*
X0230723Y0101729D02*
X0237207Y0101729D01*
X0237207Y0102142D02*
X0230723Y0102142D01*
X0230723Y0102555D02*
X0237207Y0102555D01*
X0237207Y0102968D02*
X0230723Y0102968D01*
X0230723Y0103381D02*
X0237207Y0103381D01*
X0237207Y0103794D02*
X0230723Y0103794D01*
X0230723Y0104207D02*
X0237207Y0104207D01*
X0237207Y0104620D02*
X0230723Y0104620D01*
X0230723Y0105033D02*
X0237207Y0105033D01*
X0237207Y0105446D02*
X0230723Y0105446D01*
X0230723Y0105859D02*
X0237207Y0105859D01*
X0237207Y0106272D02*
X0230723Y0106272D01*
X0230723Y0106685D02*
X0237207Y0106685D01*
X0237207Y0107098D02*
X0230723Y0107098D01*
X0455363Y0055966D02*
X0455363Y0049482D01*
X0448091Y0049482D01*
X0448091Y0055966D01*
X0455363Y0055966D01*
X0455363Y0049895D02*
X0448091Y0049895D01*
X0448091Y0050308D02*
X0455363Y0050308D01*
X0455363Y0050721D02*
X0448091Y0050721D01*
X0448091Y0051134D02*
X0455363Y0051134D01*
X0455363Y0051547D02*
X0448091Y0051547D01*
X0448091Y0051960D02*
X0455363Y0051960D01*
X0455363Y0052373D02*
X0448091Y0052373D01*
X0448091Y0052786D02*
X0455363Y0052786D01*
X0455363Y0053199D02*
X0448091Y0053199D01*
X0448091Y0053612D02*
X0455363Y0053612D01*
X0455363Y0054025D02*
X0448091Y0054025D01*
X0448091Y0054438D02*
X0455363Y0054438D01*
X0455363Y0054851D02*
X0448091Y0054851D01*
X0448091Y0055264D02*
X0455363Y0055264D01*
X0455363Y0055677D02*
X0448091Y0055677D01*
X0455363Y0044943D02*
X0455363Y0038459D01*
X0448091Y0038459D01*
X0448091Y0044943D01*
X0455363Y0044943D01*
X0455363Y0038872D02*
X0448091Y0038872D01*
X0448091Y0039285D02*
X0455363Y0039285D01*
X0455363Y0039698D02*
X0448091Y0039698D01*
X0448091Y0040111D02*
X0455363Y0040111D01*
X0455363Y0040524D02*
X0448091Y0040524D01*
X0448091Y0040937D02*
X0455363Y0040937D01*
X0455363Y0041350D02*
X0448091Y0041350D01*
X0448091Y0041763D02*
X0455363Y0041763D01*
X0455363Y0042176D02*
X0448091Y0042176D01*
X0448091Y0042589D02*
X0455363Y0042589D01*
X0455363Y0043002D02*
X0448091Y0043002D01*
X0448091Y0043415D02*
X0455363Y0043415D01*
X0455363Y0043828D02*
X0448091Y0043828D01*
X0448091Y0044241D02*
X0455363Y0044241D01*
X0455363Y0044654D02*
X0448091Y0044654D01*
X0598841Y0124459D02*
X0598841Y0130943D01*
X0606113Y0130943D01*
X0606113Y0124459D01*
X0598841Y0124459D01*
X0598841Y0124872D02*
X0606113Y0124872D01*
X0606113Y0125285D02*
X0598841Y0125285D01*
X0598841Y0125698D02*
X0606113Y0125698D01*
X0606113Y0126111D02*
X0598841Y0126111D01*
X0598841Y0126524D02*
X0606113Y0126524D01*
X0606113Y0126937D02*
X0598841Y0126937D01*
X0598841Y0127350D02*
X0606113Y0127350D01*
X0606113Y0127763D02*
X0598841Y0127763D01*
X0598841Y0128176D02*
X0606113Y0128176D01*
X0606113Y0128589D02*
X0598841Y0128589D01*
X0598841Y0129002D02*
X0606113Y0129002D01*
X0606113Y0129415D02*
X0598841Y0129415D01*
X0598841Y0129828D02*
X0606113Y0129828D01*
X0606113Y0130241D02*
X0598841Y0130241D01*
X0598841Y0130654D02*
X0606113Y0130654D01*
X0598841Y0135482D02*
X0598841Y0141966D01*
X0606113Y0141966D01*
X0606113Y0135482D01*
X0598841Y0135482D01*
X0598841Y0135895D02*
X0606113Y0135895D01*
X0606113Y0136308D02*
X0598841Y0136308D01*
X0598841Y0136721D02*
X0606113Y0136721D01*
X0606113Y0137134D02*
X0598841Y0137134D01*
X0598841Y0137547D02*
X0606113Y0137547D01*
X0606113Y0137960D02*
X0598841Y0137960D01*
X0598841Y0138373D02*
X0606113Y0138373D01*
X0606113Y0138786D02*
X0598841Y0138786D01*
X0598841Y0139199D02*
X0606113Y0139199D01*
X0606113Y0139612D02*
X0598841Y0139612D01*
X0598841Y0140025D02*
X0606113Y0140025D01*
X0606113Y0140438D02*
X0598841Y0140438D01*
X0598841Y0140851D02*
X0606113Y0140851D01*
X0606113Y0141264D02*
X0598841Y0141264D01*
X0598841Y0141677D02*
X0606113Y0141677D01*
X0600863Y0173209D02*
X0600863Y0179693D01*
X0600863Y0173209D02*
X0593591Y0173209D01*
X0593591Y0179693D01*
X0600863Y0179693D01*
X0600863Y0173622D02*
X0593591Y0173622D01*
X0593591Y0174035D02*
X0600863Y0174035D01*
X0600863Y0174448D02*
X0593591Y0174448D01*
X0593591Y0174861D02*
X0600863Y0174861D01*
X0600863Y0175274D02*
X0593591Y0175274D01*
X0593591Y0175687D02*
X0600863Y0175687D01*
X0600863Y0176100D02*
X0593591Y0176100D01*
X0593591Y0176513D02*
X0600863Y0176513D01*
X0600863Y0176926D02*
X0593591Y0176926D01*
X0593591Y0177339D02*
X0600863Y0177339D01*
X0600863Y0177752D02*
X0593591Y0177752D01*
X0593591Y0178165D02*
X0600863Y0178165D01*
X0600863Y0178578D02*
X0593591Y0178578D01*
X0593591Y0178991D02*
X0600863Y0178991D01*
X0600863Y0179404D02*
X0593591Y0179404D01*
X0600863Y0184232D02*
X0600863Y0190716D01*
X0600863Y0184232D02*
X0593591Y0184232D01*
X0593591Y0190716D01*
X0600863Y0190716D01*
X0600863Y0184645D02*
X0593591Y0184645D01*
X0593591Y0185058D02*
X0600863Y0185058D01*
X0600863Y0185471D02*
X0593591Y0185471D01*
X0593591Y0185884D02*
X0600863Y0185884D01*
X0600863Y0186297D02*
X0593591Y0186297D01*
X0593591Y0186710D02*
X0600863Y0186710D01*
X0600863Y0187123D02*
X0593591Y0187123D01*
X0593591Y0187536D02*
X0600863Y0187536D01*
X0600863Y0187949D02*
X0593591Y0187949D01*
X0593591Y0188362D02*
X0600863Y0188362D01*
X0600863Y0188775D02*
X0593591Y0188775D01*
X0593591Y0189188D02*
X0600863Y0189188D01*
X0600863Y0189601D02*
X0593591Y0189601D01*
X0593591Y0190014D02*
X0600863Y0190014D01*
X0600863Y0190427D02*
X0593591Y0190427D01*
X0503835Y0234372D02*
X0503835Y0240856D01*
X0511119Y0240856D01*
X0511119Y0234372D01*
X0503835Y0234372D01*
X0503835Y0234785D02*
X0511119Y0234785D01*
X0511119Y0235198D02*
X0503835Y0235198D01*
X0503835Y0235611D02*
X0511119Y0235611D01*
X0511119Y0236024D02*
X0503835Y0236024D01*
X0503835Y0236437D02*
X0511119Y0236437D01*
X0511119Y0236850D02*
X0503835Y0236850D01*
X0503835Y0237263D02*
X0511119Y0237263D01*
X0511119Y0237676D02*
X0503835Y0237676D01*
X0503835Y0238089D02*
X0511119Y0238089D01*
X0511119Y0238502D02*
X0503835Y0238502D01*
X0503835Y0238915D02*
X0511119Y0238915D01*
X0511119Y0239328D02*
X0503835Y0239328D01*
X0503835Y0239741D02*
X0511119Y0239741D01*
X0511119Y0240154D02*
X0503835Y0240154D01*
X0503835Y0240567D02*
X0511119Y0240567D01*
X0503835Y0245569D02*
X0503835Y0252053D01*
X0511119Y0252053D01*
X0511119Y0245569D01*
X0503835Y0245569D01*
X0503835Y0245982D02*
X0511119Y0245982D01*
X0511119Y0246395D02*
X0503835Y0246395D01*
X0503835Y0246808D02*
X0511119Y0246808D01*
X0511119Y0247221D02*
X0503835Y0247221D01*
X0503835Y0247634D02*
X0511119Y0247634D01*
X0511119Y0248047D02*
X0503835Y0248047D01*
X0503835Y0248460D02*
X0511119Y0248460D01*
X0511119Y0248873D02*
X0503835Y0248873D01*
X0503835Y0249286D02*
X0511119Y0249286D01*
X0511119Y0249699D02*
X0503835Y0249699D01*
X0503835Y0250112D02*
X0511119Y0250112D01*
X0511119Y0250525D02*
X0503835Y0250525D01*
X0503835Y0250938D02*
X0511119Y0250938D01*
X0511119Y0251351D02*
X0503835Y0251351D01*
X0503835Y0251764D02*
X0511119Y0251764D01*
X0503567Y0231355D02*
X0497083Y0231355D01*
X0503567Y0231355D02*
X0503567Y0224071D01*
X0497083Y0224071D01*
X0497083Y0231355D01*
X0497083Y0224484D02*
X0503567Y0224484D01*
X0503567Y0224897D02*
X0497083Y0224897D01*
X0497083Y0225310D02*
X0503567Y0225310D01*
X0503567Y0225723D02*
X0497083Y0225723D01*
X0497083Y0226136D02*
X0503567Y0226136D01*
X0503567Y0226549D02*
X0497083Y0226549D01*
X0497083Y0226962D02*
X0503567Y0226962D01*
X0503567Y0227375D02*
X0497083Y0227375D01*
X0497083Y0227788D02*
X0503567Y0227788D01*
X0503567Y0228201D02*
X0497083Y0228201D01*
X0497083Y0228614D02*
X0503567Y0228614D01*
X0503567Y0229027D02*
X0497083Y0229027D01*
X0497083Y0229440D02*
X0503567Y0229440D01*
X0503567Y0229853D02*
X0497083Y0229853D01*
X0497083Y0230266D02*
X0503567Y0230266D01*
X0503567Y0230679D02*
X0497083Y0230679D01*
X0497083Y0231092D02*
X0503567Y0231092D01*
X0492371Y0231355D02*
X0485887Y0231355D01*
X0492371Y0231355D02*
X0492371Y0224071D01*
X0485887Y0224071D01*
X0485887Y0231355D01*
X0485887Y0224484D02*
X0492371Y0224484D01*
X0492371Y0224897D02*
X0485887Y0224897D01*
X0485887Y0225310D02*
X0492371Y0225310D01*
X0492371Y0225723D02*
X0485887Y0225723D01*
X0485887Y0226136D02*
X0492371Y0226136D01*
X0492371Y0226549D02*
X0485887Y0226549D01*
X0485887Y0226962D02*
X0492371Y0226962D01*
X0492371Y0227375D02*
X0485887Y0227375D01*
X0485887Y0227788D02*
X0492371Y0227788D01*
X0492371Y0228201D02*
X0485887Y0228201D01*
X0485887Y0228614D02*
X0492371Y0228614D01*
X0492371Y0229027D02*
X0485887Y0229027D01*
X0485887Y0229440D02*
X0492371Y0229440D01*
X0492371Y0229853D02*
X0485887Y0229853D01*
X0485887Y0230266D02*
X0492371Y0230266D01*
X0492371Y0230679D02*
X0485887Y0230679D01*
X0485887Y0231092D02*
X0492371Y0231092D01*
X0478317Y0220605D02*
X0471833Y0220605D01*
X0478317Y0220605D02*
X0478317Y0213321D01*
X0471833Y0213321D01*
X0471833Y0220605D01*
X0471833Y0213734D02*
X0478317Y0213734D01*
X0478317Y0214147D02*
X0471833Y0214147D01*
X0471833Y0214560D02*
X0478317Y0214560D01*
X0478317Y0214973D02*
X0471833Y0214973D01*
X0471833Y0215386D02*
X0478317Y0215386D01*
X0478317Y0215799D02*
X0471833Y0215799D01*
X0471833Y0216212D02*
X0478317Y0216212D01*
X0478317Y0216625D02*
X0471833Y0216625D01*
X0471833Y0217038D02*
X0478317Y0217038D01*
X0478317Y0217451D02*
X0471833Y0217451D01*
X0471833Y0217864D02*
X0478317Y0217864D01*
X0478317Y0218277D02*
X0471833Y0218277D01*
X0471833Y0218690D02*
X0478317Y0218690D01*
X0478317Y0219103D02*
X0471833Y0219103D01*
X0471833Y0219516D02*
X0478317Y0219516D01*
X0478317Y0219929D02*
X0471833Y0219929D01*
X0471833Y0220342D02*
X0478317Y0220342D01*
X0467121Y0220605D02*
X0460637Y0220605D01*
X0467121Y0220605D02*
X0467121Y0213321D01*
X0460637Y0213321D01*
X0460637Y0220605D01*
X0460637Y0213734D02*
X0467121Y0213734D01*
X0467121Y0214147D02*
X0460637Y0214147D01*
X0460637Y0214560D02*
X0467121Y0214560D01*
X0467121Y0214973D02*
X0460637Y0214973D01*
X0460637Y0215386D02*
X0467121Y0215386D01*
X0467121Y0215799D02*
X0460637Y0215799D01*
X0460637Y0216212D02*
X0467121Y0216212D01*
X0467121Y0216625D02*
X0460637Y0216625D01*
X0460637Y0217038D02*
X0467121Y0217038D01*
X0467121Y0217451D02*
X0460637Y0217451D01*
X0460637Y0217864D02*
X0467121Y0217864D01*
X0467121Y0218277D02*
X0460637Y0218277D01*
X0460637Y0218690D02*
X0467121Y0218690D01*
X0467121Y0219103D02*
X0460637Y0219103D01*
X0460637Y0219516D02*
X0467121Y0219516D01*
X0467121Y0219929D02*
X0460637Y0219929D01*
X0460637Y0220342D02*
X0467121Y0220342D01*
X0467207Y0211621D02*
X0460723Y0211621D01*
X0467207Y0211621D02*
X0467207Y0200805D01*
X0460723Y0200805D01*
X0460723Y0211621D01*
X0460723Y0201218D02*
X0467207Y0201218D01*
X0467207Y0201631D02*
X0460723Y0201631D01*
X0460723Y0202044D02*
X0467207Y0202044D01*
X0467207Y0202457D02*
X0460723Y0202457D01*
X0460723Y0202870D02*
X0467207Y0202870D01*
X0467207Y0203283D02*
X0460723Y0203283D01*
X0460723Y0203696D02*
X0467207Y0203696D01*
X0467207Y0204109D02*
X0460723Y0204109D01*
X0460723Y0204522D02*
X0467207Y0204522D01*
X0467207Y0204935D02*
X0460723Y0204935D01*
X0460723Y0205348D02*
X0467207Y0205348D01*
X0467207Y0205761D02*
X0460723Y0205761D01*
X0460723Y0206174D02*
X0467207Y0206174D01*
X0467207Y0206587D02*
X0460723Y0206587D01*
X0460723Y0207000D02*
X0467207Y0207000D01*
X0467207Y0207413D02*
X0460723Y0207413D01*
X0460723Y0207826D02*
X0467207Y0207826D01*
X0467207Y0208239D02*
X0460723Y0208239D01*
X0460723Y0208652D02*
X0467207Y0208652D01*
X0467207Y0209065D02*
X0460723Y0209065D01*
X0460723Y0209478D02*
X0467207Y0209478D01*
X0467207Y0209891D02*
X0460723Y0209891D01*
X0460723Y0210304D02*
X0467207Y0210304D01*
X0467207Y0210717D02*
X0460723Y0210717D01*
X0460723Y0211130D02*
X0467207Y0211130D01*
X0467207Y0211543D02*
X0460723Y0211543D01*
X0471747Y0211621D02*
X0478231Y0211621D01*
X0478231Y0200805D01*
X0471747Y0200805D01*
X0471747Y0211621D01*
X0471747Y0201218D02*
X0478231Y0201218D01*
X0478231Y0201631D02*
X0471747Y0201631D01*
X0471747Y0202044D02*
X0478231Y0202044D01*
X0478231Y0202457D02*
X0471747Y0202457D01*
X0471747Y0202870D02*
X0478231Y0202870D01*
X0478231Y0203283D02*
X0471747Y0203283D01*
X0471747Y0203696D02*
X0478231Y0203696D01*
X0478231Y0204109D02*
X0471747Y0204109D01*
X0471747Y0204522D02*
X0478231Y0204522D01*
X0478231Y0204935D02*
X0471747Y0204935D01*
X0471747Y0205348D02*
X0478231Y0205348D01*
X0478231Y0205761D02*
X0471747Y0205761D01*
X0471747Y0206174D02*
X0478231Y0206174D01*
X0478231Y0206587D02*
X0471747Y0206587D01*
X0471747Y0207000D02*
X0478231Y0207000D01*
X0478231Y0207413D02*
X0471747Y0207413D01*
X0471747Y0207826D02*
X0478231Y0207826D01*
X0478231Y0208239D02*
X0471747Y0208239D01*
X0471747Y0208652D02*
X0478231Y0208652D01*
X0478231Y0209065D02*
X0471747Y0209065D01*
X0471747Y0209478D02*
X0478231Y0209478D01*
X0478231Y0209891D02*
X0471747Y0209891D01*
X0471747Y0210304D02*
X0478231Y0210304D01*
X0478231Y0210717D02*
X0471747Y0210717D01*
X0471747Y0211130D02*
X0478231Y0211130D01*
X0478231Y0211543D02*
X0471747Y0211543D01*
X0303585Y0246872D02*
X0303585Y0253356D01*
X0310869Y0253356D01*
X0310869Y0246872D01*
X0303585Y0246872D01*
X0303585Y0247285D02*
X0310869Y0247285D01*
X0310869Y0247698D02*
X0303585Y0247698D01*
X0303585Y0248111D02*
X0310869Y0248111D01*
X0310869Y0248524D02*
X0303585Y0248524D01*
X0303585Y0248937D02*
X0310869Y0248937D01*
X0310869Y0249350D02*
X0303585Y0249350D01*
X0303585Y0249763D02*
X0310869Y0249763D01*
X0310869Y0250176D02*
X0303585Y0250176D01*
X0303585Y0250589D02*
X0310869Y0250589D01*
X0310869Y0251002D02*
X0303585Y0251002D01*
X0303585Y0251415D02*
X0310869Y0251415D01*
X0310869Y0251828D02*
X0303585Y0251828D01*
X0303585Y0252241D02*
X0310869Y0252241D01*
X0310869Y0252654D02*
X0303585Y0252654D01*
X0303585Y0253067D02*
X0310869Y0253067D01*
X0303585Y0258069D02*
X0303585Y0264553D01*
X0310869Y0264553D01*
X0310869Y0258069D01*
X0303585Y0258069D01*
X0303585Y0258482D02*
X0310869Y0258482D01*
X0310869Y0258895D02*
X0303585Y0258895D01*
X0303585Y0259308D02*
X0310869Y0259308D01*
X0310869Y0259721D02*
X0303585Y0259721D01*
X0303585Y0260134D02*
X0310869Y0260134D01*
X0310869Y0260547D02*
X0303585Y0260547D01*
X0303585Y0260960D02*
X0310869Y0260960D01*
X0310869Y0261373D02*
X0303585Y0261373D01*
X0303585Y0261786D02*
X0310869Y0261786D01*
X0310869Y0262199D02*
X0303585Y0262199D01*
X0303585Y0262612D02*
X0310869Y0262612D01*
X0310869Y0263025D02*
X0303585Y0263025D01*
X0303585Y0263438D02*
X0310869Y0263438D01*
X0310869Y0263851D02*
X0303585Y0263851D01*
X0303585Y0264264D02*
X0310869Y0264264D01*
D21*
X0467977Y0254963D03*
X0545227Y0132463D03*
X0408727Y0076476D03*
D22*
X0337727Y0046949D03*
X0354977Y0295449D03*
X0425227Y0304949D03*
D23*
X0425227Y0334476D03*
X0354977Y0324976D03*
X0337727Y0076476D03*
D24*
X0274226Y0078412D02*
X0268146Y0078412D01*
X0274226Y0078412D02*
X0274226Y0073514D01*
X0268146Y0073514D01*
X0268146Y0078412D01*
X0268146Y0073939D02*
X0274226Y0073939D01*
X0274226Y0074364D02*
X0268146Y0074364D01*
X0268146Y0074789D02*
X0274226Y0074789D01*
X0274226Y0075214D02*
X0268146Y0075214D01*
X0268146Y0075639D02*
X0274226Y0075639D01*
X0274226Y0076064D02*
X0268146Y0076064D01*
X0268146Y0076489D02*
X0274226Y0076489D01*
X0274226Y0076914D02*
X0268146Y0076914D01*
X0268146Y0077339D02*
X0274226Y0077339D01*
X0274226Y0077764D02*
X0268146Y0077764D01*
X0268146Y0078189D02*
X0274226Y0078189D01*
X0262808Y0078412D02*
X0256728Y0078412D01*
X0262808Y0078412D02*
X0262808Y0073514D01*
X0256728Y0073514D01*
X0256728Y0078412D01*
X0256728Y0073939D02*
X0262808Y0073939D01*
X0262808Y0074364D02*
X0256728Y0074364D01*
X0256728Y0074789D02*
X0262808Y0074789D01*
X0262808Y0075214D02*
X0256728Y0075214D01*
X0256728Y0075639D02*
X0262808Y0075639D01*
X0262808Y0076064D02*
X0256728Y0076064D01*
X0256728Y0076489D02*
X0262808Y0076489D01*
X0262808Y0076914D02*
X0256728Y0076914D01*
X0256728Y0077339D02*
X0262808Y0077339D01*
X0262808Y0077764D02*
X0256728Y0077764D01*
X0256728Y0078189D02*
X0262808Y0078189D01*
X0264396Y0117412D02*
X0270476Y0117412D01*
X0270476Y0112514D01*
X0264396Y0112514D01*
X0264396Y0117412D01*
X0264396Y0112939D02*
X0270476Y0112939D01*
X0270476Y0113364D02*
X0264396Y0113364D01*
X0264396Y0113789D02*
X0270476Y0113789D01*
X0270476Y0114214D02*
X0264396Y0114214D01*
X0264396Y0114639D02*
X0270476Y0114639D01*
X0270476Y0115064D02*
X0264396Y0115064D01*
X0264396Y0115489D02*
X0270476Y0115489D01*
X0270476Y0115914D02*
X0264396Y0115914D01*
X0264396Y0116339D02*
X0270476Y0116339D01*
X0270476Y0116764D02*
X0264396Y0116764D01*
X0264396Y0117189D02*
X0270476Y0117189D01*
X0259058Y0117412D02*
X0252978Y0117412D01*
X0259058Y0117412D02*
X0259058Y0112514D01*
X0252978Y0112514D01*
X0252978Y0117412D01*
X0252978Y0112939D02*
X0259058Y0112939D01*
X0259058Y0113364D02*
X0252978Y0113364D01*
X0252978Y0113789D02*
X0259058Y0113789D01*
X0259058Y0114214D02*
X0252978Y0114214D01*
X0252978Y0114639D02*
X0259058Y0114639D01*
X0259058Y0115064D02*
X0252978Y0115064D01*
X0252978Y0115489D02*
X0259058Y0115489D01*
X0259058Y0115914D02*
X0252978Y0115914D01*
X0252978Y0116339D02*
X0259058Y0116339D01*
X0259058Y0116764D02*
X0252978Y0116764D01*
X0252978Y0117189D02*
X0259058Y0117189D01*
D25*
X0451977Y0068463D03*
D26*
X0506843Y0085687D02*
X0506843Y0091739D01*
X0506843Y0085687D02*
X0499807Y0085687D01*
X0499807Y0091739D01*
X0506843Y0091739D01*
X0506843Y0086141D02*
X0499807Y0086141D01*
X0499807Y0086595D02*
X0506843Y0086595D01*
X0506843Y0087049D02*
X0499807Y0087049D01*
X0499807Y0087503D02*
X0506843Y0087503D01*
X0506843Y0087957D02*
X0499807Y0087957D01*
X0499807Y0088411D02*
X0506843Y0088411D01*
X0506843Y0088865D02*
X0499807Y0088865D01*
X0499807Y0089319D02*
X0506843Y0089319D01*
X0506843Y0089773D02*
X0499807Y0089773D01*
X0499807Y0090227D02*
X0506843Y0090227D01*
X0506843Y0090681D02*
X0499807Y0090681D01*
X0499807Y0091135D02*
X0506843Y0091135D01*
X0506843Y0091589D02*
X0499807Y0091589D01*
X0519643Y0091739D02*
X0519643Y0085687D01*
X0512607Y0085687D01*
X0512607Y0091739D01*
X0519643Y0091739D01*
X0519643Y0086141D02*
X0512607Y0086141D01*
X0512607Y0086595D02*
X0519643Y0086595D01*
X0519643Y0087049D02*
X0512607Y0087049D01*
X0512607Y0087503D02*
X0519643Y0087503D01*
X0519643Y0087957D02*
X0512607Y0087957D01*
X0512607Y0088411D02*
X0519643Y0088411D01*
X0519643Y0088865D02*
X0512607Y0088865D01*
X0512607Y0089319D02*
X0519643Y0089319D01*
X0519643Y0089773D02*
X0512607Y0089773D01*
X0512607Y0090227D02*
X0519643Y0090227D01*
X0519643Y0090681D02*
X0512607Y0090681D01*
X0512607Y0091135D02*
X0519643Y0091135D01*
X0519643Y0091589D02*
X0512607Y0091589D01*
X0566093Y0101937D02*
X0566093Y0107989D01*
X0566093Y0101937D02*
X0559057Y0101937D01*
X0559057Y0107989D01*
X0566093Y0107989D01*
X0566093Y0102391D02*
X0559057Y0102391D01*
X0559057Y0102845D02*
X0566093Y0102845D01*
X0566093Y0103299D02*
X0559057Y0103299D01*
X0559057Y0103753D02*
X0566093Y0103753D01*
X0566093Y0104207D02*
X0559057Y0104207D01*
X0559057Y0104661D02*
X0566093Y0104661D01*
X0566093Y0105115D02*
X0559057Y0105115D01*
X0559057Y0105569D02*
X0566093Y0105569D01*
X0566093Y0106023D02*
X0559057Y0106023D01*
X0559057Y0106477D02*
X0566093Y0106477D01*
X0566093Y0106931D02*
X0559057Y0106931D01*
X0559057Y0107385D02*
X0566093Y0107385D01*
X0566093Y0107839D02*
X0559057Y0107839D01*
X0578893Y0107989D02*
X0578893Y0101937D01*
X0571857Y0101937D01*
X0571857Y0107989D01*
X0578893Y0107989D01*
X0578893Y0102391D02*
X0571857Y0102391D01*
X0571857Y0102845D02*
X0578893Y0102845D01*
X0578893Y0103299D02*
X0571857Y0103299D01*
X0571857Y0103753D02*
X0578893Y0103753D01*
X0578893Y0104207D02*
X0571857Y0104207D01*
X0571857Y0104661D02*
X0578893Y0104661D01*
X0578893Y0105115D02*
X0571857Y0105115D01*
X0571857Y0105569D02*
X0578893Y0105569D01*
X0578893Y0106023D02*
X0571857Y0106023D01*
X0571857Y0106477D02*
X0578893Y0106477D01*
X0578893Y0106931D02*
X0571857Y0106931D01*
X0571857Y0107385D02*
X0578893Y0107385D01*
X0578893Y0107839D02*
X0571857Y0107839D01*
X0583593Y0130187D02*
X0583593Y0136239D01*
X0583593Y0130187D02*
X0576557Y0130187D01*
X0576557Y0136239D01*
X0583593Y0136239D01*
X0583593Y0130641D02*
X0576557Y0130641D01*
X0576557Y0131095D02*
X0583593Y0131095D01*
X0583593Y0131549D02*
X0576557Y0131549D01*
X0576557Y0132003D02*
X0583593Y0132003D01*
X0583593Y0132457D02*
X0576557Y0132457D01*
X0576557Y0132911D02*
X0583593Y0132911D01*
X0583593Y0133365D02*
X0576557Y0133365D01*
X0576557Y0133819D02*
X0583593Y0133819D01*
X0583593Y0134273D02*
X0576557Y0134273D01*
X0576557Y0134727D02*
X0583593Y0134727D01*
X0583593Y0135181D02*
X0576557Y0135181D01*
X0576557Y0135635D02*
X0583593Y0135635D01*
X0583593Y0136089D02*
X0576557Y0136089D01*
X0596393Y0136239D02*
X0596393Y0130187D01*
X0589357Y0130187D01*
X0589357Y0136239D01*
X0596393Y0136239D01*
X0596393Y0130641D02*
X0589357Y0130641D01*
X0589357Y0131095D02*
X0596393Y0131095D01*
X0596393Y0131549D02*
X0589357Y0131549D01*
X0589357Y0132003D02*
X0596393Y0132003D01*
X0596393Y0132457D02*
X0589357Y0132457D01*
X0589357Y0132911D02*
X0596393Y0132911D01*
X0596393Y0133365D02*
X0589357Y0133365D01*
X0589357Y0133819D02*
X0596393Y0133819D01*
X0596393Y0134273D02*
X0589357Y0134273D01*
X0589357Y0134727D02*
X0596393Y0134727D01*
X0596393Y0135181D02*
X0589357Y0135181D01*
X0589357Y0135635D02*
X0596393Y0135635D01*
X0596393Y0136089D02*
X0589357Y0136089D01*
X0583253Y0179079D02*
X0577201Y0179079D01*
X0583253Y0179079D02*
X0583253Y0172043D01*
X0577201Y0172043D01*
X0577201Y0179079D01*
X0577201Y0172497D02*
X0583253Y0172497D01*
X0583253Y0172951D02*
X0577201Y0172951D01*
X0577201Y0173405D02*
X0583253Y0173405D01*
X0583253Y0173859D02*
X0577201Y0173859D01*
X0577201Y0174313D02*
X0583253Y0174313D01*
X0583253Y0174767D02*
X0577201Y0174767D01*
X0577201Y0175221D02*
X0583253Y0175221D01*
X0583253Y0175675D02*
X0577201Y0175675D01*
X0577201Y0176129D02*
X0583253Y0176129D01*
X0583253Y0176583D02*
X0577201Y0176583D01*
X0577201Y0177037D02*
X0583253Y0177037D01*
X0583253Y0177491D02*
X0577201Y0177491D01*
X0577201Y0177945D02*
X0583253Y0177945D01*
X0583253Y0178399D02*
X0577201Y0178399D01*
X0577201Y0178853D02*
X0583253Y0178853D01*
X0583253Y0191878D02*
X0577201Y0191878D01*
X0583253Y0191878D02*
X0583253Y0184842D01*
X0577201Y0184842D01*
X0577201Y0191878D01*
X0577201Y0185296D02*
X0583253Y0185296D01*
X0583253Y0185750D02*
X0577201Y0185750D01*
X0577201Y0186204D02*
X0583253Y0186204D01*
X0583253Y0186658D02*
X0577201Y0186658D01*
X0577201Y0187112D02*
X0583253Y0187112D01*
X0583253Y0187566D02*
X0577201Y0187566D01*
X0577201Y0188020D02*
X0583253Y0188020D01*
X0583253Y0188474D02*
X0577201Y0188474D01*
X0577201Y0188928D02*
X0583253Y0188928D01*
X0583253Y0189382D02*
X0577201Y0189382D01*
X0577201Y0189836D02*
X0583253Y0189836D01*
X0583253Y0190290D02*
X0577201Y0190290D01*
X0577201Y0190744D02*
X0583253Y0190744D01*
X0583253Y0191198D02*
X0577201Y0191198D01*
X0577201Y0191652D02*
X0583253Y0191652D01*
D27*
X0555211Y0173640D02*
X0545565Y0173640D01*
X0545565Y0183286D01*
X0555211Y0183286D01*
X0555211Y0173640D01*
X0555211Y0174041D02*
X0545565Y0174041D01*
X0545565Y0174442D02*
X0555211Y0174442D01*
X0555211Y0174843D02*
X0545565Y0174843D01*
X0545565Y0175244D02*
X0555211Y0175244D01*
X0555211Y0175645D02*
X0545565Y0175645D01*
X0545565Y0176046D02*
X0555211Y0176046D01*
X0555211Y0176447D02*
X0545565Y0176447D01*
X0545565Y0176848D02*
X0555211Y0176848D01*
X0555211Y0177249D02*
X0545565Y0177249D01*
X0545565Y0177650D02*
X0555211Y0177650D01*
X0555211Y0178051D02*
X0545565Y0178051D01*
X0545565Y0178452D02*
X0555211Y0178452D01*
X0555211Y0178853D02*
X0545565Y0178853D01*
X0545565Y0179254D02*
X0555211Y0179254D01*
X0555211Y0179655D02*
X0545565Y0179655D01*
X0545565Y0180056D02*
X0555211Y0180056D01*
X0555211Y0180457D02*
X0545565Y0180457D01*
X0545565Y0180858D02*
X0555211Y0180858D01*
X0555211Y0181259D02*
X0545565Y0181259D01*
X0545565Y0181660D02*
X0555211Y0181660D01*
X0555211Y0182061D02*
X0545565Y0182061D01*
X0545565Y0182462D02*
X0555211Y0182462D01*
X0555211Y0182863D02*
X0545565Y0182863D01*
X0545565Y0183264D02*
X0555211Y0183264D01*
X0537889Y0173640D02*
X0528243Y0173640D01*
X0528243Y0183286D01*
X0537889Y0183286D01*
X0537889Y0173640D01*
X0537889Y0174041D02*
X0528243Y0174041D01*
X0528243Y0174442D02*
X0537889Y0174442D01*
X0537889Y0174843D02*
X0528243Y0174843D01*
X0528243Y0175244D02*
X0537889Y0175244D01*
X0537889Y0175645D02*
X0528243Y0175645D01*
X0528243Y0176046D02*
X0537889Y0176046D01*
X0537889Y0176447D02*
X0528243Y0176447D01*
X0528243Y0176848D02*
X0537889Y0176848D01*
X0537889Y0177249D02*
X0528243Y0177249D01*
X0528243Y0177650D02*
X0537889Y0177650D01*
X0537889Y0178051D02*
X0528243Y0178051D01*
X0528243Y0178452D02*
X0537889Y0178452D01*
X0537889Y0178853D02*
X0528243Y0178853D01*
X0528243Y0179254D02*
X0537889Y0179254D01*
X0537889Y0179655D02*
X0528243Y0179655D01*
X0528243Y0180056D02*
X0537889Y0180056D01*
X0537889Y0180457D02*
X0528243Y0180457D01*
X0528243Y0180858D02*
X0537889Y0180858D01*
X0537889Y0181259D02*
X0528243Y0181259D01*
X0528243Y0181660D02*
X0537889Y0181660D01*
X0537889Y0182061D02*
X0528243Y0182061D01*
X0528243Y0182462D02*
X0537889Y0182462D01*
X0537889Y0182863D02*
X0528243Y0182863D01*
X0528243Y0183264D02*
X0537889Y0183264D01*
X0508461Y0141286D02*
X0498815Y0141286D01*
X0508461Y0141286D02*
X0508461Y0131640D01*
X0498815Y0131640D01*
X0498815Y0141286D01*
X0498815Y0132041D02*
X0508461Y0132041D01*
X0508461Y0132442D02*
X0498815Y0132442D01*
X0498815Y0132843D02*
X0508461Y0132843D01*
X0508461Y0133244D02*
X0498815Y0133244D01*
X0498815Y0133645D02*
X0508461Y0133645D01*
X0508461Y0134046D02*
X0498815Y0134046D01*
X0498815Y0134447D02*
X0508461Y0134447D01*
X0508461Y0134848D02*
X0498815Y0134848D01*
X0498815Y0135249D02*
X0508461Y0135249D01*
X0508461Y0135650D02*
X0498815Y0135650D01*
X0498815Y0136051D02*
X0508461Y0136051D01*
X0508461Y0136452D02*
X0498815Y0136452D01*
X0498815Y0136853D02*
X0508461Y0136853D01*
X0508461Y0137254D02*
X0498815Y0137254D01*
X0498815Y0137655D02*
X0508461Y0137655D01*
X0508461Y0138056D02*
X0498815Y0138056D01*
X0498815Y0138457D02*
X0508461Y0138457D01*
X0508461Y0138858D02*
X0498815Y0138858D01*
X0498815Y0139259D02*
X0508461Y0139259D01*
X0508461Y0139660D02*
X0498815Y0139660D01*
X0498815Y0140061D02*
X0508461Y0140061D01*
X0508461Y0140462D02*
X0498815Y0140462D01*
X0498815Y0140863D02*
X0508461Y0140863D01*
X0508461Y0141264D02*
X0498815Y0141264D01*
X0491139Y0141286D02*
X0481493Y0141286D01*
X0491139Y0141286D02*
X0491139Y0131640D01*
X0481493Y0131640D01*
X0481493Y0141286D01*
X0481493Y0132041D02*
X0491139Y0132041D01*
X0491139Y0132442D02*
X0481493Y0132442D01*
X0481493Y0132843D02*
X0491139Y0132843D01*
X0491139Y0133244D02*
X0481493Y0133244D01*
X0481493Y0133645D02*
X0491139Y0133645D01*
X0491139Y0134046D02*
X0481493Y0134046D01*
X0481493Y0134447D02*
X0491139Y0134447D01*
X0491139Y0134848D02*
X0481493Y0134848D01*
X0481493Y0135249D02*
X0491139Y0135249D01*
X0491139Y0135650D02*
X0481493Y0135650D01*
X0481493Y0136051D02*
X0491139Y0136051D01*
X0491139Y0136452D02*
X0481493Y0136452D01*
X0481493Y0136853D02*
X0491139Y0136853D01*
X0491139Y0137254D02*
X0481493Y0137254D01*
X0481493Y0137655D02*
X0491139Y0137655D01*
X0491139Y0138056D02*
X0481493Y0138056D01*
X0481493Y0138457D02*
X0491139Y0138457D01*
X0491139Y0138858D02*
X0481493Y0138858D01*
X0481493Y0139259D02*
X0491139Y0139259D01*
X0491139Y0139660D02*
X0481493Y0139660D01*
X0481493Y0140061D02*
X0491139Y0140061D01*
X0491139Y0140462D02*
X0481493Y0140462D01*
X0481493Y0140863D02*
X0491139Y0140863D01*
X0491139Y0141264D02*
X0481493Y0141264D01*
X0482743Y0113536D02*
X0492389Y0113536D01*
X0492389Y0103890D01*
X0482743Y0103890D01*
X0482743Y0113536D01*
X0482743Y0104291D02*
X0492389Y0104291D01*
X0492389Y0104692D02*
X0482743Y0104692D01*
X0482743Y0105093D02*
X0492389Y0105093D01*
X0492389Y0105494D02*
X0482743Y0105494D01*
X0482743Y0105895D02*
X0492389Y0105895D01*
X0492389Y0106296D02*
X0482743Y0106296D01*
X0482743Y0106697D02*
X0492389Y0106697D01*
X0492389Y0107098D02*
X0482743Y0107098D01*
X0482743Y0107499D02*
X0492389Y0107499D01*
X0492389Y0107900D02*
X0482743Y0107900D01*
X0482743Y0108301D02*
X0492389Y0108301D01*
X0492389Y0108702D02*
X0482743Y0108702D01*
X0482743Y0109103D02*
X0492389Y0109103D01*
X0492389Y0109504D02*
X0482743Y0109504D01*
X0482743Y0109905D02*
X0492389Y0109905D01*
X0492389Y0110306D02*
X0482743Y0110306D01*
X0482743Y0110707D02*
X0492389Y0110707D01*
X0492389Y0111108D02*
X0482743Y0111108D01*
X0482743Y0111509D02*
X0492389Y0111509D01*
X0492389Y0111910D02*
X0482743Y0111910D01*
X0482743Y0112311D02*
X0492389Y0112311D01*
X0492389Y0112712D02*
X0482743Y0112712D01*
X0482743Y0113113D02*
X0492389Y0113113D01*
X0492389Y0113514D02*
X0482743Y0113514D01*
X0500065Y0113536D02*
X0509711Y0113536D01*
X0509711Y0103890D01*
X0500065Y0103890D01*
X0500065Y0113536D01*
X0500065Y0104291D02*
X0509711Y0104291D01*
X0509711Y0104692D02*
X0500065Y0104692D01*
X0500065Y0105093D02*
X0509711Y0105093D01*
X0509711Y0105494D02*
X0500065Y0105494D01*
X0500065Y0105895D02*
X0509711Y0105895D01*
X0509711Y0106296D02*
X0500065Y0106296D01*
X0500065Y0106697D02*
X0509711Y0106697D01*
X0509711Y0107098D02*
X0500065Y0107098D01*
X0500065Y0107499D02*
X0509711Y0107499D01*
X0509711Y0107900D02*
X0500065Y0107900D01*
X0500065Y0108301D02*
X0509711Y0108301D01*
X0509711Y0108702D02*
X0500065Y0108702D01*
X0500065Y0109103D02*
X0509711Y0109103D01*
X0509711Y0109504D02*
X0500065Y0109504D01*
X0500065Y0109905D02*
X0509711Y0109905D01*
X0509711Y0110306D02*
X0500065Y0110306D01*
X0500065Y0110707D02*
X0509711Y0110707D01*
X0509711Y0111108D02*
X0500065Y0111108D01*
X0500065Y0111509D02*
X0509711Y0111509D01*
X0509711Y0111910D02*
X0500065Y0111910D01*
X0500065Y0112311D02*
X0509711Y0112311D01*
X0509711Y0112712D02*
X0500065Y0112712D01*
X0500065Y0113113D02*
X0509711Y0113113D01*
X0509711Y0113514D02*
X0500065Y0113514D01*
X0464711Y0082890D02*
X0455065Y0082890D01*
X0455065Y0092536D01*
X0464711Y0092536D01*
X0464711Y0082890D01*
X0464711Y0083291D02*
X0455065Y0083291D01*
X0455065Y0083692D02*
X0464711Y0083692D01*
X0464711Y0084093D02*
X0455065Y0084093D01*
X0455065Y0084494D02*
X0464711Y0084494D01*
X0464711Y0084895D02*
X0455065Y0084895D01*
X0455065Y0085296D02*
X0464711Y0085296D01*
X0464711Y0085697D02*
X0455065Y0085697D01*
X0455065Y0086098D02*
X0464711Y0086098D01*
X0464711Y0086499D02*
X0455065Y0086499D01*
X0455065Y0086900D02*
X0464711Y0086900D01*
X0464711Y0087301D02*
X0455065Y0087301D01*
X0455065Y0087702D02*
X0464711Y0087702D01*
X0464711Y0088103D02*
X0455065Y0088103D01*
X0455065Y0088504D02*
X0464711Y0088504D01*
X0464711Y0088905D02*
X0455065Y0088905D01*
X0455065Y0089306D02*
X0464711Y0089306D01*
X0464711Y0089707D02*
X0455065Y0089707D01*
X0455065Y0090108D02*
X0464711Y0090108D01*
X0464711Y0090509D02*
X0455065Y0090509D01*
X0455065Y0090910D02*
X0464711Y0090910D01*
X0464711Y0091311D02*
X0455065Y0091311D01*
X0455065Y0091712D02*
X0464711Y0091712D01*
X0464711Y0092113D02*
X0455065Y0092113D01*
X0455065Y0092514D02*
X0464711Y0092514D01*
X0447389Y0082890D02*
X0437743Y0082890D01*
X0437743Y0092536D01*
X0447389Y0092536D01*
X0447389Y0082890D01*
X0447389Y0083291D02*
X0437743Y0083291D01*
X0437743Y0083692D02*
X0447389Y0083692D01*
X0447389Y0084093D02*
X0437743Y0084093D01*
X0437743Y0084494D02*
X0447389Y0084494D01*
X0447389Y0084895D02*
X0437743Y0084895D01*
X0437743Y0085296D02*
X0447389Y0085296D01*
X0447389Y0085697D02*
X0437743Y0085697D01*
X0437743Y0086098D02*
X0447389Y0086098D01*
X0447389Y0086499D02*
X0437743Y0086499D01*
X0437743Y0086900D02*
X0447389Y0086900D01*
X0447389Y0087301D02*
X0437743Y0087301D01*
X0437743Y0087702D02*
X0447389Y0087702D01*
X0447389Y0088103D02*
X0437743Y0088103D01*
X0437743Y0088504D02*
X0447389Y0088504D01*
X0447389Y0088905D02*
X0437743Y0088905D01*
X0437743Y0089306D02*
X0447389Y0089306D01*
X0447389Y0089707D02*
X0437743Y0089707D01*
X0437743Y0090108D02*
X0447389Y0090108D01*
X0447389Y0090509D02*
X0437743Y0090509D01*
X0437743Y0090910D02*
X0447389Y0090910D01*
X0447389Y0091311D02*
X0437743Y0091311D01*
X0437743Y0091712D02*
X0447389Y0091712D01*
X0447389Y0092113D02*
X0437743Y0092113D01*
X0437743Y0092514D02*
X0447389Y0092514D01*
X0397404Y0197978D02*
X0397404Y0207624D01*
X0407050Y0207624D01*
X0407050Y0197978D01*
X0397404Y0197978D01*
X0397404Y0198379D02*
X0407050Y0198379D01*
X0407050Y0198780D02*
X0397404Y0198780D01*
X0397404Y0199181D02*
X0407050Y0199181D01*
X0407050Y0199582D02*
X0397404Y0199582D01*
X0397404Y0199983D02*
X0407050Y0199983D01*
X0407050Y0200384D02*
X0397404Y0200384D01*
X0397404Y0200785D02*
X0407050Y0200785D01*
X0407050Y0201186D02*
X0397404Y0201186D01*
X0397404Y0201587D02*
X0407050Y0201587D01*
X0407050Y0201988D02*
X0397404Y0201988D01*
X0397404Y0202389D02*
X0407050Y0202389D01*
X0407050Y0202790D02*
X0397404Y0202790D01*
X0397404Y0203191D02*
X0407050Y0203191D01*
X0407050Y0203592D02*
X0397404Y0203592D01*
X0397404Y0203993D02*
X0407050Y0203993D01*
X0407050Y0204394D02*
X0397404Y0204394D01*
X0397404Y0204795D02*
X0407050Y0204795D01*
X0407050Y0205196D02*
X0397404Y0205196D01*
X0397404Y0205597D02*
X0407050Y0205597D01*
X0407050Y0205998D02*
X0397404Y0205998D01*
X0397404Y0206399D02*
X0407050Y0206399D01*
X0407050Y0206800D02*
X0397404Y0206800D01*
X0397404Y0207201D02*
X0407050Y0207201D01*
X0407050Y0207602D02*
X0397404Y0207602D01*
X0397404Y0215301D02*
X0397404Y0224947D01*
X0407050Y0224947D01*
X0407050Y0215301D01*
X0397404Y0215301D01*
X0397404Y0215702D02*
X0407050Y0215702D01*
X0407050Y0216103D02*
X0397404Y0216103D01*
X0397404Y0216504D02*
X0407050Y0216504D01*
X0407050Y0216905D02*
X0397404Y0216905D01*
X0397404Y0217306D02*
X0407050Y0217306D01*
X0407050Y0217707D02*
X0397404Y0217707D01*
X0397404Y0218108D02*
X0407050Y0218108D01*
X0407050Y0218509D02*
X0397404Y0218509D01*
X0397404Y0218910D02*
X0407050Y0218910D01*
X0407050Y0219311D02*
X0397404Y0219311D01*
X0397404Y0219712D02*
X0407050Y0219712D01*
X0407050Y0220113D02*
X0397404Y0220113D01*
X0397404Y0220514D02*
X0407050Y0220514D01*
X0407050Y0220915D02*
X0397404Y0220915D01*
X0397404Y0221316D02*
X0407050Y0221316D01*
X0407050Y0221717D02*
X0397404Y0221717D01*
X0397404Y0222118D02*
X0407050Y0222118D01*
X0407050Y0222519D02*
X0397404Y0222519D01*
X0397404Y0222920D02*
X0407050Y0222920D01*
X0407050Y0223321D02*
X0397404Y0223321D01*
X0397404Y0223722D02*
X0407050Y0223722D01*
X0407050Y0224123D02*
X0397404Y0224123D01*
X0397404Y0224524D02*
X0407050Y0224524D01*
X0407050Y0224925D02*
X0397404Y0224925D01*
D28*
X0401761Y0240897D02*
X0414693Y0240897D01*
X0401761Y0240897D02*
X0401761Y0244029D01*
X0414693Y0244029D01*
X0414693Y0240897D01*
X0414693Y0241364D02*
X0401761Y0241364D01*
X0401761Y0241831D02*
X0414693Y0241831D01*
X0414693Y0242298D02*
X0401761Y0242298D01*
X0401761Y0242765D02*
X0414693Y0242765D01*
X0414693Y0243232D02*
X0401761Y0243232D01*
X0401761Y0243699D02*
X0414693Y0243699D01*
X0420761Y0240897D02*
X0433693Y0240897D01*
X0420761Y0240897D02*
X0420761Y0244029D01*
X0433693Y0244029D01*
X0433693Y0240897D01*
X0433693Y0241364D02*
X0420761Y0241364D01*
X0420761Y0241831D02*
X0433693Y0241831D01*
X0433693Y0242298D02*
X0420761Y0242298D01*
X0420761Y0242765D02*
X0433693Y0242765D01*
X0433693Y0243232D02*
X0420761Y0243232D01*
X0420761Y0243699D02*
X0433693Y0243699D01*
X0433693Y0268897D02*
X0420761Y0268897D01*
X0420761Y0272029D01*
X0433693Y0272029D01*
X0433693Y0268897D01*
X0433693Y0269364D02*
X0420761Y0269364D01*
X0420761Y0269831D02*
X0433693Y0269831D01*
X0433693Y0270298D02*
X0420761Y0270298D01*
X0420761Y0270765D02*
X0433693Y0270765D01*
X0433693Y0271232D02*
X0420761Y0271232D01*
X0420761Y0271699D02*
X0433693Y0271699D01*
X0414693Y0268897D02*
X0401761Y0268897D01*
X0401761Y0272029D01*
X0414693Y0272029D01*
X0414693Y0268897D01*
X0414693Y0269364D02*
X0401761Y0269364D01*
X0401761Y0269831D02*
X0414693Y0269831D01*
X0414693Y0270298D02*
X0401761Y0270298D01*
X0401761Y0270765D02*
X0414693Y0270765D01*
X0414693Y0271232D02*
X0401761Y0271232D01*
X0401761Y0271699D02*
X0414693Y0271699D01*
X0572011Y0159029D02*
X0584943Y0159029D01*
X0584943Y0155897D01*
X0572011Y0155897D01*
X0572011Y0159029D01*
X0572011Y0156364D02*
X0584943Y0156364D01*
X0584943Y0156831D02*
X0572011Y0156831D01*
X0572011Y0157298D02*
X0584943Y0157298D01*
X0584943Y0157765D02*
X0572011Y0157765D01*
X0572011Y0158232D02*
X0584943Y0158232D01*
X0584943Y0158699D02*
X0572011Y0158699D01*
X0591011Y0159029D02*
X0603943Y0159029D01*
X0603943Y0155897D01*
X0591011Y0155897D01*
X0591011Y0159029D01*
X0591011Y0156364D02*
X0603943Y0156364D01*
X0603943Y0156831D02*
X0591011Y0156831D01*
X0591011Y0157298D02*
X0603943Y0157298D01*
X0603943Y0157765D02*
X0591011Y0157765D01*
X0591011Y0158232D02*
X0603943Y0158232D01*
X0603943Y0158699D02*
X0591011Y0158699D01*
X0542411Y0111179D02*
X0542411Y0098247D01*
X0542411Y0111179D02*
X0545543Y0111179D01*
X0545543Y0098247D01*
X0542411Y0098247D01*
X0542411Y0098714D02*
X0545543Y0098714D01*
X0545543Y0099181D02*
X0542411Y0099181D01*
X0542411Y0099648D02*
X0545543Y0099648D01*
X0545543Y0100115D02*
X0542411Y0100115D01*
X0542411Y0100582D02*
X0545543Y0100582D01*
X0545543Y0101049D02*
X0542411Y0101049D01*
X0542411Y0101516D02*
X0545543Y0101516D01*
X0545543Y0101983D02*
X0542411Y0101983D01*
X0542411Y0102450D02*
X0545543Y0102450D01*
X0545543Y0102917D02*
X0542411Y0102917D01*
X0542411Y0103384D02*
X0545543Y0103384D01*
X0545543Y0103851D02*
X0542411Y0103851D01*
X0542411Y0104318D02*
X0545543Y0104318D01*
X0545543Y0104785D02*
X0542411Y0104785D01*
X0542411Y0105252D02*
X0545543Y0105252D01*
X0545543Y0105719D02*
X0542411Y0105719D01*
X0542411Y0106186D02*
X0545543Y0106186D01*
X0545543Y0106653D02*
X0542411Y0106653D01*
X0542411Y0107120D02*
X0545543Y0107120D01*
X0545543Y0107587D02*
X0542411Y0107587D01*
X0542411Y0108054D02*
X0545543Y0108054D01*
X0545543Y0108521D02*
X0542411Y0108521D01*
X0542411Y0108988D02*
X0545543Y0108988D01*
X0545543Y0109455D02*
X0542411Y0109455D01*
X0542411Y0109922D02*
X0545543Y0109922D01*
X0545543Y0110389D02*
X0542411Y0110389D01*
X0542411Y0110856D02*
X0545543Y0110856D01*
X0542411Y0092179D02*
X0542411Y0079247D01*
X0542411Y0092179D02*
X0545543Y0092179D01*
X0545543Y0079247D01*
X0542411Y0079247D01*
X0542411Y0079714D02*
X0545543Y0079714D01*
X0545543Y0080181D02*
X0542411Y0080181D01*
X0542411Y0080648D02*
X0545543Y0080648D01*
X0545543Y0081115D02*
X0542411Y0081115D01*
X0542411Y0081582D02*
X0545543Y0081582D01*
X0545543Y0082049D02*
X0542411Y0082049D01*
X0542411Y0082516D02*
X0545543Y0082516D01*
X0545543Y0082983D02*
X0542411Y0082983D01*
X0542411Y0083450D02*
X0545543Y0083450D01*
X0545543Y0083917D02*
X0542411Y0083917D01*
X0542411Y0084384D02*
X0545543Y0084384D01*
X0545543Y0084851D02*
X0542411Y0084851D01*
X0542411Y0085318D02*
X0545543Y0085318D01*
X0545543Y0085785D02*
X0542411Y0085785D01*
X0542411Y0086252D02*
X0545543Y0086252D01*
X0545543Y0086719D02*
X0542411Y0086719D01*
X0542411Y0087186D02*
X0545543Y0087186D01*
X0545543Y0087653D02*
X0542411Y0087653D01*
X0542411Y0088120D02*
X0545543Y0088120D01*
X0545543Y0088587D02*
X0542411Y0088587D01*
X0542411Y0089054D02*
X0545543Y0089054D01*
X0545543Y0089521D02*
X0542411Y0089521D01*
X0542411Y0089988D02*
X0545543Y0089988D01*
X0545543Y0090455D02*
X0542411Y0090455D01*
X0542411Y0090922D02*
X0545543Y0090922D01*
X0545543Y0091389D02*
X0542411Y0091389D01*
X0542411Y0091856D02*
X0545543Y0091856D01*
X0498943Y0084397D02*
X0486011Y0084397D01*
X0486011Y0087529D01*
X0498943Y0087529D01*
X0498943Y0084397D01*
X0498943Y0084864D02*
X0486011Y0084864D01*
X0486011Y0085331D02*
X0498943Y0085331D01*
X0498943Y0085798D02*
X0486011Y0085798D01*
X0486011Y0086265D02*
X0498943Y0086265D01*
X0498943Y0086732D02*
X0486011Y0086732D01*
X0486011Y0087199D02*
X0498943Y0087199D01*
X0479943Y0084397D02*
X0467011Y0084397D01*
X0467011Y0087529D01*
X0479943Y0087529D01*
X0479943Y0084397D01*
X0479943Y0084864D02*
X0467011Y0084864D01*
X0467011Y0085331D02*
X0479943Y0085331D01*
X0479943Y0085798D02*
X0467011Y0085798D01*
X0467011Y0086265D02*
X0479943Y0086265D01*
X0479943Y0086732D02*
X0467011Y0086732D01*
X0467011Y0087199D02*
X0479943Y0087199D01*
D29*
X0580174Y0115422D02*
X0585044Y0115422D01*
X0580174Y0115422D02*
X0580174Y0119504D01*
X0585044Y0119504D01*
X0585044Y0115422D01*
X0585044Y0115875D02*
X0580174Y0115875D01*
X0580174Y0116328D02*
X0585044Y0116328D01*
X0585044Y0116781D02*
X0580174Y0116781D01*
X0580174Y0117234D02*
X0585044Y0117234D01*
X0585044Y0117687D02*
X0580174Y0117687D01*
X0580174Y0118140D02*
X0585044Y0118140D01*
X0585044Y0118593D02*
X0580174Y0118593D01*
X0580174Y0119046D02*
X0585044Y0119046D01*
X0585044Y0119499D02*
X0580174Y0119499D01*
X0590410Y0115422D02*
X0595280Y0115422D01*
X0590410Y0115422D02*
X0590410Y0119504D01*
X0595280Y0119504D01*
X0595280Y0115422D01*
X0595280Y0115875D02*
X0590410Y0115875D01*
X0590410Y0116328D02*
X0595280Y0116328D01*
X0595280Y0116781D02*
X0590410Y0116781D01*
X0590410Y0117234D02*
X0595280Y0117234D01*
X0595280Y0117687D02*
X0590410Y0117687D01*
X0590410Y0118140D02*
X0595280Y0118140D01*
X0595280Y0118593D02*
X0590410Y0118593D01*
X0590410Y0119046D02*
X0595280Y0119046D01*
X0595280Y0119499D02*
X0590410Y0119499D01*
X0451030Y0243504D02*
X0446160Y0243504D01*
X0451030Y0243504D02*
X0451030Y0239422D01*
X0446160Y0239422D01*
X0446160Y0243504D01*
X0446160Y0239875D02*
X0451030Y0239875D01*
X0451030Y0240328D02*
X0446160Y0240328D01*
X0446160Y0240781D02*
X0451030Y0240781D01*
X0451030Y0241234D02*
X0446160Y0241234D01*
X0446160Y0241687D02*
X0451030Y0241687D01*
X0451030Y0242140D02*
X0446160Y0242140D01*
X0446160Y0242593D02*
X0451030Y0242593D01*
X0451030Y0243046D02*
X0446160Y0243046D01*
X0446160Y0243499D02*
X0451030Y0243499D01*
X0451030Y0250254D02*
X0446160Y0250254D01*
X0451030Y0250254D02*
X0451030Y0246172D01*
X0446160Y0246172D01*
X0446160Y0250254D01*
X0446160Y0246625D02*
X0451030Y0246625D01*
X0451030Y0247078D02*
X0446160Y0247078D01*
X0446160Y0247531D02*
X0451030Y0247531D01*
X0451030Y0247984D02*
X0446160Y0247984D01*
X0446160Y0248437D02*
X0451030Y0248437D01*
X0451030Y0248890D02*
X0446160Y0248890D01*
X0446160Y0249343D02*
X0451030Y0249343D01*
X0451030Y0249796D02*
X0446160Y0249796D01*
X0446160Y0250249D02*
X0451030Y0250249D01*
X0440794Y0250254D02*
X0435924Y0250254D01*
X0440794Y0250254D02*
X0440794Y0246172D01*
X0435924Y0246172D01*
X0435924Y0250254D01*
X0435924Y0246625D02*
X0440794Y0246625D01*
X0440794Y0247078D02*
X0435924Y0247078D01*
X0435924Y0247531D02*
X0440794Y0247531D01*
X0440794Y0247984D02*
X0435924Y0247984D01*
X0435924Y0248437D02*
X0440794Y0248437D01*
X0440794Y0248890D02*
X0435924Y0248890D01*
X0435924Y0249343D02*
X0440794Y0249343D01*
X0440794Y0249796D02*
X0435924Y0249796D01*
X0435924Y0250249D02*
X0440794Y0250249D01*
X0440794Y0243504D02*
X0435924Y0243504D01*
X0440794Y0243504D02*
X0440794Y0239422D01*
X0435924Y0239422D01*
X0435924Y0243504D01*
X0435924Y0239875D02*
X0440794Y0239875D01*
X0440794Y0240328D02*
X0435924Y0240328D01*
X0435924Y0240781D02*
X0440794Y0240781D01*
X0440794Y0241234D02*
X0435924Y0241234D01*
X0435924Y0241687D02*
X0440794Y0241687D01*
X0440794Y0242140D02*
X0435924Y0242140D01*
X0435924Y0242593D02*
X0440794Y0242593D01*
X0440794Y0243046D02*
X0435924Y0243046D01*
X0435924Y0243499D02*
X0440794Y0243499D01*
X0377561Y0233754D02*
X0373085Y0233754D01*
X0377561Y0233754D02*
X0377561Y0229672D01*
X0373085Y0229672D01*
X0373085Y0233754D01*
X0373085Y0230125D02*
X0377561Y0230125D01*
X0377561Y0230578D02*
X0373085Y0230578D01*
X0373085Y0231031D02*
X0377561Y0231031D01*
X0377561Y0231484D02*
X0373085Y0231484D01*
X0373085Y0231937D02*
X0377561Y0231937D01*
X0377561Y0232390D02*
X0373085Y0232390D01*
X0373085Y0232843D02*
X0377561Y0232843D01*
X0377561Y0233296D02*
X0373085Y0233296D01*
X0373085Y0233749D02*
X0377561Y0233749D01*
X0370869Y0233754D02*
X0366393Y0233754D01*
X0370869Y0233754D02*
X0370869Y0229672D01*
X0366393Y0229672D01*
X0366393Y0233754D01*
X0366393Y0230125D02*
X0370869Y0230125D01*
X0370869Y0230578D02*
X0366393Y0230578D01*
X0366393Y0231031D02*
X0370869Y0231031D01*
X0370869Y0231484D02*
X0366393Y0231484D01*
X0366393Y0231937D02*
X0370869Y0231937D01*
X0370869Y0232390D02*
X0366393Y0232390D01*
X0366393Y0232843D02*
X0370869Y0232843D01*
X0370869Y0233296D02*
X0366393Y0233296D01*
X0366393Y0233749D02*
X0370869Y0233749D01*
X0343530Y0236172D02*
X0338660Y0236172D01*
X0338660Y0240254D01*
X0343530Y0240254D01*
X0343530Y0236172D01*
X0343530Y0236625D02*
X0338660Y0236625D01*
X0338660Y0237078D02*
X0343530Y0237078D01*
X0343530Y0237531D02*
X0338660Y0237531D01*
X0338660Y0237984D02*
X0343530Y0237984D01*
X0343530Y0238437D02*
X0338660Y0238437D01*
X0338660Y0238890D02*
X0343530Y0238890D01*
X0343530Y0239343D02*
X0338660Y0239343D01*
X0338660Y0239796D02*
X0343530Y0239796D01*
X0343530Y0240249D02*
X0338660Y0240249D01*
X0340061Y0247504D02*
X0335585Y0247504D01*
X0340061Y0247504D02*
X0340061Y0243422D01*
X0335585Y0243422D01*
X0335585Y0247504D01*
X0335585Y0243875D02*
X0340061Y0243875D01*
X0340061Y0244328D02*
X0335585Y0244328D01*
X0335585Y0244781D02*
X0340061Y0244781D01*
X0340061Y0245234D02*
X0335585Y0245234D01*
X0335585Y0245687D02*
X0340061Y0245687D01*
X0340061Y0246140D02*
X0335585Y0246140D01*
X0335585Y0246593D02*
X0340061Y0246593D01*
X0340061Y0247046D02*
X0335585Y0247046D01*
X0335585Y0247499D02*
X0340061Y0247499D01*
X0333369Y0247504D02*
X0328893Y0247504D01*
X0333369Y0247504D02*
X0333369Y0243422D01*
X0328893Y0243422D01*
X0328893Y0247504D01*
X0328893Y0243875D02*
X0333369Y0243875D01*
X0333369Y0244328D02*
X0328893Y0244328D01*
X0328893Y0244781D02*
X0333369Y0244781D01*
X0333369Y0245234D02*
X0328893Y0245234D01*
X0328893Y0245687D02*
X0333369Y0245687D01*
X0333369Y0246140D02*
X0328893Y0246140D01*
X0328893Y0246593D02*
X0333369Y0246593D01*
X0333369Y0247046D02*
X0328893Y0247046D01*
X0328893Y0247499D02*
X0333369Y0247499D01*
X0333294Y0236172D02*
X0328424Y0236172D01*
X0328424Y0240254D01*
X0333294Y0240254D01*
X0333294Y0236172D01*
X0333294Y0236625D02*
X0328424Y0236625D01*
X0328424Y0237078D02*
X0333294Y0237078D01*
X0333294Y0237531D02*
X0328424Y0237531D01*
X0328424Y0237984D02*
X0333294Y0237984D01*
X0333294Y0238437D02*
X0328424Y0238437D01*
X0328424Y0238890D02*
X0333294Y0238890D01*
X0333294Y0239343D02*
X0328424Y0239343D01*
X0328424Y0239796D02*
X0333294Y0239796D01*
X0333294Y0240249D02*
X0328424Y0240249D01*
X0328893Y0200254D02*
X0333369Y0200254D01*
X0333369Y0196172D01*
X0328893Y0196172D01*
X0328893Y0200254D01*
X0328893Y0196625D02*
X0333369Y0196625D01*
X0333369Y0197078D02*
X0328893Y0197078D01*
X0328893Y0197531D02*
X0333369Y0197531D01*
X0333369Y0197984D02*
X0328893Y0197984D01*
X0328893Y0198437D02*
X0333369Y0198437D01*
X0333369Y0198890D02*
X0328893Y0198890D01*
X0328893Y0199343D02*
X0333369Y0199343D01*
X0333369Y0199796D02*
X0328893Y0199796D01*
X0328893Y0200249D02*
X0333369Y0200249D01*
X0335585Y0200254D02*
X0340061Y0200254D01*
X0340061Y0196172D01*
X0335585Y0196172D01*
X0335585Y0200254D01*
X0335585Y0196625D02*
X0340061Y0196625D01*
X0340061Y0197078D02*
X0335585Y0197078D01*
X0335585Y0197531D02*
X0340061Y0197531D01*
X0340061Y0197984D02*
X0335585Y0197984D01*
X0335585Y0198437D02*
X0340061Y0198437D01*
X0340061Y0198890D02*
X0335585Y0198890D01*
X0335585Y0199343D02*
X0340061Y0199343D01*
X0340061Y0199796D02*
X0335585Y0199796D01*
X0335585Y0200249D02*
X0340061Y0200249D01*
X0363768Y0193547D02*
X0363768Y0189071D01*
X0359686Y0189071D01*
X0359686Y0193547D01*
X0363768Y0193547D01*
X0363768Y0189524D02*
X0359686Y0189524D01*
X0359686Y0189977D02*
X0363768Y0189977D01*
X0363768Y0190430D02*
X0359686Y0190430D01*
X0359686Y0190883D02*
X0363768Y0190883D01*
X0363768Y0191336D02*
X0359686Y0191336D01*
X0359686Y0191789D02*
X0363768Y0191789D01*
X0363768Y0192242D02*
X0359686Y0192242D01*
X0359686Y0192695D02*
X0363768Y0192695D01*
X0363768Y0193148D02*
X0359686Y0193148D01*
X0363768Y0186854D02*
X0363768Y0182378D01*
X0359686Y0182378D01*
X0359686Y0186854D01*
X0363768Y0186854D01*
X0363768Y0182831D02*
X0359686Y0182831D01*
X0359686Y0183284D02*
X0363768Y0183284D01*
X0363768Y0183737D02*
X0359686Y0183737D01*
X0359686Y0184190D02*
X0363768Y0184190D01*
X0363768Y0184643D02*
X0359686Y0184643D01*
X0359686Y0185096D02*
X0363768Y0185096D01*
X0363768Y0185549D02*
X0359686Y0185549D01*
X0359686Y0186002D02*
X0363768Y0186002D01*
X0363768Y0186455D02*
X0359686Y0186455D01*
X0373137Y0179244D02*
X0373137Y0175162D01*
X0367479Y0175162D01*
X0367479Y0179244D01*
X0373137Y0179244D01*
X0373137Y0175615D02*
X0367479Y0175615D01*
X0367479Y0176068D02*
X0373137Y0176068D01*
X0373137Y0176521D02*
X0367479Y0176521D01*
X0367479Y0176974D02*
X0373137Y0176974D01*
X0373137Y0177427D02*
X0367479Y0177427D01*
X0367479Y0177880D02*
X0373137Y0177880D01*
X0373137Y0178333D02*
X0367479Y0178333D01*
X0367479Y0178786D02*
X0373137Y0178786D01*
X0373137Y0179239D02*
X0367479Y0179239D01*
X0364475Y0175504D02*
X0364475Y0171422D01*
X0358817Y0171422D01*
X0358817Y0175504D01*
X0364475Y0175504D01*
X0364475Y0171875D02*
X0358817Y0171875D01*
X0358817Y0172328D02*
X0364475Y0172328D01*
X0364475Y0172781D02*
X0358817Y0172781D01*
X0358817Y0173234D02*
X0364475Y0173234D01*
X0364475Y0173687D02*
X0358817Y0173687D01*
X0358817Y0174140D02*
X0364475Y0174140D01*
X0364475Y0174593D02*
X0358817Y0174593D01*
X0358817Y0175046D02*
X0364475Y0175046D01*
X0364475Y0175499D02*
X0358817Y0175499D01*
X0373137Y0171763D02*
X0373137Y0167681D01*
X0367479Y0167681D01*
X0367479Y0171763D01*
X0373137Y0171763D01*
X0373137Y0168134D02*
X0367479Y0168134D01*
X0367479Y0168587D02*
X0373137Y0168587D01*
X0373137Y0169040D02*
X0367479Y0169040D01*
X0367479Y0169493D02*
X0373137Y0169493D01*
X0373137Y0169946D02*
X0367479Y0169946D01*
X0367479Y0170399D02*
X0373137Y0170399D01*
X0373137Y0170852D02*
X0367479Y0170852D01*
X0367479Y0171305D02*
X0373137Y0171305D01*
X0373137Y0171758D02*
X0367479Y0171758D01*
X0365044Y0160422D02*
X0360174Y0160422D01*
X0360174Y0164504D01*
X0365044Y0164504D01*
X0365044Y0160422D01*
X0365044Y0160875D02*
X0360174Y0160875D01*
X0360174Y0161328D02*
X0365044Y0161328D01*
X0365044Y0161781D02*
X0360174Y0161781D01*
X0360174Y0162234D02*
X0365044Y0162234D01*
X0365044Y0162687D02*
X0360174Y0162687D01*
X0360174Y0163140D02*
X0365044Y0163140D01*
X0365044Y0163593D02*
X0360174Y0163593D01*
X0360174Y0164046D02*
X0365044Y0164046D01*
X0365044Y0164499D02*
X0360174Y0164499D01*
X0370410Y0160422D02*
X0375280Y0160422D01*
X0370410Y0160422D02*
X0370410Y0164504D01*
X0375280Y0164504D01*
X0375280Y0160422D01*
X0375280Y0160875D02*
X0370410Y0160875D01*
X0370410Y0161328D02*
X0375280Y0161328D01*
X0375280Y0161781D02*
X0370410Y0161781D01*
X0370410Y0162234D02*
X0375280Y0162234D01*
X0375280Y0162687D02*
X0370410Y0162687D01*
X0370410Y0163140D02*
X0375280Y0163140D01*
X0375280Y0163593D02*
X0370410Y0163593D01*
X0370410Y0164046D02*
X0375280Y0164046D01*
X0375280Y0164499D02*
X0370410Y0164499D01*
X0345258Y0156053D02*
X0341176Y0156053D01*
X0341176Y0161711D01*
X0345258Y0161711D01*
X0345258Y0156053D01*
X0345258Y0156506D02*
X0341176Y0156506D01*
X0341176Y0156959D02*
X0345258Y0156959D01*
X0345258Y0157412D02*
X0341176Y0157412D01*
X0341176Y0157865D02*
X0345258Y0157865D01*
X0345258Y0158318D02*
X0341176Y0158318D01*
X0341176Y0158771D02*
X0345258Y0158771D01*
X0345258Y0159224D02*
X0341176Y0159224D01*
X0341176Y0159677D02*
X0345258Y0159677D01*
X0345258Y0160130D02*
X0341176Y0160130D01*
X0341176Y0160583D02*
X0345258Y0160583D01*
X0345258Y0161036D02*
X0341176Y0161036D01*
X0341176Y0161489D02*
X0345258Y0161489D01*
X0341518Y0164714D02*
X0337436Y0164714D01*
X0337436Y0170372D01*
X0341518Y0170372D01*
X0341518Y0164714D01*
X0341518Y0165167D02*
X0337436Y0165167D01*
X0337436Y0165620D02*
X0341518Y0165620D01*
X0341518Y0166073D02*
X0337436Y0166073D01*
X0337436Y0166526D02*
X0341518Y0166526D01*
X0341518Y0166979D02*
X0337436Y0166979D01*
X0337436Y0167432D02*
X0341518Y0167432D01*
X0341518Y0167885D02*
X0337436Y0167885D01*
X0337436Y0168338D02*
X0341518Y0168338D01*
X0341518Y0168791D02*
X0337436Y0168791D01*
X0337436Y0169244D02*
X0341518Y0169244D01*
X0341518Y0169697D02*
X0337436Y0169697D01*
X0337436Y0170150D02*
X0341518Y0170150D01*
X0337778Y0156053D02*
X0333696Y0156053D01*
X0333696Y0161711D01*
X0337778Y0161711D01*
X0337778Y0156053D01*
X0337778Y0156506D02*
X0333696Y0156506D01*
X0333696Y0156959D02*
X0337778Y0156959D01*
X0337778Y0157412D02*
X0333696Y0157412D01*
X0333696Y0157865D02*
X0337778Y0157865D01*
X0337778Y0158318D02*
X0333696Y0158318D01*
X0333696Y0158771D02*
X0337778Y0158771D01*
X0337778Y0159224D02*
X0333696Y0159224D01*
X0333696Y0159677D02*
X0337778Y0159677D01*
X0337778Y0160130D02*
X0333696Y0160130D01*
X0333696Y0160583D02*
X0337778Y0160583D01*
X0337778Y0161036D02*
X0333696Y0161036D01*
X0333696Y0161489D02*
X0337778Y0161489D01*
X0328258Y0156053D02*
X0324176Y0156053D01*
X0324176Y0161711D01*
X0328258Y0161711D01*
X0328258Y0156053D01*
X0328258Y0156506D02*
X0324176Y0156506D01*
X0324176Y0156959D02*
X0328258Y0156959D01*
X0328258Y0157412D02*
X0324176Y0157412D01*
X0324176Y0157865D02*
X0328258Y0157865D01*
X0328258Y0158318D02*
X0324176Y0158318D01*
X0324176Y0158771D02*
X0328258Y0158771D01*
X0328258Y0159224D02*
X0324176Y0159224D01*
X0324176Y0159677D02*
X0328258Y0159677D01*
X0328258Y0160130D02*
X0324176Y0160130D01*
X0324176Y0160583D02*
X0328258Y0160583D01*
X0328258Y0161036D02*
X0324176Y0161036D01*
X0324176Y0161489D02*
X0328258Y0161489D01*
X0324518Y0164714D02*
X0320436Y0164714D01*
X0320436Y0170372D01*
X0324518Y0170372D01*
X0324518Y0164714D01*
X0324518Y0165167D02*
X0320436Y0165167D01*
X0320436Y0165620D02*
X0324518Y0165620D01*
X0324518Y0166073D02*
X0320436Y0166073D01*
X0320436Y0166526D02*
X0324518Y0166526D01*
X0324518Y0166979D02*
X0320436Y0166979D01*
X0320436Y0167432D02*
X0324518Y0167432D01*
X0324518Y0167885D02*
X0320436Y0167885D01*
X0320436Y0168338D02*
X0324518Y0168338D01*
X0324518Y0168791D02*
X0320436Y0168791D01*
X0320436Y0169244D02*
X0324518Y0169244D01*
X0324518Y0169697D02*
X0320436Y0169697D01*
X0320436Y0170150D02*
X0324518Y0170150D01*
X0320778Y0156053D02*
X0316696Y0156053D01*
X0316696Y0161711D01*
X0320778Y0161711D01*
X0320778Y0156053D01*
X0320778Y0156506D02*
X0316696Y0156506D01*
X0316696Y0156959D02*
X0320778Y0156959D01*
X0320778Y0157412D02*
X0316696Y0157412D01*
X0316696Y0157865D02*
X0320778Y0157865D01*
X0320778Y0158318D02*
X0316696Y0158318D01*
X0316696Y0158771D02*
X0320778Y0158771D01*
X0320778Y0159224D02*
X0316696Y0159224D01*
X0316696Y0159677D02*
X0320778Y0159677D01*
X0320778Y0160130D02*
X0316696Y0160130D01*
X0316696Y0160583D02*
X0320778Y0160583D01*
X0320778Y0161036D02*
X0316696Y0161036D01*
X0316696Y0161489D02*
X0320778Y0161489D01*
X0325643Y0116922D02*
X0330119Y0116922D01*
X0325643Y0116922D02*
X0325643Y0121004D01*
X0330119Y0121004D01*
X0330119Y0116922D01*
X0330119Y0117375D02*
X0325643Y0117375D01*
X0325643Y0117828D02*
X0330119Y0117828D01*
X0330119Y0118281D02*
X0325643Y0118281D01*
X0325643Y0118734D02*
X0330119Y0118734D01*
X0330119Y0119187D02*
X0325643Y0119187D01*
X0325643Y0119640D02*
X0330119Y0119640D01*
X0330119Y0120093D02*
X0325643Y0120093D01*
X0325643Y0120546D02*
X0330119Y0120546D01*
X0330119Y0120999D02*
X0325643Y0120999D01*
X0332335Y0116922D02*
X0336811Y0116922D01*
X0332335Y0116922D02*
X0332335Y0121004D01*
X0336811Y0121004D01*
X0336811Y0116922D01*
X0336811Y0117375D02*
X0332335Y0117375D01*
X0332335Y0117828D02*
X0336811Y0117828D01*
X0336811Y0118281D02*
X0332335Y0118281D01*
X0332335Y0118734D02*
X0336811Y0118734D01*
X0336811Y0119187D02*
X0332335Y0119187D01*
X0332335Y0119640D02*
X0336811Y0119640D01*
X0336811Y0120093D02*
X0332335Y0120093D01*
X0332335Y0120546D02*
X0336811Y0120546D01*
X0336811Y0120999D02*
X0332335Y0120999D01*
X0308061Y0092922D02*
X0303585Y0092922D01*
X0303585Y0097004D01*
X0308061Y0097004D01*
X0308061Y0092922D01*
X0308061Y0093375D02*
X0303585Y0093375D01*
X0303585Y0093828D02*
X0308061Y0093828D01*
X0308061Y0094281D02*
X0303585Y0094281D01*
X0303585Y0094734D02*
X0308061Y0094734D01*
X0308061Y0095187D02*
X0303585Y0095187D01*
X0303585Y0095640D02*
X0308061Y0095640D01*
X0308061Y0096093D02*
X0303585Y0096093D01*
X0303585Y0096546D02*
X0308061Y0096546D01*
X0308061Y0096999D02*
X0303585Y0096999D01*
X0301369Y0092922D02*
X0296893Y0092922D01*
X0296893Y0097004D01*
X0301369Y0097004D01*
X0301369Y0092922D01*
X0301369Y0093375D02*
X0296893Y0093375D01*
X0296893Y0093828D02*
X0301369Y0093828D01*
X0301369Y0094281D02*
X0296893Y0094281D01*
X0296893Y0094734D02*
X0301369Y0094734D01*
X0301369Y0095187D02*
X0296893Y0095187D01*
X0296893Y0095640D02*
X0301369Y0095640D01*
X0301369Y0096093D02*
X0296893Y0096093D01*
X0296893Y0096546D02*
X0301369Y0096546D01*
X0301369Y0096999D02*
X0296893Y0096999D01*
D30*
X0296248Y0100714D02*
X0302446Y0100714D01*
X0296248Y0100714D02*
X0296248Y0103172D01*
X0302446Y0103172D01*
X0302446Y0100714D01*
X0302446Y0101217D02*
X0296248Y0101217D01*
X0296248Y0101720D02*
X0302446Y0101720D01*
X0302446Y0102223D02*
X0296248Y0102223D01*
X0296248Y0102726D02*
X0302446Y0102726D01*
X0302446Y0105714D02*
X0296248Y0105714D01*
X0296248Y0108172D01*
X0302446Y0108172D01*
X0302446Y0105714D01*
X0302446Y0106217D02*
X0296248Y0106217D01*
X0296248Y0106720D02*
X0302446Y0106720D01*
X0302446Y0107223D02*
X0296248Y0107223D01*
X0296248Y0107726D02*
X0302446Y0107726D01*
X0302446Y0110714D02*
X0296248Y0110714D01*
X0296248Y0113172D01*
X0302446Y0113172D01*
X0302446Y0110714D01*
X0302446Y0111217D02*
X0296248Y0111217D01*
X0296248Y0111720D02*
X0302446Y0111720D01*
X0302446Y0112223D02*
X0296248Y0112223D01*
X0296248Y0112726D02*
X0302446Y0112726D01*
X0302446Y0115714D02*
X0296248Y0115714D01*
X0296248Y0118172D01*
X0302446Y0118172D01*
X0302446Y0115714D01*
X0302446Y0116217D02*
X0296248Y0116217D01*
X0296248Y0116720D02*
X0302446Y0116720D01*
X0302446Y0117223D02*
X0296248Y0117223D01*
X0296248Y0117726D02*
X0302446Y0117726D01*
X0317508Y0115714D02*
X0323706Y0115714D01*
X0317508Y0115714D02*
X0317508Y0118172D01*
X0323706Y0118172D01*
X0323706Y0115714D01*
X0323706Y0116217D02*
X0317508Y0116217D01*
X0317508Y0116720D02*
X0323706Y0116720D01*
X0323706Y0117223D02*
X0317508Y0117223D01*
X0317508Y0117726D02*
X0323706Y0117726D01*
X0323706Y0110714D02*
X0317508Y0110714D01*
X0317508Y0113172D01*
X0323706Y0113172D01*
X0323706Y0110714D01*
X0323706Y0111217D02*
X0317508Y0111217D01*
X0317508Y0111720D02*
X0323706Y0111720D01*
X0323706Y0112223D02*
X0317508Y0112223D01*
X0317508Y0112726D02*
X0323706Y0112726D01*
X0323706Y0105714D02*
X0317508Y0105714D01*
X0317508Y0108172D01*
X0323706Y0108172D01*
X0323706Y0105714D01*
X0323706Y0106217D02*
X0317508Y0106217D01*
X0317508Y0106720D02*
X0323706Y0106720D01*
X0323706Y0107223D02*
X0317508Y0107223D01*
X0317508Y0107726D02*
X0323706Y0107726D01*
X0323706Y0100714D02*
X0317508Y0100714D01*
X0317508Y0103172D01*
X0323706Y0103172D01*
X0323706Y0100714D01*
X0323706Y0101217D02*
X0317508Y0101217D01*
X0317508Y0101720D02*
X0323706Y0101720D01*
X0323706Y0102223D02*
X0317508Y0102223D01*
X0317508Y0102726D02*
X0323706Y0102726D01*
X0285456Y0102071D02*
X0282998Y0102071D01*
X0282998Y0110827D01*
X0285456Y0110827D01*
X0285456Y0102071D01*
X0285456Y0102574D02*
X0282998Y0102574D01*
X0282998Y0103077D02*
X0285456Y0103077D01*
X0285456Y0103580D02*
X0282998Y0103580D01*
X0282998Y0104083D02*
X0285456Y0104083D01*
X0285456Y0104586D02*
X0282998Y0104586D01*
X0282998Y0105089D02*
X0285456Y0105089D01*
X0285456Y0105592D02*
X0282998Y0105592D01*
X0282998Y0106095D02*
X0285456Y0106095D01*
X0285456Y0106598D02*
X0282998Y0106598D01*
X0282998Y0107101D02*
X0285456Y0107101D01*
X0285456Y0107604D02*
X0282998Y0107604D01*
X0282998Y0108107D02*
X0285456Y0108107D01*
X0285456Y0108610D02*
X0282998Y0108610D01*
X0282998Y0109113D02*
X0285456Y0109113D01*
X0285456Y0109616D02*
X0282998Y0109616D01*
X0282998Y0110119D02*
X0285456Y0110119D01*
X0285456Y0110622D02*
X0282998Y0110622D01*
X0280456Y0102071D02*
X0277998Y0102071D01*
X0277998Y0110827D01*
X0280456Y0110827D01*
X0280456Y0102071D01*
X0280456Y0102574D02*
X0277998Y0102574D01*
X0277998Y0103077D02*
X0280456Y0103077D01*
X0280456Y0103580D02*
X0277998Y0103580D01*
X0277998Y0104083D02*
X0280456Y0104083D01*
X0280456Y0104586D02*
X0277998Y0104586D01*
X0277998Y0105089D02*
X0280456Y0105089D01*
X0280456Y0105592D02*
X0277998Y0105592D01*
X0277998Y0106095D02*
X0280456Y0106095D01*
X0280456Y0106598D02*
X0277998Y0106598D01*
X0277998Y0107101D02*
X0280456Y0107101D01*
X0280456Y0107604D02*
X0277998Y0107604D01*
X0277998Y0108107D02*
X0280456Y0108107D01*
X0280456Y0108610D02*
X0277998Y0108610D01*
X0277998Y0109113D02*
X0280456Y0109113D01*
X0280456Y0109616D02*
X0277998Y0109616D01*
X0277998Y0110119D02*
X0280456Y0110119D01*
X0280456Y0110622D02*
X0277998Y0110622D01*
X0275456Y0102071D02*
X0272998Y0102071D01*
X0272998Y0110827D01*
X0275456Y0110827D01*
X0275456Y0102071D01*
X0275456Y0102574D02*
X0272998Y0102574D01*
X0272998Y0103077D02*
X0275456Y0103077D01*
X0275456Y0103580D02*
X0272998Y0103580D01*
X0272998Y0104083D02*
X0275456Y0104083D01*
X0275456Y0104586D02*
X0272998Y0104586D01*
X0272998Y0105089D02*
X0275456Y0105089D01*
X0275456Y0105592D02*
X0272998Y0105592D01*
X0272998Y0106095D02*
X0275456Y0106095D01*
X0275456Y0106598D02*
X0272998Y0106598D01*
X0272998Y0107101D02*
X0275456Y0107101D01*
X0275456Y0107604D02*
X0272998Y0107604D01*
X0272998Y0108107D02*
X0275456Y0108107D01*
X0275456Y0108610D02*
X0272998Y0108610D01*
X0272998Y0109113D02*
X0275456Y0109113D01*
X0275456Y0109616D02*
X0272998Y0109616D01*
X0272998Y0110119D02*
X0275456Y0110119D01*
X0275456Y0110622D02*
X0272998Y0110622D01*
X0270456Y0102071D02*
X0267998Y0102071D01*
X0267998Y0110827D01*
X0270456Y0110827D01*
X0270456Y0102071D01*
X0270456Y0102574D02*
X0267998Y0102574D01*
X0267998Y0103077D02*
X0270456Y0103077D01*
X0270456Y0103580D02*
X0267998Y0103580D01*
X0267998Y0104083D02*
X0270456Y0104083D01*
X0270456Y0104586D02*
X0267998Y0104586D01*
X0267998Y0105089D02*
X0270456Y0105089D01*
X0270456Y0105592D02*
X0267998Y0105592D01*
X0267998Y0106095D02*
X0270456Y0106095D01*
X0270456Y0106598D02*
X0267998Y0106598D01*
X0267998Y0107101D02*
X0270456Y0107101D01*
X0270456Y0107604D02*
X0267998Y0107604D01*
X0267998Y0108107D02*
X0270456Y0108107D01*
X0270456Y0108610D02*
X0267998Y0108610D01*
X0267998Y0109113D02*
X0270456Y0109113D01*
X0270456Y0109616D02*
X0267998Y0109616D01*
X0267998Y0110119D02*
X0270456Y0110119D01*
X0270456Y0110622D02*
X0267998Y0110622D01*
X0267998Y0081598D02*
X0270456Y0081598D01*
X0267998Y0081598D02*
X0267998Y0090354D01*
X0270456Y0090354D01*
X0270456Y0081598D01*
X0270456Y0082101D02*
X0267998Y0082101D01*
X0267998Y0082604D02*
X0270456Y0082604D01*
X0270456Y0083107D02*
X0267998Y0083107D01*
X0267998Y0083610D02*
X0270456Y0083610D01*
X0270456Y0084113D02*
X0267998Y0084113D01*
X0267998Y0084616D02*
X0270456Y0084616D01*
X0270456Y0085119D02*
X0267998Y0085119D01*
X0267998Y0085622D02*
X0270456Y0085622D01*
X0270456Y0086125D02*
X0267998Y0086125D01*
X0267998Y0086628D02*
X0270456Y0086628D01*
X0270456Y0087131D02*
X0267998Y0087131D01*
X0267998Y0087634D02*
X0270456Y0087634D01*
X0270456Y0088137D02*
X0267998Y0088137D01*
X0267998Y0088640D02*
X0270456Y0088640D01*
X0270456Y0089143D02*
X0267998Y0089143D01*
X0267998Y0089646D02*
X0270456Y0089646D01*
X0270456Y0090149D02*
X0267998Y0090149D01*
X0272998Y0081598D02*
X0275456Y0081598D01*
X0272998Y0081598D02*
X0272998Y0090354D01*
X0275456Y0090354D01*
X0275456Y0081598D01*
X0275456Y0082101D02*
X0272998Y0082101D01*
X0272998Y0082604D02*
X0275456Y0082604D01*
X0275456Y0083107D02*
X0272998Y0083107D01*
X0272998Y0083610D02*
X0275456Y0083610D01*
X0275456Y0084113D02*
X0272998Y0084113D01*
X0272998Y0084616D02*
X0275456Y0084616D01*
X0275456Y0085119D02*
X0272998Y0085119D01*
X0272998Y0085622D02*
X0275456Y0085622D01*
X0275456Y0086125D02*
X0272998Y0086125D01*
X0272998Y0086628D02*
X0275456Y0086628D01*
X0275456Y0087131D02*
X0272998Y0087131D01*
X0272998Y0087634D02*
X0275456Y0087634D01*
X0275456Y0088137D02*
X0272998Y0088137D01*
X0272998Y0088640D02*
X0275456Y0088640D01*
X0275456Y0089143D02*
X0272998Y0089143D01*
X0272998Y0089646D02*
X0275456Y0089646D01*
X0275456Y0090149D02*
X0272998Y0090149D01*
X0277998Y0081598D02*
X0280456Y0081598D01*
X0277998Y0081598D02*
X0277998Y0090354D01*
X0280456Y0090354D01*
X0280456Y0081598D01*
X0280456Y0082101D02*
X0277998Y0082101D01*
X0277998Y0082604D02*
X0280456Y0082604D01*
X0280456Y0083107D02*
X0277998Y0083107D01*
X0277998Y0083610D02*
X0280456Y0083610D01*
X0280456Y0084113D02*
X0277998Y0084113D01*
X0277998Y0084616D02*
X0280456Y0084616D01*
X0280456Y0085119D02*
X0277998Y0085119D01*
X0277998Y0085622D02*
X0280456Y0085622D01*
X0280456Y0086125D02*
X0277998Y0086125D01*
X0277998Y0086628D02*
X0280456Y0086628D01*
X0280456Y0087131D02*
X0277998Y0087131D01*
X0277998Y0087634D02*
X0280456Y0087634D01*
X0280456Y0088137D02*
X0277998Y0088137D01*
X0277998Y0088640D02*
X0280456Y0088640D01*
X0280456Y0089143D02*
X0277998Y0089143D01*
X0277998Y0089646D02*
X0280456Y0089646D01*
X0280456Y0090149D02*
X0277998Y0090149D01*
X0282998Y0081598D02*
X0285456Y0081598D01*
X0282998Y0081598D02*
X0282998Y0090354D01*
X0285456Y0090354D01*
X0285456Y0081598D01*
X0285456Y0082101D02*
X0282998Y0082101D01*
X0282998Y0082604D02*
X0285456Y0082604D01*
X0285456Y0083107D02*
X0282998Y0083107D01*
X0282998Y0083610D02*
X0285456Y0083610D01*
X0285456Y0084113D02*
X0282998Y0084113D01*
X0282998Y0084616D02*
X0285456Y0084616D01*
X0285456Y0085119D02*
X0282998Y0085119D01*
X0282998Y0085622D02*
X0285456Y0085622D01*
X0285456Y0086125D02*
X0282998Y0086125D01*
X0282998Y0086628D02*
X0285456Y0086628D01*
X0285456Y0087131D02*
X0282998Y0087131D01*
X0282998Y0087634D02*
X0285456Y0087634D01*
X0285456Y0088137D02*
X0282998Y0088137D01*
X0282998Y0088640D02*
X0285456Y0088640D01*
X0285456Y0089143D02*
X0282998Y0089143D01*
X0282998Y0089646D02*
X0285456Y0089646D01*
X0285456Y0090149D02*
X0282998Y0090149D01*
X0348998Y0208714D02*
X0355196Y0208714D01*
X0348998Y0208714D02*
X0348998Y0211172D01*
X0355196Y0211172D01*
X0355196Y0208714D01*
X0355196Y0209217D02*
X0348998Y0209217D01*
X0348998Y0209720D02*
X0355196Y0209720D01*
X0355196Y0210223D02*
X0348998Y0210223D01*
X0348998Y0210726D02*
X0355196Y0210726D01*
X0355196Y0213714D02*
X0348998Y0213714D01*
X0348998Y0216172D01*
X0355196Y0216172D01*
X0355196Y0213714D01*
X0355196Y0214217D02*
X0348998Y0214217D01*
X0348998Y0214720D02*
X0355196Y0214720D01*
X0355196Y0215223D02*
X0348998Y0215223D01*
X0348998Y0215726D02*
X0355196Y0215726D01*
X0355196Y0218714D02*
X0348998Y0218714D01*
X0348998Y0221172D01*
X0355196Y0221172D01*
X0355196Y0218714D01*
X0355196Y0219217D02*
X0348998Y0219217D01*
X0348998Y0219720D02*
X0355196Y0219720D01*
X0355196Y0220223D02*
X0348998Y0220223D01*
X0348998Y0220726D02*
X0355196Y0220726D01*
X0355196Y0223714D02*
X0348998Y0223714D01*
X0348998Y0226172D01*
X0355196Y0226172D01*
X0355196Y0223714D01*
X0355196Y0224217D02*
X0348998Y0224217D01*
X0348998Y0224720D02*
X0355196Y0224720D01*
X0355196Y0225223D02*
X0348998Y0225223D01*
X0348998Y0225726D02*
X0355196Y0225726D01*
X0370258Y0223714D02*
X0376456Y0223714D01*
X0370258Y0223714D02*
X0370258Y0226172D01*
X0376456Y0226172D01*
X0376456Y0223714D01*
X0376456Y0224217D02*
X0370258Y0224217D01*
X0370258Y0224720D02*
X0376456Y0224720D01*
X0376456Y0225223D02*
X0370258Y0225223D01*
X0370258Y0225726D02*
X0376456Y0225726D01*
X0376456Y0218714D02*
X0370258Y0218714D01*
X0370258Y0221172D01*
X0376456Y0221172D01*
X0376456Y0218714D01*
X0376456Y0219217D02*
X0370258Y0219217D01*
X0370258Y0219720D02*
X0376456Y0219720D01*
X0376456Y0220223D02*
X0370258Y0220223D01*
X0370258Y0220726D02*
X0376456Y0220726D01*
X0376456Y0213714D02*
X0370258Y0213714D01*
X0370258Y0216172D01*
X0376456Y0216172D01*
X0376456Y0213714D01*
X0376456Y0214217D02*
X0370258Y0214217D01*
X0370258Y0214720D02*
X0376456Y0214720D01*
X0376456Y0215223D02*
X0370258Y0215223D01*
X0370258Y0215726D02*
X0376456Y0215726D01*
X0376456Y0208714D02*
X0370258Y0208714D01*
X0370258Y0211172D01*
X0376456Y0211172D01*
X0376456Y0208714D01*
X0376456Y0209217D02*
X0370258Y0209217D01*
X0370258Y0209720D02*
X0376456Y0209720D01*
X0376456Y0210223D02*
X0370258Y0210223D01*
X0370258Y0210726D02*
X0376456Y0210726D01*
D31*
X0465146Y0044282D02*
X0465146Y0032144D01*
X0459008Y0032144D01*
X0459008Y0044282D01*
X0465146Y0044282D01*
X0465146Y0032605D02*
X0459008Y0032605D01*
X0459008Y0033066D02*
X0465146Y0033066D01*
X0465146Y0033527D02*
X0459008Y0033527D01*
X0459008Y0033988D02*
X0465146Y0033988D01*
X0465146Y0034449D02*
X0459008Y0034449D01*
X0459008Y0034910D02*
X0465146Y0034910D01*
X0465146Y0035371D02*
X0459008Y0035371D01*
X0459008Y0035832D02*
X0465146Y0035832D01*
X0465146Y0036293D02*
X0459008Y0036293D01*
X0459008Y0036754D02*
X0465146Y0036754D01*
X0465146Y0037215D02*
X0459008Y0037215D01*
X0459008Y0037676D02*
X0465146Y0037676D01*
X0465146Y0038137D02*
X0459008Y0038137D01*
X0459008Y0038598D02*
X0465146Y0038598D01*
X0465146Y0039059D02*
X0459008Y0039059D01*
X0459008Y0039520D02*
X0465146Y0039520D01*
X0465146Y0039981D02*
X0459008Y0039981D01*
X0459008Y0040442D02*
X0465146Y0040442D01*
X0465146Y0040903D02*
X0459008Y0040903D01*
X0459008Y0041364D02*
X0465146Y0041364D01*
X0465146Y0041825D02*
X0459008Y0041825D01*
X0459008Y0042286D02*
X0465146Y0042286D01*
X0465146Y0042747D02*
X0459008Y0042747D01*
X0459008Y0043208D02*
X0465146Y0043208D01*
X0465146Y0043669D02*
X0459008Y0043669D01*
X0459008Y0044130D02*
X0465146Y0044130D01*
X0484946Y0044282D02*
X0484946Y0032144D01*
X0478808Y0032144D01*
X0478808Y0044282D01*
X0484946Y0044282D01*
X0484946Y0032605D02*
X0478808Y0032605D01*
X0478808Y0033066D02*
X0484946Y0033066D01*
X0484946Y0033527D02*
X0478808Y0033527D01*
X0478808Y0033988D02*
X0484946Y0033988D01*
X0484946Y0034449D02*
X0478808Y0034449D01*
X0478808Y0034910D02*
X0484946Y0034910D01*
X0484946Y0035371D02*
X0478808Y0035371D01*
X0478808Y0035832D02*
X0484946Y0035832D01*
X0484946Y0036293D02*
X0478808Y0036293D01*
X0478808Y0036754D02*
X0484946Y0036754D01*
X0484946Y0037215D02*
X0478808Y0037215D01*
X0478808Y0037676D02*
X0484946Y0037676D01*
X0484946Y0038137D02*
X0478808Y0038137D01*
X0478808Y0038598D02*
X0484946Y0038598D01*
X0484946Y0039059D02*
X0478808Y0039059D01*
X0478808Y0039520D02*
X0484946Y0039520D01*
X0484946Y0039981D02*
X0478808Y0039981D01*
X0478808Y0040442D02*
X0484946Y0040442D01*
X0484946Y0040903D02*
X0478808Y0040903D01*
X0478808Y0041364D02*
X0484946Y0041364D01*
X0484946Y0041825D02*
X0478808Y0041825D01*
X0478808Y0042286D02*
X0484946Y0042286D01*
X0484946Y0042747D02*
X0478808Y0042747D01*
X0478808Y0043208D02*
X0484946Y0043208D01*
X0484946Y0043669D02*
X0478808Y0043669D01*
X0478808Y0044130D02*
X0484946Y0044130D01*
D32*
X0309053Y0299337D02*
X0302901Y0299337D01*
X0302901Y0304489D01*
X0309053Y0304489D01*
X0309053Y0299337D01*
X0309053Y0299784D02*
X0302901Y0299784D01*
X0302901Y0300231D02*
X0309053Y0300231D01*
X0309053Y0300678D02*
X0302901Y0300678D01*
X0302901Y0301125D02*
X0309053Y0301125D01*
X0309053Y0301572D02*
X0302901Y0301572D01*
X0302901Y0302019D02*
X0309053Y0302019D01*
X0309053Y0302466D02*
X0302901Y0302466D01*
X0302901Y0302913D02*
X0309053Y0302913D01*
X0309053Y0303360D02*
X0302901Y0303360D01*
X0302901Y0303807D02*
X0309053Y0303807D01*
X0309053Y0304254D02*
X0302901Y0304254D01*
X0302901Y0306637D02*
X0309053Y0306637D01*
X0302901Y0306637D02*
X0302901Y0311789D01*
X0309053Y0311789D01*
X0309053Y0306637D01*
X0309053Y0307084D02*
X0302901Y0307084D01*
X0302901Y0307531D02*
X0309053Y0307531D01*
X0309053Y0307978D02*
X0302901Y0307978D01*
X0302901Y0308425D02*
X0309053Y0308425D01*
X0309053Y0308872D02*
X0302901Y0308872D01*
X0302901Y0309319D02*
X0309053Y0309319D01*
X0309053Y0309766D02*
X0302901Y0309766D01*
X0302901Y0310213D02*
X0309053Y0310213D01*
X0309053Y0310660D02*
X0302901Y0310660D01*
X0302901Y0311107D02*
X0309053Y0311107D01*
X0309053Y0311554D02*
X0302901Y0311554D01*
X0302901Y0313937D02*
X0309053Y0313937D01*
X0302901Y0313937D02*
X0302901Y0319089D01*
X0309053Y0319089D01*
X0309053Y0313937D01*
X0309053Y0314384D02*
X0302901Y0314384D01*
X0302901Y0314831D02*
X0309053Y0314831D01*
X0309053Y0315278D02*
X0302901Y0315278D01*
X0302901Y0315725D02*
X0309053Y0315725D01*
X0309053Y0316172D02*
X0302901Y0316172D01*
X0302901Y0316619D02*
X0309053Y0316619D01*
X0309053Y0317066D02*
X0302901Y0317066D01*
X0302901Y0317513D02*
X0309053Y0317513D01*
X0309053Y0317960D02*
X0302901Y0317960D01*
X0302901Y0318407D02*
X0309053Y0318407D01*
X0309053Y0318854D02*
X0302901Y0318854D01*
X0279053Y0313937D02*
X0272901Y0313937D01*
X0272901Y0319089D01*
X0279053Y0319089D01*
X0279053Y0313937D01*
X0279053Y0314384D02*
X0272901Y0314384D01*
X0272901Y0314831D02*
X0279053Y0314831D01*
X0279053Y0315278D02*
X0272901Y0315278D01*
X0272901Y0315725D02*
X0279053Y0315725D01*
X0279053Y0316172D02*
X0272901Y0316172D01*
X0272901Y0316619D02*
X0279053Y0316619D01*
X0279053Y0317066D02*
X0272901Y0317066D01*
X0272901Y0317513D02*
X0279053Y0317513D01*
X0279053Y0317960D02*
X0272901Y0317960D01*
X0272901Y0318407D02*
X0279053Y0318407D01*
X0279053Y0318854D02*
X0272901Y0318854D01*
X0272901Y0306637D02*
X0279053Y0306637D01*
X0272901Y0306637D02*
X0272901Y0311789D01*
X0279053Y0311789D01*
X0279053Y0306637D01*
X0279053Y0307084D02*
X0272901Y0307084D01*
X0272901Y0307531D02*
X0279053Y0307531D01*
X0279053Y0307978D02*
X0272901Y0307978D01*
X0272901Y0308425D02*
X0279053Y0308425D01*
X0279053Y0308872D02*
X0272901Y0308872D01*
X0272901Y0309319D02*
X0279053Y0309319D01*
X0279053Y0309766D02*
X0272901Y0309766D01*
X0272901Y0310213D02*
X0279053Y0310213D01*
X0279053Y0310660D02*
X0272901Y0310660D01*
X0272901Y0311107D02*
X0279053Y0311107D01*
X0279053Y0311554D02*
X0272901Y0311554D01*
X0272901Y0299337D02*
X0279053Y0299337D01*
X0272901Y0299337D02*
X0272901Y0304489D01*
X0279053Y0304489D01*
X0279053Y0299337D01*
X0279053Y0299784D02*
X0272901Y0299784D01*
X0272901Y0300231D02*
X0279053Y0300231D01*
X0279053Y0300678D02*
X0272901Y0300678D01*
X0272901Y0301125D02*
X0279053Y0301125D01*
X0279053Y0301572D02*
X0272901Y0301572D01*
X0272901Y0302019D02*
X0279053Y0302019D01*
X0279053Y0302466D02*
X0272901Y0302466D01*
X0272901Y0302913D02*
X0279053Y0302913D01*
X0279053Y0303360D02*
X0272901Y0303360D01*
X0272901Y0303807D02*
X0279053Y0303807D01*
X0279053Y0304254D02*
X0272901Y0304254D01*
D33*
X0286002Y0302888D02*
X0286002Y0294938D01*
X0286002Y0302888D02*
X0295952Y0302888D01*
X0295952Y0294938D01*
X0286002Y0294938D01*
X0286002Y0297587D02*
X0295952Y0297587D01*
X0295952Y0300236D02*
X0286002Y0300236D01*
X0286002Y0302885D02*
X0295952Y0302885D01*
X0286002Y0315538D02*
X0286002Y0323488D01*
X0295952Y0323488D01*
X0295952Y0315538D01*
X0286002Y0315538D01*
X0286002Y0318187D02*
X0295952Y0318187D01*
X0295952Y0320836D02*
X0286002Y0320836D01*
X0286002Y0323485D02*
X0295952Y0323485D01*
D34*
X0495567Y0211407D02*
X0495243Y0210802D01*
X0495044Y0210145D01*
X0494977Y0209463D01*
X0495044Y0208780D01*
X0495243Y0208123D01*
X0495567Y0207518D01*
X0496002Y0206988D01*
X0496533Y0206552D01*
X0497138Y0206229D01*
X0497794Y0206030D01*
X0498477Y0205963D01*
X0501727Y0205963D01*
X0501727Y0212963D01*
X0498477Y0212963D01*
X0497794Y0212895D01*
X0497138Y0212696D01*
X0496533Y0212373D01*
X0496002Y0211937D01*
X0495567Y0211407D01*
X0495543Y0211362D02*
X0501727Y0211362D01*
X0501727Y0211460D02*
X0495611Y0211460D01*
X0495691Y0211559D02*
X0501727Y0211559D01*
X0501727Y0211657D02*
X0495772Y0211657D01*
X0495853Y0211756D02*
X0501727Y0211756D01*
X0501727Y0211854D02*
X0495934Y0211854D01*
X0496021Y0211953D02*
X0501727Y0211953D01*
X0501727Y0212051D02*
X0496141Y0212051D01*
X0496261Y0212150D02*
X0501727Y0212150D01*
X0501727Y0212248D02*
X0496381Y0212248D01*
X0496501Y0212347D02*
X0501727Y0212347D01*
X0501727Y0212445D02*
X0496668Y0212445D01*
X0496853Y0212544D02*
X0501727Y0212544D01*
X0501727Y0212642D02*
X0497037Y0212642D01*
X0497285Y0212741D02*
X0501727Y0212741D01*
X0501727Y0212839D02*
X0497610Y0212839D01*
X0498227Y0212938D02*
X0501727Y0212938D01*
X0503227Y0212938D02*
X0506727Y0212938D01*
X0506477Y0212963D02*
X0503227Y0212963D01*
X0503227Y0205963D01*
X0506477Y0205963D01*
X0507160Y0206030D01*
X0507816Y0206229D01*
X0508422Y0206552D01*
X0508952Y0206988D01*
X0509387Y0207518D01*
X0509711Y0208123D01*
X0509910Y0208780D01*
X0509977Y0209463D01*
X0509910Y0210145D01*
X0509711Y0210802D01*
X0509387Y0211407D01*
X0508952Y0211937D01*
X0508422Y0212373D01*
X0507816Y0212696D01*
X0507160Y0212895D01*
X0506477Y0212963D01*
X0507344Y0212839D02*
X0503227Y0212839D01*
X0503227Y0212741D02*
X0507669Y0212741D01*
X0507917Y0212642D02*
X0503227Y0212642D01*
X0503227Y0212544D02*
X0508101Y0212544D01*
X0508286Y0212445D02*
X0503227Y0212445D01*
X0503227Y0212347D02*
X0508453Y0212347D01*
X0508573Y0212248D02*
X0503227Y0212248D01*
X0503227Y0212150D02*
X0508693Y0212150D01*
X0508813Y0212051D02*
X0503227Y0212051D01*
X0503227Y0211953D02*
X0508933Y0211953D01*
X0509020Y0211854D02*
X0503227Y0211854D01*
X0503227Y0211756D02*
X0509101Y0211756D01*
X0509182Y0211657D02*
X0503227Y0211657D01*
X0503227Y0211559D02*
X0509263Y0211559D01*
X0509344Y0211460D02*
X0503227Y0211460D01*
X0503227Y0211362D02*
X0509411Y0211362D01*
X0509464Y0211263D02*
X0503227Y0211263D01*
X0503227Y0211165D02*
X0509517Y0211165D01*
X0509569Y0211066D02*
X0503227Y0211066D01*
X0503227Y0210968D02*
X0509622Y0210968D01*
X0509675Y0210869D02*
X0503227Y0210869D01*
X0503227Y0210771D02*
X0509720Y0210771D01*
X0509750Y0210672D02*
X0503227Y0210672D01*
X0503227Y0210574D02*
X0509780Y0210574D01*
X0509810Y0210475D02*
X0503227Y0210475D01*
X0503227Y0210377D02*
X0509840Y0210377D01*
X0509870Y0210278D02*
X0503227Y0210278D01*
X0503227Y0210180D02*
X0509899Y0210180D01*
X0509916Y0210081D02*
X0503227Y0210081D01*
X0503227Y0209983D02*
X0509926Y0209983D01*
X0509936Y0209884D02*
X0503227Y0209884D01*
X0503227Y0209786D02*
X0509945Y0209786D01*
X0509955Y0209687D02*
X0503227Y0209687D01*
X0503227Y0209589D02*
X0509965Y0209589D01*
X0509974Y0209490D02*
X0503227Y0209490D01*
X0503227Y0209392D02*
X0509970Y0209392D01*
X0509960Y0209293D02*
X0503227Y0209293D01*
X0503227Y0209195D02*
X0509951Y0209195D01*
X0509941Y0209096D02*
X0503227Y0209096D01*
X0503227Y0208998D02*
X0509931Y0208998D01*
X0509922Y0208899D02*
X0503227Y0208899D01*
X0503227Y0208800D02*
X0509912Y0208800D01*
X0509886Y0208702D02*
X0503227Y0208702D01*
X0503227Y0208603D02*
X0509856Y0208603D01*
X0509826Y0208505D02*
X0503227Y0208505D01*
X0503227Y0208406D02*
X0509797Y0208406D01*
X0509767Y0208308D02*
X0503227Y0208308D01*
X0503227Y0208209D02*
X0509737Y0208209D01*
X0509704Y0208111D02*
X0503227Y0208111D01*
X0503227Y0208012D02*
X0509651Y0208012D01*
X0509599Y0207914D02*
X0503227Y0207914D01*
X0503227Y0207815D02*
X0509546Y0207815D01*
X0509493Y0207717D02*
X0503227Y0207717D01*
X0503227Y0207618D02*
X0509441Y0207618D01*
X0509388Y0207520D02*
X0503227Y0207520D01*
X0503227Y0207421D02*
X0509308Y0207421D01*
X0509227Y0207323D02*
X0503227Y0207323D01*
X0503227Y0207224D02*
X0509146Y0207224D01*
X0509065Y0207126D02*
X0503227Y0207126D01*
X0503227Y0207027D02*
X0508984Y0207027D01*
X0508880Y0206929D02*
X0503227Y0206929D01*
X0503227Y0206830D02*
X0508760Y0206830D01*
X0508640Y0206732D02*
X0503227Y0206732D01*
X0503227Y0206633D02*
X0508520Y0206633D01*
X0508388Y0206535D02*
X0503227Y0206535D01*
X0503227Y0206436D02*
X0508204Y0206436D01*
X0508020Y0206338D02*
X0503227Y0206338D01*
X0503227Y0206239D02*
X0507835Y0206239D01*
X0507525Y0206141D02*
X0503227Y0206141D01*
X0503227Y0206042D02*
X0507200Y0206042D01*
X0501727Y0206042D02*
X0497754Y0206042D01*
X0497429Y0206141D02*
X0501727Y0206141D01*
X0501727Y0206239D02*
X0497119Y0206239D01*
X0496934Y0206338D02*
X0501727Y0206338D01*
X0501727Y0206436D02*
X0496750Y0206436D01*
X0496566Y0206535D02*
X0501727Y0206535D01*
X0501727Y0206633D02*
X0496434Y0206633D01*
X0496314Y0206732D02*
X0501727Y0206732D01*
X0501727Y0206830D02*
X0496194Y0206830D01*
X0496074Y0206929D02*
X0501727Y0206929D01*
X0501727Y0207027D02*
X0495970Y0207027D01*
X0495889Y0207126D02*
X0501727Y0207126D01*
X0501727Y0207224D02*
X0495808Y0207224D01*
X0495727Y0207323D02*
X0501727Y0207323D01*
X0501727Y0207421D02*
X0495646Y0207421D01*
X0495566Y0207520D02*
X0501727Y0207520D01*
X0501727Y0207618D02*
X0495513Y0207618D01*
X0495461Y0207717D02*
X0501727Y0207717D01*
X0501727Y0207815D02*
X0495408Y0207815D01*
X0495355Y0207914D02*
X0501727Y0207914D01*
X0501727Y0208012D02*
X0495303Y0208012D01*
X0495250Y0208111D02*
X0501727Y0208111D01*
X0501727Y0208209D02*
X0495217Y0208209D01*
X0495187Y0208308D02*
X0501727Y0208308D01*
X0501727Y0208406D02*
X0495158Y0208406D01*
X0495128Y0208505D02*
X0501727Y0208505D01*
X0501727Y0208603D02*
X0495098Y0208603D01*
X0495068Y0208702D02*
X0501727Y0208702D01*
X0501727Y0208800D02*
X0495042Y0208800D01*
X0495033Y0208899D02*
X0501727Y0208899D01*
X0501727Y0208998D02*
X0495023Y0208998D01*
X0495013Y0209096D02*
X0501727Y0209096D01*
X0501727Y0209195D02*
X0495003Y0209195D01*
X0494994Y0209293D02*
X0501727Y0209293D01*
X0501727Y0209392D02*
X0494984Y0209392D01*
X0494980Y0209490D02*
X0501727Y0209490D01*
X0501727Y0209589D02*
X0494989Y0209589D01*
X0494999Y0209687D02*
X0501727Y0209687D01*
X0501727Y0209786D02*
X0495009Y0209786D01*
X0495019Y0209884D02*
X0501727Y0209884D01*
X0501727Y0209983D02*
X0495028Y0209983D01*
X0495038Y0210081D02*
X0501727Y0210081D01*
X0501727Y0210180D02*
X0495055Y0210180D01*
X0495085Y0210278D02*
X0501727Y0210278D01*
X0501727Y0210377D02*
X0495114Y0210377D01*
X0495144Y0210475D02*
X0501727Y0210475D01*
X0501727Y0210574D02*
X0495174Y0210574D01*
X0495204Y0210672D02*
X0501727Y0210672D01*
X0501727Y0210771D02*
X0495234Y0210771D01*
X0495279Y0210869D02*
X0501727Y0210869D01*
X0501727Y0210968D02*
X0495332Y0210968D01*
X0495385Y0211066D02*
X0501727Y0211066D01*
X0501727Y0211165D02*
X0495437Y0211165D01*
X0495490Y0211263D02*
X0501727Y0211263D01*
D35*
X0567129Y0059720D03*
X0588782Y0059720D03*
D36*
X0557154Y0062657D02*
X0557154Y0055409D01*
X0550300Y0055409D01*
X0550300Y0062657D01*
X0557154Y0062657D01*
X0557154Y0055846D02*
X0550300Y0055846D01*
X0550300Y0056283D02*
X0557154Y0056283D01*
X0557154Y0056720D02*
X0550300Y0056720D01*
X0550300Y0057157D02*
X0557154Y0057157D01*
X0557154Y0057594D02*
X0550300Y0057594D01*
X0550300Y0058031D02*
X0557154Y0058031D01*
X0557154Y0058468D02*
X0550300Y0058468D01*
X0550300Y0058905D02*
X0557154Y0058905D01*
X0557154Y0059342D02*
X0550300Y0059342D01*
X0550300Y0059779D02*
X0557154Y0059779D01*
X0557154Y0060216D02*
X0550300Y0060216D01*
X0550300Y0060653D02*
X0557154Y0060653D01*
X0557154Y0061090D02*
X0550300Y0061090D01*
X0550300Y0061527D02*
X0557154Y0061527D01*
X0557154Y0061964D02*
X0550300Y0061964D01*
X0550300Y0062401D02*
X0557154Y0062401D01*
X0557154Y0046516D02*
X0557154Y0039268D01*
X0550300Y0039268D01*
X0550300Y0046516D01*
X0557154Y0046516D01*
X0557154Y0039705D02*
X0550300Y0039705D01*
X0550300Y0040142D02*
X0557154Y0040142D01*
X0557154Y0040579D02*
X0550300Y0040579D01*
X0550300Y0041016D02*
X0557154Y0041016D01*
X0557154Y0041453D02*
X0550300Y0041453D01*
X0550300Y0041890D02*
X0557154Y0041890D01*
X0557154Y0042327D02*
X0550300Y0042327D01*
X0550300Y0042764D02*
X0557154Y0042764D01*
X0557154Y0043201D02*
X0550300Y0043201D01*
X0550300Y0043638D02*
X0557154Y0043638D01*
X0557154Y0044075D02*
X0550300Y0044075D01*
X0550300Y0044512D02*
X0557154Y0044512D01*
X0557154Y0044949D02*
X0550300Y0044949D01*
X0550300Y0045386D02*
X0557154Y0045386D01*
X0557154Y0045823D02*
X0550300Y0045823D01*
X0550300Y0046260D02*
X0557154Y0046260D01*
D37*
X0373930Y0249963D03*
X0368024Y0249963D03*
D38*
X0370477Y0109863D02*
X0370477Y0105063D01*
X0380477Y0105063D02*
X0380477Y0109863D01*
X0360477Y0109863D02*
X0360477Y0105063D01*
D39*
X0248577Y0181138D02*
X0248577Y0190437D01*
X0226577Y0190437D02*
X0226577Y0181138D01*
X0204577Y0181138D02*
X0204577Y0190437D01*
X0154089Y0190437D02*
X0154089Y0181138D01*
X0132089Y0181138D02*
X0132089Y0190437D01*
X0110089Y0190437D02*
X0110089Y0181138D01*
X0149459Y0339240D02*
X0149459Y0348539D01*
X0171459Y0348539D02*
X0171459Y0339240D01*
X0193459Y0339240D02*
X0193459Y0348539D01*
X0271507Y0348539D02*
X0271507Y0339240D01*
X0293507Y0339240D02*
X0293507Y0348539D01*
X0315507Y0348539D02*
X0315507Y0339240D01*
D40*
X0244451Y0342390D02*
X0244451Y0348390D01*
X0224451Y0348390D02*
X0224451Y0342390D01*
D41*
X0232843Y0285271D02*
X0232843Y0232655D01*
X0232843Y0285271D02*
X0242151Y0285271D01*
X0242151Y0232655D01*
X0232843Y0232655D01*
X0232843Y0235757D02*
X0242151Y0235757D01*
X0242151Y0238859D02*
X0232843Y0238859D01*
X0232843Y0241961D02*
X0242151Y0241961D01*
X0242151Y0245063D02*
X0232843Y0245063D01*
X0232843Y0248165D02*
X0242151Y0248165D01*
X0242151Y0251267D02*
X0232843Y0251267D01*
X0232843Y0254369D02*
X0242151Y0254369D01*
X0242151Y0257471D02*
X0232843Y0257471D01*
X0232843Y0260573D02*
X0242151Y0260573D01*
X0242151Y0263675D02*
X0232843Y0263675D01*
X0232843Y0266777D02*
X0242151Y0266777D01*
X0242151Y0269879D02*
X0232843Y0269879D01*
X0232843Y0272981D02*
X0242151Y0272981D01*
X0242151Y0276083D02*
X0232843Y0276083D01*
X0232843Y0279185D02*
X0242151Y0279185D01*
X0242151Y0282287D02*
X0232843Y0282287D01*
X0147803Y0285271D02*
X0147803Y0232655D01*
X0147803Y0285271D02*
X0157111Y0285271D01*
X0157111Y0232655D01*
X0147803Y0232655D01*
X0147803Y0235757D02*
X0157111Y0235757D01*
X0157111Y0238859D02*
X0147803Y0238859D01*
X0147803Y0241961D02*
X0157111Y0241961D01*
X0157111Y0245063D02*
X0147803Y0245063D01*
X0147803Y0248165D02*
X0157111Y0248165D01*
X0157111Y0251267D02*
X0147803Y0251267D01*
X0147803Y0254369D02*
X0157111Y0254369D01*
X0157111Y0257471D02*
X0147803Y0257471D01*
X0147803Y0260573D02*
X0157111Y0260573D01*
X0157111Y0263675D02*
X0147803Y0263675D01*
X0147803Y0266777D02*
X0157111Y0266777D01*
X0157111Y0269879D02*
X0147803Y0269879D01*
X0147803Y0272981D02*
X0157111Y0272981D01*
X0157111Y0276083D02*
X0147803Y0276083D01*
X0147803Y0279185D02*
X0157111Y0279185D01*
X0157111Y0282287D02*
X0147803Y0282287D01*
X0138401Y0285271D02*
X0138401Y0232655D01*
X0129093Y0232655D01*
X0129093Y0285271D01*
X0138401Y0285271D01*
X0138401Y0235757D02*
X0129093Y0235757D01*
X0129093Y0238859D02*
X0138401Y0238859D01*
X0138401Y0241961D02*
X0129093Y0241961D01*
X0129093Y0245063D02*
X0138401Y0245063D01*
X0138401Y0248165D02*
X0129093Y0248165D01*
X0129093Y0251267D02*
X0138401Y0251267D01*
X0138401Y0254369D02*
X0129093Y0254369D01*
X0129093Y0257471D02*
X0138401Y0257471D01*
X0138401Y0260573D02*
X0129093Y0260573D01*
X0129093Y0263675D02*
X0138401Y0263675D01*
X0138401Y0266777D02*
X0129093Y0266777D01*
X0129093Y0269879D02*
X0138401Y0269879D01*
X0138401Y0272981D02*
X0129093Y0272981D01*
X0129093Y0276083D02*
X0138401Y0276083D01*
X0138401Y0279185D02*
X0129093Y0279185D01*
X0129093Y0282287D02*
X0138401Y0282287D01*
X0053361Y0285271D02*
X0053361Y0232655D01*
X0044053Y0232655D01*
X0044053Y0285271D01*
X0053361Y0285271D01*
X0053361Y0235757D02*
X0044053Y0235757D01*
X0044053Y0238859D02*
X0053361Y0238859D01*
X0053361Y0241961D02*
X0044053Y0241961D01*
X0044053Y0245063D02*
X0053361Y0245063D01*
X0053361Y0248165D02*
X0044053Y0248165D01*
X0044053Y0251267D02*
X0053361Y0251267D01*
X0053361Y0254369D02*
X0044053Y0254369D01*
X0044053Y0257471D02*
X0053361Y0257471D01*
X0053361Y0260573D02*
X0044053Y0260573D01*
X0044053Y0263675D02*
X0053361Y0263675D01*
X0053361Y0266777D02*
X0044053Y0266777D01*
X0044053Y0269879D02*
X0053361Y0269879D01*
X0053361Y0272981D02*
X0044053Y0272981D01*
X0044053Y0276083D02*
X0053361Y0276083D01*
X0053361Y0279185D02*
X0044053Y0279185D01*
X0044053Y0282287D02*
X0053361Y0282287D01*
D42*
X0110948Y0149799D03*
X0138507Y0149799D03*
X0145396Y0035626D03*
X0131617Y0035626D03*
X0117837Y0035626D03*
X0104058Y0035626D03*
D43*
X0300040Y0270463D03*
X0307914Y0270463D03*
D44*
X0358727Y0351463D03*
X0116341Y0356374D03*
X0088782Y0173303D03*
X0464755Y0187833D03*
D45*
X0585727Y0038963D03*
D46*
X0565727Y0038963D03*
D47*
X0604648Y0080114D03*
X0604648Y0090114D03*
X0614648Y0090114D03*
X0614648Y0080114D03*
D48*
X0617522Y0105390D03*
D49*
X0617522Y0115232D03*
X0617522Y0125075D03*
X0617522Y0134917D03*
X0617522Y0144760D03*
X0617522Y0154602D03*
X0617522Y0164445D03*
X0617522Y0174287D03*
X0617522Y0184130D03*
D50*
X0507957Y0067593D02*
X0507957Y0051433D01*
X0503497Y0051433D01*
X0503497Y0067593D01*
X0507957Y0067593D01*
X0507957Y0051873D02*
X0503497Y0051873D01*
X0503497Y0052313D02*
X0507957Y0052313D01*
X0507957Y0052753D02*
X0503497Y0052753D01*
X0503497Y0053193D02*
X0507957Y0053193D01*
X0507957Y0053633D02*
X0503497Y0053633D01*
X0503497Y0054073D02*
X0507957Y0054073D01*
X0507957Y0054513D02*
X0503497Y0054513D01*
X0503497Y0054953D02*
X0507957Y0054953D01*
X0507957Y0055393D02*
X0503497Y0055393D01*
X0503497Y0055833D02*
X0507957Y0055833D01*
X0507957Y0056273D02*
X0503497Y0056273D01*
X0503497Y0056713D02*
X0507957Y0056713D01*
X0507957Y0057153D02*
X0503497Y0057153D01*
X0503497Y0057593D02*
X0507957Y0057593D01*
X0507957Y0058033D02*
X0503497Y0058033D01*
X0503497Y0058473D02*
X0507957Y0058473D01*
X0507957Y0058913D02*
X0503497Y0058913D01*
X0503497Y0059353D02*
X0507957Y0059353D01*
X0507957Y0059793D02*
X0503497Y0059793D01*
X0503497Y0060233D02*
X0507957Y0060233D01*
X0507957Y0060673D02*
X0503497Y0060673D01*
X0503497Y0061113D02*
X0507957Y0061113D01*
X0507957Y0061553D02*
X0503497Y0061553D01*
X0503497Y0061993D02*
X0507957Y0061993D01*
X0507957Y0062433D02*
X0503497Y0062433D01*
X0503497Y0062873D02*
X0507957Y0062873D01*
X0507957Y0063313D02*
X0503497Y0063313D01*
X0503497Y0063753D02*
X0507957Y0063753D01*
X0507957Y0064193D02*
X0503497Y0064193D01*
X0503497Y0064633D02*
X0507957Y0064633D01*
X0507957Y0065073D02*
X0503497Y0065073D01*
X0503497Y0065513D02*
X0507957Y0065513D01*
X0507957Y0065953D02*
X0503497Y0065953D01*
X0503497Y0066393D02*
X0507957Y0066393D01*
X0507957Y0066833D02*
X0503497Y0066833D01*
X0503497Y0067273D02*
X0507957Y0067273D01*
X0507957Y0042993D02*
X0507957Y0026833D01*
X0503497Y0026833D01*
X0503497Y0042993D01*
X0507957Y0042993D01*
X0507957Y0027273D02*
X0503497Y0027273D01*
X0503497Y0027713D02*
X0507957Y0027713D01*
X0507957Y0028153D02*
X0503497Y0028153D01*
X0503497Y0028593D02*
X0507957Y0028593D01*
X0507957Y0029033D02*
X0503497Y0029033D01*
X0503497Y0029473D02*
X0507957Y0029473D01*
X0507957Y0029913D02*
X0503497Y0029913D01*
X0503497Y0030353D02*
X0507957Y0030353D01*
X0507957Y0030793D02*
X0503497Y0030793D01*
X0503497Y0031233D02*
X0507957Y0031233D01*
X0507957Y0031673D02*
X0503497Y0031673D01*
X0503497Y0032113D02*
X0507957Y0032113D01*
X0507957Y0032553D02*
X0503497Y0032553D01*
X0503497Y0032993D02*
X0507957Y0032993D01*
X0507957Y0033433D02*
X0503497Y0033433D01*
X0503497Y0033873D02*
X0507957Y0033873D01*
X0507957Y0034313D02*
X0503497Y0034313D01*
X0503497Y0034753D02*
X0507957Y0034753D01*
X0507957Y0035193D02*
X0503497Y0035193D01*
X0503497Y0035633D02*
X0507957Y0035633D01*
X0507957Y0036073D02*
X0503497Y0036073D01*
X0503497Y0036513D02*
X0507957Y0036513D01*
X0507957Y0036953D02*
X0503497Y0036953D01*
X0503497Y0037393D02*
X0507957Y0037393D01*
X0507957Y0037833D02*
X0503497Y0037833D01*
X0503497Y0038273D02*
X0507957Y0038273D01*
X0507957Y0038713D02*
X0503497Y0038713D01*
X0503497Y0039153D02*
X0507957Y0039153D01*
X0507957Y0039593D02*
X0503497Y0039593D01*
X0503497Y0040033D02*
X0507957Y0040033D01*
X0507957Y0040473D02*
X0503497Y0040473D01*
X0503497Y0040913D02*
X0507957Y0040913D01*
X0507957Y0041353D02*
X0503497Y0041353D01*
X0503497Y0041793D02*
X0507957Y0041793D01*
X0507957Y0042233D02*
X0503497Y0042233D01*
X0503497Y0042673D02*
X0507957Y0042673D01*
D51*
X0471883Y0289213D03*
X0460072Y0289213D03*
D52*
X0454912Y0187833D03*
X0435227Y0187833D03*
X0415542Y0187833D03*
X0405699Y0187833D03*
X0400778Y0109093D03*
X0410621Y0109093D03*
X0420463Y0109093D03*
X0430306Y0109093D03*
X0440148Y0109093D03*
X0449991Y0109093D03*
X0459833Y0109093D03*
X0469676Y0109093D03*
D53*
X0445070Y0187833D03*
X0425385Y0187833D03*
D54*
X0049412Y0042398D03*
X0049412Y0357358D03*
X0620278Y0040429D03*
D55*
X0620278Y0357358D03*
M02*
