G75*
%MOIN*%
%OFA0B0*%
%FSLAX25Y25*%
%IPPOS*%
%LPD*%
%AMOC8*
5,1,8,0,0,1.08239X$1,22.5*
%
%ADD10C,0.10600*%
%ADD11OC8,0.06600*%
%ADD12OC8,0.08868*%
%ADD13C,0.12411*%
%ADD14OC8,0.06000*%
%ADD15R,0.08868X0.08868*%
%ADD16C,0.00500*%
%ADD17C,0.09899*%
%ADD18R,0.05718X0.06506*%
%ADD19R,0.06506X0.05324*%
%ADD20C,0.06600*%
%ADD21R,0.05324X0.06506*%
%ADD22R,0.06506X0.05718*%
%ADD23C,0.03103*%
%ADD24R,0.15167X0.05718*%
%ADD25R,0.40364X0.35639*%
%ADD26C,0.12962*%
%ADD27OC8,0.12962*%
%ADD28OC8,0.09200*%
%ADD29R,0.04143X0.04143*%
%ADD30OC8,0.07096*%
%ADD31R,0.06600X0.12600*%
%ADD32R,0.16600X0.04900*%
%ADD33OC8,0.09899*%
%ADD34R,0.05600X0.06600*%
%ADD35C,0.02650*%
%ADD36C,0.00100*%
%ADD37C,0.04931*%
%ADD38R,0.05324X0.05324*%
%ADD39C,0.05400*%
%ADD40R,0.07490X0.06506*%
%ADD41R,0.10049X0.10049*%
%ADD42R,0.06506X0.07490*%
%ADD43R,0.13400X0.03600*%
%ADD44R,0.08100X0.05100*%
%ADD45R,0.13100X0.20600*%
%ADD46R,0.04931X0.04537*%
%ADD47R,0.07687X0.06899*%
%ADD48R,0.09261X0.07687*%
%ADD49R,0.06899X0.11230*%
%ADD50R,0.11230X0.06899*%
%ADD51OC8,0.10600*%
%ADD52R,0.03600X0.13400*%
%ADD53R,0.04537X0.05324*%
%ADD54C,0.07687*%
%ADD55OC8,0.07687*%
%ADD56R,0.07698X0.06899*%
%ADD57R,0.06112X0.06112*%
%ADD58R,0.22254X0.22254*%
%ADD59OC8,0.04562*%
%ADD60C,0.22254*%
D10*
X0082918Y0264250D03*
X0307168Y0262500D03*
X0561733Y0171856D03*
X0601103Y0171856D03*
X0601103Y0122644D03*
X0561733Y0122644D03*
D11*
X0554668Y0100500D03*
X0613668Y0100500D03*
X0613668Y0193500D03*
X0554668Y0193500D03*
D12*
X0567668Y0061285D03*
X0567668Y0044750D03*
X0567668Y0028215D03*
X0561881Y0337709D03*
X0581381Y0337709D03*
X0541381Y0337709D03*
X0057186Y0165000D03*
X0040650Y0165000D03*
D13*
X0545818Y0036482D03*
X0582825Y0061285D03*
D14*
X0585168Y0082250D03*
X0625168Y0072250D03*
X0543668Y0091500D03*
X0533668Y0051500D03*
X0585168Y0212000D03*
X0585168Y0222000D03*
X0545168Y0222000D03*
X0625168Y0212000D03*
X0222918Y0216500D03*
X0182918Y0226500D03*
D15*
X0521381Y0337709D03*
D16*
X0618568Y0058943D02*
X0619410Y0059168D01*
X0620278Y0059244D01*
X0621146Y0059168D01*
X0621988Y0058943D01*
X0622778Y0058574D01*
X0623492Y0058074D01*
X0624108Y0057458D01*
X0624608Y0056744D01*
X0624977Y0055954D01*
X0625202Y0055112D01*
X0625278Y0054244D01*
X0625202Y0053376D01*
X0624977Y0052534D01*
X0624608Y0051744D01*
X0624108Y0051030D01*
X0623492Y0050414D01*
X0622778Y0049914D01*
X0621988Y0049546D01*
X0621146Y0049320D01*
X0620278Y0049244D01*
X0619410Y0049320D01*
X0618568Y0049546D01*
X0617778Y0049914D01*
X0617064Y0050414D01*
X0616448Y0051030D01*
X0615948Y0051744D01*
X0615580Y0052534D01*
X0615354Y0053376D01*
X0615278Y0054244D01*
X0615354Y0055112D01*
X0615580Y0055954D01*
X0615948Y0056744D01*
X0616448Y0057458D01*
X0617064Y0058074D01*
X0617778Y0058574D01*
X0618568Y0058943D01*
X0618359Y0058845D02*
X0622197Y0058845D01*
X0623103Y0058347D02*
X0617453Y0058347D01*
X0616838Y0057848D02*
X0623718Y0057848D01*
X0624184Y0057350D02*
X0616372Y0057350D01*
X0616023Y0056851D02*
X0624533Y0056851D01*
X0624791Y0056353D02*
X0615766Y0056353D01*
X0615553Y0055854D02*
X0625003Y0055854D01*
X0625137Y0055356D02*
X0615419Y0055356D01*
X0615332Y0054857D02*
X0625225Y0054857D01*
X0625268Y0054359D02*
X0615288Y0054359D01*
X0615312Y0053860D02*
X0625245Y0053860D01*
X0625198Y0053362D02*
X0615358Y0053362D01*
X0615492Y0052863D02*
X0625065Y0052863D01*
X0624898Y0052365D02*
X0615659Y0052365D01*
X0615891Y0051866D02*
X0624665Y0051866D01*
X0624345Y0051368D02*
X0616212Y0051368D01*
X0616609Y0050869D02*
X0623947Y0050869D01*
X0623430Y0050370D02*
X0617126Y0050370D01*
X0617868Y0049872D02*
X0622688Y0049872D01*
X0621346Y0049373D02*
X0619211Y0049373D01*
X0060366Y0321959D02*
X0059866Y0321245D01*
X0059250Y0320628D01*
X0058536Y0320129D01*
X0057746Y0319760D01*
X0056904Y0319535D01*
X0056036Y0319459D01*
X0055168Y0319535D01*
X0054326Y0319760D01*
X0053536Y0320129D01*
X0052822Y0320628D01*
X0052206Y0321245D01*
X0051706Y0321959D01*
X0051338Y0322749D01*
X0051112Y0323590D01*
X0051036Y0324459D01*
X0051112Y0325327D01*
X0051338Y0326169D01*
X0051706Y0326959D01*
X0052206Y0327673D01*
X0052822Y0328289D01*
X0053536Y0328789D01*
X0054326Y0329157D01*
X0055168Y0329383D01*
X0056036Y0329459D01*
X0056904Y0329383D01*
X0057746Y0329157D01*
X0058536Y0328789D01*
X0059250Y0328289D01*
X0059866Y0327673D01*
X0060366Y0326959D01*
X0060735Y0326169D01*
X0060960Y0325327D01*
X0061036Y0324459D01*
X0060960Y0323590D01*
X0060735Y0322749D01*
X0060366Y0321959D01*
X0060413Y0322059D02*
X0051659Y0322059D01*
X0051427Y0322558D02*
X0060646Y0322558D01*
X0060817Y0323056D02*
X0051255Y0323056D01*
X0051122Y0323555D02*
X0060951Y0323555D01*
X0061001Y0324053D02*
X0051072Y0324053D01*
X0051044Y0324552D02*
X0061028Y0324552D01*
X0060984Y0325050D02*
X0051088Y0325050D01*
X0051171Y0325549D02*
X0060901Y0325549D01*
X0060767Y0326047D02*
X0051305Y0326047D01*
X0051513Y0326546D02*
X0060559Y0326546D01*
X0060306Y0327044D02*
X0051766Y0327044D01*
X0052115Y0327543D02*
X0059957Y0327543D01*
X0059498Y0328041D02*
X0052575Y0328041D01*
X0053180Y0328540D02*
X0058892Y0328540D01*
X0058001Y0329038D02*
X0054071Y0329038D01*
X0051985Y0321561D02*
X0060088Y0321561D01*
X0059684Y0321062D02*
X0052388Y0321062D01*
X0052915Y0320564D02*
X0059157Y0320564D01*
X0058400Y0320065D02*
X0053672Y0320065D01*
X0055049Y0319567D02*
X0057024Y0319567D01*
D17*
X0367286Y0324276D02*
X0376585Y0324276D01*
X0376585Y0302276D02*
X0367286Y0302276D01*
X0367286Y0280276D02*
X0376585Y0280276D01*
X0376585Y0214039D02*
X0367286Y0214039D01*
X0367286Y0192039D02*
X0376585Y0192039D01*
X0376585Y0170039D02*
X0367286Y0170039D01*
X0367286Y0147110D02*
X0376585Y0147110D01*
X0376585Y0125110D02*
X0367286Y0125110D01*
X0367286Y0103110D02*
X0376585Y0103110D01*
X0376585Y0080181D02*
X0367286Y0080181D01*
X0367286Y0058181D02*
X0376585Y0058181D01*
X0376585Y0036181D02*
X0367286Y0036181D01*
D18*
X0353158Y0041000D03*
X0345678Y0041000D03*
X0386928Y0173750D03*
X0394408Y0173750D03*
X0258908Y0301000D03*
X0251428Y0301000D03*
X0251428Y0308750D03*
X0258908Y0308750D03*
X0243408Y0308750D03*
X0235928Y0308750D03*
X0300678Y0333000D03*
X0308158Y0333000D03*
X0316178Y0333000D03*
X0323658Y0333000D03*
X0157658Y0216500D03*
X0150178Y0216500D03*
X0142158Y0216500D03*
X0134678Y0216500D03*
X0078908Y0249500D03*
X0071428Y0249500D03*
X0046158Y0051500D03*
X0038678Y0051500D03*
D19*
X0385709Y0166250D03*
X0397127Y0166250D03*
X0311127Y0341250D03*
X0299709Y0341250D03*
D20*
X0367436Y0257157D02*
X0373436Y0257157D01*
X0373436Y0237157D02*
X0367436Y0237157D01*
X0042918Y0237000D02*
X0036918Y0237000D01*
X0036918Y0247000D02*
X0042918Y0247000D01*
X0042918Y0257000D02*
X0036918Y0257000D01*
X0036918Y0267000D02*
X0042918Y0267000D01*
X0042918Y0277000D02*
X0036918Y0277000D01*
X0036918Y0287000D02*
X0042918Y0287000D01*
X0042918Y0297000D02*
X0036918Y0297000D01*
X0036918Y0307000D02*
X0042918Y0307000D01*
D21*
X0397668Y0105959D03*
X0397668Y0094541D03*
D22*
X0389668Y0095510D03*
X0389668Y0102990D03*
X0521418Y0035990D03*
X0521418Y0028510D03*
X0271168Y0280760D03*
X0271168Y0288240D03*
X0121668Y0291510D03*
X0121668Y0298990D03*
X0113918Y0298990D03*
X0113918Y0291510D03*
X0104168Y0318760D03*
X0104168Y0326240D03*
X0104168Y0334260D03*
X0104168Y0341740D03*
X0058668Y0237740D03*
X0058668Y0230260D03*
D23*
X0430110Y0208866D02*
X0482726Y0208866D01*
X0430110Y0208866D02*
X0430110Y0218174D01*
X0482726Y0218174D01*
X0482726Y0208866D01*
X0482726Y0211968D02*
X0430110Y0211968D01*
X0430110Y0215070D02*
X0482726Y0215070D01*
X0482726Y0218172D02*
X0430110Y0218172D01*
X0430110Y0123826D02*
X0482726Y0123826D01*
X0430110Y0123826D02*
X0430110Y0133134D01*
X0482726Y0133134D01*
X0482726Y0123826D01*
X0482726Y0126928D02*
X0430110Y0126928D01*
X0430110Y0130030D02*
X0482726Y0130030D01*
X0482726Y0133132D02*
X0430110Y0133132D01*
X0430110Y0115674D02*
X0482726Y0115674D01*
X0482726Y0106366D01*
X0430110Y0106366D01*
X0430110Y0115674D01*
X0430110Y0109468D02*
X0482726Y0109468D01*
X0482726Y0112570D02*
X0430110Y0112570D01*
X0430110Y0115672D02*
X0482726Y0115672D01*
X0482726Y0030634D02*
X0430110Y0030634D01*
X0482726Y0030634D02*
X0482726Y0021326D01*
X0430110Y0021326D01*
X0430110Y0030634D01*
X0430110Y0024428D02*
X0482726Y0024428D01*
X0482726Y0027530D02*
X0430110Y0027530D01*
X0430110Y0030632D02*
X0482726Y0030632D01*
D24*
X0136934Y0029000D03*
X0136934Y0049000D03*
X0136934Y0077250D03*
X0136934Y0097250D03*
D25*
X0176698Y0087250D03*
X0176698Y0039000D03*
D26*
X0107182Y0058500D03*
X0119432Y0134000D03*
X0175418Y0135486D03*
X0475918Y0318264D03*
X0546418Y0289764D03*
D27*
X0546418Y0260236D03*
X0475918Y0288736D03*
X0175418Y0165014D03*
X0089904Y0134000D03*
X0077654Y0058500D03*
D28*
X0032168Y0183250D03*
D29*
X0052168Y0183250D03*
D30*
X0168418Y0216500D03*
X0228668Y0175000D03*
X0288418Y0168500D03*
X0388668Y0265750D03*
X0387668Y0323000D03*
X0525918Y0090500D03*
D31*
X0052318Y0069250D03*
X0032518Y0069250D03*
D32*
X0034368Y0099750D03*
X0058968Y0099750D03*
X0058968Y0134500D03*
X0034368Y0134500D03*
D33*
X0208861Y0112315D03*
X0208861Y0098535D03*
X0208861Y0084756D03*
X0208861Y0070976D03*
X0323034Y0077866D03*
X0323034Y0105425D03*
D34*
X0403868Y0289250D03*
X0411168Y0289250D03*
X0418468Y0289250D03*
X0418468Y0319250D03*
X0411168Y0319250D03*
X0403868Y0319250D03*
D35*
X0404843Y0299275D02*
X0396893Y0299275D01*
X0396893Y0309225D01*
X0404843Y0309225D01*
X0404843Y0299275D01*
X0404843Y0301924D02*
X0396893Y0301924D01*
X0396893Y0304573D02*
X0404843Y0304573D01*
X0404843Y0307222D02*
X0396893Y0307222D01*
X0417493Y0299275D02*
X0425443Y0299275D01*
X0417493Y0299275D02*
X0417493Y0309225D01*
X0425443Y0309225D01*
X0425443Y0299275D01*
X0425443Y0301924D02*
X0417493Y0301924D01*
X0417493Y0304573D02*
X0425443Y0304573D01*
X0425443Y0307222D02*
X0417493Y0307222D01*
D36*
X0227902Y0232839D02*
X0228101Y0232183D01*
X0228168Y0231500D01*
X0228168Y0229000D01*
X0221168Y0229000D01*
X0221168Y0231500D01*
X0221235Y0232183D01*
X0221434Y0232839D01*
X0221758Y0233445D01*
X0222193Y0233975D01*
X0222723Y0234410D01*
X0223329Y0234734D01*
X0223985Y0234933D01*
X0224668Y0235000D01*
X0225351Y0234933D01*
X0226007Y0234734D01*
X0226612Y0234410D01*
X0227143Y0233975D01*
X0227578Y0233445D01*
X0227902Y0232839D01*
X0227917Y0232788D02*
X0221419Y0232788D01*
X0221389Y0232689D02*
X0227947Y0232689D01*
X0227977Y0232591D02*
X0221359Y0232591D01*
X0221329Y0232492D02*
X0228007Y0232492D01*
X0228037Y0232394D02*
X0221299Y0232394D01*
X0221269Y0232295D02*
X0228067Y0232295D01*
X0228096Y0232197D02*
X0221239Y0232197D01*
X0221227Y0232098D02*
X0228109Y0232098D01*
X0228119Y0232000D02*
X0221217Y0232000D01*
X0221208Y0231901D02*
X0228128Y0231901D01*
X0228138Y0231803D02*
X0221198Y0231803D01*
X0221188Y0231704D02*
X0228148Y0231704D01*
X0228158Y0231606D02*
X0221178Y0231606D01*
X0221169Y0231507D02*
X0228167Y0231507D01*
X0228168Y0231409D02*
X0221168Y0231409D01*
X0221168Y0231310D02*
X0228168Y0231310D01*
X0228168Y0231212D02*
X0221168Y0231212D01*
X0221168Y0231113D02*
X0228168Y0231113D01*
X0228168Y0231015D02*
X0221168Y0231015D01*
X0221168Y0230916D02*
X0228168Y0230916D01*
X0228168Y0230818D02*
X0221168Y0230818D01*
X0221168Y0230719D02*
X0228168Y0230719D01*
X0228168Y0230621D02*
X0221168Y0230621D01*
X0221168Y0230522D02*
X0228168Y0230522D01*
X0228168Y0230424D02*
X0221168Y0230424D01*
X0221168Y0230325D02*
X0228168Y0230325D01*
X0228168Y0230227D02*
X0221168Y0230227D01*
X0221168Y0230128D02*
X0228168Y0230128D01*
X0228168Y0230030D02*
X0221168Y0230030D01*
X0221168Y0229931D02*
X0228168Y0229931D01*
X0228168Y0229833D02*
X0221168Y0229833D01*
X0221168Y0229734D02*
X0228168Y0229734D01*
X0228168Y0229636D02*
X0221168Y0229636D01*
X0221168Y0229537D02*
X0228168Y0229537D01*
X0228168Y0229439D02*
X0221168Y0229439D01*
X0221168Y0229340D02*
X0228168Y0229340D01*
X0228168Y0229242D02*
X0221168Y0229242D01*
X0221168Y0229143D02*
X0228168Y0229143D01*
X0228168Y0229045D02*
X0221168Y0229045D01*
X0221168Y0227000D02*
X0228168Y0227000D01*
X0228168Y0224500D01*
X0228101Y0223817D01*
X0227902Y0223161D01*
X0227578Y0222555D01*
X0227143Y0222025D01*
X0226612Y0221590D01*
X0226007Y0221266D01*
X0225351Y0221067D01*
X0224668Y0221000D01*
X0223985Y0221067D01*
X0223329Y0221266D01*
X0222723Y0221590D01*
X0222193Y0222025D01*
X0221758Y0222555D01*
X0221434Y0223161D01*
X0221235Y0223817D01*
X0221168Y0224500D01*
X0221168Y0227000D01*
X0221168Y0226976D02*
X0228168Y0226976D01*
X0228168Y0226877D02*
X0221168Y0226877D01*
X0221168Y0226779D02*
X0228168Y0226779D01*
X0228168Y0226680D02*
X0221168Y0226680D01*
X0221168Y0226582D02*
X0228168Y0226582D01*
X0228168Y0226483D02*
X0221168Y0226483D01*
X0221168Y0226385D02*
X0228168Y0226385D01*
X0228168Y0226286D02*
X0221168Y0226286D01*
X0221168Y0226188D02*
X0228168Y0226188D01*
X0228168Y0226089D02*
X0221168Y0226089D01*
X0221168Y0225991D02*
X0228168Y0225991D01*
X0228168Y0225892D02*
X0221168Y0225892D01*
X0221168Y0225794D02*
X0228168Y0225794D01*
X0228168Y0225695D02*
X0221168Y0225695D01*
X0221168Y0225597D02*
X0228168Y0225597D01*
X0228168Y0225498D02*
X0221168Y0225498D01*
X0221168Y0225400D02*
X0228168Y0225400D01*
X0228168Y0225301D02*
X0221168Y0225301D01*
X0221168Y0225203D02*
X0228168Y0225203D01*
X0228168Y0225104D02*
X0221168Y0225104D01*
X0221168Y0225006D02*
X0228168Y0225006D01*
X0228168Y0224907D02*
X0221168Y0224907D01*
X0221168Y0224809D02*
X0228168Y0224809D01*
X0228168Y0224710D02*
X0221168Y0224710D01*
X0221168Y0224612D02*
X0228168Y0224612D01*
X0228168Y0224513D02*
X0221168Y0224513D01*
X0221176Y0224414D02*
X0228160Y0224414D01*
X0228150Y0224316D02*
X0221186Y0224316D01*
X0221196Y0224217D02*
X0228140Y0224217D01*
X0228130Y0224119D02*
X0221205Y0224119D01*
X0221215Y0224020D02*
X0228121Y0224020D01*
X0228111Y0223922D02*
X0221225Y0223922D01*
X0221235Y0223823D02*
X0228101Y0223823D01*
X0228073Y0223725D02*
X0221263Y0223725D01*
X0221293Y0223626D02*
X0228043Y0223626D01*
X0228013Y0223528D02*
X0221323Y0223528D01*
X0221353Y0223429D02*
X0227983Y0223429D01*
X0227953Y0223331D02*
X0221383Y0223331D01*
X0221413Y0223232D02*
X0227923Y0223232D01*
X0227887Y0223134D02*
X0221449Y0223134D01*
X0221501Y0223035D02*
X0227835Y0223035D01*
X0227782Y0222937D02*
X0221554Y0222937D01*
X0221607Y0222838D02*
X0227729Y0222838D01*
X0227677Y0222740D02*
X0221659Y0222740D01*
X0221712Y0222641D02*
X0227624Y0222641D01*
X0227568Y0222543D02*
X0221768Y0222543D01*
X0221849Y0222444D02*
X0227487Y0222444D01*
X0227406Y0222346D02*
X0221930Y0222346D01*
X0222011Y0222247D02*
X0227325Y0222247D01*
X0227244Y0222149D02*
X0222092Y0222149D01*
X0222173Y0222050D02*
X0227163Y0222050D01*
X0227053Y0221952D02*
X0222283Y0221952D01*
X0222403Y0221853D02*
X0226933Y0221853D01*
X0226813Y0221755D02*
X0222523Y0221755D01*
X0222643Y0221656D02*
X0226693Y0221656D01*
X0226552Y0221558D02*
X0222784Y0221558D01*
X0222968Y0221459D02*
X0226368Y0221459D01*
X0226184Y0221361D02*
X0223152Y0221361D01*
X0223343Y0221262D02*
X0225993Y0221262D01*
X0225668Y0221164D02*
X0223668Y0221164D01*
X0224007Y0221065D02*
X0225329Y0221065D01*
X0227876Y0232886D02*
X0221460Y0232886D01*
X0221512Y0232985D02*
X0227824Y0232985D01*
X0227771Y0233083D02*
X0221565Y0233083D01*
X0221618Y0233182D02*
X0227718Y0233182D01*
X0227666Y0233280D02*
X0221670Y0233280D01*
X0221723Y0233379D02*
X0227613Y0233379D01*
X0227551Y0233478D02*
X0221785Y0233478D01*
X0221866Y0233576D02*
X0227470Y0233576D01*
X0227389Y0233675D02*
X0221947Y0233675D01*
X0222027Y0233773D02*
X0227308Y0233773D01*
X0227228Y0233872D02*
X0222108Y0233872D01*
X0222189Y0233970D02*
X0227147Y0233970D01*
X0227029Y0234069D02*
X0222307Y0234069D01*
X0222427Y0234167D02*
X0226909Y0234167D01*
X0226789Y0234266D02*
X0222547Y0234266D01*
X0222667Y0234364D02*
X0226669Y0234364D01*
X0226514Y0234463D02*
X0222822Y0234463D01*
X0223006Y0234561D02*
X0226330Y0234561D01*
X0226146Y0234660D02*
X0223190Y0234660D01*
X0223410Y0234758D02*
X0225926Y0234758D01*
X0225602Y0234857D02*
X0223734Y0234857D01*
X0224213Y0234955D02*
X0225123Y0234955D01*
X0077351Y0206183D02*
X0077152Y0206839D01*
X0076828Y0207445D01*
X0076393Y0207975D01*
X0075862Y0208410D01*
X0075257Y0208734D01*
X0074601Y0208933D01*
X0073918Y0209000D01*
X0073235Y0208933D01*
X0072579Y0208734D01*
X0071973Y0208410D01*
X0071443Y0207975D01*
X0071008Y0207445D01*
X0070684Y0206839D01*
X0070485Y0206183D01*
X0070418Y0205500D01*
X0070418Y0203000D01*
X0077418Y0203000D01*
X0077418Y0205500D01*
X0077351Y0206183D01*
X0077349Y0206190D02*
X0070487Y0206190D01*
X0070476Y0206091D02*
X0077360Y0206091D01*
X0077369Y0205993D02*
X0070467Y0205993D01*
X0070457Y0205894D02*
X0077379Y0205894D01*
X0077389Y0205796D02*
X0070447Y0205796D01*
X0070437Y0205697D02*
X0077399Y0205697D01*
X0077408Y0205599D02*
X0070428Y0205599D01*
X0070418Y0205500D02*
X0077418Y0205500D01*
X0077418Y0205402D02*
X0070418Y0205402D01*
X0070418Y0205303D02*
X0077418Y0205303D01*
X0077418Y0205205D02*
X0070418Y0205205D01*
X0070418Y0205106D02*
X0077418Y0205106D01*
X0077418Y0205008D02*
X0070418Y0205008D01*
X0070418Y0204909D02*
X0077418Y0204909D01*
X0077418Y0204811D02*
X0070418Y0204811D01*
X0070418Y0204712D02*
X0077418Y0204712D01*
X0077418Y0204614D02*
X0070418Y0204614D01*
X0070418Y0204515D02*
X0077418Y0204515D01*
X0077418Y0204417D02*
X0070418Y0204417D01*
X0070418Y0204318D02*
X0077418Y0204318D01*
X0077418Y0204220D02*
X0070418Y0204220D01*
X0070418Y0204121D02*
X0077418Y0204121D01*
X0077418Y0204023D02*
X0070418Y0204023D01*
X0070418Y0203924D02*
X0077418Y0203924D01*
X0077418Y0203826D02*
X0070418Y0203826D01*
X0070418Y0203727D02*
X0077418Y0203727D01*
X0077418Y0203629D02*
X0070418Y0203629D01*
X0070418Y0203530D02*
X0077418Y0203530D01*
X0077418Y0203432D02*
X0070418Y0203432D01*
X0070418Y0203333D02*
X0077418Y0203333D01*
X0077418Y0203235D02*
X0070418Y0203235D01*
X0070418Y0203136D02*
X0077418Y0203136D01*
X0077418Y0203038D02*
X0070418Y0203038D01*
X0070418Y0201000D02*
X0077418Y0201000D01*
X0077418Y0198500D01*
X0077351Y0197817D01*
X0077152Y0197161D01*
X0076828Y0196555D01*
X0076393Y0196025D01*
X0075862Y0195590D01*
X0075257Y0195266D01*
X0074601Y0195067D01*
X0073918Y0195000D01*
X0073235Y0195067D01*
X0072579Y0195266D01*
X0071973Y0195590D01*
X0071443Y0196025D01*
X0071008Y0196555D01*
X0070684Y0197161D01*
X0070485Y0197817D01*
X0070418Y0198500D01*
X0070418Y0201000D01*
X0070418Y0200969D02*
X0077418Y0200969D01*
X0077418Y0200870D02*
X0070418Y0200870D01*
X0070418Y0200772D02*
X0077418Y0200772D01*
X0077418Y0200673D02*
X0070418Y0200673D01*
X0070418Y0200575D02*
X0077418Y0200575D01*
X0077418Y0200476D02*
X0070418Y0200476D01*
X0070418Y0200378D02*
X0077418Y0200378D01*
X0077418Y0200279D02*
X0070418Y0200279D01*
X0070418Y0200181D02*
X0077418Y0200181D01*
X0077418Y0200082D02*
X0070418Y0200082D01*
X0070418Y0199984D02*
X0077418Y0199984D01*
X0077418Y0199885D02*
X0070418Y0199885D01*
X0070418Y0199787D02*
X0077418Y0199787D01*
X0077418Y0199688D02*
X0070418Y0199688D01*
X0070418Y0199590D02*
X0077418Y0199590D01*
X0077418Y0199491D02*
X0070418Y0199491D01*
X0070418Y0199393D02*
X0077418Y0199393D01*
X0077418Y0199294D02*
X0070418Y0199294D01*
X0070418Y0199196D02*
X0077418Y0199196D01*
X0077418Y0199097D02*
X0070418Y0199097D01*
X0070418Y0198999D02*
X0077418Y0198999D01*
X0077418Y0198900D02*
X0070418Y0198900D01*
X0070418Y0198802D02*
X0077418Y0198802D01*
X0077418Y0198703D02*
X0070418Y0198703D01*
X0070418Y0198605D02*
X0077418Y0198605D01*
X0077418Y0198506D02*
X0070418Y0198506D01*
X0070427Y0198407D02*
X0077409Y0198407D01*
X0077399Y0198309D02*
X0070437Y0198309D01*
X0070446Y0198210D02*
X0077389Y0198210D01*
X0077380Y0198112D02*
X0070456Y0198112D01*
X0070466Y0198013D02*
X0077370Y0198013D01*
X0077360Y0197915D02*
X0070476Y0197915D01*
X0070485Y0197816D02*
X0077350Y0197816D01*
X0077321Y0197718D02*
X0070515Y0197718D01*
X0070545Y0197619D02*
X0077291Y0197619D01*
X0077261Y0197521D02*
X0070575Y0197521D01*
X0070605Y0197422D02*
X0077231Y0197422D01*
X0077201Y0197324D02*
X0070635Y0197324D01*
X0070665Y0197225D02*
X0077171Y0197225D01*
X0077134Y0197127D02*
X0070702Y0197127D01*
X0070755Y0197028D02*
X0077081Y0197028D01*
X0077028Y0196930D02*
X0070808Y0196930D01*
X0070860Y0196831D02*
X0076976Y0196831D01*
X0076923Y0196733D02*
X0070913Y0196733D01*
X0070966Y0196634D02*
X0076870Y0196634D01*
X0076812Y0196536D02*
X0071024Y0196536D01*
X0071105Y0196437D02*
X0076731Y0196437D01*
X0076650Y0196339D02*
X0071186Y0196339D01*
X0071267Y0196240D02*
X0076569Y0196240D01*
X0076489Y0196142D02*
X0071347Y0196142D01*
X0071428Y0196043D02*
X0076408Y0196043D01*
X0076295Y0195945D02*
X0071541Y0195945D01*
X0071661Y0195846D02*
X0076175Y0195846D01*
X0076055Y0195748D02*
X0071781Y0195748D01*
X0071901Y0195649D02*
X0075935Y0195649D01*
X0075789Y0195551D02*
X0072047Y0195551D01*
X0072231Y0195452D02*
X0075605Y0195452D01*
X0075421Y0195354D02*
X0072415Y0195354D01*
X0072616Y0195255D02*
X0075220Y0195255D01*
X0074895Y0195157D02*
X0072941Y0195157D01*
X0073328Y0195058D02*
X0074508Y0195058D01*
X0077319Y0206288D02*
X0070517Y0206288D01*
X0070547Y0206387D02*
X0077289Y0206387D01*
X0077259Y0206485D02*
X0070577Y0206485D01*
X0070607Y0206584D02*
X0077229Y0206584D01*
X0077199Y0206682D02*
X0070637Y0206682D01*
X0070667Y0206781D02*
X0077169Y0206781D01*
X0077130Y0206879D02*
X0070706Y0206879D01*
X0070758Y0206978D02*
X0077077Y0206978D01*
X0077025Y0207076D02*
X0070811Y0207076D01*
X0070864Y0207175D02*
X0076972Y0207175D01*
X0076920Y0207274D02*
X0070916Y0207274D01*
X0070969Y0207372D02*
X0076867Y0207372D01*
X0076807Y0207471D02*
X0071029Y0207471D01*
X0071110Y0207569D02*
X0076726Y0207569D01*
X0076645Y0207668D02*
X0071191Y0207668D01*
X0071272Y0207766D02*
X0076564Y0207766D01*
X0076483Y0207865D02*
X0071353Y0207865D01*
X0071433Y0207963D02*
X0076403Y0207963D01*
X0076287Y0208062D02*
X0071549Y0208062D01*
X0071669Y0208160D02*
X0076167Y0208160D01*
X0076047Y0208259D02*
X0071789Y0208259D01*
X0071909Y0208357D02*
X0075927Y0208357D01*
X0075777Y0208456D02*
X0072059Y0208456D01*
X0072243Y0208554D02*
X0075593Y0208554D01*
X0075409Y0208653D02*
X0072427Y0208653D01*
X0072637Y0208751D02*
X0075199Y0208751D01*
X0074875Y0208850D02*
X0072961Y0208850D01*
X0073392Y0208948D02*
X0074444Y0208948D01*
D37*
X0236965Y0337250D03*
X0242871Y0337250D03*
X0328668Y0043203D03*
X0328668Y0037297D03*
D38*
X0529168Y0036384D03*
X0529168Y0028116D03*
X0048802Y0220500D03*
X0040534Y0220500D03*
D39*
X0037918Y0206650D02*
X0037918Y0201850D01*
X0047918Y0201850D02*
X0047918Y0206650D01*
X0057918Y0206650D02*
X0057918Y0201850D01*
D40*
X0091516Y0243750D03*
X0104316Y0243750D03*
D41*
X0119918Y0263089D03*
X0119918Y0280411D03*
X0120418Y0317589D03*
X0120418Y0334911D03*
X0240257Y0322250D03*
X0257579Y0322250D03*
X0157079Y0231750D03*
X0139757Y0231750D03*
D42*
X0074668Y0227598D03*
X0074668Y0240398D03*
X0085418Y0299852D03*
X0085418Y0312652D03*
D43*
X0090168Y0333000D03*
X0071168Y0333000D03*
X0098168Y0218250D03*
X0117168Y0218250D03*
D44*
X0301318Y0304400D03*
X0301318Y0313500D03*
X0301318Y0322600D03*
D45*
X0324018Y0313500D03*
D46*
X0301264Y0296250D03*
X0294572Y0296250D03*
D47*
X0114918Y0249012D03*
X0114918Y0237988D03*
X0068418Y0300238D03*
X0068418Y0311262D03*
D48*
X0238418Y0288039D03*
X0238418Y0267961D03*
D49*
X0242406Y0236250D03*
X0253430Y0236250D03*
D50*
X0255168Y0248488D03*
X0255168Y0259512D03*
X0240418Y0259512D03*
X0240418Y0248488D03*
D51*
X0287168Y0262500D03*
X0082918Y0284250D03*
D52*
X0278418Y0318750D03*
X0278418Y0337750D03*
D53*
X0279168Y0289868D03*
X0279168Y0279632D03*
D54*
X0220538Y0287250D03*
X0220538Y0267565D03*
X0220538Y0306935D03*
X0220538Y0316778D03*
X0141798Y0321699D03*
X0141798Y0311856D03*
X0141798Y0302014D03*
X0141798Y0292171D03*
X0141798Y0282329D03*
X0141798Y0272486D03*
X0141798Y0262644D03*
X0141798Y0252801D03*
D55*
X0220538Y0257722D03*
D56*
X0305168Y0236098D03*
X0305168Y0224902D03*
D57*
X0283148Y0299750D03*
X0268188Y0299750D03*
D58*
X0616341Y0032591D03*
D59*
X0077668Y0300000D03*
D60*
X0037601Y0030622D03*
X0037601Y0333772D03*
X0616341Y0333772D03*
M02*
