%
M48
M72
T01C0.0157
T02C0.0197
T03C0.0236
T04C0.0276
T05C0.0320
T06C0.0360
T07C0.0400
T08C0.0433
T09C0.0472
T10C0.0551
T11C0.0630
T12C0.1181
T13C0.1260
%
T01
X5737Y6325
X5737Y6625
X5737Y6925
X5737Y7225
X5737Y7525
X6037Y7525
X6037Y7225
X6037Y6925
X6037Y6625
X6037Y6325
X11687Y7025
X13387Y7025
X13887Y6675
X12712Y4750
X11687Y8750
X13337Y9000
X20787Y14400
X20787Y15250
X20214Y15848
X19937Y15375
X21837Y15350
X23237Y16150
X23987Y15250
X24637Y16150
X24462Y17200
X24962Y18475
X21962Y19100
X19412Y17525
X17112Y17625
X16212Y17525
X16287Y16775
X10687Y17075
X10687Y19150
X10987Y20025
X7037Y20950
X6512Y22350
X5737Y22350
X7587Y25050
X7887Y25050
X12737Y25600
X13137Y24900
X6437Y28575
X7412Y29750
X7087Y32950
X7087Y33425
X21612Y25525
X21612Y24225
X23762Y21850
X19062Y20550
X21912Y17425
X21962Y16725
X25412Y14500
X25937Y14175
X25012Y13575
X23562Y14250
X27637Y11275
X27937Y11275
X28237Y11275
X28537Y11275
X28537Y10325
X28237Y10325
X27937Y10325
X27637Y10325
X27637Y5975
X27937Y5975
X28237Y5975
X28537Y5975
X28537Y4975
X28237Y4975
X27937Y4975
X27637Y4975
X41587Y8975
X46137Y8425
X48837Y8750
X50437Y8775
X51887Y8425
X50287Y10600
X49862Y10600
X51837Y10850
X49612Y13500
X48212Y14175
X45512Y14275
X44037Y14275
X42412Y16025
X42412Y16450
X39937Y15775
X39287Y16175
X36862Y18000
X33537Y18000
X30487Y17800
X30487Y15575
X42997Y18435
X43587Y18175
X44512Y18500
X43987Y19925
X47412Y19625
X48637Y19725
X50612Y20125
X48637Y17750
X43328Y22840
X43337Y23500
X44037Y24875
X45462Y24975
X45462Y27075
X41987Y28125
X40537Y28125
X30762Y31250
X28837Y30250
X27912Y29850
X25837Y31175
X26762Y32400
X26762Y32750
X26762Y33100
X26762Y33450
X26762Y33800
X28762Y33800
X28762Y33450
X28762Y33100
X28762Y32750
X28762Y32400
X27437Y28425
X27262Y27000
X26637Y26250
X28412Y26025
X26562Y24775
X5987Y18625
X50912Y25900
X51012Y24075
T02
X30662Y12525
X30312Y12525
X17112Y5275
X17112Y4925
X14562Y4575
X14462Y2875
X10337Y2775
X14862Y6700
X14637Y9875
X15462Y9900
X15462Y10250
X12137Y17875
X7012Y17725
X11687Y21400
X12137Y21775
X9787Y21775
X8287Y23225
T03
X5362Y18200
T04
X30887Y28455
X30887Y29045
T05
X5937Y20550
X4937Y20550
X3937Y20550
T06
X18787Y23625
X22787Y22625
X53512Y5025
X58662Y8225
X62662Y7225
X54512Y9025
X58662Y21200
X58662Y22200
X62662Y21200
X54662Y22200
T07
X55612Y19350
X61512Y19350
X61512Y10050
X55612Y10050
X37189Y23716
X37189Y25716
X29462Y26125
X29462Y24125
X7937Y26175
X7937Y28175
X4137Y28225
X4137Y27225
X4137Y26225
X4137Y25225
X4137Y24225
X4137Y23225
X4137Y29225
X4137Y30225
T08
X18962Y21900
X17687Y15926
X13862Y15950
X12089Y13400
X9136Y13400
X3362Y18200
X17687Y12974
X28987Y16250
X39012Y26575
X31612Y26700
X38912Y32300
X47737Y31826
X47737Y28874
X54362Y28976
X54362Y26024
X51887Y7525
X10864Y5850
X7911Y5850
T09
X14675Y26205
X14675Y27189
X14675Y28174
X14675Y29158
X14675Y30142
X14675Y31126
X14675Y32111
X14675Y33095
X22549Y32603
X22549Y31619
X22549Y29650
X22549Y27681
X22549Y26697
X56319Y17186
X60256Y17186
X60256Y12264
X56319Y12264
T10
X56912Y6129
X56912Y4475
X56912Y2821
X5864Y16400
X4211Y16400
X52285Y33567
X54285Y33567
X56335Y33567
X58285Y33567
T11
X37339Y32428
X37339Y30228
X37339Y28028
X37339Y21404
X37339Y19204
X37339Y17004
X37339Y14711
X37339Y12511
X37339Y10311
X37339Y8018
X37339Y5818
X37339Y3618
X32449Y7787
X32449Y10543
X21032Y11231
X21032Y9854
X21032Y8476
X21032Y7098
T12
X54727Y3648
X58428Y6129
T13
X3906Y3062
X3906Y33377
X61780Y33377
X61780Y3259
M30
