G75*
G70*
%OFA0B0*%
%FSLAX24Y24*%
%IPPOS*%
%LPD*%
%AMOC8*
5,1,8,0,0,1.08239X$1,22.5*
%
%ADD10C,0.1060*%
%ADD11OC8,0.0660*%
%ADD12R,0.0690X0.0770*%
%ADD13OC8,0.0887*%
%ADD14C,0.1241*%
%ADD15OC8,0.0600*%
%ADD16R,0.1496X0.2283*%
%ADD17R,0.0887X0.0887*%
%ADD18C,0.0050*%
%ADD19R,0.0200X0.0620*%
%ADD20R,0.0454X0.0493*%
%ADD21R,0.0651X0.0572*%
%ADD22R,0.2304X0.2225*%
%ADD23R,0.0729X0.0572*%
%ADD24R,0.0493X0.0454*%
%ADD25C,0.0990*%
%ADD26R,0.0572X0.0651*%
%ADD27R,0.0651X0.0532*%
%ADD28C,0.0660*%
%ADD29R,0.1320X0.0769*%
%ADD30R,0.0770X0.0690*%
%ADD31R,0.2225X0.2304*%
%ADD32R,0.0572X0.0729*%
%ADD33R,0.0670X0.0300*%
%ADD34R,0.0532X0.0651*%
%ADD35R,0.0808X0.1399*%
%ADD36R,0.0690X0.0769*%
%ADD37R,0.0769X0.0690*%
%ADD38R,0.1123X0.0690*%
%ADD39R,0.0926X0.0296*%
%ADD40C,0.1296*%
%ADD41OC8,0.1296*%
%ADD42R,0.1399X0.0808*%
%ADD43OC8,0.0920*%
%ADD44R,0.0414X0.0414*%
%ADD45OC8,0.0710*%
%ADD46R,0.0670X0.0296*%
%ADD47R,0.0280X0.0840*%
%ADD48R,0.0810X0.0510*%
%ADD49R,0.1310X0.2060*%
%ADD50OC8,0.1060*%
%ADD51C,0.0769*%
%ADD52OC8,0.0769*%
%ADD53R,0.0651X0.0454*%
%ADD54OC8,0.0990*%
%ADD55R,0.0611X0.0454*%
%ADD56R,0.0454X0.0532*%
%ADD57C,0.0010*%
%ADD58R,0.0296X0.0926*%
%ADD59C,0.0540*%
%ADD60R,0.0660X0.0280*%
%ADD61R,0.0769X0.0729*%
%ADD62C,0.0493*%
%ADD63R,0.2225X0.2225*%
%ADD64C,0.2225*%
D10*
X029462Y023075D03*
X007937Y025125D03*
X056569Y015411D03*
X060506Y015411D03*
X060506Y010489D03*
X056569Y010489D03*
D11*
X055587Y008125D03*
X061487Y008125D03*
X061487Y017950D03*
X055587Y017950D03*
D12*
X057028Y011575D03*
X058147Y011575D03*
X058978Y011575D03*
X060097Y011575D03*
X029897Y021775D03*
X028778Y021775D03*
D13*
X005864Y015350D03*
X004211Y015350D03*
X057462Y005204D03*
X057462Y003550D03*
X057462Y001896D03*
X061780Y023028D03*
X061780Y024978D03*
X061780Y027028D03*
D14*
X058978Y005204D03*
X055277Y002723D03*
D15*
X058662Y020150D03*
X058662Y021150D03*
X054662Y021150D03*
X062662Y020150D03*
X022787Y021575D03*
X018787Y022575D03*
D16*
X056562Y013375D03*
X060512Y013375D03*
D17*
X061780Y029028D03*
D18*
X062173Y004874D02*
X062087Y004867D01*
X062002Y004844D01*
X061923Y004807D01*
X061852Y004757D01*
X061790Y004696D01*
X061740Y004624D01*
X061704Y004545D01*
X061681Y004461D01*
X061673Y004374D01*
X061681Y004288D01*
X061704Y004203D01*
X061740Y004124D01*
X061790Y004053D01*
X061852Y003991D01*
X061923Y003941D01*
X062002Y003905D01*
X062087Y003882D01*
X062173Y003874D01*
X062260Y003882D01*
X062345Y003905D01*
X062423Y003941D01*
X062495Y003991D01*
X062557Y004053D01*
X062607Y004124D01*
X062643Y004203D01*
X062666Y004288D01*
X062673Y004374D01*
X062666Y004461D01*
X062643Y004545D01*
X062607Y004624D01*
X062557Y004696D01*
X062495Y004757D01*
X062423Y004807D01*
X062345Y004844D01*
X062260Y004867D01*
X062173Y004874D01*
X061992Y004840D02*
X062355Y004840D01*
X062447Y004791D02*
X061900Y004791D01*
X061837Y004743D02*
X062510Y004743D01*
X062558Y004694D02*
X061789Y004694D01*
X061755Y004646D02*
X062592Y004646D01*
X062619Y004597D02*
X061728Y004597D01*
X061705Y004549D02*
X062642Y004549D01*
X062655Y004500D02*
X061691Y004500D01*
X061680Y004452D02*
X062667Y004452D01*
X062671Y004403D02*
X061676Y004403D01*
X061675Y004355D02*
X062672Y004355D01*
X062668Y004306D02*
X061679Y004306D01*
X061689Y004258D02*
X062658Y004258D01*
X062645Y004209D02*
X061702Y004209D01*
X061724Y004161D02*
X062623Y004161D01*
X062598Y004112D02*
X061749Y004112D01*
X061783Y004064D02*
X062564Y004064D01*
X062519Y004015D02*
X061828Y004015D01*
X061888Y003967D02*
X062459Y003967D01*
X062373Y003918D02*
X061974Y003918D01*
X006344Y032550D02*
X006367Y032634D01*
X006374Y032721D01*
X006367Y032808D01*
X006344Y032892D01*
X006307Y032971D01*
X006257Y033042D01*
X006196Y033104D01*
X006124Y033154D01*
X006045Y033191D01*
X005961Y033213D01*
X005874Y033221D01*
X005787Y033213D01*
X005703Y033191D01*
X005624Y033154D01*
X005553Y033104D01*
X005491Y033042D01*
X005441Y032971D01*
X005404Y032892D01*
X005382Y032808D01*
X005374Y032721D01*
X005382Y032634D01*
X005404Y032550D01*
X005441Y032471D01*
X005491Y032399D01*
X005553Y032338D01*
X005624Y032288D01*
X005703Y032251D01*
X005787Y032228D01*
X005874Y032221D01*
X005961Y032228D01*
X006045Y032251D01*
X006124Y032288D01*
X006196Y032338D01*
X006257Y032399D01*
X006307Y032471D01*
X006344Y032550D01*
X006336Y032533D02*
X005412Y032533D01*
X005396Y032582D02*
X006353Y032582D01*
X006366Y032630D02*
X005383Y032630D01*
X005378Y032679D02*
X006371Y032679D01*
X006374Y032727D02*
X005375Y032727D01*
X005379Y032776D02*
X006369Y032776D01*
X006362Y032824D02*
X005386Y032824D01*
X005399Y032873D02*
X006349Y032873D01*
X006330Y032921D02*
X005418Y032921D01*
X005441Y032970D02*
X006308Y032970D01*
X006274Y033018D02*
X005474Y033018D01*
X005516Y033067D02*
X006233Y033067D01*
X006180Y033115D02*
X005569Y033115D01*
X005645Y033164D02*
X006103Y033164D01*
X005965Y033212D02*
X005783Y033212D01*
X005435Y032485D02*
X006314Y032485D01*
X006283Y032436D02*
X005466Y032436D01*
X005503Y032388D02*
X006245Y032388D01*
X006197Y032339D02*
X005552Y032339D01*
X005620Y032291D02*
X006128Y032291D01*
X006012Y032242D02*
X005736Y032242D01*
D19*
X047917Y011795D03*
X048173Y011795D03*
X048429Y011795D03*
X048685Y011795D03*
X048940Y011795D03*
X049196Y011795D03*
X049452Y011795D03*
X049708Y011795D03*
X049708Y009555D03*
X049452Y009555D03*
X049196Y009555D03*
X048940Y009555D03*
X048685Y009555D03*
X048429Y009555D03*
X048173Y009555D03*
X047917Y009555D03*
D20*
X049612Y012740D03*
X049612Y013410D03*
X048512Y013710D03*
X048512Y013040D03*
X047812Y021065D03*
X047812Y021735D03*
X051637Y023690D03*
X051637Y024360D03*
X012512Y002960D03*
X012512Y002290D03*
D21*
X015012Y003626D03*
X015012Y004374D03*
X012137Y005351D03*
X012137Y006099D03*
X014637Y007351D03*
X014637Y008099D03*
X022512Y010401D03*
X023287Y010401D03*
X023287Y011149D03*
X022512Y011149D03*
X022437Y013801D03*
X022437Y014549D03*
X023987Y015401D03*
X023987Y016149D03*
X024787Y014549D03*
X025562Y014549D03*
X025562Y013801D03*
X024787Y013801D03*
X022637Y017876D03*
X022637Y018624D03*
X018337Y018274D03*
X018337Y017526D03*
X017562Y017524D03*
X017562Y016776D03*
X015837Y016474D03*
X015837Y015726D03*
X009262Y021376D03*
X009262Y022124D03*
X009237Y022926D03*
X009237Y023674D03*
X006512Y022449D03*
X005737Y022449D03*
X005737Y021701D03*
X006512Y021701D03*
X024737Y022976D03*
X024737Y023724D03*
X025512Y023724D03*
X025512Y022976D03*
X027212Y023101D03*
X027212Y023849D03*
X039262Y017274D03*
X039262Y016526D03*
X043362Y016749D03*
X043362Y016001D03*
X047012Y013899D03*
X047787Y013899D03*
X047787Y013151D03*
X047012Y013151D03*
X045362Y012349D03*
X045362Y011601D03*
X050337Y012851D03*
X050337Y013599D03*
X050012Y008449D03*
X049237Y008449D03*
X048462Y008449D03*
X047687Y008449D03*
X047687Y007701D03*
X048462Y007701D03*
X049237Y007701D03*
X050012Y007701D03*
X046912Y007701D03*
X046912Y008449D03*
X045262Y008449D03*
X044487Y008449D03*
X044487Y007701D03*
X045262Y007701D03*
X043712Y007701D03*
X043712Y008449D03*
X050137Y023801D03*
X050137Y024549D03*
X050912Y024549D03*
X050912Y023801D03*
X052687Y027251D03*
X052687Y027999D03*
X044187Y027899D03*
X043412Y027899D03*
X043412Y027151D03*
X044187Y027151D03*
D22*
X046688Y024600D03*
X030488Y013200D03*
D23*
X033024Y012300D03*
X033024Y014100D03*
X049224Y023700D03*
X049224Y025500D03*
D24*
X044022Y023475D03*
X043353Y023475D03*
X043353Y022800D03*
X044022Y022800D03*
X044022Y022125D03*
X043353Y022125D03*
X043328Y020525D03*
X043997Y020525D03*
X043997Y019850D03*
X043328Y019850D03*
X043328Y019175D03*
X043997Y019175D03*
X028122Y027050D03*
X027453Y027050D03*
X030778Y030525D03*
X031447Y030525D03*
X019072Y019150D03*
X018403Y019150D03*
X020728Y016375D03*
X021397Y016375D03*
X019272Y015475D03*
X018603Y015475D03*
X010847Y020725D03*
X010178Y020725D03*
X006422Y029275D03*
X005753Y029275D03*
D25*
X036874Y029178D02*
X037804Y029178D01*
X037804Y031378D02*
X036874Y031378D01*
X036874Y026978D02*
X037804Y026978D01*
X037804Y020354D02*
X036874Y020354D01*
X036874Y018154D02*
X037804Y018154D01*
X037804Y015954D02*
X036874Y015954D01*
X036874Y013661D02*
X037804Y013661D01*
X037804Y011461D02*
X036874Y011461D01*
X036874Y009261D02*
X037804Y009261D01*
X037804Y006968D02*
X036874Y006968D01*
X036874Y004768D02*
X037804Y004768D01*
X037804Y002568D02*
X036874Y002568D01*
D26*
X039363Y003300D03*
X040111Y003300D03*
X046163Y010200D03*
X046911Y010200D03*
X046911Y011575D03*
X046163Y011575D03*
X046163Y012350D03*
X046911Y012350D03*
X047888Y017150D03*
X048636Y017150D03*
X048636Y019425D03*
X047888Y019425D03*
X047888Y020200D03*
X048636Y020200D03*
X048738Y020975D03*
X049486Y020975D03*
X049511Y022025D03*
X048763Y022025D03*
X048763Y022800D03*
X049511Y022800D03*
X042486Y024975D03*
X041738Y024975D03*
X041661Y027075D03*
X040913Y027075D03*
X031661Y032050D03*
X030913Y032050D03*
X030913Y032825D03*
X031661Y032825D03*
X028011Y026325D03*
X027263Y026325D03*
X027263Y025550D03*
X028011Y025550D03*
X028011Y024775D03*
X027263Y024775D03*
X025486Y024500D03*
X024738Y024500D03*
X027213Y021800D03*
X027961Y021800D03*
X025711Y018650D03*
X024963Y018650D03*
X024161Y018650D03*
X023413Y018650D03*
X023413Y017875D03*
X024161Y017875D03*
X024963Y017875D03*
X025711Y017875D03*
X021586Y015650D03*
X020838Y015650D03*
X023238Y014575D03*
X023986Y014575D03*
X023986Y013775D03*
X023238Y013775D03*
X023211Y013000D03*
X022463Y013000D03*
X022463Y012225D03*
X023211Y012225D03*
X015036Y015725D03*
X014288Y015725D03*
X014288Y016500D03*
X015036Y016500D03*
X013286Y015100D03*
X012538Y015100D03*
X004861Y017150D03*
X004113Y017150D03*
X017438Y023500D03*
X018186Y023500D03*
X018186Y025075D03*
X017438Y025075D03*
X008161Y029225D03*
X007413Y029225D03*
X020063Y019350D03*
X020811Y019350D03*
X042938Y018000D03*
X043686Y018000D03*
X011136Y002950D03*
X010388Y002950D03*
D27*
X039067Y002475D03*
X040208Y002475D03*
X047942Y017975D03*
X049083Y017975D03*
X042783Y025700D03*
X041642Y025700D03*
X031933Y031250D03*
X030792Y031250D03*
X018283Y024275D03*
X017142Y024275D03*
D28*
X004437Y024175D02*
X003837Y024175D01*
X003837Y023175D02*
X004437Y023175D01*
X004437Y022175D02*
X003837Y022175D01*
X003837Y025175D02*
X004437Y025175D01*
X004437Y026175D02*
X003837Y026175D01*
X003837Y027175D02*
X004437Y027175D01*
X004437Y028175D02*
X003837Y028175D01*
X003837Y029175D02*
X004437Y029175D01*
X036889Y024666D02*
X037489Y024666D01*
X037489Y022666D02*
X036889Y022666D01*
D29*
X031562Y019477D03*
X029987Y019477D03*
X029987Y017273D03*
X031562Y017273D03*
X028087Y009752D03*
X028087Y007548D03*
X028087Y006627D03*
X028087Y004423D03*
X019462Y004027D03*
X017912Y004027D03*
X017912Y001823D03*
X019462Y001823D03*
X017812Y006798D03*
X016262Y006798D03*
X016262Y009002D03*
X017812Y009002D03*
D30*
X052687Y028990D03*
X052687Y030110D03*
D31*
X030662Y004201D03*
D32*
X029763Y006736D03*
X031562Y006736D03*
D33*
X044827Y019175D03*
X044827Y019675D03*
X044827Y020175D03*
X044827Y020675D03*
X044827Y021175D03*
X044827Y021675D03*
X044827Y022175D03*
X044827Y022675D03*
X046947Y022675D03*
X046947Y022175D03*
X046947Y021675D03*
X046947Y021175D03*
X046947Y020675D03*
X046947Y020175D03*
X046947Y019675D03*
X046947Y019175D03*
X026397Y025375D03*
X026397Y025875D03*
X026397Y026375D03*
X026397Y026875D03*
X026397Y027375D03*
X026397Y027875D03*
X026397Y028375D03*
X026397Y028875D03*
X024277Y028875D03*
X024277Y028375D03*
X024277Y027875D03*
X024277Y027375D03*
X024277Y026875D03*
X024277Y026375D03*
X024277Y025875D03*
X024277Y025375D03*
D34*
X008287Y023071D03*
X007462Y023071D03*
X007462Y021929D03*
X008287Y021929D03*
X006437Y027154D03*
X005587Y027154D03*
X005587Y028296D03*
X006437Y028296D03*
X013912Y008521D03*
X013912Y007379D03*
X015787Y004446D03*
X015787Y003304D03*
X042612Y016004D03*
X042612Y017146D03*
X046062Y008721D03*
X046062Y007579D03*
D35*
X035480Y013650D03*
X033945Y013650D03*
D36*
X023789Y017050D03*
X022686Y017050D03*
X011289Y024725D03*
X010186Y024725D03*
X005239Y016225D03*
X004136Y016225D03*
X016386Y005650D03*
X017489Y005650D03*
X016439Y001825D03*
X015336Y001825D03*
D37*
X006737Y004499D03*
X006737Y005601D03*
D38*
X013487Y002826D03*
X013487Y001724D03*
X028087Y010649D03*
X028087Y011751D03*
D39*
X027825Y015475D03*
X027825Y015975D03*
X025699Y015975D03*
X025699Y015475D03*
X021850Y023450D03*
X021850Y023950D03*
X019724Y023950D03*
X019724Y023450D03*
D40*
X012089Y012350D03*
X017687Y011924D03*
X010864Y004800D03*
X047737Y030776D03*
X054937Y030776D03*
D41*
X054937Y027824D03*
X047737Y027824D03*
X017687Y014876D03*
X009136Y012350D03*
X007911Y004800D03*
D42*
X035012Y006957D03*
X035012Y008493D03*
X046187Y028532D03*
X046187Y030068D03*
D43*
X003362Y017150D03*
D44*
X005362Y017150D03*
D45*
X013862Y014900D03*
X018962Y020850D03*
X028987Y015200D03*
X031612Y025650D03*
X039012Y025525D03*
X038912Y031250D03*
X051887Y006475D03*
D46*
X021375Y013298D03*
X021375Y013798D03*
X021375Y014298D03*
X021375Y014798D03*
X019249Y014798D03*
X019249Y014298D03*
X019249Y013798D03*
X019249Y013298D03*
X019349Y017073D03*
X019349Y017573D03*
X019349Y018073D03*
X019349Y018573D03*
X021475Y018573D03*
X021475Y018073D03*
X021475Y017573D03*
X021475Y017073D03*
X007925Y029952D03*
X007925Y030452D03*
X007925Y030952D03*
X007925Y031452D03*
X005799Y031452D03*
X005799Y030952D03*
X005799Y030452D03*
X005799Y029952D03*
D47*
X010187Y023645D03*
X010687Y023645D03*
X011187Y023645D03*
X011687Y023645D03*
X011687Y021705D03*
X011187Y021705D03*
X010687Y021705D03*
X010187Y021705D03*
D48*
X029847Y030965D03*
X029847Y031875D03*
X029847Y032785D03*
D49*
X027577Y031875D03*
D50*
X029462Y025075D03*
X007937Y027125D03*
D51*
X014675Y027124D03*
X014675Y028108D03*
X014675Y029092D03*
X014675Y030076D03*
X014675Y031061D03*
X014675Y032045D03*
X022549Y031553D03*
X022549Y030569D03*
X022549Y028600D03*
X022549Y026631D03*
X014675Y026139D03*
X014675Y025155D03*
D52*
X022549Y025647D03*
D53*
X029762Y027535D03*
X029762Y028815D03*
D54*
X021032Y010181D03*
X021032Y008804D03*
X021032Y007426D03*
X021032Y006048D03*
X032449Y006737D03*
X032449Y009493D03*
D55*
X045079Y013675D03*
X045946Y013301D03*
X045946Y014049D03*
D56*
X042512Y027013D03*
X042512Y028037D03*
D57*
X024086Y022059D02*
X024106Y021993D01*
X024112Y021925D01*
X024112Y021675D01*
X023412Y021675D01*
X023412Y021925D01*
X023419Y021993D01*
X023439Y022059D01*
X023471Y022119D01*
X023515Y022172D01*
X023568Y022216D01*
X023629Y022248D01*
X023694Y022268D01*
X023762Y022275D01*
X023831Y022268D01*
X023896Y022248D01*
X023957Y022216D01*
X024010Y022172D01*
X024053Y022119D01*
X024086Y022059D01*
X024087Y022057D02*
X023438Y022057D01*
X023436Y022048D02*
X024089Y022048D01*
X024092Y022040D02*
X023433Y022040D01*
X023431Y022031D02*
X024094Y022031D01*
X024097Y022023D02*
X023428Y022023D01*
X023426Y022014D02*
X024099Y022014D01*
X024102Y022006D02*
X023423Y022006D01*
X023420Y021997D02*
X024105Y021997D01*
X024106Y021989D02*
X023419Y021989D01*
X023418Y021980D02*
X024107Y021980D01*
X024108Y021972D02*
X023417Y021972D01*
X023416Y021963D02*
X024109Y021963D01*
X024110Y021955D02*
X023415Y021955D01*
X023415Y021946D02*
X024110Y021946D01*
X024111Y021938D02*
X023414Y021938D01*
X023413Y021929D02*
X024112Y021929D01*
X024112Y021921D02*
X023412Y021921D01*
X023412Y021912D02*
X024112Y021912D01*
X024112Y021904D02*
X023412Y021904D01*
X023412Y021895D02*
X024112Y021895D01*
X024112Y021887D02*
X023412Y021887D01*
X023412Y021878D02*
X024112Y021878D01*
X024112Y021870D02*
X023412Y021870D01*
X023412Y021861D02*
X024112Y021861D01*
X024112Y021853D02*
X023412Y021853D01*
X023412Y021844D02*
X024112Y021844D01*
X024112Y021836D02*
X023412Y021836D01*
X023412Y021827D02*
X024112Y021827D01*
X024112Y021819D02*
X023412Y021819D01*
X023412Y021810D02*
X024112Y021810D01*
X024112Y021802D02*
X023412Y021802D01*
X023412Y021793D02*
X024112Y021793D01*
X024112Y021785D02*
X023412Y021785D01*
X023412Y021776D02*
X024112Y021776D01*
X024112Y021768D02*
X023412Y021768D01*
X023412Y021759D02*
X024112Y021759D01*
X024112Y021751D02*
X023412Y021751D01*
X023412Y021742D02*
X024112Y021742D01*
X024112Y021734D02*
X023412Y021734D01*
X023412Y021725D02*
X024112Y021725D01*
X024112Y021717D02*
X023412Y021717D01*
X023412Y021708D02*
X024112Y021708D01*
X024112Y021700D02*
X023412Y021700D01*
X023412Y021691D02*
X024112Y021691D01*
X024112Y021683D02*
X023412Y021683D01*
X023412Y021475D02*
X024112Y021475D01*
X024112Y021225D01*
X024106Y021157D01*
X024086Y021091D01*
X024053Y021031D01*
X024010Y020978D01*
X023957Y020934D01*
X023896Y020902D01*
X023831Y020882D01*
X023762Y020875D01*
X023694Y020882D01*
X023629Y020902D01*
X023568Y020934D01*
X023515Y020978D01*
X023471Y021031D01*
X023439Y021091D01*
X023419Y021157D01*
X023412Y021225D01*
X023412Y021475D01*
X023412Y021470D02*
X024112Y021470D01*
X024112Y021462D02*
X023412Y021462D01*
X023412Y021453D02*
X024112Y021453D01*
X024112Y021445D02*
X023412Y021445D01*
X023412Y021436D02*
X024112Y021436D01*
X024112Y021428D02*
X023412Y021428D01*
X023412Y021419D02*
X024112Y021419D01*
X024112Y021411D02*
X023412Y021411D01*
X023412Y021402D02*
X024112Y021402D01*
X024112Y021394D02*
X023412Y021394D01*
X023412Y021385D02*
X024112Y021385D01*
X024112Y021377D02*
X023412Y021377D01*
X023412Y021368D02*
X024112Y021368D01*
X024112Y021360D02*
X023412Y021360D01*
X023412Y021351D02*
X024112Y021351D01*
X024112Y021343D02*
X023412Y021343D01*
X023412Y021334D02*
X024112Y021334D01*
X024112Y021326D02*
X023412Y021326D01*
X023412Y021317D02*
X024112Y021317D01*
X024112Y021309D02*
X023412Y021309D01*
X023412Y021300D02*
X024112Y021300D01*
X024112Y021292D02*
X023412Y021292D01*
X023412Y021283D02*
X024112Y021283D01*
X024112Y021275D02*
X023412Y021275D01*
X023412Y021266D02*
X024112Y021266D01*
X024112Y021258D02*
X023412Y021258D01*
X023412Y021249D02*
X024112Y021249D01*
X024112Y021241D02*
X023412Y021241D01*
X023412Y021232D02*
X024112Y021232D01*
X024112Y021224D02*
X023413Y021224D01*
X023413Y021215D02*
X024111Y021215D01*
X024111Y021207D02*
X023414Y021207D01*
X023415Y021198D02*
X024110Y021198D01*
X024109Y021190D02*
X023416Y021190D01*
X023417Y021181D02*
X024108Y021181D01*
X024107Y021173D02*
X023418Y021173D01*
X023418Y021164D02*
X024106Y021164D01*
X024105Y021156D02*
X023420Y021156D01*
X023422Y021147D02*
X024103Y021147D01*
X024100Y021139D02*
X023425Y021139D01*
X023427Y021130D02*
X024098Y021130D01*
X024095Y021122D02*
X023430Y021122D01*
X023432Y021113D02*
X024093Y021113D01*
X024090Y021105D02*
X023435Y021105D01*
X023438Y021096D02*
X024087Y021096D01*
X024084Y021088D02*
X023441Y021088D01*
X023445Y021079D02*
X024079Y021079D01*
X024075Y021071D02*
X023450Y021071D01*
X023455Y021062D02*
X024070Y021062D01*
X024066Y021054D02*
X023459Y021054D01*
X023464Y021045D02*
X024061Y021045D01*
X024057Y021037D02*
X023468Y021037D01*
X023473Y021028D02*
X024051Y021028D01*
X024045Y021020D02*
X023480Y021020D01*
X023487Y021011D02*
X024038Y021011D01*
X024031Y021003D02*
X023494Y021003D01*
X023501Y020994D02*
X024024Y020994D01*
X024017Y020986D02*
X023508Y020986D01*
X023515Y020977D02*
X024009Y020977D01*
X023999Y020969D02*
X023526Y020969D01*
X023536Y020960D02*
X023989Y020960D01*
X023978Y020952D02*
X023547Y020952D01*
X023557Y020943D02*
X023968Y020943D01*
X023958Y020935D02*
X023567Y020935D01*
X023583Y020926D02*
X023942Y020926D01*
X023926Y020918D02*
X023599Y020918D01*
X023615Y020909D02*
X023910Y020909D01*
X023893Y020901D02*
X023632Y020901D01*
X023660Y020892D02*
X023865Y020892D01*
X023837Y020884D02*
X023688Y020884D01*
X023761Y020875D02*
X023764Y020875D01*
X023442Y022065D02*
X024083Y022065D01*
X024078Y022074D02*
X023447Y022074D01*
X023452Y022082D02*
X024073Y022082D01*
X024069Y022091D02*
X023456Y022091D01*
X023461Y022099D02*
X024064Y022099D01*
X024060Y022108D02*
X023465Y022108D01*
X023470Y022116D02*
X024055Y022116D01*
X024049Y022125D02*
X023476Y022125D01*
X023483Y022133D02*
X024042Y022133D01*
X024035Y022142D02*
X023490Y022142D01*
X023497Y022150D02*
X024028Y022150D01*
X024021Y022159D02*
X023504Y022159D01*
X023511Y022167D02*
X024014Y022167D01*
X024006Y022176D02*
X023519Y022176D01*
X023529Y022184D02*
X023996Y022184D01*
X023985Y022193D02*
X023540Y022193D01*
X023550Y022201D02*
X023975Y022201D01*
X023965Y022210D02*
X023560Y022210D01*
X023572Y022218D02*
X023953Y022218D01*
X023937Y022227D02*
X023588Y022227D01*
X023604Y022235D02*
X023921Y022235D01*
X023905Y022244D02*
X023620Y022244D01*
X023641Y022252D02*
X023884Y022252D01*
X023856Y022261D02*
X023669Y022261D01*
X023703Y022269D02*
X023822Y022269D01*
D58*
X014387Y006424D03*
X013887Y006424D03*
X013387Y006424D03*
X012887Y006424D03*
X012887Y004376D03*
X013387Y004376D03*
X013887Y004376D03*
X014387Y004376D03*
D59*
X005937Y019260D02*
X005937Y019740D01*
X004937Y019740D02*
X004937Y019260D01*
X003937Y019260D02*
X003937Y019740D01*
D60*
X012462Y016175D03*
X013312Y015775D03*
X013312Y016575D03*
D61*
X006095Y014175D03*
X004480Y014175D03*
D62*
X030887Y027405D03*
X030887Y027995D03*
D63*
X061780Y002209D03*
D64*
X003906Y002012D03*
X003906Y032327D03*
X061780Y032327D03*
M02*
