G75*
%MOIN*%
%OFA0B0*%
%FSLAX25Y25*%
%IPPOS*%
%LPD*%
%AMOC8*
5,1,8,0,0,1.08239X$1,22.5*
%
%ADD10C,0.10000*%
%ADD11OC8,0.06000*%
%ADD12C,0.09693*%
%ADD13OC8,0.05400*%
%ADD14R,0.08268X0.08268*%
%ADD15OC8,0.08268*%
%ADD16C,0.04000*%
%ADD17R,0.05906X0.05118*%
%ADD18R,0.05118X0.05906*%
%ADD19R,0.07087X0.12598*%
%ADD20R,0.06299X0.07087*%
%ADD21R,0.07087X0.06299*%
%ADD22C,0.12362*%
%ADD23OC8,0.12362*%
%ADD24R,0.04724X0.05906*%
%ADD25R,0.05906X0.04724*%
%ADD26OC8,0.06496*%
%ADD27R,0.05906X0.06890*%
%ADD28R,0.09449X0.09449*%
%ADD29R,0.06890X0.05906*%
%ADD30R,0.03000X0.12800*%
%ADD31R,0.07087X0.08661*%
%ADD32R,0.06299X0.10630*%
%ADD33OC8,0.10000*%
%ADD34R,0.04724X0.03937*%
%ADD35C,0.07087*%
%ADD36OC8,0.07087*%
%ADD37R,0.06299X0.07098*%
%ADD38R,0.06102X0.02362*%
%ADD39R,0.04331X0.03937*%
%ADD40R,0.06000X0.12000*%
%ADD41R,0.06000X0.05000*%
%ADD42C,0.02500*%
%ADD43R,0.00984X0.01969*%
%ADD44R,0.05000X0.06000*%
%ADD45C,0.00100*%
%ADD46R,0.03500X0.01000*%
%ADD47R,0.02000X0.01000*%
%ADD48R,0.02362X0.08661*%
%ADD49R,0.12800X0.03000*%
%ADD50OC8,0.09693*%
%ADD51R,0.07087X0.06693*%
%ADD52R,0.05512X0.03937*%
%ADD53C,0.04331*%
%ADD54C,0.04800*%
%ADD55C,0.09299*%
%ADD56C,0.06000*%
%ADD57C,0.02953*%
%ADD58OC8,0.09299*%
%ADD59C,0.05000*%
%ADD60OC8,0.08600*%
%ADD61R,0.03543X0.03543*%
%ADD62OC8,0.05906*%
%ADD63R,0.05315X0.05315*%
%ADD64OC8,0.05315*%
%ADD65R,0.04300X0.16000*%
%ADD66R,0.03937X0.04331*%
%ADD67C,0.05315*%
%ADD68R,0.03175X0.03175*%
%ADD69C,0.10000*%
%ADD70C,0.01200*%
%ADD71C,0.01600*%
%ADD72C,0.15000*%
%ADD73C,0.03200*%
%ADD74OC8,0.03175*%
%ADD75OC8,0.21654*%
%ADD76C,0.05000*%
%ADD77C,0.02400*%
%ADD78C,0.08600*%
%ADD79OC8,0.03569*%
%ADD80R,0.03569X0.03569*%
%ADD81C,0.01000*%
%ADD82C,0.02000*%
%ADD83C,0.12000*%
%ADD84R,0.03962X0.03962*%
%ADD85C,0.21654*%
%ADD86C,0.04000*%
%ADD87C,0.01400*%
D10*
X0500844Y0265963D03*
X0559880Y0293876D03*
X0609093Y0293876D03*
X0609093Y0333246D03*
X0559880Y0333246D03*
X0571344Y0128463D03*
D11*
X0538094Y0274213D03*
X0538094Y0333213D03*
X0631094Y0332713D03*
X0631094Y0273713D03*
D12*
X0605315Y0247909D02*
X0595622Y0247909D01*
X0595622Y0231374D02*
X0605315Y0231374D01*
X0605315Y0214839D02*
X0595622Y0214839D01*
D13*
X0588844Y0231463D03*
X0588844Y0247713D03*
X0548844Y0257713D03*
X0548844Y0221463D03*
X0518094Y0211713D03*
X0508094Y0171713D03*
X0515844Y0302463D03*
X0515844Y0321713D03*
X0475844Y0312463D03*
X0475844Y0331713D03*
D14*
X0537161Y0365232D03*
D15*
X0517161Y0365232D03*
X0496661Y0365232D03*
X0477161Y0365232D03*
D16*
X0613461Y0367201D03*
X0054406Y0062083D03*
D17*
X0259594Y0097972D03*
X0259594Y0105453D03*
X0292094Y0104722D03*
X0299844Y0104722D03*
X0299844Y0112203D03*
X0292094Y0112203D03*
X0315344Y0124972D03*
X0323094Y0124972D03*
X0330844Y0124972D03*
X0330844Y0132453D03*
X0323094Y0132453D03*
X0315344Y0132453D03*
X0344594Y0134203D03*
X0352344Y0134203D03*
X0352344Y0126722D03*
X0344594Y0126722D03*
X0365594Y0125722D03*
X0365594Y0133203D03*
X0354594Y0109953D03*
X0346844Y0109953D03*
X0346844Y0102472D03*
X0354594Y0102472D03*
X0363844Y0158972D03*
X0363844Y0166453D03*
X0381844Y0194972D03*
X0389594Y0194972D03*
X0389594Y0202453D03*
X0381844Y0202453D03*
X0427594Y0212222D03*
X0427594Y0219703D03*
X0427594Y0227722D03*
X0427594Y0235203D03*
X0274594Y0221203D03*
X0274594Y0213722D03*
X0588094Y0170203D03*
X0588094Y0162722D03*
D18*
X0523335Y0160213D03*
X0515854Y0160213D03*
X0507835Y0160213D03*
X0500354Y0160213D03*
X0500354Y0129963D03*
X0507835Y0129963D03*
X0515854Y0129963D03*
X0523335Y0129963D03*
X0475585Y0104213D03*
X0468104Y0104213D03*
X0460085Y0104213D03*
X0452604Y0104213D03*
X0389585Y0185463D03*
X0382104Y0185463D03*
X0352585Y0215713D03*
X0345104Y0215713D03*
X0345104Y0223463D03*
X0352585Y0223463D03*
X0352585Y0231213D03*
X0345104Y0231213D03*
X0362854Y0233213D03*
X0370335Y0233213D03*
X0370335Y0240963D03*
X0362854Y0240963D03*
X0362354Y0253463D03*
X0369835Y0253463D03*
X0352585Y0253463D03*
X0345104Y0253463D03*
X0379604Y0238963D03*
X0387085Y0238963D03*
X0452604Y0244463D03*
X0460085Y0244463D03*
X0290585Y0286813D03*
X0283104Y0286813D03*
X0265585Y0213713D03*
X0258104Y0213713D03*
X0261585Y0140963D03*
X0254104Y0140963D03*
X0299854Y0132463D03*
X0307335Y0132463D03*
X0307335Y0124713D03*
X0299854Y0124713D03*
X0597854Y0094713D03*
X0605335Y0094713D03*
X0605335Y0086963D03*
X0597854Y0086963D03*
D19*
X0218618Y0078463D03*
X0196571Y0078463D03*
X0196571Y0062713D03*
X0218618Y0062713D03*
X0218618Y0105463D03*
X0196571Y0105463D03*
X0196571Y0121213D03*
X0218618Y0121213D03*
D20*
X0227583Y0102213D03*
X0238606Y0102213D03*
X0238606Y0059713D03*
X0227583Y0059713D03*
X0599583Y0145963D03*
X0610606Y0145963D03*
D21*
X0540344Y0097474D03*
X0540344Y0086451D03*
X0464594Y0052724D03*
X0464594Y0041701D03*
D22*
X0422844Y0047449D03*
X0351844Y0047449D03*
X0280594Y0047449D03*
X0367844Y0295449D03*
X0436844Y0318199D03*
D23*
X0436844Y0347726D03*
X0367844Y0324976D03*
X0351844Y0076976D03*
X0422844Y0076976D03*
X0280594Y0076976D03*
D24*
X0251594Y0094754D03*
X0251594Y0106171D03*
D25*
X0251136Y0133213D03*
X0262553Y0133213D03*
D26*
X0480844Y0071963D03*
D27*
X0610594Y0121561D03*
X0610594Y0134360D03*
D28*
X0518256Y0146463D03*
X0500933Y0146463D03*
X0499683Y0116463D03*
X0517006Y0116463D03*
X0474506Y0090963D03*
X0457183Y0090963D03*
X0415094Y0213801D03*
X0415094Y0231124D03*
D29*
X0565943Y0169713D03*
X0578742Y0169713D03*
X0528242Y0091713D03*
X0515443Y0091713D03*
D30*
X0495594Y0100463D03*
X0495594Y0081463D03*
X0545594Y0154213D03*
X0545594Y0173213D03*
D31*
X0467384Y0215713D03*
X0447305Y0215713D03*
D32*
X0476833Y0217213D03*
X0487856Y0217213D03*
D33*
X0480844Y0265963D03*
X0571344Y0108463D03*
D34*
X0605976Y0108463D03*
X0616213Y0108463D03*
X0385713Y0162463D03*
X0375476Y0162463D03*
X0353963Y0238963D03*
X0343726Y0238963D03*
X0451226Y0252463D03*
X0451226Y0259213D03*
X0461463Y0259213D03*
X0461463Y0252463D03*
D35*
X0467830Y0198833D03*
X0448144Y0198833D03*
X0428459Y0198833D03*
X0418617Y0198833D03*
X0423538Y0120093D03*
X0413696Y0120093D03*
X0433381Y0120093D03*
X0443223Y0120093D03*
X0453066Y0120093D03*
X0462908Y0120093D03*
X0472751Y0120093D03*
X0482593Y0120093D03*
D36*
X0477672Y0198833D03*
X0378094Y0350963D03*
X0129209Y0356374D03*
X0101650Y0173303D03*
D37*
X0476746Y0227963D03*
X0487943Y0227963D03*
D38*
X0386224Y0224943D03*
X0386224Y0219943D03*
X0386224Y0214943D03*
X0386224Y0209943D03*
X0364965Y0209943D03*
X0364965Y0214943D03*
X0364965Y0219943D03*
X0364965Y0224943D03*
X0333474Y0116943D03*
X0333474Y0111943D03*
X0333474Y0106943D03*
X0333474Y0101943D03*
X0312215Y0101943D03*
X0312215Y0106943D03*
X0312215Y0111943D03*
X0312215Y0116943D03*
D39*
X0340748Y0118963D03*
X0347441Y0118963D03*
X0313441Y0094713D03*
X0306748Y0094713D03*
X0331498Y0216213D03*
X0338191Y0216213D03*
X0381498Y0231713D03*
X0388191Y0231713D03*
X0350691Y0246213D03*
X0343998Y0246213D03*
D40*
X0474944Y0038213D03*
X0494744Y0038213D03*
D41*
X0318844Y0301913D03*
X0318844Y0309213D03*
X0318844Y0316513D03*
X0288844Y0316513D03*
X0288844Y0309213D03*
X0288844Y0301913D03*
D42*
X0299094Y0302663D02*
X0299094Y0295163D01*
X0299094Y0302663D02*
X0308594Y0302663D01*
X0308594Y0295163D01*
X0299094Y0295163D01*
X0299094Y0297662D02*
X0308594Y0297662D01*
X0308594Y0300161D02*
X0299094Y0300161D01*
X0299094Y0302660D02*
X0308594Y0302660D01*
X0299094Y0315763D02*
X0299094Y0323263D01*
X0308594Y0323263D01*
X0308594Y0315763D01*
X0299094Y0315763D01*
X0299094Y0318262D02*
X0308594Y0318262D01*
X0308594Y0320761D02*
X0299094Y0320761D01*
X0299094Y0323260D02*
X0308594Y0323260D01*
D43*
X0260557Y0046963D03*
X0259632Y0046963D03*
X0236057Y0032963D03*
X0235132Y0032963D03*
D44*
X0515344Y0220463D03*
X0609844Y0166213D03*
D45*
X0611844Y0166244D02*
X0616841Y0166244D01*
X0616844Y0166213D02*
X0616787Y0165627D01*
X0616616Y0165065D01*
X0616339Y0164546D01*
X0615966Y0164091D01*
X0615511Y0163718D01*
X0614993Y0163441D01*
X0614430Y0163270D01*
X0613844Y0163213D01*
X0613844Y0165213D01*
X0611844Y0165213D01*
X0611844Y0167213D01*
X0613844Y0167213D01*
X0613844Y0169213D01*
X0614430Y0169155D01*
X0614993Y0168984D01*
X0615511Y0168707D01*
X0615966Y0168334D01*
X0616339Y0167879D01*
X0616616Y0167361D01*
X0616787Y0166798D01*
X0616844Y0166213D01*
X0616838Y0166145D02*
X0611844Y0166145D01*
X0611844Y0166047D02*
X0616828Y0166047D01*
X0616818Y0165948D02*
X0611844Y0165948D01*
X0611844Y0165850D02*
X0616809Y0165850D01*
X0616799Y0165751D02*
X0611844Y0165751D01*
X0611844Y0165653D02*
X0616789Y0165653D01*
X0616765Y0165554D02*
X0611844Y0165554D01*
X0611844Y0165455D02*
X0616735Y0165455D01*
X0616705Y0165357D02*
X0611844Y0165357D01*
X0611844Y0165258D02*
X0616675Y0165258D01*
X0616645Y0165160D02*
X0613844Y0165160D01*
X0613844Y0165061D02*
X0616614Y0165061D01*
X0616562Y0164963D02*
X0613844Y0164963D01*
X0613844Y0164864D02*
X0616509Y0164864D01*
X0616457Y0164766D02*
X0613844Y0164766D01*
X0613844Y0164667D02*
X0616404Y0164667D01*
X0616351Y0164569D02*
X0613844Y0164569D01*
X0613844Y0164470D02*
X0616277Y0164470D01*
X0616196Y0164372D02*
X0613844Y0164372D01*
X0613844Y0164273D02*
X0616115Y0164273D01*
X0616034Y0164175D02*
X0613844Y0164175D01*
X0613844Y0164076D02*
X0615948Y0164076D01*
X0615828Y0163978D02*
X0613844Y0163978D01*
X0613844Y0163879D02*
X0615708Y0163879D01*
X0615588Y0163781D02*
X0613844Y0163781D01*
X0613844Y0163682D02*
X0615444Y0163682D01*
X0615260Y0163584D02*
X0613844Y0163584D01*
X0613844Y0163485D02*
X0615075Y0163485D01*
X0614814Y0163387D02*
X0613844Y0163387D01*
X0613844Y0163288D02*
X0614489Y0163288D01*
X0616832Y0166342D02*
X0611844Y0166342D01*
X0611844Y0166441D02*
X0616822Y0166441D01*
X0616812Y0166539D02*
X0611844Y0166539D01*
X0611844Y0166638D02*
X0616803Y0166638D01*
X0616793Y0166736D02*
X0611844Y0166736D01*
X0611844Y0166835D02*
X0616776Y0166835D01*
X0616746Y0166933D02*
X0611844Y0166933D01*
X0611844Y0167032D02*
X0616716Y0167032D01*
X0616686Y0167130D02*
X0611844Y0167130D01*
X0613844Y0167229D02*
X0616656Y0167229D01*
X0616626Y0167327D02*
X0613844Y0167327D01*
X0613844Y0167426D02*
X0616581Y0167426D01*
X0616529Y0167524D02*
X0613844Y0167524D01*
X0613844Y0167623D02*
X0616476Y0167623D01*
X0616423Y0167721D02*
X0613844Y0167721D01*
X0613844Y0167820D02*
X0616371Y0167820D01*
X0616307Y0167918D02*
X0613844Y0167918D01*
X0613844Y0168017D02*
X0616226Y0168017D01*
X0616145Y0168115D02*
X0613844Y0168115D01*
X0613844Y0168214D02*
X0616064Y0168214D01*
X0615984Y0168312D02*
X0613844Y0168312D01*
X0613844Y0168411D02*
X0615872Y0168411D01*
X0615752Y0168509D02*
X0613844Y0168509D01*
X0613844Y0168608D02*
X0615632Y0168608D01*
X0615512Y0168706D02*
X0613844Y0168706D01*
X0613844Y0168805D02*
X0615328Y0168805D01*
X0615144Y0168903D02*
X0613844Y0168903D01*
X0613844Y0169002D02*
X0614934Y0169002D01*
X0614610Y0169100D02*
X0613844Y0169100D01*
X0613844Y0169199D02*
X0613983Y0169199D01*
X0605844Y0169199D02*
X0605706Y0169199D01*
X0605844Y0169213D02*
X0605259Y0169155D01*
X0604696Y0168984D01*
X0604178Y0168707D01*
X0603723Y0168334D01*
X0603350Y0167879D01*
X0603073Y0167361D01*
X0602902Y0166798D01*
X0602844Y0166213D01*
X0602902Y0165627D01*
X0603073Y0165065D01*
X0603350Y0164546D01*
X0603723Y0164091D01*
X0604178Y0163718D01*
X0604696Y0163441D01*
X0605259Y0163270D01*
X0605844Y0163213D01*
X0605844Y0169213D01*
X0605844Y0169100D02*
X0605079Y0169100D01*
X0604755Y0169002D02*
X0605844Y0169002D01*
X0605844Y0168903D02*
X0604545Y0168903D01*
X0604361Y0168805D02*
X0605844Y0168805D01*
X0605844Y0168706D02*
X0604177Y0168706D01*
X0604057Y0168608D02*
X0605844Y0168608D01*
X0605844Y0168509D02*
X0603937Y0168509D01*
X0603817Y0168411D02*
X0605844Y0168411D01*
X0605844Y0168312D02*
X0603705Y0168312D01*
X0603625Y0168214D02*
X0605844Y0168214D01*
X0605844Y0168115D02*
X0603544Y0168115D01*
X0603463Y0168017D02*
X0605844Y0168017D01*
X0605844Y0167918D02*
X0603382Y0167918D01*
X0603318Y0167820D02*
X0605844Y0167820D01*
X0605844Y0167721D02*
X0603266Y0167721D01*
X0603213Y0167623D02*
X0605844Y0167623D01*
X0605844Y0167524D02*
X0603160Y0167524D01*
X0603108Y0167426D02*
X0605844Y0167426D01*
X0605844Y0167327D02*
X0603063Y0167327D01*
X0603033Y0167229D02*
X0605844Y0167229D01*
X0605844Y0167130D02*
X0603003Y0167130D01*
X0602973Y0167032D02*
X0605844Y0167032D01*
X0605844Y0166933D02*
X0602943Y0166933D01*
X0602913Y0166835D02*
X0605844Y0166835D01*
X0605844Y0166736D02*
X0602896Y0166736D01*
X0602886Y0166638D02*
X0605844Y0166638D01*
X0605844Y0166539D02*
X0602877Y0166539D01*
X0602867Y0166441D02*
X0605844Y0166441D01*
X0605844Y0166342D02*
X0602857Y0166342D01*
X0602848Y0166244D02*
X0605844Y0166244D01*
X0605844Y0166145D02*
X0602851Y0166145D01*
X0602861Y0166047D02*
X0605844Y0166047D01*
X0605844Y0165948D02*
X0602871Y0165948D01*
X0602880Y0165850D02*
X0605844Y0165850D01*
X0605844Y0165751D02*
X0602890Y0165751D01*
X0602900Y0165653D02*
X0605844Y0165653D01*
X0605844Y0165554D02*
X0602924Y0165554D01*
X0602954Y0165455D02*
X0605844Y0165455D01*
X0605844Y0165357D02*
X0602984Y0165357D01*
X0603014Y0165258D02*
X0605844Y0165258D01*
X0605844Y0165160D02*
X0603044Y0165160D01*
X0603075Y0165061D02*
X0605844Y0165061D01*
X0605844Y0164963D02*
X0603127Y0164963D01*
X0603180Y0164864D02*
X0605844Y0164864D01*
X0605844Y0164766D02*
X0603232Y0164766D01*
X0603285Y0164667D02*
X0605844Y0164667D01*
X0605844Y0164569D02*
X0603338Y0164569D01*
X0603412Y0164470D02*
X0605844Y0164470D01*
X0605844Y0164372D02*
X0603493Y0164372D01*
X0603574Y0164273D02*
X0605844Y0164273D01*
X0605844Y0164175D02*
X0603655Y0164175D01*
X0603741Y0164076D02*
X0605844Y0164076D01*
X0605844Y0163978D02*
X0603861Y0163978D01*
X0603981Y0163879D02*
X0605844Y0163879D01*
X0605844Y0163781D02*
X0604101Y0163781D01*
X0604245Y0163682D02*
X0605844Y0163682D01*
X0605844Y0163584D02*
X0604429Y0163584D01*
X0604614Y0163485D02*
X0605844Y0163485D01*
X0605844Y0163387D02*
X0604875Y0163387D01*
X0605200Y0163288D02*
X0605844Y0163288D01*
X0521466Y0218341D02*
X0521011Y0217968D01*
X0520493Y0217691D01*
X0519930Y0217520D01*
X0519344Y0217463D01*
X0519344Y0219463D01*
X0517344Y0219463D01*
X0517344Y0221463D01*
X0519344Y0221463D01*
X0519344Y0223463D01*
X0519930Y0223405D01*
X0520493Y0223234D01*
X0521011Y0222957D01*
X0521466Y0222584D01*
X0521839Y0222129D01*
X0522116Y0221611D01*
X0522287Y0221048D01*
X0522344Y0220463D01*
X0522287Y0219877D01*
X0522116Y0219315D01*
X0521839Y0218796D01*
X0521466Y0218341D01*
X0521478Y0218356D02*
X0519344Y0218356D01*
X0519344Y0218258D02*
X0521364Y0218258D01*
X0521244Y0218159D02*
X0519344Y0218159D01*
X0519344Y0218061D02*
X0521124Y0218061D01*
X0521000Y0217962D02*
X0519344Y0217962D01*
X0519344Y0217864D02*
X0520815Y0217864D01*
X0520631Y0217765D02*
X0519344Y0217765D01*
X0519344Y0217666D02*
X0520412Y0217666D01*
X0520087Y0217568D02*
X0519344Y0217568D01*
X0519344Y0217469D02*
X0519414Y0217469D01*
X0519344Y0218455D02*
X0521559Y0218455D01*
X0521640Y0218553D02*
X0519344Y0218553D01*
X0519344Y0218652D02*
X0521720Y0218652D01*
X0521801Y0218750D02*
X0519344Y0218750D01*
X0519344Y0218849D02*
X0521867Y0218849D01*
X0521920Y0218947D02*
X0519344Y0218947D01*
X0519344Y0219046D02*
X0521972Y0219046D01*
X0522025Y0219144D02*
X0519344Y0219144D01*
X0519344Y0219243D02*
X0522078Y0219243D01*
X0522124Y0219341D02*
X0519344Y0219341D01*
X0519344Y0219440D02*
X0522154Y0219440D01*
X0522184Y0219538D02*
X0517344Y0219538D01*
X0517344Y0219637D02*
X0522214Y0219637D01*
X0522244Y0219735D02*
X0517344Y0219735D01*
X0517344Y0219834D02*
X0522274Y0219834D01*
X0522292Y0219932D02*
X0517344Y0219932D01*
X0517344Y0220031D02*
X0522302Y0220031D01*
X0522312Y0220129D02*
X0517344Y0220129D01*
X0517344Y0220228D02*
X0522321Y0220228D01*
X0522331Y0220326D02*
X0517344Y0220326D01*
X0517344Y0220425D02*
X0522341Y0220425D01*
X0522338Y0220523D02*
X0517344Y0220523D01*
X0517344Y0220622D02*
X0522329Y0220622D01*
X0522319Y0220720D02*
X0517344Y0220720D01*
X0517344Y0220819D02*
X0522309Y0220819D01*
X0522300Y0220917D02*
X0517344Y0220917D01*
X0517344Y0221016D02*
X0522290Y0221016D01*
X0522267Y0221114D02*
X0517344Y0221114D01*
X0517344Y0221213D02*
X0522237Y0221213D01*
X0522207Y0221311D02*
X0517344Y0221311D01*
X0517344Y0221410D02*
X0522177Y0221410D01*
X0522147Y0221508D02*
X0519344Y0221508D01*
X0519344Y0221607D02*
X0522117Y0221607D01*
X0522065Y0221705D02*
X0519344Y0221705D01*
X0519344Y0221804D02*
X0522013Y0221804D01*
X0521960Y0221902D02*
X0519344Y0221902D01*
X0519344Y0222001D02*
X0521907Y0222001D01*
X0521855Y0222100D02*
X0519344Y0222100D01*
X0519344Y0222198D02*
X0521783Y0222198D01*
X0521702Y0222297D02*
X0519344Y0222297D01*
X0519344Y0222395D02*
X0521621Y0222395D01*
X0521540Y0222494D02*
X0519344Y0222494D01*
X0519344Y0222592D02*
X0521456Y0222592D01*
X0521336Y0222691D02*
X0519344Y0222691D01*
X0519344Y0222789D02*
X0521216Y0222789D01*
X0521096Y0222888D02*
X0519344Y0222888D01*
X0519344Y0222986D02*
X0520957Y0222986D01*
X0520772Y0223085D02*
X0519344Y0223085D01*
X0519344Y0223183D02*
X0520588Y0223183D01*
X0520336Y0223282D02*
X0519344Y0223282D01*
X0519344Y0223380D02*
X0520012Y0223380D01*
X0511344Y0223380D02*
X0510677Y0223380D01*
X0510759Y0223405D02*
X0511344Y0223463D01*
X0511344Y0217463D01*
X0510759Y0217520D01*
X0510196Y0217691D01*
X0509678Y0217968D01*
X0509223Y0218341D01*
X0508850Y0218796D01*
X0508573Y0219315D01*
X0508402Y0219877D01*
X0508344Y0220463D01*
X0508402Y0221048D01*
X0508573Y0221611D01*
X0508850Y0222129D01*
X0509223Y0222584D01*
X0509678Y0222957D01*
X0510196Y0223234D01*
X0510759Y0223405D01*
X0510353Y0223282D02*
X0511344Y0223282D01*
X0511344Y0223183D02*
X0510101Y0223183D01*
X0509917Y0223085D02*
X0511344Y0223085D01*
X0511344Y0222986D02*
X0509732Y0222986D01*
X0509593Y0222888D02*
X0511344Y0222888D01*
X0511344Y0222789D02*
X0509473Y0222789D01*
X0509353Y0222691D02*
X0511344Y0222691D01*
X0511344Y0222592D02*
X0509233Y0222592D01*
X0509149Y0222494D02*
X0511344Y0222494D01*
X0511344Y0222395D02*
X0509068Y0222395D01*
X0508987Y0222297D02*
X0511344Y0222297D01*
X0511344Y0222198D02*
X0508906Y0222198D01*
X0508834Y0222100D02*
X0511344Y0222100D01*
X0511344Y0222001D02*
X0508781Y0222001D01*
X0508729Y0221902D02*
X0511344Y0221902D01*
X0511344Y0221804D02*
X0508676Y0221804D01*
X0508624Y0221705D02*
X0511344Y0221705D01*
X0511344Y0221607D02*
X0508572Y0221607D01*
X0508542Y0221508D02*
X0511344Y0221508D01*
X0511344Y0221410D02*
X0508512Y0221410D01*
X0508482Y0221311D02*
X0511344Y0221311D01*
X0511344Y0221213D02*
X0508452Y0221213D01*
X0508422Y0221114D02*
X0511344Y0221114D01*
X0511344Y0221016D02*
X0508399Y0221016D01*
X0508389Y0220917D02*
X0511344Y0220917D01*
X0511344Y0220819D02*
X0508380Y0220819D01*
X0508370Y0220720D02*
X0511344Y0220720D01*
X0511344Y0220622D02*
X0508360Y0220622D01*
X0508350Y0220523D02*
X0511344Y0220523D01*
X0511344Y0220425D02*
X0508348Y0220425D01*
X0508358Y0220326D02*
X0511344Y0220326D01*
X0511344Y0220228D02*
X0508368Y0220228D01*
X0508377Y0220129D02*
X0511344Y0220129D01*
X0511344Y0220031D02*
X0508387Y0220031D01*
X0508397Y0219932D02*
X0511344Y0219932D01*
X0511344Y0219834D02*
X0508415Y0219834D01*
X0508445Y0219735D02*
X0511344Y0219735D01*
X0511344Y0219637D02*
X0508475Y0219637D01*
X0508505Y0219538D02*
X0511344Y0219538D01*
X0511344Y0219440D02*
X0508535Y0219440D01*
X0508565Y0219341D02*
X0511344Y0219341D01*
X0511344Y0219243D02*
X0508611Y0219243D01*
X0508664Y0219144D02*
X0511344Y0219144D01*
X0511344Y0219046D02*
X0508717Y0219046D01*
X0508769Y0218947D02*
X0511344Y0218947D01*
X0511344Y0218849D02*
X0508822Y0218849D01*
X0508888Y0218750D02*
X0511344Y0218750D01*
X0511344Y0218652D02*
X0508968Y0218652D01*
X0509049Y0218553D02*
X0511344Y0218553D01*
X0511344Y0218455D02*
X0509130Y0218455D01*
X0509211Y0218356D02*
X0511344Y0218356D01*
X0511344Y0218258D02*
X0509325Y0218258D01*
X0509445Y0218159D02*
X0511344Y0218159D01*
X0511344Y0218061D02*
X0509565Y0218061D01*
X0509689Y0217962D02*
X0511344Y0217962D01*
X0511344Y0217864D02*
X0509874Y0217864D01*
X0510058Y0217765D02*
X0511344Y0217765D01*
X0511344Y0217666D02*
X0510277Y0217666D01*
X0510602Y0217568D02*
X0511344Y0217568D01*
X0511344Y0217469D02*
X0511275Y0217469D01*
D46*
X0520344Y0220463D03*
X0614844Y0166213D03*
D47*
X0604094Y0166213D03*
X0509594Y0220463D03*
D48*
X0285094Y0128449D03*
X0280094Y0128449D03*
X0275094Y0128449D03*
X0270094Y0128449D03*
X0270094Y0107976D03*
X0275094Y0107976D03*
X0280094Y0107976D03*
X0285094Y0107976D03*
D49*
X0421094Y0253463D03*
X0440094Y0253463D03*
X0440094Y0281463D03*
X0421094Y0281463D03*
D50*
X0578028Y0064051D03*
X0599681Y0064051D03*
D51*
X0597415Y0051713D03*
X0581274Y0051713D03*
D52*
X0383175Y0169722D03*
X0374514Y0173463D03*
X0383175Y0177203D03*
D53*
X0380892Y0249963D03*
X0386797Y0249963D03*
D54*
X0383344Y0109863D02*
X0383344Y0105063D01*
X0373344Y0105063D02*
X0373344Y0109863D01*
X0393344Y0109863D02*
X0393344Y0105063D01*
D55*
X0261445Y0181138D02*
X0261445Y0190437D01*
X0239445Y0190437D02*
X0239445Y0181138D01*
X0217445Y0181138D02*
X0217445Y0190437D01*
X0166957Y0190437D02*
X0166957Y0181138D01*
X0144957Y0181138D02*
X0144957Y0190437D01*
X0122957Y0190437D02*
X0122957Y0181138D01*
X0162327Y0339240D02*
X0162327Y0348539D01*
X0184327Y0348539D02*
X0184327Y0339240D01*
X0206327Y0339240D02*
X0206327Y0348539D01*
X0284374Y0348539D02*
X0284374Y0339240D01*
X0306374Y0339240D02*
X0306374Y0348539D01*
X0328374Y0348539D02*
X0328374Y0339240D01*
D56*
X0257319Y0342390D02*
X0257319Y0348390D01*
X0237319Y0348390D02*
X0237319Y0342390D01*
D57*
X0245935Y0285046D02*
X0245935Y0232880D01*
X0245935Y0285046D02*
X0254793Y0285046D01*
X0254793Y0232880D01*
X0245935Y0232880D01*
X0245935Y0235832D02*
X0254793Y0235832D01*
X0254793Y0238784D02*
X0245935Y0238784D01*
X0245935Y0241736D02*
X0254793Y0241736D01*
X0254793Y0244688D02*
X0245935Y0244688D01*
X0245935Y0247640D02*
X0254793Y0247640D01*
X0254793Y0250592D02*
X0245935Y0250592D01*
X0245935Y0253544D02*
X0254793Y0253544D01*
X0254793Y0256496D02*
X0245935Y0256496D01*
X0245935Y0259448D02*
X0254793Y0259448D01*
X0254793Y0262400D02*
X0245935Y0262400D01*
X0245935Y0265352D02*
X0254793Y0265352D01*
X0254793Y0268304D02*
X0245935Y0268304D01*
X0245935Y0271256D02*
X0254793Y0271256D01*
X0254793Y0274208D02*
X0245935Y0274208D01*
X0245935Y0277160D02*
X0254793Y0277160D01*
X0254793Y0280112D02*
X0245935Y0280112D01*
X0245935Y0283064D02*
X0254793Y0283064D01*
X0160896Y0285046D02*
X0160896Y0232880D01*
X0160896Y0285046D02*
X0169754Y0285046D01*
X0169754Y0232880D01*
X0160896Y0232880D01*
X0160896Y0235832D02*
X0169754Y0235832D01*
X0169754Y0238784D02*
X0160896Y0238784D01*
X0160896Y0241736D02*
X0169754Y0241736D01*
X0169754Y0244688D02*
X0160896Y0244688D01*
X0160896Y0247640D02*
X0169754Y0247640D01*
X0169754Y0250592D02*
X0160896Y0250592D01*
X0160896Y0253544D02*
X0169754Y0253544D01*
X0169754Y0256496D02*
X0160896Y0256496D01*
X0160896Y0259448D02*
X0169754Y0259448D01*
X0169754Y0262400D02*
X0160896Y0262400D01*
X0160896Y0265352D02*
X0169754Y0265352D01*
X0169754Y0268304D02*
X0160896Y0268304D01*
X0160896Y0271256D02*
X0169754Y0271256D01*
X0169754Y0274208D02*
X0160896Y0274208D01*
X0160896Y0277160D02*
X0169754Y0277160D01*
X0169754Y0280112D02*
X0160896Y0280112D01*
X0160896Y0283064D02*
X0169754Y0283064D01*
X0151043Y0285046D02*
X0151043Y0232880D01*
X0142185Y0232880D01*
X0142185Y0285046D01*
X0151043Y0285046D01*
X0151043Y0235832D02*
X0142185Y0235832D01*
X0142185Y0238784D02*
X0151043Y0238784D01*
X0151043Y0241736D02*
X0142185Y0241736D01*
X0142185Y0244688D02*
X0151043Y0244688D01*
X0151043Y0247640D02*
X0142185Y0247640D01*
X0142185Y0250592D02*
X0151043Y0250592D01*
X0151043Y0253544D02*
X0142185Y0253544D01*
X0142185Y0256496D02*
X0151043Y0256496D01*
X0151043Y0259448D02*
X0142185Y0259448D01*
X0142185Y0262400D02*
X0151043Y0262400D01*
X0151043Y0265352D02*
X0142185Y0265352D01*
X0142185Y0268304D02*
X0151043Y0268304D01*
X0151043Y0271256D02*
X0142185Y0271256D01*
X0142185Y0274208D02*
X0151043Y0274208D01*
X0151043Y0277160D02*
X0142185Y0277160D01*
X0142185Y0280112D02*
X0151043Y0280112D01*
X0151043Y0283064D02*
X0142185Y0283064D01*
X0066004Y0285046D02*
X0066004Y0232880D01*
X0057146Y0232880D01*
X0057146Y0285046D01*
X0066004Y0285046D01*
X0066004Y0235832D02*
X0057146Y0235832D01*
X0057146Y0238784D02*
X0066004Y0238784D01*
X0066004Y0241736D02*
X0057146Y0241736D01*
X0057146Y0244688D02*
X0066004Y0244688D01*
X0066004Y0247640D02*
X0057146Y0247640D01*
X0057146Y0250592D02*
X0066004Y0250592D01*
X0066004Y0253544D02*
X0057146Y0253544D01*
X0057146Y0256496D02*
X0066004Y0256496D01*
X0066004Y0259448D02*
X0057146Y0259448D01*
X0057146Y0262400D02*
X0066004Y0262400D01*
X0066004Y0265352D02*
X0057146Y0265352D01*
X0057146Y0268304D02*
X0066004Y0268304D01*
X0066004Y0271256D02*
X0057146Y0271256D01*
X0057146Y0274208D02*
X0066004Y0274208D01*
X0066004Y0277160D02*
X0057146Y0277160D01*
X0057146Y0280112D02*
X0066004Y0280112D01*
X0066004Y0283064D02*
X0057146Y0283064D01*
D58*
X0108815Y0149799D03*
X0136374Y0149799D03*
X0129484Y0035626D03*
X0115705Y0035626D03*
X0101925Y0035626D03*
X0143264Y0035626D03*
D59*
X0327157Y0271963D03*
X0335031Y0271963D03*
D60*
X0588844Y0076463D03*
D61*
X0568844Y0076463D03*
D62*
X0615547Y0084642D03*
X0625547Y0084642D03*
X0625547Y0094642D03*
X0615547Y0094642D03*
D63*
X0628421Y0114248D03*
D64*
X0628421Y0124091D03*
X0628421Y0133933D03*
X0628421Y0143776D03*
X0628421Y0153618D03*
X0628421Y0163461D03*
X0628421Y0173303D03*
X0628421Y0183146D03*
D65*
X0552094Y0059513D03*
X0518594Y0059513D03*
X0518594Y0034913D03*
X0552094Y0034913D03*
D66*
X0374594Y0184616D03*
X0374594Y0191309D03*
D67*
X0462594Y0282807D03*
X0462594Y0294618D03*
D68*
X0444344Y0278463D03*
X0436844Y0283963D03*
X0444344Y0256463D03*
X0436844Y0250713D03*
X0387844Y0243213D03*
X0380594Y0228213D03*
X0373594Y0225463D03*
X0328094Y0230213D03*
X0317844Y0234963D03*
X0305344Y0204713D03*
X0305344Y0185713D03*
X0323344Y0173963D03*
X0323344Y0166963D03*
X0331844Y0186213D03*
X0334844Y0186213D03*
X0352844Y0178963D03*
X0375344Y0179463D03*
X0375344Y0167963D03*
X0356833Y0132150D03*
X0307583Y0106900D03*
X0303083Y0094650D03*
X0333083Y0099400D03*
X0290833Y0116150D03*
X0275083Y0134150D03*
X0492844Y0097963D03*
X0498344Y0097963D03*
X0538844Y0090713D03*
X0541844Y0090713D03*
X0604094Y0144713D03*
X0604094Y0147713D03*
X0604344Y0162213D03*
X0311594Y0289213D03*
X0308594Y0289213D03*
X0305594Y0289213D03*
D69*
X0306344Y0291713D02*
X0303844Y0294213D01*
X0303844Y0298913D01*
X0306344Y0291713D02*
X0355094Y0291713D01*
X0364108Y0291713D01*
X0367844Y0295449D01*
X0306374Y0322042D02*
X0303844Y0319513D01*
X0306374Y0322042D02*
X0306374Y0343890D01*
X0270844Y0314963D02*
X0258594Y0327213D01*
X0257319Y0329213D02*
X0257319Y0323988D01*
X0258344Y0322963D01*
X0270594Y0310713D01*
X0258344Y0322963D02*
X0237094Y0322963D01*
X0216094Y0343963D01*
X0208014Y0343963D01*
X0206344Y0348963D02*
X0206344Y0334213D01*
X0206344Y0331963D01*
X0206344Y0330713D01*
X0206344Y0327463D01*
X0206344Y0326713D01*
X0206344Y0241463D01*
X0217445Y0230362D01*
X0217445Y0185787D01*
X0239445Y0185787D02*
X0239445Y0228213D01*
X0239445Y0230563D01*
X0250364Y0241482D01*
X0165325Y0258963D02*
X0159844Y0258963D01*
X0156094Y0258963D02*
X0146614Y0258963D01*
X0122957Y0291825D02*
X0139844Y0308713D01*
X0180594Y0308713D01*
X0193219Y0321338D01*
X0206344Y0334463D01*
X0206344Y0333963D01*
X0230594Y0329713D02*
X0257344Y0329713D01*
X0257319Y0329213D02*
X0257319Y0345390D01*
X0122957Y0291825D02*
X0122957Y0185787D01*
X0073344Y0235963D02*
X0062094Y0235963D01*
X0436844Y0318199D02*
X0441831Y0318199D01*
X0469844Y0346213D01*
X0531594Y0346213D01*
X0537161Y0351780D01*
X0537161Y0365232D01*
D70*
X0444344Y0281213D02*
X0444344Y0278463D01*
X0444344Y0281213D02*
X0444094Y0281463D01*
X0440094Y0281463D01*
X0436844Y0281463D01*
X0436844Y0283963D01*
X0451094Y0261713D02*
X0451226Y0261581D01*
X0451226Y0259213D01*
X0461463Y0259213D02*
X0461463Y0257213D01*
X0461963Y0256713D01*
X0476844Y0256713D01*
X0461463Y0257213D02*
X0461463Y0252463D01*
X0460085Y0244463D02*
X0474604Y0244463D01*
X0474844Y0244222D01*
X0465094Y0240213D02*
X0462594Y0237713D01*
X0442594Y0237713D01*
X0426844Y0253463D01*
X0423844Y0253463D01*
X0431344Y0245963D01*
X0431344Y0244213D01*
X0437094Y0237713D02*
X0432344Y0232963D01*
X0432344Y0208713D01*
X0428094Y0204463D01*
X0424247Y0204463D01*
X0418617Y0198833D01*
X0389594Y0194972D02*
X0389844Y0180963D01*
X0389594Y0186472D01*
X0389585Y0185463D01*
X0382104Y0185463D02*
X0381344Y0184703D01*
X0381344Y0177463D01*
X0381604Y0177203D01*
X0383175Y0177203D01*
X0381258Y0184616D02*
X0374594Y0184616D01*
X0381258Y0184616D02*
X0382104Y0185463D01*
X0373514Y0174463D02*
X0374514Y0173463D01*
X0391344Y0171463D02*
X0391344Y0164213D01*
X0389094Y0161963D01*
X0385713Y0162463D01*
X0361844Y0184963D02*
X0361094Y0185713D01*
X0361094Y0199713D01*
X0358344Y0202463D01*
X0350094Y0202463D01*
X0353354Y0214943D02*
X0352585Y0215713D01*
X0352585Y0223463D01*
X0357094Y0221713D02*
X0357094Y0226713D01*
X0354344Y0229463D01*
X0354344Y0231213D01*
X0352585Y0231213D01*
X0352585Y0231722D01*
X0348844Y0235463D01*
X0348844Y0238963D01*
X0343726Y0238963D01*
X0348844Y0238963D02*
X0348844Y0245213D01*
X0349844Y0246213D01*
X0350691Y0246213D01*
X0350691Y0251569D01*
X0352585Y0253463D01*
X0345104Y0253463D02*
X0345094Y0253472D01*
X0345094Y0256713D01*
X0347344Y0258963D01*
X0362344Y0258963D01*
X0372344Y0258963D01*
X0380892Y0250415D01*
X0380892Y0249963D01*
X0377094Y0244463D02*
X0369835Y0251722D01*
X0369835Y0253463D01*
X0362354Y0253463D02*
X0362354Y0258953D01*
X0362344Y0258963D01*
X0345104Y0253463D02*
X0338594Y0253463D01*
X0324844Y0239713D01*
X0320094Y0239713D02*
X0320094Y0264900D01*
X0327157Y0271963D01*
X0308594Y0289213D02*
X0305594Y0289213D01*
X0290585Y0286813D02*
X0290585Y0285453D01*
X0285344Y0280213D01*
X0285344Y0235213D01*
X0298094Y0222463D01*
X0303844Y0222463D01*
X0299844Y0218713D02*
X0298844Y0218713D01*
X0283104Y0234453D01*
X0283104Y0286813D01*
X0283104Y0311472D01*
X0288094Y0316463D01*
X0290044Y0316463D01*
X0288844Y0316513D01*
X0288844Y0301913D02*
X0290094Y0300663D01*
X0290094Y0288053D01*
X0290585Y0286813D01*
X0283854Y0285453D02*
X0283104Y0286813D01*
X0289344Y0277713D02*
X0288594Y0276963D01*
X0288594Y0240213D01*
X0278844Y0221213D02*
X0278835Y0221203D01*
X0274594Y0221203D01*
X0274594Y0213722D02*
X0265594Y0213722D01*
X0265585Y0213713D01*
X0258104Y0213713D02*
X0253094Y0208703D01*
X0253094Y0207713D01*
X0338191Y0216213D02*
X0344604Y0216213D01*
X0345104Y0215713D01*
X0353354Y0214943D02*
X0364965Y0214943D01*
X0364965Y0219943D02*
X0358864Y0219943D01*
X0357094Y0221713D01*
X0364965Y0224943D02*
X0366614Y0224943D01*
X0370335Y0233213D02*
X0373844Y0233213D01*
X0374094Y0232963D01*
X0377094Y0239213D02*
X0377094Y0244463D01*
X0387844Y0243213D02*
X0387085Y0238963D01*
X0393094Y0225963D02*
X0393094Y0224963D01*
X0391344Y0223213D01*
X0391344Y0210963D01*
X0390344Y0209963D01*
X0386244Y0209963D01*
X0386224Y0209943D01*
X0386205Y0209963D01*
X0384094Y0209963D01*
X0384094Y0204703D01*
X0381844Y0202453D01*
X0384844Y0209943D02*
X0386224Y0209943D01*
X0362854Y0233213D02*
X0362854Y0240963D01*
X0360104Y0238963D01*
X0353963Y0238963D01*
X0421094Y0253463D02*
X0423844Y0253463D01*
X0447344Y0244463D02*
X0452604Y0244463D01*
X0497594Y0242713D02*
X0509594Y0242713D01*
X0509854Y0242972D01*
X0507844Y0220463D02*
X0507844Y0212713D01*
X0497844Y0202713D01*
X0539594Y0161213D02*
X0541094Y0159713D01*
X0541094Y0136963D01*
X0545844Y0132213D01*
X0567594Y0132213D01*
X0571344Y0128463D01*
X0582594Y0117463D02*
X0544594Y0117463D01*
X0537844Y0132463D02*
X0537844Y0153463D01*
X0546594Y0138463D02*
X0564094Y0155963D01*
X0626077Y0155963D01*
X0628421Y0153618D01*
X0628421Y0143776D02*
X0633281Y0143776D01*
X0636594Y0140463D01*
X0636594Y0111463D01*
X0632844Y0107713D01*
X0616963Y0107713D01*
X0616213Y0108463D01*
X0611976Y0102463D02*
X0626594Y0102463D01*
X0630844Y0098213D01*
X0630844Y0089963D01*
X0630594Y0089713D01*
X0630594Y0089689D01*
X0625547Y0084642D01*
X0625547Y0094642D02*
X0620476Y0099713D01*
X0610335Y0099713D01*
X0605335Y0094713D01*
X0597854Y0094713D02*
X0597854Y0097722D01*
X0602344Y0102213D01*
X0605976Y0108463D02*
X0611976Y0102463D01*
X0605976Y0108463D02*
X0593344Y0108463D01*
X0592594Y0107713D01*
X0597854Y0094713D02*
X0597854Y0086963D01*
X0605335Y0086963D02*
X0607868Y0086963D01*
X0615547Y0094642D01*
X0604844Y0127963D02*
X0604844Y0136713D01*
X0605344Y0137213D01*
X0498344Y0097963D02*
X0495594Y0097963D01*
X0492844Y0097963D01*
X0495594Y0097963D02*
X0495594Y0100463D01*
X0418844Y0126713D02*
X0417844Y0127713D01*
X0379094Y0127713D01*
X0377094Y0129713D01*
X0369844Y0125963D02*
X0366835Y0125963D01*
X0365594Y0125722D01*
X0359844Y0123463D02*
X0359844Y0109463D01*
X0361844Y0107463D01*
X0373344Y0107463D01*
X0378344Y0101463D02*
X0378344Y0113963D01*
X0385344Y0120963D01*
X0388094Y0120963D01*
X0401344Y0133213D02*
X0406594Y0138463D01*
X0416094Y0138463D01*
X0359844Y0123463D02*
X0356585Y0126722D01*
X0352344Y0126722D01*
X0349344Y0126722D01*
X0349594Y0126472D01*
X0349344Y0126722D02*
X0344594Y0126722D01*
X0351648Y0134150D02*
X0352344Y0134203D01*
X0334594Y0123713D02*
X0334094Y0124213D01*
X0331604Y0124213D01*
X0330844Y0124972D01*
X0323094Y0124972D02*
X0323094Y0121213D01*
X0320094Y0118213D01*
X0320094Y0094213D01*
X0326594Y0100963D02*
X0326594Y0107213D01*
X0331325Y0111943D01*
X0333474Y0111943D01*
X0345354Y0111943D01*
X0346844Y0109953D01*
X0341364Y0106943D02*
X0345335Y0102972D01*
X0346844Y0102472D01*
X0354594Y0102472D01*
X0355585Y0109463D02*
X0359844Y0109463D01*
X0355585Y0109463D02*
X0354594Y0109953D01*
X0341364Y0106943D02*
X0333474Y0106943D01*
X0333474Y0101943D02*
X0333474Y0099791D01*
X0333083Y0099400D01*
X0339344Y0101463D02*
X0343344Y0097463D01*
X0374344Y0097463D01*
X0378344Y0101463D01*
X0339344Y0101463D02*
X0339344Y0103463D01*
X0312215Y0111943D02*
X0311945Y0112213D01*
X0308594Y0112213D01*
X0307844Y0112213D01*
X0306094Y0113963D01*
X0306094Y0117213D01*
X0299854Y0123453D01*
X0299854Y0124713D01*
X0299854Y0132463D01*
X0307335Y0132463D02*
X0307344Y0132453D01*
X0315344Y0132453D01*
X0315344Y0132463D01*
X0319344Y0132463D01*
X0319344Y0132453D01*
X0323094Y0132453D01*
X0315344Y0124972D02*
X0315215Y0124843D01*
X0315344Y0124972D02*
X0312844Y0124972D01*
X0312215Y0124343D01*
X0312215Y0116943D01*
X0312844Y0124972D02*
X0307594Y0124972D01*
X0307335Y0124713D01*
X0285094Y0122963D02*
X0280344Y0118213D01*
X0240844Y0118213D01*
X0247344Y0121963D02*
X0278844Y0121963D01*
X0280094Y0123213D01*
X0280094Y0128449D01*
X0285094Y0128449D02*
X0285094Y0122963D01*
X0284344Y0114213D02*
X0250844Y0114213D01*
X0246344Y0109713D01*
X0246344Y0094463D01*
X0245094Y0093213D01*
X0285094Y0107976D02*
X0285094Y0113463D01*
X0284344Y0114213D01*
X0474944Y0038213D02*
X0476594Y0037463D01*
X0493844Y0033713D02*
X0493844Y0033213D01*
X0588844Y0231374D02*
X0588844Y0231463D01*
X0388594Y0307713D02*
X0388344Y0307713D01*
X0384226Y0311831D01*
X0355094Y0291713D02*
X0354943Y0291561D01*
X0208594Y0336963D02*
X0208469Y0336838D01*
X0206219Y0336838D01*
X0206344Y0336713D01*
X0206344Y0334213D01*
X0206327Y0343890D02*
X0207152Y0343963D01*
X0208014Y0343963D01*
D71*
X0206344Y0348963D02*
X0195594Y0359713D01*
X0132344Y0359713D01*
X0129209Y0356577D01*
X0129209Y0356374D01*
X0193219Y0321338D02*
X0195344Y0319713D01*
X0198094Y0309963D02*
X0198094Y0297963D01*
X0198344Y0297713D01*
X0178094Y0315713D02*
X0136594Y0315713D01*
X0115844Y0294963D01*
X0115844Y0187498D01*
X0101650Y0173303D01*
X0232594Y0228213D02*
X0239445Y0228213D01*
X0269844Y0240213D02*
X0269844Y0262963D01*
X0270094Y0263213D01*
X0270594Y0271963D02*
X0270594Y0287713D01*
X0247594Y0310713D01*
X0231844Y0310713D01*
X0210594Y0331963D01*
X0206344Y0331963D01*
X0206344Y0333963D02*
X0203014Y0333963D01*
X0204844Y0335463D02*
X0204344Y0335963D01*
X0198344Y0335963D01*
X0178094Y0315713D01*
X0206344Y0327463D02*
X0210094Y0327463D01*
X0212094Y0334213D02*
X0206344Y0334213D01*
X0208594Y0336963D02*
X0213344Y0336963D01*
X0234094Y0316213D01*
X0250344Y0316213D01*
X0277844Y0288713D01*
X0277844Y0235213D01*
X0302094Y0210963D01*
X0326844Y0210963D01*
X0331844Y0205963D01*
X0358344Y0205963D01*
X0363594Y0200713D01*
X0363594Y0188463D01*
X0366844Y0185213D01*
X0366844Y0184463D01*
X0361844Y0184963D02*
X0361844Y0168463D01*
X0362354Y0167953D01*
X0363844Y0166453D01*
X0363844Y0158972D02*
X0366604Y0156213D01*
X0374344Y0156213D01*
X0374344Y0155713D01*
X0374344Y0156213D02*
X0390594Y0156213D01*
X0396844Y0162463D01*
X0396844Y0231963D01*
X0396594Y0231713D01*
X0388191Y0231713D01*
X0388344Y0230559D01*
X0388344Y0228213D01*
X0388344Y0224963D01*
X0388325Y0224943D01*
X0386224Y0224943D01*
X0396844Y0231963D02*
X0396844Y0261713D01*
X0416594Y0280963D02*
X0416844Y0281213D01*
X0421094Y0281463D01*
X0436594Y0253463D02*
X0440094Y0253463D01*
X0444094Y0253463D01*
X0444344Y0253213D01*
X0451226Y0252463D02*
X0451226Y0245841D01*
X0452604Y0244463D01*
X0436844Y0250713D02*
X0436844Y0253213D01*
X0436594Y0253463D01*
X0427594Y0235203D02*
X0427594Y0234463D01*
X0427094Y0233963D01*
X0417933Y0233963D01*
X0415094Y0231124D01*
X0415094Y0213801D02*
X0417423Y0212722D01*
X0417933Y0212222D02*
X0417423Y0211713D01*
X0417933Y0212222D02*
X0427594Y0212222D01*
X0355594Y0191713D02*
X0344844Y0191713D01*
X0341094Y0187963D01*
X0327094Y0205713D02*
X0324594Y0208213D01*
X0300844Y0208213D01*
X0275094Y0233963D01*
X0275094Y0287213D01*
X0248844Y0313463D01*
X0232844Y0313463D01*
X0212094Y0334213D01*
X0243344Y0306963D02*
X0244844Y0306963D01*
X0253344Y0298463D01*
X0243344Y0300713D02*
X0241094Y0298463D01*
X0243344Y0300713D02*
X0243344Y0306963D01*
X0270594Y0307463D02*
X0270594Y0310713D01*
X0270594Y0313963D01*
X0274094Y0313963D01*
X0274094Y0310713D01*
X0274094Y0307463D01*
X0257319Y0329213D02*
X0257344Y0329238D01*
X0257344Y0329713D01*
X0305594Y0290963D02*
X0306344Y0291713D01*
X0305594Y0290963D02*
X0305594Y0289213D01*
X0308594Y0289213D02*
X0311594Y0289213D01*
X0507844Y0220463D02*
X0509594Y0220463D01*
X0515344Y0220463D02*
X0515344Y0214463D01*
X0518094Y0211713D01*
X0614844Y0166213D02*
X0616594Y0166213D01*
X0618844Y0168463D01*
X0632094Y0168463D01*
X0641094Y0159463D01*
X0641094Y0082213D01*
X0634844Y0075963D01*
X0623594Y0075963D01*
X0615094Y0067463D01*
X0540344Y0097474D02*
X0540344Y0121713D01*
X0555594Y0135963D02*
X0555844Y0135963D01*
X0557094Y0137213D01*
X0605344Y0137213D01*
X0610594Y0137213D01*
X0604094Y0144713D02*
X0600833Y0144713D01*
X0599583Y0145963D01*
X0494744Y0038213D02*
X0493844Y0038313D01*
X0493844Y0033713D01*
X0403844Y0103713D02*
X0390594Y0090463D01*
X0316941Y0090463D01*
X0313441Y0093963D01*
X0313441Y0094713D01*
X0313344Y0094809D01*
X0313344Y0101713D01*
X0313114Y0101943D01*
X0312215Y0101943D01*
X0311075Y0101943D01*
X0310844Y0101713D01*
X0312215Y0106943D02*
X0307626Y0106943D01*
X0307583Y0106900D01*
X0299844Y0104722D02*
X0299844Y0103213D01*
X0295094Y0098463D01*
X0280844Y0098463D01*
X0278094Y0095713D01*
X0275094Y0102713D02*
X0275094Y0107976D01*
X0290833Y0113465D02*
X0292094Y0112203D01*
X0290833Y0113465D02*
X0290833Y0116150D01*
X0294594Y0121463D02*
X0299844Y0116213D01*
X0299844Y0112203D01*
X0294594Y0121463D02*
X0294594Y0136213D01*
X0297094Y0138713D01*
X0327344Y0138713D01*
X0327441Y0138713D02*
X0337594Y0138713D01*
X0338094Y0138213D01*
X0338094Y0122213D01*
X0341344Y0118963D01*
X0340748Y0118963D01*
X0339228Y0116943D01*
X0335575Y0116943D01*
X0335594Y0116963D01*
X0335575Y0116943D02*
X0333474Y0116943D01*
X0340748Y0118963D02*
X0341478Y0118943D01*
X0345333Y0115400D02*
X0347441Y0117508D01*
X0347441Y0118963D01*
X0353835Y0132713D02*
X0352344Y0134203D01*
X0353835Y0132713D02*
X0356594Y0132713D01*
X0356833Y0132474D01*
X0356833Y0132150D01*
X0365594Y0138713D02*
X0344844Y0138713D01*
X0344594Y0138463D01*
X0344594Y0134203D01*
X0344844Y0138713D02*
X0337594Y0138713D01*
X0323094Y0132453D02*
X0323085Y0132463D01*
X0365594Y0133203D02*
X0365594Y0138713D01*
X0401094Y0138713D01*
X0403844Y0121213D02*
X0403844Y0103713D01*
X0306748Y0094713D02*
X0303146Y0094713D01*
X0303083Y0094650D01*
X0280594Y0047449D02*
X0267831Y0047449D01*
X0267344Y0046963D01*
X0254104Y0140963D02*
X0252593Y0142400D01*
D72*
X0367844Y0295449D02*
X0384226Y0311831D01*
X0390594Y0318199D01*
X0436844Y0318199D01*
D73*
X0454500Y0302713D02*
X0462594Y0294618D01*
X0454500Y0302713D02*
X0391094Y0302713D01*
X0383831Y0295449D01*
X0367844Y0295449D01*
X0366108Y0295449D01*
X0348344Y0313213D01*
X0348344Y0353213D01*
X0333094Y0368463D01*
X0119344Y0368463D01*
X0109594Y0358713D01*
X0109594Y0347713D01*
X0143094Y0300963D02*
X0183594Y0300963D01*
X0206344Y0323713D01*
X0206344Y0326713D01*
X0206327Y0343890D02*
X0205453Y0344071D01*
X0143094Y0300963D02*
X0133844Y0291713D01*
X0133844Y0269713D01*
X0133844Y0266463D01*
X0136374Y0149799D02*
X0116037Y0129463D01*
X0075844Y0129463D01*
X0218618Y0121213D02*
X0218618Y0105463D01*
X0218344Y0105189D01*
X0218344Y0102713D01*
X0218844Y0102213D01*
X0227583Y0102213D01*
X0238606Y0102213D02*
X0238606Y0106701D01*
X0238594Y0106713D01*
X0218618Y0078463D02*
X0218618Y0062713D01*
X0218344Y0062439D01*
X0218344Y0059463D01*
X0218594Y0059713D01*
X0227583Y0059713D01*
X0238606Y0059713D02*
X0243094Y0059713D01*
X0243344Y0059963D01*
X0413696Y0118861D02*
X0419844Y0112713D01*
X0445344Y0112713D01*
X0445594Y0112463D01*
X0413696Y0118861D02*
X0413696Y0120093D01*
X0532594Y0257713D02*
X0477844Y0312463D01*
X0475844Y0312463D01*
X0475844Y0331713D01*
X0487750Y0282807D02*
X0462594Y0282807D01*
X0487750Y0282807D02*
X0500844Y0269713D01*
X0500844Y0265963D01*
X0532594Y0257713D02*
X0548844Y0257713D01*
D74*
X0509854Y0242972D03*
X0497594Y0242713D03*
X0474844Y0244222D03*
X0465094Y0240213D03*
X0447344Y0244463D03*
X0437094Y0237713D03*
X0431344Y0244213D03*
X0451094Y0261713D03*
X0476844Y0256713D03*
X0507844Y0220463D03*
X0497844Y0202713D03*
X0539594Y0161213D03*
X0537844Y0153463D03*
X0545594Y0145963D03*
X0546594Y0138463D03*
X0537844Y0132463D03*
X0540344Y0121713D03*
X0544594Y0117463D03*
X0555594Y0135963D03*
X0582594Y0117463D03*
X0592594Y0107713D03*
X0602344Y0102213D03*
X0604844Y0127963D03*
X0476844Y0143713D03*
X0418844Y0126713D03*
X0416094Y0138463D03*
X0401094Y0138713D03*
X0401344Y0133213D03*
X0403844Y0121213D03*
X0388094Y0120963D03*
X0377094Y0129713D03*
X0369844Y0125963D03*
X0345333Y0115400D03*
X0334594Y0123713D03*
X0319344Y0132463D03*
X0327441Y0138713D03*
X0308594Y0112213D03*
X0326594Y0100963D03*
X0320094Y0094213D03*
X0339344Y0103463D03*
X0359844Y0109463D03*
X0374344Y0155713D03*
X0356094Y0168963D03*
X0370344Y0174463D03*
X0366844Y0184463D03*
X0361844Y0184963D03*
X0355594Y0191713D03*
X0355844Y0195953D03*
X0350094Y0202463D03*
X0353094Y0209463D03*
X0333344Y0212963D03*
X0327094Y0205713D03*
X0305344Y0214463D03*
X0299844Y0218713D03*
X0303844Y0222463D03*
X0298344Y0227463D03*
X0294594Y0234463D03*
X0288594Y0240213D03*
X0269844Y0240213D03*
X0278844Y0221213D03*
X0253094Y0207713D03*
X0293344Y0180963D03*
X0327594Y0170463D03*
X0343844Y0180963D03*
X0341094Y0187963D03*
X0374844Y0213963D03*
X0381594Y0219963D03*
X0386594Y0228463D03*
X0393094Y0225963D03*
X0374094Y0232963D03*
X0370344Y0246213D03*
X0396844Y0261713D03*
X0411094Y0263713D03*
X0339594Y0246213D03*
X0324844Y0239713D03*
X0320094Y0239713D03*
X0270094Y0263213D03*
X0270594Y0271963D03*
X0289344Y0277713D03*
X0253344Y0298463D03*
X0241094Y0298463D03*
X0243344Y0306963D03*
X0198094Y0309963D03*
X0198344Y0297713D03*
X0133844Y0269713D03*
X0133844Y0266463D03*
X0109594Y0347713D03*
X0187344Y0180963D03*
X0251344Y0129463D03*
X0247344Y0121963D03*
X0275094Y0102713D03*
X0278094Y0095713D03*
X0250844Y0086963D03*
X0268844Y0039963D03*
X0075844Y0129463D03*
X0389844Y0180963D03*
X0391344Y0171463D03*
D75*
X0633146Y0357358D03*
D76*
X0632500Y0356713D01*
X0598344Y0356713D01*
X0585344Y0343713D01*
X0585344Y0294213D01*
X0548844Y0257713D01*
X0548844Y0221463D01*
X0555469Y0214839D01*
X0600469Y0214839D01*
X0610606Y0145963D02*
X0616844Y0145963D01*
X0619844Y0142963D01*
X0619844Y0138213D01*
X0624124Y0133933D01*
X0628421Y0133933D01*
X0610594Y0134360D02*
X0610594Y0137213D01*
X0610594Y0145951D01*
X0610606Y0145963D01*
X0595844Y0128463D02*
X0602594Y0121713D01*
X0610443Y0121713D01*
X0610594Y0121561D01*
X0595844Y0128463D02*
X0571344Y0128463D01*
X0570094Y0127213D01*
X0534344Y0127213D01*
D77*
X0515854Y0129963D02*
X0507835Y0129963D01*
X0500354Y0129963D02*
X0499683Y0129541D01*
X0499683Y0116463D01*
X0482593Y0120093D02*
X0482593Y0136711D01*
X0492344Y0146463D01*
X0500933Y0146463D01*
X0500933Y0159634D01*
X0500354Y0160213D01*
X0507835Y0160213D02*
X0515854Y0160213D01*
X0532594Y0168213D02*
X0545594Y0168213D01*
X0563344Y0168213D01*
X0563594Y0168463D01*
X0578742Y0169713D02*
X0579232Y0170203D01*
X0588094Y0170203D01*
X0588104Y0170213D01*
X0592844Y0170213D01*
X0605778Y0183146D01*
X0628421Y0183146D01*
X0628421Y0173303D02*
X0610094Y0173303D01*
X0609844Y0173053D01*
X0609844Y0166213D01*
X0610094Y0173303D02*
X0603185Y0173303D01*
X0592604Y0162722D01*
X0588094Y0162722D01*
X0548854Y0162722D01*
X0545594Y0159463D01*
X0545594Y0154213D01*
X0545594Y0145963D01*
X0545594Y0168213D02*
X0545594Y0173213D01*
X0476844Y0143713D02*
X0476844Y0124186D01*
X0472751Y0120093D01*
X0457844Y0119843D02*
X0457594Y0120093D01*
X0460085Y0104213D02*
X0468104Y0104213D01*
X0475585Y0104213D02*
X0475585Y0092041D01*
X0474506Y0090963D01*
X0485844Y0090963D01*
X0491094Y0085713D01*
X0495844Y0085713D01*
X0495594Y0085463D01*
X0495594Y0081463D01*
X0495844Y0085713D02*
X0499344Y0085713D01*
X0505344Y0091713D01*
X0515443Y0091713D01*
X0528242Y0091713D02*
X0534004Y0097474D01*
X0540344Y0097474D01*
X0572856Y0097474D01*
X0590344Y0114963D01*
X0627707Y0114963D01*
X0628421Y0114248D01*
X0541844Y0090713D02*
X0541844Y0087951D01*
X0540344Y0086451D01*
X0491344Y0041963D02*
X0489094Y0041963D01*
X0418617Y0198833D02*
X0417423Y0200026D01*
X0417423Y0211713D01*
X0417423Y0212722D01*
X0427594Y0219703D02*
X0427594Y0227722D01*
X0415433Y0230874D02*
X0411594Y0234713D01*
X0411594Y0257463D01*
X0421094Y0266963D01*
X0421094Y0281463D01*
X0416594Y0280963D02*
X0416594Y0269213D01*
X0411094Y0263713D01*
X0444344Y0256463D02*
X0444344Y0253213D01*
X0415433Y0230874D02*
X0415094Y0231124D01*
X0520344Y0220463D02*
X0549844Y0220463D01*
X0548844Y0221463D01*
X0206594Y0330963D02*
X0206344Y0330713D01*
D78*
X0165325Y0276443D02*
X0165325Y0258963D01*
X0146614Y0258963D02*
X0146614Y0241482D01*
X0062094Y0235963D02*
X0061594Y0236463D01*
X0061594Y0258943D01*
X0061575Y0258963D01*
X0061575Y0276443D01*
X0250364Y0258963D02*
X0250364Y0241482D01*
X0574344Y0235963D02*
X0578933Y0231374D01*
X0588844Y0231374D01*
X0600469Y0231374D01*
X0574344Y0235963D02*
X0574344Y0254213D01*
X0596594Y0276463D01*
X0613844Y0276463D01*
X0631094Y0293713D01*
X0631094Y0332713D01*
X0630561Y0333246D01*
X0609093Y0333246D01*
D79*
X0238594Y0106713D03*
X0243344Y0059963D03*
X0481344Y0041963D03*
X0489094Y0041963D03*
X0232594Y0228213D03*
D80*
X0270594Y0307463D03*
X0270594Y0310713D03*
X0270594Y0313963D03*
X0274094Y0313963D03*
X0274094Y0310713D03*
X0274094Y0307463D03*
X0540344Y0071213D03*
X0527094Y0056713D03*
X0518594Y0044463D03*
X0527094Y0041213D03*
X0538844Y0040463D03*
X0542094Y0040463D03*
D81*
X0548644Y0040686D02*
X0522044Y0040686D01*
X0522044Y0041684D02*
X0548644Y0041684D01*
X0548644Y0042683D02*
X0522044Y0042683D01*
X0522044Y0043084D02*
X0521956Y0043414D01*
X0521785Y0043711D01*
X0521543Y0043953D01*
X0521246Y0044124D01*
X0520916Y0044213D01*
X0519094Y0044213D01*
X0519094Y0035413D01*
X0518095Y0035413D01*
X0518095Y0044213D01*
X0516273Y0044213D01*
X0515943Y0044124D01*
X0515646Y0043953D01*
X0515404Y0043711D01*
X0515233Y0043414D01*
X0515144Y0043084D01*
X0515144Y0035413D01*
X0518094Y0035413D01*
X0518094Y0034413D01*
X0515144Y0034413D01*
X0515144Y0027463D01*
X0492844Y0027463D01*
X0490594Y0029713D01*
X0490594Y0031604D01*
X0490704Y0031414D01*
X0490946Y0031172D01*
X0491243Y0031001D01*
X0491573Y0030913D01*
X0494245Y0030913D01*
X0494245Y0037713D01*
X0495244Y0037713D01*
X0495244Y0030913D01*
X0497916Y0030913D01*
X0498246Y0031001D01*
X0498543Y0031172D01*
X0498785Y0031414D01*
X0498956Y0031711D01*
X0499044Y0032041D01*
X0499044Y0037713D01*
X0495245Y0037713D01*
X0495245Y0038713D01*
X0499044Y0038713D01*
X0499044Y0044384D01*
X0498956Y0044714D01*
X0498785Y0045011D01*
X0498543Y0045253D01*
X0498246Y0045424D01*
X0497916Y0045513D01*
X0495244Y0045513D01*
X0495244Y0038713D01*
X0494245Y0038713D01*
X0494245Y0045513D01*
X0492644Y0045513D01*
X0492844Y0045713D01*
X0572344Y0045713D01*
X0574344Y0043713D01*
X0590594Y0043713D01*
X0593594Y0046713D01*
X0593594Y0047095D01*
X0593701Y0047066D01*
X0596915Y0047066D01*
X0596915Y0051213D01*
X0597915Y0051213D01*
X0597915Y0052213D01*
X0596915Y0052213D01*
X0596915Y0056359D01*
X0593701Y0056359D01*
X0593594Y0056331D01*
X0593594Y0061445D01*
X0597135Y0057905D01*
X0599181Y0057905D01*
X0599181Y0063551D01*
X0600181Y0063551D01*
X0600181Y0057905D01*
X0602227Y0057905D01*
X0605828Y0061505D01*
X0605828Y0063551D01*
X0600181Y0063551D01*
X0600181Y0064551D01*
X0605828Y0064551D01*
X0605828Y0066597D01*
X0602712Y0069713D01*
X0614594Y0069713D01*
X0617594Y0066713D01*
X0617594Y0029713D01*
X0615344Y0027463D01*
X0555544Y0027463D01*
X0555544Y0034413D01*
X0552595Y0034413D01*
X0552595Y0035413D01*
X0555544Y0035413D01*
X0555544Y0043084D01*
X0555456Y0043414D01*
X0555285Y0043711D01*
X0555043Y0043953D01*
X0554746Y0044124D01*
X0554416Y0044213D01*
X0552594Y0044213D01*
X0552594Y0035413D01*
X0551595Y0035413D01*
X0551595Y0044213D01*
X0549773Y0044213D01*
X0549443Y0044124D01*
X0549146Y0043953D01*
X0548904Y0043711D01*
X0548733Y0043414D01*
X0548644Y0043084D01*
X0548644Y0035413D01*
X0551594Y0035413D01*
X0551594Y0034413D01*
X0548644Y0034413D01*
X0548644Y0027463D01*
X0522044Y0027463D01*
X0522044Y0034413D01*
X0519095Y0034413D01*
X0519095Y0035413D01*
X0522044Y0035413D01*
X0522044Y0043084D01*
X0521802Y0043681D02*
X0548887Y0043681D01*
X0551595Y0043681D02*
X0552594Y0043681D01*
X0552594Y0042683D02*
X0551595Y0042683D01*
X0551595Y0041684D02*
X0552594Y0041684D01*
X0552594Y0040686D02*
X0551595Y0040686D01*
X0551595Y0039687D02*
X0552594Y0039687D01*
X0552594Y0038689D02*
X0551595Y0038689D01*
X0551595Y0037690D02*
X0552594Y0037690D01*
X0552594Y0036692D02*
X0551595Y0036692D01*
X0551595Y0035693D02*
X0552594Y0035693D01*
X0552595Y0034695D02*
X0617594Y0034695D01*
X0617594Y0035693D02*
X0555544Y0035693D01*
X0555544Y0036692D02*
X0617594Y0036692D01*
X0617594Y0037690D02*
X0555544Y0037690D01*
X0555544Y0038689D02*
X0617594Y0038689D01*
X0617594Y0039687D02*
X0555544Y0039687D01*
X0555544Y0040686D02*
X0617594Y0040686D01*
X0617594Y0041684D02*
X0555544Y0041684D01*
X0555544Y0042683D02*
X0617594Y0042683D01*
X0617594Y0043681D02*
X0555302Y0043681D01*
X0548644Y0039687D02*
X0522044Y0039687D01*
X0522044Y0038689D02*
X0548644Y0038689D01*
X0548644Y0037690D02*
X0522044Y0037690D01*
X0522044Y0036692D02*
X0548644Y0036692D01*
X0548644Y0035693D02*
X0522044Y0035693D01*
X0522044Y0033696D02*
X0548644Y0033696D01*
X0548644Y0032698D02*
X0522044Y0032698D01*
X0522044Y0031699D02*
X0548644Y0031699D01*
X0548644Y0030701D02*
X0522044Y0030701D01*
X0522044Y0029702D02*
X0548644Y0029702D01*
X0548644Y0028704D02*
X0522044Y0028704D01*
X0522044Y0027705D02*
X0548644Y0027705D01*
X0555544Y0027705D02*
X0615587Y0027705D01*
X0616586Y0028704D02*
X0555544Y0028704D01*
X0555544Y0029702D02*
X0617584Y0029702D01*
X0617594Y0030701D02*
X0555544Y0030701D01*
X0555544Y0031699D02*
X0617594Y0031699D01*
X0617594Y0032698D02*
X0555544Y0032698D01*
X0555544Y0033696D02*
X0617594Y0033696D01*
X0617594Y0044680D02*
X0591562Y0044680D01*
X0592560Y0045678D02*
X0617594Y0045678D01*
X0617594Y0046677D02*
X0593559Y0046677D01*
X0596915Y0047675D02*
X0597915Y0047675D01*
X0597915Y0047066D02*
X0601130Y0047066D01*
X0601460Y0047155D01*
X0601757Y0047326D01*
X0601999Y0047568D01*
X0602170Y0047864D01*
X0602259Y0048195D01*
X0602259Y0051213D01*
X0597915Y0051213D01*
X0597915Y0047066D01*
X0597915Y0048674D02*
X0596915Y0048674D01*
X0596915Y0049672D02*
X0597915Y0049672D01*
X0597915Y0050671D02*
X0596915Y0050671D01*
X0597915Y0051669D02*
X0617594Y0051669D01*
X0617594Y0050671D02*
X0602259Y0050671D01*
X0602259Y0049672D02*
X0617594Y0049672D01*
X0617594Y0048674D02*
X0602259Y0048674D01*
X0602061Y0047675D02*
X0617594Y0047675D01*
X0617594Y0052668D02*
X0602259Y0052668D01*
X0602259Y0052213D02*
X0602259Y0055230D01*
X0602170Y0055561D01*
X0601999Y0055857D01*
X0601757Y0056099D01*
X0601460Y0056270D01*
X0601130Y0056359D01*
X0597915Y0056359D01*
X0597915Y0052213D01*
X0602259Y0052213D01*
X0602259Y0053666D02*
X0617594Y0053666D01*
X0617594Y0054665D02*
X0602259Y0054665D01*
X0602111Y0055663D02*
X0617594Y0055663D01*
X0617594Y0056662D02*
X0593594Y0056662D01*
X0605594Y0056662D01*
X0605594Y0056213D02*
X0593594Y0056213D01*
X0593594Y0069713D01*
X0605594Y0069713D01*
X0605594Y0056213D01*
X0605594Y0057660D02*
X0593594Y0057660D01*
X0617594Y0057660D01*
X0617594Y0058659D02*
X0602981Y0058659D01*
X0603980Y0059658D02*
X0617594Y0059658D01*
X0617594Y0060656D02*
X0604978Y0060656D01*
X0605594Y0060656D02*
X0593594Y0060656D01*
X0594384Y0060656D01*
X0593594Y0059658D02*
X0605594Y0059658D01*
X0605594Y0058659D02*
X0593594Y0058659D01*
X0596381Y0058659D01*
X0595382Y0059658D02*
X0593594Y0059658D01*
X0593594Y0061655D02*
X0605594Y0061655D01*
X0605828Y0061655D02*
X0617594Y0061655D01*
X0617594Y0062653D02*
X0605828Y0062653D01*
X0605594Y0062653D02*
X0593594Y0062653D01*
X0593594Y0063551D02*
X0599181Y0063551D01*
X0599181Y0064551D01*
X0593594Y0064551D01*
X0593594Y0063551D01*
X0593594Y0063652D02*
X0605594Y0063652D01*
X0605594Y0064650D02*
X0593594Y0064650D01*
X0593594Y0063652D02*
X0599181Y0063652D01*
X0599181Y0062653D02*
X0600181Y0062653D01*
X0600181Y0061655D02*
X0599181Y0061655D01*
X0599181Y0060656D02*
X0600181Y0060656D01*
X0600181Y0059658D02*
X0599181Y0059658D01*
X0599181Y0058659D02*
X0600181Y0058659D01*
X0597915Y0055663D02*
X0596915Y0055663D01*
X0596915Y0054665D02*
X0597915Y0054665D01*
X0597915Y0053666D02*
X0596915Y0053666D01*
X0596915Y0052668D02*
X0597915Y0052668D01*
X0584594Y0056359D02*
X0581774Y0056359D01*
X0581774Y0052213D01*
X0580774Y0052213D01*
X0580774Y0056359D01*
X0577559Y0056359D01*
X0577229Y0056270D01*
X0576932Y0056099D01*
X0576690Y0055857D01*
X0576519Y0055561D01*
X0576430Y0055230D01*
X0576430Y0052213D01*
X0580774Y0052213D01*
X0580774Y0051213D01*
X0576430Y0051213D01*
X0576430Y0048713D01*
X0469114Y0048713D01*
X0469178Y0048777D01*
X0469349Y0049073D01*
X0469438Y0049404D01*
X0469438Y0052224D01*
X0465095Y0052224D01*
X0465095Y0053224D01*
X0469438Y0053224D01*
X0469438Y0056045D01*
X0469349Y0056376D01*
X0469178Y0056672D01*
X0468936Y0056914D01*
X0468640Y0057085D01*
X0468309Y0057174D01*
X0465094Y0057174D01*
X0465094Y0053224D01*
X0464095Y0053224D01*
X0464095Y0057174D01*
X0460880Y0057174D01*
X0460549Y0057085D01*
X0460253Y0056914D01*
X0460011Y0056672D01*
X0459840Y0056376D01*
X0459751Y0056045D01*
X0459751Y0053224D01*
X0464094Y0053224D01*
X0464094Y0052224D01*
X0459751Y0052224D01*
X0459751Y0049404D01*
X0459840Y0049073D01*
X0460011Y0048777D01*
X0460075Y0048713D01*
X0440594Y0048713D01*
X0426594Y0062713D01*
X0269844Y0062713D01*
X0267594Y0064963D01*
X0267594Y0085463D01*
X0269844Y0087713D01*
X0429344Y0087713D01*
X0440344Y0076713D01*
X0486094Y0076713D01*
X0494094Y0068713D01*
X0497094Y0068713D01*
X0503094Y0074713D01*
X0565773Y0074713D01*
X0565773Y0074520D01*
X0565861Y0074189D01*
X0566033Y0073893D01*
X0566275Y0073651D01*
X0566571Y0073480D01*
X0566902Y0073391D01*
X0568754Y0073391D01*
X0568754Y0074713D01*
X0568935Y0074713D01*
X0568935Y0073391D01*
X0570787Y0073391D01*
X0571118Y0073480D01*
X0571414Y0073651D01*
X0571656Y0073893D01*
X0571828Y0074189D01*
X0571916Y0074520D01*
X0571916Y0074713D01*
X0577844Y0074713D01*
X0584594Y0067963D01*
X0584594Y0056359D01*
X0584594Y0056662D02*
X0555544Y0056662D01*
X0555544Y0057660D02*
X0584594Y0057660D01*
X0584594Y0058659D02*
X0581328Y0058659D01*
X0580573Y0057905D02*
X0584174Y0061505D01*
X0584174Y0063551D01*
X0578528Y0063551D01*
X0578528Y0064551D01*
X0584174Y0064551D01*
X0584174Y0066597D01*
X0580573Y0070198D01*
X0578528Y0070198D01*
X0578528Y0064551D01*
X0577528Y0064551D01*
X0577528Y0070198D01*
X0575482Y0070198D01*
X0571881Y0066597D01*
X0571881Y0064551D01*
X0577527Y0064551D01*
X0577527Y0063551D01*
X0571881Y0063551D01*
X0571881Y0061505D01*
X0575482Y0057905D01*
X0577528Y0057905D01*
X0577528Y0063551D01*
X0578528Y0063551D01*
X0578528Y0057905D01*
X0580573Y0057905D01*
X0578528Y0058659D02*
X0577528Y0058659D01*
X0577528Y0059658D02*
X0578528Y0059658D01*
X0578528Y0060656D02*
X0577528Y0060656D01*
X0577528Y0061655D02*
X0578528Y0061655D01*
X0578528Y0062653D02*
X0577528Y0062653D01*
X0577527Y0063652D02*
X0555544Y0063652D01*
X0555544Y0064650D02*
X0571881Y0064650D01*
X0572844Y0064650D02*
X0583594Y0064650D01*
X0584174Y0064650D02*
X0584594Y0064650D01*
X0584594Y0063652D02*
X0578528Y0063652D01*
X0578528Y0064650D02*
X0577528Y0064650D01*
X0577528Y0065649D02*
X0578528Y0065649D01*
X0578528Y0066647D02*
X0577528Y0066647D01*
X0577528Y0067646D02*
X0578528Y0067646D01*
X0578528Y0068644D02*
X0577528Y0068644D01*
X0577528Y0069643D02*
X0578528Y0069643D01*
X0581128Y0069643D02*
X0582914Y0069643D01*
X0582163Y0068644D02*
X0572844Y0068644D01*
X0572844Y0069463D02*
X0581344Y0069213D01*
X0581594Y0069213D01*
X0583594Y0067213D01*
X0583594Y0058213D01*
X0572844Y0058213D01*
X0572844Y0069463D01*
X0573928Y0068644D02*
X0554885Y0068644D01*
X0554746Y0068724D02*
X0554416Y0068813D01*
X0552594Y0068813D01*
X0552594Y0060013D01*
X0551595Y0060013D01*
X0551595Y0068813D01*
X0549773Y0068813D01*
X0549443Y0068724D01*
X0549146Y0068553D01*
X0548904Y0068311D01*
X0548733Y0068014D01*
X0548644Y0067684D01*
X0548644Y0060013D01*
X0551594Y0060013D01*
X0551594Y0059013D01*
X0548644Y0059013D01*
X0548644Y0051341D01*
X0548733Y0051011D01*
X0548904Y0050714D01*
X0549146Y0050472D01*
X0549443Y0050301D01*
X0549773Y0050213D01*
X0551595Y0050213D01*
X0551595Y0059013D01*
X0552594Y0059013D01*
X0552594Y0050213D01*
X0554416Y0050213D01*
X0554746Y0050301D01*
X0555043Y0050472D01*
X0555285Y0050714D01*
X0555456Y0051011D01*
X0555544Y0051341D01*
X0555544Y0059013D01*
X0552595Y0059013D01*
X0552595Y0060013D01*
X0555544Y0060013D01*
X0555544Y0067684D01*
X0555456Y0068014D01*
X0555285Y0068311D01*
X0555043Y0068553D01*
X0554746Y0068724D01*
X0555544Y0067646D02*
X0572930Y0067646D01*
X0572844Y0067646D02*
X0583161Y0067646D01*
X0583126Y0067646D02*
X0584594Y0067646D01*
X0584594Y0066647D02*
X0584124Y0066647D01*
X0583594Y0066647D02*
X0572844Y0066647D01*
X0571931Y0066647D02*
X0555544Y0066647D01*
X0555544Y0065649D02*
X0571881Y0065649D01*
X0572844Y0065649D02*
X0583594Y0065649D01*
X0584174Y0065649D02*
X0584594Y0065649D01*
X0583594Y0063652D02*
X0572844Y0063652D01*
X0572844Y0062653D02*
X0583594Y0062653D01*
X0584174Y0062653D02*
X0584594Y0062653D01*
X0584594Y0061655D02*
X0584174Y0061655D01*
X0583594Y0061655D02*
X0572844Y0061655D01*
X0571881Y0061655D02*
X0555544Y0061655D01*
X0555544Y0062653D02*
X0571881Y0062653D01*
X0572730Y0060656D02*
X0555544Y0060656D01*
X0555544Y0058659D02*
X0574727Y0058659D01*
X0573729Y0059658D02*
X0552595Y0059658D01*
X0552594Y0060656D02*
X0551595Y0060656D01*
X0551594Y0059658D02*
X0519095Y0059658D01*
X0519095Y0060013D02*
X0522044Y0060013D01*
X0522044Y0067684D01*
X0521956Y0068014D01*
X0521785Y0068311D01*
X0521543Y0068553D01*
X0521246Y0068724D01*
X0520916Y0068813D01*
X0519094Y0068813D01*
X0519094Y0060013D01*
X0518095Y0060013D01*
X0518095Y0068813D01*
X0516273Y0068813D01*
X0515943Y0068724D01*
X0515646Y0068553D01*
X0515404Y0068311D01*
X0515233Y0068014D01*
X0515144Y0067684D01*
X0515144Y0060013D01*
X0518094Y0060013D01*
X0518094Y0059013D01*
X0515144Y0059013D01*
X0515144Y0051341D01*
X0515233Y0051011D01*
X0515404Y0050714D01*
X0515646Y0050472D01*
X0515943Y0050301D01*
X0516273Y0050213D01*
X0518095Y0050213D01*
X0518095Y0059013D01*
X0519094Y0059013D01*
X0519094Y0050213D01*
X0520916Y0050213D01*
X0521246Y0050301D01*
X0521543Y0050472D01*
X0521785Y0050714D01*
X0521956Y0051011D01*
X0522044Y0051341D01*
X0522044Y0059013D01*
X0519095Y0059013D01*
X0519095Y0060013D01*
X0519094Y0060656D02*
X0518095Y0060656D01*
X0518094Y0059658D02*
X0429650Y0059658D01*
X0428651Y0060656D02*
X0515144Y0060656D01*
X0515144Y0061655D02*
X0427653Y0061655D01*
X0426654Y0062653D02*
X0515144Y0062653D01*
X0515144Y0063652D02*
X0268906Y0063652D01*
X0267907Y0064650D02*
X0515144Y0064650D01*
X0515144Y0065649D02*
X0267594Y0065649D01*
X0267594Y0066647D02*
X0515144Y0066647D01*
X0515144Y0067646D02*
X0482959Y0067646D01*
X0482728Y0067415D02*
X0485393Y0070079D01*
X0485393Y0071463D01*
X0481345Y0071463D01*
X0481345Y0072463D01*
X0485393Y0072463D01*
X0485393Y0073846D01*
X0482728Y0076511D01*
X0481344Y0076511D01*
X0481344Y0072463D01*
X0480344Y0072463D01*
X0480344Y0071463D01*
X0476296Y0071463D01*
X0476296Y0070079D01*
X0478961Y0067415D01*
X0480344Y0067415D01*
X0480344Y0071463D01*
X0481344Y0071463D01*
X0481344Y0067415D01*
X0482728Y0067415D01*
X0481344Y0067646D02*
X0480344Y0067646D01*
X0480344Y0068644D02*
X0481344Y0068644D01*
X0481344Y0069643D02*
X0480344Y0069643D01*
X0480344Y0070641D02*
X0481344Y0070641D01*
X0481345Y0071640D02*
X0491167Y0071640D01*
X0490169Y0072638D02*
X0485393Y0072638D01*
X0485393Y0073637D02*
X0489170Y0073637D01*
X0488172Y0074635D02*
X0484604Y0074635D01*
X0483605Y0075634D02*
X0487173Y0075634D01*
X0486175Y0076632D02*
X0423345Y0076632D01*
X0423345Y0076476D02*
X0423345Y0077476D01*
X0430326Y0077476D01*
X0430326Y0080075D01*
X0425943Y0084457D01*
X0423344Y0084457D01*
X0423344Y0077476D01*
X0422344Y0077476D01*
X0422344Y0076476D01*
X0415363Y0076476D01*
X0415363Y0073878D01*
X0419746Y0069495D01*
X0422344Y0069495D01*
X0422344Y0076476D01*
X0423344Y0076476D01*
X0423344Y0069495D01*
X0425943Y0069495D01*
X0430326Y0073878D01*
X0430326Y0076476D01*
X0423345Y0076476D01*
X0423344Y0075634D02*
X0422344Y0075634D01*
X0422344Y0076632D02*
X0352345Y0076632D01*
X0352345Y0076476D02*
X0352345Y0077476D01*
X0359326Y0077476D01*
X0359326Y0080075D01*
X0354943Y0084457D01*
X0352344Y0084457D01*
X0352344Y0077476D01*
X0351344Y0077476D01*
X0351344Y0076476D01*
X0344363Y0076476D01*
X0344363Y0073878D01*
X0348746Y0069495D01*
X0351344Y0069495D01*
X0351344Y0076476D01*
X0352344Y0076476D01*
X0352344Y0069495D01*
X0354943Y0069495D01*
X0359326Y0073878D01*
X0359326Y0076476D01*
X0352345Y0076476D01*
X0352344Y0075634D02*
X0351344Y0075634D01*
X0351344Y0076632D02*
X0281095Y0076632D01*
X0281095Y0076476D02*
X0281095Y0077476D01*
X0288076Y0077476D01*
X0288076Y0080075D01*
X0283693Y0084457D01*
X0281094Y0084457D01*
X0281094Y0077476D01*
X0280094Y0077476D01*
X0280094Y0076476D01*
X0273113Y0076476D01*
X0273113Y0073878D01*
X0277496Y0069495D01*
X0280094Y0069495D01*
X0280094Y0076476D01*
X0281094Y0076476D01*
X0281094Y0069495D01*
X0283693Y0069495D01*
X0288076Y0073878D01*
X0288076Y0076476D01*
X0281095Y0076476D01*
X0281094Y0075634D02*
X0280094Y0075634D01*
X0280094Y0076632D02*
X0267594Y0076632D01*
X0267594Y0075634D02*
X0273113Y0075634D01*
X0273113Y0074635D02*
X0267594Y0074635D01*
X0267594Y0073637D02*
X0273354Y0073637D01*
X0274353Y0072638D02*
X0267594Y0072638D01*
X0267594Y0071640D02*
X0275351Y0071640D01*
X0276350Y0070641D02*
X0267594Y0070641D01*
X0267594Y0069643D02*
X0277348Y0069643D01*
X0280094Y0069643D02*
X0281094Y0069643D01*
X0281094Y0070641D02*
X0280094Y0070641D01*
X0280094Y0071640D02*
X0281094Y0071640D01*
X0281094Y0072638D02*
X0280094Y0072638D01*
X0280094Y0073637D02*
X0281094Y0073637D01*
X0281094Y0074635D02*
X0280094Y0074635D01*
X0280094Y0077476D02*
X0273113Y0077476D01*
X0273113Y0080075D01*
X0277496Y0084457D01*
X0280094Y0084457D01*
X0280094Y0077476D01*
X0280094Y0077631D02*
X0281094Y0077631D01*
X0281094Y0078629D02*
X0280094Y0078629D01*
X0280094Y0079628D02*
X0281094Y0079628D01*
X0281094Y0080626D02*
X0280094Y0080626D01*
X0280094Y0081625D02*
X0281094Y0081625D01*
X0281094Y0082623D02*
X0280094Y0082623D01*
X0280094Y0083622D02*
X0281094Y0083622D01*
X0284529Y0083622D02*
X0347910Y0083622D01*
X0348746Y0084457D02*
X0344363Y0080075D01*
X0344363Y0077476D01*
X0351344Y0077476D01*
X0351344Y0084457D01*
X0348746Y0084457D01*
X0346912Y0082623D02*
X0285527Y0082623D01*
X0286526Y0081625D02*
X0345913Y0081625D01*
X0344915Y0080626D02*
X0287524Y0080626D01*
X0288076Y0079628D02*
X0344363Y0079628D01*
X0344363Y0078629D02*
X0288076Y0078629D01*
X0288076Y0077631D02*
X0344363Y0077631D01*
X0344363Y0075634D02*
X0288076Y0075634D01*
X0288076Y0074635D02*
X0344363Y0074635D01*
X0344604Y0073637D02*
X0287835Y0073637D01*
X0286836Y0072638D02*
X0345603Y0072638D01*
X0346601Y0071640D02*
X0285838Y0071640D01*
X0284839Y0070641D02*
X0347600Y0070641D01*
X0348598Y0069643D02*
X0283841Y0069643D01*
X0273113Y0077631D02*
X0267594Y0077631D01*
X0267594Y0078629D02*
X0273113Y0078629D01*
X0273113Y0079628D02*
X0267594Y0079628D01*
X0267594Y0080626D02*
X0273665Y0080626D01*
X0274663Y0081625D02*
X0267594Y0081625D01*
X0267594Y0082623D02*
X0275662Y0082623D01*
X0276660Y0083622D02*
X0267594Y0083622D01*
X0267594Y0084620D02*
X0432437Y0084620D01*
X0433435Y0083622D02*
X0426779Y0083622D01*
X0427777Y0082623D02*
X0434434Y0082623D01*
X0435432Y0081625D02*
X0428776Y0081625D01*
X0429774Y0080626D02*
X0436431Y0080626D01*
X0437429Y0079628D02*
X0430326Y0079628D01*
X0430326Y0078629D02*
X0438428Y0078629D01*
X0439426Y0077631D02*
X0430326Y0077631D01*
X0430326Y0075634D02*
X0478084Y0075634D01*
X0478961Y0076511D02*
X0476296Y0073846D01*
X0476296Y0072463D01*
X0480344Y0072463D01*
X0480344Y0076511D01*
X0478961Y0076511D01*
X0480344Y0075634D02*
X0481344Y0075634D01*
X0481344Y0074635D02*
X0480344Y0074635D01*
X0480344Y0073637D02*
X0481344Y0073637D01*
X0481344Y0072638D02*
X0480344Y0072638D01*
X0480344Y0071640D02*
X0428088Y0071640D01*
X0429086Y0072638D02*
X0476296Y0072638D01*
X0476296Y0073637D02*
X0430085Y0073637D01*
X0430326Y0074635D02*
X0477085Y0074635D01*
X0476296Y0070641D02*
X0427089Y0070641D01*
X0426091Y0069643D02*
X0476733Y0069643D01*
X0477731Y0068644D02*
X0267594Y0068644D01*
X0267594Y0067646D02*
X0478730Y0067646D01*
X0483958Y0068644D02*
X0515804Y0068644D01*
X0518095Y0068644D02*
X0519094Y0068644D01*
X0519094Y0067646D02*
X0518095Y0067646D01*
X0518095Y0066647D02*
X0519094Y0066647D01*
X0519094Y0065649D02*
X0518095Y0065649D01*
X0518095Y0064650D02*
X0519094Y0064650D01*
X0519094Y0063652D02*
X0518095Y0063652D01*
X0518095Y0062653D02*
X0519094Y0062653D01*
X0519094Y0061655D02*
X0518095Y0061655D01*
X0518095Y0058659D02*
X0519094Y0058659D01*
X0519094Y0057660D02*
X0518095Y0057660D01*
X0518095Y0056662D02*
X0519094Y0056662D01*
X0519094Y0055663D02*
X0518095Y0055663D01*
X0518095Y0054665D02*
X0519094Y0054665D01*
X0519094Y0053666D02*
X0518095Y0053666D01*
X0518095Y0052668D02*
X0519094Y0052668D01*
X0519094Y0051669D02*
X0518095Y0051669D01*
X0518095Y0050671D02*
X0519094Y0050671D01*
X0521741Y0050671D02*
X0548948Y0050671D01*
X0548644Y0051669D02*
X0522044Y0051669D01*
X0522044Y0052668D02*
X0548644Y0052668D01*
X0548644Y0053666D02*
X0522044Y0053666D01*
X0522044Y0054665D02*
X0548644Y0054665D01*
X0548644Y0055663D02*
X0522044Y0055663D01*
X0522044Y0056662D02*
X0548644Y0056662D01*
X0548644Y0057660D02*
X0522044Y0057660D01*
X0522044Y0058659D02*
X0548644Y0058659D01*
X0548644Y0060656D02*
X0522044Y0060656D01*
X0522044Y0061655D02*
X0548644Y0061655D01*
X0548644Y0062653D02*
X0522044Y0062653D01*
X0522044Y0063652D02*
X0548644Y0063652D01*
X0548644Y0064650D02*
X0522044Y0064650D01*
X0522044Y0065649D02*
X0548644Y0065649D01*
X0548644Y0066647D02*
X0522044Y0066647D01*
X0522044Y0067646D02*
X0548644Y0067646D01*
X0549304Y0068644D02*
X0521385Y0068644D01*
X0515144Y0058659D02*
X0430648Y0058659D01*
X0431647Y0057660D02*
X0515144Y0057660D01*
X0515144Y0056662D02*
X0469184Y0056662D01*
X0469438Y0055663D02*
X0515144Y0055663D01*
X0515144Y0054665D02*
X0469438Y0054665D01*
X0469438Y0053666D02*
X0515144Y0053666D01*
X0515144Y0052668D02*
X0465095Y0052668D01*
X0465094Y0053666D02*
X0464095Y0053666D01*
X0464094Y0052668D02*
X0436639Y0052668D01*
X0435641Y0053666D02*
X0459751Y0053666D01*
X0459751Y0054665D02*
X0434642Y0054665D01*
X0433644Y0055663D02*
X0459751Y0055663D01*
X0460005Y0056662D02*
X0432645Y0056662D01*
X0430392Y0054665D02*
X0424818Y0054665D01*
X0425254Y0054548D02*
X0424307Y0054802D01*
X0423344Y0054929D01*
X0423344Y0047949D01*
X0422344Y0047949D01*
X0422344Y0046949D01*
X0415365Y0046949D01*
X0415491Y0045986D01*
X0415745Y0045039D01*
X0416120Y0044133D01*
X0416611Y0043284D01*
X0417208Y0042506D01*
X0417901Y0041812D01*
X0418679Y0041215D01*
X0419529Y0040725D01*
X0420435Y0040350D01*
X0421382Y0040096D01*
X0422344Y0039969D01*
X0422344Y0046949D01*
X0423344Y0046949D01*
X0423344Y0039969D01*
X0424307Y0040096D01*
X0425254Y0040350D01*
X0426160Y0040725D01*
X0427010Y0041215D01*
X0427788Y0041812D01*
X0428481Y0042506D01*
X0429078Y0043284D01*
X0429568Y0044133D01*
X0429944Y0045039D01*
X0430198Y0045986D01*
X0430324Y0046949D01*
X0423345Y0046949D01*
X0423345Y0047949D01*
X0430324Y0047949D01*
X0430198Y0048911D01*
X0429944Y0049859D01*
X0429568Y0050765D01*
X0429078Y0051614D01*
X0428481Y0052392D01*
X0427788Y0053085D01*
X0427010Y0053682D01*
X0426160Y0054173D01*
X0425254Y0054548D01*
X0423344Y0054665D02*
X0422344Y0054665D01*
X0422344Y0054929D02*
X0421382Y0054802D01*
X0420435Y0054548D01*
X0419529Y0054173D01*
X0418679Y0053682D01*
X0417901Y0053085D01*
X0417208Y0052392D01*
X0416611Y0051614D01*
X0416120Y0050765D01*
X0415745Y0049859D01*
X0415491Y0048911D01*
X0415365Y0047949D01*
X0422344Y0047949D01*
X0422344Y0054929D01*
X0422344Y0053666D02*
X0423344Y0053666D01*
X0423344Y0052668D02*
X0422344Y0052668D01*
X0422344Y0051669D02*
X0423344Y0051669D01*
X0423344Y0050671D02*
X0422344Y0050671D01*
X0422344Y0049672D02*
X0423344Y0049672D01*
X0423344Y0048674D02*
X0422344Y0048674D01*
X0422344Y0047675D02*
X0352345Y0047675D01*
X0352345Y0047949D02*
X0359324Y0047949D01*
X0359198Y0048911D01*
X0358944Y0049859D01*
X0358568Y0050765D01*
X0358078Y0051614D01*
X0357481Y0052392D01*
X0356788Y0053085D01*
X0356010Y0053682D01*
X0355160Y0054173D01*
X0354254Y0054548D01*
X0353307Y0054802D01*
X0352344Y0054929D01*
X0352344Y0047949D01*
X0351344Y0047949D01*
X0351344Y0046949D01*
X0344365Y0046949D01*
X0344491Y0045986D01*
X0344745Y0045039D01*
X0345120Y0044133D01*
X0345611Y0043284D01*
X0346208Y0042506D01*
X0346901Y0041812D01*
X0347679Y0041215D01*
X0348529Y0040725D01*
X0349435Y0040350D01*
X0350382Y0040096D01*
X0351344Y0039969D01*
X0351344Y0046949D01*
X0352344Y0046949D01*
X0352344Y0039969D01*
X0353307Y0040096D01*
X0354254Y0040350D01*
X0355160Y0040725D01*
X0356010Y0041215D01*
X0356788Y0041812D01*
X0357481Y0042506D01*
X0358078Y0043284D01*
X0358568Y0044133D01*
X0358944Y0045039D01*
X0359198Y0045986D01*
X0359324Y0046949D01*
X0352345Y0046949D01*
X0352345Y0047949D01*
X0352344Y0048674D02*
X0351344Y0048674D01*
X0351344Y0047949D02*
X0351344Y0054929D01*
X0350382Y0054802D01*
X0349435Y0054548D01*
X0348529Y0054173D01*
X0347679Y0053682D01*
X0346901Y0053085D01*
X0346208Y0052392D01*
X0345611Y0051614D01*
X0345120Y0050765D01*
X0344745Y0049859D01*
X0344491Y0048911D01*
X0344365Y0047949D01*
X0351344Y0047949D01*
X0351344Y0047675D02*
X0281095Y0047675D01*
X0281095Y0047949D02*
X0288074Y0047949D01*
X0287948Y0048911D01*
X0287694Y0049859D01*
X0287318Y0050765D01*
X0286828Y0051614D01*
X0286231Y0052392D01*
X0285538Y0053085D01*
X0284760Y0053682D01*
X0283910Y0054173D01*
X0283004Y0054548D01*
X0282057Y0054802D01*
X0281094Y0054929D01*
X0281094Y0047949D01*
X0280094Y0047949D01*
X0280094Y0046949D01*
X0273115Y0046949D01*
X0273241Y0045986D01*
X0273495Y0045039D01*
X0273870Y0044133D01*
X0274361Y0043284D01*
X0274958Y0042506D01*
X0275651Y0041812D01*
X0276429Y0041215D01*
X0277279Y0040725D01*
X0278185Y0040350D01*
X0279132Y0040096D01*
X0280094Y0039969D01*
X0280094Y0046949D01*
X0281094Y0046949D01*
X0281094Y0039969D01*
X0282057Y0040096D01*
X0283004Y0040350D01*
X0283910Y0040725D01*
X0284760Y0041215D01*
X0285538Y0041812D01*
X0286231Y0042506D01*
X0286828Y0043284D01*
X0287318Y0044133D01*
X0287694Y0045039D01*
X0287948Y0045986D01*
X0288074Y0046949D01*
X0281095Y0046949D01*
X0281095Y0047949D01*
X0281094Y0048674D02*
X0280094Y0048674D01*
X0280094Y0047949D02*
X0280094Y0054929D01*
X0279132Y0054802D01*
X0278185Y0054548D01*
X0277279Y0054173D01*
X0276429Y0053682D01*
X0275651Y0053085D01*
X0274958Y0052392D01*
X0274361Y0051614D01*
X0273870Y0050765D01*
X0273495Y0049859D01*
X0273241Y0048911D01*
X0273115Y0047949D01*
X0280094Y0047949D01*
X0280094Y0047675D02*
X0267732Y0047675D01*
X0267732Y0048574D02*
X0267594Y0048905D01*
X0267594Y0057463D01*
X0269844Y0059713D01*
X0425344Y0059713D01*
X0439344Y0045713D01*
X0460075Y0045713D01*
X0460011Y0045649D01*
X0459840Y0045352D01*
X0459751Y0045022D01*
X0459751Y0042201D01*
X0464094Y0042201D01*
X0464094Y0041201D01*
X0459751Y0041201D01*
X0459751Y0038380D01*
X0459840Y0038049D01*
X0460011Y0037753D01*
X0460253Y0037511D01*
X0460549Y0037340D01*
X0460880Y0037251D01*
X0464095Y0037251D01*
X0464095Y0041201D01*
X0465094Y0041201D01*
X0465094Y0037251D01*
X0468309Y0037251D01*
X0468640Y0037340D01*
X0468936Y0037511D01*
X0469178Y0037753D01*
X0469349Y0038049D01*
X0469438Y0038380D01*
X0469438Y0041201D01*
X0465095Y0041201D01*
X0465095Y0042201D01*
X0469438Y0042201D01*
X0469438Y0045022D01*
X0469349Y0045352D01*
X0469178Y0045649D01*
X0469114Y0045713D01*
X0477344Y0045713D01*
X0477545Y0045513D01*
X0475444Y0045513D01*
X0475444Y0038713D01*
X0474445Y0038713D01*
X0474445Y0045513D01*
X0471773Y0045513D01*
X0471443Y0045424D01*
X0471146Y0045253D01*
X0470904Y0045011D01*
X0470733Y0044714D01*
X0470644Y0044384D01*
X0470644Y0038713D01*
X0474444Y0038713D01*
X0474444Y0037713D01*
X0470644Y0037713D01*
X0470644Y0032041D01*
X0470733Y0031711D01*
X0470904Y0031414D01*
X0471146Y0031172D01*
X0471443Y0031001D01*
X0471773Y0030913D01*
X0474445Y0030913D01*
X0474445Y0037713D01*
X0475444Y0037713D01*
X0475444Y0030913D01*
X0478116Y0030913D01*
X0478446Y0031001D01*
X0478743Y0031172D01*
X0478985Y0031414D01*
X0479156Y0031711D01*
X0479244Y0032041D01*
X0479244Y0037713D01*
X0475445Y0037713D01*
X0475445Y0038713D01*
X0479244Y0038713D01*
X0479244Y0043813D01*
X0479594Y0043463D01*
X0479594Y0029713D01*
X0477344Y0027463D01*
X0267594Y0027463D01*
X0267594Y0045020D01*
X0267732Y0045351D01*
X0267732Y0048574D01*
X0267690Y0048674D02*
X0273210Y0048674D01*
X0273445Y0049672D02*
X0267594Y0049672D01*
X0267594Y0050671D02*
X0273832Y0050671D01*
X0274403Y0051669D02*
X0267594Y0051669D01*
X0267594Y0052668D02*
X0275234Y0052668D01*
X0276408Y0053666D02*
X0267594Y0053666D01*
X0267594Y0054665D02*
X0278621Y0054665D01*
X0280094Y0054665D02*
X0281094Y0054665D01*
X0281094Y0053666D02*
X0280094Y0053666D01*
X0280094Y0052668D02*
X0281094Y0052668D01*
X0281094Y0051669D02*
X0280094Y0051669D01*
X0280094Y0050671D02*
X0281094Y0050671D01*
X0281094Y0049672D02*
X0280094Y0049672D01*
X0280094Y0046677D02*
X0281094Y0046677D01*
X0281094Y0045678D02*
X0280094Y0045678D01*
X0280094Y0044680D02*
X0281094Y0044680D01*
X0281094Y0043681D02*
X0280094Y0043681D01*
X0280094Y0042683D02*
X0281094Y0042683D01*
X0281094Y0041684D02*
X0280094Y0041684D01*
X0280094Y0040686D02*
X0281094Y0040686D01*
X0283816Y0040686D02*
X0348623Y0040686D01*
X0347068Y0041684D02*
X0285371Y0041684D01*
X0286367Y0042683D02*
X0346072Y0042683D01*
X0345381Y0043681D02*
X0287058Y0043681D01*
X0287545Y0044680D02*
X0344894Y0044680D01*
X0344574Y0045678D02*
X0287865Y0045678D01*
X0288038Y0046677D02*
X0344400Y0046677D01*
X0344460Y0048674D02*
X0287979Y0048674D01*
X0287744Y0049672D02*
X0344695Y0049672D01*
X0345082Y0050671D02*
X0287357Y0050671D01*
X0286786Y0051669D02*
X0345653Y0051669D01*
X0346484Y0052668D02*
X0285955Y0052668D01*
X0284781Y0053666D02*
X0347658Y0053666D01*
X0349871Y0054665D02*
X0282568Y0054665D01*
X0273150Y0046677D02*
X0267732Y0046677D01*
X0267732Y0045678D02*
X0273324Y0045678D01*
X0273644Y0044680D02*
X0267594Y0044680D01*
X0267594Y0043681D02*
X0274131Y0043681D01*
X0274822Y0042683D02*
X0267594Y0042683D01*
X0267594Y0041684D02*
X0275818Y0041684D01*
X0277373Y0040686D02*
X0267594Y0040686D01*
X0267594Y0039687D02*
X0459751Y0039687D01*
X0459751Y0038689D02*
X0267594Y0038689D01*
X0267594Y0037690D02*
X0460074Y0037690D01*
X0459751Y0040686D02*
X0426066Y0040686D01*
X0427621Y0041684D02*
X0464094Y0041684D01*
X0464095Y0040686D02*
X0465094Y0040686D01*
X0465095Y0041684D02*
X0470644Y0041684D01*
X0470094Y0041684D02*
X0479594Y0041684D01*
X0479244Y0041684D01*
X0479244Y0040686D02*
X0479594Y0040686D01*
X0470094Y0040686D01*
X0470644Y0040686D02*
X0469438Y0040686D01*
X0469438Y0039687D02*
X0470644Y0039687D01*
X0470094Y0039687D02*
X0479594Y0039687D01*
X0479244Y0039687D01*
X0479594Y0038689D02*
X0475445Y0038689D01*
X0475444Y0039687D02*
X0474445Y0039687D01*
X0474444Y0038689D02*
X0469438Y0038689D01*
X0470094Y0038689D02*
X0479594Y0038689D01*
X0479594Y0037690D02*
X0479244Y0037690D01*
X0479594Y0037690D02*
X0470094Y0037690D01*
X0470644Y0037690D02*
X0469115Y0037690D01*
X0470094Y0036692D02*
X0479594Y0036692D01*
X0479244Y0036692D01*
X0479244Y0035693D02*
X0479594Y0035693D01*
X0470094Y0035693D01*
X0470644Y0035693D02*
X0267594Y0035693D01*
X0267594Y0034695D02*
X0470644Y0034695D01*
X0470094Y0034695D02*
X0479594Y0034695D01*
X0479244Y0034695D01*
X0479244Y0033696D02*
X0479594Y0033696D01*
X0470094Y0033696D01*
X0470644Y0033696D02*
X0267594Y0033696D01*
X0267594Y0032698D02*
X0470644Y0032698D01*
X0470094Y0032698D02*
X0479594Y0032698D01*
X0479244Y0032698D01*
X0479149Y0031699D02*
X0479594Y0031699D01*
X0470094Y0031699D01*
X0470740Y0031699D02*
X0267594Y0031699D01*
X0267594Y0030701D02*
X0479594Y0030701D01*
X0470094Y0030701D01*
X0470094Y0029713D02*
X0470094Y0045713D01*
X0477344Y0045713D01*
X0479594Y0043463D01*
X0479594Y0029713D01*
X0470094Y0029713D01*
X0474445Y0031699D02*
X0475444Y0031699D01*
X0475444Y0032698D02*
X0474445Y0032698D01*
X0474445Y0033696D02*
X0475444Y0033696D01*
X0475444Y0034695D02*
X0474445Y0034695D01*
X0474445Y0035693D02*
X0475444Y0035693D01*
X0475444Y0036692D02*
X0474445Y0036692D01*
X0474445Y0037690D02*
X0475444Y0037690D01*
X0475444Y0040686D02*
X0474445Y0040686D01*
X0474445Y0041684D02*
X0475444Y0041684D01*
X0475444Y0042683D02*
X0474445Y0042683D01*
X0474445Y0043681D02*
X0475444Y0043681D01*
X0475444Y0044680D02*
X0474445Y0044680D01*
X0477379Y0045678D02*
X0469148Y0045678D01*
X0470094Y0045678D02*
X0477379Y0045678D01*
X0478377Y0044680D02*
X0470094Y0044680D01*
X0470724Y0044680D02*
X0469438Y0044680D01*
X0469438Y0043681D02*
X0470644Y0043681D01*
X0470094Y0043681D02*
X0479376Y0043681D01*
X0479244Y0043681D01*
X0479244Y0042683D02*
X0479594Y0042683D01*
X0470094Y0042683D01*
X0470644Y0042683D02*
X0469438Y0042683D01*
X0465094Y0039687D02*
X0464095Y0039687D01*
X0464095Y0038689D02*
X0465094Y0038689D01*
X0465094Y0037690D02*
X0464095Y0037690D01*
X0459751Y0042683D02*
X0428617Y0042683D01*
X0429308Y0043681D02*
X0459751Y0043681D01*
X0459751Y0044680D02*
X0429795Y0044680D01*
X0430115Y0045678D02*
X0460041Y0045678D01*
X0459751Y0049672D02*
X0439635Y0049672D01*
X0438636Y0050671D02*
X0459751Y0050671D01*
X0459751Y0051669D02*
X0437638Y0051669D01*
X0435385Y0049672D02*
X0429994Y0049672D01*
X0430229Y0048674D02*
X0436383Y0048674D01*
X0437382Y0047675D02*
X0423345Y0047675D01*
X0423344Y0046677D02*
X0422344Y0046677D01*
X0422344Y0045678D02*
X0423344Y0045678D01*
X0423344Y0044680D02*
X0422344Y0044680D01*
X0422344Y0043681D02*
X0423344Y0043681D01*
X0423344Y0042683D02*
X0422344Y0042683D01*
X0422344Y0041684D02*
X0423344Y0041684D01*
X0423344Y0040686D02*
X0422344Y0040686D01*
X0419623Y0040686D02*
X0355066Y0040686D01*
X0356621Y0041684D02*
X0418068Y0041684D01*
X0417072Y0042683D02*
X0357617Y0042683D01*
X0358308Y0043681D02*
X0416381Y0043681D01*
X0415894Y0044680D02*
X0358795Y0044680D01*
X0359115Y0045678D02*
X0415574Y0045678D01*
X0415400Y0046677D02*
X0359288Y0046677D01*
X0359229Y0048674D02*
X0415460Y0048674D01*
X0415695Y0049672D02*
X0358994Y0049672D01*
X0358607Y0050671D02*
X0416082Y0050671D01*
X0416653Y0051669D02*
X0358036Y0051669D01*
X0357205Y0052668D02*
X0417484Y0052668D01*
X0418658Y0053666D02*
X0356031Y0053666D01*
X0353818Y0054665D02*
X0420871Y0054665D01*
X0427031Y0053666D02*
X0431391Y0053666D01*
X0432389Y0052668D02*
X0428205Y0052668D01*
X0429036Y0051669D02*
X0433388Y0051669D01*
X0434386Y0050671D02*
X0429607Y0050671D01*
X0430288Y0046677D02*
X0438380Y0046677D01*
X0429394Y0055663D02*
X0267594Y0055663D01*
X0267594Y0056662D02*
X0428395Y0056662D01*
X0427397Y0057660D02*
X0267792Y0057660D01*
X0268791Y0058659D02*
X0426398Y0058659D01*
X0425400Y0059658D02*
X0269789Y0059658D01*
X0246094Y0062706D02*
X0244953Y0063847D01*
X0243856Y0063847D01*
X0243856Y0064126D01*
X0242626Y0065356D01*
X0234587Y0065356D01*
X0233357Y0064126D01*
X0233357Y0055299D01*
X0233594Y0055063D01*
X0232595Y0055063D01*
X0232832Y0055299D01*
X0232832Y0064126D01*
X0231602Y0065356D01*
X0224261Y0065356D01*
X0224261Y0069882D01*
X0223555Y0070588D01*
X0224261Y0071294D01*
X0224261Y0085632D01*
X0223031Y0086862D01*
X0214205Y0086862D01*
X0212975Y0085632D01*
X0212975Y0071294D01*
X0213681Y0070588D01*
X0212975Y0069882D01*
X0212975Y0055544D01*
X0213456Y0055063D01*
X0157744Y0055063D01*
X0155594Y0057213D01*
X0155594Y0091963D01*
X0157844Y0094213D01*
X0246094Y0094213D01*
X0246094Y0062706D01*
X0246094Y0063652D02*
X0245149Y0063652D01*
X0246094Y0064650D02*
X0243332Y0064650D01*
X0246094Y0065649D02*
X0224261Y0065649D01*
X0224261Y0066647D02*
X0246094Y0066647D01*
X0246094Y0067646D02*
X0224261Y0067646D01*
X0224261Y0068644D02*
X0246094Y0068644D01*
X0246094Y0069643D02*
X0224261Y0069643D01*
X0223609Y0070641D02*
X0246094Y0070641D01*
X0246094Y0071640D02*
X0224261Y0071640D01*
X0224261Y0072638D02*
X0246094Y0072638D01*
X0246094Y0073637D02*
X0224261Y0073637D01*
X0224261Y0074635D02*
X0246094Y0074635D01*
X0246094Y0075634D02*
X0224261Y0075634D01*
X0224261Y0076632D02*
X0246094Y0076632D01*
X0246094Y0077631D02*
X0224261Y0077631D01*
X0224261Y0078629D02*
X0246094Y0078629D01*
X0246094Y0079628D02*
X0224261Y0079628D01*
X0224261Y0080626D02*
X0246094Y0080626D01*
X0246094Y0081625D02*
X0224261Y0081625D01*
X0224261Y0082623D02*
X0246094Y0082623D01*
X0246094Y0083622D02*
X0224261Y0083622D01*
X0224261Y0084620D02*
X0246094Y0084620D01*
X0246094Y0085619D02*
X0224261Y0085619D01*
X0223276Y0086617D02*
X0246094Y0086617D01*
X0246094Y0087616D02*
X0155594Y0087616D01*
X0155594Y0088614D02*
X0246094Y0088614D01*
X0246094Y0089613D02*
X0155594Y0089613D01*
X0155594Y0090611D02*
X0246094Y0090611D01*
X0246094Y0091610D02*
X0155594Y0091610D01*
X0156240Y0092608D02*
X0246094Y0092608D01*
X0246094Y0093607D02*
X0157239Y0093607D01*
X0155594Y0086617D02*
X0213960Y0086617D01*
X0212975Y0085619D02*
X0155594Y0085619D01*
X0155594Y0084620D02*
X0212975Y0084620D01*
X0212975Y0083622D02*
X0155594Y0083622D01*
X0155594Y0082623D02*
X0212975Y0082623D01*
X0212975Y0081625D02*
X0155594Y0081625D01*
X0155594Y0080626D02*
X0212975Y0080626D01*
X0212975Y0079628D02*
X0155594Y0079628D01*
X0155594Y0078629D02*
X0212975Y0078629D01*
X0212975Y0077631D02*
X0155594Y0077631D01*
X0155594Y0076632D02*
X0212975Y0076632D01*
X0212975Y0075634D02*
X0155594Y0075634D01*
X0155594Y0074635D02*
X0212975Y0074635D01*
X0212975Y0073637D02*
X0155594Y0073637D01*
X0155594Y0072638D02*
X0212975Y0072638D01*
X0212975Y0071640D02*
X0155594Y0071640D01*
X0155594Y0070641D02*
X0213627Y0070641D01*
X0212975Y0069643D02*
X0155594Y0069643D01*
X0155594Y0068644D02*
X0212975Y0068644D01*
X0212975Y0067646D02*
X0155594Y0067646D01*
X0155594Y0066647D02*
X0212975Y0066647D01*
X0212975Y0065649D02*
X0155594Y0065649D01*
X0155594Y0064650D02*
X0212975Y0064650D01*
X0212975Y0063652D02*
X0155594Y0063652D01*
X0155594Y0062653D02*
X0212975Y0062653D01*
X0212975Y0061655D02*
X0155594Y0061655D01*
X0155594Y0060656D02*
X0212975Y0060656D01*
X0212975Y0059658D02*
X0155594Y0059658D01*
X0155594Y0058659D02*
X0212975Y0058659D01*
X0212975Y0057660D02*
X0155594Y0057660D01*
X0156145Y0056662D02*
X0212975Y0056662D01*
X0212975Y0055663D02*
X0157144Y0055663D01*
X0162844Y0098213D02*
X0160594Y0100463D01*
X0160594Y0144713D01*
X0162844Y0146963D01*
X0240344Y0146963D01*
X0242594Y0144713D01*
X0242594Y0107856D01*
X0242479Y0107856D01*
X0242479Y0108321D01*
X0240203Y0110597D01*
X0236986Y0110597D01*
X0234710Y0108321D01*
X0234710Y0107856D01*
X0234587Y0107856D01*
X0233357Y0106626D01*
X0233357Y0098213D01*
X0232832Y0098213D01*
X0232832Y0106626D01*
X0231602Y0107856D01*
X0224261Y0107856D01*
X0224261Y0112632D01*
X0223555Y0113338D01*
X0224261Y0114044D01*
X0224261Y0128382D01*
X0223031Y0129612D01*
X0214205Y0129612D01*
X0212975Y0128382D01*
X0212975Y0114044D01*
X0213681Y0113338D01*
X0212975Y0112632D01*
X0212975Y0098294D01*
X0213056Y0098213D01*
X0162844Y0098213D01*
X0162458Y0098599D02*
X0212975Y0098599D01*
X0212975Y0099598D02*
X0161459Y0099598D01*
X0160594Y0100596D02*
X0212975Y0100596D01*
X0212975Y0101595D02*
X0160594Y0101595D01*
X0160594Y0102594D02*
X0212975Y0102594D01*
X0212975Y0103592D02*
X0160594Y0103592D01*
X0160594Y0104591D02*
X0212975Y0104591D01*
X0212975Y0105589D02*
X0160594Y0105589D01*
X0160594Y0106588D02*
X0212975Y0106588D01*
X0212975Y0107586D02*
X0160594Y0107586D01*
X0160594Y0108585D02*
X0212975Y0108585D01*
X0212975Y0109583D02*
X0160594Y0109583D01*
X0160594Y0110582D02*
X0212975Y0110582D01*
X0212975Y0111580D02*
X0160594Y0111580D01*
X0160594Y0112579D02*
X0212975Y0112579D01*
X0213441Y0113577D02*
X0160594Y0113577D01*
X0160594Y0114576D02*
X0212975Y0114576D01*
X0212975Y0115574D02*
X0160594Y0115574D01*
X0160594Y0116573D02*
X0212975Y0116573D01*
X0212975Y0117571D02*
X0160594Y0117571D01*
X0160594Y0118570D02*
X0212975Y0118570D01*
X0212975Y0119568D02*
X0160594Y0119568D01*
X0160594Y0120567D02*
X0212975Y0120567D01*
X0212975Y0121565D02*
X0160594Y0121565D01*
X0160594Y0122564D02*
X0212975Y0122564D01*
X0212975Y0123562D02*
X0160594Y0123562D01*
X0160594Y0124561D02*
X0212975Y0124561D01*
X0212975Y0125559D02*
X0160594Y0125559D01*
X0160594Y0126558D02*
X0212975Y0126558D01*
X0212975Y0127556D02*
X0160594Y0127556D01*
X0160594Y0128555D02*
X0213148Y0128555D01*
X0214146Y0129553D02*
X0160594Y0129553D01*
X0160594Y0130552D02*
X0242594Y0130552D01*
X0242594Y0131550D02*
X0160594Y0131550D01*
X0160594Y0132549D02*
X0242594Y0132549D01*
X0242594Y0133547D02*
X0160594Y0133547D01*
X0160594Y0134546D02*
X0242594Y0134546D01*
X0242594Y0135544D02*
X0160594Y0135544D01*
X0160594Y0136543D02*
X0242594Y0136543D01*
X0242594Y0137541D02*
X0160594Y0137541D01*
X0160594Y0138540D02*
X0242594Y0138540D01*
X0242594Y0139538D02*
X0160594Y0139538D01*
X0160594Y0140537D02*
X0242594Y0140537D01*
X0242594Y0141535D02*
X0160594Y0141535D01*
X0160594Y0142534D02*
X0242594Y0142534D01*
X0242594Y0143532D02*
X0160594Y0143532D01*
X0160594Y0144531D02*
X0242594Y0144531D01*
X0241778Y0145529D02*
X0161411Y0145529D01*
X0162410Y0146528D02*
X0240779Y0146528D01*
X0242594Y0129553D02*
X0223090Y0129553D01*
X0224088Y0128555D02*
X0242594Y0128555D01*
X0242594Y0127556D02*
X0224261Y0127556D01*
X0224261Y0126558D02*
X0242594Y0126558D01*
X0242594Y0125559D02*
X0224261Y0125559D01*
X0224261Y0124561D02*
X0242594Y0124561D01*
X0242594Y0123562D02*
X0224261Y0123562D01*
X0224261Y0122564D02*
X0242594Y0122564D01*
X0242594Y0121565D02*
X0224261Y0121565D01*
X0224261Y0120567D02*
X0242594Y0120567D01*
X0242594Y0119568D02*
X0224261Y0119568D01*
X0224261Y0118570D02*
X0242594Y0118570D01*
X0242594Y0117571D02*
X0224261Y0117571D01*
X0224261Y0116573D02*
X0242594Y0116573D01*
X0242594Y0115574D02*
X0224261Y0115574D01*
X0224261Y0114576D02*
X0242594Y0114576D01*
X0242594Y0113577D02*
X0223795Y0113577D01*
X0224261Y0112579D02*
X0242594Y0112579D01*
X0242594Y0111580D02*
X0224261Y0111580D01*
X0224261Y0110582D02*
X0236970Y0110582D01*
X0235972Y0109583D02*
X0224261Y0109583D01*
X0224261Y0108585D02*
X0234973Y0108585D01*
X0234317Y0107586D02*
X0231872Y0107586D01*
X0232832Y0106588D02*
X0233357Y0106588D01*
X0233357Y0105589D02*
X0232832Y0105589D01*
X0232832Y0104591D02*
X0233357Y0104591D01*
X0233357Y0103592D02*
X0232832Y0103592D01*
X0232832Y0102594D02*
X0233357Y0102594D01*
X0233357Y0101595D02*
X0232832Y0101595D01*
X0232832Y0100596D02*
X0233357Y0100596D01*
X0233357Y0099598D02*
X0232832Y0099598D01*
X0232832Y0098599D02*
X0233357Y0098599D01*
X0242216Y0108585D02*
X0242594Y0108585D01*
X0242594Y0109583D02*
X0241217Y0109583D01*
X0240219Y0110582D02*
X0242594Y0110582D01*
X0268749Y0086617D02*
X0430440Y0086617D01*
X0431438Y0085619D02*
X0267751Y0085619D01*
X0269748Y0087616D02*
X0429441Y0087616D01*
X0423344Y0083622D02*
X0422344Y0083622D01*
X0422344Y0084457D02*
X0419746Y0084457D01*
X0415363Y0080075D01*
X0415363Y0077476D01*
X0422344Y0077476D01*
X0422344Y0084457D01*
X0422344Y0082623D02*
X0423344Y0082623D01*
X0423344Y0081625D02*
X0422344Y0081625D01*
X0422344Y0080626D02*
X0423344Y0080626D01*
X0423344Y0079628D02*
X0422344Y0079628D01*
X0422344Y0078629D02*
X0423344Y0078629D01*
X0423344Y0077631D02*
X0422344Y0077631D01*
X0422344Y0074635D02*
X0423344Y0074635D01*
X0423344Y0073637D02*
X0422344Y0073637D01*
X0422344Y0072638D02*
X0423344Y0072638D01*
X0423344Y0071640D02*
X0422344Y0071640D01*
X0422344Y0070641D02*
X0423344Y0070641D01*
X0423344Y0069643D02*
X0422344Y0069643D01*
X0419598Y0069643D02*
X0355091Y0069643D01*
X0356089Y0070641D02*
X0418600Y0070641D01*
X0417601Y0071640D02*
X0357088Y0071640D01*
X0358086Y0072638D02*
X0416603Y0072638D01*
X0415604Y0073637D02*
X0359085Y0073637D01*
X0359326Y0074635D02*
X0415363Y0074635D01*
X0415363Y0075634D02*
X0359326Y0075634D01*
X0359326Y0077631D02*
X0415363Y0077631D01*
X0415363Y0078629D02*
X0359326Y0078629D01*
X0359326Y0079628D02*
X0415363Y0079628D01*
X0415915Y0080626D02*
X0358774Y0080626D01*
X0357776Y0081625D02*
X0416913Y0081625D01*
X0417912Y0082623D02*
X0356777Y0082623D01*
X0355779Y0083622D02*
X0418910Y0083622D01*
X0443594Y0086463D02*
X0443594Y0113963D01*
X0462428Y0113963D01*
X0466475Y0109915D01*
X0467688Y0109413D01*
X0482594Y0109413D01*
X0482594Y0093463D01*
X0480530Y0093463D01*
X0480530Y0096225D01*
X0479769Y0096987D01*
X0478085Y0096987D01*
X0478085Y0099960D01*
X0478682Y0099960D01*
X0479444Y0100721D01*
X0479444Y0107704D01*
X0478682Y0108465D01*
X0472487Y0108465D01*
X0471844Y0107823D01*
X0471202Y0108465D01*
X0465007Y0108465D01*
X0464245Y0107704D01*
X0464245Y0106713D01*
X0463944Y0106713D01*
X0463944Y0107704D01*
X0463182Y0108465D01*
X0456987Y0108465D01*
X0456307Y0107785D01*
X0456204Y0107964D01*
X0455962Y0108206D01*
X0455665Y0108377D01*
X0455335Y0108465D01*
X0453104Y0108465D01*
X0453104Y0104713D01*
X0452104Y0104713D01*
X0452104Y0108465D01*
X0449874Y0108465D01*
X0449543Y0108377D01*
X0449247Y0108206D01*
X0449005Y0107964D01*
X0448834Y0107667D01*
X0448745Y0107337D01*
X0448745Y0104713D01*
X0452104Y0104713D01*
X0452104Y0103713D01*
X0448745Y0103713D01*
X0448745Y0101089D01*
X0448834Y0100758D01*
X0449005Y0100462D01*
X0449247Y0100220D01*
X0449543Y0100048D01*
X0449874Y0099960D01*
X0452104Y0099960D01*
X0452104Y0103713D01*
X0453104Y0103713D01*
X0453104Y0099960D01*
X0455335Y0099960D01*
X0455665Y0100048D01*
X0455962Y0100220D01*
X0456204Y0100462D01*
X0456307Y0100640D01*
X0456987Y0099960D01*
X0463182Y0099960D01*
X0463944Y0100721D01*
X0463944Y0101713D01*
X0464245Y0101713D01*
X0464245Y0100721D01*
X0465007Y0099960D01*
X0471202Y0099960D01*
X0471844Y0100602D01*
X0472487Y0099960D01*
X0473085Y0099960D01*
X0473085Y0096987D01*
X0469243Y0096987D01*
X0468481Y0096225D01*
X0468481Y0085700D01*
X0469243Y0084938D01*
X0479769Y0084938D01*
X0480530Y0085700D01*
X0480530Y0088463D01*
X0482594Y0088463D01*
X0482594Y0086463D01*
X0480344Y0084213D01*
X0445844Y0084213D01*
X0443594Y0086463D01*
X0443594Y0086617D02*
X0451159Y0086617D01*
X0451159Y0086067D02*
X0451159Y0090463D01*
X0456683Y0090463D01*
X0456683Y0091463D01*
X0456683Y0096987D01*
X0452287Y0096987D01*
X0451957Y0096898D01*
X0451660Y0096727D01*
X0451418Y0096485D01*
X0451247Y0096189D01*
X0451159Y0095858D01*
X0451159Y0091463D01*
X0456683Y0091463D01*
X0457683Y0091463D01*
X0457683Y0096987D01*
X0462079Y0096987D01*
X0462409Y0096898D01*
X0462706Y0096727D01*
X0462948Y0096485D01*
X0463119Y0096189D01*
X0463207Y0095858D01*
X0463207Y0091463D01*
X0457683Y0091463D01*
X0457683Y0090463D01*
X0463207Y0090463D01*
X0463207Y0086067D01*
X0463119Y0085736D01*
X0462948Y0085440D01*
X0462706Y0085198D01*
X0462409Y0085027D01*
X0462079Y0084938D01*
X0457683Y0084938D01*
X0457683Y0090463D01*
X0456683Y0090463D01*
X0456683Y0084938D01*
X0452287Y0084938D01*
X0451957Y0085027D01*
X0451660Y0085198D01*
X0451418Y0085440D01*
X0451247Y0085736D01*
X0451159Y0086067D01*
X0451315Y0085619D02*
X0444438Y0085619D01*
X0445437Y0084620D02*
X0480752Y0084620D01*
X0480449Y0085619D02*
X0481751Y0085619D01*
X0482594Y0086617D02*
X0480530Y0086617D01*
X0480530Y0087616D02*
X0482594Y0087616D01*
X0482594Y0093607D02*
X0480530Y0093607D01*
X0480530Y0094605D02*
X0482594Y0094605D01*
X0482594Y0095604D02*
X0480530Y0095604D01*
X0480153Y0096602D02*
X0482594Y0096602D01*
X0482594Y0097601D02*
X0478085Y0097601D01*
X0478085Y0098599D02*
X0482594Y0098599D01*
X0482594Y0099598D02*
X0478085Y0099598D01*
X0479319Y0100596D02*
X0482594Y0100596D01*
X0482594Y0101595D02*
X0479444Y0101595D01*
X0479444Y0102594D02*
X0482594Y0102594D01*
X0482594Y0103592D02*
X0479444Y0103592D01*
X0479444Y0104591D02*
X0482594Y0104591D01*
X0482594Y0105589D02*
X0479444Y0105589D01*
X0479444Y0106588D02*
X0482594Y0106588D01*
X0482594Y0107586D02*
X0479444Y0107586D01*
X0482594Y0108585D02*
X0443594Y0108585D01*
X0443594Y0109583D02*
X0467276Y0109583D01*
X0465809Y0110582D02*
X0443594Y0110582D01*
X0443594Y0111580D02*
X0464810Y0111580D01*
X0463812Y0112579D02*
X0443594Y0112579D01*
X0443594Y0113577D02*
X0462813Y0113577D01*
X0463944Y0107586D02*
X0464245Y0107586D01*
X0453104Y0107586D02*
X0452104Y0107586D01*
X0452104Y0106588D02*
X0453104Y0106588D01*
X0453104Y0105589D02*
X0452104Y0105589D01*
X0452104Y0104591D02*
X0443594Y0104591D01*
X0443594Y0105589D02*
X0448745Y0105589D01*
X0448745Y0106588D02*
X0443594Y0106588D01*
X0443594Y0107586D02*
X0448812Y0107586D01*
X0448745Y0103592D02*
X0443594Y0103592D01*
X0443594Y0102594D02*
X0448745Y0102594D01*
X0448745Y0101595D02*
X0443594Y0101595D01*
X0443594Y0100596D02*
X0448927Y0100596D01*
X0452104Y0100596D02*
X0453104Y0100596D01*
X0453104Y0101595D02*
X0452104Y0101595D01*
X0452104Y0102594D02*
X0453104Y0102594D01*
X0453104Y0103592D02*
X0452104Y0103592D01*
X0456281Y0100596D02*
X0456350Y0100596D01*
X0456683Y0096602D02*
X0457683Y0096602D01*
X0457683Y0095604D02*
X0456683Y0095604D01*
X0456683Y0094605D02*
X0457683Y0094605D01*
X0457683Y0093607D02*
X0456683Y0093607D01*
X0456683Y0092608D02*
X0457683Y0092608D01*
X0457683Y0091610D02*
X0456683Y0091610D01*
X0456683Y0090611D02*
X0443594Y0090611D01*
X0443594Y0089613D02*
X0451159Y0089613D01*
X0451159Y0088614D02*
X0443594Y0088614D01*
X0443594Y0087616D02*
X0451159Y0087616D01*
X0451159Y0091610D02*
X0443594Y0091610D01*
X0443594Y0092608D02*
X0451159Y0092608D01*
X0451159Y0093607D02*
X0443594Y0093607D01*
X0443594Y0094605D02*
X0451159Y0094605D01*
X0451159Y0095604D02*
X0443594Y0095604D01*
X0443594Y0096602D02*
X0451536Y0096602D01*
X0443594Y0097601D02*
X0473085Y0097601D01*
X0473085Y0098599D02*
X0443594Y0098599D01*
X0443594Y0099598D02*
X0473085Y0099598D01*
X0471850Y0100596D02*
X0471838Y0100596D01*
X0468858Y0096602D02*
X0462831Y0096602D01*
X0463207Y0095604D02*
X0468481Y0095604D01*
X0468481Y0094605D02*
X0463207Y0094605D01*
X0463207Y0093607D02*
X0468481Y0093607D01*
X0468481Y0092608D02*
X0463207Y0092608D01*
X0463207Y0091610D02*
X0468481Y0091610D01*
X0468481Y0090611D02*
X0457683Y0090611D01*
X0457683Y0089613D02*
X0456683Y0089613D01*
X0456683Y0088614D02*
X0457683Y0088614D01*
X0457683Y0087616D02*
X0456683Y0087616D01*
X0456683Y0086617D02*
X0457683Y0086617D01*
X0457683Y0085619D02*
X0456683Y0085619D01*
X0463051Y0085619D02*
X0468562Y0085619D01*
X0468481Y0086617D02*
X0463207Y0086617D01*
X0463207Y0087616D02*
X0468481Y0087616D01*
X0468481Y0088614D02*
X0463207Y0088614D01*
X0463207Y0089613D02*
X0468481Y0089613D01*
X0464370Y0100596D02*
X0463819Y0100596D01*
X0463944Y0101595D02*
X0464245Y0101595D01*
X0494594Y0108563D02*
X0494594Y0110038D01*
X0505112Y0110038D01*
X0506107Y0111034D01*
X0506107Y0121891D01*
X0505112Y0122887D01*
X0502583Y0122887D01*
X0502583Y0125310D01*
X0503618Y0125310D01*
X0504094Y0125787D01*
X0504571Y0125310D01*
X0511098Y0125310D01*
X0511844Y0126056D01*
X0512591Y0125310D01*
X0519118Y0125310D01*
X0519877Y0126070D01*
X0519977Y0125970D01*
X0520274Y0125798D01*
X0520604Y0125710D01*
X0522835Y0125710D01*
X0522835Y0129463D01*
X0523835Y0129463D01*
X0523835Y0130463D01*
X0522835Y0130463D01*
X0522835Y0134215D01*
X0520604Y0134215D01*
X0520274Y0134127D01*
X0519977Y0133956D01*
X0519877Y0133856D01*
X0519118Y0134615D01*
X0512591Y0134615D01*
X0511844Y0133869D01*
X0511098Y0134615D01*
X0504571Y0134615D01*
X0504094Y0134138D01*
X0503618Y0134615D01*
X0497091Y0134615D01*
X0496095Y0133620D01*
X0496095Y0126306D01*
X0496783Y0125618D01*
X0496783Y0122887D01*
X0494594Y0122887D01*
X0494594Y0133463D01*
X0496844Y0135713D01*
X0532344Y0135713D01*
X0534557Y0133500D01*
X0534557Y0131101D01*
X0534594Y0131064D01*
X0534594Y0105713D01*
X0532344Y0103463D01*
X0498794Y0103463D01*
X0498794Y0107567D01*
X0497799Y0108563D01*
X0494594Y0108563D01*
X0494594Y0108585D02*
X0534594Y0108585D01*
X0534594Y0109583D02*
X0494594Y0109583D01*
X0498775Y0107586D02*
X0534594Y0107586D01*
X0534594Y0106588D02*
X0498794Y0106588D01*
X0498794Y0105589D02*
X0534471Y0105589D01*
X0533472Y0104591D02*
X0498794Y0104591D01*
X0498794Y0103592D02*
X0532474Y0103592D01*
X0534594Y0110582D02*
X0522327Y0110582D01*
X0522232Y0110527D02*
X0522529Y0110698D01*
X0522771Y0110940D01*
X0522942Y0111236D01*
X0523030Y0111567D01*
X0523030Y0115963D01*
X0517506Y0115963D01*
X0517506Y0116963D01*
X0516506Y0116963D01*
X0516506Y0122487D01*
X0512110Y0122487D01*
X0511780Y0122398D01*
X0511483Y0122227D01*
X0511241Y0121985D01*
X0511070Y0121689D01*
X0510981Y0121358D01*
X0510981Y0116963D01*
X0516506Y0116963D01*
X0516506Y0115963D01*
X0510981Y0115963D01*
X0510981Y0111567D01*
X0511070Y0111236D01*
X0511241Y0110940D01*
X0511483Y0110698D01*
X0511780Y0110527D01*
X0512110Y0110438D01*
X0516506Y0110438D01*
X0516506Y0115963D01*
X0517506Y0115963D01*
X0517506Y0110438D01*
X0521901Y0110438D01*
X0522232Y0110527D01*
X0523030Y0111580D02*
X0534594Y0111580D01*
X0534594Y0112579D02*
X0523030Y0112579D01*
X0523030Y0113577D02*
X0534594Y0113577D01*
X0534594Y0114576D02*
X0523030Y0114576D01*
X0523030Y0115574D02*
X0534594Y0115574D01*
X0534594Y0116573D02*
X0517506Y0116573D01*
X0517506Y0116963D02*
X0523030Y0116963D01*
X0523030Y0121358D01*
X0522942Y0121689D01*
X0522771Y0121985D01*
X0522529Y0122227D01*
X0522232Y0122398D01*
X0521901Y0122487D01*
X0517506Y0122487D01*
X0517506Y0116963D01*
X0517506Y0117571D02*
X0516506Y0117571D01*
X0516506Y0116573D02*
X0506107Y0116573D01*
X0506107Y0117571D02*
X0510981Y0117571D01*
X0510981Y0118570D02*
X0506107Y0118570D01*
X0506107Y0119568D02*
X0510981Y0119568D01*
X0510981Y0120567D02*
X0506107Y0120567D01*
X0506107Y0121565D02*
X0511037Y0121565D01*
X0511347Y0125559D02*
X0512342Y0125559D01*
X0516506Y0121565D02*
X0517506Y0121565D01*
X0517506Y0120567D02*
X0516506Y0120567D01*
X0516506Y0119568D02*
X0517506Y0119568D01*
X0517506Y0118570D02*
X0516506Y0118570D01*
X0516506Y0115574D02*
X0517506Y0115574D01*
X0517506Y0114576D02*
X0516506Y0114576D01*
X0516506Y0113577D02*
X0517506Y0113577D01*
X0517506Y0112579D02*
X0516506Y0112579D01*
X0516506Y0111580D02*
X0517506Y0111580D01*
X0517506Y0110582D02*
X0516506Y0110582D01*
X0511685Y0110582D02*
X0505655Y0110582D01*
X0506107Y0111580D02*
X0510981Y0111580D01*
X0510981Y0112579D02*
X0506107Y0112579D01*
X0506107Y0113577D02*
X0510981Y0113577D01*
X0510981Y0114576D02*
X0506107Y0114576D01*
X0506107Y0115574D02*
X0510981Y0115574D01*
X0505435Y0122564D02*
X0534594Y0122564D01*
X0534594Y0123562D02*
X0502583Y0123562D01*
X0502583Y0124561D02*
X0534594Y0124561D01*
X0534594Y0125559D02*
X0519367Y0125559D01*
X0522835Y0126558D02*
X0523835Y0126558D01*
X0523835Y0125710D02*
X0526065Y0125710D01*
X0526395Y0125798D01*
X0526692Y0125970D01*
X0526934Y0126212D01*
X0527105Y0126508D01*
X0527194Y0126839D01*
X0527194Y0129463D01*
X0523835Y0129463D01*
X0523835Y0125710D01*
X0523835Y0127556D02*
X0522835Y0127556D01*
X0522835Y0128555D02*
X0523835Y0128555D01*
X0523835Y0129553D02*
X0534594Y0129553D01*
X0534594Y0128555D02*
X0527194Y0128555D01*
X0527194Y0127556D02*
X0534594Y0127556D01*
X0534594Y0126558D02*
X0527118Y0126558D01*
X0527194Y0130463D02*
X0523835Y0130463D01*
X0523835Y0134215D01*
X0526065Y0134215D01*
X0526395Y0134127D01*
X0526692Y0133956D01*
X0526934Y0133714D01*
X0527105Y0133417D01*
X0527194Y0133087D01*
X0527194Y0130463D01*
X0527194Y0130552D02*
X0534594Y0130552D01*
X0534557Y0131550D02*
X0527194Y0131550D01*
X0527194Y0132549D02*
X0534557Y0132549D01*
X0534510Y0133547D02*
X0527030Y0133547D01*
X0523835Y0133547D02*
X0522835Y0133547D01*
X0522835Y0132549D02*
X0523835Y0132549D01*
X0523835Y0131550D02*
X0522835Y0131550D01*
X0522835Y0130552D02*
X0523835Y0130552D01*
X0519187Y0134546D02*
X0533511Y0134546D01*
X0532513Y0135544D02*
X0496676Y0135544D01*
X0497022Y0134546D02*
X0495678Y0134546D01*
X0496095Y0133547D02*
X0494679Y0133547D01*
X0494594Y0132549D02*
X0496095Y0132549D01*
X0496095Y0131550D02*
X0494594Y0131550D01*
X0494594Y0130552D02*
X0496095Y0130552D01*
X0496095Y0129553D02*
X0494594Y0129553D01*
X0494594Y0128555D02*
X0496095Y0128555D01*
X0496095Y0127556D02*
X0494594Y0127556D01*
X0494594Y0126558D02*
X0496095Y0126558D01*
X0496783Y0125559D02*
X0494594Y0125559D01*
X0494594Y0124561D02*
X0496783Y0124561D01*
X0496783Y0123562D02*
X0494594Y0123562D01*
X0503867Y0125559D02*
X0504322Y0125559D01*
X0504502Y0134546D02*
X0503687Y0134546D01*
X0511167Y0134546D02*
X0512522Y0134546D01*
X0513360Y0140438D02*
X0517756Y0140438D01*
X0517756Y0145963D01*
X0512231Y0145963D01*
X0512231Y0141567D01*
X0512320Y0141236D01*
X0512491Y0140940D01*
X0512733Y0140698D01*
X0513030Y0140527D01*
X0513360Y0140438D01*
X0513012Y0140537D02*
X0506860Y0140537D01*
X0507357Y0141034D02*
X0507357Y0151891D01*
X0506362Y0152887D01*
X0503833Y0152887D01*
X0503833Y0155775D01*
X0504094Y0156037D01*
X0504571Y0155560D01*
X0511098Y0155560D01*
X0511844Y0156306D01*
X0512591Y0155560D01*
X0519118Y0155560D01*
X0519877Y0156320D01*
X0519977Y0156220D01*
X0520274Y0156048D01*
X0520604Y0155960D01*
X0522835Y0155960D01*
X0522835Y0159713D01*
X0523835Y0159713D01*
X0523835Y0160713D01*
X0522835Y0160713D01*
X0522835Y0164465D01*
X0520604Y0164465D01*
X0520274Y0164377D01*
X0519977Y0164206D01*
X0519877Y0164106D01*
X0519118Y0164865D01*
X0512591Y0164865D01*
X0511844Y0164119D01*
X0511098Y0164865D01*
X0504571Y0164865D01*
X0504094Y0164388D01*
X0503618Y0164865D01*
X0497091Y0164865D01*
X0496095Y0163870D01*
X0496095Y0156556D01*
X0497091Y0155560D01*
X0498033Y0155560D01*
X0498033Y0152887D01*
X0495504Y0152887D01*
X0494594Y0151977D01*
X0494594Y0164463D01*
X0496844Y0166713D01*
X0510594Y0166713D01*
X0515594Y0171713D01*
X0532344Y0171713D01*
X0534594Y0169463D01*
X0534594Y0154862D01*
X0534557Y0154824D01*
X0534557Y0152101D01*
X0534594Y0152064D01*
X0534594Y0140963D01*
X0532344Y0138713D01*
X0494594Y0138713D01*
X0494594Y0140948D01*
X0495504Y0140038D01*
X0506362Y0140038D01*
X0507357Y0141034D01*
X0507357Y0141535D02*
X0512240Y0141535D01*
X0512231Y0142534D02*
X0507357Y0142534D01*
X0507357Y0143532D02*
X0512231Y0143532D01*
X0512231Y0144531D02*
X0507357Y0144531D01*
X0507357Y0145529D02*
X0512231Y0145529D01*
X0512231Y0146963D02*
X0517756Y0146963D01*
X0517756Y0152487D01*
X0513360Y0152487D01*
X0513030Y0152398D01*
X0512733Y0152227D01*
X0512491Y0151985D01*
X0512320Y0151689D01*
X0512231Y0151358D01*
X0512231Y0146963D01*
X0512231Y0147527D02*
X0507357Y0147527D01*
X0507357Y0148525D02*
X0512231Y0148525D01*
X0512231Y0149524D02*
X0507357Y0149524D01*
X0507357Y0150522D02*
X0512231Y0150522D01*
X0512275Y0151521D02*
X0507357Y0151521D01*
X0506730Y0152519D02*
X0534557Y0152519D01*
X0534557Y0153518D02*
X0503833Y0153518D01*
X0503833Y0154516D02*
X0534557Y0154516D01*
X0534594Y0155515D02*
X0503833Y0155515D01*
X0498033Y0155515D02*
X0494594Y0155515D01*
X0494594Y0156513D02*
X0496138Y0156513D01*
X0496095Y0157512D02*
X0494594Y0157512D01*
X0494594Y0158510D02*
X0496095Y0158510D01*
X0496095Y0159509D02*
X0494594Y0159509D01*
X0494594Y0160507D02*
X0496095Y0160507D01*
X0496095Y0161506D02*
X0494594Y0161506D01*
X0494594Y0162504D02*
X0496095Y0162504D01*
X0496095Y0163503D02*
X0494594Y0163503D01*
X0494633Y0164501D02*
X0496727Y0164501D01*
X0495632Y0165500D02*
X0534594Y0165500D01*
X0534594Y0166498D02*
X0496630Y0166498D01*
X0503982Y0164501D02*
X0504207Y0164501D01*
X0511462Y0164501D02*
X0512227Y0164501D01*
X0511379Y0167497D02*
X0534594Y0167497D01*
X0534594Y0168495D02*
X0512377Y0168495D01*
X0513376Y0169494D02*
X0534563Y0169494D01*
X0533565Y0170492D02*
X0514374Y0170492D01*
X0515373Y0171491D02*
X0532566Y0171491D01*
X0534594Y0164501D02*
X0519482Y0164501D01*
X0522835Y0163503D02*
X0523835Y0163503D01*
X0523835Y0164465D02*
X0523835Y0160713D01*
X0527194Y0160713D01*
X0527194Y0163337D01*
X0527105Y0163667D01*
X0526934Y0163964D01*
X0526692Y0164206D01*
X0526395Y0164377D01*
X0526065Y0164465D01*
X0523835Y0164465D01*
X0523835Y0162504D02*
X0522835Y0162504D01*
X0522835Y0161506D02*
X0523835Y0161506D01*
X0523835Y0160507D02*
X0534594Y0160507D01*
X0534594Y0159509D02*
X0527194Y0159509D01*
X0527194Y0159713D02*
X0523835Y0159713D01*
X0523835Y0155960D01*
X0526065Y0155960D01*
X0526395Y0156048D01*
X0526692Y0156220D01*
X0526934Y0156462D01*
X0527105Y0156758D01*
X0527194Y0157089D01*
X0527194Y0159713D01*
X0527194Y0158510D02*
X0534594Y0158510D01*
X0534594Y0157512D02*
X0527194Y0157512D01*
X0526964Y0156513D02*
X0534594Y0156513D01*
X0534594Y0161506D02*
X0527194Y0161506D01*
X0527194Y0162504D02*
X0534594Y0162504D01*
X0534594Y0163503D02*
X0527149Y0163503D01*
X0523835Y0159509D02*
X0522835Y0159509D01*
X0522835Y0158510D02*
X0523835Y0158510D01*
X0523835Y0157512D02*
X0522835Y0157512D01*
X0522835Y0156513D02*
X0523835Y0156513D01*
X0523151Y0152487D02*
X0518756Y0152487D01*
X0518756Y0146963D01*
X0517756Y0146963D01*
X0517756Y0145963D01*
X0518756Y0145963D01*
X0518756Y0146963D01*
X0524280Y0146963D01*
X0524280Y0151358D01*
X0524192Y0151689D01*
X0524021Y0151985D01*
X0523779Y0152227D01*
X0523482Y0152398D01*
X0523151Y0152487D01*
X0524237Y0151521D02*
X0534594Y0151521D01*
X0534594Y0150522D02*
X0524280Y0150522D01*
X0524280Y0149524D02*
X0534594Y0149524D01*
X0534594Y0148525D02*
X0524280Y0148525D01*
X0524280Y0147527D02*
X0534594Y0147527D01*
X0534594Y0146528D02*
X0518756Y0146528D01*
X0518756Y0145963D02*
X0524280Y0145963D01*
X0524280Y0141567D01*
X0524192Y0141236D01*
X0524021Y0140940D01*
X0523779Y0140698D01*
X0523482Y0140527D01*
X0523151Y0140438D01*
X0518756Y0140438D01*
X0518756Y0145963D01*
X0518756Y0145529D02*
X0517756Y0145529D01*
X0517756Y0144531D02*
X0518756Y0144531D01*
X0518756Y0143532D02*
X0517756Y0143532D01*
X0517756Y0142534D02*
X0518756Y0142534D01*
X0518756Y0141535D02*
X0517756Y0141535D01*
X0517756Y0140537D02*
X0518756Y0140537D01*
X0523500Y0140537D02*
X0534169Y0140537D01*
X0534594Y0141535D02*
X0524272Y0141535D01*
X0524280Y0142534D02*
X0534594Y0142534D01*
X0534594Y0143532D02*
X0524280Y0143532D01*
X0524280Y0144531D02*
X0534594Y0144531D01*
X0534594Y0145529D02*
X0524280Y0145529D01*
X0518756Y0147527D02*
X0517756Y0147527D01*
X0517756Y0148525D02*
X0518756Y0148525D01*
X0518756Y0149524D02*
X0517756Y0149524D01*
X0517756Y0150522D02*
X0518756Y0150522D01*
X0518756Y0151521D02*
X0517756Y0151521D01*
X0517756Y0146528D02*
X0507357Y0146528D01*
X0498033Y0153518D02*
X0494594Y0153518D01*
X0494594Y0154516D02*
X0498033Y0154516D01*
X0495137Y0152519D02*
X0494594Y0152519D01*
X0494594Y0140537D02*
X0495006Y0140537D01*
X0494594Y0139538D02*
X0533170Y0139538D01*
X0534594Y0121565D02*
X0522975Y0121565D01*
X0523030Y0120567D02*
X0534594Y0120567D01*
X0534594Y0119568D02*
X0523030Y0119568D01*
X0523030Y0118570D02*
X0534594Y0118570D01*
X0534594Y0117571D02*
X0523030Y0117571D01*
X0503017Y0074635D02*
X0565773Y0074635D01*
X0566299Y0073637D02*
X0502019Y0073637D01*
X0501020Y0072638D02*
X0579919Y0072638D01*
X0580917Y0071640D02*
X0500022Y0071640D01*
X0499023Y0070641D02*
X0581916Y0070641D01*
X0582127Y0068644D02*
X0583913Y0068644D01*
X0578920Y0073637D02*
X0571390Y0073637D01*
X0571916Y0074635D02*
X0577922Y0074635D01*
X0568935Y0074635D02*
X0568754Y0074635D01*
X0568754Y0073637D02*
X0568935Y0073637D01*
X0574927Y0069643D02*
X0498025Y0069643D01*
X0493164Y0069643D02*
X0484956Y0069643D01*
X0485393Y0070641D02*
X0492166Y0070641D01*
X0465094Y0056662D02*
X0464095Y0056662D01*
X0464095Y0055663D02*
X0465094Y0055663D01*
X0465094Y0054665D02*
X0464095Y0054665D01*
X0469438Y0051669D02*
X0515144Y0051669D01*
X0515448Y0050671D02*
X0469438Y0050671D01*
X0469438Y0049672D02*
X0576430Y0049672D01*
X0576430Y0050671D02*
X0555241Y0050671D01*
X0555544Y0051669D02*
X0580774Y0051669D01*
X0580774Y0052668D02*
X0581774Y0052668D01*
X0581774Y0053666D02*
X0580774Y0053666D01*
X0580774Y0054665D02*
X0581774Y0054665D01*
X0581774Y0055663D02*
X0580774Y0055663D01*
X0583594Y0058659D02*
X0572844Y0058659D01*
X0572844Y0059658D02*
X0583594Y0059658D01*
X0583594Y0060656D02*
X0572844Y0060656D01*
X0576578Y0055663D02*
X0555544Y0055663D01*
X0555544Y0054665D02*
X0576430Y0054665D01*
X0576430Y0053666D02*
X0555544Y0053666D01*
X0555544Y0052668D02*
X0576430Y0052668D01*
X0572379Y0045678D02*
X0492810Y0045678D01*
X0498844Y0045678D01*
X0498844Y0045713D02*
X0498594Y0027463D01*
X0492844Y0027463D01*
X0490594Y0029713D01*
X0490594Y0043463D01*
X0492844Y0045713D01*
X0498844Y0045713D01*
X0498830Y0044680D02*
X0491812Y0044680D01*
X0490813Y0043681D02*
X0498817Y0043681D01*
X0499044Y0043681D02*
X0515387Y0043681D01*
X0515144Y0042683D02*
X0499044Y0042683D01*
X0498803Y0042683D02*
X0490594Y0042683D01*
X0490594Y0041684D02*
X0498789Y0041684D01*
X0499044Y0041684D02*
X0515144Y0041684D01*
X0515144Y0040686D02*
X0499044Y0040686D01*
X0498776Y0040686D02*
X0490594Y0040686D01*
X0490594Y0039687D02*
X0498762Y0039687D01*
X0499044Y0039687D02*
X0515144Y0039687D01*
X0515144Y0038689D02*
X0495245Y0038689D01*
X0495244Y0039687D02*
X0494245Y0039687D01*
X0494244Y0038713D02*
X0494244Y0037713D01*
X0490594Y0037713D01*
X0490594Y0038713D01*
X0494244Y0038713D01*
X0494244Y0038689D02*
X0490594Y0038689D01*
X0498748Y0038689D01*
X0498735Y0037690D02*
X0490594Y0037690D01*
X0490594Y0036692D02*
X0498721Y0036692D01*
X0499044Y0036692D02*
X0515144Y0036692D01*
X0515144Y0037690D02*
X0499044Y0037690D01*
X0499044Y0035693D02*
X0515144Y0035693D01*
X0515144Y0033696D02*
X0499044Y0033696D01*
X0498680Y0033696D02*
X0490594Y0033696D01*
X0490594Y0032698D02*
X0498666Y0032698D01*
X0499044Y0032698D02*
X0515144Y0032698D01*
X0515144Y0031699D02*
X0498949Y0031699D01*
X0498653Y0031699D02*
X0490594Y0031699D01*
X0490594Y0030701D02*
X0515144Y0030701D01*
X0515144Y0029702D02*
X0490605Y0029702D01*
X0498625Y0029702D01*
X0498611Y0028704D02*
X0491603Y0028704D01*
X0515144Y0028704D01*
X0515144Y0027705D02*
X0492602Y0027705D01*
X0498598Y0027705D01*
X0498639Y0030701D02*
X0490594Y0030701D01*
X0494245Y0031699D02*
X0495244Y0031699D01*
X0495244Y0032698D02*
X0494245Y0032698D01*
X0494245Y0033696D02*
X0495244Y0033696D01*
X0495244Y0034695D02*
X0494245Y0034695D01*
X0494245Y0035693D02*
X0495244Y0035693D01*
X0495244Y0036692D02*
X0494245Y0036692D01*
X0494245Y0037690D02*
X0495244Y0037690D01*
X0495244Y0040686D02*
X0494245Y0040686D01*
X0494245Y0041684D02*
X0495244Y0041684D01*
X0495244Y0042683D02*
X0494245Y0042683D01*
X0494245Y0043681D02*
X0495244Y0043681D01*
X0495244Y0044680D02*
X0494245Y0044680D01*
X0498965Y0044680D02*
X0573377Y0044680D01*
X0552594Y0050671D02*
X0551595Y0050671D01*
X0551595Y0051669D02*
X0552594Y0051669D01*
X0552594Y0052668D02*
X0551595Y0052668D01*
X0551595Y0053666D02*
X0552594Y0053666D01*
X0552594Y0054665D02*
X0551595Y0054665D01*
X0551595Y0055663D02*
X0552594Y0055663D01*
X0552594Y0056662D02*
X0551595Y0056662D01*
X0551595Y0057660D02*
X0552594Y0057660D01*
X0552594Y0058659D02*
X0551595Y0058659D01*
X0551595Y0061655D02*
X0552594Y0061655D01*
X0552594Y0062653D02*
X0551595Y0062653D01*
X0551595Y0063652D02*
X0552594Y0063652D01*
X0552594Y0064650D02*
X0551595Y0064650D01*
X0551595Y0065649D02*
X0552594Y0065649D01*
X0552594Y0066647D02*
X0551595Y0066647D01*
X0551595Y0067646D02*
X0552594Y0067646D01*
X0552594Y0068644D02*
X0551595Y0068644D01*
X0582326Y0059658D02*
X0584594Y0059658D01*
X0584594Y0060656D02*
X0583325Y0060656D01*
X0593594Y0065649D02*
X0605594Y0065649D01*
X0605828Y0065649D02*
X0617594Y0065649D01*
X0617594Y0066647D02*
X0605778Y0066647D01*
X0605594Y0066647D02*
X0593594Y0066647D01*
X0593594Y0066657D02*
X0593594Y0069713D01*
X0596650Y0069713D01*
X0593594Y0066657D01*
X0593594Y0067646D02*
X0605594Y0067646D01*
X0604779Y0067646D02*
X0616661Y0067646D01*
X0615663Y0068644D02*
X0603781Y0068644D01*
X0602782Y0069643D02*
X0614664Y0069643D01*
X0617594Y0064650D02*
X0605828Y0064650D01*
X0605594Y0068644D02*
X0593594Y0068644D01*
X0595582Y0068644D01*
X0596580Y0069643D02*
X0593594Y0069643D01*
X0605594Y0069643D01*
X0600181Y0063652D02*
X0617594Y0063652D01*
X0594583Y0067646D02*
X0593594Y0067646D01*
X0551594Y0034695D02*
X0519095Y0034695D01*
X0519094Y0035693D02*
X0518095Y0035693D01*
X0518094Y0034695D02*
X0499044Y0034695D01*
X0498694Y0034695D02*
X0490594Y0034695D01*
X0490594Y0035693D02*
X0498707Y0035693D01*
X0518095Y0036692D02*
X0519094Y0036692D01*
X0519094Y0037690D02*
X0518095Y0037690D01*
X0518095Y0038689D02*
X0519094Y0038689D01*
X0519094Y0039687D02*
X0518095Y0039687D01*
X0518095Y0040686D02*
X0519094Y0040686D01*
X0519094Y0041684D02*
X0518095Y0041684D01*
X0518095Y0042683D02*
X0519094Y0042683D01*
X0519094Y0043681D02*
X0518095Y0043681D01*
X0479584Y0029702D02*
X0267594Y0029702D01*
X0267594Y0028704D02*
X0478586Y0028704D01*
X0477587Y0027705D02*
X0267594Y0027705D01*
X0267594Y0036692D02*
X0470644Y0036692D01*
X0352344Y0040686D02*
X0351344Y0040686D01*
X0351344Y0041684D02*
X0352344Y0041684D01*
X0352344Y0042683D02*
X0351344Y0042683D01*
X0351344Y0043681D02*
X0352344Y0043681D01*
X0352344Y0044680D02*
X0351344Y0044680D01*
X0351344Y0045678D02*
X0352344Y0045678D01*
X0352344Y0046677D02*
X0351344Y0046677D01*
X0351344Y0049672D02*
X0352344Y0049672D01*
X0352344Y0050671D02*
X0351344Y0050671D01*
X0351344Y0051669D02*
X0352344Y0051669D01*
X0352344Y0052668D02*
X0351344Y0052668D01*
X0351344Y0053666D02*
X0352344Y0053666D01*
X0352344Y0054665D02*
X0351344Y0054665D01*
X0351344Y0069643D02*
X0352344Y0069643D01*
X0352344Y0070641D02*
X0351344Y0070641D01*
X0351344Y0071640D02*
X0352344Y0071640D01*
X0352344Y0072638D02*
X0351344Y0072638D01*
X0351344Y0073637D02*
X0352344Y0073637D01*
X0352344Y0074635D02*
X0351344Y0074635D01*
X0351344Y0077631D02*
X0352344Y0077631D01*
X0352344Y0078629D02*
X0351344Y0078629D01*
X0351344Y0079628D02*
X0352344Y0079628D01*
X0352344Y0080626D02*
X0351344Y0080626D01*
X0351344Y0081625D02*
X0352344Y0081625D01*
X0352344Y0082623D02*
X0351344Y0082623D01*
X0351344Y0083622D02*
X0352344Y0083622D01*
X0292094Y0104722D02*
X0289022Y0101650D01*
X0281333Y0101650D01*
X0280083Y0102900D01*
X0280094Y0107976D01*
X0275094Y0128449D02*
X0275083Y0134150D01*
X0298045Y0157512D02*
X0359392Y0157512D01*
X0359392Y0156713D02*
X0298844Y0156713D01*
X0296594Y0158963D01*
X0296594Y0168263D01*
X0325428Y0168263D01*
X0326316Y0167375D01*
X0328873Y0167375D01*
X0330682Y0169184D01*
X0330682Y0171741D01*
X0328873Y0173550D01*
X0326316Y0173550D01*
X0325428Y0172663D01*
X0296594Y0172663D01*
X0296594Y0178763D01*
X0341678Y0178763D01*
X0342566Y0177875D01*
X0345123Y0177875D01*
X0346932Y0179684D01*
X0346932Y0182241D01*
X0345123Y0184050D01*
X0342566Y0184050D01*
X0341678Y0183163D01*
X0296594Y0183163D01*
X0296594Y0209210D01*
X0299892Y0205913D01*
X0323642Y0205913D01*
X0324007Y0205547D01*
X0324007Y0204434D01*
X0325816Y0202625D01*
X0328373Y0202625D01*
X0330151Y0204403D01*
X0330892Y0203663D01*
X0347007Y0203663D01*
X0347007Y0201184D01*
X0348816Y0199375D01*
X0351373Y0199375D01*
X0352361Y0200363D01*
X0357475Y0200363D01*
X0358994Y0198843D01*
X0358994Y0196141D01*
X0358932Y0196204D01*
X0358932Y0197232D01*
X0357123Y0199040D01*
X0354566Y0199040D01*
X0352757Y0197232D01*
X0352757Y0194674D01*
X0353418Y0194013D01*
X0343892Y0194013D01*
X0340929Y0191050D01*
X0339816Y0191050D01*
X0338007Y0189241D01*
X0338007Y0186684D01*
X0339816Y0184875D01*
X0342373Y0184875D01*
X0344182Y0186684D01*
X0344182Y0187797D01*
X0345797Y0189413D01*
X0353528Y0189413D01*
X0354316Y0188625D01*
X0354429Y0188625D01*
X0354094Y0188291D01*
X0354094Y0171329D01*
X0353007Y0170241D01*
X0353007Y0167684D01*
X0354816Y0165875D01*
X0357373Y0165875D01*
X0359182Y0167684D01*
X0359182Y0170241D01*
X0358094Y0171329D01*
X0358094Y0186634D01*
X0358994Y0187534D01*
X0358994Y0186479D01*
X0358757Y0186241D01*
X0358757Y0183684D01*
X0359544Y0182896D01*
X0359544Y0169786D01*
X0359392Y0169633D01*
X0359392Y0163272D01*
X0359952Y0162713D01*
X0359392Y0162153D01*
X0359392Y0156713D01*
X0359392Y0158510D02*
X0297047Y0158510D01*
X0296594Y0159509D02*
X0359392Y0159509D01*
X0359392Y0160507D02*
X0296594Y0160507D01*
X0296594Y0161506D02*
X0359392Y0161506D01*
X0359743Y0162504D02*
X0296594Y0162504D01*
X0296594Y0163503D02*
X0359392Y0163503D01*
X0359392Y0164501D02*
X0296594Y0164501D01*
X0296594Y0165500D02*
X0359392Y0165500D01*
X0359392Y0166498D02*
X0357996Y0166498D01*
X0358995Y0167497D02*
X0359392Y0167497D01*
X0359392Y0168495D02*
X0359182Y0168495D01*
X0359182Y0169494D02*
X0359392Y0169494D01*
X0359544Y0170492D02*
X0358931Y0170492D01*
X0359544Y0171491D02*
X0358094Y0171491D01*
X0358094Y0172489D02*
X0359544Y0172489D01*
X0359544Y0173488D02*
X0358094Y0173488D01*
X0358094Y0174486D02*
X0359544Y0174486D01*
X0359544Y0175485D02*
X0358094Y0175485D01*
X0358094Y0176483D02*
X0359544Y0176483D01*
X0359544Y0177482D02*
X0358094Y0177482D01*
X0358094Y0178480D02*
X0359544Y0178480D01*
X0359544Y0179479D02*
X0358094Y0179479D01*
X0358094Y0180477D02*
X0359544Y0180477D01*
X0359544Y0181476D02*
X0358094Y0181476D01*
X0358094Y0182474D02*
X0359544Y0182474D01*
X0358968Y0183473D02*
X0358094Y0183473D01*
X0358094Y0184471D02*
X0358757Y0184471D01*
X0358757Y0185470D02*
X0358094Y0185470D01*
X0358094Y0186468D02*
X0358984Y0186468D01*
X0358994Y0187467D02*
X0358927Y0187467D01*
X0358844Y0190213D02*
X0356094Y0187463D01*
X0356094Y0168963D01*
X0354193Y0166498D02*
X0296594Y0166498D01*
X0296594Y0167497D02*
X0326194Y0167497D01*
X0328995Y0167497D02*
X0353194Y0167497D01*
X0353007Y0168495D02*
X0329993Y0168495D01*
X0330682Y0169494D02*
X0353007Y0169494D01*
X0353258Y0170492D02*
X0330682Y0170492D01*
X0330682Y0171491D02*
X0354094Y0171491D01*
X0354094Y0172489D02*
X0329934Y0172489D01*
X0328935Y0173488D02*
X0354094Y0173488D01*
X0354094Y0174486D02*
X0296594Y0174486D01*
X0296594Y0173488D02*
X0326253Y0173488D01*
X0341960Y0178480D02*
X0296594Y0178480D01*
X0296594Y0177482D02*
X0354094Y0177482D01*
X0354094Y0178480D02*
X0345728Y0178480D01*
X0346727Y0179479D02*
X0354094Y0179479D01*
X0354094Y0180477D02*
X0346932Y0180477D01*
X0346932Y0181476D02*
X0354094Y0181476D01*
X0354094Y0182474D02*
X0346699Y0182474D01*
X0345700Y0183473D02*
X0354094Y0183473D01*
X0354094Y0184471D02*
X0296594Y0184471D01*
X0296594Y0183473D02*
X0341989Y0183473D01*
X0342968Y0185470D02*
X0354094Y0185470D01*
X0354094Y0186468D02*
X0343967Y0186468D01*
X0344182Y0187467D02*
X0354094Y0187467D01*
X0354269Y0188465D02*
X0344850Y0188465D01*
X0341340Y0191461D02*
X0296594Y0191461D01*
X0296594Y0190462D02*
X0339228Y0190462D01*
X0338230Y0189464D02*
X0296594Y0189464D01*
X0296594Y0188465D02*
X0338007Y0188465D01*
X0338007Y0187467D02*
X0296594Y0187467D01*
X0296594Y0186468D02*
X0338222Y0186468D01*
X0339221Y0185470D02*
X0296594Y0185470D01*
X0296594Y0192460D02*
X0342339Y0192460D01*
X0343337Y0193458D02*
X0296594Y0193458D01*
X0296594Y0194457D02*
X0352974Y0194457D01*
X0352757Y0195455D02*
X0296594Y0195455D01*
X0296594Y0196454D02*
X0352757Y0196454D01*
X0352978Y0197452D02*
X0296594Y0197452D01*
X0296594Y0198451D02*
X0353976Y0198451D01*
X0351447Y0199449D02*
X0358388Y0199449D01*
X0358994Y0198451D02*
X0357713Y0198451D01*
X0358711Y0197452D02*
X0358994Y0197452D01*
X0358994Y0196454D02*
X0358932Y0196454D01*
X0356354Y0195953D02*
X0358844Y0193463D01*
X0358844Y0190213D01*
X0356354Y0195953D02*
X0355844Y0195953D01*
X0348742Y0199449D02*
X0296594Y0199449D01*
X0296594Y0200448D02*
X0347743Y0200448D01*
X0347007Y0201446D02*
X0296594Y0201446D01*
X0296594Y0202445D02*
X0347007Y0202445D01*
X0347007Y0203443D02*
X0329191Y0203443D01*
X0324998Y0203443D02*
X0296594Y0203443D01*
X0296594Y0204442D02*
X0324007Y0204442D01*
X0324007Y0205440D02*
X0296594Y0205440D01*
X0296594Y0206439D02*
X0299366Y0206439D01*
X0298367Y0207437D02*
X0296594Y0207437D01*
X0296594Y0208436D02*
X0297369Y0208436D01*
X0302881Y0213428D02*
X0317300Y0213428D01*
X0317466Y0213263D02*
X0303047Y0213263D01*
X0300685Y0215625D01*
X0301123Y0215625D01*
X0302932Y0217434D01*
X0302932Y0219375D01*
X0305123Y0219375D01*
X0306932Y0221184D01*
X0306932Y0223741D01*
X0305123Y0225550D01*
X0302566Y0225550D01*
X0301578Y0224563D01*
X0298964Y0224563D01*
X0296594Y0226932D01*
X0296594Y0227713D01*
X0299805Y0230923D01*
X0317466Y0213263D01*
X0316302Y0214427D02*
X0301883Y0214427D01*
X0300884Y0215425D02*
X0315303Y0215425D01*
X0314305Y0216424D02*
X0301922Y0216424D01*
X0302920Y0217422D02*
X0313306Y0217422D01*
X0312308Y0218421D02*
X0302932Y0218421D01*
X0305167Y0219419D02*
X0311309Y0219419D01*
X0310311Y0220418D02*
X0306166Y0220418D01*
X0306932Y0221416D02*
X0309312Y0221416D01*
X0308314Y0222415D02*
X0306932Y0222415D01*
X0306932Y0223413D02*
X0307315Y0223413D01*
X0306317Y0224412D02*
X0306261Y0224412D01*
X0305318Y0225410D02*
X0305263Y0225410D01*
X0304320Y0226409D02*
X0297118Y0226409D01*
X0296594Y0227407D02*
X0303321Y0227407D01*
X0302323Y0228406D02*
X0297288Y0228406D01*
X0298286Y0229404D02*
X0301324Y0229404D01*
X0300326Y0230403D02*
X0299285Y0230403D01*
X0299094Y0234463D02*
X0294594Y0234463D01*
X0299094Y0234463D02*
X0320094Y0213463D01*
X0328094Y0213463D01*
X0332094Y0209463D01*
X0345094Y0209463D01*
X0345104Y0209472D01*
X0345104Y0215713D01*
X0341045Y0212812D02*
X0341045Y0212139D01*
X0341721Y0211463D01*
X0332923Y0211463D01*
X0331014Y0213372D01*
X0331014Y0215728D01*
X0331982Y0215728D01*
X0331982Y0212944D01*
X0333835Y0212944D01*
X0334165Y0213033D01*
X0334462Y0213204D01*
X0334703Y0213445D01*
X0335404Y0212744D01*
X0340978Y0212744D01*
X0341045Y0212812D01*
X0341045Y0212430D02*
X0331956Y0212430D01*
X0331982Y0213428D02*
X0331014Y0213428D01*
X0331014Y0214427D02*
X0331982Y0214427D01*
X0331982Y0215425D02*
X0331014Y0215425D01*
X0331014Y0215728D02*
X0328033Y0215728D01*
X0328033Y0215463D01*
X0320923Y0215463D01*
X0302634Y0233752D01*
X0305094Y0236213D01*
X0336094Y0236213D01*
X0338344Y0238463D01*
X0338344Y0250243D01*
X0339464Y0251363D01*
X0341045Y0251363D01*
X0341045Y0249889D01*
X0341497Y0249437D01*
X0341331Y0249392D01*
X0341034Y0249221D01*
X0340792Y0248979D01*
X0340621Y0248683D01*
X0340533Y0248352D01*
X0340533Y0246697D01*
X0343514Y0246697D01*
X0343514Y0245728D01*
X0344482Y0245728D01*
X0344482Y0242944D01*
X0346335Y0242944D01*
X0346665Y0243033D01*
X0346744Y0243079D01*
X0346744Y0242396D01*
X0346710Y0242431D01*
X0340743Y0242431D01*
X0339864Y0241552D01*
X0339864Y0236373D01*
X0340743Y0235494D01*
X0346710Y0235494D01*
X0346744Y0235529D01*
X0346744Y0235465D01*
X0345604Y0235465D01*
X0345604Y0231713D01*
X0344604Y0231713D01*
X0344604Y0235465D01*
X0342374Y0235465D01*
X0342043Y0235377D01*
X0341747Y0235206D01*
X0341505Y0234964D01*
X0341334Y0234667D01*
X0341245Y0234337D01*
X0341245Y0231713D01*
X0344604Y0231713D01*
X0344604Y0230713D01*
X0341245Y0230713D01*
X0341245Y0228089D01*
X0341334Y0227758D01*
X0341505Y0227462D01*
X0341629Y0227338D01*
X0341505Y0227214D01*
X0341334Y0226917D01*
X0341245Y0226587D01*
X0341245Y0223963D01*
X0344604Y0223963D01*
X0344604Y0227715D01*
X0344604Y0230713D01*
X0345604Y0230713D01*
X0345604Y0223963D01*
X0344604Y0223963D01*
X0344604Y0222963D01*
X0341245Y0222963D01*
X0341245Y0220339D01*
X0341334Y0220008D01*
X0341492Y0219734D01*
X0341209Y0219450D01*
X0340978Y0219681D01*
X0335404Y0219681D01*
X0334703Y0218980D01*
X0334462Y0219221D01*
X0334165Y0219392D01*
X0333835Y0219481D01*
X0331982Y0219481D01*
X0331982Y0216697D01*
X0331014Y0216697D01*
X0331014Y0219481D01*
X0329162Y0219481D01*
X0328831Y0219392D01*
X0328534Y0219221D01*
X0328292Y0218979D01*
X0328121Y0218683D01*
X0328033Y0218352D01*
X0328033Y0216697D01*
X0331014Y0216697D01*
X0331014Y0215728D01*
X0331014Y0216424D02*
X0319962Y0216424D01*
X0318963Y0217422D02*
X0328033Y0217422D01*
X0328051Y0218421D02*
X0317965Y0218421D01*
X0316966Y0219419D02*
X0328931Y0219419D01*
X0331014Y0219419D02*
X0331982Y0219419D01*
X0331982Y0218421D02*
X0331014Y0218421D01*
X0331014Y0217422D02*
X0331982Y0217422D01*
X0334065Y0219419D02*
X0335143Y0219419D01*
X0341245Y0220418D02*
X0315968Y0220418D01*
X0314969Y0221416D02*
X0341245Y0221416D01*
X0341245Y0222415D02*
X0313971Y0222415D01*
X0312972Y0223413D02*
X0344604Y0223413D01*
X0344604Y0224412D02*
X0345604Y0224412D01*
X0345604Y0225410D02*
X0344604Y0225410D01*
X0344604Y0226409D02*
X0345604Y0226409D01*
X0345604Y0227407D02*
X0344604Y0227407D01*
X0344604Y0228406D02*
X0345604Y0228406D01*
X0345604Y0229404D02*
X0344604Y0229404D01*
X0344604Y0230403D02*
X0345604Y0230403D01*
X0344604Y0231401D02*
X0304984Y0231401D01*
X0305983Y0230403D02*
X0341245Y0230403D01*
X0341245Y0229404D02*
X0306981Y0229404D01*
X0307980Y0228406D02*
X0341245Y0228406D01*
X0341559Y0227407D02*
X0308978Y0227407D01*
X0309977Y0226409D02*
X0341245Y0226409D01*
X0341245Y0225410D02*
X0310975Y0225410D01*
X0311974Y0224412D02*
X0341245Y0224412D01*
X0341245Y0232400D02*
X0303986Y0232400D01*
X0302987Y0233398D02*
X0341245Y0233398D01*
X0341261Y0234397D02*
X0303279Y0234397D01*
X0304277Y0235396D02*
X0342114Y0235396D01*
X0339864Y0236394D02*
X0336276Y0236394D01*
X0337274Y0237393D02*
X0339864Y0237393D01*
X0339864Y0238391D02*
X0338273Y0238391D01*
X0338344Y0239390D02*
X0339864Y0239390D01*
X0339864Y0240388D02*
X0338344Y0240388D01*
X0338344Y0241387D02*
X0339864Y0241387D01*
X0340697Y0242385D02*
X0338344Y0242385D01*
X0338344Y0243384D02*
X0340855Y0243384D01*
X0340792Y0243446D02*
X0341034Y0243204D01*
X0341331Y0243033D01*
X0341662Y0242944D01*
X0343514Y0242944D01*
X0343514Y0245728D01*
X0340533Y0245728D01*
X0340533Y0244073D01*
X0340621Y0243742D01*
X0340792Y0243446D01*
X0340533Y0244382D02*
X0338344Y0244382D01*
X0338344Y0245381D02*
X0340533Y0245381D01*
X0340533Y0247378D02*
X0338344Y0247378D01*
X0338344Y0248376D02*
X0340539Y0248376D01*
X0341300Y0249375D02*
X0338344Y0249375D01*
X0338475Y0250373D02*
X0341045Y0250373D01*
X0343514Y0246379D02*
X0338344Y0246379D01*
X0343514Y0245381D02*
X0344482Y0245381D01*
X0344482Y0244382D02*
X0343514Y0244382D01*
X0343514Y0243384D02*
X0344482Y0243384D01*
X0350944Y0242744D02*
X0353478Y0242744D01*
X0354356Y0243623D01*
X0354356Y0248802D01*
X0354149Y0249010D01*
X0355765Y0249010D01*
X0356644Y0249889D01*
X0356644Y0256863D01*
X0358295Y0256863D01*
X0358295Y0249889D01*
X0359174Y0249010D01*
X0365535Y0249010D01*
X0366094Y0249570D01*
X0366654Y0249010D01*
X0369577Y0249010D01*
X0373549Y0245038D01*
X0373395Y0245127D01*
X0373065Y0245215D01*
X0370835Y0245215D01*
X0370835Y0241463D01*
X0369835Y0241463D01*
X0369835Y0245215D01*
X0367604Y0245215D01*
X0367274Y0245127D01*
X0366977Y0244956D01*
X0366736Y0244714D01*
X0366035Y0245415D01*
X0359674Y0245415D01*
X0358795Y0244537D01*
X0358795Y0241063D01*
X0357825Y0241063D01*
X0357825Y0241552D01*
X0356946Y0242431D01*
X0350979Y0242431D01*
X0350944Y0242396D01*
X0350944Y0242744D01*
X0354117Y0243384D02*
X0358795Y0243384D01*
X0358795Y0244382D02*
X0354356Y0244382D01*
X0354356Y0245381D02*
X0359639Y0245381D01*
X0358795Y0242385D02*
X0356992Y0242385D01*
X0357825Y0241387D02*
X0358795Y0241387D01*
X0358871Y0236863D02*
X0357825Y0236863D01*
X0357825Y0236373D01*
X0356946Y0235494D01*
X0355936Y0235494D01*
X0356644Y0234787D01*
X0356644Y0230133D01*
X0359194Y0227582D01*
X0359194Y0222582D01*
X0359734Y0222043D01*
X0360711Y0222043D01*
X0361111Y0222443D01*
X0360413Y0223140D01*
X0360413Y0226745D01*
X0361292Y0227624D01*
X0368637Y0227624D01*
X0369516Y0226745D01*
X0369516Y0224870D01*
X0370673Y0223713D01*
X0371844Y0222541D01*
X0371844Y0219791D01*
X0374586Y0217050D01*
X0376123Y0217050D01*
X0377932Y0215241D01*
X0377932Y0212684D01*
X0376123Y0210875D01*
X0373566Y0210875D01*
X0371757Y0212684D01*
X0371757Y0214222D01*
X0369516Y0216463D01*
X0369516Y0213140D01*
X0368640Y0212265D01*
X0368814Y0212164D01*
X0369056Y0211922D01*
X0369227Y0211626D01*
X0369316Y0211295D01*
X0369316Y0210033D01*
X0365055Y0210033D01*
X0365055Y0209852D01*
X0365055Y0207462D01*
X0368187Y0207462D01*
X0368518Y0207550D01*
X0368814Y0207722D01*
X0369056Y0207964D01*
X0369227Y0208260D01*
X0369316Y0208591D01*
X0369316Y0209852D01*
X0365055Y0209852D01*
X0364874Y0209852D01*
X0364874Y0207462D01*
X0361742Y0207462D01*
X0361412Y0207550D01*
X0361115Y0207722D01*
X0360873Y0207964D01*
X0360702Y0208260D01*
X0360613Y0208591D01*
X0360613Y0209852D01*
X0364874Y0209852D01*
X0364874Y0210033D01*
X0360613Y0210033D01*
X0360613Y0211295D01*
X0360702Y0211626D01*
X0360873Y0211922D01*
X0361115Y0212164D01*
X0361289Y0212265D01*
X0360711Y0212843D01*
X0356644Y0212843D01*
X0356644Y0212139D01*
X0355765Y0211260D01*
X0355663Y0211260D01*
X0356182Y0210741D01*
X0356182Y0208263D01*
X0359297Y0208263D01*
X0364547Y0203013D01*
X0365894Y0201665D01*
X0365894Y0189415D01*
X0367760Y0187550D01*
X0368123Y0187550D01*
X0369932Y0185741D01*
X0369932Y0183184D01*
X0368123Y0181375D01*
X0365566Y0181375D01*
X0364144Y0182796D01*
X0364144Y0170512D01*
X0367419Y0170512D01*
X0368297Y0169633D01*
X0368297Y0163272D01*
X0367737Y0162713D01*
X0368297Y0162153D01*
X0368297Y0158513D01*
X0372778Y0158513D01*
X0373066Y0158800D01*
X0375623Y0158800D01*
X0375911Y0158513D01*
X0389642Y0158513D01*
X0394544Y0163415D01*
X0394544Y0223046D01*
X0394373Y0222875D01*
X0393977Y0222875D01*
X0393444Y0222343D01*
X0393444Y0210093D01*
X0392214Y0208863D01*
X0391214Y0207863D01*
X0390498Y0207863D01*
X0389897Y0207262D01*
X0386194Y0207262D01*
X0386194Y0206238D01*
X0386471Y0206312D01*
X0389095Y0206312D01*
X0389095Y0202953D01*
X0390094Y0202953D01*
X0390094Y0206312D01*
X0392718Y0206312D01*
X0393049Y0206223D01*
X0393345Y0206052D01*
X0393587Y0205810D01*
X0393759Y0205514D01*
X0393847Y0205183D01*
X0393847Y0202953D01*
X0390095Y0202953D01*
X0390095Y0201953D01*
X0393847Y0201953D01*
X0393847Y0199723D01*
X0393759Y0199392D01*
X0393587Y0199095D01*
X0393346Y0198854D01*
X0394047Y0198153D01*
X0394047Y0191792D01*
X0393169Y0190913D01*
X0391767Y0190913D01*
X0391785Y0189915D01*
X0392765Y0189915D01*
X0393644Y0189037D01*
X0393644Y0181889D01*
X0392932Y0181177D01*
X0392932Y0179684D01*
X0391123Y0177875D01*
X0388566Y0177875D01*
X0387431Y0179010D01*
X0387431Y0174613D01*
X0386552Y0173734D01*
X0379798Y0173734D01*
X0378919Y0174613D01*
X0378919Y0179793D01*
X0379244Y0180118D01*
X0379244Y0181010D01*
X0378924Y0181010D01*
X0378063Y0181871D01*
X0378063Y0181829D01*
X0377184Y0180951D01*
X0372005Y0180951D01*
X0371126Y0181829D01*
X0371126Y0187403D01*
X0371827Y0188104D01*
X0371586Y0188345D01*
X0371415Y0188642D01*
X0371326Y0188973D01*
X0371326Y0190825D01*
X0374110Y0190825D01*
X0374110Y0191793D01*
X0371326Y0191793D01*
X0371326Y0193646D01*
X0371415Y0193976D01*
X0371586Y0194273D01*
X0371828Y0194515D01*
X0372124Y0194686D01*
X0372455Y0194774D01*
X0374110Y0194774D01*
X0374110Y0191793D01*
X0375079Y0191793D01*
X0377749Y0191793D01*
X0377851Y0191615D01*
X0378094Y0191373D01*
X0378390Y0191202D01*
X0378721Y0191113D01*
X0381345Y0191113D01*
X0381345Y0194472D01*
X0382344Y0194472D01*
X0382344Y0191113D01*
X0384968Y0191113D01*
X0385299Y0191202D01*
X0385573Y0191360D01*
X0386020Y0190913D01*
X0387567Y0190913D01*
X0387584Y0189915D01*
X0386404Y0189915D01*
X0385844Y0189356D01*
X0385285Y0189915D01*
X0378924Y0189915D01*
X0378045Y0189037D01*
X0378045Y0187421D01*
X0377362Y0188104D01*
X0377603Y0188345D01*
X0377774Y0188642D01*
X0377863Y0188973D01*
X0377863Y0190825D01*
X0375079Y0190825D01*
X0375079Y0191793D01*
X0375079Y0194774D01*
X0376734Y0194774D01*
X0377065Y0194686D01*
X0377361Y0194515D01*
X0377592Y0194284D01*
X0377592Y0194472D01*
X0381344Y0194472D01*
X0381344Y0195472D01*
X0377592Y0195472D01*
X0377592Y0197703D01*
X0377680Y0198033D01*
X0377851Y0198330D01*
X0378093Y0198571D01*
X0377392Y0199272D01*
X0377392Y0205633D01*
X0378270Y0206512D01*
X0381994Y0206512D01*
X0381994Y0207819D01*
X0381673Y0208140D01*
X0381673Y0211745D01*
X0382371Y0212443D01*
X0381871Y0212943D01*
X0381286Y0212943D01*
X0376266Y0217963D01*
X0375094Y0219134D01*
X0375094Y0229875D01*
X0374394Y0229875D01*
X0374394Y0229639D01*
X0373515Y0228760D01*
X0367154Y0228760D01*
X0366594Y0229320D01*
X0366035Y0228760D01*
X0359674Y0228760D01*
X0358795Y0229639D01*
X0358795Y0236787D01*
X0358871Y0236863D01*
X0358795Y0236394D02*
X0357825Y0236394D01*
X0358795Y0235396D02*
X0356035Y0235396D01*
X0356644Y0234397D02*
X0358795Y0234397D01*
X0358795Y0233398D02*
X0356644Y0233398D01*
X0356644Y0232400D02*
X0358795Y0232400D01*
X0358795Y0231401D02*
X0356644Y0231401D01*
X0356644Y0230403D02*
X0358795Y0230403D01*
X0359029Y0229404D02*
X0357372Y0229404D01*
X0358371Y0228406D02*
X0375094Y0228406D01*
X0375094Y0229404D02*
X0374160Y0229404D01*
X0375094Y0227407D02*
X0368854Y0227407D01*
X0369516Y0226409D02*
X0375094Y0226409D01*
X0375094Y0225410D02*
X0369516Y0225410D01*
X0369974Y0224412D02*
X0375094Y0224412D01*
X0375094Y0223413D02*
X0370972Y0223413D01*
X0371844Y0222415D02*
X0375094Y0222415D01*
X0375094Y0221416D02*
X0371844Y0221416D01*
X0371844Y0220418D02*
X0375094Y0220418D01*
X0375094Y0219419D02*
X0372216Y0219419D01*
X0373215Y0218421D02*
X0375808Y0218421D01*
X0376806Y0217422D02*
X0374213Y0217422D01*
X0376750Y0216424D02*
X0377805Y0216424D01*
X0377748Y0215425D02*
X0378803Y0215425D01*
X0377932Y0214427D02*
X0379802Y0214427D01*
X0380800Y0213428D02*
X0377932Y0213428D01*
X0377678Y0212430D02*
X0382358Y0212430D01*
X0381673Y0211431D02*
X0376679Y0211431D01*
X0374844Y0213963D02*
X0369844Y0218963D01*
X0369844Y0221713D01*
X0366614Y0224943D01*
X0361075Y0227407D02*
X0359194Y0227407D01*
X0359194Y0226409D02*
X0360413Y0226409D01*
X0360413Y0225410D02*
X0359194Y0225410D01*
X0359194Y0224412D02*
X0360413Y0224412D01*
X0360413Y0223413D02*
X0359194Y0223413D01*
X0359362Y0222415D02*
X0361083Y0222415D01*
X0369516Y0216424D02*
X0369555Y0216424D01*
X0369516Y0215425D02*
X0370553Y0215425D01*
X0371552Y0214427D02*
X0369516Y0214427D01*
X0369516Y0213428D02*
X0371757Y0213428D01*
X0372011Y0212430D02*
X0368805Y0212430D01*
X0369279Y0211431D02*
X0373010Y0211431D01*
X0369316Y0210433D02*
X0381673Y0210433D01*
X0381673Y0209434D02*
X0369316Y0209434D01*
X0369274Y0208436D02*
X0381673Y0208436D01*
X0381994Y0207437D02*
X0360123Y0207437D01*
X0360655Y0208436D02*
X0356182Y0208436D01*
X0356182Y0209434D02*
X0360613Y0209434D01*
X0360613Y0210433D02*
X0356182Y0210433D01*
X0355936Y0211431D02*
X0360650Y0211431D01*
X0361124Y0212430D02*
X0356644Y0212430D01*
X0353094Y0209463D02*
X0345094Y0209463D01*
X0347604Y0209472D01*
X0334720Y0213428D02*
X0334686Y0213428D01*
X0361121Y0206439D02*
X0378197Y0206439D01*
X0377392Y0205440D02*
X0362120Y0205440D01*
X0363118Y0204442D02*
X0377392Y0204442D01*
X0377392Y0203443D02*
X0364117Y0203443D01*
X0365115Y0202445D02*
X0377392Y0202445D01*
X0377392Y0201446D02*
X0365894Y0201446D01*
X0365894Y0200448D02*
X0377392Y0200448D01*
X0377392Y0199449D02*
X0365894Y0199449D01*
X0365894Y0198451D02*
X0377972Y0198451D01*
X0377592Y0197452D02*
X0365894Y0197452D01*
X0365894Y0196454D02*
X0377592Y0196454D01*
X0377592Y0194457D02*
X0377419Y0194457D01*
X0375079Y0194457D02*
X0374110Y0194457D01*
X0374110Y0193458D02*
X0375079Y0193458D01*
X0375079Y0192460D02*
X0374110Y0192460D01*
X0374110Y0191461D02*
X0365894Y0191461D01*
X0365894Y0190462D02*
X0371326Y0190462D01*
X0371326Y0189464D02*
X0365894Y0189464D01*
X0366844Y0188465D02*
X0371516Y0188465D01*
X0371190Y0187467D02*
X0368206Y0187467D01*
X0369205Y0186468D02*
X0371126Y0186468D01*
X0371126Y0185470D02*
X0369932Y0185470D01*
X0369932Y0184471D02*
X0371126Y0184471D01*
X0371126Y0183473D02*
X0369932Y0183473D01*
X0369223Y0182474D02*
X0371126Y0182474D01*
X0371480Y0181476D02*
X0368224Y0181476D01*
X0365465Y0181476D02*
X0364144Y0181476D01*
X0364144Y0182474D02*
X0364466Y0182474D01*
X0364144Y0180477D02*
X0379244Y0180477D01*
X0378919Y0179479D02*
X0364144Y0179479D01*
X0364144Y0178480D02*
X0378919Y0178480D01*
X0378919Y0177482D02*
X0371691Y0177482D01*
X0371623Y0177550D02*
X0369066Y0177550D01*
X0367257Y0175741D01*
X0367257Y0173184D01*
X0369066Y0171375D01*
X0370094Y0171375D01*
X0370094Y0162134D01*
X0371259Y0160969D01*
X0371307Y0160741D01*
X0371614Y0160541D01*
X0371614Y0159873D01*
X0372493Y0158994D01*
X0378460Y0158994D01*
X0379339Y0159873D01*
X0379339Y0165052D01*
X0378460Y0165931D01*
X0374094Y0165931D01*
X0374094Y0169994D01*
X0377891Y0169994D01*
X0378770Y0170873D01*
X0378770Y0176052D01*
X0377891Y0176931D01*
X0372242Y0176931D01*
X0371623Y0177550D01*
X0368998Y0177482D02*
X0364144Y0177482D01*
X0364144Y0176483D02*
X0367999Y0176483D01*
X0367257Y0175485D02*
X0364144Y0175485D01*
X0364144Y0174486D02*
X0367257Y0174486D01*
X0367257Y0173488D02*
X0364144Y0173488D01*
X0364144Y0172489D02*
X0367952Y0172489D01*
X0368950Y0171491D02*
X0364144Y0171491D01*
X0367438Y0170492D02*
X0370094Y0170492D01*
X0370094Y0169494D02*
X0368297Y0169494D01*
X0368297Y0168495D02*
X0370094Y0168495D01*
X0370094Y0167497D02*
X0368297Y0167497D01*
X0368297Y0166498D02*
X0370094Y0166498D01*
X0370094Y0165500D02*
X0368297Y0165500D01*
X0368297Y0164501D02*
X0370094Y0164501D01*
X0370094Y0163503D02*
X0368297Y0163503D01*
X0367946Y0162504D02*
X0370094Y0162504D01*
X0370723Y0161506D02*
X0368297Y0161506D01*
X0368297Y0160507D02*
X0371614Y0160507D01*
X0371978Y0159509D02*
X0368297Y0159509D01*
X0372094Y0162963D02*
X0372094Y0174213D01*
X0372344Y0174463D01*
X0370344Y0174463D01*
X0372344Y0174463D02*
X0373514Y0174463D01*
X0374094Y0169494D02*
X0382691Y0169494D01*
X0382691Y0169238D02*
X0379119Y0169238D01*
X0379119Y0167583D01*
X0379208Y0167252D01*
X0379379Y0166956D01*
X0379621Y0166714D01*
X0379918Y0166543D01*
X0380248Y0166454D01*
X0382691Y0166454D01*
X0382691Y0169238D01*
X0383659Y0169238D01*
X0383659Y0166454D01*
X0386102Y0166454D01*
X0386433Y0166543D01*
X0386729Y0166714D01*
X0386971Y0166956D01*
X0387142Y0167252D01*
X0387231Y0167583D01*
X0387231Y0169238D01*
X0383660Y0169238D01*
X0383660Y0170207D01*
X0387231Y0170207D01*
X0387231Y0171862D01*
X0387142Y0172193D01*
X0386971Y0172489D01*
X0388257Y0172489D01*
X0388257Y0172741D02*
X0388257Y0170184D01*
X0389244Y0169196D01*
X0389244Y0165383D01*
X0388696Y0165931D01*
X0382729Y0165931D01*
X0381850Y0165052D01*
X0381850Y0159873D01*
X0382729Y0158994D01*
X0388696Y0158994D01*
X0389484Y0159782D01*
X0389648Y0159758D01*
X0389789Y0159863D01*
X0389964Y0159863D01*
X0390470Y0160368D01*
X0391045Y0160795D01*
X0391070Y0160969D01*
X0392214Y0162113D01*
X0393444Y0163343D01*
X0393444Y0169196D01*
X0394432Y0170184D01*
X0394432Y0172741D01*
X0392623Y0174550D01*
X0390066Y0174550D01*
X0388257Y0172741D01*
X0389003Y0173488D02*
X0378770Y0173488D01*
X0378770Y0174486D02*
X0379046Y0174486D01*
X0378919Y0175485D02*
X0378770Y0175485D01*
X0378919Y0176483D02*
X0378339Y0176483D01*
X0379918Y0172902D02*
X0380248Y0172991D01*
X0382691Y0172991D01*
X0382691Y0170207D01*
X0383659Y0170207D01*
X0383659Y0172991D01*
X0386102Y0172991D01*
X0386433Y0172902D01*
X0386729Y0172731D01*
X0386971Y0172489D01*
X0387231Y0171491D02*
X0388257Y0171491D01*
X0388257Y0170492D02*
X0387231Y0170492D01*
X0388947Y0169494D02*
X0383660Y0169494D01*
X0383659Y0170492D02*
X0382691Y0170492D01*
X0382691Y0170207D02*
X0382691Y0169238D01*
X0382691Y0168495D02*
X0383659Y0168495D01*
X0383659Y0167497D02*
X0382691Y0167497D01*
X0382691Y0166498D02*
X0383659Y0166498D01*
X0382298Y0165500D02*
X0378891Y0165500D01*
X0379339Y0164501D02*
X0381850Y0164501D01*
X0381850Y0163503D02*
X0379339Y0163503D01*
X0379339Y0162504D02*
X0381850Y0162504D01*
X0381850Y0161506D02*
X0379339Y0161506D01*
X0379339Y0160507D02*
X0381850Y0160507D01*
X0382215Y0159509D02*
X0378974Y0159509D01*
X0375476Y0162463D02*
X0373094Y0161963D01*
X0372094Y0162963D01*
X0374094Y0166498D02*
X0380083Y0166498D01*
X0379142Y0167497D02*
X0374094Y0167497D01*
X0374094Y0168495D02*
X0379119Y0168495D01*
X0379119Y0170207D02*
X0379119Y0171862D01*
X0379208Y0172193D01*
X0379379Y0172489D01*
X0379621Y0172731D01*
X0379918Y0172902D01*
X0379379Y0172489D02*
X0378770Y0172489D01*
X0378770Y0171491D02*
X0379119Y0171491D01*
X0379119Y0170492D02*
X0378389Y0170492D01*
X0379119Y0170207D02*
X0382691Y0170207D01*
X0382691Y0171491D02*
X0383659Y0171491D01*
X0383659Y0172489D02*
X0382691Y0172489D01*
X0387304Y0174486D02*
X0390002Y0174486D01*
X0392687Y0174486D02*
X0394544Y0174486D01*
X0394544Y0173488D02*
X0393685Y0173488D01*
X0394432Y0172489D02*
X0394544Y0172489D01*
X0394544Y0171491D02*
X0394432Y0171491D01*
X0394432Y0170492D02*
X0394544Y0170492D01*
X0394544Y0169494D02*
X0393742Y0169494D01*
X0393444Y0168495D02*
X0394544Y0168495D01*
X0394544Y0167497D02*
X0393444Y0167497D01*
X0393444Y0166498D02*
X0394544Y0166498D01*
X0394544Y0165500D02*
X0393444Y0165500D01*
X0393444Y0164501D02*
X0394544Y0164501D01*
X0394544Y0163503D02*
X0393444Y0163503D01*
X0393633Y0162504D02*
X0392606Y0162504D01*
X0392635Y0161506D02*
X0391607Y0161506D01*
X0391636Y0160507D02*
X0390657Y0160507D01*
X0390638Y0159509D02*
X0389211Y0159509D01*
X0389127Y0165500D02*
X0389244Y0165500D01*
X0389244Y0166498D02*
X0386268Y0166498D01*
X0387208Y0167497D02*
X0389244Y0167497D01*
X0389244Y0168495D02*
X0387231Y0168495D01*
X0387431Y0175485D02*
X0394544Y0175485D01*
X0394544Y0176483D02*
X0387431Y0176483D01*
X0387431Y0177482D02*
X0394544Y0177482D01*
X0394544Y0178480D02*
X0391728Y0178480D01*
X0392727Y0179479D02*
X0394544Y0179479D01*
X0394544Y0180477D02*
X0392932Y0180477D01*
X0393231Y0181476D02*
X0394544Y0181476D01*
X0394544Y0182474D02*
X0393644Y0182474D01*
X0393644Y0183473D02*
X0394544Y0183473D01*
X0394544Y0184471D02*
X0393644Y0184471D01*
X0393644Y0185470D02*
X0394544Y0185470D01*
X0394544Y0186468D02*
X0393644Y0186468D01*
X0393644Y0187467D02*
X0394544Y0187467D01*
X0394544Y0188465D02*
X0393644Y0188465D01*
X0393216Y0189464D02*
X0394544Y0189464D01*
X0394544Y0190462D02*
X0391775Y0190462D01*
X0393716Y0191461D02*
X0394544Y0191461D01*
X0394544Y0192460D02*
X0394047Y0192460D01*
X0394047Y0193458D02*
X0394544Y0193458D01*
X0394544Y0194457D02*
X0394047Y0194457D01*
X0394047Y0195455D02*
X0394544Y0195455D01*
X0394544Y0196454D02*
X0394047Y0196454D01*
X0394047Y0197452D02*
X0394544Y0197452D01*
X0394544Y0198451D02*
X0393749Y0198451D01*
X0393774Y0199449D02*
X0394544Y0199449D01*
X0394544Y0200448D02*
X0393847Y0200448D01*
X0393847Y0201446D02*
X0394544Y0201446D01*
X0394544Y0202445D02*
X0390095Y0202445D01*
X0390094Y0203443D02*
X0389095Y0203443D01*
X0389095Y0204442D02*
X0390094Y0204442D01*
X0390094Y0205440D02*
X0389095Y0205440D01*
X0390072Y0207437D02*
X0394544Y0207437D01*
X0394544Y0206439D02*
X0386194Y0206439D01*
X0391787Y0208436D02*
X0394544Y0208436D01*
X0394544Y0209434D02*
X0392786Y0209434D01*
X0393444Y0210433D02*
X0394544Y0210433D01*
X0394544Y0211431D02*
X0393444Y0211431D01*
X0393444Y0212430D02*
X0394544Y0212430D01*
X0394544Y0213428D02*
X0393444Y0213428D01*
X0393444Y0214427D02*
X0394544Y0214427D01*
X0394544Y0215425D02*
X0393444Y0215425D01*
X0393444Y0216424D02*
X0394544Y0216424D01*
X0394544Y0217422D02*
X0393444Y0217422D01*
X0393444Y0218421D02*
X0394544Y0218421D01*
X0394544Y0219419D02*
X0393444Y0219419D01*
X0393444Y0220418D02*
X0394544Y0220418D01*
X0394544Y0221416D02*
X0393444Y0221416D01*
X0393517Y0222415D02*
X0394544Y0222415D01*
X0388344Y0228213D02*
X0388094Y0228463D01*
X0386594Y0228463D01*
X0383507Y0228444D02*
X0383507Y0227624D01*
X0382552Y0227624D01*
X0381673Y0226745D01*
X0381673Y0223140D01*
X0381764Y0223050D01*
X0380316Y0223050D01*
X0379094Y0221829D01*
X0379094Y0228462D01*
X0379162Y0228444D01*
X0381014Y0228444D01*
X0381014Y0231228D01*
X0381982Y0231228D01*
X0381982Y0228444D01*
X0383507Y0228444D01*
X0383507Y0228406D02*
X0379094Y0228406D01*
X0379094Y0227407D02*
X0382335Y0227407D01*
X0381673Y0226409D02*
X0379094Y0226409D01*
X0379094Y0225410D02*
X0381673Y0225410D01*
X0381673Y0224412D02*
X0379094Y0224412D01*
X0379094Y0223413D02*
X0381673Y0223413D01*
X0379681Y0222415D02*
X0379094Y0222415D01*
X0377094Y0219963D02*
X0377094Y0239213D01*
X0377344Y0238963D01*
X0379604Y0238963D01*
X0378604Y0237972D01*
X0375094Y0238243D02*
X0375094Y0236050D01*
X0374394Y0236050D01*
X0374394Y0236787D01*
X0373947Y0237234D01*
X0374105Y0237508D01*
X0374194Y0237839D01*
X0374194Y0240463D01*
X0370835Y0240463D01*
X0370835Y0241463D01*
X0374194Y0241463D01*
X0374194Y0244087D01*
X0374105Y0244417D01*
X0374016Y0244571D01*
X0374994Y0243593D01*
X0374994Y0238343D01*
X0375094Y0238243D01*
X0374994Y0238391D02*
X0374194Y0238391D01*
X0374194Y0239390D02*
X0374994Y0239390D01*
X0374994Y0240388D02*
X0374194Y0240388D01*
X0374994Y0241387D02*
X0370835Y0241387D01*
X0370835Y0242385D02*
X0369835Y0242385D01*
X0369835Y0243384D02*
X0370835Y0243384D01*
X0370835Y0244382D02*
X0369835Y0244382D01*
X0372208Y0246379D02*
X0354356Y0246379D01*
X0354356Y0247378D02*
X0371210Y0247378D01*
X0370211Y0248376D02*
X0354356Y0248376D01*
X0356130Y0249375D02*
X0358809Y0249375D01*
X0358295Y0250373D02*
X0356644Y0250373D01*
X0356644Y0251372D02*
X0358295Y0251372D01*
X0358295Y0252370D02*
X0356644Y0252370D01*
X0356644Y0253369D02*
X0358295Y0253369D01*
X0358295Y0254367D02*
X0356644Y0254367D01*
X0356644Y0255366D02*
X0358295Y0255366D01*
X0358295Y0256364D02*
X0356644Y0256364D01*
X0365900Y0249375D02*
X0366289Y0249375D01*
X0366069Y0245381D02*
X0373207Y0245381D01*
X0374114Y0244382D02*
X0374205Y0244382D01*
X0374194Y0243384D02*
X0374994Y0243384D01*
X0374994Y0242385D02*
X0374194Y0242385D01*
X0374038Y0237393D02*
X0375094Y0237393D01*
X0375094Y0236394D02*
X0374394Y0236394D01*
X0382785Y0243415D02*
X0383486Y0242714D01*
X0383727Y0242956D01*
X0384024Y0243127D01*
X0384354Y0243215D01*
X0386585Y0243215D01*
X0386585Y0239463D01*
X0387585Y0239463D01*
X0387585Y0243215D01*
X0389815Y0243215D01*
X0390145Y0243127D01*
X0390442Y0242956D01*
X0390684Y0242714D01*
X0390855Y0242417D01*
X0390944Y0242087D01*
X0390944Y0239463D01*
X0387585Y0239463D01*
X0387585Y0238463D01*
X0390944Y0238463D01*
X0390944Y0235839D01*
X0390855Y0235508D01*
X0390684Y0235212D01*
X0390653Y0235181D01*
X0390978Y0235181D01*
X0391856Y0234302D01*
X0391856Y0234013D01*
X0394544Y0234013D01*
X0394544Y0258463D01*
X0375814Y0258463D01*
X0380649Y0253628D01*
X0381621Y0253628D01*
X0382968Y0253070D01*
X0383844Y0252193D01*
X0384721Y0253070D01*
X0386068Y0253628D01*
X0387526Y0253628D01*
X0388873Y0253070D01*
X0389905Y0252039D01*
X0390463Y0250692D01*
X0390463Y0249234D01*
X0389905Y0247886D01*
X0388873Y0246855D01*
X0387526Y0246297D01*
X0386068Y0246297D01*
X0384721Y0246855D01*
X0383844Y0247732D01*
X0382968Y0246855D01*
X0381621Y0246297D01*
X0380163Y0246297D01*
X0378815Y0246855D01*
X0377784Y0247886D01*
X0377226Y0249234D01*
X0377226Y0250692D01*
X0377349Y0250988D01*
X0373894Y0254444D01*
X0373894Y0250633D01*
X0379194Y0245332D01*
X0379194Y0243415D01*
X0382785Y0243415D01*
X0382816Y0243384D02*
X0394544Y0243384D01*
X0394544Y0244382D02*
X0379194Y0244382D01*
X0379146Y0245381D02*
X0394544Y0245381D01*
X0394544Y0246379D02*
X0387724Y0246379D01*
X0385870Y0246379D02*
X0381819Y0246379D01*
X0379965Y0246379D02*
X0378148Y0246379D01*
X0378293Y0247378D02*
X0377149Y0247378D01*
X0377581Y0248376D02*
X0376151Y0248376D01*
X0375152Y0249375D02*
X0377226Y0249375D01*
X0377226Y0250373D02*
X0374154Y0250373D01*
X0373894Y0251372D02*
X0376966Y0251372D01*
X0375967Y0252370D02*
X0373894Y0252370D01*
X0373894Y0253369D02*
X0374969Y0253369D01*
X0373970Y0254367D02*
X0373894Y0254367D01*
X0376914Y0257363D02*
X0394544Y0257363D01*
X0394544Y0258361D02*
X0375916Y0258361D01*
X0377913Y0256364D02*
X0394544Y0256364D01*
X0394544Y0255366D02*
X0378911Y0255366D01*
X0379910Y0254367D02*
X0394544Y0254367D01*
X0394544Y0253369D02*
X0388152Y0253369D01*
X0389573Y0252370D02*
X0394544Y0252370D01*
X0394544Y0251372D02*
X0390181Y0251372D01*
X0390463Y0250373D02*
X0394544Y0250373D01*
X0394544Y0249375D02*
X0390463Y0249375D01*
X0390107Y0248376D02*
X0394544Y0248376D01*
X0394544Y0247378D02*
X0389396Y0247378D01*
X0384199Y0247378D02*
X0383490Y0247378D01*
X0383668Y0252370D02*
X0384021Y0252370D01*
X0385442Y0253369D02*
X0382247Y0253369D01*
X0386585Y0242385D02*
X0387585Y0242385D01*
X0387585Y0241387D02*
X0386585Y0241387D01*
X0386585Y0240388D02*
X0387585Y0240388D01*
X0387585Y0239390D02*
X0394544Y0239390D01*
X0394544Y0240388D02*
X0390944Y0240388D01*
X0390944Y0241387D02*
X0394544Y0241387D01*
X0394544Y0242385D02*
X0390864Y0242385D01*
X0390944Y0238391D02*
X0394544Y0238391D01*
X0394544Y0237393D02*
X0390944Y0237393D01*
X0390944Y0236394D02*
X0394544Y0236394D01*
X0394544Y0235396D02*
X0390790Y0235396D01*
X0391762Y0234397D02*
X0394544Y0234397D01*
X0381982Y0230403D02*
X0381014Y0230403D01*
X0381014Y0229404D02*
X0381982Y0229404D01*
X0381594Y0219963D02*
X0381614Y0219943D01*
X0386224Y0219943D01*
X0386224Y0214943D02*
X0382114Y0214943D01*
X0377094Y0219963D01*
X0365055Y0209434D02*
X0364874Y0209434D01*
X0364874Y0208436D02*
X0365055Y0208436D01*
X0365894Y0195455D02*
X0381344Y0195455D01*
X0381345Y0194457D02*
X0382344Y0194457D01*
X0382344Y0193458D02*
X0381345Y0193458D01*
X0381345Y0192460D02*
X0382344Y0192460D01*
X0382344Y0191461D02*
X0381345Y0191461D01*
X0378006Y0191461D02*
X0375079Y0191461D01*
X0377863Y0190462D02*
X0387575Y0190462D01*
X0385953Y0189464D02*
X0385736Y0189464D01*
X0378473Y0189464D02*
X0377863Y0189464D01*
X0378045Y0188465D02*
X0377673Y0188465D01*
X0377999Y0187467D02*
X0378045Y0187467D01*
X0377709Y0181476D02*
X0378458Y0181476D01*
X0387431Y0178480D02*
X0387960Y0178480D01*
X0371326Y0192460D02*
X0365894Y0192460D01*
X0365894Y0193458D02*
X0371326Y0193458D01*
X0371770Y0194457D02*
X0365894Y0194457D01*
X0393847Y0203443D02*
X0394544Y0203443D01*
X0394544Y0204442D02*
X0393847Y0204442D01*
X0393778Y0205440D02*
X0394544Y0205440D01*
X0354094Y0176483D02*
X0296594Y0176483D01*
X0296594Y0175485D02*
X0354094Y0175485D01*
X0330844Y0132453D02*
X0330835Y0132453D01*
X0323354Y0124972D01*
X0323094Y0124972D01*
X0233881Y0064650D02*
X0232308Y0064650D01*
X0232832Y0063652D02*
X0233357Y0063652D01*
X0233357Y0062653D02*
X0232832Y0062653D01*
X0232832Y0061655D02*
X0233357Y0061655D01*
X0233357Y0060656D02*
X0232832Y0060656D01*
X0232832Y0059658D02*
X0233357Y0059658D01*
X0233357Y0058659D02*
X0232832Y0058659D01*
X0232832Y0057660D02*
X0233357Y0057660D01*
X0233357Y0056662D02*
X0232832Y0056662D01*
X0232832Y0055663D02*
X0233357Y0055663D01*
X0298117Y0225410D02*
X0302426Y0225410D01*
X0344604Y0232400D02*
X0345604Y0232400D01*
X0345604Y0233398D02*
X0344604Y0233398D01*
X0344604Y0234397D02*
X0345604Y0234397D01*
X0345604Y0235396D02*
X0344604Y0235396D01*
X0563594Y0168463D02*
X0564693Y0168463D01*
X0565943Y0169713D01*
X0604094Y0166213D02*
X0604344Y0165963D01*
X0604344Y0162213D01*
D82*
X0590594Y0076463D02*
X0594094Y0072963D01*
X0594094Y0067213D01*
X0597256Y0064051D01*
X0599681Y0064051D01*
X0590594Y0076463D02*
X0588844Y0076463D01*
X0270094Y0105963D02*
X0269585Y0105453D01*
X0259594Y0105453D01*
X0252126Y0105441D01*
X0251594Y0106171D01*
X0254626Y0097961D02*
X0251594Y0094754D01*
X0250844Y0094179D01*
X0250844Y0086963D01*
X0254626Y0097961D02*
X0259594Y0097972D01*
X0270094Y0105963D02*
X0270094Y0107976D01*
X0270094Y0128449D02*
X0270094Y0131463D01*
X0268344Y0133213D01*
X0262553Y0133213D01*
X0261573Y0134368D01*
X0261585Y0140963D01*
X0254104Y0140963D02*
X0253281Y0140900D01*
X0252844Y0140463D01*
X0252844Y0135120D01*
X0251136Y0133213D01*
X0251124Y0129683D01*
X0251344Y0129463D01*
D83*
X0153344Y0046963D02*
X0150594Y0049713D01*
X0108344Y0049713D01*
X0101925Y0043293D01*
X0101925Y0035626D01*
X0143264Y0035626D02*
X0145927Y0032963D01*
X0235132Y0032963D01*
X0236057Y0032963D02*
X0280094Y0032963D01*
X0267344Y0046963D02*
X0260557Y0046963D01*
X0259632Y0046963D02*
X0153344Y0046963D01*
D84*
X0172344Y0058463D03*
X0172344Y0062713D03*
X0172344Y0066963D03*
X0172344Y0071213D03*
X0172344Y0075463D03*
X0172344Y0079713D03*
X0172344Y0083963D03*
X0172344Y0088213D03*
X0172344Y0092463D03*
X0176844Y0092463D03*
X0176844Y0088213D03*
X0176844Y0083963D03*
X0176844Y0079713D03*
X0176844Y0075463D03*
X0176844Y0071213D03*
X0176844Y0066963D03*
X0176844Y0062713D03*
X0176844Y0058463D03*
X0181344Y0092463D03*
X0185844Y0092463D03*
X0190344Y0092463D03*
X0194844Y0092463D03*
X0199344Y0092463D03*
X0203844Y0092463D03*
X0208344Y0092463D03*
X0212844Y0092463D03*
X0217344Y0092463D03*
X0176844Y0112463D03*
X0176844Y0116713D03*
X0176844Y0120963D03*
X0176844Y0125213D03*
X0176844Y0129463D03*
X0176844Y0133713D03*
X0176844Y0137963D03*
X0176844Y0142213D03*
X0172344Y0142213D03*
X0172344Y0137963D03*
X0172344Y0133713D03*
X0172344Y0129463D03*
X0172344Y0125213D03*
X0172344Y0120963D03*
X0172344Y0116713D03*
X0172344Y0112463D03*
X0181344Y0142213D03*
X0185844Y0142213D03*
X0190344Y0142213D03*
X0194844Y0142213D03*
X0199344Y0142213D03*
X0203844Y0142213D03*
X0208344Y0142213D03*
X0212844Y0142213D03*
X0217344Y0142213D03*
X0077094Y0232213D03*
X0073344Y0232213D03*
X0069594Y0232213D03*
X0069594Y0235963D03*
X0069594Y0239713D03*
X0073344Y0239713D03*
X0073344Y0235963D03*
X0077094Y0235963D03*
X0077094Y0239713D03*
X0152344Y0255213D03*
X0152344Y0258963D03*
X0152344Y0262713D03*
X0156094Y0262713D03*
X0156094Y0258963D03*
X0156094Y0255213D03*
X0159844Y0255213D03*
X0159844Y0258963D03*
X0159844Y0262713D03*
D85*
X0062280Y0042398D03*
X0062280Y0357358D03*
X0633146Y0040429D03*
D86*
X0499683Y0116463D02*
X0492094Y0116463D01*
X0488344Y0112713D01*
X0468344Y0112713D01*
X0462908Y0118149D01*
X0462908Y0120093D01*
X0457594Y0120093D01*
X0453066Y0120093D01*
X0448144Y0198833D02*
X0448144Y0216123D01*
X0447305Y0215713D01*
X0467384Y0215713D02*
X0467634Y0217213D01*
X0476833Y0217213D01*
X0476746Y0217299D01*
X0476746Y0227963D01*
X0487943Y0227963D02*
X0487943Y0217299D01*
X0487856Y0217213D01*
X0487856Y0206974D01*
X0479844Y0198963D01*
X0477802Y0198963D01*
X0477672Y0198833D01*
X0467830Y0198833D01*
X0487943Y0227963D02*
X0487943Y0253061D01*
X0500844Y0265963D01*
D87*
X0343844Y0180963D02*
X0293344Y0180963D01*
X0327594Y0170463D02*
X0194094Y0170463D01*
X0187344Y0177213D01*
X0187344Y0180963D01*
M02*
