G75*
G70*
%OFA0B0*%
%FSLAX24Y24*%
%IPPOS*%
%LPD*%
%AMOC8*
5,1,8,0,0,1.08239X$1,22.5*
%
%ADD10C,0.0039*%
%ADD11R,0.0149X0.0001*%
%ADD12R,0.0004X0.0001*%
%ADD13R,0.0010X0.0001*%
%ADD14R,0.0017X0.0001*%
%ADD15R,0.0023X0.0001*%
%ADD16R,0.0029X0.0001*%
%ADD17R,0.0034X0.0001*%
%ADD18R,0.0040X0.0001*%
%ADD19R,0.0043X0.0002*%
%ADD20R,0.0047X0.0001*%
%ADD21R,0.0050X0.0001*%
%ADD22R,0.0054X0.0001*%
%ADD23R,0.0059X0.0001*%
%ADD24R,0.0064X0.0001*%
%ADD25R,0.0015X0.0001*%
%ADD26R,0.0067X0.0001*%
%ADD27R,0.0020X0.0001*%
%ADD28R,0.0070X0.0001*%
%ADD29R,0.0024X0.0001*%
%ADD30R,0.0074X0.0001*%
%ADD31R,0.0027X0.0001*%
%ADD32R,0.0076X0.0001*%
%ADD33R,0.0030X0.0001*%
%ADD34R,0.0081X0.0002*%
%ADD35R,0.0036X0.0002*%
%ADD36R,0.0086X0.0001*%
%ADD37R,0.0044X0.0001*%
%ADD38R,0.0091X0.0001*%
%ADD39R,0.0046X0.0001*%
%ADD40R,0.0094X0.0001*%
%ADD41R,0.0096X0.0001*%
%ADD42R,0.0053X0.0001*%
%ADD43R,0.0099X0.0001*%
%ADD44R,0.0056X0.0001*%
%ADD45R,0.0104X0.0001*%
%ADD46R,0.0060X0.0001*%
%ADD47R,0.0108X0.0001*%
%ADD48R,0.0112X0.0001*%
%ADD49R,0.0117X0.0001*%
%ADD50R,0.0072X0.0001*%
%ADD51R,0.0120X0.0002*%
%ADD52R,0.0075X0.0002*%
%ADD53R,0.0123X0.0001*%
%ADD54R,0.0078X0.0001*%
%ADD55R,0.0126X0.0001*%
%ADD56R,0.0081X0.0001*%
%ADD57R,0.0131X0.0001*%
%ADD58R,0.0136X0.0001*%
%ADD59R,0.0090X0.0001*%
%ADD60R,0.0139X0.0001*%
%ADD61R,0.0144X0.0001*%
%ADD62R,0.0147X0.0001*%
%ADD63R,0.0101X0.0001*%
%ADD64R,0.0150X0.0001*%
%ADD65R,0.0102X0.0001*%
%ADD66R,0.0153X0.0001*%
%ADD67R,0.0106X0.0001*%
%ADD68R,0.0158X0.0002*%
%ADD69R,0.0109X0.0002*%
%ADD70R,0.0164X0.0001*%
%ADD71R,0.0115X0.0001*%
%ADD72R,0.0168X0.0001*%
%ADD73R,0.0120X0.0001*%
%ADD74R,0.0171X0.0001*%
%ADD75R,0.0123X0.0001*%
%ADD76R,0.0172X0.0001*%
%ADD77R,0.0125X0.0001*%
%ADD78R,0.0175X0.0001*%
%ADD79R,0.0128X0.0001*%
%ADD80R,0.0180X0.0001*%
%ADD81R,0.0132X0.0001*%
%ADD82R,0.0186X0.0001*%
%ADD83R,0.0191X0.0001*%
%ADD84R,0.0141X0.0001*%
%ADD85R,0.0194X0.0001*%
%ADD86R,0.0145X0.0001*%
%ADD87R,0.0196X0.0002*%
%ADD88R,0.0149X0.0002*%
%ADD89R,0.0199X0.0001*%
%ADD90R,0.0151X0.0001*%
%ADD91R,0.0204X0.0001*%
%ADD92R,0.0153X0.0001*%
%ADD93R,0.0207X0.0001*%
%ADD94R,0.0158X0.0001*%
%ADD95R,0.0211X0.0001*%
%ADD96R,0.0162X0.0001*%
%ADD97R,0.0216X0.0001*%
%ADD98R,0.0166X0.0001*%
%ADD99R,0.0219X0.0001*%
%ADD100R,0.0007X0.0001*%
%ADD101R,0.0169X0.0001*%
%ADD102R,0.0222X0.0001*%
%ADD103R,0.0011X0.0001*%
%ADD104R,0.0224X0.0001*%
%ADD105R,0.0014X0.0001*%
%ADD106R,0.0176X0.0001*%
%ADD107R,0.0228X0.0001*%
%ADD108R,0.0018X0.0001*%
%ADD109R,0.0179X0.0001*%
%ADD110R,0.0234X0.0002*%
%ADD111R,0.0024X0.0002*%
%ADD112R,0.0183X0.0002*%
%ADD113R,0.0239X0.0001*%
%ADD114R,0.0189X0.0001*%
%ADD115R,0.0241X0.0001*%
%ADD116R,0.0033X0.0001*%
%ADD117R,0.0012X0.0001*%
%ADD118R,0.0192X0.0001*%
%ADD119R,0.0243X0.0001*%
%ADD120R,0.0038X0.0001*%
%ADD121R,0.0246X0.0001*%
%ADD122R,0.0041X0.0001*%
%ADD123R,0.0019X0.0001*%
%ADD124R,0.0196X0.0001*%
%ADD125R,0.0250X0.0001*%
%ADD126R,0.0021X0.0001*%
%ADD127R,0.0201X0.0001*%
%ADD128R,0.0254X0.0001*%
%ADD129R,0.0048X0.0001*%
%ADD130R,0.0258X0.0001*%
%ADD131R,0.0054X0.0001*%
%ADD132R,0.0209X0.0001*%
%ADD133R,0.0263X0.0001*%
%ADD134R,0.0213X0.0001*%
%ADD135R,0.0267X0.0001*%
%ADD136R,0.0063X0.0001*%
%ADD137R,0.0270X0.0002*%
%ADD138R,0.0066X0.0002*%
%ADD139R,0.0045X0.0002*%
%ADD140R,0.0219X0.0002*%
%ADD141R,0.0271X0.0001*%
%ADD142R,0.0220X0.0001*%
%ADD143R,0.0274X0.0001*%
%ADD144R,0.0051X0.0001*%
%ADD145R,0.0223X0.0001*%
%ADD146R,0.0278X0.0001*%
%ADD147R,0.0282X0.0001*%
%ADD148R,0.0231X0.0001*%
%ADD149R,0.0288X0.0001*%
%ADD150R,0.0085X0.0001*%
%ADD151R,0.0236X0.0001*%
%ADD152R,0.0289X0.0001*%
%ADD153R,0.0087X0.0001*%
%ADD154R,0.0066X0.0001*%
%ADD155R,0.0292X0.0001*%
%ADD156R,0.0069X0.0001*%
%ADD157R,0.0297X0.0001*%
%ADD158R,0.0300X0.0001*%
%ADD159R,0.0075X0.0001*%
%ADD160R,0.0305X0.0002*%
%ADD161R,0.0101X0.0002*%
%ADD162R,0.0078X0.0002*%
%ADD163R,0.0251X0.0002*%
%ADD164R,0.0309X0.0001*%
%ADD165R,0.0105X0.0001*%
%ADD166R,0.0083X0.0001*%
%ADD167R,0.0255X0.0001*%
%ADD168R,0.0314X0.0001*%
%ADD169R,0.0110X0.0001*%
%ADD170R,0.0087X0.0001*%
%ADD171R,0.0316X0.0001*%
%ADD172R,0.0113X0.0001*%
%ADD173R,0.0262X0.0001*%
%ADD174R,0.0319X0.0001*%
%ADD175R,0.0114X0.0001*%
%ADD176R,0.0093X0.0001*%
%ADD177R,0.0266X0.0001*%
%ADD178R,0.0321X0.0001*%
%ADD179R,0.0096X0.0001*%
%ADD180R,0.0324X0.0001*%
%ADD181R,0.0270X0.0001*%
%ADD182R,0.0329X0.0001*%
%ADD183R,0.0124X0.0001*%
%ADD184R,0.0275X0.0001*%
%ADD185R,0.0333X0.0001*%
%ADD186R,0.0279X0.0001*%
%ADD187R,0.0336X0.0001*%
%ADD188R,0.0111X0.0001*%
%ADD189R,0.0284X0.0001*%
%ADD190R,0.0339X0.0002*%
%ADD191R,0.0134X0.0002*%
%ADD192R,0.0114X0.0002*%
%ADD193R,0.0286X0.0002*%
%ADD194R,0.0342X0.0001*%
%ADD195R,0.0116X0.0001*%
%ADD196R,0.0491X0.0001*%
%ADD197R,0.0492X0.0001*%
%ADD198R,0.0294X0.0001*%
%ADD199R,0.0495X0.0001*%
%ADD200R,0.0299X0.0001*%
%ADD201R,0.0496X0.0001*%
%ADD202R,0.0127X0.0001*%
%ADD203R,0.0301X0.0001*%
%ADD204R,0.0498X0.0001*%
%ADD205R,0.0304X0.0001*%
%ADD206R,0.0501X0.0001*%
%ADD207R,0.0134X0.0001*%
%ADD208R,0.0308X0.0001*%
%ADD209R,0.0135X0.0001*%
%ADD210R,0.0311X0.0001*%
%ADD211R,0.0504X0.0001*%
%ADD212R,0.0138X0.0001*%
%ADD213R,0.0504X0.0002*%
%ADD214R,0.0141X0.0002*%
%ADD215R,0.0318X0.0002*%
%ADD216R,0.0507X0.0001*%
%ADD217R,0.0323X0.0001*%
%ADD218R,0.0326X0.0001*%
%ADD219R,0.0508X0.0001*%
%ADD220R,0.0152X0.0001*%
%ADD221R,0.0330X0.0001*%
%ADD222R,0.0510X0.0001*%
%ADD223R,0.0494X0.0001*%
%ADD224R,0.0512X0.0001*%
%ADD225R,0.0500X0.0001*%
%ADD226R,0.0513X0.0001*%
%ADD227R,0.0501X0.0001*%
%ADD228R,0.0513X0.0002*%
%ADD229R,0.0501X0.0002*%
%ADD230R,0.0503X0.0001*%
%ADD231R,0.0504X0.0001*%
%ADD232R,0.0506X0.0001*%
%ADD233R,0.0513X0.0001*%
%ADD234R,0.0509X0.0001*%
%ADD235R,0.0511X0.0001*%
%ADD236R,0.0514X0.0001*%
%ADD237R,0.0516X0.0001*%
%ADD238R,0.0513X0.0002*%
%ADD239R,0.0519X0.0002*%
%ADD240R,0.0519X0.0001*%
%ADD241R,0.0520X0.0001*%
%ADD242R,0.0522X0.0001*%
%ADD243R,0.0507X0.0001*%
%ADD244R,0.0509X0.0002*%
%ADD245R,0.0520X0.0002*%
%ADD246R,0.0522X0.0001*%
%ADD247R,0.0505X0.0001*%
%ADD248R,0.0502X0.0001*%
%ADD249R,0.0521X0.0001*%
%ADD250R,0.0503X0.0002*%
%ADD251R,0.0519X0.0002*%
%ADD252R,0.0519X0.0001*%
%ADD253R,0.0499X0.0001*%
%ADD254R,0.0517X0.0001*%
%ADD255R,0.0495X0.0002*%
%ADD256R,0.0514X0.0002*%
%ADD257R,0.0515X0.0001*%
%ADD258R,0.0492X0.0001*%
%ADD259R,0.0490X0.0001*%
%ADD260R,0.0490X0.0002*%
%ADD261R,0.0511X0.0002*%
%ADD262R,0.0489X0.0001*%
%ADD263R,0.0489X0.0001*%
%ADD264R,0.0488X0.0001*%
%ADD265R,0.0485X0.0001*%
%ADD266R,0.0483X0.0001*%
%ADD267R,0.0483X0.0002*%
%ADD268R,0.0507X0.0002*%
%ADD269R,0.0483X0.0001*%
%ADD270R,0.0481X0.0001*%
%ADD271R,0.0480X0.0001*%
%ADD272R,0.0480X0.0002*%
%ADD273R,0.0501X0.0002*%
%ADD274R,0.0479X0.0001*%
%ADD275R,0.0477X0.0001*%
%ADD276R,0.0477X0.0001*%
%ADD277R,0.0475X0.0001*%
%ADD278R,0.0474X0.0001*%
%ADD279R,0.0472X0.0001*%
%ADD280R,0.0472X0.0002*%
%ADD281R,0.0498X0.0002*%
%ADD282R,0.0471X0.0001*%
%ADD283R,0.0473X0.0001*%
%ADD284R,0.0471X0.0001*%
%ADD285R,0.0470X0.0001*%
%ADD286R,0.0468X0.0001*%
%ADD287R,0.0469X0.0001*%
%ADD288R,0.0468X0.0002*%
%ADD289R,0.0491X0.0002*%
%ADD290R,0.0466X0.0001*%
%ADD291R,0.0465X0.0001*%
%ADD292R,0.0464X0.0001*%
%ADD293R,0.0462X0.0001*%
%ADD294R,0.0462X0.0002*%
%ADD295R,0.0489X0.0002*%
%ADD296R,0.0461X0.0001*%
%ADD297R,0.0460X0.0001*%
%ADD298R,0.0459X0.0001*%
%ADD299R,0.0484X0.0001*%
%ADD300R,0.0457X0.0001*%
%ADD301R,0.0459X0.0001*%
%ADD302R,0.0458X0.0002*%
%ADD303R,0.0484X0.0002*%
%ADD304R,0.0456X0.0001*%
%ADD305R,0.0455X0.0001*%
%ADD306R,0.0453X0.0001*%
%ADD307R,0.0451X0.0001*%
%ADD308R,0.0453X0.0001*%
%ADD309R,0.0450X0.0001*%
%ADD310R,0.0451X0.0002*%
%ADD311R,0.0478X0.0001*%
%ADD312R,0.0449X0.0001*%
%ADD313R,0.0476X0.0001*%
%ADD314R,0.0447X0.0001*%
%ADD315R,0.0474X0.0001*%
%ADD316R,0.0449X0.0002*%
%ADD317R,0.0476X0.0002*%
%ADD318R,0.0454X0.0001*%
%ADD319R,0.0469X0.0002*%
%ADD320R,0.0468X0.0001*%
%ADD321R,0.0467X0.0001*%
%ADD322R,0.0473X0.0002*%
%ADD323R,0.0468X0.0002*%
%ADD324R,0.0486X0.0002*%
%ADD325R,0.0474X0.0002*%
%ADD326R,0.0487X0.0001*%
%ADD327R,0.0497X0.0001*%
%ADD328R,0.0486X0.0001*%
%ADD329R,0.0500X0.0002*%
%ADD330R,0.0487X0.0002*%
%ADD331R,0.0498X0.0001*%
%ADD332R,0.0524X0.0002*%
%ADD333R,0.0524X0.0001*%
%ADD334R,0.0525X0.0001*%
%ADD335R,0.0528X0.0001*%
%ADD336R,0.0529X0.0001*%
%ADD337R,0.0533X0.0001*%
%ADD338R,0.0534X0.0001*%
%ADD339R,0.0523X0.0001*%
%ADD340R,0.0536X0.0001*%
%ADD341R,0.0537X0.0002*%
%ADD342R,0.0527X0.0002*%
%ADD343R,0.0537X0.0001*%
%ADD344R,0.0528X0.0001*%
%ADD345R,0.0539X0.0001*%
%ADD346R,0.0530X0.0001*%
%ADD347R,0.0540X0.0001*%
%ADD348R,0.0541X0.0001*%
%ADD349R,0.0531X0.0001*%
%ADD350R,0.0543X0.0001*%
%ADD351R,0.0544X0.0001*%
%ADD352R,0.0546X0.0002*%
%ADD353R,0.0536X0.0002*%
%ADD354R,0.0547X0.0001*%
%ADD355R,0.0551X0.0001*%
%ADD356R,0.0552X0.0001*%
%ADD357R,0.0554X0.0001*%
%ADD358R,0.0555X0.0001*%
%ADD359R,0.0555X0.0002*%
%ADD360R,0.0547X0.0002*%
%ADD361R,0.0549X0.0001*%
%ADD362R,0.0548X0.0001*%
%ADD363R,0.0538X0.0001*%
%ADD364R,0.0537X0.0001*%
%ADD365R,0.0533X0.0002*%
%ADD366R,0.0531X0.0001*%
%ADD367R,0.0526X0.0001*%
%ADD368R,0.0518X0.0001*%
%ADD369R,0.0498X0.0002*%
%ADD370R,0.0496X0.0002*%
%ADD371R,0.0486X0.0001*%
%ADD372R,0.0485X0.0002*%
%ADD373R,0.0482X0.0001*%
%ADD374R,0.0477X0.0002*%
%ADD375R,0.0530X0.0002*%
%ADD376R,0.0464X0.0002*%
%ADD377R,0.0561X0.0001*%
%ADD378R,0.0570X0.0001*%
%ADD379R,0.0576X0.0001*%
%ADD380R,0.0581X0.0001*%
%ADD381R,0.0585X0.0001*%
%ADD382R,0.0589X0.0001*%
%ADD383R,0.0600X0.0002*%
%ADD384R,0.0614X0.0001*%
%ADD385R,0.0623X0.0001*%
%ADD386R,0.0630X0.0001*%
%ADD387R,0.0633X0.0001*%
%ADD388R,0.0638X0.0001*%
%ADD389R,0.0645X0.0001*%
%ADD390R,0.0657X0.0001*%
%ADD391R,0.0556X0.0001*%
%ADD392R,0.0669X0.0001*%
%ADD393R,0.0674X0.0001*%
%ADD394R,0.0579X0.0001*%
%ADD395R,0.0676X0.0002*%
%ADD396R,0.0585X0.0002*%
%ADD397R,0.0678X0.0001*%
%ADD398R,0.0590X0.0001*%
%ADD399R,0.0679X0.0001*%
%ADD400R,0.0596X0.0001*%
%ADD401R,0.0681X0.0001*%
%ADD402R,0.0606X0.0001*%
%ADD403R,0.0620X0.0001*%
%ADD404R,0.0682X0.0001*%
%ADD405R,0.0633X0.0001*%
%ADD406R,0.0684X0.0001*%
%ADD407R,0.0639X0.0001*%
%ADD408R,0.0649X0.0001*%
%ADD409R,0.0684X0.0001*%
%ADD410R,0.0655X0.0001*%
%ADD411R,0.0683X0.0002*%
%ADD412R,0.0664X0.0002*%
%ADD413R,0.0683X0.0001*%
%ADD414R,0.0670X0.0001*%
%ADD415R,0.0671X0.0001*%
%ADD416R,0.0681X0.0001*%
%ADD417R,0.0672X0.0001*%
%ADD418R,0.0680X0.0001*%
%ADD419R,0.0675X0.0001*%
%ADD420R,0.0676X0.0001*%
%ADD421R,0.0680X0.0002*%
%ADD422R,0.0678X0.0002*%
%ADD423R,0.0678X0.0001*%
%ADD424R,0.0675X0.0002*%
%ADD425R,0.0672X0.0002*%
%ADD426R,0.0672X0.0001*%
%ADD427R,0.0671X0.0002*%
%ADD428R,0.0670X0.0002*%
%ADD429R,0.0669X0.0001*%
%ADD430R,0.0667X0.0001*%
%ADD431R,0.0669X0.0002*%
%ADD432R,0.0667X0.0002*%
%ADD433R,0.0668X0.0001*%
%ADD434R,0.0666X0.0001*%
%ADD435R,0.0668X0.0002*%
%ADD436R,0.0666X0.0002*%
%ADD437R,0.0666X0.0001*%
%ADD438R,0.0664X0.0001*%
%ADD439R,0.0663X0.0001*%
%ADD440R,0.0666X0.0002*%
%ADD441R,0.0663X0.0002*%
%ADD442R,0.0665X0.0001*%
%ADD443R,0.0674X0.0002*%
%ADD444R,0.0677X0.0001*%
%ADD445R,0.0678X0.0002*%
%ADD446R,0.0682X0.0002*%
%ADD447R,0.0686X0.0001*%
%ADD448R,0.0686X0.0002*%
%ADD449R,0.0687X0.0001*%
%ADD450R,0.0689X0.0001*%
%ADD451R,0.0653X0.0001*%
%ADD452R,0.0641X0.0001*%
%ADD453R,0.0626X0.0001*%
%ADD454R,0.0616X0.0001*%
%ADD455R,0.0687X0.0001*%
%ADD456R,0.0612X0.0001*%
%ADD457R,0.0688X0.0001*%
%ADD458R,0.0606X0.0001*%
%ADD459R,0.0601X0.0001*%
%ADD460R,0.0591X0.0002*%
%ADD461R,0.0567X0.0001*%
%ADD462R,0.0560X0.0001*%
%ADD463R,0.0659X0.0001*%
%ADD464R,0.0516X0.0001*%
%ADD465R,0.0639X0.0001*%
%ADD466R,0.0502X0.0002*%
%ADD467R,0.0633X0.0002*%
%ADD468R,0.0608X0.0001*%
%ADD469R,0.0582X0.0001*%
%ADD470R,0.0577X0.0001*%
%ADD471R,0.0569X0.0002*%
%ADD472R,0.0546X0.0001*%
%ADD473R,0.0486X0.0002*%
%ADD474R,0.0493X0.0001*%
%ADD475R,0.0516X0.0002*%
%ADD476R,0.0532X0.0001*%
%ADD477R,0.0534X0.0002*%
%ADD478R,0.0535X0.0002*%
%ADD479R,0.0543X0.0001*%
%ADD480R,0.0553X0.0001*%
%ADD481R,0.0559X0.0001*%
%ADD482R,0.0564X0.0001*%
%ADD483R,0.0564X0.0001*%
%ADD484R,0.0567X0.0001*%
%ADD485R,0.0569X0.0001*%
%ADD486R,0.0570X0.0002*%
%ADD487R,0.0571X0.0002*%
%ADD488R,0.0571X0.0001*%
%ADD489R,0.0573X0.0001*%
%ADD490R,0.0574X0.0001*%
%ADD491R,0.0576X0.0001*%
%ADD492R,0.0600X0.0001*%
%ADD493R,0.0611X0.0001*%
%ADD494R,0.0618X0.0001*%
%ADD495R,0.0621X0.0001*%
%ADD496R,0.1269X0.0001*%
%ADD497R,0.1267X0.0001*%
%ADD498R,0.1266X0.0001*%
%ADD499R,0.1266X0.0002*%
%ADD500R,0.1264X0.0001*%
%ADD501R,0.1261X0.0001*%
%ADD502R,0.1260X0.0001*%
%ADD503R,0.1259X0.0001*%
%ADD504R,0.1256X0.0001*%
%ADD505R,0.1254X0.0001*%
%ADD506R,0.1253X0.0001*%
%ADD507R,0.1251X0.0001*%
%ADD508R,0.1251X0.0002*%
%ADD509R,0.1248X0.0001*%
%ADD510R,0.1245X0.0001*%
%ADD511R,0.1244X0.0001*%
%ADD512R,0.1242X0.0001*%
%ADD513R,0.1239X0.0001*%
%ADD514R,0.1237X0.0001*%
%ADD515R,0.1236X0.0002*%
%ADD516R,0.1233X0.0001*%
%ADD517R,0.1230X0.0001*%
%ADD518R,0.1229X0.0001*%
%ADD519R,0.1227X0.0001*%
%ADD520R,0.1226X0.0001*%
%ADD521R,0.1224X0.0001*%
%ADD522R,0.1223X0.0002*%
%ADD523R,0.1219X0.0001*%
%ADD524R,0.1216X0.0001*%
%ADD525R,0.1215X0.0001*%
%ADD526R,0.1214X0.0001*%
%ADD527R,0.1212X0.0001*%
%ADD528R,0.1209X0.0001*%
%ADD529R,0.1207X0.0002*%
%ADD530R,0.1206X0.0001*%
%ADD531R,0.1204X0.0001*%
%ADD532R,0.1201X0.0001*%
%ADD533R,0.1200X0.0001*%
%ADD534R,0.1199X0.0001*%
%ADD535R,0.1196X0.0001*%
%ADD536R,0.1194X0.0001*%
%ADD537R,0.1193X0.0001*%
%ADD538R,0.1191X0.0001*%
%ADD539R,0.1191X0.0002*%
%ADD540R,0.1188X0.0001*%
%ADD541R,0.1185X0.0001*%
%ADD542R,0.1184X0.0001*%
%ADD543R,0.1181X0.0001*%
%ADD544R,0.1177X0.0001*%
%ADD545R,0.1176X0.0001*%
%ADD546R,0.1174X0.0001*%
%ADD547R,0.1173X0.0001*%
%ADD548R,0.1170X0.0002*%
%ADD549R,0.1170X0.0001*%
%ADD550R,0.1169X0.0001*%
%ADD551R,0.1166X0.0001*%
%ADD552R,0.1164X0.0001*%
%ADD553R,0.1163X0.0001*%
%ADD554R,0.1163X0.0002*%
%ADD555R,0.1167X0.0001*%
%ADD556R,0.1171X0.0001*%
%ADD557R,0.1179X0.0001*%
%ADD558R,0.1182X0.0001*%
%ADD559R,0.1182X0.0002*%
%ADD560R,0.1188X0.0001*%
%ADD561R,0.1190X0.0001*%
%ADD562R,0.1197X0.0001*%
%ADD563R,0.1204X0.0002*%
%ADD564R,0.1207X0.0001*%
%ADD565R,0.1210X0.0001*%
%ADD566R,0.1213X0.0001*%
%ADD567R,0.1217X0.0001*%
%ADD568R,0.1218X0.0001*%
%ADD569R,0.1220X0.0001*%
%ADD570R,0.1221X0.0001*%
%ADD571R,0.1223X0.0001*%
%ADD572R,0.1226X0.0002*%
%ADD573R,0.1236X0.0001*%
%ADD574R,0.1239X0.0001*%
%ADD575R,0.1240X0.0001*%
%ADD576R,0.1243X0.0001*%
%ADD577R,0.1248X0.0002*%
%ADD578R,0.1248X0.0001*%
%ADD579R,0.1251X0.0001*%
%ADD580R,0.1257X0.0001*%
%ADD581R,0.1263X0.0001*%
%ADD582R,0.1267X0.0002*%
%ADD583R,0.1270X0.0001*%
%ADD584R,0.1274X0.0001*%
%ADD585R,0.1275X0.0001*%
%ADD586R,0.1278X0.0001*%
%ADD587R,0.1280X0.0001*%
%ADD588R,0.1281X0.0001*%
%ADD589R,0.1284X0.0001*%
%ADD590R,0.1286X0.0001*%
%ADD591R,0.1289X0.0001*%
%ADD592R,0.1290X0.0002*%
%ADD593R,0.1291X0.0001*%
%ADD594R,0.1294X0.0001*%
%ADD595R,0.1296X0.0001*%
%ADD596R,0.1299X0.0001*%
%ADD597R,0.1300X0.0001*%
%ADD598R,0.1302X0.0001*%
%ADD599R,0.1304X0.0001*%
%ADD600R,0.1306X0.0001*%
%ADD601R,0.1308X0.0001*%
%ADD602R,0.1311X0.0002*%
%ADD603R,0.1313X0.0001*%
%ADD604R,0.1316X0.0001*%
%ADD605R,0.1317X0.0001*%
%ADD606R,0.1320X0.0001*%
%ADD607R,0.1323X0.0001*%
%ADD608R,0.1326X0.0001*%
%ADD609R,0.1329X0.0001*%
%ADD610R,0.1332X0.0002*%
%ADD611R,0.1335X0.0001*%
%ADD612R,0.1336X0.0001*%
%ADD613R,0.1340X0.0001*%
%ADD614R,0.1343X0.0001*%
%ADD615R,0.1346X0.0001*%
%ADD616R,0.1347X0.0001*%
%ADD617R,0.1350X0.0001*%
%ADD618R,0.1353X0.0002*%
%ADD619R,0.1356X0.0001*%
%ADD620R,0.1357X0.0001*%
%ADD621R,0.1360X0.0001*%
%ADD622R,0.1364X0.0001*%
%ADD623R,0.1365X0.0001*%
%ADD624R,0.1368X0.0001*%
%ADD625R,0.1369X0.0001*%
%ADD626R,0.1373X0.0001*%
%ADD627R,0.1374X0.0002*%
%ADD628R,0.1377X0.0001*%
%ADD629R,0.1379X0.0001*%
%ADD630R,0.1380X0.0001*%
%ADD631R,0.1383X0.0001*%
%ADD632R,0.1386X0.0001*%
%ADD633R,0.1387X0.0001*%
%ADD634R,0.1391X0.0001*%
%ADD635R,0.1394X0.0001*%
%ADD636R,0.1395X0.0002*%
%ADD637R,0.1398X0.0001*%
%ADD638R,0.1401X0.0001*%
%ADD639R,0.1403X0.0001*%
%ADD640R,0.1406X0.0001*%
%ADD641R,0.1407X0.0001*%
%ADD642R,0.1409X0.0001*%
%ADD643R,0.1411X0.0001*%
%ADD644R,0.1414X0.0001*%
%ADD645R,0.1416X0.0002*%
%ADD646R,0.1419X0.0001*%
%ADD647R,0.1421X0.0001*%
%ADD648R,0.1422X0.0001*%
%ADD649R,0.1424X0.0001*%
%ADD650R,0.1426X0.0001*%
%ADD651R,0.1428X0.0001*%
%ADD652R,0.1429X0.0002*%
%ADD653R,0.1429X0.0001*%
%ADD654R,0.1425X0.0001*%
%ADD655R,0.1421X0.0002*%
%ADD656R,0.1418X0.0001*%
%ADD657R,0.1416X0.0001*%
%ADD658R,0.1413X0.0001*%
%ADD659R,0.1410X0.0001*%
%ADD660R,0.1404X0.0001*%
%ADD661R,0.1401X0.0001*%
%ADD662R,0.0346X0.0001*%
%ADD663R,0.1044X0.0001*%
%ADD664R,0.0342X0.0002*%
%ADD665R,0.1040X0.0002*%
%ADD666R,0.0337X0.0001*%
%ADD667R,0.1034X0.0001*%
%ADD668R,0.0357X0.0001*%
%ADD669R,0.0660X0.0001*%
%ADD670R,0.0353X0.0001*%
%ADD671R,0.0327X0.0001*%
%ADD672R,0.0349X0.0001*%
%ADD673R,0.0321X0.0001*%
%ADD674R,0.0648X0.0001*%
%ADD675R,0.0344X0.0001*%
%ADD676R,0.0317X0.0001*%
%ADD677R,0.0339X0.0001*%
%ADD678R,0.0312X0.0001*%
%ADD679R,0.0631X0.0001*%
%ADD680R,0.0334X0.0001*%
%ADD681R,0.0309X0.0001*%
%ADD682R,0.0307X0.0002*%
%ADD683R,0.0623X0.0002*%
%ADD684R,0.0327X0.0002*%
%ADD685R,0.0618X0.0001*%
%ADD686R,0.0297X0.0001*%
%ADD687R,0.0607X0.0001*%
%ADD688R,0.0320X0.0001*%
%ADD689R,0.0293X0.0001*%
%ADD690R,0.0599X0.0001*%
%ADD691R,0.0313X0.0001*%
%ADD692R,0.0285X0.0001*%
%ADD693R,0.0584X0.0001*%
%ADD694R,0.0303X0.0001*%
%ADD695R,0.0281X0.0001*%
%ADD696R,0.0273X0.0002*%
%ADD697R,0.0563X0.0002*%
%ADD698R,0.0293X0.0002*%
%ADD699R,0.0264X0.0001*%
%ADD700R,0.0259X0.0001*%
%ADD701R,0.0256X0.0001*%
%ADD702R,0.0276X0.0001*%
%ADD703R,0.0252X0.0001*%
%ADD704R,0.0273X0.0001*%
%ADD705R,0.0248X0.0001*%
%ADD706R,0.0269X0.0001*%
%ADD707R,0.0245X0.0001*%
%ADD708R,0.0240X0.0001*%
%ADD709R,0.0237X0.0002*%
%ADD710R,0.0256X0.0002*%
%ADD711R,0.0234X0.0001*%
%ADD712R,0.0232X0.0001*%
%ADD713R,0.0251X0.0001*%
%ADD714R,0.0228X0.0001*%
%ADD715R,0.0246X0.0001*%
%ADD716R,0.0456X0.0001*%
%ADD717R,0.0219X0.0001*%
%ADD718R,0.0444X0.0001*%
%ADD719R,0.0237X0.0001*%
%ADD720R,0.0214X0.0001*%
%ADD721R,0.0436X0.0001*%
%ADD722R,0.0432X0.0001*%
%ADD723R,0.0231X0.0001*%
%ADD724R,0.0210X0.0001*%
%ADD725R,0.0426X0.0001*%
%ADD726R,0.0420X0.0001*%
%ADD727R,0.0226X0.0001*%
%ADD728R,0.0204X0.0002*%
%ADD729R,0.0409X0.0002*%
%ADD730R,0.0222X0.0002*%
%ADD731R,0.0391X0.0001*%
%ADD732R,0.0217X0.0001*%
%ADD733R,0.0376X0.0001*%
%ADD734R,0.0368X0.0001*%
%ADD735R,0.0189X0.0001*%
%ADD736R,0.0361X0.0001*%
%ADD737R,0.0206X0.0001*%
%ADD738R,0.0186X0.0001*%
%ADD739R,0.0356X0.0001*%
%ADD740R,0.0181X0.0001*%
%ADD741R,0.0345X0.0001*%
%ADD742R,0.0173X0.0001*%
%ADD743R,0.0331X0.0001*%
%ADD744R,0.0190X0.0001*%
%ADD745R,0.0168X0.0001*%
%ADD746R,0.0165X0.0002*%
%ADD747R,0.0162X0.0001*%
%ADD748R,0.0159X0.0001*%
%ADD749R,0.0177X0.0001*%
%ADD750R,0.0156X0.0001*%
%ADD751R,0.0324X0.0001*%
%ADD752R,0.0174X0.0001*%
%ADD753R,0.0167X0.0001*%
%ADD754R,0.0146X0.0001*%
%ADD755R,0.0163X0.0001*%
%ADD756R,0.0141X0.0001*%
%ADD757R,0.0140X0.0001*%
%ADD758R,0.0137X0.0001*%
%ADD759R,0.0133X0.0001*%
%ADD760R,0.0129X0.0002*%
%ADD761R,0.0321X0.0002*%
%ADD762R,0.0146X0.0002*%
%ADD763R,0.0119X0.0001*%
%ADD764R,0.0129X0.0001*%
%ADD765R,0.0111X0.0001*%
%ADD766R,0.0126X0.0001*%
%ADD767R,0.0318X0.0001*%
%ADD768R,0.0097X0.0001*%
%ADD769R,0.0315X0.0001*%
%ADD770R,0.0089X0.0002*%
%ADD771R,0.0315X0.0002*%
%ADD772R,0.0105X0.0002*%
%ADD773R,0.0079X0.0001*%
%ADD774R,0.0089X0.0001*%
%ADD775R,0.0069X0.0001*%
%ADD776R,0.0084X0.0001*%
%ADD777R,0.0057X0.0001*%
%ADD778R,0.0052X0.0002*%
%ADD779R,0.0311X0.0002*%
%ADD780R,0.0066X0.0002*%
%ADD781R,0.0061X0.0001*%
%ADD782R,0.0042X0.0001*%
%ADD783R,0.0055X0.0001*%
%ADD784R,0.0039X0.0001*%
%ADD785R,0.0052X0.0001*%
%ADD786R,0.0036X0.0001*%
%ADD787R,0.0049X0.0001*%
%ADD788R,0.0307X0.0001*%
%ADD789R,0.0045X0.0001*%
%ADD790R,0.0022X0.0001*%
%ADD791R,0.0035X0.0001*%
%ADD792R,0.0025X0.0002*%
%ADD793R,0.0306X0.0001*%
%ADD794R,0.0018X0.0001*%
%ADD795R,0.0008X0.0001*%
%ADD796R,0.0300X0.0002*%
%ADD797R,0.0296X0.0001*%
%ADD798R,0.0294X0.0002*%
%ADD799R,0.0294X0.0001*%
%ADD800R,0.0291X0.0001*%
%ADD801R,0.0291X0.0002*%
%ADD802R,0.0286X0.0001*%
%ADD803R,0.0281X0.0002*%
%ADD804R,0.0277X0.0001*%
%ADD805R,0.0276X0.0001*%
%ADD806R,0.0266X0.0002*%
%ADD807R,0.0264X0.0001*%
%ADD808R,0.0261X0.0001*%
%ADD809R,0.0259X0.0002*%
%ADD810R,0.0254X0.0002*%
%ADD811R,0.0248X0.0002*%
%ADD812R,0.0218X0.0002*%
%ADD813R,0.0157X0.0001*%
%ADD814C,0.0050*%
%ADD815C,0.0160*%
%ADD816C,0.0040*%
%ADD817C,0.0070*%
%ADD818C,0.0060*%
%ADD819C,0.0030*%
%ADD820C,0.0100*%
%ADD821R,0.0787X0.2165*%
%ADD822C,0.0138*%
%ADD823C,0.0000*%
%ADD824C,0.0020*%
%ADD825R,0.0079X0.0551*%
%ADD826C,0.0200*%
%ADD827R,0.0300X0.4200*%
%ADD828R,0.0200X0.0750*%
%ADD829R,0.0200X0.1300*%
%ADD830R,0.0551X0.0079*%
%ADD831C,0.0150*%
%ADD832R,0.0472X0.5512*%
%ADD833C,0.0080*%
%ADD834R,0.0300X0.0340*%
%ADD835R,0.1020X0.0354*%
%ADD836C,0.0500*%
%ADD837R,0.1500X0.0250*%
%ADD838R,0.0250X0.1500*%
%ADD839R,0.0079X0.0079*%
%ADD840R,0.0827X0.0118*%
%ADD841R,0.0900X0.0250*%
%ADD842C,0.0240*%
%ADD843R,0.0750X0.2500*%
%ADD844R,0.0750X0.3000*%
%ADD845C,0.0120*%
%ADD846R,0.1800X0.0300*%
D10*
X002922Y001487D02*
X062764Y001487D01*
X062810Y001489D01*
X062856Y001494D01*
X062902Y001503D01*
X062947Y001516D01*
X062990Y001532D01*
X063032Y001551D01*
X063073Y001574D01*
X063111Y001600D01*
X063148Y001629D01*
X063182Y001660D01*
X063213Y001694D01*
X063242Y001731D01*
X063268Y001769D01*
X063291Y001810D01*
X063310Y001852D01*
X063326Y001895D01*
X063339Y001940D01*
X063348Y001986D01*
X063353Y002032D01*
X063355Y002078D01*
X063355Y034361D01*
X063353Y034407D01*
X063348Y034453D01*
X063339Y034499D01*
X063326Y034544D01*
X063310Y034587D01*
X063291Y034629D01*
X063268Y034670D01*
X063242Y034708D01*
X063213Y034745D01*
X063182Y034779D01*
X063148Y034810D01*
X063111Y034839D01*
X063073Y034865D01*
X063032Y034888D01*
X062990Y034907D01*
X062947Y034923D01*
X062902Y034936D01*
X062856Y034945D01*
X062810Y034950D01*
X062764Y034952D01*
X002922Y034952D01*
X002876Y034950D01*
X002830Y034945D01*
X002784Y034936D01*
X002739Y034923D01*
X002696Y034907D01*
X002654Y034888D01*
X002613Y034865D01*
X002575Y034839D01*
X002538Y034810D01*
X002504Y034779D01*
X002473Y034745D01*
X002444Y034708D01*
X002418Y034670D01*
X002395Y034629D01*
X002376Y034587D01*
X002360Y034544D01*
X002347Y034499D01*
X002338Y034453D01*
X002333Y034407D01*
X002331Y034361D01*
X002331Y002078D01*
X002333Y002032D01*
X002338Y001986D01*
X002347Y001940D01*
X002360Y001895D01*
X002376Y001852D01*
X002395Y001810D01*
X002418Y001769D01*
X002444Y001731D01*
X002473Y001694D01*
X002504Y001660D01*
X002538Y001629D01*
X002575Y001600D01*
X002613Y001574D01*
X002654Y001551D01*
X002696Y001532D01*
X002739Y001516D01*
X002784Y001503D01*
X002830Y001494D01*
X002876Y001489D01*
X002922Y001487D01*
X030677Y001487D02*
X030677Y003456D01*
X033827Y003456D01*
X033866Y003458D01*
X033904Y003464D01*
X033941Y003473D01*
X033978Y003486D01*
X034013Y003503D01*
X034046Y003522D01*
X034077Y003545D01*
X034106Y003571D01*
X034132Y003600D01*
X034155Y003631D01*
X034174Y003664D01*
X034191Y003699D01*
X034204Y003736D01*
X034213Y003773D01*
X034219Y003811D01*
X034221Y003850D01*
X034221Y032590D01*
X034219Y032629D01*
X034213Y032667D01*
X034204Y032704D01*
X034191Y032741D01*
X034174Y032776D01*
X034155Y032809D01*
X034132Y032840D01*
X034106Y032869D01*
X034077Y032895D01*
X034046Y032918D01*
X034013Y032937D01*
X033978Y032954D01*
X033941Y032967D01*
X033904Y032976D01*
X033866Y032982D01*
X033827Y032984D01*
X033827Y032983D02*
X030677Y032983D01*
X030677Y034952D01*
X035402Y034952D01*
X035456Y034950D01*
X035509Y034945D01*
X035562Y034936D01*
X035614Y034923D01*
X035666Y034907D01*
X035716Y034887D01*
X035764Y034864D01*
X035811Y034837D01*
X035856Y034808D01*
X035899Y034775D01*
X035939Y034740D01*
X035977Y034702D01*
X036012Y034662D01*
X036045Y034619D01*
X036074Y034574D01*
X036101Y034527D01*
X036124Y034479D01*
X036144Y034429D01*
X036160Y034377D01*
X036173Y034325D01*
X036182Y034272D01*
X036187Y034219D01*
X036189Y034165D01*
X036189Y002275D01*
X036187Y002221D01*
X036182Y002168D01*
X036173Y002115D01*
X036160Y002063D01*
X036144Y002011D01*
X036124Y001961D01*
X036101Y001913D01*
X036074Y001866D01*
X036045Y001821D01*
X036012Y001778D01*
X035977Y001738D01*
X035939Y001700D01*
X035899Y001665D01*
X035856Y001632D01*
X035811Y001603D01*
X035764Y001576D01*
X035716Y001553D01*
X035666Y001533D01*
X035614Y001517D01*
X035562Y001504D01*
X035509Y001495D01*
X035456Y001490D01*
X035402Y001488D01*
X035402Y001487D02*
X030677Y001487D01*
X056125Y003451D02*
X056125Y003845D01*
X057700Y003845D01*
X057700Y003451D01*
X056125Y003451D01*
X056125Y005105D02*
X056125Y005499D01*
X057700Y005499D01*
X057700Y005105D01*
X056125Y005105D01*
X055481Y032780D02*
X055088Y032780D01*
X055088Y034355D01*
X055481Y034355D01*
X055481Y032780D01*
X057088Y032780D02*
X057481Y032780D01*
X057481Y034355D01*
X057088Y034355D01*
X057088Y032780D01*
X053481Y032780D02*
X053088Y032780D01*
X053088Y034355D01*
X053481Y034355D01*
X053481Y032780D01*
D11*
X008515Y018144D03*
D12*
X008226Y017573D03*
X009046Y017660D03*
X009364Y017590D03*
D13*
X008226Y017575D03*
D14*
X008226Y017576D03*
D15*
X008226Y017578D03*
D16*
X008226Y017579D03*
X008235Y019018D03*
D17*
X008226Y017581D03*
X009051Y017669D03*
D18*
X009052Y017671D03*
X008226Y017582D03*
D19*
X008226Y017584D03*
D20*
X008226Y017585D03*
D21*
X008226Y017587D03*
X009364Y017603D03*
D22*
X008227Y017588D03*
D23*
X008227Y017590D03*
X008529Y017671D03*
X009060Y017680D03*
D24*
X009061Y017681D03*
X009363Y017609D03*
X008227Y017591D03*
D25*
X009046Y017663D03*
X009365Y017591D03*
D26*
X009363Y017611D03*
X008526Y017675D03*
X008227Y017593D03*
D27*
X009364Y017593D03*
D28*
X009064Y017686D03*
X008524Y017677D03*
X008227Y017594D03*
D29*
X009365Y017594D03*
D30*
X008227Y017596D03*
D31*
X009049Y017668D03*
X009365Y017596D03*
D32*
X008523Y017678D03*
X008227Y017597D03*
D33*
X008539Y017660D03*
X009365Y017597D03*
X009328Y019022D03*
D34*
X008228Y017599D03*
D35*
X009365Y017599D03*
D36*
X009361Y017618D03*
X008229Y017600D03*
D37*
X008535Y017666D03*
X009054Y017672D03*
X009364Y017600D03*
D38*
X009070Y017693D03*
X008517Y017686D03*
X008229Y017602D03*
X008238Y018992D03*
D39*
X008236Y019010D03*
X009364Y017602D03*
D40*
X009361Y017621D03*
X008515Y017687D03*
X008229Y017603D03*
X009325Y018998D03*
X008767Y019210D03*
D41*
X008230Y017605D03*
D42*
X009364Y017605D03*
D43*
X009361Y017623D03*
X009073Y017698D03*
X008230Y017606D03*
X009325Y018997D03*
D44*
X009364Y017606D03*
D45*
X008230Y017608D03*
D46*
X009364Y017608D03*
X008237Y019006D03*
D47*
X009325Y018992D03*
X009076Y017701D03*
X008230Y017609D03*
D48*
X008230Y017611D03*
D49*
X008231Y017612D03*
X008509Y017696D03*
X009079Y017707D03*
X009323Y018989D03*
D50*
X009326Y019007D03*
X009362Y017612D03*
D51*
X008231Y017614D03*
D52*
X009362Y017614D03*
D53*
X008231Y017615D03*
X008240Y018980D03*
X009323Y018988D03*
D54*
X009326Y019004D03*
X009362Y017615D03*
D55*
X008231Y017617D03*
D56*
X008521Y017680D03*
X009362Y017617D03*
X009326Y019003D03*
D57*
X009084Y017713D03*
X008232Y017618D03*
D58*
X008232Y017620D03*
X008502Y017705D03*
X009358Y017639D03*
D59*
X009361Y017620D03*
X008518Y017684D03*
D60*
X008232Y017621D03*
D61*
X008233Y017623D03*
D62*
X008233Y017624D03*
X009088Y017722D03*
D63*
X009360Y017624D03*
D64*
X008233Y017626D03*
X008242Y018970D03*
X009322Y018977D03*
D65*
X009325Y018995D03*
X008239Y018989D03*
X009361Y017626D03*
D66*
X008233Y017627D03*
D67*
X009360Y017627D03*
D68*
X008233Y017629D03*
D69*
X009360Y017629D03*
D70*
X008233Y017630D03*
D71*
X009360Y017630D03*
D72*
X008234Y017632D03*
D73*
X008509Y017698D03*
X009080Y017708D03*
X009359Y017632D03*
D74*
X008234Y017633D03*
D75*
X009359Y017633D03*
D76*
X009355Y017654D03*
X008235Y017635D03*
D77*
X009358Y017635D03*
D78*
X008235Y017636D03*
D79*
X008505Y017701D03*
X009358Y017636D03*
D80*
X008234Y017638D03*
X009320Y018965D03*
D81*
X009323Y018983D03*
X009358Y017638D03*
X008504Y017702D03*
D82*
X008236Y017639D03*
D83*
X008236Y017641D03*
X008244Y018953D03*
D84*
X009358Y017641D03*
D85*
X009354Y017663D03*
X008236Y017642D03*
X008244Y018952D03*
X008785Y019207D03*
D86*
X009087Y017720D03*
X009357Y017642D03*
D87*
X008236Y017644D03*
D88*
X009357Y017644D03*
D89*
X008236Y017645D03*
X008244Y018950D03*
D90*
X009357Y017645D03*
D91*
X009353Y017668D03*
X008237Y017647D03*
X009319Y018956D03*
D92*
X009322Y018976D03*
X009356Y017647D03*
D93*
X008237Y017648D03*
X008245Y018947D03*
D94*
X009357Y017648D03*
D95*
X008238Y017650D03*
D96*
X009356Y017650D03*
D97*
X009352Y017672D03*
X008239Y017651D03*
D98*
X009355Y017651D03*
D99*
X008239Y017653D03*
D100*
X008544Y017653D03*
D101*
X009355Y017653D03*
D102*
X008239Y017654D03*
D103*
X008544Y017654D03*
D104*
X008239Y017656D03*
X008245Y018940D03*
X008787Y019202D03*
D105*
X008544Y017656D03*
D106*
X009355Y017656D03*
D107*
X009350Y017678D03*
X008240Y017657D03*
D108*
X008542Y017657D03*
D109*
X009355Y017657D03*
X008242Y018959D03*
D110*
X008240Y017659D03*
D111*
X008540Y017659D03*
D112*
X009355Y017659D03*
X009320Y018964D03*
D113*
X009349Y017683D03*
X008241Y017660D03*
D114*
X009355Y017660D03*
D115*
X009349Y017684D03*
X008241Y017662D03*
X009315Y018940D03*
D116*
X008236Y019016D03*
X008537Y017662D03*
D117*
X009046Y017662D03*
X008236Y019021D03*
D118*
X009355Y017662D03*
D119*
X009349Y017686D03*
X008242Y017663D03*
X008786Y019195D03*
D120*
X008536Y017663D03*
D121*
X008242Y017665D03*
X009349Y017687D03*
D122*
X008536Y017665D03*
D123*
X009046Y017665D03*
D124*
X009354Y017665D03*
X009319Y018959D03*
D125*
X008242Y017666D03*
D126*
X009047Y017666D03*
D127*
X009353Y017666D03*
X009319Y018958D03*
D128*
X009313Y018935D03*
X008785Y019169D03*
X008785Y019171D03*
X008785Y019172D03*
X008785Y019175D03*
X008242Y017668D03*
D129*
X008534Y017668D03*
X009055Y017675D03*
X009328Y019016D03*
D130*
X009313Y018932D03*
X008786Y019162D03*
X009347Y017692D03*
X008243Y017669D03*
D131*
X008531Y017669D03*
X009058Y017678D03*
D132*
X009352Y017669D03*
X009318Y018953D03*
D133*
X008244Y017671D03*
D134*
X009352Y017671D03*
X009317Y018952D03*
X008245Y018944D03*
D135*
X008251Y018920D03*
X008785Y019141D03*
X008785Y019142D03*
X009346Y017696D03*
X008245Y017672D03*
D136*
X008528Y017672D03*
X008237Y019004D03*
D137*
X008785Y019129D03*
X008245Y017674D03*
D138*
X008527Y017674D03*
D139*
X009055Y017674D03*
D140*
X009352Y017674D03*
D141*
X008245Y017675D03*
X008785Y019118D03*
X008785Y019120D03*
X008785Y019121D03*
X008785Y019123D03*
X008785Y019124D03*
D142*
X009351Y017675D03*
D143*
X008245Y017677D03*
X008785Y019111D03*
D144*
X009056Y017677D03*
D145*
X009351Y017677D03*
D146*
X008245Y017678D03*
X008251Y018917D03*
X009310Y018925D03*
D147*
X008785Y019094D03*
X008785Y019096D03*
X008252Y018914D03*
X008246Y017680D03*
D148*
X009350Y017680D03*
D149*
X009344Y017705D03*
X008246Y017681D03*
X008252Y018911D03*
X008785Y019073D03*
X008785Y019075D03*
X008785Y019076D03*
X008785Y019078D03*
X008785Y019079D03*
X008785Y019081D03*
X008785Y019082D03*
X009310Y018920D03*
D150*
X008518Y017681D03*
D151*
X009349Y017681D03*
D152*
X009343Y017707D03*
X008247Y017683D03*
D153*
X008518Y017683D03*
D154*
X009062Y017683D03*
X008237Y019003D03*
D155*
X008247Y017684D03*
D156*
X009064Y017684D03*
D157*
X008248Y017686D03*
D158*
X008248Y017687D03*
X008783Y019037D03*
X008783Y019040D03*
X008783Y019042D03*
X009308Y018916D03*
D159*
X009326Y019006D03*
X008237Y019000D03*
X009065Y017687D03*
D160*
X008248Y017689D03*
D161*
X008514Y017689D03*
D162*
X009067Y017689D03*
D163*
X009348Y017689D03*
D164*
X008249Y017690D03*
X008785Y019013D03*
X008785Y019015D03*
X008785Y019016D03*
D165*
X008239Y018988D03*
X008512Y017690D03*
X009074Y017699D03*
D166*
X009069Y017690D03*
X008238Y018997D03*
D167*
X008786Y019168D03*
X009347Y017690D03*
D168*
X009340Y017717D03*
X008250Y017692D03*
X008784Y018997D03*
X008784Y018998D03*
X008784Y019000D03*
X008784Y019001D03*
X008784Y019003D03*
D169*
X008511Y017692D03*
D170*
X009070Y017692D03*
X008237Y018995D03*
D171*
X008782Y018991D03*
X008782Y018989D03*
X008250Y017693D03*
D172*
X008511Y017693D03*
X008239Y018985D03*
X009324Y018991D03*
D173*
X009312Y018931D03*
X008785Y019151D03*
X008785Y019153D03*
X008785Y019154D03*
X008250Y018923D03*
X009346Y017693D03*
D174*
X008250Y017695D03*
D175*
X008510Y017695D03*
D176*
X009071Y017695D03*
D177*
X009346Y017695D03*
X008785Y019145D03*
X008785Y019147D03*
X008785Y019148D03*
D178*
X008251Y017696D03*
D179*
X009071Y017696D03*
D180*
X008251Y017698D03*
D181*
X009346Y017698D03*
X008785Y019126D03*
X008785Y019127D03*
X008785Y019130D03*
X008785Y019132D03*
D182*
X008784Y018962D03*
X008251Y017699D03*
D183*
X008506Y017699D03*
X009081Y017710D03*
D184*
X009345Y017699D03*
D185*
X008252Y017701D03*
X008257Y018892D03*
D186*
X008785Y019100D03*
X008785Y019102D03*
X009344Y017701D03*
D187*
X008252Y017702D03*
X008785Y018959D03*
D188*
X009077Y017702D03*
D189*
X009343Y017702D03*
X009310Y018922D03*
X008784Y019091D03*
X008784Y019093D03*
D190*
X008252Y017704D03*
D191*
X008503Y017704D03*
D192*
X009077Y017704D03*
D193*
X009343Y017704D03*
X008784Y019084D03*
D194*
X008252Y017705D03*
D195*
X009078Y017705D03*
X008239Y018983D03*
D196*
X008343Y018146D03*
X008367Y018119D03*
X008364Y017812D03*
X008325Y017707D03*
X009196Y017881D03*
X009198Y017878D03*
X009258Y017725D03*
D197*
X009206Y017863D03*
X009205Y017866D03*
X009205Y017867D03*
X009203Y017870D03*
X009199Y018113D03*
X009197Y018490D03*
X009196Y018491D03*
X009194Y018493D03*
X008342Y018457D03*
X008368Y018118D03*
X008369Y018116D03*
X008359Y017804D03*
X008357Y017801D03*
X008356Y017798D03*
X008324Y017708D03*
D198*
X009343Y017708D03*
D199*
X009259Y017728D03*
X009208Y017860D03*
X009155Y017999D03*
X009193Y018496D03*
X008377Y018494D03*
X008371Y018113D03*
X008372Y018112D03*
X008422Y017983D03*
X008422Y017981D03*
X008354Y017795D03*
X008324Y017710D03*
D200*
X009342Y017710D03*
X008784Y019043D03*
D201*
X008379Y018497D03*
X008377Y018496D03*
X008338Y018148D03*
X008352Y017792D03*
X008352Y017791D03*
X008323Y017711D03*
X009154Y018001D03*
X009208Y017858D03*
X009210Y017857D03*
X009259Y017729D03*
X009190Y018497D03*
D202*
X009082Y017711D03*
D203*
X009340Y017711D03*
X008254Y018907D03*
D204*
X008339Y018455D03*
X008374Y018110D03*
X008351Y017789D03*
X008350Y017786D03*
X008323Y017713D03*
X009211Y017855D03*
X009212Y017852D03*
X009212Y017851D03*
X009214Y017849D03*
D205*
X009340Y017713D03*
X009307Y018913D03*
X008784Y019028D03*
X008784Y019030D03*
X008784Y019031D03*
X008254Y018905D03*
D206*
X008381Y018502D03*
X009191Y018104D03*
X009221Y017836D03*
X008323Y017716D03*
X008323Y017714D03*
D207*
X009084Y017714D03*
D208*
X009340Y017714D03*
D209*
X009085Y017716D03*
X009323Y018982D03*
D210*
X008784Y019004D03*
X008784Y019006D03*
X008784Y019007D03*
X008784Y019010D03*
X008784Y019012D03*
X009340Y017716D03*
D211*
X009224Y017830D03*
X009223Y017831D03*
X008341Y017771D03*
X008341Y017770D03*
X008339Y017768D03*
X008323Y017717D03*
X008383Y018503D03*
X008384Y018505D03*
D212*
X009085Y017717D03*
D213*
X008323Y017719D03*
D214*
X009086Y017719D03*
D215*
X009340Y017719D03*
D216*
X008338Y017765D03*
X008323Y017722D03*
X008323Y017720D03*
D217*
X009339Y017720D03*
X009306Y018907D03*
X008782Y018973D03*
X008782Y018974D03*
X008782Y018976D03*
X008782Y018977D03*
D218*
X008782Y018967D03*
X008256Y018896D03*
X009337Y017722D03*
D219*
X008383Y018098D03*
X008323Y017723D03*
D220*
X009088Y017723D03*
D221*
X009337Y017723D03*
X009305Y018902D03*
X008257Y018893D03*
D222*
X008384Y018097D03*
X008420Y018002D03*
X008335Y017759D03*
X008335Y017758D03*
X008333Y017756D03*
X008333Y017755D03*
X008323Y017726D03*
X008323Y017725D03*
X009155Y018013D03*
X009155Y018014D03*
X009155Y018016D03*
X009155Y018017D03*
X009185Y018095D03*
X009235Y017812D03*
X009235Y017810D03*
X009236Y017807D03*
X009179Y018511D03*
D223*
X009193Y018494D03*
X009204Y018485D03*
X009198Y018112D03*
X009196Y018110D03*
X009154Y017998D03*
X009205Y017864D03*
X009207Y017861D03*
X009258Y017726D03*
X008358Y017803D03*
X008356Y017800D03*
X008355Y017797D03*
X008370Y018115D03*
X008784Y018932D03*
D224*
X008323Y017731D03*
X008323Y017729D03*
X008323Y017728D03*
D225*
X008421Y017987D03*
X008421Y017990D03*
X009214Y017848D03*
X009216Y017846D03*
X009217Y017845D03*
X009217Y017843D03*
X009259Y017731D03*
D226*
X009239Y017801D03*
X009238Y017803D03*
X009178Y018512D03*
X008324Y017738D03*
X008324Y017737D03*
X008324Y017735D03*
X008324Y017732D03*
D227*
X008347Y017780D03*
X008348Y017782D03*
X008420Y017992D03*
X008420Y017993D03*
X008377Y018107D03*
X009218Y017842D03*
X009260Y017732D03*
D228*
X008324Y017734D03*
D229*
X009155Y018004D03*
X009260Y017734D03*
D230*
X009261Y017735D03*
X008421Y017995D03*
X008379Y018103D03*
X008379Y018104D03*
X008377Y018106D03*
X008344Y017777D03*
X009186Y018503D03*
X009187Y018502D03*
X008784Y018931D03*
D231*
X009185Y018505D03*
X009190Y018101D03*
X009188Y018100D03*
X009155Y018007D03*
X009155Y018005D03*
X009260Y017737D03*
X008420Y017996D03*
X008420Y017998D03*
X008344Y017776D03*
X008342Y017774D03*
D232*
X008380Y018101D03*
X009226Y017825D03*
X009228Y017822D03*
X009229Y017821D03*
X009261Y017738D03*
X009214Y018481D03*
X009184Y018506D03*
X009183Y018508D03*
D233*
X009155Y018022D03*
X009155Y018020D03*
X008420Y018005D03*
X008387Y018092D03*
X008330Y017750D03*
X008327Y017746D03*
X008326Y017743D03*
X008326Y017741D03*
X008326Y017740D03*
X008390Y018511D03*
D234*
X008388Y018509D03*
X008331Y018452D03*
X008335Y017761D03*
X009232Y017815D03*
X009232Y017816D03*
X009234Y017813D03*
X009262Y017740D03*
X009186Y018097D03*
X009255Y018170D03*
X009181Y018509D03*
D235*
X009183Y018092D03*
X009237Y017806D03*
X009237Y017804D03*
X009262Y017743D03*
X009262Y017741D03*
X008385Y018095D03*
X008332Y017753D03*
X008331Y017752D03*
D236*
X008328Y017747D03*
X008326Y017744D03*
X008388Y018091D03*
X008392Y018512D03*
X008784Y018929D03*
X009174Y018517D03*
X009175Y018515D03*
X009181Y018091D03*
X009156Y018023D03*
X009241Y017798D03*
X009243Y017795D03*
X009244Y017792D03*
X009246Y017791D03*
X009262Y017744D03*
D237*
X009262Y017746D03*
X009262Y017747D03*
X009247Y017789D03*
X009242Y017797D03*
X009155Y018025D03*
X008420Y018008D03*
X008420Y018007D03*
X008395Y018515D03*
D238*
X008386Y018094D03*
X008420Y018004D03*
X008329Y017749D03*
X009176Y018514D03*
D239*
X009262Y017749D03*
D240*
X009262Y017750D03*
X009262Y017752D03*
X008420Y018011D03*
X008420Y018013D03*
X008390Y018089D03*
D241*
X008419Y018016D03*
X008419Y018014D03*
X009156Y018028D03*
X009261Y018172D03*
X009261Y017758D03*
X009261Y017756D03*
X009261Y017755D03*
X009261Y017753D03*
D242*
X009260Y017759D03*
X009260Y017761D03*
X009260Y017762D03*
X009155Y018029D03*
X009170Y018520D03*
X008392Y018088D03*
X008420Y018017D03*
D243*
X008420Y018001D03*
X008420Y017999D03*
X008332Y018149D03*
X008386Y018508D03*
X009187Y018098D03*
X009155Y018011D03*
X009155Y018010D03*
X009155Y018008D03*
X009226Y017827D03*
X009230Y017819D03*
X009232Y017818D03*
X008336Y017762D03*
D244*
X008337Y017764D03*
D245*
X009259Y017764D03*
D246*
X009259Y017765D03*
X009259Y017767D03*
X009257Y017768D03*
X009257Y017770D03*
X009256Y017771D03*
X009254Y017773D03*
X009253Y017776D03*
X009176Y018086D03*
X009178Y018088D03*
X008399Y018520D03*
D247*
X008385Y018506D03*
X008382Y018100D03*
X008338Y017767D03*
X009225Y017828D03*
D248*
X009222Y017833D03*
X009222Y017834D03*
X009220Y017837D03*
X009190Y018103D03*
X008341Y017773D03*
D249*
X009250Y017780D03*
X009252Y017777D03*
X009253Y017774D03*
D250*
X008346Y017779D03*
D251*
X009251Y017779D03*
D252*
X009250Y017782D03*
X009250Y017783D03*
X009223Y018479D03*
X008398Y018518D03*
X008324Y018151D03*
D253*
X008380Y018500D03*
X009189Y018500D03*
X009210Y018482D03*
X009193Y018107D03*
X009192Y018106D03*
X009219Y017840D03*
X008350Y017788D03*
X008349Y017785D03*
X008349Y017783D03*
D254*
X008419Y018010D03*
X009156Y018026D03*
X009247Y017788D03*
X009249Y017786D03*
X009249Y017785D03*
X009172Y018518D03*
D255*
X009206Y018484D03*
X009247Y018169D03*
X008354Y017794D03*
D256*
X009244Y017794D03*
D257*
X009240Y017800D03*
D258*
X009155Y017995D03*
X009155Y017996D03*
X009200Y018115D03*
X008422Y017980D03*
X008360Y017806D03*
X008375Y018491D03*
D259*
X008374Y018490D03*
X008422Y017978D03*
X008361Y017807D03*
X009154Y017992D03*
X009154Y017993D03*
X009199Y017876D03*
X009199Y017875D03*
X009201Y017873D03*
X009202Y017872D03*
X009201Y018116D03*
X009202Y018118D03*
X009201Y018487D03*
X009199Y018488D03*
D260*
X008362Y017809D03*
D261*
X009156Y018019D03*
X009184Y018094D03*
X009235Y017809D03*
D262*
X009155Y017990D03*
X009203Y018119D03*
X008363Y017810D03*
D263*
X008365Y017813D03*
X008365Y017815D03*
X008366Y017818D03*
X008366Y018121D03*
X008372Y018488D03*
X009194Y017885D03*
X009196Y017882D03*
X009197Y017879D03*
D264*
X009193Y017887D03*
X009193Y017888D03*
X008367Y017819D03*
X008365Y017816D03*
X008365Y018122D03*
X008371Y018487D03*
D265*
X008368Y018482D03*
X008368Y017821D03*
X009192Y017890D03*
D266*
X009208Y018125D03*
X008369Y017822D03*
X008368Y018481D03*
D267*
X008369Y017824D03*
D268*
X009227Y017824D03*
D269*
X009191Y017891D03*
X009190Y017894D03*
X009188Y017897D03*
X009187Y017900D03*
X009185Y017902D03*
X009154Y017984D03*
X009241Y018167D03*
X008422Y017971D03*
X008422Y017969D03*
X008372Y017830D03*
X008371Y017827D03*
X008371Y017825D03*
X008362Y018128D03*
X008348Y018143D03*
X008366Y018479D03*
X008785Y018935D03*
D270*
X008361Y018130D03*
X008376Y017834D03*
X008374Y017833D03*
X008373Y017831D03*
X008371Y017828D03*
X009153Y017981D03*
X009153Y017983D03*
X009181Y017908D03*
X009183Y017906D03*
X009183Y017905D03*
X009184Y017903D03*
D271*
X009181Y017909D03*
X009181Y017911D03*
X009209Y018128D03*
X009209Y018130D03*
X008422Y017968D03*
X008422Y017966D03*
X008380Y017842D03*
X008378Y017837D03*
X008377Y017836D03*
X008360Y018131D03*
X008359Y018134D03*
X008351Y018142D03*
X008363Y018476D03*
X008365Y018478D03*
D272*
X008378Y017839D03*
X009179Y017914D03*
D273*
X009220Y017839D03*
D274*
X009180Y017912D03*
X009153Y017980D03*
X009210Y018131D03*
X009211Y018133D03*
X009211Y018134D03*
X008422Y017965D03*
X008380Y017845D03*
X008380Y017843D03*
X008379Y017840D03*
X008359Y018133D03*
X008358Y018136D03*
X008361Y018472D03*
X008362Y018473D03*
X008362Y018475D03*
D275*
X008360Y018470D03*
X008357Y018137D03*
X008423Y017963D03*
X008381Y017846D03*
X009154Y017978D03*
X009212Y018136D03*
X008785Y018937D03*
D276*
X009178Y017918D03*
X008383Y017848D03*
D277*
X008383Y017849D03*
X009237Y018166D03*
X008353Y018460D03*
D278*
X008384Y017851D03*
D279*
X008385Y017852D03*
X008386Y017855D03*
X009166Y017935D03*
X009166Y017936D03*
X008356Y018463D03*
X008355Y018461D03*
D280*
X008386Y017854D03*
D281*
X009211Y017854D03*
X009190Y018499D03*
X008380Y018499D03*
D282*
X008425Y017957D03*
X008387Y017857D03*
X009164Y017942D03*
X009166Y017939D03*
X009166Y017938D03*
D283*
X009168Y017933D03*
X009214Y018140D03*
X008388Y017858D03*
D284*
X008389Y017860D03*
X008390Y017861D03*
X009154Y017971D03*
X009154Y017972D03*
X009215Y018142D03*
X009217Y018143D03*
X009217Y018145D03*
X009233Y018164D03*
D285*
X009217Y018146D03*
X008392Y017864D03*
X008391Y017863D03*
D286*
X008393Y017866D03*
X008395Y017870D03*
X008396Y017872D03*
X008425Y017951D03*
X008425Y017953D03*
X008425Y017954D03*
X009154Y017963D03*
X009154Y017966D03*
X009154Y017968D03*
X009160Y017950D03*
X009163Y017945D03*
X009218Y018148D03*
D287*
X009153Y017969D03*
X009162Y017947D03*
X009165Y017941D03*
X008424Y017956D03*
X008394Y017867D03*
X008785Y018938D03*
D288*
X008395Y017869D03*
D289*
X009204Y017869D03*
D290*
X009160Y017948D03*
X009159Y017951D03*
X009157Y017953D03*
X009154Y017960D03*
X009154Y017962D03*
X009153Y017965D03*
X009219Y018149D03*
X009220Y018151D03*
X008397Y017875D03*
X008397Y017873D03*
D291*
X008398Y017876D03*
X008425Y017948D03*
X008425Y017950D03*
X009221Y018152D03*
X009223Y018155D03*
X009224Y018157D03*
X009226Y018158D03*
X009227Y018160D03*
X009229Y018161D03*
D292*
X008400Y017879D03*
X008398Y017878D03*
D293*
X008401Y017881D03*
X008401Y017882D03*
X008402Y017885D03*
X008425Y017947D03*
D294*
X008402Y017884D03*
D295*
X009196Y017884D03*
D296*
X008403Y017887D03*
D297*
X008404Y017888D03*
X008406Y017890D03*
D298*
X008407Y017891D03*
X008408Y017893D03*
X008408Y017894D03*
D299*
X008422Y017972D03*
X008362Y018127D03*
X008347Y018458D03*
X009189Y017896D03*
X009190Y017893D03*
D300*
X008409Y017896D03*
D301*
X008410Y017897D03*
X008425Y017945D03*
D302*
X008425Y017944D03*
X008410Y017899D03*
D303*
X009187Y017899D03*
D304*
X008413Y017902D03*
X008411Y017900D03*
D305*
X008413Y017903D03*
D306*
X008414Y017905D03*
X008414Y017906D03*
D307*
X008415Y017908D03*
X008416Y017911D03*
X008425Y017936D03*
X008425Y017938D03*
D308*
X008426Y017939D03*
X008416Y017909D03*
D309*
X008417Y017912D03*
X008419Y017915D03*
X008420Y017917D03*
X008426Y017933D03*
X008426Y017935D03*
D310*
X008418Y017914D03*
D311*
X008353Y018140D03*
X009178Y017917D03*
X009178Y017915D03*
D312*
X008425Y017927D03*
X008424Y017924D03*
X008424Y017923D03*
X008422Y017920D03*
X008421Y017918D03*
X008425Y017930D03*
X008425Y017932D03*
D313*
X008358Y018466D03*
X008359Y018467D03*
X009213Y018137D03*
X009153Y017977D03*
X009169Y017930D03*
X009172Y017926D03*
X009174Y017923D03*
X009175Y017921D03*
X009175Y017920D03*
D314*
X008425Y017926D03*
X008423Y017921D03*
D315*
X008423Y017960D03*
X008423Y017962D03*
X008357Y018464D03*
X009154Y017975D03*
X009169Y017932D03*
X009172Y017927D03*
X009173Y017924D03*
D316*
X008425Y017929D03*
D317*
X009171Y017929D03*
D318*
X008425Y017941D03*
X008425Y017942D03*
D319*
X009163Y017944D03*
D320*
X009157Y017954D03*
D321*
X009156Y017956D03*
X009156Y017957D03*
X009231Y018163D03*
D322*
X008424Y017959D03*
D323*
X009155Y017959D03*
D324*
X008422Y017974D03*
X008365Y018124D03*
D325*
X009154Y017974D03*
X009214Y018139D03*
D326*
X009154Y017987D03*
X008422Y017977D03*
X008422Y017975D03*
D327*
X008421Y017984D03*
X008421Y017986D03*
D328*
X008363Y018125D03*
X008347Y018145D03*
X009154Y017986D03*
X009205Y018121D03*
D329*
X008421Y017989D03*
D330*
X009154Y017989D03*
X008784Y018934D03*
D331*
X009155Y018002D03*
D332*
X008419Y018019D03*
D333*
X008419Y018020D03*
X008784Y018928D03*
D334*
X008320Y018152D03*
X008393Y018086D03*
X008419Y018022D03*
X009155Y018032D03*
X009175Y018085D03*
D335*
X009167Y018523D03*
X008404Y018523D03*
X008396Y018083D03*
X008419Y018025D03*
X008419Y018023D03*
D336*
X008418Y018026D03*
X008397Y018082D03*
X009165Y018524D03*
X008784Y018926D03*
D337*
X008406Y018527D03*
X008418Y018029D03*
X008418Y018028D03*
X009156Y018044D03*
X009156Y018046D03*
X009234Y018476D03*
D338*
X009155Y018047D03*
X008419Y018031D03*
D339*
X009156Y018031D03*
D340*
X009156Y018050D03*
X009271Y018176D03*
X008418Y018032D03*
X008313Y018155D03*
X008784Y018925D03*
D341*
X008419Y018034D03*
D342*
X009156Y018034D03*
D343*
X009166Y018077D03*
X008419Y018035D03*
X008404Y018077D03*
D344*
X009155Y018037D03*
X009155Y018035D03*
D345*
X009156Y018052D03*
X009159Y018530D03*
X008784Y018923D03*
X008310Y018157D03*
X008419Y018038D03*
X008419Y018037D03*
D346*
X008404Y018524D03*
X009171Y018080D03*
X009156Y018040D03*
X009156Y018038D03*
D347*
X009157Y018053D03*
X009161Y018073D03*
X008419Y018040D03*
X008408Y018073D03*
X008407Y018074D03*
X008405Y018076D03*
X008411Y018530D03*
D348*
X008310Y018448D03*
X008419Y018043D03*
X008419Y018041D03*
X009156Y018055D03*
X009160Y018071D03*
X009240Y018473D03*
X009157Y018532D03*
D349*
X009155Y018043D03*
X009155Y018041D03*
X008405Y018526D03*
X008317Y018449D03*
D350*
X008410Y018071D03*
X008419Y018046D03*
X008419Y018044D03*
D351*
X008418Y018047D03*
X009156Y018056D03*
X009156Y018058D03*
X009159Y018070D03*
X009276Y018178D03*
X009156Y018533D03*
X008784Y018922D03*
D352*
X008419Y018049D03*
D353*
X008401Y018079D03*
X009156Y018049D03*
D354*
X009156Y018059D03*
X009156Y018061D03*
X009156Y018062D03*
X009156Y018065D03*
X009157Y018068D03*
X008418Y018052D03*
X008418Y018050D03*
D355*
X008418Y018053D03*
X008418Y018055D03*
X008415Y018068D03*
X008305Y018446D03*
X008418Y018536D03*
D356*
X008416Y018067D03*
X008417Y018058D03*
X008417Y018056D03*
X009149Y018538D03*
X008785Y018920D03*
D357*
X008416Y018065D03*
X008418Y018061D03*
X008418Y018059D03*
D358*
X008417Y018062D03*
X008302Y018445D03*
D359*
X008417Y018064D03*
D360*
X009156Y018064D03*
D361*
X009157Y018067D03*
D362*
X009151Y018536D03*
X008416Y018535D03*
X008415Y018533D03*
X008305Y018158D03*
X008412Y018070D03*
D363*
X009163Y018074D03*
D364*
X009164Y018076D03*
X009238Y018475D03*
D365*
X009168Y018079D03*
D366*
X009268Y018175D03*
X009164Y018526D03*
X008399Y018080D03*
D367*
X008395Y018085D03*
X008401Y018521D03*
X009168Y018521D03*
X009229Y018478D03*
X009265Y018173D03*
X009174Y018083D03*
X009172Y018082D03*
D368*
X009180Y018089D03*
X008395Y018517D03*
D369*
X008375Y018109D03*
D370*
X009195Y018109D03*
D371*
X009206Y018122D03*
X008371Y018485D03*
D372*
X009207Y018124D03*
D373*
X009208Y018127D03*
D374*
X008356Y018139D03*
X008360Y018469D03*
D375*
X008316Y018154D03*
D376*
X009222Y018154D03*
D377*
X008297Y018160D03*
D378*
X008291Y018161D03*
X009292Y018181D03*
D379*
X008785Y018916D03*
X008288Y018440D03*
X008287Y018163D03*
D380*
X008283Y018164D03*
X008784Y018914D03*
D381*
X009269Y018464D03*
X008281Y018166D03*
D382*
X008277Y018167D03*
X008784Y018911D03*
X009273Y018463D03*
D383*
X008272Y018169D03*
D384*
X008263Y018170D03*
X008784Y018907D03*
D385*
X008259Y018172D03*
D386*
X008255Y018173D03*
X009104Y018553D03*
X009299Y018455D03*
D387*
X008252Y018175D03*
D388*
X008250Y018176D03*
D389*
X008245Y018178D03*
X009335Y018194D03*
X009310Y018451D03*
D390*
X008783Y018895D03*
X008237Y018179D03*
D391*
X009145Y018539D03*
X009249Y018470D03*
X009283Y018179D03*
D392*
X008785Y018892D03*
X008206Y018359D03*
X008206Y018358D03*
X008206Y018356D03*
X008206Y018355D03*
X008206Y018353D03*
X008206Y018352D03*
X008204Y018343D03*
X008204Y018341D03*
X008204Y018340D03*
X008204Y018265D03*
X008204Y018263D03*
X008204Y018262D03*
X008204Y018260D03*
X008204Y018257D03*
X008204Y018256D03*
X008204Y018254D03*
X008204Y018253D03*
X008204Y018251D03*
X008231Y018181D03*
D393*
X008227Y018182D03*
X008206Y018232D03*
X008206Y018233D03*
X008206Y018235D03*
X008208Y018371D03*
X008208Y018373D03*
X008229Y018422D03*
X009360Y018382D03*
X009361Y018377D03*
X009363Y018227D03*
X009363Y018226D03*
X009357Y018206D03*
X009355Y018205D03*
D394*
X009298Y018182D03*
D395*
X008224Y018184D03*
X008209Y018379D03*
D396*
X009301Y018184D03*
D397*
X009359Y018211D03*
X009359Y018212D03*
X009361Y018215D03*
X009361Y018217D03*
X009361Y018218D03*
X009353Y018406D03*
X009331Y018445D03*
X008224Y018419D03*
X008224Y018185D03*
D398*
X009304Y018185D03*
D399*
X008221Y018187D03*
X008214Y018401D03*
D400*
X009277Y018461D03*
X009307Y018187D03*
D401*
X008221Y018188D03*
X008219Y018190D03*
X008215Y018403D03*
X008219Y018412D03*
X008221Y018416D03*
X008222Y018418D03*
D402*
X009313Y018188D03*
D403*
X009321Y018190D03*
X009291Y018458D03*
D404*
X008220Y018415D03*
X008220Y018413D03*
X008218Y018410D03*
X008217Y018407D03*
X008217Y018406D03*
X008215Y018404D03*
X008218Y018191D03*
D405*
X009328Y018191D03*
D406*
X008218Y018193D03*
X008216Y018194D03*
X008216Y018196D03*
D407*
X009332Y018193D03*
D408*
X009339Y018196D03*
D409*
X009349Y018421D03*
X009335Y018442D03*
X008215Y018197D03*
D410*
X009343Y018197D03*
D411*
X008214Y018199D03*
D412*
X009349Y018199D03*
X009369Y018319D03*
X009367Y018334D03*
D413*
X009351Y018413D03*
X009351Y018415D03*
X009349Y018418D03*
X009349Y018419D03*
X008214Y018200D03*
X008212Y018202D03*
D414*
X009352Y018200D03*
X009364Y018233D03*
X009364Y018235D03*
X009364Y018236D03*
X009366Y018241D03*
X009366Y018242D03*
X009366Y018245D03*
X009366Y018247D03*
X009366Y018248D03*
X009364Y018362D03*
X009364Y018365D03*
X009364Y018367D03*
D415*
X009363Y018370D03*
X009363Y018371D03*
X009363Y018373D03*
X009354Y018202D03*
X008205Y018242D03*
X008205Y018245D03*
X008205Y018247D03*
X008205Y018248D03*
X008205Y018250D03*
X008206Y018361D03*
X008206Y018362D03*
X008206Y018365D03*
X008206Y018367D03*
D416*
X008213Y018400D03*
X008212Y018206D03*
X008212Y018205D03*
X008212Y018203D03*
X009334Y018443D03*
X009350Y018416D03*
X009352Y018412D03*
X009352Y018410D03*
D417*
X009362Y018376D03*
X009362Y018374D03*
X009364Y018232D03*
X009364Y018230D03*
X009355Y018203D03*
X008206Y018236D03*
X008206Y018238D03*
X008206Y018239D03*
X008206Y018241D03*
X008207Y018368D03*
X008207Y018370D03*
D418*
X008212Y018397D03*
X008212Y018398D03*
X008211Y018212D03*
X008211Y018211D03*
X008211Y018209D03*
X008211Y018208D03*
X009352Y018407D03*
D419*
X009356Y018400D03*
X009356Y018398D03*
X009356Y018397D03*
X009358Y018395D03*
X009358Y018392D03*
X009358Y018391D03*
X009358Y018389D03*
X009359Y018388D03*
X009359Y018386D03*
X009359Y018385D03*
X009359Y018383D03*
X009361Y018380D03*
X009328Y018446D03*
X009362Y018224D03*
X009362Y018223D03*
X009358Y018208D03*
X008209Y018226D03*
X008207Y018230D03*
X008209Y018374D03*
X008209Y018376D03*
X008210Y018380D03*
X008227Y018421D03*
D420*
X008209Y018377D03*
X008208Y018227D03*
X008209Y018224D03*
X008209Y018223D03*
X008209Y018221D03*
X009358Y018209D03*
X009361Y018220D03*
X009361Y018221D03*
X009355Y018401D03*
X009355Y018403D03*
X009354Y018404D03*
D421*
X009352Y018409D03*
X008211Y018214D03*
D422*
X009361Y018214D03*
D423*
X008210Y018215D03*
X008210Y018217D03*
X008210Y018218D03*
X008210Y018220D03*
X008212Y018389D03*
X008212Y018391D03*
X008212Y018392D03*
X008212Y018395D03*
D424*
X008207Y018229D03*
X009358Y018394D03*
D425*
X009364Y018229D03*
X008231Y018424D03*
D426*
X009365Y018239D03*
X009365Y018238D03*
D427*
X008205Y018244D03*
X008206Y018364D03*
D428*
X009364Y018364D03*
X009366Y018244D03*
D429*
X009367Y018250D03*
X009367Y018251D03*
X009367Y018253D03*
X009367Y018254D03*
X009367Y018256D03*
X009365Y018355D03*
X009365Y018356D03*
X009365Y018358D03*
X009365Y018359D03*
X009365Y018361D03*
X009364Y018368D03*
D430*
X009366Y018353D03*
X009366Y018352D03*
X009366Y018350D03*
X009366Y018347D03*
X009366Y018346D03*
X009367Y018266D03*
X009367Y018265D03*
X009367Y018263D03*
X009367Y018262D03*
X009367Y018260D03*
X009367Y018257D03*
X009324Y018448D03*
D431*
X008204Y018259D03*
D432*
X009367Y018259D03*
X009366Y018349D03*
D433*
X008233Y018425D03*
X008205Y018350D03*
X008205Y018347D03*
X008205Y018346D03*
X008205Y018344D03*
X008203Y018338D03*
X008203Y018337D03*
X008203Y018335D03*
X008203Y018332D03*
X008203Y018331D03*
X008203Y018329D03*
X008203Y018328D03*
X008203Y018275D03*
X008203Y018272D03*
X008203Y018271D03*
X008203Y018269D03*
X008203Y018268D03*
X008203Y018266D03*
D434*
X009368Y018268D03*
X009368Y018269D03*
X009368Y018271D03*
X009368Y018272D03*
X009368Y018275D03*
X009368Y018326D03*
X009368Y018328D03*
X009368Y018329D03*
X009367Y018335D03*
X009367Y018337D03*
X009367Y018338D03*
X009367Y018340D03*
X009367Y018341D03*
X009367Y018343D03*
X009367Y018344D03*
D435*
X008205Y018349D03*
X008203Y018334D03*
X008203Y018274D03*
D436*
X009368Y018274D03*
D437*
X008203Y018277D03*
X008203Y018278D03*
X008203Y018280D03*
X008203Y018281D03*
X008203Y018283D03*
X008203Y018284D03*
X008201Y018286D03*
X008201Y018287D03*
X008201Y018290D03*
X008201Y018292D03*
X008201Y018293D03*
X008201Y018295D03*
X008203Y018317D03*
X008203Y018320D03*
X008203Y018322D03*
X008203Y018323D03*
X008203Y018325D03*
X008203Y018326D03*
D438*
X008200Y018299D03*
X008200Y018298D03*
X008200Y018296D03*
X009367Y018331D03*
X009367Y018332D03*
X009369Y018325D03*
X009369Y018323D03*
X009369Y018322D03*
X009369Y018320D03*
X009369Y018317D03*
X009369Y018316D03*
X009369Y018286D03*
X009369Y018284D03*
X009369Y018283D03*
X009369Y018281D03*
X009369Y018280D03*
X009369Y018278D03*
X009369Y018277D03*
D439*
X009370Y018287D03*
X009370Y018290D03*
X009370Y018292D03*
X009370Y018293D03*
X009370Y018295D03*
X009370Y018296D03*
X009370Y018298D03*
X009370Y018299D03*
X009370Y018301D03*
X009370Y018302D03*
X009370Y018305D03*
X009370Y018307D03*
X009370Y018308D03*
X009370Y018310D03*
X009370Y018311D03*
X009370Y018313D03*
X009370Y018314D03*
X008237Y018427D03*
X008201Y018307D03*
X008201Y018305D03*
X008201Y018302D03*
X008201Y018301D03*
D440*
X008201Y018289D03*
X008203Y018319D03*
D441*
X008201Y018304D03*
X009370Y018304D03*
X009370Y018289D03*
D442*
X008202Y018308D03*
X008202Y018310D03*
X008202Y018311D03*
X008202Y018313D03*
X008202Y018314D03*
X008202Y018316D03*
D443*
X009361Y018379D03*
D444*
X008211Y018382D03*
X008211Y018383D03*
X008211Y018385D03*
X008211Y018386D03*
X008211Y018388D03*
D445*
X008212Y018394D03*
D446*
X008218Y018409D03*
D447*
X009337Y018440D03*
X009348Y018422D03*
D448*
X009348Y018424D03*
X009339Y018439D03*
D449*
X009341Y018437D03*
X009346Y018428D03*
X009347Y018425D03*
D450*
X009346Y018427D03*
X009345Y018430D03*
X009345Y018431D03*
D451*
X008784Y018896D03*
X008242Y018428D03*
D452*
X008250Y018430D03*
X008784Y018899D03*
D453*
X008784Y018902D03*
X009295Y018457D03*
X008257Y018431D03*
D454*
X008262Y018433D03*
D455*
X009343Y018436D03*
X009344Y018433D03*
D456*
X008266Y018434D03*
D457*
X009343Y018434D03*
D458*
X008269Y018436D03*
D459*
X008272Y018437D03*
D460*
X008279Y018439D03*
D461*
X008294Y018442D03*
D462*
X008299Y018443D03*
D463*
X009318Y018449D03*
D464*
X008326Y018451D03*
D465*
X009305Y018452D03*
D466*
X008335Y018454D03*
D467*
X009302Y018454D03*
D468*
X009283Y018460D03*
D469*
X009266Y018466D03*
X009130Y018548D03*
X008440Y018548D03*
D470*
X009262Y018467D03*
D471*
X009256Y018469D03*
D472*
X009244Y018472D03*
X009154Y018535D03*
D473*
X008369Y018484D03*
D474*
X008376Y018493D03*
D475*
X008393Y018514D03*
D476*
X009163Y018527D03*
D477*
X008408Y018529D03*
D478*
X009162Y018529D03*
D479*
X008413Y018532D03*
D480*
X008421Y018538D03*
D481*
X008424Y018539D03*
D482*
X008428Y018541D03*
D483*
X009140Y018541D03*
D484*
X008431Y018542D03*
D485*
X009138Y018542D03*
D486*
X008432Y018544D03*
D487*
X009136Y018544D03*
D488*
X008784Y018917D03*
X008434Y018545D03*
D489*
X009134Y018545D03*
D490*
X008436Y018547D03*
D491*
X009133Y018547D03*
D492*
X009121Y018550D03*
X008449Y018550D03*
D493*
X008455Y018551D03*
D494*
X009110Y018551D03*
D495*
X008461Y018553D03*
D496*
X008785Y018554D03*
D497*
X008784Y018556D03*
D498*
X008785Y018557D03*
X008782Y018737D03*
D499*
X008785Y018559D03*
D500*
X008784Y018560D03*
D501*
X008784Y018562D03*
X008781Y018734D03*
D502*
X008782Y018733D03*
X008783Y018563D03*
D503*
X008784Y018565D03*
X008781Y018731D03*
D504*
X008784Y018568D03*
X008784Y018566D03*
D505*
X008785Y018569D03*
X008782Y018728D03*
D506*
X008784Y018571D03*
D507*
X008785Y018572D03*
X008785Y018575D03*
D508*
X008785Y018574D03*
D509*
X008785Y018577D03*
X008785Y018578D03*
X008785Y018580D03*
D510*
X008785Y018581D03*
X008782Y018722D03*
D511*
X008784Y018583D03*
D512*
X008785Y018584D03*
D513*
X008785Y018586D03*
D514*
X008784Y018587D03*
X008781Y018716D03*
D515*
X008785Y018589D03*
D516*
X008785Y018590D03*
X008785Y018592D03*
X008782Y018713D03*
D517*
X008782Y018712D03*
X008785Y018596D03*
X008785Y018595D03*
X008785Y018593D03*
D518*
X008784Y018598D03*
X008781Y018710D03*
D519*
X008785Y018599D03*
D520*
X008784Y018601D03*
D521*
X008785Y018602D03*
D522*
X008784Y018604D03*
D523*
X008784Y018605D03*
X008784Y018607D03*
D524*
X008784Y018608D03*
D525*
X008785Y018610D03*
D526*
X008784Y018611D03*
D527*
X008785Y018613D03*
X008785Y018614D03*
D528*
X008785Y018616D03*
X008785Y018617D03*
D529*
X008784Y018619D03*
D530*
X008785Y018620D03*
D531*
X008784Y018622D03*
X008781Y018695D03*
D532*
X008781Y018692D03*
X008784Y018623D03*
D533*
X008783Y018625D03*
X008780Y018691D03*
D534*
X008781Y018689D03*
X008784Y018626D03*
D535*
X008784Y018628D03*
X008781Y018686D03*
D536*
X008785Y018629D03*
D537*
X008784Y018631D03*
X008781Y018685D03*
D538*
X008785Y018632D03*
D539*
X008785Y018634D03*
D540*
X008785Y018635D03*
X008785Y018637D03*
D541*
X008785Y018638D03*
X008780Y018680D03*
D542*
X008784Y018640D03*
D543*
X008784Y018641D03*
D544*
X008784Y018643D03*
D545*
X008785Y018644D03*
X008780Y018673D03*
D546*
X008781Y018671D03*
X008784Y018646D03*
D547*
X008785Y018647D03*
D548*
X008785Y018649D03*
D549*
X008785Y018650D03*
D550*
X008784Y018652D03*
X008784Y018653D03*
D551*
X008784Y018655D03*
X008784Y018656D03*
X008781Y018667D03*
D552*
X008780Y018665D03*
X008782Y018661D03*
X008782Y018659D03*
X008783Y018658D03*
D553*
X008781Y018662D03*
D554*
X008781Y018664D03*
D555*
X008780Y018668D03*
D556*
X008781Y018670D03*
D557*
X008780Y018674D03*
X008780Y018676D03*
D558*
X008780Y018677D03*
D559*
X008780Y018679D03*
D560*
X008780Y018682D03*
D561*
X008781Y018683D03*
D562*
X008780Y018688D03*
D563*
X008781Y018694D03*
D564*
X008781Y018697D03*
D565*
X008781Y018698D03*
D566*
X008781Y018700D03*
D567*
X008781Y018701D03*
D568*
X008780Y018703D03*
D569*
X008781Y018704D03*
D570*
X008780Y018706D03*
D571*
X008781Y018707D03*
D572*
X008781Y018709D03*
D573*
X008782Y018715D03*
D574*
X008782Y018718D03*
D575*
X008781Y018719D03*
D576*
X008781Y018721D03*
D577*
X008782Y018724D03*
D578*
X008782Y018725D03*
D579*
X008782Y018727D03*
D580*
X008782Y018730D03*
D581*
X008782Y018736D03*
D582*
X008782Y018739D03*
D583*
X008782Y018740D03*
D584*
X008782Y018742D03*
D585*
X008782Y018743D03*
D586*
X008782Y018745D03*
D587*
X008781Y018746D03*
D588*
X008782Y018748D03*
D589*
X008782Y018749D03*
D590*
X008782Y018751D03*
D591*
X008782Y018752D03*
D592*
X008783Y018754D03*
D593*
X008782Y018755D03*
D594*
X008782Y018757D03*
D595*
X008782Y018758D03*
D596*
X008782Y018760D03*
D597*
X008782Y018761D03*
D598*
X008782Y018763D03*
D599*
X008782Y018764D03*
D600*
X008782Y018766D03*
D601*
X008783Y018767D03*
D602*
X008783Y018769D03*
D603*
X008782Y018770D03*
D604*
X008782Y018772D03*
D605*
X008782Y018773D03*
D606*
X008782Y018775D03*
X008782Y018776D03*
D607*
X008782Y018778D03*
D608*
X008783Y018779D03*
D609*
X008783Y018781D03*
X008783Y018782D03*
D610*
X008783Y018784D03*
D611*
X008783Y018785D03*
D612*
X008782Y018787D03*
D613*
X008782Y018788D03*
X008782Y018790D03*
D614*
X008782Y018791D03*
D615*
X008782Y018793D03*
D616*
X008783Y018794D03*
D617*
X008783Y018796D03*
X008783Y018797D03*
D618*
X008783Y018799D03*
D619*
X008783Y018800D03*
D620*
X008782Y018802D03*
D621*
X008782Y018803D03*
X008782Y018805D03*
D622*
X008782Y018806D03*
D623*
X008783Y018808D03*
D624*
X008783Y018809D03*
D625*
X008784Y018811D03*
D626*
X008784Y018812D03*
D627*
X008783Y018814D03*
D628*
X008783Y018815D03*
D629*
X008782Y018817D03*
D630*
X008783Y018818D03*
D631*
X008783Y018820D03*
D632*
X008783Y018821D03*
D633*
X008784Y018823D03*
D634*
X008784Y018824D03*
X008784Y018826D03*
D635*
X008784Y018827D03*
D636*
X008783Y018829D03*
D637*
X008783Y018830D03*
D638*
X008783Y018832D03*
D639*
X008784Y018833D03*
D640*
X008784Y018835D03*
X008785Y018883D03*
D641*
X008785Y018836D03*
D642*
X008784Y018838D03*
X008785Y018881D03*
D643*
X008784Y018841D03*
X008784Y018839D03*
D644*
X008784Y018842D03*
D645*
X008783Y018844D03*
D646*
X008783Y018845D03*
D647*
X008784Y018847D03*
D648*
X008783Y018848D03*
X008785Y018872D03*
D649*
X008784Y018850D03*
D650*
X008784Y018851D03*
X008785Y018869D03*
D651*
X008785Y018868D03*
X008785Y018866D03*
X008785Y018857D03*
X008785Y018856D03*
X008785Y018854D03*
X008785Y018853D03*
D652*
X008785Y018859D03*
D653*
X008785Y018860D03*
X008785Y018862D03*
X008785Y018863D03*
X008785Y018865D03*
D654*
X008785Y018871D03*
D655*
X008785Y018874D03*
D656*
X008785Y018875D03*
D657*
X008785Y018877D03*
D658*
X008785Y018878D03*
D659*
X008785Y018880D03*
D660*
X008785Y018884D03*
D661*
X008785Y018886D03*
D662*
X009303Y018896D03*
X008259Y018887D03*
D663*
X008962Y018887D03*
D664*
X008258Y018889D03*
D665*
X008962Y018889D03*
D666*
X008257Y018890D03*
D667*
X008964Y018890D03*
D668*
X009301Y018892D03*
D669*
X008783Y018893D03*
D670*
X009303Y018893D03*
D671*
X009305Y018905D03*
X008783Y018965D03*
X008257Y018895D03*
D672*
X009303Y018895D03*
D673*
X008257Y018898D03*
D674*
X008783Y018898D03*
D675*
X009303Y018898D03*
D676*
X008256Y018899D03*
D677*
X009304Y018899D03*
D678*
X008255Y018901D03*
D679*
X008784Y018901D03*
D680*
X009304Y018901D03*
D681*
X009307Y018911D03*
X008255Y018902D03*
D682*
X008254Y018904D03*
X008784Y019024D03*
D683*
X008784Y018904D03*
D684*
X008783Y018964D03*
X009305Y018904D03*
D685*
X008783Y018905D03*
D686*
X008783Y019045D03*
X008783Y019046D03*
X008783Y019048D03*
X009308Y018917D03*
X008254Y018908D03*
D687*
X008784Y018908D03*
D688*
X008782Y018980D03*
X008782Y018982D03*
X008782Y018983D03*
X008782Y018985D03*
X008782Y018986D03*
X009306Y018908D03*
D689*
X008784Y019057D03*
X008784Y019058D03*
X008784Y019060D03*
X008253Y018910D03*
D690*
X008784Y018910D03*
D691*
X009306Y018910D03*
D692*
X008785Y019087D03*
X008785Y019088D03*
X008785Y019090D03*
X008252Y018913D03*
D693*
X008784Y018913D03*
D694*
X008783Y019033D03*
X008783Y019034D03*
X008783Y019036D03*
X009308Y018914D03*
D695*
X009310Y018923D03*
X008784Y019097D03*
X008251Y018916D03*
D696*
X008251Y018919D03*
X008785Y019114D03*
D697*
X008784Y018919D03*
D698*
X009309Y018919D03*
D699*
X008251Y018922D03*
D700*
X008250Y018925D03*
X008785Y019157D03*
X008785Y019160D03*
D701*
X008785Y019163D03*
X008785Y019165D03*
X008785Y019166D03*
X008250Y018926D03*
D702*
X009311Y018926D03*
D703*
X008786Y019177D03*
X008249Y018928D03*
D704*
X008785Y019112D03*
X008785Y019115D03*
X008785Y019117D03*
X009311Y018928D03*
D705*
X008785Y019190D03*
X008248Y018929D03*
D706*
X008785Y019133D03*
X008785Y019135D03*
X008785Y019136D03*
X008785Y019138D03*
X008785Y019139D03*
X009312Y018929D03*
D707*
X008248Y018931D03*
D708*
X008248Y018932D03*
X008786Y019196D03*
D709*
X008248Y018934D03*
D710*
X009313Y018934D03*
D711*
X009316Y018943D03*
X008248Y018935D03*
D712*
X008247Y018937D03*
X008785Y019199D03*
D713*
X008785Y019187D03*
X008785Y019186D03*
X008785Y019184D03*
X008785Y019183D03*
X008785Y019181D03*
X008785Y019180D03*
X008785Y019178D03*
X009313Y018937D03*
D714*
X009316Y018946D03*
X008786Y019201D03*
X008246Y018938D03*
D715*
X008786Y019192D03*
X008786Y019193D03*
X009314Y018938D03*
D716*
X008785Y018940D03*
D717*
X008246Y018941D03*
D718*
X008785Y018941D03*
D719*
X008786Y019198D03*
X009316Y018941D03*
D720*
X008245Y018943D03*
D721*
X008784Y018943D03*
D722*
X008785Y018944D03*
D723*
X009316Y018944D03*
D724*
X008788Y019205D03*
X008245Y018946D03*
D725*
X008785Y018946D03*
D726*
X008785Y018947D03*
D727*
X009316Y018947D03*
D728*
X008245Y018949D03*
D729*
X008784Y018949D03*
D730*
X009317Y018949D03*
D731*
X008785Y018950D03*
D732*
X009318Y018950D03*
D733*
X008785Y018952D03*
D734*
X008785Y018953D03*
D735*
X008243Y018955D03*
D736*
X008785Y018955D03*
D737*
X009318Y018955D03*
D738*
X009320Y018962D03*
X008243Y018956D03*
D739*
X008785Y018956D03*
D740*
X008242Y018958D03*
D741*
X008785Y018958D03*
D742*
X008242Y018961D03*
D743*
X008784Y018961D03*
D744*
X009319Y018961D03*
D745*
X008242Y018962D03*
D746*
X008242Y018964D03*
D747*
X008242Y018965D03*
D748*
X008242Y018967D03*
X009322Y018973D03*
D749*
X009320Y018967D03*
D750*
X009322Y018974D03*
X008242Y018968D03*
D751*
X008783Y018968D03*
X008783Y018970D03*
X008783Y018971D03*
D752*
X009320Y018968D03*
D753*
X009321Y018970D03*
D754*
X008241Y018971D03*
D755*
X009321Y018971D03*
D756*
X008240Y018973D03*
D757*
X008241Y018974D03*
X009322Y018980D03*
D758*
X008241Y018976D03*
D759*
X008241Y018977D03*
D760*
X008240Y018979D03*
D761*
X008782Y018979D03*
D762*
X009322Y018979D03*
D763*
X008239Y018982D03*
D764*
X009323Y018985D03*
D765*
X008239Y018986D03*
D766*
X009323Y018986D03*
D767*
X008783Y018988D03*
D768*
X008238Y018991D03*
D769*
X008783Y018992D03*
X008783Y018995D03*
D770*
X008238Y018994D03*
D771*
X008783Y018994D03*
D772*
X009325Y018994D03*
D773*
X008238Y018998D03*
D774*
X009325Y019000D03*
D775*
X008237Y019001D03*
D776*
X009326Y019001D03*
D777*
X008237Y019007D03*
D778*
X008236Y019009D03*
D779*
X008784Y019009D03*
D780*
X009326Y019009D03*
D781*
X009327Y019010D03*
D782*
X008236Y019012D03*
D783*
X009327Y019012D03*
D784*
X009328Y019019D03*
X008236Y019013D03*
D785*
X009327Y019013D03*
D786*
X008236Y019015D03*
D787*
X009327Y019015D03*
D788*
X008784Y019018D03*
X008784Y019019D03*
X008784Y019021D03*
X008784Y019022D03*
X008784Y019025D03*
D789*
X009328Y019018D03*
D790*
X009328Y019025D03*
X008235Y019019D03*
D791*
X009328Y019021D03*
D792*
X009328Y019024D03*
D793*
X008783Y019027D03*
D794*
X009329Y019027D03*
D795*
X009331Y019028D03*
D796*
X008783Y019039D03*
D797*
X008784Y019049D03*
X008784Y019051D03*
X008784Y019052D03*
D798*
X008785Y019054D03*
D799*
X008785Y019055D03*
D800*
X008785Y019061D03*
X008785Y019063D03*
X008785Y019064D03*
X008785Y019066D03*
X008785Y019067D03*
X008785Y019070D03*
X008785Y019072D03*
D801*
X008785Y019069D03*
D802*
X008784Y019085D03*
D803*
X008784Y019099D03*
D804*
X008784Y019103D03*
D805*
X008785Y019105D03*
X008785Y019106D03*
X008785Y019108D03*
X008785Y019109D03*
D806*
X008785Y019144D03*
D807*
X008785Y019150D03*
D808*
X008786Y019156D03*
D809*
X008785Y019159D03*
D810*
X008785Y019174D03*
D811*
X008785Y019189D03*
D812*
X008787Y019204D03*
D813*
X008778Y019208D03*
D814*
X006663Y020825D02*
X006362Y020825D01*
X006513Y020825D02*
X006513Y021275D01*
X006362Y021125D01*
X006548Y021680D02*
X006848Y021680D01*
X006698Y021680D02*
X006698Y022130D01*
X006548Y021980D01*
X006388Y021905D02*
X006313Y021830D01*
X006087Y021830D01*
X006087Y021680D02*
X006087Y022130D01*
X006313Y022130D01*
X006388Y022055D01*
X006388Y021905D01*
X006137Y022400D02*
X006137Y023150D01*
X006887Y023150D01*
X006887Y022400D01*
X006137Y022400D01*
X006137Y023150D02*
X006137Y023900D01*
X006887Y023900D01*
X006887Y023150D01*
X007364Y024088D02*
X007364Y025012D01*
X009311Y025012D01*
X009311Y024088D01*
X007364Y024088D01*
X010550Y023879D02*
X010851Y023879D01*
X011011Y024105D02*
X011311Y024105D01*
X011236Y024330D02*
X011236Y023879D01*
X011011Y024105D02*
X011236Y024330D01*
X010550Y024330D02*
X010550Y023879D01*
X012687Y024050D02*
X012837Y024050D01*
X012687Y024050D02*
X012687Y022250D01*
X012837Y022250D01*
X014037Y022250D02*
X014187Y022250D01*
X014187Y024050D01*
X014037Y024050D01*
X014450Y024477D02*
X015224Y024477D01*
X015224Y022923D01*
X014450Y022923D01*
X014450Y024477D01*
X016222Y024640D02*
X016298Y024565D01*
X016448Y024565D01*
X016523Y024640D01*
X016683Y024565D02*
X016983Y024565D01*
X016833Y024565D02*
X016833Y025015D01*
X016683Y024865D01*
X016523Y024940D02*
X016448Y025015D01*
X016298Y025015D01*
X016222Y024940D01*
X016222Y024640D01*
X017143Y024640D02*
X017143Y024940D01*
X017218Y025015D01*
X017368Y025015D01*
X017444Y024940D01*
X017143Y024640D01*
X017218Y024565D01*
X017368Y024565D01*
X017444Y024640D01*
X017444Y024940D01*
X019187Y024250D02*
X019187Y023950D01*
X019263Y023875D01*
X019413Y023875D01*
X019488Y023950D01*
X019648Y023875D02*
X019948Y023875D01*
X019798Y023875D02*
X019798Y024325D01*
X019648Y024175D01*
X019488Y024250D02*
X019413Y024325D01*
X019263Y024325D01*
X019187Y024250D01*
X020108Y024250D02*
X020183Y024325D01*
X020333Y024325D01*
X020409Y024250D01*
X020409Y023950D01*
X020333Y023875D01*
X020183Y023875D01*
X020108Y023950D01*
X020183Y024100D02*
X020409Y024100D01*
X020183Y024100D02*
X020108Y024175D01*
X020108Y024250D01*
X018490Y021900D02*
X018492Y021943D01*
X018498Y021985D01*
X018508Y022027D01*
X018521Y022068D01*
X018538Y022108D01*
X018559Y022145D01*
X018583Y022181D01*
X018610Y022214D01*
X018640Y022245D01*
X018673Y022273D01*
X018708Y022298D01*
X018745Y022319D01*
X018784Y022337D01*
X018824Y022351D01*
X018866Y022362D01*
X018908Y022369D01*
X018951Y022372D01*
X018994Y022371D01*
X019037Y022366D01*
X019079Y022357D01*
X019120Y022345D01*
X019160Y022329D01*
X019198Y022309D01*
X019234Y022286D01*
X019268Y022259D01*
X019300Y022230D01*
X019328Y022198D01*
X019354Y022163D01*
X019376Y022127D01*
X019395Y022088D01*
X019410Y022048D01*
X019422Y022007D01*
X019430Y021964D01*
X019434Y021921D01*
X019434Y021879D01*
X019430Y021836D01*
X019422Y021793D01*
X019410Y021752D01*
X019395Y021712D01*
X019376Y021673D01*
X019354Y021637D01*
X019328Y021602D01*
X019300Y021570D01*
X019268Y021541D01*
X019234Y021514D01*
X019198Y021491D01*
X019160Y021471D01*
X019120Y021455D01*
X019079Y021443D01*
X019037Y021434D01*
X018994Y021429D01*
X018951Y021428D01*
X018908Y021431D01*
X018866Y021438D01*
X018824Y021449D01*
X018784Y021463D01*
X018745Y021481D01*
X018708Y021502D01*
X018673Y021527D01*
X018640Y021555D01*
X018610Y021586D01*
X018583Y021619D01*
X018559Y021655D01*
X018538Y021692D01*
X018521Y021732D01*
X018508Y021773D01*
X018498Y021815D01*
X018492Y021857D01*
X018490Y021900D01*
X015224Y021373D02*
X014450Y021373D01*
X014450Y022927D01*
X015224Y022927D01*
X015224Y021373D01*
X013299Y020477D02*
X012525Y020477D01*
X012525Y018923D01*
X013299Y018923D01*
X013299Y020477D01*
X007748Y016650D02*
X007523Y016425D01*
X007823Y016425D01*
X007748Y016200D02*
X007748Y016650D01*
X007363Y016650D02*
X007062Y016200D01*
X007363Y016200D02*
X007062Y016650D01*
X006534Y017069D02*
X006534Y015731D01*
X005195Y015731D01*
X005195Y017069D01*
X006534Y017069D01*
X006927Y017463D02*
X006022Y017463D01*
X005707Y017463D01*
X003148Y017463D01*
X003148Y015337D01*
X006927Y015337D01*
X006927Y017463D01*
X006022Y017463D02*
X006021Y017488D01*
X006017Y017512D01*
X006009Y017535D01*
X005998Y017557D01*
X005983Y017577D01*
X005966Y017594D01*
X005946Y017608D01*
X005924Y017619D01*
X005901Y017627D01*
X005876Y017631D01*
X005852Y017631D01*
X005827Y017627D01*
X005804Y017619D01*
X005782Y017608D01*
X005762Y017594D01*
X005745Y017577D01*
X005730Y017557D01*
X005719Y017535D01*
X005711Y017512D01*
X005707Y017488D01*
X005706Y017463D01*
X004880Y016833D02*
X004644Y017069D01*
X003541Y017069D01*
X003541Y015731D01*
X004644Y015731D01*
X004880Y015967D01*
X004880Y016833D01*
X003148Y017069D02*
X002597Y017069D01*
X002597Y015731D01*
X003148Y015731D01*
X006597Y015046D02*
X006672Y015046D01*
X006972Y014746D01*
X007047Y014746D01*
X006972Y014586D02*
X007047Y014511D01*
X007047Y014360D01*
X006972Y014285D01*
X006822Y014285D02*
X006747Y014436D01*
X006747Y014511D01*
X006822Y014586D01*
X006972Y014586D01*
X006822Y014285D02*
X006597Y014285D01*
X006597Y014586D01*
X006597Y014746D02*
X006597Y015046D01*
X006672Y014125D02*
X006597Y014050D01*
X006597Y013900D01*
X006672Y013825D01*
X006972Y013825D01*
X007047Y013900D01*
X007047Y014050D01*
X006972Y014125D01*
X006972Y011596D02*
X006897Y011596D01*
X006822Y011521D01*
X006822Y011296D01*
X006972Y011296D01*
X007047Y011371D01*
X007047Y011521D01*
X006972Y011596D01*
X006672Y011446D02*
X006597Y011596D01*
X006672Y011446D02*
X006822Y011296D01*
X006822Y011136D02*
X006972Y011136D01*
X007047Y011061D01*
X007047Y010910D01*
X006972Y010835D01*
X006822Y010835D02*
X006747Y010986D01*
X006747Y011061D01*
X006822Y011136D01*
X006597Y011136D02*
X006597Y010835D01*
X006822Y010835D01*
X006672Y010675D02*
X006597Y010600D01*
X006597Y010450D01*
X006672Y010375D01*
X006972Y010375D01*
X007047Y010450D01*
X007047Y010600D01*
X006972Y010675D01*
X014514Y009069D02*
X014589Y009144D01*
X014739Y009144D01*
X014814Y009069D01*
X014814Y008768D01*
X014739Y008693D01*
X014589Y008693D01*
X014514Y008768D01*
X014514Y009069D01*
X014664Y008843D02*
X014814Y008693D01*
X014975Y008768D02*
X015050Y008693D01*
X015200Y008693D01*
X015275Y008768D01*
X015275Y008843D01*
X015200Y008918D01*
X015050Y008918D01*
X014975Y008993D01*
X014975Y009069D01*
X015050Y009144D01*
X015200Y009144D01*
X015275Y009069D01*
X015275Y008993D01*
X015200Y008918D01*
X015050Y008918D02*
X014975Y008843D01*
X014975Y008768D01*
X015032Y004212D02*
X015332Y004212D01*
X015332Y004137D01*
X015032Y003836D01*
X015032Y003761D01*
X014871Y003761D02*
X014721Y003911D01*
X014796Y003761D02*
X014646Y003761D01*
X014571Y003836D01*
X014571Y004137D01*
X014646Y004212D01*
X014796Y004212D01*
X014871Y004137D01*
X014871Y003836D01*
X014796Y003761D01*
X005742Y004941D02*
X005742Y005242D01*
X005742Y005402D02*
X005667Y005402D01*
X005366Y005702D01*
X005291Y005702D01*
X005291Y005402D01*
X005164Y005537D02*
X005164Y004763D01*
X003611Y004763D01*
X003611Y005537D01*
X005164Y005537D01*
X005291Y004941D02*
X005742Y004941D01*
X013390Y015950D02*
X013392Y015993D01*
X013398Y016035D01*
X013408Y016077D01*
X013421Y016118D01*
X013438Y016158D01*
X013459Y016195D01*
X013483Y016231D01*
X013510Y016264D01*
X013540Y016295D01*
X013573Y016323D01*
X013608Y016348D01*
X013645Y016369D01*
X013684Y016387D01*
X013724Y016401D01*
X013766Y016412D01*
X013808Y016419D01*
X013851Y016422D01*
X013894Y016421D01*
X013937Y016416D01*
X013979Y016407D01*
X014020Y016395D01*
X014060Y016379D01*
X014098Y016359D01*
X014134Y016336D01*
X014168Y016309D01*
X014200Y016280D01*
X014228Y016248D01*
X014254Y016213D01*
X014276Y016177D01*
X014295Y016138D01*
X014310Y016098D01*
X014322Y016057D01*
X014330Y016014D01*
X014334Y015971D01*
X014334Y015929D01*
X014330Y015886D01*
X014322Y015843D01*
X014310Y015802D01*
X014295Y015762D01*
X014276Y015723D01*
X014254Y015687D01*
X014228Y015652D01*
X014200Y015620D01*
X014168Y015591D01*
X014134Y015564D01*
X014098Y015541D01*
X014060Y015521D01*
X014020Y015505D01*
X013979Y015493D01*
X013937Y015484D01*
X013894Y015479D01*
X013851Y015478D01*
X013808Y015481D01*
X013766Y015488D01*
X013724Y015499D01*
X013684Y015513D01*
X013645Y015531D01*
X013608Y015552D01*
X013573Y015577D01*
X013540Y015605D01*
X013510Y015636D01*
X013483Y015669D01*
X013459Y015705D01*
X013438Y015742D01*
X013421Y015782D01*
X013408Y015823D01*
X013398Y015865D01*
X013392Y015907D01*
X013390Y015950D01*
X003513Y020900D02*
X003438Y020825D01*
X003288Y020825D01*
X003212Y020900D01*
X003363Y021050D02*
X003438Y021050D01*
X003513Y020975D01*
X003513Y020900D01*
X003438Y021050D02*
X003513Y021125D01*
X003513Y021200D01*
X003438Y021275D01*
X003288Y021275D01*
X003212Y021200D01*
X010137Y026930D02*
X010213Y026855D01*
X010363Y026855D01*
X010438Y026930D01*
X010598Y026855D02*
X010898Y027155D01*
X010898Y027230D01*
X010823Y027305D01*
X010673Y027305D01*
X010598Y027230D01*
X010438Y027230D02*
X010363Y027305D01*
X010213Y027305D01*
X010137Y027230D01*
X010137Y026930D01*
X010598Y026855D02*
X010898Y026855D01*
X011058Y027080D02*
X011359Y027080D01*
X011283Y026855D02*
X011283Y027305D01*
X011058Y027080D01*
X011299Y027523D02*
X010525Y027523D01*
X010525Y029077D01*
X011299Y029077D01*
X011299Y027523D01*
X011512Y028075D02*
X011662Y028075D01*
X011512Y028075D02*
X011512Y029875D01*
X011662Y029875D01*
X011299Y029248D02*
X010525Y029248D01*
X010525Y030802D01*
X011299Y030802D01*
X011299Y029248D01*
X012862Y029875D02*
X013012Y029875D01*
X013012Y028075D01*
X012862Y028075D01*
X011299Y031273D02*
X010525Y031273D01*
X010525Y032827D01*
X011299Y032827D01*
X011299Y031273D01*
X011537Y031950D02*
X011687Y031950D01*
X011537Y031950D02*
X011537Y033750D01*
X011687Y033750D01*
X011299Y034377D02*
X010525Y034377D01*
X010525Y032823D01*
X011299Y032823D01*
X011299Y034377D01*
X012887Y033750D02*
X013037Y033750D01*
X013037Y031950D01*
X012887Y031950D01*
X007349Y031599D02*
X007349Y029651D01*
X006425Y029651D01*
X006425Y031599D01*
X007349Y031599D01*
X006422Y031835D02*
X006422Y031985D01*
X006347Y032060D01*
X006422Y032220D02*
X006422Y032521D01*
X006422Y032371D02*
X005972Y032371D01*
X006122Y032220D01*
X006047Y032060D02*
X005972Y031985D01*
X005972Y031835D01*
X006047Y031760D01*
X006347Y031760D01*
X006422Y031835D01*
X006197Y032681D02*
X006197Y032981D01*
X005972Y032906D02*
X006197Y032681D01*
X006422Y032906D02*
X005972Y032906D01*
X004548Y031750D02*
X004473Y031825D01*
X004323Y031825D01*
X004248Y031750D01*
X004088Y031825D02*
X003787Y031375D01*
X004088Y031375D02*
X003787Y031825D01*
X004248Y031450D02*
X004323Y031375D01*
X004473Y031375D01*
X004548Y031450D01*
X004548Y031525D01*
X004473Y031600D01*
X004398Y031600D01*
X004473Y031600D02*
X004548Y031675D01*
X004548Y031750D01*
X023662Y031900D02*
X023812Y031900D01*
X023662Y031900D02*
X023662Y033700D01*
X023812Y033700D01*
X025012Y033700D02*
X025162Y033700D01*
X025162Y031900D01*
X025012Y031900D01*
X025325Y031198D02*
X026099Y031198D01*
X026099Y032752D01*
X025325Y032752D01*
X025325Y031198D01*
X026450Y029852D02*
X027224Y029852D01*
X027224Y028298D01*
X026450Y028298D01*
X026450Y029852D01*
X027650Y029852D02*
X028424Y029852D01*
X028424Y028298D01*
X027650Y028298D01*
X027650Y029852D01*
X029498Y032065D02*
X029648Y032065D01*
X029723Y032140D01*
X029883Y032140D02*
X029883Y032065D01*
X029883Y032140D02*
X030183Y032440D01*
X030183Y032515D01*
X029883Y032515D01*
X029723Y032440D02*
X029648Y032515D01*
X029498Y032515D01*
X029422Y032440D01*
X029422Y032140D01*
X029498Y032065D01*
X026099Y032748D02*
X025325Y032748D01*
X025325Y034302D01*
X026099Y034302D01*
X026099Y032748D01*
X025899Y026924D02*
X025025Y026924D01*
X025025Y024976D01*
X025899Y024976D01*
X025899Y026924D01*
X025021Y026924D02*
X023754Y026924D01*
X023754Y024976D01*
X025021Y024976D01*
X025021Y026924D01*
X025137Y024825D02*
X025363Y024825D01*
X025438Y024750D01*
X025438Y024600D01*
X025363Y024525D01*
X025137Y024525D01*
X025137Y024375D02*
X025137Y024825D01*
X024959Y024750D02*
X024883Y024825D01*
X024733Y024825D01*
X024658Y024750D01*
X024959Y024750D02*
X024959Y024675D01*
X024658Y024375D01*
X024959Y024375D01*
X025288Y024525D02*
X025438Y024375D01*
X025598Y024375D02*
X025598Y024450D01*
X025898Y024750D01*
X025898Y024825D01*
X025598Y024825D01*
X024498Y024375D02*
X024198Y024375D01*
X024348Y024375D02*
X024348Y024825D01*
X024198Y024675D01*
X024038Y024750D02*
X023963Y024825D01*
X023813Y024825D01*
X023737Y024750D01*
X023737Y024450D01*
X023813Y024375D01*
X023963Y024375D01*
X024038Y024450D01*
X028887Y022880D02*
X028887Y022580D01*
X028963Y022505D01*
X029113Y022505D01*
X029188Y022580D01*
X029348Y022505D02*
X029648Y022505D01*
X029498Y022505D02*
X029498Y022955D01*
X029348Y022805D01*
X029188Y022880D02*
X029113Y022955D01*
X028963Y022955D01*
X028887Y022880D01*
X029808Y022880D02*
X029883Y022955D01*
X030033Y022955D01*
X030109Y022880D01*
X030109Y022805D01*
X030033Y022730D01*
X030109Y022655D01*
X030109Y022580D01*
X030033Y022505D01*
X029883Y022505D01*
X029808Y022580D01*
X029958Y022730D02*
X030033Y022730D01*
X031140Y026700D02*
X031142Y026743D01*
X031148Y026785D01*
X031158Y026827D01*
X031171Y026868D01*
X031188Y026908D01*
X031209Y026945D01*
X031233Y026981D01*
X031260Y027014D01*
X031290Y027045D01*
X031323Y027073D01*
X031358Y027098D01*
X031395Y027119D01*
X031434Y027137D01*
X031474Y027151D01*
X031516Y027162D01*
X031558Y027169D01*
X031601Y027172D01*
X031644Y027171D01*
X031687Y027166D01*
X031729Y027157D01*
X031770Y027145D01*
X031810Y027129D01*
X031848Y027109D01*
X031884Y027086D01*
X031918Y027059D01*
X031950Y027030D01*
X031978Y026998D01*
X032004Y026963D01*
X032026Y026927D01*
X032045Y026888D01*
X032060Y026848D01*
X032072Y026807D01*
X032080Y026764D01*
X032084Y026721D01*
X032084Y026679D01*
X032080Y026636D01*
X032072Y026593D01*
X032060Y026552D01*
X032045Y026512D01*
X032026Y026473D01*
X032004Y026437D01*
X031978Y026402D01*
X031950Y026370D01*
X031918Y026341D01*
X031884Y026314D01*
X031848Y026291D01*
X031810Y026271D01*
X031770Y026255D01*
X031729Y026243D01*
X031687Y026234D01*
X031644Y026229D01*
X031601Y026228D01*
X031558Y026231D01*
X031516Y026238D01*
X031474Y026249D01*
X031434Y026263D01*
X031395Y026281D01*
X031358Y026302D01*
X031323Y026327D01*
X031290Y026355D01*
X031260Y026386D01*
X031233Y026419D01*
X031209Y026455D01*
X031188Y026492D01*
X031171Y026532D01*
X031158Y026573D01*
X031148Y026615D01*
X031142Y026657D01*
X031140Y026700D01*
X038014Y025287D02*
X038014Y024987D01*
X038239Y024987D01*
X038164Y025137D01*
X038164Y025212D01*
X038239Y025287D01*
X038389Y025287D01*
X038464Y025212D01*
X038464Y025062D01*
X038389Y024987D01*
X038464Y024826D02*
X038464Y024526D01*
X038464Y024676D02*
X038014Y024676D01*
X038164Y024526D01*
X038089Y024366D02*
X038014Y024291D01*
X038014Y024066D01*
X038464Y024066D01*
X038464Y024291D01*
X038389Y024366D01*
X038089Y024366D01*
X038540Y026575D02*
X038542Y026618D01*
X038548Y026660D01*
X038558Y026702D01*
X038571Y026743D01*
X038588Y026783D01*
X038609Y026820D01*
X038633Y026856D01*
X038660Y026889D01*
X038690Y026920D01*
X038723Y026948D01*
X038758Y026973D01*
X038795Y026994D01*
X038834Y027012D01*
X038874Y027026D01*
X038916Y027037D01*
X038958Y027044D01*
X039001Y027047D01*
X039044Y027046D01*
X039087Y027041D01*
X039129Y027032D01*
X039170Y027020D01*
X039210Y027004D01*
X039248Y026984D01*
X039284Y026961D01*
X039318Y026934D01*
X039350Y026905D01*
X039378Y026873D01*
X039404Y026838D01*
X039426Y026802D01*
X039445Y026763D01*
X039460Y026723D01*
X039472Y026682D01*
X039480Y026639D01*
X039484Y026596D01*
X039484Y026554D01*
X039480Y026511D01*
X039472Y026468D01*
X039460Y026427D01*
X039445Y026387D01*
X039426Y026348D01*
X039404Y026312D01*
X039378Y026277D01*
X039350Y026245D01*
X039318Y026216D01*
X039284Y026189D01*
X039248Y026166D01*
X039210Y026146D01*
X039170Y026130D01*
X039129Y026118D01*
X039087Y026109D01*
X039044Y026104D01*
X039001Y026103D01*
X038958Y026106D01*
X038916Y026113D01*
X038874Y026124D01*
X038834Y026138D01*
X038795Y026156D01*
X038758Y026177D01*
X038723Y026202D01*
X038690Y026230D01*
X038660Y026261D01*
X038633Y026294D01*
X038609Y026330D01*
X038588Y026367D01*
X038571Y026407D01*
X038558Y026448D01*
X038548Y026490D01*
X038542Y026532D01*
X038540Y026575D01*
X038514Y027653D02*
X038439Y027728D01*
X038439Y027878D01*
X038514Y027953D01*
X038814Y027953D01*
X038889Y027878D01*
X038889Y027728D01*
X038814Y027653D01*
X038514Y027653D01*
X038739Y027803D02*
X038889Y027953D01*
X038889Y028113D02*
X038589Y028413D01*
X038514Y028413D01*
X038439Y028338D01*
X038439Y028188D01*
X038514Y028113D01*
X038889Y028113D02*
X038889Y028413D01*
X038440Y032300D02*
X038442Y032343D01*
X038448Y032385D01*
X038458Y032427D01*
X038471Y032468D01*
X038488Y032508D01*
X038509Y032545D01*
X038533Y032581D01*
X038560Y032614D01*
X038590Y032645D01*
X038623Y032673D01*
X038658Y032698D01*
X038695Y032719D01*
X038734Y032737D01*
X038774Y032751D01*
X038816Y032762D01*
X038858Y032769D01*
X038901Y032772D01*
X038944Y032771D01*
X038987Y032766D01*
X039029Y032757D01*
X039070Y032745D01*
X039110Y032729D01*
X039148Y032709D01*
X039184Y032686D01*
X039218Y032659D01*
X039250Y032630D01*
X039278Y032598D01*
X039304Y032563D01*
X039326Y032527D01*
X039345Y032488D01*
X039360Y032448D01*
X039372Y032407D01*
X039380Y032364D01*
X039384Y032321D01*
X039384Y032279D01*
X039380Y032236D01*
X039372Y032193D01*
X039360Y032152D01*
X039345Y032112D01*
X039326Y032073D01*
X039304Y032037D01*
X039278Y032002D01*
X039250Y031970D01*
X039218Y031941D01*
X039184Y031914D01*
X039148Y031891D01*
X039110Y031871D01*
X039070Y031855D01*
X039029Y031843D01*
X038987Y031834D01*
X038944Y031829D01*
X038901Y031828D01*
X038858Y031831D01*
X038816Y031838D01*
X038774Y031849D01*
X038734Y031863D01*
X038695Y031881D01*
X038658Y031902D01*
X038623Y031927D01*
X038590Y031955D01*
X038560Y031986D01*
X038533Y032019D01*
X038509Y032055D01*
X038488Y032092D01*
X038471Y032132D01*
X038458Y032173D01*
X038448Y032215D01*
X038442Y032257D01*
X038440Y032300D01*
X040637Y033025D02*
X040938Y033025D01*
X040788Y033025D02*
X040788Y032575D01*
X041098Y032575D02*
X041098Y033025D01*
X041323Y033025D01*
X041398Y032950D01*
X041398Y032800D01*
X041323Y032725D01*
X041098Y032725D01*
X041248Y032725D02*
X041398Y032575D01*
X041558Y032575D02*
X041859Y032875D01*
X041859Y032950D01*
X041783Y033025D01*
X041633Y033025D01*
X041558Y032950D01*
X041558Y032575D02*
X041859Y032575D01*
X054965Y032407D02*
X054965Y031957D01*
X055190Y031957D01*
X055265Y032032D01*
X055265Y032107D01*
X055190Y032182D01*
X054965Y032182D01*
X055190Y032182D02*
X055265Y032257D01*
X055265Y032332D01*
X055190Y032407D01*
X054965Y032407D01*
X055425Y032257D02*
X055575Y032407D01*
X055575Y031957D01*
X055425Y031957D02*
X055725Y031957D01*
X061914Y029417D02*
X062064Y029567D01*
X062214Y029567D01*
X062364Y029417D01*
X062289Y029256D02*
X062364Y029181D01*
X062364Y029031D01*
X062289Y028956D01*
X062289Y028796D02*
X062364Y028721D01*
X062364Y028496D01*
X061914Y028496D01*
X061914Y028721D01*
X061989Y028796D01*
X062064Y028796D01*
X062139Y028721D01*
X062139Y028496D01*
X062214Y028336D02*
X062289Y028336D01*
X062364Y028261D01*
X062364Y028110D01*
X062289Y028035D01*
X062139Y028185D02*
X062139Y028261D01*
X062214Y028336D01*
X062139Y028261D02*
X062064Y028336D01*
X061989Y028336D01*
X061914Y028261D01*
X061914Y028110D01*
X061989Y028035D01*
X062064Y027877D02*
X062064Y027802D01*
X062214Y027652D01*
X062364Y027652D02*
X062064Y027652D01*
X061664Y027727D02*
X061664Y027877D01*
X061589Y027952D01*
X061664Y027727D02*
X061589Y027652D01*
X061289Y027652D01*
X061214Y027727D01*
X061214Y027877D01*
X061289Y027952D01*
X061214Y027495D02*
X061214Y027345D01*
X061214Y027420D02*
X061664Y027420D01*
X061664Y027345D02*
X061664Y027495D01*
X061589Y027185D02*
X061289Y027185D01*
X061214Y027110D01*
X061214Y026884D01*
X061664Y026884D01*
X061664Y027110D01*
X061589Y027185D01*
X061914Y026956D02*
X061989Y027031D01*
X062064Y027031D01*
X062139Y026956D01*
X062139Y026806D01*
X062064Y026731D01*
X061989Y026731D01*
X061914Y026806D01*
X061914Y026956D01*
X062139Y026956D02*
X062214Y027031D01*
X062289Y027031D01*
X062364Y026956D01*
X062364Y026806D01*
X062289Y026731D01*
X062214Y026731D01*
X062139Y026806D01*
X062364Y026571D02*
X062364Y026271D01*
X062364Y026421D02*
X061914Y026421D01*
X062064Y026271D01*
X061989Y026110D02*
X062289Y025810D01*
X062364Y025885D01*
X062364Y026035D01*
X062289Y026110D01*
X061989Y026110D01*
X061914Y026035D01*
X061914Y025885D01*
X061989Y025810D01*
X062289Y025810D01*
X062364Y025650D02*
X062364Y025350D01*
X062064Y025650D01*
X061989Y025650D01*
X061914Y025575D01*
X061914Y025425D01*
X061989Y025350D01*
X061914Y025190D02*
X062364Y024889D01*
X062289Y024729D02*
X062364Y024654D01*
X062364Y024504D01*
X062289Y024429D01*
X062214Y024429D01*
X062139Y024504D01*
X062139Y024654D01*
X062214Y024729D01*
X062289Y024729D01*
X062139Y024654D02*
X062064Y024729D01*
X061989Y024729D01*
X061914Y024654D01*
X061914Y024504D01*
X061989Y024429D01*
X062064Y024429D01*
X062139Y024504D01*
X062289Y024269D02*
X062364Y024194D01*
X062364Y024044D01*
X062289Y023969D01*
X061989Y024269D01*
X062289Y024269D01*
X061989Y024269D02*
X061914Y024194D01*
X061914Y024044D01*
X061989Y023969D01*
X062289Y023969D01*
X062364Y023812D02*
X062214Y023662D01*
X062064Y023662D01*
X061914Y023812D01*
X061664Y023662D02*
X061664Y023962D01*
X061664Y024122D02*
X061664Y024422D01*
X061664Y024582D02*
X061664Y024883D01*
X061664Y024582D02*
X061589Y024582D01*
X061289Y024883D01*
X061214Y024883D01*
X061214Y024582D01*
X061214Y024422D02*
X061214Y024122D01*
X061664Y024122D01*
X061439Y024122D02*
X061439Y024272D01*
X061214Y023962D02*
X061214Y023662D01*
X061664Y023662D01*
X061439Y023662D02*
X061439Y023812D01*
X060073Y022900D02*
X059773Y022900D01*
X059773Y022675D01*
X059923Y022750D01*
X059998Y022750D01*
X060073Y022675D01*
X060073Y022525D01*
X059998Y022450D01*
X059848Y022450D01*
X059773Y022525D01*
X059613Y022525D02*
X059538Y022450D01*
X059388Y022450D01*
X059312Y022525D01*
X059312Y022825D01*
X059388Y022900D01*
X059538Y022900D01*
X059613Y022825D01*
X056998Y022875D02*
X056848Y022800D01*
X056698Y022650D01*
X056923Y022650D01*
X056998Y022575D01*
X056998Y022500D01*
X056923Y022425D01*
X056773Y022425D01*
X056698Y022500D01*
X056698Y022650D01*
X056538Y022500D02*
X056463Y022425D01*
X056313Y022425D01*
X056237Y022500D01*
X056237Y022800D01*
X056313Y022875D01*
X056463Y022875D01*
X056538Y022800D01*
X061214Y025578D02*
X061289Y025503D01*
X061589Y025503D01*
X061664Y025578D01*
X061664Y025728D01*
X061589Y025803D01*
X061664Y025964D02*
X061214Y025964D01*
X061214Y026264D01*
X061439Y026114D02*
X061439Y025964D01*
X061289Y025803D02*
X061214Y025728D01*
X061214Y025578D01*
X061439Y026424D02*
X061439Y026724D01*
X062139Y028721D02*
X062214Y028796D01*
X062289Y028796D01*
X061989Y028956D02*
X061914Y029031D01*
X061914Y029181D01*
X061989Y029256D01*
X062064Y029256D01*
X062139Y029181D01*
X062214Y029256D01*
X062289Y029256D01*
X062139Y029181D02*
X062139Y029106D01*
X062338Y019625D02*
X062262Y019550D01*
X062262Y019250D01*
X062338Y019175D01*
X062488Y019175D01*
X062563Y019250D01*
X062723Y019175D02*
X063023Y019475D01*
X063023Y019550D01*
X062948Y019625D01*
X062798Y019625D01*
X062723Y019550D01*
X062563Y019550D02*
X062488Y019625D01*
X062338Y019625D01*
X062723Y019175D02*
X063023Y019175D01*
X062618Y017776D02*
X053957Y017776D01*
X053931Y017774D01*
X053906Y017769D01*
X053882Y017761D01*
X053858Y017750D01*
X053837Y017735D01*
X053818Y017718D01*
X053801Y017699D01*
X053786Y017678D01*
X053775Y017654D01*
X053767Y017630D01*
X053762Y017605D01*
X053760Y017579D01*
X053760Y011871D01*
X053762Y011845D01*
X053767Y011820D01*
X053775Y011796D01*
X053786Y011773D01*
X053801Y011751D01*
X053818Y011732D01*
X053837Y011715D01*
X053858Y011700D01*
X053882Y011689D01*
X053906Y011681D01*
X053931Y011676D01*
X053957Y011674D01*
X062618Y011674D01*
X062644Y011676D01*
X062669Y011681D01*
X062693Y011689D01*
X062716Y011700D01*
X062738Y011715D01*
X062757Y011732D01*
X062774Y011751D01*
X062789Y011772D01*
X062800Y011796D01*
X062808Y011820D01*
X062813Y011845D01*
X062815Y011871D01*
X062815Y017579D01*
X062813Y017605D01*
X062808Y017630D01*
X062800Y017654D01*
X062789Y017677D01*
X062774Y017699D01*
X062757Y017718D01*
X062738Y017735D01*
X062717Y017750D01*
X062693Y017761D01*
X062669Y017769D01*
X062644Y017774D01*
X062618Y017776D01*
X062513Y010325D02*
X062363Y010325D01*
X062287Y010250D01*
X062287Y009950D01*
X062363Y009875D01*
X062513Y009875D01*
X062588Y009950D01*
X062748Y009875D02*
X063048Y009875D01*
X062898Y009875D02*
X062898Y010325D01*
X062748Y010175D01*
X062588Y010250D02*
X062513Y010325D01*
X061283Y007000D02*
X061434Y006850D01*
X061434Y006550D01*
X061434Y006775D02*
X061133Y006775D01*
X061133Y006850D02*
X061283Y007000D01*
X061133Y006850D02*
X061133Y006550D01*
X060973Y006625D02*
X060898Y006550D01*
X060748Y006550D01*
X060673Y006625D01*
X060673Y006775D02*
X060823Y006850D01*
X060898Y006850D01*
X060973Y006775D01*
X060973Y006625D01*
X060673Y006775D02*
X060673Y007000D01*
X060973Y007000D01*
X060513Y006925D02*
X060438Y007000D01*
X060288Y007000D01*
X060212Y006925D01*
X060212Y006625D01*
X060288Y006550D01*
X060438Y006550D01*
X060513Y006625D01*
X059275Y006562D02*
X059275Y005656D01*
X058802Y005184D01*
X058251Y005184D01*
X058251Y003845D01*
X057818Y003845D01*
X057818Y001877D01*
X055968Y001877D01*
X055968Y002782D01*
X054196Y002782D01*
X053763Y003215D01*
X053763Y004160D01*
X054157Y004554D01*
X055968Y004554D01*
X055968Y007034D01*
X058802Y007034D01*
X059275Y006562D01*
X058251Y005184D02*
X057818Y005184D01*
X057818Y003845D01*
X058416Y004307D02*
X058716Y004758D01*
X058877Y004683D02*
X058952Y004758D01*
X059102Y004758D01*
X059177Y004683D01*
X059177Y004608D01*
X058877Y004307D01*
X059177Y004307D01*
X058716Y004307D02*
X058416Y004758D01*
X053287Y006525D02*
X053287Y006675D01*
X053212Y006750D01*
X053212Y006910D02*
X053287Y006985D01*
X053287Y007136D01*
X053212Y007211D01*
X053137Y007211D01*
X053062Y007136D01*
X053062Y006910D01*
X053212Y006910D01*
X053062Y006910D02*
X052912Y007061D01*
X052837Y007211D01*
X052987Y007371D02*
X052837Y007521D01*
X052987Y007671D01*
X053287Y007671D01*
X053062Y007671D02*
X053062Y007371D01*
X052987Y007371D02*
X053287Y007371D01*
X052912Y006750D02*
X052837Y006675D01*
X052837Y006525D01*
X052912Y006450D01*
X053212Y006450D01*
X053287Y006525D01*
X051415Y007525D02*
X051417Y007568D01*
X051423Y007610D01*
X051433Y007652D01*
X051446Y007693D01*
X051463Y007733D01*
X051484Y007770D01*
X051508Y007806D01*
X051535Y007839D01*
X051565Y007870D01*
X051598Y007898D01*
X051633Y007923D01*
X051670Y007944D01*
X051709Y007962D01*
X051749Y007976D01*
X051791Y007987D01*
X051833Y007994D01*
X051876Y007997D01*
X051919Y007996D01*
X051962Y007991D01*
X052004Y007982D01*
X052045Y007970D01*
X052085Y007954D01*
X052123Y007934D01*
X052159Y007911D01*
X052193Y007884D01*
X052225Y007855D01*
X052253Y007823D01*
X052279Y007788D01*
X052301Y007752D01*
X052320Y007713D01*
X052335Y007673D01*
X052347Y007632D01*
X052355Y007589D01*
X052359Y007546D01*
X052359Y007504D01*
X052355Y007461D01*
X052347Y007418D01*
X052335Y007377D01*
X052320Y007337D01*
X052301Y007298D01*
X052279Y007262D01*
X052253Y007227D01*
X052225Y007195D01*
X052193Y007166D01*
X052159Y007139D01*
X052123Y007116D01*
X052085Y007096D01*
X052045Y007080D01*
X052004Y007068D01*
X051962Y007059D01*
X051919Y007054D01*
X051876Y007053D01*
X051833Y007056D01*
X051791Y007063D01*
X051749Y007074D01*
X051709Y007088D01*
X051670Y007106D01*
X051633Y007127D01*
X051598Y007152D01*
X051565Y007180D01*
X051535Y007211D01*
X051508Y007244D01*
X051484Y007280D01*
X051463Y007317D01*
X051446Y007357D01*
X051433Y007398D01*
X051423Y007440D01*
X051417Y007482D01*
X051415Y007525D01*
X040156Y007802D02*
X040156Y008027D01*
X040081Y008102D01*
X039781Y008102D01*
X039706Y008027D01*
X039706Y007802D01*
X040156Y007802D01*
X040156Y008262D02*
X039856Y008563D01*
X039781Y008563D01*
X039706Y008487D01*
X039706Y008337D01*
X039781Y008262D01*
X040156Y008262D02*
X040156Y008563D01*
X040156Y008723D02*
X040156Y009023D01*
X040156Y008873D02*
X039706Y008873D01*
X039856Y008723D01*
X039412Y008715D02*
X039337Y008715D01*
X039037Y009015D01*
X038962Y009015D01*
X038962Y008715D01*
X038962Y008479D02*
X039187Y008254D01*
X039187Y008554D01*
X039412Y008479D02*
X038962Y008479D01*
X039037Y008094D02*
X039187Y008094D01*
X039262Y008019D01*
X039262Y007794D01*
X039262Y007944D02*
X039412Y008094D01*
X039412Y007794D02*
X038962Y007794D01*
X038962Y008019D01*
X039037Y008094D01*
X038725Y009148D02*
X038725Y010702D01*
X039499Y010702D01*
X039499Y009148D01*
X038725Y009148D01*
X038664Y003980D02*
X038664Y003680D01*
X038439Y003905D01*
X038889Y003905D01*
X038889Y003519D02*
X038739Y003369D01*
X038889Y003294D02*
X038814Y003219D01*
X038514Y003219D01*
X038439Y003294D01*
X038439Y003444D01*
X038514Y003519D01*
X038814Y003519D01*
X038889Y003444D01*
X038889Y003294D01*
X038756Y014370D02*
X038832Y014445D01*
X038832Y014595D01*
X038756Y014670D01*
X038456Y014670D01*
X038381Y014595D01*
X038381Y014445D01*
X038456Y014370D01*
X038756Y014370D01*
X038681Y014520D02*
X038832Y014670D01*
X038756Y014830D02*
X038832Y014905D01*
X038832Y015055D01*
X038756Y015130D01*
X038606Y015130D01*
X038531Y015055D01*
X038531Y014980D01*
X038606Y014830D01*
X038381Y014830D01*
X038381Y015130D01*
X038436Y016988D02*
X038436Y017762D01*
X039989Y017762D01*
X039989Y016988D01*
X038436Y016988D01*
X038464Y021104D02*
X038389Y021179D01*
X038389Y021329D01*
X038464Y021404D01*
X038764Y021404D01*
X038839Y021329D01*
X038839Y021179D01*
X038764Y021104D01*
X038464Y021104D01*
X038689Y021254D02*
X038839Y021404D01*
X038764Y021564D02*
X038839Y021639D01*
X038839Y021790D01*
X038764Y021865D01*
X038689Y021865D01*
X038614Y021790D01*
X038614Y021714D01*
X038614Y021790D02*
X038539Y021865D01*
X038464Y021865D01*
X038389Y021790D01*
X038389Y021639D01*
X038464Y021564D01*
X028515Y016250D02*
X028517Y016293D01*
X028523Y016335D01*
X028533Y016377D01*
X028546Y016418D01*
X028563Y016458D01*
X028584Y016495D01*
X028608Y016531D01*
X028635Y016564D01*
X028665Y016595D01*
X028698Y016623D01*
X028733Y016648D01*
X028770Y016669D01*
X028809Y016687D01*
X028849Y016701D01*
X028891Y016712D01*
X028933Y016719D01*
X028976Y016722D01*
X029019Y016721D01*
X029062Y016716D01*
X029104Y016707D01*
X029145Y016695D01*
X029185Y016679D01*
X029223Y016659D01*
X029259Y016636D01*
X029293Y016609D01*
X029325Y016580D01*
X029353Y016548D01*
X029379Y016513D01*
X029401Y016477D01*
X029420Y016438D01*
X029435Y016398D01*
X029447Y016357D01*
X029455Y016314D01*
X029459Y016271D01*
X029459Y016229D01*
X029455Y016186D01*
X029447Y016143D01*
X029435Y016102D01*
X029420Y016062D01*
X029401Y016023D01*
X029379Y015987D01*
X029353Y015952D01*
X029325Y015920D01*
X029293Y015891D01*
X029259Y015864D01*
X029223Y015841D01*
X029185Y015821D01*
X029145Y015805D01*
X029104Y015793D01*
X029062Y015784D01*
X029019Y015779D01*
X028976Y015778D01*
X028933Y015781D01*
X028891Y015788D01*
X028849Y015799D01*
X028809Y015813D01*
X028770Y015831D01*
X028733Y015852D01*
X028698Y015877D01*
X028665Y015905D01*
X028635Y015936D01*
X028608Y015969D01*
X028584Y016005D01*
X028563Y016042D01*
X028546Y016082D01*
X028533Y016123D01*
X028523Y016165D01*
X028517Y016207D01*
X028515Y016250D01*
D815*
X020987Y022775D02*
X020987Y023125D01*
X020987Y023475D01*
X020587Y023475D02*
X020587Y023125D01*
X020587Y022775D01*
X047890Y023712D02*
X050890Y023712D01*
X049390Y026212D01*
X047890Y023712D01*
X049268Y024000D02*
X049378Y024000D01*
X049290Y023962D02*
X049540Y024712D01*
X049040Y024712D01*
X049290Y025462D01*
X049269Y025426D02*
X049447Y025426D01*
X049490Y025512D02*
X049090Y024712D01*
X049290Y025512D01*
X049490Y025512D01*
X049368Y025268D02*
X049229Y025268D01*
X049189Y025109D02*
X049289Y025109D01*
X049209Y024951D02*
X049150Y024951D01*
X049130Y024792D02*
X049110Y024792D01*
X049190Y024312D02*
X049590Y024212D01*
X049290Y023912D01*
X049190Y024312D01*
X049228Y024158D02*
X049536Y024158D01*
X056462Y022050D02*
X056462Y021700D01*
X056462Y021350D01*
X056862Y021350D02*
X056862Y021700D01*
X056862Y022050D01*
X060462Y022050D02*
X060462Y021700D01*
X060462Y021350D01*
X060862Y021350D02*
X060862Y021700D01*
X060862Y022050D01*
X056912Y019850D02*
X056912Y019350D01*
X056912Y018850D01*
X056562Y018850D02*
X056562Y019350D01*
X056562Y019850D01*
X056562Y010550D02*
X056562Y010050D01*
X056562Y009550D01*
X056912Y009550D02*
X056912Y010050D01*
X056912Y010550D01*
X060462Y008075D02*
X060462Y007725D01*
X060462Y007375D01*
X060862Y007375D02*
X060862Y007725D01*
X060862Y008075D01*
X054362Y007225D02*
X054012Y007225D01*
X053662Y007225D01*
X053662Y006825D02*
X054012Y006825D01*
X054362Y006825D01*
X050875Y032622D02*
X050875Y033961D01*
X051702Y033961D01*
X050875Y032622D02*
X059694Y032622D01*
X059694Y033961D01*
X058710Y033961D01*
D816*
X040499Y026780D02*
X040499Y026420D01*
X040559Y026600D02*
X040319Y026600D01*
X040499Y026780D01*
X040191Y026720D02*
X040191Y026600D01*
X040131Y026540D01*
X039951Y026540D01*
X039951Y026420D02*
X039951Y026780D01*
X040131Y026780D01*
X040191Y026720D01*
X039823Y026780D02*
X039582Y026780D01*
X039703Y026780D02*
X039703Y026420D01*
X038767Y029170D02*
X038407Y029170D01*
X038587Y029170D02*
X038587Y029410D01*
X038407Y029410D02*
X038767Y029410D01*
X038767Y029538D02*
X038767Y029658D01*
X038767Y029598D02*
X038407Y029598D01*
X038407Y029538D02*
X038407Y029658D01*
X038587Y029784D02*
X038587Y030024D01*
X038527Y030152D02*
X038587Y030212D01*
X038587Y030332D01*
X038647Y030392D01*
X038707Y030392D01*
X038767Y030332D01*
X038767Y030212D01*
X038707Y030152D01*
X038527Y030152D02*
X038467Y030152D01*
X038407Y030212D01*
X038407Y030332D01*
X038467Y030392D01*
X038407Y030520D02*
X038407Y030641D01*
X038407Y030581D02*
X038767Y030581D01*
X038767Y030641D02*
X038767Y030520D01*
X038767Y030766D02*
X038767Y030946D01*
X038707Y031006D01*
X038467Y031006D01*
X038407Y030946D01*
X038407Y030766D01*
X038767Y030766D01*
X038767Y031134D02*
X038767Y031375D01*
X038587Y031254D02*
X038587Y031134D01*
X038407Y031134D02*
X038767Y031134D01*
X038407Y031134D02*
X038407Y031375D01*
X038503Y032870D02*
X038503Y033230D01*
X038623Y033230D02*
X038382Y033230D01*
X038751Y033230D02*
X038931Y033230D01*
X038991Y033170D01*
X038991Y033050D01*
X038931Y032990D01*
X038751Y032990D01*
X038751Y032870D02*
X038751Y033230D01*
X039119Y033170D02*
X039179Y033230D01*
X039299Y033230D01*
X039359Y033170D01*
X039359Y033110D01*
X039299Y033050D01*
X039359Y032990D01*
X039359Y032930D01*
X039299Y032870D01*
X039179Y032870D01*
X039119Y032930D01*
X039239Y033050D02*
X039299Y033050D01*
X031892Y029517D02*
X031892Y029277D01*
X031892Y029397D02*
X031532Y029397D01*
X031652Y029277D01*
X031532Y029149D02*
X031892Y028908D01*
X031892Y029149D02*
X031532Y028908D01*
X031551Y027655D02*
X031731Y027655D01*
X031791Y027595D01*
X031791Y027475D01*
X031731Y027415D01*
X031551Y027415D01*
X031551Y027295D02*
X031551Y027655D01*
X031423Y027655D02*
X031182Y027655D01*
X031303Y027655D02*
X031303Y027295D01*
X031919Y027295D02*
X032159Y027295D01*
X032039Y027295D02*
X032039Y027655D01*
X031919Y027535D01*
X029761Y027566D02*
X029761Y027807D01*
X029761Y027687D02*
X029401Y027687D01*
X029521Y027566D01*
X029461Y027438D02*
X029401Y027378D01*
X029401Y027198D01*
X029761Y027198D01*
X029761Y027378D01*
X029701Y027438D01*
X029461Y027438D01*
X029061Y027378D02*
X029001Y027438D01*
X028761Y027438D01*
X028701Y027378D01*
X028701Y027198D01*
X029061Y027198D01*
X029061Y027378D01*
X029061Y027566D02*
X029061Y027807D01*
X029061Y027687D02*
X028701Y027687D01*
X028821Y027566D01*
X028761Y027935D02*
X028701Y027995D01*
X028701Y028115D01*
X028761Y028175D01*
X029001Y027935D01*
X029061Y027995D01*
X029061Y028115D01*
X029001Y028175D01*
X028761Y028175D01*
X028761Y027935D02*
X029001Y027935D01*
X029401Y028055D02*
X029761Y028055D01*
X029761Y027935D02*
X029761Y028175D01*
X029521Y027935D02*
X029401Y028055D01*
X028267Y028057D02*
X028267Y027937D01*
X028207Y027877D01*
X028087Y027877D02*
X028027Y027997D01*
X028027Y028057D01*
X028087Y028117D01*
X028207Y028117D01*
X028267Y028057D01*
X028087Y027877D02*
X027907Y027877D01*
X027907Y028117D01*
X027907Y027628D02*
X028267Y027628D01*
X028267Y027508D02*
X028267Y027749D01*
X028027Y027508D02*
X027907Y027628D01*
X027967Y027380D02*
X028087Y027380D01*
X028147Y027320D01*
X028147Y027140D01*
X028147Y027260D02*
X028267Y027380D01*
X028267Y027140D02*
X027907Y027140D01*
X027907Y027320D01*
X027967Y027380D01*
X027067Y027508D02*
X026707Y027508D01*
X026707Y027689D01*
X026767Y027749D01*
X026887Y027749D01*
X026947Y027689D01*
X026947Y027508D01*
X026947Y027628D02*
X027067Y027749D01*
X026887Y027877D02*
X026887Y028117D01*
X026707Y028057D02*
X026887Y027877D01*
X027067Y028057D02*
X026707Y028057D01*
X025637Y027825D02*
X025237Y027825D01*
X025237Y030025D01*
X024837Y030425D01*
X021412Y030425D01*
X020987Y030000D01*
X020987Y022150D01*
X020587Y022150D01*
X020587Y030150D01*
X021262Y030825D01*
X024987Y030825D01*
X025637Y030175D01*
X025637Y027825D01*
X024617Y029910D02*
X024617Y030271D01*
X024436Y030091D01*
X024677Y030091D01*
X024308Y030211D02*
X024248Y030271D01*
X024068Y030271D01*
X024068Y029910D01*
X024248Y029910D01*
X024308Y029970D01*
X024308Y030211D01*
X025532Y030805D02*
X025593Y030745D01*
X025713Y030745D01*
X025773Y030805D01*
X025901Y030805D02*
X025961Y030745D01*
X026081Y030745D01*
X026141Y030805D01*
X026141Y030865D01*
X026081Y030925D01*
X026021Y030925D01*
X026081Y030925D02*
X026141Y030985D01*
X026141Y031045D01*
X026081Y031105D01*
X025961Y031105D01*
X025901Y031045D01*
X025773Y031045D02*
X025713Y031105D01*
X025593Y031105D01*
X025532Y031045D01*
X025532Y030805D01*
X026182Y034020D02*
X026182Y034380D01*
X026363Y034380D01*
X026423Y034320D01*
X026423Y034200D01*
X026363Y034140D01*
X026182Y034140D01*
X026303Y034140D02*
X026423Y034020D01*
X026551Y034020D02*
X026791Y034260D01*
X026791Y034320D01*
X026731Y034380D01*
X026611Y034380D01*
X026551Y034320D01*
X026551Y034020D02*
X026791Y034020D01*
X024766Y034270D02*
X024526Y034270D01*
X024646Y034270D02*
X024646Y034630D01*
X024526Y034510D01*
X024398Y034570D02*
X024338Y034630D01*
X024157Y034630D01*
X024157Y034270D01*
X024338Y034270D01*
X024398Y034330D01*
X024398Y034570D01*
X012591Y031380D02*
X012351Y031380D01*
X012351Y031200D01*
X012471Y031260D01*
X012531Y031260D01*
X012591Y031200D01*
X012591Y031080D01*
X012531Y031020D01*
X012411Y031020D01*
X012351Y031080D01*
X012223Y031080D02*
X012223Y031320D01*
X012163Y031380D01*
X011982Y031380D01*
X011982Y031020D01*
X012163Y031020D01*
X012223Y031080D01*
X012163Y030780D02*
X011982Y030780D01*
X011982Y030420D01*
X012163Y030420D01*
X012223Y030480D01*
X012223Y030720D01*
X012163Y030780D01*
X012351Y030720D02*
X012351Y030660D01*
X012411Y030600D01*
X012531Y030600D01*
X012591Y030540D01*
X012591Y030480D01*
X012531Y030420D01*
X012411Y030420D01*
X012351Y030480D01*
X012351Y030540D01*
X012411Y030600D01*
X012531Y030600D02*
X012591Y030660D01*
X012591Y030720D01*
X012531Y030780D01*
X012411Y030780D01*
X012351Y030720D01*
X010479Y030934D02*
X010419Y030874D01*
X010299Y030874D01*
X010239Y030934D01*
X010110Y030874D02*
X009870Y030874D01*
X009870Y031235D01*
X010239Y031175D02*
X010299Y031235D01*
X010419Y031235D01*
X010479Y031175D01*
X010479Y031115D01*
X010419Y031054D01*
X010479Y030994D01*
X010479Y030934D01*
X010419Y031054D02*
X010359Y031054D01*
X010382Y031590D02*
X010442Y031650D01*
X010442Y031770D01*
X010382Y031830D01*
X010442Y031958D02*
X010442Y032199D01*
X010442Y032078D02*
X010082Y032078D01*
X010202Y031958D01*
X010142Y031830D02*
X010082Y031770D01*
X010082Y031650D01*
X010142Y031590D01*
X010382Y031590D01*
X010382Y032327D02*
X010322Y032327D01*
X010262Y032387D01*
X010262Y032507D01*
X010322Y032567D01*
X010382Y032567D01*
X010442Y032507D01*
X010442Y032387D01*
X010382Y032327D01*
X010262Y032387D02*
X010202Y032327D01*
X010142Y032327D01*
X010082Y032387D01*
X010082Y032507D01*
X010142Y032567D01*
X010202Y032567D01*
X010262Y032507D01*
X010322Y033195D02*
X010322Y033375D01*
X010262Y033435D01*
X010142Y033435D01*
X010082Y033375D01*
X010082Y033195D01*
X010442Y033195D01*
X010322Y033315D02*
X010442Y033435D01*
X010442Y033563D02*
X010442Y033804D01*
X010442Y033683D02*
X010082Y033683D01*
X010202Y033563D01*
X010142Y033932D02*
X010082Y033992D01*
X010082Y034112D01*
X010142Y034172D01*
X010382Y033932D01*
X010442Y033992D01*
X010442Y034112D01*
X010382Y034172D01*
X010142Y034172D01*
X010142Y033932D02*
X010382Y033932D01*
X010417Y030492D02*
X010417Y030252D01*
X010417Y030372D02*
X010057Y030372D01*
X010177Y030252D01*
X010177Y030124D02*
X010117Y030124D01*
X010057Y030064D01*
X010057Y029943D01*
X010117Y029883D01*
X010117Y029755D02*
X010057Y029695D01*
X010057Y029575D01*
X010117Y029515D01*
X010357Y029515D01*
X010417Y029575D01*
X010417Y029695D01*
X010357Y029755D01*
X010417Y029883D02*
X010177Y030124D01*
X010417Y030124D02*
X010417Y029883D01*
X010442Y028872D02*
X010442Y028632D01*
X010442Y028752D02*
X010082Y028752D01*
X010202Y028632D01*
X010442Y028504D02*
X010442Y028263D01*
X010442Y028383D02*
X010082Y028383D01*
X010202Y028263D01*
X010142Y028135D02*
X010262Y028135D01*
X010322Y028075D01*
X010322Y027895D01*
X010322Y028015D02*
X010442Y028135D01*
X010442Y027895D02*
X010082Y027895D01*
X010082Y028075D01*
X010142Y028135D01*
X007384Y029255D02*
X007324Y029195D01*
X007204Y029195D01*
X007144Y029255D01*
X007144Y029375D02*
X007264Y029435D01*
X007324Y029435D01*
X007384Y029375D01*
X007384Y029255D01*
X007144Y029375D02*
X007144Y029555D01*
X007384Y029555D01*
X006896Y029555D02*
X006896Y029195D01*
X006776Y029195D02*
X007016Y029195D01*
X006776Y029435D02*
X006896Y029555D01*
X006648Y029495D02*
X006588Y029555D01*
X006468Y029555D01*
X006407Y029495D01*
X006407Y029255D01*
X006468Y029195D01*
X006588Y029195D01*
X006648Y029255D01*
X006731Y024730D02*
X006671Y024670D01*
X006731Y024730D02*
X006851Y024730D01*
X006911Y024670D01*
X006911Y024610D01*
X006671Y024370D01*
X006911Y024370D01*
X007039Y024430D02*
X007099Y024370D01*
X007219Y024370D01*
X007279Y024430D01*
X007279Y024550D01*
X007219Y024610D01*
X007159Y024610D01*
X007039Y024550D01*
X007039Y024730D01*
X007279Y024730D01*
X006543Y024670D02*
X006483Y024730D01*
X006363Y024730D01*
X006303Y024670D01*
X006303Y024430D01*
X006363Y024370D01*
X006483Y024370D01*
X006543Y024430D01*
X013182Y024595D02*
X013363Y024595D01*
X013423Y024655D01*
X013423Y024895D01*
X013363Y024955D01*
X013182Y024955D01*
X013182Y024595D01*
X013551Y024595D02*
X013791Y024835D01*
X013791Y024895D01*
X013731Y024955D01*
X013611Y024955D01*
X013551Y024895D01*
X013551Y024595D02*
X013791Y024595D01*
X014532Y024630D02*
X014532Y024870D01*
X014593Y024930D01*
X014713Y024930D01*
X014773Y024870D01*
X014901Y024870D02*
X014901Y024810D01*
X014961Y024750D01*
X015141Y024750D01*
X015141Y024630D02*
X015141Y024870D01*
X015081Y024930D01*
X014961Y024930D01*
X014901Y024870D01*
X014901Y024630D02*
X014961Y024570D01*
X015081Y024570D01*
X015141Y024630D01*
X014773Y024630D02*
X014713Y024570D01*
X014593Y024570D01*
X014532Y024630D01*
X014557Y021305D02*
X014738Y021305D01*
X014798Y021245D01*
X014798Y021125D01*
X014738Y021065D01*
X014557Y021065D01*
X014557Y020945D02*
X014557Y021305D01*
X014678Y021065D02*
X014798Y020945D01*
X014926Y021005D02*
X014986Y020945D01*
X015106Y020945D01*
X015166Y021005D01*
X015166Y021065D01*
X015106Y021125D01*
X014926Y021125D01*
X014926Y021005D01*
X014926Y021125D02*
X015046Y021245D01*
X015166Y021305D01*
X013384Y020570D02*
X013144Y020570D01*
X013264Y020570D02*
X013264Y020930D01*
X013144Y020810D01*
X013016Y020570D02*
X012776Y020570D01*
X012896Y020570D02*
X012896Y020930D01*
X012776Y020810D01*
X012648Y020870D02*
X012588Y020930D01*
X012468Y020930D01*
X012407Y020870D01*
X012407Y020630D01*
X012468Y020570D01*
X012588Y020570D01*
X012648Y020630D01*
X015670Y020260D02*
X015670Y019899D01*
X015910Y019899D01*
X016039Y019899D02*
X016279Y020140D01*
X016279Y020200D01*
X016219Y020260D01*
X016099Y020260D01*
X016039Y020200D01*
X016039Y019899D02*
X016279Y019899D01*
X019678Y021770D02*
X019678Y022130D01*
X019798Y022130D02*
X019557Y022130D01*
X019926Y022130D02*
X020106Y022130D01*
X020166Y022070D01*
X020166Y021950D01*
X020106Y021890D01*
X019926Y021890D01*
X019926Y021770D02*
X019926Y022130D01*
X020294Y022070D02*
X020354Y022130D01*
X020474Y022130D01*
X020534Y022070D01*
X020534Y022010D01*
X020294Y021770D01*
X020534Y021770D01*
X026562Y020900D02*
X026962Y020900D01*
X026962Y003675D01*
X026562Y003675D01*
X026562Y020900D01*
X028482Y017155D02*
X028723Y017155D01*
X028603Y017155D02*
X028603Y016795D01*
X028851Y016795D02*
X028851Y017155D01*
X029031Y017155D01*
X029091Y017095D01*
X029091Y016975D01*
X029031Y016915D01*
X028851Y016915D01*
X029219Y016855D02*
X029279Y016795D01*
X029399Y016795D01*
X029459Y016855D01*
X029459Y016915D01*
X029399Y016975D01*
X029219Y016975D01*
X029219Y016855D01*
X029219Y016975D02*
X029339Y017095D01*
X029459Y017155D01*
X038407Y018445D02*
X038767Y018445D01*
X038767Y018685D01*
X038707Y018813D02*
X038767Y018873D01*
X038767Y018993D01*
X038707Y019054D01*
X038467Y019054D01*
X038407Y018993D01*
X038407Y018873D01*
X038467Y018813D01*
X038707Y018813D01*
X038587Y019182D02*
X038587Y019422D01*
X038527Y019550D02*
X038587Y019610D01*
X038587Y019730D01*
X038647Y019790D01*
X038707Y019790D01*
X038767Y019730D01*
X038767Y019610D01*
X038707Y019550D01*
X038527Y019550D02*
X038467Y019550D01*
X038407Y019610D01*
X038407Y019730D01*
X038467Y019790D01*
X038407Y019918D02*
X038407Y020038D01*
X038407Y019978D02*
X038767Y019978D01*
X038767Y019918D02*
X038767Y020038D01*
X038767Y020164D02*
X038767Y020344D01*
X038707Y020404D01*
X038467Y020404D01*
X038407Y020344D01*
X038407Y020164D01*
X038767Y020164D01*
X038767Y020532D02*
X038767Y020772D01*
X038587Y020652D02*
X038587Y020532D01*
X038407Y020532D02*
X038767Y020532D01*
X038407Y020532D02*
X038407Y020772D01*
X038732Y018230D02*
X038913Y018230D01*
X038973Y018170D01*
X038973Y018050D01*
X038913Y017990D01*
X038732Y017990D01*
X038732Y017870D02*
X038732Y018230D01*
X038853Y017990D02*
X038973Y017870D01*
X039101Y017930D02*
X039161Y017870D01*
X039281Y017870D01*
X039341Y017930D01*
X039341Y017990D01*
X039281Y018050D01*
X039221Y018050D01*
X039281Y018050D02*
X039341Y018110D01*
X039341Y018170D01*
X039281Y018230D01*
X039161Y018230D01*
X039101Y018170D01*
X039469Y018050D02*
X039709Y018050D01*
X039649Y017870D02*
X039649Y018230D01*
X039469Y018050D01*
X039536Y016299D02*
X039776Y016299D01*
X039776Y016239D01*
X039536Y015999D01*
X039536Y015939D01*
X039408Y015939D02*
X039168Y015939D01*
X039288Y015939D02*
X039288Y016299D01*
X039168Y016179D01*
X039040Y016239D02*
X038980Y016299D01*
X038799Y016299D01*
X038799Y015939D01*
X038980Y015939D01*
X039040Y015999D01*
X039040Y016239D01*
X038767Y013190D02*
X038767Y012950D01*
X038407Y012950D01*
X038407Y012582D02*
X038767Y012582D01*
X038767Y012822D01*
X038707Y012454D02*
X038407Y012454D01*
X038407Y012213D02*
X038707Y012213D01*
X038767Y012273D01*
X038767Y012393D01*
X038707Y012454D01*
X038587Y012085D02*
X038647Y012025D01*
X038647Y011845D01*
X038767Y011845D02*
X038407Y011845D01*
X038407Y012025D01*
X038467Y012085D01*
X038587Y012085D01*
X038587Y006465D02*
X038587Y006225D01*
X038647Y006097D02*
X038707Y006097D01*
X038767Y006037D01*
X038767Y005917D01*
X038707Y005857D01*
X038707Y005729D02*
X038407Y005729D01*
X038467Y005857D02*
X038527Y005857D01*
X038587Y005917D01*
X038587Y006037D01*
X038647Y006097D01*
X038767Y006225D02*
X038407Y006225D01*
X038467Y006097D02*
X038407Y006037D01*
X038407Y005917D01*
X038467Y005857D01*
X038707Y005729D02*
X038767Y005668D01*
X038767Y005548D01*
X038707Y005488D01*
X038407Y005488D01*
X038467Y005360D02*
X038587Y005360D01*
X038647Y005300D01*
X038647Y005120D01*
X038767Y005120D02*
X038407Y005120D01*
X038407Y005300D01*
X038467Y005360D01*
X038407Y006465D02*
X038767Y006465D01*
X051303Y006955D02*
X051543Y006955D01*
X051423Y006955D02*
X051423Y006595D01*
X051671Y006595D02*
X051671Y006955D01*
X051851Y006955D01*
X051911Y006895D01*
X051911Y006775D01*
X051851Y006715D01*
X051671Y006715D01*
X052039Y006655D02*
X052099Y006595D01*
X052219Y006595D01*
X052279Y006655D01*
X052279Y006775D01*
X052219Y006835D01*
X052159Y006835D01*
X052039Y006775D01*
X052039Y006955D01*
X052279Y006955D01*
X014821Y007095D02*
X014581Y007095D01*
X014821Y007335D01*
X014821Y007395D01*
X014761Y007455D01*
X014641Y007455D01*
X014581Y007395D01*
X014453Y007395D02*
X014393Y007455D01*
X014272Y007455D01*
X014212Y007395D01*
X014212Y007155D01*
X014272Y007095D01*
X014393Y007095D01*
X014453Y007155D01*
X014084Y007095D02*
X013844Y007095D01*
X013844Y007455D01*
X014084Y007455D01*
X013964Y007275D02*
X013844Y007275D01*
X013716Y007275D02*
X013656Y007215D01*
X013476Y007215D01*
X013596Y007215D02*
X013716Y007095D01*
X013716Y007275D02*
X013716Y007395D01*
X013656Y007455D01*
X013476Y007455D01*
X013476Y007095D01*
X013348Y007155D02*
X013288Y007095D01*
X013168Y007095D01*
X013107Y007155D01*
X013168Y007275D02*
X013288Y007275D01*
X013348Y007215D01*
X013348Y007155D01*
X013168Y007275D02*
X013107Y007335D01*
X013107Y007395D01*
X013168Y007455D01*
X013288Y007455D01*
X013348Y007395D01*
X013338Y002580D02*
X013218Y002580D01*
X013157Y002520D01*
X013157Y002460D01*
X013218Y002400D01*
X013338Y002400D01*
X013398Y002340D01*
X013398Y002280D01*
X013338Y002220D01*
X013218Y002220D01*
X013157Y002280D01*
X013398Y002520D02*
X013338Y002580D01*
X013526Y002580D02*
X013706Y002580D01*
X013766Y002520D01*
X013766Y002400D01*
X013706Y002340D01*
X013526Y002340D01*
X013646Y002340D02*
X013766Y002220D01*
X013894Y002220D02*
X014134Y002220D01*
X014262Y002280D02*
X014322Y002220D01*
X014443Y002220D01*
X014503Y002280D01*
X014631Y002220D02*
X014871Y002220D01*
X014751Y002220D02*
X014751Y002580D01*
X014631Y002460D01*
X014503Y002520D02*
X014443Y002580D01*
X014322Y002580D01*
X014262Y002520D01*
X014262Y002280D01*
X014014Y002400D02*
X013894Y002400D01*
X013894Y002580D02*
X013894Y002220D01*
X013894Y002580D02*
X014134Y002580D01*
X013526Y002580D02*
X013526Y002220D01*
X004884Y004500D02*
X004644Y004500D01*
X004824Y004680D01*
X004824Y004320D01*
X004516Y004380D02*
X004456Y004320D01*
X004336Y004320D01*
X004276Y004380D01*
X004276Y004500D02*
X004396Y004560D01*
X004456Y004560D01*
X004516Y004500D01*
X004516Y004380D01*
X004276Y004500D02*
X004276Y004680D01*
X004516Y004680D01*
X004148Y004620D02*
X004148Y004500D01*
X004088Y004440D01*
X003907Y004440D01*
X003907Y004320D02*
X003907Y004680D01*
X004088Y004680D01*
X004148Y004620D01*
X004028Y004440D02*
X004148Y004320D01*
X013528Y016520D02*
X013528Y016880D01*
X013648Y016880D02*
X013407Y016880D01*
X013776Y016880D02*
X013956Y016880D01*
X014016Y016820D01*
X014016Y016700D01*
X013956Y016640D01*
X013776Y016640D01*
X013776Y016520D02*
X013776Y016880D01*
X014144Y016820D02*
X014144Y016760D01*
X014204Y016700D01*
X014324Y016700D01*
X014384Y016640D01*
X014384Y016580D01*
X014324Y016520D01*
X014204Y016520D01*
X014144Y016580D01*
X014144Y016640D01*
X014204Y016700D01*
X014324Y016700D02*
X014384Y016760D01*
X014384Y016820D01*
X014324Y016880D01*
X014204Y016880D01*
X014144Y016820D01*
X003909Y019295D02*
X003669Y019055D01*
X003669Y018995D01*
X003541Y019175D02*
X003481Y019115D01*
X003301Y019115D01*
X003301Y018995D02*
X003301Y019355D01*
X003481Y019355D01*
X003541Y019295D01*
X003541Y019175D01*
X003669Y019355D02*
X003909Y019355D01*
X003909Y019295D01*
X003173Y019355D02*
X002932Y019355D01*
X003053Y019355D02*
X003053Y018995D01*
D817*
X009847Y017560D02*
X009847Y017140D01*
X009953Y017035D01*
X010163Y017035D01*
X010268Y017140D01*
X010492Y017140D02*
X010597Y017035D01*
X010807Y017035D01*
X010912Y017140D01*
X010912Y017350D01*
X010807Y017455D01*
X010702Y017455D01*
X010492Y017350D01*
X010492Y017666D01*
X010912Y017666D01*
X011137Y017350D02*
X011557Y017350D01*
X011452Y017035D02*
X011452Y017666D01*
X011137Y017350D01*
X010268Y017560D02*
X010163Y017666D01*
X009953Y017666D01*
X009847Y017560D01*
X016922Y018215D02*
X017028Y018110D01*
X017238Y018110D01*
X017343Y018215D01*
X017567Y018215D02*
X017672Y018110D01*
X017882Y018110D01*
X017987Y018215D01*
X017987Y018425D01*
X017882Y018530D01*
X017777Y018530D01*
X017567Y018425D01*
X017567Y018741D01*
X017987Y018741D01*
X018212Y018635D02*
X018317Y018741D01*
X018527Y018741D01*
X018632Y018635D01*
X018632Y018530D01*
X018212Y018110D01*
X018632Y018110D01*
X017343Y018635D02*
X017238Y018741D01*
X017028Y018741D01*
X016922Y018635D01*
X016922Y018215D01*
X021894Y024635D02*
X021894Y025226D01*
X021697Y025226D02*
X022091Y025226D01*
X022305Y025226D02*
X022600Y025226D01*
X022699Y025127D01*
X022699Y024930D01*
X022600Y024832D01*
X022305Y024832D01*
X022305Y024635D02*
X022305Y025226D01*
X022502Y024832D02*
X022699Y024635D01*
X022913Y024635D02*
X023307Y024635D01*
X023110Y024635D02*
X023110Y025226D01*
X022913Y025029D01*
X040872Y024826D02*
X040872Y024235D01*
X040872Y024530D02*
X041266Y024530D01*
X041266Y024235D02*
X041266Y024826D01*
X041480Y024826D02*
X041677Y024826D01*
X041579Y024826D02*
X041579Y024235D01*
X041677Y024235D02*
X041480Y024235D01*
X041885Y024333D02*
X041984Y024235D01*
X042181Y024235D01*
X042279Y024333D01*
X042279Y024530D01*
X042082Y024530D01*
X041885Y024727D02*
X041885Y024333D01*
X041885Y024727D02*
X041984Y024826D01*
X042181Y024826D01*
X042279Y024727D01*
X042493Y024826D02*
X042493Y024235D01*
X042493Y024530D02*
X042887Y024530D01*
X042887Y024235D02*
X042887Y024826D01*
X042880Y025110D02*
X042880Y025504D01*
X043077Y025701D01*
X043274Y025504D01*
X043274Y025110D01*
X043488Y025208D02*
X043586Y025110D01*
X043783Y025110D01*
X043882Y025208D01*
X043882Y025701D01*
X044096Y025701D02*
X044489Y025701D01*
X044292Y025701D02*
X044292Y025110D01*
X044415Y024826D02*
X044316Y024727D01*
X044316Y024333D01*
X044415Y024235D01*
X044611Y024235D01*
X044710Y024333D01*
X044710Y024727D01*
X044611Y024826D01*
X044415Y024826D01*
X044102Y024826D02*
X044102Y024432D01*
X043905Y024235D01*
X043708Y024432D01*
X043708Y024826D01*
X043488Y025208D02*
X043488Y025701D01*
X043274Y025405D02*
X042880Y025405D01*
X042666Y025208D02*
X042568Y025110D01*
X042371Y025110D01*
X042272Y025208D01*
X042272Y025602D01*
X042371Y025701D01*
X042568Y025701D01*
X042666Y025602D01*
X044703Y025701D02*
X044900Y025701D01*
X044802Y025701D02*
X044802Y025110D01*
X044900Y025110D02*
X044703Y025110D01*
X044924Y024826D02*
X044924Y024235D01*
X045318Y024235D01*
X045728Y024235D02*
X045728Y024826D01*
X045532Y024826D02*
X045925Y024826D01*
X046139Y024629D02*
X046336Y024826D01*
X046533Y024629D01*
X046533Y024235D01*
X046747Y024333D02*
X046845Y024235D01*
X047042Y024235D01*
X047141Y024333D01*
X047141Y024530D01*
X046944Y024530D01*
X046747Y024727D02*
X046747Y024333D01*
X046533Y024530D02*
X046139Y024530D01*
X046139Y024629D02*
X046139Y024235D01*
X047355Y024235D02*
X047748Y024235D01*
X047552Y024530D02*
X047355Y024530D01*
X047141Y024727D02*
X047042Y024826D01*
X046845Y024826D01*
X046747Y024727D01*
X046324Y025110D02*
X046324Y025208D01*
X046324Y025405D02*
X046324Y025799D01*
X046110Y025701D02*
X046110Y025110D01*
X045716Y025701D01*
X045716Y025110D01*
X045502Y025208D02*
X045502Y025602D01*
X045404Y025701D01*
X045207Y025701D01*
X045108Y025602D01*
X045108Y025208D01*
X045207Y025110D01*
X045404Y025110D01*
X045502Y025208D01*
X047355Y024826D02*
X047355Y024235D01*
X047355Y024826D02*
X047748Y024826D01*
X058022Y027490D02*
X058128Y027385D01*
X058338Y027385D01*
X058443Y027490D01*
X058667Y027490D02*
X058772Y027385D01*
X058982Y027385D01*
X059087Y027490D01*
X059087Y027595D01*
X058982Y027700D01*
X058877Y027700D01*
X058982Y027700D02*
X059087Y027805D01*
X059087Y027910D01*
X058982Y028016D01*
X058772Y028016D01*
X058667Y027910D01*
X058443Y027910D02*
X058338Y028016D01*
X058128Y028016D01*
X058022Y027910D01*
X058022Y027490D01*
X059312Y027385D02*
X059732Y027385D01*
X059522Y027385D02*
X059522Y028016D01*
X059312Y027805D01*
X045123Y032935D02*
X044703Y032935D01*
X045123Y033355D01*
X045123Y033460D01*
X045018Y033566D01*
X044808Y033566D01*
X044703Y033460D01*
X044479Y033460D02*
X044479Y033355D01*
X044374Y033250D01*
X044479Y033145D01*
X044479Y033040D01*
X044374Y032935D01*
X044163Y032935D01*
X044058Y033040D01*
X043834Y033040D02*
X043729Y032935D01*
X043519Y032935D01*
X043414Y033040D01*
X043414Y033460D01*
X043519Y033566D01*
X043729Y033566D01*
X043834Y033460D01*
X044058Y033460D02*
X044163Y033566D01*
X044374Y033566D01*
X044479Y033460D01*
X044374Y033250D02*
X044269Y033250D01*
X052621Y015223D02*
X052621Y014632D01*
X053015Y014632D01*
X053229Y014632D02*
X053623Y014632D01*
X053426Y014632D02*
X053426Y015223D01*
X053229Y015026D01*
X051124Y013101D02*
X050927Y013002D01*
X050730Y012805D01*
X051025Y012805D01*
X051124Y012707D01*
X051124Y012608D01*
X051025Y012510D01*
X050829Y012510D01*
X050730Y012608D01*
X050730Y012805D01*
X050516Y012510D02*
X050122Y012510D01*
X050122Y013101D01*
X050097Y002826D02*
X050097Y002235D01*
X050491Y002235D01*
X050705Y002333D02*
X050804Y002235D01*
X051000Y002235D01*
X051099Y002333D01*
X051099Y002530D01*
X051000Y002629D01*
X050902Y002629D01*
X050705Y002530D01*
X050705Y002826D01*
X051099Y002826D01*
X029643Y008759D02*
X029223Y008759D01*
X029433Y008759D02*
X029433Y009389D01*
X029223Y009179D01*
X028999Y009284D02*
X028999Y009074D01*
X028894Y008969D01*
X028579Y008969D01*
X028579Y008759D02*
X028579Y009389D01*
X028894Y009389D01*
X028999Y009284D01*
X024561Y010665D02*
X024168Y010665D01*
X024561Y011058D01*
X024561Y011157D01*
X024463Y011255D01*
X024266Y011255D01*
X024168Y011157D01*
X023954Y011157D02*
X023855Y011255D01*
X023658Y011255D01*
X023560Y011157D01*
X023560Y011058D01*
X023658Y010960D01*
X023855Y010960D01*
X023954Y010861D01*
X023954Y010763D01*
X023855Y010665D01*
X023658Y010665D01*
X023560Y010763D01*
X023658Y007755D02*
X023560Y007657D01*
X023560Y007558D01*
X023658Y007460D01*
X023855Y007460D01*
X023954Y007361D01*
X023954Y007263D01*
X023855Y007165D01*
X023658Y007165D01*
X023560Y007263D01*
X023658Y007755D02*
X023855Y007755D01*
X023954Y007657D01*
X024168Y007558D02*
X024365Y007755D01*
X024365Y007165D01*
X024561Y007165D02*
X024168Y007165D01*
X022974Y003426D02*
X023079Y003321D01*
X023079Y003216D01*
X022974Y003111D01*
X023079Y003006D01*
X023079Y002901D01*
X022974Y002795D01*
X022764Y002795D01*
X022659Y002901D01*
X022434Y002795D02*
X022224Y003006D01*
X022329Y003006D02*
X022014Y003006D01*
X022014Y002795D02*
X022014Y003426D01*
X022329Y003426D01*
X022434Y003321D01*
X022434Y003111D01*
X022329Y003006D01*
X022659Y003321D02*
X022764Y003426D01*
X022974Y003426D01*
X022974Y003111D02*
X022869Y003111D01*
X021790Y003426D02*
X021370Y003426D01*
X021580Y003426D02*
X021580Y002795D01*
X006982Y002795D02*
X006982Y002690D01*
X006877Y002585D01*
X006667Y002585D01*
X006562Y002690D01*
X006337Y002690D02*
X006232Y002585D01*
X006022Y002585D01*
X005917Y002690D01*
X005917Y002900D02*
X006127Y003005D01*
X006232Y003005D01*
X006337Y002900D01*
X006337Y002690D01*
X005917Y002900D02*
X005917Y003216D01*
X006337Y003216D01*
X006562Y003110D02*
X006667Y003216D01*
X006877Y003216D01*
X006982Y003110D01*
X006982Y003005D01*
X006877Y002900D01*
X006982Y002795D01*
X006877Y002900D02*
X006772Y002900D01*
X005693Y002690D02*
X005588Y002585D01*
X005378Y002585D01*
X005272Y002690D01*
X005272Y003110D01*
X005378Y003216D01*
X005588Y003216D01*
X005693Y003110D01*
D818*
X009487Y005100D02*
X009737Y005100D01*
X009737Y005850D01*
X009737Y006600D01*
X009487Y006600D01*
X009487Y005100D01*
X005887Y005850D02*
X005891Y006022D01*
X005904Y006193D01*
X005925Y006364D01*
X005954Y006533D01*
X005992Y006700D01*
X006038Y006866D01*
X006092Y007029D01*
X006153Y007189D01*
X006223Y007346D01*
X006300Y007500D01*
X006385Y007649D01*
X006477Y007794D01*
X006576Y007935D01*
X006681Y008070D01*
X006794Y008200D01*
X006912Y008325D01*
X007037Y008443D01*
X007167Y008556D01*
X007302Y008661D01*
X007443Y008760D01*
X007588Y008852D01*
X007737Y008937D01*
X007891Y009014D01*
X008048Y009084D01*
X008208Y009145D01*
X008371Y009199D01*
X008537Y009245D01*
X008704Y009283D01*
X008873Y009312D01*
X009044Y009333D01*
X009215Y009346D01*
X009387Y009350D01*
X009559Y009346D01*
X009730Y009333D01*
X009901Y009312D01*
X010070Y009283D01*
X010237Y009245D01*
X010403Y009199D01*
X010566Y009145D01*
X010726Y009084D01*
X010883Y009014D01*
X011037Y008937D01*
X011186Y008852D01*
X011331Y008760D01*
X011472Y008661D01*
X011607Y008556D01*
X011737Y008443D01*
X011862Y008325D01*
X011980Y008200D01*
X012093Y008070D01*
X012198Y007935D01*
X012297Y007794D01*
X012389Y007649D01*
X012474Y007500D01*
X012551Y007346D01*
X012621Y007189D01*
X012682Y007029D01*
X012736Y006866D01*
X012782Y006700D01*
X012820Y006533D01*
X012849Y006364D01*
X012870Y006193D01*
X012883Y006022D01*
X012887Y005850D01*
X012883Y005678D01*
X012870Y005507D01*
X012849Y005336D01*
X012820Y005167D01*
X012782Y005000D01*
X012736Y004834D01*
X012682Y004671D01*
X012621Y004511D01*
X012551Y004354D01*
X012474Y004200D01*
X012389Y004051D01*
X012297Y003906D01*
X012198Y003765D01*
X012093Y003630D01*
X011980Y003500D01*
X011862Y003375D01*
X011737Y003257D01*
X011607Y003144D01*
X011472Y003039D01*
X011331Y002940D01*
X011186Y002848D01*
X011037Y002763D01*
X010883Y002686D01*
X010726Y002616D01*
X010566Y002555D01*
X010403Y002501D01*
X010237Y002455D01*
X010070Y002417D01*
X009901Y002388D01*
X009730Y002367D01*
X009559Y002354D01*
X009387Y002350D01*
X009215Y002354D01*
X009044Y002367D01*
X008873Y002388D01*
X008704Y002417D01*
X008537Y002455D01*
X008371Y002501D01*
X008208Y002555D01*
X008048Y002616D01*
X007891Y002686D01*
X007737Y002763D01*
X007588Y002848D01*
X007443Y002940D01*
X007302Y003039D01*
X007167Y003144D01*
X007037Y003257D01*
X006912Y003375D01*
X006794Y003500D01*
X006681Y003630D01*
X006576Y003765D01*
X006477Y003906D01*
X006385Y004051D01*
X006300Y004200D01*
X006223Y004354D01*
X006153Y004511D01*
X006092Y004671D01*
X006038Y004834D01*
X005992Y005000D01*
X005954Y005167D01*
X005925Y005336D01*
X005904Y005507D01*
X005891Y005678D01*
X005887Y005850D01*
X005787Y005825D02*
X005787Y008025D01*
X002987Y008025D01*
X002987Y005825D01*
X005787Y005825D01*
X008637Y005850D02*
X009137Y005850D01*
X009737Y005850D02*
X010137Y005850D01*
X011737Y005850D02*
X012337Y005850D01*
X012037Y006150D02*
X012037Y005550D01*
X006482Y008305D02*
X006482Y009625D01*
X006482Y010325D02*
X006482Y011645D01*
X003142Y011645D01*
X003142Y010325D01*
X002942Y009675D02*
X002942Y009375D01*
X003092Y009525D02*
X002792Y009525D01*
X003142Y009625D02*
X003142Y009135D01*
X003972Y008305D01*
X003142Y008305D02*
X006482Y008305D01*
X003142Y008305D02*
X003142Y009135D01*
X003142Y010815D02*
X003972Y011645D01*
X003972Y011780D02*
X003142Y012610D01*
X003142Y011780D01*
X006482Y011780D01*
X006482Y013100D01*
X006482Y013800D02*
X006482Y015120D01*
X003142Y015120D01*
X003142Y013800D01*
X003142Y014290D02*
X003972Y015120D01*
X002942Y013150D02*
X002942Y012850D01*
X003092Y013000D02*
X002792Y013000D01*
X003142Y013100D02*
X003142Y012610D01*
X009862Y013400D02*
X010362Y013400D01*
X007112Y013400D02*
X007116Y013572D01*
X007129Y013743D01*
X007150Y013914D01*
X007179Y014083D01*
X007217Y014250D01*
X007263Y014416D01*
X007317Y014579D01*
X007378Y014739D01*
X007448Y014896D01*
X007525Y015050D01*
X007610Y015199D01*
X007702Y015344D01*
X007801Y015485D01*
X007906Y015620D01*
X008019Y015750D01*
X008137Y015875D01*
X008262Y015993D01*
X008392Y016106D01*
X008527Y016211D01*
X008668Y016310D01*
X008813Y016402D01*
X008962Y016487D01*
X009116Y016564D01*
X009273Y016634D01*
X009433Y016695D01*
X009596Y016749D01*
X009762Y016795D01*
X009929Y016833D01*
X010098Y016862D01*
X010269Y016883D01*
X010440Y016896D01*
X010612Y016900D01*
X010784Y016896D01*
X010955Y016883D01*
X011126Y016862D01*
X011295Y016833D01*
X011462Y016795D01*
X011628Y016749D01*
X011791Y016695D01*
X011951Y016634D01*
X012108Y016564D01*
X012262Y016487D01*
X012411Y016402D01*
X012556Y016310D01*
X012697Y016211D01*
X012832Y016106D01*
X012962Y015993D01*
X013087Y015875D01*
X013205Y015750D01*
X013318Y015620D01*
X013423Y015485D01*
X013522Y015344D01*
X013614Y015199D01*
X013699Y015050D01*
X013776Y014896D01*
X013846Y014739D01*
X013907Y014579D01*
X013961Y014416D01*
X014007Y014250D01*
X014045Y014083D01*
X014074Y013914D01*
X014095Y013743D01*
X014108Y013572D01*
X014112Y013400D01*
X014108Y013228D01*
X014095Y013057D01*
X014074Y012886D01*
X014045Y012717D01*
X014007Y012550D01*
X013961Y012384D01*
X013907Y012221D01*
X013846Y012061D01*
X013776Y011904D01*
X013699Y011750D01*
X013614Y011601D01*
X013522Y011456D01*
X013423Y011315D01*
X013318Y011180D01*
X013205Y011050D01*
X013087Y010925D01*
X012962Y010807D01*
X012832Y010694D01*
X012697Y010589D01*
X012556Y010490D01*
X012411Y010398D01*
X012262Y010313D01*
X012108Y010236D01*
X011951Y010166D01*
X011791Y010105D01*
X011628Y010051D01*
X011462Y010005D01*
X011295Y009967D01*
X011126Y009938D01*
X010955Y009917D01*
X010784Y009904D01*
X010612Y009900D01*
X010440Y009904D01*
X010269Y009917D01*
X010098Y009938D01*
X009929Y009967D01*
X009762Y010005D01*
X009596Y010051D01*
X009433Y010105D01*
X009273Y010166D01*
X009116Y010236D01*
X008962Y010313D01*
X008813Y010398D01*
X008668Y010490D01*
X008527Y010589D01*
X008392Y010694D01*
X008262Y010807D01*
X008137Y010925D01*
X008019Y011050D01*
X007906Y011180D01*
X007801Y011315D01*
X007702Y011456D01*
X007610Y011601D01*
X007525Y011750D01*
X007448Y011904D01*
X007378Y012061D01*
X007317Y012221D01*
X007263Y012384D01*
X007217Y012550D01*
X007179Y012717D01*
X007150Y012886D01*
X007129Y013057D01*
X007116Y013228D01*
X007112Y013400D01*
X010712Y012650D02*
X010962Y012650D01*
X010962Y013400D01*
X010962Y014150D01*
X010712Y014150D01*
X010712Y012650D01*
X010962Y013400D02*
X011362Y013400D01*
X012962Y013400D02*
X013562Y013400D01*
X013262Y013700D02*
X013262Y013100D01*
X016937Y014100D02*
X016937Y014350D01*
X018437Y014350D01*
X018437Y014100D01*
X017687Y014100D01*
X016937Y014100D01*
X017687Y014100D02*
X017687Y013700D01*
X014187Y014450D02*
X014191Y014622D01*
X014204Y014793D01*
X014225Y014964D01*
X014254Y015133D01*
X014292Y015300D01*
X014338Y015466D01*
X014392Y015629D01*
X014453Y015789D01*
X014523Y015946D01*
X014600Y016100D01*
X014685Y016249D01*
X014777Y016394D01*
X014876Y016535D01*
X014981Y016670D01*
X015094Y016800D01*
X015212Y016925D01*
X015337Y017043D01*
X015467Y017156D01*
X015602Y017261D01*
X015743Y017360D01*
X015888Y017452D01*
X016037Y017537D01*
X016191Y017614D01*
X016348Y017684D01*
X016508Y017745D01*
X016671Y017799D01*
X016837Y017845D01*
X017004Y017883D01*
X017173Y017912D01*
X017344Y017933D01*
X017515Y017946D01*
X017687Y017950D01*
X017859Y017946D01*
X018030Y017933D01*
X018201Y017912D01*
X018370Y017883D01*
X018537Y017845D01*
X018703Y017799D01*
X018866Y017745D01*
X019026Y017684D01*
X019183Y017614D01*
X019337Y017537D01*
X019486Y017452D01*
X019631Y017360D01*
X019772Y017261D01*
X019907Y017156D01*
X020037Y017043D01*
X020162Y016925D01*
X020280Y016800D01*
X020393Y016670D01*
X020498Y016535D01*
X020597Y016394D01*
X020689Y016249D01*
X020774Y016100D01*
X020851Y015946D01*
X020921Y015789D01*
X020982Y015629D01*
X021036Y015466D01*
X021082Y015300D01*
X021120Y015133D01*
X021149Y014964D01*
X021170Y014793D01*
X021183Y014622D01*
X021187Y014450D01*
X021183Y014278D01*
X021170Y014107D01*
X021149Y013936D01*
X021120Y013767D01*
X021082Y013600D01*
X021036Y013434D01*
X020982Y013271D01*
X020921Y013111D01*
X020851Y012954D01*
X020774Y012800D01*
X020689Y012651D01*
X020597Y012506D01*
X020498Y012365D01*
X020393Y012230D01*
X020280Y012100D01*
X020162Y011975D01*
X020037Y011857D01*
X019907Y011744D01*
X019772Y011639D01*
X019631Y011540D01*
X019486Y011448D01*
X019337Y011363D01*
X019183Y011286D01*
X019026Y011216D01*
X018866Y011155D01*
X018703Y011101D01*
X018537Y011055D01*
X018370Y011017D01*
X018201Y010988D01*
X018030Y010967D01*
X017859Y010954D01*
X017687Y010950D01*
X017515Y010954D01*
X017344Y010967D01*
X017173Y010988D01*
X017004Y011017D01*
X016837Y011055D01*
X016671Y011101D01*
X016508Y011155D01*
X016348Y011216D01*
X016191Y011286D01*
X016037Y011363D01*
X015888Y011448D01*
X015743Y011540D01*
X015602Y011639D01*
X015467Y011744D01*
X015337Y011857D01*
X015212Y011975D01*
X015094Y012100D01*
X014981Y012230D01*
X014876Y012365D01*
X014777Y012506D01*
X014685Y012651D01*
X014600Y012800D01*
X014523Y012954D01*
X014453Y013111D01*
X014392Y013271D01*
X014338Y013434D01*
X014292Y013600D01*
X014254Y013767D01*
X014225Y013936D01*
X014204Y014107D01*
X014191Y014278D01*
X014187Y014450D01*
X017687Y014700D02*
X017687Y015200D01*
X017687Y012100D02*
X017687Y011500D01*
X017987Y011800D02*
X017387Y011800D01*
X006837Y019550D02*
X003037Y019550D01*
X003037Y021550D01*
X006837Y021550D01*
X006837Y019550D01*
X015437Y021050D02*
X015437Y024450D01*
X018237Y024450D01*
X018237Y021050D01*
X015437Y021050D01*
X015537Y021450D02*
X016557Y021450D01*
X016337Y021360D02*
X016337Y021060D01*
X016187Y021210D02*
X016487Y021210D01*
X016187Y021450D02*
X015537Y022100D01*
X015537Y021450D02*
X015537Y024050D01*
X016557Y024050D01*
X017117Y024050D02*
X018137Y024050D01*
X018137Y021450D01*
X017487Y021450D01*
X018137Y022100D01*
X019387Y022625D02*
X019387Y023625D01*
X019389Y023642D01*
X019393Y023659D01*
X019400Y023675D01*
X019410Y023689D01*
X019423Y023702D01*
X019437Y023712D01*
X019453Y023719D01*
X019470Y023723D01*
X019487Y023725D01*
X022087Y023725D01*
X022104Y023723D01*
X022121Y023719D01*
X022137Y023712D01*
X022151Y023702D01*
X022164Y023689D01*
X022174Y023675D01*
X022181Y023659D01*
X022185Y023642D01*
X022187Y023625D01*
X022187Y022625D01*
X022185Y022608D01*
X022181Y022591D01*
X022174Y022575D01*
X022164Y022561D01*
X022151Y022548D01*
X022137Y022538D01*
X022121Y022531D01*
X022104Y022527D01*
X022087Y022525D01*
X019487Y022525D01*
X019470Y022527D01*
X019453Y022531D01*
X019437Y022538D01*
X019423Y022548D01*
X019410Y022561D01*
X019400Y022575D01*
X019393Y022591D01*
X019389Y022608D01*
X019387Y022625D01*
X019587Y023125D02*
X020587Y023125D01*
X020987Y023125D02*
X021987Y023125D01*
X017487Y021450D02*
X017117Y021450D01*
X008387Y026875D02*
X007937Y026875D01*
X007487Y026875D01*
X007487Y027075D01*
X008387Y027075D01*
X008387Y026875D01*
X007937Y026875D02*
X007937Y026775D01*
X005937Y027175D02*
X005939Y027273D01*
X005947Y027371D01*
X005959Y027468D01*
X005975Y027565D01*
X005997Y027661D01*
X006023Y027756D01*
X006054Y027849D01*
X006089Y027940D01*
X006129Y028030D01*
X006173Y028118D01*
X006222Y028203D01*
X006274Y028286D01*
X006331Y028366D01*
X006391Y028444D01*
X006455Y028518D01*
X006523Y028589D01*
X006594Y028657D01*
X006668Y028721D01*
X006746Y028781D01*
X006826Y028838D01*
X006909Y028890D01*
X006994Y028939D01*
X007082Y028983D01*
X007172Y029023D01*
X007263Y029058D01*
X007356Y029089D01*
X007451Y029115D01*
X007547Y029137D01*
X007644Y029153D01*
X007741Y029165D01*
X007839Y029173D01*
X007937Y029175D01*
X008035Y029173D01*
X008133Y029165D01*
X008230Y029153D01*
X008327Y029137D01*
X008423Y029115D01*
X008518Y029089D01*
X008611Y029058D01*
X008702Y029023D01*
X008792Y028983D01*
X008880Y028939D01*
X008965Y028890D01*
X009048Y028838D01*
X009128Y028781D01*
X009206Y028721D01*
X009280Y028657D01*
X009351Y028589D01*
X009419Y028518D01*
X009483Y028444D01*
X009543Y028366D01*
X009600Y028286D01*
X009652Y028203D01*
X009701Y028118D01*
X009745Y028030D01*
X009785Y027940D01*
X009820Y027849D01*
X009851Y027756D01*
X009877Y027661D01*
X009899Y027565D01*
X009915Y027468D01*
X009927Y027371D01*
X009935Y027273D01*
X009937Y027175D01*
X009935Y027077D01*
X009927Y026979D01*
X009915Y026882D01*
X009899Y026785D01*
X009877Y026689D01*
X009851Y026594D01*
X009820Y026501D01*
X009785Y026410D01*
X009745Y026320D01*
X009701Y026232D01*
X009652Y026147D01*
X009600Y026064D01*
X009543Y025984D01*
X009483Y025906D01*
X009419Y025832D01*
X009351Y025761D01*
X009280Y025693D01*
X009206Y025629D01*
X009128Y025569D01*
X009048Y025512D01*
X008965Y025460D01*
X008880Y025411D01*
X008792Y025367D01*
X008702Y025327D01*
X008611Y025292D01*
X008518Y025261D01*
X008423Y025235D01*
X008327Y025213D01*
X008230Y025197D01*
X008133Y025185D01*
X008035Y025177D01*
X007937Y025175D01*
X007839Y025177D01*
X007741Y025185D01*
X007644Y025197D01*
X007547Y025213D01*
X007451Y025235D01*
X007356Y025261D01*
X007263Y025292D01*
X007172Y025327D01*
X007082Y025367D01*
X006994Y025411D01*
X006909Y025460D01*
X006826Y025512D01*
X006746Y025569D01*
X006668Y025629D01*
X006594Y025693D01*
X006523Y025761D01*
X006455Y025832D01*
X006391Y025906D01*
X006331Y025984D01*
X006274Y026064D01*
X006222Y026147D01*
X006173Y026232D01*
X006129Y026320D01*
X006089Y026410D01*
X006054Y026501D01*
X006023Y026594D01*
X005997Y026689D01*
X005975Y026785D01*
X005959Y026882D01*
X005947Y026979D01*
X005939Y027077D01*
X005937Y027175D01*
X007937Y027425D02*
X007937Y027575D01*
X007437Y025825D02*
X007437Y025525D01*
X007287Y025675D02*
X007587Y025675D01*
X006537Y031725D02*
X006537Y034525D01*
X009937Y034525D01*
X009937Y031725D01*
X006537Y031725D01*
X006937Y031825D02*
X009537Y031825D01*
X009537Y032845D01*
X009537Y033405D02*
X009537Y034425D01*
X006937Y034425D01*
X006937Y033405D01*
X006847Y033625D02*
X006547Y033625D01*
X006697Y033775D02*
X006697Y033475D01*
X006937Y033775D02*
X007587Y034425D01*
X006937Y032845D02*
X006937Y032475D01*
X007587Y031825D01*
X006937Y031825D02*
X006937Y032475D01*
X026512Y033925D02*
X026512Y030525D01*
X029312Y030525D01*
X029312Y033925D01*
X026512Y033925D01*
X026612Y033525D02*
X026612Y030925D01*
X027632Y030925D01*
X028192Y030925D02*
X029212Y030925D01*
X029212Y033525D01*
X028192Y033525D01*
X028412Y033615D02*
X028412Y033915D01*
X028562Y033765D02*
X028262Y033765D01*
X028562Y033525D02*
X029212Y032875D01*
X027632Y033525D02*
X027262Y033525D01*
X026612Y032875D01*
X026612Y033525D02*
X027262Y033525D01*
X028567Y029469D02*
X028567Y028681D01*
X028862Y029000D02*
X029012Y029225D01*
X028712Y029225D01*
X028862Y029000D01*
X028853Y029014D02*
X028872Y029014D01*
X028911Y029073D02*
X028814Y029073D01*
X028775Y029131D02*
X028950Y029131D01*
X028989Y029190D02*
X028736Y029190D01*
X029158Y029469D02*
X029158Y028681D01*
X029267Y028681D02*
X029267Y029469D01*
X029412Y029225D02*
X029712Y029225D01*
X029562Y029000D01*
X029412Y029225D01*
X029436Y029190D02*
X029689Y029190D01*
X029650Y029131D02*
X029475Y029131D01*
X029514Y029073D02*
X029611Y029073D01*
X029572Y029014D02*
X029553Y029014D01*
X029858Y028681D02*
X029858Y029469D01*
X036189Y027228D02*
X036189Y033228D01*
X036789Y033328D01*
X038039Y033128D01*
X038189Y032978D01*
X038189Y032828D01*
X038189Y032028D02*
X038189Y030628D01*
X038189Y029828D02*
X038189Y028428D01*
X038189Y027628D02*
X038189Y027478D01*
X038039Y027328D01*
X036789Y027128D01*
X036189Y027228D01*
X036639Y026716D02*
X037789Y026666D01*
X037889Y026566D01*
X037889Y022866D01*
X037789Y022766D01*
X036639Y022716D01*
X036789Y022304D02*
X036189Y022204D01*
X036189Y016204D01*
X036789Y016104D01*
X038039Y016304D01*
X038189Y016454D01*
X038189Y016604D01*
X038189Y017404D02*
X038189Y018804D01*
X038189Y019604D02*
X038189Y021004D01*
X038189Y021804D02*
X038189Y021954D01*
X038039Y022104D01*
X036789Y022304D01*
X029912Y024825D02*
X029912Y025025D01*
X029012Y025025D01*
X029012Y024825D01*
X029462Y024825D01*
X029912Y024825D01*
X029462Y024825D02*
X029462Y024725D01*
X027462Y025125D02*
X027464Y025223D01*
X027472Y025321D01*
X027484Y025418D01*
X027500Y025515D01*
X027522Y025611D01*
X027548Y025706D01*
X027579Y025799D01*
X027614Y025890D01*
X027654Y025980D01*
X027698Y026068D01*
X027747Y026153D01*
X027799Y026236D01*
X027856Y026316D01*
X027916Y026394D01*
X027980Y026468D01*
X028048Y026539D01*
X028119Y026607D01*
X028193Y026671D01*
X028271Y026731D01*
X028351Y026788D01*
X028434Y026840D01*
X028519Y026889D01*
X028607Y026933D01*
X028697Y026973D01*
X028788Y027008D01*
X028881Y027039D01*
X028976Y027065D01*
X029072Y027087D01*
X029169Y027103D01*
X029266Y027115D01*
X029364Y027123D01*
X029462Y027125D01*
X029560Y027123D01*
X029658Y027115D01*
X029755Y027103D01*
X029852Y027087D01*
X029948Y027065D01*
X030043Y027039D01*
X030136Y027008D01*
X030227Y026973D01*
X030317Y026933D01*
X030405Y026889D01*
X030490Y026840D01*
X030573Y026788D01*
X030653Y026731D01*
X030731Y026671D01*
X030805Y026607D01*
X030876Y026539D01*
X030944Y026468D01*
X031008Y026394D01*
X031068Y026316D01*
X031125Y026236D01*
X031177Y026153D01*
X031226Y026068D01*
X031270Y025980D01*
X031310Y025890D01*
X031345Y025799D01*
X031376Y025706D01*
X031402Y025611D01*
X031424Y025515D01*
X031440Y025418D01*
X031452Y025321D01*
X031460Y025223D01*
X031462Y025125D01*
X031460Y025027D01*
X031452Y024929D01*
X031440Y024832D01*
X031424Y024735D01*
X031402Y024639D01*
X031376Y024544D01*
X031345Y024451D01*
X031310Y024360D01*
X031270Y024270D01*
X031226Y024182D01*
X031177Y024097D01*
X031125Y024014D01*
X031068Y023934D01*
X031008Y023856D01*
X030944Y023782D01*
X030876Y023711D01*
X030805Y023643D01*
X030731Y023579D01*
X030653Y023519D01*
X030573Y023462D01*
X030490Y023410D01*
X030405Y023361D01*
X030317Y023317D01*
X030227Y023277D01*
X030136Y023242D01*
X030043Y023211D01*
X029948Y023185D01*
X029852Y023163D01*
X029755Y023147D01*
X029658Y023135D01*
X029560Y023127D01*
X029462Y023125D01*
X029364Y023127D01*
X029266Y023135D01*
X029169Y023147D01*
X029072Y023163D01*
X028976Y023185D01*
X028881Y023211D01*
X028788Y023242D01*
X028697Y023277D01*
X028607Y023317D01*
X028519Y023361D01*
X028434Y023410D01*
X028351Y023462D01*
X028271Y023519D01*
X028193Y023579D01*
X028119Y023643D01*
X028048Y023711D01*
X027980Y023782D01*
X027916Y023856D01*
X027856Y023934D01*
X027799Y024014D01*
X027747Y024097D01*
X027698Y024182D01*
X027654Y024270D01*
X027614Y024360D01*
X027579Y024451D01*
X027548Y024544D01*
X027522Y024639D01*
X027500Y024735D01*
X027484Y024832D01*
X027472Y024929D01*
X027464Y025027D01*
X027462Y025125D01*
X029462Y025375D02*
X029462Y025525D01*
X028962Y023775D02*
X028962Y023475D01*
X028812Y023625D02*
X029112Y023625D01*
X039676Y028881D02*
X039676Y029230D01*
X040125Y028881D01*
X039676Y028881D01*
X039676Y028897D02*
X040105Y028897D01*
X040029Y028956D02*
X039676Y028956D01*
X039676Y029014D02*
X039954Y029014D01*
X039879Y029073D02*
X039676Y029073D01*
X039676Y029131D02*
X039803Y029131D01*
X039728Y029190D02*
X039676Y029190D01*
X046987Y030450D02*
X048487Y030450D01*
X048487Y030700D01*
X047737Y030700D01*
X046987Y030700D01*
X046987Y030450D01*
X044237Y030350D02*
X044241Y030522D01*
X044254Y030693D01*
X044275Y030864D01*
X044304Y031033D01*
X044342Y031200D01*
X044388Y031366D01*
X044442Y031529D01*
X044503Y031689D01*
X044573Y031846D01*
X044650Y032000D01*
X044735Y032149D01*
X044827Y032294D01*
X044926Y032435D01*
X045031Y032570D01*
X045144Y032700D01*
X045262Y032825D01*
X045387Y032943D01*
X045517Y033056D01*
X045652Y033161D01*
X045793Y033260D01*
X045938Y033352D01*
X046087Y033437D01*
X046241Y033514D01*
X046398Y033584D01*
X046558Y033645D01*
X046721Y033699D01*
X046887Y033745D01*
X047054Y033783D01*
X047223Y033812D01*
X047394Y033833D01*
X047565Y033846D01*
X047737Y033850D01*
X047909Y033846D01*
X048080Y033833D01*
X048251Y033812D01*
X048420Y033783D01*
X048587Y033745D01*
X048753Y033699D01*
X048916Y033645D01*
X049076Y033584D01*
X049233Y033514D01*
X049387Y033437D01*
X049536Y033352D01*
X049681Y033260D01*
X049822Y033161D01*
X049957Y033056D01*
X050087Y032943D01*
X050212Y032825D01*
X050330Y032700D01*
X050443Y032570D01*
X050548Y032435D01*
X050647Y032294D01*
X050739Y032149D01*
X050824Y032000D01*
X050901Y031846D01*
X050971Y031689D01*
X051032Y031529D01*
X051086Y031366D01*
X051132Y031200D01*
X051170Y031033D01*
X051199Y030864D01*
X051220Y030693D01*
X051233Y030522D01*
X051237Y030350D01*
X051233Y030178D01*
X051220Y030007D01*
X051199Y029836D01*
X051170Y029667D01*
X051132Y029500D01*
X051086Y029334D01*
X051032Y029171D01*
X050971Y029011D01*
X050901Y028854D01*
X050824Y028700D01*
X050739Y028551D01*
X050647Y028406D01*
X050548Y028265D01*
X050443Y028130D01*
X050330Y028000D01*
X050212Y027875D01*
X050087Y027757D01*
X049957Y027644D01*
X049822Y027539D01*
X049681Y027440D01*
X049536Y027348D01*
X049387Y027263D01*
X049233Y027186D01*
X049076Y027116D01*
X048916Y027055D01*
X048753Y027001D01*
X048587Y026955D01*
X048420Y026917D01*
X048251Y026888D01*
X048080Y026867D01*
X047909Y026854D01*
X047737Y026850D01*
X047565Y026854D01*
X047394Y026867D01*
X047223Y026888D01*
X047054Y026917D01*
X046887Y026955D01*
X046721Y027001D01*
X046558Y027055D01*
X046398Y027116D01*
X046241Y027186D01*
X046087Y027263D01*
X045938Y027348D01*
X045793Y027440D01*
X045652Y027539D01*
X045517Y027644D01*
X045387Y027757D01*
X045262Y027875D01*
X045144Y028000D01*
X045031Y028130D01*
X044926Y028265D01*
X044827Y028406D01*
X044735Y028551D01*
X044650Y028700D01*
X044573Y028854D01*
X044503Y029011D01*
X044442Y029171D01*
X044388Y029334D01*
X044342Y029500D01*
X044304Y029667D01*
X044275Y029836D01*
X044254Y030007D01*
X044241Y030178D01*
X044237Y030350D01*
X047737Y030100D02*
X047737Y029600D01*
X047737Y030700D02*
X047737Y031100D01*
X047737Y032700D02*
X047737Y033300D01*
X047437Y033000D02*
X048037Y033000D01*
X054062Y030150D02*
X054662Y030150D01*
X054362Y030450D02*
X054362Y029850D01*
X054362Y028250D02*
X054362Y027850D01*
X053612Y027850D01*
X053612Y027600D01*
X055112Y027600D01*
X055112Y027850D01*
X054362Y027850D01*
X050862Y027500D02*
X050866Y027672D01*
X050879Y027843D01*
X050900Y028014D01*
X050929Y028183D01*
X050967Y028350D01*
X051013Y028516D01*
X051067Y028679D01*
X051128Y028839D01*
X051198Y028996D01*
X051275Y029150D01*
X051360Y029299D01*
X051452Y029444D01*
X051551Y029585D01*
X051656Y029720D01*
X051769Y029850D01*
X051887Y029975D01*
X052012Y030093D01*
X052142Y030206D01*
X052277Y030311D01*
X052418Y030410D01*
X052563Y030502D01*
X052712Y030587D01*
X052866Y030664D01*
X053023Y030734D01*
X053183Y030795D01*
X053346Y030849D01*
X053512Y030895D01*
X053679Y030933D01*
X053848Y030962D01*
X054019Y030983D01*
X054190Y030996D01*
X054362Y031000D01*
X054534Y030996D01*
X054705Y030983D01*
X054876Y030962D01*
X055045Y030933D01*
X055212Y030895D01*
X055378Y030849D01*
X055541Y030795D01*
X055701Y030734D01*
X055858Y030664D01*
X056012Y030587D01*
X056161Y030502D01*
X056306Y030410D01*
X056447Y030311D01*
X056582Y030206D01*
X056712Y030093D01*
X056837Y029975D01*
X056955Y029850D01*
X057068Y029720D01*
X057173Y029585D01*
X057272Y029444D01*
X057364Y029299D01*
X057449Y029150D01*
X057526Y028996D01*
X057596Y028839D01*
X057657Y028679D01*
X057711Y028516D01*
X057757Y028350D01*
X057795Y028183D01*
X057824Y028014D01*
X057845Y027843D01*
X057858Y027672D01*
X057862Y027500D01*
X057858Y027328D01*
X057845Y027157D01*
X057824Y026986D01*
X057795Y026817D01*
X057757Y026650D01*
X057711Y026484D01*
X057657Y026321D01*
X057596Y026161D01*
X057526Y026004D01*
X057449Y025850D01*
X057364Y025701D01*
X057272Y025556D01*
X057173Y025415D01*
X057068Y025280D01*
X056955Y025150D01*
X056837Y025025D01*
X056712Y024907D01*
X056582Y024794D01*
X056447Y024689D01*
X056306Y024590D01*
X056161Y024498D01*
X056012Y024413D01*
X055858Y024336D01*
X055701Y024266D01*
X055541Y024205D01*
X055378Y024151D01*
X055212Y024105D01*
X055045Y024067D01*
X054876Y024038D01*
X054705Y024017D01*
X054534Y024004D01*
X054362Y024000D01*
X054190Y024004D01*
X054019Y024017D01*
X053848Y024038D01*
X053679Y024067D01*
X053512Y024105D01*
X053346Y024151D01*
X053183Y024205D01*
X053023Y024266D01*
X052866Y024336D01*
X052712Y024413D01*
X052563Y024498D01*
X052418Y024590D01*
X052277Y024689D01*
X052142Y024794D01*
X052012Y024907D01*
X051887Y025025D01*
X051769Y025150D01*
X051656Y025280D01*
X051551Y025415D01*
X051452Y025556D01*
X051360Y025701D01*
X051275Y025850D01*
X051198Y026004D01*
X051128Y026161D01*
X051067Y026321D01*
X051013Y026484D01*
X050967Y026650D01*
X050929Y026817D01*
X050900Y026986D01*
X050879Y027157D01*
X050866Y027328D01*
X050862Y027500D01*
X054362Y027250D02*
X054362Y026750D01*
X055362Y022300D02*
X057962Y022300D01*
X057979Y022298D01*
X057996Y022294D01*
X058012Y022287D01*
X058026Y022277D01*
X058039Y022264D01*
X058049Y022250D01*
X058056Y022234D01*
X058060Y022217D01*
X058062Y022200D01*
X058062Y021200D01*
X058060Y021183D01*
X058056Y021166D01*
X058049Y021150D01*
X058039Y021136D01*
X058026Y021123D01*
X058012Y021113D01*
X057996Y021106D01*
X057979Y021102D01*
X057962Y021100D01*
X055362Y021100D01*
X055345Y021102D01*
X055328Y021106D01*
X055312Y021113D01*
X055298Y021123D01*
X055285Y021136D01*
X055275Y021150D01*
X055268Y021166D01*
X055264Y021183D01*
X055262Y021200D01*
X055262Y022200D01*
X055264Y022217D01*
X055268Y022234D01*
X055275Y022250D01*
X055285Y022264D01*
X055298Y022277D01*
X055312Y022287D01*
X055328Y022294D01*
X055345Y022298D01*
X055362Y022300D01*
X055462Y021700D02*
X056462Y021700D01*
X056862Y021700D02*
X057862Y021700D01*
X059262Y022200D02*
X059262Y021200D01*
X059264Y021183D01*
X059268Y021166D01*
X059275Y021150D01*
X059285Y021136D01*
X059298Y021123D01*
X059312Y021113D01*
X059328Y021106D01*
X059345Y021102D01*
X059362Y021100D01*
X061962Y021100D01*
X061979Y021102D01*
X061996Y021106D01*
X062012Y021113D01*
X062026Y021123D01*
X062039Y021136D01*
X062049Y021150D01*
X062056Y021166D01*
X062060Y021183D01*
X062062Y021200D01*
X062062Y022200D01*
X062060Y022217D01*
X062056Y022234D01*
X062049Y022250D01*
X062039Y022264D01*
X062026Y022277D01*
X062012Y022287D01*
X061996Y022294D01*
X061979Y022298D01*
X061962Y022300D01*
X059362Y022300D01*
X059345Y022298D01*
X059328Y022294D01*
X059312Y022287D01*
X059298Y022277D01*
X059285Y022264D01*
X059275Y022250D01*
X059268Y022234D01*
X059264Y022217D01*
X059262Y022200D01*
X059462Y021700D02*
X060462Y021700D01*
X060862Y021700D02*
X061862Y021700D01*
X061912Y020750D02*
X055212Y020750D01*
X055186Y020748D01*
X055160Y020743D01*
X055135Y020735D01*
X055112Y020723D01*
X055090Y020709D01*
X055071Y020691D01*
X055053Y020672D01*
X055039Y020650D01*
X055027Y020627D01*
X055019Y020602D01*
X055014Y020576D01*
X055012Y020550D01*
X055012Y018150D01*
X055014Y018124D01*
X055019Y018098D01*
X055027Y018073D01*
X055039Y018050D01*
X055053Y018028D01*
X055071Y018009D01*
X055090Y017991D01*
X055112Y017977D01*
X055135Y017965D01*
X055160Y017957D01*
X055186Y017952D01*
X055212Y017950D01*
X061912Y017950D01*
X061938Y017952D01*
X061964Y017957D01*
X061989Y017965D01*
X062012Y017977D01*
X062034Y017991D01*
X062053Y018009D01*
X062071Y018028D01*
X062085Y018050D01*
X062097Y018073D01*
X062105Y018098D01*
X062110Y018124D01*
X062112Y018150D01*
X062112Y020550D01*
X062110Y020576D01*
X062105Y020602D01*
X062097Y020627D01*
X062085Y020650D01*
X062071Y020672D01*
X062053Y020691D01*
X062034Y020709D01*
X062012Y020723D01*
X061989Y020735D01*
X061964Y020743D01*
X061938Y020748D01*
X061912Y020750D01*
X060962Y019350D02*
X056912Y019350D01*
X056562Y019350D02*
X056162Y019350D01*
X055212Y011450D02*
X061912Y011450D01*
X061938Y011448D01*
X061964Y011443D01*
X061989Y011435D01*
X062012Y011423D01*
X062034Y011409D01*
X062053Y011391D01*
X062071Y011372D01*
X062085Y011350D01*
X062097Y011327D01*
X062105Y011302D01*
X062110Y011276D01*
X062112Y011250D01*
X062112Y008850D01*
X062110Y008824D01*
X062105Y008798D01*
X062097Y008773D01*
X062085Y008750D01*
X062071Y008728D01*
X062053Y008709D01*
X062034Y008691D01*
X062012Y008677D01*
X061989Y008665D01*
X061964Y008657D01*
X061938Y008652D01*
X061912Y008650D01*
X055212Y008650D01*
X055186Y008652D01*
X055160Y008657D01*
X055135Y008665D01*
X055112Y008677D01*
X055090Y008691D01*
X055071Y008709D01*
X055053Y008728D01*
X055039Y008750D01*
X055027Y008773D01*
X055019Y008798D01*
X055014Y008824D01*
X055012Y008850D01*
X055012Y011250D01*
X055014Y011276D01*
X055019Y011302D01*
X055027Y011327D01*
X055039Y011350D01*
X055053Y011372D01*
X055071Y011391D01*
X055090Y011409D01*
X055112Y011423D01*
X055135Y011435D01*
X055160Y011443D01*
X055186Y011448D01*
X055212Y011450D01*
X056162Y010050D02*
X056562Y010050D01*
X056912Y010050D02*
X060962Y010050D01*
X061962Y008325D02*
X059362Y008325D01*
X059345Y008323D01*
X059328Y008319D01*
X059312Y008312D01*
X059298Y008302D01*
X059285Y008289D01*
X059275Y008275D01*
X059268Y008259D01*
X059264Y008242D01*
X059262Y008225D01*
X059262Y007225D01*
X059264Y007208D01*
X059268Y007191D01*
X059275Y007175D01*
X059285Y007161D01*
X059298Y007148D01*
X059312Y007138D01*
X059328Y007131D01*
X059345Y007127D01*
X059362Y007125D01*
X061962Y007125D01*
X061979Y007127D01*
X061996Y007131D01*
X062012Y007138D01*
X062026Y007148D01*
X062039Y007161D01*
X062049Y007175D01*
X062056Y007191D01*
X062060Y007208D01*
X062062Y007225D01*
X062062Y008225D01*
X062060Y008242D01*
X062056Y008259D01*
X062049Y008275D01*
X062039Y008289D01*
X062026Y008302D01*
X062012Y008312D01*
X061996Y008319D01*
X061979Y008323D01*
X061962Y008325D01*
X061862Y007725D02*
X060862Y007725D01*
X060462Y007725D02*
X059462Y007725D01*
X054612Y008325D02*
X054612Y005725D01*
X054610Y005708D01*
X054606Y005691D01*
X054599Y005675D01*
X054589Y005661D01*
X054576Y005648D01*
X054562Y005638D01*
X054546Y005631D01*
X054529Y005627D01*
X054512Y005625D01*
X053512Y005625D01*
X053495Y005627D01*
X053478Y005631D01*
X053462Y005638D01*
X053448Y005648D01*
X053435Y005661D01*
X053425Y005675D01*
X053418Y005691D01*
X053414Y005708D01*
X053412Y005725D01*
X053412Y008325D01*
X053414Y008342D01*
X053418Y008359D01*
X053425Y008375D01*
X053435Y008389D01*
X053448Y008402D01*
X053462Y008412D01*
X053478Y008419D01*
X053495Y008423D01*
X053512Y008425D01*
X054512Y008425D01*
X054529Y008423D01*
X054546Y008419D01*
X054562Y008412D01*
X054576Y008402D01*
X054589Y008389D01*
X054599Y008375D01*
X054606Y008359D01*
X054610Y008342D01*
X054612Y008325D01*
X054012Y008225D02*
X054012Y007225D01*
X054012Y006825D02*
X054012Y005825D01*
X054048Y002520D02*
X053965Y002437D01*
X053965Y002103D01*
X054048Y002020D01*
X054215Y002020D01*
X054298Y002103D01*
X054298Y002437D02*
X054215Y002520D01*
X054048Y002520D01*
X053783Y002354D02*
X053783Y002020D01*
X053783Y002270D02*
X053449Y002270D01*
X053449Y002354D02*
X053616Y002520D01*
X053783Y002354D01*
X053449Y002354D02*
X053449Y002020D01*
X054996Y002020D02*
X055163Y002020D01*
X055079Y002020D02*
X055079Y002354D01*
X054996Y002354D01*
X055079Y002520D02*
X055079Y002604D01*
X055340Y002354D02*
X055590Y002354D01*
X055673Y002270D01*
X055673Y002020D01*
X055340Y002020D02*
X055340Y002354D01*
X040062Y009875D02*
X039762Y009875D01*
X039912Y010100D01*
X040062Y009875D01*
X040056Y009885D02*
X039769Y009885D01*
X039808Y009943D02*
X040017Y009943D01*
X039978Y010002D02*
X039847Y010002D01*
X039886Y010060D02*
X039939Y010060D01*
X038189Y009911D02*
X038189Y009761D01*
X038039Y009611D01*
X036789Y009411D01*
X036189Y009511D01*
X036189Y015511D01*
X036789Y015611D01*
X038039Y015411D01*
X038189Y015261D01*
X038189Y015111D01*
X038189Y014311D02*
X038189Y012911D01*
X038189Y012111D02*
X038189Y010711D01*
X038039Y008718D02*
X036789Y008918D01*
X036189Y008818D01*
X036189Y002818D01*
X036789Y002718D01*
X038039Y002918D01*
X038189Y003068D01*
X038189Y003218D01*
X038189Y004018D02*
X038189Y005418D01*
X038189Y006218D02*
X038189Y007618D01*
X038189Y008418D02*
X038189Y008568D01*
X038039Y008718D01*
X039437Y016475D02*
X039212Y016625D01*
X039437Y016775D01*
X039437Y016475D01*
X039437Y016495D02*
X039407Y016495D01*
X039437Y016554D02*
X039320Y016554D01*
X039232Y016612D02*
X039437Y016612D01*
X039437Y016671D02*
X039281Y016671D01*
X039369Y016729D02*
X039437Y016729D01*
D819*
X010635Y020490D02*
X010442Y020490D01*
X010539Y020490D02*
X010539Y020780D01*
X010442Y020683D01*
X010341Y020635D02*
X010292Y020587D01*
X010147Y020587D01*
X010147Y020490D02*
X010147Y020780D01*
X010292Y020780D01*
X010341Y020732D01*
X010341Y020635D01*
X010046Y020780D02*
X009949Y020780D01*
X009998Y020780D02*
X009998Y020538D01*
X009949Y020490D01*
X009901Y020490D01*
X009852Y020538D01*
X008385Y020610D02*
X008192Y020610D01*
X008337Y020755D01*
X008337Y020465D01*
X008091Y020610D02*
X008042Y020562D01*
X007897Y020562D01*
X007897Y020465D02*
X007897Y020755D01*
X008042Y020755D01*
X008091Y020707D01*
X008091Y020610D01*
X007796Y020755D02*
X007699Y020755D01*
X007748Y020755D02*
X007748Y020513D01*
X007699Y020465D01*
X007651Y020465D01*
X007602Y020513D01*
X007567Y022965D02*
X007712Y022965D01*
X007760Y023013D01*
X007760Y023207D01*
X007712Y023255D01*
X007567Y023255D01*
X007567Y022965D01*
X007466Y022965D02*
X007272Y022965D01*
X007272Y023255D01*
X007466Y023255D01*
X007369Y023110D02*
X007272Y023110D01*
X007171Y022965D02*
X006977Y022965D01*
X006977Y023255D01*
X007861Y023158D02*
X007958Y023255D01*
X007958Y022965D01*
X007861Y022965D02*
X008055Y022965D01*
D820*
X010153Y024493D02*
X010483Y024493D01*
X010153Y024493D02*
X010127Y024495D01*
X010102Y024500D01*
X010078Y024508D01*
X010054Y024519D01*
X010033Y024534D01*
X010014Y024551D01*
X009997Y024570D01*
X009982Y024592D01*
X009971Y024615D01*
X009963Y024639D01*
X009958Y024664D01*
X009956Y024690D01*
X009956Y026210D01*
X009958Y026236D01*
X009963Y026261D01*
X009971Y026285D01*
X009982Y026309D01*
X009997Y026330D01*
X010014Y026349D01*
X010033Y026366D01*
X010054Y026381D01*
X010078Y026392D01*
X010102Y026400D01*
X010127Y026405D01*
X010153Y026407D01*
X010483Y026407D01*
X011342Y026407D02*
X011672Y026407D01*
X011698Y026405D01*
X011723Y026400D01*
X011747Y026392D01*
X011771Y026381D01*
X011792Y026366D01*
X011811Y026349D01*
X011828Y026330D01*
X011843Y026308D01*
X011854Y026285D01*
X011862Y026261D01*
X011867Y026236D01*
X011869Y026210D01*
X011869Y024690D01*
X011867Y024664D01*
X011862Y024639D01*
X011854Y024615D01*
X011843Y024591D01*
X011828Y024570D01*
X011811Y024551D01*
X011792Y024534D01*
X011770Y024519D01*
X011747Y024508D01*
X011723Y024500D01*
X011698Y024495D01*
X011672Y024493D01*
X011342Y024493D01*
X013849Y025418D02*
X023376Y025418D01*
X023376Y033882D01*
X013849Y033882D01*
X013849Y025418D01*
X013831Y022976D02*
X013044Y022976D01*
X013803Y020857D02*
X015322Y020857D01*
X015348Y020855D01*
X015373Y020850D01*
X015397Y020842D01*
X015421Y020831D01*
X015442Y020816D01*
X015461Y020799D01*
X015478Y020780D01*
X015493Y020758D01*
X015504Y020735D01*
X015512Y020711D01*
X015517Y020686D01*
X015519Y020660D01*
X015519Y020330D01*
X015519Y019470D02*
X015519Y019140D01*
X015517Y019114D01*
X015512Y019089D01*
X015504Y019065D01*
X015493Y019041D01*
X015478Y019020D01*
X015461Y019001D01*
X015442Y018984D01*
X015420Y018969D01*
X015397Y018958D01*
X015373Y018950D01*
X015348Y018945D01*
X015322Y018943D01*
X013803Y018943D01*
X013777Y018945D01*
X013752Y018950D01*
X013728Y018958D01*
X013704Y018969D01*
X013683Y018984D01*
X013664Y019001D01*
X013647Y019020D01*
X013632Y019042D01*
X013621Y019065D01*
X013613Y019089D01*
X013608Y019114D01*
X013606Y019140D01*
X013606Y019470D01*
X013606Y020330D02*
X013606Y020660D01*
X013608Y020686D01*
X013613Y020711D01*
X013621Y020735D01*
X013632Y020759D01*
X013647Y020780D01*
X013664Y020799D01*
X013683Y020816D01*
X013704Y020831D01*
X013728Y020842D01*
X013752Y020850D01*
X013777Y020855D01*
X013803Y020857D01*
X005637Y025350D02*
X005637Y028100D01*
X005262Y028100D01*
X005262Y031225D01*
X003012Y031225D01*
X003012Y022225D01*
X005262Y022225D01*
X005262Y025350D01*
X005637Y025350D01*
X011869Y028801D02*
X012656Y028801D01*
X009644Y029765D02*
X009644Y031285D01*
X009642Y031311D01*
X009637Y031336D01*
X009629Y031360D01*
X009618Y031383D01*
X009603Y031405D01*
X009586Y031424D01*
X009567Y031441D01*
X009546Y031456D01*
X009522Y031467D01*
X009498Y031475D01*
X009473Y031480D01*
X009447Y031482D01*
X009117Y031482D01*
X008258Y031482D02*
X007928Y031482D01*
X007902Y031480D01*
X007877Y031475D01*
X007853Y031467D01*
X007829Y031456D01*
X007808Y031441D01*
X007789Y031424D01*
X007772Y031405D01*
X007757Y031384D01*
X007746Y031360D01*
X007738Y031336D01*
X007733Y031311D01*
X007731Y031285D01*
X007731Y029765D01*
X007733Y029739D01*
X007738Y029714D01*
X007746Y029690D01*
X007757Y029667D01*
X007772Y029645D01*
X007789Y029626D01*
X007808Y029609D01*
X007829Y029594D01*
X007853Y029583D01*
X007877Y029575D01*
X007902Y029570D01*
X007928Y029568D01*
X008258Y029568D01*
X009117Y029568D02*
X009447Y029568D01*
X009473Y029570D01*
X009498Y029575D01*
X009522Y029583D01*
X009545Y029594D01*
X009567Y029609D01*
X009586Y029626D01*
X009603Y029645D01*
X009618Y029666D01*
X009629Y029690D01*
X009637Y029714D01*
X009642Y029739D01*
X009644Y029765D01*
X011894Y032676D02*
X012681Y032676D01*
X024019Y032974D02*
X024806Y032974D01*
X024362Y028975D02*
X024362Y028725D01*
X024087Y028720D02*
X024638Y028720D01*
X024362Y028228D01*
X024087Y028720D01*
X024362Y028200D02*
X024362Y027950D01*
X023349Y026225D02*
X022561Y025437D01*
X023349Y025437D01*
X023349Y026225D01*
X023349Y026212D02*
X023335Y026212D01*
X023349Y026113D02*
X023237Y026113D01*
X023138Y026015D02*
X023349Y026015D01*
X023349Y025916D02*
X023040Y025916D01*
X022941Y025818D02*
X023349Y025818D01*
X023349Y025719D02*
X022843Y025719D01*
X022744Y025621D02*
X023349Y025621D01*
X023349Y025522D02*
X022646Y025522D01*
X028650Y021217D02*
X029350Y019817D01*
X028886Y019817D01*
X028885Y019817D02*
X028867Y019816D01*
X028849Y019818D01*
X028832Y019824D01*
X028815Y019831D01*
X028800Y019842D01*
X029200Y019392D02*
X029172Y019361D01*
X029141Y019333D01*
X029108Y019307D01*
X029073Y019284D01*
X029036Y019264D01*
X028997Y019247D01*
X028958Y019234D01*
X028917Y019224D01*
X028875Y019217D01*
X028800Y019841D02*
X028758Y019855D01*
X028715Y019865D01*
X028671Y019871D01*
X028627Y019874D01*
X028583Y019873D01*
X028539Y019868D01*
X028496Y019860D01*
X028453Y019849D01*
X028412Y019833D01*
X028372Y019815D01*
X028333Y019793D01*
X028297Y019768D01*
X028263Y019740D01*
X028231Y019710D01*
X028202Y019677D01*
X028175Y019641D01*
X028400Y019491D02*
X028378Y019461D01*
X028353Y019433D01*
X028326Y019408D01*
X028297Y019385D01*
X028265Y019365D01*
X028232Y019348D01*
X028198Y019334D01*
X028162Y019324D01*
X028125Y019316D01*
X028125Y019317D02*
X028125Y018917D01*
X028100Y018917D01*
X028125Y018917D02*
X028133Y018916D01*
X028140Y018912D01*
X028145Y018907D01*
X028149Y018900D01*
X028150Y018892D01*
X028150Y018842D01*
X028149Y018834D01*
X028145Y018827D01*
X028140Y018822D01*
X028133Y018818D01*
X028125Y018817D01*
X028050Y018867D02*
X028052Y018880D01*
X028057Y018892D01*
X028065Y018902D01*
X028075Y018910D01*
X028087Y018915D01*
X028100Y018917D01*
X028125Y018817D02*
X028102Y018819D01*
X028079Y018824D01*
X028057Y018833D01*
X028037Y018846D01*
X028019Y018861D01*
X028004Y018879D01*
X027991Y018899D01*
X027982Y018921D01*
X027977Y018944D01*
X027975Y018967D01*
X027975Y019392D01*
X027977Y019414D01*
X027982Y019435D01*
X027990Y019455D01*
X028001Y019474D01*
X028015Y019491D01*
X028032Y019506D01*
X028050Y019517D01*
X027950Y019792D02*
X030050Y018417D01*
X029525Y019467D01*
X029400Y019467D01*
X029525Y019467D02*
X029350Y019817D01*
X029400Y019467D02*
X029372Y019468D01*
X029345Y019466D01*
X029318Y019461D01*
X029291Y019453D01*
X029266Y019442D01*
X029242Y019428D01*
X029220Y019411D01*
X029200Y019392D01*
X028651Y019142D02*
X028617Y019128D01*
X028585Y019111D01*
X028556Y019090D01*
X028528Y019066D01*
X028504Y019040D01*
X028482Y019011D01*
X028464Y018980D01*
X028449Y018947D01*
X028437Y018913D01*
X028429Y018878D01*
X028426Y018842D01*
X028410Y018842D02*
X028350Y018842D01*
X028337Y018848D01*
X028325Y018856D01*
X028314Y018867D01*
X028306Y018879D01*
X028300Y018892D01*
X028300Y018891D02*
X028292Y018911D01*
X028287Y018932D01*
X028285Y018954D01*
X028287Y018976D01*
X028292Y018997D01*
X028300Y019017D01*
X028321Y019057D01*
X028345Y019096D01*
X028372Y019132D01*
X028402Y019166D01*
X028435Y019197D01*
X028471Y019225D01*
X028508Y019250D01*
X028548Y019272D01*
X028589Y019291D01*
X028632Y019306D01*
X028676Y019317D01*
X028175Y019642D02*
X028155Y019612D01*
X028133Y019585D01*
X028107Y019559D01*
X028080Y019537D01*
X028050Y019517D01*
X027250Y018417D02*
X030050Y018417D01*
X030238Y019252D02*
X031234Y020248D01*
X030945Y019821D02*
X030745Y019821D01*
X030036Y019750D02*
X030038Y019802D01*
X030044Y019854D01*
X030054Y019906D01*
X030067Y019956D01*
X030084Y020006D01*
X030105Y020054D01*
X030130Y020100D01*
X030158Y020144D01*
X030189Y020186D01*
X030223Y020226D01*
X030260Y020263D01*
X030300Y020297D01*
X030342Y020328D01*
X030386Y020356D01*
X030432Y020381D01*
X030480Y020402D01*
X030530Y020419D01*
X030580Y020432D01*
X030632Y020442D01*
X030684Y020448D01*
X030736Y020450D01*
X030788Y020448D01*
X030840Y020442D01*
X030892Y020432D01*
X030942Y020419D01*
X030992Y020402D01*
X031040Y020381D01*
X031086Y020356D01*
X031130Y020328D01*
X031172Y020297D01*
X031212Y020263D01*
X031249Y020226D01*
X031283Y020186D01*
X031314Y020144D01*
X031342Y020100D01*
X031367Y020054D01*
X031388Y020006D01*
X031405Y019956D01*
X031418Y019906D01*
X031428Y019854D01*
X031434Y019802D01*
X031436Y019750D01*
X031434Y019698D01*
X031428Y019646D01*
X031418Y019594D01*
X031405Y019544D01*
X031388Y019494D01*
X031367Y019446D01*
X031342Y019400D01*
X031314Y019356D01*
X031283Y019314D01*
X031249Y019274D01*
X031212Y019237D01*
X031172Y019203D01*
X031130Y019172D01*
X031086Y019144D01*
X031040Y019119D01*
X030992Y019098D01*
X030942Y019081D01*
X030892Y019068D01*
X030840Y019058D01*
X030788Y019052D01*
X030736Y019050D01*
X030684Y019052D01*
X030632Y019058D01*
X030580Y019068D01*
X030530Y019081D01*
X030480Y019098D01*
X030432Y019119D01*
X030386Y019144D01*
X030342Y019172D01*
X030300Y019203D01*
X030260Y019237D01*
X030223Y019274D01*
X030189Y019314D01*
X030158Y019356D01*
X030130Y019400D01*
X030105Y019446D01*
X030084Y019494D01*
X030067Y019544D01*
X030054Y019594D01*
X030044Y019646D01*
X030038Y019698D01*
X030036Y019750D01*
X030284Y019687D02*
X030484Y019687D01*
X030551Y019754D01*
X030551Y019888D01*
X030484Y019954D01*
X030284Y019954D01*
X030284Y019554D01*
X030745Y019554D02*
X030745Y019954D01*
X030945Y019821D02*
X031011Y019754D01*
X031011Y019621D01*
X030945Y019554D01*
X030745Y019554D01*
X031764Y019050D02*
X032964Y020250D01*
X033264Y020550D01*
X033064Y020400D02*
X033064Y020250D01*
X032964Y020250D01*
X033064Y020400D02*
X033014Y020450D01*
X032964Y020450D01*
X032894Y019360D01*
X032706Y019200D02*
X032708Y019225D01*
X032714Y019249D01*
X032723Y019272D01*
X032736Y019293D01*
X032752Y019312D01*
X032771Y019328D01*
X032792Y019341D01*
X032815Y019350D01*
X032839Y019356D01*
X032864Y019358D01*
X032889Y019356D01*
X032913Y019350D01*
X032936Y019341D01*
X032957Y019328D01*
X032976Y019312D01*
X032992Y019293D01*
X033005Y019272D01*
X033014Y019249D01*
X033020Y019225D01*
X033022Y019200D01*
X033020Y019175D01*
X033014Y019151D01*
X033005Y019128D01*
X032992Y019107D01*
X032976Y019088D01*
X032957Y019072D01*
X032936Y019059D01*
X032913Y019050D01*
X032889Y019044D01*
X032864Y019042D01*
X032839Y019044D01*
X032815Y019050D01*
X032792Y019059D01*
X032771Y019072D01*
X032752Y019088D01*
X032736Y019107D01*
X032723Y019128D01*
X032714Y019151D01*
X032708Y019175D01*
X032706Y019200D01*
X032704Y019200D02*
X032314Y019200D01*
X032314Y019050D01*
X032164Y019050D01*
X032164Y019200D01*
X032064Y020450D01*
X032264Y020450D01*
X032264Y020750D01*
X032314Y020750D01*
X032314Y020450D01*
X032964Y020450D01*
X032864Y020500D02*
X032866Y020513D01*
X032871Y020526D01*
X032880Y020537D01*
X032891Y020544D01*
X032904Y020549D01*
X032917Y020550D01*
X032931Y020547D01*
X032943Y020541D01*
X032953Y020532D01*
X032960Y020520D01*
X032964Y020507D01*
X032964Y020493D01*
X032960Y020480D01*
X032953Y020468D01*
X032943Y020459D01*
X032931Y020453D01*
X032917Y020450D01*
X032904Y020451D01*
X032891Y020456D01*
X032880Y020463D01*
X032871Y020474D01*
X032866Y020487D01*
X032864Y020500D01*
X032764Y020200D02*
X032464Y020200D01*
X032464Y020100D01*
X032764Y020100D01*
X032764Y020200D01*
X032964Y020450D02*
X032943Y020487D01*
X032919Y020523D01*
X032892Y020556D01*
X032863Y020587D01*
X032831Y020616D01*
X032796Y020641D01*
X032760Y020664D01*
X032722Y020683D01*
X032682Y020699D01*
X032641Y020712D01*
X032599Y020721D01*
X032557Y020726D01*
X032514Y020728D01*
X032471Y020726D01*
X032429Y020721D01*
X032387Y020712D01*
X032346Y020699D01*
X032306Y020683D01*
X032268Y020664D01*
X032232Y020641D01*
X032197Y020616D01*
X032165Y020587D01*
X032136Y020556D01*
X032109Y020523D01*
X032085Y020487D01*
X032064Y020450D01*
X032014Y020450D01*
X032264Y020450D02*
X032314Y020450D01*
X032464Y020750D02*
X032564Y020750D01*
X032564Y020850D01*
X032464Y020850D01*
X032464Y020750D01*
X031764Y020550D02*
X033264Y019050D01*
X032854Y019200D02*
X032856Y019205D01*
X032860Y019209D01*
X032865Y019210D01*
X032871Y019208D01*
X032874Y019203D01*
X032874Y019197D01*
X032871Y019192D01*
X032865Y019190D01*
X032860Y019191D01*
X032856Y019195D01*
X032854Y019200D01*
X032314Y019200D02*
X032164Y019200D01*
X028825Y019192D02*
X028766Y019177D01*
X028708Y019161D01*
X028650Y019142D01*
X027250Y018417D02*
X028650Y021217D01*
X040473Y020939D02*
X042638Y020939D01*
X042894Y021194D01*
X040473Y020939D02*
X040473Y013261D01*
X042638Y013261D01*
X042894Y013006D01*
X045169Y014344D02*
X045169Y019856D01*
X045669Y019856D01*
X045669Y014344D01*
X045169Y014344D01*
X046044Y014344D02*
X046044Y019856D01*
X046294Y019856D02*
X046294Y014344D01*
X048681Y013006D02*
X048937Y013261D01*
X051102Y013261D01*
X051102Y020939D01*
X048937Y020939D01*
X048681Y021194D01*
X056319Y016398D02*
X056319Y013052D01*
X060256Y013052D02*
X060256Y016398D01*
X051102Y010689D02*
X051102Y003011D01*
X048937Y003011D01*
X048681Y002756D01*
X046406Y004094D02*
X045906Y004094D01*
X045906Y009606D01*
X046406Y009606D01*
X046406Y004094D01*
X045531Y004094D02*
X045531Y009606D01*
X045281Y009606D02*
X045281Y004094D01*
X042894Y002756D02*
X042638Y003011D01*
X040473Y003011D01*
X040473Y010689D01*
X042638Y010689D01*
X042894Y010944D01*
X048681Y010944D02*
X048937Y010689D01*
X051102Y010689D01*
X028990Y010665D02*
X028992Y010696D01*
X028998Y010727D01*
X029008Y010757D01*
X029021Y010785D01*
X029038Y010812D01*
X029058Y010836D01*
X029081Y010858D01*
X029106Y010876D01*
X029134Y010891D01*
X029163Y010903D01*
X029193Y010911D01*
X029224Y010915D01*
X029256Y010915D01*
X029287Y010911D01*
X029317Y010903D01*
X029346Y010891D01*
X029374Y010876D01*
X029399Y010858D01*
X029422Y010836D01*
X029442Y010812D01*
X029459Y010785D01*
X029472Y010757D01*
X029482Y010727D01*
X029488Y010696D01*
X029490Y010665D01*
X029488Y010634D01*
X029482Y010603D01*
X029472Y010573D01*
X029459Y010545D01*
X029442Y010518D01*
X029422Y010494D01*
X029399Y010472D01*
X029374Y010454D01*
X029346Y010439D01*
X029317Y010427D01*
X029287Y010419D01*
X029256Y010415D01*
X029224Y010415D01*
X029193Y010419D01*
X029163Y010427D01*
X029134Y010439D01*
X029106Y010454D01*
X029081Y010472D01*
X029058Y010494D01*
X029038Y010518D01*
X029021Y010545D01*
X029008Y010573D01*
X028998Y010603D01*
X028992Y010634D01*
X028990Y010665D01*
X027990Y010665D01*
X027990Y007665D01*
X028990Y007665D01*
X028992Y007696D01*
X028998Y007727D01*
X029008Y007757D01*
X029021Y007785D01*
X029038Y007812D01*
X029058Y007836D01*
X029081Y007858D01*
X029106Y007876D01*
X029134Y007891D01*
X029163Y007903D01*
X029193Y007911D01*
X029224Y007915D01*
X029256Y007915D01*
X029287Y007911D01*
X029317Y007903D01*
X029346Y007891D01*
X029374Y007876D01*
X029399Y007858D01*
X029422Y007836D01*
X029442Y007812D01*
X029459Y007785D01*
X029472Y007757D01*
X029482Y007727D01*
X029488Y007696D01*
X029490Y007665D01*
X029488Y007634D01*
X029482Y007603D01*
X029472Y007573D01*
X029459Y007545D01*
X029442Y007518D01*
X029422Y007494D01*
X029399Y007472D01*
X029374Y007454D01*
X029346Y007439D01*
X029317Y007427D01*
X029287Y007419D01*
X029256Y007415D01*
X029224Y007415D01*
X029193Y007419D01*
X029163Y007427D01*
X029134Y007439D01*
X029106Y007454D01*
X029081Y007472D01*
X029058Y007494D01*
X029038Y007518D01*
X029021Y007545D01*
X029008Y007573D01*
X028998Y007603D01*
X028992Y007634D01*
X028990Y007665D01*
X027990Y007665D02*
X027240Y007665D01*
X027240Y010665D01*
X027990Y010665D01*
X020047Y009204D02*
X020055Y009532D01*
X020079Y009860D01*
X020119Y010186D01*
X020176Y010510D01*
X020248Y010830D01*
X020335Y011147D01*
X020438Y011459D01*
X020556Y011765D01*
X020690Y012066D01*
X020837Y012359D01*
X020999Y012645D01*
X021175Y012922D01*
X021364Y013191D01*
X021566Y013450D01*
X021781Y013699D01*
X022007Y013937D01*
X022245Y014163D01*
X022494Y014378D01*
X022753Y014580D01*
X023022Y014769D01*
X023299Y014945D01*
X023585Y015107D01*
X023878Y015254D01*
X024179Y015388D01*
X024485Y015506D01*
X024797Y015609D01*
X025114Y015696D01*
X025434Y015768D01*
X025758Y015825D01*
X026084Y015865D01*
X026412Y015889D01*
X026740Y015897D01*
X027068Y015889D01*
X027396Y015865D01*
X027722Y015825D01*
X028046Y015768D01*
X028366Y015696D01*
X028683Y015609D01*
X028995Y015506D01*
X029301Y015388D01*
X029602Y015254D01*
X029895Y015107D01*
X030181Y014945D01*
X030458Y014769D01*
X030727Y014580D01*
X030986Y014378D01*
X031235Y014163D01*
X031473Y013937D01*
X031699Y013699D01*
X031914Y013450D01*
X032116Y013191D01*
X032305Y012922D01*
X032481Y012645D01*
X032643Y012359D01*
X032790Y012066D01*
X032924Y011765D01*
X033042Y011459D01*
X033145Y011147D01*
X033232Y010830D01*
X033304Y010510D01*
X033361Y010186D01*
X033401Y009860D01*
X033425Y009532D01*
X033433Y009204D01*
X033425Y008876D01*
X033401Y008548D01*
X033361Y008222D01*
X033304Y007898D01*
X033232Y007578D01*
X033145Y007261D01*
X033042Y006949D01*
X032924Y006643D01*
X032790Y006342D01*
X032643Y006049D01*
X032481Y005763D01*
X032305Y005486D01*
X032116Y005217D01*
X031914Y004958D01*
X031699Y004709D01*
X031473Y004471D01*
X031235Y004245D01*
X030986Y004030D01*
X030727Y003828D01*
X030458Y003639D01*
X030181Y003463D01*
X029895Y003301D01*
X029602Y003154D01*
X029301Y003020D01*
X028995Y002902D01*
X028683Y002799D01*
X028366Y002712D01*
X028046Y002640D01*
X027722Y002583D01*
X027396Y002543D01*
X027068Y002519D01*
X026740Y002511D01*
X026412Y002519D01*
X026084Y002543D01*
X025758Y002583D01*
X025434Y002640D01*
X025114Y002712D01*
X024797Y002799D01*
X024485Y002902D01*
X024179Y003020D01*
X023878Y003154D01*
X023585Y003301D01*
X023299Y003463D01*
X023022Y003639D01*
X022753Y003828D01*
X022494Y004030D01*
X022245Y004245D01*
X022007Y004471D01*
X021781Y004709D01*
X021566Y004958D01*
X021364Y005217D01*
X021175Y005486D01*
X020999Y005763D01*
X020837Y006049D01*
X020690Y006342D01*
X020556Y006643D01*
X020438Y006949D01*
X020335Y007261D01*
X020248Y007578D01*
X020176Y007898D01*
X020119Y008222D01*
X020079Y008548D01*
X020055Y008876D01*
X020047Y009204D01*
X023990Y009665D02*
X023992Y009696D01*
X023998Y009727D01*
X024008Y009757D01*
X024021Y009785D01*
X024038Y009812D01*
X024058Y009836D01*
X024081Y009858D01*
X024106Y009876D01*
X024134Y009891D01*
X024163Y009903D01*
X024193Y009911D01*
X024224Y009915D01*
X024256Y009915D01*
X024287Y009911D01*
X024317Y009903D01*
X024346Y009891D01*
X024374Y009876D01*
X024399Y009858D01*
X024422Y009836D01*
X024442Y009812D01*
X024459Y009785D01*
X024472Y009757D01*
X024482Y009727D01*
X024488Y009696D01*
X024490Y009665D01*
X024488Y009634D01*
X024482Y009603D01*
X024472Y009573D01*
X024459Y009545D01*
X024442Y009518D01*
X024422Y009494D01*
X024399Y009472D01*
X024374Y009454D01*
X024346Y009439D01*
X024317Y009427D01*
X024287Y009419D01*
X024256Y009415D01*
X024224Y009415D01*
X024193Y009419D01*
X024163Y009427D01*
X024134Y009439D01*
X024106Y009454D01*
X024081Y009472D01*
X024058Y009494D01*
X024038Y009518D01*
X024021Y009545D01*
X024008Y009573D01*
X023998Y009603D01*
X023992Y009634D01*
X023990Y009665D01*
X024490Y009665D02*
X025490Y009665D01*
X026240Y009665D01*
X026240Y012165D01*
X025490Y012165D01*
X024490Y012165D01*
X023990Y012165D02*
X023992Y012196D01*
X023998Y012227D01*
X024008Y012257D01*
X024021Y012285D01*
X024038Y012312D01*
X024058Y012336D01*
X024081Y012358D01*
X024106Y012376D01*
X024134Y012391D01*
X024163Y012403D01*
X024193Y012411D01*
X024224Y012415D01*
X024256Y012415D01*
X024287Y012411D01*
X024317Y012403D01*
X024346Y012391D01*
X024374Y012376D01*
X024399Y012358D01*
X024422Y012336D01*
X024442Y012312D01*
X024459Y012285D01*
X024472Y012257D01*
X024482Y012227D01*
X024488Y012196D01*
X024490Y012165D01*
X024488Y012134D01*
X024482Y012103D01*
X024472Y012073D01*
X024459Y012045D01*
X024442Y012018D01*
X024422Y011994D01*
X024399Y011972D01*
X024374Y011954D01*
X024346Y011939D01*
X024317Y011927D01*
X024287Y011919D01*
X024256Y011915D01*
X024224Y011915D01*
X024193Y011919D01*
X024163Y011927D01*
X024134Y011939D01*
X024106Y011954D01*
X024081Y011972D01*
X024058Y011994D01*
X024038Y012018D01*
X024021Y012045D01*
X024008Y012073D01*
X023998Y012103D01*
X023992Y012134D01*
X023990Y012165D01*
X025490Y012165D02*
X025490Y009665D01*
X025490Y008665D02*
X024490Y008665D01*
X023990Y008665D02*
X023992Y008696D01*
X023998Y008727D01*
X024008Y008757D01*
X024021Y008785D01*
X024038Y008812D01*
X024058Y008836D01*
X024081Y008858D01*
X024106Y008876D01*
X024134Y008891D01*
X024163Y008903D01*
X024193Y008911D01*
X024224Y008915D01*
X024256Y008915D01*
X024287Y008911D01*
X024317Y008903D01*
X024346Y008891D01*
X024374Y008876D01*
X024399Y008858D01*
X024422Y008836D01*
X024442Y008812D01*
X024459Y008785D01*
X024472Y008757D01*
X024482Y008727D01*
X024488Y008696D01*
X024490Y008665D01*
X024488Y008634D01*
X024482Y008603D01*
X024472Y008573D01*
X024459Y008545D01*
X024442Y008518D01*
X024422Y008494D01*
X024399Y008472D01*
X024374Y008454D01*
X024346Y008439D01*
X024317Y008427D01*
X024287Y008419D01*
X024256Y008415D01*
X024224Y008415D01*
X024193Y008419D01*
X024163Y008427D01*
X024134Y008439D01*
X024106Y008454D01*
X024081Y008472D01*
X024058Y008494D01*
X024038Y008518D01*
X024021Y008545D01*
X024008Y008573D01*
X023998Y008603D01*
X023992Y008634D01*
X023990Y008665D01*
X025490Y008665D02*
X026240Y008665D01*
X026240Y006165D01*
X025490Y006165D01*
X024490Y006165D01*
X023990Y006165D02*
X023992Y006196D01*
X023998Y006227D01*
X024008Y006257D01*
X024021Y006285D01*
X024038Y006312D01*
X024058Y006336D01*
X024081Y006358D01*
X024106Y006376D01*
X024134Y006391D01*
X024163Y006403D01*
X024193Y006411D01*
X024224Y006415D01*
X024256Y006415D01*
X024287Y006411D01*
X024317Y006403D01*
X024346Y006391D01*
X024374Y006376D01*
X024399Y006358D01*
X024422Y006336D01*
X024442Y006312D01*
X024459Y006285D01*
X024472Y006257D01*
X024482Y006227D01*
X024488Y006196D01*
X024490Y006165D01*
X024488Y006134D01*
X024482Y006103D01*
X024472Y006073D01*
X024459Y006045D01*
X024442Y006018D01*
X024422Y005994D01*
X024399Y005972D01*
X024374Y005954D01*
X024346Y005939D01*
X024317Y005927D01*
X024287Y005919D01*
X024256Y005915D01*
X024224Y005915D01*
X024193Y005919D01*
X024163Y005927D01*
X024134Y005939D01*
X024106Y005954D01*
X024081Y005972D01*
X024058Y005994D01*
X024038Y006018D01*
X024021Y006045D01*
X024008Y006073D01*
X023998Y006103D01*
X023992Y006134D01*
X023990Y006165D01*
X025490Y006165D02*
X025490Y008665D01*
X026615Y005165D02*
X026615Y013165D01*
X026865Y013165D02*
X026865Y005165D01*
X002732Y018200D02*
X002734Y018250D01*
X002740Y018300D01*
X002750Y018349D01*
X002764Y018397D01*
X002781Y018444D01*
X002802Y018489D01*
X002827Y018533D01*
X002855Y018574D01*
X002887Y018613D01*
X002921Y018650D01*
X002958Y018684D01*
X002998Y018714D01*
X003040Y018741D01*
X003084Y018765D01*
X003130Y018786D01*
X003177Y018802D01*
X003225Y018815D01*
X003275Y018824D01*
X003324Y018829D01*
X003375Y018830D01*
X003425Y018827D01*
X003474Y018820D01*
X003523Y018809D01*
X003571Y018794D01*
X003617Y018776D01*
X003662Y018754D01*
X003705Y018728D01*
X003746Y018699D01*
X003785Y018667D01*
X003821Y018632D01*
X003853Y018594D01*
X003883Y018554D01*
X003910Y018511D01*
X003933Y018467D01*
X003952Y018421D01*
X003968Y018373D01*
X003980Y018324D01*
X003988Y018275D01*
X003992Y018225D01*
X003992Y018175D01*
X003988Y018125D01*
X003980Y018076D01*
X003968Y018027D01*
X003952Y017979D01*
X003933Y017933D01*
X003910Y017889D01*
X003883Y017846D01*
X003853Y017806D01*
X003821Y017768D01*
X003785Y017733D01*
X003746Y017701D01*
X003705Y017672D01*
X003662Y017646D01*
X003617Y017624D01*
X003571Y017606D01*
X003523Y017591D01*
X003474Y017580D01*
X003425Y017573D01*
X003375Y017570D01*
X003324Y017571D01*
X003275Y017576D01*
X003225Y017585D01*
X003177Y017598D01*
X003130Y017614D01*
X003084Y017635D01*
X003040Y017659D01*
X002998Y017686D01*
X002958Y017716D01*
X002921Y017750D01*
X002887Y017787D01*
X002855Y017826D01*
X002827Y017867D01*
X002802Y017911D01*
X002781Y017956D01*
X002764Y018003D01*
X002750Y018051D01*
X002740Y018100D01*
X002734Y018150D01*
X002732Y018200D01*
X039562Y028425D02*
X039562Y032425D01*
X042962Y032425D01*
X042962Y028425D01*
X039562Y028425D01*
X051135Y033467D02*
X051535Y033467D01*
X051335Y033667D02*
X051335Y033267D01*
X059035Y033467D02*
X059435Y033467D01*
D821*
X060256Y014725D03*
X056319Y014725D03*
D822*
X056642Y016201D02*
X056644Y016217D01*
X056650Y016233D01*
X056659Y016247D01*
X056671Y016258D01*
X056685Y016266D01*
X056701Y016271D01*
X056717Y016272D01*
X056733Y016269D01*
X056748Y016262D01*
X056762Y016253D01*
X056772Y016240D01*
X056780Y016225D01*
X056784Y016209D01*
X056784Y016193D01*
X056780Y016177D01*
X056772Y016162D01*
X056762Y016149D01*
X056749Y016140D01*
X056733Y016133D01*
X056717Y016130D01*
X056701Y016131D01*
X056685Y016136D01*
X056671Y016144D01*
X056659Y016155D01*
X056650Y016169D01*
X056644Y016185D01*
X056642Y016201D01*
X060579Y016201D02*
X060581Y016217D01*
X060587Y016233D01*
X060596Y016247D01*
X060608Y016258D01*
X060622Y016266D01*
X060638Y016271D01*
X060654Y016272D01*
X060670Y016269D01*
X060685Y016262D01*
X060699Y016253D01*
X060709Y016240D01*
X060717Y016225D01*
X060721Y016209D01*
X060721Y016193D01*
X060717Y016177D01*
X060709Y016162D01*
X060699Y016149D01*
X060686Y016140D01*
X060670Y016133D01*
X060654Y016130D01*
X060638Y016131D01*
X060622Y016136D01*
X060608Y016144D01*
X060596Y016155D01*
X060587Y016169D01*
X060581Y016185D01*
X060579Y016201D01*
D823*
X057837Y006129D02*
X057839Y006177D01*
X057845Y006225D01*
X057855Y006272D01*
X057868Y006318D01*
X057886Y006363D01*
X057906Y006407D01*
X057931Y006449D01*
X057959Y006488D01*
X057989Y006525D01*
X058023Y006559D01*
X058060Y006591D01*
X058098Y006620D01*
X058139Y006645D01*
X058182Y006667D01*
X058227Y006685D01*
X058273Y006699D01*
X058320Y006710D01*
X058368Y006717D01*
X058416Y006720D01*
X058464Y006719D01*
X058512Y006714D01*
X058560Y006705D01*
X058606Y006693D01*
X058651Y006676D01*
X058695Y006656D01*
X058737Y006633D01*
X058777Y006606D01*
X058815Y006576D01*
X058850Y006543D01*
X058882Y006507D01*
X058912Y006469D01*
X058938Y006428D01*
X058960Y006385D01*
X058980Y006341D01*
X058995Y006296D01*
X059007Y006249D01*
X059015Y006201D01*
X059019Y006153D01*
X059019Y006105D01*
X059015Y006057D01*
X059007Y006009D01*
X058995Y005962D01*
X058980Y005917D01*
X058960Y005873D01*
X058938Y005830D01*
X058912Y005789D01*
X058882Y005751D01*
X058850Y005715D01*
X058815Y005682D01*
X058777Y005652D01*
X058737Y005625D01*
X058695Y005602D01*
X058651Y005582D01*
X058606Y005565D01*
X058560Y005553D01*
X058512Y005544D01*
X058464Y005539D01*
X058416Y005538D01*
X058368Y005541D01*
X058320Y005548D01*
X058273Y005559D01*
X058227Y005573D01*
X058182Y005591D01*
X058139Y005613D01*
X058098Y005638D01*
X058060Y005667D01*
X058023Y005699D01*
X057989Y005733D01*
X057959Y005770D01*
X057931Y005809D01*
X057906Y005851D01*
X057886Y005895D01*
X057868Y005940D01*
X057855Y005986D01*
X057845Y006033D01*
X057839Y006081D01*
X057837Y006129D01*
X054136Y003648D02*
X054138Y003696D01*
X054144Y003744D01*
X054154Y003791D01*
X054167Y003837D01*
X054185Y003882D01*
X054205Y003926D01*
X054230Y003968D01*
X054258Y004007D01*
X054288Y004044D01*
X054322Y004078D01*
X054359Y004110D01*
X054397Y004139D01*
X054438Y004164D01*
X054481Y004186D01*
X054526Y004204D01*
X054572Y004218D01*
X054619Y004229D01*
X054667Y004236D01*
X054715Y004239D01*
X054763Y004238D01*
X054811Y004233D01*
X054859Y004224D01*
X054905Y004212D01*
X054950Y004195D01*
X054994Y004175D01*
X055036Y004152D01*
X055076Y004125D01*
X055114Y004095D01*
X055149Y004062D01*
X055181Y004026D01*
X055211Y003988D01*
X055237Y003947D01*
X055259Y003904D01*
X055279Y003860D01*
X055294Y003815D01*
X055306Y003768D01*
X055314Y003720D01*
X055318Y003672D01*
X055318Y003624D01*
X055314Y003576D01*
X055306Y003528D01*
X055294Y003481D01*
X055279Y003436D01*
X055259Y003392D01*
X055237Y003349D01*
X055211Y003308D01*
X055181Y003270D01*
X055149Y003234D01*
X055114Y003201D01*
X055076Y003171D01*
X055036Y003144D01*
X054994Y003121D01*
X054950Y003101D01*
X054905Y003084D01*
X054859Y003072D01*
X054811Y003063D01*
X054763Y003058D01*
X054715Y003057D01*
X054667Y003060D01*
X054619Y003067D01*
X054572Y003078D01*
X054526Y003092D01*
X054481Y003110D01*
X054438Y003132D01*
X054397Y003157D01*
X054359Y003186D01*
X054322Y003218D01*
X054288Y003252D01*
X054258Y003289D01*
X054230Y003328D01*
X054205Y003370D01*
X054185Y003414D01*
X054167Y003459D01*
X054154Y003505D01*
X054144Y003552D01*
X054138Y003600D01*
X054136Y003648D01*
D824*
X036789Y004143D02*
X036789Y005293D01*
X036789Y006343D02*
X036789Y007493D01*
X036789Y008543D02*
X036789Y008918D01*
X036789Y009411D02*
X036789Y009786D01*
X036789Y010836D02*
X036789Y011986D01*
X036789Y013036D02*
X036789Y014186D01*
X036789Y015236D02*
X036789Y015611D01*
X036789Y016104D02*
X036789Y016479D01*
X036789Y017529D02*
X036789Y018679D01*
X036789Y019729D02*
X036789Y020879D01*
X036789Y021929D02*
X036789Y022304D01*
X036789Y027128D02*
X036789Y027503D01*
X036789Y028553D02*
X036789Y029703D01*
X036789Y030753D02*
X036789Y031903D01*
X036789Y032953D02*
X036789Y033328D01*
X006087Y020050D02*
X006089Y020081D01*
X006095Y020112D01*
X006105Y020142D01*
X006118Y020170D01*
X006135Y020197D01*
X006155Y020221D01*
X006178Y020243D01*
X006203Y020261D01*
X006231Y020276D01*
X006260Y020288D01*
X006290Y020296D01*
X006321Y020300D01*
X006353Y020300D01*
X006384Y020296D01*
X006414Y020288D01*
X006443Y020276D01*
X006471Y020261D01*
X006496Y020243D01*
X006519Y020221D01*
X006539Y020197D01*
X006556Y020170D01*
X006569Y020142D01*
X006579Y020112D01*
X006585Y020081D01*
X006587Y020050D01*
X006585Y020019D01*
X006579Y019988D01*
X006569Y019958D01*
X006556Y019930D01*
X006539Y019903D01*
X006519Y019879D01*
X006496Y019857D01*
X006471Y019839D01*
X006443Y019824D01*
X006414Y019812D01*
X006384Y019804D01*
X006353Y019800D01*
X006321Y019800D01*
X006290Y019804D01*
X006260Y019812D01*
X006231Y019824D01*
X006203Y019839D01*
X006178Y019857D01*
X006155Y019879D01*
X006135Y019903D01*
X006118Y019930D01*
X006105Y019958D01*
X006095Y019988D01*
X006089Y020019D01*
X006087Y020050D01*
X036789Y003093D02*
X036789Y002718D01*
D825*
X039151Y016625D03*
D826*
X037649Y022946D03*
D827*
X036339Y024716D03*
D828*
X036589Y026441D03*
X036589Y022991D03*
D829*
X036589Y024716D03*
D830*
X029562Y028939D03*
X028862Y028939D03*
X039912Y010161D03*
D831*
X046702Y004248D02*
X046704Y004265D01*
X046709Y004281D01*
X046718Y004295D01*
X046730Y004307D01*
X046744Y004316D01*
X046760Y004321D01*
X046777Y004323D01*
X046794Y004321D01*
X046810Y004316D01*
X046824Y004307D01*
X046836Y004295D01*
X046845Y004281D01*
X046850Y004265D01*
X046852Y004248D01*
X046850Y004231D01*
X046845Y004215D01*
X046836Y004201D01*
X046824Y004189D01*
X046810Y004180D01*
X046794Y004175D01*
X046777Y004173D01*
X046760Y004175D01*
X046744Y004180D01*
X046730Y004189D01*
X046718Y004201D01*
X046709Y004215D01*
X046704Y004231D01*
X046702Y004248D01*
X028240Y010306D02*
X028242Y010323D01*
X028247Y010339D01*
X028256Y010353D01*
X028268Y010365D01*
X028282Y010374D01*
X028298Y010379D01*
X028315Y010381D01*
X028332Y010379D01*
X028348Y010374D01*
X028362Y010365D01*
X028374Y010353D01*
X028383Y010339D01*
X028388Y010323D01*
X028390Y010306D01*
X028388Y010289D01*
X028383Y010273D01*
X028374Y010259D01*
X028362Y010247D01*
X028348Y010238D01*
X028332Y010233D01*
X028315Y010231D01*
X028298Y010233D01*
X028282Y010238D01*
X028268Y010247D01*
X028256Y010259D01*
X028247Y010273D01*
X028242Y010289D01*
X028240Y010306D01*
X025091Y011830D02*
X025093Y011847D01*
X025098Y011863D01*
X025107Y011877D01*
X025119Y011889D01*
X025133Y011898D01*
X025149Y011903D01*
X025166Y011905D01*
X025183Y011903D01*
X025199Y011898D01*
X025213Y011889D01*
X025225Y011877D01*
X025234Y011863D01*
X025239Y011847D01*
X025241Y011830D01*
X025239Y011813D01*
X025234Y011797D01*
X025225Y011783D01*
X025213Y011771D01*
X025199Y011762D01*
X025183Y011757D01*
X025166Y011755D01*
X025149Y011757D01*
X025133Y011762D01*
X025119Y011771D01*
X025107Y011783D01*
X025098Y011797D01*
X025093Y011813D01*
X025091Y011830D01*
X025091Y008350D02*
X025093Y008367D01*
X025098Y008383D01*
X025107Y008397D01*
X025119Y008409D01*
X025133Y008418D01*
X025149Y008423D01*
X025166Y008425D01*
X025183Y008423D01*
X025199Y008418D01*
X025213Y008409D01*
X025225Y008397D01*
X025234Y008383D01*
X025239Y008367D01*
X025241Y008350D01*
X025239Y008333D01*
X025234Y008317D01*
X025225Y008303D01*
X025213Y008291D01*
X025199Y008282D01*
X025183Y008277D01*
X025166Y008275D01*
X025149Y008277D01*
X025133Y008282D01*
X025119Y008291D01*
X025107Y008303D01*
X025098Y008317D01*
X025093Y008333D01*
X025091Y008350D01*
X044723Y019702D02*
X044725Y019719D01*
X044730Y019735D01*
X044739Y019749D01*
X044751Y019761D01*
X044765Y019770D01*
X044781Y019775D01*
X044798Y019777D01*
X044815Y019775D01*
X044831Y019770D01*
X044845Y019761D01*
X044857Y019749D01*
X044866Y019735D01*
X044871Y019719D01*
X044873Y019702D01*
X044871Y019685D01*
X044866Y019669D01*
X044857Y019655D01*
X044845Y019643D01*
X044831Y019634D01*
X044815Y019629D01*
X044798Y019627D01*
X044781Y019629D01*
X044765Y019634D01*
X044751Y019643D01*
X044739Y019655D01*
X044730Y019669D01*
X044725Y019685D01*
X044723Y019702D01*
D832*
X045413Y017100D03*
X046161Y006850D03*
D833*
X019308Y005936D02*
X015763Y005936D01*
X015763Y002064D01*
X019308Y002064D01*
X019283Y006964D02*
X015738Y006964D01*
X015738Y010836D01*
X019283Y010836D01*
X013437Y023000D02*
X013837Y023400D01*
X013037Y023400D01*
X013437Y023000D01*
X013365Y023073D02*
X013510Y023073D01*
X013589Y023151D02*
X013286Y023151D01*
X013208Y023230D02*
X013667Y023230D01*
X013746Y023308D02*
X013129Y023308D01*
X013051Y023387D02*
X013824Y023387D01*
X012262Y028825D02*
X012662Y029225D01*
X011862Y029225D01*
X012262Y028825D01*
X012206Y028882D02*
X012319Y028882D01*
X012398Y028960D02*
X012127Y028960D01*
X012049Y029039D02*
X012476Y029039D01*
X012555Y029117D02*
X011970Y029117D01*
X011892Y029196D02*
X012633Y029196D01*
X012287Y032700D02*
X012687Y033100D01*
X011887Y033100D01*
X012287Y032700D01*
X012259Y032728D02*
X012316Y032728D01*
X012394Y032807D02*
X012181Y032807D01*
X012102Y032885D02*
X012473Y032885D01*
X012551Y032964D02*
X012024Y032964D01*
X011945Y033042D02*
X012630Y033042D01*
X024012Y032550D02*
X024412Y032950D01*
X024812Y032550D01*
X024012Y032550D01*
X024034Y032571D02*
X024791Y032571D01*
X024713Y032650D02*
X024112Y032650D01*
X024191Y032728D02*
X024634Y032728D01*
X024556Y032807D02*
X024269Y032807D01*
X024348Y032885D02*
X024477Y032885D01*
X030061Y029596D02*
X031360Y029596D01*
X031360Y027904D01*
X030061Y027904D01*
X030061Y029596D01*
X031281Y029439D02*
X031281Y029242D01*
X031340Y029242D01*
X031340Y029439D02*
X031281Y029439D01*
D834*
X015572Y008900D03*
X015597Y004000D03*
D835*
X015214Y005000D03*
X015214Y003000D03*
X015189Y007900D03*
X015189Y009900D03*
D836*
X008643Y011038D02*
X008531Y011136D01*
X008423Y011240D01*
X008321Y011349D01*
X008224Y011463D01*
X008132Y011582D01*
X008047Y011704D01*
X007967Y011831D01*
X007894Y011962D01*
X007827Y012096D01*
X007767Y012233D01*
X007714Y012373D01*
X007667Y012515D01*
X007628Y012659D01*
X007595Y012805D01*
X007570Y012953D01*
X007552Y013101D01*
X007541Y013250D01*
X007537Y013400D01*
X007541Y013550D01*
X007552Y013699D01*
X007570Y013847D01*
X007595Y013995D01*
X007628Y014141D01*
X007667Y014285D01*
X007714Y014427D01*
X007767Y014567D01*
X007827Y014704D01*
X007894Y014838D01*
X007967Y014969D01*
X008047Y015096D01*
X008132Y015218D01*
X008224Y015337D01*
X008321Y015451D01*
X008423Y015560D01*
X008531Y015664D01*
X008643Y015762D01*
X015325Y016419D02*
X015423Y016531D01*
X015527Y016639D01*
X015636Y016741D01*
X015750Y016838D01*
X015869Y016930D01*
X015991Y017015D01*
X016118Y017095D01*
X016249Y017168D01*
X016383Y017235D01*
X016520Y017295D01*
X016660Y017348D01*
X016802Y017395D01*
X016946Y017434D01*
X017092Y017467D01*
X017240Y017492D01*
X017388Y017510D01*
X017537Y017521D01*
X017687Y017525D01*
X017837Y017521D01*
X017986Y017510D01*
X018134Y017492D01*
X018282Y017467D01*
X018428Y017434D01*
X018572Y017395D01*
X018714Y017348D01*
X018854Y017295D01*
X018991Y017235D01*
X019125Y017168D01*
X019256Y017095D01*
X019383Y017015D01*
X019505Y016930D01*
X019624Y016838D01*
X019738Y016741D01*
X019847Y016639D01*
X019951Y016531D01*
X020049Y016419D01*
X007418Y008212D02*
X007306Y008114D01*
X007198Y008010D01*
X007096Y007901D01*
X006999Y007787D01*
X006907Y007668D01*
X006822Y007546D01*
X006742Y007419D01*
X006669Y007288D01*
X006602Y007154D01*
X006542Y007017D01*
X006489Y006877D01*
X006442Y006735D01*
X006403Y006591D01*
X006370Y006445D01*
X006345Y006297D01*
X006327Y006149D01*
X006316Y006000D01*
X006312Y005850D01*
X006316Y005700D01*
X006327Y005551D01*
X006345Y005403D01*
X006370Y005255D01*
X006403Y005109D01*
X006442Y004965D01*
X006489Y004823D01*
X006542Y004683D01*
X006602Y004546D01*
X006669Y004412D01*
X006742Y004281D01*
X006822Y004154D01*
X006907Y004032D01*
X006999Y003913D01*
X007096Y003799D01*
X007198Y003690D01*
X007306Y003586D01*
X007418Y003488D01*
X052000Y025531D02*
X052098Y025419D01*
X052202Y025311D01*
X052311Y025209D01*
X052425Y025112D01*
X052544Y025020D01*
X052666Y024935D01*
X052793Y024855D01*
X052924Y024782D01*
X053058Y024715D01*
X053195Y024655D01*
X053335Y024602D01*
X053477Y024555D01*
X053621Y024516D01*
X053767Y024483D01*
X053915Y024458D01*
X054063Y024440D01*
X054212Y024429D01*
X054362Y024425D01*
X054512Y024429D01*
X054661Y024440D01*
X054809Y024458D01*
X054957Y024483D01*
X055103Y024516D01*
X055247Y024555D01*
X055389Y024602D01*
X055529Y024655D01*
X055666Y024715D01*
X055800Y024782D01*
X055931Y024855D01*
X056058Y024935D01*
X056180Y025020D01*
X056299Y025112D01*
X056413Y025209D01*
X056522Y025311D01*
X056626Y025419D01*
X056724Y025531D01*
X050099Y028381D02*
X050001Y028269D01*
X049897Y028161D01*
X049788Y028059D01*
X049674Y027962D01*
X049555Y027870D01*
X049433Y027785D01*
X049306Y027705D01*
X049175Y027632D01*
X049041Y027565D01*
X048904Y027505D01*
X048764Y027452D01*
X048622Y027405D01*
X048478Y027366D01*
X048332Y027333D01*
X048184Y027308D01*
X048036Y027290D01*
X047887Y027279D01*
X047737Y027275D01*
X047587Y027279D01*
X047438Y027290D01*
X047290Y027308D01*
X047142Y027333D01*
X046996Y027366D01*
X046852Y027405D01*
X046710Y027452D01*
X046570Y027505D01*
X046433Y027565D01*
X046299Y027632D01*
X046168Y027705D01*
X046041Y027785D01*
X045919Y027870D01*
X045800Y027962D01*
X045686Y028059D01*
X045577Y028161D01*
X045473Y028269D01*
X045375Y028381D01*
D837*
X047737Y030125D03*
X054362Y027275D03*
X017687Y014675D03*
D838*
X010387Y013400D03*
X009162Y005850D03*
D839*
X006512Y023111D03*
D840*
X024362Y028208D03*
D841*
X029462Y025350D03*
X007937Y027400D03*
D842*
X009562Y027675D02*
X009535Y027754D01*
X009505Y027831D01*
X009471Y027907D01*
X009434Y027981D01*
X009392Y028054D01*
X009348Y028124D01*
X009300Y028192D01*
X009248Y028257D01*
X009194Y028320D01*
X009136Y028380D01*
X009076Y028437D01*
X009013Y028491D01*
X008947Y028542D01*
X008879Y028590D01*
X008809Y028635D01*
X008736Y028675D01*
X008662Y028713D01*
X008586Y028746D01*
X008508Y028776D01*
X008429Y028802D01*
X008349Y028824D01*
X008268Y028843D01*
X008186Y028857D01*
X008103Y028867D01*
X008020Y028873D01*
X007937Y028875D01*
X007854Y028873D01*
X007771Y028867D01*
X007688Y028857D01*
X007606Y028843D01*
X007525Y028824D01*
X007445Y028802D01*
X007366Y028776D01*
X007288Y028746D01*
X007212Y028713D01*
X007138Y028675D01*
X007065Y028635D01*
X006995Y028590D01*
X006927Y028542D01*
X006861Y028491D01*
X006798Y028437D01*
X006738Y028380D01*
X006680Y028320D01*
X006626Y028257D01*
X006574Y028192D01*
X006526Y028124D01*
X006482Y028054D01*
X006440Y027981D01*
X006403Y027907D01*
X006369Y027831D01*
X006339Y027754D01*
X006312Y027675D01*
X027837Y025625D02*
X027864Y025704D01*
X027894Y025781D01*
X027928Y025857D01*
X027965Y025931D01*
X028007Y026004D01*
X028051Y026074D01*
X028099Y026142D01*
X028151Y026207D01*
X028205Y026270D01*
X028263Y026330D01*
X028323Y026387D01*
X028386Y026441D01*
X028452Y026492D01*
X028520Y026540D01*
X028590Y026585D01*
X028663Y026625D01*
X028737Y026663D01*
X028813Y026696D01*
X028891Y026726D01*
X028970Y026752D01*
X029050Y026774D01*
X029131Y026793D01*
X029213Y026807D01*
X029296Y026817D01*
X029379Y026823D01*
X029462Y026825D01*
X029545Y026823D01*
X029628Y026817D01*
X029711Y026807D01*
X029793Y026793D01*
X029874Y026774D01*
X029954Y026752D01*
X030033Y026726D01*
X030111Y026696D01*
X030187Y026663D01*
X030261Y026625D01*
X030334Y026585D01*
X030404Y026540D01*
X030472Y026492D01*
X030538Y026441D01*
X030601Y026387D01*
X030661Y026330D01*
X030719Y026270D01*
X030773Y026207D01*
X030825Y026142D01*
X030873Y026074D01*
X030917Y026004D01*
X030959Y025931D01*
X030996Y025857D01*
X031030Y025781D01*
X031060Y025704D01*
X031087Y025625D01*
D843*
X025865Y010915D03*
X025865Y007415D03*
D844*
X027615Y009165D03*
D845*
X006537Y020250D02*
X006137Y019850D01*
D846*
X032514Y018600D03*
M02*
