%
M48
M72
T01C0.01575
T02C0.01969
T03C0.02362
T04C0.02756
T05C0.03200
T06C0.03600
T07C0.04000
T08C0.04331
T09C0.04724
T10C0.05512
T11C0.06299
T12C0.11811
T13C0.12598
%
T01
X55918Y63250
X58918Y63250
X58918Y66250
X58918Y69250
X58918Y72250
X58918Y75250
X55918Y75250
X55918Y72250
X55918Y69250
X55918Y66250
X119918Y86000
X130918Y90000
X131418Y70250
X125418Y47500
X194418Y71500
X197918Y71500
X197918Y75000
X197918Y78500
X197918Y82000
X197918Y85500
X197918Y89000
X197918Y92500
X197918Y96000
X197918Y99500
X197918Y103000
X194418Y103000
X194418Y99500
X194418Y96000
X194418Y92500
X194418Y89000
X194418Y85500
X194418Y82000
X194418Y78500
X194418Y75000
X203168Y55000
X206668Y55000
X206668Y51500
X206668Y48000
X206668Y44500
X206668Y41000
X206668Y37500
X206668Y34000
X206668Y30500
X206668Y27000
X203168Y27000
X203168Y30500
X203168Y34000
X203168Y37500
X203168Y41000
X203168Y44500
X203168Y48000
X203168Y51500
X268918Y27250
X268918Y20750
X274918Y49750
X277918Y49750
X280918Y49750
X283918Y49750
X283918Y59750
X280918Y59750
X277918Y59750
X274918Y59750
X336168Y32750
X346668Y37000
X352918Y37250
X414418Y89750
X461418Y84250
X471918Y73250
X486918Y87500
X502918Y87750
X530168Y102250
X501418Y106000
X497168Y106000
X494668Y135000
X480668Y141750
X453668Y142750
X438918Y142750
X422668Y160250
X422668Y164500
X398168Y156250
X393668Y159500
X428514Y184346
X443668Y185000
X438418Y199250
X472418Y196750
X481418Y197250
X501418Y201250
X481418Y176000
X498918Y161000
X431822Y228404
X431918Y235000
X438918Y248750
X453168Y249750
X453168Y270750
X418418Y281250
X403918Y281250
X336168Y229750
X336168Y219250
X300418Y223500
X285418Y236250
X275168Y244750
X269418Y240750
X267668Y260750
X265168Y270500
X269168Y292250
X294418Y293250
X235668Y302500
X161918Y255500
X128168Y255500
X114918Y233500
X117668Y208000
X82418Y204000
X84918Y194000
X68168Y193500
X61418Y186000
X84918Y179250
X161418Y175750
X161418Y182750
X174168Y186250
X193418Y181000
X197168Y177250
X214168Y173000
X200688Y164230
X198668Y160250
X206418Y158250
X206418Y149750
X216918Y159250
X230918Y166500
X238418Y158250
X244918Y166500
X243168Y177750
X242918Y190500
X214168Y196750
X189168Y211000
X211918Y229250
X224668Y235250
X211918Y242250
X168918Y234250
X92918Y273000
X63418Y271000
X65168Y254750
X62918Y238000
X68418Y306750
X63418Y309750
X66418Y330000
X69418Y330000
X69418Y336000
X66418Y336000
X311668Y178000
X311668Y155750
X252668Y150750
X244418Y141750
X223418Y140250
X274918Y112750
X277918Y112750
X280918Y112750
X283918Y112750
X283918Y103250
X280918Y103250
X277918Y103250
X274918Y103250
X475918Y51000
X485168Y51000
X481168Y42750
X499918Y37500
X499918Y24000
X517168Y35500
X519418Y44000
X500918Y60250
X508668Y240750
X507668Y259000
X499668Y312750
T02
X491418Y342500
X543918Y242500
X305168Y125250
X301668Y125250
X142918Y65750
X144168Y45750
X143168Y28750
X98418Y31000
X137168Y101000
X119918Y183000
X72168Y180000
X119918Y250250
X301418Y300500
T03
X77668Y300000
X52168Y183250
T04
X236965Y337250
X242871Y337250
X328668Y43203
X328668Y37297
T05
X57918Y204250
X47918Y204250
X37918Y204250
T06
X182918Y226500
X222918Y216500
X533668Y51500
X585168Y82250
X625168Y72250
X543668Y91500
X585168Y212000
X585168Y222000
X545168Y222000
X625168Y212000
T07
X613668Y193500
X554668Y193500
X554668Y100500
X613668Y100500
X370436Y237157
X370436Y257157
X307168Y262500
X287168Y262500
X82918Y264250
X82918Y284250
X39918Y287000
X39918Y297000
X39918Y307000
X39918Y277000
X39918Y267000
X39918Y257000
X39918Y247000
X39918Y237000
T08
X32168Y183250
X89904Y134000
X119432Y134000
X175418Y135486
X175418Y165014
X228668Y175000
X288418Y168500
X168418Y216500
X388668Y265750
X475918Y288736
X475918Y318264
X546418Y289764
X546418Y260236
X387668Y323000
X525918Y90500
X107182Y58500
X77654Y58500
T09
X141798Y252801
X141798Y262644
X141798Y272486
X141798Y282329
X141798Y292171
X141798Y302014
X141798Y311856
X141798Y321699
X220538Y316778
X220538Y306935
X220538Y287250
X220538Y267565
X220538Y257722
X561733Y171856
X601103Y171856
X601103Y122644
X561733Y122644
T10
X567668Y61285
X567668Y44750
X567668Y28215
X561881Y337709
X581381Y337709
X541381Y337709
X521381Y337709
X57186Y165000
X40650Y165000
T11
X208861Y112315
X208861Y98535
X208861Y84756
X208861Y70976
X323034Y77866
X323034Y105425
X371936Y103110
X371936Y125110
X371936Y147110
X371936Y170039
X371936Y192039
X371936Y214039
X371936Y280276
X371936Y302276
X371936Y324276
X371936Y80181
X371936Y58181
X371936Y36181
T12
X545818Y36482
X582825Y61285
T13
X37601Y30622
X37601Y333772
X616341Y333772
X616341Y32591
M30
