%
M48
M72
T01C0.01575
T02C0.01969
T03C0.02362
T04C0.02756
T05C0.03150
T06C0.03200
T07C0.03543
T08C0.03600
T09C0.03937
T10C0.04000
T11C0.04331
T12C0.04724
T13C0.05512
T14C0.06299
T15C0.06693
T16C0.11811
T17C0.12598
%
T01
X78227Y129463
X251727Y107963
X274215Y112150
X283727Y114463
X295727Y112213
X294715Y106900
X309465Y94900
X314477Y100963
X320215Y99400
X326477Y103463
X332465Y115400
X321727Y123713
X306477Y132463
X314573Y138713
X343965Y132150
X356977Y125963
X364227Y129713
X388477Y131713
X388477Y124213
X404727Y122713
X375227Y112963
X346977Y109463
X354477Y94213
X295465Y88650
X274227Y91713
X255477Y77963
X326727Y48213
X433227Y92713
X456227Y92713
X477227Y88713
X477227Y83213
X523727Y81713
X526727Y81713
X541227Y90463
X546727Y90463
X561977Y90963
X561977Y88213
X575727Y95463
X586477Y82713
X591227Y109213
X586477Y117463
X601227Y132213
X604227Y132213
X606727Y139713
X608977Y144713
X595227Y154463
X595227Y160463
X595727Y180963
X598727Y180963
X557717Y178041
X534727Y187463
X494977Y209463
X504727Y225213
X484477Y229213
X461977Y233222
X452227Y229213
X434477Y233463
X423977Y239713
X431477Y245463
X438227Y251463
X431477Y267463
X423977Y272963
X398227Y252713
X383977Y261713
X374977Y243213
X357477Y246213
X361227Y232963
X367727Y228213
X373727Y228463
X380227Y225963
X368727Y219963
X361977Y213963
X360727Y225463
X334227Y211213
X334727Y203963
X339227Y203463
X343477Y195953
X342727Y191713
X348977Y184963
X353977Y184463
X362477Y179463
X354977Y172713
X362477Y167963
X378477Y171463
X376977Y180963
X345977Y168463
X330727Y166963
X329477Y159213
X315737Y159472
X315227Y168213
X314727Y173213
X310477Y176463
X319227Y181963
X319977Y186213
X317227Y186213
X326477Y181963
X327227Y188963
X340477Y178963
X361477Y155713
X292227Y186213
X276977Y183713
X277477Y194713
X292477Y201963
X292477Y214463
X286977Y218713
X290977Y222463
X285477Y227463
X300227Y234963
X307227Y239713
X311977Y239713
X326727Y245463
X313477Y230213
X318727Y211963
X314727Y204213
X275727Y240213
X256977Y240213
X252477Y219463
X257227Y263213
X257727Y271963
X276477Y277713
X292727Y289213
X295727Y289213
X298727Y289213
X240477Y298463
X228227Y298463
X230477Y306963
X185227Y309963
X185477Y297713
X120977Y269713
X120977Y266463
X96727Y347713
X418477Y233213
X424227Y226713
X463977Y245713
X484977Y191713
X536727Y141463
X536727Y131963
X532227Y129713
X529977Y125463
X525727Y124463
X622727Y120213
X622727Y129963
X258727Y126963
X591227Y353213
T02
X261227Y313963
X261227Y310713
X261227Y307463
X257727Y307463
X257727Y310713
X257727Y313963
X219727Y228213
X244977Y108213
X249727Y59713
X468477Y41963
X476227Y41963
X505727Y44463
X514227Y41213
X525977Y40463
X529227Y40463
X514227Y56713
X532477Y66463
T03
X565727Y38963
X223727Y92463
X219227Y92463
X214727Y92463
X210227Y92463
X205727Y92463
X201227Y92463
X196727Y92463
X192227Y92463
X187727Y92463
X183227Y92463
X183227Y88213
X183227Y83963
X183227Y79713
X183227Y75463
X183227Y71213
X183227Y66963
X183227Y62713
X183227Y58463
X178727Y58463
X178727Y62713
X178727Y66963
X178727Y71213
X178727Y75463
X178727Y79713
X178727Y83963
X178727Y88213
X178727Y92463
X178727Y112463
X178727Y116713
X178727Y120963
X178727Y125213
X178727Y129463
X178727Y133713
X178727Y137963
X178727Y142213
X183227Y142213
X183227Y137963
X183227Y133713
X183227Y129463
X183227Y125213
X183227Y120963
X183227Y116713
X183227Y112463
X187727Y142213
X192227Y142213
X196727Y142213
X201227Y142213
X205727Y142213
X210227Y142213
X214727Y142213
X219227Y142213
X223727Y142213
X64227Y232213
X64227Y235963
X64227Y239713
X60477Y239713
X56727Y239713
X56727Y235963
X60477Y235963
X60477Y232213
X56727Y232213
X139477Y255213
X139477Y258963
X139477Y262713
X143227Y262713
X146977Y262713
X146977Y258963
X143227Y258963
X143227Y255213
X146977Y255213
T04
X368024Y249963
X373930Y249963
T05
X307914Y270463
X300040Y270463
T06
X360477Y107463
X370477Y107463
X380477Y107463
T07
X617522Y105390
X617522Y115232
X617522Y125075
X617522Y134917
X617522Y144760
X617522Y154602
X617522Y164445
X617522Y174287
X617522Y184130
X471883Y289213
X460072Y289213
T08
X466477Y316213
X466477Y331713
X506477Y321713
X506477Y306213
X536477Y253713
X576477Y243713
X576477Y227463
X536477Y217463
X504977Y201963
X494977Y161963
T09
X445070Y187833
X425385Y187833
X604648Y90114
X604648Y80114
X614648Y80114
X614648Y90114
T10
X545227Y132463
X545227Y152463
X487977Y254963
X467977Y254963
X525227Y274213
X618227Y273713
X618227Y332713
X525227Y333213
X244451Y345390
X224451Y345390
T11
X354977Y324976
X354977Y295449
X425227Y304949
X425227Y334476
X408727Y76476
X451977Y68463
X408727Y46949
X337727Y46949
X337727Y76476
X585727Y38963
T12
X469676Y109093
X459833Y109093
X449991Y109093
X440148Y109093
X430306Y109093
X420463Y109093
X410621Y109093
X400778Y109093
X405699Y187833
X415542Y187833
X435227Y187833
X454912Y187833
X464755Y187833
X547013Y293876
X596225Y293876
X596225Y333246
X547013Y333246
X358727Y351463
X116341Y356374
X88782Y173303
T13
X464294Y365232
X483794Y365232
X504294Y365232
X524294Y365232
T14
X315507Y343890
X293507Y343890
X271507Y343890
X193459Y343890
X171459Y343890
X149459Y343890
X154089Y185787
X132089Y185787
X110089Y185787
X110948Y149799
X138507Y149799
X204577Y185787
X226577Y185787
X248577Y185787
X145396Y35626
X131617Y35626
X117837Y35626
X104058Y35626
T15
X567129Y58146
X588782Y58146
X589963Y210902
X589963Y227437
X589963Y243972
T16
X618703Y243972
X618703Y210902
X617522Y58146
T17
X49412Y42398
X49412Y357358
X620278Y357358
X620278Y40429
M30
