G75*
%MOIN*%
%OFA0B0*%
%FSLAX25Y25*%
%IPPOS*%
%LPD*%
%AMOC8*
5,1,8,0,0,1.08239X$1,22.5*
%
%ADD10C,0.00500*%
%ADD11C,0.01000*%
%ADD12C,0.00600*%
%ADD13C,0.00400*%
%ADD14C,0.01600*%
%ADD15C,0.00700*%
%ADD16R,0.05512X0.00787*%
%ADD17R,0.00787X0.05512*%
%ADD18C,0.00300*%
%ADD19C,0.00800*%
%ADD20R,0.02992X0.03268*%
%ADD21R,0.02992X0.03583*%
%ADD22R,0.03268X0.02992*%
%ADD23R,0.03583X0.02992*%
%ADD24C,0.00200*%
%ADD25R,0.01181X0.08268*%
D10*
X0085365Y0122907D02*
X0094105Y0122907D01*
X0094105Y0142380D01*
X0085365Y0142380D01*
X0085365Y0122907D01*
X0085365Y0142407D02*
X0094105Y0142407D01*
X0094105Y0161880D01*
X0085365Y0161880D01*
X0085365Y0142407D01*
X0155959Y0139963D02*
X0155959Y0132222D01*
X0171495Y0132222D01*
X0171495Y0139963D01*
X0155959Y0139963D01*
X0155857Y0149325D02*
X0163597Y0149325D01*
X0163597Y0164860D01*
X0155857Y0164860D01*
X0155857Y0149325D01*
X0167428Y0170472D02*
X0180026Y0170472D01*
X0180026Y0177213D01*
X0167428Y0177213D01*
X0167428Y0170472D01*
X0167428Y0177222D02*
X0180026Y0177222D01*
X0180026Y0183963D01*
X0167428Y0183963D01*
X0167428Y0177222D01*
X0167428Y0183972D02*
X0180026Y0183972D01*
X0180026Y0190713D01*
X0167428Y0190713D01*
X0167428Y0183972D01*
X0172601Y0192343D02*
X0175604Y0192343D01*
X0172601Y0195345D01*
X0172601Y0196096D01*
X0173352Y0196846D01*
X0174853Y0196846D01*
X0175604Y0196096D01*
X0177205Y0196096D02*
X0177956Y0196846D01*
X0179457Y0196846D01*
X0180208Y0196096D01*
X0180208Y0193093D01*
X0179457Y0192343D01*
X0177956Y0192343D01*
X0177205Y0193093D01*
X0181776Y0192343D02*
X0183277Y0192343D01*
X0182526Y0192343D02*
X0182526Y0196846D01*
X0181776Y0196846D02*
X0183277Y0196846D01*
X0180026Y0199972D02*
X0180026Y0206713D01*
X0167428Y0206713D01*
X0167428Y0199972D01*
X0180026Y0199972D01*
X0180026Y0206722D02*
X0167428Y0206722D01*
X0167428Y0213463D01*
X0180026Y0213463D01*
X0180026Y0206722D01*
X0180026Y0213472D02*
X0180026Y0220213D01*
X0167428Y0220213D01*
X0167428Y0213472D01*
X0180026Y0213472D01*
X0211459Y0221472D02*
X0211459Y0229213D01*
X0226995Y0229213D01*
X0226995Y0221472D01*
X0211459Y0221472D01*
X0213959Y0218963D02*
X0213959Y0211222D01*
X0229495Y0211222D01*
X0229495Y0218963D01*
X0213959Y0218963D01*
X0213959Y0211213D02*
X0213959Y0203472D01*
X0229495Y0203472D01*
X0229495Y0211213D01*
X0213959Y0211213D01*
X0214107Y0202392D02*
X0214107Y0189793D01*
X0220847Y0189793D01*
X0220847Y0202392D01*
X0214107Y0202392D01*
X0222709Y0195713D02*
X0222709Y0187972D01*
X0238245Y0187972D01*
X0238245Y0195713D01*
X0222709Y0195713D01*
X0229745Y0187963D02*
X0214209Y0187963D01*
X0214209Y0180222D01*
X0229745Y0180222D01*
X0229745Y0187963D01*
X0231495Y0172463D02*
X0215959Y0172463D01*
X0215959Y0164722D01*
X0231495Y0164722D01*
X0231495Y0172463D01*
X0213995Y0163713D02*
X0213995Y0155972D01*
X0198459Y0155972D01*
X0198459Y0163713D01*
X0213995Y0163713D01*
X0247328Y0144596D02*
X0248079Y0145346D01*
X0249580Y0145346D01*
X0250331Y0144596D01*
X0250331Y0143845D01*
X0249580Y0143094D01*
X0247328Y0143094D01*
X0247328Y0141593D02*
X0247328Y0144596D01*
X0247328Y0141593D02*
X0248079Y0140843D01*
X0249580Y0140843D01*
X0250331Y0141593D01*
X0251932Y0140843D02*
X0254935Y0140843D01*
X0253434Y0140843D02*
X0253434Y0145346D01*
X0254935Y0143845D01*
X0256536Y0144596D02*
X0257287Y0145346D01*
X0259539Y0145346D01*
X0259539Y0140843D01*
X0257287Y0140843D01*
X0256536Y0141593D01*
X0256536Y0144596D01*
X0298209Y0151472D02*
X0298209Y0159213D01*
X0313745Y0159213D01*
X0313745Y0151472D01*
X0298209Y0151472D01*
X0314578Y0154093D02*
X0315329Y0153343D01*
X0316830Y0153343D01*
X0317581Y0154093D01*
X0317581Y0154844D01*
X0316830Y0155594D01*
X0315329Y0155594D01*
X0314578Y0154844D01*
X0314578Y0154093D01*
X0315329Y0155594D02*
X0314578Y0156345D01*
X0314578Y0157096D01*
X0315329Y0157846D01*
X0316830Y0157846D01*
X0317581Y0157096D01*
X0317581Y0156345D01*
X0316830Y0155594D01*
X0319182Y0155594D02*
X0322185Y0155594D01*
X0319933Y0157846D01*
X0319933Y0153343D01*
X0320852Y0149909D02*
X0322354Y0149909D01*
X0323104Y0149159D01*
X0324706Y0149159D02*
X0325456Y0149909D01*
X0327708Y0149909D01*
X0327708Y0145406D01*
X0325456Y0145406D01*
X0324706Y0146156D01*
X0324706Y0149159D01*
X0320852Y0149909D02*
X0320102Y0149159D01*
X0320102Y0148408D01*
X0323104Y0145406D01*
X0320102Y0145406D01*
X0318500Y0145406D02*
X0315498Y0145406D01*
X0316999Y0145406D02*
X0316999Y0149909D01*
X0318500Y0148408D01*
X0323786Y0153343D02*
X0325288Y0154844D01*
X0324537Y0154844D02*
X0326789Y0154844D01*
X0326789Y0153343D02*
X0326789Y0157846D01*
X0324537Y0157846D01*
X0323786Y0157096D01*
X0323786Y0155594D01*
X0324537Y0154844D01*
X0358420Y0157451D02*
X0374034Y0157451D01*
X0374034Y0188734D01*
X0358420Y0188734D01*
X0358420Y0157451D01*
X0375327Y0167593D02*
X0379831Y0167593D01*
X0379831Y0169844D01*
X0379080Y0170595D01*
X0377579Y0170595D01*
X0376828Y0169844D01*
X0376828Y0167593D01*
X0376828Y0169094D02*
X0375327Y0170595D01*
X0375327Y0172196D02*
X0378330Y0175199D01*
X0379080Y0175199D01*
X0379831Y0174448D01*
X0379831Y0172947D01*
X0379080Y0172196D01*
X0375327Y0172196D02*
X0375327Y0175199D01*
X0376078Y0176800D02*
X0375327Y0177551D01*
X0375327Y0179052D01*
X0376078Y0179803D01*
X0377579Y0179803D01*
X0378330Y0179052D01*
X0378330Y0178302D01*
X0377579Y0176800D01*
X0379831Y0176800D01*
X0379831Y0179803D01*
X0374034Y0188701D02*
X0374034Y0219984D01*
X0358420Y0219984D01*
X0358420Y0188701D01*
X0374034Y0188701D01*
X0374977Y0199031D02*
X0379481Y0199031D01*
X0379481Y0201283D01*
X0378730Y0202033D01*
X0377229Y0202033D01*
X0376478Y0201283D01*
X0376478Y0199031D01*
X0376478Y0200532D02*
X0374977Y0202033D01*
X0374977Y0203635D02*
X0377980Y0206637D01*
X0378730Y0206637D01*
X0379481Y0205887D01*
X0379481Y0204385D01*
X0378730Y0203635D01*
X0374977Y0203635D02*
X0374977Y0206637D01*
X0375728Y0208239D02*
X0374977Y0208989D01*
X0374977Y0210490D01*
X0375728Y0211241D01*
X0376478Y0211241D01*
X0377229Y0210490D01*
X0377229Y0208239D01*
X0375728Y0208239D01*
X0377229Y0208239D02*
X0378730Y0209740D01*
X0379481Y0211241D01*
X0367963Y0221754D02*
X0367963Y0234431D01*
X0348491Y0234431D01*
X0348491Y0221754D01*
X0367963Y0221754D01*
X0363788Y0235593D02*
X0362287Y0235593D01*
X0361536Y0236343D01*
X0359935Y0236343D02*
X0359184Y0235593D01*
X0357683Y0235593D01*
X0356932Y0236343D01*
X0356932Y0237094D01*
X0357683Y0237844D01*
X0358434Y0237844D01*
X0357683Y0237844D02*
X0356932Y0238595D01*
X0356932Y0239346D01*
X0357683Y0240096D01*
X0359184Y0240096D01*
X0359935Y0239346D01*
X0361536Y0239346D02*
X0362287Y0240096D01*
X0363788Y0240096D01*
X0364539Y0239346D01*
X0364539Y0236343D01*
X0363788Y0235593D01*
X0355331Y0236343D02*
X0355331Y0237094D01*
X0354580Y0237844D01*
X0353079Y0237844D01*
X0352328Y0237094D01*
X0352328Y0236343D01*
X0353079Y0235593D01*
X0354580Y0235593D01*
X0355331Y0236343D01*
X0354580Y0237844D02*
X0355331Y0238595D01*
X0355331Y0239346D01*
X0354580Y0240096D01*
X0353079Y0240096D01*
X0352328Y0239346D01*
X0352328Y0238595D01*
X0353079Y0237844D01*
X0329495Y0264722D02*
X0313959Y0264722D01*
X0313959Y0272463D01*
X0329495Y0272463D01*
X0329495Y0264722D01*
X0329495Y0272472D02*
X0329495Y0280213D01*
X0313959Y0280213D01*
X0313959Y0272472D01*
X0329495Y0272472D01*
X0329495Y0280222D02*
X0329495Y0287963D01*
X0313959Y0287963D01*
X0313959Y0280222D01*
X0329495Y0280222D01*
X0329495Y0287972D02*
X0329495Y0295713D01*
X0313959Y0295713D01*
X0313959Y0287972D01*
X0329495Y0287972D01*
X0329495Y0295722D02*
X0329495Y0303463D01*
X0313959Y0303463D01*
X0313959Y0295722D01*
X0329495Y0295722D01*
X0329495Y0303472D02*
X0329495Y0311213D01*
X0313959Y0311213D01*
X0313959Y0303472D01*
X0329495Y0303472D01*
X0329495Y0311222D02*
X0329495Y0318963D01*
X0313959Y0318963D01*
X0313959Y0311222D01*
X0329495Y0311222D01*
X0306347Y0304825D02*
X0298607Y0304825D01*
X0298607Y0320360D01*
X0306347Y0320360D01*
X0306347Y0304825D01*
X0298597Y0304825D02*
X0290857Y0304825D01*
X0290857Y0320360D01*
X0298597Y0320360D01*
X0298597Y0304825D01*
X0290847Y0304825D02*
X0290847Y0320360D01*
X0283107Y0320360D01*
X0283107Y0304825D01*
X0290847Y0304825D01*
X0277995Y0306713D02*
X0277995Y0298972D01*
X0262459Y0298972D01*
X0262459Y0306713D01*
X0277995Y0306713D01*
X0278026Y0298963D02*
X0265428Y0298963D01*
X0265428Y0292222D01*
X0278026Y0292222D01*
X0278026Y0298963D01*
X0275026Y0287963D02*
X0262428Y0287963D01*
X0262428Y0281222D01*
X0275026Y0281222D01*
X0275026Y0287963D01*
X0274495Y0279713D02*
X0258959Y0279713D01*
X0258959Y0271972D01*
X0274495Y0271972D01*
X0274495Y0279713D01*
X0274495Y0271963D02*
X0258959Y0271963D01*
X0258959Y0264222D01*
X0274495Y0264222D01*
X0274495Y0271963D01*
X0274495Y0264213D02*
X0258959Y0264213D01*
X0258959Y0256472D01*
X0274495Y0256472D01*
X0274495Y0264213D01*
X0284107Y0255860D02*
X0284107Y0240325D01*
X0291847Y0240325D01*
X0291847Y0255860D01*
X0284107Y0255860D01*
X0273227Y0240596D02*
X0270975Y0240596D01*
X0270224Y0239846D01*
X0270224Y0236843D01*
X0270975Y0236093D01*
X0273227Y0236093D01*
X0273227Y0240596D01*
X0268623Y0239095D02*
X0267122Y0240596D01*
X0267122Y0236093D01*
X0268623Y0236093D02*
X0265621Y0236093D01*
X0264019Y0236843D02*
X0263269Y0236093D01*
X0261767Y0236093D01*
X0261017Y0236843D01*
X0261017Y0237594D01*
X0261767Y0238344D01*
X0264019Y0238344D01*
X0264019Y0236843D01*
X0264019Y0238344D02*
X0262518Y0239846D01*
X0261017Y0240596D01*
X0224026Y0235963D02*
X0224026Y0229222D01*
X0211428Y0229222D01*
X0211428Y0235963D01*
X0224026Y0235963D01*
X0223597Y0240325D02*
X0215857Y0240325D01*
X0215857Y0255860D01*
X0223597Y0255860D01*
X0223597Y0240325D01*
X0240209Y0276972D02*
X0255745Y0276972D01*
X0255745Y0284713D01*
X0240209Y0284713D01*
X0240209Y0276972D01*
X0214789Y0288843D02*
X0214789Y0293346D01*
X0212537Y0293346D01*
X0211786Y0292596D01*
X0211786Y0291094D01*
X0212537Y0290344D01*
X0214789Y0290344D01*
X0213288Y0290344D02*
X0211786Y0288843D01*
X0210185Y0289593D02*
X0209434Y0288843D01*
X0207933Y0288843D01*
X0207182Y0289593D01*
X0207182Y0290344D01*
X0207933Y0291094D01*
X0208684Y0291094D01*
X0207933Y0291094D02*
X0207182Y0291845D01*
X0207182Y0292596D01*
X0207933Y0293346D01*
X0209434Y0293346D01*
X0210185Y0292596D01*
X0205581Y0293346D02*
X0205581Y0291094D01*
X0204080Y0291845D01*
X0203329Y0291845D01*
X0202578Y0291094D01*
X0202578Y0289593D01*
X0203329Y0288843D01*
X0204830Y0288843D01*
X0205581Y0289593D01*
X0205581Y0293346D02*
X0202578Y0293346D01*
X0201170Y0294451D02*
X0216784Y0294451D01*
X0216784Y0325734D01*
X0201170Y0325734D01*
X0201170Y0294451D01*
X0216920Y0294451D02*
X0232534Y0294451D01*
X0232534Y0325734D01*
X0216920Y0325734D01*
X0216920Y0294451D01*
X0233857Y0297325D02*
X0241597Y0297325D01*
X0241597Y0312860D01*
X0233857Y0312860D01*
X0233857Y0297325D01*
X0243607Y0297325D02*
X0251347Y0297325D01*
X0251347Y0312860D01*
X0243607Y0312860D01*
X0243607Y0297325D01*
X0230539Y0326593D02*
X0230539Y0331096D01*
X0228287Y0331096D01*
X0227536Y0330346D01*
X0227536Y0328844D01*
X0228287Y0328094D01*
X0230539Y0328094D01*
X0229038Y0328094D02*
X0227536Y0326593D01*
X0225935Y0327343D02*
X0225184Y0326593D01*
X0223683Y0326593D01*
X0222932Y0327343D01*
X0222932Y0328094D01*
X0223683Y0328844D01*
X0224434Y0328844D01*
X0223683Y0328844D02*
X0222932Y0329595D01*
X0222932Y0330346D01*
X0223683Y0331096D01*
X0225184Y0331096D01*
X0225935Y0330346D01*
X0221331Y0331096D02*
X0218328Y0331096D01*
X0218328Y0330346D01*
X0221331Y0327343D01*
X0221331Y0326593D01*
X0204895Y0338939D02*
X0202643Y0338939D01*
X0201893Y0339690D01*
X0201893Y0342692D01*
X0202643Y0343443D01*
X0204895Y0343443D01*
X0204895Y0338939D01*
X0200291Y0338939D02*
X0197289Y0338939D01*
X0198790Y0338939D02*
X0198790Y0343443D01*
X0200291Y0341942D01*
X0195687Y0341191D02*
X0194186Y0341942D01*
X0193435Y0341942D01*
X0192685Y0341191D01*
X0192685Y0339690D01*
X0193435Y0338939D01*
X0194937Y0338939D01*
X0195687Y0339690D01*
X0195687Y0341191D02*
X0195687Y0343443D01*
X0192685Y0343443D01*
X0184741Y0347222D02*
X0204213Y0347222D01*
X0204213Y0355963D01*
X0184741Y0355963D01*
X0184741Y0347222D01*
X0211209Y0347722D02*
X0211209Y0355463D01*
X0226745Y0355463D01*
X0226745Y0347722D01*
X0211209Y0347722D01*
X0168226Y0301096D02*
X0166725Y0301096D01*
X0165974Y0300346D01*
X0164373Y0300346D02*
X0163622Y0301096D01*
X0162121Y0301096D01*
X0161371Y0300346D01*
X0161371Y0299595D01*
X0162121Y0298844D01*
X0161371Y0298094D01*
X0161371Y0297343D01*
X0162121Y0296593D01*
X0163622Y0296593D01*
X0164373Y0297343D01*
X0165974Y0297343D02*
X0166725Y0296593D01*
X0168226Y0296593D01*
X0168977Y0297343D01*
X0168977Y0300346D01*
X0168226Y0301096D01*
X0162872Y0298844D02*
X0162121Y0298844D01*
X0159769Y0299595D02*
X0159019Y0298844D01*
X0156767Y0298844D01*
X0156767Y0297343D02*
X0156767Y0300346D01*
X0157517Y0301096D01*
X0159019Y0301096D01*
X0159769Y0300346D01*
X0159769Y0299595D01*
X0159769Y0297343D02*
X0159019Y0296593D01*
X0157517Y0296593D01*
X0156767Y0297343D01*
X0157517Y0281596D02*
X0156767Y0280846D01*
X0156767Y0280095D01*
X0157517Y0279344D01*
X0156767Y0278594D01*
X0156767Y0277843D01*
X0157517Y0277093D01*
X0159019Y0277093D01*
X0159769Y0277843D01*
X0161371Y0277843D02*
X0162121Y0277093D01*
X0163622Y0277093D01*
X0164373Y0277843D01*
X0165974Y0277843D02*
X0166725Y0277093D01*
X0168226Y0277093D01*
X0168977Y0277843D01*
X0168977Y0280846D01*
X0168226Y0281596D01*
X0166725Y0281596D01*
X0165974Y0280846D01*
X0164373Y0280846D02*
X0163622Y0281596D01*
X0162121Y0281596D01*
X0161371Y0280846D01*
X0161371Y0280095D01*
X0162121Y0279344D01*
X0161371Y0278594D01*
X0161371Y0277843D01*
X0162121Y0279344D02*
X0162872Y0279344D01*
X0159769Y0280846D02*
X0159019Y0281596D01*
X0157517Y0281596D01*
X0157517Y0279344D02*
X0158268Y0279344D01*
X0157347Y0252610D02*
X0149607Y0252610D01*
X0149607Y0237075D01*
X0157347Y0237075D01*
X0157347Y0252610D01*
X0346491Y0129713D02*
X0346491Y0120972D01*
X0365963Y0120972D01*
X0365963Y0129713D01*
X0346491Y0129713D01*
X0365959Y0128963D02*
X0365959Y0121222D01*
X0381495Y0121222D01*
X0381495Y0128963D01*
X0365959Y0128963D01*
X0380357Y0119110D02*
X0380357Y0103575D01*
X0388097Y0103575D01*
X0388097Y0119110D01*
X0380357Y0119110D01*
X0388209Y0119213D02*
X0388209Y0111472D01*
X0403745Y0111472D01*
X0403745Y0119213D01*
X0388209Y0119213D01*
X0388107Y0111360D02*
X0395847Y0111360D01*
X0395847Y0095825D01*
X0388107Y0095825D01*
X0388107Y0111360D01*
X0395857Y0111360D02*
X0403597Y0111360D01*
X0403597Y0095825D01*
X0395857Y0095825D01*
X0395857Y0111360D01*
X0379995Y0101963D02*
X0379995Y0094222D01*
X0364459Y0094222D01*
X0364459Y0101963D01*
X0379995Y0101963D01*
X0379995Y0094213D02*
X0364459Y0094213D01*
X0364459Y0086472D01*
X0379995Y0086472D01*
X0379995Y0094213D01*
X0379995Y0086463D02*
X0379995Y0078722D01*
X0364459Y0078722D01*
X0364459Y0086463D01*
X0379995Y0086463D01*
X0380026Y0078713D02*
X0367428Y0078713D01*
X0367428Y0071972D01*
X0380026Y0071972D01*
X0380026Y0078713D01*
X0410723Y0077573D02*
X0411474Y0078323D01*
X0414476Y0078323D01*
X0415227Y0077573D01*
X0415227Y0076071D01*
X0414476Y0075321D01*
X0415227Y0073719D02*
X0415227Y0070717D01*
X0415227Y0072218D02*
X0410723Y0072218D01*
X0412224Y0073719D01*
X0411474Y0075321D02*
X0410723Y0076071D01*
X0410723Y0077573D01*
X0410723Y0079891D02*
X0410723Y0081393D01*
X0410723Y0080642D02*
X0415227Y0080642D01*
X0415227Y0081393D02*
X0415227Y0079891D01*
X0355026Y0051463D02*
X0355026Y0044722D01*
X0342428Y0044722D01*
X0342428Y0051463D01*
X0355026Y0051463D01*
X0354745Y0036713D02*
X0339209Y0036713D01*
X0339209Y0028972D01*
X0354745Y0028972D01*
X0354745Y0036713D01*
X0354745Y0028963D02*
X0339209Y0028963D01*
X0339209Y0021222D01*
X0354745Y0021222D01*
X0354745Y0028963D01*
X0319343Y0028608D02*
X0316341Y0028608D01*
X0314739Y0028608D02*
X0311737Y0028608D01*
X0310135Y0028608D02*
X0307133Y0028608D01*
X0310135Y0028608D02*
X0310135Y0029359D01*
X0307133Y0032361D01*
X0307133Y0033112D01*
X0310135Y0033112D01*
X0311737Y0033112D02*
X0314739Y0033112D01*
X0314739Y0028608D01*
X0314739Y0030860D02*
X0313238Y0030860D01*
X0316341Y0033112D02*
X0319343Y0033112D01*
X0319343Y0028608D01*
X0319343Y0030860D02*
X0317842Y0030860D01*
X0300927Y0029359D02*
X0300177Y0028608D01*
X0298676Y0028608D01*
X0297925Y0029359D01*
X0296324Y0028608D02*
X0296324Y0033112D01*
X0293321Y0033112D01*
X0294822Y0030860D02*
X0296324Y0030860D01*
X0297925Y0032361D02*
X0298676Y0033112D01*
X0300177Y0033112D01*
X0300927Y0032361D01*
X0300927Y0029359D01*
X0291720Y0030860D02*
X0288717Y0030860D01*
X0287116Y0028608D02*
X0284864Y0028608D01*
X0284113Y0029359D01*
X0284113Y0032361D01*
X0284864Y0033112D01*
X0287116Y0033112D01*
X0287116Y0028608D01*
X0282512Y0028608D02*
X0281010Y0028608D01*
X0281761Y0028608D02*
X0281761Y0033112D01*
X0282512Y0033112D02*
X0281010Y0033112D01*
X0279442Y0032361D02*
X0279442Y0029359D01*
X0278692Y0028608D01*
X0277191Y0028608D01*
X0276440Y0029359D01*
X0276440Y0032361D02*
X0277191Y0033112D01*
X0278692Y0033112D01*
X0279442Y0032361D01*
X0270235Y0031611D02*
X0268733Y0033112D01*
X0270235Y0031611D02*
X0270235Y0030110D01*
X0268733Y0028608D01*
X0267165Y0028608D02*
X0264163Y0028608D01*
X0265664Y0028608D02*
X0265664Y0033112D01*
X0267165Y0031611D01*
X0262561Y0031611D02*
X0261060Y0033112D01*
X0261060Y0028608D01*
X0262561Y0028608D02*
X0259559Y0028608D01*
X0257958Y0028608D02*
X0254955Y0033112D01*
X0253354Y0032361D02*
X0252603Y0033112D01*
X0251102Y0033112D01*
X0250351Y0032361D01*
X0250351Y0031611D01*
X0253354Y0028608D01*
X0250351Y0028608D01*
X0248750Y0029359D02*
X0245747Y0032361D01*
X0245747Y0029359D01*
X0246498Y0028608D01*
X0247999Y0028608D01*
X0248750Y0029359D01*
X0248750Y0032361D01*
X0247999Y0033112D01*
X0246498Y0033112D01*
X0245747Y0032361D01*
X0244146Y0031611D02*
X0242644Y0033112D01*
X0242644Y0028608D01*
X0241143Y0028608D02*
X0244146Y0028608D01*
X0239542Y0029359D02*
X0239542Y0030110D01*
X0238791Y0030860D01*
X0237290Y0030860D01*
X0236539Y0030110D01*
X0236539Y0029359D01*
X0237290Y0028608D01*
X0238791Y0028608D01*
X0239542Y0029359D01*
X0238791Y0030860D02*
X0239542Y0031611D01*
X0239542Y0032361D01*
X0238791Y0033112D01*
X0237290Y0033112D01*
X0236539Y0032361D01*
X0236539Y0031611D01*
X0237290Y0030860D01*
X0230334Y0030110D02*
X0228833Y0031611D01*
X0228082Y0031611D01*
X0226497Y0030860D02*
X0224996Y0031611D01*
X0224245Y0031611D01*
X0223495Y0030860D01*
X0223495Y0029359D01*
X0224245Y0028608D01*
X0225747Y0028608D01*
X0226497Y0029359D01*
X0226497Y0030860D02*
X0226497Y0033112D01*
X0223495Y0033112D01*
X0221893Y0033112D02*
X0219642Y0033112D01*
X0218891Y0032361D01*
X0218891Y0031611D01*
X0219642Y0030860D01*
X0221893Y0030860D01*
X0219642Y0030860D02*
X0218891Y0030110D01*
X0218891Y0029359D01*
X0219642Y0028608D01*
X0221893Y0028608D01*
X0221893Y0033112D01*
X0217290Y0031611D02*
X0215788Y0033112D01*
X0215788Y0028608D01*
X0214287Y0028608D02*
X0217290Y0028608D01*
X0212686Y0028608D02*
X0211184Y0030110D01*
X0211184Y0031611D01*
X0212686Y0033112D01*
X0230334Y0031611D02*
X0230334Y0028608D01*
X0526085Y0159035D02*
X0526085Y0174650D01*
X0557369Y0174650D01*
X0557369Y0159035D01*
X0526085Y0159035D01*
X0536017Y0158096D02*
X0536017Y0157346D01*
X0539019Y0154343D01*
X0539019Y0153593D01*
X0540621Y0154343D02*
X0540621Y0155094D01*
X0541371Y0155844D01*
X0543623Y0155844D01*
X0543623Y0154343D01*
X0542872Y0153593D01*
X0541371Y0153593D01*
X0540621Y0154343D01*
X0543623Y0155844D02*
X0542122Y0157346D01*
X0540621Y0158096D01*
X0539019Y0158096D02*
X0536017Y0158096D01*
X0545224Y0157346D02*
X0545224Y0155844D01*
X0545975Y0155094D01*
X0548227Y0155094D01*
X0546726Y0155094D02*
X0545224Y0153593D01*
X0548227Y0153593D02*
X0548227Y0158096D01*
X0545975Y0158096D01*
X0545224Y0157346D01*
X0557369Y0174535D02*
X0526085Y0174535D01*
X0526085Y0190150D01*
X0557369Y0190150D01*
X0557369Y0174535D01*
X0564052Y0180593D02*
X0565553Y0180593D01*
X0566304Y0181343D01*
X0566304Y0182844D02*
X0564803Y0183595D01*
X0564052Y0183595D01*
X0563301Y0182844D01*
X0563301Y0181343D01*
X0564052Y0180593D01*
X0566304Y0182844D02*
X0566304Y0185096D01*
X0563301Y0185096D01*
X0567905Y0184346D02*
X0568656Y0185096D01*
X0570157Y0185096D01*
X0570908Y0184346D01*
X0570908Y0181343D01*
X0570157Y0180593D01*
X0568656Y0180593D01*
X0567905Y0181343D01*
X0572476Y0180593D02*
X0573977Y0180593D01*
X0573226Y0180593D02*
X0573226Y0185096D01*
X0572476Y0185096D02*
X0573977Y0185096D01*
X0596357Y0190860D02*
X0596357Y0175325D01*
X0604097Y0175325D01*
X0604097Y0190860D01*
X0596357Y0190860D01*
X0597857Y0198825D02*
X0605597Y0198825D01*
X0605597Y0214360D01*
X0597857Y0214360D01*
X0597857Y0198825D01*
X0594597Y0201793D02*
X0587857Y0201793D01*
X0587857Y0214392D01*
X0594597Y0214392D01*
X0594597Y0201793D01*
X0587847Y0201856D02*
X0578607Y0201856D01*
X0578607Y0221329D01*
X0587847Y0221329D01*
X0587847Y0201856D01*
X0575097Y0200075D02*
X0575097Y0215610D01*
X0567357Y0215610D01*
X0567357Y0200075D01*
X0575097Y0200075D01*
X0548227Y0195596D02*
X0548227Y0191093D01*
X0548227Y0192594D02*
X0545975Y0192594D01*
X0545224Y0193344D01*
X0545224Y0194846D01*
X0545975Y0195596D01*
X0548227Y0195596D01*
X0546726Y0192594D02*
X0545224Y0191093D01*
X0543623Y0191843D02*
X0542872Y0191093D01*
X0541371Y0191093D01*
X0540621Y0191843D01*
X0540621Y0192594D01*
X0541371Y0193344D01*
X0543623Y0193344D01*
X0543623Y0191843D01*
X0543623Y0193344D02*
X0542122Y0194846D01*
X0540621Y0195596D01*
X0539019Y0194846D02*
X0539019Y0194095D01*
X0538269Y0193344D01*
X0536767Y0193344D01*
X0536017Y0192594D01*
X0536017Y0191843D01*
X0536767Y0191093D01*
X0538269Y0191093D01*
X0539019Y0191843D01*
X0539019Y0192594D01*
X0538269Y0193344D01*
X0536767Y0193344D02*
X0536017Y0194095D01*
X0536017Y0194846D01*
X0536767Y0195596D01*
X0538269Y0195596D01*
X0539019Y0194846D01*
X0542328Y0221593D02*
X0545331Y0221593D01*
X0543830Y0221593D02*
X0543830Y0226096D01*
X0545331Y0224595D01*
X0546932Y0223094D02*
X0547683Y0223844D01*
X0549935Y0223844D01*
X0549935Y0222343D01*
X0549184Y0221593D01*
X0547683Y0221593D01*
X0546932Y0222343D01*
X0546932Y0223094D01*
X0548434Y0225346D02*
X0549935Y0223844D01*
X0551536Y0223844D02*
X0552287Y0223094D01*
X0554539Y0223094D01*
X0553038Y0223094D02*
X0551536Y0221593D01*
X0551536Y0223844D02*
X0551536Y0225346D01*
X0552287Y0226096D01*
X0554539Y0226096D01*
X0554539Y0221593D01*
X0548434Y0225346D02*
X0546932Y0226096D01*
X0531585Y0227035D02*
X0562869Y0227035D01*
X0562869Y0242650D01*
X0531585Y0242650D01*
X0531585Y0227035D01*
X0531585Y0242785D02*
X0531585Y0258400D01*
X0562869Y0258400D01*
X0562869Y0242785D01*
X0531585Y0242785D01*
X0540828Y0259593D02*
X0543831Y0259593D01*
X0540828Y0262595D01*
X0540828Y0263346D01*
X0541579Y0264096D01*
X0543080Y0264096D01*
X0543831Y0263346D01*
X0545432Y0264096D02*
X0546934Y0263346D01*
X0548435Y0261844D01*
X0546183Y0261844D01*
X0545432Y0261094D01*
X0545432Y0260343D01*
X0546183Y0259593D01*
X0547684Y0259593D01*
X0548435Y0260343D01*
X0548435Y0261844D01*
X0550036Y0261844D02*
X0550787Y0261094D01*
X0553039Y0261094D01*
X0551538Y0261094D02*
X0550036Y0259593D01*
X0550036Y0261844D02*
X0550036Y0263346D01*
X0550787Y0264096D01*
X0553039Y0264096D01*
X0553039Y0259593D01*
X0591241Y0235463D02*
X0591241Y0226222D01*
X0610713Y0226222D01*
X0610713Y0235463D01*
X0591241Y0235463D01*
X0594578Y0240096D02*
X0597581Y0237093D01*
X0597581Y0236343D01*
X0599182Y0237093D02*
X0599933Y0236343D01*
X0601434Y0236343D01*
X0602185Y0237093D01*
X0602185Y0238594D02*
X0600684Y0239345D01*
X0599933Y0239345D01*
X0599182Y0238594D01*
X0599182Y0237093D01*
X0602185Y0238594D02*
X0602185Y0240846D01*
X0599182Y0240846D01*
X0597581Y0240846D02*
X0594578Y0240846D01*
X0594578Y0240096D01*
X0603786Y0240096D02*
X0604537Y0240846D01*
X0606038Y0240846D01*
X0606789Y0240096D01*
X0606789Y0237093D01*
X0606038Y0236343D01*
X0604537Y0236343D01*
X0603786Y0237093D01*
X0610741Y0237181D02*
X0610741Y0224504D01*
X0630213Y0224504D01*
X0630213Y0237181D01*
X0610741Y0237181D01*
X0613578Y0238593D02*
X0614329Y0237843D01*
X0615830Y0237843D01*
X0616581Y0238593D01*
X0613578Y0241596D01*
X0613578Y0238593D01*
X0613578Y0241596D02*
X0614329Y0242346D01*
X0615830Y0242346D01*
X0616581Y0241596D01*
X0616581Y0238593D01*
X0618182Y0238593D02*
X0618182Y0239344D01*
X0618933Y0240094D01*
X0621185Y0240094D01*
X0621185Y0238593D01*
X0620434Y0237843D01*
X0618933Y0237843D01*
X0618182Y0238593D01*
X0619684Y0241596D02*
X0621185Y0240094D01*
X0622786Y0240094D02*
X0623537Y0239344D01*
X0625789Y0239344D01*
X0624288Y0239344D02*
X0622786Y0237843D01*
X0622786Y0240094D02*
X0622786Y0241596D01*
X0623537Y0242346D01*
X0625789Y0242346D01*
X0625789Y0237843D01*
X0619684Y0241596D02*
X0618182Y0242346D01*
X0620107Y0250325D02*
X0627847Y0250325D01*
X0627847Y0265860D01*
X0620107Y0265860D01*
X0620107Y0250325D01*
X0616347Y0294106D02*
X0607107Y0294106D01*
X0607107Y0313579D01*
X0616347Y0313579D01*
X0616347Y0294106D01*
X0538847Y0339325D02*
X0538847Y0354860D01*
X0531107Y0354860D01*
X0531107Y0339325D01*
X0538847Y0339325D01*
X0531097Y0339325D02*
X0523357Y0339325D01*
X0523357Y0354860D01*
X0531097Y0354860D01*
X0531097Y0339325D01*
X0530526Y0337213D02*
X0517928Y0337213D01*
X0517928Y0330472D01*
X0530526Y0330472D01*
X0530526Y0337213D01*
X0513745Y0337213D02*
X0513745Y0329472D01*
X0498209Y0329472D01*
X0498209Y0337213D01*
X0513745Y0337213D01*
X0492597Y0335575D02*
X0484857Y0335575D01*
X0484857Y0351110D01*
X0492597Y0351110D01*
X0492597Y0335575D01*
X0492495Y0335463D02*
X0476959Y0335463D01*
X0476959Y0327722D01*
X0492495Y0327722D01*
X0492495Y0335463D01*
X0484847Y0335575D02*
X0477107Y0335575D01*
X0477107Y0351110D01*
X0484847Y0351110D01*
X0484847Y0335575D01*
X0476847Y0327856D02*
X0468107Y0327856D01*
X0468107Y0347329D01*
X0476847Y0347329D01*
X0476847Y0327856D01*
X0473727Y0326093D02*
X0471227Y0326093D01*
X0472477Y0324843D02*
X0472477Y0327343D01*
X0464847Y0327825D02*
X0457107Y0327825D01*
X0457107Y0343360D01*
X0464847Y0343360D01*
X0464847Y0327825D01*
X0457245Y0335722D02*
X0457245Y0343463D01*
X0441709Y0343463D01*
X0441709Y0335722D01*
X0457245Y0335722D01*
X0457107Y0343325D02*
X0464847Y0343325D01*
X0464847Y0358860D01*
X0457107Y0358860D01*
X0457107Y0343325D01*
X0457097Y0343325D02*
X0457097Y0358860D01*
X0449357Y0358860D01*
X0449357Y0343325D01*
X0457097Y0343325D01*
X0449347Y0343325D02*
X0441607Y0343325D01*
X0441607Y0358860D01*
X0449347Y0358860D01*
X0449347Y0343325D01*
X0436847Y0343575D02*
X0429107Y0343575D01*
X0429107Y0359110D01*
X0436847Y0359110D01*
X0436847Y0343575D01*
X0427847Y0342543D02*
X0427847Y0355142D01*
X0421107Y0355142D01*
X0421107Y0342543D01*
X0427847Y0342543D01*
X0440857Y0328110D02*
X0448597Y0328110D01*
X0448597Y0312575D01*
X0440857Y0312575D01*
X0440857Y0328110D01*
X0440857Y0312610D02*
X0448597Y0312610D01*
X0448597Y0297075D01*
X0440857Y0297075D01*
X0440857Y0312610D01*
X0397245Y0324972D02*
X0397245Y0332713D01*
X0381709Y0332713D01*
X0381709Y0324972D01*
X0397245Y0324972D01*
X0397245Y0335222D02*
X0381709Y0335222D01*
X0381709Y0342963D01*
X0397245Y0342963D01*
X0397245Y0335222D01*
X0397245Y0342972D02*
X0381709Y0342972D01*
X0381709Y0350713D01*
X0397245Y0350713D01*
X0397245Y0342972D01*
X0397245Y0353722D02*
X0381709Y0353722D01*
X0381709Y0361463D01*
X0397245Y0361463D01*
X0397245Y0353722D01*
X0479928Y0351222D02*
X0492526Y0351222D01*
X0492526Y0357963D01*
X0479928Y0357963D01*
X0479928Y0351222D01*
X0615241Y0184963D02*
X0615241Y0175722D01*
X0634713Y0175722D01*
X0634713Y0184963D01*
X0615241Y0184963D01*
X0615241Y0173713D02*
X0615241Y0164472D01*
X0634713Y0164472D01*
X0634713Y0173713D01*
X0615241Y0173713D01*
X0621713Y0160963D02*
X0602241Y0160963D01*
X0602241Y0151722D01*
X0621713Y0151722D01*
X0621713Y0160963D01*
X0601227Y0157596D02*
X0601227Y0154593D01*
X0600476Y0153843D01*
X0598975Y0153843D01*
X0598224Y0154593D01*
X0596623Y0154593D02*
X0595872Y0153843D01*
X0594371Y0153843D01*
X0593621Y0154593D01*
X0593621Y0156094D01*
X0594371Y0156845D01*
X0595122Y0156845D01*
X0596623Y0156094D01*
X0596623Y0158346D01*
X0593621Y0158346D01*
X0592019Y0156094D02*
X0589767Y0156094D01*
X0589017Y0155344D01*
X0589017Y0154593D01*
X0589767Y0153843D01*
X0591269Y0153843D01*
X0592019Y0154593D01*
X0592019Y0156094D01*
X0590518Y0157596D01*
X0589017Y0158346D01*
X0579347Y0151825D02*
X0571607Y0151825D01*
X0571607Y0167360D01*
X0579347Y0167360D01*
X0579347Y0151825D01*
X0598224Y0157596D02*
X0598975Y0158346D01*
X0600476Y0158346D01*
X0601227Y0157596D01*
X0602241Y0141963D02*
X0602241Y0132722D01*
X0621713Y0132722D01*
X0621713Y0141963D01*
X0602241Y0141963D01*
X0600476Y0138846D02*
X0601227Y0138096D01*
X0601227Y0135093D01*
X0600476Y0134343D01*
X0598975Y0134343D01*
X0598224Y0135093D01*
X0596623Y0135093D02*
X0595872Y0134343D01*
X0594371Y0134343D01*
X0593621Y0135093D01*
X0593621Y0136594D01*
X0594371Y0137345D01*
X0595122Y0137345D01*
X0596623Y0136594D01*
X0596623Y0138846D01*
X0593621Y0138846D01*
X0592019Y0138846D02*
X0592019Y0136594D01*
X0590518Y0137345D01*
X0589767Y0137345D01*
X0589017Y0136594D01*
X0589017Y0135093D01*
X0589767Y0134343D01*
X0591269Y0134343D01*
X0592019Y0135093D01*
X0592019Y0138846D02*
X0589017Y0138846D01*
X0598224Y0138096D02*
X0598975Y0138846D01*
X0600476Y0138846D01*
D11*
X0610227Y0106843D02*
X0610229Y0106887D01*
X0610235Y0106931D01*
X0610245Y0106974D01*
X0610258Y0107016D01*
X0610275Y0107057D01*
X0610296Y0107096D01*
X0610320Y0107133D01*
X0610347Y0107168D01*
X0610377Y0107200D01*
X0610410Y0107230D01*
X0610446Y0107256D01*
X0610483Y0107280D01*
X0610523Y0107299D01*
X0610564Y0107316D01*
X0610607Y0107328D01*
X0610650Y0107337D01*
X0610694Y0107342D01*
X0610738Y0107343D01*
X0610782Y0107340D01*
X0610826Y0107333D01*
X0610869Y0107322D01*
X0610911Y0107308D01*
X0610951Y0107290D01*
X0610990Y0107268D01*
X0611026Y0107244D01*
X0611060Y0107216D01*
X0611092Y0107185D01*
X0611121Y0107151D01*
X0611147Y0107115D01*
X0611169Y0107077D01*
X0611188Y0107037D01*
X0611203Y0106995D01*
X0611215Y0106953D01*
X0611223Y0106909D01*
X0611227Y0106865D01*
X0611227Y0106821D01*
X0611223Y0106777D01*
X0611215Y0106733D01*
X0611203Y0106691D01*
X0611188Y0106649D01*
X0611169Y0106609D01*
X0611147Y0106571D01*
X0611121Y0106535D01*
X0611092Y0106501D01*
X0611060Y0106470D01*
X0611026Y0106442D01*
X0610990Y0106418D01*
X0610951Y0106396D01*
X0610911Y0106378D01*
X0610869Y0106364D01*
X0610826Y0106353D01*
X0610782Y0106346D01*
X0610738Y0106343D01*
X0610694Y0106344D01*
X0610650Y0106349D01*
X0610607Y0106358D01*
X0610564Y0106370D01*
X0610523Y0106387D01*
X0610483Y0106406D01*
X0610446Y0106430D01*
X0610410Y0106456D01*
X0610377Y0106486D01*
X0610347Y0106518D01*
X0610320Y0106553D01*
X0610296Y0106590D01*
X0610275Y0106629D01*
X0610258Y0106670D01*
X0610245Y0106712D01*
X0610235Y0106755D01*
X0610229Y0106799D01*
X0610227Y0106843D01*
X0610227Y0100843D02*
X0610229Y0100887D01*
X0610235Y0100931D01*
X0610245Y0100974D01*
X0610258Y0101016D01*
X0610275Y0101057D01*
X0610296Y0101096D01*
X0610320Y0101133D01*
X0610347Y0101168D01*
X0610377Y0101200D01*
X0610410Y0101230D01*
X0610446Y0101256D01*
X0610483Y0101280D01*
X0610523Y0101299D01*
X0610564Y0101316D01*
X0610607Y0101328D01*
X0610650Y0101337D01*
X0610694Y0101342D01*
X0610738Y0101343D01*
X0610782Y0101340D01*
X0610826Y0101333D01*
X0610869Y0101322D01*
X0610911Y0101308D01*
X0610951Y0101290D01*
X0610990Y0101268D01*
X0611026Y0101244D01*
X0611060Y0101216D01*
X0611092Y0101185D01*
X0611121Y0101151D01*
X0611147Y0101115D01*
X0611169Y0101077D01*
X0611188Y0101037D01*
X0611203Y0100995D01*
X0611215Y0100953D01*
X0611223Y0100909D01*
X0611227Y0100865D01*
X0611227Y0100821D01*
X0611223Y0100777D01*
X0611215Y0100733D01*
X0611203Y0100691D01*
X0611188Y0100649D01*
X0611169Y0100609D01*
X0611147Y0100571D01*
X0611121Y0100535D01*
X0611092Y0100501D01*
X0611060Y0100470D01*
X0611026Y0100442D01*
X0610990Y0100418D01*
X0610951Y0100396D01*
X0610911Y0100378D01*
X0610869Y0100364D01*
X0610826Y0100353D01*
X0610782Y0100346D01*
X0610738Y0100343D01*
X0610694Y0100344D01*
X0610650Y0100349D01*
X0610607Y0100358D01*
X0610564Y0100370D01*
X0610523Y0100387D01*
X0610483Y0100406D01*
X0610446Y0100430D01*
X0610410Y0100456D01*
X0610377Y0100486D01*
X0610347Y0100518D01*
X0610320Y0100553D01*
X0610296Y0100590D01*
X0610275Y0100629D01*
X0610258Y0100670D01*
X0610245Y0100712D01*
X0610235Y0100755D01*
X0610229Y0100799D01*
X0610227Y0100843D01*
X0610227Y0094843D02*
X0610229Y0094887D01*
X0610235Y0094931D01*
X0610245Y0094974D01*
X0610258Y0095016D01*
X0610275Y0095057D01*
X0610296Y0095096D01*
X0610320Y0095133D01*
X0610347Y0095168D01*
X0610377Y0095200D01*
X0610410Y0095230D01*
X0610446Y0095256D01*
X0610483Y0095280D01*
X0610523Y0095299D01*
X0610564Y0095316D01*
X0610607Y0095328D01*
X0610650Y0095337D01*
X0610694Y0095342D01*
X0610738Y0095343D01*
X0610782Y0095340D01*
X0610826Y0095333D01*
X0610869Y0095322D01*
X0610911Y0095308D01*
X0610951Y0095290D01*
X0610990Y0095268D01*
X0611026Y0095244D01*
X0611060Y0095216D01*
X0611092Y0095185D01*
X0611121Y0095151D01*
X0611147Y0095115D01*
X0611169Y0095077D01*
X0611188Y0095037D01*
X0611203Y0094995D01*
X0611215Y0094953D01*
X0611223Y0094909D01*
X0611227Y0094865D01*
X0611227Y0094821D01*
X0611223Y0094777D01*
X0611215Y0094733D01*
X0611203Y0094691D01*
X0611188Y0094649D01*
X0611169Y0094609D01*
X0611147Y0094571D01*
X0611121Y0094535D01*
X0611092Y0094501D01*
X0611060Y0094470D01*
X0611026Y0094442D01*
X0610990Y0094418D01*
X0610951Y0094396D01*
X0610911Y0094378D01*
X0610869Y0094364D01*
X0610826Y0094353D01*
X0610782Y0094346D01*
X0610738Y0094343D01*
X0610694Y0094344D01*
X0610650Y0094349D01*
X0610607Y0094358D01*
X0610564Y0094370D01*
X0610523Y0094387D01*
X0610483Y0094406D01*
X0610446Y0094430D01*
X0610410Y0094456D01*
X0610377Y0094486D01*
X0610347Y0094518D01*
X0610320Y0094553D01*
X0610296Y0094590D01*
X0610275Y0094629D01*
X0610258Y0094670D01*
X0610245Y0094712D01*
X0610235Y0094755D01*
X0610229Y0094799D01*
X0610227Y0094843D01*
X0610227Y0088843D02*
X0610229Y0088887D01*
X0610235Y0088931D01*
X0610245Y0088974D01*
X0610258Y0089016D01*
X0610275Y0089057D01*
X0610296Y0089096D01*
X0610320Y0089133D01*
X0610347Y0089168D01*
X0610377Y0089200D01*
X0610410Y0089230D01*
X0610446Y0089256D01*
X0610483Y0089280D01*
X0610523Y0089299D01*
X0610564Y0089316D01*
X0610607Y0089328D01*
X0610650Y0089337D01*
X0610694Y0089342D01*
X0610738Y0089343D01*
X0610782Y0089340D01*
X0610826Y0089333D01*
X0610869Y0089322D01*
X0610911Y0089308D01*
X0610951Y0089290D01*
X0610990Y0089268D01*
X0611026Y0089244D01*
X0611060Y0089216D01*
X0611092Y0089185D01*
X0611121Y0089151D01*
X0611147Y0089115D01*
X0611169Y0089077D01*
X0611188Y0089037D01*
X0611203Y0088995D01*
X0611215Y0088953D01*
X0611223Y0088909D01*
X0611227Y0088865D01*
X0611227Y0088821D01*
X0611223Y0088777D01*
X0611215Y0088733D01*
X0611203Y0088691D01*
X0611188Y0088649D01*
X0611169Y0088609D01*
X0611147Y0088571D01*
X0611121Y0088535D01*
X0611092Y0088501D01*
X0611060Y0088470D01*
X0611026Y0088442D01*
X0610990Y0088418D01*
X0610951Y0088396D01*
X0610911Y0088378D01*
X0610869Y0088364D01*
X0610826Y0088353D01*
X0610782Y0088346D01*
X0610738Y0088343D01*
X0610694Y0088344D01*
X0610650Y0088349D01*
X0610607Y0088358D01*
X0610564Y0088370D01*
X0610523Y0088387D01*
X0610483Y0088406D01*
X0610446Y0088430D01*
X0610410Y0088456D01*
X0610377Y0088486D01*
X0610347Y0088518D01*
X0610320Y0088553D01*
X0610296Y0088590D01*
X0610275Y0088629D01*
X0610258Y0088670D01*
X0610245Y0088712D01*
X0610235Y0088755D01*
X0610229Y0088799D01*
X0610227Y0088843D01*
X0610227Y0082843D02*
X0610229Y0082887D01*
X0610235Y0082931D01*
X0610245Y0082974D01*
X0610258Y0083016D01*
X0610275Y0083057D01*
X0610296Y0083096D01*
X0610320Y0083133D01*
X0610347Y0083168D01*
X0610377Y0083200D01*
X0610410Y0083230D01*
X0610446Y0083256D01*
X0610483Y0083280D01*
X0610523Y0083299D01*
X0610564Y0083316D01*
X0610607Y0083328D01*
X0610650Y0083337D01*
X0610694Y0083342D01*
X0610738Y0083343D01*
X0610782Y0083340D01*
X0610826Y0083333D01*
X0610869Y0083322D01*
X0610911Y0083308D01*
X0610951Y0083290D01*
X0610990Y0083268D01*
X0611026Y0083244D01*
X0611060Y0083216D01*
X0611092Y0083185D01*
X0611121Y0083151D01*
X0611147Y0083115D01*
X0611169Y0083077D01*
X0611188Y0083037D01*
X0611203Y0082995D01*
X0611215Y0082953D01*
X0611223Y0082909D01*
X0611227Y0082865D01*
X0611227Y0082821D01*
X0611223Y0082777D01*
X0611215Y0082733D01*
X0611203Y0082691D01*
X0611188Y0082649D01*
X0611169Y0082609D01*
X0611147Y0082571D01*
X0611121Y0082535D01*
X0611092Y0082501D01*
X0611060Y0082470D01*
X0611026Y0082442D01*
X0610990Y0082418D01*
X0610951Y0082396D01*
X0610911Y0082378D01*
X0610869Y0082364D01*
X0610826Y0082353D01*
X0610782Y0082346D01*
X0610738Y0082343D01*
X0610694Y0082344D01*
X0610650Y0082349D01*
X0610607Y0082358D01*
X0610564Y0082370D01*
X0610523Y0082387D01*
X0610483Y0082406D01*
X0610446Y0082430D01*
X0610410Y0082456D01*
X0610377Y0082486D01*
X0610347Y0082518D01*
X0610320Y0082553D01*
X0610296Y0082590D01*
X0610275Y0082629D01*
X0610258Y0082670D01*
X0610245Y0082712D01*
X0610235Y0082755D01*
X0610229Y0082799D01*
X0610227Y0082843D01*
X0610227Y0076843D02*
X0610229Y0076887D01*
X0610235Y0076931D01*
X0610245Y0076974D01*
X0610258Y0077016D01*
X0610275Y0077057D01*
X0610296Y0077096D01*
X0610320Y0077133D01*
X0610347Y0077168D01*
X0610377Y0077200D01*
X0610410Y0077230D01*
X0610446Y0077256D01*
X0610483Y0077280D01*
X0610523Y0077299D01*
X0610564Y0077316D01*
X0610607Y0077328D01*
X0610650Y0077337D01*
X0610694Y0077342D01*
X0610738Y0077343D01*
X0610782Y0077340D01*
X0610826Y0077333D01*
X0610869Y0077322D01*
X0610911Y0077308D01*
X0610951Y0077290D01*
X0610990Y0077268D01*
X0611026Y0077244D01*
X0611060Y0077216D01*
X0611092Y0077185D01*
X0611121Y0077151D01*
X0611147Y0077115D01*
X0611169Y0077077D01*
X0611188Y0077037D01*
X0611203Y0076995D01*
X0611215Y0076953D01*
X0611223Y0076909D01*
X0611227Y0076865D01*
X0611227Y0076821D01*
X0611223Y0076777D01*
X0611215Y0076733D01*
X0611203Y0076691D01*
X0611188Y0076649D01*
X0611169Y0076609D01*
X0611147Y0076571D01*
X0611121Y0076535D01*
X0611092Y0076501D01*
X0611060Y0076470D01*
X0611026Y0076442D01*
X0610990Y0076418D01*
X0610951Y0076396D01*
X0610911Y0076378D01*
X0610869Y0076364D01*
X0610826Y0076353D01*
X0610782Y0076346D01*
X0610738Y0076343D01*
X0610694Y0076344D01*
X0610650Y0076349D01*
X0610607Y0076358D01*
X0610564Y0076370D01*
X0610523Y0076387D01*
X0610483Y0076406D01*
X0610446Y0076430D01*
X0610410Y0076456D01*
X0610377Y0076486D01*
X0610347Y0076518D01*
X0610320Y0076553D01*
X0610296Y0076590D01*
X0610275Y0076629D01*
X0610258Y0076670D01*
X0610245Y0076712D01*
X0610235Y0076755D01*
X0610229Y0076799D01*
X0610227Y0076843D01*
X0610227Y0070843D02*
X0610229Y0070887D01*
X0610235Y0070931D01*
X0610245Y0070974D01*
X0610258Y0071016D01*
X0610275Y0071057D01*
X0610296Y0071096D01*
X0610320Y0071133D01*
X0610347Y0071168D01*
X0610377Y0071200D01*
X0610410Y0071230D01*
X0610446Y0071256D01*
X0610483Y0071280D01*
X0610523Y0071299D01*
X0610564Y0071316D01*
X0610607Y0071328D01*
X0610650Y0071337D01*
X0610694Y0071342D01*
X0610738Y0071343D01*
X0610782Y0071340D01*
X0610826Y0071333D01*
X0610869Y0071322D01*
X0610911Y0071308D01*
X0610951Y0071290D01*
X0610990Y0071268D01*
X0611026Y0071244D01*
X0611060Y0071216D01*
X0611092Y0071185D01*
X0611121Y0071151D01*
X0611147Y0071115D01*
X0611169Y0071077D01*
X0611188Y0071037D01*
X0611203Y0070995D01*
X0611215Y0070953D01*
X0611223Y0070909D01*
X0611227Y0070865D01*
X0611227Y0070821D01*
X0611223Y0070777D01*
X0611215Y0070733D01*
X0611203Y0070691D01*
X0611188Y0070649D01*
X0611169Y0070609D01*
X0611147Y0070571D01*
X0611121Y0070535D01*
X0611092Y0070501D01*
X0611060Y0070470D01*
X0611026Y0070442D01*
X0610990Y0070418D01*
X0610951Y0070396D01*
X0610911Y0070378D01*
X0610869Y0070364D01*
X0610826Y0070353D01*
X0610782Y0070346D01*
X0610738Y0070343D01*
X0610694Y0070344D01*
X0610650Y0070349D01*
X0610607Y0070358D01*
X0610564Y0070370D01*
X0610523Y0070387D01*
X0610483Y0070406D01*
X0610446Y0070430D01*
X0610410Y0070456D01*
X0610377Y0070486D01*
X0610347Y0070518D01*
X0610320Y0070553D01*
X0610296Y0070590D01*
X0610275Y0070629D01*
X0610258Y0070670D01*
X0610245Y0070712D01*
X0610235Y0070755D01*
X0610229Y0070799D01*
X0610227Y0070843D01*
X0610227Y0064843D02*
X0610229Y0064887D01*
X0610235Y0064931D01*
X0610245Y0064974D01*
X0610258Y0065016D01*
X0610275Y0065057D01*
X0610296Y0065096D01*
X0610320Y0065133D01*
X0610347Y0065168D01*
X0610377Y0065200D01*
X0610410Y0065230D01*
X0610446Y0065256D01*
X0610483Y0065280D01*
X0610523Y0065299D01*
X0610564Y0065316D01*
X0610607Y0065328D01*
X0610650Y0065337D01*
X0610694Y0065342D01*
X0610738Y0065343D01*
X0610782Y0065340D01*
X0610826Y0065333D01*
X0610869Y0065322D01*
X0610911Y0065308D01*
X0610951Y0065290D01*
X0610990Y0065268D01*
X0611026Y0065244D01*
X0611060Y0065216D01*
X0611092Y0065185D01*
X0611121Y0065151D01*
X0611147Y0065115D01*
X0611169Y0065077D01*
X0611188Y0065037D01*
X0611203Y0064995D01*
X0611215Y0064953D01*
X0611223Y0064909D01*
X0611227Y0064865D01*
X0611227Y0064821D01*
X0611223Y0064777D01*
X0611215Y0064733D01*
X0611203Y0064691D01*
X0611188Y0064649D01*
X0611169Y0064609D01*
X0611147Y0064571D01*
X0611121Y0064535D01*
X0611092Y0064501D01*
X0611060Y0064470D01*
X0611026Y0064442D01*
X0610990Y0064418D01*
X0610951Y0064396D01*
X0610911Y0064378D01*
X0610869Y0064364D01*
X0610826Y0064353D01*
X0610782Y0064346D01*
X0610738Y0064343D01*
X0610694Y0064344D01*
X0610650Y0064349D01*
X0610607Y0064358D01*
X0610564Y0064370D01*
X0610523Y0064387D01*
X0610483Y0064406D01*
X0610446Y0064430D01*
X0610410Y0064456D01*
X0610377Y0064486D01*
X0610347Y0064518D01*
X0610320Y0064553D01*
X0610296Y0064590D01*
X0610275Y0064629D01*
X0610258Y0064670D01*
X0610245Y0064712D01*
X0610235Y0064755D01*
X0610229Y0064799D01*
X0610227Y0064843D01*
X0201674Y0330837D02*
X0201674Y0336348D01*
X0196753Y0333593D01*
X0201674Y0330837D01*
X0201727Y0333593D02*
X0204227Y0333593D01*
X0196477Y0333593D02*
X0193977Y0333593D01*
D12*
X0048113Y0067513D02*
X0044777Y0067513D01*
X0047279Y0067513D02*
X0047279Y0070849D01*
X0048113Y0070849D02*
X0044777Y0070849D01*
X0045611Y0072669D02*
X0044777Y0073503D01*
X0044777Y0075171D01*
X0045611Y0076005D01*
X0045611Y0072669D02*
X0048947Y0072669D01*
X0049781Y0073503D01*
X0049781Y0075171D01*
X0048947Y0076005D01*
X0048113Y0082982D02*
X0048113Y0083816D01*
X0044777Y0083816D01*
X0044777Y0082982D02*
X0044777Y0084650D01*
X0044777Y0086419D02*
X0048113Y0086419D01*
X0048113Y0088922D01*
X0047279Y0089756D01*
X0044777Y0089756D01*
X0049781Y0083816D02*
X0050615Y0083816D01*
X0048113Y0070849D02*
X0049781Y0069181D01*
X0048113Y0067513D01*
X0162977Y0143343D02*
X0165227Y0144843D01*
X0162977Y0146343D01*
X0162977Y0143343D01*
X0162977Y0143916D02*
X0163838Y0143916D01*
X0162977Y0144515D02*
X0164736Y0144515D01*
X0164821Y0145114D02*
X0162977Y0145114D01*
X0162977Y0145712D02*
X0163923Y0145712D01*
X0163025Y0146311D02*
X0162977Y0146311D01*
X0204227Y0167843D02*
X0206477Y0169343D01*
X0206477Y0166343D01*
X0204227Y0167843D01*
X0204249Y0167857D02*
X0206477Y0167857D01*
X0206477Y0168455D02*
X0205146Y0168455D01*
X0206044Y0169054D02*
X0206477Y0169054D01*
X0206477Y0167258D02*
X0205103Y0167258D01*
X0206001Y0166660D02*
X0206477Y0166660D01*
X0204677Y0171843D02*
X0204677Y0210843D01*
X0199427Y0210843D01*
X0199425Y0210774D01*
X0199419Y0210706D01*
X0199409Y0210638D01*
X0199396Y0210571D01*
X0199378Y0210505D01*
X0199357Y0210440D01*
X0199332Y0210376D01*
X0199304Y0210314D01*
X0199272Y0210253D01*
X0199237Y0210194D01*
X0199198Y0210138D01*
X0199156Y0210083D01*
X0199111Y0210032D01*
X0199063Y0209982D01*
X0199013Y0209936D01*
X0198960Y0209893D01*
X0198904Y0209852D01*
X0198847Y0209815D01*
X0198787Y0209782D01*
X0198725Y0209751D01*
X0198662Y0209725D01*
X0198598Y0209702D01*
X0198532Y0209682D01*
X0198465Y0209667D01*
X0198398Y0209655D01*
X0198330Y0209647D01*
X0198261Y0209643D01*
X0198193Y0209643D01*
X0198124Y0209647D01*
X0198056Y0209655D01*
X0197989Y0209667D01*
X0197922Y0209682D01*
X0197856Y0209702D01*
X0197792Y0209725D01*
X0197729Y0209751D01*
X0197667Y0209782D01*
X0197607Y0209815D01*
X0197550Y0209852D01*
X0197494Y0209893D01*
X0197441Y0209936D01*
X0197391Y0209982D01*
X0197343Y0210032D01*
X0197298Y0210083D01*
X0197256Y0210138D01*
X0197217Y0210194D01*
X0197182Y0210253D01*
X0197150Y0210314D01*
X0197122Y0210376D01*
X0197097Y0210440D01*
X0197076Y0210505D01*
X0197058Y0210571D01*
X0197045Y0210638D01*
X0197035Y0210706D01*
X0197029Y0210774D01*
X0197027Y0210843D01*
X0191777Y0210843D01*
X0191777Y0171843D01*
X0204677Y0171843D01*
X0199977Y0206343D02*
X0203477Y0208843D01*
X0199977Y0208843D01*
X0199977Y0206343D01*
X0199977Y0206760D02*
X0200562Y0206760D01*
X0199977Y0207359D02*
X0201400Y0207359D01*
X0202238Y0207957D02*
X0199977Y0207957D01*
X0199977Y0208556D02*
X0203076Y0208556D01*
X0160727Y0243093D02*
X0159227Y0245343D01*
X0162227Y0245343D01*
X0160727Y0243093D01*
X0160609Y0243269D02*
X0160845Y0243269D01*
X0161244Y0243868D02*
X0160210Y0243868D01*
X0159811Y0244466D02*
X0161643Y0244466D01*
X0162042Y0245065D02*
X0159412Y0245065D01*
X0286927Y0277093D02*
X0294527Y0277093D01*
X0294529Y0277162D01*
X0294535Y0277230D01*
X0294545Y0277298D01*
X0294558Y0277365D01*
X0294576Y0277431D01*
X0294597Y0277496D01*
X0294622Y0277560D01*
X0294650Y0277622D01*
X0294682Y0277683D01*
X0294717Y0277742D01*
X0294756Y0277798D01*
X0294798Y0277853D01*
X0294843Y0277904D01*
X0294891Y0277954D01*
X0294941Y0278000D01*
X0294994Y0278043D01*
X0295050Y0278084D01*
X0295107Y0278121D01*
X0295167Y0278154D01*
X0295229Y0278185D01*
X0295292Y0278211D01*
X0295356Y0278234D01*
X0295422Y0278254D01*
X0295489Y0278269D01*
X0295556Y0278281D01*
X0295624Y0278289D01*
X0295693Y0278293D01*
X0295761Y0278293D01*
X0295830Y0278289D01*
X0295898Y0278281D01*
X0295965Y0278269D01*
X0296032Y0278254D01*
X0296098Y0278234D01*
X0296162Y0278211D01*
X0296225Y0278185D01*
X0296287Y0278154D01*
X0296347Y0278121D01*
X0296404Y0278084D01*
X0296460Y0278043D01*
X0296513Y0278000D01*
X0296563Y0277954D01*
X0296611Y0277904D01*
X0296656Y0277853D01*
X0296698Y0277798D01*
X0296737Y0277742D01*
X0296772Y0277683D01*
X0296804Y0277622D01*
X0296832Y0277560D01*
X0296857Y0277496D01*
X0296878Y0277431D01*
X0296896Y0277365D01*
X0296909Y0277298D01*
X0296919Y0277230D01*
X0296925Y0277162D01*
X0296927Y0277093D01*
X0304527Y0277093D01*
X0292227Y0279093D02*
X0292227Y0281093D01*
X0288977Y0279093D01*
X0292227Y0279093D01*
X0292227Y0279180D02*
X0289119Y0279180D01*
X0290092Y0279779D02*
X0292227Y0279779D01*
X0292227Y0280377D02*
X0291064Y0280377D01*
X0292037Y0280976D02*
X0292227Y0280976D01*
X0286927Y0298093D02*
X0304527Y0298093D01*
X0321227Y0262343D02*
X0318977Y0260843D01*
X0321227Y0259343D01*
X0321227Y0262343D01*
X0321227Y0261823D02*
X0320448Y0261823D01*
X0321227Y0261225D02*
X0319550Y0261225D01*
X0319302Y0260626D02*
X0321227Y0260626D01*
X0321227Y0260028D02*
X0320199Y0260028D01*
X0321097Y0259429D02*
X0321227Y0259429D01*
X0297727Y0248593D02*
X0294727Y0248593D01*
X0296227Y0246343D01*
X0297727Y0248593D01*
X0297370Y0248057D02*
X0295084Y0248057D01*
X0295483Y0247459D02*
X0296971Y0247459D01*
X0296572Y0246860D02*
X0295882Y0246860D01*
X0399677Y0336974D02*
X0399677Y0351711D01*
X0414227Y0341593D02*
X0416727Y0338093D01*
X0416727Y0341593D01*
X0414227Y0341593D01*
X0414347Y0341425D02*
X0416727Y0341425D01*
X0416727Y0340827D02*
X0414774Y0340827D01*
X0415202Y0340228D02*
X0416727Y0340228D01*
X0416727Y0339630D02*
X0415629Y0339630D01*
X0416057Y0339031D02*
X0416727Y0339031D01*
X0416727Y0338433D02*
X0416484Y0338433D01*
X0419277Y0336974D02*
X0419277Y0343143D01*
X0419208Y0343145D01*
X0419140Y0343151D01*
X0419072Y0343161D01*
X0419005Y0343174D01*
X0418939Y0343192D01*
X0418874Y0343213D01*
X0418810Y0343238D01*
X0418748Y0343266D01*
X0418687Y0343298D01*
X0418628Y0343333D01*
X0418572Y0343372D01*
X0418517Y0343414D01*
X0418466Y0343459D01*
X0418416Y0343507D01*
X0418370Y0343557D01*
X0418327Y0343610D01*
X0418286Y0343666D01*
X0418249Y0343723D01*
X0418216Y0343783D01*
X0418185Y0343845D01*
X0418159Y0343908D01*
X0418136Y0343972D01*
X0418116Y0344038D01*
X0418101Y0344105D01*
X0418089Y0344172D01*
X0418081Y0344240D01*
X0418077Y0344309D01*
X0418077Y0344377D01*
X0418081Y0344446D01*
X0418089Y0344514D01*
X0418101Y0344581D01*
X0418116Y0344648D01*
X0418136Y0344714D01*
X0418159Y0344778D01*
X0418185Y0344841D01*
X0418216Y0344903D01*
X0418249Y0344963D01*
X0418286Y0345020D01*
X0418327Y0345076D01*
X0418370Y0345129D01*
X0418416Y0345179D01*
X0418466Y0345227D01*
X0418517Y0345272D01*
X0418572Y0345314D01*
X0418628Y0345353D01*
X0418687Y0345388D01*
X0418748Y0345420D01*
X0418810Y0345448D01*
X0418874Y0345473D01*
X0418939Y0345494D01*
X0419005Y0345512D01*
X0419072Y0345525D01*
X0419140Y0345535D01*
X0419208Y0345541D01*
X0419277Y0345543D01*
X0419277Y0351711D01*
X0476227Y0353093D02*
X0477477Y0353093D01*
X0478727Y0351843D01*
X0493477Y0338343D02*
X0494977Y0336843D01*
X0494977Y0336343D01*
X0500359Y0338293D02*
X0506527Y0338293D01*
X0506529Y0338362D01*
X0506535Y0338430D01*
X0506545Y0338498D01*
X0506558Y0338565D01*
X0506576Y0338631D01*
X0506597Y0338696D01*
X0506622Y0338760D01*
X0506650Y0338822D01*
X0506682Y0338883D01*
X0506717Y0338942D01*
X0506756Y0338998D01*
X0506798Y0339053D01*
X0506843Y0339104D01*
X0506891Y0339154D01*
X0506941Y0339200D01*
X0506994Y0339243D01*
X0507050Y0339284D01*
X0507107Y0339321D01*
X0507167Y0339354D01*
X0507229Y0339385D01*
X0507292Y0339411D01*
X0507356Y0339434D01*
X0507422Y0339454D01*
X0507489Y0339469D01*
X0507556Y0339481D01*
X0507624Y0339489D01*
X0507693Y0339493D01*
X0507761Y0339493D01*
X0507830Y0339489D01*
X0507898Y0339481D01*
X0507965Y0339469D01*
X0508032Y0339454D01*
X0508098Y0339434D01*
X0508162Y0339411D01*
X0508225Y0339385D01*
X0508287Y0339354D01*
X0508347Y0339321D01*
X0508404Y0339284D01*
X0508460Y0339243D01*
X0508513Y0339200D01*
X0508563Y0339154D01*
X0508611Y0339104D01*
X0508656Y0339053D01*
X0508698Y0338998D01*
X0508737Y0338942D01*
X0508772Y0338883D01*
X0508804Y0338822D01*
X0508832Y0338760D01*
X0508857Y0338696D01*
X0508878Y0338631D01*
X0508896Y0338565D01*
X0508909Y0338498D01*
X0508919Y0338430D01*
X0508925Y0338362D01*
X0508927Y0338293D01*
X0515096Y0338293D01*
X0504977Y0340843D02*
X0504977Y0343343D01*
X0501477Y0340843D01*
X0504977Y0340843D01*
X0504977Y0341425D02*
X0502293Y0341425D01*
X0503131Y0342024D02*
X0504977Y0342024D01*
X0504977Y0342622D02*
X0503969Y0342622D01*
X0504807Y0343221D02*
X0504977Y0343221D01*
X0500359Y0357893D02*
X0515096Y0357893D01*
X0561727Y0212343D02*
X0563227Y0210093D01*
X0564727Y0212343D01*
X0561727Y0212343D01*
X0561858Y0212147D02*
X0564597Y0212147D01*
X0564198Y0211548D02*
X0562257Y0211548D01*
X0562656Y0210950D02*
X0563799Y0210950D01*
X0563400Y0210351D02*
X0563055Y0210351D01*
X0575227Y0189543D02*
X0575227Y0184293D01*
X0575296Y0184291D01*
X0575364Y0184285D01*
X0575432Y0184275D01*
X0575499Y0184262D01*
X0575565Y0184244D01*
X0575630Y0184223D01*
X0575694Y0184198D01*
X0575756Y0184170D01*
X0575817Y0184138D01*
X0575876Y0184103D01*
X0575932Y0184064D01*
X0575987Y0184022D01*
X0576038Y0183977D01*
X0576088Y0183929D01*
X0576134Y0183879D01*
X0576177Y0183826D01*
X0576218Y0183770D01*
X0576255Y0183713D01*
X0576288Y0183653D01*
X0576319Y0183591D01*
X0576345Y0183528D01*
X0576368Y0183464D01*
X0576388Y0183398D01*
X0576403Y0183331D01*
X0576415Y0183264D01*
X0576423Y0183196D01*
X0576427Y0183127D01*
X0576427Y0183059D01*
X0576423Y0182990D01*
X0576415Y0182922D01*
X0576403Y0182855D01*
X0576388Y0182788D01*
X0576368Y0182722D01*
X0576345Y0182658D01*
X0576319Y0182595D01*
X0576288Y0182533D01*
X0576255Y0182473D01*
X0576218Y0182416D01*
X0576177Y0182360D01*
X0576134Y0182307D01*
X0576088Y0182257D01*
X0576038Y0182209D01*
X0575987Y0182164D01*
X0575932Y0182122D01*
X0575876Y0182083D01*
X0575817Y0182048D01*
X0575756Y0182016D01*
X0575694Y0181988D01*
X0575630Y0181963D01*
X0575565Y0181942D01*
X0575499Y0181924D01*
X0575432Y0181911D01*
X0575364Y0181901D01*
X0575296Y0181895D01*
X0575227Y0181893D01*
X0575227Y0176643D01*
X0577227Y0184343D02*
X0579727Y0184343D01*
X0577227Y0187843D01*
X0577227Y0184343D01*
X0577227Y0184615D02*
X0579532Y0184615D01*
X0579105Y0185214D02*
X0577227Y0185214D01*
X0577227Y0185812D02*
X0578677Y0185812D01*
X0578250Y0186411D02*
X0577227Y0186411D01*
X0577227Y0187009D02*
X0577822Y0187009D01*
X0577395Y0187608D02*
X0577227Y0187608D01*
X0594227Y0189543D02*
X0594227Y0176643D01*
X0567977Y0158093D02*
X0569477Y0155843D01*
X0566477Y0155843D01*
X0567977Y0158093D01*
X0567704Y0157682D02*
X0568251Y0157682D01*
X0568650Y0157084D02*
X0567305Y0157084D01*
X0566906Y0156485D02*
X0569049Y0156485D01*
X0569448Y0155887D02*
X0566507Y0155887D01*
X0607727Y0110093D02*
X0607727Y0061843D01*
X0613727Y0061843D01*
X0613727Y0110093D01*
X0607727Y0110093D01*
X0411727Y0028093D02*
X0409227Y0031343D01*
X0406977Y0028093D01*
X0411727Y0028093D01*
X0411488Y0028404D02*
X0407193Y0028404D01*
X0407607Y0029002D02*
X0411027Y0029002D01*
X0410567Y0029601D02*
X0408021Y0029601D01*
X0408436Y0030199D02*
X0410106Y0030199D01*
X0409646Y0030798D02*
X0408850Y0030798D01*
X0402477Y0030593D02*
X0400977Y0032843D01*
X0399477Y0030593D01*
X0402477Y0030593D01*
X0402340Y0030798D02*
X0399614Y0030798D01*
X0400013Y0031396D02*
X0401941Y0031396D01*
X0401542Y0031995D02*
X0400412Y0031995D01*
X0400811Y0032593D02*
X0401143Y0032593D01*
X0401677Y0055093D02*
X0396427Y0055093D01*
X0396425Y0055162D01*
X0396419Y0055230D01*
X0396409Y0055298D01*
X0396396Y0055365D01*
X0396378Y0055431D01*
X0396357Y0055496D01*
X0396332Y0055560D01*
X0396304Y0055622D01*
X0396272Y0055683D01*
X0396237Y0055742D01*
X0396198Y0055798D01*
X0396156Y0055853D01*
X0396111Y0055904D01*
X0396063Y0055954D01*
X0396013Y0056000D01*
X0395960Y0056043D01*
X0395904Y0056084D01*
X0395847Y0056121D01*
X0395787Y0056154D01*
X0395725Y0056185D01*
X0395662Y0056211D01*
X0395598Y0056234D01*
X0395532Y0056254D01*
X0395465Y0056269D01*
X0395398Y0056281D01*
X0395330Y0056289D01*
X0395261Y0056293D01*
X0395193Y0056293D01*
X0395124Y0056289D01*
X0395056Y0056281D01*
X0394989Y0056269D01*
X0394922Y0056254D01*
X0394856Y0056234D01*
X0394792Y0056211D01*
X0394729Y0056185D01*
X0394667Y0056154D01*
X0394607Y0056121D01*
X0394550Y0056084D01*
X0394494Y0056043D01*
X0394441Y0056000D01*
X0394391Y0055954D01*
X0394343Y0055904D01*
X0394298Y0055853D01*
X0394256Y0055798D01*
X0394217Y0055742D01*
X0394182Y0055683D01*
X0394150Y0055622D01*
X0394122Y0055560D01*
X0394097Y0055496D01*
X0394076Y0055431D01*
X0394058Y0055365D01*
X0394045Y0055298D01*
X0394035Y0055230D01*
X0394029Y0055162D01*
X0394027Y0055093D01*
X0388777Y0055093D01*
X0388777Y0094093D01*
X0401677Y0094093D01*
X0401677Y0055093D01*
X0393477Y0057093D02*
X0393477Y0059593D01*
X0389977Y0057093D01*
X0393477Y0057093D01*
X0393477Y0057132D02*
X0390033Y0057132D01*
X0390871Y0057731D02*
X0393477Y0057731D01*
X0393477Y0058329D02*
X0391709Y0058329D01*
X0392547Y0058928D02*
X0393477Y0058928D01*
X0393477Y0059526D02*
X0393384Y0059526D01*
X0370027Y0036243D02*
X0370027Y0033493D01*
X0370027Y0036243D02*
X0366827Y0036243D01*
X0364427Y0031193D02*
X0364427Y0029493D01*
X0366827Y0024443D02*
X0370027Y0024443D01*
X0370027Y0027193D01*
X0346977Y0040843D02*
X0344727Y0042343D01*
X0344727Y0039343D01*
X0346977Y0040843D01*
X0346782Y0040973D02*
X0344727Y0040973D01*
X0344727Y0041571D02*
X0345884Y0041571D01*
X0344986Y0042170D02*
X0344727Y0042170D01*
X0344727Y0040374D02*
X0346274Y0040374D01*
X0345377Y0039776D02*
X0344727Y0039776D01*
X0306477Y0145843D02*
X0306477Y0148843D01*
X0304227Y0147343D01*
X0306477Y0145843D01*
X0306477Y0146311D02*
X0305775Y0146311D01*
X0306477Y0146909D02*
X0304877Y0146909D01*
X0304475Y0147508D02*
X0306477Y0147508D01*
X0306477Y0148106D02*
X0305372Y0148106D01*
X0306270Y0148705D02*
X0306477Y0148705D01*
D13*
X0306677Y0122641D02*
X0306677Y0120239D01*
X0310280Y0120239D01*
X0310280Y0116556D02*
X0306677Y0116556D01*
X0306677Y0118958D01*
X0307278Y0115275D02*
X0310280Y0115275D01*
X0310280Y0112873D02*
X0307278Y0112873D01*
X0306677Y0113473D01*
X0306677Y0114675D01*
X0307278Y0115275D01*
X0308479Y0111592D02*
X0307878Y0110991D01*
X0307878Y0109190D01*
X0306677Y0109190D02*
X0310280Y0109190D01*
X0310280Y0110991D01*
X0309680Y0111592D01*
X0308479Y0111592D01*
X0352442Y0133795D02*
X0354844Y0131393D01*
X0354844Y0130793D01*
X0356125Y0130793D02*
X0357326Y0131994D01*
X0356725Y0131994D02*
X0358527Y0131994D01*
X0358527Y0130793D02*
X0358527Y0134396D01*
X0356725Y0134396D01*
X0356125Y0133795D01*
X0356125Y0132594D01*
X0356725Y0131994D01*
X0354844Y0134396D02*
X0352442Y0134396D01*
X0352442Y0133795D01*
X0371308Y0132795D02*
X0371308Y0132195D01*
X0371909Y0131594D01*
X0373110Y0131594D01*
X0373710Y0132195D01*
X0373710Y0132795D01*
X0373110Y0133396D01*
X0371909Y0133396D01*
X0371308Y0132795D01*
X0371909Y0131594D02*
X0371308Y0130994D01*
X0371308Y0130393D01*
X0371909Y0129793D01*
X0373110Y0129793D01*
X0373710Y0130393D01*
X0373710Y0130994D01*
X0373110Y0131594D01*
X0374991Y0131594D02*
X0375592Y0130994D01*
X0377393Y0130994D01*
X0376192Y0130994D02*
X0374991Y0129793D01*
X0374991Y0131594D02*
X0374991Y0132795D01*
X0375592Y0133396D01*
X0377393Y0133396D01*
X0377393Y0129793D01*
X0391558Y0123646D02*
X0392759Y0123045D01*
X0393960Y0121844D01*
X0392159Y0121844D01*
X0391558Y0121244D01*
X0391558Y0120643D01*
X0392159Y0120043D01*
X0393360Y0120043D01*
X0393960Y0120643D01*
X0393960Y0121844D01*
X0395241Y0120043D02*
X0397643Y0120043D01*
X0396442Y0120043D02*
X0396442Y0123646D01*
X0397643Y0122445D01*
X0398924Y0123045D02*
X0398924Y0121844D01*
X0399525Y0121244D01*
X0401326Y0121244D01*
X0400125Y0121244D02*
X0398924Y0120043D01*
X0401326Y0120043D02*
X0401326Y0123646D01*
X0399525Y0123646D01*
X0398924Y0123045D01*
X0379280Y0116061D02*
X0379280Y0113659D01*
X0377479Y0113659D01*
X0378079Y0114860D01*
X0378079Y0115460D01*
X0377479Y0116061D01*
X0376278Y0116061D01*
X0375677Y0115460D01*
X0375677Y0114259D01*
X0376278Y0113659D01*
X0375677Y0112378D02*
X0375677Y0109976D01*
X0375677Y0111177D02*
X0379280Y0111177D01*
X0378079Y0109976D01*
X0377479Y0108695D02*
X0376878Y0108094D01*
X0376878Y0106293D01*
X0376878Y0107494D02*
X0375677Y0108695D01*
X0377479Y0108695D02*
X0378680Y0108695D01*
X0379280Y0108094D01*
X0379280Y0106293D01*
X0375677Y0106293D01*
X0363777Y0099896D02*
X0363777Y0096293D01*
X0363777Y0097494D02*
X0361975Y0097494D01*
X0361375Y0098094D01*
X0361375Y0099295D01*
X0361975Y0099896D01*
X0363777Y0099896D01*
X0362576Y0097494D02*
X0361375Y0096293D01*
X0360094Y0096293D02*
X0357692Y0096293D01*
X0358893Y0096293D02*
X0358893Y0099896D01*
X0360094Y0098695D01*
X0356411Y0099295D02*
X0355810Y0099896D01*
X0354609Y0099896D01*
X0354009Y0099295D01*
X0354009Y0098695D01*
X0356411Y0096293D01*
X0354009Y0096293D01*
X0357359Y0077396D02*
X0356759Y0076795D01*
X0356759Y0076195D01*
X0357359Y0075594D01*
X0358560Y0075594D01*
X0359161Y0076195D01*
X0359161Y0076795D01*
X0358560Y0077396D01*
X0357359Y0077396D01*
X0357359Y0075594D02*
X0356759Y0074994D01*
X0356759Y0074393D01*
X0357359Y0073793D01*
X0358560Y0073793D01*
X0359161Y0074393D01*
X0359161Y0074994D01*
X0358560Y0075594D01*
X0360442Y0073793D02*
X0362844Y0073793D01*
X0361643Y0073793D02*
X0361643Y0077396D01*
X0362844Y0076195D01*
X0364125Y0076795D02*
X0364725Y0077396D01*
X0365927Y0077396D01*
X0366527Y0076795D01*
X0366527Y0074393D01*
X0365927Y0073793D01*
X0364725Y0073793D01*
X0364125Y0074393D01*
X0340677Y0049646D02*
X0339475Y0049646D01*
X0338875Y0049045D01*
X0337594Y0047844D02*
X0335792Y0047844D01*
X0335192Y0047244D01*
X0335192Y0046643D01*
X0335792Y0046043D01*
X0336993Y0046043D01*
X0337594Y0046643D01*
X0337594Y0047844D01*
X0336393Y0049045D01*
X0335192Y0049646D01*
X0338875Y0046643D02*
X0339475Y0046043D01*
X0340677Y0046043D01*
X0341277Y0046643D01*
X0341277Y0049045D01*
X0340677Y0049646D01*
X0336358Y0042833D02*
X0333956Y0042833D01*
X0333956Y0042232D01*
X0336358Y0039830D01*
X0336358Y0039230D01*
X0333956Y0039230D01*
X0332675Y0039230D02*
X0330873Y0039230D01*
X0330273Y0039830D01*
X0330273Y0042232D01*
X0330873Y0042833D01*
X0332675Y0042833D01*
X0332675Y0039230D01*
X0328991Y0039230D02*
X0326589Y0039230D01*
X0327790Y0039230D02*
X0327790Y0042833D01*
X0328991Y0041632D01*
X0332792Y0034896D02*
X0332192Y0034295D01*
X0332192Y0033695D01*
X0332792Y0033094D01*
X0333993Y0033094D01*
X0334594Y0033695D01*
X0334594Y0034295D01*
X0333993Y0034896D01*
X0332792Y0034896D01*
X0332792Y0033094D02*
X0332192Y0032494D01*
X0332192Y0031893D01*
X0332792Y0031293D01*
X0333993Y0031293D01*
X0334594Y0031893D01*
X0334594Y0032494D01*
X0333993Y0033094D01*
X0335875Y0031893D02*
X0336475Y0031293D01*
X0337677Y0031293D01*
X0338277Y0031893D01*
X0338277Y0034295D01*
X0337677Y0034896D01*
X0336475Y0034896D01*
X0335875Y0034295D01*
X0336475Y0026646D02*
X0335875Y0026045D01*
X0335875Y0024844D01*
X0336475Y0024244D01*
X0338277Y0024244D01*
X0337076Y0024244D02*
X0335875Y0023043D01*
X0334594Y0024844D02*
X0332192Y0024844D01*
X0332792Y0023043D02*
X0332792Y0026646D01*
X0334594Y0024844D01*
X0336475Y0026646D02*
X0338277Y0026646D01*
X0338277Y0023043D01*
X0319527Y0022244D02*
X0317725Y0022244D01*
X0317125Y0022844D01*
X0317125Y0024045D01*
X0317725Y0024646D01*
X0319527Y0024646D01*
X0319527Y0021043D01*
X0315844Y0021043D02*
X0315844Y0023445D01*
X0315844Y0022244D02*
X0314643Y0023445D01*
X0314042Y0023445D01*
X0312775Y0022844D02*
X0312775Y0021643D01*
X0312174Y0021043D01*
X0310973Y0021043D01*
X0310373Y0021643D01*
X0310373Y0022844D01*
X0310973Y0023445D01*
X0312174Y0023445D01*
X0312775Y0022844D01*
X0309091Y0019841D02*
X0308491Y0019841D01*
X0307890Y0020442D01*
X0307890Y0023445D01*
X0307890Y0024646D02*
X0307890Y0025246D01*
X0306036Y0023445D02*
X0304834Y0023445D01*
X0304234Y0022844D01*
X0304234Y0022244D01*
X0306636Y0022244D01*
X0306636Y0022844D02*
X0306036Y0023445D01*
X0306636Y0022844D02*
X0306636Y0021643D01*
X0306036Y0021043D01*
X0304834Y0021043D01*
X0302953Y0021643D02*
X0302352Y0021043D01*
X0300551Y0021043D01*
X0298669Y0021643D02*
X0298069Y0021043D01*
X0298669Y0021643D02*
X0298669Y0024045D01*
X0298069Y0023445D02*
X0299270Y0023445D01*
X0300551Y0023445D02*
X0302352Y0023445D01*
X0302953Y0022844D01*
X0302953Y0021643D01*
X0293131Y0021043D02*
X0291330Y0021043D01*
X0290729Y0021643D01*
X0291330Y0022244D01*
X0292531Y0022244D01*
X0293131Y0022844D01*
X0292531Y0023445D01*
X0290729Y0023445D01*
X0289448Y0022844D02*
X0289448Y0021643D01*
X0288848Y0021043D01*
X0287646Y0021043D01*
X0287046Y0021643D01*
X0287046Y0022844D01*
X0287646Y0023445D01*
X0288848Y0023445D01*
X0289448Y0022844D01*
X0285765Y0023445D02*
X0285765Y0021643D01*
X0285164Y0021043D01*
X0283363Y0021043D01*
X0283363Y0023445D01*
X0282082Y0023445D02*
X0282082Y0021043D01*
X0282082Y0022244D02*
X0280881Y0023445D01*
X0280280Y0023445D01*
X0279012Y0022844D02*
X0279012Y0021643D01*
X0278412Y0021043D01*
X0276610Y0021043D01*
X0275329Y0021643D02*
X0275329Y0022844D01*
X0274729Y0023445D01*
X0273528Y0023445D01*
X0272927Y0022844D01*
X0272927Y0022244D01*
X0275329Y0022244D01*
X0275329Y0021643D02*
X0274729Y0021043D01*
X0273528Y0021043D01*
X0276610Y0023445D02*
X0278412Y0023445D01*
X0279012Y0022844D01*
X0267963Y0022844D02*
X0267963Y0021643D01*
X0267363Y0021043D01*
X0265561Y0021043D01*
X0264280Y0021643D02*
X0263679Y0021043D01*
X0262478Y0021043D01*
X0261878Y0021643D01*
X0261878Y0022844D01*
X0262478Y0023445D01*
X0263679Y0023445D01*
X0264280Y0022844D01*
X0264280Y0021643D01*
X0265561Y0023445D02*
X0267363Y0023445D01*
X0267963Y0022844D01*
X0260597Y0022844D02*
X0259996Y0023445D01*
X0258195Y0023445D01*
X0258195Y0024646D02*
X0258195Y0021043D01*
X0259996Y0021043D01*
X0260597Y0021643D01*
X0260597Y0022844D01*
X0256914Y0022844D02*
X0256313Y0023445D01*
X0255112Y0023445D01*
X0254512Y0022844D01*
X0254512Y0022244D01*
X0256914Y0022244D01*
X0256914Y0022844D02*
X0256914Y0021643D01*
X0256313Y0021043D01*
X0255112Y0021043D01*
X0253230Y0021043D02*
X0253230Y0021643D01*
X0252630Y0021643D01*
X0252630Y0021043D01*
X0253230Y0021043D01*
X0253230Y0022844D02*
X0253230Y0023445D01*
X0252630Y0023445D01*
X0252630Y0022844D01*
X0253230Y0022844D01*
X0247706Y0022844D02*
X0247706Y0021643D01*
X0247105Y0021043D01*
X0245304Y0021043D01*
X0245304Y0020442D02*
X0245304Y0023445D01*
X0247105Y0023445D01*
X0247706Y0022844D01*
X0246505Y0019841D02*
X0245904Y0019841D01*
X0245304Y0020442D01*
X0244023Y0021043D02*
X0242822Y0021043D01*
X0243422Y0021043D02*
X0243422Y0023445D01*
X0244023Y0023445D01*
X0243422Y0024646D02*
X0243422Y0025246D01*
X0241567Y0023445D02*
X0240366Y0023445D01*
X0240967Y0024045D02*
X0240967Y0021643D01*
X0240366Y0021043D01*
X0239112Y0021043D02*
X0239112Y0024646D01*
X0238511Y0023445D02*
X0237310Y0023445D01*
X0236710Y0022844D01*
X0236710Y0021043D01*
X0235429Y0021643D02*
X0234828Y0021043D01*
X0233027Y0021043D01*
X0233027Y0023445D01*
X0231745Y0023445D02*
X0229944Y0023445D01*
X0229343Y0022844D01*
X0229343Y0021643D01*
X0229944Y0021043D01*
X0231745Y0021043D01*
X0231745Y0024646D01*
X0235429Y0023445D02*
X0235429Y0021643D01*
X0238511Y0023445D02*
X0239112Y0022844D01*
X0228062Y0021643D02*
X0227462Y0021643D01*
X0227462Y0021043D01*
X0228062Y0021043D01*
X0228062Y0021643D01*
X0226221Y0021643D02*
X0225620Y0021043D01*
X0223819Y0021043D01*
X0222538Y0021643D02*
X0221937Y0021043D01*
X0220736Y0021043D01*
X0220136Y0021643D01*
X0220136Y0022844D01*
X0220736Y0023445D01*
X0221937Y0023445D01*
X0222538Y0022844D01*
X0222538Y0021643D01*
X0223819Y0023445D02*
X0225620Y0023445D01*
X0226221Y0022844D01*
X0226221Y0021643D01*
X0218854Y0021043D02*
X0218854Y0023445D01*
X0218254Y0023445D01*
X0217653Y0022844D01*
X0217053Y0023445D01*
X0216452Y0022844D01*
X0216452Y0021043D01*
X0217653Y0021043D02*
X0217653Y0022844D01*
X0215171Y0021043D02*
X0212769Y0024646D01*
X0211488Y0022844D02*
X0210888Y0023445D01*
X0209687Y0023445D01*
X0209086Y0022844D01*
X0209086Y0022244D01*
X0211488Y0022244D01*
X0211488Y0022844D02*
X0211488Y0021643D01*
X0210888Y0021043D01*
X0209687Y0021043D01*
X0207805Y0021643D02*
X0207805Y0022844D01*
X0207205Y0023445D01*
X0206003Y0023445D01*
X0205403Y0022844D01*
X0205403Y0022244D01*
X0207805Y0022244D01*
X0207805Y0021643D02*
X0207205Y0021043D01*
X0206003Y0021043D01*
X0204122Y0021043D02*
X0201720Y0021043D01*
X0200439Y0022844D02*
X0198037Y0022844D01*
X0196756Y0022844D02*
X0196756Y0021643D01*
X0196155Y0021043D01*
X0194954Y0021043D01*
X0194354Y0021643D01*
X0194354Y0022844D01*
X0194954Y0023445D01*
X0196155Y0023445D01*
X0196756Y0022844D01*
X0193072Y0023445D02*
X0191271Y0023445D01*
X0190670Y0022844D01*
X0190670Y0021643D01*
X0191271Y0021043D01*
X0193072Y0021043D01*
X0193072Y0019841D02*
X0193072Y0023445D01*
X0189389Y0022844D02*
X0188789Y0023445D01*
X0187588Y0023445D01*
X0186987Y0022844D01*
X0186987Y0022244D01*
X0189389Y0022244D01*
X0189389Y0022844D02*
X0189389Y0021643D01*
X0188789Y0021043D01*
X0187588Y0021043D01*
X0185706Y0021043D02*
X0185706Y0023445D01*
X0183905Y0023445D01*
X0183304Y0022844D01*
X0183304Y0021043D01*
X0182023Y0021043D02*
X0179621Y0024646D01*
X0178340Y0024045D02*
X0178340Y0021643D01*
X0177739Y0021043D01*
X0176538Y0021043D01*
X0175938Y0021643D01*
X0174657Y0021043D02*
X0174657Y0024646D01*
X0172255Y0024646D01*
X0173456Y0022844D02*
X0174657Y0022844D01*
X0175938Y0024045D02*
X0176538Y0024646D01*
X0177739Y0024646D01*
X0178340Y0024045D01*
X0170974Y0022844D02*
X0168572Y0022844D01*
X0167290Y0021043D02*
X0165489Y0021043D01*
X0164888Y0021643D01*
X0164888Y0024045D01*
X0165489Y0024646D01*
X0167290Y0024646D01*
X0167290Y0021043D01*
X0163607Y0021043D02*
X0162406Y0021043D01*
X0163007Y0021043D02*
X0163007Y0024646D01*
X0163607Y0024646D02*
X0162406Y0024646D01*
X0161152Y0024045D02*
X0161152Y0021643D01*
X0160551Y0021043D01*
X0159350Y0021043D01*
X0158750Y0021643D01*
X0158750Y0024045D02*
X0159350Y0024646D01*
X0160551Y0024646D01*
X0161152Y0024045D01*
X0201720Y0023445D02*
X0204122Y0021043D01*
X0204122Y0023445D02*
X0201720Y0023445D01*
X0362854Y0037543D02*
X0365923Y0037543D01*
X0364388Y0037543D02*
X0364388Y0042146D01*
X0365923Y0040612D01*
X0367458Y0041379D02*
X0367458Y0038310D01*
X0368225Y0037543D01*
X0369760Y0037543D01*
X0370527Y0038310D01*
X0370527Y0041379D01*
X0369760Y0042146D01*
X0368225Y0042146D01*
X0367458Y0041379D01*
X0368992Y0039077D02*
X0367458Y0037543D01*
X0398023Y0022083D02*
X0399224Y0021482D01*
X0400425Y0020281D01*
X0398623Y0020281D01*
X0398023Y0019681D01*
X0398023Y0019080D01*
X0398623Y0018480D01*
X0399824Y0018480D01*
X0400425Y0019080D01*
X0400425Y0020281D01*
X0401706Y0019080D02*
X0401706Y0021482D01*
X0402306Y0022083D01*
X0404108Y0022083D01*
X0404108Y0018480D01*
X0402306Y0018480D01*
X0401706Y0019080D01*
X0405278Y0099293D02*
X0404677Y0099893D01*
X0404677Y0101094D01*
X0405278Y0101695D01*
X0404677Y0102976D02*
X0407079Y0105378D01*
X0407680Y0105378D01*
X0408280Y0104777D01*
X0408280Y0103576D01*
X0407680Y0102976D01*
X0407680Y0101695D02*
X0408280Y0101094D01*
X0408280Y0099893D01*
X0407680Y0099293D01*
X0405278Y0099293D01*
X0404677Y0102976D02*
X0404677Y0105378D01*
X0405278Y0106659D02*
X0404677Y0107259D01*
X0404677Y0108460D01*
X0405278Y0109061D01*
X0406479Y0109061D01*
X0407079Y0108460D01*
X0407079Y0107860D01*
X0406479Y0106659D01*
X0408280Y0106659D01*
X0408280Y0109061D01*
X0310530Y0202440D02*
X0306927Y0202440D01*
X0308128Y0202440D02*
X0308128Y0204241D01*
X0308729Y0204842D01*
X0309930Y0204842D01*
X0310530Y0204241D01*
X0310530Y0202440D01*
X0310530Y0206123D02*
X0307528Y0206123D01*
X0306927Y0206723D01*
X0306927Y0207925D01*
X0307528Y0208525D01*
X0310530Y0208525D01*
X0309930Y0209806D02*
X0309329Y0209806D01*
X0308729Y0210407D01*
X0308729Y0211608D01*
X0308128Y0212208D01*
X0307528Y0212208D01*
X0306927Y0211608D01*
X0306927Y0210407D01*
X0307528Y0209806D01*
X0309930Y0209806D02*
X0310530Y0210407D01*
X0310530Y0211608D01*
X0309930Y0212208D01*
X0310530Y0213489D02*
X0306927Y0213489D01*
X0308729Y0213489D02*
X0308729Y0215891D01*
X0310530Y0215891D02*
X0306927Y0215891D01*
X0249326Y0194146D02*
X0247525Y0194146D01*
X0246924Y0193545D01*
X0246924Y0192344D01*
X0247525Y0191744D01*
X0249326Y0191744D01*
X0248125Y0191744D02*
X0246924Y0190543D01*
X0245643Y0190543D02*
X0243241Y0192945D01*
X0243241Y0193545D01*
X0243842Y0194146D01*
X0245043Y0194146D01*
X0245643Y0193545D01*
X0245643Y0190543D02*
X0243241Y0190543D01*
X0241960Y0190543D02*
X0241960Y0191143D01*
X0239558Y0193545D01*
X0239558Y0194146D01*
X0241960Y0194146D01*
X0249326Y0194146D02*
X0249326Y0190543D01*
X0240277Y0184146D02*
X0238475Y0184146D01*
X0237875Y0183545D01*
X0237875Y0182344D01*
X0238475Y0181744D01*
X0240277Y0181744D01*
X0239076Y0181744D02*
X0237875Y0180543D01*
X0236594Y0180543D02*
X0234192Y0182945D01*
X0234192Y0183545D01*
X0234792Y0184146D01*
X0235993Y0184146D01*
X0236594Y0183545D01*
X0236594Y0180543D02*
X0234192Y0180543D01*
X0232911Y0181143D02*
X0232911Y0181744D01*
X0232310Y0182344D01*
X0231109Y0182344D01*
X0230509Y0181744D01*
X0230509Y0181143D01*
X0231109Y0180543D01*
X0232310Y0180543D01*
X0232911Y0181143D01*
X0232310Y0182344D02*
X0232911Y0182945D01*
X0232911Y0183545D01*
X0232310Y0184146D01*
X0231109Y0184146D01*
X0230509Y0183545D01*
X0230509Y0182945D01*
X0231109Y0182344D01*
X0228076Y0176896D02*
X0226275Y0176896D01*
X0225674Y0176295D01*
X0225674Y0175094D01*
X0226275Y0174494D01*
X0228076Y0174494D01*
X0226875Y0174494D02*
X0225674Y0173293D01*
X0224393Y0173893D02*
X0223793Y0173293D01*
X0222592Y0173293D01*
X0221991Y0173893D01*
X0221991Y0174494D01*
X0222592Y0175094D01*
X0223192Y0175094D01*
X0222592Y0175094D02*
X0221991Y0175695D01*
X0221991Y0176295D01*
X0222592Y0176896D01*
X0223793Y0176896D01*
X0224393Y0176295D01*
X0220710Y0175695D02*
X0219509Y0176896D01*
X0219509Y0173293D01*
X0220710Y0173293D02*
X0218308Y0173293D01*
X0228076Y0173293D02*
X0228076Y0176896D01*
X0240277Y0180543D02*
X0240277Y0184146D01*
X0231226Y0197543D02*
X0230025Y0197543D01*
X0229424Y0198143D01*
X0228143Y0198143D02*
X0227543Y0197543D01*
X0226342Y0197543D01*
X0225741Y0198143D01*
X0225741Y0198744D01*
X0226342Y0199344D01*
X0226942Y0199344D01*
X0226342Y0199344D02*
X0225741Y0199945D01*
X0225741Y0200545D01*
X0226342Y0201146D01*
X0227543Y0201146D01*
X0228143Y0200545D01*
X0229424Y0200545D02*
X0230025Y0201146D01*
X0231226Y0201146D01*
X0231826Y0200545D01*
X0231826Y0198143D01*
X0231226Y0197543D01*
X0224460Y0199344D02*
X0222058Y0199344D01*
X0222659Y0197543D02*
X0222659Y0201146D01*
X0224460Y0199344D01*
X0231308Y0206643D02*
X0231909Y0206043D01*
X0233110Y0206043D01*
X0233710Y0206643D01*
X0234991Y0206043D02*
X0237393Y0206043D01*
X0234991Y0208445D01*
X0234991Y0209045D01*
X0235592Y0209646D01*
X0236793Y0209646D01*
X0237393Y0209045D01*
X0238674Y0209045D02*
X0238674Y0207844D01*
X0239275Y0207244D01*
X0241076Y0207244D01*
X0239875Y0207244D02*
X0238674Y0206043D01*
X0241076Y0206043D02*
X0241076Y0209646D01*
X0239275Y0209646D01*
X0238674Y0209045D01*
X0238674Y0213793D02*
X0239875Y0214994D01*
X0239275Y0214994D02*
X0241076Y0214994D01*
X0241076Y0213793D02*
X0241076Y0217396D01*
X0239275Y0217396D01*
X0238674Y0216795D01*
X0238674Y0215594D01*
X0239275Y0214994D01*
X0237393Y0213793D02*
X0234991Y0216195D01*
X0234991Y0216795D01*
X0235592Y0217396D01*
X0236793Y0217396D01*
X0237393Y0216795D01*
X0237393Y0213793D02*
X0234991Y0213793D01*
X0233710Y0215594D02*
X0231308Y0215594D01*
X0231909Y0213793D02*
X0231909Y0217396D01*
X0233710Y0215594D01*
X0233110Y0209646D02*
X0231909Y0209646D01*
X0231308Y0209045D01*
X0231308Y0208445D01*
X0231909Y0207844D01*
X0231308Y0207244D01*
X0231308Y0206643D01*
X0231909Y0207844D02*
X0232509Y0207844D01*
X0233710Y0209045D02*
X0233110Y0209646D01*
X0234143Y0223543D02*
X0231741Y0225945D01*
X0231741Y0226545D01*
X0232342Y0227146D01*
X0233543Y0227146D01*
X0234143Y0226545D01*
X0235424Y0226545D02*
X0236025Y0227146D01*
X0237226Y0227146D01*
X0237826Y0226545D01*
X0237826Y0224143D01*
X0237226Y0223543D01*
X0236025Y0223543D01*
X0235424Y0224143D01*
X0234143Y0223543D02*
X0231741Y0223543D01*
X0230460Y0224143D02*
X0229860Y0223543D01*
X0228659Y0223543D01*
X0228058Y0224143D01*
X0228058Y0224744D01*
X0228659Y0225344D01*
X0230460Y0225344D01*
X0230460Y0224143D01*
X0230460Y0225344D02*
X0229259Y0226545D01*
X0228058Y0227146D01*
X0227710Y0231043D02*
X0227710Y0231643D01*
X0225308Y0234045D01*
X0225308Y0234646D01*
X0227710Y0234646D01*
X0228991Y0234045D02*
X0229592Y0234646D01*
X0230793Y0234646D01*
X0231393Y0234045D01*
X0232674Y0234045D02*
X0233275Y0234646D01*
X0234476Y0234646D01*
X0235076Y0234045D01*
X0235076Y0231643D01*
X0234476Y0231043D01*
X0233275Y0231043D01*
X0232674Y0231643D01*
X0231393Y0231043D02*
X0228991Y0233445D01*
X0228991Y0234045D01*
X0228991Y0231043D02*
X0231393Y0231043D01*
X0228030Y0243043D02*
X0224427Y0243043D01*
X0225628Y0243043D02*
X0225628Y0244844D01*
X0226229Y0245445D01*
X0227430Y0245445D01*
X0228030Y0244844D01*
X0228030Y0243043D01*
X0225628Y0244244D02*
X0224427Y0245445D01*
X0224427Y0246726D02*
X0224427Y0249128D01*
X0224427Y0247927D02*
X0228030Y0247927D01*
X0226829Y0246726D01*
X0226829Y0250409D02*
X0227430Y0250409D01*
X0228030Y0251009D01*
X0228030Y0252210D01*
X0227430Y0252811D01*
X0226829Y0252811D01*
X0226229Y0252210D01*
X0226229Y0251009D01*
X0226829Y0250409D01*
X0226229Y0251009D02*
X0225628Y0250409D01*
X0225028Y0250409D01*
X0224427Y0251009D01*
X0224427Y0252210D01*
X0225028Y0252811D01*
X0225628Y0252811D01*
X0226229Y0252210D01*
X0248259Y0259043D02*
X0250661Y0259043D01*
X0249460Y0259043D02*
X0249460Y0262646D01*
X0250661Y0261445D01*
X0251942Y0260844D02*
X0251942Y0259643D01*
X0252542Y0259043D01*
X0253743Y0259043D01*
X0254344Y0259643D01*
X0254344Y0260844D02*
X0253143Y0261445D01*
X0252542Y0261445D01*
X0251942Y0260844D01*
X0251942Y0262646D02*
X0254344Y0262646D01*
X0254344Y0260844D01*
X0255625Y0260844D02*
X0256225Y0260244D01*
X0258027Y0260244D01*
X0256826Y0260244D02*
X0255625Y0259043D01*
X0255625Y0260844D02*
X0255625Y0262045D01*
X0256225Y0262646D01*
X0258027Y0262646D01*
X0258027Y0259043D01*
X0257427Y0266543D02*
X0256225Y0266543D01*
X0255625Y0267143D01*
X0254344Y0268344D02*
X0251942Y0268344D01*
X0250661Y0268344D02*
X0248859Y0268344D01*
X0248259Y0267744D01*
X0248259Y0267143D01*
X0248859Y0266543D01*
X0250060Y0266543D01*
X0250661Y0267143D01*
X0250661Y0268344D01*
X0249460Y0269545D01*
X0248259Y0270146D01*
X0249109Y0272293D02*
X0250310Y0272293D01*
X0250911Y0272893D01*
X0248509Y0275295D01*
X0248509Y0272893D01*
X0249109Y0272293D01*
X0250911Y0272893D02*
X0250911Y0275295D01*
X0250310Y0275896D01*
X0249109Y0275896D01*
X0248509Y0275295D01*
X0252192Y0275896D02*
X0254594Y0275896D01*
X0254594Y0274094D01*
X0253393Y0274695D01*
X0252792Y0274695D01*
X0252192Y0274094D01*
X0252192Y0272893D01*
X0252792Y0272293D01*
X0253993Y0272293D01*
X0254594Y0272893D01*
X0255875Y0272293D02*
X0257076Y0273494D01*
X0256475Y0273494D02*
X0258277Y0273494D01*
X0258277Y0272293D02*
X0258277Y0275896D01*
X0256475Y0275896D01*
X0255875Y0275295D01*
X0255875Y0274094D01*
X0256475Y0273494D01*
X0256225Y0270146D02*
X0257427Y0270146D01*
X0258027Y0269545D01*
X0258027Y0267143D01*
X0257427Y0266543D01*
X0255625Y0269545D02*
X0256225Y0270146D01*
X0254344Y0268344D02*
X0252542Y0270146D01*
X0252542Y0266543D01*
X0239530Y0276243D02*
X0239530Y0278045D01*
X0238930Y0278645D01*
X0237729Y0278645D01*
X0237128Y0278045D01*
X0237128Y0276243D01*
X0235927Y0276243D02*
X0239530Y0276243D01*
X0237128Y0277444D02*
X0235927Y0278645D01*
X0236528Y0279926D02*
X0235927Y0280527D01*
X0235927Y0281728D01*
X0236528Y0282328D01*
X0237128Y0282328D01*
X0237729Y0281728D01*
X0237729Y0281127D01*
X0237729Y0281728D02*
X0238329Y0282328D01*
X0238930Y0282328D01*
X0239530Y0281728D01*
X0239530Y0280527D01*
X0238930Y0279926D01*
X0238930Y0283609D02*
X0238329Y0283609D01*
X0237729Y0284210D01*
X0237729Y0285411D01*
X0237128Y0286011D01*
X0236528Y0286011D01*
X0235927Y0285411D01*
X0235927Y0284210D01*
X0236528Y0283609D01*
X0237128Y0283609D01*
X0237729Y0284210D01*
X0237729Y0285411D02*
X0238329Y0286011D01*
X0238930Y0286011D01*
X0239530Y0285411D01*
X0239530Y0284210D01*
X0238930Y0283609D01*
X0240375Y0292543D02*
X0241576Y0293744D01*
X0240975Y0293744D02*
X0242777Y0293744D01*
X0242777Y0292543D02*
X0242777Y0296146D01*
X0240975Y0296146D01*
X0240375Y0295545D01*
X0240375Y0294344D01*
X0240975Y0293744D01*
X0239094Y0294344D02*
X0236692Y0294344D01*
X0235411Y0295545D02*
X0234810Y0296146D01*
X0233609Y0296146D01*
X0233009Y0295545D01*
X0233009Y0294945D01*
X0235411Y0292543D01*
X0233009Y0292543D01*
X0237292Y0292543D02*
X0237292Y0296146D01*
X0239094Y0294344D01*
X0254759Y0294043D02*
X0257161Y0294043D01*
X0254759Y0296445D01*
X0254759Y0297045D01*
X0255359Y0297646D01*
X0256560Y0297646D01*
X0257161Y0297045D01*
X0258442Y0295844D02*
X0260844Y0295844D01*
X0259042Y0297646D01*
X0259042Y0294043D01*
X0262125Y0294643D02*
X0262725Y0294043D01*
X0263927Y0294043D01*
X0264527Y0294643D01*
X0264527Y0297045D01*
X0263927Y0297646D01*
X0262725Y0297646D01*
X0262125Y0297045D01*
X0275927Y0288161D02*
X0279530Y0288161D01*
X0277729Y0286359D01*
X0277729Y0288761D01*
X0277729Y0285078D02*
X0277729Y0282676D01*
X0279530Y0284478D01*
X0275927Y0284478D01*
X0276528Y0281395D02*
X0275927Y0280795D01*
X0275927Y0279594D01*
X0276528Y0278993D01*
X0278930Y0278993D01*
X0279530Y0279594D01*
X0279530Y0280795D01*
X0278930Y0281395D01*
X0286427Y0265960D02*
X0290030Y0265960D01*
X0288229Y0264159D01*
X0288229Y0266561D01*
X0288229Y0262878D02*
X0288229Y0260476D01*
X0290030Y0262277D01*
X0286427Y0262277D01*
X0286427Y0259195D02*
X0287628Y0257994D01*
X0287628Y0258594D02*
X0287628Y0256793D01*
X0286427Y0256793D02*
X0290030Y0256793D01*
X0290030Y0258594D01*
X0289430Y0259195D01*
X0288229Y0259195D01*
X0287628Y0258594D01*
X0294614Y0258513D02*
X0294614Y0256712D01*
X0298217Y0256712D01*
X0298217Y0258513D01*
X0297617Y0259114D01*
X0295215Y0259114D01*
X0294614Y0258513D01*
X0294614Y0260395D02*
X0297016Y0262797D01*
X0297617Y0262797D01*
X0298217Y0262196D01*
X0298217Y0260995D01*
X0297617Y0260395D01*
X0294614Y0260395D02*
X0294614Y0262797D01*
X0295215Y0264078D02*
X0297617Y0266480D01*
X0295215Y0266480D01*
X0294614Y0265880D01*
X0294614Y0264679D01*
X0295215Y0264078D01*
X0297617Y0264078D01*
X0298217Y0264679D01*
X0298217Y0265880D01*
X0297617Y0266480D01*
X0329977Y0261157D02*
X0332379Y0261157D01*
X0330578Y0262959D01*
X0330578Y0259356D01*
X0333661Y0259956D02*
X0333661Y0262358D01*
X0334261Y0262959D01*
X0336063Y0262959D01*
X0336063Y0259356D01*
X0334261Y0259356D01*
X0333661Y0259956D01*
X0337344Y0259356D02*
X0339746Y0259356D01*
X0339746Y0259956D01*
X0337344Y0262358D01*
X0337344Y0262959D01*
X0339746Y0262959D01*
X0338924Y0267293D02*
X0340125Y0268494D01*
X0339525Y0268494D02*
X0341326Y0268494D01*
X0341326Y0267293D02*
X0341326Y0270896D01*
X0339525Y0270896D01*
X0338924Y0270295D01*
X0338924Y0269094D01*
X0339525Y0268494D01*
X0337643Y0269094D02*
X0335241Y0269094D01*
X0333960Y0267893D02*
X0333960Y0267293D01*
X0333960Y0267893D02*
X0331558Y0270295D01*
X0331558Y0270896D01*
X0333960Y0270896D01*
X0335842Y0270896D02*
X0337643Y0269094D01*
X0335842Y0267293D02*
X0335842Y0270896D01*
X0335592Y0274543D02*
X0335592Y0278146D01*
X0337393Y0276344D01*
X0334991Y0276344D01*
X0333710Y0276344D02*
X0331909Y0276344D01*
X0331308Y0275744D01*
X0331308Y0275143D01*
X0331909Y0274543D01*
X0333110Y0274543D01*
X0333710Y0275143D01*
X0333710Y0276344D01*
X0332509Y0277545D01*
X0331308Y0278146D01*
X0331909Y0282043D02*
X0333110Y0282043D01*
X0333710Y0282643D01*
X0332509Y0283844D02*
X0331909Y0283844D01*
X0331308Y0283244D01*
X0331308Y0282643D01*
X0331909Y0282043D01*
X0331909Y0283844D02*
X0331308Y0284445D01*
X0331308Y0285045D01*
X0331909Y0285646D01*
X0333110Y0285646D01*
X0333710Y0285045D01*
X0334991Y0283844D02*
X0337393Y0283844D01*
X0335592Y0285646D01*
X0335592Y0282043D01*
X0338674Y0282643D02*
X0339275Y0282043D01*
X0340476Y0282043D01*
X0341076Y0282643D01*
X0341076Y0285045D01*
X0340476Y0285646D01*
X0339275Y0285646D01*
X0338674Y0285045D01*
X0339275Y0278146D02*
X0338674Y0277545D01*
X0338674Y0276344D01*
X0339275Y0275744D01*
X0341076Y0275744D01*
X0339875Y0275744D02*
X0338674Y0274543D01*
X0341076Y0274543D02*
X0341076Y0278146D01*
X0339275Y0278146D01*
X0339275Y0290043D02*
X0338674Y0290643D01*
X0339275Y0290043D02*
X0340476Y0290043D01*
X0341076Y0290643D01*
X0341076Y0293045D01*
X0340476Y0293646D01*
X0339275Y0293646D01*
X0338674Y0293045D01*
X0337393Y0291844D02*
X0334991Y0291844D01*
X0333710Y0291844D02*
X0332509Y0292445D01*
X0331909Y0292445D01*
X0331308Y0291844D01*
X0331308Y0290643D01*
X0331909Y0290043D01*
X0333110Y0290043D01*
X0333710Y0290643D01*
X0333710Y0291844D02*
X0333710Y0293646D01*
X0331308Y0293646D01*
X0335592Y0293646D02*
X0337393Y0291844D01*
X0335592Y0290043D02*
X0335592Y0293646D01*
X0335592Y0297793D02*
X0335592Y0301396D01*
X0337393Y0299594D01*
X0334991Y0299594D01*
X0333710Y0300195D02*
X0333110Y0299594D01*
X0331308Y0299594D01*
X0331308Y0298393D02*
X0331308Y0300795D01*
X0331909Y0301396D01*
X0333110Y0301396D01*
X0333710Y0300795D01*
X0333710Y0300195D01*
X0333710Y0298393D02*
X0333110Y0297793D01*
X0331909Y0297793D01*
X0331308Y0298393D01*
X0331909Y0305043D02*
X0333110Y0305043D01*
X0333710Y0305643D01*
X0331308Y0308045D01*
X0331308Y0305643D01*
X0331909Y0305043D01*
X0333710Y0305643D02*
X0333710Y0308045D01*
X0333110Y0308646D01*
X0331909Y0308646D01*
X0331308Y0308045D01*
X0334991Y0308045D02*
X0335592Y0308646D01*
X0336793Y0308646D01*
X0337393Y0308045D01*
X0338674Y0308045D02*
X0338674Y0306844D01*
X0339275Y0306244D01*
X0341076Y0306244D01*
X0339875Y0306244D02*
X0338674Y0305043D01*
X0337393Y0305043D02*
X0334991Y0307445D01*
X0334991Y0308045D01*
X0334991Y0305043D02*
X0337393Y0305043D01*
X0338674Y0308045D02*
X0339275Y0308646D01*
X0341076Y0308646D01*
X0341076Y0305043D01*
X0341076Y0301396D02*
X0339275Y0301396D01*
X0338674Y0300795D01*
X0338674Y0299594D01*
X0339275Y0298994D01*
X0341076Y0298994D01*
X0339875Y0298994D02*
X0338674Y0297793D01*
X0341076Y0297793D02*
X0341076Y0301396D01*
X0340826Y0313043D02*
X0340826Y0316646D01*
X0339025Y0316646D01*
X0338424Y0316045D01*
X0338424Y0314844D01*
X0339025Y0314244D01*
X0340826Y0314244D01*
X0339625Y0314244D02*
X0338424Y0313043D01*
X0337143Y0313043D02*
X0334741Y0315445D01*
X0334741Y0316045D01*
X0335342Y0316646D01*
X0336543Y0316646D01*
X0337143Y0316045D01*
X0337143Y0313043D02*
X0334741Y0313043D01*
X0333460Y0313043D02*
X0331058Y0313043D01*
X0332259Y0313043D02*
X0332259Y0316646D01*
X0333460Y0315445D01*
X0304780Y0321043D02*
X0304780Y0322844D01*
X0304180Y0323445D01*
X0302979Y0323445D01*
X0302378Y0322844D01*
X0302378Y0321043D01*
X0302378Y0322244D02*
X0301177Y0323445D01*
X0301778Y0324726D02*
X0301177Y0325326D01*
X0301177Y0326527D01*
X0301778Y0327128D01*
X0302378Y0327128D01*
X0302979Y0326527D01*
X0302979Y0325927D01*
X0302979Y0326527D02*
X0303579Y0327128D01*
X0304180Y0327128D01*
X0304780Y0326527D01*
X0304780Y0325326D01*
X0304180Y0324726D01*
X0304180Y0328409D02*
X0303579Y0328409D01*
X0302979Y0329009D01*
X0302979Y0330811D01*
X0304180Y0330811D02*
X0304780Y0330210D01*
X0304780Y0329009D01*
X0304180Y0328409D01*
X0304180Y0330811D02*
X0301778Y0330811D01*
X0301177Y0330210D01*
X0301177Y0329009D01*
X0301778Y0328409D01*
X0296530Y0329009D02*
X0296530Y0330210D01*
X0295930Y0330811D01*
X0293528Y0328409D01*
X0292927Y0329009D01*
X0292927Y0330210D01*
X0293528Y0330811D01*
X0295930Y0330811D01*
X0296530Y0329009D02*
X0295930Y0328409D01*
X0293528Y0328409D01*
X0294729Y0327128D02*
X0294729Y0324726D01*
X0296530Y0326527D01*
X0292927Y0326527D01*
X0293528Y0323445D02*
X0292927Y0322844D01*
X0292927Y0321643D01*
X0293528Y0321043D01*
X0295930Y0321043D01*
X0296530Y0321643D01*
X0296530Y0322844D01*
X0295930Y0323445D01*
X0301177Y0321043D02*
X0304780Y0321043D01*
X0289030Y0321043D02*
X0289030Y0322844D01*
X0288430Y0323445D01*
X0287229Y0323445D01*
X0286628Y0322844D01*
X0286628Y0321043D01*
X0286628Y0322244D02*
X0285427Y0323445D01*
X0287229Y0324726D02*
X0287229Y0327128D01*
X0288430Y0328409D02*
X0289030Y0329009D01*
X0289030Y0330210D01*
X0288430Y0330811D01*
X0287829Y0330811D01*
X0287229Y0330210D01*
X0286628Y0330811D01*
X0286028Y0330811D01*
X0285427Y0330210D01*
X0285427Y0329009D01*
X0286028Y0328409D01*
X0287229Y0329610D02*
X0287229Y0330210D01*
X0289030Y0326527D02*
X0285427Y0326527D01*
X0287229Y0324726D02*
X0289030Y0326527D01*
X0289030Y0321043D02*
X0285427Y0321043D01*
X0274277Y0310545D02*
X0274277Y0308143D01*
X0273677Y0307543D01*
X0272475Y0307543D01*
X0271875Y0308143D01*
X0270594Y0309344D02*
X0268192Y0309344D01*
X0266911Y0309945D02*
X0265710Y0311146D01*
X0265710Y0307543D01*
X0266911Y0307543D02*
X0264509Y0307543D01*
X0268792Y0307543D02*
X0268792Y0311146D01*
X0270594Y0309344D01*
X0271875Y0310545D02*
X0272475Y0311146D01*
X0273677Y0311146D01*
X0274277Y0310545D01*
X0291536Y0302045D02*
X0291536Y0301445D01*
X0292137Y0300844D01*
X0291536Y0300244D01*
X0291536Y0299643D01*
X0292137Y0299043D01*
X0293338Y0299043D01*
X0293938Y0299643D01*
X0295220Y0299643D02*
X0295820Y0299043D01*
X0297021Y0299043D01*
X0297622Y0299643D01*
X0297622Y0302045D01*
X0297021Y0302646D01*
X0295820Y0302646D01*
X0295220Y0302045D01*
X0293938Y0302045D02*
X0293338Y0302646D01*
X0292137Y0302646D01*
X0291536Y0302045D01*
X0292137Y0300844D02*
X0292737Y0300844D01*
X0298876Y0299043D02*
X0300077Y0299043D01*
X0299477Y0299043D02*
X0299477Y0302646D01*
X0300077Y0302646D02*
X0298876Y0302646D01*
X0252027Y0313793D02*
X0252027Y0317396D01*
X0250225Y0317396D01*
X0249625Y0316795D01*
X0249625Y0315594D01*
X0250225Y0314994D01*
X0252027Y0314994D01*
X0250826Y0314994D02*
X0249625Y0313793D01*
X0248344Y0315594D02*
X0245942Y0315594D01*
X0244661Y0316195D02*
X0243460Y0317396D01*
X0243460Y0313793D01*
X0244661Y0313793D02*
X0242259Y0313793D01*
X0246542Y0313793D02*
X0246542Y0317396D01*
X0248344Y0315594D01*
X0224326Y0343043D02*
X0224326Y0346646D01*
X0222525Y0346646D01*
X0221924Y0346045D01*
X0221924Y0344844D01*
X0222525Y0344244D01*
X0224326Y0344244D01*
X0223125Y0344244D02*
X0221924Y0343043D01*
X0220643Y0343643D02*
X0220043Y0343043D01*
X0218842Y0343043D01*
X0218241Y0343643D01*
X0218241Y0344244D01*
X0218842Y0344844D01*
X0219442Y0344844D01*
X0218842Y0344844D02*
X0218241Y0345445D01*
X0218241Y0346045D01*
X0218842Y0346646D01*
X0220043Y0346646D01*
X0220643Y0346045D01*
X0216960Y0344844D02*
X0215159Y0344844D01*
X0214558Y0344244D01*
X0214558Y0343643D01*
X0215159Y0343043D01*
X0216360Y0343043D01*
X0216960Y0343643D01*
X0216960Y0344844D01*
X0215759Y0346045D01*
X0214558Y0346646D01*
X0200277Y0357043D02*
X0200277Y0360646D01*
X0198475Y0360646D01*
X0197875Y0360045D01*
X0197875Y0358844D01*
X0198475Y0358244D01*
X0200277Y0358244D01*
X0199076Y0358244D02*
X0197875Y0357043D01*
X0196594Y0357643D02*
X0195993Y0357043D01*
X0194792Y0357043D01*
X0194192Y0357643D01*
X0194192Y0358244D01*
X0194792Y0358844D01*
X0195393Y0358844D01*
X0194792Y0358844D02*
X0194192Y0359445D01*
X0194192Y0360045D01*
X0194792Y0360646D01*
X0195993Y0360646D01*
X0196594Y0360045D01*
X0192911Y0360045D02*
X0192310Y0360646D01*
X0191109Y0360646D01*
X0190509Y0360045D01*
X0192911Y0357643D01*
X0192310Y0357043D01*
X0191109Y0357043D01*
X0190509Y0357643D01*
X0190509Y0360045D01*
X0192911Y0360045D02*
X0192911Y0357643D01*
X0126530Y0286641D02*
X0126530Y0284239D01*
X0122927Y0284239D01*
X0122927Y0286641D01*
X0124729Y0285440D02*
X0124729Y0284239D01*
X0125930Y0282958D02*
X0126530Y0282358D01*
X0126530Y0280556D01*
X0122927Y0280556D01*
X0122927Y0282358D01*
X0123528Y0282958D01*
X0125930Y0282958D01*
X0126530Y0279302D02*
X0126530Y0278101D01*
X0126530Y0278701D02*
X0122927Y0278701D01*
X0122927Y0278101D02*
X0122927Y0279302D01*
X0123528Y0276820D02*
X0122927Y0276219D01*
X0122927Y0275018D01*
X0123528Y0274418D01*
X0124729Y0275018D02*
X0124729Y0276219D01*
X0124128Y0276820D01*
X0123528Y0276820D01*
X0124729Y0275018D02*
X0125329Y0274418D01*
X0125930Y0274418D01*
X0126530Y0275018D01*
X0126530Y0276219D01*
X0125930Y0276820D01*
X0124729Y0273136D02*
X0124729Y0270734D01*
X0126530Y0269480D02*
X0126530Y0268279D01*
X0126530Y0268879D02*
X0122927Y0268879D01*
X0122927Y0268279D02*
X0122927Y0269480D01*
X0122927Y0266998D02*
X0126530Y0266998D01*
X0124729Y0266998D02*
X0124729Y0264596D01*
X0126530Y0264596D02*
X0122927Y0264596D01*
X0151427Y0235511D02*
X0151427Y0233109D01*
X0153829Y0235511D01*
X0154430Y0235511D01*
X0155030Y0234911D01*
X0155030Y0233710D01*
X0154430Y0233109D01*
X0154430Y0231828D02*
X0155030Y0231228D01*
X0155030Y0230027D01*
X0154430Y0229426D01*
X0154430Y0228145D02*
X0153229Y0228145D01*
X0152628Y0227545D01*
X0152628Y0225743D01*
X0151427Y0225743D02*
X0155030Y0225743D01*
X0155030Y0227545D01*
X0154430Y0228145D01*
X0152628Y0226944D02*
X0151427Y0228145D01*
X0151427Y0229426D02*
X0153829Y0231828D01*
X0154430Y0231828D01*
X0151427Y0231828D02*
X0151427Y0229426D01*
X0158990Y0229909D02*
X0158990Y0227507D01*
X0158990Y0228708D02*
X0162593Y0228708D01*
X0161392Y0227507D01*
X0161993Y0226226D02*
X0159591Y0226226D01*
X0158990Y0225625D01*
X0158990Y0223824D01*
X0162593Y0223824D01*
X0162593Y0225625D01*
X0161993Y0226226D01*
X0162243Y0218896D02*
X0162844Y0218295D01*
X0162243Y0218896D02*
X0161042Y0218896D01*
X0160442Y0218295D01*
X0160442Y0217695D01*
X0162844Y0215293D01*
X0160442Y0215293D01*
X0159161Y0215893D02*
X0159161Y0216494D01*
X0158560Y0217094D01*
X0157359Y0217094D01*
X0156759Y0216494D01*
X0156759Y0215893D01*
X0157359Y0215293D01*
X0158560Y0215293D01*
X0159161Y0215893D01*
X0158560Y0217094D02*
X0159161Y0217695D01*
X0159161Y0218295D01*
X0158560Y0218896D01*
X0157359Y0218896D01*
X0156759Y0218295D01*
X0156759Y0217695D01*
X0157359Y0217094D01*
X0157359Y0212146D02*
X0158560Y0212146D01*
X0159161Y0211545D01*
X0159161Y0210945D01*
X0158560Y0210344D01*
X0156759Y0210344D01*
X0156759Y0209143D02*
X0156759Y0211545D01*
X0157359Y0212146D01*
X0156759Y0209143D02*
X0157359Y0208543D01*
X0158560Y0208543D01*
X0159161Y0209143D01*
X0160442Y0208543D02*
X0162844Y0208543D01*
X0160442Y0210945D01*
X0160442Y0211545D01*
X0161042Y0212146D01*
X0162243Y0212146D01*
X0162844Y0211545D01*
X0164125Y0211545D02*
X0164725Y0212146D01*
X0165927Y0212146D01*
X0166527Y0211545D01*
X0166527Y0209143D01*
X0165927Y0208543D01*
X0164725Y0208543D01*
X0164125Y0209143D01*
X0164725Y0205396D02*
X0165927Y0205396D01*
X0166527Y0204795D01*
X0166527Y0202393D01*
X0165927Y0201793D01*
X0164725Y0201793D01*
X0164125Y0202393D01*
X0162844Y0202393D02*
X0162243Y0201793D01*
X0161042Y0201793D01*
X0160442Y0202393D01*
X0160442Y0202994D01*
X0161042Y0203594D01*
X0161643Y0203594D01*
X0161042Y0203594D02*
X0160442Y0204195D01*
X0160442Y0204795D01*
X0161042Y0205396D01*
X0162243Y0205396D01*
X0162844Y0204795D01*
X0164125Y0204795D02*
X0164725Y0205396D01*
X0159161Y0204795D02*
X0159161Y0202393D01*
X0156759Y0204795D01*
X0156759Y0202393D01*
X0157359Y0201793D01*
X0158560Y0201793D01*
X0159161Y0202393D01*
X0159161Y0204795D02*
X0158560Y0205396D01*
X0157359Y0205396D01*
X0156759Y0204795D01*
X0164725Y0215293D02*
X0164125Y0215893D01*
X0164725Y0215293D02*
X0165927Y0215293D01*
X0166527Y0215893D01*
X0166527Y0218295D01*
X0165927Y0218896D01*
X0164725Y0218896D01*
X0164125Y0218295D01*
X0161392Y0231190D02*
X0162593Y0232391D01*
X0158990Y0232391D01*
X0158990Y0231190D02*
X0158990Y0233592D01*
X0195177Y0248493D02*
X0195177Y0250295D01*
X0195778Y0250895D01*
X0198180Y0250895D01*
X0198780Y0250295D01*
X0198780Y0248493D01*
X0195177Y0248493D01*
X0195177Y0252176D02*
X0195177Y0254578D01*
X0195177Y0253377D02*
X0198780Y0253377D01*
X0197579Y0252176D01*
X0198180Y0255859D02*
X0198780Y0256460D01*
X0198780Y0257661D01*
X0198180Y0258261D01*
X0195778Y0255859D01*
X0195177Y0256460D01*
X0195177Y0257661D01*
X0195778Y0258261D01*
X0198180Y0258261D01*
X0198180Y0255859D02*
X0195778Y0255859D01*
X0165927Y0189146D02*
X0166527Y0188545D01*
X0166527Y0186143D01*
X0165927Y0185543D01*
X0164725Y0185543D01*
X0164125Y0186143D01*
X0162844Y0186143D02*
X0162243Y0185543D01*
X0161042Y0185543D01*
X0160442Y0186143D01*
X0160442Y0186744D01*
X0161042Y0187344D01*
X0161643Y0187344D01*
X0161042Y0187344D02*
X0160442Y0187945D01*
X0160442Y0188545D01*
X0161042Y0189146D01*
X0162243Y0189146D01*
X0162844Y0188545D01*
X0164125Y0188545D02*
X0164725Y0189146D01*
X0165927Y0189146D01*
X0165927Y0182646D02*
X0166527Y0182045D01*
X0166527Y0179643D01*
X0165927Y0179043D01*
X0164725Y0179043D01*
X0164125Y0179643D01*
X0162844Y0179643D02*
X0162243Y0179043D01*
X0161042Y0179043D01*
X0160442Y0179643D01*
X0160442Y0180244D01*
X0161042Y0180844D01*
X0161643Y0180844D01*
X0161042Y0180844D02*
X0160442Y0181445D01*
X0160442Y0182045D01*
X0161042Y0182646D01*
X0162243Y0182646D01*
X0162844Y0182045D01*
X0164125Y0182045D02*
X0164725Y0182646D01*
X0165927Y0182646D01*
X0159161Y0180844D02*
X0157359Y0180844D01*
X0156759Y0180244D01*
X0156759Y0179643D01*
X0157359Y0179043D01*
X0158560Y0179043D01*
X0159161Y0179643D01*
X0159161Y0180844D01*
X0157960Y0182045D01*
X0156759Y0182646D01*
X0157359Y0185543D02*
X0158560Y0185543D01*
X0159161Y0186143D01*
X0159161Y0187344D02*
X0157960Y0187945D01*
X0157359Y0187945D01*
X0156759Y0187344D01*
X0156759Y0186143D01*
X0157359Y0185543D01*
X0159161Y0187344D02*
X0159161Y0189146D01*
X0156759Y0189146D01*
X0156759Y0175396D02*
X0156759Y0174795D01*
X0159161Y0172393D01*
X0159161Y0171793D01*
X0160442Y0172393D02*
X0161042Y0171793D01*
X0162243Y0171793D01*
X0162844Y0172393D01*
X0164125Y0172393D02*
X0164725Y0171793D01*
X0165927Y0171793D01*
X0166527Y0172393D01*
X0166527Y0174795D01*
X0165927Y0175396D01*
X0164725Y0175396D01*
X0164125Y0174795D01*
X0162844Y0174795D02*
X0162243Y0175396D01*
X0161042Y0175396D01*
X0160442Y0174795D01*
X0160442Y0174195D01*
X0161042Y0173594D01*
X0160442Y0172994D01*
X0160442Y0172393D01*
X0161042Y0173594D02*
X0161643Y0173594D01*
X0159161Y0175396D02*
X0156759Y0175396D01*
X0154180Y0161011D02*
X0153579Y0161011D01*
X0151177Y0158609D01*
X0151177Y0161011D01*
X0154180Y0161011D02*
X0154780Y0160411D01*
X0154780Y0159210D01*
X0154180Y0158609D01*
X0154180Y0157328D02*
X0153579Y0157328D01*
X0152979Y0156728D01*
X0152378Y0157328D01*
X0151778Y0157328D01*
X0151177Y0156728D01*
X0151177Y0155527D01*
X0151778Y0154926D01*
X0151177Y0153645D02*
X0152378Y0152444D01*
X0152378Y0153045D02*
X0152378Y0151243D01*
X0151177Y0151243D02*
X0154780Y0151243D01*
X0154780Y0153045D01*
X0154180Y0153645D01*
X0152979Y0153645D01*
X0152378Y0153045D01*
X0154180Y0154926D02*
X0154780Y0155527D01*
X0154780Y0156728D01*
X0154180Y0157328D01*
X0152979Y0156728D02*
X0152979Y0156127D01*
X0174690Y0146833D02*
X0176491Y0145031D01*
X0174089Y0145031D01*
X0174690Y0143230D02*
X0174690Y0146833D01*
X0178974Y0146833D02*
X0178974Y0143230D01*
X0180175Y0143230D02*
X0177773Y0143230D01*
X0180175Y0145632D02*
X0178974Y0146833D01*
X0181456Y0146232D02*
X0182056Y0146833D01*
X0183858Y0146833D01*
X0183858Y0143230D01*
X0182056Y0143230D01*
X0181456Y0143830D01*
X0181456Y0146232D01*
X0180775Y0137896D02*
X0180174Y0137295D01*
X0180174Y0136094D01*
X0180775Y0135494D01*
X0182576Y0135494D01*
X0181375Y0135494D02*
X0180174Y0134293D01*
X0178893Y0134293D02*
X0176491Y0136695D01*
X0176491Y0137295D01*
X0177092Y0137896D01*
X0178293Y0137896D01*
X0178893Y0137295D01*
X0180775Y0137896D02*
X0182576Y0137896D01*
X0182576Y0134293D01*
X0178893Y0134293D02*
X0176491Y0134293D01*
X0175210Y0134893D02*
X0174610Y0134293D01*
X0173409Y0134293D01*
X0172808Y0134893D01*
X0172808Y0137295D01*
X0173409Y0137896D01*
X0174610Y0137896D01*
X0175210Y0137295D01*
X0175210Y0136695D01*
X0174610Y0136094D01*
X0172808Y0136094D01*
X0201859Y0151543D02*
X0201859Y0155146D01*
X0203661Y0153344D01*
X0201259Y0153344D01*
X0204942Y0152744D02*
X0204942Y0152143D01*
X0205542Y0151543D01*
X0206743Y0151543D01*
X0207344Y0152143D01*
X0208625Y0151543D02*
X0209826Y0152744D01*
X0209225Y0152744D02*
X0211027Y0152744D01*
X0211027Y0151543D02*
X0211027Y0155146D01*
X0209225Y0155146D01*
X0208625Y0154545D01*
X0208625Y0153344D01*
X0209225Y0152744D01*
X0207344Y0154545D02*
X0206743Y0155146D01*
X0205542Y0155146D01*
X0204942Y0154545D01*
X0204942Y0153945D01*
X0205542Y0153344D01*
X0204942Y0152744D01*
X0205542Y0153344D02*
X0206143Y0153344D01*
X0195108Y0166230D02*
X0193306Y0166230D01*
X0192706Y0166830D01*
X0192706Y0169232D01*
X0193306Y0169833D01*
X0195108Y0169833D01*
X0195108Y0166230D01*
X0191425Y0166230D02*
X0189023Y0166230D01*
X0190224Y0166230D02*
X0190224Y0169833D01*
X0191425Y0168632D01*
X0187741Y0169232D02*
X0187141Y0169833D01*
X0185940Y0169833D01*
X0185339Y0169232D01*
X0185339Y0168632D01*
X0185940Y0168031D01*
X0185339Y0167431D01*
X0185339Y0166830D01*
X0185940Y0166230D01*
X0187141Y0166230D01*
X0187741Y0166830D01*
X0186540Y0168031D02*
X0185940Y0168031D01*
X0126280Y0164391D02*
X0126280Y0161989D01*
X0122677Y0161989D01*
X0122677Y0164391D01*
X0124479Y0163190D02*
X0124479Y0161989D01*
X0125680Y0160708D02*
X0126280Y0160108D01*
X0126280Y0158306D01*
X0122677Y0158306D01*
X0122677Y0160108D01*
X0123278Y0160708D01*
X0125680Y0160708D01*
X0126280Y0157052D02*
X0126280Y0155851D01*
X0126280Y0156451D02*
X0122677Y0156451D01*
X0122677Y0155851D02*
X0122677Y0157052D01*
X0123278Y0154570D02*
X0122677Y0153969D01*
X0122677Y0152768D01*
X0123278Y0152168D01*
X0124479Y0152768D02*
X0124479Y0153969D01*
X0123878Y0154570D01*
X0123278Y0154570D01*
X0124479Y0152768D02*
X0125079Y0152168D01*
X0125680Y0152168D01*
X0126280Y0152768D01*
X0126280Y0153969D01*
X0125680Y0154570D01*
X0124479Y0150886D02*
X0124479Y0148484D01*
X0125680Y0147203D02*
X0126280Y0146603D01*
X0126280Y0145402D01*
X0125680Y0144801D01*
X0123278Y0144801D01*
X0122677Y0145402D01*
X0122677Y0146603D01*
X0123278Y0147203D01*
X0125680Y0147203D01*
X0122677Y0143520D02*
X0122677Y0141118D01*
X0126280Y0141118D01*
X0098788Y0134828D02*
X0098788Y0133627D01*
X0098187Y0133027D01*
X0098187Y0131746D02*
X0096986Y0131746D01*
X0096386Y0131145D01*
X0096386Y0129344D01*
X0096386Y0130545D02*
X0095185Y0131746D01*
X0095185Y0133027D02*
X0097587Y0135429D01*
X0098187Y0135429D01*
X0098788Y0134828D01*
X0098187Y0131746D02*
X0098788Y0131145D01*
X0098788Y0129344D01*
X0095185Y0129344D01*
X0095185Y0133027D02*
X0095185Y0135429D01*
X0095185Y0149344D02*
X0098788Y0149344D01*
X0098788Y0151145D01*
X0098187Y0151746D01*
X0096986Y0151746D01*
X0096386Y0151145D01*
X0096386Y0149344D01*
X0096386Y0150545D02*
X0095185Y0151746D01*
X0095185Y0153027D02*
X0095185Y0155429D01*
X0095185Y0154228D02*
X0098788Y0154228D01*
X0097587Y0153027D01*
X0371009Y0327793D02*
X0373411Y0327793D01*
X0372210Y0327793D02*
X0372210Y0331396D01*
X0373411Y0330195D01*
X0374692Y0330795D02*
X0377094Y0328393D01*
X0377094Y0327793D01*
X0378375Y0328393D02*
X0378975Y0327793D01*
X0380177Y0327793D01*
X0380777Y0328393D01*
X0380777Y0330795D01*
X0380177Y0331396D01*
X0378975Y0331396D01*
X0378375Y0330795D01*
X0377094Y0331396D02*
X0374692Y0331396D01*
X0374692Y0330795D01*
X0372560Y0337793D02*
X0371359Y0337793D01*
X0370759Y0338393D01*
X0370759Y0340795D01*
X0371359Y0341396D01*
X0372560Y0341396D01*
X0373161Y0340795D01*
X0373161Y0340195D01*
X0372560Y0339594D01*
X0370759Y0339594D01*
X0372560Y0337793D02*
X0373161Y0338393D01*
X0374442Y0340795D02*
X0376844Y0338393D01*
X0376844Y0337793D01*
X0378125Y0337793D02*
X0379326Y0338994D01*
X0378725Y0338994D02*
X0380527Y0338994D01*
X0380527Y0337793D02*
X0380527Y0341396D01*
X0378725Y0341396D01*
X0378125Y0340795D01*
X0378125Y0339594D01*
X0378725Y0338994D01*
X0376844Y0341396D02*
X0374442Y0341396D01*
X0374442Y0340795D01*
X0373411Y0345293D02*
X0373411Y0345893D01*
X0371009Y0348295D01*
X0371009Y0348896D01*
X0373411Y0348896D01*
X0374692Y0348896D02*
X0374692Y0348295D01*
X0377094Y0345893D01*
X0377094Y0345293D01*
X0378375Y0345293D02*
X0379576Y0346494D01*
X0378975Y0346494D02*
X0380777Y0346494D01*
X0380777Y0345293D02*
X0380777Y0348896D01*
X0378975Y0348896D01*
X0378375Y0348295D01*
X0378375Y0347094D01*
X0378975Y0346494D01*
X0377094Y0348896D02*
X0374692Y0348896D01*
X0373411Y0356293D02*
X0371009Y0356293D01*
X0371009Y0358695D02*
X0371009Y0359295D01*
X0371609Y0359896D01*
X0372810Y0359896D01*
X0373411Y0359295D01*
X0374692Y0359295D02*
X0377094Y0356893D01*
X0377094Y0356293D01*
X0378375Y0356893D02*
X0378975Y0356293D01*
X0380177Y0356293D01*
X0380777Y0356893D01*
X0380777Y0359295D01*
X0380177Y0359896D01*
X0378975Y0359896D01*
X0378375Y0359295D01*
X0377094Y0359896D02*
X0374692Y0359896D01*
X0374692Y0359295D01*
X0373411Y0356293D02*
X0371009Y0358695D01*
X0405086Y0329146D02*
X0405086Y0328545D01*
X0407488Y0326143D01*
X0407488Y0325543D01*
X0408770Y0326143D02*
X0409370Y0325543D01*
X0410571Y0325543D01*
X0411172Y0326143D01*
X0411172Y0328545D01*
X0410571Y0329146D01*
X0409370Y0329146D01*
X0408770Y0328545D01*
X0407488Y0329146D02*
X0405086Y0329146D01*
X0412426Y0329146D02*
X0413627Y0329146D01*
X0413027Y0329146D02*
X0413027Y0325543D01*
X0413627Y0325543D02*
X0412426Y0325543D01*
X0436177Y0324210D02*
X0436177Y0323009D01*
X0436778Y0322409D01*
X0437378Y0322409D01*
X0437979Y0323009D01*
X0437979Y0324210D01*
X0437378Y0324811D01*
X0436778Y0324811D01*
X0436177Y0324210D01*
X0437979Y0324210D02*
X0438579Y0324811D01*
X0439180Y0324811D01*
X0439780Y0324210D01*
X0439780Y0323009D01*
X0439180Y0322409D01*
X0438579Y0322409D01*
X0437979Y0323009D01*
X0439180Y0321128D02*
X0436778Y0318726D01*
X0436177Y0318726D01*
X0436177Y0317445D02*
X0437378Y0316244D01*
X0437378Y0316844D02*
X0437378Y0315043D01*
X0436177Y0315043D02*
X0439780Y0315043D01*
X0439780Y0316844D01*
X0439180Y0317445D01*
X0437979Y0317445D01*
X0437378Y0316844D01*
X0439780Y0318726D02*
X0439780Y0321128D01*
X0439180Y0321128D01*
X0449427Y0309261D02*
X0449427Y0306859D01*
X0451829Y0309261D01*
X0452430Y0309261D01*
X0453030Y0308661D01*
X0453030Y0307460D01*
X0452430Y0306859D01*
X0452430Y0305578D02*
X0450028Y0303176D01*
X0449427Y0303176D01*
X0449427Y0301895D02*
X0450628Y0300694D01*
X0450628Y0301295D02*
X0450628Y0299493D01*
X0449427Y0299493D02*
X0453030Y0299493D01*
X0453030Y0301295D01*
X0452430Y0301895D01*
X0451229Y0301895D01*
X0450628Y0301295D01*
X0453030Y0303176D02*
X0453030Y0305578D01*
X0452430Y0305578D01*
X0482058Y0323893D02*
X0482659Y0323293D01*
X0483860Y0323293D01*
X0484460Y0323893D01*
X0485741Y0323893D02*
X0486342Y0323293D01*
X0487543Y0323293D01*
X0488143Y0323893D01*
X0488143Y0324494D01*
X0487543Y0325094D01*
X0486342Y0325094D01*
X0485741Y0324494D01*
X0485741Y0323893D01*
X0486342Y0325094D02*
X0485741Y0325695D01*
X0485741Y0326295D01*
X0486342Y0326896D01*
X0487543Y0326896D01*
X0488143Y0326295D01*
X0488143Y0325695D01*
X0487543Y0325094D01*
X0489424Y0325094D02*
X0489424Y0326295D01*
X0490025Y0326896D01*
X0491826Y0326896D01*
X0491826Y0323293D01*
X0491826Y0324494D02*
X0490025Y0324494D01*
X0489424Y0325094D01*
X0490625Y0324494D02*
X0489424Y0323293D01*
X0484460Y0326295D02*
X0483860Y0326896D01*
X0482659Y0326896D01*
X0482058Y0326295D01*
X0482058Y0325695D01*
X0482659Y0325094D01*
X0482058Y0324494D01*
X0482058Y0323893D01*
X0482659Y0325094D02*
X0483259Y0325094D01*
X0502808Y0326844D02*
X0505210Y0326844D01*
X0503409Y0328646D01*
X0503409Y0325043D01*
X0506491Y0328045D02*
X0508893Y0325643D01*
X0508893Y0325043D01*
X0510174Y0325043D02*
X0511375Y0326244D01*
X0510775Y0326244D02*
X0512576Y0326244D01*
X0512576Y0325043D02*
X0512576Y0328646D01*
X0510775Y0328646D01*
X0510174Y0328045D01*
X0510174Y0326844D01*
X0510775Y0326244D01*
X0508893Y0328646D02*
X0506491Y0328646D01*
X0506491Y0328045D01*
X0520808Y0327844D02*
X0523210Y0327844D01*
X0521409Y0329646D01*
X0521409Y0326043D01*
X0524491Y0326643D02*
X0524491Y0327244D01*
X0525092Y0327844D01*
X0526893Y0327844D01*
X0526893Y0326643D01*
X0526293Y0326043D01*
X0525092Y0326043D01*
X0524491Y0326643D01*
X0525692Y0329045D02*
X0526893Y0327844D01*
X0525692Y0329045D02*
X0524491Y0329646D01*
X0528174Y0329045D02*
X0528775Y0329646D01*
X0529976Y0329646D01*
X0530576Y0329045D01*
X0530576Y0326643D01*
X0529976Y0326043D01*
X0528775Y0326043D01*
X0528174Y0326643D01*
X0511127Y0359043D02*
X0509926Y0359043D01*
X0510527Y0359043D02*
X0510527Y0362646D01*
X0511127Y0362646D02*
X0509926Y0362646D01*
X0508672Y0362045D02*
X0508672Y0359643D01*
X0508071Y0359043D01*
X0506870Y0359043D01*
X0506270Y0359643D01*
X0504988Y0359643D02*
X0504388Y0359043D01*
X0503187Y0359043D01*
X0502586Y0359643D01*
X0502586Y0360244D01*
X0503187Y0360844D01*
X0504988Y0360844D01*
X0504988Y0359643D01*
X0504988Y0360844D02*
X0503787Y0362045D01*
X0502586Y0362646D01*
X0506270Y0362045D02*
X0506870Y0362646D01*
X0508071Y0362646D01*
X0508672Y0362045D01*
X0617677Y0308561D02*
X0617677Y0306159D01*
X0620079Y0308561D01*
X0620680Y0308561D01*
X0621280Y0307960D01*
X0621280Y0306759D01*
X0620680Y0306159D01*
X0621280Y0304878D02*
X0621280Y0302476D01*
X0619479Y0302476D01*
X0620079Y0303677D01*
X0620079Y0304277D01*
X0619479Y0304878D01*
X0618278Y0304878D01*
X0617677Y0304277D01*
X0617677Y0303076D01*
X0618278Y0302476D01*
X0618278Y0301195D02*
X0617677Y0300594D01*
X0617677Y0299393D01*
X0618278Y0298793D01*
X0620680Y0298793D01*
X0621280Y0299393D01*
X0621280Y0300594D01*
X0620680Y0301195D01*
X0629528Y0262761D02*
X0628927Y0262161D01*
X0628927Y0260960D01*
X0629528Y0260359D01*
X0629528Y0259078D02*
X0628927Y0258478D01*
X0628927Y0257277D01*
X0629528Y0256676D01*
X0630729Y0256676D02*
X0631329Y0257877D01*
X0631329Y0258478D01*
X0630729Y0259078D01*
X0629528Y0259078D01*
X0631329Y0260359D02*
X0630729Y0260960D01*
X0630729Y0262761D01*
X0631930Y0262761D02*
X0632530Y0262161D01*
X0632530Y0260960D01*
X0631930Y0260359D01*
X0631329Y0260359D01*
X0632530Y0259078D02*
X0632530Y0256676D01*
X0630729Y0256676D01*
X0630729Y0255395D02*
X0630128Y0254795D01*
X0630128Y0252993D01*
X0628927Y0252993D02*
X0632530Y0252993D01*
X0632530Y0254795D01*
X0631930Y0255395D01*
X0630729Y0255395D01*
X0630128Y0254194D02*
X0628927Y0255395D01*
X0629528Y0262761D02*
X0631930Y0262761D01*
X0585030Y0231460D02*
X0585030Y0230259D01*
X0584430Y0229659D01*
X0585030Y0228378D02*
X0584430Y0227177D01*
X0583229Y0225976D01*
X0583229Y0227777D01*
X0582628Y0228378D01*
X0582028Y0228378D01*
X0581427Y0227777D01*
X0581427Y0226576D01*
X0582028Y0225976D01*
X0583229Y0225976D01*
X0584430Y0224695D02*
X0585030Y0224094D01*
X0585030Y0222893D01*
X0584430Y0222293D01*
X0582028Y0222293D01*
X0581427Y0222893D01*
X0581427Y0224094D01*
X0582028Y0224695D01*
X0581427Y0229659D02*
X0583829Y0232061D01*
X0584430Y0232061D01*
X0585030Y0231460D01*
X0581427Y0232061D02*
X0581427Y0229659D01*
X0589427Y0225061D02*
X0589427Y0222659D01*
X0589427Y0223860D02*
X0593030Y0223860D01*
X0591829Y0222659D01*
X0590628Y0221378D02*
X0591229Y0220777D01*
X0591229Y0218976D01*
X0590028Y0218976D01*
X0589427Y0219576D01*
X0589427Y0220777D01*
X0590028Y0221378D01*
X0590628Y0221378D01*
X0592430Y0220177D02*
X0591229Y0218976D01*
X0592430Y0220177D02*
X0593030Y0221378D01*
X0592430Y0217695D02*
X0593030Y0217094D01*
X0593030Y0215893D01*
X0592430Y0215293D01*
X0590028Y0215293D01*
X0589427Y0215893D01*
X0589427Y0217094D01*
X0590028Y0217695D01*
X0572780Y0218344D02*
X0572780Y0216543D01*
X0569177Y0216543D01*
X0570378Y0216543D02*
X0570378Y0218344D01*
X0570979Y0218945D01*
X0572180Y0218945D01*
X0572780Y0218344D01*
X0570378Y0217744D02*
X0569177Y0218945D01*
X0569778Y0220226D02*
X0569177Y0220826D01*
X0569177Y0222027D01*
X0569778Y0222628D01*
X0570378Y0222628D01*
X0570979Y0222027D01*
X0570979Y0220226D01*
X0569778Y0220226D01*
X0570979Y0220226D02*
X0572180Y0221427D01*
X0572780Y0222628D01*
X0572180Y0223909D02*
X0572780Y0224509D01*
X0572780Y0225710D01*
X0572180Y0226311D01*
X0571579Y0226311D01*
X0570979Y0225710D01*
X0570378Y0226311D01*
X0569778Y0226311D01*
X0569177Y0225710D01*
X0569177Y0224509D01*
X0569778Y0223909D01*
X0570979Y0225110D02*
X0570979Y0225710D01*
X0559467Y0215130D02*
X0559467Y0213929D01*
X0558867Y0213328D01*
X0558867Y0212047D02*
X0559467Y0211446D01*
X0559467Y0210245D01*
X0558867Y0209645D01*
X0558867Y0208364D02*
X0559467Y0207763D01*
X0559467Y0205962D01*
X0555864Y0205962D01*
X0555864Y0207763D01*
X0556465Y0208364D01*
X0558867Y0208364D01*
X0555864Y0209645D02*
X0558266Y0212047D01*
X0558867Y0212047D01*
X0555864Y0212047D02*
X0555864Y0209645D01*
X0555864Y0213328D02*
X0558266Y0215730D01*
X0558867Y0215730D01*
X0559467Y0215130D01*
X0555864Y0215730D02*
X0555864Y0213328D01*
X0594759Y0195396D02*
X0597161Y0195396D01*
X0597161Y0193594D01*
X0595960Y0194195D01*
X0595359Y0194195D01*
X0594759Y0193594D01*
X0594759Y0192393D01*
X0595359Y0191793D01*
X0596560Y0191793D01*
X0597161Y0192393D01*
X0598442Y0192393D02*
X0598442Y0192994D01*
X0599042Y0193594D01*
X0600844Y0193594D01*
X0600844Y0192393D01*
X0600243Y0191793D01*
X0599042Y0191793D01*
X0598442Y0192393D01*
X0599643Y0194795D02*
X0600844Y0193594D01*
X0602125Y0193594D02*
X0602725Y0192994D01*
X0604527Y0192994D01*
X0603326Y0192994D02*
X0602125Y0191793D01*
X0602125Y0193594D02*
X0602125Y0194795D01*
X0602725Y0195396D01*
X0604527Y0195396D01*
X0604527Y0191793D01*
X0599643Y0194795D02*
X0598442Y0195396D01*
X0606677Y0202793D02*
X0610280Y0202793D01*
X0610280Y0204594D01*
X0609680Y0205195D01*
X0608479Y0205195D01*
X0607878Y0204594D01*
X0607878Y0202793D01*
X0607878Y0203994D02*
X0606677Y0205195D01*
X0607278Y0206476D02*
X0606677Y0207076D01*
X0606677Y0208277D01*
X0607278Y0208878D01*
X0607878Y0208878D01*
X0608479Y0208277D01*
X0608479Y0206476D01*
X0607278Y0206476D01*
X0608479Y0206476D02*
X0609680Y0207677D01*
X0610280Y0208878D01*
X0608479Y0210159D02*
X0608479Y0212561D01*
X0610280Y0211960D02*
X0606677Y0211960D01*
X0608479Y0210159D02*
X0610280Y0211960D01*
X0610844Y0181896D02*
X0608442Y0181896D01*
X0609042Y0180695D02*
X0608442Y0180094D01*
X0608442Y0178893D01*
X0609042Y0178293D01*
X0610243Y0178293D01*
X0610844Y0178893D01*
X0610844Y0180094D02*
X0609643Y0180695D01*
X0609042Y0180695D01*
X0607161Y0180695D02*
X0606560Y0180094D01*
X0604759Y0180094D01*
X0604759Y0178893D02*
X0604759Y0181295D01*
X0605359Y0181896D01*
X0606560Y0181896D01*
X0607161Y0181295D01*
X0607161Y0180695D01*
X0607161Y0178893D02*
X0606560Y0178293D01*
X0605359Y0178293D01*
X0604759Y0178893D01*
X0610844Y0180094D02*
X0610844Y0181896D01*
X0612125Y0181295D02*
X0612725Y0181896D01*
X0613927Y0181896D01*
X0614527Y0181295D01*
X0614527Y0178893D01*
X0613927Y0178293D01*
X0612725Y0178293D01*
X0612125Y0178893D01*
X0612475Y0171146D02*
X0613677Y0171146D01*
X0614277Y0170545D01*
X0614277Y0168143D01*
X0613677Y0167543D01*
X0612475Y0167543D01*
X0611875Y0168143D01*
X0610594Y0168143D02*
X0609993Y0167543D01*
X0608792Y0167543D01*
X0608192Y0168143D01*
X0608192Y0168744D01*
X0608792Y0169344D01*
X0610594Y0169344D01*
X0610594Y0168143D01*
X0610594Y0169344D02*
X0609393Y0170545D01*
X0608192Y0171146D01*
X0606911Y0170545D02*
X0606310Y0171146D01*
X0605109Y0171146D01*
X0604509Y0170545D01*
X0606911Y0168143D01*
X0606310Y0167543D01*
X0605109Y0167543D01*
X0604509Y0168143D01*
X0604509Y0170545D01*
X0606911Y0170545D02*
X0606911Y0168143D01*
X0611875Y0170545D02*
X0612475Y0171146D01*
X0577030Y0150761D02*
X0576430Y0149560D01*
X0575229Y0148359D01*
X0575229Y0150161D01*
X0574628Y0150761D01*
X0574028Y0150761D01*
X0573427Y0150161D01*
X0573427Y0148960D01*
X0574028Y0148359D01*
X0575229Y0148359D01*
X0574628Y0147078D02*
X0575229Y0146478D01*
X0575229Y0144676D01*
X0574028Y0144676D01*
X0573427Y0145277D01*
X0573427Y0146478D01*
X0574028Y0147078D01*
X0574628Y0147078D01*
X0576430Y0145877D02*
X0577030Y0147078D01*
X0576430Y0145877D02*
X0575229Y0144676D01*
X0575229Y0143395D02*
X0574628Y0142795D01*
X0574628Y0140993D01*
X0573427Y0140993D02*
X0577030Y0140993D01*
X0577030Y0142795D01*
X0576430Y0143395D01*
X0575229Y0143395D01*
X0574628Y0142194D02*
X0573427Y0143395D01*
X0569843Y0143058D02*
X0569843Y0141857D01*
X0569243Y0141257D01*
X0569243Y0139976D02*
X0569843Y0139375D01*
X0569843Y0137574D01*
X0566240Y0137574D01*
X0566240Y0139375D01*
X0566841Y0139976D01*
X0569243Y0139976D01*
X0569843Y0143058D02*
X0569243Y0143659D01*
X0568642Y0143659D01*
X0566240Y0141257D01*
X0566240Y0143659D01*
X0566841Y0144940D02*
X0566240Y0145541D01*
X0566240Y0146742D01*
X0566841Y0147342D01*
X0567441Y0147342D01*
X0568042Y0146742D01*
X0568042Y0146141D01*
X0568042Y0146742D02*
X0568642Y0147342D01*
X0569243Y0147342D01*
X0569843Y0146742D01*
X0569843Y0145541D01*
X0569243Y0144940D01*
X0572439Y0115945D02*
X0573039Y0115945D01*
X0574240Y0114744D01*
X0574240Y0113543D02*
X0574240Y0115945D01*
X0575521Y0115344D02*
X0576122Y0115945D01*
X0577323Y0115945D01*
X0577923Y0115344D01*
X0577923Y0114143D01*
X0577323Y0113543D01*
X0576122Y0113543D01*
X0575521Y0114143D01*
X0575521Y0115344D01*
X0579178Y0115945D02*
X0580379Y0115945D01*
X0579778Y0116545D02*
X0579778Y0114143D01*
X0579178Y0113543D01*
X0581660Y0113543D02*
X0583461Y0113543D01*
X0584062Y0114143D01*
X0584062Y0115344D01*
X0583461Y0115945D01*
X0581660Y0115945D01*
X0585343Y0115344D02*
X0585343Y0114744D01*
X0587745Y0114744D01*
X0587745Y0115344D02*
X0587745Y0114143D01*
X0587145Y0113543D01*
X0585943Y0113543D01*
X0585343Y0115344D02*
X0585943Y0115945D01*
X0587145Y0115945D01*
X0587745Y0115344D01*
X0589026Y0115344D02*
X0589026Y0113543D01*
X0589026Y0115344D02*
X0589627Y0115945D01*
X0591428Y0115945D01*
X0591428Y0113543D01*
X0592709Y0113543D02*
X0592709Y0115344D01*
X0593310Y0115945D01*
X0595111Y0115945D01*
X0595111Y0113543D01*
X0596392Y0114143D02*
X0596392Y0115344D01*
X0596993Y0115945D01*
X0598194Y0115945D01*
X0598794Y0115344D01*
X0598794Y0114143D01*
X0598194Y0113543D01*
X0596993Y0113543D01*
X0596392Y0114143D01*
X0600076Y0113543D02*
X0601877Y0113543D01*
X0602478Y0114143D01*
X0602478Y0115344D01*
X0601877Y0115945D01*
X0600076Y0115945D01*
X0607442Y0115945D02*
X0609844Y0113543D01*
X0607442Y0113543D01*
X0607442Y0115945D02*
X0607442Y0116545D01*
X0608042Y0117146D01*
X0609243Y0117146D01*
X0609844Y0116545D01*
X0611125Y0117146D02*
X0613527Y0113543D01*
X0611125Y0113543D02*
X0613527Y0117146D01*
X0604326Y0108646D02*
X0604326Y0105043D01*
X0605527Y0105043D02*
X0603125Y0105043D01*
X0603725Y0102646D02*
X0603125Y0102045D01*
X0603125Y0101445D01*
X0605527Y0099043D01*
X0603125Y0099043D01*
X0603725Y0096646D02*
X0603125Y0096045D01*
X0603125Y0095445D01*
X0603725Y0094844D01*
X0603125Y0094244D01*
X0603125Y0093643D01*
X0603725Y0093043D01*
X0604927Y0093043D01*
X0605527Y0093643D01*
X0604326Y0094844D02*
X0603725Y0094844D01*
X0603725Y0096646D02*
X0604927Y0096646D01*
X0605527Y0096045D01*
X0605527Y0102045D02*
X0604927Y0102646D01*
X0603725Y0102646D01*
X0598161Y0102646D02*
X0598161Y0099043D01*
X0596359Y0099043D01*
X0595759Y0099643D01*
X0595759Y0100244D01*
X0596359Y0100844D01*
X0598161Y0100844D01*
X0598161Y0102646D02*
X0596359Y0102646D01*
X0595759Y0102045D01*
X0595759Y0101445D01*
X0596359Y0100844D01*
X0594478Y0101445D02*
X0593877Y0101445D01*
X0593877Y0099043D01*
X0593277Y0099043D02*
X0594478Y0099043D01*
X0593877Y0097246D02*
X0593877Y0096646D01*
X0593877Y0095445D02*
X0593877Y0093043D01*
X0593277Y0093043D02*
X0594478Y0093043D01*
X0595759Y0093643D02*
X0596359Y0093043D01*
X0598161Y0093043D01*
X0598161Y0096646D01*
X0596359Y0096646D01*
X0595759Y0096045D01*
X0595759Y0095445D01*
X0596359Y0094844D01*
X0598161Y0094844D01*
X0596359Y0094844D02*
X0595759Y0094244D01*
X0595759Y0093643D01*
X0594478Y0095445D02*
X0593877Y0095445D01*
X0591422Y0095445D02*
X0590221Y0095445D01*
X0589620Y0094844D01*
X0589620Y0093043D01*
X0591422Y0093043D01*
X0592022Y0093643D01*
X0591422Y0094244D01*
X0589620Y0094244D01*
X0588339Y0094844D02*
X0587739Y0095445D01*
X0585937Y0095445D01*
X0586537Y0094244D02*
X0587739Y0094244D01*
X0588339Y0094844D01*
X0588339Y0093043D02*
X0586537Y0093043D01*
X0585937Y0093643D01*
X0586537Y0094244D01*
X0584656Y0094844D02*
X0582254Y0094844D01*
X0579945Y0091443D02*
X0598361Y0091443D01*
X0598161Y0090646D02*
X0595759Y0090646D01*
X0594478Y0089445D02*
X0593277Y0090646D01*
X0592076Y0089445D01*
X0592076Y0087043D01*
X0590794Y0087643D02*
X0590194Y0087043D01*
X0588993Y0087043D01*
X0588392Y0087643D01*
X0588392Y0090646D01*
X0587111Y0090646D02*
X0587111Y0087043D01*
X0584709Y0087043D01*
X0582227Y0087043D02*
X0582227Y0090646D01*
X0583428Y0090646D02*
X0581026Y0090646D01*
X0590794Y0090646D02*
X0590794Y0087643D01*
X0592076Y0088844D02*
X0594478Y0088844D01*
X0594478Y0089445D02*
X0594478Y0087043D01*
X0595759Y0084646D02*
X0595759Y0082244D01*
X0596960Y0081043D01*
X0598161Y0082244D01*
X0598161Y0084646D01*
X0598161Y0087043D02*
X0598161Y0090646D01*
X0598161Y0088844D02*
X0596960Y0088844D01*
X0593277Y0084045D02*
X0593277Y0081643D01*
X0594478Y0082844D02*
X0592076Y0082844D01*
X0592676Y0077445D02*
X0592076Y0076844D01*
X0592076Y0075043D01*
X0590794Y0075643D02*
X0590794Y0076844D01*
X0590194Y0077445D01*
X0588392Y0077445D01*
X0588392Y0078646D02*
X0588392Y0075043D01*
X0590194Y0075043D01*
X0590794Y0075643D01*
X0592676Y0077445D02*
X0594478Y0077445D01*
X0594478Y0075043D01*
X0595759Y0075643D02*
X0596359Y0075043D01*
X0597560Y0075043D01*
X0598161Y0075643D01*
X0598161Y0078045D01*
X0597560Y0078646D01*
X0596359Y0078646D01*
X0595759Y0078045D01*
X0595759Y0076844D02*
X0596960Y0076844D01*
X0595759Y0076844D02*
X0595759Y0075643D01*
X0595759Y0072646D02*
X0595759Y0070244D01*
X0596960Y0069043D01*
X0598161Y0070244D01*
X0598161Y0072646D01*
X0594478Y0070844D02*
X0592076Y0070844D01*
X0592076Y0066646D02*
X0594478Y0066646D01*
X0594478Y0063043D01*
X0592076Y0063043D01*
X0593277Y0064844D02*
X0594478Y0064844D01*
X0595759Y0064844D02*
X0596359Y0064244D01*
X0598161Y0064244D01*
X0598161Y0063043D02*
X0598161Y0066646D01*
X0596359Y0066646D01*
X0595759Y0066045D01*
X0595759Y0064844D01*
X0603125Y0064244D02*
X0603125Y0063643D01*
X0603725Y0063043D01*
X0604927Y0063043D01*
X0605527Y0063643D01*
X0605527Y0064244D01*
X0604927Y0064844D01*
X0603725Y0064844D01*
X0603125Y0064244D01*
X0603725Y0064844D02*
X0603125Y0065445D01*
X0603125Y0066045D01*
X0603725Y0066646D01*
X0604927Y0066646D01*
X0605527Y0066045D01*
X0605527Y0065445D01*
X0604927Y0064844D01*
X0605527Y0069043D02*
X0605527Y0069643D01*
X0603125Y0072045D01*
X0603125Y0072646D01*
X0605527Y0072646D01*
X0604927Y0075043D02*
X0603725Y0075043D01*
X0603125Y0075643D01*
X0603125Y0076244D01*
X0603725Y0076844D01*
X0605527Y0076844D01*
X0605527Y0075643D01*
X0604927Y0075043D01*
X0605527Y0076844D02*
X0604326Y0078045D01*
X0603125Y0078646D01*
X0603725Y0081043D02*
X0603125Y0081643D01*
X0603125Y0082844D01*
X0603725Y0083445D01*
X0604326Y0083445D01*
X0605527Y0082844D01*
X0605527Y0084646D01*
X0603125Y0084646D01*
X0603725Y0087043D02*
X0603725Y0090646D01*
X0605527Y0088844D01*
X0603125Y0088844D01*
X0605527Y0081643D02*
X0604927Y0081043D01*
X0603725Y0081043D01*
X0591422Y0099043D02*
X0589620Y0099043D01*
X0589620Y0100844D01*
X0590221Y0101445D01*
X0591422Y0101445D01*
X0591422Y0100244D02*
X0589620Y0100244D01*
X0588339Y0100844D02*
X0587739Y0101445D01*
X0585937Y0101445D01*
X0586537Y0100244D02*
X0587739Y0100244D01*
X0588339Y0100844D01*
X0588339Y0099043D02*
X0586537Y0099043D01*
X0585937Y0099643D01*
X0586537Y0100244D01*
X0584656Y0100844D02*
X0582254Y0100844D01*
X0583455Y0102045D02*
X0583455Y0099643D01*
X0583428Y0105043D02*
X0583428Y0108646D01*
X0581026Y0105043D01*
X0581026Y0108646D01*
X0584709Y0108045D02*
X0584709Y0105643D01*
X0585310Y0105043D01*
X0586511Y0105043D01*
X0587111Y0105643D01*
X0587111Y0108045D01*
X0586511Y0108646D01*
X0585310Y0108646D01*
X0584709Y0108045D01*
X0588392Y0108646D02*
X0588392Y0105043D01*
X0590794Y0105043D02*
X0590794Y0108646D01*
X0589593Y0107445D01*
X0588392Y0108646D01*
X0592076Y0104442D02*
X0594478Y0104442D01*
X0593877Y0103246D02*
X0593877Y0102646D01*
X0591422Y0100244D02*
X0592022Y0099643D01*
X0591422Y0099043D01*
X0596359Y0105043D02*
X0595759Y0105643D01*
X0595759Y0108646D01*
X0598161Y0108646D02*
X0598161Y0105643D01*
X0597560Y0105043D01*
X0596359Y0105043D01*
X0604326Y0108646D02*
X0605527Y0107445D01*
D14*
X0137845Y0036118D02*
X0112845Y0051118D01*
X0112845Y0021118D01*
X0137845Y0036118D01*
X0130845Y0036820D02*
X0130249Y0036820D01*
X0130845Y0037118D02*
X0122845Y0033118D01*
X0130845Y0035118D01*
X0130845Y0037118D01*
X0130845Y0035222D02*
X0127052Y0035222D01*
X0124865Y0033623D02*
X0123855Y0033623D01*
X0122845Y0032618D02*
X0122845Y0037618D01*
X0115345Y0035118D01*
X0114949Y0035222D02*
X0118569Y0035222D01*
X0118845Y0034118D02*
X0117845Y0038118D01*
X0114845Y0035118D01*
X0118845Y0034118D01*
X0118170Y0036820D02*
X0116547Y0036820D01*
X0122845Y0032618D02*
X0130345Y0035118D01*
D15*
X0125232Y0051492D02*
X0119327Y0051492D01*
X0122280Y0051492D02*
X0122280Y0055429D01*
X0125232Y0055429D02*
X0119327Y0055429D01*
X0119327Y0057569D02*
X0119327Y0059538D01*
X0119327Y0058554D02*
X0125232Y0058554D01*
X0125232Y0059538D02*
X0125232Y0057569D01*
X0124248Y0061621D02*
X0120311Y0061621D01*
X0119327Y0062605D01*
X0119327Y0064573D01*
X0120311Y0065558D01*
X0122280Y0065558D01*
X0122280Y0063589D01*
X0124248Y0061621D02*
X0125232Y0062605D01*
X0125232Y0064573D01*
X0124248Y0065558D01*
X0125232Y0067698D02*
X0119327Y0067698D01*
X0122280Y0067698D02*
X0122280Y0071635D01*
X0125232Y0071635D02*
X0119327Y0071635D01*
X0121295Y0079852D02*
X0119327Y0081821D01*
X0121295Y0083789D01*
X0125232Y0083789D01*
X0124248Y0085930D02*
X0120311Y0085930D01*
X0119327Y0086914D01*
X0119327Y0088882D01*
X0120311Y0089866D01*
X0124248Y0089866D01*
X0125232Y0088882D01*
X0125232Y0086914D01*
X0124248Y0085930D01*
X0129227Y0086885D02*
X0135132Y0086885D01*
X0135132Y0084917D02*
X0135132Y0088853D01*
X0135132Y0090994D02*
X0135132Y0092962D01*
X0135132Y0091978D02*
X0129227Y0091978D01*
X0129227Y0090994D02*
X0129227Y0092962D01*
X0130211Y0095045D02*
X0129227Y0096030D01*
X0129227Y0097998D01*
X0130211Y0098982D01*
X0134148Y0098982D01*
X0135132Y0097998D01*
X0135132Y0096030D01*
X0134148Y0095045D01*
X0130211Y0095045D01*
X0125232Y0092007D02*
X0119327Y0092007D01*
X0119327Y0095944D01*
X0119327Y0100052D02*
X0125232Y0100052D01*
X0125232Y0098084D02*
X0125232Y0102021D01*
X0123264Y0104161D02*
X0119327Y0104161D01*
X0122280Y0104161D02*
X0122280Y0108098D01*
X0123264Y0108098D02*
X0119327Y0108098D01*
X0120311Y0110238D02*
X0119327Y0111223D01*
X0119327Y0113191D01*
X0120311Y0114175D01*
X0122280Y0114175D01*
X0122280Y0112207D01*
X0124248Y0114175D02*
X0125232Y0113191D01*
X0125232Y0111223D01*
X0124248Y0110238D01*
X0120311Y0110238D01*
X0123264Y0108098D02*
X0125232Y0106130D01*
X0123264Y0104161D01*
X0129227Y0105059D02*
X0135132Y0105059D01*
X0135132Y0101123D02*
X0129227Y0101123D01*
X0129227Y0105059D02*
X0135132Y0101123D01*
X0125232Y0116316D02*
X0119327Y0116316D01*
X0119327Y0120252D01*
X0122280Y0118284D02*
X0122280Y0116316D01*
X0125232Y0116316D02*
X0125232Y0120252D01*
X0130211Y0082776D02*
X0135132Y0082776D01*
X0135132Y0078840D02*
X0130211Y0078840D01*
X0129227Y0079824D01*
X0129227Y0081792D01*
X0130211Y0082776D01*
X0125232Y0079852D02*
X0121295Y0079852D01*
X0129227Y0076699D02*
X0133164Y0076699D01*
X0135132Y0074731D01*
X0133164Y0072762D01*
X0129227Y0072762D01*
X0130211Y0070622D02*
X0129227Y0069638D01*
X0129227Y0067669D01*
X0130211Y0066685D01*
X0134148Y0066685D01*
X0135132Y0067669D01*
X0135132Y0069638D01*
X0134148Y0070622D01*
X0132180Y0072762D02*
X0132180Y0076699D01*
D16*
X0160727Y0242480D03*
X0296227Y0245730D03*
X0563227Y0209480D03*
X0567977Y0158705D03*
X0409227Y0031955D03*
X0400977Y0033455D03*
D17*
X0347589Y0040843D03*
X0303615Y0147343D03*
X0203615Y0167843D03*
X0165839Y0144843D03*
X0318365Y0260843D03*
D18*
X0306417Y0271776D02*
X0305933Y0271293D01*
X0305449Y0271293D01*
X0304965Y0271776D01*
X0304965Y0274195D01*
X0304482Y0274195D02*
X0305449Y0274195D01*
X0303470Y0274195D02*
X0302019Y0274195D01*
X0301535Y0273711D01*
X0301535Y0272744D01*
X0302019Y0272260D01*
X0303470Y0272260D01*
X0303470Y0271293D02*
X0303470Y0274195D01*
X0300524Y0272744D02*
X0298589Y0272744D01*
X0299072Y0274195D02*
X0300524Y0272744D01*
X0299072Y0271293D02*
X0299072Y0274195D01*
X0403499Y0310976D02*
X0403983Y0310493D01*
X0404950Y0310493D01*
X0405434Y0310976D01*
X0405434Y0311944D02*
X0404467Y0312427D01*
X0403983Y0312427D01*
X0403499Y0311944D01*
X0403499Y0310976D01*
X0405434Y0311944D02*
X0405434Y0313395D01*
X0403499Y0313395D01*
X0406446Y0312911D02*
X0406446Y0311944D01*
X0406929Y0311460D01*
X0408381Y0311460D01*
X0408381Y0310493D02*
X0408381Y0313395D01*
X0406929Y0313395D01*
X0406446Y0312911D01*
X0409392Y0313395D02*
X0410360Y0313395D01*
X0409876Y0313395D02*
X0409876Y0310976D01*
X0410360Y0310493D01*
X0410843Y0310493D01*
X0411327Y0310976D01*
X0427589Y0310776D02*
X0427589Y0311260D01*
X0428072Y0311744D01*
X0429524Y0311744D01*
X0429524Y0310776D01*
X0429040Y0310293D01*
X0428072Y0310293D01*
X0427589Y0310776D01*
X0428556Y0312711D02*
X0429524Y0311744D01*
X0430535Y0311744D02*
X0431019Y0311260D01*
X0432470Y0311260D01*
X0432470Y0310293D02*
X0432470Y0313195D01*
X0431019Y0313195D01*
X0430535Y0312711D01*
X0430535Y0311744D01*
X0428556Y0312711D02*
X0427589Y0313195D01*
X0433482Y0313195D02*
X0434449Y0313195D01*
X0433965Y0313195D02*
X0433965Y0310776D01*
X0434449Y0310293D01*
X0434933Y0310293D01*
X0435417Y0310776D01*
X0453377Y0327243D02*
X0456280Y0327243D01*
X0456280Y0328694D01*
X0455796Y0329177D01*
X0454828Y0329177D01*
X0454345Y0328694D01*
X0454345Y0327243D01*
X0454345Y0328210D02*
X0453377Y0329177D01*
X0453861Y0330189D02*
X0454345Y0330189D01*
X0454828Y0330673D01*
X0454828Y0331640D01*
X0454345Y0332124D01*
X0453861Y0332124D01*
X0453377Y0331640D01*
X0453377Y0330673D01*
X0453861Y0330189D01*
X0454828Y0330673D02*
X0455312Y0330189D01*
X0455796Y0330189D01*
X0456280Y0330673D01*
X0456280Y0331640D01*
X0455796Y0332124D01*
X0455312Y0332124D01*
X0454828Y0331640D01*
X0455796Y0333136D02*
X0456280Y0333619D01*
X0456280Y0334587D01*
X0455796Y0335071D01*
X0455312Y0335071D01*
X0453377Y0333136D01*
X0453377Y0335071D01*
X0440780Y0335476D02*
X0440296Y0334993D01*
X0438361Y0334993D01*
X0437877Y0335476D01*
X0437877Y0336444D01*
X0438361Y0336927D01*
X0438361Y0337939D02*
X0437877Y0338423D01*
X0437877Y0339390D01*
X0438361Y0339874D01*
X0438845Y0339874D01*
X0439328Y0339390D01*
X0439328Y0337939D01*
X0438361Y0337939D01*
X0439328Y0337939D02*
X0440296Y0338907D01*
X0440780Y0339874D01*
X0440296Y0340886D02*
X0439812Y0340886D01*
X0439328Y0341369D01*
X0439328Y0342821D01*
X0438361Y0342821D02*
X0440296Y0342821D01*
X0440780Y0342337D01*
X0440780Y0341369D01*
X0440296Y0340886D01*
X0438361Y0340886D02*
X0437877Y0341369D01*
X0437877Y0342337D01*
X0438361Y0342821D01*
X0440296Y0336927D02*
X0440780Y0336444D01*
X0440780Y0335476D01*
X0428327Y0339226D02*
X0427843Y0338743D01*
X0426876Y0338743D01*
X0426392Y0339226D01*
X0425381Y0339226D02*
X0424897Y0338743D01*
X0423929Y0338743D01*
X0423446Y0339226D01*
X0423446Y0339710D01*
X0423929Y0340194D01*
X0425381Y0340194D01*
X0425381Y0339226D01*
X0425381Y0340194D02*
X0424413Y0341161D01*
X0423446Y0341645D01*
X0422434Y0341645D02*
X0422434Y0340194D01*
X0421467Y0340677D01*
X0420983Y0340677D01*
X0420499Y0340194D01*
X0420499Y0339226D01*
X0420983Y0338743D01*
X0421950Y0338743D01*
X0422434Y0339226D01*
X0422434Y0341645D02*
X0420499Y0341645D01*
X0426392Y0341161D02*
X0426876Y0341645D01*
X0427843Y0341645D01*
X0428327Y0341161D01*
X0428327Y0339226D01*
X0429072Y0360043D02*
X0430040Y0360043D01*
X0430524Y0360526D01*
X0428589Y0362461D01*
X0428589Y0360526D01*
X0429072Y0360043D01*
X0430524Y0360526D02*
X0430524Y0362461D01*
X0430040Y0362945D01*
X0429072Y0362945D01*
X0428589Y0362461D01*
X0431535Y0362461D02*
X0431535Y0361977D01*
X0432019Y0361494D01*
X0432986Y0361494D01*
X0433470Y0361977D01*
X0433470Y0362461D01*
X0432986Y0362945D01*
X0432019Y0362945D01*
X0431535Y0362461D01*
X0432019Y0361494D02*
X0431535Y0361010D01*
X0431535Y0360526D01*
X0432019Y0360043D01*
X0432986Y0360043D01*
X0433470Y0360526D01*
X0433470Y0361010D01*
X0432986Y0361494D01*
X0434482Y0361494D02*
X0434965Y0361010D01*
X0436417Y0361010D01*
X0436417Y0360043D02*
X0436417Y0362945D01*
X0434965Y0362945D01*
X0434482Y0362461D01*
X0434482Y0361494D01*
X0435449Y0361010D02*
X0434482Y0360043D01*
X0440499Y0360226D02*
X0440499Y0360710D01*
X0440983Y0361194D01*
X0442434Y0361194D01*
X0442434Y0360226D01*
X0441950Y0359743D01*
X0440983Y0359743D01*
X0440499Y0360226D01*
X0441467Y0362161D02*
X0442434Y0361194D01*
X0443446Y0360710D02*
X0443929Y0361194D01*
X0445381Y0361194D01*
X0445381Y0360226D01*
X0444897Y0359743D01*
X0443929Y0359743D01*
X0443446Y0360226D01*
X0443446Y0360710D01*
X0444413Y0362161D02*
X0445381Y0361194D01*
X0444413Y0362161D02*
X0443446Y0362645D01*
X0441467Y0362161D02*
X0440499Y0362645D01*
X0446392Y0362161D02*
X0446876Y0362645D01*
X0447843Y0362645D01*
X0448327Y0362161D01*
X0448327Y0360226D01*
X0447843Y0359743D01*
X0446876Y0359743D01*
X0446392Y0360226D01*
X0448999Y0360226D02*
X0448999Y0360710D01*
X0449483Y0361194D01*
X0450934Y0361194D01*
X0450934Y0360226D01*
X0450450Y0359743D01*
X0449483Y0359743D01*
X0448999Y0360226D01*
X0449967Y0362161D02*
X0450934Y0361194D01*
X0449967Y0362161D02*
X0448999Y0362645D01*
X0451946Y0362645D02*
X0451946Y0362161D01*
X0453881Y0360226D01*
X0453881Y0359743D01*
X0454892Y0359743D02*
X0455860Y0360710D01*
X0455376Y0360710D02*
X0456827Y0360710D01*
X0456827Y0359743D02*
X0456827Y0362645D01*
X0455376Y0362645D01*
X0454892Y0362161D01*
X0454892Y0361194D01*
X0455376Y0360710D01*
X0453881Y0362645D02*
X0451946Y0362645D01*
X0460749Y0359743D02*
X0462684Y0359743D01*
X0461717Y0359743D02*
X0461717Y0362645D01*
X0462684Y0361677D01*
X0463696Y0361677D02*
X0464179Y0361194D01*
X0465147Y0361194D01*
X0465631Y0361677D01*
X0465631Y0362161D01*
X0465147Y0362645D01*
X0464179Y0362645D01*
X0463696Y0362161D01*
X0463696Y0361677D01*
X0464179Y0361194D02*
X0463696Y0360710D01*
X0463696Y0360226D01*
X0464179Y0359743D01*
X0465147Y0359743D01*
X0465631Y0360226D01*
X0465631Y0360710D01*
X0465147Y0361194D01*
X0466642Y0361194D02*
X0467126Y0360710D01*
X0468577Y0360710D01*
X0467610Y0360710D02*
X0466642Y0359743D01*
X0466642Y0361194D02*
X0466642Y0362161D01*
X0467126Y0362645D01*
X0468577Y0362645D01*
X0468577Y0359743D01*
X0469274Y0354445D02*
X0467339Y0354445D01*
X0467822Y0353477D02*
X0467339Y0352994D01*
X0467339Y0352026D01*
X0467822Y0351543D01*
X0468790Y0351543D01*
X0469274Y0352026D01*
X0469274Y0352994D02*
X0468306Y0353477D01*
X0467822Y0353477D01*
X0469274Y0352994D02*
X0469274Y0354445D01*
X0470285Y0354445D02*
X0470285Y0353961D01*
X0472220Y0352026D01*
X0472220Y0351543D01*
X0473232Y0351543D02*
X0474199Y0352510D01*
X0473715Y0352510D02*
X0475167Y0352510D01*
X0475167Y0351543D02*
X0475167Y0354445D01*
X0473715Y0354445D01*
X0473232Y0353961D01*
X0473232Y0352994D01*
X0473715Y0352510D01*
X0472220Y0354445D02*
X0470285Y0354445D01*
X0482339Y0361211D02*
X0484274Y0359276D01*
X0484274Y0358793D01*
X0485285Y0359276D02*
X0485285Y0359760D01*
X0485769Y0360244D01*
X0487220Y0360244D01*
X0487220Y0359276D01*
X0486736Y0358793D01*
X0485769Y0358793D01*
X0485285Y0359276D01*
X0486253Y0361211D02*
X0487220Y0360244D01*
X0486253Y0361211D02*
X0485285Y0361695D01*
X0484274Y0361695D02*
X0482339Y0361695D01*
X0482339Y0361211D01*
X0488232Y0361211D02*
X0488715Y0361695D01*
X0489683Y0361695D01*
X0490167Y0361211D01*
X0490167Y0359276D01*
X0489683Y0358793D01*
X0488715Y0358793D01*
X0488232Y0359276D01*
X0523089Y0355543D02*
X0525024Y0355543D01*
X0524056Y0355543D02*
X0524056Y0358445D01*
X0525024Y0357477D01*
X0526035Y0357961D02*
X0527970Y0356026D01*
X0527970Y0355543D01*
X0528982Y0355543D02*
X0529949Y0356510D01*
X0529465Y0356510D02*
X0530917Y0356510D01*
X0530917Y0355543D02*
X0530917Y0358445D01*
X0529465Y0358445D01*
X0528982Y0357961D01*
X0528982Y0356994D01*
X0529465Y0356510D01*
X0527970Y0358445D02*
X0526035Y0358445D01*
X0526035Y0357961D01*
X0532339Y0357961D02*
X0532339Y0357477D01*
X0532822Y0356994D01*
X0532339Y0356510D01*
X0532339Y0356026D01*
X0532822Y0355543D01*
X0533790Y0355543D01*
X0534274Y0356026D01*
X0533306Y0356994D02*
X0532822Y0356994D01*
X0532339Y0357961D02*
X0532822Y0358445D01*
X0533790Y0358445D01*
X0534274Y0357961D01*
X0535285Y0357961D02*
X0537220Y0356026D01*
X0537220Y0355543D01*
X0538232Y0355543D02*
X0539199Y0356510D01*
X0538715Y0356510D02*
X0540167Y0356510D01*
X0540167Y0355543D02*
X0540167Y0358445D01*
X0538715Y0358445D01*
X0538232Y0357961D01*
X0538232Y0356994D01*
X0538715Y0356510D01*
X0537220Y0358445D02*
X0535285Y0358445D01*
X0535285Y0357961D01*
X0496330Y0335247D02*
X0495846Y0335731D01*
X0495362Y0335731D01*
X0494878Y0335247D01*
X0494878Y0334280D01*
X0495362Y0333796D01*
X0495846Y0333796D01*
X0496330Y0334280D01*
X0496330Y0335247D01*
X0494878Y0335247D02*
X0494395Y0335731D01*
X0493911Y0335731D01*
X0493427Y0335247D01*
X0493427Y0334280D01*
X0493911Y0333796D01*
X0494395Y0333796D01*
X0494878Y0334280D01*
X0494395Y0332784D02*
X0494878Y0332301D01*
X0494878Y0330849D01*
X0493911Y0330849D01*
X0493427Y0331333D01*
X0493427Y0332301D01*
X0493911Y0332784D01*
X0494395Y0332784D01*
X0495846Y0331817D02*
X0494878Y0330849D01*
X0495846Y0331817D02*
X0496330Y0332784D01*
X0495846Y0329838D02*
X0496330Y0329354D01*
X0496330Y0328387D01*
X0495846Y0327903D01*
X0493911Y0327903D01*
X0493427Y0328387D01*
X0493427Y0329354D01*
X0493911Y0329838D01*
X0476577Y0323411D02*
X0476577Y0321476D01*
X0476093Y0320993D01*
X0475126Y0320993D01*
X0474642Y0321476D01*
X0473631Y0321476D02*
X0473631Y0320993D01*
X0473631Y0321476D02*
X0471696Y0323411D01*
X0471696Y0323895D01*
X0473631Y0323895D01*
X0474642Y0323411D02*
X0475126Y0323895D01*
X0476093Y0323895D01*
X0476577Y0323411D01*
X0470684Y0323411D02*
X0470684Y0321476D01*
X0468749Y0323411D01*
X0468749Y0321476D01*
X0469233Y0320993D01*
X0470200Y0320993D01*
X0470684Y0321476D01*
X0470684Y0323411D02*
X0470200Y0323895D01*
X0469233Y0323895D01*
X0468749Y0323411D01*
X0386846Y0102481D02*
X0386362Y0102481D01*
X0385878Y0101997D01*
X0385395Y0102481D01*
X0384911Y0102481D01*
X0384427Y0101997D01*
X0384427Y0101030D01*
X0384911Y0100546D01*
X0384427Y0099534D02*
X0384427Y0097599D01*
X0386362Y0099534D01*
X0386846Y0099534D01*
X0387330Y0099051D01*
X0387330Y0098083D01*
X0386846Y0097599D01*
X0386846Y0096588D02*
X0387330Y0096104D01*
X0387330Y0095137D01*
X0386846Y0094653D01*
X0384911Y0094653D01*
X0384427Y0095137D01*
X0384427Y0096104D01*
X0384911Y0096588D01*
X0386846Y0100546D02*
X0387330Y0101030D01*
X0387330Y0101997D01*
X0386846Y0102481D01*
X0385878Y0101997D02*
X0385878Y0101513D01*
X0363667Y0093695D02*
X0363667Y0090793D01*
X0363667Y0091760D02*
X0362215Y0091760D01*
X0361732Y0092244D01*
X0361732Y0093211D01*
X0362215Y0093695D01*
X0363667Y0093695D01*
X0362699Y0091760D02*
X0361732Y0090793D01*
X0360720Y0090793D02*
X0358785Y0090793D01*
X0359753Y0090793D02*
X0359753Y0093695D01*
X0360720Y0092727D01*
X0357774Y0092244D02*
X0355839Y0092244D01*
X0356322Y0093695D02*
X0357774Y0092244D01*
X0356322Y0090793D02*
X0356322Y0093695D01*
X0356233Y0082895D02*
X0357684Y0081444D01*
X0355749Y0081444D01*
X0356233Y0079993D02*
X0356233Y0082895D01*
X0358696Y0082411D02*
X0359179Y0082895D01*
X0360147Y0082895D01*
X0360631Y0082411D01*
X0361642Y0082411D02*
X0362126Y0082895D01*
X0363093Y0082895D01*
X0363577Y0082411D01*
X0363577Y0080476D01*
X0363093Y0079993D01*
X0362126Y0079993D01*
X0361642Y0080476D01*
X0360631Y0079993D02*
X0358696Y0081927D01*
X0358696Y0082411D01*
X0358696Y0079993D02*
X0360631Y0079993D01*
X0405215Y0044024D02*
X0405698Y0044508D01*
X0406666Y0044508D01*
X0407150Y0044024D01*
X0408161Y0044024D02*
X0408645Y0044508D01*
X0410096Y0044508D01*
X0410096Y0041606D01*
X0408645Y0041606D01*
X0408161Y0042089D01*
X0408161Y0044024D01*
X0407150Y0041606D02*
X0405215Y0043540D01*
X0405215Y0044024D01*
X0405215Y0041606D02*
X0407150Y0041606D01*
X0411108Y0041606D02*
X0413043Y0041606D01*
X0413043Y0042089D01*
X0411108Y0044024D01*
X0411108Y0044508D01*
X0413043Y0044508D01*
D19*
X0269209Y0113140D02*
X0269209Y0139045D01*
X0245194Y0139045D01*
X0245194Y0138246D01*
X0245194Y0113939D02*
X0245194Y0113140D01*
X0269209Y0113140D01*
X0281180Y0205360D02*
X0255274Y0205360D01*
X0255274Y0229376D01*
X0256073Y0229376D01*
X0280381Y0229376D02*
X0281180Y0229376D01*
X0281180Y0205360D01*
X0210180Y0221059D02*
X0209381Y0221059D01*
X0210180Y0221059D02*
X0210180Y0245075D01*
X0184274Y0245075D01*
X0184274Y0221059D01*
X0185073Y0221059D01*
D20*
X0197227Y0246709D03*
X0268227Y0203726D03*
D21*
X0259231Y0203569D03*
X0277223Y0203569D03*
X0206223Y0246866D03*
X0188231Y0246866D03*
D22*
X0270843Y0126093D03*
D23*
X0271001Y0117096D03*
X0271001Y0135089D03*
D24*
X0195182Y0271285D02*
X0169772Y0271285D01*
X0169772Y0286900D01*
X0195182Y0286900D01*
X0195182Y0271285D01*
X0195182Y0291285D02*
X0169772Y0291285D01*
X0169772Y0306900D01*
X0195182Y0306900D01*
X0195182Y0291285D01*
D25*
X0196556Y0333593D03*
M02*
