G75*
%MOIN*%
%OFA0B0*%
%FSLAX25Y25*%
%IPPOS*%
%LPD*%
%AMOC8*
5,1,8,0,0,1.08239X$1,22.5*
%
%ADD10C,0.00400*%
%ADD11C,0.00394*%
%ADD12C,0.00000*%
D10*
X0111977Y0098843D02*
X0111977Y0102843D01*
X0133627Y0102843D01*
X0137727Y0106943D01*
X0137727Y0139243D01*
X0144327Y0145843D01*
X0248727Y0145843D01*
X0248727Y0141843D01*
X0145827Y0141843D01*
X0141727Y0137743D01*
X0141727Y0105443D01*
X0135127Y0098843D01*
X0111977Y0098843D01*
X0342977Y0134343D02*
X0342977Y0138343D01*
X0376727Y0138343D01*
X0376727Y0134343D01*
X0342977Y0134343D01*
X0422977Y0181474D02*
X0426977Y0181474D01*
X0426977Y0211843D01*
X0428227Y0213093D01*
X0456095Y0213093D01*
X0456095Y0217093D01*
X0426727Y0217093D01*
X0422977Y0213343D01*
X0422977Y0181474D01*
X0462477Y0178343D02*
X0462477Y0174343D01*
X0517227Y0174343D01*
X0517227Y0178343D01*
X0462477Y0178343D01*
X0534477Y0186343D02*
X0534477Y0190343D01*
X0600977Y0190343D01*
X0600977Y0186343D01*
X0534477Y0186343D01*
D11*
X0029727Y0018748D02*
X0029727Y0361268D01*
X0029729Y0361420D01*
X0029735Y0361572D01*
X0029745Y0361724D01*
X0029758Y0361875D01*
X0029776Y0362026D01*
X0029797Y0362177D01*
X0029823Y0362327D01*
X0029852Y0362476D01*
X0029885Y0362625D01*
X0029922Y0362772D01*
X0029962Y0362919D01*
X0030007Y0363064D01*
X0030055Y0363208D01*
X0030107Y0363351D01*
X0030162Y0363493D01*
X0030221Y0363633D01*
X0030284Y0363772D01*
X0030350Y0363909D01*
X0030420Y0364044D01*
X0030493Y0364177D01*
X0030570Y0364308D01*
X0030650Y0364438D01*
X0030733Y0364565D01*
X0030819Y0364690D01*
X0030909Y0364813D01*
X0031002Y0364933D01*
X0031098Y0365051D01*
X0031197Y0365167D01*
X0031299Y0365280D01*
X0031403Y0365390D01*
X0031511Y0365498D01*
X0031621Y0365602D01*
X0031734Y0365704D01*
X0031850Y0365803D01*
X0031968Y0365899D01*
X0032088Y0365992D01*
X0032211Y0366082D01*
X0032336Y0366168D01*
X0032463Y0366251D01*
X0032593Y0366331D01*
X0032724Y0366408D01*
X0032857Y0366481D01*
X0032992Y0366551D01*
X0033129Y0366617D01*
X0033268Y0366680D01*
X0033408Y0366739D01*
X0033550Y0366794D01*
X0033693Y0366846D01*
X0033837Y0366894D01*
X0033982Y0366939D01*
X0034129Y0366979D01*
X0034276Y0367016D01*
X0034425Y0367049D01*
X0034574Y0367078D01*
X0034724Y0367104D01*
X0034875Y0367125D01*
X0035026Y0367143D01*
X0035177Y0367156D01*
X0035329Y0367166D01*
X0035481Y0367172D01*
X0035633Y0367174D01*
X0035633Y0367173D02*
X0634058Y0367173D01*
X0634058Y0367174D02*
X0634210Y0367172D01*
X0634362Y0367166D01*
X0634514Y0367156D01*
X0634665Y0367143D01*
X0634816Y0367125D01*
X0634967Y0367104D01*
X0635117Y0367078D01*
X0635266Y0367049D01*
X0635415Y0367016D01*
X0635562Y0366979D01*
X0635709Y0366939D01*
X0635854Y0366894D01*
X0635998Y0366846D01*
X0636141Y0366794D01*
X0636283Y0366739D01*
X0636423Y0366680D01*
X0636562Y0366617D01*
X0636699Y0366551D01*
X0636834Y0366481D01*
X0636967Y0366408D01*
X0637098Y0366331D01*
X0637228Y0366251D01*
X0637355Y0366168D01*
X0637480Y0366082D01*
X0637603Y0365992D01*
X0637723Y0365899D01*
X0637841Y0365803D01*
X0637957Y0365704D01*
X0638070Y0365602D01*
X0638180Y0365498D01*
X0638288Y0365390D01*
X0638392Y0365280D01*
X0638494Y0365167D01*
X0638593Y0365051D01*
X0638689Y0364933D01*
X0638782Y0364813D01*
X0638872Y0364690D01*
X0638958Y0364565D01*
X0639041Y0364438D01*
X0639121Y0364308D01*
X0639198Y0364177D01*
X0639271Y0364044D01*
X0639341Y0363909D01*
X0639407Y0363772D01*
X0639470Y0363633D01*
X0639529Y0363493D01*
X0639584Y0363351D01*
X0639636Y0363208D01*
X0639684Y0363064D01*
X0639729Y0362919D01*
X0639769Y0362772D01*
X0639806Y0362625D01*
X0639839Y0362476D01*
X0639868Y0362327D01*
X0639894Y0362177D01*
X0639915Y0362026D01*
X0639933Y0361875D01*
X0639946Y0361724D01*
X0639956Y0361572D01*
X0639962Y0361420D01*
X0639964Y0361268D01*
X0639963Y0361268D02*
X0639963Y0018748D01*
X0639964Y0018748D02*
X0639962Y0018596D01*
X0639956Y0018444D01*
X0639946Y0018292D01*
X0639933Y0018141D01*
X0639915Y0017990D01*
X0639894Y0017839D01*
X0639868Y0017689D01*
X0639839Y0017540D01*
X0639806Y0017391D01*
X0639769Y0017244D01*
X0639729Y0017097D01*
X0639684Y0016952D01*
X0639636Y0016808D01*
X0639584Y0016665D01*
X0639529Y0016523D01*
X0639470Y0016383D01*
X0639407Y0016244D01*
X0639341Y0016107D01*
X0639271Y0015972D01*
X0639198Y0015839D01*
X0639121Y0015708D01*
X0639041Y0015578D01*
X0638958Y0015451D01*
X0638872Y0015326D01*
X0638782Y0015203D01*
X0638689Y0015083D01*
X0638593Y0014965D01*
X0638494Y0014849D01*
X0638392Y0014736D01*
X0638288Y0014626D01*
X0638180Y0014518D01*
X0638070Y0014414D01*
X0637957Y0014312D01*
X0637841Y0014213D01*
X0637723Y0014117D01*
X0637603Y0014024D01*
X0637480Y0013934D01*
X0637355Y0013848D01*
X0637228Y0013765D01*
X0637098Y0013685D01*
X0636967Y0013608D01*
X0636834Y0013535D01*
X0636699Y0013465D01*
X0636562Y0013399D01*
X0636423Y0013336D01*
X0636283Y0013277D01*
X0636141Y0013222D01*
X0635998Y0013170D01*
X0635854Y0013122D01*
X0635709Y0013077D01*
X0635562Y0013037D01*
X0635415Y0013000D01*
X0635266Y0012967D01*
X0635117Y0012938D01*
X0634967Y0012912D01*
X0634816Y0012891D01*
X0634665Y0012873D01*
X0634514Y0012860D01*
X0634362Y0012850D01*
X0634210Y0012844D01*
X0634058Y0012842D01*
X0634058Y0012843D02*
X0035633Y0012843D01*
X0035633Y0012842D02*
X0035481Y0012844D01*
X0035329Y0012850D01*
X0035177Y0012860D01*
X0035026Y0012873D01*
X0034875Y0012891D01*
X0034724Y0012912D01*
X0034574Y0012938D01*
X0034425Y0012967D01*
X0034276Y0013000D01*
X0034129Y0013037D01*
X0033982Y0013077D01*
X0033837Y0013122D01*
X0033693Y0013170D01*
X0033550Y0013222D01*
X0033408Y0013277D01*
X0033268Y0013336D01*
X0033129Y0013399D01*
X0032992Y0013465D01*
X0032857Y0013535D01*
X0032724Y0013608D01*
X0032593Y0013685D01*
X0032463Y0013765D01*
X0032336Y0013848D01*
X0032211Y0013934D01*
X0032088Y0014024D01*
X0031968Y0014117D01*
X0031850Y0014213D01*
X0031734Y0014312D01*
X0031621Y0014414D01*
X0031511Y0014518D01*
X0031403Y0014626D01*
X0031299Y0014736D01*
X0031197Y0014849D01*
X0031098Y0014965D01*
X0031002Y0015083D01*
X0030909Y0015203D01*
X0030819Y0015326D01*
X0030733Y0015451D01*
X0030650Y0015578D01*
X0030570Y0015708D01*
X0030493Y0015839D01*
X0030420Y0015972D01*
X0030350Y0016107D01*
X0030284Y0016244D01*
X0030221Y0016383D01*
X0030162Y0016523D01*
X0030107Y0016665D01*
X0030055Y0016808D01*
X0030007Y0016952D01*
X0029962Y0017097D01*
X0029922Y0017244D01*
X0029885Y0017391D01*
X0029852Y0017540D01*
X0029823Y0017689D01*
X0029797Y0017839D01*
X0029776Y0017990D01*
X0029758Y0018141D01*
X0029745Y0018292D01*
X0029735Y0018444D01*
X0029729Y0018596D01*
X0029727Y0018748D01*
X0472325Y0347488D02*
X0472325Y0363236D01*
X0476262Y0363236D01*
X0476262Y0347488D01*
X0472325Y0347488D01*
X0492325Y0347488D02*
X0492325Y0363236D01*
X0496262Y0363236D01*
X0496262Y0347488D01*
X0492325Y0347488D01*
X0512325Y0347488D02*
X0512325Y0363236D01*
X0516262Y0363236D01*
X0516262Y0347488D01*
X0512325Y0347488D01*
X0573428Y0231740D02*
X0573428Y0227803D01*
X0601774Y0227803D01*
X0601774Y0231740D01*
X0573428Y0231740D01*
X0573428Y0215205D02*
X0573428Y0211268D01*
X0601774Y0211268D01*
X0601774Y0215205D01*
X0573428Y0215205D01*
D12*
X0610435Y0204969D02*
X0610437Y0205122D01*
X0610443Y0205276D01*
X0610453Y0205429D01*
X0610467Y0205581D01*
X0610485Y0205734D01*
X0610507Y0205885D01*
X0610532Y0206036D01*
X0610562Y0206187D01*
X0610596Y0206337D01*
X0610633Y0206485D01*
X0610674Y0206633D01*
X0610719Y0206779D01*
X0610768Y0206925D01*
X0610821Y0207069D01*
X0610877Y0207211D01*
X0610937Y0207352D01*
X0611001Y0207492D01*
X0611068Y0207630D01*
X0611139Y0207766D01*
X0611214Y0207900D01*
X0611291Y0208032D01*
X0611373Y0208162D01*
X0611457Y0208290D01*
X0611545Y0208416D01*
X0611636Y0208539D01*
X0611730Y0208660D01*
X0611828Y0208778D01*
X0611928Y0208894D01*
X0612032Y0209007D01*
X0612138Y0209118D01*
X0612247Y0209226D01*
X0612359Y0209331D01*
X0612473Y0209432D01*
X0612591Y0209531D01*
X0612710Y0209627D01*
X0612832Y0209720D01*
X0612957Y0209809D01*
X0613084Y0209896D01*
X0613213Y0209978D01*
X0613344Y0210058D01*
X0613477Y0210134D01*
X0613612Y0210207D01*
X0613749Y0210276D01*
X0613888Y0210341D01*
X0614028Y0210403D01*
X0614170Y0210461D01*
X0614313Y0210516D01*
X0614458Y0210567D01*
X0614604Y0210614D01*
X0614751Y0210657D01*
X0614899Y0210696D01*
X0615048Y0210732D01*
X0615198Y0210763D01*
X0615349Y0210791D01*
X0615500Y0210815D01*
X0615653Y0210835D01*
X0615805Y0210851D01*
X0615958Y0210863D01*
X0616111Y0210871D01*
X0616264Y0210875D01*
X0616418Y0210875D01*
X0616571Y0210871D01*
X0616724Y0210863D01*
X0616877Y0210851D01*
X0617029Y0210835D01*
X0617182Y0210815D01*
X0617333Y0210791D01*
X0617484Y0210763D01*
X0617634Y0210732D01*
X0617783Y0210696D01*
X0617931Y0210657D01*
X0618078Y0210614D01*
X0618224Y0210567D01*
X0618369Y0210516D01*
X0618512Y0210461D01*
X0618654Y0210403D01*
X0618794Y0210341D01*
X0618933Y0210276D01*
X0619070Y0210207D01*
X0619205Y0210134D01*
X0619338Y0210058D01*
X0619469Y0209978D01*
X0619598Y0209896D01*
X0619725Y0209809D01*
X0619850Y0209720D01*
X0619972Y0209627D01*
X0620091Y0209531D01*
X0620209Y0209432D01*
X0620323Y0209331D01*
X0620435Y0209226D01*
X0620544Y0209118D01*
X0620650Y0209007D01*
X0620754Y0208894D01*
X0620854Y0208778D01*
X0620952Y0208660D01*
X0621046Y0208539D01*
X0621137Y0208416D01*
X0621225Y0208290D01*
X0621309Y0208162D01*
X0621391Y0208032D01*
X0621468Y0207900D01*
X0621543Y0207766D01*
X0621614Y0207630D01*
X0621681Y0207492D01*
X0621745Y0207352D01*
X0621805Y0207211D01*
X0621861Y0207069D01*
X0621914Y0206925D01*
X0621963Y0206779D01*
X0622008Y0206633D01*
X0622049Y0206485D01*
X0622086Y0206337D01*
X0622120Y0206187D01*
X0622150Y0206036D01*
X0622175Y0205885D01*
X0622197Y0205734D01*
X0622215Y0205581D01*
X0622229Y0205429D01*
X0622239Y0205276D01*
X0622245Y0205122D01*
X0622247Y0204969D01*
X0622245Y0204816D01*
X0622239Y0204662D01*
X0622229Y0204509D01*
X0622215Y0204357D01*
X0622197Y0204204D01*
X0622175Y0204053D01*
X0622150Y0203902D01*
X0622120Y0203751D01*
X0622086Y0203601D01*
X0622049Y0203453D01*
X0622008Y0203305D01*
X0621963Y0203159D01*
X0621914Y0203013D01*
X0621861Y0202869D01*
X0621805Y0202727D01*
X0621745Y0202586D01*
X0621681Y0202446D01*
X0621614Y0202308D01*
X0621543Y0202172D01*
X0621468Y0202038D01*
X0621391Y0201906D01*
X0621309Y0201776D01*
X0621225Y0201648D01*
X0621137Y0201522D01*
X0621046Y0201399D01*
X0620952Y0201278D01*
X0620854Y0201160D01*
X0620754Y0201044D01*
X0620650Y0200931D01*
X0620544Y0200820D01*
X0620435Y0200712D01*
X0620323Y0200607D01*
X0620209Y0200506D01*
X0620091Y0200407D01*
X0619972Y0200311D01*
X0619850Y0200218D01*
X0619725Y0200129D01*
X0619598Y0200042D01*
X0619469Y0199960D01*
X0619338Y0199880D01*
X0619205Y0199804D01*
X0619070Y0199731D01*
X0618933Y0199662D01*
X0618794Y0199597D01*
X0618654Y0199535D01*
X0618512Y0199477D01*
X0618369Y0199422D01*
X0618224Y0199371D01*
X0618078Y0199324D01*
X0617931Y0199281D01*
X0617783Y0199242D01*
X0617634Y0199206D01*
X0617484Y0199175D01*
X0617333Y0199147D01*
X0617182Y0199123D01*
X0617029Y0199103D01*
X0616877Y0199087D01*
X0616724Y0199075D01*
X0616571Y0199067D01*
X0616418Y0199063D01*
X0616264Y0199063D01*
X0616111Y0199067D01*
X0615958Y0199075D01*
X0615805Y0199087D01*
X0615653Y0199103D01*
X0615500Y0199123D01*
X0615349Y0199147D01*
X0615198Y0199175D01*
X0615048Y0199206D01*
X0614899Y0199242D01*
X0614751Y0199281D01*
X0614604Y0199324D01*
X0614458Y0199371D01*
X0614313Y0199422D01*
X0614170Y0199477D01*
X0614028Y0199535D01*
X0613888Y0199597D01*
X0613749Y0199662D01*
X0613612Y0199731D01*
X0613477Y0199804D01*
X0613344Y0199880D01*
X0613213Y0199960D01*
X0613084Y0200042D01*
X0612957Y0200129D01*
X0612832Y0200218D01*
X0612710Y0200311D01*
X0612591Y0200407D01*
X0612473Y0200506D01*
X0612359Y0200607D01*
X0612247Y0200712D01*
X0612138Y0200820D01*
X0612032Y0200931D01*
X0611928Y0201044D01*
X0611828Y0201160D01*
X0611730Y0201278D01*
X0611636Y0201399D01*
X0611545Y0201522D01*
X0611457Y0201648D01*
X0611373Y0201776D01*
X0611291Y0201906D01*
X0611214Y0202038D01*
X0611139Y0202172D01*
X0611068Y0202308D01*
X0611001Y0202446D01*
X0610937Y0202586D01*
X0610877Y0202727D01*
X0610821Y0202869D01*
X0610768Y0203013D01*
X0610719Y0203159D01*
X0610674Y0203305D01*
X0610633Y0203453D01*
X0610596Y0203601D01*
X0610562Y0203751D01*
X0610532Y0203902D01*
X0610507Y0204053D01*
X0610485Y0204204D01*
X0610467Y0204357D01*
X0610453Y0204509D01*
X0610443Y0204662D01*
X0610437Y0204816D01*
X0610435Y0204969D01*
X0610435Y0238039D02*
X0610437Y0238192D01*
X0610443Y0238346D01*
X0610453Y0238499D01*
X0610467Y0238651D01*
X0610485Y0238804D01*
X0610507Y0238955D01*
X0610532Y0239106D01*
X0610562Y0239257D01*
X0610596Y0239407D01*
X0610633Y0239555D01*
X0610674Y0239703D01*
X0610719Y0239849D01*
X0610768Y0239995D01*
X0610821Y0240139D01*
X0610877Y0240281D01*
X0610937Y0240422D01*
X0611001Y0240562D01*
X0611068Y0240700D01*
X0611139Y0240836D01*
X0611214Y0240970D01*
X0611291Y0241102D01*
X0611373Y0241232D01*
X0611457Y0241360D01*
X0611545Y0241486D01*
X0611636Y0241609D01*
X0611730Y0241730D01*
X0611828Y0241848D01*
X0611928Y0241964D01*
X0612032Y0242077D01*
X0612138Y0242188D01*
X0612247Y0242296D01*
X0612359Y0242401D01*
X0612473Y0242502D01*
X0612591Y0242601D01*
X0612710Y0242697D01*
X0612832Y0242790D01*
X0612957Y0242879D01*
X0613084Y0242966D01*
X0613213Y0243048D01*
X0613344Y0243128D01*
X0613477Y0243204D01*
X0613612Y0243277D01*
X0613749Y0243346D01*
X0613888Y0243411D01*
X0614028Y0243473D01*
X0614170Y0243531D01*
X0614313Y0243586D01*
X0614458Y0243637D01*
X0614604Y0243684D01*
X0614751Y0243727D01*
X0614899Y0243766D01*
X0615048Y0243802D01*
X0615198Y0243833D01*
X0615349Y0243861D01*
X0615500Y0243885D01*
X0615653Y0243905D01*
X0615805Y0243921D01*
X0615958Y0243933D01*
X0616111Y0243941D01*
X0616264Y0243945D01*
X0616418Y0243945D01*
X0616571Y0243941D01*
X0616724Y0243933D01*
X0616877Y0243921D01*
X0617029Y0243905D01*
X0617182Y0243885D01*
X0617333Y0243861D01*
X0617484Y0243833D01*
X0617634Y0243802D01*
X0617783Y0243766D01*
X0617931Y0243727D01*
X0618078Y0243684D01*
X0618224Y0243637D01*
X0618369Y0243586D01*
X0618512Y0243531D01*
X0618654Y0243473D01*
X0618794Y0243411D01*
X0618933Y0243346D01*
X0619070Y0243277D01*
X0619205Y0243204D01*
X0619338Y0243128D01*
X0619469Y0243048D01*
X0619598Y0242966D01*
X0619725Y0242879D01*
X0619850Y0242790D01*
X0619972Y0242697D01*
X0620091Y0242601D01*
X0620209Y0242502D01*
X0620323Y0242401D01*
X0620435Y0242296D01*
X0620544Y0242188D01*
X0620650Y0242077D01*
X0620754Y0241964D01*
X0620854Y0241848D01*
X0620952Y0241730D01*
X0621046Y0241609D01*
X0621137Y0241486D01*
X0621225Y0241360D01*
X0621309Y0241232D01*
X0621391Y0241102D01*
X0621468Y0240970D01*
X0621543Y0240836D01*
X0621614Y0240700D01*
X0621681Y0240562D01*
X0621745Y0240422D01*
X0621805Y0240281D01*
X0621861Y0240139D01*
X0621914Y0239995D01*
X0621963Y0239849D01*
X0622008Y0239703D01*
X0622049Y0239555D01*
X0622086Y0239407D01*
X0622120Y0239257D01*
X0622150Y0239106D01*
X0622175Y0238955D01*
X0622197Y0238804D01*
X0622215Y0238651D01*
X0622229Y0238499D01*
X0622239Y0238346D01*
X0622245Y0238192D01*
X0622247Y0238039D01*
X0622245Y0237886D01*
X0622239Y0237732D01*
X0622229Y0237579D01*
X0622215Y0237427D01*
X0622197Y0237274D01*
X0622175Y0237123D01*
X0622150Y0236972D01*
X0622120Y0236821D01*
X0622086Y0236671D01*
X0622049Y0236523D01*
X0622008Y0236375D01*
X0621963Y0236229D01*
X0621914Y0236083D01*
X0621861Y0235939D01*
X0621805Y0235797D01*
X0621745Y0235656D01*
X0621681Y0235516D01*
X0621614Y0235378D01*
X0621543Y0235242D01*
X0621468Y0235108D01*
X0621391Y0234976D01*
X0621309Y0234846D01*
X0621225Y0234718D01*
X0621137Y0234592D01*
X0621046Y0234469D01*
X0620952Y0234348D01*
X0620854Y0234230D01*
X0620754Y0234114D01*
X0620650Y0234001D01*
X0620544Y0233890D01*
X0620435Y0233782D01*
X0620323Y0233677D01*
X0620209Y0233576D01*
X0620091Y0233477D01*
X0619972Y0233381D01*
X0619850Y0233288D01*
X0619725Y0233199D01*
X0619598Y0233112D01*
X0619469Y0233030D01*
X0619338Y0232950D01*
X0619205Y0232874D01*
X0619070Y0232801D01*
X0618933Y0232732D01*
X0618794Y0232667D01*
X0618654Y0232605D01*
X0618512Y0232547D01*
X0618369Y0232492D01*
X0618224Y0232441D01*
X0618078Y0232394D01*
X0617931Y0232351D01*
X0617783Y0232312D01*
X0617634Y0232276D01*
X0617484Y0232245D01*
X0617333Y0232217D01*
X0617182Y0232193D01*
X0617029Y0232173D01*
X0616877Y0232157D01*
X0616724Y0232145D01*
X0616571Y0232137D01*
X0616418Y0232133D01*
X0616264Y0232133D01*
X0616111Y0232137D01*
X0615958Y0232145D01*
X0615805Y0232157D01*
X0615653Y0232173D01*
X0615500Y0232193D01*
X0615349Y0232217D01*
X0615198Y0232245D01*
X0615048Y0232276D01*
X0614899Y0232312D01*
X0614751Y0232351D01*
X0614604Y0232394D01*
X0614458Y0232441D01*
X0614313Y0232492D01*
X0614170Y0232547D01*
X0614028Y0232605D01*
X0613888Y0232667D01*
X0613749Y0232732D01*
X0613612Y0232801D01*
X0613477Y0232874D01*
X0613344Y0232950D01*
X0613213Y0233030D01*
X0613084Y0233112D01*
X0612957Y0233199D01*
X0612832Y0233288D01*
X0612710Y0233381D01*
X0612591Y0233477D01*
X0612473Y0233576D01*
X0612359Y0233677D01*
X0612247Y0233782D01*
X0612138Y0233890D01*
X0612032Y0234001D01*
X0611928Y0234114D01*
X0611828Y0234230D01*
X0611730Y0234348D01*
X0611636Y0234469D01*
X0611545Y0234592D01*
X0611457Y0234718D01*
X0611373Y0234846D01*
X0611291Y0234976D01*
X0611214Y0235108D01*
X0611139Y0235242D01*
X0611068Y0235378D01*
X0611001Y0235516D01*
X0610937Y0235656D01*
X0610877Y0235797D01*
X0610821Y0235939D01*
X0610768Y0236083D01*
X0610719Y0236229D01*
X0610674Y0236375D01*
X0610633Y0236523D01*
X0610596Y0236671D01*
X0610562Y0236821D01*
X0610532Y0236972D01*
X0610507Y0237123D01*
X0610485Y0237274D01*
X0610467Y0237427D01*
X0610453Y0237579D01*
X0610443Y0237732D01*
X0610437Y0237886D01*
X0610435Y0238039D01*
X0609648Y0052213D02*
X0609650Y0052366D01*
X0609656Y0052520D01*
X0609666Y0052673D01*
X0609680Y0052825D01*
X0609698Y0052978D01*
X0609720Y0053129D01*
X0609745Y0053280D01*
X0609775Y0053431D01*
X0609809Y0053581D01*
X0609846Y0053729D01*
X0609887Y0053877D01*
X0609932Y0054023D01*
X0609981Y0054169D01*
X0610034Y0054313D01*
X0610090Y0054455D01*
X0610150Y0054596D01*
X0610214Y0054736D01*
X0610281Y0054874D01*
X0610352Y0055010D01*
X0610427Y0055144D01*
X0610504Y0055276D01*
X0610586Y0055406D01*
X0610670Y0055534D01*
X0610758Y0055660D01*
X0610849Y0055783D01*
X0610943Y0055904D01*
X0611041Y0056022D01*
X0611141Y0056138D01*
X0611245Y0056251D01*
X0611351Y0056362D01*
X0611460Y0056470D01*
X0611572Y0056575D01*
X0611686Y0056676D01*
X0611804Y0056775D01*
X0611923Y0056871D01*
X0612045Y0056964D01*
X0612170Y0057053D01*
X0612297Y0057140D01*
X0612426Y0057222D01*
X0612557Y0057302D01*
X0612690Y0057378D01*
X0612825Y0057451D01*
X0612962Y0057520D01*
X0613101Y0057585D01*
X0613241Y0057647D01*
X0613383Y0057705D01*
X0613526Y0057760D01*
X0613671Y0057811D01*
X0613817Y0057858D01*
X0613964Y0057901D01*
X0614112Y0057940D01*
X0614261Y0057976D01*
X0614411Y0058007D01*
X0614562Y0058035D01*
X0614713Y0058059D01*
X0614866Y0058079D01*
X0615018Y0058095D01*
X0615171Y0058107D01*
X0615324Y0058115D01*
X0615477Y0058119D01*
X0615631Y0058119D01*
X0615784Y0058115D01*
X0615937Y0058107D01*
X0616090Y0058095D01*
X0616242Y0058079D01*
X0616395Y0058059D01*
X0616546Y0058035D01*
X0616697Y0058007D01*
X0616847Y0057976D01*
X0616996Y0057940D01*
X0617144Y0057901D01*
X0617291Y0057858D01*
X0617437Y0057811D01*
X0617582Y0057760D01*
X0617725Y0057705D01*
X0617867Y0057647D01*
X0618007Y0057585D01*
X0618146Y0057520D01*
X0618283Y0057451D01*
X0618418Y0057378D01*
X0618551Y0057302D01*
X0618682Y0057222D01*
X0618811Y0057140D01*
X0618938Y0057053D01*
X0619063Y0056964D01*
X0619185Y0056871D01*
X0619304Y0056775D01*
X0619422Y0056676D01*
X0619536Y0056575D01*
X0619648Y0056470D01*
X0619757Y0056362D01*
X0619863Y0056251D01*
X0619967Y0056138D01*
X0620067Y0056022D01*
X0620165Y0055904D01*
X0620259Y0055783D01*
X0620350Y0055660D01*
X0620438Y0055534D01*
X0620522Y0055406D01*
X0620604Y0055276D01*
X0620681Y0055144D01*
X0620756Y0055010D01*
X0620827Y0054874D01*
X0620894Y0054736D01*
X0620958Y0054596D01*
X0621018Y0054455D01*
X0621074Y0054313D01*
X0621127Y0054169D01*
X0621176Y0054023D01*
X0621221Y0053877D01*
X0621262Y0053729D01*
X0621299Y0053581D01*
X0621333Y0053431D01*
X0621363Y0053280D01*
X0621388Y0053129D01*
X0621410Y0052978D01*
X0621428Y0052825D01*
X0621442Y0052673D01*
X0621452Y0052520D01*
X0621458Y0052366D01*
X0621460Y0052213D01*
X0621458Y0052060D01*
X0621452Y0051906D01*
X0621442Y0051753D01*
X0621428Y0051601D01*
X0621410Y0051448D01*
X0621388Y0051297D01*
X0621363Y0051146D01*
X0621333Y0050995D01*
X0621299Y0050845D01*
X0621262Y0050697D01*
X0621221Y0050549D01*
X0621176Y0050403D01*
X0621127Y0050257D01*
X0621074Y0050113D01*
X0621018Y0049971D01*
X0620958Y0049830D01*
X0620894Y0049690D01*
X0620827Y0049552D01*
X0620756Y0049416D01*
X0620681Y0049282D01*
X0620604Y0049150D01*
X0620522Y0049020D01*
X0620438Y0048892D01*
X0620350Y0048766D01*
X0620259Y0048643D01*
X0620165Y0048522D01*
X0620067Y0048404D01*
X0619967Y0048288D01*
X0619863Y0048175D01*
X0619757Y0048064D01*
X0619648Y0047956D01*
X0619536Y0047851D01*
X0619422Y0047750D01*
X0619304Y0047651D01*
X0619185Y0047555D01*
X0619063Y0047462D01*
X0618938Y0047373D01*
X0618811Y0047286D01*
X0618682Y0047204D01*
X0618551Y0047124D01*
X0618418Y0047048D01*
X0618283Y0046975D01*
X0618146Y0046906D01*
X0618007Y0046841D01*
X0617867Y0046779D01*
X0617725Y0046721D01*
X0617582Y0046666D01*
X0617437Y0046615D01*
X0617291Y0046568D01*
X0617144Y0046525D01*
X0616996Y0046486D01*
X0616847Y0046450D01*
X0616697Y0046419D01*
X0616546Y0046391D01*
X0616395Y0046367D01*
X0616242Y0046347D01*
X0616090Y0046331D01*
X0615937Y0046319D01*
X0615784Y0046311D01*
X0615631Y0046307D01*
X0615477Y0046307D01*
X0615324Y0046311D01*
X0615171Y0046319D01*
X0615018Y0046331D01*
X0614866Y0046347D01*
X0614713Y0046367D01*
X0614562Y0046391D01*
X0614411Y0046419D01*
X0614261Y0046450D01*
X0614112Y0046486D01*
X0613964Y0046525D01*
X0613817Y0046568D01*
X0613671Y0046615D01*
X0613526Y0046666D01*
X0613383Y0046721D01*
X0613241Y0046779D01*
X0613101Y0046841D01*
X0612962Y0046906D01*
X0612825Y0046975D01*
X0612690Y0047048D01*
X0612557Y0047124D01*
X0612426Y0047204D01*
X0612297Y0047286D01*
X0612170Y0047373D01*
X0612045Y0047462D01*
X0611923Y0047555D01*
X0611804Y0047651D01*
X0611686Y0047750D01*
X0611572Y0047851D01*
X0611460Y0047956D01*
X0611351Y0048064D01*
X0611245Y0048175D01*
X0611141Y0048288D01*
X0611041Y0048404D01*
X0610943Y0048522D01*
X0610849Y0048643D01*
X0610758Y0048766D01*
X0610670Y0048892D01*
X0610586Y0049020D01*
X0610504Y0049150D01*
X0610427Y0049282D01*
X0610352Y0049416D01*
X0610281Y0049552D01*
X0610214Y0049690D01*
X0610150Y0049830D01*
X0610090Y0049971D01*
X0610034Y0050113D01*
X0609981Y0050257D01*
X0609932Y0050403D01*
X0609887Y0050549D01*
X0609846Y0050697D01*
X0609809Y0050845D01*
X0609775Y0050995D01*
X0609745Y0051146D01*
X0609720Y0051297D01*
X0609698Y0051448D01*
X0609680Y0051601D01*
X0609666Y0051753D01*
X0609656Y0051906D01*
X0609650Y0052060D01*
X0609648Y0052213D01*
M02*
