G75*
%MOIN*%
%OFA0B0*%
%FSLAX25Y25*%
%IPPOS*%
%LPD*%
%AMOC8*
5,1,8,0,0,1.08239X$1,22.5*
%
%ADD10C,0.00394*%
%ADD11C,0.00400*%
%ADD12C,0.00000*%
D10*
X0027759Y0014874D02*
X0286418Y0014874D01*
X0290418Y0014874D02*
X0626184Y0014874D01*
X0626336Y0014876D01*
X0626488Y0014882D01*
X0626640Y0014892D01*
X0626791Y0014905D01*
X0626942Y0014923D01*
X0627093Y0014944D01*
X0627243Y0014970D01*
X0627392Y0014999D01*
X0627541Y0015032D01*
X0627688Y0015069D01*
X0627835Y0015109D01*
X0627980Y0015154D01*
X0628124Y0015202D01*
X0628267Y0015254D01*
X0628409Y0015309D01*
X0628549Y0015368D01*
X0628688Y0015431D01*
X0628825Y0015497D01*
X0628960Y0015567D01*
X0629093Y0015640D01*
X0629224Y0015717D01*
X0629354Y0015797D01*
X0629481Y0015880D01*
X0629606Y0015966D01*
X0629729Y0016056D01*
X0629849Y0016149D01*
X0629967Y0016245D01*
X0630083Y0016344D01*
X0630196Y0016446D01*
X0630306Y0016550D01*
X0630414Y0016658D01*
X0630518Y0016768D01*
X0630620Y0016881D01*
X0630719Y0016997D01*
X0630815Y0017115D01*
X0630908Y0017235D01*
X0630998Y0017358D01*
X0631084Y0017483D01*
X0631167Y0017610D01*
X0631247Y0017740D01*
X0631324Y0017871D01*
X0631397Y0018004D01*
X0631467Y0018139D01*
X0631533Y0018276D01*
X0631596Y0018415D01*
X0631655Y0018555D01*
X0631710Y0018697D01*
X0631762Y0018840D01*
X0631810Y0018984D01*
X0631855Y0019129D01*
X0631895Y0019276D01*
X0631932Y0019423D01*
X0631965Y0019572D01*
X0631994Y0019721D01*
X0632020Y0019871D01*
X0632041Y0020022D01*
X0632059Y0020173D01*
X0632072Y0020324D01*
X0632082Y0020476D01*
X0632088Y0020628D01*
X0632090Y0020780D01*
X0632089Y0020780D02*
X0632089Y0343614D01*
X0632090Y0343614D02*
X0632088Y0343766D01*
X0632082Y0343918D01*
X0632072Y0344070D01*
X0632059Y0344221D01*
X0632041Y0344372D01*
X0632020Y0344523D01*
X0631994Y0344673D01*
X0631965Y0344822D01*
X0631932Y0344971D01*
X0631895Y0345118D01*
X0631855Y0345265D01*
X0631810Y0345410D01*
X0631762Y0345554D01*
X0631710Y0345697D01*
X0631655Y0345839D01*
X0631596Y0345979D01*
X0631533Y0346118D01*
X0631467Y0346255D01*
X0631397Y0346390D01*
X0631324Y0346523D01*
X0631247Y0346654D01*
X0631167Y0346784D01*
X0631084Y0346911D01*
X0630998Y0347036D01*
X0630908Y0347159D01*
X0630815Y0347279D01*
X0630719Y0347397D01*
X0630620Y0347513D01*
X0630518Y0347626D01*
X0630414Y0347736D01*
X0630306Y0347844D01*
X0630196Y0347948D01*
X0630083Y0348050D01*
X0629967Y0348149D01*
X0629849Y0348245D01*
X0629729Y0348338D01*
X0629606Y0348428D01*
X0629481Y0348514D01*
X0629354Y0348597D01*
X0629224Y0348677D01*
X0629093Y0348754D01*
X0628960Y0348827D01*
X0628825Y0348897D01*
X0628688Y0348963D01*
X0628549Y0349026D01*
X0628409Y0349085D01*
X0628267Y0349140D01*
X0628124Y0349192D01*
X0627980Y0349240D01*
X0627835Y0349285D01*
X0627688Y0349325D01*
X0627541Y0349362D01*
X0627392Y0349395D01*
X0627243Y0349424D01*
X0627093Y0349450D01*
X0626942Y0349471D01*
X0626791Y0349489D01*
X0626640Y0349502D01*
X0626488Y0349512D01*
X0626336Y0349518D01*
X0626184Y0349520D01*
X0027759Y0349520D01*
X0027607Y0349518D01*
X0027455Y0349512D01*
X0027303Y0349502D01*
X0027152Y0349489D01*
X0027001Y0349471D01*
X0026850Y0349450D01*
X0026700Y0349424D01*
X0026551Y0349395D01*
X0026402Y0349362D01*
X0026255Y0349325D01*
X0026108Y0349285D01*
X0025963Y0349240D01*
X0025819Y0349192D01*
X0025676Y0349140D01*
X0025534Y0349085D01*
X0025394Y0349026D01*
X0025255Y0348963D01*
X0025118Y0348897D01*
X0024983Y0348827D01*
X0024850Y0348754D01*
X0024719Y0348677D01*
X0024589Y0348597D01*
X0024462Y0348514D01*
X0024337Y0348428D01*
X0024214Y0348338D01*
X0024094Y0348245D01*
X0023976Y0348149D01*
X0023860Y0348050D01*
X0023747Y0347948D01*
X0023637Y0347844D01*
X0023529Y0347736D01*
X0023425Y0347626D01*
X0023323Y0347513D01*
X0023224Y0347397D01*
X0023128Y0347279D01*
X0023035Y0347159D01*
X0022945Y0347036D01*
X0022859Y0346911D01*
X0022776Y0346784D01*
X0022696Y0346654D01*
X0022619Y0346523D01*
X0022546Y0346390D01*
X0022476Y0346255D01*
X0022410Y0346118D01*
X0022347Y0345979D01*
X0022288Y0345839D01*
X0022233Y0345697D01*
X0022181Y0345554D01*
X0022133Y0345410D01*
X0022088Y0345265D01*
X0022048Y0345118D01*
X0022011Y0344971D01*
X0021978Y0344822D01*
X0021949Y0344673D01*
X0021923Y0344523D01*
X0021902Y0344372D01*
X0021884Y0344221D01*
X0021871Y0344070D01*
X0021861Y0343918D01*
X0021855Y0343766D01*
X0021853Y0343614D01*
X0021853Y0020780D01*
X0021855Y0020628D01*
X0021861Y0020476D01*
X0021871Y0020324D01*
X0021884Y0020173D01*
X0021902Y0020022D01*
X0021923Y0019871D01*
X0021949Y0019721D01*
X0021978Y0019572D01*
X0022011Y0019423D01*
X0022048Y0019276D01*
X0022088Y0019129D01*
X0022133Y0018984D01*
X0022181Y0018840D01*
X0022233Y0018697D01*
X0022288Y0018555D01*
X0022347Y0018415D01*
X0022410Y0018276D01*
X0022476Y0018139D01*
X0022546Y0018004D01*
X0022619Y0017871D01*
X0022696Y0017740D01*
X0022776Y0017610D01*
X0022859Y0017483D01*
X0022945Y0017358D01*
X0023035Y0017235D01*
X0023128Y0017115D01*
X0023224Y0016997D01*
X0023323Y0016881D01*
X0023425Y0016768D01*
X0023529Y0016658D01*
X0023637Y0016550D01*
X0023747Y0016446D01*
X0023860Y0016344D01*
X0023976Y0016245D01*
X0024094Y0016149D01*
X0024214Y0016056D01*
X0024337Y0015966D01*
X0024462Y0015880D01*
X0024589Y0015797D01*
X0024719Y0015717D01*
X0024850Y0015640D01*
X0024983Y0015567D01*
X0025118Y0015497D01*
X0025255Y0015431D01*
X0025394Y0015368D01*
X0025534Y0015309D01*
X0025676Y0015254D01*
X0025819Y0015202D01*
X0025963Y0015154D01*
X0026108Y0015109D01*
X0026255Y0015069D01*
X0026402Y0015032D01*
X0026551Y0014999D01*
X0026700Y0014970D01*
X0026850Y0014944D01*
X0027001Y0014923D01*
X0027152Y0014905D01*
X0027303Y0014892D01*
X0027455Y0014882D01*
X0027607Y0014876D01*
X0027759Y0014874D01*
X0529412Y0329835D02*
X0533349Y0329835D01*
X0533349Y0345583D01*
X0529412Y0345583D01*
X0529412Y0329835D01*
X0549412Y0329835D02*
X0553349Y0329835D01*
X0553349Y0345583D01*
X0549412Y0345583D01*
X0549412Y0329835D01*
X0569412Y0329835D02*
X0573349Y0329835D01*
X0573349Y0345583D01*
X0569412Y0345583D01*
X0569412Y0329835D01*
X0575542Y0054986D02*
X0559794Y0054986D01*
X0559794Y0051049D01*
X0575542Y0051049D01*
X0575542Y0054986D01*
X0575542Y0038451D02*
X0559794Y0038451D01*
X0559794Y0034514D01*
X0575542Y0034514D01*
X0575542Y0038451D01*
D11*
X0290418Y0037500D02*
X0290418Y0014874D01*
X0286418Y0014874D02*
X0286418Y0037500D01*
X0290418Y0037500D01*
X0268168Y0039250D02*
X0264168Y0039250D01*
X0264168Y0150250D01*
X0268168Y0150250D01*
X0268168Y0039250D01*
X0268168Y0165000D02*
X0264168Y0165000D01*
X0264168Y0187750D01*
X0268168Y0187750D01*
X0268168Y0165000D01*
X0204918Y0217000D02*
X0200918Y0217000D01*
X0200918Y0292250D01*
X0207668Y0299000D01*
X0245168Y0299000D01*
X0251668Y0292500D01*
X0251668Y0269000D01*
X0247668Y0269000D01*
X0247668Y0291000D01*
X0243668Y0295000D01*
X0209168Y0295000D01*
X0204918Y0290750D01*
X0204918Y0217000D01*
D12*
X0539912Y0036482D02*
X0539914Y0036635D01*
X0539920Y0036789D01*
X0539930Y0036942D01*
X0539944Y0037094D01*
X0539962Y0037247D01*
X0539984Y0037398D01*
X0540009Y0037549D01*
X0540039Y0037700D01*
X0540073Y0037850D01*
X0540110Y0037998D01*
X0540151Y0038146D01*
X0540196Y0038292D01*
X0540245Y0038438D01*
X0540298Y0038582D01*
X0540354Y0038724D01*
X0540414Y0038865D01*
X0540478Y0039005D01*
X0540545Y0039143D01*
X0540616Y0039279D01*
X0540691Y0039413D01*
X0540768Y0039545D01*
X0540850Y0039675D01*
X0540934Y0039803D01*
X0541022Y0039929D01*
X0541113Y0040052D01*
X0541207Y0040173D01*
X0541305Y0040291D01*
X0541405Y0040407D01*
X0541509Y0040520D01*
X0541615Y0040631D01*
X0541724Y0040739D01*
X0541836Y0040844D01*
X0541950Y0040945D01*
X0542068Y0041044D01*
X0542187Y0041140D01*
X0542309Y0041233D01*
X0542434Y0041322D01*
X0542561Y0041409D01*
X0542690Y0041491D01*
X0542821Y0041571D01*
X0542954Y0041647D01*
X0543089Y0041720D01*
X0543226Y0041789D01*
X0543365Y0041854D01*
X0543505Y0041916D01*
X0543647Y0041974D01*
X0543790Y0042029D01*
X0543935Y0042080D01*
X0544081Y0042127D01*
X0544228Y0042170D01*
X0544376Y0042209D01*
X0544525Y0042245D01*
X0544675Y0042276D01*
X0544826Y0042304D01*
X0544977Y0042328D01*
X0545130Y0042348D01*
X0545282Y0042364D01*
X0545435Y0042376D01*
X0545588Y0042384D01*
X0545741Y0042388D01*
X0545895Y0042388D01*
X0546048Y0042384D01*
X0546201Y0042376D01*
X0546354Y0042364D01*
X0546506Y0042348D01*
X0546659Y0042328D01*
X0546810Y0042304D01*
X0546961Y0042276D01*
X0547111Y0042245D01*
X0547260Y0042209D01*
X0547408Y0042170D01*
X0547555Y0042127D01*
X0547701Y0042080D01*
X0547846Y0042029D01*
X0547989Y0041974D01*
X0548131Y0041916D01*
X0548271Y0041854D01*
X0548410Y0041789D01*
X0548547Y0041720D01*
X0548682Y0041647D01*
X0548815Y0041571D01*
X0548946Y0041491D01*
X0549075Y0041409D01*
X0549202Y0041322D01*
X0549327Y0041233D01*
X0549449Y0041140D01*
X0549568Y0041044D01*
X0549686Y0040945D01*
X0549800Y0040844D01*
X0549912Y0040739D01*
X0550021Y0040631D01*
X0550127Y0040520D01*
X0550231Y0040407D01*
X0550331Y0040291D01*
X0550429Y0040173D01*
X0550523Y0040052D01*
X0550614Y0039929D01*
X0550702Y0039803D01*
X0550786Y0039675D01*
X0550868Y0039545D01*
X0550945Y0039413D01*
X0551020Y0039279D01*
X0551091Y0039143D01*
X0551158Y0039005D01*
X0551222Y0038865D01*
X0551282Y0038724D01*
X0551338Y0038582D01*
X0551391Y0038438D01*
X0551440Y0038292D01*
X0551485Y0038146D01*
X0551526Y0037998D01*
X0551563Y0037850D01*
X0551597Y0037700D01*
X0551627Y0037549D01*
X0551652Y0037398D01*
X0551674Y0037247D01*
X0551692Y0037094D01*
X0551706Y0036942D01*
X0551716Y0036789D01*
X0551722Y0036635D01*
X0551724Y0036482D01*
X0551722Y0036329D01*
X0551716Y0036175D01*
X0551706Y0036022D01*
X0551692Y0035870D01*
X0551674Y0035717D01*
X0551652Y0035566D01*
X0551627Y0035415D01*
X0551597Y0035264D01*
X0551563Y0035114D01*
X0551526Y0034966D01*
X0551485Y0034818D01*
X0551440Y0034672D01*
X0551391Y0034526D01*
X0551338Y0034382D01*
X0551282Y0034240D01*
X0551222Y0034099D01*
X0551158Y0033959D01*
X0551091Y0033821D01*
X0551020Y0033685D01*
X0550945Y0033551D01*
X0550868Y0033419D01*
X0550786Y0033289D01*
X0550702Y0033161D01*
X0550614Y0033035D01*
X0550523Y0032912D01*
X0550429Y0032791D01*
X0550331Y0032673D01*
X0550231Y0032557D01*
X0550127Y0032444D01*
X0550021Y0032333D01*
X0549912Y0032225D01*
X0549800Y0032120D01*
X0549686Y0032019D01*
X0549568Y0031920D01*
X0549449Y0031824D01*
X0549327Y0031731D01*
X0549202Y0031642D01*
X0549075Y0031555D01*
X0548946Y0031473D01*
X0548815Y0031393D01*
X0548682Y0031317D01*
X0548547Y0031244D01*
X0548410Y0031175D01*
X0548271Y0031110D01*
X0548131Y0031048D01*
X0547989Y0030990D01*
X0547846Y0030935D01*
X0547701Y0030884D01*
X0547555Y0030837D01*
X0547408Y0030794D01*
X0547260Y0030755D01*
X0547111Y0030719D01*
X0546961Y0030688D01*
X0546810Y0030660D01*
X0546659Y0030636D01*
X0546506Y0030616D01*
X0546354Y0030600D01*
X0546201Y0030588D01*
X0546048Y0030580D01*
X0545895Y0030576D01*
X0545741Y0030576D01*
X0545588Y0030580D01*
X0545435Y0030588D01*
X0545282Y0030600D01*
X0545130Y0030616D01*
X0544977Y0030636D01*
X0544826Y0030660D01*
X0544675Y0030688D01*
X0544525Y0030719D01*
X0544376Y0030755D01*
X0544228Y0030794D01*
X0544081Y0030837D01*
X0543935Y0030884D01*
X0543790Y0030935D01*
X0543647Y0030990D01*
X0543505Y0031048D01*
X0543365Y0031110D01*
X0543226Y0031175D01*
X0543089Y0031244D01*
X0542954Y0031317D01*
X0542821Y0031393D01*
X0542690Y0031473D01*
X0542561Y0031555D01*
X0542434Y0031642D01*
X0542309Y0031731D01*
X0542187Y0031824D01*
X0542068Y0031920D01*
X0541950Y0032019D01*
X0541836Y0032120D01*
X0541724Y0032225D01*
X0541615Y0032333D01*
X0541509Y0032444D01*
X0541405Y0032557D01*
X0541305Y0032673D01*
X0541207Y0032791D01*
X0541113Y0032912D01*
X0541022Y0033035D01*
X0540934Y0033161D01*
X0540850Y0033289D01*
X0540768Y0033419D01*
X0540691Y0033551D01*
X0540616Y0033685D01*
X0540545Y0033821D01*
X0540478Y0033959D01*
X0540414Y0034099D01*
X0540354Y0034240D01*
X0540298Y0034382D01*
X0540245Y0034526D01*
X0540196Y0034672D01*
X0540151Y0034818D01*
X0540110Y0034966D01*
X0540073Y0035114D01*
X0540039Y0035264D01*
X0540009Y0035415D01*
X0539984Y0035566D01*
X0539962Y0035717D01*
X0539944Y0035870D01*
X0539930Y0036022D01*
X0539920Y0036175D01*
X0539914Y0036329D01*
X0539912Y0036482D01*
X0576919Y0061285D02*
X0576921Y0061438D01*
X0576927Y0061592D01*
X0576937Y0061745D01*
X0576951Y0061897D01*
X0576969Y0062050D01*
X0576991Y0062201D01*
X0577016Y0062352D01*
X0577046Y0062503D01*
X0577080Y0062653D01*
X0577117Y0062801D01*
X0577158Y0062949D01*
X0577203Y0063095D01*
X0577252Y0063241D01*
X0577305Y0063385D01*
X0577361Y0063527D01*
X0577421Y0063668D01*
X0577485Y0063808D01*
X0577552Y0063946D01*
X0577623Y0064082D01*
X0577698Y0064216D01*
X0577775Y0064348D01*
X0577857Y0064478D01*
X0577941Y0064606D01*
X0578029Y0064732D01*
X0578120Y0064855D01*
X0578214Y0064976D01*
X0578312Y0065094D01*
X0578412Y0065210D01*
X0578516Y0065323D01*
X0578622Y0065434D01*
X0578731Y0065542D01*
X0578843Y0065647D01*
X0578957Y0065748D01*
X0579075Y0065847D01*
X0579194Y0065943D01*
X0579316Y0066036D01*
X0579441Y0066125D01*
X0579568Y0066212D01*
X0579697Y0066294D01*
X0579828Y0066374D01*
X0579961Y0066450D01*
X0580096Y0066523D01*
X0580233Y0066592D01*
X0580372Y0066657D01*
X0580512Y0066719D01*
X0580654Y0066777D01*
X0580797Y0066832D01*
X0580942Y0066883D01*
X0581088Y0066930D01*
X0581235Y0066973D01*
X0581383Y0067012D01*
X0581532Y0067048D01*
X0581682Y0067079D01*
X0581833Y0067107D01*
X0581984Y0067131D01*
X0582137Y0067151D01*
X0582289Y0067167D01*
X0582442Y0067179D01*
X0582595Y0067187D01*
X0582748Y0067191D01*
X0582902Y0067191D01*
X0583055Y0067187D01*
X0583208Y0067179D01*
X0583361Y0067167D01*
X0583513Y0067151D01*
X0583666Y0067131D01*
X0583817Y0067107D01*
X0583968Y0067079D01*
X0584118Y0067048D01*
X0584267Y0067012D01*
X0584415Y0066973D01*
X0584562Y0066930D01*
X0584708Y0066883D01*
X0584853Y0066832D01*
X0584996Y0066777D01*
X0585138Y0066719D01*
X0585278Y0066657D01*
X0585417Y0066592D01*
X0585554Y0066523D01*
X0585689Y0066450D01*
X0585822Y0066374D01*
X0585953Y0066294D01*
X0586082Y0066212D01*
X0586209Y0066125D01*
X0586334Y0066036D01*
X0586456Y0065943D01*
X0586575Y0065847D01*
X0586693Y0065748D01*
X0586807Y0065647D01*
X0586919Y0065542D01*
X0587028Y0065434D01*
X0587134Y0065323D01*
X0587238Y0065210D01*
X0587338Y0065094D01*
X0587436Y0064976D01*
X0587530Y0064855D01*
X0587621Y0064732D01*
X0587709Y0064606D01*
X0587793Y0064478D01*
X0587875Y0064348D01*
X0587952Y0064216D01*
X0588027Y0064082D01*
X0588098Y0063946D01*
X0588165Y0063808D01*
X0588229Y0063668D01*
X0588289Y0063527D01*
X0588345Y0063385D01*
X0588398Y0063241D01*
X0588447Y0063095D01*
X0588492Y0062949D01*
X0588533Y0062801D01*
X0588570Y0062653D01*
X0588604Y0062503D01*
X0588634Y0062352D01*
X0588659Y0062201D01*
X0588681Y0062050D01*
X0588699Y0061897D01*
X0588713Y0061745D01*
X0588723Y0061592D01*
X0588729Y0061438D01*
X0588731Y0061285D01*
X0588729Y0061132D01*
X0588723Y0060978D01*
X0588713Y0060825D01*
X0588699Y0060673D01*
X0588681Y0060520D01*
X0588659Y0060369D01*
X0588634Y0060218D01*
X0588604Y0060067D01*
X0588570Y0059917D01*
X0588533Y0059769D01*
X0588492Y0059621D01*
X0588447Y0059475D01*
X0588398Y0059329D01*
X0588345Y0059185D01*
X0588289Y0059043D01*
X0588229Y0058902D01*
X0588165Y0058762D01*
X0588098Y0058624D01*
X0588027Y0058488D01*
X0587952Y0058354D01*
X0587875Y0058222D01*
X0587793Y0058092D01*
X0587709Y0057964D01*
X0587621Y0057838D01*
X0587530Y0057715D01*
X0587436Y0057594D01*
X0587338Y0057476D01*
X0587238Y0057360D01*
X0587134Y0057247D01*
X0587028Y0057136D01*
X0586919Y0057028D01*
X0586807Y0056923D01*
X0586693Y0056822D01*
X0586575Y0056723D01*
X0586456Y0056627D01*
X0586334Y0056534D01*
X0586209Y0056445D01*
X0586082Y0056358D01*
X0585953Y0056276D01*
X0585822Y0056196D01*
X0585689Y0056120D01*
X0585554Y0056047D01*
X0585417Y0055978D01*
X0585278Y0055913D01*
X0585138Y0055851D01*
X0584996Y0055793D01*
X0584853Y0055738D01*
X0584708Y0055687D01*
X0584562Y0055640D01*
X0584415Y0055597D01*
X0584267Y0055558D01*
X0584118Y0055522D01*
X0583968Y0055491D01*
X0583817Y0055463D01*
X0583666Y0055439D01*
X0583513Y0055419D01*
X0583361Y0055403D01*
X0583208Y0055391D01*
X0583055Y0055383D01*
X0582902Y0055379D01*
X0582748Y0055379D01*
X0582595Y0055383D01*
X0582442Y0055391D01*
X0582289Y0055403D01*
X0582137Y0055419D01*
X0581984Y0055439D01*
X0581833Y0055463D01*
X0581682Y0055491D01*
X0581532Y0055522D01*
X0581383Y0055558D01*
X0581235Y0055597D01*
X0581088Y0055640D01*
X0580942Y0055687D01*
X0580797Y0055738D01*
X0580654Y0055793D01*
X0580512Y0055851D01*
X0580372Y0055913D01*
X0580233Y0055978D01*
X0580096Y0056047D01*
X0579961Y0056120D01*
X0579828Y0056196D01*
X0579697Y0056276D01*
X0579568Y0056358D01*
X0579441Y0056445D01*
X0579316Y0056534D01*
X0579194Y0056627D01*
X0579075Y0056723D01*
X0578957Y0056822D01*
X0578843Y0056923D01*
X0578731Y0057028D01*
X0578622Y0057136D01*
X0578516Y0057247D01*
X0578412Y0057360D01*
X0578312Y0057476D01*
X0578214Y0057594D01*
X0578120Y0057715D01*
X0578029Y0057838D01*
X0577941Y0057964D01*
X0577857Y0058092D01*
X0577775Y0058222D01*
X0577698Y0058354D01*
X0577623Y0058488D01*
X0577552Y0058624D01*
X0577485Y0058762D01*
X0577421Y0058902D01*
X0577361Y0059043D01*
X0577305Y0059185D01*
X0577252Y0059329D01*
X0577203Y0059475D01*
X0577158Y0059621D01*
X0577117Y0059769D01*
X0577080Y0059917D01*
X0577046Y0060067D01*
X0577016Y0060218D01*
X0576991Y0060369D01*
X0576969Y0060520D01*
X0576951Y0060673D01*
X0576937Y0060825D01*
X0576927Y0060978D01*
X0576921Y0061132D01*
X0576919Y0061285D01*
M02*
