G75*
%MOIN*%
%OFA0B0*%
%FSLAX25Y25*%
%IPPOS*%
%LPD*%
%AMOC8*
5,1,8,0,0,1.08239X$1,22.5*
%
%ADD10C,0.10600*%
%ADD11OC8,0.06600*%
%ADD12OC8,0.08868*%
%ADD13C,0.12411*%
%ADD14OC8,0.06000*%
%ADD15R,0.08868X0.08868*%
%ADD16C,0.00500*%
%ADD17R,0.15167X0.05718*%
%ADD18R,0.40364X0.35639*%
%ADD19R,0.06899X0.07687*%
%ADD20C,0.12962*%
%ADD21OC8,0.12962*%
%ADD22OC8,0.07096*%
%ADD23R,0.05718X0.06506*%
%ADD24R,0.07490X0.06506*%
%ADD25R,0.10049X0.10049*%
%ADD26R,0.13400X0.03600*%
%ADD27R,0.06506X0.07490*%
%ADD28R,0.06506X0.05718*%
%ADD29R,0.09261X0.02962*%
%ADD30R,0.05324X0.05324*%
%ADD31R,0.11230X0.06899*%
%ADD32R,0.09261X0.07687*%
%ADD33R,0.06506X0.05324*%
%ADD34OC8,0.10600*%
%ADD35R,0.04537X0.05324*%
%ADD36C,0.07687*%
%ADD37OC8,0.07687*%
%ADD38R,0.07698X0.06899*%
%ADD39R,0.12600X0.06600*%
%ADD40R,0.16600X0.04900*%
%ADD41R,0.05600X0.06600*%
%ADD42C,0.02650*%
%ADD43R,0.05324X0.04537*%
%ADD44C,0.00100*%
%ADD45R,0.03600X0.13400*%
%ADD46C,0.06600*%
%ADD47R,0.07687X0.07293*%
%ADD48R,0.04537X0.04931*%
%ADD49R,0.04537X0.06112*%
%ADD50C,0.04931*%
%ADD51R,0.02962X0.06702*%
%ADD52C,0.05400*%
%ADD53C,0.09899*%
%ADD54C,0.03103*%
%ADD55OC8,0.09899*%
%ADD56R,0.06600X0.02800*%
%ADD57C,0.05600*%
%ADD58R,0.22254X0.22254*%
%ADD59C,0.22254*%
%ADD60R,0.04562X0.04562*%
D10*
X0051763Y0122506D03*
X0100975Y0122506D03*
X0100975Y0161876D03*
X0051763Y0161876D03*
X0352227Y0109343D03*
X0576727Y0074843D03*
D11*
X0146735Y0087694D03*
X0146735Y0028694D03*
X0070769Y0203491D03*
X0070769Y0262491D03*
D12*
X0039963Y0248020D03*
X0039963Y0227520D03*
X0039963Y0208020D03*
X0065771Y0081183D03*
X0065771Y0064648D03*
X0065771Y0048112D03*
X0601097Y0146843D03*
X0622357Y0146843D03*
D13*
X0080928Y0081183D03*
X0043920Y0056380D03*
D14*
X0088278Y0059085D03*
X0092926Y0040350D03*
X0078278Y0019085D03*
X0102926Y0080350D03*
X0089227Y0199593D03*
X0089477Y0239593D03*
X0099227Y0239593D03*
X0099477Y0279593D03*
X0428727Y0128093D03*
X0468727Y0118093D03*
D15*
X0039963Y0268020D03*
D16*
X0064292Y0027609D02*
X0063450Y0027384D01*
X0062660Y0027015D01*
X0061946Y0026515D01*
X0061330Y0025899D01*
X0060830Y0025185D01*
X0060462Y0024395D01*
X0060236Y0023553D01*
X0060160Y0022685D01*
X0060236Y0021817D01*
X0060462Y0020975D01*
X0060830Y0020185D01*
X0061330Y0019471D01*
X0061946Y0018855D01*
X0062660Y0018355D01*
X0063450Y0017987D01*
X0064292Y0017761D01*
X0065160Y0017685D01*
X0066028Y0017761D01*
X0066870Y0017987D01*
X0067660Y0018355D01*
X0068374Y0018855D01*
X0068990Y0019471D01*
X0069490Y0020185D01*
X0069859Y0020975D01*
X0070084Y0021817D01*
X0070160Y0022685D01*
X0070084Y0023553D01*
X0069859Y0024395D01*
X0069490Y0025185D01*
X0068990Y0025899D01*
X0068374Y0026515D01*
X0067660Y0027015D01*
X0066870Y0027384D01*
X0066028Y0027609D01*
X0065160Y0027685D01*
X0064292Y0027609D01*
X0063270Y0027299D02*
X0067051Y0027299D01*
X0067966Y0026801D02*
X0062354Y0026801D01*
X0061733Y0026302D02*
X0068587Y0026302D01*
X0069057Y0025804D02*
X0061263Y0025804D01*
X0060914Y0025305D02*
X0069406Y0025305D01*
X0069667Y0024807D02*
X0060654Y0024807D01*
X0060438Y0024308D02*
X0069882Y0024308D01*
X0070015Y0023810D02*
X0060305Y0023810D01*
X0060215Y0023311D02*
X0070105Y0023311D01*
X0070149Y0022813D02*
X0060171Y0022813D01*
X0060193Y0022314D02*
X0070128Y0022314D01*
X0070084Y0021816D02*
X0060236Y0021816D01*
X0060370Y0021317D02*
X0069950Y0021317D01*
X0069786Y0020819D02*
X0060534Y0020819D01*
X0060767Y0020320D02*
X0069553Y0020320D01*
X0069236Y0019822D02*
X0061084Y0019822D01*
X0061478Y0019323D02*
X0068842Y0019323D01*
X0068331Y0018825D02*
X0061989Y0018825D01*
X0062722Y0018326D02*
X0067598Y0018326D01*
X0066277Y0017828D02*
X0064043Y0017828D01*
X0625791Y0331209D02*
X0625422Y0331999D01*
X0625197Y0332840D01*
X0625121Y0333709D01*
X0625197Y0334577D01*
X0625422Y0335419D01*
X0625791Y0336209D01*
X0626291Y0336923D01*
X0626907Y0337539D01*
X0627621Y0338039D01*
X0628411Y0338407D01*
X0629252Y0338633D01*
X0630121Y0338709D01*
X0630989Y0338633D01*
X0631831Y0338407D01*
X0632621Y0338039D01*
X0633335Y0337539D01*
X0633951Y0336923D01*
X0634451Y0336209D01*
X0634819Y0335419D01*
X0635045Y0334577D01*
X0635121Y0333709D01*
X0635045Y0332840D01*
X0634819Y0331999D01*
X0634451Y0331209D01*
X0633951Y0330495D01*
X0633335Y0329878D01*
X0632621Y0329379D01*
X0631831Y0329010D01*
X0630989Y0328785D01*
X0630121Y0328709D01*
X0629252Y0328785D01*
X0628411Y0329010D01*
X0627621Y0329379D01*
X0626907Y0329878D01*
X0626291Y0330495D01*
X0625791Y0331209D01*
X0625705Y0331391D02*
X0634536Y0331391D01*
X0634768Y0331890D02*
X0625473Y0331890D01*
X0625318Y0332388D02*
X0634924Y0332388D01*
X0635049Y0332887D02*
X0625193Y0332887D01*
X0625149Y0333385D02*
X0635092Y0333385D01*
X0635105Y0333884D02*
X0625136Y0333884D01*
X0625180Y0334382D02*
X0635062Y0334382D01*
X0634963Y0334881D02*
X0625278Y0334881D01*
X0625412Y0335379D02*
X0634830Y0335379D01*
X0634605Y0335878D02*
X0625636Y0335878D01*
X0625908Y0336376D02*
X0634333Y0336376D01*
X0633984Y0336875D02*
X0626257Y0336875D01*
X0626741Y0337373D02*
X0633500Y0337373D01*
X0632859Y0337872D02*
X0627382Y0337872D01*
X0628332Y0338370D02*
X0631910Y0338370D01*
X0634230Y0330893D02*
X0626012Y0330893D01*
X0626391Y0330394D02*
X0633850Y0330394D01*
X0633352Y0329896D02*
X0626890Y0329896D01*
X0627594Y0329397D02*
X0632647Y0329397D01*
X0631415Y0328899D02*
X0628827Y0328899D01*
D17*
X0570211Y0238093D03*
X0570211Y0218093D03*
X0570461Y0170843D03*
X0570461Y0150843D03*
D18*
X0530698Y0160843D03*
X0530448Y0228093D03*
D19*
X0557465Y0252343D03*
X0568489Y0252343D03*
X0564739Y0186093D03*
X0553715Y0186093D03*
D20*
X0529477Y0289079D03*
X0458477Y0289079D03*
X0600477Y0289079D03*
X0174227Y0344856D03*
X0070977Y0326606D03*
D21*
X0070977Y0297079D03*
X0174227Y0315329D03*
X0458477Y0318606D03*
X0529477Y0318606D03*
X0600477Y0318606D03*
D22*
X0587477Y0142843D03*
D23*
X0538217Y0100593D03*
X0530737Y0100593D03*
X0522717Y0100593D03*
X0515237Y0100593D03*
X0484967Y0107843D03*
X0477487Y0107843D03*
X0477487Y0115593D03*
X0484967Y0115593D03*
X0514987Y0054843D03*
X0522467Y0054843D03*
X0530487Y0054843D03*
X0537967Y0054843D03*
X0537967Y0040343D03*
X0530487Y0040343D03*
X0522467Y0040343D03*
X0514987Y0040343D03*
X0407967Y0039343D03*
X0400487Y0039343D03*
X0392467Y0039343D03*
X0384987Y0039343D03*
X0178717Y0251193D03*
X0171237Y0251193D03*
X0285487Y0262093D03*
X0292967Y0262093D03*
X0376987Y0324593D03*
X0384467Y0324593D03*
X0384467Y0332343D03*
X0376987Y0332343D03*
X0392487Y0332343D03*
X0399967Y0332343D03*
X0399967Y0340093D03*
X0392487Y0340093D03*
X0392487Y0324593D03*
X0399967Y0324593D03*
X0330967Y0352343D03*
X0323487Y0352343D03*
X0304467Y0351343D03*
X0296987Y0351343D03*
X0296987Y0343593D03*
X0304467Y0343593D03*
X0304467Y0335843D03*
X0296987Y0335843D03*
X0583487Y0344843D03*
X0590967Y0344843D03*
X0590967Y0354593D03*
X0583487Y0354593D03*
D24*
X0564125Y0117343D03*
X0551325Y0117343D03*
X0586825Y0108093D03*
X0599625Y0108093D03*
D25*
X0533888Y0086843D03*
X0516566Y0086843D03*
X0516566Y0067843D03*
X0533888Y0067843D03*
X0535638Y0027843D03*
X0518316Y0027843D03*
X0406388Y0026843D03*
X0389066Y0026843D03*
X0466227Y0144093D03*
X0477977Y0144093D03*
X0489727Y0144093D03*
X0501477Y0144093D03*
X0501477Y0155843D03*
X0489727Y0155843D03*
X0477977Y0155843D03*
X0466227Y0155843D03*
X0466227Y0167593D03*
X0477977Y0167593D03*
X0489727Y0167593D03*
X0501477Y0167593D03*
X0501477Y0179343D03*
X0489727Y0179343D03*
X0477977Y0179343D03*
X0466227Y0179093D03*
X0466477Y0216843D03*
X0477977Y0216843D03*
X0489727Y0216843D03*
X0501477Y0216843D03*
X0501477Y0228593D03*
X0489727Y0228593D03*
X0477977Y0228593D03*
X0466477Y0228593D03*
X0466477Y0240343D03*
X0477977Y0240343D03*
X0489727Y0240343D03*
X0501477Y0240343D03*
X0501477Y0252093D03*
X0489727Y0252093D03*
X0477977Y0252093D03*
X0466477Y0252093D03*
D26*
X0518727Y0118593D03*
X0537727Y0118593D03*
X0553477Y0031843D03*
X0572477Y0031843D03*
D27*
X0593477Y0030941D03*
X0593477Y0043740D03*
D28*
X0573727Y0114102D03*
X0573727Y0121583D03*
X0375727Y0071833D03*
X0375727Y0064352D03*
X0293727Y0315102D03*
X0285977Y0315102D03*
X0285977Y0322583D03*
X0293727Y0322583D03*
X0266977Y0324102D03*
X0259227Y0324102D03*
X0259227Y0331583D03*
X0266977Y0331583D03*
X0258727Y0346602D03*
X0250977Y0346602D03*
X0250977Y0354083D03*
X0258727Y0354083D03*
D29*
X0341347Y0352343D03*
X0341347Y0347343D03*
X0341347Y0338843D03*
X0341347Y0333843D03*
X0362607Y0333843D03*
X0362607Y0338843D03*
X0362607Y0347343D03*
X0362607Y0352343D03*
X0438097Y0113093D03*
X0438097Y0108093D03*
X0459357Y0108093D03*
X0459357Y0113093D03*
D30*
X0598343Y0344843D03*
X0606611Y0344843D03*
X0606611Y0354593D03*
X0598343Y0354593D03*
D31*
X0402977Y0099604D03*
X0402977Y0088581D03*
X0600977Y0092854D03*
X0600977Y0081831D03*
X0600977Y0063854D03*
X0600977Y0052831D03*
D32*
X0404477Y0059053D03*
X0404477Y0079132D03*
D33*
X0474518Y0123093D03*
X0485936Y0123093D03*
D34*
X0556727Y0074843D03*
X0352227Y0089343D03*
D35*
X0360977Y0073211D03*
X0367727Y0073211D03*
X0367727Y0062974D03*
X0360977Y0062974D03*
X0311977Y0307974D03*
X0311977Y0318211D03*
D36*
X0500097Y0094341D03*
X0500097Y0084499D03*
X0500097Y0074656D03*
X0500097Y0064814D03*
X0500097Y0054971D03*
X0500097Y0045129D03*
X0500097Y0035286D03*
X0500097Y0025444D03*
X0421357Y0030365D03*
X0421357Y0040207D03*
X0421357Y0059893D03*
X0421357Y0079578D03*
D37*
X0421357Y0089420D03*
D38*
X0392227Y0088494D03*
X0392227Y0099691D03*
D39*
X0621727Y0244193D03*
X0621727Y0263993D03*
D40*
X0622527Y0220343D03*
X0597927Y0220343D03*
X0597927Y0186843D03*
X0622527Y0186843D03*
D41*
X0182527Y0260343D03*
X0175227Y0260343D03*
X0167927Y0260343D03*
X0167927Y0290343D03*
X0175227Y0290343D03*
X0182527Y0290343D03*
D42*
X0181552Y0270368D02*
X0189502Y0270368D01*
X0181552Y0270368D02*
X0181552Y0280318D01*
X0189502Y0280318D01*
X0189502Y0270368D01*
X0189502Y0273017D02*
X0181552Y0273017D01*
X0181552Y0275666D02*
X0189502Y0275666D01*
X0189502Y0278315D02*
X0181552Y0278315D01*
X0168902Y0270368D02*
X0160952Y0270368D01*
X0160952Y0280318D01*
X0168902Y0280318D01*
X0168902Y0270368D01*
X0168902Y0273017D02*
X0160952Y0273017D01*
X0160952Y0275666D02*
X0168902Y0275666D01*
X0168902Y0278315D02*
X0160952Y0278315D01*
D43*
X0317859Y0326593D03*
X0328095Y0326593D03*
X0332345Y0344093D03*
X0322109Y0344093D03*
X0475359Y0129593D03*
X0485595Y0129593D03*
D44*
X0426910Y0116525D02*
X0426711Y0117182D01*
X0426387Y0117787D01*
X0425952Y0118317D01*
X0425422Y0118753D01*
X0424816Y0119076D01*
X0424160Y0119275D01*
X0423477Y0119343D01*
X0420477Y0119343D01*
X0420477Y0112343D01*
X0423477Y0112343D01*
X0424160Y0112410D01*
X0424816Y0112609D01*
X0425422Y0112932D01*
X0425952Y0113368D01*
X0426387Y0113898D01*
X0426711Y0114503D01*
X0426910Y0115160D01*
X0426977Y0115843D01*
X0426910Y0116525D01*
X0426915Y0116476D02*
X0420477Y0116476D01*
X0420477Y0116378D02*
X0426924Y0116378D01*
X0426934Y0116279D02*
X0420477Y0116279D01*
X0420477Y0116181D02*
X0426944Y0116181D01*
X0426953Y0116082D02*
X0420477Y0116082D01*
X0420477Y0115984D02*
X0426963Y0115984D01*
X0426973Y0115885D02*
X0420477Y0115885D01*
X0420477Y0115787D02*
X0426972Y0115787D01*
X0426962Y0115688D02*
X0420477Y0115688D01*
X0420477Y0115590D02*
X0426952Y0115590D01*
X0426942Y0115491D02*
X0420477Y0115491D01*
X0420477Y0115393D02*
X0426933Y0115393D01*
X0426923Y0115294D02*
X0420477Y0115294D01*
X0420477Y0115196D02*
X0426913Y0115196D01*
X0426891Y0115097D02*
X0420477Y0115097D01*
X0420477Y0114999D02*
X0426861Y0114999D01*
X0426831Y0114900D02*
X0420477Y0114900D01*
X0420477Y0114802D02*
X0426801Y0114802D01*
X0426771Y0114703D02*
X0420477Y0114703D01*
X0420477Y0114605D02*
X0426741Y0114605D01*
X0426712Y0114506D02*
X0420477Y0114506D01*
X0420477Y0114408D02*
X0426660Y0114408D01*
X0426607Y0114309D02*
X0420477Y0114309D01*
X0420477Y0114211D02*
X0426554Y0114211D01*
X0426502Y0114112D02*
X0420477Y0114112D01*
X0420477Y0114014D02*
X0426449Y0114014D01*
X0426396Y0113915D02*
X0420477Y0113915D01*
X0420477Y0113817D02*
X0426320Y0113817D01*
X0426240Y0113718D02*
X0420477Y0113718D01*
X0420477Y0113620D02*
X0426159Y0113620D01*
X0426078Y0113521D02*
X0420477Y0113521D01*
X0420477Y0113423D02*
X0425997Y0113423D01*
X0425899Y0113324D02*
X0420477Y0113324D01*
X0420477Y0113226D02*
X0425779Y0113226D01*
X0425659Y0113127D02*
X0420477Y0113127D01*
X0420477Y0113029D02*
X0425539Y0113029D01*
X0425417Y0112930D02*
X0420477Y0112930D01*
X0420477Y0112832D02*
X0425233Y0112832D01*
X0425048Y0112733D02*
X0420477Y0112733D01*
X0420477Y0112634D02*
X0424864Y0112634D01*
X0424576Y0112536D02*
X0420477Y0112536D01*
X0420477Y0112437D02*
X0424251Y0112437D01*
X0426895Y0116575D02*
X0420477Y0116575D01*
X0420477Y0116673D02*
X0426865Y0116673D01*
X0426835Y0116772D02*
X0420477Y0116772D01*
X0420477Y0116870D02*
X0426805Y0116870D01*
X0426775Y0116969D02*
X0420477Y0116969D01*
X0420477Y0117067D02*
X0426745Y0117067D01*
X0426715Y0117166D02*
X0420477Y0117166D01*
X0420477Y0117265D02*
X0426666Y0117265D01*
X0426614Y0117363D02*
X0420477Y0117363D01*
X0420477Y0117462D02*
X0426561Y0117462D01*
X0426508Y0117560D02*
X0420477Y0117560D01*
X0420477Y0117659D02*
X0426456Y0117659D01*
X0426403Y0117757D02*
X0420477Y0117757D01*
X0420477Y0117856D02*
X0426331Y0117856D01*
X0426250Y0117954D02*
X0420477Y0117954D01*
X0420477Y0118053D02*
X0426169Y0118053D01*
X0426088Y0118151D02*
X0420477Y0118151D01*
X0420477Y0118250D02*
X0426008Y0118250D01*
X0425914Y0118348D02*
X0420477Y0118348D01*
X0420477Y0118447D02*
X0425794Y0118447D01*
X0425674Y0118545D02*
X0420477Y0118545D01*
X0420477Y0118644D02*
X0425554Y0118644D01*
X0425434Y0118742D02*
X0420477Y0118742D01*
X0420477Y0118841D02*
X0425257Y0118841D01*
X0425073Y0118939D02*
X0420477Y0118939D01*
X0420477Y0119038D02*
X0424888Y0119038D01*
X0424618Y0119136D02*
X0420477Y0119136D01*
X0420477Y0119235D02*
X0424293Y0119235D01*
X0423571Y0119333D02*
X0420477Y0119333D01*
X0418477Y0119333D02*
X0415383Y0119333D01*
X0415477Y0119343D02*
X0414794Y0119275D01*
X0414138Y0119076D01*
X0413533Y0118753D01*
X0413002Y0118317D01*
X0412567Y0117787D01*
X0412243Y0117182D01*
X0412044Y0116525D01*
X0411977Y0115843D01*
X0412044Y0115160D01*
X0412243Y0114503D01*
X0412567Y0113898D01*
X0413002Y0113368D01*
X0413533Y0112932D01*
X0414138Y0112609D01*
X0414794Y0112410D01*
X0415477Y0112343D01*
X0418477Y0112343D01*
X0418477Y0119343D01*
X0415477Y0119343D01*
X0414661Y0119235D02*
X0418477Y0119235D01*
X0418477Y0119136D02*
X0414336Y0119136D01*
X0414066Y0119038D02*
X0418477Y0119038D01*
X0418477Y0118939D02*
X0413882Y0118939D01*
X0413697Y0118841D02*
X0418477Y0118841D01*
X0418477Y0118742D02*
X0413520Y0118742D01*
X0413400Y0118644D02*
X0418477Y0118644D01*
X0418477Y0118545D02*
X0413280Y0118545D01*
X0413160Y0118447D02*
X0418477Y0118447D01*
X0418477Y0118348D02*
X0413040Y0118348D01*
X0412947Y0118250D02*
X0418477Y0118250D01*
X0418477Y0118151D02*
X0412866Y0118151D01*
X0412785Y0118053D02*
X0418477Y0118053D01*
X0418477Y0117954D02*
X0412704Y0117954D01*
X0412623Y0117856D02*
X0418477Y0117856D01*
X0418477Y0117757D02*
X0412551Y0117757D01*
X0412498Y0117659D02*
X0418477Y0117659D01*
X0418477Y0117560D02*
X0412446Y0117560D01*
X0412393Y0117462D02*
X0418477Y0117462D01*
X0418477Y0117363D02*
X0412340Y0117363D01*
X0412288Y0117265D02*
X0418477Y0117265D01*
X0418477Y0117166D02*
X0412239Y0117166D01*
X0412209Y0117067D02*
X0418477Y0117067D01*
X0418477Y0116969D02*
X0412179Y0116969D01*
X0412149Y0116870D02*
X0418477Y0116870D01*
X0418477Y0116772D02*
X0412119Y0116772D01*
X0412089Y0116673D02*
X0418477Y0116673D01*
X0418477Y0116575D02*
X0412059Y0116575D01*
X0412039Y0116476D02*
X0418477Y0116476D01*
X0418477Y0116378D02*
X0412030Y0116378D01*
X0412020Y0116279D02*
X0418477Y0116279D01*
X0418477Y0116181D02*
X0412010Y0116181D01*
X0412001Y0116082D02*
X0418477Y0116082D01*
X0418477Y0115984D02*
X0411991Y0115984D01*
X0411981Y0115885D02*
X0418477Y0115885D01*
X0418477Y0115787D02*
X0411983Y0115787D01*
X0411992Y0115688D02*
X0418477Y0115688D01*
X0418477Y0115590D02*
X0412002Y0115590D01*
X0412012Y0115491D02*
X0418477Y0115491D01*
X0418477Y0115393D02*
X0412021Y0115393D01*
X0412031Y0115294D02*
X0418477Y0115294D01*
X0418477Y0115196D02*
X0412041Y0115196D01*
X0412063Y0115097D02*
X0418477Y0115097D01*
X0418477Y0114999D02*
X0412093Y0114999D01*
X0412123Y0114900D02*
X0418477Y0114900D01*
X0418477Y0114802D02*
X0412153Y0114802D01*
X0412183Y0114703D02*
X0418477Y0114703D01*
X0418477Y0114605D02*
X0412213Y0114605D01*
X0412243Y0114506D02*
X0418477Y0114506D01*
X0418477Y0114408D02*
X0412294Y0114408D01*
X0412347Y0114309D02*
X0418477Y0114309D01*
X0418477Y0114211D02*
X0412400Y0114211D01*
X0412452Y0114112D02*
X0418477Y0114112D01*
X0418477Y0114014D02*
X0412505Y0114014D01*
X0412558Y0113915D02*
X0418477Y0113915D01*
X0418477Y0113817D02*
X0412634Y0113817D01*
X0412715Y0113718D02*
X0418477Y0113718D01*
X0418477Y0113620D02*
X0412795Y0113620D01*
X0412876Y0113521D02*
X0418477Y0113521D01*
X0418477Y0113423D02*
X0412957Y0113423D01*
X0413055Y0113324D02*
X0418477Y0113324D01*
X0418477Y0113226D02*
X0413175Y0113226D01*
X0413295Y0113127D02*
X0418477Y0113127D01*
X0418477Y0113029D02*
X0413415Y0113029D01*
X0413537Y0112930D02*
X0418477Y0112930D01*
X0418477Y0112832D02*
X0413721Y0112832D01*
X0413906Y0112733D02*
X0418477Y0112733D01*
X0418477Y0112634D02*
X0414090Y0112634D01*
X0414378Y0112536D02*
X0418477Y0112536D01*
X0418477Y0112437D02*
X0414703Y0112437D01*
X0342387Y0071787D02*
X0342711Y0071182D01*
X0342910Y0070525D01*
X0342977Y0069843D01*
X0342977Y0069093D01*
X0335977Y0069093D01*
X0335977Y0069843D01*
X0336044Y0070525D01*
X0336243Y0071182D01*
X0336567Y0071787D01*
X0337002Y0072317D01*
X0337533Y0072753D01*
X0338138Y0073076D01*
X0338794Y0073275D01*
X0339477Y0073343D01*
X0340160Y0073275D01*
X0340816Y0073076D01*
X0341422Y0072753D01*
X0341952Y0072317D01*
X0342387Y0071787D01*
X0342406Y0071752D02*
X0336548Y0071752D01*
X0336496Y0071654D02*
X0342458Y0071654D01*
X0342511Y0071555D02*
X0336443Y0071555D01*
X0336390Y0071457D02*
X0342564Y0071457D01*
X0342616Y0071358D02*
X0336338Y0071358D01*
X0336285Y0071260D02*
X0342669Y0071260D01*
X0342717Y0071161D02*
X0336237Y0071161D01*
X0336207Y0071063D02*
X0342747Y0071063D01*
X0342777Y0070964D02*
X0336177Y0070964D01*
X0336148Y0070866D02*
X0342807Y0070866D01*
X0342836Y0070767D02*
X0336118Y0070767D01*
X0336088Y0070669D02*
X0342866Y0070669D01*
X0342896Y0070570D02*
X0336058Y0070570D01*
X0336039Y0070472D02*
X0342915Y0070472D01*
X0342925Y0070373D02*
X0336029Y0070373D01*
X0336020Y0070275D02*
X0342934Y0070275D01*
X0342944Y0070176D02*
X0336010Y0070176D01*
X0336000Y0070078D02*
X0342954Y0070078D01*
X0342964Y0069979D02*
X0335990Y0069979D01*
X0335981Y0069881D02*
X0342973Y0069881D01*
X0342977Y0069782D02*
X0335977Y0069782D01*
X0335977Y0069684D02*
X0342977Y0069684D01*
X0342977Y0069585D02*
X0335977Y0069585D01*
X0335977Y0069487D02*
X0342977Y0069487D01*
X0342977Y0069388D02*
X0335977Y0069388D01*
X0335977Y0069290D02*
X0342977Y0069290D01*
X0342977Y0069191D02*
X0335977Y0069191D01*
X0335977Y0069093D02*
X0342977Y0069093D01*
X0342977Y0068343D01*
X0342910Y0067660D01*
X0342711Y0067003D01*
X0342387Y0066398D01*
X0341952Y0065868D01*
X0341422Y0065432D01*
X0340816Y0065109D01*
X0340160Y0064910D01*
X0339477Y0064843D01*
X0338794Y0064910D01*
X0338138Y0065109D01*
X0337533Y0065432D01*
X0337002Y0065868D01*
X0336567Y0066398D01*
X0336243Y0067003D01*
X0336044Y0067660D01*
X0335977Y0068343D01*
X0335977Y0069093D01*
X0335977Y0069092D02*
X0342977Y0069092D01*
X0342977Y0068994D02*
X0335977Y0068994D01*
X0335977Y0068895D02*
X0342977Y0068895D01*
X0342977Y0068797D02*
X0335977Y0068797D01*
X0335977Y0068698D02*
X0342977Y0068698D01*
X0342977Y0068600D02*
X0335977Y0068600D01*
X0335977Y0068501D02*
X0342977Y0068501D01*
X0342977Y0068403D02*
X0335977Y0068403D01*
X0335981Y0068304D02*
X0342973Y0068304D01*
X0342964Y0068206D02*
X0335990Y0068206D01*
X0336000Y0068107D02*
X0342954Y0068107D01*
X0342944Y0068009D02*
X0336010Y0068009D01*
X0336020Y0067910D02*
X0342934Y0067910D01*
X0342925Y0067812D02*
X0336029Y0067812D01*
X0336039Y0067713D02*
X0342915Y0067713D01*
X0342896Y0067615D02*
X0336058Y0067615D01*
X0336088Y0067516D02*
X0342866Y0067516D01*
X0342836Y0067418D02*
X0336118Y0067418D01*
X0336148Y0067319D02*
X0342807Y0067319D01*
X0342777Y0067221D02*
X0336177Y0067221D01*
X0336207Y0067122D02*
X0342747Y0067122D01*
X0342717Y0067024D02*
X0336237Y0067024D01*
X0336285Y0066925D02*
X0342669Y0066925D01*
X0342616Y0066827D02*
X0336338Y0066827D01*
X0336390Y0066728D02*
X0342564Y0066728D01*
X0342511Y0066630D02*
X0336443Y0066630D01*
X0336496Y0066531D02*
X0342458Y0066531D01*
X0342406Y0066433D02*
X0336548Y0066433D01*
X0336619Y0066334D02*
X0342335Y0066334D01*
X0342254Y0066236D02*
X0336700Y0066236D01*
X0336781Y0066137D02*
X0342173Y0066137D01*
X0342092Y0066039D02*
X0336862Y0066039D01*
X0336943Y0065940D02*
X0342011Y0065940D01*
X0341920Y0065842D02*
X0337034Y0065842D01*
X0337154Y0065743D02*
X0341800Y0065743D01*
X0341680Y0065645D02*
X0337274Y0065645D01*
X0337394Y0065546D02*
X0341560Y0065546D01*
X0341440Y0065448D02*
X0337514Y0065448D01*
X0337688Y0065349D02*
X0341266Y0065349D01*
X0341081Y0065251D02*
X0337873Y0065251D01*
X0338057Y0065152D02*
X0340897Y0065152D01*
X0340634Y0065054D02*
X0338320Y0065054D01*
X0338645Y0064955D02*
X0340309Y0064955D01*
X0339619Y0064856D02*
X0339335Y0064856D01*
X0336619Y0071851D02*
X0342335Y0071851D01*
X0342254Y0071949D02*
X0336700Y0071949D01*
X0336781Y0072048D02*
X0342173Y0072048D01*
X0342092Y0072146D02*
X0336862Y0072146D01*
X0336943Y0072245D02*
X0342011Y0072245D01*
X0341920Y0072343D02*
X0337034Y0072343D01*
X0337154Y0072442D02*
X0341800Y0072442D01*
X0341680Y0072540D02*
X0337274Y0072540D01*
X0337394Y0072639D02*
X0341560Y0072639D01*
X0341440Y0072737D02*
X0337514Y0072737D01*
X0337688Y0072836D02*
X0341266Y0072836D01*
X0341081Y0072934D02*
X0337873Y0072934D01*
X0338057Y0073033D02*
X0340897Y0073033D01*
X0340634Y0073131D02*
X0338320Y0073131D01*
X0338645Y0073230D02*
X0340309Y0073230D01*
X0339620Y0073328D02*
X0339334Y0073328D01*
X0595544Y0127410D02*
X0595743Y0126753D01*
X0596067Y0126148D01*
X0596502Y0125618D01*
X0597033Y0125182D01*
X0597638Y0124859D01*
X0598294Y0124660D01*
X0598977Y0124593D01*
X0601977Y0124593D01*
X0601977Y0131593D01*
X0598977Y0131593D01*
X0598294Y0131525D01*
X0597638Y0131326D01*
X0597033Y0131003D01*
X0596502Y0130567D01*
X0596067Y0130037D01*
X0595743Y0129432D01*
X0595544Y0128775D01*
X0595477Y0128093D01*
X0595544Y0127410D01*
X0595544Y0127411D02*
X0601977Y0127411D01*
X0601977Y0127313D02*
X0595574Y0127313D01*
X0595604Y0127214D02*
X0601977Y0127214D01*
X0601977Y0127116D02*
X0595633Y0127116D01*
X0595663Y0127017D02*
X0601977Y0127017D01*
X0601977Y0126919D02*
X0595693Y0126919D01*
X0595723Y0126820D02*
X0601977Y0126820D01*
X0601977Y0126722D02*
X0595760Y0126722D01*
X0595813Y0126623D02*
X0601977Y0126623D01*
X0601977Y0126525D02*
X0595866Y0126525D01*
X0595918Y0126426D02*
X0601977Y0126426D01*
X0601977Y0126328D02*
X0595971Y0126328D01*
X0596024Y0126229D02*
X0601977Y0126229D01*
X0601977Y0126131D02*
X0596081Y0126131D01*
X0596162Y0126032D02*
X0601977Y0126032D01*
X0601977Y0125934D02*
X0596243Y0125934D01*
X0596324Y0125835D02*
X0601977Y0125835D01*
X0601977Y0125736D02*
X0596405Y0125736D01*
X0596485Y0125638D02*
X0601977Y0125638D01*
X0601977Y0125539D02*
X0596597Y0125539D01*
X0596717Y0125441D02*
X0601977Y0125441D01*
X0601977Y0125342D02*
X0596837Y0125342D01*
X0596958Y0125244D02*
X0601977Y0125244D01*
X0601977Y0125145D02*
X0597102Y0125145D01*
X0597286Y0125047D02*
X0601977Y0125047D01*
X0601977Y0124948D02*
X0597470Y0124948D01*
X0597667Y0124850D02*
X0601977Y0124850D01*
X0601977Y0124751D02*
X0597992Y0124751D01*
X0598364Y0124653D02*
X0601977Y0124653D01*
X0603977Y0124653D02*
X0607590Y0124653D01*
X0607660Y0124660D02*
X0608316Y0124859D01*
X0608922Y0125182D01*
X0609452Y0125618D01*
X0609887Y0126148D01*
X0610211Y0126753D01*
X0610410Y0127410D01*
X0610477Y0128093D01*
X0610410Y0128775D01*
X0610211Y0129432D01*
X0609887Y0130037D01*
X0609452Y0130567D01*
X0608922Y0131003D01*
X0608316Y0131326D01*
X0607660Y0131525D01*
X0606977Y0131593D01*
X0603977Y0131593D01*
X0603977Y0124593D01*
X0606977Y0124593D01*
X0607660Y0124660D01*
X0607962Y0124751D02*
X0603977Y0124751D01*
X0603977Y0124850D02*
X0608287Y0124850D01*
X0608484Y0124948D02*
X0603977Y0124948D01*
X0603977Y0125047D02*
X0608668Y0125047D01*
X0608852Y0125145D02*
X0603977Y0125145D01*
X0603977Y0125244D02*
X0608997Y0125244D01*
X0609117Y0125342D02*
X0603977Y0125342D01*
X0603977Y0125441D02*
X0609237Y0125441D01*
X0609357Y0125539D02*
X0603977Y0125539D01*
X0603977Y0125638D02*
X0609469Y0125638D01*
X0609549Y0125736D02*
X0603977Y0125736D01*
X0603977Y0125835D02*
X0609630Y0125835D01*
X0609711Y0125934D02*
X0603977Y0125934D01*
X0603977Y0126032D02*
X0609792Y0126032D01*
X0609873Y0126131D02*
X0603977Y0126131D01*
X0603977Y0126229D02*
X0609930Y0126229D01*
X0609983Y0126328D02*
X0603977Y0126328D01*
X0603977Y0126426D02*
X0610036Y0126426D01*
X0610088Y0126525D02*
X0603977Y0126525D01*
X0603977Y0126623D02*
X0610141Y0126623D01*
X0610194Y0126722D02*
X0603977Y0126722D01*
X0603977Y0126820D02*
X0610231Y0126820D01*
X0610261Y0126919D02*
X0603977Y0126919D01*
X0603977Y0127017D02*
X0610291Y0127017D01*
X0610321Y0127116D02*
X0603977Y0127116D01*
X0603977Y0127214D02*
X0610350Y0127214D01*
X0610380Y0127313D02*
X0603977Y0127313D01*
X0603977Y0127411D02*
X0610410Y0127411D01*
X0610420Y0127510D02*
X0603977Y0127510D01*
X0603977Y0127608D02*
X0610429Y0127608D01*
X0610439Y0127707D02*
X0603977Y0127707D01*
X0603977Y0127805D02*
X0610449Y0127805D01*
X0610458Y0127904D02*
X0603977Y0127904D01*
X0603977Y0128002D02*
X0610468Y0128002D01*
X0610476Y0128101D02*
X0603977Y0128101D01*
X0603977Y0128199D02*
X0610467Y0128199D01*
X0610457Y0128298D02*
X0603977Y0128298D01*
X0603977Y0128396D02*
X0610447Y0128396D01*
X0610437Y0128495D02*
X0603977Y0128495D01*
X0603977Y0128593D02*
X0610428Y0128593D01*
X0610418Y0128692D02*
X0603977Y0128692D01*
X0603977Y0128790D02*
X0610405Y0128790D01*
X0610375Y0128889D02*
X0603977Y0128889D01*
X0603977Y0128987D02*
X0610345Y0128987D01*
X0610316Y0129086D02*
X0603977Y0129086D01*
X0603977Y0129184D02*
X0610286Y0129184D01*
X0610256Y0129283D02*
X0603977Y0129283D01*
X0603977Y0129381D02*
X0610226Y0129381D01*
X0610185Y0129480D02*
X0603977Y0129480D01*
X0603977Y0129578D02*
X0610132Y0129578D01*
X0610080Y0129677D02*
X0603977Y0129677D01*
X0603977Y0129775D02*
X0610027Y0129775D01*
X0609974Y0129874D02*
X0603977Y0129874D01*
X0603977Y0129972D02*
X0609922Y0129972D01*
X0609859Y0130071D02*
X0603977Y0130071D01*
X0603977Y0130170D02*
X0609778Y0130170D01*
X0609698Y0130268D02*
X0603977Y0130268D01*
X0603977Y0130367D02*
X0609617Y0130367D01*
X0609536Y0130465D02*
X0603977Y0130465D01*
X0603977Y0130564D02*
X0609455Y0130564D01*
X0609337Y0130662D02*
X0603977Y0130662D01*
X0603977Y0130761D02*
X0609217Y0130761D01*
X0609096Y0130859D02*
X0603977Y0130859D01*
X0603977Y0130958D02*
X0608976Y0130958D01*
X0608822Y0131056D02*
X0603977Y0131056D01*
X0603977Y0131155D02*
X0608637Y0131155D01*
X0608453Y0131253D02*
X0603977Y0131253D01*
X0603977Y0131352D02*
X0608232Y0131352D01*
X0607907Y0131450D02*
X0603977Y0131450D01*
X0603977Y0131549D02*
X0607422Y0131549D01*
X0601977Y0131549D02*
X0598532Y0131549D01*
X0598047Y0131450D02*
X0601977Y0131450D01*
X0601977Y0131352D02*
X0597722Y0131352D01*
X0597501Y0131253D02*
X0601977Y0131253D01*
X0601977Y0131155D02*
X0597317Y0131155D01*
X0597133Y0131056D02*
X0601977Y0131056D01*
X0601977Y0130958D02*
X0596978Y0130958D01*
X0596858Y0130859D02*
X0601977Y0130859D01*
X0601977Y0130761D02*
X0596738Y0130761D01*
X0596618Y0130662D02*
X0601977Y0130662D01*
X0601977Y0130564D02*
X0596499Y0130564D01*
X0596418Y0130465D02*
X0601977Y0130465D01*
X0601977Y0130367D02*
X0596337Y0130367D01*
X0596256Y0130268D02*
X0601977Y0130268D01*
X0601977Y0130170D02*
X0596176Y0130170D01*
X0596095Y0130071D02*
X0601977Y0130071D01*
X0601977Y0129972D02*
X0596032Y0129972D01*
X0595980Y0129874D02*
X0601977Y0129874D01*
X0601977Y0129775D02*
X0595927Y0129775D01*
X0595874Y0129677D02*
X0601977Y0129677D01*
X0601977Y0129578D02*
X0595822Y0129578D01*
X0595769Y0129480D02*
X0601977Y0129480D01*
X0601977Y0129381D02*
X0595728Y0129381D01*
X0595698Y0129283D02*
X0601977Y0129283D01*
X0601977Y0129184D02*
X0595668Y0129184D01*
X0595638Y0129086D02*
X0601977Y0129086D01*
X0601977Y0128987D02*
X0595609Y0128987D01*
X0595579Y0128889D02*
X0601977Y0128889D01*
X0601977Y0128790D02*
X0595549Y0128790D01*
X0595536Y0128692D02*
X0601977Y0128692D01*
X0601977Y0128593D02*
X0595526Y0128593D01*
X0595517Y0128495D02*
X0601977Y0128495D01*
X0601977Y0128396D02*
X0595507Y0128396D01*
X0595497Y0128298D02*
X0601977Y0128298D01*
X0601977Y0128199D02*
X0595488Y0128199D01*
X0595478Y0128101D02*
X0601977Y0128101D01*
X0601977Y0128002D02*
X0595486Y0128002D01*
X0595496Y0127904D02*
X0601977Y0127904D01*
X0601977Y0127805D02*
X0595505Y0127805D01*
X0595515Y0127707D02*
X0601977Y0127707D01*
X0601977Y0127608D02*
X0595525Y0127608D01*
X0595534Y0127510D02*
X0601977Y0127510D01*
X0567910Y0331910D02*
X0568566Y0332109D01*
X0569172Y0332432D01*
X0569702Y0332868D01*
X0570137Y0333398D01*
X0570461Y0334003D01*
X0570660Y0334660D01*
X0570727Y0335343D01*
X0570660Y0336025D01*
X0570461Y0336682D01*
X0570137Y0337287D01*
X0569702Y0337817D01*
X0569172Y0338253D01*
X0568566Y0338576D01*
X0567910Y0338775D01*
X0567227Y0338843D01*
X0564227Y0338843D01*
X0564227Y0331843D01*
X0567227Y0331843D01*
X0567910Y0331910D01*
X0567946Y0331921D02*
X0564227Y0331921D01*
X0564227Y0332019D02*
X0568271Y0332019D01*
X0568583Y0332118D02*
X0564227Y0332118D01*
X0564227Y0332216D02*
X0568767Y0332216D01*
X0568951Y0332315D02*
X0564227Y0332315D01*
X0564227Y0332413D02*
X0569136Y0332413D01*
X0569268Y0332512D02*
X0564227Y0332512D01*
X0564227Y0332610D02*
X0569388Y0332610D01*
X0569508Y0332709D02*
X0564227Y0332709D01*
X0564227Y0332807D02*
X0569628Y0332807D01*
X0569733Y0332906D02*
X0564227Y0332906D01*
X0564227Y0333004D02*
X0569814Y0333004D01*
X0569895Y0333103D02*
X0564227Y0333103D01*
X0564227Y0333201D02*
X0569976Y0333201D01*
X0570057Y0333300D02*
X0564227Y0333300D01*
X0564227Y0333398D02*
X0570137Y0333398D01*
X0570190Y0333497D02*
X0564227Y0333497D01*
X0564227Y0333595D02*
X0570243Y0333595D01*
X0570295Y0333694D02*
X0564227Y0333694D01*
X0564227Y0333792D02*
X0570348Y0333792D01*
X0570401Y0333891D02*
X0564227Y0333891D01*
X0564227Y0333989D02*
X0570453Y0333989D01*
X0570486Y0334088D02*
X0564227Y0334088D01*
X0564227Y0334186D02*
X0570516Y0334186D01*
X0570546Y0334285D02*
X0564227Y0334285D01*
X0564227Y0334383D02*
X0570576Y0334383D01*
X0570606Y0334482D02*
X0564227Y0334482D01*
X0564227Y0334580D02*
X0570636Y0334580D01*
X0570662Y0334679D02*
X0564227Y0334679D01*
X0564227Y0334778D02*
X0570671Y0334778D01*
X0570681Y0334876D02*
X0564227Y0334876D01*
X0564227Y0334975D02*
X0570691Y0334975D01*
X0570700Y0335073D02*
X0564227Y0335073D01*
X0564227Y0335172D02*
X0570710Y0335172D01*
X0570720Y0335270D02*
X0564227Y0335270D01*
X0564227Y0335369D02*
X0570724Y0335369D01*
X0570715Y0335467D02*
X0564227Y0335467D01*
X0564227Y0335566D02*
X0570705Y0335566D01*
X0570695Y0335664D02*
X0564227Y0335664D01*
X0564227Y0335763D02*
X0570686Y0335763D01*
X0570676Y0335861D02*
X0564227Y0335861D01*
X0564227Y0335960D02*
X0570666Y0335960D01*
X0570650Y0336058D02*
X0564227Y0336058D01*
X0564227Y0336157D02*
X0570620Y0336157D01*
X0570590Y0336255D02*
X0564227Y0336255D01*
X0564227Y0336354D02*
X0570560Y0336354D01*
X0570530Y0336452D02*
X0564227Y0336452D01*
X0564227Y0336551D02*
X0570500Y0336551D01*
X0570471Y0336649D02*
X0564227Y0336649D01*
X0564227Y0336748D02*
X0570425Y0336748D01*
X0570373Y0336846D02*
X0564227Y0336846D01*
X0564227Y0336945D02*
X0570320Y0336945D01*
X0570267Y0337043D02*
X0564227Y0337043D01*
X0564227Y0337142D02*
X0570215Y0337142D01*
X0570162Y0337240D02*
X0564227Y0337240D01*
X0564227Y0337339D02*
X0570095Y0337339D01*
X0570014Y0337437D02*
X0564227Y0337437D01*
X0564227Y0337536D02*
X0569933Y0337536D01*
X0569852Y0337634D02*
X0564227Y0337634D01*
X0564227Y0337733D02*
X0569771Y0337733D01*
X0569685Y0337831D02*
X0564227Y0337831D01*
X0564227Y0337930D02*
X0569565Y0337930D01*
X0569445Y0338028D02*
X0564227Y0338028D01*
X0564227Y0338127D02*
X0569325Y0338127D01*
X0569205Y0338225D02*
X0564227Y0338225D01*
X0564227Y0338324D02*
X0569038Y0338324D01*
X0568854Y0338422D02*
X0564227Y0338422D01*
X0564227Y0338521D02*
X0568670Y0338521D01*
X0568424Y0338619D02*
X0564227Y0338619D01*
X0564227Y0338718D02*
X0568099Y0338718D01*
X0567491Y0338816D02*
X0564227Y0338816D01*
X0562227Y0338816D02*
X0558963Y0338816D01*
X0559227Y0338843D02*
X0558544Y0338775D01*
X0557888Y0338576D01*
X0557283Y0338253D01*
X0556752Y0337817D01*
X0556317Y0337287D01*
X0555993Y0336682D01*
X0555794Y0336025D01*
X0555727Y0335343D01*
X0555794Y0334660D01*
X0555993Y0334003D01*
X0556317Y0333398D01*
X0556752Y0332868D01*
X0557283Y0332432D01*
X0557888Y0332109D01*
X0558544Y0331910D01*
X0559227Y0331843D01*
X0562227Y0331843D01*
X0562227Y0338843D01*
X0559227Y0338843D01*
X0558355Y0338718D02*
X0562227Y0338718D01*
X0562227Y0338619D02*
X0558031Y0338619D01*
X0557784Y0338521D02*
X0562227Y0338521D01*
X0562227Y0338422D02*
X0557600Y0338422D01*
X0557416Y0338324D02*
X0562227Y0338324D01*
X0562227Y0338225D02*
X0557249Y0338225D01*
X0557129Y0338127D02*
X0562227Y0338127D01*
X0562227Y0338028D02*
X0557009Y0338028D01*
X0556889Y0337930D02*
X0562227Y0337930D01*
X0562227Y0337831D02*
X0556769Y0337831D01*
X0556683Y0337733D02*
X0562227Y0337733D01*
X0562227Y0337634D02*
X0556602Y0337634D01*
X0556521Y0337536D02*
X0562227Y0337536D01*
X0562227Y0337437D02*
X0556440Y0337437D01*
X0556359Y0337339D02*
X0562227Y0337339D01*
X0562227Y0337240D02*
X0556292Y0337240D01*
X0556239Y0337142D02*
X0562227Y0337142D01*
X0562227Y0337043D02*
X0556187Y0337043D01*
X0556134Y0336945D02*
X0562227Y0336945D01*
X0562227Y0336846D02*
X0556081Y0336846D01*
X0556029Y0336748D02*
X0562227Y0336748D01*
X0562227Y0336649D02*
X0555984Y0336649D01*
X0555954Y0336551D02*
X0562227Y0336551D01*
X0562227Y0336452D02*
X0555924Y0336452D01*
X0555894Y0336354D02*
X0562227Y0336354D01*
X0562227Y0336255D02*
X0555864Y0336255D01*
X0555834Y0336157D02*
X0562227Y0336157D01*
X0562227Y0336058D02*
X0555804Y0336058D01*
X0555788Y0335960D02*
X0562227Y0335960D01*
X0562227Y0335861D02*
X0555778Y0335861D01*
X0555768Y0335763D02*
X0562227Y0335763D01*
X0562227Y0335664D02*
X0555759Y0335664D01*
X0555749Y0335566D02*
X0562227Y0335566D01*
X0562227Y0335467D02*
X0555739Y0335467D01*
X0555730Y0335369D02*
X0562227Y0335369D01*
X0562227Y0335270D02*
X0555734Y0335270D01*
X0555744Y0335172D02*
X0562227Y0335172D01*
X0562227Y0335073D02*
X0555754Y0335073D01*
X0555763Y0334975D02*
X0562227Y0334975D01*
X0562227Y0334876D02*
X0555773Y0334876D01*
X0555783Y0334778D02*
X0562227Y0334778D01*
X0562227Y0334679D02*
X0555792Y0334679D01*
X0555818Y0334580D02*
X0562227Y0334580D01*
X0562227Y0334482D02*
X0555848Y0334482D01*
X0555878Y0334383D02*
X0562227Y0334383D01*
X0562227Y0334285D02*
X0555908Y0334285D01*
X0555938Y0334186D02*
X0562227Y0334186D01*
X0562227Y0334088D02*
X0555968Y0334088D01*
X0556001Y0333989D02*
X0562227Y0333989D01*
X0562227Y0333891D02*
X0556053Y0333891D01*
X0556106Y0333792D02*
X0562227Y0333792D01*
X0562227Y0333694D02*
X0556159Y0333694D01*
X0556211Y0333595D02*
X0562227Y0333595D01*
X0562227Y0333497D02*
X0556264Y0333497D01*
X0556317Y0333398D02*
X0562227Y0333398D01*
X0562227Y0333300D02*
X0556397Y0333300D01*
X0556478Y0333201D02*
X0562227Y0333201D01*
X0562227Y0333103D02*
X0556559Y0333103D01*
X0556640Y0333004D02*
X0562227Y0333004D01*
X0562227Y0332906D02*
X0556721Y0332906D01*
X0556826Y0332807D02*
X0562227Y0332807D01*
X0562227Y0332709D02*
X0556946Y0332709D01*
X0557066Y0332610D02*
X0562227Y0332610D01*
X0562227Y0332512D02*
X0557186Y0332512D01*
X0557318Y0332413D02*
X0562227Y0332413D01*
X0562227Y0332315D02*
X0557503Y0332315D01*
X0557687Y0332216D02*
X0562227Y0332216D01*
X0562227Y0332118D02*
X0557871Y0332118D01*
X0558183Y0332019D02*
X0562227Y0332019D01*
X0562227Y0331921D02*
X0558508Y0331921D01*
X0334977Y0334093D02*
X0334910Y0334775D01*
X0334711Y0335432D01*
X0334387Y0336037D01*
X0333952Y0336567D01*
X0333422Y0337003D01*
X0332816Y0337326D01*
X0332160Y0337525D01*
X0331477Y0337593D01*
X0330727Y0337593D01*
X0330727Y0330593D01*
X0331477Y0330593D01*
X0332160Y0330660D01*
X0332816Y0330859D01*
X0333422Y0331182D01*
X0333952Y0331618D01*
X0334387Y0332148D01*
X0334711Y0332753D01*
X0334910Y0333410D01*
X0334977Y0334093D01*
X0334977Y0334088D02*
X0330727Y0334088D01*
X0326477Y0334088D01*
X0326477Y0334093D02*
X0326544Y0333410D01*
X0326743Y0332753D01*
X0327067Y0332148D01*
X0327502Y0331618D01*
X0328033Y0331182D01*
X0328638Y0330859D01*
X0329294Y0330660D01*
X0329977Y0330593D01*
X0330727Y0330593D01*
X0330727Y0337593D01*
X0329977Y0337593D01*
X0329294Y0337525D01*
X0328638Y0337326D01*
X0328033Y0337003D01*
X0327502Y0336567D01*
X0327067Y0336037D01*
X0326743Y0335432D01*
X0326544Y0334775D01*
X0326477Y0334093D01*
X0326486Y0334186D02*
X0330727Y0334186D01*
X0334968Y0334186D01*
X0334958Y0334285D02*
X0330727Y0334285D01*
X0326496Y0334285D01*
X0326506Y0334383D02*
X0330727Y0334383D01*
X0334948Y0334383D01*
X0334939Y0334482D02*
X0330727Y0334482D01*
X0326515Y0334482D01*
X0326525Y0334580D02*
X0330727Y0334580D01*
X0334929Y0334580D01*
X0334919Y0334679D02*
X0330727Y0334679D01*
X0326535Y0334679D01*
X0326545Y0334778D02*
X0330727Y0334778D01*
X0334909Y0334778D01*
X0334879Y0334876D02*
X0330727Y0334876D01*
X0326575Y0334876D01*
X0326605Y0334975D02*
X0330727Y0334975D01*
X0334849Y0334975D01*
X0334819Y0335073D02*
X0330727Y0335073D01*
X0326635Y0335073D01*
X0326664Y0335172D02*
X0330727Y0335172D01*
X0334790Y0335172D01*
X0334760Y0335270D02*
X0330727Y0335270D01*
X0326694Y0335270D01*
X0326724Y0335369D02*
X0330727Y0335369D01*
X0334730Y0335369D01*
X0334692Y0335467D02*
X0330727Y0335467D01*
X0326762Y0335467D01*
X0326815Y0335566D02*
X0330727Y0335566D01*
X0334639Y0335566D01*
X0334587Y0335664D02*
X0330727Y0335664D01*
X0326868Y0335664D01*
X0326920Y0335763D02*
X0330727Y0335763D01*
X0334534Y0335763D01*
X0334481Y0335861D02*
X0330727Y0335861D01*
X0326973Y0335861D01*
X0327026Y0335960D02*
X0330727Y0335960D01*
X0334429Y0335960D01*
X0334370Y0336058D02*
X0330727Y0336058D01*
X0327084Y0336058D01*
X0327165Y0336157D02*
X0330727Y0336157D01*
X0334289Y0336157D01*
X0334208Y0336255D02*
X0330727Y0336255D01*
X0327246Y0336255D01*
X0327327Y0336354D02*
X0330727Y0336354D01*
X0334127Y0336354D01*
X0334046Y0336452D02*
X0330727Y0336452D01*
X0327408Y0336452D01*
X0327488Y0336551D02*
X0330727Y0336551D01*
X0333966Y0336551D01*
X0333852Y0336649D02*
X0330727Y0336649D01*
X0327602Y0336649D01*
X0327722Y0336748D02*
X0330727Y0336748D01*
X0333732Y0336748D01*
X0333612Y0336846D02*
X0330727Y0336846D01*
X0327842Y0336846D01*
X0327962Y0336945D02*
X0330727Y0336945D01*
X0333492Y0336945D01*
X0333346Y0337043D02*
X0330727Y0337043D01*
X0328109Y0337043D01*
X0328293Y0337142D02*
X0330727Y0337142D01*
X0333161Y0337142D01*
X0332977Y0337240D02*
X0330727Y0337240D01*
X0328477Y0337240D01*
X0328680Y0337339D02*
X0330727Y0337339D01*
X0332775Y0337339D01*
X0332450Y0337437D02*
X0330727Y0337437D01*
X0329004Y0337437D01*
X0329401Y0337536D02*
X0330727Y0337536D01*
X0332053Y0337536D01*
X0330727Y0333989D02*
X0326487Y0333989D01*
X0326497Y0333891D02*
X0330727Y0333891D01*
X0334957Y0333891D01*
X0334967Y0333989D02*
X0330727Y0333989D01*
X0330727Y0333792D02*
X0334947Y0333792D01*
X0334938Y0333694D02*
X0330727Y0333694D01*
X0326516Y0333694D01*
X0326507Y0333792D02*
X0330727Y0333792D01*
X0330727Y0333595D02*
X0334928Y0333595D01*
X0334918Y0333497D02*
X0330727Y0333497D01*
X0326536Y0333497D01*
X0326526Y0333595D02*
X0330727Y0333595D01*
X0330727Y0333398D02*
X0334906Y0333398D01*
X0334876Y0333300D02*
X0330727Y0333300D01*
X0326578Y0333300D01*
X0326548Y0333398D02*
X0330727Y0333398D01*
X0330727Y0333201D02*
X0326607Y0333201D01*
X0326637Y0333103D02*
X0330727Y0333103D01*
X0334817Y0333103D01*
X0334847Y0333201D02*
X0330727Y0333201D01*
X0330727Y0333004D02*
X0334787Y0333004D01*
X0334757Y0332906D02*
X0330727Y0332906D01*
X0326697Y0332906D01*
X0326667Y0333004D02*
X0330727Y0333004D01*
X0330727Y0332807D02*
X0334727Y0332807D01*
X0334687Y0332709D02*
X0330727Y0332709D01*
X0326767Y0332709D01*
X0326727Y0332807D02*
X0330727Y0332807D01*
X0330727Y0332610D02*
X0334634Y0332610D01*
X0334582Y0332512D02*
X0330727Y0332512D01*
X0326872Y0332512D01*
X0326820Y0332610D02*
X0330727Y0332610D01*
X0330727Y0332413D02*
X0334529Y0332413D01*
X0334476Y0332315D02*
X0330727Y0332315D01*
X0326978Y0332315D01*
X0326925Y0332413D02*
X0330727Y0332413D01*
X0330727Y0332216D02*
X0334424Y0332216D01*
X0334362Y0332118D02*
X0330727Y0332118D01*
X0327092Y0332118D01*
X0327030Y0332216D02*
X0330727Y0332216D01*
X0330727Y0332019D02*
X0334281Y0332019D01*
X0334201Y0331921D02*
X0330727Y0331921D01*
X0327253Y0331921D01*
X0327173Y0332019D02*
X0330727Y0332019D01*
X0330727Y0331822D02*
X0334120Y0331822D01*
X0334039Y0331724D02*
X0330727Y0331724D01*
X0327415Y0331724D01*
X0327334Y0331822D02*
X0330727Y0331822D01*
X0330727Y0331625D02*
X0333958Y0331625D01*
X0333841Y0331527D02*
X0330727Y0331527D01*
X0327613Y0331527D01*
X0327496Y0331625D02*
X0330727Y0331625D01*
X0330727Y0331428D02*
X0333721Y0331428D01*
X0333601Y0331330D02*
X0330727Y0331330D01*
X0327853Y0331330D01*
X0327733Y0331428D02*
X0330727Y0331428D01*
X0330727Y0331231D02*
X0333481Y0331231D01*
X0333328Y0331133D02*
X0330727Y0331133D01*
X0328126Y0331133D01*
X0327973Y0331231D02*
X0330727Y0331231D01*
X0330727Y0331034D02*
X0333144Y0331034D01*
X0332960Y0330936D02*
X0330727Y0330936D01*
X0328494Y0330936D01*
X0328310Y0331034D02*
X0330727Y0331034D01*
X0330727Y0330837D02*
X0332744Y0330837D01*
X0332420Y0330739D02*
X0330727Y0330739D01*
X0329035Y0330739D01*
X0328710Y0330837D02*
X0330727Y0330837D01*
X0330727Y0330640D02*
X0331959Y0330640D01*
X0330727Y0330640D02*
X0329495Y0330640D01*
D45*
X0338727Y0051843D03*
X0338727Y0032843D03*
X0366727Y0032843D03*
X0366727Y0051843D03*
D46*
X0620727Y0049593D02*
X0626727Y0049593D01*
X0626727Y0059593D02*
X0620727Y0059593D01*
X0620727Y0069593D02*
X0626727Y0069593D01*
X0626727Y0079593D02*
X0620727Y0079593D01*
X0620727Y0089593D02*
X0626727Y0089593D01*
X0626727Y0099593D02*
X0620727Y0099593D01*
X0620727Y0109593D02*
X0626727Y0109593D01*
X0626727Y0119593D02*
X0620727Y0119593D01*
X0141152Y0207567D02*
X0135152Y0207567D01*
X0135152Y0227567D02*
X0141152Y0227567D01*
D47*
X0602406Y0164593D03*
X0618548Y0164593D03*
D48*
X0267227Y0346246D03*
X0267227Y0352939D03*
D49*
X0318487Y0317423D03*
X0325967Y0317423D03*
X0322227Y0308762D03*
D50*
X0245727Y0325640D03*
X0245727Y0331545D03*
D51*
X0273997Y0332213D03*
X0278997Y0332213D03*
X0283997Y0332213D03*
X0288997Y0332213D03*
X0288997Y0353472D03*
X0283997Y0353472D03*
X0278997Y0353472D03*
X0273997Y0353472D03*
D52*
X0547977Y0353243D02*
X0547977Y0348443D01*
X0557977Y0348443D02*
X0557977Y0353243D01*
X0567977Y0353243D02*
X0567977Y0348443D01*
D53*
X0298467Y0231693D02*
X0289168Y0231693D01*
X0289168Y0209693D02*
X0298467Y0209693D01*
X0298467Y0187693D02*
X0289168Y0187693D01*
X0289168Y0137205D02*
X0298467Y0137205D01*
X0298467Y0115205D02*
X0289168Y0115205D01*
X0289168Y0093205D02*
X0298467Y0093205D01*
X0144302Y0132575D02*
X0135003Y0132575D01*
X0135003Y0154575D02*
X0144302Y0154575D01*
X0144302Y0176575D02*
X0135003Y0176575D01*
X0135003Y0254622D02*
X0144302Y0254622D01*
X0144302Y0276622D02*
X0135003Y0276622D01*
X0135003Y0298622D02*
X0144302Y0298622D01*
D54*
X0199169Y0215958D02*
X0251785Y0215958D01*
X0199169Y0215958D02*
X0199169Y0225266D01*
X0251785Y0225266D01*
X0251785Y0215958D01*
X0251785Y0219060D02*
X0199169Y0219060D01*
X0199169Y0222162D02*
X0251785Y0222162D01*
X0251785Y0225264D02*
X0199169Y0225264D01*
X0199169Y0130919D02*
X0251785Y0130919D01*
X0199169Y0130919D02*
X0199169Y0140227D01*
X0251785Y0140227D01*
X0251785Y0130919D01*
X0251785Y0134021D02*
X0199169Y0134021D01*
X0199169Y0137123D02*
X0251785Y0137123D01*
X0251785Y0140225D02*
X0199169Y0140225D01*
X0199169Y0121516D02*
X0251785Y0121516D01*
X0251785Y0112208D01*
X0199169Y0112208D01*
X0199169Y0121516D01*
X0199169Y0115310D02*
X0251785Y0115310D01*
X0251785Y0118412D02*
X0199169Y0118412D01*
X0199169Y0121514D02*
X0251785Y0121514D01*
X0251785Y0036477D02*
X0199169Y0036477D01*
X0251785Y0036477D02*
X0251785Y0027169D01*
X0199169Y0027169D01*
X0199169Y0036477D01*
X0199169Y0030271D02*
X0251785Y0030271D01*
X0251785Y0033373D02*
X0199169Y0033373D01*
X0199169Y0036475D02*
X0251785Y0036475D01*
D55*
X0452064Y0178173D03*
X0452064Y0191953D03*
X0452064Y0205732D03*
X0452064Y0219512D03*
X0337890Y0212622D03*
X0337890Y0185063D03*
D56*
X0391977Y0347343D03*
X0400477Y0351343D03*
X0391977Y0355343D03*
D57*
X0222914Y0358593D03*
X0215040Y0358593D03*
D58*
X0043507Y0026622D03*
D59*
X0043507Y0353394D03*
X0626184Y0353394D03*
X0626184Y0026622D03*
D60*
X0252227Y0072343D03*
X0252227Y0076093D03*
X0252227Y0079843D03*
X0248477Y0079843D03*
X0244727Y0079843D03*
X0244727Y0076093D03*
X0248477Y0076093D03*
X0248477Y0072343D03*
X0244727Y0072343D03*
X0229227Y0122593D03*
X0229227Y0126343D03*
X0229227Y0130093D03*
X0225477Y0130093D03*
X0221727Y0130093D03*
X0221727Y0126343D03*
X0225477Y0126343D03*
X0225477Y0122593D03*
X0221727Y0122593D03*
M02*
