G75*
%MOIN*%
%OFA0B0*%
%FSLAX25Y25*%
%IPPOS*%
%LPD*%
%AMOC8*
5,1,8,0,0,1.08239X$1,22.5*
%
%ADD10C,0.00394*%
%ADD11C,0.00400*%
%ADD12C,0.00000*%
D10*
X0029727Y0018748D02*
X0029727Y0361268D01*
X0029729Y0361420D01*
X0029735Y0361572D01*
X0029745Y0361724D01*
X0029758Y0361875D01*
X0029776Y0362026D01*
X0029797Y0362177D01*
X0029823Y0362327D01*
X0029852Y0362476D01*
X0029885Y0362625D01*
X0029922Y0362772D01*
X0029962Y0362919D01*
X0030007Y0363064D01*
X0030055Y0363208D01*
X0030107Y0363351D01*
X0030162Y0363493D01*
X0030221Y0363633D01*
X0030284Y0363772D01*
X0030350Y0363909D01*
X0030420Y0364044D01*
X0030493Y0364177D01*
X0030570Y0364308D01*
X0030650Y0364438D01*
X0030733Y0364565D01*
X0030819Y0364690D01*
X0030909Y0364813D01*
X0031002Y0364933D01*
X0031098Y0365051D01*
X0031197Y0365167D01*
X0031299Y0365280D01*
X0031403Y0365390D01*
X0031511Y0365498D01*
X0031621Y0365602D01*
X0031734Y0365704D01*
X0031850Y0365803D01*
X0031968Y0365899D01*
X0032088Y0365992D01*
X0032211Y0366082D01*
X0032336Y0366168D01*
X0032463Y0366251D01*
X0032593Y0366331D01*
X0032724Y0366408D01*
X0032857Y0366481D01*
X0032992Y0366551D01*
X0033129Y0366617D01*
X0033268Y0366680D01*
X0033408Y0366739D01*
X0033550Y0366794D01*
X0033693Y0366846D01*
X0033837Y0366894D01*
X0033982Y0366939D01*
X0034129Y0366979D01*
X0034276Y0367016D01*
X0034425Y0367049D01*
X0034574Y0367078D01*
X0034724Y0367104D01*
X0034875Y0367125D01*
X0035026Y0367143D01*
X0035177Y0367156D01*
X0035329Y0367166D01*
X0035481Y0367172D01*
X0035633Y0367174D01*
X0035633Y0367173D02*
X0349977Y0367173D01*
X0353977Y0367173D02*
X0634058Y0367173D01*
X0634058Y0367174D02*
X0634210Y0367172D01*
X0634362Y0367166D01*
X0634514Y0367156D01*
X0634665Y0367143D01*
X0634816Y0367125D01*
X0634967Y0367104D01*
X0635117Y0367078D01*
X0635266Y0367049D01*
X0635415Y0367016D01*
X0635562Y0366979D01*
X0635709Y0366939D01*
X0635854Y0366894D01*
X0635998Y0366846D01*
X0636141Y0366794D01*
X0636283Y0366739D01*
X0636423Y0366680D01*
X0636562Y0366617D01*
X0636699Y0366551D01*
X0636834Y0366481D01*
X0636967Y0366408D01*
X0637098Y0366331D01*
X0637228Y0366251D01*
X0637355Y0366168D01*
X0637480Y0366082D01*
X0637603Y0365992D01*
X0637723Y0365899D01*
X0637841Y0365803D01*
X0637957Y0365704D01*
X0638070Y0365602D01*
X0638180Y0365498D01*
X0638288Y0365390D01*
X0638392Y0365280D01*
X0638494Y0365167D01*
X0638593Y0365051D01*
X0638689Y0364933D01*
X0638782Y0364813D01*
X0638872Y0364690D01*
X0638958Y0364565D01*
X0639041Y0364438D01*
X0639121Y0364308D01*
X0639198Y0364177D01*
X0639271Y0364044D01*
X0639341Y0363909D01*
X0639407Y0363772D01*
X0639470Y0363633D01*
X0639529Y0363493D01*
X0639584Y0363351D01*
X0639636Y0363208D01*
X0639684Y0363064D01*
X0639729Y0362919D01*
X0639769Y0362772D01*
X0639806Y0362625D01*
X0639839Y0362476D01*
X0639868Y0362327D01*
X0639894Y0362177D01*
X0639915Y0362026D01*
X0639933Y0361875D01*
X0639946Y0361724D01*
X0639956Y0361572D01*
X0639962Y0361420D01*
X0639964Y0361268D01*
X0639963Y0361268D02*
X0639963Y0018748D01*
X0639964Y0018748D02*
X0639962Y0018596D01*
X0639956Y0018444D01*
X0639946Y0018292D01*
X0639933Y0018141D01*
X0639915Y0017990D01*
X0639894Y0017839D01*
X0639868Y0017689D01*
X0639839Y0017540D01*
X0639806Y0017391D01*
X0639769Y0017244D01*
X0639729Y0017097D01*
X0639684Y0016952D01*
X0639636Y0016808D01*
X0639584Y0016665D01*
X0639529Y0016523D01*
X0639470Y0016383D01*
X0639407Y0016244D01*
X0639341Y0016107D01*
X0639271Y0015972D01*
X0639198Y0015839D01*
X0639121Y0015708D01*
X0639041Y0015578D01*
X0638958Y0015451D01*
X0638872Y0015326D01*
X0638782Y0015203D01*
X0638689Y0015083D01*
X0638593Y0014965D01*
X0638494Y0014849D01*
X0638392Y0014736D01*
X0638288Y0014626D01*
X0638180Y0014518D01*
X0638070Y0014414D01*
X0637957Y0014312D01*
X0637841Y0014213D01*
X0637723Y0014117D01*
X0637603Y0014024D01*
X0637480Y0013934D01*
X0637355Y0013848D01*
X0637228Y0013765D01*
X0637098Y0013685D01*
X0636967Y0013608D01*
X0636834Y0013535D01*
X0636699Y0013465D01*
X0636562Y0013399D01*
X0636423Y0013336D01*
X0636283Y0013277D01*
X0636141Y0013222D01*
X0635998Y0013170D01*
X0635854Y0013122D01*
X0635709Y0013077D01*
X0635562Y0013037D01*
X0635415Y0013000D01*
X0635266Y0012967D01*
X0635117Y0012938D01*
X0634967Y0012912D01*
X0634816Y0012891D01*
X0634665Y0012873D01*
X0634514Y0012860D01*
X0634362Y0012850D01*
X0634210Y0012844D01*
X0634058Y0012842D01*
X0634058Y0012843D02*
X0035633Y0012843D01*
X0035633Y0012842D02*
X0035481Y0012844D01*
X0035329Y0012850D01*
X0035177Y0012860D01*
X0035026Y0012873D01*
X0034875Y0012891D01*
X0034724Y0012912D01*
X0034574Y0012938D01*
X0034425Y0012967D01*
X0034276Y0013000D01*
X0034129Y0013037D01*
X0033982Y0013077D01*
X0033837Y0013122D01*
X0033693Y0013170D01*
X0033550Y0013222D01*
X0033408Y0013277D01*
X0033268Y0013336D01*
X0033129Y0013399D01*
X0032992Y0013465D01*
X0032857Y0013535D01*
X0032724Y0013608D01*
X0032593Y0013685D01*
X0032463Y0013765D01*
X0032336Y0013848D01*
X0032211Y0013934D01*
X0032088Y0014024D01*
X0031968Y0014117D01*
X0031850Y0014213D01*
X0031734Y0014312D01*
X0031621Y0014414D01*
X0031511Y0014518D01*
X0031403Y0014626D01*
X0031299Y0014736D01*
X0031197Y0014849D01*
X0031098Y0014965D01*
X0031002Y0015083D01*
X0030909Y0015203D01*
X0030819Y0015326D01*
X0030733Y0015451D01*
X0030650Y0015578D01*
X0030570Y0015708D01*
X0030493Y0015839D01*
X0030420Y0015972D01*
X0030350Y0016107D01*
X0030284Y0016244D01*
X0030221Y0016383D01*
X0030162Y0016523D01*
X0030107Y0016665D01*
X0030055Y0016808D01*
X0030007Y0016952D01*
X0029962Y0017097D01*
X0029922Y0017244D01*
X0029885Y0017391D01*
X0029852Y0017540D01*
X0029823Y0017689D01*
X0029797Y0017839D01*
X0029776Y0017990D01*
X0029758Y0018141D01*
X0029745Y0018292D01*
X0029735Y0018444D01*
X0029729Y0018596D01*
X0029727Y0018748D01*
X0057897Y0054411D02*
X0057897Y0058348D01*
X0073645Y0058348D01*
X0073645Y0054411D01*
X0057897Y0054411D01*
X0057897Y0070947D02*
X0057897Y0074884D01*
X0073645Y0074884D01*
X0073645Y0070947D01*
X0057897Y0070947D01*
X0047837Y0216051D02*
X0032089Y0216051D01*
X0032089Y0219988D01*
X0047837Y0219988D01*
X0047837Y0216051D01*
X0047837Y0236051D02*
X0032089Y0236051D01*
X0032089Y0239988D01*
X0047837Y0239988D01*
X0047837Y0236051D01*
X0047837Y0256051D02*
X0032089Y0256051D01*
X0032089Y0259988D01*
X0047837Y0259988D01*
X0047837Y0256051D01*
D11*
X0349977Y0321843D02*
X0353977Y0321843D01*
X0353977Y0367173D01*
X0349977Y0367173D02*
X0349977Y0321843D01*
X0392977Y0262343D02*
X0396977Y0262343D01*
X0396977Y0135343D01*
X0392977Y0135343D01*
X0392977Y0262343D01*
X0446977Y0130093D02*
X0450977Y0130093D01*
X0450977Y0096093D01*
X0446977Y0096093D01*
X0446977Y0130093D01*
X0397227Y0080711D02*
X0393227Y0080711D01*
X0393227Y0051343D01*
X0396977Y0047593D01*
X0428845Y0047593D01*
X0428845Y0051593D01*
X0398477Y0051593D01*
X0397227Y0052843D01*
X0397227Y0080711D01*
D12*
X0075022Y0081183D02*
X0075024Y0081336D01*
X0075030Y0081490D01*
X0075040Y0081643D01*
X0075054Y0081795D01*
X0075072Y0081948D01*
X0075094Y0082099D01*
X0075119Y0082250D01*
X0075149Y0082401D01*
X0075183Y0082551D01*
X0075220Y0082699D01*
X0075261Y0082847D01*
X0075306Y0082993D01*
X0075355Y0083139D01*
X0075408Y0083283D01*
X0075464Y0083425D01*
X0075524Y0083566D01*
X0075588Y0083706D01*
X0075655Y0083844D01*
X0075726Y0083980D01*
X0075801Y0084114D01*
X0075878Y0084246D01*
X0075960Y0084376D01*
X0076044Y0084504D01*
X0076132Y0084630D01*
X0076223Y0084753D01*
X0076317Y0084874D01*
X0076415Y0084992D01*
X0076515Y0085108D01*
X0076619Y0085221D01*
X0076725Y0085332D01*
X0076834Y0085440D01*
X0076946Y0085545D01*
X0077060Y0085646D01*
X0077178Y0085745D01*
X0077297Y0085841D01*
X0077419Y0085934D01*
X0077544Y0086023D01*
X0077671Y0086110D01*
X0077800Y0086192D01*
X0077931Y0086272D01*
X0078064Y0086348D01*
X0078199Y0086421D01*
X0078336Y0086490D01*
X0078475Y0086555D01*
X0078615Y0086617D01*
X0078757Y0086675D01*
X0078900Y0086730D01*
X0079045Y0086781D01*
X0079191Y0086828D01*
X0079338Y0086871D01*
X0079486Y0086910D01*
X0079635Y0086946D01*
X0079785Y0086977D01*
X0079936Y0087005D01*
X0080087Y0087029D01*
X0080240Y0087049D01*
X0080392Y0087065D01*
X0080545Y0087077D01*
X0080698Y0087085D01*
X0080851Y0087089D01*
X0081005Y0087089D01*
X0081158Y0087085D01*
X0081311Y0087077D01*
X0081464Y0087065D01*
X0081616Y0087049D01*
X0081769Y0087029D01*
X0081920Y0087005D01*
X0082071Y0086977D01*
X0082221Y0086946D01*
X0082370Y0086910D01*
X0082518Y0086871D01*
X0082665Y0086828D01*
X0082811Y0086781D01*
X0082956Y0086730D01*
X0083099Y0086675D01*
X0083241Y0086617D01*
X0083381Y0086555D01*
X0083520Y0086490D01*
X0083657Y0086421D01*
X0083792Y0086348D01*
X0083925Y0086272D01*
X0084056Y0086192D01*
X0084185Y0086110D01*
X0084312Y0086023D01*
X0084437Y0085934D01*
X0084559Y0085841D01*
X0084678Y0085745D01*
X0084796Y0085646D01*
X0084910Y0085545D01*
X0085022Y0085440D01*
X0085131Y0085332D01*
X0085237Y0085221D01*
X0085341Y0085108D01*
X0085441Y0084992D01*
X0085539Y0084874D01*
X0085633Y0084753D01*
X0085724Y0084630D01*
X0085812Y0084504D01*
X0085896Y0084376D01*
X0085978Y0084246D01*
X0086055Y0084114D01*
X0086130Y0083980D01*
X0086201Y0083844D01*
X0086268Y0083706D01*
X0086332Y0083566D01*
X0086392Y0083425D01*
X0086448Y0083283D01*
X0086501Y0083139D01*
X0086550Y0082993D01*
X0086595Y0082847D01*
X0086636Y0082699D01*
X0086673Y0082551D01*
X0086707Y0082401D01*
X0086737Y0082250D01*
X0086762Y0082099D01*
X0086784Y0081948D01*
X0086802Y0081795D01*
X0086816Y0081643D01*
X0086826Y0081490D01*
X0086832Y0081336D01*
X0086834Y0081183D01*
X0086832Y0081030D01*
X0086826Y0080876D01*
X0086816Y0080723D01*
X0086802Y0080571D01*
X0086784Y0080418D01*
X0086762Y0080267D01*
X0086737Y0080116D01*
X0086707Y0079965D01*
X0086673Y0079815D01*
X0086636Y0079667D01*
X0086595Y0079519D01*
X0086550Y0079373D01*
X0086501Y0079227D01*
X0086448Y0079083D01*
X0086392Y0078941D01*
X0086332Y0078800D01*
X0086268Y0078660D01*
X0086201Y0078522D01*
X0086130Y0078386D01*
X0086055Y0078252D01*
X0085978Y0078120D01*
X0085896Y0077990D01*
X0085812Y0077862D01*
X0085724Y0077736D01*
X0085633Y0077613D01*
X0085539Y0077492D01*
X0085441Y0077374D01*
X0085341Y0077258D01*
X0085237Y0077145D01*
X0085131Y0077034D01*
X0085022Y0076926D01*
X0084910Y0076821D01*
X0084796Y0076720D01*
X0084678Y0076621D01*
X0084559Y0076525D01*
X0084437Y0076432D01*
X0084312Y0076343D01*
X0084185Y0076256D01*
X0084056Y0076174D01*
X0083925Y0076094D01*
X0083792Y0076018D01*
X0083657Y0075945D01*
X0083520Y0075876D01*
X0083381Y0075811D01*
X0083241Y0075749D01*
X0083099Y0075691D01*
X0082956Y0075636D01*
X0082811Y0075585D01*
X0082665Y0075538D01*
X0082518Y0075495D01*
X0082370Y0075456D01*
X0082221Y0075420D01*
X0082071Y0075389D01*
X0081920Y0075361D01*
X0081769Y0075337D01*
X0081616Y0075317D01*
X0081464Y0075301D01*
X0081311Y0075289D01*
X0081158Y0075281D01*
X0081005Y0075277D01*
X0080851Y0075277D01*
X0080698Y0075281D01*
X0080545Y0075289D01*
X0080392Y0075301D01*
X0080240Y0075317D01*
X0080087Y0075337D01*
X0079936Y0075361D01*
X0079785Y0075389D01*
X0079635Y0075420D01*
X0079486Y0075456D01*
X0079338Y0075495D01*
X0079191Y0075538D01*
X0079045Y0075585D01*
X0078900Y0075636D01*
X0078757Y0075691D01*
X0078615Y0075749D01*
X0078475Y0075811D01*
X0078336Y0075876D01*
X0078199Y0075945D01*
X0078064Y0076018D01*
X0077931Y0076094D01*
X0077800Y0076174D01*
X0077671Y0076256D01*
X0077544Y0076343D01*
X0077419Y0076432D01*
X0077297Y0076525D01*
X0077178Y0076621D01*
X0077060Y0076720D01*
X0076946Y0076821D01*
X0076834Y0076926D01*
X0076725Y0077034D01*
X0076619Y0077145D01*
X0076515Y0077258D01*
X0076415Y0077374D01*
X0076317Y0077492D01*
X0076223Y0077613D01*
X0076132Y0077736D01*
X0076044Y0077862D01*
X0075960Y0077990D01*
X0075878Y0078120D01*
X0075801Y0078252D01*
X0075726Y0078386D01*
X0075655Y0078522D01*
X0075588Y0078660D01*
X0075524Y0078800D01*
X0075464Y0078941D01*
X0075408Y0079083D01*
X0075355Y0079227D01*
X0075306Y0079373D01*
X0075261Y0079519D01*
X0075220Y0079667D01*
X0075183Y0079815D01*
X0075149Y0079965D01*
X0075119Y0080116D01*
X0075094Y0080267D01*
X0075072Y0080418D01*
X0075054Y0080571D01*
X0075040Y0080723D01*
X0075030Y0080876D01*
X0075024Y0081030D01*
X0075022Y0081183D01*
X0038014Y0056380D02*
X0038016Y0056533D01*
X0038022Y0056687D01*
X0038032Y0056840D01*
X0038046Y0056992D01*
X0038064Y0057145D01*
X0038086Y0057296D01*
X0038111Y0057447D01*
X0038141Y0057598D01*
X0038175Y0057748D01*
X0038212Y0057896D01*
X0038253Y0058044D01*
X0038298Y0058190D01*
X0038347Y0058336D01*
X0038400Y0058480D01*
X0038456Y0058622D01*
X0038516Y0058763D01*
X0038580Y0058903D01*
X0038647Y0059041D01*
X0038718Y0059177D01*
X0038793Y0059311D01*
X0038870Y0059443D01*
X0038952Y0059573D01*
X0039036Y0059701D01*
X0039124Y0059827D01*
X0039215Y0059950D01*
X0039309Y0060071D01*
X0039407Y0060189D01*
X0039507Y0060305D01*
X0039611Y0060418D01*
X0039717Y0060529D01*
X0039826Y0060637D01*
X0039938Y0060742D01*
X0040052Y0060843D01*
X0040170Y0060942D01*
X0040289Y0061038D01*
X0040411Y0061131D01*
X0040536Y0061220D01*
X0040663Y0061307D01*
X0040792Y0061389D01*
X0040923Y0061469D01*
X0041056Y0061545D01*
X0041191Y0061618D01*
X0041328Y0061687D01*
X0041467Y0061752D01*
X0041607Y0061814D01*
X0041749Y0061872D01*
X0041892Y0061927D01*
X0042037Y0061978D01*
X0042183Y0062025D01*
X0042330Y0062068D01*
X0042478Y0062107D01*
X0042627Y0062143D01*
X0042777Y0062174D01*
X0042928Y0062202D01*
X0043079Y0062226D01*
X0043232Y0062246D01*
X0043384Y0062262D01*
X0043537Y0062274D01*
X0043690Y0062282D01*
X0043843Y0062286D01*
X0043997Y0062286D01*
X0044150Y0062282D01*
X0044303Y0062274D01*
X0044456Y0062262D01*
X0044608Y0062246D01*
X0044761Y0062226D01*
X0044912Y0062202D01*
X0045063Y0062174D01*
X0045213Y0062143D01*
X0045362Y0062107D01*
X0045510Y0062068D01*
X0045657Y0062025D01*
X0045803Y0061978D01*
X0045948Y0061927D01*
X0046091Y0061872D01*
X0046233Y0061814D01*
X0046373Y0061752D01*
X0046512Y0061687D01*
X0046649Y0061618D01*
X0046784Y0061545D01*
X0046917Y0061469D01*
X0047048Y0061389D01*
X0047177Y0061307D01*
X0047304Y0061220D01*
X0047429Y0061131D01*
X0047551Y0061038D01*
X0047670Y0060942D01*
X0047788Y0060843D01*
X0047902Y0060742D01*
X0048014Y0060637D01*
X0048123Y0060529D01*
X0048229Y0060418D01*
X0048333Y0060305D01*
X0048433Y0060189D01*
X0048531Y0060071D01*
X0048625Y0059950D01*
X0048716Y0059827D01*
X0048804Y0059701D01*
X0048888Y0059573D01*
X0048970Y0059443D01*
X0049047Y0059311D01*
X0049122Y0059177D01*
X0049193Y0059041D01*
X0049260Y0058903D01*
X0049324Y0058763D01*
X0049384Y0058622D01*
X0049440Y0058480D01*
X0049493Y0058336D01*
X0049542Y0058190D01*
X0049587Y0058044D01*
X0049628Y0057896D01*
X0049665Y0057748D01*
X0049699Y0057598D01*
X0049729Y0057447D01*
X0049754Y0057296D01*
X0049776Y0057145D01*
X0049794Y0056992D01*
X0049808Y0056840D01*
X0049818Y0056687D01*
X0049824Y0056533D01*
X0049826Y0056380D01*
X0049824Y0056227D01*
X0049818Y0056073D01*
X0049808Y0055920D01*
X0049794Y0055768D01*
X0049776Y0055615D01*
X0049754Y0055464D01*
X0049729Y0055313D01*
X0049699Y0055162D01*
X0049665Y0055012D01*
X0049628Y0054864D01*
X0049587Y0054716D01*
X0049542Y0054570D01*
X0049493Y0054424D01*
X0049440Y0054280D01*
X0049384Y0054138D01*
X0049324Y0053997D01*
X0049260Y0053857D01*
X0049193Y0053719D01*
X0049122Y0053583D01*
X0049047Y0053449D01*
X0048970Y0053317D01*
X0048888Y0053187D01*
X0048804Y0053059D01*
X0048716Y0052933D01*
X0048625Y0052810D01*
X0048531Y0052689D01*
X0048433Y0052571D01*
X0048333Y0052455D01*
X0048229Y0052342D01*
X0048123Y0052231D01*
X0048014Y0052123D01*
X0047902Y0052018D01*
X0047788Y0051917D01*
X0047670Y0051818D01*
X0047551Y0051722D01*
X0047429Y0051629D01*
X0047304Y0051540D01*
X0047177Y0051453D01*
X0047048Y0051371D01*
X0046917Y0051291D01*
X0046784Y0051215D01*
X0046649Y0051142D01*
X0046512Y0051073D01*
X0046373Y0051008D01*
X0046233Y0050946D01*
X0046091Y0050888D01*
X0045948Y0050833D01*
X0045803Y0050782D01*
X0045657Y0050735D01*
X0045510Y0050692D01*
X0045362Y0050653D01*
X0045213Y0050617D01*
X0045063Y0050586D01*
X0044912Y0050558D01*
X0044761Y0050534D01*
X0044608Y0050514D01*
X0044456Y0050498D01*
X0044303Y0050486D01*
X0044150Y0050478D01*
X0043997Y0050474D01*
X0043843Y0050474D01*
X0043690Y0050478D01*
X0043537Y0050486D01*
X0043384Y0050498D01*
X0043232Y0050514D01*
X0043079Y0050534D01*
X0042928Y0050558D01*
X0042777Y0050586D01*
X0042627Y0050617D01*
X0042478Y0050653D01*
X0042330Y0050692D01*
X0042183Y0050735D01*
X0042037Y0050782D01*
X0041892Y0050833D01*
X0041749Y0050888D01*
X0041607Y0050946D01*
X0041467Y0051008D01*
X0041328Y0051073D01*
X0041191Y0051142D01*
X0041056Y0051215D01*
X0040923Y0051291D01*
X0040792Y0051371D01*
X0040663Y0051453D01*
X0040536Y0051540D01*
X0040411Y0051629D01*
X0040289Y0051722D01*
X0040170Y0051818D01*
X0040052Y0051917D01*
X0039938Y0052018D01*
X0039826Y0052123D01*
X0039717Y0052231D01*
X0039611Y0052342D01*
X0039507Y0052455D01*
X0039407Y0052571D01*
X0039309Y0052689D01*
X0039215Y0052810D01*
X0039124Y0052933D01*
X0039036Y0053059D01*
X0038952Y0053187D01*
X0038870Y0053317D01*
X0038793Y0053449D01*
X0038718Y0053583D01*
X0038647Y0053719D01*
X0038580Y0053857D01*
X0038516Y0053997D01*
X0038456Y0054138D01*
X0038400Y0054280D01*
X0038347Y0054424D01*
X0038298Y0054570D01*
X0038253Y0054716D01*
X0038212Y0054864D01*
X0038175Y0055012D01*
X0038141Y0055162D01*
X0038111Y0055313D01*
X0038086Y0055464D01*
X0038064Y0055615D01*
X0038046Y0055768D01*
X0038032Y0055920D01*
X0038022Y0056073D01*
X0038016Y0056227D01*
X0038014Y0056380D01*
M02*
