G75*
%MOIN*%
%OFA0B0*%
%FSLAX25Y25*%
%IPPOS*%
%LPD*%
%AMOC8*
5,1,8,0,0,1.08239X$1,22.5*
%
%ADD10C,0.00400*%
%ADD11C,0.00394*%
%ADD12C,0.00000*%
D10*
X0124844Y0108713D02*
X0124844Y0112713D01*
X0146494Y0112713D01*
X0150594Y0116813D01*
X0150594Y0149113D01*
X0157194Y0155713D01*
X0261594Y0155713D01*
X0261594Y0151713D01*
X0158694Y0151713D01*
X0154594Y0147613D01*
X0154594Y0115313D01*
X0147994Y0108713D01*
X0124844Y0108713D01*
X0355844Y0144213D02*
X0355844Y0148213D01*
X0389594Y0148213D01*
X0389594Y0144213D01*
X0355844Y0144213D01*
X0435844Y0191344D02*
X0439844Y0191344D01*
X0439844Y0221713D01*
X0441094Y0222963D01*
X0468963Y0222963D01*
X0468963Y0226963D01*
X0439594Y0226963D01*
X0435844Y0223213D01*
X0435844Y0191344D01*
X0475344Y0188213D02*
X0475344Y0184213D01*
X0530094Y0184213D01*
X0530094Y0188213D01*
X0475344Y0188213D01*
X0547344Y0196213D02*
X0547344Y0200213D01*
X0613844Y0200213D01*
X0613844Y0196213D01*
X0547344Y0196213D01*
D11*
X0042594Y0028618D02*
X0042594Y0371138D01*
X0042596Y0371290D01*
X0042602Y0371442D01*
X0042612Y0371594D01*
X0042625Y0371745D01*
X0042643Y0371896D01*
X0042664Y0372047D01*
X0042690Y0372197D01*
X0042719Y0372346D01*
X0042752Y0372495D01*
X0042789Y0372642D01*
X0042829Y0372789D01*
X0042874Y0372934D01*
X0042922Y0373078D01*
X0042974Y0373221D01*
X0043029Y0373363D01*
X0043088Y0373503D01*
X0043151Y0373642D01*
X0043217Y0373779D01*
X0043287Y0373914D01*
X0043360Y0374047D01*
X0043437Y0374178D01*
X0043517Y0374308D01*
X0043600Y0374435D01*
X0043686Y0374560D01*
X0043776Y0374683D01*
X0043869Y0374803D01*
X0043965Y0374921D01*
X0044064Y0375037D01*
X0044166Y0375150D01*
X0044270Y0375260D01*
X0044378Y0375368D01*
X0044488Y0375472D01*
X0044601Y0375574D01*
X0044717Y0375673D01*
X0044835Y0375769D01*
X0044955Y0375862D01*
X0045078Y0375952D01*
X0045203Y0376038D01*
X0045330Y0376121D01*
X0045460Y0376201D01*
X0045591Y0376278D01*
X0045724Y0376351D01*
X0045859Y0376421D01*
X0045996Y0376487D01*
X0046135Y0376550D01*
X0046275Y0376609D01*
X0046417Y0376664D01*
X0046560Y0376716D01*
X0046704Y0376764D01*
X0046849Y0376809D01*
X0046996Y0376849D01*
X0047143Y0376886D01*
X0047292Y0376919D01*
X0047441Y0376948D01*
X0047591Y0376974D01*
X0047742Y0376995D01*
X0047893Y0377013D01*
X0048044Y0377026D01*
X0048196Y0377036D01*
X0048348Y0377042D01*
X0048500Y0377044D01*
X0048500Y0377043D02*
X0646925Y0377043D01*
X0646925Y0377044D02*
X0647077Y0377042D01*
X0647229Y0377036D01*
X0647381Y0377026D01*
X0647532Y0377013D01*
X0647683Y0376995D01*
X0647834Y0376974D01*
X0647984Y0376948D01*
X0648133Y0376919D01*
X0648282Y0376886D01*
X0648429Y0376849D01*
X0648576Y0376809D01*
X0648721Y0376764D01*
X0648865Y0376716D01*
X0649008Y0376664D01*
X0649150Y0376609D01*
X0649290Y0376550D01*
X0649429Y0376487D01*
X0649566Y0376421D01*
X0649701Y0376351D01*
X0649834Y0376278D01*
X0649965Y0376201D01*
X0650095Y0376121D01*
X0650222Y0376038D01*
X0650347Y0375952D01*
X0650470Y0375862D01*
X0650590Y0375769D01*
X0650708Y0375673D01*
X0650824Y0375574D01*
X0650937Y0375472D01*
X0651047Y0375368D01*
X0651155Y0375260D01*
X0651259Y0375150D01*
X0651361Y0375037D01*
X0651460Y0374921D01*
X0651556Y0374803D01*
X0651649Y0374683D01*
X0651739Y0374560D01*
X0651825Y0374435D01*
X0651908Y0374308D01*
X0651988Y0374178D01*
X0652065Y0374047D01*
X0652138Y0373914D01*
X0652208Y0373779D01*
X0652274Y0373642D01*
X0652337Y0373503D01*
X0652396Y0373363D01*
X0652451Y0373221D01*
X0652503Y0373078D01*
X0652551Y0372934D01*
X0652596Y0372789D01*
X0652636Y0372642D01*
X0652673Y0372495D01*
X0652706Y0372346D01*
X0652735Y0372197D01*
X0652761Y0372047D01*
X0652782Y0371896D01*
X0652800Y0371745D01*
X0652813Y0371594D01*
X0652823Y0371442D01*
X0652829Y0371290D01*
X0652831Y0371138D01*
X0652831Y0028618D01*
X0652829Y0028466D01*
X0652823Y0028314D01*
X0652813Y0028162D01*
X0652800Y0028011D01*
X0652782Y0027860D01*
X0652761Y0027709D01*
X0652735Y0027559D01*
X0652706Y0027410D01*
X0652673Y0027261D01*
X0652636Y0027114D01*
X0652596Y0026967D01*
X0652551Y0026822D01*
X0652503Y0026678D01*
X0652451Y0026535D01*
X0652396Y0026393D01*
X0652337Y0026253D01*
X0652274Y0026114D01*
X0652208Y0025977D01*
X0652138Y0025842D01*
X0652065Y0025709D01*
X0651988Y0025578D01*
X0651908Y0025448D01*
X0651825Y0025321D01*
X0651739Y0025196D01*
X0651649Y0025073D01*
X0651556Y0024953D01*
X0651460Y0024835D01*
X0651361Y0024719D01*
X0651259Y0024606D01*
X0651155Y0024496D01*
X0651047Y0024388D01*
X0650937Y0024284D01*
X0650824Y0024182D01*
X0650708Y0024083D01*
X0650590Y0023987D01*
X0650470Y0023894D01*
X0650347Y0023804D01*
X0650222Y0023718D01*
X0650095Y0023635D01*
X0649965Y0023555D01*
X0649834Y0023478D01*
X0649701Y0023405D01*
X0649566Y0023335D01*
X0649429Y0023269D01*
X0649290Y0023206D01*
X0649150Y0023147D01*
X0649008Y0023092D01*
X0648865Y0023040D01*
X0648721Y0022992D01*
X0648576Y0022947D01*
X0648429Y0022907D01*
X0648282Y0022870D01*
X0648133Y0022837D01*
X0647984Y0022808D01*
X0647834Y0022782D01*
X0647683Y0022761D01*
X0647532Y0022743D01*
X0647381Y0022730D01*
X0647229Y0022720D01*
X0647077Y0022714D01*
X0646925Y0022712D01*
X0646925Y0022713D02*
X0048500Y0022713D01*
X0048500Y0022712D02*
X0048348Y0022714D01*
X0048196Y0022720D01*
X0048044Y0022730D01*
X0047893Y0022743D01*
X0047742Y0022761D01*
X0047591Y0022782D01*
X0047441Y0022808D01*
X0047292Y0022837D01*
X0047143Y0022870D01*
X0046996Y0022907D01*
X0046849Y0022947D01*
X0046704Y0022992D01*
X0046560Y0023040D01*
X0046417Y0023092D01*
X0046275Y0023147D01*
X0046135Y0023206D01*
X0045996Y0023269D01*
X0045859Y0023335D01*
X0045724Y0023405D01*
X0045591Y0023478D01*
X0045460Y0023555D01*
X0045330Y0023635D01*
X0045203Y0023718D01*
X0045078Y0023804D01*
X0044955Y0023894D01*
X0044835Y0023987D01*
X0044717Y0024083D01*
X0044601Y0024182D01*
X0044488Y0024284D01*
X0044378Y0024388D01*
X0044270Y0024496D01*
X0044166Y0024606D01*
X0044064Y0024719D01*
X0043965Y0024835D01*
X0043869Y0024953D01*
X0043776Y0025073D01*
X0043686Y0025196D01*
X0043600Y0025321D01*
X0043517Y0025448D01*
X0043437Y0025578D01*
X0043360Y0025709D01*
X0043287Y0025842D01*
X0043217Y0025977D01*
X0043151Y0026114D01*
X0043088Y0026253D01*
X0043029Y0026393D01*
X0042974Y0026535D01*
X0042922Y0026678D01*
X0042874Y0026822D01*
X0042829Y0026967D01*
X0042789Y0027114D01*
X0042752Y0027261D01*
X0042719Y0027410D01*
X0042690Y0027559D01*
X0042664Y0027709D01*
X0042643Y0027860D01*
X0042625Y0028011D01*
X0042612Y0028162D01*
X0042602Y0028314D01*
X0042596Y0028466D01*
X0042594Y0028618D01*
X0485193Y0357358D02*
X0485193Y0373106D01*
X0489130Y0373106D01*
X0489130Y0357358D01*
X0485193Y0357358D01*
X0505193Y0357358D02*
X0505193Y0373106D01*
X0509130Y0373106D01*
X0509130Y0357358D01*
X0505193Y0357358D01*
X0525193Y0357358D02*
X0525193Y0373106D01*
X0529130Y0373106D01*
X0529130Y0357358D01*
X0525193Y0357358D01*
X0586295Y0241610D02*
X0586295Y0237673D01*
X0614642Y0237673D01*
X0614642Y0241610D01*
X0586295Y0241610D01*
X0586295Y0225075D02*
X0586295Y0221138D01*
X0614642Y0221138D01*
X0614642Y0225075D01*
X0586295Y0225075D01*
D12*
X0623303Y0214839D02*
X0623305Y0214992D01*
X0623311Y0215146D01*
X0623321Y0215299D01*
X0623335Y0215451D01*
X0623353Y0215604D01*
X0623375Y0215755D01*
X0623400Y0215906D01*
X0623430Y0216057D01*
X0623464Y0216207D01*
X0623501Y0216355D01*
X0623542Y0216503D01*
X0623587Y0216649D01*
X0623636Y0216795D01*
X0623689Y0216939D01*
X0623745Y0217081D01*
X0623805Y0217222D01*
X0623869Y0217362D01*
X0623936Y0217500D01*
X0624007Y0217636D01*
X0624082Y0217770D01*
X0624159Y0217902D01*
X0624241Y0218032D01*
X0624325Y0218160D01*
X0624413Y0218286D01*
X0624504Y0218409D01*
X0624598Y0218530D01*
X0624696Y0218648D01*
X0624796Y0218764D01*
X0624900Y0218877D01*
X0625006Y0218988D01*
X0625115Y0219096D01*
X0625227Y0219201D01*
X0625341Y0219302D01*
X0625459Y0219401D01*
X0625578Y0219497D01*
X0625700Y0219590D01*
X0625825Y0219679D01*
X0625952Y0219766D01*
X0626081Y0219848D01*
X0626212Y0219928D01*
X0626345Y0220004D01*
X0626480Y0220077D01*
X0626617Y0220146D01*
X0626756Y0220211D01*
X0626896Y0220273D01*
X0627038Y0220331D01*
X0627181Y0220386D01*
X0627326Y0220437D01*
X0627472Y0220484D01*
X0627619Y0220527D01*
X0627767Y0220566D01*
X0627916Y0220602D01*
X0628066Y0220633D01*
X0628217Y0220661D01*
X0628368Y0220685D01*
X0628521Y0220705D01*
X0628673Y0220721D01*
X0628826Y0220733D01*
X0628979Y0220741D01*
X0629132Y0220745D01*
X0629286Y0220745D01*
X0629439Y0220741D01*
X0629592Y0220733D01*
X0629745Y0220721D01*
X0629897Y0220705D01*
X0630050Y0220685D01*
X0630201Y0220661D01*
X0630352Y0220633D01*
X0630502Y0220602D01*
X0630651Y0220566D01*
X0630799Y0220527D01*
X0630946Y0220484D01*
X0631092Y0220437D01*
X0631237Y0220386D01*
X0631380Y0220331D01*
X0631522Y0220273D01*
X0631662Y0220211D01*
X0631801Y0220146D01*
X0631938Y0220077D01*
X0632073Y0220004D01*
X0632206Y0219928D01*
X0632337Y0219848D01*
X0632466Y0219766D01*
X0632593Y0219679D01*
X0632718Y0219590D01*
X0632840Y0219497D01*
X0632959Y0219401D01*
X0633077Y0219302D01*
X0633191Y0219201D01*
X0633303Y0219096D01*
X0633412Y0218988D01*
X0633518Y0218877D01*
X0633622Y0218764D01*
X0633722Y0218648D01*
X0633820Y0218530D01*
X0633914Y0218409D01*
X0634005Y0218286D01*
X0634093Y0218160D01*
X0634177Y0218032D01*
X0634259Y0217902D01*
X0634336Y0217770D01*
X0634411Y0217636D01*
X0634482Y0217500D01*
X0634549Y0217362D01*
X0634613Y0217222D01*
X0634673Y0217081D01*
X0634729Y0216939D01*
X0634782Y0216795D01*
X0634831Y0216649D01*
X0634876Y0216503D01*
X0634917Y0216355D01*
X0634954Y0216207D01*
X0634988Y0216057D01*
X0635018Y0215906D01*
X0635043Y0215755D01*
X0635065Y0215604D01*
X0635083Y0215451D01*
X0635097Y0215299D01*
X0635107Y0215146D01*
X0635113Y0214992D01*
X0635115Y0214839D01*
X0635113Y0214686D01*
X0635107Y0214532D01*
X0635097Y0214379D01*
X0635083Y0214227D01*
X0635065Y0214074D01*
X0635043Y0213923D01*
X0635018Y0213772D01*
X0634988Y0213621D01*
X0634954Y0213471D01*
X0634917Y0213323D01*
X0634876Y0213175D01*
X0634831Y0213029D01*
X0634782Y0212883D01*
X0634729Y0212739D01*
X0634673Y0212597D01*
X0634613Y0212456D01*
X0634549Y0212316D01*
X0634482Y0212178D01*
X0634411Y0212042D01*
X0634336Y0211908D01*
X0634259Y0211776D01*
X0634177Y0211646D01*
X0634093Y0211518D01*
X0634005Y0211392D01*
X0633914Y0211269D01*
X0633820Y0211148D01*
X0633722Y0211030D01*
X0633622Y0210914D01*
X0633518Y0210801D01*
X0633412Y0210690D01*
X0633303Y0210582D01*
X0633191Y0210477D01*
X0633077Y0210376D01*
X0632959Y0210277D01*
X0632840Y0210181D01*
X0632718Y0210088D01*
X0632593Y0209999D01*
X0632466Y0209912D01*
X0632337Y0209830D01*
X0632206Y0209750D01*
X0632073Y0209674D01*
X0631938Y0209601D01*
X0631801Y0209532D01*
X0631662Y0209467D01*
X0631522Y0209405D01*
X0631380Y0209347D01*
X0631237Y0209292D01*
X0631092Y0209241D01*
X0630946Y0209194D01*
X0630799Y0209151D01*
X0630651Y0209112D01*
X0630502Y0209076D01*
X0630352Y0209045D01*
X0630201Y0209017D01*
X0630050Y0208993D01*
X0629897Y0208973D01*
X0629745Y0208957D01*
X0629592Y0208945D01*
X0629439Y0208937D01*
X0629286Y0208933D01*
X0629132Y0208933D01*
X0628979Y0208937D01*
X0628826Y0208945D01*
X0628673Y0208957D01*
X0628521Y0208973D01*
X0628368Y0208993D01*
X0628217Y0209017D01*
X0628066Y0209045D01*
X0627916Y0209076D01*
X0627767Y0209112D01*
X0627619Y0209151D01*
X0627472Y0209194D01*
X0627326Y0209241D01*
X0627181Y0209292D01*
X0627038Y0209347D01*
X0626896Y0209405D01*
X0626756Y0209467D01*
X0626617Y0209532D01*
X0626480Y0209601D01*
X0626345Y0209674D01*
X0626212Y0209750D01*
X0626081Y0209830D01*
X0625952Y0209912D01*
X0625825Y0209999D01*
X0625700Y0210088D01*
X0625578Y0210181D01*
X0625459Y0210277D01*
X0625341Y0210376D01*
X0625227Y0210477D01*
X0625115Y0210582D01*
X0625006Y0210690D01*
X0624900Y0210801D01*
X0624796Y0210914D01*
X0624696Y0211030D01*
X0624598Y0211148D01*
X0624504Y0211269D01*
X0624413Y0211392D01*
X0624325Y0211518D01*
X0624241Y0211646D01*
X0624159Y0211776D01*
X0624082Y0211908D01*
X0624007Y0212042D01*
X0623936Y0212178D01*
X0623869Y0212316D01*
X0623805Y0212456D01*
X0623745Y0212597D01*
X0623689Y0212739D01*
X0623636Y0212883D01*
X0623587Y0213029D01*
X0623542Y0213175D01*
X0623501Y0213323D01*
X0623464Y0213471D01*
X0623430Y0213621D01*
X0623400Y0213772D01*
X0623375Y0213923D01*
X0623353Y0214074D01*
X0623335Y0214227D01*
X0623321Y0214379D01*
X0623311Y0214532D01*
X0623305Y0214686D01*
X0623303Y0214839D01*
X0623303Y0247909D02*
X0623305Y0248062D01*
X0623311Y0248216D01*
X0623321Y0248369D01*
X0623335Y0248521D01*
X0623353Y0248674D01*
X0623375Y0248825D01*
X0623400Y0248976D01*
X0623430Y0249127D01*
X0623464Y0249277D01*
X0623501Y0249425D01*
X0623542Y0249573D01*
X0623587Y0249719D01*
X0623636Y0249865D01*
X0623689Y0250009D01*
X0623745Y0250151D01*
X0623805Y0250292D01*
X0623869Y0250432D01*
X0623936Y0250570D01*
X0624007Y0250706D01*
X0624082Y0250840D01*
X0624159Y0250972D01*
X0624241Y0251102D01*
X0624325Y0251230D01*
X0624413Y0251356D01*
X0624504Y0251479D01*
X0624598Y0251600D01*
X0624696Y0251718D01*
X0624796Y0251834D01*
X0624900Y0251947D01*
X0625006Y0252058D01*
X0625115Y0252166D01*
X0625227Y0252271D01*
X0625341Y0252372D01*
X0625459Y0252471D01*
X0625578Y0252567D01*
X0625700Y0252660D01*
X0625825Y0252749D01*
X0625952Y0252836D01*
X0626081Y0252918D01*
X0626212Y0252998D01*
X0626345Y0253074D01*
X0626480Y0253147D01*
X0626617Y0253216D01*
X0626756Y0253281D01*
X0626896Y0253343D01*
X0627038Y0253401D01*
X0627181Y0253456D01*
X0627326Y0253507D01*
X0627472Y0253554D01*
X0627619Y0253597D01*
X0627767Y0253636D01*
X0627916Y0253672D01*
X0628066Y0253703D01*
X0628217Y0253731D01*
X0628368Y0253755D01*
X0628521Y0253775D01*
X0628673Y0253791D01*
X0628826Y0253803D01*
X0628979Y0253811D01*
X0629132Y0253815D01*
X0629286Y0253815D01*
X0629439Y0253811D01*
X0629592Y0253803D01*
X0629745Y0253791D01*
X0629897Y0253775D01*
X0630050Y0253755D01*
X0630201Y0253731D01*
X0630352Y0253703D01*
X0630502Y0253672D01*
X0630651Y0253636D01*
X0630799Y0253597D01*
X0630946Y0253554D01*
X0631092Y0253507D01*
X0631237Y0253456D01*
X0631380Y0253401D01*
X0631522Y0253343D01*
X0631662Y0253281D01*
X0631801Y0253216D01*
X0631938Y0253147D01*
X0632073Y0253074D01*
X0632206Y0252998D01*
X0632337Y0252918D01*
X0632466Y0252836D01*
X0632593Y0252749D01*
X0632718Y0252660D01*
X0632840Y0252567D01*
X0632959Y0252471D01*
X0633077Y0252372D01*
X0633191Y0252271D01*
X0633303Y0252166D01*
X0633412Y0252058D01*
X0633518Y0251947D01*
X0633622Y0251834D01*
X0633722Y0251718D01*
X0633820Y0251600D01*
X0633914Y0251479D01*
X0634005Y0251356D01*
X0634093Y0251230D01*
X0634177Y0251102D01*
X0634259Y0250972D01*
X0634336Y0250840D01*
X0634411Y0250706D01*
X0634482Y0250570D01*
X0634549Y0250432D01*
X0634613Y0250292D01*
X0634673Y0250151D01*
X0634729Y0250009D01*
X0634782Y0249865D01*
X0634831Y0249719D01*
X0634876Y0249573D01*
X0634917Y0249425D01*
X0634954Y0249277D01*
X0634988Y0249127D01*
X0635018Y0248976D01*
X0635043Y0248825D01*
X0635065Y0248674D01*
X0635083Y0248521D01*
X0635097Y0248369D01*
X0635107Y0248216D01*
X0635113Y0248062D01*
X0635115Y0247909D01*
X0635113Y0247756D01*
X0635107Y0247602D01*
X0635097Y0247449D01*
X0635083Y0247297D01*
X0635065Y0247144D01*
X0635043Y0246993D01*
X0635018Y0246842D01*
X0634988Y0246691D01*
X0634954Y0246541D01*
X0634917Y0246393D01*
X0634876Y0246245D01*
X0634831Y0246099D01*
X0634782Y0245953D01*
X0634729Y0245809D01*
X0634673Y0245667D01*
X0634613Y0245526D01*
X0634549Y0245386D01*
X0634482Y0245248D01*
X0634411Y0245112D01*
X0634336Y0244978D01*
X0634259Y0244846D01*
X0634177Y0244716D01*
X0634093Y0244588D01*
X0634005Y0244462D01*
X0633914Y0244339D01*
X0633820Y0244218D01*
X0633722Y0244100D01*
X0633622Y0243984D01*
X0633518Y0243871D01*
X0633412Y0243760D01*
X0633303Y0243652D01*
X0633191Y0243547D01*
X0633077Y0243446D01*
X0632959Y0243347D01*
X0632840Y0243251D01*
X0632718Y0243158D01*
X0632593Y0243069D01*
X0632466Y0242982D01*
X0632337Y0242900D01*
X0632206Y0242820D01*
X0632073Y0242744D01*
X0631938Y0242671D01*
X0631801Y0242602D01*
X0631662Y0242537D01*
X0631522Y0242475D01*
X0631380Y0242417D01*
X0631237Y0242362D01*
X0631092Y0242311D01*
X0630946Y0242264D01*
X0630799Y0242221D01*
X0630651Y0242182D01*
X0630502Y0242146D01*
X0630352Y0242115D01*
X0630201Y0242087D01*
X0630050Y0242063D01*
X0629897Y0242043D01*
X0629745Y0242027D01*
X0629592Y0242015D01*
X0629439Y0242007D01*
X0629286Y0242003D01*
X0629132Y0242003D01*
X0628979Y0242007D01*
X0628826Y0242015D01*
X0628673Y0242027D01*
X0628521Y0242043D01*
X0628368Y0242063D01*
X0628217Y0242087D01*
X0628066Y0242115D01*
X0627916Y0242146D01*
X0627767Y0242182D01*
X0627619Y0242221D01*
X0627472Y0242264D01*
X0627326Y0242311D01*
X0627181Y0242362D01*
X0627038Y0242417D01*
X0626896Y0242475D01*
X0626756Y0242537D01*
X0626617Y0242602D01*
X0626480Y0242671D01*
X0626345Y0242744D01*
X0626212Y0242820D01*
X0626081Y0242900D01*
X0625952Y0242982D01*
X0625825Y0243069D01*
X0625700Y0243158D01*
X0625578Y0243251D01*
X0625459Y0243347D01*
X0625341Y0243446D01*
X0625227Y0243547D01*
X0625115Y0243652D01*
X0625006Y0243760D01*
X0624900Y0243871D01*
X0624796Y0243984D01*
X0624696Y0244100D01*
X0624598Y0244218D01*
X0624504Y0244339D01*
X0624413Y0244462D01*
X0624325Y0244588D01*
X0624241Y0244716D01*
X0624159Y0244846D01*
X0624082Y0244978D01*
X0624007Y0245112D01*
X0623936Y0245248D01*
X0623869Y0245386D01*
X0623805Y0245526D01*
X0623745Y0245667D01*
X0623689Y0245809D01*
X0623636Y0245953D01*
X0623587Y0246099D01*
X0623542Y0246245D01*
X0623501Y0246393D01*
X0623464Y0246541D01*
X0623430Y0246691D01*
X0623400Y0246842D01*
X0623375Y0246993D01*
X0623353Y0247144D01*
X0623335Y0247297D01*
X0623321Y0247449D01*
X0623311Y0247602D01*
X0623305Y0247756D01*
X0623303Y0247909D01*
X0622515Y0064051D02*
X0622517Y0064204D01*
X0622523Y0064358D01*
X0622533Y0064511D01*
X0622547Y0064663D01*
X0622565Y0064816D01*
X0622587Y0064967D01*
X0622612Y0065118D01*
X0622642Y0065269D01*
X0622676Y0065419D01*
X0622713Y0065567D01*
X0622754Y0065715D01*
X0622799Y0065861D01*
X0622848Y0066007D01*
X0622901Y0066151D01*
X0622957Y0066293D01*
X0623017Y0066434D01*
X0623081Y0066574D01*
X0623148Y0066712D01*
X0623219Y0066848D01*
X0623294Y0066982D01*
X0623371Y0067114D01*
X0623453Y0067244D01*
X0623537Y0067372D01*
X0623625Y0067498D01*
X0623716Y0067621D01*
X0623810Y0067742D01*
X0623908Y0067860D01*
X0624008Y0067976D01*
X0624112Y0068089D01*
X0624218Y0068200D01*
X0624327Y0068308D01*
X0624439Y0068413D01*
X0624553Y0068514D01*
X0624671Y0068613D01*
X0624790Y0068709D01*
X0624912Y0068802D01*
X0625037Y0068891D01*
X0625164Y0068978D01*
X0625293Y0069060D01*
X0625424Y0069140D01*
X0625557Y0069216D01*
X0625692Y0069289D01*
X0625829Y0069358D01*
X0625968Y0069423D01*
X0626108Y0069485D01*
X0626250Y0069543D01*
X0626393Y0069598D01*
X0626538Y0069649D01*
X0626684Y0069696D01*
X0626831Y0069739D01*
X0626979Y0069778D01*
X0627128Y0069814D01*
X0627278Y0069845D01*
X0627429Y0069873D01*
X0627580Y0069897D01*
X0627733Y0069917D01*
X0627885Y0069933D01*
X0628038Y0069945D01*
X0628191Y0069953D01*
X0628344Y0069957D01*
X0628498Y0069957D01*
X0628651Y0069953D01*
X0628804Y0069945D01*
X0628957Y0069933D01*
X0629109Y0069917D01*
X0629262Y0069897D01*
X0629413Y0069873D01*
X0629564Y0069845D01*
X0629714Y0069814D01*
X0629863Y0069778D01*
X0630011Y0069739D01*
X0630158Y0069696D01*
X0630304Y0069649D01*
X0630449Y0069598D01*
X0630592Y0069543D01*
X0630734Y0069485D01*
X0630874Y0069423D01*
X0631013Y0069358D01*
X0631150Y0069289D01*
X0631285Y0069216D01*
X0631418Y0069140D01*
X0631549Y0069060D01*
X0631678Y0068978D01*
X0631805Y0068891D01*
X0631930Y0068802D01*
X0632052Y0068709D01*
X0632171Y0068613D01*
X0632289Y0068514D01*
X0632403Y0068413D01*
X0632515Y0068308D01*
X0632624Y0068200D01*
X0632730Y0068089D01*
X0632834Y0067976D01*
X0632934Y0067860D01*
X0633032Y0067742D01*
X0633126Y0067621D01*
X0633217Y0067498D01*
X0633305Y0067372D01*
X0633389Y0067244D01*
X0633471Y0067114D01*
X0633548Y0066982D01*
X0633623Y0066848D01*
X0633694Y0066712D01*
X0633761Y0066574D01*
X0633825Y0066434D01*
X0633885Y0066293D01*
X0633941Y0066151D01*
X0633994Y0066007D01*
X0634043Y0065861D01*
X0634088Y0065715D01*
X0634129Y0065567D01*
X0634166Y0065419D01*
X0634200Y0065269D01*
X0634230Y0065118D01*
X0634255Y0064967D01*
X0634277Y0064816D01*
X0634295Y0064663D01*
X0634309Y0064511D01*
X0634319Y0064358D01*
X0634325Y0064204D01*
X0634327Y0064051D01*
X0634325Y0063898D01*
X0634319Y0063744D01*
X0634309Y0063591D01*
X0634295Y0063439D01*
X0634277Y0063286D01*
X0634255Y0063135D01*
X0634230Y0062984D01*
X0634200Y0062833D01*
X0634166Y0062683D01*
X0634129Y0062535D01*
X0634088Y0062387D01*
X0634043Y0062241D01*
X0633994Y0062095D01*
X0633941Y0061951D01*
X0633885Y0061809D01*
X0633825Y0061668D01*
X0633761Y0061528D01*
X0633694Y0061390D01*
X0633623Y0061254D01*
X0633548Y0061120D01*
X0633471Y0060988D01*
X0633389Y0060858D01*
X0633305Y0060730D01*
X0633217Y0060604D01*
X0633126Y0060481D01*
X0633032Y0060360D01*
X0632934Y0060242D01*
X0632834Y0060126D01*
X0632730Y0060013D01*
X0632624Y0059902D01*
X0632515Y0059794D01*
X0632403Y0059689D01*
X0632289Y0059588D01*
X0632171Y0059489D01*
X0632052Y0059393D01*
X0631930Y0059300D01*
X0631805Y0059211D01*
X0631678Y0059124D01*
X0631549Y0059042D01*
X0631418Y0058962D01*
X0631285Y0058886D01*
X0631150Y0058813D01*
X0631013Y0058744D01*
X0630874Y0058679D01*
X0630734Y0058617D01*
X0630592Y0058559D01*
X0630449Y0058504D01*
X0630304Y0058453D01*
X0630158Y0058406D01*
X0630011Y0058363D01*
X0629863Y0058324D01*
X0629714Y0058288D01*
X0629564Y0058257D01*
X0629413Y0058229D01*
X0629262Y0058205D01*
X0629109Y0058185D01*
X0628957Y0058169D01*
X0628804Y0058157D01*
X0628651Y0058149D01*
X0628498Y0058145D01*
X0628344Y0058145D01*
X0628191Y0058149D01*
X0628038Y0058157D01*
X0627885Y0058169D01*
X0627733Y0058185D01*
X0627580Y0058205D01*
X0627429Y0058229D01*
X0627278Y0058257D01*
X0627128Y0058288D01*
X0626979Y0058324D01*
X0626831Y0058363D01*
X0626684Y0058406D01*
X0626538Y0058453D01*
X0626393Y0058504D01*
X0626250Y0058559D01*
X0626108Y0058617D01*
X0625968Y0058679D01*
X0625829Y0058744D01*
X0625692Y0058813D01*
X0625557Y0058886D01*
X0625424Y0058962D01*
X0625293Y0059042D01*
X0625164Y0059124D01*
X0625037Y0059211D01*
X0624912Y0059300D01*
X0624790Y0059393D01*
X0624671Y0059489D01*
X0624553Y0059588D01*
X0624439Y0059689D01*
X0624327Y0059794D01*
X0624218Y0059902D01*
X0624112Y0060013D01*
X0624008Y0060126D01*
X0623908Y0060242D01*
X0623810Y0060360D01*
X0623716Y0060481D01*
X0623625Y0060604D01*
X0623537Y0060730D01*
X0623453Y0060858D01*
X0623371Y0060988D01*
X0623294Y0061120D01*
X0623219Y0061254D01*
X0623148Y0061390D01*
X0623081Y0061528D01*
X0623017Y0061668D01*
X0622957Y0061809D01*
X0622901Y0061951D01*
X0622848Y0062095D01*
X0622799Y0062241D01*
X0622754Y0062387D01*
X0622713Y0062535D01*
X0622676Y0062683D01*
X0622642Y0062833D01*
X0622612Y0062984D01*
X0622587Y0063135D01*
X0622565Y0063286D01*
X0622547Y0063439D01*
X0622533Y0063591D01*
X0622523Y0063744D01*
X0622517Y0063898D01*
X0622515Y0064051D01*
M02*
