%
M48
M72
T01C0.0157
T02C0.0197
T03C0.0236
T04C0.0276
T05C0.0320
T06C0.0360
T07C0.0400
T08C0.0433
T09C0.0472
T10C0.0551
T11C0.0630
T12C0.1181
T13C0.1260
%
T01
X5737Y5275
X5737Y5575
X5737Y5875
X5737Y6175
X5737Y6475
X6037Y6475
X6037Y6175
X6037Y5875
X6037Y5575
X6037Y5275
X11687Y5975
X13387Y5975
X13887Y5625
X12712Y3700
X13337Y7950
X20787Y13350
X20787Y14200
X19937Y14325
X20214Y14798
X21837Y14300
X23237Y15100
X21962Y15675
X21912Y16375
X19412Y16475
X17112Y16575
X16212Y16475
X16287Y15725
X10687Y16025
X10687Y18100
X10987Y18975
X7037Y19900
X6512Y21300
X5737Y21300
X7587Y24000
X7887Y24000
X12737Y24550
X13137Y23850
X6437Y27525
X7412Y28700
X7087Y31900
X7087Y32375
X21612Y24475
X21612Y23175
X23762Y20800
X21962Y18050
X19062Y19500
X24962Y17425
X24462Y16150
X24637Y15100
X23987Y14200
X23562Y13200
X25012Y12525
X25937Y13125
X25412Y13450
X30487Y14525
X30487Y16750
X33312Y16950
X36862Y16950
X39287Y15125
X39937Y14725
X42412Y14975
X42412Y15400
X43587Y17125
X42997Y17385
X44512Y17450
X43987Y18875
X47412Y18575
X48637Y18675
X50612Y19075
X48637Y16700
X48212Y13125
X49612Y12450
X51837Y9800
X50287Y9550
X49862Y9550
X50437Y7725
X51887Y7375
X48837Y7700
X45262Y7375
X41587Y7925
X44037Y13225
X45512Y13225
X43328Y21790
X43337Y22450
X44037Y23825
X45462Y23925
X45462Y26025
X41987Y27075
X40537Y27075
X30762Y30200
X28837Y29200
X27912Y28800
X25837Y30125
X26762Y31350
X26762Y31700
X26762Y32050
X26762Y32400
X26762Y32750
X28762Y32750
X28762Y32400
X28762Y32050
X28762Y31700
X28762Y31350
X27437Y27375
X27262Y25950
X26637Y25200
X28412Y24975
X26562Y23725
X4462Y17550
X27637Y10225
X27937Y10225
X28237Y10225
X28537Y10225
X28537Y9275
X28237Y9275
X27937Y9275
X27637Y9275
X27637Y4925
X27937Y4925
X28237Y4925
X28537Y4925
X28537Y3925
X28237Y3925
X27937Y3925
X27637Y3925
X51012Y23025
X50912Y24850
T02
X30662Y11475
X30312Y11475
X17112Y4225
X17112Y3875
X14562Y3525
X14437Y1825
X9587Y1725
X14862Y5650
X14637Y8825
X15462Y8850
X15462Y9200
X12137Y16825
X7012Y16675
X11687Y20350
X12137Y20725
X9787Y20725
X8287Y22175
T03
X5362Y17150
T04
X30887Y27405
X30887Y27995
T05
X5937Y19500
X4937Y19500
X3937Y19500
T06
X18787Y22575
X22787Y21575
X54662Y21150
X58662Y21150
X58662Y20150
X62662Y20150
T07
X61487Y17950
X55587Y17950
X55587Y8125
X61487Y8125
X37189Y22666
X37189Y24666
X29462Y25075
X29462Y23075
X7937Y25125
X7937Y27125
X4137Y27175
X4137Y26175
X4137Y25175
X4137Y24175
X4137Y23175
X4137Y22175
X4137Y28175
X4137Y29175
T08
X18962Y20850
X17687Y14876
X13862Y14900
X12089Y12350
X9136Y12350
X3362Y17150
X17687Y11924
X28987Y15200
X31612Y25650
X39012Y25525
X47737Y27824
X47737Y30776
X54937Y30776
X54937Y27824
X38912Y31250
X51887Y6475
X10864Y4800
X7911Y4800
T09
X14675Y25155
X14675Y26139
X14675Y27124
X14675Y28108
X14675Y29092
X14675Y30076
X14675Y31061
X14675Y32045
X22549Y31553
X22549Y30569
X22549Y28600
X22549Y26631
X22549Y25647
X56569Y15411
X60506Y15411
X60506Y10489
X56569Y10489
T10
X57462Y5204
X57462Y3550
X57462Y1896
X61780Y23028
X61780Y24978
X61780Y27028
X61780Y29028
X6114Y15350
X4461Y15350
T11
X21032Y10181
X21032Y8804
X21032Y7426
X21032Y6048
X32449Y6737
X32449Y9493
X37339Y9261
X37339Y11461
X37339Y13661
X37339Y15954
X37339Y18154
X37339Y20354
X37339Y26978
X37339Y29178
X37339Y31378
X37339Y6968
X37339Y4768
X37339Y2568
T12
X55277Y2723
X58978Y5204
T13
X3906Y2012
X3906Y32327
X61780Y32327
X61780Y2209
M30
