G75*
%MOIN*%
%OFA0B0*%
%FSLAX25Y25*%
%IPPOS*%
%LPD*%
%AMOC8*
5,1,8,0,0,1.08239X$1,22.5*
%
%ADD10C,0.00400*%
%ADD11C,0.00500*%
%ADD12C,0.01000*%
%ADD13C,0.00600*%
%ADD14C,0.01600*%
%ADD15C,0.00700*%
%ADD16C,0.00300*%
%ADD17C,0.00800*%
%ADD18R,0.02992X0.03268*%
%ADD19R,0.02992X0.03583*%
%ADD20R,0.05512X0.00787*%
%ADD21C,0.00200*%
%ADD22R,0.00787X0.05512*%
%ADD23R,0.01181X0.08268*%
D10*
X0167565Y0021769D02*
X0168165Y0021169D01*
X0169366Y0021169D01*
X0169967Y0021769D01*
X0169967Y0024171D01*
X0169366Y0024772D01*
X0168165Y0024772D01*
X0167565Y0024171D01*
X0171221Y0024772D02*
X0172422Y0024772D01*
X0171822Y0024772D02*
X0171822Y0021169D01*
X0172422Y0021169D02*
X0171221Y0021169D01*
X0173703Y0021769D02*
X0173703Y0024171D01*
X0174304Y0024772D01*
X0176105Y0024772D01*
X0176105Y0021169D01*
X0174304Y0021169D01*
X0173703Y0021769D01*
X0177386Y0022970D02*
X0179789Y0022970D01*
X0181070Y0024772D02*
X0183472Y0024772D01*
X0183472Y0021169D01*
X0184753Y0021769D02*
X0185353Y0021169D01*
X0186554Y0021169D01*
X0187155Y0021769D01*
X0187155Y0024171D01*
X0186554Y0024772D01*
X0185353Y0024772D01*
X0184753Y0024171D01*
X0183472Y0022970D02*
X0182271Y0022970D01*
X0188436Y0024772D02*
X0190838Y0021169D01*
X0192119Y0021169D02*
X0192119Y0022970D01*
X0192720Y0023571D01*
X0194521Y0023571D01*
X0194521Y0021169D01*
X0195802Y0022370D02*
X0198204Y0022370D01*
X0198204Y0022970D02*
X0197604Y0023571D01*
X0196403Y0023571D01*
X0195802Y0022970D01*
X0195802Y0022370D01*
X0196403Y0021169D02*
X0197604Y0021169D01*
X0198204Y0021769D01*
X0198204Y0022970D01*
X0199485Y0022970D02*
X0199485Y0021769D01*
X0200086Y0021169D01*
X0201887Y0021169D01*
X0201887Y0019967D02*
X0201887Y0023571D01*
X0200086Y0023571D01*
X0199485Y0022970D01*
X0203168Y0022970D02*
X0203769Y0023571D01*
X0204970Y0023571D01*
X0205571Y0022970D01*
X0205571Y0021769D01*
X0204970Y0021169D01*
X0203769Y0021169D01*
X0203168Y0021769D01*
X0203168Y0022970D01*
X0206852Y0022970D02*
X0209254Y0022970D01*
X0210535Y0023571D02*
X0212937Y0021169D01*
X0210535Y0021169D01*
X0210535Y0023571D02*
X0212937Y0023571D01*
X0214218Y0022970D02*
X0214218Y0022370D01*
X0216620Y0022370D01*
X0216620Y0022970D02*
X0216019Y0023571D01*
X0214818Y0023571D01*
X0214218Y0022970D01*
X0214818Y0021169D02*
X0216019Y0021169D01*
X0216620Y0021769D01*
X0216620Y0022970D01*
X0217901Y0022970D02*
X0217901Y0022370D01*
X0220303Y0022370D01*
X0220303Y0022970D02*
X0219703Y0023571D01*
X0218502Y0023571D01*
X0217901Y0022970D01*
X0218502Y0021169D02*
X0219703Y0021169D01*
X0220303Y0021769D01*
X0220303Y0022970D01*
X0221584Y0024772D02*
X0223986Y0021169D01*
X0225267Y0021169D02*
X0225267Y0022970D01*
X0225868Y0023571D01*
X0226468Y0022970D01*
X0226468Y0021169D01*
X0227669Y0021169D02*
X0227669Y0023571D01*
X0227069Y0023571D01*
X0226468Y0022970D01*
X0228951Y0022970D02*
X0229551Y0023571D01*
X0230752Y0023571D01*
X0231353Y0022970D01*
X0231353Y0021769D01*
X0230752Y0021169D01*
X0229551Y0021169D01*
X0228951Y0021769D01*
X0228951Y0022970D01*
X0232634Y0023571D02*
X0234435Y0023571D01*
X0235036Y0022970D01*
X0235036Y0021769D01*
X0234435Y0021169D01*
X0232634Y0021169D01*
X0236277Y0021169D02*
X0236877Y0021169D01*
X0236877Y0021769D01*
X0236277Y0021769D01*
X0236277Y0021169D01*
X0238158Y0021769D02*
X0238158Y0022970D01*
X0238759Y0023571D01*
X0240560Y0023571D01*
X0240560Y0024772D02*
X0240560Y0021169D01*
X0238759Y0021169D01*
X0238158Y0021769D01*
X0241842Y0021169D02*
X0241842Y0023571D01*
X0244244Y0023571D02*
X0244244Y0021769D01*
X0243643Y0021169D01*
X0241842Y0021169D01*
X0245525Y0021169D02*
X0245525Y0022970D01*
X0246125Y0023571D01*
X0247326Y0023571D01*
X0247927Y0022970D01*
X0249181Y0023571D02*
X0250382Y0023571D01*
X0249782Y0024171D02*
X0249782Y0021769D01*
X0249181Y0021169D01*
X0247927Y0021169D02*
X0247927Y0024772D01*
X0252237Y0024772D02*
X0252237Y0025372D01*
X0252237Y0023571D02*
X0252237Y0021169D01*
X0251637Y0021169D02*
X0252838Y0021169D01*
X0254119Y0021169D02*
X0255920Y0021169D01*
X0256521Y0021769D01*
X0256521Y0022970D01*
X0255920Y0023571D01*
X0254119Y0023571D01*
X0254119Y0020568D01*
X0254719Y0019967D01*
X0255320Y0019967D01*
X0252838Y0023571D02*
X0252237Y0023571D01*
X0261445Y0023571D02*
X0261445Y0022970D01*
X0262045Y0022970D01*
X0262045Y0023571D01*
X0261445Y0023571D01*
X0261445Y0021769D02*
X0261445Y0021169D01*
X0262045Y0021169D01*
X0262045Y0021769D01*
X0261445Y0021769D01*
X0263327Y0022370D02*
X0265729Y0022370D01*
X0265729Y0022970D02*
X0265128Y0023571D01*
X0263927Y0023571D01*
X0263327Y0022970D01*
X0263327Y0022370D01*
X0263927Y0021169D02*
X0265128Y0021169D01*
X0265729Y0021769D01*
X0265729Y0022970D01*
X0267010Y0023571D02*
X0268811Y0023571D01*
X0269412Y0022970D01*
X0269412Y0021769D01*
X0268811Y0021169D01*
X0267010Y0021169D01*
X0267010Y0024772D01*
X0270693Y0022970D02*
X0271293Y0023571D01*
X0272494Y0023571D01*
X0273095Y0022970D01*
X0273095Y0021769D01*
X0272494Y0021169D01*
X0271293Y0021169D01*
X0270693Y0021769D01*
X0270693Y0022970D01*
X0274376Y0023571D02*
X0276177Y0023571D01*
X0276778Y0022970D01*
X0276778Y0021769D01*
X0276177Y0021169D01*
X0274376Y0021169D01*
X0281742Y0022370D02*
X0284144Y0022370D01*
X0284144Y0022970D02*
X0283544Y0023571D01*
X0282343Y0023571D01*
X0281742Y0022970D01*
X0281742Y0022370D01*
X0282343Y0021169D02*
X0283544Y0021169D01*
X0284144Y0021769D01*
X0284144Y0022970D01*
X0285425Y0023571D02*
X0287227Y0023571D01*
X0287827Y0022970D01*
X0287827Y0021769D01*
X0287227Y0021169D01*
X0285425Y0021169D01*
X0289095Y0023571D02*
X0289696Y0023571D01*
X0290897Y0022370D01*
X0290897Y0021169D02*
X0290897Y0023571D01*
X0292178Y0023571D02*
X0292178Y0021169D01*
X0293979Y0021169D01*
X0294580Y0021769D01*
X0294580Y0023571D01*
X0295861Y0022970D02*
X0296461Y0023571D01*
X0297662Y0023571D01*
X0298263Y0022970D01*
X0298263Y0021769D01*
X0297662Y0021169D01*
X0296461Y0021169D01*
X0295861Y0021769D01*
X0295861Y0022970D01*
X0299544Y0023571D02*
X0301346Y0023571D01*
X0301946Y0022970D01*
X0301346Y0022370D01*
X0300145Y0022370D01*
X0299544Y0021769D01*
X0300145Y0021169D01*
X0301946Y0021169D01*
X0306884Y0021169D02*
X0307484Y0021769D01*
X0307484Y0024171D01*
X0306884Y0023571D02*
X0308085Y0023571D01*
X0309366Y0023571D02*
X0311167Y0023571D01*
X0311768Y0022970D01*
X0311768Y0021769D01*
X0311167Y0021169D01*
X0309366Y0021169D01*
X0313049Y0022370D02*
X0315451Y0022370D01*
X0315451Y0022970D02*
X0314850Y0023571D01*
X0313649Y0023571D01*
X0313049Y0022970D01*
X0313049Y0022370D01*
X0313649Y0021169D02*
X0314850Y0021169D01*
X0315451Y0021769D01*
X0315451Y0022970D01*
X0316705Y0023571D02*
X0316705Y0020568D01*
X0317306Y0019967D01*
X0317906Y0019967D01*
X0319188Y0021769D02*
X0319188Y0022970D01*
X0319788Y0023571D01*
X0320989Y0023571D01*
X0321590Y0022970D01*
X0321590Y0021769D01*
X0320989Y0021169D01*
X0319788Y0021169D01*
X0319188Y0021769D01*
X0316705Y0024772D02*
X0316705Y0025372D01*
X0322857Y0023571D02*
X0323458Y0023571D01*
X0324659Y0022370D01*
X0324659Y0021169D02*
X0324659Y0023571D01*
X0325940Y0024171D02*
X0325940Y0022970D01*
X0326540Y0022370D01*
X0328342Y0022370D01*
X0328342Y0021169D02*
X0328342Y0024772D01*
X0326540Y0024772D01*
X0325940Y0024171D01*
X0332192Y0024844D02*
X0334594Y0024844D01*
X0332792Y0026646D01*
X0332792Y0023043D01*
X0335875Y0023043D02*
X0337076Y0024244D01*
X0336475Y0024244D02*
X0338277Y0024244D01*
X0338277Y0023043D02*
X0338277Y0026646D01*
X0336475Y0026646D01*
X0335875Y0026045D01*
X0335875Y0024844D01*
X0336475Y0024244D01*
X0336475Y0031293D02*
X0335875Y0031893D01*
X0336475Y0031293D02*
X0337677Y0031293D01*
X0338277Y0031893D01*
X0338277Y0034295D01*
X0337677Y0034896D01*
X0336475Y0034896D01*
X0335875Y0034295D01*
X0334594Y0034295D02*
X0334594Y0033695D01*
X0333993Y0033094D01*
X0332792Y0033094D01*
X0332192Y0032494D01*
X0332192Y0031893D01*
X0332792Y0031293D01*
X0333993Y0031293D01*
X0334594Y0031893D01*
X0334594Y0032494D01*
X0333993Y0033094D01*
X0332792Y0033094D02*
X0332192Y0033695D01*
X0332192Y0034295D01*
X0332792Y0034896D01*
X0333993Y0034896D01*
X0334594Y0034295D01*
X0333956Y0039230D02*
X0336358Y0039230D01*
X0336358Y0039830D01*
X0333956Y0042232D01*
X0333956Y0042833D01*
X0336358Y0042833D01*
X0332675Y0042833D02*
X0332675Y0039230D01*
X0330873Y0039230D01*
X0330273Y0039830D01*
X0330273Y0042232D01*
X0330873Y0042833D01*
X0332675Y0042833D01*
X0328991Y0041632D02*
X0327790Y0042833D01*
X0327790Y0039230D01*
X0328991Y0039230D02*
X0326589Y0039230D01*
X0344942Y0052893D02*
X0344942Y0053494D01*
X0345542Y0054094D01*
X0347344Y0054094D01*
X0347344Y0052893D01*
X0346743Y0052293D01*
X0345542Y0052293D01*
X0344942Y0052893D01*
X0346143Y0055295D02*
X0347344Y0054094D01*
X0346143Y0055295D02*
X0344942Y0055896D01*
X0348625Y0055295D02*
X0349225Y0055896D01*
X0350427Y0055896D01*
X0351027Y0055295D01*
X0351027Y0052893D01*
X0350427Y0052293D01*
X0349225Y0052293D01*
X0348625Y0052893D01*
X0364388Y0042146D02*
X0364388Y0037543D01*
X0362854Y0037543D02*
X0365923Y0037543D01*
X0367458Y0037543D02*
X0368992Y0039077D01*
X0367458Y0038310D02*
X0368225Y0037543D01*
X0369760Y0037543D01*
X0370527Y0038310D01*
X0370527Y0041379D01*
X0369760Y0042146D01*
X0368225Y0042146D01*
X0367458Y0041379D01*
X0367458Y0038310D01*
X0365923Y0040612D02*
X0364388Y0042146D01*
X0398023Y0022083D02*
X0399224Y0021482D01*
X0400425Y0020281D01*
X0398623Y0020281D01*
X0398023Y0019681D01*
X0398023Y0019080D01*
X0398623Y0018480D01*
X0399824Y0018480D01*
X0400425Y0019080D01*
X0400425Y0020281D01*
X0401706Y0019080D02*
X0401706Y0021482D01*
X0402306Y0022083D01*
X0404108Y0022083D01*
X0404108Y0018480D01*
X0402306Y0018480D01*
X0401706Y0019080D01*
X0365927Y0073793D02*
X0364725Y0073793D01*
X0364125Y0074393D01*
X0362844Y0073793D02*
X0360442Y0073793D01*
X0361643Y0073793D02*
X0361643Y0077396D01*
X0362844Y0076195D01*
X0364125Y0076795D02*
X0364725Y0077396D01*
X0365927Y0077396D01*
X0366527Y0076795D01*
X0366527Y0074393D01*
X0365927Y0073793D01*
X0359161Y0074393D02*
X0359161Y0074994D01*
X0358560Y0075594D01*
X0357359Y0075594D01*
X0356759Y0074994D01*
X0356759Y0074393D01*
X0357359Y0073793D01*
X0358560Y0073793D01*
X0359161Y0074393D01*
X0358560Y0075594D02*
X0359161Y0076195D01*
X0359161Y0076795D01*
X0358560Y0077396D01*
X0357359Y0077396D01*
X0356759Y0076795D01*
X0356759Y0076195D01*
X0357359Y0075594D01*
X0357692Y0096293D02*
X0360094Y0096293D01*
X0358893Y0096293D02*
X0358893Y0099896D01*
X0360094Y0098695D01*
X0361375Y0099295D02*
X0361375Y0098094D01*
X0361975Y0097494D01*
X0363777Y0097494D01*
X0362576Y0097494D02*
X0361375Y0096293D01*
X0363777Y0096293D02*
X0363777Y0099896D01*
X0361975Y0099896D01*
X0361375Y0099295D01*
X0356411Y0098094D02*
X0354009Y0098094D01*
X0354609Y0096293D02*
X0354609Y0099896D01*
X0356411Y0098094D01*
X0375677Y0106293D02*
X0379280Y0106293D01*
X0379280Y0108094D01*
X0378680Y0108695D01*
X0377479Y0108695D01*
X0376878Y0108094D01*
X0376878Y0106293D01*
X0376878Y0107494D02*
X0375677Y0108695D01*
X0375677Y0109976D02*
X0375677Y0112378D01*
X0375677Y0111177D02*
X0379280Y0111177D01*
X0378079Y0109976D01*
X0379280Y0113659D02*
X0379280Y0116061D01*
X0378680Y0116061D01*
X0376278Y0113659D01*
X0375677Y0113659D01*
X0374991Y0129793D02*
X0376192Y0130994D01*
X0375592Y0130994D02*
X0377393Y0130994D01*
X0377393Y0129793D02*
X0377393Y0133396D01*
X0375592Y0133396D01*
X0374991Y0132795D01*
X0374991Y0131594D01*
X0375592Y0130994D01*
X0373710Y0130994D02*
X0373110Y0131594D01*
X0371909Y0131594D01*
X0371308Y0130994D01*
X0371308Y0130393D01*
X0371909Y0129793D01*
X0373110Y0129793D01*
X0373710Y0130393D01*
X0373710Y0130994D01*
X0373110Y0131594D02*
X0373710Y0132195D01*
X0373710Y0132795D01*
X0373110Y0133396D01*
X0371909Y0133396D01*
X0371308Y0132795D01*
X0371308Y0132195D01*
X0371909Y0131594D01*
X0358527Y0131994D02*
X0356725Y0131994D01*
X0356125Y0132594D01*
X0356125Y0133795D01*
X0356725Y0134396D01*
X0358527Y0134396D01*
X0358527Y0130793D01*
X0357326Y0131994D02*
X0356125Y0130793D01*
X0354844Y0130793D02*
X0354844Y0131393D01*
X0352442Y0133795D01*
X0352442Y0134396D01*
X0354844Y0134396D01*
X0342326Y0134146D02*
X0342326Y0130543D01*
X0342326Y0131744D02*
X0340525Y0131744D01*
X0339924Y0132344D01*
X0339924Y0133545D01*
X0340525Y0134146D01*
X0342326Y0134146D01*
X0341125Y0131744D02*
X0339924Y0130543D01*
X0338643Y0131143D02*
X0338043Y0130543D01*
X0336842Y0130543D01*
X0336241Y0131143D01*
X0336241Y0131744D01*
X0336842Y0132344D01*
X0337442Y0132344D01*
X0336842Y0132344D02*
X0336241Y0132945D01*
X0336241Y0133545D01*
X0336842Y0134146D01*
X0338043Y0134146D01*
X0338643Y0133545D01*
X0334960Y0133545D02*
X0334360Y0134146D01*
X0333159Y0134146D01*
X0332558Y0133545D01*
X0332558Y0132945D01*
X0334960Y0130543D01*
X0332558Y0130543D01*
X0328780Y0191293D02*
X0325177Y0191293D01*
X0326378Y0191293D02*
X0326378Y0193094D01*
X0326979Y0193695D01*
X0328180Y0193695D01*
X0328780Y0193094D01*
X0328780Y0191293D01*
X0328780Y0194976D02*
X0325778Y0194976D01*
X0325177Y0195576D01*
X0325177Y0196777D01*
X0325778Y0197378D01*
X0328780Y0197378D01*
X0328780Y0198659D02*
X0325177Y0198659D01*
X0325177Y0201061D01*
X0325177Y0202342D02*
X0325177Y0204744D01*
X0325177Y0202342D02*
X0328780Y0202342D01*
X0329030Y0265793D02*
X0325427Y0265793D01*
X0326628Y0265793D02*
X0326628Y0267594D01*
X0327229Y0268195D01*
X0328430Y0268195D01*
X0329030Y0267594D01*
X0329030Y0265793D01*
X0329030Y0269476D02*
X0326028Y0269476D01*
X0325427Y0270076D01*
X0325427Y0271277D01*
X0326028Y0271878D01*
X0329030Y0271878D01*
X0328430Y0273159D02*
X0327829Y0273159D01*
X0327229Y0273759D01*
X0327229Y0274960D01*
X0326628Y0275561D01*
X0326028Y0275561D01*
X0325427Y0274960D01*
X0325427Y0273759D01*
X0326028Y0273159D01*
X0328430Y0273159D02*
X0329030Y0273759D01*
X0329030Y0274960D01*
X0328430Y0275561D01*
X0329030Y0276842D02*
X0325427Y0276842D01*
X0327229Y0276842D02*
X0327229Y0279244D01*
X0329030Y0279244D02*
X0325427Y0279244D01*
X0453677Y0189460D02*
X0454278Y0190061D01*
X0454878Y0190061D01*
X0455479Y0189460D01*
X0455479Y0187659D01*
X0454278Y0187659D01*
X0453677Y0188259D01*
X0453677Y0189460D01*
X0455479Y0187659D02*
X0456680Y0188860D01*
X0457280Y0190061D01*
X0457280Y0186378D02*
X0456680Y0185177D01*
X0455479Y0183976D01*
X0455479Y0185777D01*
X0454878Y0186378D01*
X0454278Y0186378D01*
X0453677Y0185777D01*
X0453677Y0184576D01*
X0454278Y0183976D01*
X0455479Y0183976D01*
X0455479Y0182695D02*
X0454878Y0182094D01*
X0454878Y0180293D01*
X0454878Y0181494D02*
X0453677Y0182695D01*
X0455479Y0182695D02*
X0456680Y0182695D01*
X0457280Y0182094D01*
X0457280Y0180293D01*
X0453677Y0180293D01*
X0453677Y0174261D02*
X0453677Y0171859D01*
X0453677Y0173060D02*
X0457280Y0173060D01*
X0456079Y0171859D01*
X0456680Y0170578D02*
X0454278Y0168176D01*
X0453677Y0168176D01*
X0453677Y0166895D02*
X0454878Y0165694D01*
X0454878Y0166295D02*
X0454878Y0164493D01*
X0453677Y0164493D02*
X0457280Y0164493D01*
X0457280Y0166295D01*
X0456680Y0166895D01*
X0455479Y0166895D01*
X0454878Y0166295D01*
X0457280Y0168176D02*
X0457280Y0170578D01*
X0456680Y0170578D01*
X0521427Y0198543D02*
X0525030Y0198543D01*
X0525030Y0200344D01*
X0524430Y0200945D01*
X0523229Y0200945D01*
X0522628Y0200344D01*
X0522628Y0198543D01*
X0522628Y0199744D02*
X0521427Y0200945D01*
X0522028Y0202226D02*
X0521427Y0202826D01*
X0521427Y0204027D01*
X0522028Y0204628D01*
X0522628Y0204628D01*
X0523229Y0204027D01*
X0523229Y0202226D01*
X0522028Y0202226D01*
X0523229Y0202226D02*
X0524430Y0203427D01*
X0525030Y0204628D01*
X0524430Y0205909D02*
X0525030Y0206509D01*
X0525030Y0207710D01*
X0524430Y0208311D01*
X0523829Y0208311D01*
X0523229Y0207710D01*
X0522628Y0208311D01*
X0522028Y0208311D01*
X0521427Y0207710D01*
X0521427Y0206509D01*
X0522028Y0205909D01*
X0523229Y0207110D02*
X0523229Y0207710D01*
X0522878Y0214293D02*
X0522878Y0216094D01*
X0523479Y0216695D01*
X0524680Y0216695D01*
X0525280Y0216094D01*
X0525280Y0214293D01*
X0521677Y0214293D01*
X0522878Y0215494D02*
X0521677Y0216695D01*
X0522278Y0217976D02*
X0521677Y0218576D01*
X0521677Y0219777D01*
X0522278Y0220378D01*
X0522878Y0220378D01*
X0523479Y0219777D01*
X0523479Y0217976D01*
X0522278Y0217976D01*
X0523479Y0217976D02*
X0524680Y0219177D01*
X0525280Y0220378D01*
X0523479Y0221659D02*
X0523479Y0224061D01*
X0525280Y0223460D02*
X0523479Y0221659D01*
X0525280Y0223460D02*
X0521677Y0223460D01*
X0561614Y0252962D02*
X0561614Y0254763D01*
X0562215Y0255364D01*
X0564617Y0255364D01*
X0565217Y0254763D01*
X0565217Y0252962D01*
X0561614Y0252962D01*
X0561614Y0256645D02*
X0564016Y0259047D01*
X0564617Y0259047D01*
X0565217Y0258446D01*
X0565217Y0257245D01*
X0564617Y0256645D01*
X0561614Y0256645D02*
X0561614Y0259047D01*
X0561614Y0260328D02*
X0561614Y0262730D01*
X0561614Y0261529D02*
X0565217Y0261529D01*
X0564016Y0260328D01*
X0568927Y0260210D02*
X0569528Y0260811D01*
X0571930Y0260811D01*
X0572530Y0260210D01*
X0572530Y0259009D01*
X0571930Y0258409D01*
X0571329Y0258409D01*
X0570729Y0259009D01*
X0570729Y0260811D01*
X0568927Y0260210D02*
X0568927Y0259009D01*
X0569528Y0258409D01*
X0569528Y0257128D02*
X0568927Y0256527D01*
X0568927Y0255326D01*
X0569528Y0254726D01*
X0570729Y0254726D02*
X0571329Y0255927D01*
X0571329Y0256527D01*
X0570729Y0257128D01*
X0569528Y0257128D01*
X0570729Y0254726D02*
X0572530Y0254726D01*
X0572530Y0257128D01*
X0571930Y0253445D02*
X0570729Y0253445D01*
X0570128Y0252844D01*
X0570128Y0251043D01*
X0570128Y0252244D02*
X0568927Y0253445D01*
X0568927Y0251043D02*
X0572530Y0251043D01*
X0572530Y0252844D01*
X0571930Y0253445D01*
X0581427Y0260893D02*
X0581427Y0262094D01*
X0582028Y0262695D01*
X0582028Y0263976D02*
X0581427Y0264576D01*
X0581427Y0265777D01*
X0582028Y0266378D01*
X0582628Y0266378D01*
X0583229Y0265777D01*
X0583229Y0263976D01*
X0582028Y0263976D01*
X0583229Y0263976D02*
X0584430Y0265177D01*
X0585030Y0266378D01*
X0584430Y0267659D02*
X0585030Y0268259D01*
X0585030Y0269460D01*
X0584430Y0270061D01*
X0583829Y0270061D01*
X0581427Y0267659D01*
X0581427Y0270061D01*
X0584430Y0262695D02*
X0585030Y0262094D01*
X0585030Y0260893D01*
X0584430Y0260293D01*
X0582028Y0260293D01*
X0581427Y0260893D01*
X0589427Y0260659D02*
X0589427Y0263061D01*
X0589427Y0261860D02*
X0593030Y0261860D01*
X0591829Y0260659D01*
X0590628Y0259378D02*
X0591229Y0258777D01*
X0591229Y0256976D01*
X0590028Y0256976D01*
X0589427Y0257576D01*
X0589427Y0258777D01*
X0590028Y0259378D01*
X0590628Y0259378D01*
X0592430Y0258177D02*
X0591229Y0256976D01*
X0592430Y0258177D02*
X0593030Y0259378D01*
X0592430Y0255695D02*
X0593030Y0255094D01*
X0593030Y0253893D01*
X0592430Y0253293D01*
X0590028Y0253293D01*
X0589427Y0253893D01*
X0589427Y0255094D01*
X0590028Y0255695D01*
X0606677Y0249960D02*
X0606677Y0248759D01*
X0607278Y0248159D01*
X0609680Y0250561D01*
X0607278Y0250561D01*
X0606677Y0249960D01*
X0607278Y0248159D02*
X0609680Y0248159D01*
X0610280Y0248759D01*
X0610280Y0249960D01*
X0609680Y0250561D01*
X0610280Y0246878D02*
X0609680Y0245677D01*
X0608479Y0244476D01*
X0608479Y0246277D01*
X0607878Y0246878D01*
X0607278Y0246878D01*
X0606677Y0246277D01*
X0606677Y0245076D01*
X0607278Y0244476D01*
X0608479Y0244476D01*
X0608479Y0243195D02*
X0607878Y0242594D01*
X0607878Y0240793D01*
X0607878Y0241994D02*
X0606677Y0243195D01*
X0608479Y0243195D02*
X0609680Y0243195D01*
X0610280Y0242594D01*
X0610280Y0240793D01*
X0606677Y0240793D01*
X0604927Y0227061D02*
X0604927Y0224659D01*
X0604927Y0225860D02*
X0608530Y0225860D01*
X0607329Y0224659D01*
X0606128Y0223378D02*
X0606729Y0222777D01*
X0606729Y0220976D01*
X0605528Y0220976D01*
X0604927Y0221576D01*
X0604927Y0222777D01*
X0605528Y0223378D01*
X0606128Y0223378D01*
X0607930Y0222177D02*
X0608530Y0223378D01*
X0607930Y0222177D02*
X0606729Y0220976D01*
X0606729Y0219695D02*
X0606128Y0219094D01*
X0606128Y0217293D01*
X0606128Y0218494D02*
X0604927Y0219695D01*
X0606729Y0219695D02*
X0607930Y0219695D01*
X0608530Y0219094D01*
X0608530Y0217293D01*
X0604927Y0217293D01*
X0575930Y0187511D02*
X0576530Y0186911D01*
X0576530Y0185710D01*
X0575930Y0185109D01*
X0576530Y0183828D02*
X0575930Y0182627D01*
X0574729Y0181426D01*
X0574729Y0183228D01*
X0574128Y0183828D01*
X0573528Y0183828D01*
X0572927Y0183228D01*
X0572927Y0182027D01*
X0573528Y0181426D01*
X0574729Y0181426D01*
X0574729Y0180145D02*
X0574128Y0179545D01*
X0574128Y0177743D01*
X0572927Y0177743D02*
X0576530Y0177743D01*
X0576530Y0179545D01*
X0575930Y0180145D01*
X0574729Y0180145D01*
X0574128Y0178944D02*
X0572927Y0180145D01*
X0569843Y0180308D02*
X0569843Y0179107D01*
X0569243Y0178507D01*
X0569243Y0177226D02*
X0569843Y0176625D01*
X0569843Y0174824D01*
X0566240Y0174824D01*
X0566240Y0176625D01*
X0566841Y0177226D01*
X0569243Y0177226D01*
X0569843Y0180308D02*
X0569243Y0180909D01*
X0568642Y0180909D01*
X0566240Y0178507D01*
X0566240Y0180909D01*
X0566240Y0182190D02*
X0568642Y0184592D01*
X0569243Y0184592D01*
X0569843Y0183992D01*
X0569843Y0182791D01*
X0569243Y0182190D01*
X0566240Y0182190D02*
X0566240Y0184592D01*
X0572927Y0185109D02*
X0575329Y0187511D01*
X0575930Y0187511D01*
X0572927Y0187511D02*
X0572927Y0185109D01*
X0604759Y0175795D02*
X0604759Y0175195D01*
X0605359Y0174594D01*
X0606560Y0174594D01*
X0607161Y0175195D01*
X0607161Y0175795D01*
X0606560Y0176396D01*
X0605359Y0176396D01*
X0604759Y0175795D01*
X0605359Y0174594D02*
X0604759Y0173994D01*
X0604759Y0173393D01*
X0605359Y0172793D01*
X0606560Y0172793D01*
X0607161Y0173393D01*
X0607161Y0173994D01*
X0606560Y0174594D01*
X0608442Y0174594D02*
X0608442Y0173393D01*
X0609042Y0172793D01*
X0610243Y0172793D01*
X0610844Y0173393D01*
X0610844Y0174594D02*
X0609643Y0175195D01*
X0609042Y0175195D01*
X0608442Y0174594D01*
X0608442Y0176396D02*
X0610844Y0176396D01*
X0610844Y0174594D01*
X0612125Y0173393D02*
X0612725Y0172793D01*
X0613927Y0172793D01*
X0614527Y0173393D01*
X0614527Y0175795D01*
X0613927Y0176396D01*
X0612725Y0176396D01*
X0612125Y0175795D01*
X0611125Y0117146D02*
X0613527Y0113543D01*
X0611125Y0113543D02*
X0613527Y0117146D01*
X0609844Y0116545D02*
X0609243Y0117146D01*
X0608042Y0117146D01*
X0607442Y0116545D01*
X0607442Y0115945D01*
X0608042Y0115344D01*
X0607442Y0114744D01*
X0607442Y0114143D01*
X0608042Y0113543D01*
X0609243Y0113543D01*
X0609844Y0114143D01*
X0608643Y0115344D02*
X0608042Y0115344D01*
X0602478Y0115344D02*
X0602478Y0114143D01*
X0601877Y0113543D01*
X0600076Y0113543D01*
X0598794Y0114143D02*
X0598194Y0113543D01*
X0596993Y0113543D01*
X0596392Y0114143D01*
X0596392Y0115344D01*
X0596993Y0115945D01*
X0598194Y0115945D01*
X0598794Y0115344D01*
X0598794Y0114143D01*
X0600076Y0115945D02*
X0601877Y0115945D01*
X0602478Y0115344D01*
X0595111Y0115945D02*
X0595111Y0113543D01*
X0595111Y0115945D02*
X0593310Y0115945D01*
X0592709Y0115344D01*
X0592709Y0113543D01*
X0591428Y0113543D02*
X0591428Y0115945D01*
X0589627Y0115945D01*
X0589026Y0115344D01*
X0589026Y0113543D01*
X0587745Y0114143D02*
X0587745Y0115344D01*
X0587145Y0115945D01*
X0585943Y0115945D01*
X0585343Y0115344D01*
X0585343Y0114744D01*
X0587745Y0114744D01*
X0587745Y0114143D02*
X0587145Y0113543D01*
X0585943Y0113543D01*
X0584062Y0114143D02*
X0584062Y0115344D01*
X0583461Y0115945D01*
X0581660Y0115945D01*
X0580379Y0115945D02*
X0579178Y0115945D01*
X0579778Y0116545D02*
X0579778Y0114143D01*
X0579178Y0113543D01*
X0577923Y0114143D02*
X0577923Y0115344D01*
X0577323Y0115945D01*
X0576122Y0115945D01*
X0575521Y0115344D01*
X0575521Y0114143D01*
X0576122Y0113543D01*
X0577323Y0113543D01*
X0577923Y0114143D01*
X0574240Y0113543D02*
X0574240Y0115945D01*
X0573039Y0115945D02*
X0572439Y0115945D01*
X0573039Y0115945D02*
X0574240Y0114744D01*
X0581660Y0113543D02*
X0583461Y0113543D01*
X0584062Y0114143D01*
X0583428Y0108646D02*
X0581026Y0105043D01*
X0581026Y0108646D01*
X0583428Y0108646D02*
X0583428Y0105043D01*
X0584709Y0105643D02*
X0584709Y0108045D01*
X0585310Y0108646D01*
X0586511Y0108646D01*
X0587111Y0108045D01*
X0587111Y0105643D01*
X0586511Y0105043D01*
X0585310Y0105043D01*
X0584709Y0105643D01*
X0588392Y0105043D02*
X0588392Y0108646D01*
X0589593Y0107445D01*
X0590794Y0108646D01*
X0590794Y0105043D01*
X0592076Y0104442D02*
X0594478Y0104442D01*
X0593877Y0103246D02*
X0593877Y0102646D01*
X0593877Y0101445D02*
X0593877Y0099043D01*
X0593277Y0099043D02*
X0594478Y0099043D01*
X0595759Y0099643D02*
X0596359Y0099043D01*
X0598161Y0099043D01*
X0598161Y0102646D01*
X0596359Y0102646D01*
X0595759Y0102045D01*
X0595759Y0101445D01*
X0596359Y0100844D01*
X0598161Y0100844D01*
X0596359Y0100844D02*
X0595759Y0100244D01*
X0595759Y0099643D01*
X0594478Y0101445D02*
X0593877Y0101445D01*
X0591422Y0101445D02*
X0590221Y0101445D01*
X0589620Y0100844D01*
X0589620Y0099043D01*
X0591422Y0099043D01*
X0592022Y0099643D01*
X0591422Y0100244D01*
X0589620Y0100244D01*
X0588339Y0100844D02*
X0587739Y0101445D01*
X0585937Y0101445D01*
X0586537Y0100244D02*
X0587739Y0100244D01*
X0588339Y0100844D01*
X0588339Y0099043D02*
X0586537Y0099043D01*
X0585937Y0099643D01*
X0586537Y0100244D01*
X0584656Y0100844D02*
X0582254Y0100844D01*
X0583455Y0102045D02*
X0583455Y0099643D01*
X0585937Y0095445D02*
X0587739Y0095445D01*
X0588339Y0094844D01*
X0587739Y0094244D01*
X0586537Y0094244D01*
X0585937Y0093643D01*
X0586537Y0093043D01*
X0588339Y0093043D01*
X0589620Y0093043D02*
X0591422Y0093043D01*
X0592022Y0093643D01*
X0591422Y0094244D01*
X0589620Y0094244D01*
X0589620Y0094844D02*
X0589620Y0093043D01*
X0589620Y0094844D02*
X0590221Y0095445D01*
X0591422Y0095445D01*
X0593877Y0095445D02*
X0593877Y0093043D01*
X0593277Y0093043D02*
X0594478Y0093043D01*
X0595759Y0093643D02*
X0596359Y0093043D01*
X0598161Y0093043D01*
X0598161Y0096646D01*
X0596359Y0096646D01*
X0595759Y0096045D01*
X0595759Y0095445D01*
X0596359Y0094844D01*
X0598161Y0094844D01*
X0596359Y0094844D02*
X0595759Y0094244D01*
X0595759Y0093643D01*
X0594478Y0095445D02*
X0593877Y0095445D01*
X0593877Y0096646D02*
X0593877Y0097246D01*
X0598361Y0091443D02*
X0579945Y0091443D01*
X0581026Y0090646D02*
X0583428Y0090646D01*
X0582227Y0090646D02*
X0582227Y0087043D01*
X0584709Y0087043D02*
X0587111Y0087043D01*
X0587111Y0090646D01*
X0588392Y0090646D02*
X0588392Y0087643D01*
X0588993Y0087043D01*
X0590194Y0087043D01*
X0590794Y0087643D01*
X0590794Y0090646D01*
X0592076Y0089445D02*
X0592076Y0087043D01*
X0592076Y0088844D02*
X0594478Y0088844D01*
X0594478Y0089445D02*
X0593277Y0090646D01*
X0592076Y0089445D01*
X0594478Y0089445D02*
X0594478Y0087043D01*
X0595759Y0084646D02*
X0595759Y0082244D01*
X0596960Y0081043D01*
X0598161Y0082244D01*
X0598161Y0084646D01*
X0598161Y0087043D02*
X0598161Y0090646D01*
X0595759Y0090646D01*
X0596960Y0088844D02*
X0598161Y0088844D01*
X0603125Y0088844D02*
X0605527Y0088844D01*
X0603725Y0090646D01*
X0603725Y0087043D01*
X0603125Y0084646D02*
X0605527Y0084646D01*
X0605527Y0082844D01*
X0604326Y0083445D01*
X0603725Y0083445D01*
X0603125Y0082844D01*
X0603125Y0081643D01*
X0603725Y0081043D01*
X0604927Y0081043D01*
X0605527Y0081643D01*
X0604326Y0078045D02*
X0603125Y0078646D01*
X0604326Y0078045D02*
X0605527Y0076844D01*
X0603725Y0076844D01*
X0603125Y0076244D01*
X0603125Y0075643D01*
X0603725Y0075043D01*
X0604927Y0075043D01*
X0605527Y0075643D01*
X0605527Y0076844D01*
X0605527Y0072646D02*
X0603125Y0072646D01*
X0603125Y0072045D01*
X0605527Y0069643D01*
X0605527Y0069043D01*
X0604927Y0066646D02*
X0603725Y0066646D01*
X0603125Y0066045D01*
X0603125Y0065445D01*
X0603725Y0064844D01*
X0604927Y0064844D01*
X0605527Y0065445D01*
X0605527Y0066045D01*
X0604927Y0066646D01*
X0604927Y0064844D02*
X0605527Y0064244D01*
X0605527Y0063643D01*
X0604927Y0063043D01*
X0603725Y0063043D01*
X0603125Y0063643D01*
X0603125Y0064244D01*
X0603725Y0064844D01*
X0598161Y0064244D02*
X0596359Y0064244D01*
X0595759Y0064844D01*
X0595759Y0066045D01*
X0596359Y0066646D01*
X0598161Y0066646D01*
X0598161Y0063043D01*
X0594478Y0063043D02*
X0594478Y0066646D01*
X0592076Y0066646D01*
X0593277Y0064844D02*
X0594478Y0064844D01*
X0594478Y0063043D02*
X0592076Y0063043D01*
X0596960Y0069043D02*
X0595759Y0070244D01*
X0595759Y0072646D01*
X0594478Y0070844D02*
X0592076Y0070844D01*
X0592076Y0075043D02*
X0592076Y0076844D01*
X0592676Y0077445D01*
X0594478Y0077445D01*
X0594478Y0075043D01*
X0595759Y0075643D02*
X0596359Y0075043D01*
X0597560Y0075043D01*
X0598161Y0075643D01*
X0598161Y0078045D01*
X0597560Y0078646D01*
X0596359Y0078646D01*
X0595759Y0078045D01*
X0595759Y0076844D02*
X0596960Y0076844D01*
X0595759Y0076844D02*
X0595759Y0075643D01*
X0598161Y0072646D02*
X0598161Y0070244D01*
X0596960Y0069043D01*
X0590794Y0075643D02*
X0590194Y0075043D01*
X0588392Y0075043D01*
X0588392Y0078646D01*
X0588392Y0077445D02*
X0590194Y0077445D01*
X0590794Y0076844D01*
X0590794Y0075643D01*
X0593277Y0081643D02*
X0593277Y0084045D01*
X0594478Y0082844D02*
X0592076Y0082844D01*
X0584656Y0094844D02*
X0582254Y0094844D01*
X0595759Y0105643D02*
X0595759Y0108646D01*
X0598161Y0108646D02*
X0598161Y0105643D01*
X0597560Y0105043D01*
X0596359Y0105043D01*
X0595759Y0105643D01*
X0603125Y0105043D02*
X0605527Y0105043D01*
X0604326Y0105043D02*
X0604326Y0108646D01*
X0605527Y0107445D01*
X0604927Y0102646D02*
X0605527Y0102045D01*
X0604927Y0102646D02*
X0603725Y0102646D01*
X0603125Y0102045D01*
X0603125Y0101445D01*
X0605527Y0099043D01*
X0603125Y0099043D01*
X0603725Y0096646D02*
X0603125Y0096045D01*
X0603125Y0095445D01*
X0603725Y0094844D01*
X0603125Y0094244D01*
X0603125Y0093643D01*
X0603725Y0093043D01*
X0604927Y0093043D01*
X0605527Y0093643D01*
X0604326Y0094844D02*
X0603725Y0094844D01*
X0603725Y0096646D02*
X0604927Y0096646D01*
X0605527Y0096045D01*
X0495996Y0107606D02*
X0493594Y0107606D01*
X0492313Y0107606D02*
X0490511Y0107606D01*
X0489911Y0108206D01*
X0489911Y0110608D01*
X0490511Y0111209D01*
X0492313Y0111209D01*
X0492313Y0107606D01*
X0493594Y0110608D02*
X0495996Y0108206D01*
X0495996Y0107606D01*
X0495996Y0111209D02*
X0493594Y0111209D01*
X0493594Y0110608D01*
X0488629Y0110608D02*
X0488029Y0111209D01*
X0486828Y0111209D01*
X0486227Y0110608D01*
X0486227Y0110008D01*
X0486828Y0109407D01*
X0486227Y0108807D01*
X0486227Y0108206D01*
X0486828Y0107606D01*
X0488029Y0107606D01*
X0488629Y0108206D01*
X0487428Y0109407D02*
X0486828Y0109407D01*
X0485360Y0103646D02*
X0485960Y0103045D01*
X0485960Y0102445D01*
X0485360Y0101844D01*
X0483558Y0101844D01*
X0483558Y0100643D02*
X0483558Y0103045D01*
X0484159Y0103646D01*
X0485360Y0103646D01*
X0485960Y0100643D02*
X0485360Y0100043D01*
X0484159Y0100043D01*
X0483558Y0100643D01*
X0487241Y0100043D02*
X0489643Y0100043D01*
X0488442Y0100043D02*
X0488442Y0103646D01*
X0489643Y0102445D01*
X0490924Y0103045D02*
X0490924Y0101844D01*
X0491525Y0101244D01*
X0493326Y0101244D01*
X0492125Y0101244D02*
X0490924Y0100043D01*
X0493326Y0100043D02*
X0493326Y0103646D01*
X0491525Y0103646D01*
X0490924Y0103045D01*
X0489442Y0095646D02*
X0489442Y0092043D01*
X0490643Y0092043D02*
X0488241Y0092043D01*
X0486960Y0092643D02*
X0486360Y0092043D01*
X0485159Y0092043D01*
X0484558Y0092643D01*
X0484558Y0093844D01*
X0485159Y0094445D01*
X0485759Y0094445D01*
X0486960Y0093844D01*
X0486960Y0095646D01*
X0484558Y0095646D01*
X0489442Y0095646D02*
X0490643Y0094445D01*
X0491924Y0095045D02*
X0491924Y0093844D01*
X0492525Y0093244D01*
X0494326Y0093244D01*
X0493125Y0093244D02*
X0491924Y0092043D01*
X0494326Y0092043D02*
X0494326Y0095646D01*
X0492525Y0095646D01*
X0491924Y0095045D01*
X0526927Y0266993D02*
X0530530Y0266993D01*
X0530530Y0268795D01*
X0529930Y0269395D01*
X0528729Y0269395D01*
X0528128Y0268795D01*
X0528128Y0266993D01*
X0528128Y0268194D02*
X0526927Y0269395D01*
X0527528Y0270676D02*
X0526927Y0271277D01*
X0526927Y0272478D01*
X0527528Y0273078D01*
X0528729Y0273078D01*
X0529329Y0272478D01*
X0529329Y0271877D01*
X0528729Y0270676D01*
X0530530Y0270676D01*
X0530530Y0273078D01*
X0530530Y0274359D02*
X0530530Y0276761D01*
X0529930Y0276761D01*
X0527528Y0274359D01*
X0526927Y0274359D01*
X0526927Y0282493D02*
X0530530Y0282493D01*
X0530530Y0284295D01*
X0529930Y0284895D01*
X0528729Y0284895D01*
X0528128Y0284295D01*
X0528128Y0282493D01*
X0528128Y0283694D02*
X0526927Y0284895D01*
X0527528Y0286176D02*
X0526927Y0286777D01*
X0526927Y0287978D01*
X0527528Y0288578D01*
X0528729Y0288578D01*
X0529329Y0287978D01*
X0529329Y0287377D01*
X0528729Y0286176D01*
X0530530Y0286176D01*
X0530530Y0288578D01*
X0529930Y0289859D02*
X0529329Y0289859D01*
X0528729Y0290460D01*
X0528729Y0291661D01*
X0528128Y0292261D01*
X0527528Y0292261D01*
X0526927Y0291661D01*
X0526927Y0290460D01*
X0527528Y0289859D01*
X0528128Y0289859D01*
X0528729Y0290460D01*
X0528729Y0291661D02*
X0529329Y0292261D01*
X0529930Y0292261D01*
X0530530Y0291661D01*
X0530530Y0290460D01*
X0529930Y0289859D01*
X0602177Y0326393D02*
X0602177Y0327594D01*
X0602778Y0328195D01*
X0602778Y0329476D02*
X0602177Y0330076D01*
X0602177Y0331277D01*
X0602778Y0331878D01*
X0603979Y0331878D01*
X0604579Y0331277D01*
X0604579Y0330677D01*
X0603979Y0329476D01*
X0605780Y0329476D01*
X0605780Y0331878D01*
X0603979Y0333159D02*
X0603979Y0335561D01*
X0605780Y0334960D02*
X0603979Y0333159D01*
X0605780Y0334960D02*
X0602177Y0334960D01*
X0605180Y0328195D02*
X0605780Y0327594D01*
X0605780Y0326393D01*
X0605180Y0325793D01*
X0602778Y0325793D01*
X0602177Y0326393D01*
X0630528Y0297011D02*
X0629927Y0296411D01*
X0629927Y0295210D01*
X0630528Y0294609D01*
X0631729Y0294609D02*
X0632329Y0295810D01*
X0632329Y0296411D01*
X0631729Y0297011D01*
X0630528Y0297011D01*
X0631729Y0294609D02*
X0633530Y0294609D01*
X0633530Y0297011D01*
X0633530Y0293328D02*
X0633530Y0290926D01*
X0631729Y0290926D01*
X0632329Y0292127D01*
X0632329Y0292728D01*
X0631729Y0293328D01*
X0630528Y0293328D01*
X0629927Y0292728D01*
X0629927Y0291527D01*
X0630528Y0290926D01*
X0629927Y0289645D02*
X0631128Y0288444D01*
X0631128Y0289045D02*
X0631128Y0287243D01*
X0629927Y0287243D02*
X0633530Y0287243D01*
X0633530Y0289045D01*
X0632930Y0289645D01*
X0631729Y0289645D01*
X0631128Y0289045D01*
X0167530Y0265816D02*
X0167530Y0263414D01*
X0163927Y0263414D01*
X0163927Y0265816D01*
X0165729Y0264615D02*
X0165729Y0263414D01*
X0166930Y0262133D02*
X0167530Y0261532D01*
X0167530Y0259731D01*
X0163927Y0259731D01*
X0163927Y0261532D01*
X0164528Y0262133D01*
X0166930Y0262133D01*
X0167530Y0258476D02*
X0167530Y0257275D01*
X0167530Y0257876D02*
X0163927Y0257876D01*
X0163927Y0258476D02*
X0163927Y0257275D01*
X0164528Y0255994D02*
X0163927Y0255393D01*
X0163927Y0254192D01*
X0164528Y0253592D01*
X0165729Y0254192D02*
X0166329Y0253592D01*
X0166930Y0253592D01*
X0167530Y0254192D01*
X0167530Y0255393D01*
X0166930Y0255994D01*
X0165729Y0255393D02*
X0165128Y0255994D01*
X0164528Y0255994D01*
X0165729Y0255393D02*
X0165729Y0254192D01*
X0165729Y0252311D02*
X0165729Y0249909D01*
X0166930Y0248628D02*
X0167530Y0248027D01*
X0167530Y0246826D01*
X0166930Y0246226D01*
X0164528Y0246226D01*
X0163927Y0246826D01*
X0163927Y0248027D01*
X0164528Y0248628D01*
X0166930Y0248628D01*
X0163927Y0244945D02*
X0163927Y0242543D01*
X0167530Y0242543D01*
X0142777Y0205146D02*
X0140975Y0205146D01*
X0140375Y0204545D01*
X0140375Y0203344D01*
X0140975Y0202744D01*
X0142777Y0202744D01*
X0141576Y0202744D02*
X0140375Y0201543D01*
X0139094Y0202143D02*
X0138493Y0201543D01*
X0137292Y0201543D01*
X0136692Y0202143D01*
X0136692Y0202744D01*
X0137292Y0203344D01*
X0137893Y0203344D01*
X0137292Y0203344D02*
X0136692Y0203945D01*
X0136692Y0204545D01*
X0137292Y0205146D01*
X0138493Y0205146D01*
X0139094Y0204545D01*
X0142777Y0205146D02*
X0142777Y0201543D01*
X0135411Y0201543D02*
X0135411Y0202143D01*
X0133009Y0204545D01*
X0133009Y0205146D01*
X0135411Y0205146D01*
X0127108Y0195583D02*
X0124706Y0195583D01*
X0124706Y0194982D01*
X0127108Y0192580D01*
X0127108Y0191980D01*
X0124706Y0191980D01*
X0123425Y0191980D02*
X0121623Y0191980D01*
X0121023Y0192580D01*
X0121023Y0194982D01*
X0121623Y0195583D01*
X0123425Y0195583D01*
X0123425Y0191980D01*
X0119741Y0193781D02*
X0117940Y0195583D01*
X0117940Y0191980D01*
X0117339Y0193781D02*
X0119741Y0193781D01*
X0149509Y0194344D02*
X0149509Y0193143D01*
X0150109Y0192543D01*
X0151310Y0192543D01*
X0151911Y0193143D01*
X0151911Y0194344D02*
X0150710Y0194945D01*
X0150109Y0194945D01*
X0149509Y0194344D01*
X0149509Y0196146D02*
X0151911Y0196146D01*
X0151911Y0194344D01*
X0153192Y0193744D02*
X0153192Y0193143D01*
X0153792Y0192543D01*
X0154993Y0192543D01*
X0155594Y0193143D01*
X0156875Y0193143D02*
X0157475Y0192543D01*
X0158677Y0192543D01*
X0159277Y0193143D01*
X0159277Y0195545D01*
X0158677Y0196146D01*
X0157475Y0196146D01*
X0156875Y0195545D01*
X0155594Y0195545D02*
X0154993Y0196146D01*
X0153792Y0196146D01*
X0153192Y0195545D01*
X0153192Y0194945D01*
X0153792Y0194344D01*
X0153192Y0193744D01*
X0153792Y0194344D02*
X0154393Y0194344D01*
X0162278Y0186811D02*
X0162878Y0186811D01*
X0163479Y0186210D01*
X0163479Y0184409D01*
X0162278Y0184409D01*
X0161677Y0185009D01*
X0161677Y0186210D01*
X0162278Y0186811D01*
X0164680Y0185610D02*
X0165280Y0186811D01*
X0164680Y0185610D02*
X0163479Y0184409D01*
X0164079Y0183128D02*
X0163479Y0182527D01*
X0162878Y0183128D01*
X0162278Y0183128D01*
X0161677Y0182527D01*
X0161677Y0181326D01*
X0162278Y0180726D01*
X0162278Y0179445D02*
X0161677Y0178844D01*
X0161677Y0177643D01*
X0162278Y0177043D01*
X0164680Y0177043D01*
X0165280Y0177643D01*
X0165280Y0178844D01*
X0164680Y0179445D01*
X0164680Y0180726D02*
X0165280Y0181326D01*
X0165280Y0182527D01*
X0164680Y0183128D01*
X0164079Y0183128D01*
X0163479Y0182527D02*
X0163479Y0181927D01*
X0158177Y0170646D02*
X0158777Y0170045D01*
X0158777Y0167643D01*
X0158177Y0167043D01*
X0156975Y0167043D01*
X0156375Y0167643D01*
X0155094Y0167643D02*
X0154493Y0167043D01*
X0153292Y0167043D01*
X0152692Y0167643D01*
X0152692Y0168244D01*
X0153292Y0168844D01*
X0153893Y0168844D01*
X0153292Y0168844D02*
X0152692Y0169445D01*
X0152692Y0170045D01*
X0153292Y0170646D01*
X0154493Y0170646D01*
X0155094Y0170045D01*
X0156375Y0170045D02*
X0156975Y0170646D01*
X0158177Y0170646D01*
X0151411Y0170646D02*
X0149009Y0170646D01*
X0149009Y0170045D01*
X0151411Y0167643D01*
X0151411Y0167043D01*
X0163677Y0146588D02*
X0163677Y0144186D01*
X0167280Y0144186D01*
X0167280Y0146588D01*
X0165479Y0145387D02*
X0165479Y0144186D01*
X0166680Y0142905D02*
X0167280Y0142304D01*
X0167280Y0140503D01*
X0163677Y0140503D01*
X0163677Y0142304D01*
X0164278Y0142905D01*
X0166680Y0142905D01*
X0167280Y0139248D02*
X0167280Y0138047D01*
X0167280Y0138648D02*
X0163677Y0138648D01*
X0163677Y0139248D02*
X0163677Y0138047D01*
X0164278Y0136766D02*
X0163677Y0136166D01*
X0163677Y0134965D01*
X0164278Y0134364D01*
X0165479Y0134965D02*
X0166079Y0134364D01*
X0166680Y0134364D01*
X0167280Y0134965D01*
X0167280Y0136166D01*
X0166680Y0136766D01*
X0165479Y0136166D02*
X0164878Y0136766D01*
X0164278Y0136766D01*
X0165479Y0136166D02*
X0165479Y0134965D01*
X0165479Y0133083D02*
X0165479Y0130681D01*
X0167280Y0129427D02*
X0167280Y0128226D01*
X0167280Y0128826D02*
X0163677Y0128826D01*
X0163677Y0128226D02*
X0163677Y0129427D01*
X0163677Y0126945D02*
X0167280Y0126945D01*
X0165479Y0126945D02*
X0165479Y0124543D01*
X0167280Y0124543D02*
X0163677Y0124543D01*
X0153826Y0131793D02*
X0153826Y0135396D01*
X0152025Y0135396D01*
X0151424Y0134795D01*
X0151424Y0133594D01*
X0152025Y0132994D01*
X0153826Y0132994D01*
X0152625Y0132994D02*
X0151424Y0131793D01*
X0150143Y0131793D02*
X0147741Y0134195D01*
X0147741Y0134795D01*
X0148342Y0135396D01*
X0149543Y0135396D01*
X0150143Y0134795D01*
X0150143Y0131793D02*
X0147741Y0131793D01*
X0146460Y0133594D02*
X0144659Y0135396D01*
X0144659Y0131793D01*
X0144058Y0133594D02*
X0146460Y0133594D01*
X0153178Y0112459D02*
X0153178Y0108856D01*
X0154379Y0108856D02*
X0151977Y0108856D01*
X0154379Y0111258D02*
X0153178Y0112459D01*
X0156862Y0112459D02*
X0156862Y0108856D01*
X0158063Y0108856D02*
X0155661Y0108856D01*
X0158063Y0111258D02*
X0156862Y0112459D01*
X0159344Y0111858D02*
X0159944Y0112459D01*
X0161746Y0112459D01*
X0161746Y0108856D01*
X0159944Y0108856D01*
X0159344Y0109456D01*
X0159344Y0111858D01*
X0113826Y0114543D02*
X0112025Y0114543D01*
X0111424Y0115143D01*
X0111424Y0117545D01*
X0112025Y0118146D01*
X0113826Y0118146D01*
X0113826Y0114543D01*
X0110143Y0114543D02*
X0107741Y0114543D01*
X0108942Y0114543D02*
X0108942Y0118146D01*
X0110143Y0116945D01*
X0106460Y0117545D02*
X0105860Y0118146D01*
X0104659Y0118146D01*
X0104058Y0117545D01*
X0106460Y0115143D01*
X0105860Y0114543D01*
X0104659Y0114543D01*
X0104058Y0115143D01*
X0104058Y0117545D01*
X0106460Y0117545D02*
X0106460Y0115143D01*
X0108427Y0123243D02*
X0112030Y0123243D01*
X0112030Y0125045D01*
X0111430Y0125645D01*
X0110229Y0125645D01*
X0109628Y0125045D01*
X0109628Y0123243D01*
X0109628Y0124444D02*
X0108427Y0125645D01*
X0108427Y0126926D02*
X0110829Y0129328D01*
X0111430Y0129328D01*
X0112030Y0128728D01*
X0112030Y0127527D01*
X0111430Y0126926D01*
X0108427Y0126926D02*
X0108427Y0129328D01*
X0109028Y0130609D02*
X0108427Y0131210D01*
X0108427Y0132411D01*
X0109028Y0133011D01*
X0110229Y0133011D01*
X0110829Y0132411D01*
X0110829Y0131810D01*
X0110229Y0130609D01*
X0112030Y0130609D01*
X0112030Y0133011D01*
X0104030Y0133261D02*
X0104030Y0130859D01*
X0103430Y0129578D02*
X0104030Y0128978D01*
X0104030Y0127777D01*
X0103430Y0127176D01*
X0103430Y0125895D02*
X0102229Y0125895D01*
X0101628Y0125295D01*
X0101628Y0123493D01*
X0100427Y0123493D02*
X0104030Y0123493D01*
X0104030Y0125295D01*
X0103430Y0125895D01*
X0101628Y0124694D02*
X0100427Y0125895D01*
X0100427Y0127176D02*
X0102829Y0129578D01*
X0103430Y0129578D01*
X0101028Y0130859D02*
X0103430Y0133261D01*
X0104030Y0133261D01*
X0101028Y0130859D02*
X0100427Y0130859D01*
X0100427Y0129578D02*
X0100427Y0127176D01*
X0092945Y0263535D02*
X0092945Y0267138D01*
X0091143Y0267138D01*
X0090542Y0266537D01*
X0090542Y0265336D01*
X0091143Y0264736D01*
X0092945Y0264736D01*
X0091743Y0264736D02*
X0090542Y0263535D01*
X0089261Y0263535D02*
X0086859Y0263535D01*
X0088060Y0263535D02*
X0088060Y0267138D01*
X0089261Y0265937D01*
X0074445Y0267138D02*
X0074445Y0263535D01*
X0074445Y0264736D02*
X0072643Y0264736D01*
X0072042Y0265336D01*
X0072042Y0266537D01*
X0072643Y0267138D01*
X0074445Y0267138D01*
X0073243Y0264736D02*
X0072042Y0263535D01*
X0070761Y0263535D02*
X0068359Y0265937D01*
X0068359Y0266537D01*
X0068960Y0267138D01*
X0070161Y0267138D01*
X0070761Y0266537D01*
X0070761Y0263535D02*
X0068359Y0263535D01*
D11*
X0061042Y0262455D02*
X0061042Y0253715D01*
X0080514Y0253715D01*
X0080514Y0262455D01*
X0061042Y0262455D01*
X0080542Y0262455D02*
X0080542Y0253715D01*
X0100014Y0253715D01*
X0100014Y0262455D01*
X0080542Y0262455D01*
X0144043Y0299360D02*
X0144043Y0300861D01*
X0145544Y0302362D01*
X0147896Y0302362D02*
X0150148Y0300110D01*
X0147145Y0300110D01*
X0147896Y0297858D02*
X0147896Y0302362D01*
X0151749Y0301611D02*
X0152500Y0302362D01*
X0154752Y0302362D01*
X0154752Y0297858D01*
X0152500Y0297858D01*
X0151749Y0298609D01*
X0151749Y0299360D01*
X0152500Y0300110D01*
X0154752Y0300110D01*
X0156353Y0300110D02*
X0159356Y0300110D01*
X0157104Y0302362D01*
X0157104Y0297858D01*
X0160941Y0300861D02*
X0161691Y0300861D01*
X0163192Y0299360D01*
X0163192Y0300861D02*
X0163192Y0297858D01*
X0169398Y0298609D02*
X0170148Y0297858D01*
X0171650Y0297858D01*
X0172400Y0298609D01*
X0172400Y0299360D01*
X0171650Y0300110D01*
X0170148Y0300110D01*
X0169398Y0299360D01*
X0169398Y0298609D01*
X0170148Y0300110D02*
X0169398Y0300861D01*
X0169398Y0301611D01*
X0170148Y0302362D01*
X0171650Y0302362D01*
X0172400Y0301611D01*
X0172400Y0300861D01*
X0171650Y0300110D01*
X0174002Y0297858D02*
X0177004Y0297858D01*
X0175503Y0297858D02*
X0175503Y0302362D01*
X0177004Y0300861D01*
X0178606Y0301611D02*
X0181608Y0298609D01*
X0180858Y0297858D01*
X0179356Y0297858D01*
X0178606Y0298609D01*
X0178606Y0301611D01*
X0179356Y0302362D01*
X0180858Y0302362D01*
X0181608Y0301611D01*
X0181608Y0298609D01*
X0183210Y0297858D02*
X0186212Y0297858D01*
X0183210Y0300861D01*
X0183210Y0301611D01*
X0183960Y0302362D01*
X0185461Y0302362D01*
X0186212Y0301611D01*
X0187813Y0302362D02*
X0190816Y0297858D01*
X0192417Y0298609D02*
X0192417Y0301611D01*
X0193168Y0302362D01*
X0194669Y0302362D01*
X0195420Y0301611D01*
X0195420Y0300861D01*
X0194669Y0300110D01*
X0192417Y0300110D01*
X0192417Y0298609D02*
X0193168Y0297858D01*
X0194669Y0297858D01*
X0195420Y0298609D01*
X0197021Y0298609D02*
X0197772Y0297858D01*
X0199273Y0297858D01*
X0200024Y0298609D01*
X0197021Y0301611D01*
X0197021Y0298609D01*
X0197021Y0301611D02*
X0197772Y0302362D01*
X0199273Y0302362D01*
X0200024Y0301611D01*
X0200024Y0298609D01*
X0201592Y0297858D02*
X0203093Y0299360D01*
X0203093Y0300861D01*
X0201592Y0302362D01*
X0203093Y0305358D02*
X0200091Y0305358D01*
X0198489Y0305358D02*
X0195487Y0305358D01*
X0193885Y0305358D02*
X0190883Y0305358D01*
X0193885Y0305358D02*
X0193885Y0306109D01*
X0190883Y0309111D01*
X0190883Y0309862D01*
X0193885Y0309862D01*
X0195487Y0309862D02*
X0198489Y0309862D01*
X0198489Y0305358D01*
X0198489Y0307610D02*
X0196988Y0307610D01*
X0200091Y0309862D02*
X0203093Y0309862D01*
X0203093Y0305358D01*
X0203093Y0307610D02*
X0201592Y0307610D01*
X0184677Y0306109D02*
X0183927Y0305358D01*
X0182426Y0305358D01*
X0181675Y0306109D01*
X0180074Y0305358D02*
X0180074Y0309862D01*
X0177071Y0309862D01*
X0178572Y0307610D02*
X0180074Y0307610D01*
X0181675Y0309111D02*
X0182426Y0309862D01*
X0183927Y0309862D01*
X0184677Y0309111D01*
X0184677Y0306109D01*
X0175470Y0307610D02*
X0172467Y0307610D01*
X0170866Y0305358D02*
X0168614Y0305358D01*
X0167863Y0306109D01*
X0167863Y0309111D01*
X0168614Y0309862D01*
X0170866Y0309862D01*
X0170866Y0305358D01*
X0166262Y0305358D02*
X0164760Y0305358D01*
X0165511Y0305358D02*
X0165511Y0309862D01*
X0166262Y0309862D02*
X0164760Y0309862D01*
X0163192Y0309111D02*
X0162442Y0309862D01*
X0160941Y0309862D01*
X0160190Y0309111D01*
X0160190Y0306109D02*
X0160941Y0305358D01*
X0162442Y0305358D01*
X0163192Y0306109D01*
X0163192Y0309111D01*
X0151749Y0301611D02*
X0151749Y0300861D01*
X0152500Y0300110D01*
X0145544Y0297858D02*
X0144043Y0299360D01*
X0247280Y0283927D02*
X0248782Y0283176D01*
X0250283Y0281675D01*
X0248031Y0281675D01*
X0247280Y0280925D01*
X0247280Y0280174D01*
X0248031Y0279423D01*
X0249532Y0279423D01*
X0250283Y0280174D01*
X0250283Y0281675D01*
X0251884Y0279423D02*
X0254887Y0279423D01*
X0253386Y0279423D02*
X0253386Y0283927D01*
X0254887Y0282426D01*
X0256488Y0283176D02*
X0257239Y0283927D01*
X0259491Y0283927D01*
X0259491Y0279423D01*
X0257239Y0279423D01*
X0256488Y0280174D01*
X0256488Y0283176D01*
X0294017Y0282657D02*
X0297019Y0282657D01*
X0294767Y0284909D01*
X0294767Y0280406D01*
X0298621Y0282657D02*
X0301623Y0282657D01*
X0299371Y0284909D01*
X0299371Y0280406D01*
X0303224Y0281156D02*
X0303975Y0280406D01*
X0305476Y0280406D01*
X0306227Y0281156D01*
X0306227Y0284159D01*
X0305476Y0284909D01*
X0303975Y0284909D01*
X0303224Y0284159D01*
X0303225Y0251346D02*
X0304726Y0251346D01*
X0305477Y0250596D01*
X0305477Y0247593D01*
X0304726Y0246843D01*
X0303225Y0246843D01*
X0302474Y0247593D01*
X0300873Y0249094D02*
X0298621Y0251346D01*
X0298621Y0246843D01*
X0297871Y0249094D02*
X0300873Y0249094D01*
X0302474Y0250596D02*
X0303225Y0251346D01*
X0296269Y0250596D02*
X0295519Y0251346D01*
X0294017Y0251346D01*
X0293267Y0250596D01*
X0293267Y0249845D01*
X0294017Y0249094D01*
X0293267Y0248344D01*
X0293267Y0247593D01*
X0294017Y0246843D01*
X0295519Y0246843D01*
X0296269Y0247593D01*
X0294768Y0249094D02*
X0294017Y0249094D01*
X0259727Y0231346D02*
X0259727Y0226843D01*
X0257475Y0226843D01*
X0256724Y0227593D01*
X0256724Y0230596D01*
X0257475Y0231346D01*
X0259727Y0231346D01*
X0255123Y0229845D02*
X0253622Y0231346D01*
X0253622Y0226843D01*
X0255123Y0226843D02*
X0252121Y0226843D01*
X0250519Y0227593D02*
X0249769Y0226843D01*
X0248267Y0226843D01*
X0247517Y0227593D01*
X0247517Y0229094D01*
X0248267Y0229845D01*
X0249018Y0229845D01*
X0250519Y0229094D01*
X0250519Y0231346D01*
X0247517Y0231346D01*
X0249534Y0189234D02*
X0233920Y0189234D01*
X0233920Y0157951D01*
X0249534Y0157951D01*
X0249534Y0189234D01*
X0234034Y0189234D02*
X0218420Y0189234D01*
X0218420Y0157951D01*
X0234034Y0157951D01*
X0234034Y0189234D01*
X0236017Y0156846D02*
X0235267Y0156096D01*
X0235267Y0155345D01*
X0236017Y0154594D01*
X0237519Y0154594D01*
X0238269Y0155345D01*
X0238269Y0156096D01*
X0237519Y0156846D01*
X0236017Y0156846D01*
X0236017Y0154594D02*
X0235267Y0153844D01*
X0235267Y0153093D01*
X0236017Y0152343D01*
X0237519Y0152343D01*
X0238269Y0153093D01*
X0238269Y0153844D01*
X0237519Y0154594D01*
X0239871Y0153844D02*
X0239871Y0153093D01*
X0240621Y0152343D01*
X0242122Y0152343D01*
X0242873Y0153093D01*
X0244474Y0152343D02*
X0245976Y0153844D01*
X0245225Y0153844D02*
X0247477Y0153844D01*
X0247477Y0152343D02*
X0247477Y0156846D01*
X0245225Y0156846D01*
X0244474Y0156096D01*
X0244474Y0154594D01*
X0245225Y0153844D01*
X0242873Y0156096D02*
X0242122Y0156846D01*
X0240621Y0156846D01*
X0239871Y0156096D01*
X0239871Y0155345D01*
X0240621Y0154594D01*
X0239871Y0153844D01*
X0240621Y0154594D02*
X0241372Y0154594D01*
X0231977Y0153844D02*
X0229725Y0153844D01*
X0228974Y0154594D01*
X0228974Y0156096D01*
X0229725Y0156846D01*
X0231977Y0156846D01*
X0231977Y0152343D01*
X0230476Y0153844D02*
X0228974Y0152343D01*
X0227373Y0153093D02*
X0226622Y0152343D01*
X0225121Y0152343D01*
X0224371Y0153093D01*
X0224371Y0153844D01*
X0225121Y0154594D01*
X0225872Y0154594D01*
X0225121Y0154594D02*
X0224371Y0155345D01*
X0224371Y0156096D01*
X0225121Y0156846D01*
X0226622Y0156846D01*
X0227373Y0156096D01*
X0222769Y0156096D02*
X0222769Y0155345D01*
X0222019Y0154594D01*
X0219767Y0154594D01*
X0219767Y0153093D02*
X0219767Y0156096D01*
X0220517Y0156846D01*
X0222019Y0156846D01*
X0222769Y0156096D01*
X0222769Y0153093D02*
X0222019Y0152343D01*
X0220517Y0152343D01*
X0219767Y0153093D01*
X0160776Y0171472D02*
X0160776Y0178213D01*
X0148178Y0178213D01*
X0148178Y0171472D01*
X0160776Y0171472D01*
X0160776Y0178222D02*
X0160776Y0184963D01*
X0148178Y0184963D01*
X0148178Y0178222D01*
X0160776Y0178222D01*
X0160776Y0184972D02*
X0148178Y0184972D01*
X0148178Y0191713D01*
X0160776Y0191713D01*
X0160776Y0184972D01*
X0142097Y0185075D02*
X0142097Y0200610D01*
X0134357Y0200610D01*
X0134357Y0185075D01*
X0142097Y0185075D01*
X0145452Y0165696D02*
X0146953Y0165696D01*
X0147704Y0164946D01*
X0149305Y0164946D02*
X0150056Y0165696D01*
X0151557Y0165696D01*
X0152308Y0164946D01*
X0152308Y0161943D01*
X0151557Y0161193D01*
X0150056Y0161193D01*
X0149305Y0161943D01*
X0147704Y0161193D02*
X0144701Y0164195D01*
X0144701Y0164946D01*
X0145452Y0165696D01*
X0144701Y0161193D02*
X0147704Y0161193D01*
X0153876Y0161193D02*
X0155377Y0161193D01*
X0154626Y0161193D02*
X0154626Y0165696D01*
X0153876Y0165696D02*
X0155377Y0165696D01*
X0114745Y0159463D02*
X0114745Y0151722D01*
X0099209Y0151722D01*
X0099209Y0159463D01*
X0114745Y0159463D01*
X0114597Y0159543D02*
X0114597Y0172142D01*
X0107857Y0172142D01*
X0107857Y0159543D01*
X0114597Y0159543D01*
X0114847Y0149860D02*
X0107107Y0149860D01*
X0107107Y0134325D01*
X0114847Y0134325D01*
X0114847Y0149860D01*
X0107097Y0149860D02*
X0099357Y0149860D01*
X0099357Y0134325D01*
X0107097Y0134325D01*
X0107097Y0149860D01*
X0114745Y0172222D02*
X0099209Y0172222D01*
X0099209Y0179963D01*
X0114745Y0179963D01*
X0114745Y0172222D01*
X0145607Y0130610D02*
X0145607Y0115075D01*
X0153347Y0115075D01*
X0153347Y0130610D01*
X0145607Y0130610D01*
X0326991Y0129713D02*
X0326991Y0120972D01*
X0346463Y0120972D01*
X0346463Y0129713D01*
X0326991Y0129713D01*
X0346491Y0129713D02*
X0346491Y0120972D01*
X0365963Y0120972D01*
X0365963Y0129713D01*
X0346491Y0129713D01*
X0365959Y0128963D02*
X0365959Y0121222D01*
X0381495Y0121222D01*
X0381495Y0128963D01*
X0365959Y0128963D01*
X0380357Y0119110D02*
X0380357Y0103575D01*
X0388097Y0103575D01*
X0388097Y0119110D01*
X0380357Y0119110D01*
X0388209Y0119213D02*
X0388209Y0111472D01*
X0403745Y0111472D01*
X0403745Y0119213D01*
X0388209Y0119213D01*
X0388107Y0111360D02*
X0395847Y0111360D01*
X0395847Y0095825D01*
X0388107Y0095825D01*
X0388107Y0111360D01*
X0395857Y0111360D02*
X0403597Y0111360D01*
X0403597Y0095825D01*
X0395857Y0095825D01*
X0395857Y0111360D01*
X0379995Y0101963D02*
X0379995Y0094222D01*
X0364459Y0094222D01*
X0364459Y0101963D01*
X0379995Y0101963D01*
X0379995Y0094213D02*
X0364459Y0094213D01*
X0364459Y0086472D01*
X0379995Y0086472D01*
X0379995Y0094213D01*
X0379995Y0086463D02*
X0379995Y0078722D01*
X0364459Y0078722D01*
X0364459Y0086463D01*
X0379995Y0086463D01*
X0380026Y0078713D02*
X0367428Y0078713D01*
X0367428Y0071972D01*
X0380026Y0071972D01*
X0380026Y0078713D01*
X0410723Y0077573D02*
X0411474Y0078323D01*
X0414476Y0078323D01*
X0415227Y0077573D01*
X0415227Y0076071D01*
X0414476Y0075321D01*
X0415227Y0073719D02*
X0415227Y0070717D01*
X0415227Y0072218D02*
X0410723Y0072218D01*
X0412224Y0073719D01*
X0411474Y0075321D02*
X0410723Y0076071D01*
X0410723Y0077573D01*
X0410723Y0079891D02*
X0410723Y0081393D01*
X0410723Y0080642D02*
X0415227Y0080642D01*
X0415227Y0081393D02*
X0415227Y0079891D01*
X0467209Y0090222D02*
X0482745Y0090222D01*
X0482745Y0097963D01*
X0467209Y0097963D01*
X0467209Y0090222D01*
X0467209Y0097972D02*
X0467209Y0105713D01*
X0482745Y0105713D01*
X0482745Y0097972D01*
X0467209Y0097972D01*
X0465847Y0162325D02*
X0458107Y0162325D01*
X0458107Y0177860D01*
X0465847Y0177860D01*
X0465847Y0162325D01*
X0465847Y0177825D02*
X0458107Y0177825D01*
X0458107Y0193360D01*
X0465847Y0193360D01*
X0465847Y0177825D01*
X0526085Y0197035D02*
X0526085Y0212650D01*
X0557369Y0212650D01*
X0557369Y0197035D01*
X0526085Y0197035D01*
X0526085Y0212535D02*
X0526085Y0228150D01*
X0557369Y0228150D01*
X0557369Y0212535D01*
X0526085Y0212535D01*
X0563301Y0219343D02*
X0564052Y0218593D01*
X0565553Y0218593D01*
X0566304Y0219343D01*
X0566304Y0220844D02*
X0564803Y0221595D01*
X0564052Y0221595D01*
X0563301Y0220844D01*
X0563301Y0219343D01*
X0566304Y0220844D02*
X0566304Y0223096D01*
X0563301Y0223096D01*
X0567905Y0222346D02*
X0568656Y0223096D01*
X0570157Y0223096D01*
X0570908Y0222346D01*
X0570908Y0219343D01*
X0570157Y0218593D01*
X0568656Y0218593D01*
X0567905Y0219343D01*
X0572476Y0218593D02*
X0573977Y0218593D01*
X0573226Y0218593D02*
X0573226Y0223096D01*
X0572476Y0223096D02*
X0573977Y0223096D01*
X0574847Y0234575D02*
X0567107Y0234575D01*
X0567107Y0250110D01*
X0574847Y0250110D01*
X0574847Y0234575D01*
X0578607Y0239856D02*
X0587847Y0239856D01*
X0587847Y0259329D01*
X0578607Y0259329D01*
X0578607Y0239856D01*
X0587857Y0239793D02*
X0594597Y0239793D01*
X0594597Y0252392D01*
X0587857Y0252392D01*
X0587857Y0239793D01*
X0597857Y0236825D02*
X0605597Y0236825D01*
X0605597Y0252360D01*
X0597857Y0252360D01*
X0597857Y0236825D01*
X0596357Y0228860D02*
X0604097Y0228860D01*
X0604097Y0213325D01*
X0596357Y0213325D01*
X0596357Y0228860D01*
X0607410Y0213659D02*
X0608912Y0212909D01*
X0610413Y0211407D01*
X0608161Y0211407D01*
X0607410Y0210657D01*
X0607410Y0209906D01*
X0608161Y0209156D01*
X0609662Y0209156D01*
X0610413Y0209906D01*
X0610413Y0211407D01*
X0612014Y0209906D02*
X0612014Y0212909D01*
X0612765Y0213659D01*
X0615017Y0213659D01*
X0615017Y0209156D01*
X0612765Y0209156D01*
X0612014Y0209906D01*
X0616618Y0209156D02*
X0619621Y0209156D01*
X0619621Y0209906D01*
X0616618Y0212909D01*
X0616618Y0213659D01*
X0619621Y0213659D01*
X0621713Y0199463D02*
X0602241Y0199463D01*
X0602241Y0190222D01*
X0621713Y0190222D01*
X0621713Y0199463D01*
X0601289Y0195846D02*
X0601289Y0192843D01*
X0600538Y0192093D01*
X0599037Y0192093D01*
X0598286Y0192843D01*
X0596685Y0192843D02*
X0595934Y0192093D01*
X0594433Y0192093D01*
X0593682Y0192843D01*
X0593682Y0194344D01*
X0594433Y0195095D01*
X0595184Y0195095D01*
X0596685Y0194344D01*
X0596685Y0196596D01*
X0593682Y0196596D01*
X0592081Y0196596D02*
X0589078Y0196596D01*
X0589078Y0195846D01*
X0592081Y0192843D01*
X0592081Y0192093D01*
X0598286Y0195846D02*
X0599037Y0196596D01*
X0600538Y0196596D01*
X0601289Y0195846D01*
X0579347Y0189825D02*
X0571607Y0189825D01*
X0571607Y0205360D01*
X0579347Y0205360D01*
X0579347Y0189825D01*
X0601959Y0171713D02*
X0601959Y0163972D01*
X0617495Y0163972D01*
X0617495Y0171713D01*
X0601959Y0171713D01*
X0614241Y0262754D02*
X0614241Y0275431D01*
X0633713Y0275431D01*
X0633713Y0262754D01*
X0614241Y0262754D01*
X0614213Y0264472D02*
X0614213Y0273713D01*
X0594741Y0273713D01*
X0594741Y0264472D01*
X0614213Y0264472D01*
X0609538Y0274593D02*
X0608037Y0274593D01*
X0607286Y0275343D01*
X0605685Y0275343D02*
X0604934Y0274593D01*
X0603433Y0274593D01*
X0602682Y0275343D01*
X0602682Y0276844D01*
X0603433Y0277595D01*
X0604184Y0277595D01*
X0605685Y0276844D01*
X0605685Y0279096D01*
X0602682Y0279096D01*
X0601081Y0278346D02*
X0601081Y0277595D01*
X0600330Y0276844D01*
X0598078Y0276844D01*
X0598078Y0275343D02*
X0598078Y0278346D01*
X0598829Y0279096D01*
X0600330Y0279096D01*
X0601081Y0278346D01*
X0601081Y0275343D02*
X0600330Y0274593D01*
X0598829Y0274593D01*
X0598078Y0275343D01*
X0607286Y0278346D02*
X0608037Y0279096D01*
X0609538Y0279096D01*
X0610289Y0278346D01*
X0610289Y0275343D01*
X0609538Y0274593D01*
X0617078Y0276843D02*
X0617078Y0277594D01*
X0617829Y0278344D01*
X0620081Y0278344D01*
X0620081Y0276843D01*
X0619330Y0276093D01*
X0617829Y0276093D01*
X0617078Y0276843D01*
X0618580Y0279846D02*
X0620081Y0278344D01*
X0621682Y0278344D02*
X0621682Y0276843D01*
X0622433Y0276093D01*
X0623934Y0276093D01*
X0624685Y0276843D01*
X0624685Y0278344D02*
X0623184Y0279095D01*
X0622433Y0279095D01*
X0621682Y0278344D01*
X0621682Y0280596D02*
X0624685Y0280596D01*
X0624685Y0278344D01*
X0626286Y0278344D02*
X0627037Y0277594D01*
X0629289Y0277594D01*
X0627788Y0277594D02*
X0626286Y0276093D01*
X0626286Y0278344D02*
X0626286Y0279846D01*
X0627037Y0280596D01*
X0629289Y0280596D01*
X0629289Y0276093D01*
X0618580Y0279846D02*
X0617078Y0280596D01*
X0621107Y0284575D02*
X0628847Y0284575D01*
X0628847Y0300110D01*
X0621107Y0300110D01*
X0621107Y0284575D01*
X0601347Y0320856D02*
X0592107Y0320856D01*
X0592107Y0340329D01*
X0601347Y0340329D01*
X0601347Y0320856D01*
X0562869Y0296400D02*
X0531585Y0296400D01*
X0531585Y0280785D01*
X0562869Y0280785D01*
X0562869Y0296400D01*
X0562869Y0280650D02*
X0531585Y0280650D01*
X0531585Y0265035D01*
X0562869Y0265035D01*
X0562869Y0280650D01*
X0393081Y0238053D02*
X0392330Y0236552D01*
X0390829Y0235050D01*
X0390829Y0237302D01*
X0390078Y0238053D01*
X0389328Y0238053D01*
X0388577Y0237302D01*
X0388577Y0235801D01*
X0389328Y0235050D01*
X0390829Y0235050D01*
X0391580Y0233449D02*
X0392330Y0233449D01*
X0393081Y0232698D01*
X0393081Y0231197D01*
X0392330Y0230446D01*
X0392330Y0228845D02*
X0390829Y0228845D01*
X0390078Y0228094D01*
X0390078Y0225843D01*
X0390078Y0227344D02*
X0388577Y0228845D01*
X0388577Y0230446D02*
X0391580Y0233449D01*
X0388577Y0233449D02*
X0388577Y0230446D01*
X0392330Y0228845D02*
X0393081Y0228094D01*
X0393081Y0225843D01*
X0388577Y0225843D01*
X0387534Y0216234D02*
X0371920Y0216234D01*
X0371920Y0184951D01*
X0387534Y0184951D01*
X0387534Y0216234D01*
X0387534Y0216201D02*
X0371920Y0216201D01*
X0371920Y0247484D01*
X0387534Y0247484D01*
X0387534Y0216201D01*
X0389478Y0207053D02*
X0388727Y0206302D01*
X0388727Y0204801D01*
X0389478Y0204050D01*
X0390228Y0204050D01*
X0390979Y0204801D01*
X0390979Y0206302D01*
X0390228Y0207053D01*
X0389478Y0207053D01*
X0390979Y0206302D02*
X0391730Y0207053D01*
X0392480Y0207053D01*
X0393231Y0206302D01*
X0393231Y0204801D01*
X0392480Y0204050D01*
X0391730Y0204050D01*
X0390979Y0204801D01*
X0391730Y0202449D02*
X0392480Y0202449D01*
X0393231Y0201698D01*
X0393231Y0200197D01*
X0392480Y0199446D01*
X0392480Y0197845D02*
X0390979Y0197845D01*
X0390228Y0197094D01*
X0390228Y0194843D01*
X0390228Y0196344D02*
X0388727Y0197845D01*
X0388727Y0199446D02*
X0391730Y0202449D01*
X0388727Y0202449D02*
X0388727Y0199446D01*
X0392480Y0197845D02*
X0393231Y0197094D01*
X0393231Y0194843D01*
X0388727Y0194843D01*
X0390213Y0251254D02*
X0370741Y0251254D01*
X0370741Y0263931D01*
X0390213Y0263931D01*
X0390213Y0251254D01*
X0385288Y0264843D02*
X0383787Y0264843D01*
X0383036Y0265593D01*
X0381435Y0265593D02*
X0380684Y0264843D01*
X0379183Y0264843D01*
X0378432Y0265593D01*
X0378432Y0266344D01*
X0379183Y0267094D01*
X0379934Y0267094D01*
X0379183Y0267094D02*
X0378432Y0267845D01*
X0378432Y0268596D01*
X0379183Y0269346D01*
X0380684Y0269346D01*
X0381435Y0268596D01*
X0383036Y0268596D02*
X0383787Y0269346D01*
X0385288Y0269346D01*
X0386039Y0268596D01*
X0386039Y0265593D01*
X0385288Y0264843D01*
X0376831Y0265593D02*
X0376831Y0266344D01*
X0376080Y0267094D01*
X0374579Y0267094D01*
X0373828Y0266344D01*
X0373828Y0265593D01*
X0374579Y0264843D01*
X0376080Y0264843D01*
X0376831Y0265593D01*
X0376080Y0267094D02*
X0376831Y0267845D01*
X0376831Y0268596D01*
X0376080Y0269346D01*
X0374579Y0269346D01*
X0373828Y0268596D01*
X0373828Y0267845D01*
X0374579Y0267094D01*
X0355026Y0051463D02*
X0342428Y0051463D01*
X0342428Y0044722D01*
X0355026Y0044722D01*
X0355026Y0051463D01*
X0354745Y0036713D02*
X0339209Y0036713D01*
X0339209Y0028972D01*
X0354745Y0028972D01*
X0354745Y0036713D01*
X0354745Y0028963D02*
X0339209Y0028963D01*
X0339209Y0021222D01*
X0354745Y0021222D01*
X0354745Y0028963D01*
D12*
X0610227Y0064843D02*
X0610229Y0064887D01*
X0610235Y0064931D01*
X0610245Y0064974D01*
X0610258Y0065016D01*
X0610275Y0065057D01*
X0610296Y0065096D01*
X0610320Y0065133D01*
X0610347Y0065168D01*
X0610377Y0065200D01*
X0610410Y0065230D01*
X0610446Y0065256D01*
X0610483Y0065280D01*
X0610523Y0065299D01*
X0610564Y0065316D01*
X0610607Y0065328D01*
X0610650Y0065337D01*
X0610694Y0065342D01*
X0610738Y0065343D01*
X0610782Y0065340D01*
X0610826Y0065333D01*
X0610869Y0065322D01*
X0610911Y0065308D01*
X0610951Y0065290D01*
X0610990Y0065268D01*
X0611026Y0065244D01*
X0611060Y0065216D01*
X0611092Y0065185D01*
X0611121Y0065151D01*
X0611147Y0065115D01*
X0611169Y0065077D01*
X0611188Y0065037D01*
X0611203Y0064995D01*
X0611215Y0064953D01*
X0611223Y0064909D01*
X0611227Y0064865D01*
X0611227Y0064821D01*
X0611223Y0064777D01*
X0611215Y0064733D01*
X0611203Y0064691D01*
X0611188Y0064649D01*
X0611169Y0064609D01*
X0611147Y0064571D01*
X0611121Y0064535D01*
X0611092Y0064501D01*
X0611060Y0064470D01*
X0611026Y0064442D01*
X0610990Y0064418D01*
X0610951Y0064396D01*
X0610911Y0064378D01*
X0610869Y0064364D01*
X0610826Y0064353D01*
X0610782Y0064346D01*
X0610738Y0064343D01*
X0610694Y0064344D01*
X0610650Y0064349D01*
X0610607Y0064358D01*
X0610564Y0064370D01*
X0610523Y0064387D01*
X0610483Y0064406D01*
X0610446Y0064430D01*
X0610410Y0064456D01*
X0610377Y0064486D01*
X0610347Y0064518D01*
X0610320Y0064553D01*
X0610296Y0064590D01*
X0610275Y0064629D01*
X0610258Y0064670D01*
X0610245Y0064712D01*
X0610235Y0064755D01*
X0610229Y0064799D01*
X0610227Y0064843D01*
X0610227Y0070843D02*
X0610229Y0070887D01*
X0610235Y0070931D01*
X0610245Y0070974D01*
X0610258Y0071016D01*
X0610275Y0071057D01*
X0610296Y0071096D01*
X0610320Y0071133D01*
X0610347Y0071168D01*
X0610377Y0071200D01*
X0610410Y0071230D01*
X0610446Y0071256D01*
X0610483Y0071280D01*
X0610523Y0071299D01*
X0610564Y0071316D01*
X0610607Y0071328D01*
X0610650Y0071337D01*
X0610694Y0071342D01*
X0610738Y0071343D01*
X0610782Y0071340D01*
X0610826Y0071333D01*
X0610869Y0071322D01*
X0610911Y0071308D01*
X0610951Y0071290D01*
X0610990Y0071268D01*
X0611026Y0071244D01*
X0611060Y0071216D01*
X0611092Y0071185D01*
X0611121Y0071151D01*
X0611147Y0071115D01*
X0611169Y0071077D01*
X0611188Y0071037D01*
X0611203Y0070995D01*
X0611215Y0070953D01*
X0611223Y0070909D01*
X0611227Y0070865D01*
X0611227Y0070821D01*
X0611223Y0070777D01*
X0611215Y0070733D01*
X0611203Y0070691D01*
X0611188Y0070649D01*
X0611169Y0070609D01*
X0611147Y0070571D01*
X0611121Y0070535D01*
X0611092Y0070501D01*
X0611060Y0070470D01*
X0611026Y0070442D01*
X0610990Y0070418D01*
X0610951Y0070396D01*
X0610911Y0070378D01*
X0610869Y0070364D01*
X0610826Y0070353D01*
X0610782Y0070346D01*
X0610738Y0070343D01*
X0610694Y0070344D01*
X0610650Y0070349D01*
X0610607Y0070358D01*
X0610564Y0070370D01*
X0610523Y0070387D01*
X0610483Y0070406D01*
X0610446Y0070430D01*
X0610410Y0070456D01*
X0610377Y0070486D01*
X0610347Y0070518D01*
X0610320Y0070553D01*
X0610296Y0070590D01*
X0610275Y0070629D01*
X0610258Y0070670D01*
X0610245Y0070712D01*
X0610235Y0070755D01*
X0610229Y0070799D01*
X0610227Y0070843D01*
X0610227Y0076843D02*
X0610229Y0076887D01*
X0610235Y0076931D01*
X0610245Y0076974D01*
X0610258Y0077016D01*
X0610275Y0077057D01*
X0610296Y0077096D01*
X0610320Y0077133D01*
X0610347Y0077168D01*
X0610377Y0077200D01*
X0610410Y0077230D01*
X0610446Y0077256D01*
X0610483Y0077280D01*
X0610523Y0077299D01*
X0610564Y0077316D01*
X0610607Y0077328D01*
X0610650Y0077337D01*
X0610694Y0077342D01*
X0610738Y0077343D01*
X0610782Y0077340D01*
X0610826Y0077333D01*
X0610869Y0077322D01*
X0610911Y0077308D01*
X0610951Y0077290D01*
X0610990Y0077268D01*
X0611026Y0077244D01*
X0611060Y0077216D01*
X0611092Y0077185D01*
X0611121Y0077151D01*
X0611147Y0077115D01*
X0611169Y0077077D01*
X0611188Y0077037D01*
X0611203Y0076995D01*
X0611215Y0076953D01*
X0611223Y0076909D01*
X0611227Y0076865D01*
X0611227Y0076821D01*
X0611223Y0076777D01*
X0611215Y0076733D01*
X0611203Y0076691D01*
X0611188Y0076649D01*
X0611169Y0076609D01*
X0611147Y0076571D01*
X0611121Y0076535D01*
X0611092Y0076501D01*
X0611060Y0076470D01*
X0611026Y0076442D01*
X0610990Y0076418D01*
X0610951Y0076396D01*
X0610911Y0076378D01*
X0610869Y0076364D01*
X0610826Y0076353D01*
X0610782Y0076346D01*
X0610738Y0076343D01*
X0610694Y0076344D01*
X0610650Y0076349D01*
X0610607Y0076358D01*
X0610564Y0076370D01*
X0610523Y0076387D01*
X0610483Y0076406D01*
X0610446Y0076430D01*
X0610410Y0076456D01*
X0610377Y0076486D01*
X0610347Y0076518D01*
X0610320Y0076553D01*
X0610296Y0076590D01*
X0610275Y0076629D01*
X0610258Y0076670D01*
X0610245Y0076712D01*
X0610235Y0076755D01*
X0610229Y0076799D01*
X0610227Y0076843D01*
X0610227Y0082843D02*
X0610229Y0082887D01*
X0610235Y0082931D01*
X0610245Y0082974D01*
X0610258Y0083016D01*
X0610275Y0083057D01*
X0610296Y0083096D01*
X0610320Y0083133D01*
X0610347Y0083168D01*
X0610377Y0083200D01*
X0610410Y0083230D01*
X0610446Y0083256D01*
X0610483Y0083280D01*
X0610523Y0083299D01*
X0610564Y0083316D01*
X0610607Y0083328D01*
X0610650Y0083337D01*
X0610694Y0083342D01*
X0610738Y0083343D01*
X0610782Y0083340D01*
X0610826Y0083333D01*
X0610869Y0083322D01*
X0610911Y0083308D01*
X0610951Y0083290D01*
X0610990Y0083268D01*
X0611026Y0083244D01*
X0611060Y0083216D01*
X0611092Y0083185D01*
X0611121Y0083151D01*
X0611147Y0083115D01*
X0611169Y0083077D01*
X0611188Y0083037D01*
X0611203Y0082995D01*
X0611215Y0082953D01*
X0611223Y0082909D01*
X0611227Y0082865D01*
X0611227Y0082821D01*
X0611223Y0082777D01*
X0611215Y0082733D01*
X0611203Y0082691D01*
X0611188Y0082649D01*
X0611169Y0082609D01*
X0611147Y0082571D01*
X0611121Y0082535D01*
X0611092Y0082501D01*
X0611060Y0082470D01*
X0611026Y0082442D01*
X0610990Y0082418D01*
X0610951Y0082396D01*
X0610911Y0082378D01*
X0610869Y0082364D01*
X0610826Y0082353D01*
X0610782Y0082346D01*
X0610738Y0082343D01*
X0610694Y0082344D01*
X0610650Y0082349D01*
X0610607Y0082358D01*
X0610564Y0082370D01*
X0610523Y0082387D01*
X0610483Y0082406D01*
X0610446Y0082430D01*
X0610410Y0082456D01*
X0610377Y0082486D01*
X0610347Y0082518D01*
X0610320Y0082553D01*
X0610296Y0082590D01*
X0610275Y0082629D01*
X0610258Y0082670D01*
X0610245Y0082712D01*
X0610235Y0082755D01*
X0610229Y0082799D01*
X0610227Y0082843D01*
X0610227Y0088843D02*
X0610229Y0088887D01*
X0610235Y0088931D01*
X0610245Y0088974D01*
X0610258Y0089016D01*
X0610275Y0089057D01*
X0610296Y0089096D01*
X0610320Y0089133D01*
X0610347Y0089168D01*
X0610377Y0089200D01*
X0610410Y0089230D01*
X0610446Y0089256D01*
X0610483Y0089280D01*
X0610523Y0089299D01*
X0610564Y0089316D01*
X0610607Y0089328D01*
X0610650Y0089337D01*
X0610694Y0089342D01*
X0610738Y0089343D01*
X0610782Y0089340D01*
X0610826Y0089333D01*
X0610869Y0089322D01*
X0610911Y0089308D01*
X0610951Y0089290D01*
X0610990Y0089268D01*
X0611026Y0089244D01*
X0611060Y0089216D01*
X0611092Y0089185D01*
X0611121Y0089151D01*
X0611147Y0089115D01*
X0611169Y0089077D01*
X0611188Y0089037D01*
X0611203Y0088995D01*
X0611215Y0088953D01*
X0611223Y0088909D01*
X0611227Y0088865D01*
X0611227Y0088821D01*
X0611223Y0088777D01*
X0611215Y0088733D01*
X0611203Y0088691D01*
X0611188Y0088649D01*
X0611169Y0088609D01*
X0611147Y0088571D01*
X0611121Y0088535D01*
X0611092Y0088501D01*
X0611060Y0088470D01*
X0611026Y0088442D01*
X0610990Y0088418D01*
X0610951Y0088396D01*
X0610911Y0088378D01*
X0610869Y0088364D01*
X0610826Y0088353D01*
X0610782Y0088346D01*
X0610738Y0088343D01*
X0610694Y0088344D01*
X0610650Y0088349D01*
X0610607Y0088358D01*
X0610564Y0088370D01*
X0610523Y0088387D01*
X0610483Y0088406D01*
X0610446Y0088430D01*
X0610410Y0088456D01*
X0610377Y0088486D01*
X0610347Y0088518D01*
X0610320Y0088553D01*
X0610296Y0088590D01*
X0610275Y0088629D01*
X0610258Y0088670D01*
X0610245Y0088712D01*
X0610235Y0088755D01*
X0610229Y0088799D01*
X0610227Y0088843D01*
X0610227Y0094843D02*
X0610229Y0094887D01*
X0610235Y0094931D01*
X0610245Y0094974D01*
X0610258Y0095016D01*
X0610275Y0095057D01*
X0610296Y0095096D01*
X0610320Y0095133D01*
X0610347Y0095168D01*
X0610377Y0095200D01*
X0610410Y0095230D01*
X0610446Y0095256D01*
X0610483Y0095280D01*
X0610523Y0095299D01*
X0610564Y0095316D01*
X0610607Y0095328D01*
X0610650Y0095337D01*
X0610694Y0095342D01*
X0610738Y0095343D01*
X0610782Y0095340D01*
X0610826Y0095333D01*
X0610869Y0095322D01*
X0610911Y0095308D01*
X0610951Y0095290D01*
X0610990Y0095268D01*
X0611026Y0095244D01*
X0611060Y0095216D01*
X0611092Y0095185D01*
X0611121Y0095151D01*
X0611147Y0095115D01*
X0611169Y0095077D01*
X0611188Y0095037D01*
X0611203Y0094995D01*
X0611215Y0094953D01*
X0611223Y0094909D01*
X0611227Y0094865D01*
X0611227Y0094821D01*
X0611223Y0094777D01*
X0611215Y0094733D01*
X0611203Y0094691D01*
X0611188Y0094649D01*
X0611169Y0094609D01*
X0611147Y0094571D01*
X0611121Y0094535D01*
X0611092Y0094501D01*
X0611060Y0094470D01*
X0611026Y0094442D01*
X0610990Y0094418D01*
X0610951Y0094396D01*
X0610911Y0094378D01*
X0610869Y0094364D01*
X0610826Y0094353D01*
X0610782Y0094346D01*
X0610738Y0094343D01*
X0610694Y0094344D01*
X0610650Y0094349D01*
X0610607Y0094358D01*
X0610564Y0094370D01*
X0610523Y0094387D01*
X0610483Y0094406D01*
X0610446Y0094430D01*
X0610410Y0094456D01*
X0610377Y0094486D01*
X0610347Y0094518D01*
X0610320Y0094553D01*
X0610296Y0094590D01*
X0610275Y0094629D01*
X0610258Y0094670D01*
X0610245Y0094712D01*
X0610235Y0094755D01*
X0610229Y0094799D01*
X0610227Y0094843D01*
X0610227Y0100843D02*
X0610229Y0100887D01*
X0610235Y0100931D01*
X0610245Y0100974D01*
X0610258Y0101016D01*
X0610275Y0101057D01*
X0610296Y0101096D01*
X0610320Y0101133D01*
X0610347Y0101168D01*
X0610377Y0101200D01*
X0610410Y0101230D01*
X0610446Y0101256D01*
X0610483Y0101280D01*
X0610523Y0101299D01*
X0610564Y0101316D01*
X0610607Y0101328D01*
X0610650Y0101337D01*
X0610694Y0101342D01*
X0610738Y0101343D01*
X0610782Y0101340D01*
X0610826Y0101333D01*
X0610869Y0101322D01*
X0610911Y0101308D01*
X0610951Y0101290D01*
X0610990Y0101268D01*
X0611026Y0101244D01*
X0611060Y0101216D01*
X0611092Y0101185D01*
X0611121Y0101151D01*
X0611147Y0101115D01*
X0611169Y0101077D01*
X0611188Y0101037D01*
X0611203Y0100995D01*
X0611215Y0100953D01*
X0611223Y0100909D01*
X0611227Y0100865D01*
X0611227Y0100821D01*
X0611223Y0100777D01*
X0611215Y0100733D01*
X0611203Y0100691D01*
X0611188Y0100649D01*
X0611169Y0100609D01*
X0611147Y0100571D01*
X0611121Y0100535D01*
X0611092Y0100501D01*
X0611060Y0100470D01*
X0611026Y0100442D01*
X0610990Y0100418D01*
X0610951Y0100396D01*
X0610911Y0100378D01*
X0610869Y0100364D01*
X0610826Y0100353D01*
X0610782Y0100346D01*
X0610738Y0100343D01*
X0610694Y0100344D01*
X0610650Y0100349D01*
X0610607Y0100358D01*
X0610564Y0100370D01*
X0610523Y0100387D01*
X0610483Y0100406D01*
X0610446Y0100430D01*
X0610410Y0100456D01*
X0610377Y0100486D01*
X0610347Y0100518D01*
X0610320Y0100553D01*
X0610296Y0100590D01*
X0610275Y0100629D01*
X0610258Y0100670D01*
X0610245Y0100712D01*
X0610235Y0100755D01*
X0610229Y0100799D01*
X0610227Y0100843D01*
X0610227Y0106843D02*
X0610229Y0106887D01*
X0610235Y0106931D01*
X0610245Y0106974D01*
X0610258Y0107016D01*
X0610275Y0107057D01*
X0610296Y0107096D01*
X0610320Y0107133D01*
X0610347Y0107168D01*
X0610377Y0107200D01*
X0610410Y0107230D01*
X0610446Y0107256D01*
X0610483Y0107280D01*
X0610523Y0107299D01*
X0610564Y0107316D01*
X0610607Y0107328D01*
X0610650Y0107337D01*
X0610694Y0107342D01*
X0610738Y0107343D01*
X0610782Y0107340D01*
X0610826Y0107333D01*
X0610869Y0107322D01*
X0610911Y0107308D01*
X0610951Y0107290D01*
X0610990Y0107268D01*
X0611026Y0107244D01*
X0611060Y0107216D01*
X0611092Y0107185D01*
X0611121Y0107151D01*
X0611147Y0107115D01*
X0611169Y0107077D01*
X0611188Y0107037D01*
X0611203Y0106995D01*
X0611215Y0106953D01*
X0611223Y0106909D01*
X0611227Y0106865D01*
X0611227Y0106821D01*
X0611223Y0106777D01*
X0611215Y0106733D01*
X0611203Y0106691D01*
X0611188Y0106649D01*
X0611169Y0106609D01*
X0611147Y0106571D01*
X0611121Y0106535D01*
X0611092Y0106501D01*
X0611060Y0106470D01*
X0611026Y0106442D01*
X0610990Y0106418D01*
X0610951Y0106396D01*
X0610911Y0106378D01*
X0610869Y0106364D01*
X0610826Y0106353D01*
X0610782Y0106346D01*
X0610738Y0106343D01*
X0610694Y0106344D01*
X0610650Y0106349D01*
X0610607Y0106358D01*
X0610564Y0106370D01*
X0610523Y0106387D01*
X0610483Y0106406D01*
X0610446Y0106430D01*
X0610410Y0106456D01*
X0610377Y0106486D01*
X0610347Y0106518D01*
X0610320Y0106553D01*
X0610296Y0106590D01*
X0610275Y0106629D01*
X0610258Y0106670D01*
X0610245Y0106712D01*
X0610235Y0106755D01*
X0610229Y0106799D01*
X0610227Y0106843D01*
X0613493Y0201587D02*
X0617627Y0204343D01*
X0613493Y0207295D01*
X0613493Y0201587D01*
D13*
X0594227Y0214643D02*
X0594227Y0227543D01*
X0579727Y0222343D02*
X0577227Y0225843D01*
X0577227Y0222343D01*
X0579727Y0222343D01*
X0579315Y0222920D02*
X0577227Y0222920D01*
X0577227Y0223519D02*
X0578887Y0223519D01*
X0578460Y0224117D02*
X0577227Y0224117D01*
X0577227Y0224716D02*
X0578032Y0224716D01*
X0577605Y0225314D02*
X0577227Y0225314D01*
X0575227Y0227543D02*
X0575227Y0222293D01*
X0575296Y0222291D01*
X0575364Y0222285D01*
X0575432Y0222275D01*
X0575499Y0222262D01*
X0575565Y0222244D01*
X0575630Y0222223D01*
X0575694Y0222198D01*
X0575756Y0222170D01*
X0575817Y0222138D01*
X0575876Y0222103D01*
X0575932Y0222064D01*
X0575987Y0222022D01*
X0576038Y0221977D01*
X0576088Y0221929D01*
X0576134Y0221879D01*
X0576177Y0221826D01*
X0576218Y0221770D01*
X0576255Y0221713D01*
X0576288Y0221653D01*
X0576319Y0221591D01*
X0576345Y0221528D01*
X0576368Y0221464D01*
X0576388Y0221398D01*
X0576403Y0221331D01*
X0576415Y0221264D01*
X0576423Y0221196D01*
X0576427Y0221127D01*
X0576427Y0221059D01*
X0576423Y0220990D01*
X0576415Y0220922D01*
X0576403Y0220855D01*
X0576388Y0220788D01*
X0576368Y0220722D01*
X0576345Y0220658D01*
X0576319Y0220595D01*
X0576288Y0220533D01*
X0576255Y0220473D01*
X0576218Y0220416D01*
X0576177Y0220360D01*
X0576134Y0220307D01*
X0576088Y0220257D01*
X0576038Y0220209D01*
X0575987Y0220164D01*
X0575932Y0220122D01*
X0575876Y0220083D01*
X0575817Y0220048D01*
X0575756Y0220016D01*
X0575694Y0219988D01*
X0575630Y0219963D01*
X0575565Y0219942D01*
X0575499Y0219924D01*
X0575432Y0219911D01*
X0575364Y0219901D01*
X0575296Y0219895D01*
X0575227Y0219893D01*
X0575227Y0214643D01*
X0567977Y0196093D02*
X0569477Y0193843D01*
X0566477Y0193843D01*
X0567977Y0196093D01*
X0567907Y0195987D02*
X0568047Y0195987D01*
X0568446Y0195388D02*
X0567508Y0195388D01*
X0567109Y0194790D02*
X0568845Y0194790D01*
X0569244Y0194191D02*
X0566710Y0194191D01*
X0563227Y0242843D02*
X0561727Y0245093D01*
X0564727Y0245093D01*
X0563227Y0242843D01*
X0562942Y0243269D02*
X0563512Y0243269D01*
X0563911Y0243868D02*
X0562543Y0243868D01*
X0562144Y0244466D02*
X0564310Y0244466D01*
X0564709Y0245065D02*
X0561745Y0245065D01*
X0607727Y0110093D02*
X0607727Y0061843D01*
X0613727Y0061843D01*
X0613727Y0110093D01*
X0607727Y0110093D01*
X0477977Y0109801D02*
X0476415Y0109801D01*
X0475937Y0109203D02*
X0477977Y0109203D01*
X0477977Y0108604D02*
X0476834Y0108604D01*
X0477732Y0108006D02*
X0477977Y0108006D01*
X0477977Y0107843D02*
X0477977Y0110843D01*
X0475727Y0109343D01*
X0477977Y0107843D01*
X0477977Y0110400D02*
X0477313Y0110400D01*
X0401677Y0094093D02*
X0401677Y0055093D01*
X0396427Y0055093D01*
X0396425Y0055162D01*
X0396419Y0055230D01*
X0396409Y0055298D01*
X0396396Y0055365D01*
X0396378Y0055431D01*
X0396357Y0055496D01*
X0396332Y0055560D01*
X0396304Y0055622D01*
X0396272Y0055683D01*
X0396237Y0055742D01*
X0396198Y0055798D01*
X0396156Y0055853D01*
X0396111Y0055904D01*
X0396063Y0055954D01*
X0396013Y0056000D01*
X0395960Y0056043D01*
X0395904Y0056084D01*
X0395847Y0056121D01*
X0395787Y0056154D01*
X0395725Y0056185D01*
X0395662Y0056211D01*
X0395598Y0056234D01*
X0395532Y0056254D01*
X0395465Y0056269D01*
X0395398Y0056281D01*
X0395330Y0056289D01*
X0395261Y0056293D01*
X0395193Y0056293D01*
X0395124Y0056289D01*
X0395056Y0056281D01*
X0394989Y0056269D01*
X0394922Y0056254D01*
X0394856Y0056234D01*
X0394792Y0056211D01*
X0394729Y0056185D01*
X0394667Y0056154D01*
X0394607Y0056121D01*
X0394550Y0056084D01*
X0394494Y0056043D01*
X0394441Y0056000D01*
X0394391Y0055954D01*
X0394343Y0055904D01*
X0394298Y0055853D01*
X0394256Y0055798D01*
X0394217Y0055742D01*
X0394182Y0055683D01*
X0394150Y0055622D01*
X0394122Y0055560D01*
X0394097Y0055496D01*
X0394076Y0055431D01*
X0394058Y0055365D01*
X0394045Y0055298D01*
X0394035Y0055230D01*
X0394029Y0055162D01*
X0394027Y0055093D01*
X0388777Y0055093D01*
X0388777Y0094093D01*
X0401677Y0094093D01*
X0393477Y0059593D02*
X0389977Y0057093D01*
X0393477Y0057093D01*
X0393477Y0059593D01*
X0393477Y0059526D02*
X0393384Y0059526D01*
X0393477Y0058928D02*
X0392547Y0058928D01*
X0391709Y0058329D02*
X0393477Y0058329D01*
X0393477Y0057731D02*
X0390871Y0057731D01*
X0390033Y0057132D02*
X0393477Y0057132D01*
X0370027Y0036243D02*
X0370027Y0033493D01*
X0370027Y0036243D02*
X0366827Y0036243D01*
X0364427Y0031193D02*
X0364427Y0029493D01*
X0366827Y0024443D02*
X0370027Y0024443D01*
X0370027Y0027193D01*
X0346977Y0040843D02*
X0344727Y0042343D01*
X0344727Y0039343D01*
X0346977Y0040843D01*
X0346782Y0040973D02*
X0344727Y0040973D01*
X0344727Y0041571D02*
X0345884Y0041571D01*
X0344986Y0042170D02*
X0344727Y0042170D01*
X0344727Y0040374D02*
X0346274Y0040374D01*
X0345377Y0039776D02*
X0344727Y0039776D01*
X0399477Y0030593D02*
X0402477Y0030593D01*
X0400977Y0032843D01*
X0399477Y0030593D01*
X0399614Y0030798D02*
X0402340Y0030798D01*
X0401941Y0031396D02*
X0400013Y0031396D01*
X0400412Y0031995D02*
X0401542Y0031995D01*
X0401143Y0032593D02*
X0400811Y0032593D01*
X0407193Y0028404D02*
X0411488Y0028404D01*
X0411727Y0028093D02*
X0409227Y0031343D01*
X0406977Y0028093D01*
X0411727Y0028093D01*
X0411027Y0029002D02*
X0407607Y0029002D01*
X0408021Y0029601D02*
X0410567Y0029601D01*
X0410106Y0030199D02*
X0408436Y0030199D01*
X0408850Y0030798D02*
X0409646Y0030798D01*
X0158727Y0123593D02*
X0157227Y0121343D01*
X0155727Y0123593D01*
X0158727Y0123593D01*
X0158710Y0123567D02*
X0155744Y0123567D01*
X0156143Y0122969D02*
X0158311Y0122969D01*
X0157912Y0122370D02*
X0156542Y0122370D01*
X0156941Y0121772D02*
X0157513Y0121772D01*
X0136527Y0144243D02*
X0131277Y0144243D01*
X0131275Y0144312D01*
X0131269Y0144380D01*
X0131259Y0144448D01*
X0131246Y0144515D01*
X0131228Y0144581D01*
X0131207Y0144646D01*
X0131182Y0144710D01*
X0131154Y0144772D01*
X0131122Y0144833D01*
X0131087Y0144892D01*
X0131048Y0144948D01*
X0131006Y0145003D01*
X0130961Y0145054D01*
X0130913Y0145104D01*
X0130863Y0145150D01*
X0130810Y0145193D01*
X0130754Y0145234D01*
X0130697Y0145271D01*
X0130637Y0145304D01*
X0130575Y0145335D01*
X0130512Y0145361D01*
X0130448Y0145384D01*
X0130382Y0145404D01*
X0130315Y0145419D01*
X0130248Y0145431D01*
X0130180Y0145439D01*
X0130111Y0145443D01*
X0130043Y0145443D01*
X0129974Y0145439D01*
X0129906Y0145431D01*
X0129839Y0145419D01*
X0129772Y0145404D01*
X0129706Y0145384D01*
X0129642Y0145361D01*
X0129579Y0145335D01*
X0129517Y0145304D01*
X0129457Y0145271D01*
X0129400Y0145234D01*
X0129344Y0145193D01*
X0129291Y0145150D01*
X0129241Y0145104D01*
X0129193Y0145054D01*
X0129148Y0145003D01*
X0129106Y0144948D01*
X0129067Y0144892D01*
X0129032Y0144833D01*
X0129000Y0144772D01*
X0128972Y0144710D01*
X0128947Y0144646D01*
X0128926Y0144581D01*
X0128908Y0144515D01*
X0128895Y0144448D01*
X0128885Y0144380D01*
X0128879Y0144312D01*
X0128877Y0144243D01*
X0123627Y0144243D01*
X0123627Y0183243D01*
X0136527Y0183243D01*
X0136527Y0144243D01*
X0128327Y0146243D02*
X0128327Y0148743D01*
X0124827Y0146243D01*
X0128327Y0146243D01*
X0128327Y0146311D02*
X0124922Y0146311D01*
X0125760Y0146909D02*
X0128327Y0146909D01*
X0128327Y0147508D02*
X0126598Y0147508D01*
X0127436Y0148106D02*
X0128327Y0148106D01*
X0128327Y0148705D02*
X0128274Y0148705D01*
X0124727Y0186343D02*
X0124727Y0189343D01*
X0122477Y0187843D01*
X0124727Y0186343D01*
X0124727Y0186411D02*
X0124625Y0186411D01*
X0124727Y0187009D02*
X0123727Y0187009D01*
X0122829Y0187608D02*
X0124727Y0187608D01*
X0124727Y0188206D02*
X0123023Y0188206D01*
X0123921Y0188805D02*
X0124727Y0188805D01*
D14*
X0202451Y0329211D02*
X0217451Y0354211D01*
X0232451Y0329211D01*
X0202451Y0329211D01*
X0215451Y0334211D02*
X0218451Y0331211D01*
X0219451Y0335211D01*
X0215451Y0334211D01*
X0215519Y0334143D02*
X0219185Y0334143D01*
X0218785Y0332545D02*
X0217117Y0332545D01*
X0218451Y0331711D02*
X0215951Y0339211D01*
X0220951Y0339211D01*
X0218451Y0346711D01*
X0218521Y0346931D02*
X0216591Y0346931D01*
X0216451Y0347211D02*
X0220451Y0339211D01*
X0218451Y0347211D01*
X0216451Y0347211D01*
X0217390Y0345333D02*
X0218921Y0345333D01*
X0219321Y0343734D02*
X0218190Y0343734D01*
X0218989Y0342136D02*
X0219720Y0342136D01*
X0219788Y0340537D02*
X0220120Y0340537D01*
D15*
X0202077Y0341598D02*
X0202077Y0335693D01*
X0202077Y0338645D02*
X0198141Y0338645D01*
X0198141Y0335693D02*
X0198141Y0341598D01*
X0196000Y0341598D02*
X0194032Y0341598D01*
X0195016Y0341598D02*
X0195016Y0335693D01*
X0196000Y0335693D02*
X0194032Y0335693D01*
X0191949Y0336677D02*
X0191949Y0340613D01*
X0190965Y0341598D01*
X0188996Y0341598D01*
X0188012Y0340613D01*
X0188012Y0338645D02*
X0189980Y0338645D01*
X0188012Y0338645D02*
X0188012Y0336677D01*
X0188996Y0335693D01*
X0190965Y0335693D01*
X0191949Y0336677D01*
X0185871Y0335693D02*
X0185871Y0341598D01*
X0185871Y0338645D02*
X0181935Y0338645D01*
X0181935Y0335693D02*
X0181935Y0341598D01*
X0180807Y0345593D02*
X0180807Y0349529D01*
X0178839Y0351498D01*
X0176870Y0349529D01*
X0176870Y0345593D01*
X0174730Y0346577D02*
X0173746Y0345593D01*
X0171777Y0345593D01*
X0170793Y0346577D01*
X0170793Y0351498D01*
X0168653Y0351498D02*
X0164716Y0351498D01*
X0166684Y0351498D02*
X0166684Y0345593D01*
X0166656Y0341598D02*
X0167640Y0340613D01*
X0167640Y0336677D01*
X0166656Y0335693D01*
X0164687Y0335693D01*
X0163703Y0336677D01*
X0163703Y0340613D01*
X0164687Y0341598D01*
X0166656Y0341598D01*
X0169780Y0341598D02*
X0169780Y0337661D01*
X0171749Y0335693D01*
X0173717Y0337661D01*
X0173717Y0341598D01*
X0174730Y0346577D02*
X0174730Y0351498D01*
X0176870Y0348545D02*
X0180807Y0348545D01*
X0182948Y0346577D02*
X0183932Y0345593D01*
X0185900Y0345593D01*
X0186884Y0346577D01*
X0186884Y0350513D01*
X0185900Y0351498D01*
X0183932Y0351498D01*
X0182948Y0350513D01*
X0162576Y0351498D02*
X0160607Y0351498D01*
X0161591Y0351498D02*
X0161591Y0345593D01*
X0160607Y0345593D02*
X0162576Y0345593D01*
X0161563Y0341598D02*
X0161563Y0335693D01*
X0157626Y0335693D01*
X0153517Y0335693D02*
X0153517Y0341598D01*
X0151549Y0341598D02*
X0155486Y0341598D01*
X0155572Y0345593D02*
X0154587Y0346577D01*
X0154587Y0350513D01*
X0155572Y0351498D01*
X0157540Y0351498D01*
X0158524Y0350513D01*
X0158524Y0346577D01*
X0157540Y0345593D01*
X0155572Y0345593D01*
X0152447Y0345593D02*
X0152447Y0351498D01*
X0148510Y0345593D01*
X0148510Y0351498D01*
X0147440Y0341598D02*
X0145472Y0339629D01*
X0145472Y0335693D01*
X0143331Y0336677D02*
X0142347Y0335693D01*
X0140379Y0335693D01*
X0139394Y0336677D01*
X0139394Y0338645D01*
X0141363Y0338645D01*
X0143331Y0340613D02*
X0143331Y0336677D01*
X0145472Y0338645D02*
X0149408Y0338645D01*
X0149408Y0339629D02*
X0147440Y0341598D01*
X0149408Y0339629D02*
X0149408Y0335693D01*
X0143331Y0340613D02*
X0142347Y0341598D01*
X0140379Y0341598D01*
X0139394Y0340613D01*
X0137254Y0341598D02*
X0133317Y0341598D01*
X0135286Y0338645D02*
X0137254Y0338645D01*
X0137254Y0335693D02*
X0133317Y0335693D01*
X0137254Y0335693D02*
X0137254Y0341598D01*
D16*
X0098577Y0177895D02*
X0097126Y0177895D01*
X0096642Y0177411D01*
X0096642Y0176444D01*
X0097126Y0175960D01*
X0098577Y0175960D01*
X0097610Y0175960D02*
X0096642Y0174993D01*
X0095631Y0174993D02*
X0093696Y0176927D01*
X0093696Y0177411D01*
X0094179Y0177895D01*
X0095147Y0177895D01*
X0095631Y0177411D01*
X0095631Y0174993D02*
X0093696Y0174993D01*
X0092684Y0175476D02*
X0092200Y0174993D01*
X0091233Y0174993D01*
X0090749Y0175476D01*
X0090749Y0177411D01*
X0091233Y0177895D01*
X0092200Y0177895D01*
X0092684Y0177411D01*
X0092684Y0176927D01*
X0092200Y0176444D01*
X0090749Y0176444D01*
X0098577Y0174993D02*
X0098577Y0177895D01*
X0099733Y0167395D02*
X0101184Y0165944D01*
X0099249Y0165944D01*
X0099733Y0164493D02*
X0099733Y0167395D01*
X0102196Y0166911D02*
X0102196Y0166427D01*
X0102679Y0165944D01*
X0102196Y0165460D01*
X0102196Y0164976D01*
X0102679Y0164493D01*
X0103647Y0164493D01*
X0104131Y0164976D01*
X0105142Y0164976D02*
X0105626Y0164493D01*
X0106593Y0164493D01*
X0107077Y0164976D01*
X0107077Y0166911D01*
X0106593Y0167395D01*
X0105626Y0167395D01*
X0105142Y0166911D01*
X0104131Y0166911D02*
X0103647Y0167395D01*
X0102679Y0167395D01*
X0102196Y0166911D01*
X0102679Y0165944D02*
X0103163Y0165944D01*
X0098327Y0157645D02*
X0096876Y0157645D01*
X0096392Y0157161D01*
X0096392Y0156194D01*
X0096876Y0155710D01*
X0098327Y0155710D01*
X0097360Y0155710D02*
X0096392Y0154743D01*
X0095381Y0155226D02*
X0094897Y0154743D01*
X0093929Y0154743D01*
X0093446Y0155226D01*
X0093446Y0155710D01*
X0093929Y0156194D01*
X0094413Y0156194D01*
X0093929Y0156194D02*
X0093446Y0156677D01*
X0093446Y0157161D01*
X0093929Y0157645D01*
X0094897Y0157645D01*
X0095381Y0157161D01*
X0092434Y0157161D02*
X0091950Y0157645D01*
X0090983Y0157645D01*
X0090499Y0157161D01*
X0090499Y0156677D01*
X0090983Y0156194D01*
X0090499Y0155710D01*
X0090499Y0155226D01*
X0090983Y0154743D01*
X0091950Y0154743D01*
X0092434Y0155226D01*
X0091467Y0156194D02*
X0090983Y0156194D01*
X0098327Y0154743D02*
X0098327Y0157645D01*
X0355749Y0081694D02*
X0357684Y0081694D01*
X0356233Y0083145D01*
X0356233Y0080243D01*
X0358696Y0080243D02*
X0360631Y0080243D01*
X0358696Y0082177D01*
X0358696Y0082661D01*
X0359179Y0083145D01*
X0360147Y0083145D01*
X0360631Y0082661D01*
X0361642Y0082661D02*
X0362126Y0083145D01*
X0363093Y0083145D01*
X0363577Y0082661D01*
X0363577Y0080726D01*
X0363093Y0080243D01*
X0362126Y0080243D01*
X0361642Y0080726D01*
X0361645Y0085653D02*
X0361645Y0087104D01*
X0362128Y0087588D01*
X0363096Y0087588D01*
X0363580Y0087104D01*
X0363580Y0085653D01*
X0360677Y0085653D01*
X0361645Y0086620D02*
X0360677Y0087588D01*
X0360677Y0088599D02*
X0360677Y0090534D01*
X0360677Y0089567D02*
X0363580Y0089567D01*
X0362612Y0088599D01*
X0362128Y0091546D02*
X0362128Y0092997D01*
X0361645Y0093481D01*
X0361161Y0093481D01*
X0360677Y0092997D01*
X0360677Y0092030D01*
X0361161Y0091546D01*
X0362128Y0091546D01*
X0363096Y0092513D01*
X0363580Y0093481D01*
X0384427Y0095137D02*
X0384427Y0096104D01*
X0384911Y0096588D01*
X0384427Y0097599D02*
X0386362Y0099534D01*
X0386846Y0099534D01*
X0387330Y0099051D01*
X0387330Y0098083D01*
X0386846Y0097599D01*
X0386846Y0096588D02*
X0387330Y0096104D01*
X0387330Y0095137D01*
X0386846Y0094653D01*
X0384911Y0094653D01*
X0384427Y0095137D01*
X0384427Y0097599D02*
X0384427Y0099534D01*
X0384911Y0100546D02*
X0384427Y0101030D01*
X0384427Y0101997D01*
X0384911Y0102481D01*
X0385395Y0102481D01*
X0385878Y0101997D01*
X0385878Y0101513D01*
X0385878Y0101997D02*
X0386362Y0102481D01*
X0386846Y0102481D01*
X0387330Y0101997D01*
X0387330Y0101030D01*
X0386846Y0100546D01*
X0404377Y0100976D02*
X0404377Y0101944D01*
X0404861Y0102427D01*
X0404377Y0103439D02*
X0406312Y0105374D01*
X0406796Y0105374D01*
X0407280Y0104890D01*
X0407280Y0103923D01*
X0406796Y0103439D01*
X0406796Y0102427D02*
X0407280Y0101944D01*
X0407280Y0100976D01*
X0406796Y0100493D01*
X0404861Y0100493D01*
X0404377Y0100976D01*
X0404377Y0103439D02*
X0404377Y0105374D01*
X0404861Y0106386D02*
X0404377Y0106869D01*
X0404377Y0107837D01*
X0404861Y0108321D01*
X0405828Y0108321D01*
X0406312Y0107837D01*
X0406312Y0107353D01*
X0405828Y0106386D01*
X0407280Y0106386D01*
X0407280Y0108321D01*
X0399667Y0120043D02*
X0399667Y0122945D01*
X0398215Y0122945D01*
X0397732Y0122461D01*
X0397732Y0121494D01*
X0398215Y0121010D01*
X0399667Y0121010D01*
X0398699Y0121010D02*
X0397732Y0120043D01*
X0396720Y0120043D02*
X0394785Y0120043D01*
X0395753Y0120043D02*
X0395753Y0122945D01*
X0396720Y0121977D01*
X0393774Y0121977D02*
X0393774Y0122461D01*
X0393290Y0122945D01*
X0392322Y0122945D01*
X0391839Y0122461D01*
X0391839Y0121977D01*
X0392322Y0121494D01*
X0393290Y0121494D01*
X0393774Y0121977D01*
X0393290Y0121494D02*
X0393774Y0121010D01*
X0393774Y0120526D01*
X0393290Y0120043D01*
X0392322Y0120043D01*
X0391839Y0120526D01*
X0391839Y0121010D01*
X0392322Y0121494D01*
X0405698Y0044508D02*
X0406666Y0044508D01*
X0407150Y0044024D01*
X0408161Y0044024D02*
X0408645Y0044508D01*
X0410096Y0044508D01*
X0410096Y0041606D01*
X0408645Y0041606D01*
X0408161Y0042089D01*
X0408161Y0044024D01*
X0405698Y0044508D02*
X0405215Y0044024D01*
X0405215Y0043540D01*
X0407150Y0041606D01*
X0405215Y0041606D01*
X0411108Y0041606D02*
X0413043Y0041606D01*
X0413043Y0042089D01*
X0411108Y0044024D01*
X0411108Y0044508D01*
X0413043Y0044508D01*
D17*
X0286680Y0215860D02*
X0260774Y0215860D01*
X0260774Y0239876D01*
X0261573Y0239876D01*
X0285881Y0239876D02*
X0286680Y0239876D01*
X0286680Y0215860D01*
X0286680Y0270309D02*
X0285881Y0270309D01*
X0286680Y0270309D02*
X0286680Y0294325D01*
X0260774Y0294325D01*
X0260774Y0270309D01*
X0261573Y0270309D01*
X0140680Y0133376D02*
X0139881Y0133376D01*
X0140680Y0133376D02*
X0140680Y0109360D01*
X0114774Y0109360D01*
X0114774Y0133376D01*
X0115573Y0133376D01*
D18*
X0127727Y0107726D03*
X0273727Y0214226D03*
X0273727Y0295959D03*
D19*
X0264731Y0296116D03*
X0282723Y0296116D03*
X0282723Y0214069D03*
X0264731Y0214069D03*
X0136723Y0107569D03*
X0118731Y0107569D03*
D20*
X0157227Y0120730D03*
X0400977Y0033455D03*
X0409227Y0031955D03*
X0567977Y0196705D03*
X0563227Y0242230D03*
D21*
X0313432Y0246150D02*
X0313432Y0230535D01*
X0288022Y0230535D01*
X0288022Y0246150D01*
X0313432Y0246150D01*
X0313432Y0264035D02*
X0288022Y0264035D01*
X0288022Y0279650D01*
X0313432Y0279650D01*
X0313432Y0264035D01*
D22*
X0121865Y0187843D03*
X0347589Y0040843D03*
X0475115Y0109343D03*
D23*
X0617823Y0204343D03*
M02*
