%
M48
M72
T01C0.0157
T02C0.0197
T03C0.0236
T04C0.0276
T05C0.0320
T06C0.0360
T07C0.0400
T08C0.0433
T09C0.0472
T10C0.0551
T11C0.0630
T12C0.1181
T13C0.1260
%
T01
X5737Y6325
X5737Y6625
X5737Y6925
X5737Y7225
X5737Y7525
X6037Y7525
X6037Y7225
X6037Y6925
X6037Y6625
X6037Y6325
X12137Y8600
X13237Y9000
X13287Y7025
X12687Y4750
X19587Y7150
X19587Y7500
X19587Y7850
X19587Y8200
X19587Y8550
X19587Y8900
X19587Y9250
X19587Y9600
X19587Y9950
X19587Y10300
X19937Y10300
X19937Y9950
X19937Y9600
X19937Y9250
X19937Y8900
X19937Y8550
X19937Y8200
X19937Y7850
X19937Y7500
X19937Y7150
X20462Y5500
X20462Y5150
X20462Y4800
X20462Y4450
X20462Y4100
X20462Y3750
X20462Y3400
X20462Y3050
X20462Y2700
X20812Y2700
X20812Y3050
X20812Y3400
X20812Y3750
X20812Y4100
X20812Y4450
X20812Y4800
X20812Y5150
X20812Y5500
X27037Y2725
X27037Y2075
X27637Y4975
X27937Y4975
X28237Y4975
X28537Y4975
X28537Y5975
X28237Y5975
X27937Y5975
X27637Y5975
X33762Y3275
X34812Y3700
X35437Y3725
X41587Y8975
X46287Y8425
X47337Y7325
X48837Y8750
X50437Y8775
X53162Y10225
X50287Y10600
X49862Y10600
X49612Y13500
X48212Y14175
X45512Y14275
X44037Y14275
X42412Y16025
X42412Y16450
X39962Y15625
X39512Y15950
X42997Y18435
X44512Y18500
X43987Y19925
X47387Y19675
X48287Y19725
X50287Y20125
X48287Y17600
X50037Y16100
X43328Y22840
X43337Y23500
X44037Y24875
X45462Y24975
X45462Y27075
X41987Y28125
X40537Y28125
X33762Y23250
X33762Y21700
X31312Y17800
X31312Y15575
X25412Y15075
X24587Y14175
X22487Y14025
X20787Y14975
X20787Y15825
X20214Y16423
X19937Y15950
X21837Y15925
X23237Y16650
X23987Y15825
X24637Y16650
X24462Y17775
X24837Y19050
X21962Y19675
X19412Y18100
X17562Y18300
X16287Y17975
X16287Y17350
X11037Y17475
X10312Y17925
X10887Y19150
X10987Y20100
X10312Y20975
X11537Y21275
X7037Y20950
X5912Y22350
X4562Y22425
X3737Y21675
X6562Y23950
X7587Y25050
X7887Y25050
X12737Y25600
X13137Y24900
X19062Y21100
X21712Y23925
X21712Y25100
X26562Y24775
X26637Y26250
X27262Y27000
X28412Y26025
X27437Y28425
X27912Y29850
X28837Y30250
X28762Y32400
X28762Y32750
X28762Y33100
X28762Y33450
X28762Y33800
X26762Y33800
X26762Y33450
X26762Y33100
X26762Y32750
X26762Y32400
X25837Y31175
X23762Y21850
X21912Y18000
X21962Y17300
X27637Y11275
X27937Y11275
X28237Y11275
X28537Y11275
X28537Y10325
X28237Y10325
X27937Y10325
X27637Y10325
X47737Y5100
X48662Y5100
X48262Y4275
X50137Y3750
X50137Y2400
X51862Y3550
X52087Y4400
X50237Y6025
X51012Y24075
X50912Y25900
X50112Y31275
X7412Y29750
X6437Y28575
X7087Y33425
X7387Y33425
X6287Y18600
X6962Y17925
T02
X7362Y17575
X12137Y17875
X12137Y21775
X9787Y21775
X8287Y22525
X13862Y10100
X14437Y6575
X14562Y4575
X14462Y2875
X9987Y3100
X30312Y12525
X30662Y12525
X54537Y24250
X49287Y34250
X30762Y31250
T03
X5362Y18325
T04
X30887Y28455
X30887Y29045
X33012Y4320
X33012Y3730
T05
X5937Y20425
X4937Y20425
X3937Y20425
T06
X18787Y23625
X22787Y22625
X53512Y5150
X58662Y8225
X62662Y7225
X54512Y9150
X58662Y21200
X58662Y22200
X54662Y22200
X62662Y21200
T07
X61512Y19350
X55612Y19350
X55612Y10050
X61512Y10050
X37189Y23716
X37189Y25716
X29462Y26125
X29462Y24125
X7937Y26175
X7937Y28175
X4137Y27700
X4137Y26700
X4137Y25700
X4137Y24700
X4137Y23700
X4137Y28700
X4137Y29700
X4137Y30700
T08
X18962Y21900
X23212Y17500
X17687Y16501
X17687Y13549
X12089Y13400
X9136Y13400
X3362Y18325
X7911Y5850
X10864Y5850
X28987Y16850
X39012Y26575
X31612Y26700
X38912Y32300
X47737Y31826
X47737Y28874
X54787Y28976
X54787Y26024
X52737Y9050
T09
X56319Y12264
X60256Y12264
X60256Y17186
X56319Y17186
X22549Y26697
X22549Y27681
X22549Y29650
X22549Y31619
X22549Y32603
X14675Y33095
X14675Y32111
X14675Y31126
X14675Y30142
X14675Y29158
X14675Y28174
X14675Y27189
X14675Y26205
T10
X5864Y16500
X4211Y16500
X52284Y33771
X54284Y33771
X56334Y33771
X58284Y33771
X56912Y6129
X56912Y4475
X56912Y2821
T11
X37339Y3618
X37339Y5818
X37339Y8018
X37339Y10311
X37339Y12511
X37339Y14711
X37339Y17004
X37339Y19204
X37339Y21404
X37339Y28028
X37339Y30228
X37339Y32428
X21032Y11231
X21032Y9854
X21032Y8476
X21032Y7098
X32449Y7787
X32449Y10543
T12
X54727Y3648
X58428Y6129
T13
X3906Y3062
X3906Y33377
X61780Y33377
X61780Y3259
M30
