G75*
%MOIN*%
%OFA0B0*%
%FSLAX25Y25*%
%IPPOS*%
%LPD*%
%AMOC8*
5,1,8,0,0,1.08239X$1,22.5*
%
%ADD10C,0.00400*%
%ADD11C,0.00500*%
%ADD12C,0.01000*%
%ADD13C,0.00600*%
%ADD14C,0.01600*%
%ADD15C,0.00700*%
%ADD16C,0.00800*%
%ADD17R,0.03268X0.02992*%
%ADD18R,0.03583X0.02992*%
%ADD19R,0.00787X0.05512*%
%ADD20C,0.00300*%
%ADD21R,0.02992X0.03268*%
%ADD22R,0.02992X0.03583*%
%ADD23R,0.05512X0.00787*%
%ADD24C,0.00200*%
%ADD25R,0.01181X0.08268*%
D10*
X0063151Y0046700D02*
X0063151Y0047301D01*
X0060749Y0049703D01*
X0060749Y0050303D01*
X0063151Y0050303D01*
X0064432Y0050303D02*
X0066834Y0050303D01*
X0066834Y0048502D01*
X0065633Y0049102D01*
X0065033Y0049102D01*
X0064432Y0048502D01*
X0064432Y0047301D01*
X0065033Y0046700D01*
X0066234Y0046700D01*
X0066834Y0047301D01*
X0068115Y0047301D02*
X0068716Y0046700D01*
X0069917Y0046700D01*
X0070517Y0047301D01*
X0070517Y0049703D01*
X0069917Y0050303D01*
X0068716Y0050303D01*
X0068115Y0049703D01*
X0100999Y0048303D02*
X0102200Y0047703D01*
X0103401Y0046502D01*
X0101600Y0046502D01*
X0100999Y0045901D01*
X0100999Y0045301D01*
X0101600Y0044700D01*
X0102801Y0044700D01*
X0103401Y0045301D01*
X0103401Y0046502D01*
X0104682Y0045901D02*
X0105283Y0046502D01*
X0107084Y0046502D01*
X0107084Y0045301D01*
X0106484Y0044700D01*
X0105283Y0044700D01*
X0104682Y0045301D01*
X0104682Y0045901D01*
X0105883Y0047703D02*
X0107084Y0046502D01*
X0108365Y0046502D02*
X0108365Y0047703D01*
X0108966Y0048303D01*
X0110767Y0048303D01*
X0110767Y0044700D01*
X0110767Y0045901D02*
X0108966Y0045901D01*
X0108365Y0046502D01*
X0109566Y0045901D02*
X0108365Y0044700D01*
X0105883Y0047703D02*
X0104682Y0048303D01*
X0115868Y0041118D02*
X0119471Y0041118D01*
X0117670Y0039316D01*
X0117670Y0041718D01*
X0117069Y0038035D02*
X0117670Y0037435D01*
X0117670Y0035633D01*
X0116468Y0035633D01*
X0115868Y0036234D01*
X0115868Y0037435D01*
X0116468Y0038035D01*
X0117069Y0038035D01*
X0118871Y0036834D02*
X0117670Y0035633D01*
X0118871Y0036834D02*
X0119471Y0038035D01*
X0118871Y0034352D02*
X0119471Y0033752D01*
X0119471Y0032551D01*
X0118871Y0031950D01*
X0116468Y0031950D01*
X0115868Y0032551D01*
X0115868Y0033752D01*
X0116468Y0034352D01*
X0128999Y0044801D02*
X0129600Y0044200D01*
X0130801Y0044200D01*
X0131401Y0044801D01*
X0131401Y0046002D02*
X0130200Y0046602D01*
X0129600Y0046602D01*
X0128999Y0046002D01*
X0128999Y0044801D01*
X0131401Y0046002D02*
X0131401Y0047803D01*
X0128999Y0047803D01*
X0132682Y0047803D02*
X0133883Y0047203D01*
X0135084Y0046002D01*
X0133283Y0046002D01*
X0132682Y0045401D01*
X0132682Y0044801D01*
X0133283Y0044200D01*
X0134484Y0044200D01*
X0135084Y0044801D01*
X0135084Y0046002D01*
X0136365Y0047203D02*
X0136966Y0047803D01*
X0138167Y0047803D01*
X0138767Y0047203D01*
X0138767Y0044801D01*
X0138167Y0044200D01*
X0136966Y0044200D01*
X0136365Y0044801D01*
X0123968Y0055200D02*
X0123968Y0058803D01*
X0122166Y0058803D01*
X0121566Y0058203D01*
X0121566Y0057002D01*
X0122166Y0056401D01*
X0123968Y0056401D01*
X0122767Y0056401D02*
X0121566Y0055200D01*
X0120285Y0055801D02*
X0119684Y0055200D01*
X0118483Y0055200D01*
X0117883Y0055801D01*
X0117883Y0056401D01*
X0118483Y0057002D01*
X0120285Y0057002D01*
X0120285Y0055801D01*
X0120285Y0057002D02*
X0119084Y0058203D01*
X0117883Y0058803D01*
X0116602Y0058803D02*
X0114200Y0058803D01*
X0114200Y0058203D01*
X0116602Y0055801D01*
X0116602Y0055200D01*
X0147118Y0059200D02*
X0150721Y0059200D01*
X0150721Y0061002D01*
X0150121Y0061602D01*
X0148920Y0061602D01*
X0148319Y0061002D01*
X0148319Y0059200D01*
X0148319Y0060401D02*
X0147118Y0061602D01*
X0147718Y0062883D02*
X0147118Y0063484D01*
X0147118Y0064685D01*
X0147718Y0065285D01*
X0148319Y0065285D01*
X0148920Y0064685D01*
X0148920Y0062883D01*
X0147718Y0062883D01*
X0148920Y0062883D02*
X0150121Y0064084D01*
X0150721Y0065285D01*
X0150721Y0066566D02*
X0148920Y0066566D01*
X0149520Y0067767D01*
X0149520Y0068368D01*
X0148920Y0068968D01*
X0147718Y0068968D01*
X0147118Y0068368D01*
X0147118Y0067167D01*
X0147718Y0066566D01*
X0150721Y0066566D02*
X0150721Y0068968D01*
X0162107Y0054888D02*
X0162107Y0052486D01*
X0163908Y0054287D01*
X0160305Y0054287D01*
X0160305Y0051204D02*
X0160305Y0048802D01*
X0162707Y0051204D01*
X0163308Y0051204D01*
X0163908Y0050604D01*
X0163908Y0049403D01*
X0163308Y0048802D01*
X0163308Y0047521D02*
X0163908Y0046921D01*
X0163908Y0045119D01*
X0160305Y0045119D01*
X0160305Y0046921D01*
X0160905Y0047521D01*
X0163308Y0047521D01*
X0173300Y0058200D02*
X0174501Y0058200D01*
X0175102Y0058801D01*
X0176383Y0058801D02*
X0176383Y0059401D01*
X0176983Y0060002D01*
X0178785Y0060002D01*
X0178785Y0058801D01*
X0178184Y0058200D01*
X0176983Y0058200D01*
X0176383Y0058801D01*
X0177584Y0061203D02*
X0176383Y0061803D01*
X0177584Y0061203D02*
X0178785Y0060002D01*
X0180066Y0060002D02*
X0180666Y0059401D01*
X0182468Y0059401D01*
X0182468Y0058200D02*
X0182468Y0061803D01*
X0180666Y0061803D01*
X0180066Y0061203D01*
X0180066Y0060002D01*
X0181267Y0059401D02*
X0180066Y0058200D01*
X0175102Y0061203D02*
X0174501Y0061803D01*
X0173300Y0061803D01*
X0172700Y0061203D01*
X0172700Y0060602D01*
X0173300Y0060002D01*
X0172700Y0059401D01*
X0172700Y0058801D01*
X0173300Y0058200D01*
X0173300Y0060002D02*
X0173901Y0060002D01*
X0181151Y0065200D02*
X0181151Y0065801D01*
X0178749Y0068203D01*
X0178749Y0068803D01*
X0181151Y0068803D01*
X0182432Y0068803D02*
X0183633Y0068203D01*
X0184834Y0067002D01*
X0183033Y0067002D01*
X0182432Y0066401D01*
X0182432Y0065801D01*
X0183033Y0065200D01*
X0184234Y0065200D01*
X0184834Y0065801D01*
X0184834Y0067002D01*
X0186115Y0068203D02*
X0186716Y0068803D01*
X0187917Y0068803D01*
X0188517Y0068203D01*
X0188517Y0065801D01*
X0187917Y0065200D01*
X0186716Y0065200D01*
X0186115Y0065801D01*
X0188800Y0061803D02*
X0190602Y0060002D01*
X0188200Y0060002D01*
X0188800Y0061803D02*
X0188800Y0058200D01*
X0191883Y0058801D02*
X0191883Y0059401D01*
X0192483Y0060002D01*
X0194285Y0060002D01*
X0194285Y0058801D01*
X0193684Y0058200D01*
X0192483Y0058200D01*
X0191883Y0058801D01*
X0193084Y0061203D02*
X0194285Y0060002D01*
X0195566Y0060002D02*
X0196166Y0059401D01*
X0197968Y0059401D01*
X0197968Y0058200D02*
X0197968Y0061803D01*
X0196166Y0061803D01*
X0195566Y0061203D01*
X0195566Y0060002D01*
X0196767Y0059401D02*
X0195566Y0058200D01*
X0193084Y0061203D02*
X0191883Y0061803D01*
X0162017Y0037203D02*
X0162017Y0034801D01*
X0161417Y0034200D01*
X0160216Y0034200D01*
X0159615Y0034801D01*
X0158334Y0034801D02*
X0158334Y0036002D01*
X0156533Y0036002D01*
X0155932Y0035401D01*
X0155932Y0034801D01*
X0156533Y0034200D01*
X0157734Y0034200D01*
X0158334Y0034801D01*
X0158334Y0036002D02*
X0157133Y0037203D01*
X0155932Y0037803D01*
X0154651Y0037203D02*
X0154051Y0037803D01*
X0152850Y0037803D01*
X0152249Y0037203D01*
X0152249Y0036602D01*
X0152850Y0036002D01*
X0152249Y0035401D01*
X0152249Y0034801D01*
X0152850Y0034200D01*
X0154051Y0034200D01*
X0154651Y0034801D01*
X0153450Y0036002D02*
X0152850Y0036002D01*
X0159615Y0037203D02*
X0160216Y0037803D01*
X0161417Y0037803D01*
X0162017Y0037203D01*
X0138408Y0099869D02*
X0138408Y0101671D01*
X0137808Y0102271D01*
X0135405Y0102271D01*
X0134805Y0101671D01*
X0134805Y0099869D01*
X0138408Y0099869D01*
X0137808Y0103552D02*
X0138408Y0104153D01*
X0138408Y0105354D01*
X0137808Y0105954D01*
X0137207Y0105954D01*
X0134805Y0103552D01*
X0134805Y0105954D01*
X0135405Y0107236D02*
X0134805Y0107836D01*
X0134805Y0109037D01*
X0135405Y0109638D01*
X0136607Y0109638D01*
X0137207Y0109037D01*
X0137207Y0108437D01*
X0136607Y0107236D01*
X0138408Y0107236D01*
X0138408Y0109638D01*
X0155749Y0109203D02*
X0156350Y0109803D01*
X0157551Y0109803D01*
X0158151Y0109203D01*
X0158151Y0108602D01*
X0157551Y0108002D01*
X0155749Y0108002D01*
X0155749Y0106801D02*
X0155749Y0109203D01*
X0155749Y0106801D02*
X0156350Y0106200D01*
X0157551Y0106200D01*
X0158151Y0106801D01*
X0159432Y0106801D02*
X0159432Y0107401D01*
X0160033Y0108002D01*
X0161834Y0108002D01*
X0161834Y0106801D01*
X0161234Y0106200D01*
X0160033Y0106200D01*
X0159432Y0106801D01*
X0160633Y0109203D02*
X0161834Y0108002D01*
X0163115Y0108002D02*
X0163716Y0107401D01*
X0165517Y0107401D01*
X0164316Y0107401D02*
X0163115Y0106200D01*
X0163115Y0108002D02*
X0163115Y0109203D01*
X0163716Y0109803D01*
X0165517Y0109803D01*
X0165517Y0106200D01*
X0160633Y0109203D02*
X0159432Y0109803D01*
X0171499Y0108953D02*
X0173901Y0106551D01*
X0173301Y0105950D01*
X0172100Y0105950D01*
X0171499Y0106551D01*
X0171499Y0108953D01*
X0172100Y0109553D01*
X0173301Y0109553D01*
X0173901Y0108953D01*
X0173901Y0106551D01*
X0175182Y0108953D02*
X0177584Y0106551D01*
X0177584Y0105950D01*
X0178865Y0105950D02*
X0180066Y0107151D01*
X0179466Y0107151D02*
X0181267Y0107151D01*
X0181267Y0105950D02*
X0181267Y0109553D01*
X0179466Y0109553D01*
X0178865Y0108953D01*
X0178865Y0107752D01*
X0179466Y0107151D01*
X0177584Y0109553D02*
X0175182Y0109553D01*
X0175182Y0108953D01*
X0222618Y0136301D02*
X0222618Y0137502D01*
X0223218Y0138102D01*
X0223218Y0139383D02*
X0222618Y0139383D01*
X0223218Y0139383D02*
X0225621Y0141785D01*
X0226221Y0141785D01*
X0226221Y0139383D01*
X0225621Y0138102D02*
X0226221Y0137502D01*
X0226221Y0136301D01*
X0225621Y0135700D01*
X0223218Y0135700D01*
X0222618Y0136301D01*
X0224420Y0143066D02*
X0224420Y0145468D01*
X0226221Y0144868D02*
X0224420Y0143066D01*
X0226221Y0144868D02*
X0222618Y0144868D01*
X0243749Y0137953D02*
X0243749Y0135551D01*
X0244350Y0134950D01*
X0245551Y0134950D01*
X0246151Y0135551D01*
X0245551Y0136752D02*
X0243749Y0136752D01*
X0243749Y0137953D02*
X0244350Y0138553D01*
X0245551Y0138553D01*
X0246151Y0137953D01*
X0246151Y0137352D01*
X0245551Y0136752D01*
X0247432Y0137953D02*
X0249834Y0135551D01*
X0249834Y0134950D01*
X0251115Y0134950D02*
X0252316Y0136151D01*
X0251716Y0136151D02*
X0253517Y0136151D01*
X0253517Y0134950D02*
X0253517Y0138553D01*
X0251716Y0138553D01*
X0251115Y0137953D01*
X0251115Y0136752D01*
X0251716Y0136151D01*
X0249834Y0138553D02*
X0247432Y0138553D01*
X0247432Y0137953D01*
X0246319Y0139901D02*
X0246319Y0141702D01*
X0246920Y0142303D01*
X0248121Y0142303D01*
X0248721Y0141702D01*
X0248721Y0139901D01*
X0245118Y0139901D01*
X0246319Y0141102D02*
X0245118Y0142303D01*
X0245718Y0143584D02*
X0246319Y0143584D01*
X0246920Y0144184D01*
X0246920Y0145385D01*
X0246319Y0145986D01*
X0245718Y0145986D01*
X0245118Y0145385D01*
X0245118Y0144184D01*
X0245718Y0143584D01*
X0246920Y0144184D02*
X0247520Y0143584D01*
X0248121Y0143584D01*
X0248721Y0144184D01*
X0248721Y0145385D01*
X0248121Y0145986D01*
X0247520Y0145986D01*
X0246920Y0145385D01*
X0246920Y0147267D02*
X0247520Y0148468D01*
X0247520Y0149068D01*
X0246920Y0149669D01*
X0245718Y0149669D01*
X0245118Y0149068D01*
X0245118Y0147867D01*
X0245718Y0147267D01*
X0246920Y0147267D02*
X0248721Y0147267D01*
X0248721Y0149669D01*
X0258868Y0153151D02*
X0262471Y0153151D01*
X0262471Y0154952D01*
X0261871Y0155553D01*
X0260670Y0155553D01*
X0260069Y0154952D01*
X0260069Y0153151D01*
X0260069Y0154352D02*
X0258868Y0155553D01*
X0258868Y0156834D02*
X0259468Y0156834D01*
X0261871Y0159236D01*
X0262471Y0159236D01*
X0262471Y0156834D01*
X0262471Y0160517D02*
X0262471Y0162919D01*
X0261871Y0162919D01*
X0259468Y0160517D01*
X0258868Y0160517D01*
X0246721Y0169450D02*
X0246721Y0171252D01*
X0246121Y0171852D01*
X0244920Y0171852D01*
X0244319Y0171252D01*
X0244319Y0169450D01*
X0244319Y0170651D02*
X0243118Y0171852D01*
X0243718Y0173133D02*
X0244319Y0173133D01*
X0244920Y0173734D01*
X0244920Y0174935D01*
X0244319Y0175535D01*
X0243718Y0175535D01*
X0243118Y0174935D01*
X0243118Y0173734D01*
X0243718Y0173133D01*
X0244920Y0173734D02*
X0245520Y0173133D01*
X0246121Y0173133D01*
X0246721Y0173734D01*
X0246721Y0174935D01*
X0246121Y0175535D01*
X0245520Y0175535D01*
X0244920Y0174935D01*
X0246121Y0176816D02*
X0246721Y0177417D01*
X0246721Y0178618D01*
X0246121Y0179218D01*
X0245520Y0179218D01*
X0243118Y0176816D01*
X0243118Y0179218D01*
X0246600Y0186700D02*
X0247801Y0186700D01*
X0248401Y0187301D01*
X0248401Y0188502D02*
X0247200Y0189102D01*
X0246600Y0189102D01*
X0245999Y0188502D01*
X0245999Y0187301D01*
X0246600Y0186700D01*
X0248401Y0188502D02*
X0248401Y0190303D01*
X0245999Y0190303D01*
X0249682Y0190303D02*
X0249682Y0189703D01*
X0252084Y0187301D01*
X0252084Y0186700D01*
X0253365Y0186700D02*
X0254566Y0187901D01*
X0253966Y0187901D02*
X0255767Y0187901D01*
X0255767Y0186700D02*
X0255767Y0190303D01*
X0253966Y0190303D01*
X0253365Y0189703D01*
X0253365Y0188502D01*
X0253966Y0187901D01*
X0252084Y0190303D02*
X0249682Y0190303D01*
X0270999Y0185203D02*
X0270999Y0184602D01*
X0271600Y0184002D01*
X0270999Y0183401D01*
X0270999Y0182801D01*
X0271600Y0182200D01*
X0272801Y0182200D01*
X0273401Y0182801D01*
X0274682Y0182200D02*
X0276484Y0184002D01*
X0277084Y0183401D02*
X0274682Y0185803D01*
X0273401Y0185203D02*
X0272801Y0185803D01*
X0271600Y0185803D01*
X0270999Y0185203D01*
X0271600Y0184002D02*
X0272200Y0184002D01*
X0277084Y0185803D02*
X0277084Y0182200D01*
X0278365Y0182801D02*
X0278365Y0185203D01*
X0278966Y0185803D01*
X0280167Y0185803D01*
X0280767Y0185203D01*
X0280767Y0182801D01*
X0280167Y0182200D01*
X0278966Y0182200D01*
X0278365Y0182801D01*
X0246721Y0169450D02*
X0243118Y0169450D01*
X0222371Y0207200D02*
X0219968Y0207200D01*
X0219368Y0207801D01*
X0219368Y0209002D01*
X0219968Y0209602D01*
X0219968Y0210883D02*
X0219368Y0210883D01*
X0219968Y0210883D02*
X0222371Y0213285D01*
X0222971Y0213285D01*
X0222971Y0210883D01*
X0222371Y0209602D02*
X0222971Y0209002D01*
X0222971Y0207801D01*
X0222371Y0207200D01*
X0226749Y0209252D02*
X0229151Y0209252D01*
X0227350Y0211053D01*
X0227350Y0207450D01*
X0230432Y0208051D02*
X0231033Y0207450D01*
X0232234Y0207450D01*
X0232834Y0208051D01*
X0232834Y0208651D01*
X0232234Y0209252D01*
X0231033Y0209252D01*
X0230432Y0208651D01*
X0230432Y0208051D01*
X0231033Y0209252D02*
X0230432Y0209852D01*
X0230432Y0210453D01*
X0231033Y0211053D01*
X0232234Y0211053D01*
X0232834Y0210453D01*
X0232834Y0209852D01*
X0232234Y0209252D01*
X0234115Y0209252D02*
X0234716Y0208651D01*
X0236517Y0208651D01*
X0235316Y0208651D02*
X0234115Y0207450D01*
X0234115Y0209252D02*
X0234115Y0210453D01*
X0234716Y0211053D01*
X0236517Y0211053D01*
X0236517Y0207450D01*
X0242749Y0209252D02*
X0245151Y0209252D01*
X0243350Y0211053D01*
X0243350Y0207450D01*
X0246432Y0210453D02*
X0248834Y0208051D01*
X0248834Y0207450D01*
X0250115Y0207450D02*
X0251316Y0208651D01*
X0250716Y0208651D02*
X0252517Y0208651D01*
X0252517Y0207450D02*
X0252517Y0211053D01*
X0250716Y0211053D01*
X0250115Y0210453D01*
X0250115Y0209252D01*
X0250716Y0208651D01*
X0248834Y0211053D02*
X0246432Y0211053D01*
X0246432Y0210453D01*
X0222971Y0215167D02*
X0222371Y0214566D01*
X0219968Y0214566D01*
X0222371Y0216968D01*
X0219968Y0216968D01*
X0219368Y0216368D01*
X0219368Y0215167D01*
X0219968Y0214566D01*
X0222971Y0215167D02*
X0222971Y0216368D01*
X0222371Y0216968D01*
X0195968Y0215901D02*
X0194166Y0215901D01*
X0193566Y0216502D01*
X0193566Y0217703D01*
X0194166Y0218303D01*
X0195968Y0218303D01*
X0195968Y0214700D01*
X0194767Y0215901D02*
X0193566Y0214700D01*
X0192285Y0214700D02*
X0192285Y0215301D01*
X0189883Y0217703D01*
X0189883Y0218303D01*
X0192285Y0218303D01*
X0188602Y0216502D02*
X0186800Y0216502D01*
X0186200Y0215901D01*
X0186200Y0215301D01*
X0186800Y0214700D01*
X0188001Y0214700D01*
X0188602Y0215301D01*
X0188602Y0216502D01*
X0187401Y0217703D01*
X0186200Y0218303D01*
X0174468Y0208953D02*
X0174468Y0206551D01*
X0173867Y0205950D01*
X0172666Y0205950D01*
X0172066Y0206551D01*
X0170785Y0206551D02*
X0170785Y0207752D01*
X0168983Y0207752D01*
X0168383Y0207151D01*
X0168383Y0206551D01*
X0168983Y0205950D01*
X0170184Y0205950D01*
X0170785Y0206551D01*
X0170785Y0207752D02*
X0169584Y0208953D01*
X0168383Y0209553D01*
X0167102Y0207752D02*
X0165300Y0207752D01*
X0164700Y0207151D01*
X0164700Y0206551D01*
X0165300Y0205950D01*
X0166501Y0205950D01*
X0167102Y0206551D01*
X0167102Y0207752D01*
X0165901Y0208953D01*
X0164700Y0209553D01*
X0172066Y0208953D02*
X0172666Y0209553D01*
X0173867Y0209553D01*
X0174468Y0208953D01*
X0158721Y0195718D02*
X0158721Y0193316D01*
X0156920Y0193316D01*
X0157520Y0194517D01*
X0157520Y0195118D01*
X0156920Y0195718D01*
X0155718Y0195718D01*
X0155118Y0195118D01*
X0155118Y0193917D01*
X0155718Y0193316D01*
X0158121Y0192035D02*
X0155718Y0189633D01*
X0155118Y0189633D01*
X0155718Y0188352D02*
X0155118Y0187752D01*
X0155118Y0186551D01*
X0155718Y0185950D01*
X0158121Y0185950D01*
X0158721Y0186551D01*
X0158721Y0187752D01*
X0158121Y0188352D01*
X0158721Y0189633D02*
X0158721Y0192035D01*
X0158121Y0192035D01*
X0150017Y0188953D02*
X0150017Y0186551D01*
X0149417Y0185950D01*
X0148216Y0185950D01*
X0147615Y0186551D01*
X0146334Y0186551D02*
X0146334Y0185950D01*
X0146334Y0186551D02*
X0143932Y0188953D01*
X0143932Y0189553D01*
X0146334Y0189553D01*
X0147615Y0188953D02*
X0148216Y0189553D01*
X0149417Y0189553D01*
X0150017Y0188953D01*
X0142651Y0187752D02*
X0142651Y0186551D01*
X0142051Y0185950D01*
X0140850Y0185950D01*
X0140249Y0186551D01*
X0140249Y0187151D01*
X0140850Y0187752D01*
X0142651Y0187752D01*
X0141450Y0188953D01*
X0140249Y0189553D01*
X0118568Y0179803D02*
X0117367Y0179803D01*
X0117967Y0179803D02*
X0117967Y0176200D01*
X0117367Y0176200D02*
X0118568Y0176200D01*
X0116113Y0176801D02*
X0115512Y0176200D01*
X0114311Y0176200D01*
X0113711Y0176801D01*
X0112429Y0176200D02*
X0110027Y0176200D01*
X0111228Y0176200D02*
X0111228Y0179803D01*
X0112429Y0178602D01*
X0113711Y0179203D02*
X0114311Y0179803D01*
X0115512Y0179803D01*
X0116113Y0179203D01*
X0116113Y0176801D01*
X0108746Y0176801D02*
X0106344Y0179203D01*
X0106344Y0176801D01*
X0106945Y0176200D01*
X0108146Y0176200D01*
X0108746Y0176801D01*
X0108746Y0179203D01*
X0108146Y0179803D01*
X0106945Y0179803D01*
X0106344Y0179203D01*
X0123499Y0162553D02*
X0123499Y0161953D01*
X0125901Y0159551D01*
X0125901Y0158950D01*
X0127182Y0159551D02*
X0127783Y0158950D01*
X0128984Y0158950D01*
X0129584Y0159551D01*
X0129584Y0160151D01*
X0128984Y0160752D01*
X0127783Y0160752D01*
X0127182Y0160151D01*
X0127182Y0159551D01*
X0127783Y0160752D02*
X0127182Y0161352D01*
X0127182Y0161953D01*
X0127783Y0162553D01*
X0128984Y0162553D01*
X0129584Y0161953D01*
X0129584Y0161352D01*
X0128984Y0160752D01*
X0130865Y0160752D02*
X0131466Y0160151D01*
X0133267Y0160151D01*
X0132066Y0160151D02*
X0130865Y0158950D01*
X0130865Y0160752D02*
X0130865Y0161953D01*
X0131466Y0162553D01*
X0133267Y0162553D01*
X0133267Y0158950D01*
X0125901Y0162553D02*
X0123499Y0162553D01*
X0142450Y0165801D02*
X0142450Y0166401D01*
X0143050Y0167002D01*
X0144852Y0167002D01*
X0144852Y0165801D01*
X0144251Y0165200D01*
X0143050Y0165200D01*
X0142450Y0165801D01*
X0143651Y0168203D02*
X0144852Y0167002D01*
X0146133Y0167602D02*
X0146133Y0168203D01*
X0146733Y0168803D01*
X0147934Y0168803D01*
X0148535Y0168203D01*
X0148535Y0167602D01*
X0147934Y0167002D01*
X0146733Y0167002D01*
X0146133Y0166401D01*
X0146133Y0165801D01*
X0146733Y0165200D01*
X0147934Y0165200D01*
X0148535Y0165801D01*
X0148535Y0166401D01*
X0147934Y0167002D01*
X0146733Y0167002D02*
X0146133Y0167602D01*
X0143651Y0168203D02*
X0142450Y0168803D01*
X0149816Y0168203D02*
X0149816Y0167002D01*
X0150416Y0166401D01*
X0152218Y0166401D01*
X0152218Y0165200D02*
X0152218Y0168803D01*
X0150416Y0168803D01*
X0149816Y0168203D01*
X0151017Y0166401D02*
X0149816Y0165200D01*
X0168368Y0176401D02*
X0171971Y0176401D01*
X0171971Y0178202D01*
X0171371Y0178803D01*
X0170170Y0178803D01*
X0169569Y0178202D01*
X0169569Y0176401D01*
X0169569Y0177602D02*
X0168368Y0178803D01*
X0168368Y0180084D02*
X0168968Y0180084D01*
X0171371Y0182486D01*
X0171971Y0182486D01*
X0171971Y0180084D01*
X0174868Y0180584D02*
X0175468Y0180584D01*
X0177871Y0182986D01*
X0178471Y0182986D01*
X0178471Y0180584D01*
X0177871Y0179303D02*
X0176670Y0179303D01*
X0176069Y0178702D01*
X0176069Y0176901D01*
X0176069Y0178102D02*
X0174868Y0179303D01*
X0174868Y0176901D02*
X0178471Y0176901D01*
X0178471Y0178702D01*
X0177871Y0179303D01*
X0171971Y0184367D02*
X0171371Y0183767D01*
X0171971Y0184367D02*
X0171971Y0185568D01*
X0171371Y0186169D01*
X0170770Y0186169D01*
X0170170Y0185568D01*
X0169569Y0186169D01*
X0168968Y0186169D01*
X0168368Y0185568D01*
X0168368Y0184367D01*
X0168968Y0183767D01*
X0170170Y0184968D02*
X0170170Y0185568D01*
X0174868Y0185468D02*
X0178471Y0185468D01*
X0177270Y0184267D01*
X0174868Y0184267D02*
X0174868Y0186669D01*
X0120517Y0212200D02*
X0120517Y0215803D01*
X0118716Y0215803D01*
X0118115Y0215203D01*
X0118115Y0214002D01*
X0118716Y0213401D01*
X0120517Y0213401D01*
X0119316Y0213401D02*
X0118115Y0212200D01*
X0116834Y0212200D02*
X0114432Y0212200D01*
X0115633Y0212200D02*
X0115633Y0215803D01*
X0116834Y0214602D01*
X0113151Y0215803D02*
X0110749Y0215803D01*
X0110749Y0215203D01*
X0113151Y0212801D01*
X0113151Y0212200D01*
X0118218Y0221651D02*
X0117618Y0222251D01*
X0117618Y0223452D01*
X0118218Y0224053D01*
X0117618Y0225334D02*
X0120020Y0227736D01*
X0120621Y0227736D01*
X0121221Y0227135D01*
X0121221Y0225934D01*
X0120621Y0225334D01*
X0120621Y0224053D02*
X0121221Y0223452D01*
X0121221Y0222251D01*
X0120621Y0221651D01*
X0118218Y0221651D01*
X0117618Y0225334D02*
X0117618Y0227736D01*
X0117618Y0229017D02*
X0120020Y0231419D01*
X0120621Y0231419D01*
X0121221Y0230818D01*
X0121221Y0229617D01*
X0120621Y0229017D01*
X0117618Y0229017D02*
X0117618Y0231419D01*
X0100068Y0249450D02*
X0098867Y0249450D01*
X0099467Y0249450D02*
X0099467Y0253053D01*
X0098867Y0253053D02*
X0100068Y0253053D01*
X0097613Y0252453D02*
X0097613Y0250051D01*
X0097012Y0249450D01*
X0095811Y0249450D01*
X0095211Y0250051D01*
X0093929Y0249450D02*
X0091527Y0251852D01*
X0091527Y0252453D01*
X0092128Y0253053D01*
X0093329Y0253053D01*
X0093929Y0252453D01*
X0095211Y0252453D02*
X0095811Y0253053D01*
X0097012Y0253053D01*
X0097613Y0252453D01*
X0093929Y0249450D02*
X0091527Y0249450D01*
X0086158Y0225204D02*
X0085558Y0225204D01*
X0083155Y0222802D01*
X0082555Y0222802D01*
X0083155Y0221521D02*
X0085558Y0221521D01*
X0086158Y0220921D01*
X0086158Y0219119D01*
X0082555Y0219119D01*
X0082555Y0220921D01*
X0083155Y0221521D01*
X0086158Y0222802D02*
X0086158Y0225204D01*
X0077468Y0216053D02*
X0075666Y0216053D01*
X0075066Y0215453D01*
X0075066Y0214252D01*
X0075666Y0213651D01*
X0077468Y0213651D01*
X0077468Y0212450D02*
X0077468Y0216053D01*
X0076267Y0213651D02*
X0075066Y0212450D01*
X0074721Y0212617D02*
X0074721Y0213818D01*
X0074121Y0214419D01*
X0073520Y0214419D01*
X0072920Y0213818D01*
X0072319Y0214419D01*
X0071718Y0214419D01*
X0071118Y0213818D01*
X0071118Y0212617D01*
X0071718Y0212017D01*
X0071383Y0212450D02*
X0073785Y0212450D01*
X0074121Y0212017D02*
X0074721Y0212617D01*
X0072920Y0213218D02*
X0072920Y0213818D01*
X0073785Y0214852D02*
X0072584Y0216053D01*
X0072584Y0212450D01*
X0073520Y0210736D02*
X0074121Y0210736D01*
X0074721Y0210135D01*
X0074721Y0208934D01*
X0074121Y0208334D01*
X0074121Y0207053D02*
X0074721Y0206452D01*
X0074721Y0205251D01*
X0074121Y0204651D01*
X0071718Y0204651D01*
X0071118Y0205251D01*
X0071118Y0206452D01*
X0071718Y0207053D01*
X0071118Y0208334D02*
X0073520Y0210736D01*
X0071118Y0210736D02*
X0071118Y0208334D01*
X0068300Y0212450D02*
X0068300Y0216053D01*
X0070102Y0214252D01*
X0067700Y0214252D01*
X0064934Y0211250D02*
X0065534Y0210649D01*
X0065534Y0209448D01*
X0064934Y0208848D01*
X0064333Y0208848D01*
X0063733Y0209448D01*
X0063733Y0211250D01*
X0064934Y0211250D02*
X0062531Y0211250D01*
X0061931Y0210649D01*
X0061931Y0209448D01*
X0062531Y0208848D01*
X0062531Y0207566D02*
X0064934Y0207566D01*
X0065534Y0206966D01*
X0065534Y0205164D01*
X0061931Y0205164D01*
X0061931Y0206966D01*
X0062531Y0207566D01*
X0047917Y0191553D02*
X0048517Y0190953D01*
X0048517Y0188551D01*
X0047917Y0187950D01*
X0046716Y0187950D01*
X0046115Y0188551D01*
X0044834Y0188551D02*
X0044234Y0187950D01*
X0043033Y0187950D01*
X0042432Y0188551D01*
X0042432Y0189151D01*
X0043033Y0189752D01*
X0044834Y0189752D01*
X0044834Y0188551D01*
X0044834Y0189752D02*
X0043633Y0190953D01*
X0042432Y0191553D01*
X0041151Y0190352D02*
X0039950Y0191553D01*
X0039950Y0187950D01*
X0041151Y0187950D02*
X0038749Y0187950D01*
X0046115Y0190953D02*
X0046716Y0191553D01*
X0047917Y0191553D01*
X0173499Y0239801D02*
X0173499Y0240401D01*
X0174100Y0241002D01*
X0175901Y0241002D01*
X0175901Y0239801D01*
X0175301Y0239200D01*
X0174100Y0239200D01*
X0173499Y0239801D01*
X0174700Y0242203D02*
X0175901Y0241002D01*
X0174700Y0242203D02*
X0173499Y0242803D01*
X0178383Y0242803D02*
X0178383Y0239200D01*
X0179584Y0239200D02*
X0177182Y0239200D01*
X0179584Y0241602D02*
X0178383Y0242803D01*
X0180865Y0242203D02*
X0181466Y0242803D01*
X0183267Y0242803D01*
X0183267Y0239200D01*
X0183267Y0240401D02*
X0181466Y0240401D01*
X0180865Y0241002D01*
X0180865Y0242203D01*
X0182066Y0240401D02*
X0180865Y0239200D01*
X0180066Y0254950D02*
X0181267Y0256151D01*
X0180666Y0256151D02*
X0182468Y0256151D01*
X0182468Y0254950D02*
X0182468Y0258553D01*
X0180666Y0258553D01*
X0180066Y0257953D01*
X0180066Y0256752D01*
X0180666Y0256151D01*
X0178785Y0254950D02*
X0176383Y0257352D01*
X0176383Y0257953D01*
X0176983Y0258553D01*
X0178184Y0258553D01*
X0178785Y0257953D01*
X0178785Y0254950D02*
X0176383Y0254950D01*
X0175102Y0255551D02*
X0174501Y0254950D01*
X0173300Y0254950D01*
X0172700Y0255551D01*
X0172700Y0256151D01*
X0173300Y0256752D01*
X0173901Y0256752D01*
X0173300Y0256752D02*
X0172700Y0257352D01*
X0172700Y0257953D01*
X0173300Y0258553D01*
X0174501Y0258553D01*
X0175102Y0257953D01*
X0206618Y0249968D02*
X0206618Y0247566D01*
X0206618Y0248767D02*
X0210221Y0248767D01*
X0209020Y0247566D01*
X0210221Y0246285D02*
X0207819Y0243883D01*
X0208420Y0244484D02*
X0206618Y0246285D01*
X0206618Y0243883D02*
X0210221Y0243883D01*
X0209621Y0242602D02*
X0210221Y0242002D01*
X0210221Y0240801D01*
X0209621Y0240200D01*
X0207218Y0240200D01*
X0206618Y0240801D01*
X0206618Y0242002D01*
X0207218Y0242602D01*
X0209621Y0242602D01*
X0267749Y0276551D02*
X0267749Y0278953D01*
X0270151Y0276551D01*
X0269551Y0275950D01*
X0268350Y0275950D01*
X0267749Y0276551D01*
X0267749Y0278953D02*
X0268350Y0279553D01*
X0269551Y0279553D01*
X0270151Y0278953D01*
X0270151Y0276551D01*
X0271432Y0275950D02*
X0273834Y0275950D01*
X0271432Y0278352D01*
X0271432Y0278953D01*
X0272033Y0279553D01*
X0273234Y0279553D01*
X0273834Y0278953D01*
X0275115Y0278953D02*
X0275716Y0279553D01*
X0276917Y0279553D01*
X0277517Y0278953D01*
X0277517Y0276551D01*
X0276917Y0275950D01*
X0275716Y0275950D01*
X0275115Y0276551D01*
X0273305Y0254638D02*
X0273305Y0252236D01*
X0273305Y0253437D02*
X0276908Y0253437D01*
X0275707Y0252236D01*
X0273305Y0250954D02*
X0273305Y0248552D01*
X0273305Y0249753D02*
X0276908Y0249753D01*
X0275707Y0248552D01*
X0276308Y0247271D02*
X0276908Y0246671D01*
X0276908Y0244869D01*
X0273305Y0244869D01*
X0273305Y0246671D01*
X0273905Y0247271D01*
X0276308Y0247271D01*
X0182468Y0284700D02*
X0180066Y0284700D01*
X0181267Y0284700D02*
X0181267Y0288303D01*
X0182468Y0287102D01*
X0182468Y0290700D02*
X0180066Y0293102D01*
X0180066Y0293703D01*
X0180666Y0294303D01*
X0181867Y0294303D01*
X0182468Y0293703D01*
X0182468Y0290700D02*
X0180066Y0290700D01*
X0175102Y0290700D02*
X0175102Y0294303D01*
X0173300Y0294303D01*
X0172700Y0293703D01*
X0172700Y0293102D01*
X0173300Y0292502D01*
X0175102Y0292502D01*
X0173300Y0292502D02*
X0172700Y0291901D01*
X0172700Y0291301D01*
X0173300Y0290700D01*
X0175102Y0290700D01*
X0175102Y0288303D02*
X0175102Y0285301D01*
X0174501Y0284700D01*
X0173300Y0284700D01*
X0172700Y0285301D01*
X0172700Y0288303D01*
X0171419Y0290700D02*
X0170218Y0290700D01*
X0170818Y0290700D02*
X0170818Y0293102D01*
X0171419Y0293102D01*
X0170818Y0294303D02*
X0170818Y0294904D01*
X0170818Y0296700D02*
X0170818Y0299102D01*
X0171419Y0299102D01*
X0172700Y0299102D02*
X0173300Y0298502D01*
X0175102Y0298502D01*
X0175102Y0300303D02*
X0173300Y0300303D01*
X0172700Y0299703D01*
X0172700Y0299102D01*
X0173300Y0298502D02*
X0172700Y0297901D01*
X0172700Y0297301D01*
X0173300Y0296700D01*
X0175102Y0296700D01*
X0175102Y0300303D01*
X0175102Y0302700D02*
X0175102Y0306303D01*
X0173300Y0306303D01*
X0172700Y0305703D01*
X0172700Y0304502D01*
X0173300Y0303901D01*
X0175102Y0303901D01*
X0171419Y0303301D02*
X0170818Y0302700D01*
X0170218Y0303301D01*
X0169617Y0302700D01*
X0169016Y0303301D01*
X0169016Y0305102D01*
X0167735Y0305102D02*
X0167735Y0302700D01*
X0167735Y0303901D02*
X0166534Y0305102D01*
X0165934Y0305102D01*
X0164666Y0304502D02*
X0164666Y0303301D01*
X0164066Y0302700D01*
X0162264Y0302700D01*
X0162264Y0302099D02*
X0162264Y0305102D01*
X0164066Y0305102D01*
X0164666Y0304502D01*
X0163465Y0301499D02*
X0162865Y0301499D01*
X0162264Y0302099D01*
X0160983Y0303301D02*
X0160382Y0302700D01*
X0159181Y0302700D01*
X0158581Y0303301D01*
X0158581Y0304502D01*
X0159181Y0305102D01*
X0160382Y0305102D01*
X0160983Y0304502D01*
X0160983Y0303301D01*
X0160396Y0299703D02*
X0160396Y0297301D01*
X0161597Y0298502D02*
X0159195Y0298502D01*
X0162878Y0299102D02*
X0164679Y0299102D01*
X0165280Y0298502D01*
X0164679Y0297901D01*
X0163478Y0297901D01*
X0162878Y0297301D01*
X0163478Y0296700D01*
X0165280Y0296700D01*
X0166561Y0296700D02*
X0168363Y0296700D01*
X0168963Y0297301D01*
X0168363Y0297901D01*
X0166561Y0297901D01*
X0166561Y0298502D02*
X0166561Y0296700D01*
X0166561Y0298502D02*
X0167162Y0299102D01*
X0168363Y0299102D01*
X0170818Y0300303D02*
X0170818Y0300904D01*
X0171419Y0303301D02*
X0171419Y0305102D01*
X0170818Y0308700D02*
X0171419Y0309301D01*
X0170818Y0308700D02*
X0169617Y0308700D01*
X0169016Y0309301D01*
X0169016Y0310502D01*
X0169617Y0311102D01*
X0170218Y0311102D01*
X0171419Y0310502D01*
X0171419Y0312303D01*
X0169016Y0312303D01*
X0167735Y0312303D02*
X0167735Y0309901D01*
X0166534Y0308700D01*
X0165333Y0309901D01*
X0165333Y0312303D01*
X0164052Y0310502D02*
X0163452Y0311102D01*
X0161650Y0311102D01*
X0161650Y0312303D02*
X0161650Y0308700D01*
X0163452Y0308700D01*
X0164052Y0309301D01*
X0164052Y0310502D01*
X0160369Y0310502D02*
X0160369Y0309301D01*
X0159769Y0308700D01*
X0157967Y0308700D01*
X0157967Y0311102D02*
X0159769Y0311102D01*
X0160369Y0310502D01*
X0165333Y0314700D02*
X0167135Y0314700D01*
X0167735Y0315301D01*
X0167735Y0316502D01*
X0167135Y0317102D01*
X0165333Y0317102D01*
X0165333Y0318303D02*
X0165333Y0314700D01*
X0169016Y0314700D02*
X0169016Y0316502D01*
X0169617Y0317102D01*
X0171419Y0317102D01*
X0171419Y0314700D01*
X0172700Y0315301D02*
X0172700Y0316502D01*
X0173901Y0316502D01*
X0175102Y0317703D02*
X0175102Y0315301D01*
X0174501Y0314700D01*
X0173300Y0314700D01*
X0172700Y0315301D01*
X0172700Y0317703D02*
X0173300Y0318303D01*
X0174501Y0318303D01*
X0175102Y0317703D01*
X0175102Y0322502D02*
X0172700Y0322502D01*
X0171419Y0322502D02*
X0170218Y0323102D01*
X0169617Y0323102D01*
X0169016Y0322502D01*
X0169016Y0321301D01*
X0169617Y0320700D01*
X0170818Y0320700D01*
X0171419Y0321301D01*
X0171419Y0322502D02*
X0171419Y0324303D01*
X0169016Y0324303D01*
X0167735Y0324303D02*
X0167735Y0321901D01*
X0166534Y0320700D01*
X0165333Y0321901D01*
X0165333Y0324303D01*
X0164052Y0322502D02*
X0163452Y0323102D01*
X0161650Y0323102D01*
X0161650Y0324303D02*
X0161650Y0320700D01*
X0163452Y0320700D01*
X0164052Y0321301D01*
X0164052Y0322502D01*
X0160369Y0322502D02*
X0160369Y0321301D01*
X0159769Y0320700D01*
X0157967Y0320700D01*
X0157967Y0323102D02*
X0159769Y0323102D01*
X0160369Y0322502D01*
X0159769Y0326700D02*
X0157967Y0326700D01*
X0159769Y0326700D02*
X0160369Y0327301D01*
X0160369Y0328502D01*
X0159769Y0329102D01*
X0157967Y0329102D01*
X0161650Y0329102D02*
X0163452Y0329102D01*
X0164052Y0328502D01*
X0164052Y0327301D01*
X0163452Y0326700D01*
X0161650Y0326700D01*
X0161650Y0330303D01*
X0165333Y0330303D02*
X0165333Y0327901D01*
X0166534Y0326700D01*
X0167735Y0327901D01*
X0167735Y0330303D01*
X0169016Y0329703D02*
X0169617Y0330303D01*
X0170818Y0330303D01*
X0171419Y0329703D01*
X0171419Y0329102D01*
X0170818Y0328502D01*
X0169016Y0328502D01*
X0169016Y0327301D02*
X0169016Y0329703D01*
X0169016Y0327301D02*
X0169617Y0326700D01*
X0170818Y0326700D01*
X0171419Y0327301D01*
X0172700Y0328502D02*
X0175102Y0328502D01*
X0180066Y0329102D02*
X0180666Y0328502D01*
X0181867Y0328502D01*
X0182468Y0329102D01*
X0182468Y0329703D01*
X0181867Y0330303D01*
X0180666Y0330303D01*
X0180066Y0329703D01*
X0180066Y0329102D01*
X0180666Y0328502D02*
X0180066Y0327901D01*
X0180066Y0327301D01*
X0180666Y0326700D01*
X0181867Y0326700D01*
X0182468Y0327301D01*
X0182468Y0327901D01*
X0181867Y0328502D01*
X0178818Y0335200D02*
X0177016Y0335200D01*
X0175735Y0335801D02*
X0175135Y0335200D01*
X0173934Y0335200D01*
X0173333Y0335801D01*
X0173333Y0337002D01*
X0173934Y0337602D01*
X0175135Y0337602D01*
X0175735Y0337002D01*
X0175735Y0335801D01*
X0177016Y0337602D02*
X0178818Y0337602D01*
X0179419Y0337002D01*
X0179419Y0335801D01*
X0178818Y0335200D01*
X0184383Y0335801D02*
X0184383Y0336401D01*
X0184983Y0337002D01*
X0185584Y0337002D01*
X0184983Y0337002D02*
X0184383Y0337602D01*
X0184383Y0338203D01*
X0184983Y0338803D01*
X0186184Y0338803D01*
X0186785Y0338203D01*
X0188066Y0338803D02*
X0190468Y0335200D01*
X0188066Y0335200D02*
X0190468Y0338803D01*
X0186785Y0335801D02*
X0186184Y0335200D01*
X0184983Y0335200D01*
X0184383Y0335801D01*
X0172052Y0335200D02*
X0172052Y0337602D01*
X0170251Y0337602D01*
X0169650Y0337002D01*
X0169650Y0335200D01*
X0168369Y0335200D02*
X0168369Y0337602D01*
X0166568Y0337602D01*
X0165967Y0337002D01*
X0165967Y0335200D01*
X0164686Y0335801D02*
X0164686Y0337002D01*
X0164085Y0337602D01*
X0162884Y0337602D01*
X0162284Y0337002D01*
X0162284Y0336401D01*
X0164686Y0336401D01*
X0164686Y0335801D02*
X0164085Y0335200D01*
X0162884Y0335200D01*
X0161003Y0335801D02*
X0160402Y0335200D01*
X0158601Y0335200D01*
X0156719Y0335801D02*
X0156719Y0338203D01*
X0157320Y0337602D02*
X0156119Y0337602D01*
X0154864Y0337002D02*
X0154864Y0335801D01*
X0154264Y0335200D01*
X0153063Y0335200D01*
X0152462Y0335801D01*
X0152462Y0337002D01*
X0153063Y0337602D01*
X0154264Y0337602D01*
X0154864Y0337002D01*
X0156119Y0335200D02*
X0156719Y0335801D01*
X0158601Y0337602D02*
X0160402Y0337602D01*
X0161003Y0337002D01*
X0161003Y0335801D01*
X0151181Y0336401D02*
X0149980Y0337602D01*
X0149380Y0337602D01*
X0151181Y0337602D02*
X0151181Y0335200D01*
X0180066Y0324303D02*
X0180066Y0323703D01*
X0182468Y0321301D01*
X0182468Y0320700D01*
X0181267Y0317703D02*
X0182468Y0316502D01*
X0180666Y0316502D01*
X0180066Y0315901D01*
X0180066Y0315301D01*
X0180666Y0314700D01*
X0181867Y0314700D01*
X0182468Y0315301D01*
X0182468Y0316502D01*
X0181267Y0317703D02*
X0180066Y0318303D01*
X0180066Y0324303D02*
X0182468Y0324303D01*
X0182468Y0312303D02*
X0182468Y0310502D01*
X0181267Y0311102D01*
X0180666Y0311102D01*
X0180066Y0310502D01*
X0180066Y0309301D01*
X0180666Y0308700D01*
X0181867Y0308700D01*
X0182468Y0309301D01*
X0182468Y0312303D02*
X0180066Y0312303D01*
X0175102Y0310502D02*
X0172700Y0310502D01*
X0173901Y0311703D02*
X0173901Y0309301D01*
X0180666Y0306303D02*
X0182468Y0304502D01*
X0180066Y0304502D01*
X0180666Y0306303D02*
X0180666Y0302700D01*
X0180666Y0300303D02*
X0180066Y0299703D01*
X0180066Y0299102D01*
X0180666Y0298502D01*
X0180066Y0297901D01*
X0180066Y0297301D01*
X0180666Y0296700D01*
X0181867Y0296700D01*
X0182468Y0297301D01*
X0181267Y0298502D02*
X0180666Y0298502D01*
X0180666Y0300303D02*
X0181867Y0300303D01*
X0182468Y0299703D01*
X0171419Y0296700D02*
X0170218Y0296700D01*
X0168363Y0293102D02*
X0167162Y0293102D01*
X0166561Y0292502D01*
X0166561Y0290700D01*
X0168363Y0290700D01*
X0168963Y0291301D01*
X0168363Y0291901D01*
X0166561Y0291901D01*
X0165280Y0292502D02*
X0164679Y0293102D01*
X0162878Y0293102D01*
X0163478Y0291901D02*
X0164679Y0291901D01*
X0165280Y0292502D01*
X0165280Y0290700D02*
X0163478Y0290700D01*
X0162878Y0291301D01*
X0163478Y0291901D01*
X0161597Y0292502D02*
X0159195Y0292502D01*
X0160369Y0288303D02*
X0157967Y0284700D01*
X0157967Y0288303D01*
X0160369Y0288303D02*
X0160369Y0284700D01*
X0161650Y0285301D02*
X0161650Y0287703D01*
X0162251Y0288303D01*
X0163452Y0288303D01*
X0164052Y0287703D01*
X0164052Y0285301D01*
X0163452Y0284700D01*
X0162251Y0284700D01*
X0161650Y0285301D01*
X0165333Y0284700D02*
X0165333Y0288303D01*
X0166534Y0287102D01*
X0167735Y0288303D01*
X0167735Y0284700D01*
X0169016Y0284099D02*
X0171419Y0284099D01*
X0156699Y0302700D02*
X0157300Y0303301D01*
X0157300Y0304502D01*
X0156699Y0305102D01*
X0155498Y0305102D01*
X0154898Y0304502D01*
X0154898Y0303301D01*
X0155498Y0302700D01*
X0156699Y0302700D01*
X0153617Y0303301D02*
X0153617Y0304502D01*
X0153016Y0305102D01*
X0151215Y0305102D01*
X0151215Y0306303D02*
X0151215Y0302700D01*
X0153016Y0302700D01*
X0153617Y0303301D01*
X0098754Y0300866D02*
X0096952Y0300866D01*
X0096352Y0300266D01*
X0096352Y0297863D01*
X0096952Y0297263D01*
X0098754Y0297263D01*
X0098754Y0300866D01*
X0095070Y0299065D02*
X0093269Y0299065D01*
X0092668Y0298464D01*
X0092668Y0297863D01*
X0093269Y0297263D01*
X0094470Y0297263D01*
X0095070Y0297863D01*
X0095070Y0299065D01*
X0093869Y0300266D01*
X0092668Y0300866D01*
X0063971Y0311251D02*
X0063371Y0310651D01*
X0060968Y0310651D01*
X0060368Y0311251D01*
X0060368Y0312452D01*
X0060968Y0313053D01*
X0060368Y0314334D02*
X0060368Y0316736D01*
X0060368Y0315535D02*
X0063971Y0315535D01*
X0062770Y0314334D01*
X0063371Y0313053D02*
X0063971Y0312452D01*
X0063971Y0311251D01*
X0063971Y0318017D02*
X0063971Y0320419D01*
X0063371Y0320419D01*
X0060968Y0318017D01*
X0060368Y0318017D01*
X0078555Y0334119D02*
X0078555Y0335921D01*
X0079155Y0336521D01*
X0081558Y0336521D01*
X0082158Y0335921D01*
X0082158Y0334119D01*
X0078555Y0334119D01*
X0080357Y0337802D02*
X0080357Y0340204D01*
X0082158Y0339604D02*
X0080357Y0337802D01*
X0082158Y0339604D02*
X0078555Y0339604D01*
X0089368Y0339917D02*
X0089368Y0341118D01*
X0089968Y0341718D01*
X0090569Y0341718D01*
X0091170Y0341118D01*
X0091170Y0339316D01*
X0089968Y0339316D01*
X0089368Y0339917D01*
X0089368Y0338035D02*
X0089368Y0335633D01*
X0089368Y0336834D02*
X0092971Y0336834D01*
X0091770Y0335633D01*
X0092371Y0334352D02*
X0092971Y0333752D01*
X0092971Y0332551D01*
X0092371Y0331950D01*
X0089968Y0331950D01*
X0089368Y0332551D01*
X0089368Y0333752D01*
X0089968Y0334352D01*
X0091170Y0339316D02*
X0092371Y0340517D01*
X0092971Y0341718D01*
X0074267Y0276553D02*
X0072466Y0276553D01*
X0071865Y0275953D01*
X0071865Y0274752D01*
X0072466Y0274151D01*
X0074267Y0274151D01*
X0073066Y0274151D02*
X0071865Y0272950D01*
X0070584Y0272950D02*
X0068182Y0272950D01*
X0069383Y0272950D02*
X0069383Y0276553D01*
X0070584Y0275352D01*
X0066901Y0275352D02*
X0066301Y0274752D01*
X0064499Y0274752D01*
X0064499Y0275953D02*
X0065100Y0276553D01*
X0066301Y0276553D01*
X0066901Y0275953D01*
X0066901Y0275352D01*
X0066901Y0273551D02*
X0066301Y0272950D01*
X0065100Y0272950D01*
X0064499Y0273551D01*
X0064499Y0275953D01*
X0074267Y0276553D02*
X0074267Y0272950D01*
X0242618Y0112818D02*
X0243218Y0113419D01*
X0243819Y0113419D01*
X0244420Y0112818D01*
X0244420Y0111617D01*
X0245020Y0111017D01*
X0245621Y0111017D01*
X0246221Y0111617D01*
X0246221Y0112818D01*
X0245621Y0113419D01*
X0245020Y0113419D01*
X0244420Y0112818D01*
X0244420Y0111617D02*
X0243819Y0111017D01*
X0243218Y0111017D01*
X0242618Y0111617D01*
X0242618Y0112818D01*
X0238971Y0112568D02*
X0238971Y0111367D01*
X0238371Y0110767D01*
X0238371Y0109486D02*
X0235968Y0107084D01*
X0235368Y0107084D01*
X0235368Y0105803D02*
X0236569Y0104602D01*
X0236569Y0105202D02*
X0236569Y0103401D01*
X0235368Y0103401D02*
X0238971Y0103401D01*
X0238971Y0105202D01*
X0238371Y0105803D01*
X0237170Y0105803D01*
X0236569Y0105202D01*
X0238971Y0107084D02*
X0238971Y0109486D01*
X0238371Y0109486D01*
X0238971Y0112568D02*
X0238371Y0113169D01*
X0237770Y0113169D01*
X0235368Y0110767D01*
X0235368Y0113169D01*
X0242618Y0107334D02*
X0243218Y0107334D01*
X0245621Y0109736D01*
X0246221Y0109736D01*
X0246221Y0107334D01*
X0245621Y0106053D02*
X0244420Y0106053D01*
X0243819Y0105452D01*
X0243819Y0103651D01*
X0243819Y0104852D02*
X0242618Y0106053D01*
X0242618Y0103651D02*
X0246221Y0103651D01*
X0246221Y0105452D01*
X0245621Y0106053D01*
X0275550Y0033803D02*
X0276751Y0033803D01*
X0277352Y0033203D01*
X0278633Y0033803D02*
X0281035Y0031401D01*
X0280434Y0032002D02*
X0278633Y0030200D01*
X0277352Y0030200D02*
X0274950Y0032602D01*
X0274950Y0033203D01*
X0275550Y0033803D01*
X0274950Y0030200D02*
X0277352Y0030200D01*
X0281035Y0030200D02*
X0281035Y0033803D01*
X0282316Y0033203D02*
X0282916Y0033803D01*
X0284117Y0033803D01*
X0284718Y0033203D01*
X0284718Y0030801D01*
X0284117Y0030200D01*
X0282916Y0030200D01*
X0282316Y0030801D01*
X0282316Y0033203D01*
X0382618Y0051217D02*
X0386221Y0051217D01*
X0386221Y0053019D01*
X0385621Y0053619D01*
X0384420Y0053619D01*
X0383819Y0053019D01*
X0383819Y0051217D01*
X0383218Y0054901D02*
X0382618Y0055501D01*
X0382618Y0056702D01*
X0383218Y0057303D01*
X0386221Y0057303D01*
X0385621Y0058584D02*
X0385020Y0058584D01*
X0384420Y0059184D01*
X0384420Y0060385D01*
X0383819Y0060986D01*
X0383218Y0060986D01*
X0382618Y0060385D01*
X0382618Y0059184D01*
X0383218Y0058584D01*
X0385621Y0058584D02*
X0386221Y0059184D01*
X0386221Y0060385D01*
X0385621Y0060986D01*
X0386221Y0062267D02*
X0382618Y0062267D01*
X0384420Y0062267D02*
X0384420Y0064669D01*
X0386221Y0064669D02*
X0382618Y0064669D01*
X0383218Y0054901D02*
X0386221Y0054901D01*
X0435555Y0058369D02*
X0435555Y0060171D01*
X0436155Y0060771D01*
X0438558Y0060771D01*
X0439158Y0060171D01*
X0439158Y0058369D01*
X0435555Y0058369D01*
X0435555Y0062052D02*
X0437957Y0064454D01*
X0438558Y0064454D01*
X0439158Y0063854D01*
X0439158Y0062653D01*
X0438558Y0062052D01*
X0435555Y0062052D02*
X0435555Y0064454D01*
X0435555Y0065736D02*
X0435555Y0068138D01*
X0435555Y0066937D02*
X0439158Y0066937D01*
X0437957Y0065736D01*
X0443718Y0072651D02*
X0443118Y0073251D01*
X0443118Y0074452D01*
X0443718Y0075053D01*
X0444920Y0076334D02*
X0444920Y0078736D01*
X0446121Y0080017D02*
X0446721Y0080617D01*
X0446721Y0081818D01*
X0446121Y0082419D01*
X0445520Y0082419D01*
X0443118Y0080017D01*
X0443118Y0082419D01*
X0443118Y0078135D02*
X0446721Y0078135D01*
X0444920Y0076334D01*
X0446121Y0075053D02*
X0446721Y0074452D01*
X0446721Y0073251D01*
X0446121Y0072651D01*
X0443718Y0072651D01*
X0450368Y0072651D02*
X0453971Y0072651D01*
X0453971Y0074452D01*
X0453371Y0075053D01*
X0452170Y0075053D01*
X0451569Y0074452D01*
X0451569Y0072651D01*
X0451569Y0073852D02*
X0450368Y0075053D01*
X0452170Y0076334D02*
X0452170Y0078736D01*
X0450968Y0080017D02*
X0450368Y0080017D01*
X0450968Y0080017D02*
X0453371Y0082419D01*
X0453971Y0082419D01*
X0453971Y0080017D01*
X0453971Y0078135D02*
X0452170Y0076334D01*
X0453971Y0078135D02*
X0450368Y0078135D01*
X0457868Y0078135D02*
X0461471Y0078135D01*
X0459670Y0076334D01*
X0459670Y0078736D01*
X0459670Y0080017D02*
X0459670Y0081818D01*
X0459069Y0082419D01*
X0458468Y0082419D01*
X0457868Y0081818D01*
X0457868Y0080617D01*
X0458468Y0080017D01*
X0459670Y0080017D01*
X0460871Y0081218D01*
X0461471Y0082419D01*
X0466618Y0082419D02*
X0466618Y0080017D01*
X0469020Y0082419D01*
X0469621Y0082419D01*
X0470221Y0081818D01*
X0470221Y0080617D01*
X0469621Y0080017D01*
X0470221Y0078736D02*
X0470221Y0076334D01*
X0468420Y0076334D01*
X0469020Y0077535D01*
X0469020Y0078135D01*
X0468420Y0078736D01*
X0467218Y0078736D01*
X0466618Y0078135D01*
X0466618Y0076934D01*
X0467218Y0076334D01*
X0466618Y0075053D02*
X0467819Y0073852D01*
X0467819Y0074452D02*
X0467819Y0072651D01*
X0466618Y0072651D02*
X0470221Y0072651D01*
X0470221Y0074452D01*
X0469621Y0075053D01*
X0468420Y0075053D01*
X0467819Y0074452D01*
X0464687Y0071366D02*
X0462885Y0071366D01*
X0462285Y0070766D01*
X0462285Y0068363D01*
X0462885Y0067763D01*
X0464687Y0067763D01*
X0464687Y0071366D01*
X0461471Y0072651D02*
X0461471Y0074452D01*
X0460871Y0075053D01*
X0459670Y0075053D01*
X0459069Y0074452D01*
X0459069Y0072651D01*
X0459069Y0073852D02*
X0457868Y0075053D01*
X0457868Y0072651D02*
X0461471Y0072651D01*
X0460403Y0071366D02*
X0461004Y0070766D01*
X0460403Y0071366D02*
X0459202Y0071366D01*
X0458602Y0070766D01*
X0458602Y0070165D01*
X0461004Y0067763D01*
X0458602Y0067763D01*
X0458432Y0067053D02*
X0460834Y0067053D01*
X0460834Y0065252D01*
X0459633Y0065852D01*
X0459033Y0065852D01*
X0458432Y0065252D01*
X0458432Y0064051D01*
X0459033Y0063450D01*
X0460234Y0063450D01*
X0460834Y0064051D01*
X0462115Y0063450D02*
X0463316Y0064651D01*
X0462716Y0064651D02*
X0464517Y0064651D01*
X0464517Y0063450D02*
X0464517Y0067053D01*
X0462716Y0067053D01*
X0462115Y0066453D01*
X0462115Y0065252D01*
X0462716Y0064651D01*
X0457151Y0064051D02*
X0454749Y0066453D01*
X0454749Y0064051D01*
X0455350Y0063450D01*
X0456551Y0063450D01*
X0457151Y0064051D01*
X0457151Y0066453D01*
X0456551Y0067053D01*
X0455350Y0067053D01*
X0454749Y0066453D01*
X0455519Y0067763D02*
X0456720Y0067763D01*
X0457320Y0068363D01*
X0454918Y0070766D01*
X0454918Y0068363D01*
X0455519Y0067763D01*
X0457320Y0068363D02*
X0457320Y0070766D01*
X0456720Y0071366D01*
X0455519Y0071366D01*
X0454918Y0070766D01*
X0473200Y0071203D02*
X0473200Y0068801D01*
X0473800Y0068200D01*
X0475001Y0068200D01*
X0475602Y0068801D01*
X0473200Y0071203D01*
X0473800Y0071803D01*
X0475001Y0071803D01*
X0475602Y0071203D01*
X0475602Y0068801D01*
X0476883Y0068801D02*
X0476883Y0069401D01*
X0477483Y0070002D01*
X0479285Y0070002D01*
X0479285Y0068801D01*
X0478684Y0068200D01*
X0477483Y0068200D01*
X0476883Y0068801D01*
X0478084Y0071203D02*
X0479285Y0070002D01*
X0480566Y0070002D02*
X0481166Y0069401D01*
X0482968Y0069401D01*
X0482968Y0068200D02*
X0482968Y0071803D01*
X0481166Y0071803D01*
X0480566Y0071203D01*
X0480566Y0070002D01*
X0481767Y0069401D02*
X0480566Y0068200D01*
X0478084Y0071203D02*
X0476883Y0071803D01*
X0477471Y0072901D02*
X0477471Y0074702D01*
X0476871Y0075303D01*
X0475670Y0075303D01*
X0475069Y0074702D01*
X0475069Y0072901D01*
X0475069Y0074102D02*
X0473868Y0075303D01*
X0474468Y0076584D02*
X0473868Y0077184D01*
X0473868Y0078385D01*
X0474468Y0078986D01*
X0475670Y0078986D01*
X0476270Y0078385D01*
X0476270Y0077785D01*
X0475670Y0076584D01*
X0477471Y0076584D01*
X0477471Y0078986D01*
X0476270Y0080267D02*
X0477471Y0081468D01*
X0473868Y0081468D01*
X0473868Y0080267D02*
X0473868Y0082669D01*
X0481368Y0082068D02*
X0481368Y0080867D01*
X0481968Y0080267D01*
X0483170Y0080267D02*
X0483770Y0081468D01*
X0483770Y0082068D01*
X0483170Y0082669D01*
X0481968Y0082669D01*
X0481368Y0082068D01*
X0483170Y0080267D02*
X0484971Y0080267D01*
X0484971Y0082669D01*
X0483170Y0078986D02*
X0483170Y0076584D01*
X0484971Y0078385D01*
X0481368Y0078385D01*
X0481968Y0075303D02*
X0481368Y0074702D01*
X0481368Y0073501D01*
X0481968Y0072901D01*
X0484371Y0072901D01*
X0484971Y0073501D01*
X0484971Y0074702D01*
X0484371Y0075303D01*
X0489368Y0074702D02*
X0489368Y0073501D01*
X0489968Y0072901D01*
X0492371Y0072901D01*
X0492971Y0073501D01*
X0492971Y0074702D01*
X0492371Y0075303D01*
X0491170Y0076584D02*
X0491170Y0078986D01*
X0491770Y0080267D02*
X0491170Y0080867D01*
X0491170Y0082669D01*
X0492371Y0082669D02*
X0492971Y0082068D01*
X0492971Y0080867D01*
X0492371Y0080267D01*
X0491770Y0080267D01*
X0489968Y0080267D02*
X0489368Y0080867D01*
X0489368Y0082068D01*
X0489968Y0082669D01*
X0492371Y0082669D01*
X0492971Y0078385D02*
X0491170Y0076584D01*
X0489968Y0075303D02*
X0489368Y0074702D01*
X0489368Y0078385D02*
X0492971Y0078385D01*
X0497118Y0078385D02*
X0497118Y0077184D01*
X0497718Y0076584D01*
X0498920Y0076584D02*
X0499520Y0077785D01*
X0499520Y0078385D01*
X0498920Y0078986D01*
X0497718Y0078986D01*
X0497118Y0078385D01*
X0498920Y0076584D02*
X0500721Y0076584D01*
X0500721Y0078986D01*
X0498920Y0080267D02*
X0500721Y0082068D01*
X0497118Y0082068D01*
X0498920Y0082669D02*
X0498920Y0080267D01*
X0498920Y0075303D02*
X0498319Y0074702D01*
X0498319Y0072901D01*
X0498319Y0074102D02*
X0497118Y0075303D01*
X0498920Y0075303D02*
X0500121Y0075303D01*
X0500721Y0074702D01*
X0500721Y0072901D01*
X0497118Y0072901D01*
X0513499Y0064953D02*
X0513499Y0062551D01*
X0514100Y0061950D01*
X0515301Y0061950D01*
X0515901Y0062551D01*
X0517182Y0062551D02*
X0517783Y0061950D01*
X0518984Y0061950D01*
X0519584Y0062551D01*
X0519584Y0063752D02*
X0518383Y0064352D01*
X0517783Y0064352D01*
X0517182Y0063752D01*
X0517182Y0062551D01*
X0515901Y0064352D02*
X0515301Y0063752D01*
X0513499Y0063752D01*
X0513499Y0064953D02*
X0514100Y0065553D01*
X0515301Y0065553D01*
X0515901Y0064953D01*
X0515901Y0064352D01*
X0517182Y0065553D02*
X0519584Y0065553D01*
X0519584Y0063752D01*
X0520865Y0063752D02*
X0521466Y0063151D01*
X0523267Y0063151D01*
X0522066Y0063151D02*
X0520865Y0061950D01*
X0520865Y0063752D02*
X0520865Y0064953D01*
X0521466Y0065553D01*
X0523267Y0065553D01*
X0523267Y0061950D01*
X0523267Y0057553D02*
X0521466Y0057553D01*
X0520865Y0056953D01*
X0520865Y0055752D01*
X0521466Y0055151D01*
X0523267Y0055151D01*
X0522066Y0055151D02*
X0520865Y0053950D01*
X0519584Y0054551D02*
X0518984Y0053950D01*
X0517783Y0053950D01*
X0517182Y0054551D01*
X0517182Y0055752D01*
X0517783Y0056352D01*
X0518383Y0056352D01*
X0519584Y0055752D01*
X0519584Y0057553D01*
X0517182Y0057553D01*
X0515901Y0057553D02*
X0513499Y0057553D01*
X0513499Y0056953D01*
X0515901Y0054551D01*
X0515901Y0053950D01*
X0516834Y0050803D02*
X0516834Y0049002D01*
X0515633Y0049602D01*
X0515033Y0049602D01*
X0514432Y0049002D01*
X0514432Y0047801D01*
X0515033Y0047200D01*
X0516234Y0047200D01*
X0516834Y0047801D01*
X0518115Y0047801D02*
X0518716Y0047200D01*
X0519917Y0047200D01*
X0520517Y0047801D01*
X0520517Y0050203D01*
X0519917Y0050803D01*
X0518716Y0050803D01*
X0518115Y0050203D01*
X0516834Y0050803D02*
X0514432Y0050803D01*
X0513151Y0050203D02*
X0512551Y0050803D01*
X0511350Y0050803D01*
X0510749Y0050203D01*
X0510749Y0049602D01*
X0511350Y0049002D01*
X0510749Y0048401D01*
X0510749Y0047801D01*
X0511350Y0047200D01*
X0512551Y0047200D01*
X0513151Y0047801D01*
X0511950Y0049002D02*
X0511350Y0049002D01*
X0511850Y0042303D02*
X0513051Y0042303D01*
X0513651Y0041703D01*
X0514932Y0042303D02*
X0517334Y0042303D01*
X0517334Y0040502D01*
X0516133Y0041102D01*
X0515533Y0041102D01*
X0514932Y0040502D01*
X0514932Y0039301D01*
X0515533Y0038700D01*
X0516734Y0038700D01*
X0517334Y0039301D01*
X0518615Y0039301D02*
X0519216Y0038700D01*
X0520417Y0038700D01*
X0521017Y0039301D01*
X0521017Y0041703D01*
X0520417Y0042303D01*
X0519216Y0042303D01*
X0518615Y0041703D01*
X0513651Y0038700D02*
X0511249Y0038700D01*
X0511249Y0041102D02*
X0511249Y0041703D01*
X0511850Y0042303D01*
X0511249Y0041102D02*
X0513651Y0038700D01*
X0523267Y0053950D02*
X0523267Y0057553D01*
X0477471Y0072901D02*
X0473868Y0072901D01*
X0444799Y0102387D02*
X0442397Y0102387D01*
X0441116Y0102387D02*
X0439314Y0102387D01*
X0438713Y0102988D01*
X0438713Y0105390D01*
X0439314Y0105990D01*
X0441116Y0105990D01*
X0441116Y0102387D01*
X0442397Y0105390D02*
X0444799Y0102988D01*
X0444799Y0102387D01*
X0444799Y0105990D02*
X0442397Y0105990D01*
X0442397Y0105390D01*
X0437432Y0105990D02*
X0437432Y0104189D01*
X0436231Y0104789D01*
X0435631Y0104789D01*
X0435030Y0104189D01*
X0435030Y0102988D01*
X0435631Y0102387D01*
X0436832Y0102387D01*
X0437432Y0102988D01*
X0437432Y0105990D02*
X0435030Y0105990D01*
X0445450Y0111301D02*
X0446050Y0110700D01*
X0447251Y0110700D01*
X0447852Y0111301D01*
X0446651Y0112502D02*
X0446050Y0112502D01*
X0445450Y0111901D01*
X0445450Y0111301D01*
X0446050Y0112502D02*
X0445450Y0113102D01*
X0445450Y0113703D01*
X0446050Y0114303D01*
X0447251Y0114303D01*
X0447852Y0113703D01*
X0449133Y0113703D02*
X0449133Y0112502D01*
X0449733Y0111901D01*
X0451535Y0111901D01*
X0451535Y0110700D02*
X0451535Y0114303D01*
X0449733Y0114303D01*
X0449133Y0113703D01*
X0452816Y0114303D02*
X0454017Y0114303D01*
X0453416Y0114303D02*
X0453416Y0111301D01*
X0454017Y0110700D01*
X0454617Y0110700D01*
X0455218Y0111301D01*
X0460350Y0117950D02*
X0459749Y0118551D01*
X0459749Y0119151D01*
X0460350Y0119752D01*
X0462151Y0119752D01*
X0462151Y0118551D01*
X0461551Y0117950D01*
X0460350Y0117950D01*
X0462151Y0119752D02*
X0460950Y0120953D01*
X0459749Y0121553D01*
X0463432Y0121553D02*
X0465834Y0121553D01*
X0465834Y0119752D01*
X0464633Y0120352D01*
X0464033Y0120352D01*
X0463432Y0119752D01*
X0463432Y0118551D01*
X0464033Y0117950D01*
X0465234Y0117950D01*
X0465834Y0118551D01*
X0467115Y0117950D02*
X0468316Y0119151D01*
X0467716Y0119151D02*
X0469517Y0119151D01*
X0469517Y0117950D02*
X0469517Y0121553D01*
X0467716Y0121553D01*
X0467115Y0120953D01*
X0467115Y0119752D01*
X0467716Y0119151D01*
X0447471Y0125801D02*
X0446871Y0125200D01*
X0444468Y0125200D01*
X0443868Y0125801D01*
X0443868Y0127002D01*
X0444468Y0127602D01*
X0444468Y0128883D02*
X0443868Y0129484D01*
X0443868Y0130685D01*
X0444468Y0131285D01*
X0445670Y0131285D01*
X0446270Y0130685D01*
X0446270Y0130084D01*
X0445670Y0128883D01*
X0447471Y0128883D01*
X0447471Y0131285D01*
X0446270Y0132566D02*
X0447471Y0133767D01*
X0443868Y0133767D01*
X0443868Y0132566D02*
X0443868Y0134968D01*
X0446871Y0127602D02*
X0447471Y0127002D01*
X0447471Y0125801D01*
X0482118Y0152051D02*
X0482118Y0153252D01*
X0482718Y0153852D01*
X0483920Y0155133D02*
X0483920Y0157535D01*
X0484520Y0158816D02*
X0485121Y0158816D01*
X0485721Y0159417D01*
X0485721Y0160618D01*
X0485121Y0161218D01*
X0484520Y0161218D01*
X0483920Y0160618D01*
X0483920Y0159417D01*
X0484520Y0158816D01*
X0483920Y0159417D02*
X0483319Y0158816D01*
X0482718Y0158816D01*
X0482118Y0159417D01*
X0482118Y0160618D01*
X0482718Y0161218D01*
X0483319Y0161218D01*
X0483920Y0160618D01*
X0485721Y0156935D02*
X0483920Y0155133D01*
X0485121Y0153852D02*
X0485721Y0153252D01*
X0485721Y0152051D01*
X0485121Y0151450D01*
X0482718Y0151450D01*
X0482118Y0152051D01*
X0478471Y0154200D02*
X0478471Y0156002D01*
X0477871Y0156602D01*
X0476670Y0156602D01*
X0476069Y0156002D01*
X0476069Y0154200D01*
X0476069Y0155401D02*
X0474868Y0156602D01*
X0475468Y0157883D02*
X0474868Y0158484D01*
X0474868Y0159685D01*
X0475468Y0160285D01*
X0476670Y0160285D01*
X0477270Y0159685D01*
X0477270Y0159084D01*
X0476670Y0157883D01*
X0478471Y0157883D01*
X0478471Y0160285D01*
X0477871Y0161566D02*
X0478471Y0162167D01*
X0478471Y0163368D01*
X0477871Y0163968D01*
X0477270Y0163968D01*
X0476670Y0163368D01*
X0476069Y0163968D01*
X0475468Y0163968D01*
X0474868Y0163368D01*
X0474868Y0162167D01*
X0475468Y0161566D01*
X0476670Y0162767D02*
X0476670Y0163368D01*
X0470721Y0164218D02*
X0470721Y0161816D01*
X0468920Y0161816D01*
X0469520Y0163017D01*
X0469520Y0163618D01*
X0468920Y0164218D01*
X0467718Y0164218D01*
X0467118Y0163618D01*
X0467118Y0162417D01*
X0467718Y0161816D01*
X0467718Y0160535D02*
X0467118Y0159935D01*
X0467118Y0158734D01*
X0467718Y0158133D01*
X0468920Y0158133D02*
X0469520Y0159334D01*
X0469520Y0159935D01*
X0468920Y0160535D01*
X0467718Y0160535D01*
X0468920Y0158133D02*
X0470721Y0158133D01*
X0470721Y0160535D01*
X0470121Y0156852D02*
X0468920Y0156852D01*
X0468319Y0156252D01*
X0468319Y0154450D01*
X0468319Y0155651D02*
X0467118Y0156852D01*
X0467118Y0154450D02*
X0470721Y0154450D01*
X0470721Y0156252D01*
X0470121Y0156852D01*
X0474868Y0154200D02*
X0478471Y0154200D01*
X0482118Y0156935D02*
X0485721Y0156935D01*
X0493118Y0157618D02*
X0496721Y0157618D01*
X0494920Y0155816D01*
X0494920Y0158218D01*
X0494920Y0154535D02*
X0494920Y0152133D01*
X0496721Y0153935D01*
X0493118Y0153935D01*
X0493718Y0150852D02*
X0493118Y0150252D01*
X0493118Y0149051D01*
X0493718Y0148450D01*
X0496121Y0148450D01*
X0496721Y0149051D01*
X0496721Y0150252D01*
X0496121Y0150852D01*
X0500118Y0151801D02*
X0500118Y0153002D01*
X0500718Y0153602D01*
X0501920Y0154883D02*
X0501920Y0157285D01*
X0503121Y0158566D02*
X0503721Y0159167D01*
X0503721Y0160368D01*
X0503121Y0160968D01*
X0502520Y0160968D01*
X0501920Y0160368D01*
X0501319Y0160968D01*
X0500718Y0160968D01*
X0500118Y0160368D01*
X0500118Y0159167D01*
X0500718Y0158566D01*
X0501920Y0159767D02*
X0501920Y0160368D01*
X0503721Y0156685D02*
X0500118Y0156685D01*
X0501920Y0154883D02*
X0503721Y0156685D01*
X0503121Y0153602D02*
X0503721Y0153002D01*
X0503721Y0151801D01*
X0503121Y0151200D01*
X0500718Y0151200D01*
X0500118Y0151801D01*
X0454721Y0155051D02*
X0454721Y0156252D01*
X0454121Y0156852D01*
X0451718Y0156852D01*
X0451118Y0156252D01*
X0451118Y0155051D01*
X0451718Y0154450D01*
X0454121Y0154450D01*
X0454721Y0155051D01*
X0452319Y0155651D02*
X0451118Y0156852D01*
X0451118Y0158133D02*
X0451718Y0158133D01*
X0454121Y0160535D01*
X0454721Y0160535D01*
X0454721Y0158133D01*
X0440471Y0169651D02*
X0436868Y0169651D01*
X0438069Y0169651D02*
X0438069Y0171452D01*
X0438670Y0172053D01*
X0439871Y0172053D01*
X0440471Y0171452D01*
X0440471Y0169651D01*
X0438069Y0170852D02*
X0436868Y0172053D01*
X0437468Y0173334D02*
X0436868Y0173934D01*
X0436868Y0175135D01*
X0437468Y0175736D01*
X0438069Y0175736D01*
X0438670Y0175135D01*
X0438670Y0174535D01*
X0438670Y0175135D02*
X0439270Y0175736D01*
X0439871Y0175736D01*
X0440471Y0175135D01*
X0440471Y0173934D01*
X0439871Y0173334D01*
X0439871Y0177017D02*
X0439270Y0177017D01*
X0438670Y0177617D01*
X0438670Y0178818D01*
X0438069Y0179419D01*
X0437468Y0179419D01*
X0436868Y0178818D01*
X0436868Y0177617D01*
X0437468Y0177017D01*
X0438069Y0177017D01*
X0438670Y0177617D01*
X0438670Y0178818D02*
X0439270Y0179419D01*
X0439871Y0179419D01*
X0440471Y0178818D01*
X0440471Y0177617D01*
X0439871Y0177017D01*
X0421034Y0175365D02*
X0417431Y0175365D01*
X0417431Y0174164D02*
X0417431Y0176566D01*
X0418031Y0177848D02*
X0417431Y0178448D01*
X0417431Y0179649D01*
X0418031Y0180250D01*
X0418632Y0180250D01*
X0419233Y0179649D01*
X0419233Y0177848D01*
X0418031Y0177848D01*
X0419233Y0177848D02*
X0420434Y0179049D01*
X0421034Y0180250D01*
X0421034Y0175365D02*
X0419833Y0174164D01*
X0420434Y0172883D02*
X0421034Y0172283D01*
X0421034Y0170481D01*
X0417431Y0170481D01*
X0417431Y0172283D01*
X0418031Y0172883D01*
X0420434Y0172883D01*
X0420566Y0188950D02*
X0421767Y0190151D01*
X0421166Y0190151D02*
X0422968Y0190151D01*
X0422968Y0188950D02*
X0422968Y0192553D01*
X0421166Y0192553D01*
X0420566Y0191953D01*
X0420566Y0190752D01*
X0421166Y0190151D01*
X0419285Y0190752D02*
X0416883Y0190752D01*
X0415602Y0191352D02*
X0414401Y0192553D01*
X0414401Y0188950D01*
X0415602Y0188950D02*
X0413200Y0188950D01*
X0417483Y0188950D02*
X0417483Y0192553D01*
X0419285Y0190752D01*
X0418800Y0200200D02*
X0420001Y0200200D01*
X0420602Y0200801D01*
X0418200Y0203203D01*
X0418200Y0200801D01*
X0418800Y0200200D01*
X0420602Y0200801D02*
X0420602Y0203203D01*
X0420001Y0203803D01*
X0418800Y0203803D01*
X0418200Y0203203D01*
X0421883Y0202002D02*
X0424285Y0202002D01*
X0422483Y0203803D01*
X0422483Y0200200D01*
X0425566Y0200801D02*
X0426166Y0200200D01*
X0427367Y0200200D01*
X0427968Y0200801D01*
X0427968Y0203203D01*
X0427367Y0203803D01*
X0426166Y0203803D01*
X0425566Y0203203D01*
X0426166Y0207200D02*
X0425566Y0207801D01*
X0426166Y0207200D02*
X0427367Y0207200D01*
X0427968Y0207801D01*
X0427968Y0210203D01*
X0427367Y0210803D01*
X0426166Y0210803D01*
X0425566Y0210203D01*
X0424285Y0210203D02*
X0423684Y0210803D01*
X0422483Y0210803D01*
X0421883Y0210203D01*
X0421883Y0209602D01*
X0422483Y0209002D01*
X0421883Y0208401D01*
X0421883Y0207801D01*
X0422483Y0207200D01*
X0423684Y0207200D01*
X0424285Y0207801D01*
X0423084Y0209002D02*
X0422483Y0209002D01*
X0420602Y0209602D02*
X0420001Y0209002D01*
X0418200Y0209002D01*
X0418200Y0210203D02*
X0418800Y0210803D01*
X0420001Y0210803D01*
X0420602Y0210203D01*
X0420602Y0209602D01*
X0420602Y0207801D02*
X0420001Y0207200D01*
X0418800Y0207200D01*
X0418200Y0207801D01*
X0418200Y0210203D01*
X0418800Y0213950D02*
X0420001Y0213950D01*
X0420602Y0214551D01*
X0420602Y0215151D01*
X0420001Y0215752D01*
X0418800Y0215752D01*
X0418200Y0215151D01*
X0418200Y0214551D01*
X0418800Y0213950D01*
X0418800Y0215752D02*
X0418200Y0216352D01*
X0418200Y0216953D01*
X0418800Y0217553D01*
X0420001Y0217553D01*
X0420602Y0216953D01*
X0420602Y0216352D01*
X0420001Y0215752D01*
X0421883Y0216352D02*
X0422483Y0215752D01*
X0421883Y0215151D01*
X0421883Y0214551D01*
X0422483Y0213950D01*
X0423684Y0213950D01*
X0424285Y0214551D01*
X0425566Y0214551D02*
X0426166Y0213950D01*
X0427367Y0213950D01*
X0427968Y0214551D01*
X0427968Y0216953D01*
X0427367Y0217553D01*
X0426166Y0217553D01*
X0425566Y0216953D01*
X0424285Y0216953D02*
X0423684Y0217553D01*
X0422483Y0217553D01*
X0421883Y0216953D01*
X0421883Y0216352D01*
X0422483Y0215752D02*
X0423084Y0215752D01*
X0422733Y0230450D02*
X0423934Y0230450D01*
X0424535Y0231051D01*
X0425816Y0231051D02*
X0426416Y0230450D01*
X0427617Y0230450D01*
X0428218Y0231051D01*
X0428218Y0233453D01*
X0427617Y0234053D01*
X0426416Y0234053D01*
X0425816Y0233453D01*
X0424535Y0233453D02*
X0423934Y0234053D01*
X0422733Y0234053D01*
X0422133Y0233453D01*
X0422133Y0232852D01*
X0422733Y0232252D01*
X0422133Y0231651D01*
X0422133Y0231051D01*
X0422733Y0230450D01*
X0422733Y0232252D02*
X0423334Y0232252D01*
X0420852Y0232252D02*
X0419651Y0232852D01*
X0419050Y0232852D01*
X0418450Y0232252D01*
X0418450Y0231051D01*
X0419050Y0230450D01*
X0420251Y0230450D01*
X0420852Y0231051D01*
X0420852Y0232252D02*
X0420852Y0234053D01*
X0418450Y0234053D01*
X0419050Y0236700D02*
X0419050Y0240303D01*
X0420852Y0238502D01*
X0418450Y0238502D01*
X0422133Y0239102D02*
X0422733Y0238502D01*
X0422133Y0237901D01*
X0422133Y0237301D01*
X0422733Y0236700D01*
X0423934Y0236700D01*
X0424535Y0237301D01*
X0425816Y0237301D02*
X0426416Y0236700D01*
X0427617Y0236700D01*
X0428218Y0237301D01*
X0428218Y0239703D01*
X0427617Y0240303D01*
X0426416Y0240303D01*
X0425816Y0239703D01*
X0424535Y0239703D02*
X0423934Y0240303D01*
X0422733Y0240303D01*
X0422133Y0239703D01*
X0422133Y0239102D01*
X0422733Y0238502D02*
X0423334Y0238502D01*
X0423934Y0243450D02*
X0424535Y0244051D01*
X0423934Y0243450D02*
X0422733Y0243450D01*
X0422133Y0244051D01*
X0422133Y0244651D01*
X0422733Y0245252D01*
X0423334Y0245252D01*
X0422733Y0245252D02*
X0422133Y0245852D01*
X0422133Y0246453D01*
X0422733Y0247053D01*
X0423934Y0247053D01*
X0424535Y0246453D01*
X0425816Y0246453D02*
X0426416Y0247053D01*
X0427617Y0247053D01*
X0428218Y0246453D01*
X0428218Y0244051D01*
X0427617Y0243450D01*
X0426416Y0243450D01*
X0425816Y0244051D01*
X0420852Y0244051D02*
X0420251Y0243450D01*
X0419050Y0243450D01*
X0418450Y0244051D01*
X0418450Y0244651D01*
X0419050Y0245252D01*
X0419651Y0245252D01*
X0419050Y0245252D02*
X0418450Y0245852D01*
X0418450Y0246453D01*
X0419050Y0247053D01*
X0420251Y0247053D01*
X0420852Y0246453D01*
X0410968Y0258700D02*
X0410968Y0262303D01*
X0409166Y0262303D01*
X0408566Y0261703D01*
X0408566Y0260502D01*
X0409166Y0259901D01*
X0410968Y0259901D01*
X0409767Y0259901D02*
X0408566Y0258700D01*
X0407285Y0258700D02*
X0404883Y0261102D01*
X0404883Y0261703D01*
X0405483Y0262303D01*
X0406684Y0262303D01*
X0407285Y0261703D01*
X0407285Y0258700D02*
X0404883Y0258700D01*
X0403602Y0259301D02*
X0403602Y0259901D01*
X0403001Y0260502D01*
X0401800Y0260502D01*
X0401200Y0259901D01*
X0401200Y0259301D01*
X0401800Y0258700D01*
X0403001Y0258700D01*
X0403602Y0259301D01*
X0403001Y0260502D02*
X0403602Y0261102D01*
X0403602Y0261703D01*
X0403001Y0262303D01*
X0401800Y0262303D01*
X0401200Y0261703D01*
X0401200Y0261102D01*
X0401800Y0260502D01*
X0402131Y0265637D02*
X0402131Y0269240D01*
X0403932Y0267439D01*
X0401530Y0267439D01*
X0405213Y0265637D02*
X0407616Y0265637D01*
X0406415Y0265637D02*
X0406415Y0269240D01*
X0407616Y0268039D01*
X0408897Y0268640D02*
X0409497Y0269240D01*
X0411299Y0269240D01*
X0411299Y0265637D01*
X0409497Y0265637D01*
X0408897Y0266238D01*
X0408897Y0268640D01*
X0410182Y0286200D02*
X0412584Y0286200D01*
X0410182Y0288602D01*
X0410182Y0289203D01*
X0410783Y0289803D01*
X0411984Y0289803D01*
X0412584Y0289203D01*
X0413865Y0289203D02*
X0413865Y0288002D01*
X0414466Y0287401D01*
X0416267Y0287401D01*
X0415066Y0287401D02*
X0413865Y0286200D01*
X0416267Y0286200D02*
X0416267Y0289803D01*
X0414466Y0289803D01*
X0413865Y0289203D01*
X0408901Y0288002D02*
X0407100Y0289803D01*
X0407100Y0286200D01*
X0406499Y0288002D02*
X0408901Y0288002D01*
X0421868Y0294450D02*
X0421868Y0296252D01*
X0422468Y0296852D01*
X0424871Y0296852D01*
X0425471Y0296252D01*
X0425471Y0294450D01*
X0421868Y0294450D01*
X0421868Y0298133D02*
X0421868Y0300535D01*
X0421868Y0299334D02*
X0425471Y0299334D01*
X0424270Y0298133D01*
X0424871Y0301816D02*
X0425471Y0302417D01*
X0425471Y0303618D01*
X0424871Y0304218D01*
X0424270Y0304218D01*
X0421868Y0301816D01*
X0421868Y0304218D01*
X0431368Y0303618D02*
X0431368Y0302417D01*
X0431968Y0301816D01*
X0433170Y0301816D02*
X0433770Y0303017D01*
X0433770Y0303618D01*
X0433170Y0304218D01*
X0431968Y0304218D01*
X0431368Y0303618D01*
X0433170Y0301816D02*
X0434971Y0301816D01*
X0434971Y0304218D01*
X0434371Y0300535D02*
X0434971Y0299935D01*
X0434971Y0298734D01*
X0434371Y0298133D01*
X0434371Y0296852D02*
X0433170Y0296852D01*
X0432569Y0296252D01*
X0432569Y0294450D01*
X0432569Y0295651D02*
X0431368Y0296852D01*
X0431368Y0298133D02*
X0433770Y0300535D01*
X0434371Y0300535D01*
X0431368Y0300535D02*
X0431368Y0298133D01*
X0434371Y0296852D02*
X0434971Y0296252D01*
X0434971Y0294450D01*
X0431368Y0294450D01*
X0438868Y0294450D02*
X0442471Y0294450D01*
X0442471Y0296252D01*
X0441871Y0296852D01*
X0440670Y0296852D01*
X0440069Y0296252D01*
X0440069Y0294450D01*
X0440069Y0295651D02*
X0438868Y0296852D01*
X0438868Y0298133D02*
X0441270Y0300535D01*
X0441871Y0300535D01*
X0442471Y0299935D01*
X0442471Y0298734D01*
X0441871Y0298133D01*
X0438868Y0298133D02*
X0438868Y0300535D01*
X0439468Y0301816D02*
X0438868Y0302417D01*
X0438868Y0303618D01*
X0439468Y0304218D01*
X0440069Y0304218D01*
X0440670Y0303618D01*
X0440670Y0301816D01*
X0439468Y0301816D01*
X0440670Y0301816D02*
X0441871Y0303017D01*
X0442471Y0304218D01*
X0465550Y0274303D02*
X0464950Y0273703D01*
X0464950Y0273102D01*
X0465550Y0272502D01*
X0464950Y0271901D01*
X0464950Y0271301D01*
X0465550Y0270700D01*
X0466751Y0270700D01*
X0467352Y0271301D01*
X0468633Y0270700D02*
X0471035Y0270700D01*
X0469834Y0270700D02*
X0469834Y0274303D01*
X0471035Y0273102D01*
X0472316Y0273703D02*
X0472916Y0274303D01*
X0474718Y0274303D01*
X0474718Y0270700D01*
X0472916Y0270700D01*
X0472316Y0271301D01*
X0472316Y0273703D01*
X0467352Y0273703D02*
X0466751Y0274303D01*
X0465550Y0274303D01*
X0465550Y0272502D02*
X0466151Y0272502D01*
X0497868Y0268316D02*
X0498468Y0268316D01*
X0500871Y0270718D01*
X0501471Y0270718D01*
X0501471Y0268316D01*
X0500871Y0267035D02*
X0501471Y0266435D01*
X0501471Y0265234D01*
X0500871Y0264633D01*
X0500871Y0263352D02*
X0499670Y0263352D01*
X0499069Y0262752D01*
X0499069Y0260950D01*
X0497868Y0260950D02*
X0501471Y0260950D01*
X0501471Y0262752D01*
X0500871Y0263352D01*
X0499069Y0262151D02*
X0497868Y0263352D01*
X0497868Y0264633D02*
X0500270Y0267035D01*
X0500871Y0267035D01*
X0497868Y0267035D02*
X0497868Y0264633D01*
X0505868Y0264633D02*
X0505868Y0267035D01*
X0506468Y0268316D02*
X0505868Y0268917D01*
X0505868Y0270118D01*
X0506468Y0270718D01*
X0508871Y0270718D01*
X0509471Y0270118D01*
X0509471Y0268917D01*
X0508871Y0268316D01*
X0508270Y0268316D01*
X0507670Y0268917D01*
X0507670Y0270718D01*
X0508270Y0267035D02*
X0508871Y0267035D01*
X0509471Y0266435D01*
X0509471Y0265234D01*
X0508871Y0264633D01*
X0508871Y0263352D02*
X0509471Y0262752D01*
X0509471Y0261551D01*
X0508871Y0260950D01*
X0506468Y0260950D01*
X0505868Y0261551D01*
X0505868Y0262752D01*
X0506468Y0263352D01*
X0505868Y0264633D02*
X0508270Y0267035D01*
X0513118Y0267118D02*
X0513118Y0265917D01*
X0513718Y0265316D01*
X0516121Y0267718D01*
X0513718Y0267718D01*
X0513118Y0267118D01*
X0513718Y0265316D02*
X0516121Y0265316D01*
X0516721Y0265917D01*
X0516721Y0267118D01*
X0516121Y0267718D01*
X0516121Y0264035D02*
X0515520Y0264035D01*
X0514920Y0263435D01*
X0514319Y0264035D01*
X0513718Y0264035D01*
X0513118Y0263435D01*
X0513118Y0262234D01*
X0513718Y0261633D01*
X0513718Y0260352D02*
X0513118Y0259752D01*
X0513118Y0258551D01*
X0513718Y0257950D01*
X0516121Y0257950D01*
X0516721Y0258551D01*
X0516721Y0259752D01*
X0516121Y0260352D01*
X0516121Y0261633D02*
X0516721Y0262234D01*
X0516721Y0263435D01*
X0516121Y0264035D01*
X0514920Y0263435D02*
X0514920Y0262834D01*
X0513221Y0279901D02*
X0509618Y0279901D01*
X0510819Y0279901D02*
X0510819Y0281702D01*
X0511420Y0282303D01*
X0512621Y0282303D01*
X0513221Y0281702D01*
X0513221Y0279901D01*
X0510819Y0281102D02*
X0509618Y0282303D01*
X0511420Y0283584D02*
X0511420Y0285986D01*
X0511420Y0287267D02*
X0511420Y0289669D01*
X0513221Y0289068D02*
X0511420Y0287267D01*
X0513221Y0289068D02*
X0509618Y0289068D01*
X0509618Y0285385D02*
X0513221Y0285385D01*
X0511420Y0283584D01*
X0511319Y0301200D02*
X0511319Y0303002D01*
X0511920Y0303602D01*
X0513121Y0303602D01*
X0513721Y0303002D01*
X0513721Y0301200D01*
X0510118Y0301200D01*
X0511319Y0302401D02*
X0510118Y0303602D01*
X0510718Y0304883D02*
X0510118Y0305484D01*
X0510118Y0306685D01*
X0510718Y0307285D01*
X0511319Y0307285D01*
X0511920Y0306685D01*
X0511920Y0306084D01*
X0511920Y0306685D02*
X0512520Y0307285D01*
X0513121Y0307285D01*
X0513721Y0306685D01*
X0513721Y0305484D01*
X0513121Y0304883D01*
X0511920Y0308566D02*
X0511920Y0310368D01*
X0511319Y0310968D01*
X0510718Y0310968D01*
X0510118Y0310368D01*
X0510118Y0309167D01*
X0510718Y0308566D01*
X0511920Y0308566D01*
X0513121Y0309767D01*
X0513721Y0310968D01*
X0490782Y0335999D02*
X0490182Y0335999D01*
X0489581Y0336599D01*
X0489581Y0339602D01*
X0489581Y0340803D02*
X0489581Y0341404D01*
X0487726Y0339602D02*
X0486525Y0339602D01*
X0485925Y0339002D01*
X0485925Y0338401D01*
X0488327Y0338401D01*
X0488327Y0337801D02*
X0488327Y0339002D01*
X0487726Y0339602D01*
X0488327Y0337801D02*
X0487726Y0337200D01*
X0486525Y0337200D01*
X0484644Y0337801D02*
X0484043Y0337200D01*
X0482242Y0337200D01*
X0480360Y0337801D02*
X0479760Y0337200D01*
X0480360Y0337801D02*
X0480360Y0340203D01*
X0480961Y0339602D02*
X0479760Y0339602D01*
X0482242Y0339602D02*
X0484043Y0339602D01*
X0484644Y0339002D01*
X0484644Y0337801D01*
X0492064Y0337801D02*
X0492064Y0339002D01*
X0492664Y0339602D01*
X0493865Y0339602D01*
X0494466Y0339002D01*
X0494466Y0337801D01*
X0493865Y0337200D01*
X0492664Y0337200D01*
X0492064Y0337801D01*
X0495733Y0339602D02*
X0496334Y0339602D01*
X0497535Y0338401D01*
X0497535Y0337200D02*
X0497535Y0339602D01*
X0498816Y0339002D02*
X0499416Y0338401D01*
X0501218Y0338401D01*
X0501218Y0337200D02*
X0501218Y0340803D01*
X0499416Y0340803D01*
X0498816Y0340203D01*
X0498816Y0339002D01*
X0474822Y0339002D02*
X0474222Y0339602D01*
X0472420Y0339602D01*
X0473021Y0338401D02*
X0474222Y0338401D01*
X0474822Y0339002D01*
X0474822Y0337200D02*
X0473021Y0337200D01*
X0472420Y0337801D01*
X0473021Y0338401D01*
X0471139Y0337801D02*
X0470538Y0337200D01*
X0469337Y0337200D01*
X0468737Y0337801D01*
X0468737Y0339002D01*
X0469337Y0339602D01*
X0470538Y0339602D01*
X0471139Y0339002D01*
X0471139Y0337801D01*
X0467456Y0337801D02*
X0466855Y0337200D01*
X0465054Y0337200D01*
X0465054Y0339602D01*
X0463773Y0339602D02*
X0463773Y0337200D01*
X0463773Y0338401D02*
X0462572Y0339602D01*
X0461971Y0339602D01*
X0460703Y0339002D02*
X0460703Y0337801D01*
X0460103Y0337200D01*
X0458301Y0337200D01*
X0457020Y0337801D02*
X0457020Y0339002D01*
X0456420Y0339602D01*
X0455219Y0339602D01*
X0454618Y0339002D01*
X0454618Y0338401D01*
X0457020Y0338401D01*
X0457020Y0337801D02*
X0456420Y0337200D01*
X0455219Y0337200D01*
X0458301Y0339602D02*
X0460103Y0339602D01*
X0460703Y0339002D01*
X0467456Y0339602D02*
X0467456Y0337801D01*
X0449654Y0337801D02*
X0449053Y0337200D01*
X0447252Y0337200D01*
X0445971Y0337801D02*
X0445370Y0337200D01*
X0444169Y0337200D01*
X0443569Y0337801D01*
X0443569Y0339002D01*
X0444169Y0339602D01*
X0445370Y0339602D01*
X0445971Y0339002D01*
X0445971Y0337801D01*
X0447252Y0339602D02*
X0449053Y0339602D01*
X0449654Y0339002D01*
X0449654Y0337801D01*
X0442288Y0337801D02*
X0442288Y0339002D01*
X0441687Y0339602D01*
X0439886Y0339602D01*
X0439886Y0340803D02*
X0439886Y0337200D01*
X0441687Y0337200D01*
X0442288Y0337801D01*
X0438605Y0337801D02*
X0438605Y0339002D01*
X0438004Y0339602D01*
X0436803Y0339602D01*
X0436202Y0339002D01*
X0436202Y0338401D01*
X0438605Y0338401D01*
X0438605Y0337801D02*
X0438004Y0337200D01*
X0436803Y0337200D01*
X0434921Y0337200D02*
X0434921Y0337801D01*
X0434321Y0337801D01*
X0434321Y0337200D01*
X0434921Y0337200D01*
X0434921Y0339002D02*
X0434921Y0339602D01*
X0434321Y0339602D01*
X0434321Y0339002D01*
X0434921Y0339002D01*
X0429397Y0339002D02*
X0429397Y0337801D01*
X0428796Y0337200D01*
X0426995Y0337200D01*
X0426995Y0336599D02*
X0426995Y0339602D01*
X0428796Y0339602D01*
X0429397Y0339002D01*
X0428196Y0335999D02*
X0427595Y0335999D01*
X0426995Y0336599D01*
X0425714Y0337200D02*
X0424513Y0337200D01*
X0425113Y0337200D02*
X0425113Y0339602D01*
X0425714Y0339602D01*
X0425113Y0340803D02*
X0425113Y0341404D01*
X0423258Y0339602D02*
X0422057Y0339602D01*
X0422658Y0340203D02*
X0422658Y0337801D01*
X0422057Y0337200D01*
X0420803Y0337200D02*
X0420803Y0340803D01*
X0420202Y0339602D02*
X0419001Y0339602D01*
X0418401Y0339002D01*
X0418401Y0337200D01*
X0417120Y0337801D02*
X0416519Y0337200D01*
X0414717Y0337200D01*
X0414717Y0339602D01*
X0413436Y0339602D02*
X0411635Y0339602D01*
X0411034Y0339002D01*
X0411034Y0337801D01*
X0411635Y0337200D01*
X0413436Y0337200D01*
X0413436Y0340803D01*
X0417120Y0339602D02*
X0417120Y0337801D01*
X0420202Y0339602D02*
X0420803Y0339002D01*
X0409753Y0337801D02*
X0409153Y0337801D01*
X0409153Y0337200D01*
X0409753Y0337200D01*
X0409753Y0337801D01*
X0407912Y0337801D02*
X0407311Y0337200D01*
X0405510Y0337200D01*
X0404229Y0337801D02*
X0403628Y0337200D01*
X0402427Y0337200D01*
X0401826Y0337801D01*
X0401826Y0339002D01*
X0402427Y0339602D01*
X0403628Y0339602D01*
X0404229Y0339002D01*
X0404229Y0337801D01*
X0405510Y0339602D02*
X0407311Y0339602D01*
X0407912Y0339002D01*
X0407912Y0337801D01*
X0400545Y0337200D02*
X0400545Y0339602D01*
X0399945Y0339602D01*
X0399344Y0339002D01*
X0398744Y0339602D01*
X0398143Y0339002D01*
X0398143Y0337200D01*
X0399344Y0337200D02*
X0399344Y0339002D01*
X0396862Y0337200D02*
X0394460Y0340803D01*
X0393179Y0339002D02*
X0392579Y0339602D01*
X0391378Y0339602D01*
X0390777Y0339002D01*
X0390777Y0338401D01*
X0393179Y0338401D01*
X0393179Y0337801D02*
X0393179Y0339002D01*
X0393179Y0337801D02*
X0392579Y0337200D01*
X0391378Y0337200D01*
X0389496Y0337801D02*
X0389496Y0339002D01*
X0388895Y0339602D01*
X0387694Y0339602D01*
X0387094Y0339002D01*
X0387094Y0338401D01*
X0389496Y0338401D01*
X0389496Y0337801D02*
X0388895Y0337200D01*
X0387694Y0337200D01*
X0385813Y0337200D02*
X0383411Y0337200D01*
X0382130Y0339002D02*
X0379728Y0339002D01*
X0378447Y0339002D02*
X0378447Y0337801D01*
X0377846Y0337200D01*
X0376645Y0337200D01*
X0376044Y0337801D01*
X0376044Y0339002D01*
X0376645Y0339602D01*
X0377846Y0339602D01*
X0378447Y0339002D01*
X0374763Y0339602D02*
X0372962Y0339602D01*
X0372361Y0339002D01*
X0372361Y0337801D01*
X0372962Y0337200D01*
X0374763Y0337200D01*
X0374763Y0335999D02*
X0374763Y0339602D01*
X0371080Y0339002D02*
X0370480Y0339602D01*
X0369279Y0339602D01*
X0368678Y0339002D01*
X0368678Y0338401D01*
X0371080Y0338401D01*
X0371080Y0337801D02*
X0371080Y0339002D01*
X0371080Y0337801D02*
X0370480Y0337200D01*
X0369279Y0337200D01*
X0367397Y0337200D02*
X0367397Y0339602D01*
X0365596Y0339602D01*
X0364995Y0339002D01*
X0364995Y0337200D01*
X0363714Y0337200D02*
X0361312Y0340803D01*
X0360031Y0340203D02*
X0360031Y0337801D01*
X0359430Y0337200D01*
X0358229Y0337200D01*
X0357629Y0337801D01*
X0356348Y0337200D02*
X0356348Y0340803D01*
X0353946Y0340803D01*
X0355147Y0339002D02*
X0356348Y0339002D01*
X0357629Y0340203D02*
X0358229Y0340803D01*
X0359430Y0340803D01*
X0360031Y0340203D01*
X0352665Y0339002D02*
X0350262Y0339002D01*
X0348981Y0340803D02*
X0348981Y0337200D01*
X0347180Y0337200D01*
X0346579Y0337801D01*
X0346579Y0340203D01*
X0347180Y0340803D01*
X0348981Y0340803D01*
X0345298Y0340803D02*
X0344097Y0340803D01*
X0344698Y0340803D02*
X0344698Y0337200D01*
X0345298Y0337200D02*
X0344097Y0337200D01*
X0342843Y0337801D02*
X0342242Y0337200D01*
X0341041Y0337200D01*
X0340441Y0337801D01*
X0340441Y0340203D02*
X0341041Y0340803D01*
X0342242Y0340803D01*
X0342843Y0340203D01*
X0342843Y0337801D01*
X0383411Y0339602D02*
X0385813Y0337200D01*
X0385813Y0339602D02*
X0383411Y0339602D01*
X0382618Y0313669D02*
X0382618Y0311267D01*
X0386221Y0311267D01*
X0386221Y0313669D01*
X0384420Y0312468D02*
X0384420Y0311267D01*
X0385621Y0309986D02*
X0386221Y0309385D01*
X0386221Y0307584D01*
X0382618Y0307584D01*
X0382618Y0309385D01*
X0383218Y0309986D01*
X0385621Y0309986D01*
X0386221Y0306329D02*
X0386221Y0305128D01*
X0386221Y0305729D02*
X0382618Y0305729D01*
X0382618Y0306329D02*
X0382618Y0305128D01*
X0383218Y0303847D02*
X0382618Y0303247D01*
X0382618Y0302046D01*
X0383218Y0301445D01*
X0384420Y0302046D02*
X0384420Y0303247D01*
X0383819Y0303847D01*
X0383218Y0303847D01*
X0384420Y0302046D02*
X0385020Y0301445D01*
X0385621Y0301445D01*
X0386221Y0302046D01*
X0386221Y0303247D01*
X0385621Y0303847D01*
X0384420Y0300164D02*
X0384420Y0297762D01*
X0386221Y0296508D02*
X0386221Y0295307D01*
X0386221Y0295907D02*
X0382618Y0295907D01*
X0382618Y0295307D02*
X0382618Y0296508D01*
X0382618Y0294025D02*
X0386221Y0294025D01*
X0384420Y0294025D02*
X0384420Y0291623D01*
X0386221Y0291623D02*
X0382618Y0291623D01*
X0475368Y0239316D02*
X0475968Y0239316D01*
X0478371Y0241718D01*
X0478971Y0241718D01*
X0478971Y0239316D01*
X0478371Y0238035D02*
X0477770Y0238035D01*
X0477170Y0237435D01*
X0476569Y0238035D01*
X0475968Y0238035D01*
X0475368Y0237435D01*
X0475368Y0236234D01*
X0475968Y0235633D01*
X0475968Y0234352D02*
X0475368Y0233752D01*
X0475368Y0232551D01*
X0475968Y0231950D01*
X0478371Y0231950D01*
X0478971Y0232551D01*
X0478971Y0233752D01*
X0478371Y0234352D01*
X0478371Y0235633D02*
X0478971Y0236234D01*
X0478971Y0237435D01*
X0478371Y0238035D01*
X0477170Y0237435D02*
X0477170Y0236834D01*
X0498749Y0237200D02*
X0501151Y0237200D01*
X0499950Y0237200D02*
X0499950Y0240803D01*
X0501151Y0239602D01*
X0502432Y0239602D02*
X0503033Y0239002D01*
X0502432Y0238401D01*
X0502432Y0237801D01*
X0503033Y0237200D01*
X0504234Y0237200D01*
X0504834Y0237801D01*
X0506115Y0237200D02*
X0507316Y0238401D01*
X0506716Y0238401D02*
X0508517Y0238401D01*
X0508517Y0237200D02*
X0508517Y0240803D01*
X0506716Y0240803D01*
X0506115Y0240203D01*
X0506115Y0239002D01*
X0506716Y0238401D01*
X0504834Y0240203D02*
X0504234Y0240803D01*
X0503033Y0240803D01*
X0502432Y0240203D01*
X0502432Y0239602D01*
X0503033Y0239002D02*
X0503633Y0239002D01*
X0503033Y0233053D02*
X0504234Y0233053D01*
X0504834Y0232453D01*
X0506115Y0232453D02*
X0506115Y0231252D01*
X0506716Y0230651D01*
X0508517Y0230651D01*
X0507316Y0230651D02*
X0506115Y0229450D01*
X0504834Y0229450D02*
X0502432Y0231852D01*
X0502432Y0232453D01*
X0503033Y0233053D01*
X0501151Y0232453D02*
X0501151Y0231852D01*
X0500551Y0231252D01*
X0498749Y0231252D01*
X0498749Y0232453D02*
X0499350Y0233053D01*
X0500551Y0233053D01*
X0501151Y0232453D01*
X0498749Y0232453D02*
X0498749Y0230051D01*
X0499350Y0229450D01*
X0500551Y0229450D01*
X0501151Y0230051D01*
X0502432Y0229450D02*
X0504834Y0229450D01*
X0506115Y0232453D02*
X0506716Y0233053D01*
X0508517Y0233053D01*
X0508517Y0229450D01*
X0508267Y0221803D02*
X0506466Y0221803D01*
X0505865Y0221203D01*
X0505865Y0220002D01*
X0506466Y0219401D01*
X0508267Y0219401D01*
X0507066Y0219401D02*
X0505865Y0218200D01*
X0504584Y0218801D02*
X0503984Y0218200D01*
X0502783Y0218200D01*
X0502182Y0218801D01*
X0502182Y0219401D01*
X0502783Y0220002D01*
X0503383Y0220002D01*
X0502783Y0220002D02*
X0502182Y0220602D01*
X0502182Y0221203D01*
X0502783Y0221803D01*
X0503984Y0221803D01*
X0504584Y0221203D01*
X0500901Y0221203D02*
X0500301Y0221803D01*
X0499100Y0221803D01*
X0498499Y0221203D01*
X0498499Y0220602D01*
X0499100Y0220002D01*
X0498499Y0219401D01*
X0498499Y0218801D01*
X0499100Y0218200D01*
X0500301Y0218200D01*
X0500901Y0218801D01*
X0499700Y0220002D02*
X0499100Y0220002D01*
X0499767Y0212803D02*
X0497966Y0212803D01*
X0497365Y0212203D01*
X0497365Y0211002D01*
X0497966Y0210401D01*
X0499767Y0210401D01*
X0498566Y0210401D02*
X0497365Y0209200D01*
X0496084Y0209801D02*
X0495484Y0209200D01*
X0494283Y0209200D01*
X0493682Y0209801D01*
X0493682Y0210401D01*
X0494283Y0211002D01*
X0494883Y0211002D01*
X0494283Y0211002D02*
X0493682Y0211602D01*
X0493682Y0212203D01*
X0494283Y0212803D01*
X0495484Y0212803D01*
X0496084Y0212203D01*
X0499767Y0212803D02*
X0499767Y0209200D01*
X0499767Y0205303D02*
X0497966Y0205303D01*
X0497365Y0204703D01*
X0497365Y0203502D01*
X0497966Y0202901D01*
X0499767Y0202901D01*
X0498566Y0202901D02*
X0497365Y0201700D01*
X0496084Y0202301D02*
X0495484Y0201700D01*
X0494283Y0201700D01*
X0493682Y0202301D01*
X0493682Y0202901D01*
X0494283Y0203502D01*
X0494883Y0203502D01*
X0494283Y0203502D02*
X0493682Y0204102D01*
X0493682Y0204703D01*
X0494283Y0205303D01*
X0495484Y0205303D01*
X0496084Y0204703D01*
X0492401Y0205303D02*
X0489999Y0205303D01*
X0489999Y0204703D01*
X0492401Y0202301D01*
X0492401Y0201700D01*
X0499767Y0201700D02*
X0499767Y0205303D01*
X0492401Y0211002D02*
X0489999Y0211002D01*
X0490600Y0212803D02*
X0492401Y0211002D01*
X0490600Y0212803D02*
X0490600Y0209200D01*
X0508267Y0218200D02*
X0508267Y0221803D01*
X0499937Y0191616D02*
X0497535Y0191616D01*
X0497535Y0191016D01*
X0499937Y0188613D01*
X0499937Y0188013D01*
X0497535Y0188013D01*
X0496254Y0188013D02*
X0494452Y0188013D01*
X0493852Y0188613D01*
X0493852Y0191016D01*
X0494452Y0191616D01*
X0496254Y0191616D01*
X0496254Y0188013D01*
X0492570Y0189815D02*
X0490168Y0189815D01*
X0490769Y0191616D02*
X0492570Y0189815D01*
X0490769Y0191616D02*
X0490769Y0188013D01*
X0491033Y0183803D02*
X0492834Y0182002D01*
X0490432Y0182002D01*
X0489151Y0182002D02*
X0487950Y0182602D01*
X0487350Y0182602D01*
X0486749Y0182002D01*
X0486749Y0180801D01*
X0487350Y0180200D01*
X0488551Y0180200D01*
X0489151Y0180801D01*
X0489151Y0182002D02*
X0489151Y0183803D01*
X0486749Y0183803D01*
X0491033Y0183803D02*
X0491033Y0180200D01*
X0494115Y0180200D02*
X0495316Y0181401D01*
X0494716Y0181401D02*
X0496517Y0181401D01*
X0496517Y0180200D02*
X0496517Y0183803D01*
X0494716Y0183803D01*
X0494115Y0183203D01*
X0494115Y0182002D01*
X0494716Y0181401D01*
X0571084Y0128053D02*
X0571084Y0124450D01*
X0572285Y0124450D02*
X0569883Y0124450D01*
X0572285Y0126852D02*
X0571084Y0128053D01*
X0573566Y0127453D02*
X0573566Y0126252D01*
X0574166Y0125651D01*
X0575968Y0125651D01*
X0575968Y0124450D02*
X0575968Y0128053D01*
X0574166Y0128053D01*
X0573566Y0127453D01*
X0574767Y0125651D02*
X0573566Y0124450D01*
X0588383Y0124450D02*
X0590785Y0124450D01*
X0588383Y0126852D01*
X0588383Y0127453D01*
X0588983Y0128053D01*
X0590184Y0128053D01*
X0590785Y0127453D01*
X0592066Y0127453D02*
X0592066Y0126252D01*
X0592666Y0125651D01*
X0594468Y0125651D01*
X0594468Y0124450D02*
X0594468Y0128053D01*
X0592666Y0128053D01*
X0592066Y0127453D01*
X0593267Y0125651D02*
X0592066Y0124450D01*
X0450584Y0038453D02*
X0449984Y0039053D01*
X0448783Y0039053D01*
X0448182Y0038453D01*
X0448182Y0036051D01*
X0448783Y0035450D01*
X0449984Y0035450D01*
X0450584Y0036051D01*
X0450584Y0038453D01*
X0449383Y0036651D02*
X0448182Y0035450D01*
X0446901Y0036051D02*
X0446301Y0035450D01*
X0445100Y0035450D01*
X0444499Y0036051D01*
X0444499Y0037252D01*
X0445100Y0037852D01*
X0445700Y0037852D01*
X0446901Y0037252D01*
X0446901Y0039053D01*
X0444499Y0039053D01*
X0453950Y0030953D02*
X0454550Y0031553D01*
X0455751Y0031553D01*
X0456352Y0030953D01*
X0456352Y0030352D01*
X0455751Y0029752D01*
X0454550Y0029752D01*
X0453950Y0029151D01*
X0453950Y0028551D01*
X0454550Y0027950D01*
X0455751Y0027950D01*
X0456352Y0028551D01*
X0456352Y0029151D01*
X0455751Y0029752D01*
X0454550Y0029752D02*
X0453950Y0030352D01*
X0453950Y0030953D01*
X0457633Y0031553D02*
X0460035Y0031553D01*
X0460035Y0029752D01*
X0458834Y0030352D01*
X0458233Y0030352D01*
X0457633Y0029752D01*
X0457633Y0028551D01*
X0458233Y0027950D01*
X0459434Y0027950D01*
X0460035Y0028551D01*
X0461316Y0027950D02*
X0462517Y0029151D01*
X0461916Y0029151D02*
X0463718Y0029151D01*
X0463718Y0027950D02*
X0463718Y0031553D01*
X0461916Y0031553D01*
X0461316Y0030953D01*
X0461316Y0029752D01*
X0461916Y0029151D01*
X0386221Y0118467D02*
X0386221Y0120269D01*
X0385621Y0120869D01*
X0384420Y0120869D01*
X0383819Y0120269D01*
X0383819Y0118467D01*
X0382618Y0118467D02*
X0386221Y0118467D01*
X0386221Y0122151D02*
X0383218Y0122151D01*
X0382618Y0122751D01*
X0382618Y0123952D01*
X0383218Y0124553D01*
X0386221Y0124553D01*
X0386221Y0125834D02*
X0382618Y0125834D01*
X0382618Y0128236D01*
X0382618Y0129517D02*
X0382618Y0131919D01*
X0382618Y0129517D02*
X0386221Y0129517D01*
X0386800Y0166950D02*
X0386200Y0167551D01*
X0386200Y0169953D01*
X0386800Y0170553D01*
X0388001Y0170553D01*
X0388602Y0169953D01*
X0388602Y0169352D01*
X0388001Y0168752D01*
X0386200Y0168752D01*
X0386800Y0166950D02*
X0388001Y0166950D01*
X0388602Y0167551D01*
X0389883Y0167551D02*
X0390483Y0166950D01*
X0391684Y0166950D01*
X0392285Y0167551D01*
X0393566Y0166950D02*
X0394767Y0168151D01*
X0394166Y0168151D02*
X0395968Y0168151D01*
X0395968Y0166950D02*
X0395968Y0170553D01*
X0394166Y0170553D01*
X0393566Y0169953D01*
X0393566Y0168752D01*
X0394166Y0168151D01*
X0392285Y0169953D02*
X0391684Y0170553D01*
X0390483Y0170553D01*
X0389883Y0169953D01*
X0389883Y0169352D01*
X0390483Y0168752D01*
X0389883Y0168151D01*
X0389883Y0167551D01*
X0390483Y0168752D02*
X0391084Y0168752D01*
X0386221Y0179146D02*
X0382618Y0179146D01*
X0382618Y0181548D01*
X0383218Y0182829D02*
X0382618Y0183429D01*
X0382618Y0184630D01*
X0383218Y0185231D01*
X0385621Y0185231D01*
X0386221Y0184630D01*
X0386221Y0183429D01*
X0385621Y0182829D01*
X0383218Y0182829D01*
X0384420Y0186512D02*
X0384420Y0188914D01*
X0385020Y0190195D02*
X0384420Y0190796D01*
X0384420Y0191997D01*
X0383819Y0192597D01*
X0383218Y0192597D01*
X0382618Y0191997D01*
X0382618Y0190796D01*
X0383218Y0190195D01*
X0385020Y0190195D02*
X0385621Y0190195D01*
X0386221Y0190796D01*
X0386221Y0191997D01*
X0385621Y0192597D01*
X0386221Y0193878D02*
X0386221Y0195079D01*
X0386221Y0194479D02*
X0382618Y0194479D01*
X0382618Y0195079D02*
X0382618Y0193878D01*
X0382618Y0196334D02*
X0382618Y0198135D01*
X0383218Y0198736D01*
X0385621Y0198736D01*
X0386221Y0198135D01*
X0386221Y0196334D01*
X0382618Y0196334D01*
X0382618Y0200017D02*
X0382618Y0202419D01*
X0384420Y0201218D02*
X0384420Y0200017D01*
X0386221Y0200017D02*
X0382618Y0200017D01*
X0386221Y0200017D02*
X0386221Y0202419D01*
D11*
X0387298Y0187268D02*
X0387298Y0171732D01*
X0395038Y0171732D01*
X0395038Y0187268D01*
X0387298Y0187268D01*
X0423900Y0186630D02*
X0423900Y0194370D01*
X0439436Y0194370D01*
X0439436Y0186630D01*
X0423900Y0186630D01*
X0428298Y0182018D02*
X0428298Y0166482D01*
X0436038Y0166482D01*
X0436038Y0182018D01*
X0428298Y0182018D01*
X0428869Y0198880D02*
X0441467Y0198880D01*
X0441467Y0205620D01*
X0428869Y0205620D01*
X0428869Y0198880D01*
X0428869Y0205630D02*
X0441467Y0205630D01*
X0441467Y0212370D01*
X0428869Y0212370D01*
X0428869Y0205630D01*
X0428869Y0212380D02*
X0441467Y0212380D01*
X0441467Y0219120D01*
X0428869Y0219120D01*
X0428869Y0212380D01*
X0429119Y0228380D02*
X0441717Y0228380D01*
X0441717Y0235120D01*
X0429119Y0235120D01*
X0429119Y0228380D01*
X0429119Y0235130D02*
X0441717Y0235130D01*
X0441717Y0241870D01*
X0429119Y0241870D01*
X0429119Y0235130D01*
X0429119Y0241880D02*
X0441717Y0241880D01*
X0441717Y0248620D01*
X0429119Y0248620D01*
X0429119Y0241880D01*
X0427436Y0256380D02*
X0411900Y0256380D01*
X0411900Y0264120D01*
X0427436Y0264120D01*
X0427436Y0256380D01*
X0419186Y0277380D02*
X0403650Y0277380D01*
X0403650Y0285120D01*
X0419186Y0285120D01*
X0419186Y0277380D01*
X0428798Y0277982D02*
X0436538Y0277982D01*
X0436538Y0293518D01*
X0428798Y0293518D01*
X0428798Y0277982D01*
X0436548Y0277982D02*
X0444288Y0277982D01*
X0444288Y0293518D01*
X0436548Y0293518D01*
X0436548Y0277982D01*
X0455708Y0317000D02*
X0454958Y0317751D01*
X0454958Y0318501D01*
X0455708Y0319252D01*
X0457960Y0319252D01*
X0457960Y0317751D01*
X0457209Y0317000D01*
X0455708Y0317000D01*
X0457960Y0319252D02*
X0456459Y0320753D01*
X0454958Y0321504D01*
X0459561Y0320753D02*
X0459561Y0320003D01*
X0460312Y0319252D01*
X0459561Y0318501D01*
X0459561Y0317751D01*
X0460312Y0317000D01*
X0461813Y0317000D01*
X0462564Y0317751D01*
X0464165Y0317751D02*
X0464916Y0317000D01*
X0466417Y0317000D01*
X0467168Y0317751D01*
X0467168Y0320753D01*
X0466417Y0321504D01*
X0464916Y0321504D01*
X0464165Y0320753D01*
X0462564Y0320753D02*
X0461813Y0321504D01*
X0460312Y0321504D01*
X0459561Y0320753D01*
X0460312Y0319252D02*
X0461063Y0319252D01*
X0500298Y0316236D02*
X0500298Y0296764D01*
X0509038Y0296764D01*
X0509038Y0316236D01*
X0500298Y0316236D01*
X0500798Y0292268D02*
X0508538Y0292268D01*
X0508538Y0276732D01*
X0500798Y0276732D01*
X0500798Y0292268D01*
X0503788Y0260018D02*
X0496048Y0260018D01*
X0496048Y0244482D01*
X0503788Y0244482D01*
X0503788Y0260018D01*
X0503798Y0260018D02*
X0511538Y0260018D01*
X0511538Y0244482D01*
X0503798Y0244482D01*
X0503798Y0260018D01*
X0511548Y0257049D02*
X0518288Y0257049D01*
X0518288Y0244451D01*
X0511548Y0244451D01*
X0511548Y0257049D01*
X0497686Y0242370D02*
X0482150Y0242370D01*
X0482150Y0234630D01*
X0497686Y0234630D01*
X0497686Y0242370D01*
X0497686Y0234620D02*
X0482150Y0234620D01*
X0482150Y0226880D01*
X0497686Y0226880D01*
X0497686Y0234620D01*
X0497436Y0224120D02*
X0481900Y0224120D01*
X0481900Y0216380D01*
X0497436Y0216380D01*
X0497436Y0224120D01*
X0488936Y0216370D02*
X0488936Y0208630D01*
X0473400Y0208630D01*
X0473400Y0216370D01*
X0488936Y0216370D01*
X0488936Y0208620D02*
X0488936Y0200880D01*
X0473400Y0200880D01*
X0473400Y0208620D01*
X0488936Y0208620D01*
X0480038Y0218201D02*
X0473298Y0218201D01*
X0473298Y0230799D01*
X0480038Y0230799D01*
X0480038Y0218201D01*
X0462718Y0198754D02*
X0461217Y0198754D01*
X0461967Y0198754D02*
X0461967Y0194250D01*
X0461217Y0194250D02*
X0462718Y0194250D01*
X0459649Y0195001D02*
X0459649Y0198003D01*
X0458898Y0198754D01*
X0457397Y0198754D01*
X0456646Y0198003D01*
X0455045Y0196502D02*
X0452042Y0196502D01*
X0452793Y0198754D02*
X0455045Y0196502D01*
X0456646Y0195001D02*
X0457397Y0194250D01*
X0458898Y0194250D01*
X0459649Y0195001D01*
X0452793Y0194250D02*
X0452793Y0198754D01*
X0469900Y0185870D02*
X0469900Y0178130D01*
X0485436Y0178130D01*
X0485436Y0185870D01*
X0469900Y0185870D01*
X0472538Y0153518D02*
X0464798Y0153518D01*
X0464798Y0137982D01*
X0472538Y0137982D01*
X0472538Y0153518D01*
X0472548Y0153518D02*
X0472548Y0137982D01*
X0480288Y0137982D01*
X0480288Y0153518D01*
X0472548Y0153518D01*
X0480298Y0150549D02*
X0487038Y0150549D01*
X0487038Y0137951D01*
X0480298Y0137951D01*
X0480298Y0150549D01*
X0491298Y0147549D02*
X0491298Y0134951D01*
X0498038Y0134951D01*
X0498038Y0147549D01*
X0491298Y0147549D01*
X0498048Y0150518D02*
X0505788Y0150518D01*
X0505788Y0134982D01*
X0498048Y0134982D01*
X0498048Y0150518D01*
X0471686Y0137870D02*
X0471686Y0130130D01*
X0456150Y0130130D01*
X0456150Y0137870D01*
X0471686Y0137870D01*
X0471686Y0130120D02*
X0456150Y0130120D01*
X0456150Y0122380D01*
X0471686Y0122380D01*
X0471686Y0130120D01*
X0456038Y0122482D02*
X0448298Y0122482D01*
X0448298Y0138018D01*
X0456038Y0138018D01*
X0456038Y0122482D01*
X0456150Y0116370D02*
X0456150Y0108630D01*
X0471686Y0108630D01*
X0471686Y0116370D01*
X0456150Y0116370D01*
X0456048Y0099018D02*
X0463788Y0099018D01*
X0463788Y0083482D01*
X0456048Y0083482D01*
X0456048Y0099018D01*
X0456038Y0099018D02*
X0448298Y0099018D01*
X0448298Y0083482D01*
X0456038Y0083482D01*
X0456038Y0099018D01*
X0463798Y0099018D02*
X0471538Y0099018D01*
X0471538Y0083482D01*
X0463798Y0083482D01*
X0463798Y0099018D01*
X0471548Y0099018D02*
X0479288Y0099018D01*
X0479288Y0083482D01*
X0471548Y0083482D01*
X0471548Y0099018D01*
X0479298Y0099018D02*
X0487038Y0099018D01*
X0487038Y0083482D01*
X0479298Y0083482D01*
X0479298Y0099018D01*
X0487048Y0099018D02*
X0494788Y0099018D01*
X0494788Y0083482D01*
X0487048Y0083482D01*
X0487048Y0099018D01*
X0494798Y0099018D02*
X0494798Y0083482D01*
X0502538Y0083482D01*
X0502538Y0099018D01*
X0494798Y0099018D01*
X0498543Y0115000D02*
X0500044Y0115000D01*
X0500795Y0115751D01*
X0500795Y0117252D02*
X0499293Y0118003D01*
X0498543Y0118003D01*
X0497792Y0117252D01*
X0497792Y0115751D01*
X0498543Y0115000D01*
X0500795Y0117252D02*
X0500795Y0119504D01*
X0497792Y0119504D01*
X0502396Y0118753D02*
X0503147Y0119504D01*
X0504648Y0119504D01*
X0505399Y0118753D01*
X0505399Y0115751D01*
X0504648Y0115000D01*
X0503147Y0115000D01*
X0502396Y0115751D01*
X0506967Y0115000D02*
X0508468Y0115000D01*
X0507717Y0115000D02*
X0507717Y0119504D01*
X0506967Y0119504D02*
X0508468Y0119504D01*
X0561932Y0129130D02*
X0561932Y0137870D01*
X0581404Y0137870D01*
X0581404Y0129130D01*
X0561932Y0129130D01*
X0581432Y0129130D02*
X0581432Y0137870D01*
X0600904Y0137870D01*
X0600904Y0129130D01*
X0581432Y0129130D01*
X0512436Y0067870D02*
X0496900Y0067870D01*
X0496900Y0060130D01*
X0512436Y0060130D01*
X0512436Y0067870D01*
X0512436Y0060120D02*
X0496900Y0060120D01*
X0496900Y0052380D01*
X0512436Y0052380D01*
X0512436Y0060120D01*
X0509467Y0052370D02*
X0496869Y0052370D01*
X0496869Y0045630D01*
X0509467Y0045630D01*
X0509467Y0052370D01*
X0509467Y0044120D02*
X0496869Y0044120D01*
X0496869Y0037380D01*
X0509467Y0037380D01*
X0509467Y0044120D01*
X0484518Y0037504D02*
X0483017Y0037504D01*
X0483767Y0037504D02*
X0483767Y0033000D01*
X0483017Y0033000D02*
X0484518Y0033000D01*
X0481449Y0033751D02*
X0480698Y0033000D01*
X0479197Y0033000D01*
X0478446Y0033751D01*
X0476845Y0033751D02*
X0476094Y0033000D01*
X0474593Y0033000D01*
X0473842Y0033751D01*
X0473842Y0034501D01*
X0474593Y0035252D01*
X0476845Y0035252D01*
X0476845Y0033751D01*
X0476845Y0035252D02*
X0475343Y0036753D01*
X0473842Y0037504D01*
X0478446Y0036753D02*
X0479197Y0037504D01*
X0480698Y0037504D01*
X0481449Y0036753D01*
X0481449Y0033751D01*
X0462788Y0032232D02*
X0462788Y0047768D01*
X0455048Y0047768D01*
X0455048Y0032232D01*
X0462788Y0032232D01*
X0462788Y0047732D02*
X0455048Y0047732D01*
X0455048Y0063268D01*
X0462788Y0063268D01*
X0462788Y0047732D01*
X0470650Y0059630D02*
X0470650Y0067370D01*
X0486186Y0067370D01*
X0486186Y0059630D01*
X0470650Y0059630D01*
X0448288Y0083451D02*
X0441548Y0083451D01*
X0441548Y0096049D01*
X0448288Y0096049D01*
X0448288Y0083451D01*
X0403686Y0047370D02*
X0388150Y0047370D01*
X0388150Y0039630D01*
X0403686Y0039630D01*
X0403686Y0047370D01*
X0405769Y0045503D02*
X0405769Y0044753D01*
X0406520Y0044002D01*
X0408021Y0044002D01*
X0408772Y0044753D01*
X0408772Y0045503D01*
X0408021Y0046254D01*
X0406520Y0046254D01*
X0405769Y0045503D01*
X0406520Y0044002D02*
X0405769Y0043251D01*
X0405769Y0042501D01*
X0406520Y0041750D01*
X0408021Y0041750D01*
X0408772Y0042501D01*
X0408772Y0043251D01*
X0408021Y0044002D01*
X0410373Y0044002D02*
X0413376Y0044002D01*
X0411124Y0046254D01*
X0411124Y0041750D01*
X0414977Y0041750D02*
X0416478Y0043251D01*
X0415728Y0043251D02*
X0417980Y0043251D01*
X0417980Y0041750D02*
X0417980Y0046254D01*
X0415728Y0046254D01*
X0414977Y0045503D01*
X0414977Y0044002D01*
X0415728Y0043251D01*
X0415147Y0037817D02*
X0417399Y0037817D01*
X0417399Y0033313D01*
X0415147Y0033313D01*
X0414397Y0034064D01*
X0414397Y0037066D01*
X0415147Y0037817D01*
X0412795Y0037066D02*
X0412045Y0037817D01*
X0410543Y0037817D01*
X0409793Y0037066D01*
X0409793Y0036316D01*
X0412795Y0033313D01*
X0409793Y0033313D01*
X0408191Y0033313D02*
X0405189Y0036316D01*
X0405189Y0037066D01*
X0405939Y0037817D01*
X0407441Y0037817D01*
X0408191Y0037066D01*
X0408191Y0033313D02*
X0405189Y0033313D01*
X0355480Y0070438D02*
X0354729Y0069687D01*
X0353228Y0069687D01*
X0352477Y0070438D01*
X0350876Y0071939D02*
X0347873Y0071939D01*
X0346272Y0070438D02*
X0346272Y0069687D01*
X0346272Y0070438D02*
X0343269Y0073440D01*
X0343269Y0074191D01*
X0346272Y0074191D01*
X0348624Y0074191D02*
X0348624Y0069687D01*
X0350876Y0071939D02*
X0348624Y0074191D01*
X0352477Y0073440D02*
X0353228Y0074191D01*
X0354729Y0074191D01*
X0355480Y0073440D01*
X0355480Y0070438D01*
X0312230Y0040254D02*
X0309978Y0040254D01*
X0309227Y0039503D01*
X0309227Y0036501D01*
X0309978Y0035750D01*
X0312230Y0035750D01*
X0312230Y0040254D01*
X0307626Y0038753D02*
X0306125Y0040254D01*
X0306125Y0035750D01*
X0307626Y0035750D02*
X0304623Y0035750D01*
X0303022Y0036501D02*
X0302271Y0035750D01*
X0300770Y0035750D01*
X0300019Y0036501D01*
X0300019Y0039503D01*
X0300770Y0040254D01*
X0302271Y0040254D01*
X0303022Y0039503D01*
X0303022Y0038753D01*
X0302271Y0038002D01*
X0300019Y0038002D01*
X0285730Y0043900D02*
X0285730Y0048404D01*
X0283478Y0048404D01*
X0282727Y0047653D01*
X0282727Y0046152D01*
X0283478Y0045401D01*
X0285730Y0045401D01*
X0284228Y0045401D02*
X0282727Y0043900D01*
X0281126Y0044651D02*
X0280375Y0043900D01*
X0278874Y0043900D01*
X0278123Y0044651D01*
X0278123Y0045401D01*
X0278874Y0046152D01*
X0279625Y0046152D01*
X0278874Y0046152D02*
X0278123Y0046903D01*
X0278123Y0047653D01*
X0278874Y0048404D01*
X0280375Y0048404D01*
X0281126Y0047653D01*
X0276522Y0047653D02*
X0276522Y0044651D01*
X0273519Y0047653D01*
X0273519Y0044651D01*
X0274270Y0043900D01*
X0275771Y0043900D01*
X0276522Y0044651D01*
X0276522Y0047653D02*
X0275771Y0048404D01*
X0274270Y0048404D01*
X0273519Y0047653D01*
X0271611Y0050108D02*
X0287225Y0050108D01*
X0287225Y0081392D01*
X0271611Y0081392D01*
X0271611Y0050108D01*
X0271611Y0081358D02*
X0287225Y0081358D01*
X0287225Y0112642D01*
X0271611Y0112642D01*
X0271611Y0081358D01*
X0288168Y0091750D02*
X0292672Y0091750D01*
X0292672Y0094002D01*
X0291921Y0094753D01*
X0290420Y0094753D01*
X0289669Y0094002D01*
X0289669Y0091750D01*
X0289669Y0093251D02*
X0288168Y0094753D01*
X0288919Y0096354D02*
X0288168Y0097105D01*
X0288168Y0098606D01*
X0288919Y0099356D01*
X0289669Y0099356D01*
X0290420Y0098606D01*
X0290420Y0097855D01*
X0290420Y0098606D02*
X0291171Y0099356D01*
X0291921Y0099356D01*
X0292672Y0098606D01*
X0292672Y0097105D01*
X0291921Y0096354D01*
X0291921Y0100958D02*
X0292672Y0101708D01*
X0292672Y0103210D01*
X0291921Y0103960D01*
X0291171Y0103960D01*
X0288168Y0100958D01*
X0288168Y0103960D01*
X0285757Y0112764D02*
X0273079Y0112764D01*
X0273079Y0132236D01*
X0285757Y0132236D01*
X0285757Y0112764D01*
X0287919Y0116750D02*
X0287168Y0117501D01*
X0287168Y0119002D01*
X0287919Y0119753D01*
X0289420Y0121354D02*
X0289420Y0124356D01*
X0290171Y0125958D02*
X0291672Y0127459D01*
X0287168Y0127459D01*
X0287168Y0125958D02*
X0287168Y0128960D01*
X0287168Y0123606D02*
X0291672Y0123606D01*
X0289420Y0121354D01*
X0290921Y0119753D02*
X0291672Y0119002D01*
X0291672Y0117501D01*
X0290921Y0116750D01*
X0287919Y0116750D01*
X0248288Y0114482D02*
X0248288Y0130018D01*
X0240548Y0130018D01*
X0240548Y0114482D01*
X0248288Y0114482D01*
X0240538Y0114482D02*
X0232798Y0114482D01*
X0232798Y0130018D01*
X0240538Y0130018D01*
X0240538Y0114482D01*
X0242538Y0134732D02*
X0234798Y0134732D01*
X0234798Y0150268D01*
X0242538Y0150268D01*
X0242538Y0134732D01*
X0234788Y0134732D02*
X0227048Y0134732D01*
X0227048Y0150268D01*
X0234788Y0150268D01*
X0234788Y0134732D01*
X0242436Y0150130D02*
X0226900Y0150130D01*
X0226900Y0157870D01*
X0242436Y0157870D01*
X0242436Y0150130D01*
X0242548Y0150232D02*
X0250288Y0150232D01*
X0250288Y0165768D01*
X0242548Y0165768D01*
X0242548Y0150232D01*
X0250298Y0150232D02*
X0258038Y0150232D01*
X0258038Y0165768D01*
X0250298Y0165768D01*
X0250298Y0150232D01*
X0242436Y0158130D02*
X0242436Y0165870D01*
X0226900Y0165870D01*
X0226900Y0158130D01*
X0242436Y0158130D01*
X0242288Y0166232D02*
X0234548Y0166232D01*
X0234548Y0181768D01*
X0242288Y0181768D01*
X0242288Y0166232D01*
X0226788Y0165768D02*
X0219048Y0165768D01*
X0219048Y0150232D01*
X0226788Y0150232D01*
X0226788Y0165768D01*
X0214436Y0168880D02*
X0214436Y0176620D01*
X0198900Y0176620D01*
X0198900Y0168880D01*
X0214436Y0168880D01*
X0214467Y0176630D02*
X0201869Y0176630D01*
X0201869Y0183370D01*
X0214467Y0183370D01*
X0214467Y0176630D01*
X0217182Y0182380D02*
X0217182Y0191120D01*
X0236654Y0191120D01*
X0236654Y0182380D01*
X0217182Y0182380D01*
X0217048Y0190982D02*
X0224788Y0190982D01*
X0224788Y0206518D01*
X0217048Y0206518D01*
X0217048Y0190982D01*
X0224650Y0191130D02*
X0240186Y0191130D01*
X0240186Y0198870D01*
X0224650Y0198870D01*
X0224650Y0191130D01*
X0224650Y0198880D02*
X0240186Y0198880D01*
X0240186Y0206620D01*
X0224650Y0206620D01*
X0224650Y0198880D01*
X0213172Y0205150D02*
X0213172Y0206651D01*
X0213172Y0205901D02*
X0208668Y0205901D01*
X0208668Y0206651D02*
X0208668Y0205150D01*
X0206686Y0205880D02*
X0206686Y0213620D01*
X0191150Y0213620D01*
X0191150Y0205880D01*
X0206686Y0205880D01*
X0209419Y0208219D02*
X0208668Y0208970D01*
X0208668Y0210471D01*
X0209419Y0211222D01*
X0209419Y0212823D02*
X0210169Y0212823D01*
X0210920Y0213574D01*
X0210920Y0215075D01*
X0210169Y0215826D01*
X0209419Y0215826D01*
X0208668Y0215075D01*
X0208668Y0213574D01*
X0209419Y0212823D01*
X0210920Y0213574D02*
X0211671Y0212823D01*
X0212421Y0212823D01*
X0213172Y0213574D01*
X0213172Y0215075D01*
X0212421Y0215826D01*
X0211671Y0215826D01*
X0210920Y0215075D01*
X0212421Y0211222D02*
X0213172Y0210471D01*
X0213172Y0208970D01*
X0212421Y0208219D01*
X0209419Y0208219D01*
X0188217Y0211120D02*
X0188217Y0204380D01*
X0175619Y0204380D01*
X0175619Y0211120D01*
X0188217Y0211120D01*
X0181788Y0203018D02*
X0174048Y0203018D01*
X0174048Y0187482D01*
X0181788Y0187482D01*
X0181788Y0203018D01*
X0174038Y0203018D02*
X0166298Y0203018D01*
X0166298Y0187482D01*
X0174038Y0187482D01*
X0174038Y0203018D01*
X0160788Y0185018D02*
X0153048Y0185018D01*
X0153048Y0169482D01*
X0160788Y0169482D01*
X0160788Y0185018D01*
X0152936Y0185120D02*
X0152936Y0177380D01*
X0137400Y0177380D01*
X0137400Y0185120D01*
X0152936Y0185120D01*
X0152936Y0177370D02*
X0152936Y0169630D01*
X0137400Y0169630D01*
X0137400Y0177370D01*
X0152936Y0177370D01*
X0135436Y0171120D02*
X0119900Y0171120D01*
X0119900Y0163380D01*
X0135436Y0163380D01*
X0135436Y0171120D01*
X0183119Y0174370D02*
X0183119Y0167630D01*
X0195717Y0167630D01*
X0195717Y0174370D01*
X0183119Y0174370D01*
X0196093Y0145754D02*
X0197594Y0145754D01*
X0198345Y0145003D01*
X0198345Y0144253D01*
X0197594Y0143502D01*
X0195342Y0143502D01*
X0195342Y0142001D02*
X0195342Y0145003D01*
X0196093Y0145754D01*
X0195342Y0142001D02*
X0196093Y0141250D01*
X0197594Y0141250D01*
X0198345Y0142001D01*
X0199946Y0142001D02*
X0200697Y0141250D01*
X0202198Y0141250D01*
X0202949Y0142001D01*
X0202949Y0145003D01*
X0202198Y0145754D01*
X0200697Y0145754D01*
X0199946Y0145003D01*
X0204517Y0145754D02*
X0206018Y0145754D01*
X0205267Y0145754D02*
X0205267Y0141250D01*
X0204517Y0141250D02*
X0206018Y0141250D01*
X0184475Y0105142D02*
X0168861Y0105142D01*
X0168861Y0073858D01*
X0184475Y0073858D01*
X0184475Y0105142D01*
X0168975Y0105142D02*
X0153361Y0105142D01*
X0153361Y0073858D01*
X0168975Y0073858D01*
X0168975Y0105142D01*
X0147788Y0095518D02*
X0140048Y0095518D01*
X0140048Y0079982D01*
X0147788Y0079982D01*
X0147788Y0095518D01*
X0132445Y0085004D02*
X0130944Y0085004D01*
X0131694Y0085004D02*
X0131694Y0080500D01*
X0130944Y0080500D02*
X0132445Y0080500D01*
X0129376Y0081251D02*
X0128625Y0080500D01*
X0127124Y0080500D01*
X0126373Y0081251D01*
X0124772Y0081251D02*
X0124772Y0080500D01*
X0124772Y0081251D02*
X0121769Y0084253D01*
X0121769Y0085004D01*
X0124772Y0085004D01*
X0126373Y0084253D02*
X0127124Y0085004D01*
X0128625Y0085004D01*
X0129376Y0084253D01*
X0129376Y0081251D01*
X0123538Y0075268D02*
X0115798Y0075268D01*
X0115798Y0059732D01*
X0123538Y0059732D01*
X0123538Y0075268D01*
X0144798Y0058268D02*
X0144798Y0042732D01*
X0152538Y0042732D01*
X0152538Y0058268D01*
X0144798Y0058268D01*
X0158182Y0062380D02*
X0158182Y0071620D01*
X0177654Y0071620D01*
X0177654Y0062380D01*
X0158182Y0062380D01*
X0169861Y0057142D02*
X0185475Y0057142D01*
X0185475Y0025858D01*
X0169861Y0025858D01*
X0169861Y0057142D01*
X0185611Y0057142D02*
X0201225Y0057142D01*
X0201225Y0025858D01*
X0185611Y0025858D01*
X0185611Y0057142D01*
X0167154Y0033370D02*
X0147682Y0033370D01*
X0147682Y0024130D01*
X0167154Y0024130D01*
X0167154Y0033370D01*
X0139757Y0042986D02*
X0139757Y0023514D01*
X0127079Y0023514D01*
X0127079Y0042986D01*
X0139757Y0042986D01*
X0127038Y0043049D02*
X0120298Y0043049D01*
X0120298Y0030451D01*
X0127038Y0030451D01*
X0127038Y0043049D01*
X0113936Y0043870D02*
X0113936Y0036130D01*
X0098400Y0036130D01*
X0098400Y0043870D01*
X0113936Y0043870D01*
X0070538Y0051264D02*
X0061298Y0051264D01*
X0061298Y0070736D01*
X0070538Y0070736D01*
X0070538Y0051264D01*
X0063729Y0120750D02*
X0062228Y0120750D01*
X0061477Y0121501D01*
X0059876Y0121501D02*
X0059125Y0120750D01*
X0057624Y0120750D01*
X0056873Y0121501D01*
X0056873Y0122251D01*
X0057624Y0123002D01*
X0059876Y0123002D01*
X0059876Y0121501D01*
X0059876Y0123002D02*
X0058375Y0124503D01*
X0056873Y0125254D01*
X0055272Y0124503D02*
X0054521Y0125254D01*
X0053020Y0125254D01*
X0052269Y0124503D01*
X0052269Y0123753D01*
X0055272Y0120750D01*
X0052269Y0120750D01*
X0046918Y0121000D02*
X0046918Y0125504D01*
X0044666Y0125504D01*
X0043915Y0124753D01*
X0043915Y0123252D01*
X0044666Y0122501D01*
X0046918Y0122501D01*
X0045417Y0122501D02*
X0043915Y0121000D01*
X0042314Y0121751D02*
X0041563Y0121000D01*
X0040062Y0121000D01*
X0039311Y0121751D01*
X0039311Y0122501D01*
X0040062Y0123252D01*
X0042314Y0123252D01*
X0042314Y0121751D01*
X0042314Y0123252D02*
X0040813Y0124753D01*
X0039311Y0125504D01*
X0037710Y0124753D02*
X0036959Y0125504D01*
X0035458Y0125504D01*
X0034708Y0124753D01*
X0034708Y0124003D01*
X0037710Y0121000D01*
X0034708Y0121000D01*
X0034579Y0126514D02*
X0047257Y0126514D01*
X0047257Y0145986D01*
X0034579Y0145986D01*
X0034579Y0126514D01*
X0053548Y0126514D02*
X0062788Y0126514D01*
X0062788Y0145986D01*
X0053548Y0145986D01*
X0053548Y0126514D01*
X0061477Y0124503D02*
X0062228Y0125254D01*
X0063729Y0125254D01*
X0064480Y0124503D01*
X0064480Y0121501D01*
X0063729Y0120750D01*
X0066126Y0149937D02*
X0065376Y0150688D01*
X0065376Y0151438D01*
X0066126Y0152189D01*
X0068378Y0152189D01*
X0068378Y0150688D01*
X0067628Y0149937D01*
X0066126Y0149937D01*
X0068378Y0152189D02*
X0066877Y0153690D01*
X0065376Y0154441D01*
X0069980Y0153690D02*
X0069980Y0150688D01*
X0070730Y0149937D01*
X0072982Y0149937D01*
X0072982Y0154441D01*
X0070730Y0154441D01*
X0069980Y0153690D01*
X0074584Y0153690D02*
X0077586Y0150688D01*
X0077586Y0149937D01*
X0074584Y0149937D01*
X0074584Y0153690D02*
X0074584Y0154441D01*
X0077586Y0154441D01*
X0055154Y0170130D02*
X0055154Y0179370D01*
X0035682Y0179370D01*
X0035682Y0170130D01*
X0055154Y0170130D01*
X0057020Y0173000D02*
X0056269Y0173751D01*
X0056269Y0176753D01*
X0059272Y0173751D01*
X0058521Y0173000D01*
X0057020Y0173000D01*
X0059272Y0173751D02*
X0059272Y0176753D01*
X0058521Y0177504D01*
X0057020Y0177504D01*
X0056269Y0176753D01*
X0060873Y0177504D02*
X0062375Y0176753D01*
X0063876Y0175252D01*
X0061624Y0175252D01*
X0060873Y0174501D01*
X0060873Y0173751D01*
X0061624Y0173000D01*
X0063125Y0173000D01*
X0063876Y0173751D01*
X0063876Y0175252D01*
X0065477Y0176753D02*
X0066228Y0177504D01*
X0067729Y0177504D01*
X0068480Y0176753D01*
X0068480Y0173751D01*
X0067729Y0173000D01*
X0066228Y0173000D01*
X0065477Y0173751D01*
X0051186Y0179380D02*
X0051186Y0187120D01*
X0035650Y0187120D01*
X0035650Y0179380D01*
X0051186Y0179380D01*
X0078400Y0210130D02*
X0078400Y0217870D01*
X0093936Y0217870D01*
X0093936Y0210130D01*
X0078400Y0210130D01*
X0077288Y0216264D02*
X0068548Y0216264D01*
X0068548Y0235736D01*
X0077288Y0235736D01*
X0077288Y0216264D01*
X0093900Y0217870D02*
X0093900Y0210130D01*
X0109436Y0210130D01*
X0109436Y0217870D01*
X0093900Y0217870D01*
X0110048Y0219701D02*
X0116788Y0219701D01*
X0116788Y0232299D01*
X0110048Y0232299D01*
X0110048Y0219701D01*
X0074168Y0237500D02*
X0071668Y0237500D01*
X0072918Y0238750D02*
X0072918Y0236250D01*
X0062788Y0266982D02*
X0055048Y0266982D01*
X0055048Y0282518D01*
X0062788Y0282518D01*
X0062788Y0266982D01*
X0064619Y0311880D02*
X0064619Y0318620D01*
X0077217Y0318620D01*
X0077217Y0311880D01*
X0064619Y0311880D01*
X0094150Y0332380D02*
X0094150Y0340120D01*
X0109686Y0340120D01*
X0109686Y0332380D01*
X0094150Y0332380D01*
X0109668Y0326076D02*
X0109668Y0323073D01*
X0109668Y0324574D02*
X0114172Y0324574D01*
X0112671Y0323073D01*
X0113421Y0321472D02*
X0114172Y0320721D01*
X0114172Y0319220D01*
X0113421Y0318469D01*
X0110419Y0318469D01*
X0109668Y0319220D01*
X0109668Y0320721D01*
X0110419Y0321472D01*
X0109668Y0316901D02*
X0109668Y0315400D01*
X0109668Y0316151D02*
X0114172Y0316151D01*
X0114172Y0316901D02*
X0114172Y0315400D01*
X0169150Y0254120D02*
X0169150Y0246380D01*
X0184686Y0246380D01*
X0184686Y0254120D01*
X0169150Y0254120D01*
X0168900Y0238120D02*
X0168900Y0230380D01*
X0184436Y0230380D01*
X0184436Y0238120D01*
X0168900Y0238120D01*
X0228418Y0265700D02*
X0228418Y0267201D01*
X0228418Y0266451D02*
X0232922Y0266451D01*
X0232922Y0267201D02*
X0232922Y0265700D01*
X0232171Y0268769D02*
X0229169Y0268769D01*
X0228418Y0269520D01*
X0228418Y0271021D01*
X0229169Y0271772D01*
X0229169Y0273373D02*
X0228418Y0274124D01*
X0228418Y0275625D01*
X0229169Y0276376D01*
X0229919Y0276376D01*
X0230670Y0275625D01*
X0230670Y0274874D01*
X0230670Y0275625D02*
X0231421Y0276376D01*
X0232171Y0276376D01*
X0232922Y0275625D01*
X0232922Y0274124D01*
X0232171Y0273373D01*
X0232171Y0271772D02*
X0232922Y0271021D01*
X0232922Y0269520D01*
X0232171Y0268769D01*
X0240150Y0250620D02*
X0240150Y0242880D01*
X0255686Y0242880D01*
X0255686Y0250620D01*
X0240150Y0250620D01*
X0240298Y0242768D02*
X0248038Y0242768D01*
X0248038Y0227232D01*
X0240298Y0227232D01*
X0240298Y0242768D01*
X0248048Y0242768D02*
X0248048Y0227232D01*
X0255788Y0227232D01*
X0255788Y0242768D01*
X0248048Y0242768D01*
X0255798Y0235232D02*
X0263538Y0235232D01*
X0263538Y0250768D01*
X0255798Y0250768D01*
X0255798Y0235232D01*
X0263650Y0245130D02*
X0263650Y0252870D01*
X0279186Y0252870D01*
X0279186Y0245130D01*
X0263650Y0245130D01*
X0263650Y0252880D02*
X0279186Y0252880D01*
X0279186Y0260620D01*
X0263650Y0260620D01*
X0263650Y0252880D01*
X0263650Y0260630D02*
X0263650Y0268370D01*
X0279186Y0268370D01*
X0279186Y0260630D01*
X0263650Y0260630D01*
X0265369Y0268380D02*
X0265369Y0275120D01*
X0277967Y0275120D01*
X0277967Y0268380D01*
X0265369Y0268380D01*
X0284150Y0228620D02*
X0284150Y0220880D01*
X0299686Y0220880D01*
X0299686Y0228620D01*
X0284150Y0228620D01*
X0299708Y0215003D02*
X0300458Y0215754D01*
X0301959Y0215754D01*
X0302710Y0215003D01*
X0301209Y0213502D02*
X0300458Y0213502D01*
X0299708Y0212751D01*
X0299708Y0212001D01*
X0300458Y0211250D01*
X0301959Y0211250D01*
X0302710Y0212001D01*
X0304311Y0213502D02*
X0307314Y0213502D01*
X0305062Y0215754D01*
X0305062Y0211250D01*
X0308915Y0211250D02*
X0310417Y0212751D01*
X0309666Y0212751D02*
X0311918Y0212751D01*
X0311918Y0211250D02*
X0311918Y0215754D01*
X0309666Y0215754D01*
X0308915Y0215003D01*
X0308915Y0213502D01*
X0309666Y0212751D01*
X0314361Y0209892D02*
X0314361Y0178608D01*
X0329975Y0178608D01*
X0329975Y0209892D01*
X0314361Y0209892D01*
X0314475Y0209892D02*
X0298861Y0209892D01*
X0298861Y0178608D01*
X0314475Y0178608D01*
X0314475Y0209892D01*
X0316769Y0211000D02*
X0319772Y0211000D01*
X0316769Y0214003D01*
X0316769Y0214753D01*
X0317520Y0215504D01*
X0319021Y0215504D01*
X0319772Y0214753D01*
X0321373Y0213252D02*
X0324376Y0213252D01*
X0322124Y0215504D01*
X0322124Y0211000D01*
X0325977Y0211000D02*
X0327478Y0212501D01*
X0326728Y0212501D02*
X0328980Y0212501D01*
X0328980Y0211000D02*
X0328980Y0215504D01*
X0326728Y0215504D01*
X0325977Y0214753D01*
X0325977Y0213252D01*
X0326728Y0212501D01*
X0300458Y0213502D02*
X0299708Y0214253D01*
X0299708Y0215003D01*
X0255686Y0206620D02*
X0255686Y0198880D01*
X0240150Y0198880D01*
X0240150Y0206620D01*
X0255686Y0206620D01*
X0255686Y0198870D02*
X0255686Y0191130D01*
X0240150Y0191130D01*
X0240150Y0198870D01*
X0255686Y0198870D01*
X0239668Y0186750D02*
X0237168Y0186750D01*
X0238418Y0188000D02*
X0238418Y0185500D01*
X0302269Y0160503D02*
X0302269Y0159753D01*
X0303020Y0159002D01*
X0304521Y0159002D01*
X0305272Y0159753D01*
X0305272Y0160503D01*
X0304521Y0161254D01*
X0303020Y0161254D01*
X0302269Y0160503D01*
X0303020Y0159002D02*
X0302269Y0158251D01*
X0302269Y0157501D01*
X0303020Y0156750D01*
X0304521Y0156750D01*
X0305272Y0157501D01*
X0305272Y0158251D01*
X0304521Y0159002D01*
X0306873Y0156750D02*
X0309876Y0156750D01*
X0308375Y0156750D02*
X0308375Y0161254D01*
X0309876Y0159753D01*
X0311477Y0160503D02*
X0312228Y0161254D01*
X0314480Y0161254D01*
X0314480Y0156750D01*
X0312228Y0156750D01*
X0311477Y0157501D01*
X0311477Y0160503D01*
X0340769Y0161754D02*
X0342271Y0161003D01*
X0343772Y0159502D01*
X0341520Y0159502D01*
X0340769Y0158751D01*
X0340769Y0158001D01*
X0341520Y0157250D01*
X0343021Y0157250D01*
X0343772Y0158001D01*
X0343772Y0159502D01*
X0345373Y0159502D02*
X0348376Y0159502D01*
X0346124Y0161754D01*
X0346124Y0157250D01*
X0349977Y0158001D02*
X0350728Y0157250D01*
X0352229Y0157250D01*
X0352980Y0158001D01*
X0352980Y0161003D01*
X0352229Y0161754D01*
X0350728Y0161754D01*
X0349977Y0161003D01*
X0610434Y0233135D02*
X0611935Y0231634D01*
X0613436Y0231634D01*
X0614938Y0233135D01*
X0614187Y0234703D02*
X0614938Y0235454D01*
X0614938Y0236955D01*
X0614187Y0237706D01*
X0611184Y0234703D01*
X0610434Y0235454D01*
X0610434Y0236955D01*
X0611184Y0237706D01*
X0614187Y0237706D01*
X0614187Y0239307D02*
X0613436Y0239307D01*
X0612686Y0240058D01*
X0612686Y0242310D01*
X0614187Y0242310D02*
X0614938Y0241559D01*
X0614938Y0240058D01*
X0614187Y0239307D01*
X0614187Y0242310D02*
X0611184Y0242310D01*
X0610434Y0241559D01*
X0610434Y0240058D01*
X0611184Y0239307D01*
X0611184Y0234703D02*
X0614187Y0234703D01*
X0617434Y0234636D02*
X0617434Y0231634D01*
X0621938Y0231634D01*
X0621938Y0234636D01*
X0621938Y0236238D02*
X0617434Y0236238D01*
X0617434Y0239240D01*
X0617434Y0240842D02*
X0617434Y0243844D01*
X0617434Y0240842D02*
X0618184Y0240842D01*
X0621187Y0243844D01*
X0621938Y0243844D01*
X0621938Y0240842D01*
X0621938Y0239240D02*
X0621938Y0236238D01*
X0619686Y0236238D02*
X0619686Y0237739D01*
X0619686Y0233135D02*
X0619686Y0231634D01*
X0610434Y0243911D02*
X0614938Y0246914D01*
X0614187Y0248515D02*
X0614938Y0249266D01*
X0614938Y0250767D01*
X0614187Y0251517D01*
X0613436Y0251517D01*
X0610434Y0248515D01*
X0610434Y0251517D01*
X0611184Y0253119D02*
X0614187Y0256121D01*
X0611184Y0256121D01*
X0610434Y0255371D01*
X0610434Y0253869D01*
X0611184Y0253119D01*
X0614187Y0253119D01*
X0614938Y0253869D01*
X0614938Y0255371D01*
X0614187Y0256121D01*
X0613436Y0257723D02*
X0614938Y0259224D01*
X0610434Y0259224D01*
X0610434Y0257723D02*
X0610434Y0260725D01*
X0611184Y0262327D02*
X0611935Y0262327D01*
X0612686Y0263077D01*
X0612686Y0264579D01*
X0611935Y0265329D01*
X0611184Y0265329D01*
X0610434Y0264579D01*
X0610434Y0263077D01*
X0611184Y0262327D01*
X0612686Y0263077D02*
X0613436Y0262327D01*
X0614187Y0262327D01*
X0614938Y0263077D01*
X0614938Y0264579D01*
X0614187Y0265329D01*
X0613436Y0265329D01*
X0612686Y0264579D01*
X0617434Y0263861D02*
X0617434Y0266113D01*
X0618184Y0266864D01*
X0621187Y0266864D01*
X0621938Y0266113D01*
X0621938Y0263861D01*
X0617434Y0263861D01*
X0619686Y0262260D02*
X0619686Y0259257D01*
X0621938Y0257656D02*
X0621938Y0254653D01*
X0617434Y0254653D01*
X0618184Y0253052D02*
X0617434Y0252301D01*
X0617434Y0250800D01*
X0618184Y0250050D01*
X0621187Y0250050D01*
X0621938Y0250800D01*
X0621938Y0252301D01*
X0621187Y0253052D01*
X0619686Y0254653D02*
X0619686Y0256155D01*
X0621938Y0268465D02*
X0621938Y0269967D01*
X0621938Y0269216D02*
X0617434Y0269216D01*
X0617434Y0268465D02*
X0617434Y0269967D01*
X0618184Y0271535D02*
X0617434Y0272285D01*
X0617434Y0273786D01*
X0618184Y0274537D01*
X0618184Y0271535D02*
X0621187Y0271535D01*
X0621938Y0272285D01*
X0621938Y0273786D01*
X0621187Y0274537D01*
X0614938Y0276122D02*
X0614938Y0277623D01*
X0614187Y0278374D01*
X0613436Y0278374D01*
X0612686Y0277623D01*
X0611935Y0278374D01*
X0611184Y0278374D01*
X0610434Y0277623D01*
X0610434Y0276122D01*
X0611184Y0275371D01*
X0612686Y0276872D02*
X0612686Y0277623D01*
X0612686Y0279975D02*
X0612686Y0282227D01*
X0611935Y0282978D01*
X0611184Y0282978D01*
X0610434Y0282227D01*
X0610434Y0279975D01*
X0614938Y0279975D01*
X0614938Y0282227D01*
X0614187Y0282978D01*
X0613436Y0282978D01*
X0612686Y0282227D01*
X0613436Y0284579D02*
X0614187Y0284579D01*
X0614938Y0285330D01*
X0614938Y0286831D01*
X0614187Y0287582D01*
X0613436Y0287582D01*
X0612686Y0286831D01*
X0612686Y0285330D01*
X0613436Y0284579D01*
X0612686Y0285330D02*
X0611935Y0284579D01*
X0611184Y0284579D01*
X0610434Y0285330D01*
X0610434Y0286831D01*
X0611184Y0287582D01*
X0611935Y0287582D01*
X0612686Y0286831D01*
X0614938Y0289183D02*
X0613436Y0290684D01*
X0611935Y0290684D01*
X0610434Y0289183D01*
X0614938Y0276122D02*
X0614187Y0275371D01*
X0613436Y0273786D02*
X0613436Y0273036D01*
X0611935Y0271535D01*
X0610434Y0271535D02*
X0613436Y0271535D01*
D12*
X0187168Y0286500D02*
X0187170Y0286544D01*
X0187176Y0286588D01*
X0187186Y0286631D01*
X0187199Y0286673D01*
X0187216Y0286714D01*
X0187237Y0286753D01*
X0187261Y0286790D01*
X0187288Y0286825D01*
X0187318Y0286857D01*
X0187351Y0286887D01*
X0187387Y0286913D01*
X0187424Y0286937D01*
X0187464Y0286956D01*
X0187505Y0286973D01*
X0187548Y0286985D01*
X0187591Y0286994D01*
X0187635Y0286999D01*
X0187679Y0287000D01*
X0187723Y0286997D01*
X0187767Y0286990D01*
X0187810Y0286979D01*
X0187852Y0286965D01*
X0187892Y0286947D01*
X0187931Y0286925D01*
X0187967Y0286901D01*
X0188001Y0286873D01*
X0188033Y0286842D01*
X0188062Y0286808D01*
X0188088Y0286772D01*
X0188110Y0286734D01*
X0188129Y0286694D01*
X0188144Y0286652D01*
X0188156Y0286610D01*
X0188164Y0286566D01*
X0188168Y0286522D01*
X0188168Y0286478D01*
X0188164Y0286434D01*
X0188156Y0286390D01*
X0188144Y0286348D01*
X0188129Y0286306D01*
X0188110Y0286266D01*
X0188088Y0286228D01*
X0188062Y0286192D01*
X0188033Y0286158D01*
X0188001Y0286127D01*
X0187967Y0286099D01*
X0187931Y0286075D01*
X0187892Y0286053D01*
X0187852Y0286035D01*
X0187810Y0286021D01*
X0187767Y0286010D01*
X0187723Y0286003D01*
X0187679Y0286000D01*
X0187635Y0286001D01*
X0187591Y0286006D01*
X0187548Y0286015D01*
X0187505Y0286027D01*
X0187464Y0286044D01*
X0187424Y0286063D01*
X0187387Y0286087D01*
X0187351Y0286113D01*
X0187318Y0286143D01*
X0187288Y0286175D01*
X0187261Y0286210D01*
X0187237Y0286247D01*
X0187216Y0286286D01*
X0187199Y0286327D01*
X0187186Y0286369D01*
X0187176Y0286412D01*
X0187170Y0286456D01*
X0187168Y0286500D01*
X0187168Y0292500D02*
X0187170Y0292544D01*
X0187176Y0292588D01*
X0187186Y0292631D01*
X0187199Y0292673D01*
X0187216Y0292714D01*
X0187237Y0292753D01*
X0187261Y0292790D01*
X0187288Y0292825D01*
X0187318Y0292857D01*
X0187351Y0292887D01*
X0187387Y0292913D01*
X0187424Y0292937D01*
X0187464Y0292956D01*
X0187505Y0292973D01*
X0187548Y0292985D01*
X0187591Y0292994D01*
X0187635Y0292999D01*
X0187679Y0293000D01*
X0187723Y0292997D01*
X0187767Y0292990D01*
X0187810Y0292979D01*
X0187852Y0292965D01*
X0187892Y0292947D01*
X0187931Y0292925D01*
X0187967Y0292901D01*
X0188001Y0292873D01*
X0188033Y0292842D01*
X0188062Y0292808D01*
X0188088Y0292772D01*
X0188110Y0292734D01*
X0188129Y0292694D01*
X0188144Y0292652D01*
X0188156Y0292610D01*
X0188164Y0292566D01*
X0188168Y0292522D01*
X0188168Y0292478D01*
X0188164Y0292434D01*
X0188156Y0292390D01*
X0188144Y0292348D01*
X0188129Y0292306D01*
X0188110Y0292266D01*
X0188088Y0292228D01*
X0188062Y0292192D01*
X0188033Y0292158D01*
X0188001Y0292127D01*
X0187967Y0292099D01*
X0187931Y0292075D01*
X0187892Y0292053D01*
X0187852Y0292035D01*
X0187810Y0292021D01*
X0187767Y0292010D01*
X0187723Y0292003D01*
X0187679Y0292000D01*
X0187635Y0292001D01*
X0187591Y0292006D01*
X0187548Y0292015D01*
X0187505Y0292027D01*
X0187464Y0292044D01*
X0187424Y0292063D01*
X0187387Y0292087D01*
X0187351Y0292113D01*
X0187318Y0292143D01*
X0187288Y0292175D01*
X0187261Y0292210D01*
X0187237Y0292247D01*
X0187216Y0292286D01*
X0187199Y0292327D01*
X0187186Y0292369D01*
X0187176Y0292412D01*
X0187170Y0292456D01*
X0187168Y0292500D01*
X0187168Y0298500D02*
X0187170Y0298544D01*
X0187176Y0298588D01*
X0187186Y0298631D01*
X0187199Y0298673D01*
X0187216Y0298714D01*
X0187237Y0298753D01*
X0187261Y0298790D01*
X0187288Y0298825D01*
X0187318Y0298857D01*
X0187351Y0298887D01*
X0187387Y0298913D01*
X0187424Y0298937D01*
X0187464Y0298956D01*
X0187505Y0298973D01*
X0187548Y0298985D01*
X0187591Y0298994D01*
X0187635Y0298999D01*
X0187679Y0299000D01*
X0187723Y0298997D01*
X0187767Y0298990D01*
X0187810Y0298979D01*
X0187852Y0298965D01*
X0187892Y0298947D01*
X0187931Y0298925D01*
X0187967Y0298901D01*
X0188001Y0298873D01*
X0188033Y0298842D01*
X0188062Y0298808D01*
X0188088Y0298772D01*
X0188110Y0298734D01*
X0188129Y0298694D01*
X0188144Y0298652D01*
X0188156Y0298610D01*
X0188164Y0298566D01*
X0188168Y0298522D01*
X0188168Y0298478D01*
X0188164Y0298434D01*
X0188156Y0298390D01*
X0188144Y0298348D01*
X0188129Y0298306D01*
X0188110Y0298266D01*
X0188088Y0298228D01*
X0188062Y0298192D01*
X0188033Y0298158D01*
X0188001Y0298127D01*
X0187967Y0298099D01*
X0187931Y0298075D01*
X0187892Y0298053D01*
X0187852Y0298035D01*
X0187810Y0298021D01*
X0187767Y0298010D01*
X0187723Y0298003D01*
X0187679Y0298000D01*
X0187635Y0298001D01*
X0187591Y0298006D01*
X0187548Y0298015D01*
X0187505Y0298027D01*
X0187464Y0298044D01*
X0187424Y0298063D01*
X0187387Y0298087D01*
X0187351Y0298113D01*
X0187318Y0298143D01*
X0187288Y0298175D01*
X0187261Y0298210D01*
X0187237Y0298247D01*
X0187216Y0298286D01*
X0187199Y0298327D01*
X0187186Y0298369D01*
X0187176Y0298412D01*
X0187170Y0298456D01*
X0187168Y0298500D01*
X0187168Y0304500D02*
X0187170Y0304544D01*
X0187176Y0304588D01*
X0187186Y0304631D01*
X0187199Y0304673D01*
X0187216Y0304714D01*
X0187237Y0304753D01*
X0187261Y0304790D01*
X0187288Y0304825D01*
X0187318Y0304857D01*
X0187351Y0304887D01*
X0187387Y0304913D01*
X0187424Y0304937D01*
X0187464Y0304956D01*
X0187505Y0304973D01*
X0187548Y0304985D01*
X0187591Y0304994D01*
X0187635Y0304999D01*
X0187679Y0305000D01*
X0187723Y0304997D01*
X0187767Y0304990D01*
X0187810Y0304979D01*
X0187852Y0304965D01*
X0187892Y0304947D01*
X0187931Y0304925D01*
X0187967Y0304901D01*
X0188001Y0304873D01*
X0188033Y0304842D01*
X0188062Y0304808D01*
X0188088Y0304772D01*
X0188110Y0304734D01*
X0188129Y0304694D01*
X0188144Y0304652D01*
X0188156Y0304610D01*
X0188164Y0304566D01*
X0188168Y0304522D01*
X0188168Y0304478D01*
X0188164Y0304434D01*
X0188156Y0304390D01*
X0188144Y0304348D01*
X0188129Y0304306D01*
X0188110Y0304266D01*
X0188088Y0304228D01*
X0188062Y0304192D01*
X0188033Y0304158D01*
X0188001Y0304127D01*
X0187967Y0304099D01*
X0187931Y0304075D01*
X0187892Y0304053D01*
X0187852Y0304035D01*
X0187810Y0304021D01*
X0187767Y0304010D01*
X0187723Y0304003D01*
X0187679Y0304000D01*
X0187635Y0304001D01*
X0187591Y0304006D01*
X0187548Y0304015D01*
X0187505Y0304027D01*
X0187464Y0304044D01*
X0187424Y0304063D01*
X0187387Y0304087D01*
X0187351Y0304113D01*
X0187318Y0304143D01*
X0187288Y0304175D01*
X0187261Y0304210D01*
X0187237Y0304247D01*
X0187216Y0304286D01*
X0187199Y0304327D01*
X0187186Y0304369D01*
X0187176Y0304412D01*
X0187170Y0304456D01*
X0187168Y0304500D01*
X0187168Y0310500D02*
X0187170Y0310544D01*
X0187176Y0310588D01*
X0187186Y0310631D01*
X0187199Y0310673D01*
X0187216Y0310714D01*
X0187237Y0310753D01*
X0187261Y0310790D01*
X0187288Y0310825D01*
X0187318Y0310857D01*
X0187351Y0310887D01*
X0187387Y0310913D01*
X0187424Y0310937D01*
X0187464Y0310956D01*
X0187505Y0310973D01*
X0187548Y0310985D01*
X0187591Y0310994D01*
X0187635Y0310999D01*
X0187679Y0311000D01*
X0187723Y0310997D01*
X0187767Y0310990D01*
X0187810Y0310979D01*
X0187852Y0310965D01*
X0187892Y0310947D01*
X0187931Y0310925D01*
X0187967Y0310901D01*
X0188001Y0310873D01*
X0188033Y0310842D01*
X0188062Y0310808D01*
X0188088Y0310772D01*
X0188110Y0310734D01*
X0188129Y0310694D01*
X0188144Y0310652D01*
X0188156Y0310610D01*
X0188164Y0310566D01*
X0188168Y0310522D01*
X0188168Y0310478D01*
X0188164Y0310434D01*
X0188156Y0310390D01*
X0188144Y0310348D01*
X0188129Y0310306D01*
X0188110Y0310266D01*
X0188088Y0310228D01*
X0188062Y0310192D01*
X0188033Y0310158D01*
X0188001Y0310127D01*
X0187967Y0310099D01*
X0187931Y0310075D01*
X0187892Y0310053D01*
X0187852Y0310035D01*
X0187810Y0310021D01*
X0187767Y0310010D01*
X0187723Y0310003D01*
X0187679Y0310000D01*
X0187635Y0310001D01*
X0187591Y0310006D01*
X0187548Y0310015D01*
X0187505Y0310027D01*
X0187464Y0310044D01*
X0187424Y0310063D01*
X0187387Y0310087D01*
X0187351Y0310113D01*
X0187318Y0310143D01*
X0187288Y0310175D01*
X0187261Y0310210D01*
X0187237Y0310247D01*
X0187216Y0310286D01*
X0187199Y0310327D01*
X0187186Y0310369D01*
X0187176Y0310412D01*
X0187170Y0310456D01*
X0187168Y0310500D01*
X0187168Y0316500D02*
X0187170Y0316544D01*
X0187176Y0316588D01*
X0187186Y0316631D01*
X0187199Y0316673D01*
X0187216Y0316714D01*
X0187237Y0316753D01*
X0187261Y0316790D01*
X0187288Y0316825D01*
X0187318Y0316857D01*
X0187351Y0316887D01*
X0187387Y0316913D01*
X0187424Y0316937D01*
X0187464Y0316956D01*
X0187505Y0316973D01*
X0187548Y0316985D01*
X0187591Y0316994D01*
X0187635Y0316999D01*
X0187679Y0317000D01*
X0187723Y0316997D01*
X0187767Y0316990D01*
X0187810Y0316979D01*
X0187852Y0316965D01*
X0187892Y0316947D01*
X0187931Y0316925D01*
X0187967Y0316901D01*
X0188001Y0316873D01*
X0188033Y0316842D01*
X0188062Y0316808D01*
X0188088Y0316772D01*
X0188110Y0316734D01*
X0188129Y0316694D01*
X0188144Y0316652D01*
X0188156Y0316610D01*
X0188164Y0316566D01*
X0188168Y0316522D01*
X0188168Y0316478D01*
X0188164Y0316434D01*
X0188156Y0316390D01*
X0188144Y0316348D01*
X0188129Y0316306D01*
X0188110Y0316266D01*
X0188088Y0316228D01*
X0188062Y0316192D01*
X0188033Y0316158D01*
X0188001Y0316127D01*
X0187967Y0316099D01*
X0187931Y0316075D01*
X0187892Y0316053D01*
X0187852Y0316035D01*
X0187810Y0316021D01*
X0187767Y0316010D01*
X0187723Y0316003D01*
X0187679Y0316000D01*
X0187635Y0316001D01*
X0187591Y0316006D01*
X0187548Y0316015D01*
X0187505Y0316027D01*
X0187464Y0316044D01*
X0187424Y0316063D01*
X0187387Y0316087D01*
X0187351Y0316113D01*
X0187318Y0316143D01*
X0187288Y0316175D01*
X0187261Y0316210D01*
X0187237Y0316247D01*
X0187216Y0316286D01*
X0187199Y0316327D01*
X0187186Y0316369D01*
X0187176Y0316412D01*
X0187170Y0316456D01*
X0187168Y0316500D01*
X0187168Y0322500D02*
X0187170Y0322544D01*
X0187176Y0322588D01*
X0187186Y0322631D01*
X0187199Y0322673D01*
X0187216Y0322714D01*
X0187237Y0322753D01*
X0187261Y0322790D01*
X0187288Y0322825D01*
X0187318Y0322857D01*
X0187351Y0322887D01*
X0187387Y0322913D01*
X0187424Y0322937D01*
X0187464Y0322956D01*
X0187505Y0322973D01*
X0187548Y0322985D01*
X0187591Y0322994D01*
X0187635Y0322999D01*
X0187679Y0323000D01*
X0187723Y0322997D01*
X0187767Y0322990D01*
X0187810Y0322979D01*
X0187852Y0322965D01*
X0187892Y0322947D01*
X0187931Y0322925D01*
X0187967Y0322901D01*
X0188001Y0322873D01*
X0188033Y0322842D01*
X0188062Y0322808D01*
X0188088Y0322772D01*
X0188110Y0322734D01*
X0188129Y0322694D01*
X0188144Y0322652D01*
X0188156Y0322610D01*
X0188164Y0322566D01*
X0188168Y0322522D01*
X0188168Y0322478D01*
X0188164Y0322434D01*
X0188156Y0322390D01*
X0188144Y0322348D01*
X0188129Y0322306D01*
X0188110Y0322266D01*
X0188088Y0322228D01*
X0188062Y0322192D01*
X0188033Y0322158D01*
X0188001Y0322127D01*
X0187967Y0322099D01*
X0187931Y0322075D01*
X0187892Y0322053D01*
X0187852Y0322035D01*
X0187810Y0322021D01*
X0187767Y0322010D01*
X0187723Y0322003D01*
X0187679Y0322000D01*
X0187635Y0322001D01*
X0187591Y0322006D01*
X0187548Y0322015D01*
X0187505Y0322027D01*
X0187464Y0322044D01*
X0187424Y0322063D01*
X0187387Y0322087D01*
X0187351Y0322113D01*
X0187318Y0322143D01*
X0187288Y0322175D01*
X0187261Y0322210D01*
X0187237Y0322247D01*
X0187216Y0322286D01*
X0187199Y0322327D01*
X0187186Y0322369D01*
X0187176Y0322412D01*
X0187170Y0322456D01*
X0187168Y0322500D01*
X0187168Y0328500D02*
X0187170Y0328544D01*
X0187176Y0328588D01*
X0187186Y0328631D01*
X0187199Y0328673D01*
X0187216Y0328714D01*
X0187237Y0328753D01*
X0187261Y0328790D01*
X0187288Y0328825D01*
X0187318Y0328857D01*
X0187351Y0328887D01*
X0187387Y0328913D01*
X0187424Y0328937D01*
X0187464Y0328956D01*
X0187505Y0328973D01*
X0187548Y0328985D01*
X0187591Y0328994D01*
X0187635Y0328999D01*
X0187679Y0329000D01*
X0187723Y0328997D01*
X0187767Y0328990D01*
X0187810Y0328979D01*
X0187852Y0328965D01*
X0187892Y0328947D01*
X0187931Y0328925D01*
X0187967Y0328901D01*
X0188001Y0328873D01*
X0188033Y0328842D01*
X0188062Y0328808D01*
X0188088Y0328772D01*
X0188110Y0328734D01*
X0188129Y0328694D01*
X0188144Y0328652D01*
X0188156Y0328610D01*
X0188164Y0328566D01*
X0188168Y0328522D01*
X0188168Y0328478D01*
X0188164Y0328434D01*
X0188156Y0328390D01*
X0188144Y0328348D01*
X0188129Y0328306D01*
X0188110Y0328266D01*
X0188088Y0328228D01*
X0188062Y0328192D01*
X0188033Y0328158D01*
X0188001Y0328127D01*
X0187967Y0328099D01*
X0187931Y0328075D01*
X0187892Y0328053D01*
X0187852Y0328035D01*
X0187810Y0328021D01*
X0187767Y0328010D01*
X0187723Y0328003D01*
X0187679Y0328000D01*
X0187635Y0328001D01*
X0187591Y0328006D01*
X0187548Y0328015D01*
X0187505Y0328027D01*
X0187464Y0328044D01*
X0187424Y0328063D01*
X0187387Y0328087D01*
X0187351Y0328113D01*
X0187318Y0328143D01*
X0187288Y0328175D01*
X0187261Y0328210D01*
X0187237Y0328247D01*
X0187216Y0328286D01*
X0187199Y0328327D01*
X0187186Y0328369D01*
X0187176Y0328412D01*
X0187170Y0328456D01*
X0187168Y0328500D01*
X0052402Y0155006D02*
X0048268Y0152250D01*
X0052402Y0149297D01*
X0052402Y0155006D01*
D13*
X0124618Y0172100D02*
X0124618Y0175600D01*
X0124618Y0172100D02*
X0127818Y0172100D01*
X0130218Y0176400D02*
X0130218Y0179600D01*
X0124618Y0180400D02*
X0124618Y0183900D01*
X0126218Y0183900D01*
X0127818Y0183900D01*
X0127518Y0182700D02*
X0127450Y0182696D01*
X0127381Y0182697D01*
X0127313Y0182701D01*
X0127245Y0182709D01*
X0127177Y0182720D01*
X0127110Y0182736D01*
X0127044Y0182756D01*
X0126980Y0182779D01*
X0126917Y0182806D01*
X0126855Y0182836D01*
X0126796Y0182870D01*
X0126738Y0182907D01*
X0126683Y0182948D01*
X0126630Y0182991D01*
X0126579Y0183038D01*
X0126532Y0183087D01*
X0126487Y0183139D01*
X0126445Y0183194D01*
X0126406Y0183250D01*
X0126371Y0183309D01*
X0126339Y0183370D01*
X0126311Y0183432D01*
X0126286Y0183497D01*
X0126265Y0183562D01*
X0126248Y0183628D01*
X0126235Y0183696D01*
X0126225Y0183763D01*
X0126220Y0183832D01*
X0126218Y0183900D01*
X0097071Y0222464D02*
X0095168Y0222464D01*
X0095168Y0221866D02*
X0096293Y0221866D01*
X0095515Y0221267D02*
X0095168Y0221267D01*
X0095168Y0221000D02*
X0098418Y0223500D01*
X0095168Y0225750D01*
X0095168Y0221000D01*
X0095168Y0223063D02*
X0097849Y0223063D01*
X0098185Y0223661D02*
X0095168Y0223661D01*
X0095168Y0224260D02*
X0097321Y0224260D01*
X0096456Y0224858D02*
X0095168Y0224858D01*
X0095168Y0225457D02*
X0095592Y0225457D01*
X0094718Y0228950D02*
X0094720Y0229019D01*
X0094726Y0229087D01*
X0094736Y0229155D01*
X0094749Y0229222D01*
X0094767Y0229288D01*
X0094788Y0229353D01*
X0094813Y0229417D01*
X0094841Y0229479D01*
X0094873Y0229540D01*
X0094908Y0229599D01*
X0094947Y0229655D01*
X0094989Y0229710D01*
X0095034Y0229761D01*
X0095082Y0229811D01*
X0095132Y0229857D01*
X0095185Y0229900D01*
X0095241Y0229941D01*
X0095298Y0229978D01*
X0095358Y0230011D01*
X0095420Y0230042D01*
X0095483Y0230068D01*
X0095547Y0230091D01*
X0095613Y0230111D01*
X0095680Y0230126D01*
X0095747Y0230138D01*
X0095815Y0230146D01*
X0095884Y0230150D01*
X0095952Y0230150D01*
X0096021Y0230146D01*
X0096089Y0230138D01*
X0096156Y0230126D01*
X0096223Y0230111D01*
X0096289Y0230091D01*
X0096353Y0230068D01*
X0096416Y0230042D01*
X0096478Y0230011D01*
X0096538Y0229978D01*
X0096595Y0229941D01*
X0096651Y0229900D01*
X0096704Y0229857D01*
X0096754Y0229811D01*
X0096802Y0229761D01*
X0096847Y0229710D01*
X0096889Y0229655D01*
X0096928Y0229599D01*
X0096963Y0229540D01*
X0096995Y0229479D01*
X0097023Y0229417D01*
X0097048Y0229353D01*
X0097069Y0229288D01*
X0097087Y0229222D01*
X0097100Y0229155D01*
X0097110Y0229087D01*
X0097116Y0229019D01*
X0097118Y0228950D01*
X0101318Y0228950D01*
X0097118Y0228950D02*
X0097116Y0229019D01*
X0097110Y0229087D01*
X0097100Y0229155D01*
X0097087Y0229222D01*
X0097069Y0229288D01*
X0097048Y0229353D01*
X0097023Y0229417D01*
X0096995Y0229479D01*
X0096963Y0229540D01*
X0096928Y0229599D01*
X0096889Y0229655D01*
X0096847Y0229710D01*
X0096802Y0229761D01*
X0096754Y0229811D01*
X0096704Y0229857D01*
X0096651Y0229900D01*
X0096595Y0229941D01*
X0096538Y0229978D01*
X0096478Y0230011D01*
X0096416Y0230042D01*
X0096353Y0230068D01*
X0096289Y0230091D01*
X0096223Y0230111D01*
X0096156Y0230126D01*
X0096089Y0230138D01*
X0096021Y0230146D01*
X0095952Y0230150D01*
X0095884Y0230150D01*
X0095815Y0230146D01*
X0095747Y0230138D01*
X0095680Y0230126D01*
X0095613Y0230111D01*
X0095547Y0230091D01*
X0095483Y0230068D01*
X0095420Y0230042D01*
X0095358Y0230011D01*
X0095298Y0229978D01*
X0095241Y0229941D01*
X0095185Y0229900D01*
X0095132Y0229857D01*
X0095082Y0229811D01*
X0095034Y0229761D01*
X0094989Y0229710D01*
X0094947Y0229655D01*
X0094908Y0229599D01*
X0094873Y0229540D01*
X0094841Y0229479D01*
X0094813Y0229417D01*
X0094788Y0229353D01*
X0094767Y0229288D01*
X0094749Y0229222D01*
X0094736Y0229155D01*
X0094726Y0229087D01*
X0094720Y0229019D01*
X0094718Y0228950D01*
X0090518Y0228950D01*
X0091418Y0231250D02*
X0094918Y0233750D01*
X0094918Y0231250D01*
X0091418Y0231250D01*
X0091686Y0231442D02*
X0094918Y0231442D01*
X0094918Y0232040D02*
X0092524Y0232040D01*
X0093362Y0232639D02*
X0094918Y0232639D01*
X0094918Y0233237D02*
X0094200Y0233237D01*
X0090518Y0248550D02*
X0101318Y0248550D01*
X0066668Y0221500D02*
X0064168Y0224750D01*
X0061918Y0221500D01*
X0066668Y0221500D01*
X0066387Y0221866D02*
X0062171Y0221866D01*
X0062585Y0222464D02*
X0065926Y0222464D01*
X0065466Y0223063D02*
X0063000Y0223063D01*
X0063414Y0223661D02*
X0065006Y0223661D01*
X0064545Y0224260D02*
X0063828Y0224260D01*
X0175918Y0240750D02*
X0178168Y0242250D01*
X0175918Y0243750D01*
X0175918Y0240750D01*
X0175918Y0241018D02*
X0176320Y0241018D01*
X0175918Y0241616D02*
X0177218Y0241616D01*
X0178115Y0242215D02*
X0175918Y0242215D01*
X0175918Y0242813D02*
X0177323Y0242813D01*
X0176425Y0243412D02*
X0175918Y0243412D01*
X0196468Y0239000D02*
X0209368Y0239000D01*
X0201668Y0234500D02*
X0198168Y0232000D01*
X0201668Y0232000D01*
X0201668Y0234500D01*
X0201668Y0234434D02*
X0201576Y0234434D01*
X0201668Y0233836D02*
X0200738Y0233836D01*
X0199900Y0233237D02*
X0201668Y0233237D01*
X0201668Y0232639D02*
X0199062Y0232639D01*
X0198224Y0232040D02*
X0201668Y0232040D01*
X0201718Y0230000D02*
X0196468Y0230000D01*
X0201718Y0230000D02*
X0201720Y0230069D01*
X0201726Y0230137D01*
X0201736Y0230205D01*
X0201749Y0230272D01*
X0201767Y0230338D01*
X0201788Y0230403D01*
X0201813Y0230467D01*
X0201841Y0230529D01*
X0201873Y0230590D01*
X0201908Y0230649D01*
X0201947Y0230705D01*
X0201989Y0230760D01*
X0202034Y0230811D01*
X0202082Y0230861D01*
X0202132Y0230907D01*
X0202185Y0230950D01*
X0202241Y0230991D01*
X0202298Y0231028D01*
X0202358Y0231061D01*
X0202420Y0231092D01*
X0202483Y0231118D01*
X0202547Y0231141D01*
X0202613Y0231161D01*
X0202680Y0231176D01*
X0202747Y0231188D01*
X0202815Y0231196D01*
X0202884Y0231200D01*
X0202952Y0231200D01*
X0203021Y0231196D01*
X0203089Y0231188D01*
X0203156Y0231176D01*
X0203223Y0231161D01*
X0203289Y0231141D01*
X0203353Y0231118D01*
X0203416Y0231092D01*
X0203478Y0231061D01*
X0203538Y0231028D01*
X0203595Y0230991D01*
X0203651Y0230950D01*
X0203704Y0230907D01*
X0203754Y0230861D01*
X0203802Y0230811D01*
X0203847Y0230760D01*
X0203889Y0230705D01*
X0203928Y0230649D01*
X0203963Y0230590D01*
X0203995Y0230529D01*
X0204023Y0230467D01*
X0204048Y0230403D01*
X0204069Y0230338D01*
X0204087Y0230272D01*
X0204100Y0230205D01*
X0204110Y0230137D01*
X0204116Y0230069D01*
X0204118Y0230000D01*
X0209368Y0230000D01*
X0206036Y0204300D02*
X0199868Y0204300D01*
X0199866Y0204231D01*
X0199860Y0204163D01*
X0199850Y0204095D01*
X0199837Y0204028D01*
X0199819Y0203962D01*
X0199798Y0203897D01*
X0199773Y0203833D01*
X0199745Y0203771D01*
X0199713Y0203710D01*
X0199678Y0203651D01*
X0199639Y0203595D01*
X0199597Y0203540D01*
X0199552Y0203489D01*
X0199504Y0203439D01*
X0199454Y0203393D01*
X0199401Y0203350D01*
X0199345Y0203309D01*
X0199288Y0203272D01*
X0199228Y0203239D01*
X0199166Y0203208D01*
X0199103Y0203182D01*
X0199039Y0203159D01*
X0198973Y0203139D01*
X0198906Y0203124D01*
X0198839Y0203112D01*
X0198771Y0203104D01*
X0198702Y0203100D01*
X0198634Y0203100D01*
X0198565Y0203104D01*
X0198497Y0203112D01*
X0198430Y0203124D01*
X0198363Y0203139D01*
X0198297Y0203159D01*
X0198233Y0203182D01*
X0198170Y0203208D01*
X0198108Y0203239D01*
X0198048Y0203272D01*
X0197991Y0203309D01*
X0197935Y0203350D01*
X0197882Y0203393D01*
X0197832Y0203439D01*
X0197784Y0203489D01*
X0197739Y0203540D01*
X0197697Y0203595D01*
X0197658Y0203651D01*
X0197623Y0203710D01*
X0197591Y0203771D01*
X0197563Y0203833D01*
X0197538Y0203897D01*
X0197517Y0203962D01*
X0197499Y0204028D01*
X0197486Y0204095D01*
X0197476Y0204163D01*
X0197470Y0204231D01*
X0197468Y0204300D01*
X0191299Y0204300D01*
X0201418Y0201750D02*
X0201418Y0199250D01*
X0204918Y0201750D01*
X0201418Y0201750D01*
X0201418Y0201516D02*
X0204591Y0201516D01*
X0203753Y0200918D02*
X0201418Y0200918D01*
X0201418Y0200319D02*
X0202915Y0200319D01*
X0202077Y0199721D02*
X0201418Y0199721D01*
X0206036Y0184700D02*
X0191299Y0184700D01*
X0194299Y0166550D02*
X0200468Y0166550D01*
X0200470Y0166481D01*
X0200476Y0166413D01*
X0200486Y0166345D01*
X0200499Y0166278D01*
X0200517Y0166212D01*
X0200538Y0166147D01*
X0200563Y0166083D01*
X0200591Y0166021D01*
X0200623Y0165960D01*
X0200658Y0165901D01*
X0200697Y0165845D01*
X0200739Y0165790D01*
X0200784Y0165739D01*
X0200832Y0165689D01*
X0200882Y0165643D01*
X0200935Y0165600D01*
X0200991Y0165559D01*
X0201048Y0165522D01*
X0201108Y0165489D01*
X0201170Y0165458D01*
X0201233Y0165432D01*
X0201297Y0165409D01*
X0201363Y0165389D01*
X0201430Y0165374D01*
X0201497Y0165362D01*
X0201565Y0165354D01*
X0201634Y0165350D01*
X0201702Y0165350D01*
X0201771Y0165354D01*
X0201839Y0165362D01*
X0201906Y0165374D01*
X0201973Y0165389D01*
X0202039Y0165409D01*
X0202103Y0165432D01*
X0202166Y0165458D01*
X0202228Y0165489D01*
X0202288Y0165522D01*
X0202345Y0165559D01*
X0202401Y0165600D01*
X0202454Y0165643D01*
X0202504Y0165689D01*
X0202552Y0165739D01*
X0202597Y0165790D01*
X0202639Y0165845D01*
X0202678Y0165901D01*
X0202713Y0165960D01*
X0202745Y0166021D01*
X0202773Y0166083D01*
X0202798Y0166147D01*
X0202819Y0166212D01*
X0202837Y0166278D01*
X0202850Y0166345D01*
X0202860Y0166413D01*
X0202866Y0166481D01*
X0202868Y0166550D01*
X0209036Y0166550D01*
X0207918Y0164000D02*
X0204418Y0161500D01*
X0204418Y0164000D01*
X0207918Y0164000D01*
X0207652Y0163810D02*
X0204418Y0163810D01*
X0204418Y0163211D02*
X0206814Y0163211D01*
X0205976Y0162613D02*
X0204418Y0162613D01*
X0204418Y0162014D02*
X0205138Y0162014D01*
X0209036Y0146950D02*
X0194299Y0146950D01*
X0259718Y0172250D02*
X0264968Y0172250D01*
X0264970Y0172319D01*
X0264976Y0172387D01*
X0264986Y0172455D01*
X0264999Y0172522D01*
X0265017Y0172588D01*
X0265038Y0172653D01*
X0265063Y0172717D01*
X0265091Y0172779D01*
X0265123Y0172840D01*
X0265158Y0172899D01*
X0265197Y0172955D01*
X0265239Y0173010D01*
X0265284Y0173061D01*
X0265332Y0173111D01*
X0265382Y0173157D01*
X0265435Y0173200D01*
X0265491Y0173241D01*
X0265548Y0173278D01*
X0265608Y0173311D01*
X0265670Y0173342D01*
X0265733Y0173368D01*
X0265797Y0173391D01*
X0265863Y0173411D01*
X0265930Y0173426D01*
X0265997Y0173438D01*
X0266065Y0173446D01*
X0266134Y0173450D01*
X0266202Y0173450D01*
X0266271Y0173446D01*
X0266339Y0173438D01*
X0266406Y0173426D01*
X0266473Y0173411D01*
X0266539Y0173391D01*
X0266603Y0173368D01*
X0266666Y0173342D01*
X0266728Y0173311D01*
X0266788Y0173278D01*
X0266845Y0173241D01*
X0266901Y0173200D01*
X0266954Y0173157D01*
X0267004Y0173111D01*
X0267052Y0173061D01*
X0267097Y0173010D01*
X0267139Y0172955D01*
X0267178Y0172899D01*
X0267213Y0172840D01*
X0267245Y0172779D01*
X0267273Y0172717D01*
X0267298Y0172653D01*
X0267319Y0172588D01*
X0267337Y0172522D01*
X0267350Y0172455D01*
X0267360Y0172387D01*
X0267366Y0172319D01*
X0267368Y0172250D01*
X0272618Y0172250D01*
X0264918Y0174250D02*
X0264918Y0176750D01*
X0261418Y0174250D01*
X0264918Y0174250D01*
X0264918Y0174583D02*
X0261884Y0174583D01*
X0262722Y0175182D02*
X0264918Y0175182D01*
X0264918Y0175780D02*
X0263560Y0175780D01*
X0264398Y0176379D02*
X0264918Y0176379D01*
X0259718Y0181250D02*
X0272618Y0181250D01*
X0272215Y0232313D02*
X0272215Y0240187D01*
X0275168Y0237000D02*
X0276668Y0234750D01*
X0273668Y0234750D01*
X0275168Y0237000D01*
X0275054Y0236828D02*
X0275282Y0236828D01*
X0275681Y0236230D02*
X0274655Y0236230D01*
X0274256Y0235631D02*
X0276080Y0235631D01*
X0276479Y0235033D02*
X0273857Y0235033D01*
X0278121Y0232313D02*
X0278121Y0240187D01*
X0254868Y0253000D02*
X0254868Y0292000D01*
X0249618Y0292000D01*
X0249616Y0291931D01*
X0249610Y0291863D01*
X0249600Y0291795D01*
X0249587Y0291728D01*
X0249569Y0291662D01*
X0249548Y0291597D01*
X0249523Y0291533D01*
X0249495Y0291471D01*
X0249463Y0291410D01*
X0249428Y0291351D01*
X0249389Y0291295D01*
X0249347Y0291240D01*
X0249302Y0291189D01*
X0249254Y0291139D01*
X0249204Y0291093D01*
X0249151Y0291050D01*
X0249095Y0291009D01*
X0249038Y0290972D01*
X0248978Y0290939D01*
X0248916Y0290908D01*
X0248853Y0290882D01*
X0248789Y0290859D01*
X0248723Y0290839D01*
X0248656Y0290824D01*
X0248589Y0290812D01*
X0248521Y0290804D01*
X0248452Y0290800D01*
X0248384Y0290800D01*
X0248315Y0290804D01*
X0248247Y0290812D01*
X0248180Y0290824D01*
X0248113Y0290839D01*
X0248047Y0290859D01*
X0247983Y0290882D01*
X0247920Y0290908D01*
X0247858Y0290939D01*
X0247798Y0290972D01*
X0247741Y0291009D01*
X0247685Y0291050D01*
X0247632Y0291093D01*
X0247582Y0291139D01*
X0247534Y0291189D01*
X0247489Y0291240D01*
X0247447Y0291295D01*
X0247408Y0291351D01*
X0247373Y0291410D01*
X0247341Y0291471D01*
X0247313Y0291533D01*
X0247288Y0291597D01*
X0247267Y0291662D01*
X0247249Y0291728D01*
X0247236Y0291795D01*
X0247226Y0291863D01*
X0247220Y0291931D01*
X0247218Y0292000D01*
X0241968Y0292000D01*
X0241968Y0253000D01*
X0254868Y0253000D01*
X0250168Y0287500D02*
X0253668Y0290000D01*
X0250168Y0290000D01*
X0250168Y0287500D01*
X0250168Y0287702D02*
X0250451Y0287702D01*
X0250168Y0288300D02*
X0251288Y0288300D01*
X0252126Y0288899D02*
X0250168Y0288899D01*
X0250168Y0289497D02*
X0252964Y0289497D01*
X0190668Y0283500D02*
X0190668Y0331750D01*
X0184668Y0331750D01*
X0184668Y0283500D01*
X0190668Y0283500D01*
X0101536Y0311450D02*
X0095368Y0311450D01*
X0095366Y0311519D01*
X0095360Y0311587D01*
X0095350Y0311655D01*
X0095337Y0311722D01*
X0095319Y0311788D01*
X0095298Y0311853D01*
X0095273Y0311917D01*
X0095245Y0311979D01*
X0095213Y0312040D01*
X0095178Y0312099D01*
X0095139Y0312155D01*
X0095097Y0312210D01*
X0095052Y0312261D01*
X0095004Y0312311D01*
X0094954Y0312357D01*
X0094901Y0312400D01*
X0094845Y0312441D01*
X0094788Y0312478D01*
X0094728Y0312511D01*
X0094666Y0312542D01*
X0094603Y0312568D01*
X0094539Y0312591D01*
X0094473Y0312611D01*
X0094406Y0312626D01*
X0094339Y0312638D01*
X0094271Y0312646D01*
X0094202Y0312650D01*
X0094134Y0312650D01*
X0094065Y0312646D01*
X0093997Y0312638D01*
X0093930Y0312626D01*
X0093863Y0312611D01*
X0093797Y0312591D01*
X0093733Y0312568D01*
X0093670Y0312542D01*
X0093608Y0312511D01*
X0093548Y0312478D01*
X0093491Y0312441D01*
X0093435Y0312400D01*
X0093382Y0312357D01*
X0093332Y0312311D01*
X0093284Y0312261D01*
X0093239Y0312210D01*
X0093197Y0312155D01*
X0093158Y0312099D01*
X0093123Y0312040D01*
X0093091Y0311979D01*
X0093063Y0311917D01*
X0093038Y0311853D01*
X0093017Y0311788D01*
X0092999Y0311722D01*
X0092986Y0311655D01*
X0092976Y0311587D01*
X0092970Y0311519D01*
X0092968Y0311450D01*
X0086799Y0311450D01*
X0087918Y0314000D02*
X0091418Y0316500D01*
X0091418Y0314000D01*
X0087918Y0314000D01*
X0087969Y0314036D02*
X0091418Y0314036D01*
X0091418Y0314635D02*
X0088807Y0314635D01*
X0089645Y0315233D02*
X0091418Y0315233D01*
X0091418Y0315832D02*
X0090483Y0315832D01*
X0091320Y0316430D02*
X0091418Y0316430D01*
X0098556Y0307453D02*
X0099918Y0307453D01*
X0099918Y0308051D02*
X0099335Y0308051D01*
X0099918Y0308500D02*
X0096668Y0306000D01*
X0099918Y0303750D01*
X0099918Y0308500D01*
X0099918Y0306854D02*
X0097778Y0306854D01*
X0097000Y0306256D02*
X0099918Y0306256D01*
X0099918Y0305657D02*
X0097163Y0305657D01*
X0098028Y0305059D02*
X0099918Y0305059D01*
X0099918Y0304460D02*
X0098892Y0304460D01*
X0099757Y0303862D02*
X0099918Y0303862D01*
X0076918Y0328000D02*
X0072168Y0328000D01*
X0074418Y0331250D01*
X0076918Y0328000D01*
X0076610Y0328401D02*
X0072445Y0328401D01*
X0072860Y0328999D02*
X0076149Y0328999D01*
X0075689Y0329598D02*
X0073274Y0329598D01*
X0073688Y0330196D02*
X0075229Y0330196D01*
X0074768Y0330795D02*
X0074103Y0330795D01*
X0086799Y0331050D02*
X0101536Y0331050D01*
X0420715Y0289687D02*
X0420715Y0281813D01*
X0422168Y0284250D02*
X0425168Y0284250D01*
X0423668Y0286500D01*
X0422168Y0284250D01*
X0422474Y0284709D02*
X0424862Y0284709D01*
X0424463Y0285308D02*
X0422873Y0285308D01*
X0423272Y0285906D02*
X0424064Y0285906D01*
X0426621Y0289687D02*
X0426621Y0281813D01*
X0422168Y0269000D02*
X0419918Y0267500D01*
X0422168Y0266000D01*
X0422168Y0269000D01*
X0422168Y0268549D02*
X0421492Y0268549D01*
X0422168Y0267951D02*
X0420594Y0267951D01*
X0420139Y0267352D02*
X0422168Y0267352D01*
X0422168Y0266754D02*
X0421037Y0266754D01*
X0421935Y0266155D02*
X0422168Y0266155D01*
X0450968Y0239250D02*
X0450968Y0200250D01*
X0463868Y0200250D01*
X0463868Y0239250D01*
X0458618Y0239250D01*
X0458616Y0239181D01*
X0458610Y0239113D01*
X0458600Y0239045D01*
X0458587Y0238978D01*
X0458569Y0238912D01*
X0458548Y0238847D01*
X0458523Y0238783D01*
X0458495Y0238721D01*
X0458463Y0238660D01*
X0458428Y0238601D01*
X0458389Y0238545D01*
X0458347Y0238490D01*
X0458302Y0238439D01*
X0458254Y0238389D01*
X0458204Y0238343D01*
X0458151Y0238300D01*
X0458095Y0238259D01*
X0458038Y0238222D01*
X0457978Y0238189D01*
X0457916Y0238158D01*
X0457853Y0238132D01*
X0457789Y0238109D01*
X0457723Y0238089D01*
X0457656Y0238074D01*
X0457589Y0238062D01*
X0457521Y0238054D01*
X0457452Y0238050D01*
X0457384Y0238050D01*
X0457315Y0238054D01*
X0457247Y0238062D01*
X0457180Y0238074D01*
X0457113Y0238089D01*
X0457047Y0238109D01*
X0456983Y0238132D01*
X0456920Y0238158D01*
X0456858Y0238189D01*
X0456798Y0238222D01*
X0456741Y0238259D01*
X0456685Y0238300D01*
X0456632Y0238343D01*
X0456582Y0238389D01*
X0456534Y0238439D01*
X0456489Y0238490D01*
X0456447Y0238545D01*
X0456408Y0238601D01*
X0456373Y0238660D01*
X0456341Y0238721D01*
X0456313Y0238783D01*
X0456288Y0238847D01*
X0456267Y0238912D01*
X0456249Y0238978D01*
X0456236Y0239045D01*
X0456226Y0239113D01*
X0456220Y0239181D01*
X0456218Y0239250D01*
X0450968Y0239250D01*
X0459168Y0237250D02*
X0459168Y0234750D01*
X0462668Y0237250D01*
X0459168Y0237250D01*
X0459168Y0236828D02*
X0462078Y0236828D01*
X0461240Y0236230D02*
X0459168Y0236230D01*
X0459168Y0235631D02*
X0460402Y0235631D01*
X0459564Y0235033D02*
X0459168Y0235033D01*
X0481668Y0191750D02*
X0479418Y0190250D01*
X0481668Y0188750D01*
X0481668Y0191750D01*
X0481668Y0191341D02*
X0481055Y0191341D01*
X0481668Y0190743D02*
X0480157Y0190743D01*
X0479576Y0190144D02*
X0481668Y0190144D01*
X0481668Y0189546D02*
X0480474Y0189546D01*
X0481372Y0188947D02*
X0481668Y0188947D01*
X0454068Y0153150D02*
X0450868Y0153150D01*
X0450868Y0150400D01*
X0456468Y0148100D02*
X0456468Y0146400D01*
X0454068Y0141350D02*
X0450868Y0141350D01*
X0450868Y0144100D01*
X0476168Y0126050D02*
X0476168Y0118450D01*
X0476237Y0118448D01*
X0476305Y0118442D01*
X0476373Y0118432D01*
X0476440Y0118419D01*
X0476506Y0118401D01*
X0476571Y0118380D01*
X0476635Y0118355D01*
X0476697Y0118327D01*
X0476758Y0118295D01*
X0476817Y0118260D01*
X0476873Y0118221D01*
X0476928Y0118179D01*
X0476979Y0118134D01*
X0477029Y0118086D01*
X0477075Y0118036D01*
X0477118Y0117983D01*
X0477159Y0117927D01*
X0477196Y0117870D01*
X0477229Y0117810D01*
X0477260Y0117748D01*
X0477286Y0117685D01*
X0477309Y0117621D01*
X0477329Y0117555D01*
X0477344Y0117488D01*
X0477356Y0117421D01*
X0477364Y0117353D01*
X0477368Y0117284D01*
X0477368Y0117216D01*
X0477364Y0117147D01*
X0477356Y0117079D01*
X0477344Y0117012D01*
X0477329Y0116945D01*
X0477309Y0116879D01*
X0477286Y0116815D01*
X0477260Y0116752D01*
X0477229Y0116690D01*
X0477196Y0116630D01*
X0477159Y0116573D01*
X0477118Y0116517D01*
X0477075Y0116464D01*
X0477029Y0116414D01*
X0476979Y0116366D01*
X0476928Y0116321D01*
X0476873Y0116279D01*
X0476817Y0116240D01*
X0476758Y0116205D01*
X0476697Y0116173D01*
X0476635Y0116145D01*
X0476571Y0116120D01*
X0476506Y0116099D01*
X0476440Y0116081D01*
X0476373Y0116068D01*
X0476305Y0116058D01*
X0476237Y0116052D01*
X0476168Y0116050D01*
X0476168Y0108450D01*
X0478168Y0120750D02*
X0480168Y0120750D01*
X0478168Y0124000D01*
X0478168Y0120750D01*
X0478168Y0121316D02*
X0479820Y0121316D01*
X0479452Y0121914D02*
X0478168Y0121914D01*
X0478168Y0122513D02*
X0479083Y0122513D01*
X0478715Y0123111D02*
X0478168Y0123111D01*
X0478168Y0123710D02*
X0478347Y0123710D01*
X0497168Y0126050D02*
X0497168Y0108450D01*
X0454918Y0104000D02*
X0452668Y0102500D01*
X0452668Y0105500D01*
X0454918Y0104000D01*
X0454856Y0103959D02*
X0452668Y0103959D01*
X0452668Y0104557D02*
X0454082Y0104557D01*
X0453184Y0105156D02*
X0452668Y0105156D01*
X0452668Y0103360D02*
X0453958Y0103360D01*
X0453061Y0102762D02*
X0452668Y0102762D01*
X0453621Y0067187D02*
X0453621Y0059313D01*
X0450668Y0062500D02*
X0449168Y0064750D01*
X0452168Y0064750D01*
X0450668Y0062500D01*
X0450560Y0062662D02*
X0450776Y0062662D01*
X0451175Y0063260D02*
X0450161Y0063260D01*
X0449762Y0063859D02*
X0451574Y0063859D01*
X0451973Y0064457D02*
X0449363Y0064457D01*
X0447715Y0067187D02*
X0447715Y0059313D01*
X0445871Y0059313D02*
X0445871Y0067187D01*
X0444418Y0064750D02*
X0441418Y0064750D01*
X0442918Y0062500D01*
X0444418Y0064750D01*
X0444223Y0064457D02*
X0441613Y0064457D01*
X0442012Y0063859D02*
X0443824Y0063859D01*
X0443425Y0063260D02*
X0442411Y0063260D01*
X0442810Y0062662D02*
X0443026Y0062662D01*
X0439965Y0059313D02*
X0439965Y0067187D01*
X0445818Y0050050D02*
X0447518Y0050050D01*
X0452568Y0047650D02*
X0452568Y0044450D01*
X0449818Y0044450D01*
X0443518Y0044450D02*
X0440768Y0044450D01*
X0440768Y0047650D01*
X0471549Y0038700D02*
X0477718Y0038700D01*
X0477720Y0038769D01*
X0477726Y0038837D01*
X0477736Y0038905D01*
X0477749Y0038972D01*
X0477767Y0039038D01*
X0477788Y0039103D01*
X0477813Y0039167D01*
X0477841Y0039229D01*
X0477873Y0039290D01*
X0477908Y0039349D01*
X0477947Y0039405D01*
X0477989Y0039460D01*
X0478034Y0039511D01*
X0478082Y0039561D01*
X0478132Y0039607D01*
X0478185Y0039650D01*
X0478241Y0039691D01*
X0478298Y0039728D01*
X0478358Y0039761D01*
X0478420Y0039792D01*
X0478483Y0039818D01*
X0478547Y0039841D01*
X0478613Y0039861D01*
X0478680Y0039876D01*
X0478747Y0039888D01*
X0478815Y0039896D01*
X0478884Y0039900D01*
X0478952Y0039900D01*
X0479021Y0039896D01*
X0479089Y0039888D01*
X0479156Y0039876D01*
X0479223Y0039861D01*
X0479289Y0039841D01*
X0479353Y0039818D01*
X0479416Y0039792D01*
X0479478Y0039761D01*
X0479538Y0039728D01*
X0479595Y0039691D01*
X0479651Y0039650D01*
X0479704Y0039607D01*
X0479754Y0039561D01*
X0479802Y0039511D01*
X0479847Y0039460D01*
X0479889Y0039405D01*
X0479928Y0039349D01*
X0479963Y0039290D01*
X0479995Y0039229D01*
X0480023Y0039167D01*
X0480048Y0039103D01*
X0480069Y0039038D01*
X0480087Y0038972D01*
X0480100Y0038905D01*
X0480110Y0038837D01*
X0480116Y0038769D01*
X0480118Y0038700D01*
X0486286Y0038700D01*
X0476168Y0041250D02*
X0476168Y0043750D01*
X0472668Y0041250D01*
X0476168Y0041250D01*
X0476168Y0041714D02*
X0473317Y0041714D01*
X0474155Y0042312D02*
X0476168Y0042312D01*
X0476168Y0042911D02*
X0474993Y0042911D01*
X0475831Y0043509D02*
X0476168Y0043509D01*
X0471549Y0058300D02*
X0486286Y0058300D01*
X0396418Y0036750D02*
X0396418Y0033750D01*
X0394168Y0035250D01*
X0396418Y0036750D01*
X0396418Y0036327D02*
X0395784Y0036327D01*
X0396418Y0035729D02*
X0394886Y0035729D01*
X0394348Y0035130D02*
X0396418Y0035130D01*
X0396418Y0034532D02*
X0395246Y0034532D01*
X0396143Y0033933D02*
X0396418Y0033933D01*
X0294868Y0029250D02*
X0289618Y0029250D01*
X0289616Y0029181D01*
X0289610Y0029113D01*
X0289600Y0029045D01*
X0289587Y0028978D01*
X0289569Y0028912D01*
X0289548Y0028847D01*
X0289523Y0028783D01*
X0289495Y0028721D01*
X0289463Y0028660D01*
X0289428Y0028601D01*
X0289389Y0028545D01*
X0289347Y0028490D01*
X0289302Y0028439D01*
X0289254Y0028389D01*
X0289204Y0028343D01*
X0289151Y0028300D01*
X0289095Y0028259D01*
X0289038Y0028222D01*
X0288978Y0028189D01*
X0288916Y0028158D01*
X0288853Y0028132D01*
X0288789Y0028109D01*
X0288723Y0028089D01*
X0288656Y0028074D01*
X0288589Y0028062D01*
X0288521Y0028054D01*
X0288452Y0028050D01*
X0288384Y0028050D01*
X0288315Y0028054D01*
X0288247Y0028062D01*
X0288180Y0028074D01*
X0288113Y0028089D01*
X0288047Y0028109D01*
X0287983Y0028132D01*
X0287920Y0028158D01*
X0287858Y0028189D01*
X0287798Y0028222D01*
X0287741Y0028259D01*
X0287685Y0028300D01*
X0287632Y0028343D01*
X0287582Y0028389D01*
X0287534Y0028439D01*
X0287489Y0028490D01*
X0287447Y0028545D01*
X0287408Y0028601D01*
X0287373Y0028660D01*
X0287341Y0028721D01*
X0287313Y0028783D01*
X0287288Y0028847D01*
X0287267Y0028912D01*
X0287249Y0028978D01*
X0287236Y0029045D01*
X0287226Y0029113D01*
X0287220Y0029181D01*
X0287218Y0029250D01*
X0281968Y0029250D01*
X0289668Y0027250D02*
X0289668Y0024750D01*
X0293168Y0027250D01*
X0289668Y0027250D01*
X0289668Y0026751D02*
X0292469Y0026751D01*
X0291631Y0026152D02*
X0289668Y0026152D01*
X0289668Y0025554D02*
X0290793Y0025554D01*
X0289955Y0024955D02*
X0289668Y0024955D01*
X0294868Y0020250D02*
X0281968Y0020250D01*
X0157918Y0047750D02*
X0156418Y0050000D01*
X0154918Y0047750D01*
X0157918Y0047750D01*
X0157553Y0048297D02*
X0155283Y0048297D01*
X0155682Y0048896D02*
X0157154Y0048896D01*
X0156755Y0049494D02*
X0156081Y0049494D01*
X0143418Y0058050D02*
X0143418Y0063300D01*
X0143349Y0063302D01*
X0143281Y0063308D01*
X0143213Y0063318D01*
X0143146Y0063331D01*
X0143080Y0063349D01*
X0143015Y0063370D01*
X0142951Y0063395D01*
X0142889Y0063423D01*
X0142828Y0063455D01*
X0142769Y0063490D01*
X0142713Y0063529D01*
X0142658Y0063571D01*
X0142607Y0063616D01*
X0142557Y0063664D01*
X0142511Y0063714D01*
X0142468Y0063767D01*
X0142427Y0063823D01*
X0142390Y0063880D01*
X0142357Y0063940D01*
X0142326Y0064002D01*
X0142300Y0064065D01*
X0142277Y0064129D01*
X0142257Y0064195D01*
X0142242Y0064262D01*
X0142230Y0064329D01*
X0142222Y0064397D01*
X0142218Y0064466D01*
X0142218Y0064534D01*
X0142222Y0064603D01*
X0142230Y0064671D01*
X0142242Y0064738D01*
X0142257Y0064805D01*
X0142277Y0064871D01*
X0142300Y0064935D01*
X0142326Y0064998D01*
X0142357Y0065060D01*
X0142390Y0065120D01*
X0142427Y0065177D01*
X0142468Y0065233D01*
X0142511Y0065286D01*
X0142557Y0065336D01*
X0142607Y0065384D01*
X0142658Y0065429D01*
X0142713Y0065471D01*
X0142769Y0065510D01*
X0142828Y0065545D01*
X0142889Y0065577D01*
X0142951Y0065605D01*
X0143015Y0065630D01*
X0143080Y0065651D01*
X0143146Y0065669D01*
X0143213Y0065682D01*
X0143281Y0065692D01*
X0143349Y0065698D01*
X0143418Y0065700D01*
X0143418Y0070950D01*
X0141418Y0063250D02*
X0138918Y0063250D01*
X0141418Y0059750D01*
X0141418Y0063250D01*
X0141418Y0062662D02*
X0139338Y0062662D01*
X0139766Y0062063D02*
X0141418Y0062063D01*
X0141418Y0061465D02*
X0140193Y0061465D01*
X0140621Y0060866D02*
X0141418Y0060866D01*
X0141418Y0060268D02*
X0141048Y0060268D01*
X0124418Y0058050D02*
X0124418Y0070950D01*
X0136668Y0089250D02*
X0135168Y0091500D01*
X0138168Y0091500D01*
X0136668Y0089250D01*
X0136438Y0089595D02*
X0136898Y0089595D01*
X0137297Y0090193D02*
X0136039Y0090193D01*
X0135640Y0090792D02*
X0137696Y0090792D01*
X0138095Y0091390D02*
X0135241Y0091390D01*
X0423168Y0174750D02*
X0426168Y0174750D01*
X0424668Y0177000D01*
X0423168Y0174750D01*
X0423456Y0175182D02*
X0425880Y0175182D01*
X0425481Y0175780D02*
X0423855Y0175780D01*
X0424254Y0176379D02*
X0425082Y0176379D01*
X0424683Y0176977D02*
X0424653Y0176977D01*
D14*
X0518536Y0158776D02*
X0518536Y0128776D01*
X0543536Y0143776D01*
X0518536Y0158776D01*
X0523536Y0145776D02*
X0520536Y0142776D01*
X0524536Y0141776D01*
X0523536Y0145776D01*
X0523862Y0144472D02*
X0522232Y0144472D01*
X0521036Y0142776D02*
X0528536Y0145276D01*
X0528536Y0140276D01*
X0536036Y0142776D01*
X0536536Y0142776D02*
X0528536Y0140776D01*
X0536536Y0144776D01*
X0536536Y0142776D01*
X0536536Y0142873D02*
X0532732Y0142873D01*
X0530534Y0141275D02*
X0529535Y0141275D01*
X0524262Y0142873D02*
X0520634Y0142873D01*
X0535929Y0144472D02*
X0536536Y0144472D01*
D15*
X0529423Y0159600D02*
X0523518Y0159600D01*
X0526470Y0159600D02*
X0526470Y0163537D01*
X0523518Y0163537D02*
X0529423Y0163537D01*
X0529423Y0165677D02*
X0529423Y0167646D01*
X0529423Y0166661D02*
X0523518Y0166661D01*
X0523518Y0165677D02*
X0523518Y0167646D01*
X0524502Y0169729D02*
X0523518Y0170713D01*
X0523518Y0172681D01*
X0524502Y0173665D01*
X0526470Y0173665D01*
X0526470Y0171697D01*
X0528439Y0169729D02*
X0524502Y0169729D01*
X0528439Y0169729D02*
X0529423Y0170713D01*
X0529423Y0172681D01*
X0528439Y0173665D01*
X0529423Y0175806D02*
X0523518Y0175806D01*
X0526470Y0175806D02*
X0526470Y0179743D01*
X0523518Y0179743D02*
X0529423Y0179743D01*
X0532268Y0179927D02*
X0536205Y0179927D01*
X0538173Y0181896D01*
X0536205Y0183864D01*
X0532268Y0183864D01*
X0533252Y0186004D02*
X0532268Y0186989D01*
X0532268Y0188957D01*
X0533252Y0189941D01*
X0538173Y0189941D01*
X0538173Y0192082D02*
X0538173Y0196018D01*
X0538173Y0194050D02*
X0532268Y0194050D01*
X0529423Y0195022D02*
X0529423Y0196990D01*
X0528439Y0197974D01*
X0524502Y0197974D01*
X0523518Y0196990D01*
X0523518Y0195022D01*
X0524502Y0194037D01*
X0528439Y0194037D01*
X0529423Y0195022D01*
X0529423Y0191897D02*
X0525486Y0191897D01*
X0523518Y0189929D01*
X0525486Y0187960D01*
X0529423Y0187960D01*
X0533252Y0186004D02*
X0538173Y0186004D01*
X0535220Y0183864D02*
X0535220Y0179927D01*
X0533252Y0177787D02*
X0532268Y0176803D01*
X0532268Y0174834D01*
X0533252Y0173850D01*
X0537189Y0173850D01*
X0538173Y0174834D01*
X0538173Y0176803D01*
X0537189Y0177787D01*
X0538173Y0198159D02*
X0538173Y0200127D01*
X0538173Y0199143D02*
X0532268Y0199143D01*
X0532268Y0198159D02*
X0532268Y0200127D01*
X0533252Y0202210D02*
X0532268Y0203194D01*
X0532268Y0205163D01*
X0533252Y0206147D01*
X0537189Y0206147D01*
X0538173Y0205163D01*
X0538173Y0203194D01*
X0537189Y0202210D01*
X0533252Y0202210D01*
X0529423Y0200115D02*
X0523518Y0200115D01*
X0523518Y0204051D01*
X0523518Y0208160D02*
X0529423Y0208160D01*
X0529423Y0206192D02*
X0529423Y0210128D01*
X0527455Y0212269D02*
X0523518Y0212269D01*
X0526470Y0212269D02*
X0526470Y0216206D01*
X0527455Y0216206D02*
X0523518Y0216206D01*
X0524502Y0218346D02*
X0523518Y0219330D01*
X0523518Y0221299D01*
X0524502Y0222283D01*
X0526470Y0222283D01*
X0526470Y0220315D01*
X0528439Y0222283D02*
X0529423Y0221299D01*
X0529423Y0219330D01*
X0528439Y0218346D01*
X0524502Y0218346D01*
X0527455Y0216206D02*
X0529423Y0214237D01*
X0527455Y0212269D01*
X0532268Y0212224D02*
X0538173Y0208287D01*
X0532268Y0208287D01*
X0532268Y0212224D02*
X0538173Y0212224D01*
X0539157Y0214365D02*
X0535220Y0214365D01*
X0533252Y0214365D02*
X0532268Y0214365D01*
X0529423Y0224423D02*
X0523518Y0224423D01*
X0523518Y0228360D01*
X0526470Y0226392D02*
X0526470Y0224423D01*
X0529423Y0224423D02*
X0529423Y0228360D01*
D16*
X0483400Y0243547D02*
X0483400Y0269453D01*
X0459385Y0269453D01*
X0459385Y0268654D01*
X0459385Y0244346D02*
X0459385Y0243547D01*
X0483400Y0243547D01*
X0321400Y0155453D02*
X0297385Y0155453D01*
X0297385Y0154654D01*
X0321400Y0155453D02*
X0321400Y0129547D01*
X0297385Y0129547D01*
X0297385Y0130346D01*
X0292215Y0070482D02*
X0292215Y0046467D01*
X0293014Y0046467D01*
X0317322Y0046467D02*
X0318121Y0046467D01*
X0318121Y0070482D01*
X0292215Y0070482D01*
D17*
X0323034Y0142500D03*
X0485034Y0256500D03*
D18*
X0485192Y0247504D03*
X0485192Y0265496D03*
X0323192Y0151496D03*
X0323192Y0133504D03*
D19*
X0455530Y0104000D03*
X0393556Y0035250D03*
X0478806Y0190250D03*
X0419306Y0267500D03*
X0178780Y0242250D03*
X0099030Y0223500D03*
X0096056Y0306000D03*
D20*
X0060800Y0257802D02*
X0059833Y0257802D01*
X0060317Y0257802D02*
X0060317Y0255384D01*
X0060800Y0254900D01*
X0061284Y0254900D01*
X0061768Y0255384D01*
X0058821Y0255867D02*
X0057370Y0255867D01*
X0056886Y0256351D01*
X0056886Y0257319D01*
X0057370Y0257802D01*
X0058821Y0257802D01*
X0058821Y0254900D01*
X0055875Y0254900D02*
X0053940Y0254900D01*
X0054907Y0254900D02*
X0054907Y0257802D01*
X0055875Y0256835D01*
X0186931Y0245985D02*
X0186931Y0245018D01*
X0187415Y0244534D01*
X0187415Y0243523D02*
X0189350Y0243523D01*
X0189833Y0243039D01*
X0189833Y0241588D01*
X0186931Y0241588D01*
X0186931Y0243039D01*
X0187415Y0243523D01*
X0189350Y0244534D02*
X0189833Y0245018D01*
X0189833Y0245985D01*
X0189350Y0246469D01*
X0188866Y0246469D01*
X0188382Y0245985D01*
X0187898Y0246469D01*
X0187415Y0246469D01*
X0186931Y0245985D01*
X0188382Y0245985D02*
X0188382Y0245502D01*
X0189350Y0240576D02*
X0187415Y0238641D01*
X0186931Y0238641D01*
X0186931Y0240576D01*
X0189350Y0240576D02*
X0189833Y0240576D01*
X0189833Y0238641D01*
X0236618Y0243544D02*
X0236618Y0244512D01*
X0237102Y0244995D01*
X0236618Y0246007D02*
X0238553Y0247942D01*
X0239037Y0247942D01*
X0239520Y0247458D01*
X0239520Y0246491D01*
X0239037Y0246007D01*
X0239037Y0244995D02*
X0239520Y0244512D01*
X0239520Y0243544D01*
X0239037Y0243060D01*
X0237102Y0243060D01*
X0236618Y0243544D01*
X0236618Y0246007D02*
X0236618Y0247942D01*
X0236618Y0248953D02*
X0237102Y0248953D01*
X0239037Y0250888D01*
X0239520Y0250888D01*
X0239520Y0248953D01*
X0251618Y0244155D02*
X0251618Y0243187D01*
X0252102Y0242703D01*
X0254037Y0244638D01*
X0252102Y0244638D01*
X0251618Y0244155D01*
X0252102Y0242703D02*
X0254037Y0242703D01*
X0254520Y0243187D01*
X0254520Y0244155D01*
X0254037Y0244638D01*
X0254037Y0241692D02*
X0254520Y0241208D01*
X0254520Y0240241D01*
X0254037Y0239757D01*
X0254037Y0238745D02*
X0253069Y0238745D01*
X0252585Y0238262D01*
X0252585Y0236810D01*
X0251618Y0236810D02*
X0254520Y0236810D01*
X0254520Y0238262D01*
X0254037Y0238745D01*
X0252585Y0237778D02*
X0251618Y0238745D01*
X0251618Y0239757D02*
X0253553Y0241692D01*
X0254037Y0241692D01*
X0251618Y0241692D02*
X0251618Y0239757D01*
X0250868Y0226138D02*
X0250868Y0224203D01*
X0252803Y0226138D01*
X0253287Y0226138D01*
X0253770Y0225655D01*
X0253770Y0224687D01*
X0253287Y0224203D01*
X0253287Y0223192D02*
X0253770Y0222708D01*
X0253770Y0221741D01*
X0253287Y0221257D01*
X0253287Y0220245D02*
X0252319Y0220245D01*
X0251835Y0219762D01*
X0251835Y0218310D01*
X0250868Y0218310D02*
X0253770Y0218310D01*
X0253770Y0219762D01*
X0253287Y0220245D01*
X0251835Y0219278D02*
X0250868Y0220245D01*
X0250868Y0221257D02*
X0252803Y0223192D01*
X0253287Y0223192D01*
X0250868Y0223192D02*
X0250868Y0221257D01*
X0246020Y0221491D02*
X0245537Y0221007D01*
X0246020Y0221491D02*
X0246020Y0222458D01*
X0245537Y0222942D01*
X0245053Y0222942D01*
X0243118Y0221007D01*
X0243118Y0222942D01*
X0243602Y0223953D02*
X0243118Y0224437D01*
X0243118Y0225405D01*
X0243602Y0225888D01*
X0244085Y0225888D01*
X0244569Y0225405D01*
X0244569Y0223953D01*
X0243602Y0223953D01*
X0244569Y0223953D02*
X0245537Y0224921D01*
X0246020Y0225888D01*
X0245537Y0219995D02*
X0246020Y0219512D01*
X0246020Y0218544D01*
X0245537Y0218060D01*
X0243602Y0218060D01*
X0243118Y0218544D01*
X0243118Y0219512D01*
X0243602Y0219995D01*
X0280530Y0247934D02*
X0281013Y0247450D01*
X0281981Y0247450D01*
X0282464Y0247934D01*
X0282464Y0248901D02*
X0281497Y0249385D01*
X0281013Y0249385D01*
X0280530Y0248901D01*
X0280530Y0247934D01*
X0282464Y0248901D02*
X0282464Y0250352D01*
X0280530Y0250352D01*
X0280530Y0253450D02*
X0282464Y0253450D01*
X0281497Y0253450D02*
X0281497Y0256352D01*
X0282464Y0255385D01*
X0283476Y0255385D02*
X0283476Y0255869D01*
X0283960Y0256352D01*
X0284927Y0256352D01*
X0285411Y0255869D01*
X0286423Y0255869D02*
X0286423Y0254901D01*
X0286906Y0254417D01*
X0288358Y0254417D01*
X0288358Y0253450D02*
X0288358Y0256352D01*
X0286906Y0256352D01*
X0286423Y0255869D01*
X0287390Y0254417D02*
X0286423Y0253450D01*
X0285411Y0253450D02*
X0283476Y0255385D01*
X0283476Y0253450D02*
X0285411Y0253450D01*
X0284444Y0250352D02*
X0284444Y0247450D01*
X0285411Y0247450D02*
X0283476Y0247450D01*
X0285411Y0249385D02*
X0284444Y0250352D01*
X0286423Y0249869D02*
X0286423Y0248901D01*
X0286906Y0248417D01*
X0288358Y0248417D01*
X0288358Y0247450D02*
X0288358Y0250352D01*
X0286906Y0250352D01*
X0286423Y0249869D01*
X0287390Y0248417D02*
X0286423Y0247450D01*
X0289870Y0232802D02*
X0290838Y0232802D01*
X0291321Y0232319D01*
X0291321Y0231835D01*
X0290838Y0231351D01*
X0289386Y0231351D01*
X0289386Y0230384D02*
X0289386Y0232319D01*
X0289870Y0232802D01*
X0289386Y0230384D02*
X0289870Y0229900D01*
X0290838Y0229900D01*
X0291321Y0230384D01*
X0292333Y0229900D02*
X0293300Y0230867D01*
X0292817Y0230867D02*
X0294268Y0230867D01*
X0294268Y0229900D02*
X0294268Y0232802D01*
X0292817Y0232802D01*
X0292333Y0232319D01*
X0292333Y0231351D01*
X0292817Y0230867D01*
X0282237Y0265650D02*
X0280302Y0265650D01*
X0279818Y0266134D01*
X0279818Y0267101D01*
X0280302Y0267585D01*
X0279818Y0268597D02*
X0281753Y0270531D01*
X0282237Y0270531D01*
X0282720Y0270048D01*
X0282720Y0269080D01*
X0282237Y0268597D01*
X0282237Y0267585D02*
X0282720Y0267101D01*
X0282720Y0266134D01*
X0282237Y0265650D01*
X0279818Y0268597D02*
X0279818Y0270531D01*
X0280302Y0271543D02*
X0280785Y0271543D01*
X0281269Y0272027D01*
X0281269Y0272994D01*
X0280785Y0273478D01*
X0280302Y0273478D01*
X0279818Y0272994D01*
X0279818Y0272027D01*
X0280302Y0271543D01*
X0281269Y0272027D02*
X0281753Y0271543D01*
X0282237Y0271543D01*
X0282720Y0272027D01*
X0282720Y0272994D01*
X0282237Y0273478D01*
X0281753Y0273478D01*
X0281269Y0272994D01*
X0241537Y0190138D02*
X0241053Y0190138D01*
X0240569Y0189655D01*
X0240085Y0190138D01*
X0239602Y0190138D01*
X0239118Y0189655D01*
X0239118Y0188687D01*
X0239602Y0188203D01*
X0239602Y0187192D02*
X0239118Y0186708D01*
X0239118Y0185741D01*
X0239602Y0185257D01*
X0240085Y0185257D01*
X0240569Y0185741D01*
X0240569Y0186708D01*
X0240085Y0187192D01*
X0239602Y0187192D01*
X0240569Y0186708D02*
X0241053Y0187192D01*
X0241537Y0187192D01*
X0242020Y0186708D01*
X0242020Y0185741D01*
X0241537Y0185257D01*
X0241053Y0185257D01*
X0240569Y0185741D01*
X0240569Y0184245D02*
X0240085Y0183762D01*
X0240085Y0182310D01*
X0239118Y0182310D02*
X0242020Y0182310D01*
X0242020Y0183762D01*
X0241537Y0184245D01*
X0240569Y0184245D01*
X0240085Y0183278D02*
X0239118Y0184245D01*
X0241537Y0188203D02*
X0242020Y0188687D01*
X0242020Y0189655D01*
X0241537Y0190138D01*
X0240569Y0189655D02*
X0240569Y0189171D01*
X0226018Y0181319D02*
X0226018Y0179384D01*
X0225534Y0178900D01*
X0224567Y0178900D01*
X0224083Y0179384D01*
X0223071Y0179384D02*
X0223071Y0178900D01*
X0223071Y0179384D02*
X0221136Y0181319D01*
X0221136Y0181802D01*
X0223071Y0181802D01*
X0224083Y0181319D02*
X0224567Y0181802D01*
X0225534Y0181802D01*
X0226018Y0181319D01*
X0220125Y0181319D02*
X0219641Y0181802D01*
X0218674Y0181802D01*
X0218190Y0181319D01*
X0218190Y0180835D01*
X0218674Y0180351D01*
X0218190Y0179867D01*
X0218190Y0179384D01*
X0218674Y0178900D01*
X0219641Y0178900D01*
X0220125Y0179384D01*
X0219157Y0180351D02*
X0218674Y0180351D01*
X0217787Y0176638D02*
X0215852Y0174703D01*
X0215368Y0175187D01*
X0215368Y0176155D01*
X0215852Y0176638D01*
X0217787Y0176638D01*
X0218270Y0176155D01*
X0218270Y0175187D01*
X0217787Y0174703D01*
X0215852Y0174703D01*
X0215852Y0173692D02*
X0215368Y0173208D01*
X0215368Y0172241D01*
X0215852Y0171757D01*
X0216335Y0171757D01*
X0216819Y0172241D01*
X0216819Y0173208D01*
X0216335Y0173692D01*
X0215852Y0173692D01*
X0216819Y0173208D02*
X0217303Y0173692D01*
X0217787Y0173692D01*
X0218270Y0173208D01*
X0218270Y0172241D01*
X0217787Y0171757D01*
X0217303Y0171757D01*
X0216819Y0172241D01*
X0216819Y0170745D02*
X0216335Y0170262D01*
X0216335Y0168810D01*
X0215368Y0168810D02*
X0218270Y0168810D01*
X0218270Y0170262D01*
X0217787Y0170745D01*
X0216819Y0170745D01*
X0216335Y0169778D02*
X0215368Y0170745D01*
X0221568Y0169597D02*
X0222052Y0169597D01*
X0223987Y0171531D01*
X0224470Y0171531D01*
X0224470Y0169597D01*
X0223987Y0168585D02*
X0224470Y0168101D01*
X0224470Y0167134D01*
X0223987Y0166650D01*
X0222052Y0166650D01*
X0221568Y0167134D01*
X0221568Y0168101D01*
X0222052Y0168585D01*
X0221568Y0172543D02*
X0223503Y0174478D01*
X0223987Y0174478D01*
X0224470Y0173994D01*
X0224470Y0173027D01*
X0223987Y0172543D01*
X0221568Y0172543D02*
X0221568Y0174478D01*
X0226907Y0169802D02*
X0226907Y0166900D01*
X0225940Y0166900D02*
X0227875Y0166900D01*
X0227875Y0168835D02*
X0226907Y0169802D01*
X0228886Y0169802D02*
X0228886Y0169319D01*
X0230821Y0167384D01*
X0230821Y0166900D01*
X0231833Y0167384D02*
X0232317Y0166900D01*
X0233284Y0166900D01*
X0233768Y0167384D01*
X0233768Y0169319D01*
X0233284Y0169802D01*
X0232317Y0169802D01*
X0231833Y0169319D01*
X0230821Y0169802D02*
X0228886Y0169802D01*
X0225858Y0149352D02*
X0224406Y0149352D01*
X0223923Y0148869D01*
X0223923Y0147901D01*
X0224406Y0147417D01*
X0225858Y0147417D01*
X0225858Y0146450D02*
X0225858Y0149352D01*
X0224890Y0147417D02*
X0223923Y0146450D01*
X0222911Y0146934D02*
X0222911Y0147417D01*
X0222427Y0147901D01*
X0221460Y0147901D01*
X0220976Y0147417D01*
X0220976Y0146934D01*
X0221460Y0146450D01*
X0222427Y0146450D01*
X0222911Y0146934D01*
X0222427Y0147901D02*
X0222911Y0148385D01*
X0222911Y0148869D01*
X0222427Y0149352D01*
X0221460Y0149352D01*
X0220976Y0148869D01*
X0220976Y0148385D01*
X0221460Y0147901D01*
X0219964Y0148385D02*
X0218997Y0149352D01*
X0218997Y0146450D01*
X0219964Y0146450D02*
X0218030Y0146450D01*
X0192284Y0175150D02*
X0191317Y0175150D01*
X0190833Y0175634D01*
X0189821Y0175634D02*
X0189821Y0176601D01*
X0188370Y0176601D01*
X0187886Y0176117D01*
X0187886Y0175634D01*
X0188370Y0175150D01*
X0189338Y0175150D01*
X0189821Y0175634D01*
X0189821Y0176601D02*
X0188854Y0177569D01*
X0187886Y0178052D01*
X0186875Y0177569D02*
X0186875Y0177085D01*
X0186391Y0176601D01*
X0184940Y0176601D01*
X0184940Y0175634D02*
X0184940Y0177569D01*
X0185424Y0178052D01*
X0186391Y0178052D01*
X0186875Y0177569D01*
X0186875Y0175634D02*
X0186391Y0175150D01*
X0185424Y0175150D01*
X0184940Y0175634D01*
X0190833Y0177569D02*
X0191317Y0178052D01*
X0192284Y0178052D01*
X0192768Y0177569D01*
X0192768Y0175634D01*
X0192284Y0175150D01*
X0193924Y0178650D02*
X0194891Y0178650D01*
X0195375Y0179134D01*
X0195375Y0179617D01*
X0194891Y0180101D01*
X0193924Y0180101D01*
X0193440Y0179617D01*
X0193440Y0179134D01*
X0193924Y0178650D01*
X0193924Y0180101D02*
X0193440Y0180585D01*
X0193440Y0181069D01*
X0193924Y0181552D01*
X0194891Y0181552D01*
X0195375Y0181069D01*
X0195375Y0180585D01*
X0194891Y0180101D01*
X0196386Y0179617D02*
X0196870Y0180101D01*
X0198321Y0180101D01*
X0198321Y0179134D01*
X0197838Y0178650D01*
X0196870Y0178650D01*
X0196386Y0179134D01*
X0196386Y0179617D01*
X0197354Y0181069D02*
X0198321Y0180101D01*
X0197354Y0181069D02*
X0196386Y0181552D01*
X0199333Y0181069D02*
X0199817Y0181552D01*
X0200784Y0181552D01*
X0201268Y0181069D01*
X0201268Y0179134D01*
X0200784Y0178650D01*
X0199817Y0178650D01*
X0199333Y0179134D01*
X0150987Y0092228D02*
X0150503Y0092228D01*
X0150019Y0091744D01*
X0150019Y0090777D01*
X0150503Y0090293D01*
X0150987Y0090293D01*
X0151470Y0090777D01*
X0151470Y0091744D01*
X0150987Y0092228D01*
X0150019Y0091744D02*
X0149535Y0092228D01*
X0149052Y0092228D01*
X0148568Y0091744D01*
X0148568Y0090777D01*
X0149052Y0090293D01*
X0149535Y0090293D01*
X0150019Y0090777D01*
X0149535Y0089281D02*
X0150019Y0088798D01*
X0150019Y0087347D01*
X0149052Y0087347D01*
X0148568Y0087830D01*
X0148568Y0088798D01*
X0149052Y0089281D01*
X0149535Y0089281D01*
X0150987Y0088314D02*
X0150019Y0087347D01*
X0150019Y0086335D02*
X0149535Y0085851D01*
X0149535Y0084400D01*
X0148568Y0084400D02*
X0151470Y0084400D01*
X0151470Y0085851D01*
X0150987Y0086335D01*
X0150019Y0086335D01*
X0149535Y0085367D02*
X0148568Y0086335D01*
X0150987Y0088314D02*
X0151470Y0089281D01*
X0472530Y0132934D02*
X0473013Y0132450D01*
X0473981Y0132450D01*
X0474464Y0132934D01*
X0472530Y0134869D01*
X0472530Y0132934D01*
X0474464Y0132934D02*
X0474464Y0134869D01*
X0473981Y0135352D01*
X0473013Y0135352D01*
X0472530Y0134869D01*
X0475476Y0135352D02*
X0477411Y0135352D01*
X0477411Y0133901D01*
X0476444Y0134385D01*
X0475960Y0134385D01*
X0475476Y0133901D01*
X0475476Y0132934D01*
X0475960Y0132450D01*
X0476927Y0132450D01*
X0477411Y0132934D01*
X0478423Y0132934D02*
X0478906Y0132450D01*
X0479874Y0132450D01*
X0480358Y0132934D01*
X0480358Y0134869D01*
X0479874Y0135352D01*
X0478906Y0135352D01*
X0478423Y0134869D01*
D21*
X0305168Y0072116D03*
D22*
X0314164Y0072274D03*
X0296172Y0072274D03*
D23*
X0156418Y0050612D03*
X0136668Y0088638D03*
X0064168Y0225362D03*
X0074418Y0331862D03*
X0275168Y0237612D03*
X0423668Y0287112D03*
X0424668Y0177612D03*
X0442918Y0061888D03*
X0450668Y0061888D03*
D24*
X0356475Y0075045D02*
X0340861Y0075045D01*
X0340861Y0100455D01*
X0356475Y0100455D01*
X0356475Y0075045D01*
X0358373Y0140693D02*
X0332963Y0140693D01*
X0332963Y0156307D01*
X0358373Y0156307D01*
X0358373Y0140693D01*
X0453611Y0290795D02*
X0469225Y0290795D01*
X0469225Y0316205D01*
X0453611Y0316205D01*
X0453611Y0290795D01*
D25*
X0048072Y0152250D03*
M02*
