G75*
G70*
%OFA0B0*%
%FSLAX24Y24*%
%IPPOS*%
%LPD*%
%AMOC8*
5,1,8,0,0,1.08239X$1,22.5*
%
%ADD10C,0.0040*%
%ADD11C,0.0050*%
%ADD12C,0.0160*%
%ADD13C,0.0070*%
%ADD14C,0.0100*%
%ADD15C,0.0060*%
%ADD16C,0.0030*%
%ADD17C,0.0080*%
%ADD18R,0.0327X0.0299*%
%ADD19R,0.0358X0.0299*%
%ADD20R,0.0079X0.0551*%
%ADD21R,0.0299X0.0327*%
%ADD22R,0.0299X0.0358*%
%ADD23R,0.0551X0.0079*%
%ADD24C,0.0020*%
%ADD25R,0.0620X0.0118*%
%ADD26R,0.0118X0.0827*%
D10*
X006221Y004730D02*
X006281Y004670D01*
X006401Y004670D01*
X006461Y004730D01*
X006461Y004850D02*
X006341Y004910D01*
X006281Y004910D01*
X006221Y004850D01*
X006221Y004730D01*
X006461Y004850D02*
X006461Y005030D01*
X006221Y005030D01*
X006589Y005030D02*
X006829Y005030D01*
X006829Y004850D01*
X006709Y004910D01*
X006649Y004910D01*
X006589Y004850D01*
X006589Y004730D01*
X006649Y004670D01*
X006769Y004670D01*
X006829Y004730D01*
X006957Y004730D02*
X007017Y004670D01*
X007137Y004670D01*
X007197Y004730D01*
X007197Y004970D01*
X007137Y005030D01*
X007017Y005030D01*
X006957Y004970D01*
X010246Y004770D02*
X010246Y004530D01*
X010306Y004470D01*
X010426Y004470D01*
X010486Y004530D01*
X010614Y004530D02*
X010674Y004470D01*
X010794Y004470D01*
X010854Y004530D01*
X010854Y004650D02*
X010734Y004710D01*
X010674Y004710D01*
X010614Y004650D01*
X010614Y004530D01*
X010486Y004710D02*
X010426Y004650D01*
X010246Y004650D01*
X010246Y004770D02*
X010306Y004830D01*
X010426Y004830D01*
X010486Y004770D01*
X010486Y004710D01*
X010614Y004830D02*
X010854Y004830D01*
X010854Y004650D01*
X010982Y004650D02*
X011042Y004590D01*
X011222Y004590D01*
X011102Y004590D02*
X010982Y004470D01*
X010982Y004650D02*
X010982Y004770D01*
X011042Y004830D01*
X011222Y004830D01*
X011222Y004470D01*
X011732Y004172D02*
X011732Y003932D01*
X011973Y004172D01*
X012033Y004172D01*
X012093Y004112D01*
X012093Y003992D01*
X012033Y003932D01*
X012093Y003804D02*
X012033Y003683D01*
X011913Y003563D01*
X011913Y003743D01*
X011853Y003804D01*
X011793Y003804D01*
X011732Y003743D01*
X011732Y003623D01*
X011793Y003563D01*
X011913Y003563D01*
X012033Y003435D02*
X012093Y003375D01*
X012093Y003255D01*
X012033Y003195D01*
X011793Y003195D01*
X011732Y003255D01*
X011732Y003375D01*
X011793Y003435D01*
X013046Y004480D02*
X013106Y004420D01*
X013226Y004420D01*
X013286Y004480D01*
X013414Y004480D02*
X013414Y004540D01*
X013474Y004600D01*
X013654Y004600D01*
X013654Y004480D01*
X013594Y004420D01*
X013474Y004420D01*
X013414Y004480D01*
X013534Y004720D02*
X013654Y004600D01*
X013534Y004720D02*
X013414Y004780D01*
X013286Y004720D02*
X013226Y004780D01*
X013106Y004780D01*
X013046Y004720D01*
X013046Y004660D01*
X013106Y004600D01*
X013046Y004540D01*
X013046Y004480D01*
X013106Y004600D02*
X013166Y004600D01*
X013782Y004480D02*
X013842Y004420D01*
X013962Y004420D01*
X014022Y004480D01*
X014022Y004720D01*
X013962Y004780D01*
X013842Y004780D01*
X013782Y004720D01*
X012542Y005520D02*
X012542Y005880D01*
X012362Y005880D01*
X012302Y005820D01*
X012302Y005700D01*
X012362Y005640D01*
X012542Y005640D01*
X012422Y005640D02*
X012302Y005520D01*
X012174Y005580D02*
X012114Y005520D01*
X011994Y005520D01*
X011934Y005580D01*
X011934Y005640D01*
X011994Y005700D01*
X012174Y005700D01*
X012174Y005580D01*
X012174Y005700D02*
X012054Y005820D01*
X011934Y005880D01*
X011806Y005820D02*
X011746Y005880D01*
X011626Y005880D01*
X011566Y005820D01*
X011806Y005580D01*
X011746Y005520D01*
X011626Y005520D01*
X011566Y005580D01*
X011566Y005820D01*
X011806Y005820D02*
X011806Y005580D01*
X014857Y005920D02*
X015218Y005920D01*
X015218Y006100D01*
X015158Y006160D01*
X015038Y006160D01*
X014978Y006100D01*
X014978Y005920D01*
X014978Y006040D02*
X014857Y006160D01*
X014918Y006288D02*
X014857Y006348D01*
X014857Y006468D01*
X014918Y006529D01*
X015038Y006529D01*
X015098Y006468D01*
X015098Y006408D01*
X015038Y006288D01*
X015218Y006288D01*
X015218Y006529D01*
X015158Y006657D02*
X015098Y006657D01*
X015038Y006717D01*
X015038Y006837D01*
X014978Y006897D01*
X014918Y006897D01*
X014857Y006837D01*
X014857Y006717D01*
X014918Y006657D01*
X014978Y006657D01*
X015038Y006717D01*
X015038Y006837D02*
X015098Y006897D01*
X015158Y006897D01*
X015218Y006837D01*
X015218Y006717D01*
X015158Y006657D01*
X016176Y005489D02*
X016176Y005249D01*
X016416Y005489D01*
X016476Y005489D01*
X016536Y005429D01*
X016536Y005309D01*
X016476Y005249D01*
X016476Y005120D02*
X016536Y005060D01*
X016536Y004940D01*
X016476Y004880D01*
X016476Y004752D02*
X016536Y004692D01*
X016536Y004512D01*
X016176Y004512D01*
X016176Y004692D01*
X016236Y004752D01*
X016476Y004752D01*
X016176Y004880D02*
X016416Y005120D01*
X016476Y005120D01*
X016176Y005120D02*
X016176Y004880D01*
X016167Y003780D02*
X016287Y003780D01*
X016347Y003720D01*
X016347Y003480D01*
X016287Y003420D01*
X016167Y003420D01*
X016107Y003480D01*
X015979Y003480D02*
X015919Y003420D01*
X015799Y003420D01*
X015739Y003480D01*
X015739Y003540D01*
X015799Y003600D01*
X015979Y003600D01*
X015979Y003480D01*
X015979Y003600D02*
X015859Y003720D01*
X015739Y003780D01*
X015611Y003660D02*
X015491Y003780D01*
X015491Y003420D01*
X015611Y003420D02*
X015371Y003420D01*
X016107Y003720D02*
X016167Y003780D01*
X017476Y005820D02*
X017416Y005880D01*
X017416Y005940D01*
X017476Y006000D01*
X017656Y006000D01*
X017656Y005880D01*
X017596Y005820D01*
X017476Y005820D01*
X017656Y006000D02*
X017536Y006120D01*
X017416Y006180D01*
X017784Y006180D02*
X018024Y006180D01*
X018024Y006000D01*
X017904Y006060D01*
X017844Y006060D01*
X017784Y006000D01*
X017784Y005880D01*
X017844Y005820D01*
X017964Y005820D01*
X018024Y005880D01*
X018152Y005820D02*
X018272Y005940D01*
X018212Y005940D02*
X018392Y005940D01*
X018392Y005820D02*
X018392Y006180D01*
X018212Y006180D01*
X018152Y006120D01*
X018152Y006000D01*
X018212Y005940D01*
X018966Y006120D02*
X019206Y005880D01*
X019206Y005820D01*
X019334Y005880D02*
X019394Y005820D01*
X019514Y005820D01*
X019574Y005880D01*
X019574Y006000D02*
X019454Y006060D01*
X019394Y006060D01*
X019334Y006000D01*
X019334Y005880D01*
X019574Y006000D02*
X019574Y006180D01*
X019334Y006180D01*
X019206Y006180D02*
X018966Y006180D01*
X018966Y006120D01*
X018937Y006520D02*
X018817Y006520D01*
X018757Y006580D01*
X018629Y006580D02*
X018569Y006520D01*
X018449Y006520D01*
X018389Y006580D01*
X018389Y006640D01*
X018449Y006700D01*
X018629Y006700D01*
X018629Y006580D01*
X018629Y006700D02*
X018509Y006820D01*
X018389Y006880D01*
X018261Y006880D02*
X018261Y006700D01*
X018141Y006760D01*
X018081Y006760D01*
X018021Y006700D01*
X018021Y006580D01*
X018081Y006520D01*
X018201Y006520D01*
X018261Y006580D01*
X018261Y006880D02*
X018021Y006880D01*
X018757Y006820D02*
X018817Y006880D01*
X018937Y006880D01*
X018997Y006820D01*
X018997Y006580D01*
X018937Y006520D01*
X019702Y006120D02*
X019702Y006000D01*
X019762Y005940D01*
X019942Y005940D01*
X019822Y005940D02*
X019702Y005820D01*
X019942Y005820D02*
X019942Y006180D01*
X019762Y006180D01*
X019702Y006120D01*
X014086Y009987D02*
X013726Y009987D01*
X013726Y010167D01*
X013786Y010227D01*
X014026Y010227D01*
X014086Y010167D01*
X014086Y009987D01*
X014026Y010355D02*
X014086Y010415D01*
X014086Y010535D01*
X014026Y010595D01*
X013966Y010595D01*
X013726Y010355D01*
X013726Y010595D01*
X013786Y010724D02*
X013726Y010784D01*
X013726Y010904D01*
X013786Y010964D01*
X013846Y010964D01*
X013906Y010904D01*
X013906Y010844D01*
X013906Y010904D02*
X013966Y010964D01*
X014026Y010964D01*
X014086Y010904D01*
X014086Y010784D01*
X014026Y010724D01*
X015721Y010620D02*
X015961Y010620D01*
X015721Y010860D01*
X015721Y010920D01*
X015781Y010980D01*
X015901Y010980D01*
X015961Y010920D01*
X016089Y010980D02*
X016209Y010920D01*
X016329Y010800D01*
X016149Y010800D01*
X016089Y010740D01*
X016089Y010680D01*
X016149Y010620D01*
X016269Y010620D01*
X016329Y010680D01*
X016329Y010800D01*
X016457Y010800D02*
X016517Y010740D01*
X016697Y010740D01*
X016577Y010740D02*
X016457Y010620D01*
X016457Y010800D02*
X016457Y010920D01*
X016517Y010980D01*
X016697Y010980D01*
X016697Y010620D01*
X017296Y010655D02*
X017356Y010595D01*
X017476Y010595D01*
X017536Y010655D01*
X017664Y010655D02*
X017664Y010715D01*
X017724Y010775D01*
X017904Y010775D01*
X017904Y010655D01*
X017844Y010595D01*
X017724Y010595D01*
X017664Y010655D01*
X017784Y010895D02*
X017904Y010775D01*
X018032Y010775D02*
X018092Y010715D01*
X018272Y010715D01*
X018152Y010715D02*
X018032Y010595D01*
X018032Y010775D02*
X018032Y010895D01*
X018092Y010955D01*
X018272Y010955D01*
X018272Y010595D01*
X017784Y010895D02*
X017664Y010955D01*
X017536Y010895D02*
X017476Y010955D01*
X017356Y010955D01*
X017296Y010895D01*
X017296Y010835D01*
X017356Y010775D01*
X017296Y010715D01*
X017296Y010655D01*
X017356Y010775D02*
X017416Y010775D01*
X021921Y011455D02*
X021981Y011395D01*
X022101Y011395D01*
X022161Y011455D01*
X022161Y011575D02*
X022041Y011635D01*
X021981Y011635D01*
X021921Y011575D01*
X021921Y011455D01*
X022161Y011575D02*
X022161Y011755D01*
X021921Y011755D01*
X022289Y011755D02*
X022409Y011695D01*
X022529Y011575D01*
X022349Y011575D01*
X022289Y011515D01*
X022289Y011455D01*
X022349Y011395D01*
X022469Y011395D01*
X022529Y011455D01*
X022529Y011575D01*
X022657Y011575D02*
X022717Y011515D01*
X022897Y011515D01*
X022777Y011515D02*
X022657Y011395D01*
X022657Y011575D02*
X022657Y011695D01*
X022717Y011755D01*
X022897Y011755D01*
X022897Y011395D01*
X023391Y011395D02*
X023631Y011395D01*
X023511Y011395D02*
X023511Y011755D01*
X023631Y011635D01*
X023759Y011695D02*
X023999Y011455D01*
X023999Y011395D01*
X024127Y011395D02*
X024247Y011515D01*
X024187Y011515D02*
X024367Y011515D01*
X024367Y011395D02*
X024367Y011755D01*
X024187Y011755D01*
X024127Y011695D01*
X024127Y011575D01*
X024187Y011515D01*
X023999Y011755D02*
X023759Y011755D01*
X023759Y011695D01*
X023803Y012895D02*
X023803Y013075D01*
X023863Y013135D01*
X023983Y013135D01*
X024043Y013075D01*
X024043Y012895D01*
X023682Y012895D01*
X023803Y013015D02*
X023682Y013135D01*
X023682Y013263D02*
X023743Y013263D01*
X023983Y013504D01*
X024043Y013504D01*
X024043Y013263D01*
X023983Y013632D02*
X024043Y013692D01*
X024043Y013812D01*
X023983Y013872D01*
X023923Y013872D01*
X023682Y013632D01*
X023682Y013872D01*
X024657Y013733D02*
X024718Y013733D01*
X024958Y013974D01*
X025018Y013974D01*
X025018Y013733D01*
X024958Y013605D02*
X024838Y013605D01*
X024778Y013545D01*
X024778Y013365D01*
X024778Y013485D02*
X024657Y013605D01*
X024657Y013365D02*
X025018Y013365D01*
X025018Y013545D01*
X024958Y013605D01*
X025357Y013605D02*
X025478Y013485D01*
X025478Y013545D02*
X025478Y013365D01*
X025357Y013365D02*
X025718Y013365D01*
X025718Y013545D01*
X025658Y013605D01*
X025538Y013605D01*
X025478Y013545D01*
X025418Y013733D02*
X025357Y013733D01*
X025418Y013733D02*
X025658Y013974D01*
X025718Y013974D01*
X025718Y013733D01*
X025658Y014102D02*
X025718Y014162D01*
X025718Y014282D01*
X025658Y014342D01*
X025418Y014102D01*
X025357Y014162D01*
X025357Y014282D01*
X025418Y014342D01*
X025658Y014342D01*
X025658Y014102D02*
X025418Y014102D01*
X025018Y014162D02*
X025018Y014282D01*
X024958Y014342D01*
X024898Y014342D01*
X024838Y014282D01*
X024838Y014162D01*
X024898Y014102D01*
X024958Y014102D01*
X025018Y014162D01*
X024838Y014162D02*
X024778Y014102D01*
X024718Y014102D01*
X024657Y014162D01*
X024657Y014282D01*
X024718Y014342D01*
X024778Y014342D01*
X024838Y014282D01*
X021968Y013812D02*
X021968Y013692D01*
X021908Y013632D01*
X021908Y013504D02*
X021668Y013263D01*
X021607Y013263D01*
X021668Y013135D02*
X021607Y013075D01*
X021607Y012955D01*
X021668Y012895D01*
X021908Y012895D01*
X021968Y012955D01*
X021968Y013075D01*
X021908Y013135D01*
X021968Y013263D02*
X021968Y013504D01*
X021908Y013504D01*
X021968Y013812D02*
X021908Y013872D01*
X021848Y013872D01*
X021607Y013632D01*
X021607Y013872D01*
X024457Y016370D02*
X024818Y016370D01*
X024818Y016550D01*
X024758Y016610D01*
X024638Y016610D01*
X024578Y016550D01*
X024578Y016370D01*
X024578Y016490D02*
X024457Y016610D01*
X024457Y016738D02*
X024518Y016738D01*
X024758Y016979D01*
X024818Y016979D01*
X024818Y016738D01*
X024818Y017107D02*
X024638Y017107D01*
X024698Y017227D01*
X024698Y017287D01*
X024638Y017347D01*
X024518Y017347D01*
X024457Y017287D01*
X024457Y017167D01*
X024518Y017107D01*
X024818Y017107D02*
X024818Y017347D01*
X025346Y017320D02*
X025586Y017320D01*
X025346Y017560D01*
X025346Y017620D01*
X025406Y017680D01*
X025526Y017680D01*
X025586Y017620D01*
X025714Y017680D02*
X025954Y017440D01*
X025894Y017500D02*
X025714Y017320D01*
X025954Y017320D02*
X025954Y017680D01*
X026082Y017620D02*
X026082Y017380D01*
X026142Y017320D01*
X026262Y017320D01*
X026322Y017380D01*
X026322Y017620D01*
X026262Y017680D01*
X026142Y017680D01*
X026082Y017620D01*
X026122Y018095D02*
X026122Y018455D01*
X025942Y018455D01*
X025882Y018395D01*
X025882Y018275D01*
X025942Y018215D01*
X026122Y018215D01*
X026002Y018215D02*
X025882Y018095D01*
X025754Y018155D02*
X025694Y018095D01*
X025574Y018095D01*
X025514Y018155D01*
X025514Y018215D01*
X025574Y018275D01*
X025754Y018275D01*
X025754Y018155D01*
X025754Y018275D02*
X025634Y018395D01*
X025514Y018455D01*
X025386Y018395D02*
X025386Y018335D01*
X025326Y018275D01*
X025206Y018275D01*
X025146Y018215D01*
X025146Y018155D01*
X025206Y018095D01*
X025326Y018095D01*
X025386Y018155D01*
X025386Y018215D01*
X025326Y018275D01*
X025206Y018275D02*
X025146Y018335D01*
X025146Y018395D01*
X025206Y018455D01*
X025326Y018455D01*
X025386Y018395D01*
X025369Y020170D02*
X025249Y020170D01*
X025189Y020230D01*
X025189Y020290D01*
X025249Y020350D01*
X025429Y020350D01*
X025429Y020230D01*
X025369Y020170D01*
X025557Y020170D02*
X025677Y020290D01*
X025617Y020290D02*
X025797Y020290D01*
X025797Y020170D02*
X025797Y020530D01*
X025617Y020530D01*
X025557Y020470D01*
X025557Y020350D01*
X025617Y020290D01*
X025429Y020350D02*
X025309Y020470D01*
X025189Y020530D01*
X025061Y020530D02*
X024821Y020530D01*
X024821Y020470D01*
X025061Y020230D01*
X025061Y020170D01*
X024197Y020170D02*
X024197Y020530D01*
X024017Y020530D01*
X023957Y020470D01*
X023957Y020350D01*
X024017Y020290D01*
X024197Y020290D01*
X024077Y020290D02*
X023957Y020170D01*
X023829Y020170D02*
X023829Y020230D01*
X023589Y020470D01*
X023589Y020530D01*
X023829Y020530D01*
X023461Y020530D02*
X023221Y020530D01*
X023221Y020470D01*
X023461Y020230D01*
X023461Y020170D01*
X022843Y020205D02*
X022783Y020145D01*
X022543Y020145D01*
X022482Y020205D01*
X022482Y020325D01*
X022543Y020385D01*
X022543Y020513D02*
X022482Y020573D01*
X022482Y020693D01*
X022543Y020754D01*
X022603Y020754D01*
X022663Y020693D01*
X022663Y020513D01*
X022543Y020513D01*
X022663Y020513D02*
X022783Y020633D01*
X022843Y020754D01*
X022783Y020882D02*
X022723Y020882D01*
X022663Y020942D01*
X022663Y021062D01*
X022603Y021122D01*
X022543Y021122D01*
X022482Y021062D01*
X022482Y020942D01*
X022543Y020882D01*
X022603Y020882D01*
X022663Y020942D01*
X022663Y021062D02*
X022723Y021122D01*
X022783Y021122D01*
X022843Y021062D01*
X022843Y020942D01*
X022783Y020882D01*
X022783Y020385D02*
X022843Y020325D01*
X022843Y020205D01*
X020842Y020870D02*
X020842Y021230D01*
X020662Y021230D01*
X020602Y021170D01*
X020602Y021050D01*
X020662Y020990D01*
X020842Y020990D01*
X020722Y020990D02*
X020602Y020870D01*
X020474Y020930D02*
X020414Y020870D01*
X020294Y020870D01*
X020234Y020930D01*
X020234Y020990D01*
X020294Y021050D01*
X020474Y021050D01*
X020474Y020930D01*
X020474Y021050D02*
X020354Y021170D01*
X020234Y021230D01*
X020106Y021170D02*
X020046Y021230D01*
X019926Y021230D01*
X019866Y021170D01*
X019866Y020930D01*
X019926Y020870D01*
X020046Y020870D01*
X020106Y020930D01*
X020046Y021050D02*
X019866Y021050D01*
X020046Y021050D02*
X020106Y021110D01*
X020106Y021170D01*
X019167Y020945D02*
X019167Y020705D01*
X019107Y020645D01*
X018987Y020645D01*
X018927Y020705D01*
X018799Y020705D02*
X018739Y020645D01*
X018619Y020645D01*
X018559Y020705D01*
X018559Y020765D01*
X018619Y020825D01*
X018799Y020825D01*
X018799Y020705D01*
X018799Y020825D02*
X018679Y020945D01*
X018559Y021005D01*
X018431Y020825D02*
X018191Y020825D01*
X018251Y020645D02*
X018251Y021005D01*
X018431Y020825D01*
X018927Y020945D02*
X018987Y021005D01*
X019107Y021005D01*
X019167Y020945D01*
X016018Y018937D02*
X015958Y018997D01*
X015898Y018997D01*
X015838Y018937D01*
X015778Y018997D01*
X015718Y018997D01*
X015657Y018937D01*
X015657Y018817D01*
X015718Y018757D01*
X015838Y018877D02*
X015838Y018937D01*
X016018Y018937D02*
X016018Y018817D01*
X015958Y018757D01*
X015958Y018629D02*
X015718Y018388D01*
X015657Y018388D01*
X015718Y018260D02*
X015657Y018200D01*
X015657Y018080D01*
X015718Y018020D01*
X015958Y018020D01*
X016018Y018080D01*
X016018Y018200D01*
X015958Y018260D01*
X016018Y018388D02*
X016018Y018629D01*
X015958Y018629D01*
X015147Y018320D02*
X015147Y018080D01*
X015087Y018020D01*
X014967Y018020D01*
X014907Y018080D01*
X014779Y018080D02*
X014779Y018020D01*
X014779Y018080D02*
X014539Y018320D01*
X014539Y018380D01*
X014779Y018380D01*
X014907Y018320D02*
X014967Y018380D01*
X015087Y018380D01*
X015147Y018320D01*
X014411Y018200D02*
X014171Y018200D01*
X014231Y018020D02*
X014231Y018380D01*
X014411Y018200D01*
X012002Y017405D02*
X011882Y017405D01*
X011942Y017405D02*
X011942Y017045D01*
X012002Y017045D02*
X011882Y017045D01*
X011757Y017105D02*
X011697Y017045D01*
X011577Y017045D01*
X011517Y017105D01*
X011389Y017105D02*
X011329Y017045D01*
X011208Y017045D01*
X011148Y017105D01*
X011148Y017345D01*
X011208Y017405D01*
X011329Y017405D01*
X011389Y017345D01*
X011389Y017285D01*
X011329Y017225D01*
X011148Y017225D01*
X011517Y017345D02*
X011577Y017405D01*
X011697Y017405D01*
X011757Y017345D01*
X011757Y017105D01*
X010068Y015907D02*
X010008Y015967D01*
X009768Y015727D01*
X009707Y015787D01*
X009707Y015907D01*
X009768Y015967D01*
X010008Y015967D01*
X010068Y015907D02*
X010068Y015787D01*
X010008Y015727D01*
X009768Y015727D01*
X009768Y015599D02*
X009707Y015539D01*
X009707Y015418D01*
X009768Y015358D01*
X009828Y015358D01*
X009888Y015418D01*
X009888Y015539D01*
X009828Y015599D01*
X009768Y015599D01*
X009888Y015539D02*
X009948Y015599D01*
X010008Y015599D01*
X010068Y015539D01*
X010068Y015418D01*
X010008Y015358D01*
X009948Y015358D01*
X009888Y015418D01*
X009888Y015230D02*
X009828Y015170D01*
X009828Y014990D01*
X009828Y015110D02*
X009707Y015230D01*
X009888Y015230D02*
X010008Y015230D01*
X010068Y015170D01*
X010068Y014990D01*
X009707Y014990D01*
X009318Y014990D02*
X009318Y015170D01*
X009258Y015230D01*
X009138Y015230D01*
X009078Y015170D01*
X009078Y014990D01*
X009078Y015110D02*
X008957Y015230D01*
X009018Y015358D02*
X009078Y015358D01*
X009138Y015418D01*
X009138Y015539D01*
X009078Y015599D01*
X009018Y015599D01*
X008957Y015539D01*
X008957Y015418D01*
X009018Y015358D01*
X009138Y015418D02*
X009198Y015358D01*
X009258Y015358D01*
X009318Y015418D01*
X009318Y015539D01*
X009258Y015599D01*
X009198Y015599D01*
X009138Y015539D01*
X009258Y015727D02*
X009318Y015787D01*
X009318Y015907D01*
X009258Y015967D01*
X009198Y015967D01*
X008957Y015727D01*
X008957Y015967D01*
X008543Y015847D02*
X008182Y015847D01*
X008182Y015727D02*
X008182Y015967D01*
X008423Y015727D02*
X008543Y015847D01*
X008483Y015599D02*
X008423Y015599D01*
X008363Y015539D01*
X008363Y015418D01*
X008423Y015358D01*
X008483Y015358D01*
X008543Y015418D01*
X008543Y015539D01*
X008483Y015599D01*
X008363Y015539D02*
X008303Y015599D01*
X008243Y015599D01*
X008182Y015539D01*
X008182Y015418D01*
X008243Y015358D01*
X008303Y015358D01*
X008363Y015418D01*
X008363Y015230D02*
X008303Y015170D01*
X008303Y014990D01*
X008303Y015110D02*
X008182Y015230D01*
X008363Y015230D02*
X008483Y015230D01*
X008543Y015170D01*
X008543Y014990D01*
X008182Y014990D01*
X008957Y014990D02*
X009318Y014990D01*
X012496Y015380D02*
X012556Y015320D01*
X012676Y015320D01*
X012736Y015380D01*
X012864Y015380D02*
X012924Y015320D01*
X013044Y015320D01*
X013104Y015380D01*
X013104Y015440D01*
X013044Y015500D01*
X012924Y015500D01*
X012864Y015440D01*
X012864Y015380D01*
X012924Y015500D02*
X012864Y015560D01*
X012864Y015620D01*
X012924Y015680D01*
X013044Y015680D01*
X013104Y015620D01*
X013104Y015560D01*
X013044Y015500D01*
X013232Y015500D02*
X013292Y015440D01*
X013472Y015440D01*
X013352Y015440D02*
X013232Y015320D01*
X013232Y015500D02*
X013232Y015620D01*
X013292Y015680D01*
X013472Y015680D01*
X013472Y015320D01*
X012736Y015620D02*
X012676Y015680D01*
X012556Y015680D01*
X012496Y015620D01*
X012496Y015560D01*
X012556Y015500D01*
X012496Y015440D01*
X012496Y015380D01*
X012556Y015500D02*
X012616Y015500D01*
X014391Y016005D02*
X014391Y016245D01*
X014451Y016305D01*
X014571Y016305D01*
X014631Y016245D01*
X014631Y016185D01*
X014571Y016125D01*
X014391Y016125D01*
X014391Y016005D02*
X014451Y015945D01*
X014571Y015945D01*
X014631Y016005D01*
X014759Y016245D02*
X014999Y016005D01*
X014999Y015945D01*
X015127Y015945D02*
X015247Y016065D01*
X015187Y016065D02*
X015367Y016065D01*
X015367Y015945D02*
X015367Y016305D01*
X015187Y016305D01*
X015127Y016245D01*
X015127Y016125D01*
X015187Y016065D01*
X014999Y016305D02*
X014759Y016305D01*
X014759Y016245D01*
X017382Y017065D02*
X017743Y017065D01*
X017743Y017245D01*
X017683Y017305D01*
X017563Y017305D01*
X017503Y017245D01*
X017503Y017065D01*
X017503Y017185D02*
X017382Y017305D01*
X017443Y017433D02*
X017382Y017493D01*
X017382Y017614D01*
X017443Y017674D01*
X017503Y017674D01*
X017563Y017614D01*
X017563Y017433D01*
X017443Y017433D01*
X017563Y017433D02*
X017683Y017553D01*
X017743Y017674D01*
X017563Y017802D02*
X017563Y017982D01*
X017503Y018042D01*
X017443Y018042D01*
X017382Y017982D01*
X017382Y017862D01*
X017443Y017802D01*
X017563Y017802D01*
X017683Y017922D01*
X017743Y018042D01*
X018157Y018032D02*
X018518Y018032D01*
X018338Y017852D01*
X018338Y018092D01*
X018278Y017724D02*
X018338Y017664D01*
X018338Y017483D01*
X018218Y017483D01*
X018157Y017543D01*
X018157Y017664D01*
X018218Y017724D01*
X018278Y017724D01*
X018458Y017603D02*
X018338Y017483D01*
X018338Y017355D02*
X018278Y017295D01*
X018278Y017115D01*
X018278Y017235D02*
X018157Y017355D01*
X018338Y017355D02*
X018458Y017355D01*
X018518Y017295D01*
X018518Y017115D01*
X018157Y017115D01*
X018516Y017245D02*
X018756Y017005D01*
X018756Y016945D01*
X018884Y017005D02*
X018884Y017065D01*
X018944Y017125D01*
X019124Y017125D01*
X019124Y017005D01*
X019064Y016945D01*
X018944Y016945D01*
X018884Y017005D01*
X019004Y017245D02*
X019124Y017125D01*
X019004Y017245D02*
X018884Y017305D01*
X018756Y017305D02*
X018516Y017305D01*
X018516Y017245D01*
X018458Y017603D02*
X018518Y017724D01*
X019252Y017245D02*
X019312Y017305D01*
X019432Y017305D01*
X019492Y017245D01*
X019492Y017005D01*
X019432Y016945D01*
X019312Y016945D01*
X019252Y017005D01*
X010997Y021055D02*
X010937Y020995D01*
X010817Y020995D01*
X010757Y021055D01*
X010629Y020995D02*
X010389Y021235D01*
X010389Y021295D01*
X010449Y021355D01*
X010569Y021355D01*
X010629Y021295D01*
X010757Y021295D02*
X010817Y021355D01*
X010937Y021355D01*
X010997Y021295D01*
X010997Y021055D01*
X010629Y020995D02*
X010389Y020995D01*
X010261Y020995D02*
X010021Y021235D01*
X010021Y021295D01*
X010081Y021355D01*
X010201Y021355D01*
X010261Y021295D01*
X010261Y020995D02*
X010021Y020995D01*
X009722Y020880D02*
X009542Y020880D01*
X009482Y020820D01*
X009482Y020700D01*
X009542Y020640D01*
X009722Y020640D01*
X009602Y020640D02*
X009482Y020520D01*
X009354Y020580D02*
X009354Y020640D01*
X009294Y020700D01*
X009174Y020700D01*
X009114Y020640D01*
X009114Y020580D01*
X009174Y020520D01*
X009294Y020520D01*
X009354Y020580D01*
X009294Y020700D02*
X009354Y020760D01*
X009354Y020820D01*
X009294Y020880D01*
X009174Y020880D01*
X009114Y020820D01*
X009114Y020760D01*
X009174Y020700D01*
X008986Y020700D02*
X008746Y020700D01*
X008806Y020520D02*
X008806Y020880D01*
X008986Y020700D01*
X009722Y020520D02*
X009722Y020880D01*
X009672Y021545D02*
X009672Y021905D01*
X009492Y021905D01*
X009432Y021845D01*
X009432Y021725D01*
X009492Y021665D01*
X009672Y021665D01*
X009552Y021665D02*
X009432Y021545D01*
X009304Y021545D02*
X009064Y021545D01*
X009184Y021545D02*
X009184Y021905D01*
X009304Y021785D01*
X008936Y021845D02*
X008876Y021905D01*
X008756Y021905D01*
X008696Y021845D01*
X008696Y021785D01*
X008756Y021725D01*
X008696Y021665D01*
X008696Y021605D01*
X008756Y021545D01*
X008876Y021545D01*
X008936Y021605D01*
X008816Y021725D02*
X008756Y021725D01*
X008399Y021741D02*
X008399Y021922D01*
X008339Y021982D01*
X008099Y021982D01*
X008039Y021922D01*
X008039Y021741D01*
X008399Y021741D01*
X008399Y022110D02*
X008399Y022350D01*
X008339Y022350D01*
X008099Y022110D01*
X008039Y022110D01*
X007624Y022170D02*
X007564Y022110D01*
X007504Y022110D01*
X007444Y022170D01*
X007444Y022350D01*
X007564Y022350D02*
X007624Y022290D01*
X007624Y022170D01*
X007564Y022350D02*
X007324Y022350D01*
X007264Y022290D01*
X007264Y022170D01*
X007324Y022110D01*
X007324Y021982D02*
X007564Y021982D01*
X007624Y021922D01*
X007624Y021741D01*
X007264Y021741D01*
X007264Y021922D01*
X007324Y021982D01*
X007221Y020605D02*
X007461Y020605D01*
X007461Y020425D01*
X007341Y020485D01*
X007281Y020485D01*
X007221Y020425D01*
X007221Y020305D01*
X007281Y020245D01*
X007401Y020245D01*
X007461Y020305D01*
X007589Y020545D02*
X007829Y020305D01*
X007829Y020245D01*
X007957Y020305D02*
X008017Y020245D01*
X008137Y020245D01*
X008197Y020305D01*
X008197Y020545D01*
X008137Y020605D01*
X008017Y020605D01*
X007957Y020545D01*
X007829Y020605D02*
X007589Y020605D01*
X007589Y020545D01*
X004997Y019095D02*
X004997Y018855D01*
X004937Y018795D01*
X004817Y018795D01*
X004757Y018855D01*
X004629Y018855D02*
X004569Y018795D01*
X004449Y018795D01*
X004389Y018855D01*
X004389Y018975D01*
X004449Y019035D01*
X004509Y019035D01*
X004629Y018975D01*
X004629Y019155D01*
X004389Y019155D01*
X004261Y019095D02*
X004261Y019035D01*
X004201Y018975D01*
X004021Y018975D01*
X004021Y018855D02*
X004021Y019095D01*
X004081Y019155D01*
X004201Y019155D01*
X004261Y019095D01*
X004261Y018855D02*
X004201Y018795D01*
X004081Y018795D01*
X004021Y018855D01*
X004757Y019095D02*
X004817Y019155D01*
X004937Y019155D01*
X004997Y019095D01*
X008045Y018145D02*
X008285Y017905D01*
X008225Y017845D01*
X008105Y017845D01*
X008045Y017905D01*
X008045Y018145D01*
X008105Y018205D01*
X008225Y018205D01*
X008285Y018145D01*
X008285Y017905D01*
X008413Y017845D02*
X008654Y017845D01*
X008534Y017845D02*
X008534Y018205D01*
X008654Y018085D01*
X008782Y018145D02*
X008842Y018205D01*
X008962Y018205D01*
X009022Y018145D01*
X009022Y017905D01*
X008962Y017845D01*
X008842Y017845D01*
X008782Y017905D01*
X009147Y017845D02*
X009267Y017845D01*
X009207Y017845D02*
X009207Y018205D01*
X009267Y018205D02*
X009147Y018205D01*
X006718Y023995D02*
X006718Y024175D01*
X006658Y024235D01*
X006538Y024235D01*
X006478Y024175D01*
X006478Y023995D01*
X006478Y024115D02*
X006357Y024235D01*
X006357Y024363D02*
X006357Y024604D01*
X006357Y024483D02*
X006718Y024483D01*
X006598Y024363D01*
X006538Y024732D02*
X006538Y024972D01*
X006718Y024912D02*
X006538Y024732D01*
X006718Y024912D02*
X006357Y024912D01*
X005893Y024972D02*
X005893Y024732D01*
X005713Y024732D01*
X005773Y024852D01*
X005773Y024912D01*
X005713Y024972D01*
X005593Y024972D01*
X005532Y024912D01*
X005532Y024792D01*
X005593Y024732D01*
X005532Y024604D02*
X005532Y024363D01*
X005532Y024483D02*
X005893Y024483D01*
X005773Y024363D01*
X005833Y024235D02*
X005713Y024235D01*
X005653Y024175D01*
X005653Y023995D01*
X005653Y024115D02*
X005532Y024235D01*
X005532Y023995D02*
X005893Y023995D01*
X005893Y024175D01*
X005833Y024235D01*
X006357Y023995D02*
X006718Y023995D01*
X009007Y025220D02*
X009368Y025220D01*
X009368Y025400D01*
X009308Y025460D01*
X009188Y025460D01*
X009128Y025400D01*
X009128Y025220D01*
X009128Y025340D02*
X009007Y025460D01*
X009007Y025588D02*
X009007Y025829D01*
X009007Y025708D02*
X009368Y025708D01*
X009248Y025588D01*
X009308Y025957D02*
X009368Y026017D01*
X009368Y026137D01*
X009308Y026197D01*
X009248Y026197D01*
X009007Y025957D01*
X009007Y026197D01*
X010246Y026355D02*
X010306Y026295D01*
X010426Y026295D01*
X010486Y026355D01*
X010614Y026295D02*
X010854Y026295D01*
X010614Y026535D01*
X010614Y026595D01*
X010674Y026655D01*
X010794Y026655D01*
X010854Y026595D01*
X010982Y026595D02*
X011042Y026655D01*
X011162Y026655D01*
X011222Y026595D01*
X011222Y026355D01*
X011162Y026295D01*
X011042Y026295D01*
X010982Y026355D01*
X010486Y026595D02*
X010426Y026655D01*
X010306Y026655D01*
X010246Y026595D01*
X010246Y026535D01*
X010306Y026475D01*
X010246Y026415D01*
X010246Y026355D01*
X010306Y026475D02*
X010366Y026475D01*
X006599Y027016D02*
X006599Y027197D01*
X006539Y027257D01*
X006299Y027257D01*
X006239Y027197D01*
X006239Y027016D01*
X006599Y027016D01*
X006419Y027385D02*
X006299Y027385D01*
X006239Y027445D01*
X006239Y027565D01*
X006299Y027625D01*
X006359Y027625D01*
X006419Y027565D01*
X006419Y027385D01*
X006539Y027505D01*
X006599Y027625D01*
X005749Y027565D02*
X005689Y027625D01*
X005629Y027625D01*
X005569Y027565D01*
X005509Y027625D01*
X005449Y027625D01*
X005389Y027565D01*
X005389Y027445D01*
X005449Y027385D01*
X005449Y027257D02*
X005689Y027257D01*
X005749Y027197D01*
X005749Y027016D01*
X005389Y027016D01*
X005389Y027197D01*
X005449Y027257D01*
X005689Y027385D02*
X005749Y027445D01*
X005749Y027565D01*
X005569Y027565D02*
X005569Y027505D01*
X007351Y029445D02*
X007291Y029505D01*
X007291Y029565D01*
X007351Y029625D01*
X007531Y029625D01*
X007531Y029505D01*
X007471Y029445D01*
X007351Y029445D01*
X007531Y029625D02*
X007411Y029745D01*
X007291Y029805D01*
X007779Y029805D02*
X007779Y029445D01*
X007899Y029445D02*
X007659Y029445D01*
X007899Y029685D02*
X007779Y029805D01*
X008027Y029745D02*
X008087Y029805D01*
X008207Y029805D01*
X008267Y029745D01*
X008267Y029505D01*
X008207Y029445D01*
X008087Y029445D01*
X008027Y029505D01*
X005343Y030080D02*
X005283Y030020D01*
X005043Y030020D01*
X004982Y030080D01*
X004982Y030200D01*
X005043Y030260D01*
X004982Y030388D02*
X004982Y030629D01*
X004982Y030508D02*
X005343Y030508D01*
X005223Y030388D01*
X005283Y030260D02*
X005343Y030200D01*
X005343Y030080D01*
X005343Y030757D02*
X005343Y030997D01*
X005283Y030997D01*
X005043Y030757D01*
X004982Y030757D01*
X015567Y030655D02*
X015567Y030295D01*
X015747Y030295D01*
X015807Y030355D01*
X015807Y030475D01*
X015747Y030535D01*
X015567Y030535D01*
X015935Y030475D02*
X015995Y030535D01*
X016116Y030535D01*
X016176Y030475D01*
X016176Y030355D01*
X016116Y030295D01*
X015995Y030295D01*
X015935Y030355D01*
X015935Y030475D01*
X016304Y030475D02*
X016364Y030535D01*
X016484Y030535D01*
X016544Y030475D01*
X016544Y030355D01*
X016484Y030295D01*
X016364Y030295D01*
X016304Y030355D01*
X016304Y030475D01*
X016672Y030535D02*
X016672Y030235D01*
X016732Y030175D01*
X016792Y030175D01*
X016852Y030295D02*
X016672Y030295D01*
X016852Y030295D02*
X016912Y030355D01*
X016912Y030475D01*
X016852Y030535D01*
X016672Y030535D01*
X016611Y030895D02*
X016791Y030895D01*
X016851Y030955D01*
X016851Y031075D01*
X016791Y031135D01*
X016611Y031135D01*
X016611Y031255D02*
X016611Y030895D01*
X016483Y030955D02*
X016483Y031075D01*
X016423Y031135D01*
X016242Y031135D01*
X016242Y030895D02*
X016423Y030895D01*
X016483Y030955D01*
X016979Y031015D02*
X016979Y031255D01*
X016979Y031015D02*
X017099Y030895D01*
X017219Y031015D01*
X017219Y031255D01*
X017347Y031255D02*
X017588Y031255D01*
X017588Y031075D01*
X017467Y031135D01*
X017407Y031135D01*
X017347Y031075D01*
X017347Y030955D01*
X017407Y030895D01*
X017527Y030895D01*
X017588Y030955D01*
X017716Y031075D02*
X017956Y031075D01*
X017836Y031195D02*
X017836Y030955D01*
X017776Y030655D02*
X017716Y030595D01*
X017716Y030475D01*
X017776Y030415D01*
X017956Y030415D01*
X017956Y030295D02*
X017956Y030655D01*
X017776Y030655D01*
X017588Y030535D02*
X017588Y030355D01*
X017527Y030295D01*
X017467Y030355D01*
X017407Y030295D01*
X017347Y030355D01*
X017347Y030535D01*
X017219Y030535D02*
X017219Y030295D01*
X017219Y030415D02*
X017099Y030535D01*
X017039Y030535D01*
X017162Y029935D02*
X017102Y029875D01*
X017102Y029695D01*
X017282Y029695D01*
X017342Y029755D01*
X017282Y029815D01*
X017102Y029815D01*
X017162Y029935D02*
X017282Y029935D01*
X017527Y029935D02*
X017527Y029695D01*
X017467Y029695D02*
X017588Y029695D01*
X017716Y029755D02*
X017776Y029695D01*
X017956Y029695D01*
X017956Y030055D01*
X017776Y030055D01*
X017716Y029995D01*
X017716Y029935D01*
X017776Y029875D01*
X017956Y029875D01*
X017776Y029875D02*
X017716Y029815D01*
X017716Y029755D01*
X017588Y029935D02*
X017527Y029935D01*
X017527Y030055D02*
X017527Y030115D01*
X016974Y029875D02*
X016914Y029935D01*
X016733Y029935D01*
X016794Y029815D02*
X016914Y029815D01*
X016974Y029875D01*
X016974Y029695D02*
X016794Y029695D01*
X016733Y029755D01*
X016794Y029815D01*
X016605Y029875D02*
X016365Y029875D01*
X016485Y029995D02*
X016485Y029755D01*
X016733Y029335D02*
X016914Y029335D01*
X016974Y029275D01*
X016914Y029215D01*
X016794Y029215D01*
X016733Y029155D01*
X016794Y029095D01*
X016974Y029095D01*
X017102Y029095D02*
X017282Y029095D01*
X017342Y029155D01*
X017282Y029215D01*
X017102Y029215D01*
X017102Y029275D02*
X017102Y029095D01*
X017102Y029275D02*
X017162Y029335D01*
X017282Y029335D01*
X017527Y029335D02*
X017527Y029095D01*
X017467Y029095D02*
X017588Y029095D01*
X017716Y029155D02*
X017776Y029095D01*
X017956Y029095D01*
X017956Y029455D01*
X017776Y029455D01*
X017716Y029395D01*
X017716Y029335D01*
X017776Y029275D01*
X017956Y029275D01*
X017776Y029275D02*
X017716Y029215D01*
X017716Y029155D01*
X017588Y029335D02*
X017527Y029335D01*
X017527Y029455D02*
X017527Y029515D01*
X017716Y028855D02*
X017716Y028555D01*
X017776Y028495D01*
X017896Y028495D01*
X017956Y028555D01*
X017956Y028855D01*
X018452Y029095D02*
X018692Y029095D01*
X018452Y029335D01*
X018452Y029395D01*
X018512Y029455D01*
X018632Y029455D01*
X018692Y029395D01*
X018632Y029695D02*
X018692Y029755D01*
X018632Y029695D02*
X018512Y029695D01*
X018452Y029755D01*
X018452Y029815D01*
X018512Y029875D01*
X018572Y029875D01*
X018512Y029875D02*
X018452Y029935D01*
X018452Y029995D01*
X018512Y030055D01*
X018632Y030055D01*
X018692Y029995D01*
X018512Y030295D02*
X018512Y030655D01*
X018692Y030475D01*
X018452Y030475D01*
X018512Y030895D02*
X018632Y030895D01*
X018692Y030955D01*
X018692Y031075D02*
X018572Y031135D01*
X018512Y031135D01*
X018452Y031075D01*
X018452Y030955D01*
X018512Y030895D01*
X018692Y031075D02*
X018692Y031255D01*
X018452Y031255D01*
X018512Y031495D02*
X018452Y031555D01*
X018452Y031615D01*
X018512Y031675D01*
X018692Y031675D01*
X018692Y031555D01*
X018632Y031495D01*
X018512Y031495D01*
X018692Y031675D02*
X018572Y031795D01*
X018452Y031855D01*
X018692Y032095D02*
X018692Y032155D01*
X018452Y032395D01*
X018452Y032455D01*
X018692Y032455D01*
X018632Y032695D02*
X018692Y032755D01*
X018692Y032815D01*
X018632Y032875D01*
X018512Y032875D01*
X018452Y032815D01*
X018452Y032755D01*
X018512Y032695D01*
X018632Y032695D01*
X018632Y032875D02*
X018692Y032935D01*
X018692Y032995D01*
X018632Y033055D01*
X018512Y033055D01*
X018452Y032995D01*
X018452Y032935D01*
X018512Y032875D01*
X017956Y032875D02*
X017716Y032875D01*
X017588Y032935D02*
X017527Y032875D01*
X017347Y032875D01*
X017347Y032755D02*
X017347Y032995D01*
X017407Y033055D01*
X017527Y033055D01*
X017588Y032995D01*
X017588Y032935D01*
X017588Y032755D02*
X017527Y032695D01*
X017407Y032695D01*
X017347Y032755D01*
X017219Y032815D02*
X017099Y032695D01*
X016979Y032815D01*
X016979Y033055D01*
X016851Y032875D02*
X016791Y032935D01*
X016611Y032935D01*
X016611Y033055D02*
X016611Y032695D01*
X016791Y032695D01*
X016851Y032755D01*
X016851Y032875D01*
X016483Y032875D02*
X016483Y032755D01*
X016423Y032695D01*
X016242Y032695D01*
X016242Y032935D02*
X016423Y032935D01*
X016483Y032875D01*
X016611Y032455D02*
X016611Y032095D01*
X016791Y032095D01*
X016851Y032155D01*
X016851Y032275D01*
X016791Y032335D01*
X016611Y032335D01*
X016483Y032275D02*
X016483Y032155D01*
X016423Y032095D01*
X016242Y032095D01*
X016242Y032335D02*
X016423Y032335D01*
X016483Y032275D01*
X016979Y032215D02*
X017099Y032095D01*
X017219Y032215D01*
X017219Y032455D01*
X017347Y032455D02*
X017588Y032455D01*
X017588Y032275D01*
X017467Y032335D01*
X017407Y032335D01*
X017347Y032275D01*
X017347Y032155D01*
X017407Y032095D01*
X017527Y032095D01*
X017588Y032155D01*
X017716Y032275D02*
X017956Y032275D01*
X017896Y031855D02*
X017956Y031795D01*
X017956Y031555D01*
X017896Y031495D01*
X017776Y031495D01*
X017716Y031555D01*
X017716Y031675D01*
X017836Y031675D01*
X017716Y031795D02*
X017776Y031855D01*
X017896Y031855D01*
X017588Y031735D02*
X017407Y031735D01*
X017347Y031675D01*
X017347Y031495D01*
X017219Y031555D02*
X017219Y031675D01*
X017159Y031735D01*
X016979Y031735D01*
X016979Y031855D02*
X016979Y031495D01*
X017159Y031495D01*
X017219Y031555D01*
X017588Y031495D02*
X017588Y031735D01*
X016979Y032215D02*
X016979Y032455D01*
X017219Y032815D02*
X017219Y033055D01*
X017283Y033545D02*
X017283Y033785D01*
X017102Y033785D01*
X017042Y033725D01*
X017042Y033545D01*
X016914Y033605D02*
X016914Y033725D01*
X016854Y033785D01*
X016734Y033785D01*
X016674Y033725D01*
X016674Y033665D01*
X016914Y033665D01*
X016914Y033605D02*
X016854Y033545D01*
X016734Y033545D01*
X016546Y033605D02*
X016486Y033545D01*
X016306Y033545D01*
X016118Y033605D02*
X016058Y033545D01*
X016118Y033605D02*
X016118Y033845D01*
X016178Y033785D02*
X016058Y033785D01*
X015932Y033725D02*
X015932Y033605D01*
X015872Y033545D01*
X015752Y033545D01*
X015692Y033605D01*
X015692Y033725D01*
X015752Y033785D01*
X015872Y033785D01*
X015932Y033725D01*
X015564Y033665D02*
X015444Y033785D01*
X015384Y033785D01*
X015564Y033785D02*
X015564Y033545D01*
X016306Y033785D02*
X016486Y033785D01*
X016546Y033725D01*
X016546Y033605D01*
X017411Y033545D02*
X017411Y033725D01*
X017471Y033785D01*
X017651Y033785D01*
X017651Y033545D01*
X017779Y033605D02*
X017779Y033725D01*
X017839Y033785D01*
X017959Y033785D01*
X018019Y033725D01*
X018019Y033605D01*
X017959Y033545D01*
X017839Y033545D01*
X017779Y033605D01*
X018147Y033545D02*
X018327Y033545D01*
X018388Y033605D01*
X018388Y033725D01*
X018327Y033785D01*
X018147Y033785D01*
X018884Y033785D02*
X018944Y033725D01*
X018884Y033665D01*
X018884Y033605D01*
X018944Y033545D01*
X019064Y033545D01*
X019124Y033605D01*
X019252Y033545D02*
X019492Y033905D01*
X019252Y033905D02*
X019492Y033545D01*
X019124Y033845D02*
X019064Y033905D01*
X018944Y033905D01*
X018884Y033845D01*
X018884Y033785D01*
X018944Y033725D02*
X019004Y033725D01*
X016605Y029275D02*
X016365Y029275D01*
X016483Y028855D02*
X016242Y028495D01*
X016242Y028855D01*
X016483Y028855D02*
X016483Y028495D01*
X016611Y028555D02*
X016611Y028795D01*
X016671Y028855D01*
X016791Y028855D01*
X016851Y028795D01*
X016851Y028555D01*
X016791Y028495D01*
X016671Y028495D01*
X016611Y028555D01*
X016979Y028495D02*
X016979Y028855D01*
X017099Y028735D01*
X017219Y028855D01*
X017219Y028495D01*
X017347Y028435D02*
X017588Y028435D01*
X018452Y028495D02*
X018692Y028495D01*
X018572Y028495D02*
X018572Y028855D01*
X018692Y028735D01*
X016942Y026305D02*
X016762Y026305D01*
X016702Y026245D01*
X016702Y026125D01*
X016762Y026065D01*
X016942Y026065D01*
X016822Y026065D02*
X016702Y025945D01*
X016574Y025945D02*
X016334Y026185D01*
X016334Y026245D01*
X016394Y026305D01*
X016514Y026305D01*
X016574Y026245D01*
X016574Y025945D02*
X016334Y025945D01*
X016206Y025945D02*
X015966Y026185D01*
X015966Y026245D01*
X016026Y026305D01*
X016146Y026305D01*
X016206Y026245D01*
X016206Y025945D02*
X015966Y025945D01*
X016942Y025945D02*
X016942Y026305D01*
X016942Y024755D02*
X016762Y024755D01*
X016702Y024695D01*
X016702Y024575D01*
X016762Y024515D01*
X016942Y024515D01*
X016822Y024515D02*
X016702Y024395D01*
X016574Y024395D02*
X016334Y024395D01*
X016454Y024395D02*
X016454Y024755D01*
X016574Y024635D01*
X016206Y024635D02*
X016146Y024575D01*
X016026Y024575D01*
X015966Y024515D01*
X015966Y024455D01*
X016026Y024395D01*
X016146Y024395D01*
X016206Y024455D01*
X016206Y024515D01*
X016146Y024575D01*
X016206Y024635D02*
X016206Y024695D01*
X016146Y024755D01*
X016026Y024755D01*
X015966Y024695D01*
X015966Y024635D01*
X016026Y024575D01*
X016942Y024395D02*
X016942Y024755D01*
X019316Y025320D02*
X019556Y025320D01*
X019436Y025320D02*
X019436Y025680D01*
X019556Y025560D01*
X019684Y025680D02*
X019924Y025440D01*
X019864Y025500D02*
X019684Y025320D01*
X019924Y025320D02*
X019924Y025680D01*
X020052Y025620D02*
X020112Y025680D01*
X020232Y025680D01*
X020292Y025620D01*
X020292Y025380D01*
X020232Y025320D01*
X020112Y025320D01*
X020052Y025380D01*
X020052Y025620D01*
X027707Y025012D02*
X027707Y024892D01*
X027768Y024832D01*
X028008Y025072D01*
X027768Y025072D01*
X027707Y025012D01*
X027768Y024832D02*
X028008Y024832D01*
X028068Y024892D01*
X028068Y025012D01*
X028008Y025072D01*
X028008Y024704D02*
X028068Y024643D01*
X028068Y024523D01*
X028008Y024463D01*
X028008Y024335D02*
X027888Y024335D01*
X027828Y024275D01*
X027828Y024095D01*
X027828Y024215D02*
X027707Y024335D01*
X027707Y024463D02*
X027948Y024704D01*
X028008Y024704D01*
X027707Y024704D02*
X027707Y024463D01*
X028008Y024335D02*
X028068Y024275D01*
X028068Y024095D01*
X027707Y024095D01*
X027737Y022380D02*
X027677Y022320D01*
X027677Y022200D01*
X027737Y022140D01*
X027917Y022140D01*
X027797Y022140D02*
X027677Y022020D01*
X027549Y022080D02*
X027489Y022020D01*
X027369Y022020D01*
X027309Y022080D01*
X027309Y022320D01*
X027369Y022380D01*
X027489Y022380D01*
X027549Y022320D01*
X027549Y022260D01*
X027489Y022200D01*
X027309Y022200D01*
X027737Y022380D02*
X027917Y022380D01*
X027917Y022020D01*
X029196Y022040D02*
X029196Y021980D01*
X029256Y021920D01*
X029376Y021920D01*
X029436Y021980D01*
X029436Y022040D01*
X029376Y022100D01*
X029256Y022100D01*
X029196Y022040D01*
X029256Y022100D02*
X029196Y022160D01*
X029196Y022220D01*
X029256Y022280D01*
X029376Y022280D01*
X029436Y022220D01*
X029436Y022160D01*
X029376Y022100D01*
X029564Y022100D02*
X029624Y022040D01*
X029804Y022040D01*
X029804Y021920D02*
X029804Y022280D01*
X029624Y022280D01*
X029564Y022220D01*
X029564Y022100D01*
X029684Y022040D02*
X029564Y021920D01*
X038407Y020242D02*
X038407Y020002D01*
X038768Y020002D01*
X038768Y020242D01*
X038588Y020122D02*
X038588Y020002D01*
X038708Y019874D02*
X038768Y019814D01*
X038768Y019633D01*
X038407Y019633D01*
X038407Y019814D01*
X038468Y019874D01*
X038708Y019874D01*
X038768Y019508D02*
X038768Y019388D01*
X038768Y019448D02*
X038407Y019448D01*
X038407Y019388D02*
X038407Y019508D01*
X038468Y019260D02*
X038407Y019200D01*
X038407Y019080D01*
X038468Y019020D01*
X038588Y019080D02*
X038588Y019200D01*
X038528Y019260D01*
X038468Y019260D01*
X038588Y019080D02*
X038648Y019020D01*
X038708Y019020D01*
X038768Y019080D01*
X038768Y019200D01*
X038708Y019260D01*
X038588Y018891D02*
X038588Y018651D01*
X038708Y018523D02*
X038768Y018463D01*
X038768Y018343D01*
X038708Y018283D01*
X038468Y018283D01*
X038407Y018343D01*
X038407Y018463D01*
X038468Y018523D01*
X038708Y018523D01*
X038407Y018155D02*
X038407Y017915D01*
X038768Y017915D01*
X038766Y017055D02*
X038766Y016995D01*
X039006Y016755D01*
X039006Y016695D01*
X039134Y016755D02*
X039194Y016695D01*
X039314Y016695D01*
X039374Y016755D01*
X039502Y016695D02*
X039622Y016815D01*
X039562Y016815D02*
X039742Y016815D01*
X039742Y016695D02*
X039742Y017055D01*
X039562Y017055D01*
X039502Y016995D01*
X039502Y016875D01*
X039562Y016815D01*
X039374Y016995D02*
X039314Y017055D01*
X039194Y017055D01*
X039134Y016995D01*
X039134Y016935D01*
X039194Y016875D01*
X039134Y016815D01*
X039134Y016755D01*
X039194Y016875D02*
X039254Y016875D01*
X039006Y017055D02*
X038766Y017055D01*
X041889Y017048D02*
X041889Y017228D01*
X041949Y017288D01*
X042189Y017288D01*
X042249Y017228D01*
X042249Y017048D01*
X041889Y017048D01*
X041889Y017416D02*
X041889Y017657D01*
X041889Y017537D02*
X042249Y017537D01*
X042129Y017416D01*
X042069Y017785D02*
X042069Y017965D01*
X042009Y018025D01*
X041949Y018025D01*
X041889Y017965D01*
X041889Y017845D01*
X041949Y017785D01*
X042069Y017785D01*
X042189Y017905D01*
X042249Y018025D01*
X042202Y018895D02*
X042322Y019015D01*
X042262Y019015D02*
X042442Y019015D01*
X042442Y018895D02*
X042442Y019255D01*
X042262Y019255D01*
X042202Y019195D01*
X042202Y019075D01*
X042262Y019015D01*
X042074Y018955D02*
X042014Y018895D01*
X041894Y018895D01*
X041834Y018955D01*
X041834Y019015D01*
X041894Y019075D01*
X041954Y019075D01*
X041894Y019075D02*
X041834Y019135D01*
X041834Y019195D01*
X041894Y019255D01*
X042014Y019255D01*
X042074Y019195D01*
X041706Y019195D02*
X041706Y019135D01*
X041646Y019075D01*
X041466Y019075D01*
X041466Y018955D02*
X041466Y019195D01*
X041526Y019255D01*
X041646Y019255D01*
X041706Y019195D01*
X041706Y018955D02*
X041646Y018895D01*
X041526Y018895D01*
X041466Y018955D01*
X042026Y020020D02*
X042146Y020020D01*
X042206Y020080D01*
X041966Y020320D01*
X041966Y020080D01*
X042026Y020020D01*
X042206Y020080D02*
X042206Y020320D01*
X042146Y020380D01*
X042026Y020380D01*
X041966Y020320D01*
X042334Y020200D02*
X042574Y020200D01*
X042394Y020380D01*
X042394Y020020D01*
X042702Y020080D02*
X042762Y020020D01*
X042882Y020020D01*
X042942Y020080D01*
X042942Y020320D01*
X042882Y020380D01*
X042762Y020380D01*
X042702Y020320D01*
X042762Y020720D02*
X042702Y020780D01*
X042762Y020720D02*
X042882Y020720D01*
X042942Y020780D01*
X042942Y021020D01*
X042882Y021080D01*
X042762Y021080D01*
X042702Y021020D01*
X042574Y021020D02*
X042514Y021080D01*
X042394Y021080D01*
X042334Y021020D01*
X042334Y020960D01*
X042394Y020900D01*
X042334Y020840D01*
X042334Y020780D01*
X042394Y020720D01*
X042514Y020720D01*
X042574Y020780D01*
X042454Y020900D02*
X042394Y020900D01*
X042206Y020960D02*
X042146Y020900D01*
X041966Y020900D01*
X041966Y020780D02*
X041966Y021020D01*
X042026Y021080D01*
X042146Y021080D01*
X042206Y021020D01*
X042206Y020960D01*
X042206Y020780D02*
X042146Y020720D01*
X042026Y020720D01*
X041966Y020780D01*
X042026Y021395D02*
X042146Y021395D01*
X042206Y021455D01*
X042206Y021515D01*
X042146Y021575D01*
X042026Y021575D01*
X041966Y021515D01*
X041966Y021455D01*
X042026Y021395D01*
X042026Y021575D02*
X041966Y021635D01*
X041966Y021695D01*
X042026Y021755D01*
X042146Y021755D01*
X042206Y021695D01*
X042206Y021635D01*
X042146Y021575D01*
X042334Y021515D02*
X042334Y021455D01*
X042394Y021395D01*
X042514Y021395D01*
X042574Y021455D01*
X042702Y021455D02*
X042762Y021395D01*
X042882Y021395D01*
X042942Y021455D01*
X042942Y021695D01*
X042882Y021755D01*
X042762Y021755D01*
X042702Y021695D01*
X042574Y021695D02*
X042514Y021755D01*
X042394Y021755D01*
X042334Y021695D01*
X042334Y021635D01*
X042394Y021575D01*
X042334Y021515D01*
X042394Y021575D02*
X042454Y021575D01*
X042419Y023045D02*
X042539Y023045D01*
X042599Y023105D01*
X042727Y023105D02*
X042787Y023045D01*
X042907Y023045D01*
X042967Y023105D01*
X042967Y023345D01*
X042907Y023405D01*
X042787Y023405D01*
X042727Y023345D01*
X042599Y023345D02*
X042539Y023405D01*
X042419Y023405D01*
X042359Y023345D01*
X042359Y023285D01*
X042419Y023225D01*
X042359Y023165D01*
X042359Y023105D01*
X042419Y023045D01*
X042419Y023225D02*
X042479Y023225D01*
X042231Y023225D02*
X042111Y023285D01*
X042051Y023285D01*
X041991Y023225D01*
X041991Y023105D01*
X042051Y023045D01*
X042171Y023045D01*
X042231Y023105D01*
X042231Y023225D02*
X042231Y023405D01*
X041991Y023405D01*
X042051Y023670D02*
X042051Y024030D01*
X042231Y023850D01*
X041991Y023850D01*
X042359Y023790D02*
X042359Y023730D01*
X042419Y023670D01*
X042539Y023670D01*
X042599Y023730D01*
X042727Y023730D02*
X042787Y023670D01*
X042907Y023670D01*
X042967Y023730D01*
X042967Y023970D01*
X042907Y024030D01*
X042787Y024030D01*
X042727Y023970D01*
X042599Y023970D02*
X042539Y024030D01*
X042419Y024030D01*
X042359Y023970D01*
X042359Y023910D01*
X042419Y023850D01*
X042359Y023790D01*
X042419Y023850D02*
X042479Y023850D01*
X042419Y024345D02*
X042539Y024345D01*
X042599Y024405D01*
X042727Y024405D02*
X042787Y024345D01*
X042907Y024345D01*
X042967Y024405D01*
X042967Y024645D01*
X042907Y024705D01*
X042787Y024705D01*
X042727Y024645D01*
X042599Y024645D02*
X042539Y024705D01*
X042419Y024705D01*
X042359Y024645D01*
X042359Y024585D01*
X042419Y024525D01*
X042359Y024465D01*
X042359Y024405D01*
X042419Y024345D01*
X042419Y024525D02*
X042479Y024525D01*
X042231Y024405D02*
X042171Y024345D01*
X042051Y024345D01*
X041991Y024405D01*
X041991Y024465D01*
X042051Y024525D01*
X042111Y024525D01*
X042051Y024525D02*
X041991Y024585D01*
X041991Y024645D01*
X042051Y024705D01*
X042171Y024705D01*
X042231Y024645D01*
X041242Y025870D02*
X041242Y026230D01*
X041062Y026230D01*
X041002Y026170D01*
X041002Y026050D01*
X041062Y025990D01*
X041242Y025990D01*
X041122Y025990D02*
X041002Y025870D01*
X040874Y025870D02*
X040634Y026110D01*
X040634Y026170D01*
X040694Y026230D01*
X040814Y026230D01*
X040874Y026170D01*
X040874Y025870D02*
X040634Y025870D01*
X040506Y025870D02*
X040506Y025930D01*
X040266Y026170D01*
X040266Y026230D01*
X040506Y026230D01*
X040359Y026564D02*
X040359Y026924D01*
X040539Y026744D01*
X040299Y026744D01*
X040667Y026564D02*
X040907Y026564D01*
X040787Y026564D02*
X040787Y026924D01*
X040907Y026804D01*
X041035Y026864D02*
X041095Y026924D01*
X041276Y026924D01*
X041276Y026564D01*
X041095Y026564D01*
X041035Y026624D01*
X041035Y026864D01*
X040976Y028620D02*
X041036Y028680D01*
X040976Y028620D02*
X040856Y028620D01*
X040796Y028680D01*
X040796Y028740D01*
X040856Y028800D01*
X040916Y028800D01*
X040856Y028800D02*
X040796Y028860D01*
X040796Y028920D01*
X040856Y028980D01*
X040976Y028980D01*
X041036Y028920D01*
X041164Y028920D02*
X041224Y028980D01*
X041344Y028980D01*
X041404Y028920D01*
X041532Y028920D02*
X041532Y028800D01*
X041592Y028740D01*
X041772Y028740D01*
X041652Y028740D02*
X041532Y028620D01*
X041404Y028620D02*
X041164Y028860D01*
X041164Y028920D01*
X041164Y028620D02*
X041404Y028620D01*
X041532Y028920D02*
X041592Y028980D01*
X041772Y028980D01*
X041772Y028620D01*
X042332Y029445D02*
X042332Y029625D01*
X042393Y029685D01*
X042633Y029685D01*
X042693Y029625D01*
X042693Y029445D01*
X042332Y029445D01*
X042332Y029813D02*
X042332Y030054D01*
X042332Y029933D02*
X042693Y029933D01*
X042573Y029813D01*
X042633Y030182D02*
X042693Y030242D01*
X042693Y030362D01*
X042633Y030422D01*
X042573Y030422D01*
X042332Y030182D01*
X042332Y030422D01*
X043282Y030362D02*
X043643Y030362D01*
X043463Y030182D01*
X043463Y030422D01*
X043523Y030054D02*
X043583Y030054D01*
X043643Y029993D01*
X043643Y029873D01*
X043583Y029813D01*
X043583Y029685D02*
X043463Y029685D01*
X043403Y029625D01*
X043403Y029445D01*
X043403Y029565D02*
X043282Y029685D01*
X043282Y029813D02*
X043523Y030054D01*
X043282Y030054D02*
X043282Y029813D01*
X043583Y029685D02*
X043643Y029625D01*
X043643Y029445D01*
X043282Y029445D01*
X044032Y029445D02*
X044393Y029445D01*
X044393Y029625D01*
X044333Y029685D01*
X044213Y029685D01*
X044153Y029625D01*
X044153Y029445D01*
X044153Y029565D02*
X044032Y029685D01*
X044032Y029813D02*
X044273Y030054D01*
X044333Y030054D01*
X044393Y029993D01*
X044393Y029873D01*
X044333Y029813D01*
X044032Y029813D02*
X044032Y030054D01*
X044093Y030182D02*
X044032Y030242D01*
X044032Y030362D01*
X044093Y030422D01*
X044213Y030422D01*
X044273Y030362D01*
X044273Y030302D01*
X044213Y030182D01*
X044393Y030182D01*
X044393Y030422D01*
X042965Y033600D02*
X042905Y033600D01*
X042845Y033660D01*
X042845Y033960D01*
X043025Y033960D01*
X043085Y033900D01*
X043085Y033780D01*
X043025Y033720D01*
X042845Y033720D01*
X042717Y033720D02*
X042597Y033720D01*
X042657Y033720D02*
X042657Y033960D01*
X042717Y033960D01*
X042657Y034080D02*
X042657Y034140D01*
X042471Y033960D02*
X042351Y033960D01*
X042411Y034020D02*
X042411Y033780D01*
X042351Y033720D01*
X042226Y033720D02*
X042226Y034080D01*
X042166Y033960D02*
X042046Y033960D01*
X041986Y033900D01*
X041986Y033720D01*
X041858Y033780D02*
X041798Y033720D01*
X041617Y033720D01*
X041617Y033960D01*
X041489Y033960D02*
X041309Y033960D01*
X041249Y033900D01*
X041249Y033780D01*
X041309Y033720D01*
X041489Y033720D01*
X041489Y034080D01*
X041858Y033960D02*
X041858Y033780D01*
X042166Y033960D02*
X042226Y033900D01*
X041121Y033780D02*
X041061Y033780D01*
X041061Y033720D01*
X041121Y033720D01*
X041121Y033780D01*
X040937Y033780D02*
X040877Y033720D01*
X040697Y033720D01*
X040569Y033780D02*
X040508Y033720D01*
X040388Y033720D01*
X040328Y033780D01*
X040328Y033900D01*
X040388Y033960D01*
X040508Y033960D01*
X040569Y033900D01*
X040569Y033780D01*
X040697Y033960D02*
X040877Y033960D01*
X040937Y033900D01*
X040937Y033780D01*
X040200Y033720D02*
X040200Y033960D01*
X040140Y033960D01*
X040080Y033900D01*
X040020Y033960D01*
X039960Y033900D01*
X039960Y033720D01*
X040080Y033720D02*
X040080Y033900D01*
X039832Y033720D02*
X039592Y034080D01*
X039464Y033900D02*
X039404Y033960D01*
X039283Y033960D01*
X039223Y033900D01*
X039223Y033840D01*
X039464Y033840D01*
X039464Y033780D02*
X039464Y033900D01*
X039464Y033780D02*
X039404Y033720D01*
X039283Y033720D01*
X039095Y033780D02*
X039095Y033900D01*
X039035Y033960D01*
X038915Y033960D01*
X038855Y033900D01*
X038855Y033840D01*
X039095Y033840D01*
X039095Y033780D02*
X039035Y033720D01*
X038915Y033720D01*
X038727Y033720D02*
X038487Y033720D01*
X038359Y033900D02*
X038118Y033900D01*
X037990Y033900D02*
X037990Y033780D01*
X037930Y033720D01*
X037810Y033720D01*
X037750Y033780D01*
X037750Y033900D01*
X037810Y033960D01*
X037930Y033960D01*
X037990Y033900D01*
X037622Y033960D02*
X037442Y033960D01*
X037382Y033900D01*
X037382Y033780D01*
X037442Y033720D01*
X037622Y033720D01*
X037622Y033600D02*
X037622Y033960D01*
X037254Y033900D02*
X037194Y033960D01*
X037074Y033960D01*
X037013Y033900D01*
X037013Y033840D01*
X037254Y033840D01*
X037254Y033780D02*
X037254Y033900D01*
X037254Y033780D02*
X037194Y033720D01*
X037074Y033720D01*
X036885Y033720D02*
X036885Y033960D01*
X036705Y033960D01*
X036645Y033900D01*
X036645Y033720D01*
X038487Y033960D02*
X038727Y033720D01*
X038727Y033960D02*
X038487Y033960D01*
X038407Y031367D02*
X038407Y031127D01*
X038768Y031127D01*
X038768Y031367D01*
X038588Y031247D02*
X038588Y031127D01*
X038708Y030999D02*
X038768Y030939D01*
X038768Y030758D01*
X038407Y030758D01*
X038407Y030939D01*
X038468Y030999D01*
X038708Y030999D01*
X038768Y030633D02*
X038768Y030513D01*
X038768Y030573D02*
X038407Y030573D01*
X038407Y030513D02*
X038407Y030633D01*
X038468Y030385D02*
X038407Y030325D01*
X038407Y030205D01*
X038468Y030145D01*
X038588Y030205D02*
X038588Y030325D01*
X038528Y030385D01*
X038468Y030385D01*
X038588Y030205D02*
X038648Y030145D01*
X038708Y030145D01*
X038768Y030205D01*
X038768Y030325D01*
X038708Y030385D01*
X038588Y030016D02*
X038588Y029776D01*
X038768Y029651D02*
X038768Y029531D01*
X038768Y029591D02*
X038407Y029591D01*
X038407Y029531D02*
X038407Y029651D01*
X038407Y029403D02*
X038768Y029403D01*
X038588Y029403D02*
X038588Y029162D01*
X038768Y029162D02*
X038407Y029162D01*
X033364Y032126D02*
X033124Y032126D01*
X032996Y032126D02*
X032996Y032487D01*
X032816Y032487D01*
X032756Y032427D01*
X032756Y032186D01*
X032816Y032126D01*
X032996Y032126D01*
X033124Y032427D02*
X033364Y032186D01*
X033364Y032126D01*
X033364Y032487D02*
X033124Y032487D01*
X033124Y032427D01*
X032628Y032427D02*
X032568Y032487D01*
X032448Y032487D01*
X032388Y032427D01*
X032388Y032367D01*
X032628Y032126D01*
X032388Y032126D01*
X032394Y031755D02*
X032274Y031755D01*
X032214Y031695D01*
X032086Y031575D02*
X031846Y031575D01*
X031906Y031395D02*
X031906Y031755D01*
X032086Y031575D01*
X032214Y031455D02*
X032274Y031395D01*
X032394Y031395D01*
X032454Y031455D01*
X032454Y031695D01*
X032394Y031755D01*
X032326Y032920D02*
X032386Y032980D01*
X032386Y033040D01*
X032326Y033100D01*
X032206Y033100D01*
X032146Y033040D01*
X032146Y032980D01*
X032206Y032920D01*
X032326Y032920D01*
X032326Y033100D02*
X032386Y033160D01*
X032386Y033220D01*
X032326Y033280D01*
X032206Y033280D01*
X032146Y033220D01*
X032146Y033160D01*
X032206Y033100D01*
X032514Y032980D02*
X032574Y032920D01*
X032694Y032920D01*
X032754Y032980D01*
X032754Y033220D01*
X032694Y033280D01*
X032574Y033280D01*
X032514Y033220D01*
X032514Y033645D02*
X032634Y033765D01*
X032574Y033765D02*
X032754Y033765D01*
X032754Y033645D02*
X032754Y034005D01*
X032574Y034005D01*
X032514Y033945D01*
X032514Y033825D01*
X032574Y033765D01*
X032386Y033705D02*
X032326Y033645D01*
X032206Y033645D01*
X032146Y033705D01*
X032146Y033825D01*
X032206Y033885D01*
X032266Y033885D01*
X032386Y033825D01*
X032386Y034005D01*
X032146Y034005D01*
X030586Y029614D02*
X030226Y029614D01*
X030226Y029494D02*
X030226Y029734D01*
X030466Y029494D02*
X030586Y029614D01*
X030526Y029366D02*
X030286Y029366D01*
X030226Y029306D01*
X030226Y029126D01*
X030586Y029126D01*
X030586Y029306D01*
X030526Y029366D01*
X030526Y028998D02*
X030286Y028758D01*
X030226Y028758D01*
X030226Y028998D01*
X030526Y028998D02*
X030586Y028998D01*
X030586Y028758D01*
X029497Y028195D02*
X029497Y027955D01*
X029437Y027895D01*
X029317Y027895D01*
X029257Y027955D01*
X029129Y027895D02*
X028889Y028135D01*
X028889Y028195D01*
X028949Y028255D01*
X029069Y028255D01*
X029129Y028195D01*
X029257Y028195D02*
X029317Y028255D01*
X029437Y028255D01*
X029497Y028195D01*
X029129Y027895D02*
X028889Y027895D01*
X028761Y027955D02*
X028521Y028195D01*
X028521Y027955D01*
X028581Y027895D01*
X028701Y027895D01*
X028761Y027955D01*
X028761Y028195D01*
X028701Y028255D01*
X028581Y028255D01*
X028521Y028195D01*
X043578Y033720D02*
X043638Y033720D01*
X043638Y033780D01*
X043578Y033780D01*
X043578Y033720D01*
X043578Y033900D02*
X043638Y033900D01*
X043638Y033960D01*
X043578Y033960D01*
X043578Y033900D01*
X043766Y033900D02*
X043766Y033840D01*
X044006Y033840D01*
X044006Y033780D02*
X044006Y033900D01*
X043946Y033960D01*
X043826Y033960D01*
X043766Y033900D01*
X043826Y033720D02*
X043946Y033720D01*
X044006Y033780D01*
X044134Y033720D02*
X044314Y033720D01*
X044374Y033780D01*
X044374Y033900D01*
X044314Y033960D01*
X044134Y033960D01*
X044134Y034080D02*
X044134Y033720D01*
X044503Y033780D02*
X044503Y033900D01*
X044563Y033960D01*
X044683Y033960D01*
X044743Y033900D01*
X044743Y033780D01*
X044683Y033720D01*
X044563Y033720D01*
X044503Y033780D01*
X044871Y033720D02*
X045051Y033720D01*
X045111Y033780D01*
X045111Y033900D01*
X045051Y033960D01*
X044871Y033960D01*
X045607Y033900D02*
X045607Y033840D01*
X045848Y033840D01*
X045848Y033780D02*
X045848Y033900D01*
X045788Y033960D01*
X045668Y033960D01*
X045607Y033900D01*
X045668Y033720D02*
X045788Y033720D01*
X045848Y033780D01*
X045976Y033720D02*
X046156Y033720D01*
X046216Y033780D01*
X046216Y033900D01*
X046156Y033960D01*
X045976Y033960D01*
X046343Y033960D02*
X046403Y033960D01*
X046523Y033840D01*
X046523Y033720D02*
X046523Y033960D01*
X046651Y033960D02*
X046651Y033720D01*
X046831Y033720D01*
X046891Y033780D01*
X046891Y033960D01*
X047019Y033900D02*
X047079Y033960D01*
X047200Y033960D01*
X047260Y033900D01*
X047260Y033780D01*
X047200Y033720D01*
X047079Y033720D01*
X047019Y033780D01*
X047019Y033900D01*
X047388Y033960D02*
X047568Y033960D01*
X047628Y033900D01*
X047568Y033840D01*
X047448Y033840D01*
X047388Y033780D01*
X047448Y033720D01*
X047628Y033720D01*
X048122Y033720D02*
X048182Y033780D01*
X048182Y034020D01*
X048242Y033960D02*
X048122Y033960D01*
X048370Y033960D02*
X048550Y033960D01*
X048610Y033900D01*
X048610Y033780D01*
X048550Y033720D01*
X048370Y033720D01*
X048738Y033840D02*
X048978Y033840D01*
X048978Y033780D02*
X048978Y033900D01*
X048918Y033960D01*
X048798Y033960D01*
X048738Y033900D01*
X048738Y033840D01*
X048798Y033720D02*
X048918Y033720D01*
X048978Y033780D01*
X049104Y033660D02*
X049104Y033960D01*
X049104Y034080D02*
X049104Y034140D01*
X049352Y033900D02*
X049412Y033960D01*
X049532Y033960D01*
X049592Y033900D01*
X049592Y033780D01*
X049532Y033720D01*
X049412Y033720D01*
X049352Y033780D01*
X049352Y033900D01*
X049224Y033600D02*
X049164Y033600D01*
X049104Y033660D01*
X049719Y033960D02*
X049779Y033960D01*
X049899Y033840D01*
X049899Y033720D02*
X049899Y033960D01*
X050027Y033900D02*
X050087Y033840D01*
X050267Y033840D01*
X050267Y033720D02*
X050267Y034080D01*
X050087Y034080D01*
X050027Y034020D01*
X050027Y033900D01*
X052343Y030822D02*
X052282Y030762D01*
X052282Y030642D01*
X052343Y030582D01*
X052403Y030582D01*
X052463Y030642D01*
X052463Y030762D01*
X052403Y030822D01*
X052343Y030822D01*
X052463Y030762D02*
X052523Y030822D01*
X052583Y030822D01*
X052643Y030762D01*
X052643Y030642D01*
X052583Y030582D01*
X052523Y030582D01*
X052463Y030642D01*
X052523Y030454D02*
X052463Y030393D01*
X052403Y030454D01*
X052343Y030454D01*
X052282Y030393D01*
X052282Y030273D01*
X052343Y030213D01*
X052282Y030085D02*
X052403Y029965D01*
X052403Y030025D02*
X052403Y029845D01*
X052282Y029845D02*
X052643Y029845D01*
X052643Y030025D01*
X052583Y030085D01*
X052463Y030085D01*
X052403Y030025D01*
X052583Y030213D02*
X052643Y030273D01*
X052643Y030393D01*
X052583Y030454D01*
X052523Y030454D01*
X052463Y030393D02*
X052463Y030333D01*
X052473Y028742D02*
X052533Y028742D01*
X052593Y028682D01*
X052593Y028562D01*
X052533Y028502D01*
X052413Y028374D02*
X052413Y028133D01*
X052593Y028314D01*
X052232Y028314D01*
X052232Y028502D02*
X052473Y028742D01*
X052232Y028742D02*
X052232Y028502D01*
X052232Y028005D02*
X052353Y027885D01*
X052353Y027945D02*
X052353Y027765D01*
X052232Y027765D02*
X052593Y027765D01*
X052593Y027945D01*
X052533Y028005D01*
X052413Y028005D01*
X052353Y027945D01*
X051093Y027012D02*
X051093Y026892D01*
X051033Y026832D01*
X050973Y026832D01*
X050913Y026892D01*
X050913Y027072D01*
X051033Y027072D02*
X051093Y027012D01*
X051033Y027072D02*
X050793Y027072D01*
X050732Y027012D01*
X050732Y026892D01*
X050793Y026832D01*
X050732Y026704D02*
X050732Y026463D01*
X050973Y026704D01*
X051033Y026704D01*
X051093Y026643D01*
X051093Y026523D01*
X051033Y026463D01*
X051033Y026335D02*
X051093Y026275D01*
X051093Y026155D01*
X051033Y026095D01*
X050793Y026095D01*
X050732Y026155D01*
X050732Y026275D01*
X050793Y026335D01*
X050293Y026275D02*
X050293Y026095D01*
X049932Y026095D01*
X050053Y026095D02*
X050053Y026275D01*
X050113Y026335D01*
X050233Y026335D01*
X050293Y026275D01*
X050233Y026463D02*
X050293Y026523D01*
X050293Y026643D01*
X050233Y026704D01*
X050173Y026704D01*
X049932Y026463D01*
X049932Y026704D01*
X049993Y026832D02*
X049932Y026892D01*
X049932Y027012D01*
X049993Y027072D01*
X050053Y027072D01*
X050113Y027012D01*
X050113Y026832D01*
X049993Y026832D01*
X050113Y026832D02*
X050233Y026952D01*
X050293Y027072D01*
X049932Y026335D02*
X050053Y026215D01*
X051457Y026223D02*
X051518Y026163D01*
X051457Y026223D02*
X051457Y026343D01*
X051518Y026404D01*
X051578Y026404D01*
X051638Y026343D01*
X051638Y026283D01*
X051638Y026343D02*
X051698Y026404D01*
X051758Y026404D01*
X051818Y026343D01*
X051818Y026223D01*
X051758Y026163D01*
X051758Y026035D02*
X051818Y025975D01*
X051818Y025855D01*
X051758Y025795D01*
X051518Y025795D01*
X051457Y025855D01*
X051457Y025975D01*
X051518Y026035D01*
X051518Y026532D02*
X051758Y026772D01*
X051518Y026772D01*
X051457Y026712D01*
X051457Y026592D01*
X051518Y026532D01*
X051758Y026532D01*
X051818Y026592D01*
X051818Y026712D01*
X051758Y026772D01*
X047617Y027070D02*
X047437Y027070D01*
X047377Y027130D01*
X047377Y027370D01*
X047437Y027430D01*
X047617Y027430D01*
X047617Y027070D01*
X047249Y027070D02*
X047009Y027070D01*
X047129Y027070D02*
X047129Y027430D01*
X047249Y027310D01*
X046881Y027370D02*
X046821Y027430D01*
X046701Y027430D01*
X046641Y027370D01*
X046641Y027310D01*
X046701Y027250D01*
X046641Y027190D01*
X046641Y027130D01*
X046701Y027070D01*
X046821Y027070D01*
X046881Y027130D01*
X046761Y027250D02*
X046701Y027250D01*
X047983Y024172D02*
X047743Y023932D01*
X047682Y023932D01*
X047743Y023804D02*
X047682Y023743D01*
X047682Y023623D01*
X047743Y023563D01*
X047743Y023435D02*
X047682Y023375D01*
X047682Y023255D01*
X047743Y023195D01*
X047983Y023195D01*
X048043Y023255D01*
X048043Y023375D01*
X047983Y023435D01*
X047983Y023563D02*
X048043Y023623D01*
X048043Y023743D01*
X047983Y023804D01*
X047923Y023804D01*
X047863Y023743D01*
X047803Y023804D01*
X047743Y023804D01*
X047863Y023743D02*
X047863Y023683D01*
X048043Y023932D02*
X048043Y024172D01*
X047983Y024172D01*
X050021Y024020D02*
X050021Y023780D01*
X050081Y023720D01*
X050201Y023720D01*
X050261Y023780D01*
X050021Y024020D01*
X050081Y024080D01*
X050201Y024080D01*
X050261Y024020D01*
X050261Y023780D01*
X050389Y023780D02*
X050449Y023720D01*
X050569Y023720D01*
X050629Y023780D01*
X050757Y023720D02*
X050877Y023840D01*
X050817Y023840D02*
X050997Y023840D01*
X050997Y023720D02*
X050997Y024080D01*
X050817Y024080D01*
X050757Y024020D01*
X050757Y023900D01*
X050817Y023840D01*
X050629Y024020D02*
X050569Y024080D01*
X050449Y024080D01*
X050389Y024020D01*
X050389Y023960D01*
X050449Y023900D01*
X050389Y023840D01*
X050389Y023780D01*
X050449Y023900D02*
X050509Y023900D01*
X050569Y023305D02*
X050629Y023245D01*
X050569Y023305D02*
X050449Y023305D01*
X050389Y023245D01*
X050389Y023185D01*
X050629Y022945D01*
X050389Y022945D01*
X050261Y023005D02*
X050261Y023065D01*
X050201Y023125D01*
X050081Y023125D01*
X050021Y023065D01*
X050021Y023005D01*
X050081Y022945D01*
X050201Y022945D01*
X050261Y023005D01*
X050201Y023125D02*
X050261Y023185D01*
X050261Y023245D01*
X050201Y023305D01*
X050081Y023305D01*
X050021Y023245D01*
X050021Y023185D01*
X050081Y023125D01*
X050757Y023125D02*
X050817Y023065D01*
X050997Y023065D01*
X050877Y023065D02*
X050757Y022945D01*
X050757Y023125D02*
X050757Y023245D01*
X050817Y023305D01*
X050997Y023305D01*
X050997Y022945D01*
X050972Y022180D02*
X050792Y022180D01*
X050732Y022120D01*
X050732Y022000D01*
X050792Y021940D01*
X050972Y021940D01*
X050852Y021940D02*
X050732Y021820D01*
X050604Y021880D02*
X050544Y021820D01*
X050424Y021820D01*
X050364Y021880D01*
X050364Y021940D01*
X050424Y022000D01*
X050484Y022000D01*
X050424Y022000D02*
X050364Y022060D01*
X050364Y022120D01*
X050424Y022180D01*
X050544Y022180D01*
X050604Y022120D01*
X050236Y022120D02*
X050176Y022180D01*
X050056Y022180D01*
X049996Y022120D01*
X049996Y022060D01*
X050236Y021820D01*
X049996Y021820D01*
X049942Y021280D02*
X049882Y021220D01*
X049882Y021100D01*
X049942Y021040D01*
X050122Y021040D01*
X050002Y021040D02*
X049882Y020920D01*
X049754Y020980D02*
X049694Y020920D01*
X049574Y020920D01*
X049514Y020980D01*
X049514Y021040D01*
X049574Y021100D01*
X049634Y021100D01*
X049574Y021100D02*
X049514Y021160D01*
X049514Y021220D01*
X049574Y021280D01*
X049694Y021280D01*
X049754Y021220D01*
X049942Y021280D02*
X050122Y021280D01*
X050122Y020920D01*
X050122Y020530D02*
X049942Y020530D01*
X049882Y020470D01*
X049882Y020350D01*
X049942Y020290D01*
X050122Y020290D01*
X050002Y020290D02*
X049882Y020170D01*
X049754Y020230D02*
X049694Y020170D01*
X049574Y020170D01*
X049514Y020230D01*
X049514Y020290D01*
X049574Y020350D01*
X049634Y020350D01*
X049574Y020350D02*
X049514Y020410D01*
X049514Y020470D01*
X049574Y020530D01*
X049694Y020530D01*
X049754Y020470D01*
X049386Y020530D02*
X049386Y020350D01*
X049266Y020410D01*
X049206Y020410D01*
X049146Y020350D01*
X049146Y020230D01*
X049206Y020170D01*
X049326Y020170D01*
X049386Y020230D01*
X049386Y020530D02*
X049146Y020530D01*
X049206Y020920D02*
X049326Y020920D01*
X049386Y020980D01*
X049266Y021100D02*
X049206Y021100D01*
X049146Y021040D01*
X049146Y020980D01*
X049206Y020920D01*
X049206Y021100D02*
X049146Y021160D01*
X049146Y021220D01*
X049206Y021280D01*
X049326Y021280D01*
X049386Y021220D01*
X050122Y020530D02*
X050122Y020170D01*
X050121Y019162D02*
X049941Y019162D01*
X049881Y019102D01*
X049881Y018861D01*
X049941Y018801D01*
X050121Y018801D01*
X050121Y019162D01*
X050249Y019162D02*
X050249Y019102D01*
X050489Y018861D01*
X050489Y018801D01*
X050249Y018801D01*
X050249Y019162D02*
X050489Y019162D01*
X049753Y018981D02*
X049513Y018981D01*
X049573Y018801D02*
X049573Y019162D01*
X049753Y018981D01*
X049599Y018380D02*
X049779Y018200D01*
X049539Y018200D01*
X049411Y018080D02*
X049351Y018020D01*
X049231Y018020D01*
X049171Y018080D01*
X049171Y018140D01*
X049231Y018200D01*
X049291Y018200D01*
X049231Y018200D02*
X049171Y018260D01*
X049171Y018320D01*
X049231Y018380D01*
X049351Y018380D01*
X049411Y018320D01*
X049599Y018380D02*
X049599Y018020D01*
X049907Y018020D02*
X050027Y018140D01*
X049967Y018140D02*
X050147Y018140D01*
X050147Y018020D02*
X050147Y018380D01*
X049967Y018380D01*
X049907Y018320D01*
X049907Y018200D01*
X049967Y018140D01*
X047993Y016337D02*
X047933Y016397D01*
X047693Y016157D01*
X047632Y016217D01*
X047632Y016337D01*
X047693Y016397D01*
X047933Y016397D01*
X047993Y016337D02*
X047993Y016217D01*
X047933Y016157D01*
X047693Y016157D01*
X047693Y016029D02*
X047632Y015968D01*
X047632Y015848D01*
X047693Y015788D01*
X047813Y015788D02*
X047873Y015908D01*
X047873Y015968D01*
X047813Y016029D01*
X047693Y016029D01*
X047813Y015788D02*
X047993Y015788D01*
X047993Y016029D01*
X048357Y016062D02*
X048357Y015942D01*
X048418Y015882D01*
X048478Y015882D01*
X048538Y015942D01*
X048538Y016062D01*
X048478Y016122D01*
X048418Y016122D01*
X048357Y016062D01*
X048538Y016062D02*
X048598Y016122D01*
X048658Y016122D01*
X048718Y016062D01*
X048718Y015942D01*
X048658Y015882D01*
X048598Y015882D01*
X048538Y015942D01*
X048538Y015754D02*
X048538Y015513D01*
X048718Y015693D01*
X048357Y015693D01*
X048418Y015385D02*
X048357Y015325D01*
X048357Y015205D01*
X048418Y015145D01*
X048658Y015145D01*
X048718Y015205D01*
X048718Y015325D01*
X048658Y015385D01*
X047993Y015420D02*
X047993Y015600D01*
X047933Y015660D01*
X047813Y015660D01*
X047753Y015600D01*
X047753Y015420D01*
X047753Y015540D02*
X047632Y015660D01*
X047632Y015420D02*
X047993Y015420D01*
X047218Y015445D02*
X047218Y015625D01*
X047158Y015685D01*
X047038Y015685D01*
X046978Y015625D01*
X046978Y015445D01*
X046978Y015565D02*
X046857Y015685D01*
X046918Y015813D02*
X046857Y015873D01*
X046857Y015993D01*
X046918Y016054D01*
X047038Y016054D01*
X047098Y015993D01*
X047098Y015933D01*
X047038Y015813D01*
X047218Y015813D01*
X047218Y016054D01*
X047158Y016182D02*
X047218Y016242D01*
X047218Y016362D01*
X047158Y016422D01*
X047098Y016422D01*
X046857Y016182D01*
X046857Y016422D01*
X045618Y016054D02*
X045558Y015933D01*
X045438Y015813D01*
X045438Y015993D01*
X045378Y016054D01*
X045318Y016054D01*
X045257Y015993D01*
X045257Y015873D01*
X045318Y015813D01*
X045438Y015813D01*
X045558Y015685D02*
X045318Y015685D01*
X045257Y015625D01*
X045257Y015505D01*
X045318Y015445D01*
X045558Y015445D01*
X045618Y015505D01*
X045618Y015625D01*
X045558Y015685D01*
X045378Y015565D02*
X045257Y015685D01*
X046857Y015445D02*
X047218Y015445D01*
X049457Y015393D02*
X049818Y015393D01*
X049638Y015213D01*
X049638Y015454D01*
X049638Y015582D02*
X049638Y015822D01*
X049818Y015762D02*
X049638Y015582D01*
X049818Y015762D02*
X049457Y015762D01*
X049518Y015085D02*
X049457Y015025D01*
X049457Y014905D01*
X049518Y014845D01*
X049758Y014845D01*
X049818Y014905D01*
X049818Y015025D01*
X049758Y015085D01*
X050157Y015180D02*
X050157Y015300D01*
X050218Y015360D01*
X050338Y015488D02*
X050338Y015729D01*
X050458Y015857D02*
X050518Y015917D01*
X050518Y016037D01*
X050458Y016097D01*
X050398Y016097D01*
X050338Y016037D01*
X050278Y016097D01*
X050218Y016097D01*
X050157Y016037D01*
X050157Y015917D01*
X050218Y015857D01*
X050338Y015977D02*
X050338Y016037D01*
X050518Y015668D02*
X050338Y015488D01*
X050458Y015360D02*
X050518Y015300D01*
X050518Y015180D01*
X050458Y015120D01*
X050218Y015120D01*
X050157Y015180D01*
X050157Y015668D02*
X050518Y015668D01*
X047097Y012155D02*
X046917Y012155D01*
X046857Y012095D01*
X046857Y011975D01*
X046917Y011915D01*
X047097Y011915D01*
X046977Y011915D02*
X046857Y011795D01*
X046729Y011855D02*
X046669Y011795D01*
X046549Y011795D01*
X046489Y011855D01*
X046489Y011975D01*
X046549Y012035D01*
X046609Y012035D01*
X046729Y011975D01*
X046729Y012155D01*
X046489Y012155D01*
X046361Y012095D02*
X046301Y012155D01*
X046181Y012155D01*
X046121Y012095D01*
X046121Y012035D01*
X046181Y011975D01*
X046121Y011915D01*
X046121Y011855D01*
X046181Y011795D01*
X046301Y011795D01*
X046361Y011855D01*
X046241Y011975D02*
X046181Y011975D01*
X045547Y011430D02*
X045427Y011430D01*
X045487Y011430D02*
X045487Y011130D01*
X045547Y011070D01*
X045607Y011070D01*
X045667Y011130D01*
X045299Y011070D02*
X045299Y011430D01*
X045119Y011430D01*
X045059Y011370D01*
X045059Y011250D01*
X045119Y011190D01*
X045299Y011190D01*
X044931Y011130D02*
X044871Y011070D01*
X044751Y011070D01*
X044691Y011130D01*
X044691Y011190D01*
X044751Y011250D01*
X044811Y011250D01*
X044751Y011250D02*
X044691Y011310D01*
X044691Y011370D01*
X044751Y011430D01*
X044871Y011430D01*
X044931Y011370D01*
X044626Y010599D02*
X044385Y010599D01*
X044385Y010539D01*
X044626Y010299D01*
X044626Y010239D01*
X044385Y010239D01*
X044257Y010239D02*
X044077Y010239D01*
X044017Y010299D01*
X044017Y010539D01*
X044077Y010599D01*
X044257Y010599D01*
X044257Y010239D01*
X043889Y010299D02*
X043829Y010239D01*
X043709Y010239D01*
X043649Y010299D01*
X043649Y010419D01*
X043709Y010479D01*
X043769Y010479D01*
X043889Y010419D01*
X043889Y010599D01*
X043649Y010599D01*
X044593Y012520D02*
X044532Y012580D01*
X044532Y012700D01*
X044593Y012760D01*
X044593Y012888D02*
X044532Y012948D01*
X044532Y013068D01*
X044593Y013129D01*
X044713Y013129D01*
X044773Y013068D01*
X044773Y013008D01*
X044713Y012888D01*
X044893Y012888D01*
X044893Y013129D01*
X044773Y013257D02*
X044893Y013377D01*
X044532Y013377D01*
X044532Y013257D02*
X044532Y013497D01*
X044833Y012760D02*
X044893Y012700D01*
X044893Y012580D01*
X044833Y012520D01*
X044593Y012520D01*
X047097Y012155D02*
X047097Y011795D01*
X047083Y008142D02*
X046843Y008142D01*
X046782Y008082D01*
X046782Y007962D01*
X046843Y007902D01*
X046963Y007962D02*
X046963Y008142D01*
X047083Y008142D02*
X047143Y008082D01*
X047143Y007962D01*
X047083Y007902D01*
X047023Y007902D01*
X046963Y007962D01*
X046963Y007774D02*
X046963Y007533D01*
X047143Y007714D01*
X046782Y007714D01*
X046782Y007405D02*
X046903Y007285D01*
X046903Y007345D02*
X046903Y007165D01*
X046782Y007165D02*
X047143Y007165D01*
X047143Y007345D01*
X047083Y007405D01*
X046963Y007405D01*
X046903Y007345D01*
X047507Y007430D02*
X047628Y007310D01*
X047628Y007370D02*
X047628Y007190D01*
X047507Y007190D02*
X047868Y007190D01*
X047868Y007370D01*
X047808Y007430D01*
X047688Y007430D01*
X047628Y007370D01*
X047688Y007558D02*
X047688Y007799D01*
X047748Y007927D02*
X047808Y007927D01*
X047868Y007987D01*
X047868Y008107D01*
X047808Y008167D01*
X047748Y008167D01*
X047688Y008107D01*
X047688Y007987D01*
X047748Y007927D01*
X047688Y007987D02*
X047628Y007927D01*
X047568Y007927D01*
X047507Y007987D01*
X047507Y008107D01*
X047568Y008167D01*
X047628Y008167D01*
X047688Y008107D01*
X047868Y007739D02*
X047507Y007739D01*
X047688Y007558D02*
X047868Y007739D01*
X048257Y007739D02*
X048618Y007739D01*
X048438Y007558D01*
X048438Y007799D01*
X048438Y007927D02*
X048498Y008047D01*
X048498Y008107D01*
X048438Y008167D01*
X048318Y008167D01*
X048257Y008107D01*
X048257Y007987D01*
X048318Y007927D01*
X048438Y007927D02*
X048618Y007927D01*
X048618Y008167D01*
X049057Y008107D02*
X049118Y008167D01*
X049358Y008167D01*
X049418Y008107D01*
X049418Y007987D01*
X049358Y007927D01*
X049298Y007927D01*
X049238Y007987D01*
X049238Y008167D01*
X049057Y008107D02*
X049057Y007987D01*
X049118Y007927D01*
X049238Y007799D02*
X049238Y007558D01*
X049418Y007739D01*
X049057Y007739D01*
X049118Y007430D02*
X049057Y007370D01*
X049057Y007250D01*
X049118Y007190D01*
X049358Y007190D01*
X049418Y007250D01*
X049418Y007370D01*
X049358Y007430D01*
X049832Y007430D02*
X049953Y007310D01*
X049953Y007370D02*
X049953Y007190D01*
X049832Y007190D02*
X050193Y007190D01*
X050193Y007370D01*
X050133Y007430D01*
X050013Y007430D01*
X049953Y007370D01*
X050013Y007558D02*
X050073Y007678D01*
X050073Y007739D01*
X050013Y007799D01*
X049893Y007799D01*
X049832Y007739D01*
X049832Y007618D01*
X049893Y007558D01*
X050013Y007558D02*
X050193Y007558D01*
X050193Y007799D01*
X050073Y007927D02*
X050193Y008047D01*
X049832Y008047D01*
X049832Y007927D02*
X049832Y008167D01*
X048618Y007370D02*
X048618Y007250D01*
X048558Y007190D01*
X048318Y007190D01*
X048257Y007250D01*
X048257Y007370D01*
X048318Y007430D01*
X048558Y007430D02*
X048618Y007370D01*
X046268Y007345D02*
X046268Y007165D01*
X045907Y007165D01*
X046028Y007165D02*
X046028Y007345D01*
X046088Y007405D01*
X046208Y007405D01*
X046268Y007345D01*
X046028Y007285D02*
X045907Y007405D01*
X046088Y007533D02*
X046088Y007774D01*
X046088Y007902D02*
X046088Y008142D01*
X046268Y008082D02*
X046088Y007902D01*
X046268Y008082D02*
X045907Y008082D01*
X045907Y007714D02*
X046268Y007714D01*
X046088Y007533D01*
X045518Y007714D02*
X045338Y007533D01*
X045338Y007774D01*
X045338Y007902D02*
X045398Y008022D01*
X045398Y008082D01*
X045338Y008142D01*
X045218Y008142D01*
X045157Y008082D01*
X045157Y007962D01*
X045218Y007902D01*
X045338Y007902D02*
X045518Y007902D01*
X045518Y008142D01*
X045518Y007714D02*
X045157Y007714D01*
X045157Y007405D02*
X045278Y007285D01*
X045278Y007345D02*
X045278Y007165D01*
X045157Y007165D02*
X045518Y007165D01*
X045518Y007345D01*
X045458Y007405D01*
X045338Y007405D01*
X045278Y007345D01*
X044793Y007345D02*
X044793Y007225D01*
X044733Y007165D01*
X044493Y007165D01*
X044432Y007225D01*
X044432Y007345D01*
X044493Y007405D01*
X044613Y007533D02*
X044613Y007774D01*
X044733Y007902D02*
X044793Y007962D01*
X044793Y008082D01*
X044733Y008142D01*
X044673Y008142D01*
X044432Y007902D01*
X044432Y008142D01*
X044432Y007714D02*
X044793Y007714D01*
X044613Y007533D01*
X044733Y007405D02*
X044793Y007345D01*
X038768Y006467D02*
X038407Y006467D01*
X038588Y006467D02*
X038588Y006227D01*
X038528Y006099D02*
X038468Y006099D01*
X038407Y006039D01*
X038407Y005918D01*
X038468Y005858D01*
X038468Y005730D02*
X038768Y005730D01*
X038708Y005858D02*
X038768Y005918D01*
X038768Y006039D01*
X038708Y006099D01*
X038588Y006039D02*
X038528Y006099D01*
X038588Y006039D02*
X038588Y005918D01*
X038648Y005858D01*
X038708Y005858D01*
X038468Y005730D02*
X038407Y005670D01*
X038407Y005550D01*
X038468Y005490D01*
X038768Y005490D01*
X038708Y005362D02*
X038768Y005302D01*
X038768Y005122D01*
X038407Y005122D01*
X038528Y005122D02*
X038528Y005302D01*
X038588Y005362D01*
X038708Y005362D01*
X038768Y006227D02*
X038407Y006227D01*
X038407Y011847D02*
X038768Y011847D01*
X038768Y012027D01*
X038708Y012087D01*
X038588Y012087D01*
X038528Y012027D01*
X038528Y011847D01*
X038468Y012215D02*
X038407Y012275D01*
X038407Y012395D01*
X038468Y012455D01*
X038768Y012455D01*
X038768Y012583D02*
X038407Y012583D01*
X038407Y012824D01*
X038407Y012952D02*
X038407Y013192D01*
X038407Y012952D02*
X038768Y012952D01*
X038768Y012215D02*
X038468Y012215D01*
X043832Y016965D02*
X044193Y016965D01*
X044193Y017145D01*
X044133Y017205D01*
X044013Y017205D01*
X043953Y017145D01*
X043953Y016965D01*
X043953Y017085D02*
X043832Y017205D01*
X043893Y017333D02*
X043832Y017393D01*
X043832Y017514D01*
X043893Y017574D01*
X043953Y017574D01*
X044013Y017514D01*
X044013Y017453D01*
X044013Y017514D02*
X044073Y017574D01*
X044133Y017574D01*
X044193Y017514D01*
X044193Y017393D01*
X044133Y017333D01*
X044013Y017702D02*
X044013Y017882D01*
X043953Y017942D01*
X043893Y017942D01*
X043832Y017882D01*
X043832Y017762D01*
X043893Y017702D01*
X044013Y017702D01*
X044133Y017822D01*
X044193Y017942D01*
X050972Y021820D02*
X050972Y022180D01*
X057254Y012805D02*
X057254Y012445D01*
X057374Y012445D02*
X057134Y012445D01*
X057374Y012685D02*
X057254Y012805D01*
X057502Y012745D02*
X057502Y012625D01*
X057562Y012565D01*
X057742Y012565D01*
X057622Y012565D02*
X057502Y012445D01*
X057742Y012445D02*
X057742Y012805D01*
X057562Y012805D01*
X057502Y012745D01*
X058984Y012745D02*
X058984Y012685D01*
X059044Y012625D01*
X058984Y012565D01*
X058984Y012505D01*
X059044Y012445D01*
X059164Y012445D01*
X059224Y012505D01*
X059352Y012445D02*
X059472Y012565D01*
X059412Y012565D02*
X059592Y012565D01*
X059592Y012445D02*
X059592Y012805D01*
X059412Y012805D01*
X059352Y012745D01*
X059352Y012625D01*
X059412Y012565D01*
X059224Y012745D02*
X059164Y012805D01*
X059044Y012805D01*
X058984Y012745D01*
X059044Y012625D02*
X059104Y012625D01*
D11*
X058289Y012913D02*
X060236Y012913D01*
X060236Y013787D01*
X058289Y013787D01*
X058289Y012913D01*
X058286Y012913D02*
X058286Y013787D01*
X056339Y013787D01*
X056339Y012913D01*
X058286Y012913D01*
X050992Y011950D02*
X050842Y011950D01*
X050917Y011950D02*
X050917Y011500D01*
X050992Y011500D02*
X050842Y011500D01*
X050686Y011575D02*
X050686Y011875D01*
X050610Y011950D01*
X050460Y011950D01*
X050385Y011875D01*
X050225Y011950D02*
X050225Y011725D01*
X050075Y011800D01*
X050000Y011800D01*
X049925Y011725D01*
X049925Y011575D01*
X050000Y011500D01*
X050150Y011500D01*
X050225Y011575D01*
X050385Y011575D02*
X050460Y011500D01*
X050610Y011500D01*
X050686Y011575D01*
X050225Y011950D02*
X049925Y011950D01*
X049949Y013495D02*
X049275Y013495D01*
X049275Y014755D01*
X049949Y014755D01*
X049949Y013495D01*
X049950Y013498D02*
X050724Y013498D01*
X050724Y015052D01*
X049950Y015052D01*
X049950Y013498D01*
X048849Y013795D02*
X048849Y015055D01*
X048175Y015055D01*
X048175Y013795D01*
X048849Y013795D01*
X048174Y013798D02*
X047400Y013798D01*
X047400Y015352D01*
X048174Y015352D01*
X048174Y013798D01*
X047399Y013798D02*
X047399Y015352D01*
X046625Y015352D01*
X046625Y013798D01*
X047399Y013798D01*
X047314Y013787D02*
X047314Y013013D01*
X045761Y013013D01*
X045761Y013787D01*
X047314Y013787D01*
X047314Y013012D02*
X045761Y013012D01*
X045761Y012238D01*
X047314Y012238D01*
X047314Y013012D01*
X045749Y012248D02*
X044975Y012248D01*
X044975Y013802D01*
X045749Y013802D01*
X045749Y012248D01*
X045761Y011637D02*
X045761Y010863D01*
X047314Y010863D01*
X047314Y011637D01*
X045761Y011637D01*
X045750Y009902D02*
X046524Y009902D01*
X046524Y008348D01*
X045750Y008348D01*
X045750Y009902D01*
X045749Y009902D02*
X044975Y009902D01*
X044975Y008348D01*
X045749Y008348D01*
X045749Y009902D01*
X046525Y009902D02*
X047299Y009902D01*
X047299Y008348D01*
X046525Y008348D01*
X046525Y009902D01*
X047300Y009902D02*
X048074Y009902D01*
X048074Y008348D01*
X047300Y008348D01*
X047300Y009902D01*
X048075Y009902D02*
X048849Y009902D01*
X048849Y008348D01*
X048075Y008348D01*
X048075Y009902D01*
X048850Y009902D02*
X049624Y009902D01*
X049624Y008348D01*
X048850Y008348D01*
X048850Y009902D01*
X049625Y009902D02*
X049625Y008348D01*
X050399Y008348D01*
X050399Y009902D01*
X049625Y009902D01*
X044974Y009605D02*
X044974Y008345D01*
X044300Y008345D01*
X044300Y009605D01*
X044974Y009605D01*
X041944Y004625D02*
X041718Y004625D01*
X041643Y004550D01*
X041643Y004400D01*
X041718Y004325D01*
X041944Y004325D01*
X041944Y004175D02*
X041944Y004625D01*
X041794Y004325D02*
X041643Y004175D01*
X041483Y004400D02*
X041183Y004400D01*
X041023Y004400D02*
X040798Y004400D01*
X040723Y004325D01*
X040723Y004250D01*
X040798Y004175D01*
X040948Y004175D01*
X041023Y004250D01*
X041023Y004400D01*
X040873Y004550D01*
X040723Y004625D01*
X040514Y004737D02*
X038961Y004737D01*
X038961Y003963D01*
X040514Y003963D01*
X040514Y004737D01*
X041258Y004625D02*
X041258Y004175D01*
X041483Y004400D02*
X041258Y004625D01*
X041200Y003782D02*
X041350Y003782D01*
X041425Y003707D01*
X041585Y003707D02*
X041660Y003782D01*
X041886Y003782D01*
X041886Y003331D01*
X041660Y003331D01*
X041585Y003406D01*
X041585Y003707D01*
X041200Y003782D02*
X041125Y003707D01*
X041125Y003632D01*
X041425Y003331D01*
X041125Y003331D01*
X040965Y003406D02*
X040665Y003707D01*
X040665Y003406D01*
X040740Y003331D01*
X040890Y003331D01*
X040965Y003406D01*
X040965Y003707D01*
X040890Y003782D01*
X040740Y003782D01*
X040665Y003707D01*
X035694Y007044D02*
X035619Y006969D01*
X035468Y006969D01*
X035393Y007044D01*
X035233Y007194D02*
X034933Y007194D01*
X034773Y007044D02*
X034473Y007344D01*
X034473Y007419D01*
X034773Y007419D01*
X035008Y007419D02*
X035233Y007194D01*
X035393Y007344D02*
X035468Y007419D01*
X035619Y007419D01*
X035694Y007344D01*
X035694Y007044D01*
X035008Y006969D02*
X035008Y007419D01*
X034773Y007044D02*
X034773Y006969D01*
X031369Y004025D02*
X031143Y004025D01*
X031068Y003950D01*
X031068Y003650D01*
X031143Y003575D01*
X031369Y003575D01*
X031369Y004025D01*
X030908Y003875D02*
X030758Y004025D01*
X030758Y003575D01*
X030908Y003575D02*
X030608Y003575D01*
X030448Y003650D02*
X030373Y003575D01*
X030223Y003575D01*
X030148Y003650D01*
X030148Y003950D01*
X030223Y004025D01*
X030373Y004025D01*
X030448Y003950D01*
X030448Y003875D01*
X030373Y003800D01*
X030148Y003800D01*
X028719Y004390D02*
X028719Y004840D01*
X028493Y004840D01*
X028418Y004765D01*
X028418Y004615D01*
X028493Y004540D01*
X028719Y004540D01*
X028569Y004540D02*
X028418Y004390D01*
X028258Y004390D02*
X027958Y004690D01*
X027958Y004765D01*
X028033Y004840D01*
X028183Y004840D01*
X028258Y004765D01*
X028258Y004390D02*
X027958Y004390D01*
X027798Y004465D02*
X027723Y004390D01*
X027573Y004390D01*
X027498Y004465D01*
X027498Y004765D01*
X027573Y004840D01*
X027723Y004840D01*
X027798Y004765D01*
X027798Y004690D01*
X027723Y004615D01*
X027498Y004615D01*
X027307Y005011D02*
X028868Y005011D01*
X028868Y008139D01*
X027307Y008139D01*
X027307Y005011D01*
X027307Y008136D02*
X028868Y008136D01*
X028868Y011264D01*
X027307Y011264D01*
X027307Y008136D01*
X028962Y009175D02*
X029413Y009175D01*
X029413Y009400D01*
X029338Y009475D01*
X029188Y009475D01*
X029113Y009400D01*
X029113Y009175D01*
X029113Y009325D02*
X028962Y009475D01*
X029038Y009635D02*
X028962Y009710D01*
X028962Y009861D01*
X029038Y009936D01*
X029113Y009936D01*
X029188Y009861D01*
X029188Y009786D01*
X029188Y009861D02*
X029263Y009936D01*
X029338Y009936D01*
X029413Y009861D01*
X029413Y009710D01*
X029338Y009635D01*
X029263Y010096D02*
X029413Y010246D01*
X028962Y010246D01*
X028962Y010096D02*
X028962Y010396D01*
X028721Y011276D02*
X027454Y011276D01*
X027454Y013224D01*
X028721Y013224D01*
X028721Y011276D01*
X028938Y011675D02*
X028862Y011750D01*
X028862Y011900D01*
X028938Y011975D01*
X029088Y012135D02*
X029088Y012436D01*
X029163Y012596D02*
X029313Y012746D01*
X028862Y012746D01*
X028862Y012596D02*
X028862Y012896D01*
X028862Y012361D02*
X029313Y012361D01*
X029088Y012135D01*
X029238Y011975D02*
X029313Y011900D01*
X029313Y011750D01*
X029238Y011675D01*
X028938Y011675D01*
X024714Y011838D02*
X024714Y012612D01*
X023161Y012612D01*
X023161Y011838D01*
X024714Y011838D01*
X023164Y011838D02*
X023164Y012612D01*
X021611Y012612D01*
X021611Y011838D01*
X023164Y011838D01*
X022825Y012898D02*
X023599Y012898D01*
X023599Y014452D01*
X022825Y014452D01*
X022825Y012898D01*
X022824Y012898D02*
X022050Y012898D01*
X022050Y014452D01*
X022824Y014452D01*
X022824Y012898D01*
X020747Y013550D02*
X020597Y013550D01*
X020672Y013550D02*
X020672Y014000D01*
X020747Y014000D02*
X020597Y014000D01*
X020441Y013925D02*
X020441Y013625D01*
X020365Y013550D01*
X020215Y013550D01*
X020140Y013625D01*
X019980Y013625D02*
X019980Y013700D01*
X019905Y013775D01*
X019755Y013775D01*
X019680Y013700D01*
X019680Y013625D01*
X019755Y013550D01*
X019905Y013550D01*
X019980Y013625D01*
X019905Y013775D02*
X019980Y013850D01*
X019980Y013925D01*
X019905Y014000D01*
X019755Y014000D01*
X019680Y013925D01*
X019680Y013850D01*
X019755Y013775D01*
X020140Y013925D02*
X020215Y014000D01*
X020365Y014000D01*
X020441Y013925D01*
X022050Y014448D02*
X022824Y014448D01*
X022824Y016002D01*
X022050Y016002D01*
X022050Y014448D01*
X022836Y014438D02*
X024389Y014438D01*
X024389Y015212D01*
X022836Y015212D01*
X022836Y014438D01*
X022836Y015238D02*
X022836Y016012D01*
X024389Y016012D01*
X024389Y015238D01*
X022836Y015238D01*
X023600Y016048D02*
X024374Y016048D01*
X024374Y017602D01*
X023600Y017602D01*
X023600Y016048D01*
X024400Y016002D02*
X024400Y014448D01*
X025174Y014448D01*
X025174Y016002D01*
X024400Y016002D01*
X025175Y016002D02*
X025949Y016002D01*
X025949Y014448D01*
X025175Y014448D01*
X025175Y016002D01*
X024211Y017663D02*
X022264Y017663D01*
X022264Y018537D01*
X024211Y018537D01*
X024211Y017663D01*
X024387Y017975D02*
X024387Y018225D01*
X024512Y018100D02*
X024262Y018100D01*
X024561Y018538D02*
X026114Y018538D01*
X026114Y019312D01*
X024561Y019312D01*
X024561Y018538D01*
X024564Y018538D02*
X024564Y019312D01*
X023011Y019312D01*
X023011Y018538D01*
X024564Y018538D01*
X024564Y019313D02*
X023011Y019313D01*
X023011Y020087D01*
X024564Y020087D01*
X024564Y019313D01*
X024561Y019313D02*
X024561Y020087D01*
X026114Y020087D01*
X026114Y019313D01*
X024561Y019313D01*
X023024Y020077D02*
X023024Y018523D01*
X022250Y018523D01*
X022250Y020077D01*
X023024Y020077D01*
X021863Y020090D02*
X021863Y019940D01*
X021863Y020015D02*
X021412Y020015D01*
X021412Y019940D02*
X021412Y020090D01*
X021488Y020247D02*
X021412Y020322D01*
X021412Y020472D01*
X021488Y020547D01*
X021488Y020707D02*
X021412Y020707D01*
X021488Y020707D02*
X021788Y021008D01*
X021863Y021008D01*
X021863Y020707D01*
X021788Y020547D02*
X021863Y020472D01*
X021863Y020322D01*
X021788Y020247D01*
X021488Y020247D01*
X021214Y020013D02*
X021214Y020787D01*
X019661Y020787D01*
X019661Y020013D01*
X021214Y020013D01*
X019367Y019863D02*
X019367Y020537D01*
X018108Y020537D01*
X018108Y019863D01*
X019367Y019863D01*
X018724Y019727D02*
X017950Y019727D01*
X017950Y018173D01*
X018724Y018173D01*
X018724Y019727D01*
X017949Y019727D02*
X017175Y019727D01*
X017175Y018173D01*
X017949Y018173D01*
X017949Y019727D01*
X016224Y017927D02*
X015450Y017927D01*
X015450Y016373D01*
X016224Y016373D01*
X016224Y017927D01*
X015439Y017937D02*
X015439Y017163D01*
X013886Y017163D01*
X013886Y017937D01*
X015439Y017937D01*
X015439Y017162D02*
X015439Y016388D01*
X013886Y016388D01*
X013886Y017162D01*
X015439Y017162D01*
X013689Y016537D02*
X012136Y016537D01*
X012136Y015763D01*
X013689Y015763D01*
X013689Y016537D01*
X010299Y016123D02*
X009525Y016123D01*
X009525Y017677D01*
X010299Y017677D01*
X010299Y016123D01*
X009524Y016123D02*
X009524Y017677D01*
X008750Y017677D01*
X008750Y016123D01*
X009524Y016123D01*
X008749Y016123D02*
X008749Y017677D01*
X007975Y017677D01*
X007975Y016123D01*
X008749Y016123D01*
X007904Y015444D02*
X007604Y015444D01*
X007604Y015369D01*
X007904Y015069D01*
X007904Y014994D01*
X007604Y014994D01*
X007444Y014994D02*
X007219Y014994D01*
X007144Y015069D01*
X007144Y015369D01*
X007219Y015444D01*
X007444Y015444D01*
X007444Y014994D01*
X006983Y015069D02*
X006908Y014994D01*
X006758Y014994D01*
X006683Y015069D01*
X006683Y015144D01*
X006758Y015219D01*
X006983Y015219D01*
X006983Y015069D01*
X006983Y015219D02*
X006833Y015369D01*
X006683Y015444D01*
X006424Y014599D02*
X005500Y014599D01*
X005500Y012651D01*
X006424Y012651D01*
X006424Y014599D01*
X004871Y014599D02*
X003604Y014599D01*
X003604Y012651D01*
X004871Y012651D01*
X004871Y014599D01*
X004837Y012550D02*
X004612Y012550D01*
X004537Y012475D01*
X004537Y012325D01*
X004612Y012250D01*
X004837Y012250D01*
X004687Y012250D02*
X004537Y012100D01*
X004377Y012175D02*
X004302Y012100D01*
X004152Y012100D01*
X004077Y012175D01*
X004077Y012325D01*
X004152Y012400D01*
X004227Y012400D01*
X004377Y012325D01*
X004377Y012550D01*
X004077Y012550D01*
X003917Y012550D02*
X003917Y012325D01*
X003767Y012400D01*
X003691Y012400D01*
X003616Y012325D01*
X003616Y012175D01*
X003691Y012100D01*
X003842Y012100D01*
X003917Y012175D01*
X003917Y012550D02*
X003616Y012550D01*
X004837Y012550D02*
X004837Y012100D01*
X005373Y012150D02*
X005448Y012075D01*
X005598Y012075D01*
X005673Y012150D01*
X005373Y012450D01*
X005373Y012150D01*
X005673Y012150D02*
X005673Y012450D01*
X005598Y012525D01*
X005448Y012525D01*
X005373Y012450D01*
X005833Y012525D02*
X005983Y012450D01*
X006133Y012300D01*
X005908Y012300D01*
X005833Y012225D01*
X005833Y012150D01*
X005908Y012075D01*
X006058Y012075D01*
X006133Y012150D01*
X006133Y012300D01*
X006293Y012150D02*
X006368Y012075D01*
X006519Y012075D01*
X006594Y012150D01*
X006594Y012450D01*
X006519Y012525D01*
X006368Y012525D01*
X006293Y012450D01*
X012423Y008500D02*
X012573Y008425D01*
X012723Y008275D01*
X012498Y008275D01*
X012423Y008200D01*
X012423Y008125D01*
X012498Y008050D01*
X012648Y008050D01*
X012723Y008125D01*
X012723Y008275D01*
X012883Y008125D02*
X012958Y008050D01*
X013108Y008050D01*
X013183Y008125D01*
X013183Y008425D01*
X013108Y008500D01*
X012958Y008500D01*
X012883Y008425D01*
X013340Y008500D02*
X013490Y008500D01*
X013415Y008500D02*
X013415Y008050D01*
X013490Y008050D02*
X013340Y008050D01*
X014250Y007998D02*
X015024Y007998D01*
X015024Y009552D01*
X014250Y009552D01*
X014250Y007998D01*
X015482Y007386D02*
X017043Y007386D01*
X017043Y010514D01*
X015482Y010514D01*
X015482Y007386D01*
X015964Y007162D02*
X015964Y006238D01*
X017911Y006238D01*
X017911Y007162D01*
X015964Y007162D01*
X017032Y007386D02*
X018593Y007386D01*
X018593Y010514D01*
X017032Y010514D01*
X017032Y007386D01*
X017132Y005714D02*
X018693Y005714D01*
X018693Y002586D01*
X017132Y002586D01*
X017132Y005714D01*
X015399Y005827D02*
X014625Y005827D01*
X014625Y004273D01*
X015399Y004273D01*
X015399Y005827D01*
X014121Y004299D02*
X012854Y004299D01*
X012854Y002351D01*
X014121Y002351D01*
X014121Y004299D01*
X012849Y004305D02*
X012175Y004305D01*
X012175Y003045D01*
X012849Y003045D01*
X012849Y004305D01*
X011539Y004387D02*
X011539Y003613D01*
X009986Y003613D01*
X009986Y004387D01*
X011539Y004387D01*
X011725Y005973D02*
X012499Y005973D01*
X012499Y007527D01*
X011725Y007527D01*
X011725Y005973D01*
X014914Y003337D02*
X014914Y002413D01*
X016861Y002413D01*
X016861Y003337D01*
X014914Y003337D01*
X018707Y002586D02*
X020268Y002586D01*
X020268Y005714D01*
X018707Y005714D01*
X018707Y002586D01*
X007199Y005126D02*
X006275Y005126D01*
X006275Y007074D01*
X007199Y007074D01*
X007199Y005126D01*
X018458Y016188D02*
X019717Y016188D01*
X019717Y016862D01*
X018458Y016862D01*
X018458Y016188D01*
X020436Y016313D02*
X020436Y017087D01*
X021989Y017087D01*
X021989Y016313D01*
X020436Y016313D01*
X020433Y017088D02*
X021692Y017088D01*
X021692Y017762D01*
X020433Y017762D01*
X020433Y017088D01*
X026811Y022463D02*
X028364Y022463D01*
X028364Y023237D01*
X026811Y023237D01*
X026811Y022463D01*
X028364Y022388D02*
X028364Y023262D01*
X030311Y023262D01*
X030311Y022388D01*
X028364Y022388D01*
X029442Y021575D02*
X029442Y021125D01*
X029592Y021125D02*
X029291Y021125D01*
X029207Y020989D02*
X029207Y017861D01*
X030768Y017861D01*
X030768Y020989D01*
X029207Y020989D01*
X029592Y021425D02*
X029442Y021575D01*
X029752Y021350D02*
X030052Y021350D01*
X029827Y021575D01*
X029827Y021125D01*
X030212Y021125D02*
X030362Y021275D01*
X030287Y021275D02*
X030512Y021275D01*
X030512Y021125D02*
X030512Y021575D01*
X030287Y021575D01*
X030212Y021500D01*
X030212Y021350D01*
X030287Y021275D01*
X030782Y020989D02*
X030782Y017861D01*
X032343Y017861D01*
X032343Y020989D01*
X030782Y020989D01*
X031023Y021175D02*
X031098Y021100D01*
X031248Y021100D01*
X031323Y021175D01*
X031023Y021475D01*
X031023Y021175D01*
X031323Y021175D02*
X031323Y021475D01*
X031248Y021550D01*
X031098Y021550D01*
X031023Y021475D01*
X031483Y021325D02*
X031783Y021325D01*
X031558Y021550D01*
X031558Y021100D01*
X031943Y021100D02*
X032094Y021250D01*
X032018Y021250D02*
X032244Y021250D01*
X032244Y021100D02*
X032244Y021550D01*
X032018Y021550D01*
X031943Y021475D01*
X031943Y021325D01*
X032018Y021250D01*
X027599Y023748D02*
X026825Y023748D01*
X026825Y025302D01*
X027599Y025302D01*
X027599Y023748D01*
X025899Y023623D02*
X025125Y023623D01*
X025125Y025177D01*
X025899Y025177D01*
X025899Y023623D01*
X025124Y023623D02*
X024350Y023623D01*
X024350Y025177D01*
X025124Y025177D01*
X025124Y023623D01*
X025889Y025163D02*
X024336Y025163D01*
X024336Y025937D01*
X025889Y025937D01*
X025889Y025163D01*
X026861Y025438D02*
X026861Y026212D01*
X028414Y026212D01*
X028414Y025438D01*
X026861Y025438D01*
X026861Y026213D02*
X028414Y026213D01*
X028414Y026987D01*
X026861Y026987D01*
X026861Y026213D01*
X026861Y026988D02*
X026861Y027762D01*
X028414Y027762D01*
X028414Y026988D01*
X026861Y026988D01*
X027158Y027763D02*
X028417Y027763D01*
X028417Y028437D01*
X027158Y028437D01*
X027158Y027763D01*
X023788Y027877D02*
X023713Y027802D01*
X023413Y027802D01*
X023337Y027877D01*
X023337Y028027D01*
X023413Y028102D01*
X023413Y028262D02*
X023337Y028337D01*
X023337Y028488D01*
X023413Y028563D01*
X023488Y028563D01*
X023563Y028488D01*
X023563Y028412D01*
X023563Y028488D02*
X023638Y028563D01*
X023713Y028563D01*
X023788Y028488D01*
X023788Y028337D01*
X023713Y028262D01*
X023713Y028102D02*
X023788Y028027D01*
X023788Y027877D01*
X023788Y027645D02*
X023788Y027495D01*
X023788Y027570D02*
X023337Y027570D01*
X023337Y027495D02*
X023337Y027645D01*
X018589Y026512D02*
X018589Y025738D01*
X017036Y025738D01*
X017036Y026512D01*
X018589Y026512D01*
X018589Y024937D02*
X017036Y024937D01*
X017036Y024163D01*
X018589Y024163D01*
X018589Y024937D01*
X013072Y023950D02*
X012922Y023950D01*
X012997Y023950D02*
X012997Y023500D01*
X013072Y023500D02*
X012922Y023500D01*
X012766Y023575D02*
X012690Y023500D01*
X012540Y023500D01*
X012465Y023575D01*
X012305Y023500D02*
X012005Y023800D01*
X012005Y023875D01*
X012080Y023950D01*
X012230Y023950D01*
X012305Y023875D01*
X012465Y023875D02*
X012540Y023950D01*
X012690Y023950D01*
X012766Y023875D01*
X012766Y023575D01*
X012305Y023500D02*
X012005Y023500D01*
X009649Y023573D02*
X009649Y025127D01*
X008875Y025127D01*
X008875Y023573D01*
X009649Y023573D01*
X009649Y023577D02*
X008875Y023577D01*
X008875Y022023D01*
X009649Y022023D01*
X009649Y023577D01*
X009883Y022112D02*
X009883Y021438D01*
X011142Y021438D01*
X011142Y022112D01*
X009883Y022112D01*
X010339Y020437D02*
X008786Y020437D01*
X008786Y019663D01*
X010339Y019663D01*
X010339Y020437D01*
X008292Y020162D02*
X008292Y019488D01*
X007033Y019488D01*
X007033Y020162D01*
X008292Y020162D01*
X005264Y018712D02*
X005264Y017938D01*
X003711Y017938D01*
X003711Y018712D01*
X005264Y018712D01*
X005661Y017937D02*
X005661Y017013D01*
X003714Y017013D01*
X003714Y017937D01*
X005661Y017937D01*
X005848Y017750D02*
X005773Y017675D01*
X005773Y017600D01*
X005848Y017525D01*
X005998Y017525D01*
X006073Y017600D01*
X006073Y017675D01*
X005998Y017750D01*
X005848Y017750D01*
X005848Y017525D02*
X005773Y017450D01*
X005773Y017375D01*
X005848Y017300D01*
X005998Y017300D01*
X006073Y017375D01*
X006073Y017450D01*
X005998Y017525D01*
X006233Y017525D02*
X006233Y017375D01*
X006308Y017300D01*
X006458Y017300D01*
X006533Y017375D01*
X006533Y017525D02*
X006383Y017600D01*
X006308Y017600D01*
X006233Y017525D01*
X006233Y017750D02*
X006533Y017750D01*
X006533Y017525D01*
X006693Y017375D02*
X006768Y017300D01*
X006919Y017300D01*
X006994Y017375D01*
X006994Y017675D01*
X006919Y017750D01*
X006768Y017750D01*
X006693Y017675D01*
X006899Y022348D02*
X006125Y022348D01*
X006125Y023902D01*
X006899Y023902D01*
X006899Y022348D01*
X006124Y022348D02*
X006124Y023902D01*
X005350Y023902D01*
X005350Y022348D01*
X006124Y022348D01*
X009764Y025338D02*
X009764Y026212D01*
X011711Y026212D01*
X011711Y025338D01*
X009764Y025338D01*
X009587Y025650D02*
X009587Y025900D01*
X009462Y025775D02*
X009712Y025775D01*
X008564Y029888D02*
X007011Y029888D01*
X007011Y030662D01*
X008564Y030662D01*
X008564Y029888D01*
X006717Y029988D02*
X006717Y030662D01*
X005458Y030662D01*
X005458Y029988D01*
X006717Y029988D01*
X008380Y031550D02*
X008680Y031550D01*
X008530Y031550D02*
X008530Y032000D01*
X008680Y031850D01*
X008840Y031925D02*
X008915Y032000D01*
X009065Y032000D01*
X009141Y031925D01*
X009141Y031625D01*
X009065Y031550D01*
X008915Y031550D01*
X008840Y031625D01*
X009297Y031550D02*
X009447Y031550D01*
X009372Y031550D02*
X009372Y032000D01*
X009447Y032000D02*
X009297Y032000D01*
X030483Y031912D02*
X030483Y031238D01*
X031742Y031238D01*
X031742Y031912D01*
X030483Y031912D01*
X030511Y032713D02*
X030511Y033487D01*
X032064Y033487D01*
X032064Y032713D01*
X030511Y032713D01*
X030511Y033488D02*
X032064Y033488D01*
X032064Y034262D01*
X030511Y034262D01*
X030511Y033488D01*
X040511Y028512D02*
X040511Y027738D01*
X042064Y027738D01*
X042064Y028512D01*
X040511Y028512D01*
X043025Y027798D02*
X043799Y027798D01*
X043799Y029352D01*
X043025Y029352D01*
X043025Y027798D01*
X043800Y027798D02*
X044574Y027798D01*
X044574Y029352D01*
X043800Y029352D01*
X043800Y027798D01*
X042889Y026412D02*
X041336Y026412D01*
X041336Y025638D01*
X042889Y025638D01*
X042889Y026412D01*
X043058Y024862D02*
X043058Y024188D01*
X044317Y024188D01*
X044317Y024862D01*
X043058Y024862D01*
X043058Y024187D02*
X043058Y023513D01*
X044317Y023513D01*
X044317Y024187D01*
X043058Y024187D01*
X043058Y023512D02*
X043058Y022838D01*
X044317Y022838D01*
X044317Y023512D01*
X043058Y023512D01*
X043033Y021912D02*
X043033Y021238D01*
X044292Y021238D01*
X044292Y021912D01*
X043033Y021912D01*
X043033Y021237D02*
X043033Y020563D01*
X044292Y020563D01*
X044292Y021237D01*
X043033Y021237D01*
X043033Y020562D02*
X043033Y019888D01*
X044292Y019888D01*
X044292Y020562D01*
X043033Y020562D01*
X042536Y019437D02*
X042536Y018663D01*
X044089Y018663D01*
X044089Y019437D01*
X042536Y019437D01*
X042975Y018202D02*
X042975Y016648D01*
X043749Y016648D01*
X043749Y018202D01*
X042975Y018202D01*
X045425Y019425D02*
X045425Y019875D01*
X045650Y019650D01*
X045350Y019650D01*
X045810Y019500D02*
X045885Y019425D01*
X046035Y019425D01*
X046111Y019500D01*
X046111Y019800D01*
X046035Y019875D01*
X045885Y019875D01*
X045810Y019800D01*
X046267Y019875D02*
X046417Y019875D01*
X046342Y019875D02*
X046342Y019425D01*
X046417Y019425D02*
X046267Y019425D01*
X047486Y020088D02*
X049039Y020088D01*
X049039Y020862D01*
X047486Y020862D01*
X047486Y020088D01*
X047486Y020863D02*
X049039Y020863D01*
X049039Y021637D01*
X047486Y021637D01*
X047486Y020863D01*
X047475Y021820D02*
X048149Y021820D01*
X048149Y023080D01*
X047475Y023080D01*
X047475Y021820D01*
X048336Y021638D02*
X048336Y022412D01*
X049889Y022412D01*
X049889Y021638D01*
X048336Y021638D01*
X048361Y022688D02*
X048361Y023462D01*
X049914Y023462D01*
X049914Y022688D01*
X048361Y022688D01*
X048361Y023463D02*
X048361Y024237D01*
X049914Y024237D01*
X049914Y023463D01*
X048361Y023463D01*
X049750Y024448D02*
X050524Y024448D01*
X050524Y026002D01*
X049750Y026002D01*
X049750Y024448D01*
X050525Y024448D02*
X051299Y024448D01*
X051299Y026002D01*
X050525Y026002D01*
X050525Y024448D01*
X051300Y024445D02*
X051974Y024445D01*
X051974Y025705D01*
X051300Y025705D01*
X051300Y024445D01*
X051350Y027448D02*
X052124Y027448D01*
X052124Y029002D01*
X051350Y029002D01*
X051350Y027448D01*
X051300Y029401D02*
X052174Y029401D01*
X052174Y031349D01*
X051300Y031349D01*
X051300Y029401D01*
X046862Y031775D02*
X046862Y032075D01*
X046787Y032150D01*
X046637Y032150D01*
X046562Y032075D01*
X046402Y032075D02*
X046327Y032150D01*
X046177Y032150D01*
X046102Y032075D01*
X046102Y032000D01*
X046177Y031925D01*
X046102Y031850D01*
X046102Y031775D01*
X046177Y031700D01*
X046327Y031700D01*
X046402Y031775D01*
X046562Y031775D02*
X046637Y031700D01*
X046787Y031700D01*
X046862Y031775D01*
X046252Y031925D02*
X046177Y031925D01*
X045942Y031925D02*
X045716Y031925D01*
X045641Y031850D01*
X045641Y031775D01*
X045716Y031700D01*
X045867Y031700D01*
X045942Y031775D01*
X045942Y031925D01*
X045792Y032075D01*
X045641Y032150D01*
X061214Y027938D02*
X061214Y027638D01*
X061214Y027478D02*
X061664Y027478D01*
X061664Y027178D01*
X061664Y027018D02*
X061664Y026717D01*
X061914Y026804D02*
X062364Y026804D01*
X062364Y026954D02*
X062364Y026654D01*
X062289Y026494D02*
X062214Y026494D01*
X062139Y026419D01*
X062139Y026269D01*
X062214Y026194D01*
X062289Y026194D01*
X062364Y026269D01*
X062364Y026419D01*
X062289Y026494D01*
X062139Y026419D02*
X062064Y026494D01*
X061989Y026494D01*
X061914Y026419D01*
X061914Y026269D01*
X061989Y026194D01*
X062064Y026194D01*
X062139Y026269D01*
X061664Y026022D02*
X061664Y025872D01*
X061589Y025797D01*
X061664Y025636D02*
X061214Y025636D01*
X061214Y025336D01*
X061439Y025486D02*
X061439Y025636D01*
X061289Y025797D02*
X061214Y025872D01*
X061214Y026022D01*
X061289Y026097D01*
X061589Y026097D01*
X061664Y026022D01*
X062064Y025573D02*
X062364Y025573D01*
X062214Y025573D02*
X062064Y025423D01*
X062064Y025348D01*
X061989Y025190D02*
X061914Y025115D01*
X061914Y024964D01*
X061989Y024889D01*
X062064Y024889D01*
X062139Y024964D01*
X062214Y024889D01*
X062289Y024889D01*
X062364Y024964D01*
X062364Y025115D01*
X062289Y025190D01*
X062139Y025040D02*
X062139Y024964D01*
X062139Y024729D02*
X062139Y024504D01*
X062214Y024429D01*
X062289Y024429D01*
X062364Y024504D01*
X062364Y024729D01*
X061914Y024729D01*
X061914Y024504D01*
X061989Y024429D01*
X062064Y024429D01*
X062139Y024504D01*
X062139Y024269D02*
X062139Y023969D01*
X062364Y024044D02*
X061914Y024044D01*
X062139Y024269D01*
X061664Y024255D02*
X061664Y024105D01*
X061664Y024180D02*
X061214Y024180D01*
X061214Y024255D02*
X061214Y024105D01*
X061289Y023948D02*
X061589Y023948D01*
X061664Y023873D01*
X061664Y023723D01*
X061589Y023648D01*
X061289Y023648D02*
X061214Y023723D01*
X061214Y023873D01*
X061289Y023948D01*
X061289Y024415D02*
X061214Y024490D01*
X061214Y024716D01*
X061664Y024716D01*
X061664Y024490D01*
X061589Y024415D01*
X061289Y024415D01*
X061439Y024876D02*
X061439Y025176D01*
X061914Y023808D02*
X062064Y023658D01*
X062214Y023658D01*
X062364Y023808D01*
X061914Y026804D02*
X062064Y026954D01*
X061989Y027115D02*
X062289Y027415D01*
X062364Y027340D01*
X062364Y027190D01*
X062289Y027115D01*
X061989Y027115D01*
X061914Y027190D01*
X061914Y027340D01*
X061989Y027415D01*
X062289Y027415D01*
X062364Y027575D02*
X062364Y027875D01*
X062064Y027575D01*
X061989Y027575D01*
X061914Y027650D01*
X061914Y027800D01*
X061989Y027875D01*
X061914Y028035D02*
X062364Y028336D01*
X062289Y028496D02*
X062364Y028571D01*
X062364Y028721D01*
X062289Y028796D01*
X062214Y028796D01*
X062139Y028721D01*
X062139Y028571D01*
X062214Y028496D01*
X062289Y028496D01*
X062139Y028571D02*
X062064Y028496D01*
X061989Y028496D01*
X061914Y028571D01*
X061914Y028721D01*
X061989Y028796D01*
X062064Y028796D01*
X062139Y028721D01*
X061989Y028956D02*
X062289Y028956D01*
X062364Y029031D01*
X062364Y029181D01*
X062289Y029256D01*
X061989Y028956D01*
X061914Y029031D01*
X061914Y029181D01*
X061989Y029256D01*
X062289Y029256D01*
X062364Y029413D02*
X062214Y029563D01*
X062064Y029563D01*
X061914Y029413D01*
X061664Y027938D02*
X061214Y027938D01*
X061439Y027938D02*
X061439Y027788D01*
X061664Y027938D02*
X061664Y027638D01*
X061439Y027478D02*
X061439Y027328D01*
X061214Y027178D02*
X061214Y027478D01*
X061214Y027018D02*
X061214Y026717D01*
X061289Y026717D01*
X061589Y027018D01*
X061664Y027018D01*
X049039Y018587D02*
X049039Y017813D01*
X047486Y017813D01*
X047486Y018587D01*
X049039Y018587D01*
X039649Y018727D02*
X039649Y017173D01*
X038875Y017173D01*
X038875Y018727D01*
X039649Y018727D01*
X035444Y016100D02*
X035444Y015800D01*
X035369Y015725D01*
X035218Y015725D01*
X035143Y015800D01*
X034983Y015950D02*
X034683Y015950D01*
X034523Y015950D02*
X034298Y015950D01*
X034223Y015875D01*
X034223Y015800D01*
X034298Y015725D01*
X034448Y015725D01*
X034523Y015800D01*
X034523Y015950D01*
X034373Y016100D01*
X034223Y016175D01*
X034758Y016175D02*
X034758Y015725D01*
X034983Y015950D02*
X034758Y016175D01*
X035143Y016100D02*
X035218Y016175D01*
X035369Y016175D01*
X035444Y016100D01*
X031594Y016125D02*
X031594Y015675D01*
X031368Y015675D01*
X031293Y015750D01*
X031293Y016050D01*
X031368Y016125D01*
X031594Y016125D01*
X031133Y015975D02*
X030983Y016125D01*
X030983Y015675D01*
X031133Y015675D02*
X030833Y015675D01*
X030673Y015750D02*
X030673Y015825D01*
X030598Y015900D01*
X030448Y015900D01*
X030373Y015825D01*
X030373Y015750D01*
X030448Y015675D01*
X030598Y015675D01*
X030673Y015750D01*
X030598Y015900D02*
X030673Y015975D01*
X030673Y016050D01*
X030598Y016125D01*
X030448Y016125D01*
X030373Y016050D01*
X030373Y015975D01*
X030448Y015900D01*
D12*
X044435Y006512D02*
X042935Y004012D01*
X045935Y004012D01*
X044435Y006512D01*
X044535Y005812D02*
X044335Y005812D01*
X044735Y005012D01*
X044535Y005812D01*
X044545Y005772D02*
X044355Y005772D01*
X044434Y005614D02*
X044584Y005614D01*
X044535Y005762D02*
X044785Y005012D01*
X044285Y005012D01*
X044535Y004262D01*
X044535Y004212D02*
X044235Y004512D01*
X044635Y004612D01*
X044535Y004212D01*
X044568Y004346D02*
X044401Y004346D01*
X044243Y004504D02*
X044608Y004504D01*
X044672Y005138D02*
X044703Y005138D01*
X044664Y005297D02*
X044593Y005297D01*
X044624Y005455D02*
X044513Y005455D01*
D13*
X046076Y005126D02*
X046470Y005126D01*
X046470Y004535D01*
X046076Y004535D01*
X046273Y004830D02*
X046470Y004830D01*
X046684Y004830D02*
X046881Y004830D01*
X046684Y004830D02*
X046684Y004633D01*
X046783Y004535D01*
X046979Y004535D01*
X047078Y004633D01*
X047078Y005027D01*
X046979Y005126D01*
X046783Y005126D01*
X046684Y005027D01*
X047292Y004929D02*
X047292Y004535D01*
X047292Y004830D02*
X047686Y004830D01*
X047686Y004929D02*
X047489Y005126D01*
X047292Y004929D01*
X047686Y004929D02*
X047686Y004535D01*
X048096Y004535D02*
X048096Y005126D01*
X047900Y005126D02*
X048293Y005126D01*
X048421Y005410D02*
X048323Y005508D01*
X048323Y005902D01*
X048421Y006001D01*
X048618Y006001D01*
X048716Y005902D01*
X048716Y005508D01*
X048618Y005410D01*
X048421Y005410D01*
X048109Y005410D02*
X048109Y006001D01*
X047715Y005410D01*
X047715Y006001D01*
X047501Y006099D02*
X047501Y005705D01*
X047501Y005508D02*
X047501Y005410D01*
X048507Y004535D02*
X048901Y004535D01*
X048901Y005126D01*
X049115Y005027D02*
X049213Y005126D01*
X049410Y005126D01*
X049509Y005027D01*
X049509Y004633D01*
X049410Y004535D01*
X049213Y004535D01*
X049115Y004633D01*
X049115Y005027D01*
X049122Y005410D02*
X048925Y005410D01*
X049023Y005410D02*
X049023Y006001D01*
X048925Y006001D02*
X049122Y006001D01*
X049336Y006001D02*
X049729Y006001D01*
X049532Y006001D02*
X049532Y005410D01*
X049723Y005126D02*
X049723Y004732D01*
X049920Y004535D01*
X050116Y004732D01*
X050116Y005126D01*
X050042Y005410D02*
X049943Y005508D01*
X049943Y006001D01*
X050337Y006001D02*
X050337Y005508D01*
X050239Y005410D01*
X050042Y005410D01*
X050551Y005410D02*
X050551Y005804D01*
X050748Y006001D01*
X050945Y005804D01*
X050945Y005410D01*
X051159Y005508D02*
X051257Y005410D01*
X051454Y005410D01*
X051552Y005508D01*
X051552Y005902D01*
X051454Y006001D01*
X051257Y006001D01*
X051159Y005902D01*
X050945Y005705D02*
X050551Y005705D01*
X050938Y005126D02*
X050938Y004535D01*
X050938Y004830D02*
X051332Y004830D01*
X051546Y004830D02*
X051743Y004830D01*
X051546Y004830D02*
X051546Y004633D01*
X051644Y004535D01*
X051841Y004535D01*
X051940Y004633D01*
X051940Y005027D01*
X051841Y005126D01*
X051644Y005126D01*
X051546Y005027D01*
X051332Y005126D02*
X051332Y004535D01*
X052148Y004535D02*
X052345Y004535D01*
X052246Y004535D02*
X052246Y005126D01*
X052148Y005126D02*
X052345Y005126D01*
X052559Y005126D02*
X052559Y004535D01*
X052559Y004830D02*
X052952Y004830D01*
X052952Y004535D02*
X052952Y005126D01*
D14*
X019162Y028675D02*
X019164Y028688D01*
X019169Y028701D01*
X019178Y028712D01*
X019189Y028719D01*
X019202Y028724D01*
X019215Y028725D01*
X019229Y028722D01*
X019241Y028716D01*
X019251Y028707D01*
X019258Y028695D01*
X019262Y028682D01*
X019262Y028668D01*
X019258Y028655D01*
X019251Y028643D01*
X019241Y028634D01*
X019229Y028628D01*
X019215Y028625D01*
X019202Y028626D01*
X019189Y028631D01*
X019178Y028638D01*
X019169Y028649D01*
X019164Y028662D01*
X019162Y028675D01*
X019162Y029275D02*
X019164Y029288D01*
X019169Y029301D01*
X019178Y029312D01*
X019189Y029319D01*
X019202Y029324D01*
X019215Y029325D01*
X019229Y029322D01*
X019241Y029316D01*
X019251Y029307D01*
X019258Y029295D01*
X019262Y029282D01*
X019262Y029268D01*
X019258Y029255D01*
X019251Y029243D01*
X019241Y029234D01*
X019229Y029228D01*
X019215Y029225D01*
X019202Y029226D01*
X019189Y029231D01*
X019178Y029238D01*
X019169Y029249D01*
X019164Y029262D01*
X019162Y029275D01*
X019162Y029875D02*
X019164Y029888D01*
X019169Y029901D01*
X019178Y029912D01*
X019189Y029919D01*
X019202Y029924D01*
X019215Y029925D01*
X019229Y029922D01*
X019241Y029916D01*
X019251Y029907D01*
X019258Y029895D01*
X019262Y029882D01*
X019262Y029868D01*
X019258Y029855D01*
X019251Y029843D01*
X019241Y029834D01*
X019229Y029828D01*
X019215Y029825D01*
X019202Y029826D01*
X019189Y029831D01*
X019178Y029838D01*
X019169Y029849D01*
X019164Y029862D01*
X019162Y029875D01*
X019162Y030475D02*
X019164Y030488D01*
X019169Y030501D01*
X019178Y030512D01*
X019189Y030519D01*
X019202Y030524D01*
X019215Y030525D01*
X019229Y030522D01*
X019241Y030516D01*
X019251Y030507D01*
X019258Y030495D01*
X019262Y030482D01*
X019262Y030468D01*
X019258Y030455D01*
X019251Y030443D01*
X019241Y030434D01*
X019229Y030428D01*
X019215Y030425D01*
X019202Y030426D01*
X019189Y030431D01*
X019178Y030438D01*
X019169Y030449D01*
X019164Y030462D01*
X019162Y030475D01*
X019162Y031075D02*
X019164Y031088D01*
X019169Y031101D01*
X019178Y031112D01*
X019189Y031119D01*
X019202Y031124D01*
X019215Y031125D01*
X019229Y031122D01*
X019241Y031116D01*
X019251Y031107D01*
X019258Y031095D01*
X019262Y031082D01*
X019262Y031068D01*
X019258Y031055D01*
X019251Y031043D01*
X019241Y031034D01*
X019229Y031028D01*
X019215Y031025D01*
X019202Y031026D01*
X019189Y031031D01*
X019178Y031038D01*
X019169Y031049D01*
X019164Y031062D01*
X019162Y031075D01*
X019162Y031675D02*
X019164Y031688D01*
X019169Y031701D01*
X019178Y031712D01*
X019189Y031719D01*
X019202Y031724D01*
X019215Y031725D01*
X019229Y031722D01*
X019241Y031716D01*
X019251Y031707D01*
X019258Y031695D01*
X019262Y031682D01*
X019262Y031668D01*
X019258Y031655D01*
X019251Y031643D01*
X019241Y031634D01*
X019229Y031628D01*
X019215Y031625D01*
X019202Y031626D01*
X019189Y031631D01*
X019178Y031638D01*
X019169Y031649D01*
X019164Y031662D01*
X019162Y031675D01*
X019162Y032275D02*
X019164Y032288D01*
X019169Y032301D01*
X019178Y032312D01*
X019189Y032319D01*
X019202Y032324D01*
X019215Y032325D01*
X019229Y032322D01*
X019241Y032316D01*
X019251Y032307D01*
X019258Y032295D01*
X019262Y032282D01*
X019262Y032268D01*
X019258Y032255D01*
X019251Y032243D01*
X019241Y032234D01*
X019229Y032228D01*
X019215Y032225D01*
X019202Y032226D01*
X019189Y032231D01*
X019178Y032238D01*
X019169Y032249D01*
X019164Y032262D01*
X019162Y032275D01*
X019162Y032875D02*
X019164Y032888D01*
X019169Y032901D01*
X019178Y032912D01*
X019189Y032919D01*
X019202Y032924D01*
X019215Y032925D01*
X019229Y032922D01*
X019241Y032916D01*
X019251Y032907D01*
X019258Y032895D01*
X019262Y032882D01*
X019262Y032868D01*
X019258Y032855D01*
X019251Y032843D01*
X019241Y032834D01*
X019229Y032828D01*
X019215Y032825D01*
X019202Y032826D01*
X019189Y032831D01*
X019178Y032838D01*
X019169Y032849D01*
X019164Y032862D01*
X019162Y032875D01*
X005386Y015501D02*
X004973Y015225D01*
X005386Y014930D01*
X005386Y015501D01*
D15*
X007607Y018315D02*
X009367Y018315D01*
X008837Y019050D02*
X009187Y019300D01*
X008837Y019300D01*
X008837Y019050D01*
X008837Y019069D02*
X008864Y019069D01*
X008837Y019128D02*
X008946Y019128D01*
X009028Y019186D02*
X008837Y019186D01*
X008837Y019245D02*
X009110Y019245D01*
X009367Y019535D02*
X008607Y019535D01*
X008605Y019514D01*
X008600Y019494D01*
X008591Y019475D01*
X008579Y019458D01*
X008564Y019443D01*
X008547Y019431D01*
X008528Y019422D01*
X008508Y019417D01*
X008487Y019415D01*
X008466Y019417D01*
X008446Y019422D01*
X008427Y019431D01*
X008410Y019443D01*
X008395Y019458D01*
X008383Y019475D01*
X008374Y019494D01*
X008369Y019514D01*
X008367Y019535D01*
X007607Y019535D01*
X012607Y017815D02*
X012607Y017465D01*
X012607Y017815D02*
X012767Y017815D01*
X012927Y017815D01*
X012897Y017695D02*
X012877Y017695D01*
X012858Y017699D01*
X012839Y017705D01*
X012821Y017715D01*
X012806Y017727D01*
X012792Y017741D01*
X012781Y017758D01*
X012773Y017776D01*
X012769Y017796D01*
X012767Y017815D01*
X013167Y017385D02*
X013167Y017065D01*
X012607Y016985D02*
X012607Y016635D01*
X012927Y016635D01*
X019576Y016080D02*
X020192Y016080D01*
X020194Y016059D01*
X020199Y016039D01*
X020208Y016020D01*
X020220Y016003D01*
X020235Y015988D01*
X020252Y015976D01*
X020271Y015967D01*
X020291Y015962D01*
X020312Y015960D01*
X020333Y015962D01*
X020353Y015967D01*
X020372Y015976D01*
X020389Y015988D01*
X020404Y016003D01*
X020416Y016020D01*
X020425Y016039D01*
X020430Y016059D01*
X020432Y016080D01*
X021049Y016080D01*
X020937Y015825D02*
X020587Y015575D01*
X020587Y015825D01*
X020937Y015825D01*
X020893Y015793D02*
X020587Y015793D01*
X020587Y015735D02*
X020811Y015735D01*
X020729Y015676D02*
X020587Y015676D01*
X020587Y015618D02*
X020647Y015618D01*
X021049Y014120D02*
X019576Y014120D01*
X019676Y017895D02*
X021149Y017895D01*
X020687Y019350D02*
X021037Y019600D01*
X020687Y019600D01*
X020687Y019350D01*
X020687Y019362D02*
X020704Y019362D01*
X020687Y019420D02*
X020786Y019420D01*
X020867Y019479D02*
X020687Y019479D01*
X020687Y019537D02*
X020949Y019537D01*
X021031Y019596D02*
X020687Y019596D01*
X020532Y019855D02*
X021149Y019855D01*
X020532Y019855D02*
X020530Y019834D01*
X020525Y019814D01*
X020516Y019795D01*
X020504Y019778D01*
X020489Y019763D01*
X020472Y019751D01*
X020453Y019742D01*
X020433Y019737D01*
X020412Y019735D01*
X020391Y019737D01*
X020371Y019742D01*
X020352Y019751D01*
X020335Y019763D01*
X020320Y019778D01*
X020308Y019795D01*
X020299Y019814D01*
X020294Y019834D01*
X020292Y019855D01*
X019676Y019855D01*
X026117Y017225D02*
X027407Y017225D01*
X026637Y016775D02*
X026287Y016525D01*
X026637Y016525D01*
X026637Y016775D01*
X026637Y016729D02*
X026573Y016729D01*
X026637Y016671D02*
X026491Y016671D01*
X026409Y016612D02*
X026637Y016612D01*
X026637Y016554D02*
X026327Y016554D01*
X026117Y016325D02*
X026642Y016325D01*
X026644Y016346D01*
X026649Y016366D01*
X026658Y016385D01*
X026670Y016402D01*
X026685Y016417D01*
X026702Y016429D01*
X026721Y016438D01*
X026741Y016443D01*
X026762Y016445D01*
X026783Y016443D01*
X026803Y016438D01*
X026822Y016429D01*
X026839Y016417D01*
X026854Y016402D01*
X026866Y016385D01*
X026875Y016366D01*
X026880Y016346D01*
X026882Y016325D01*
X027407Y016325D01*
X021432Y024300D02*
X020907Y024300D01*
X020905Y024321D01*
X020900Y024341D01*
X020891Y024360D01*
X020879Y024377D01*
X020864Y024392D01*
X020847Y024404D01*
X020828Y024413D01*
X020808Y024418D01*
X020787Y024420D01*
X020766Y024418D01*
X020746Y024413D01*
X020727Y024404D01*
X020710Y024392D01*
X020695Y024377D01*
X020683Y024360D01*
X020674Y024341D01*
X020669Y024321D01*
X020667Y024300D01*
X020142Y024300D01*
X020312Y024500D02*
X020662Y024750D01*
X020662Y024500D01*
X020312Y024500D01*
X020326Y024510D02*
X020662Y024510D01*
X020662Y024568D02*
X020408Y024568D01*
X020490Y024627D02*
X020662Y024627D01*
X020662Y024685D02*
X020572Y024685D01*
X020654Y024744D02*
X020662Y024744D01*
X020142Y025200D02*
X021432Y025200D01*
X024692Y026225D02*
X024692Y030125D01*
X025217Y030125D01*
X025219Y030104D01*
X025224Y030084D01*
X025233Y030065D01*
X025245Y030048D01*
X025260Y030033D01*
X025277Y030021D01*
X025296Y030012D01*
X025316Y030007D01*
X025337Y030005D01*
X025358Y030007D01*
X025378Y030012D01*
X025397Y030021D01*
X025414Y030033D01*
X025429Y030048D01*
X025441Y030065D01*
X025450Y030084D01*
X025455Y030104D01*
X025457Y030125D01*
X025982Y030125D01*
X025982Y026225D01*
X024692Y026225D01*
X019512Y028375D02*
X019512Y033200D01*
X018912Y033200D01*
X018912Y028375D01*
X019512Y028375D01*
X017562Y025475D02*
X017562Y025175D01*
X017787Y025325D01*
X017562Y025475D01*
X017562Y025446D02*
X017607Y025446D01*
X017562Y025387D02*
X017694Y025387D01*
X017782Y025329D02*
X017562Y025329D01*
X017562Y025270D02*
X017705Y025270D01*
X017617Y025212D02*
X017562Y025212D01*
X011917Y024265D02*
X011917Y023185D01*
X010437Y023825D02*
X010187Y024175D01*
X010187Y023825D01*
X010437Y023825D01*
X010408Y023866D02*
X010187Y023866D01*
X010187Y023925D02*
X010366Y023925D01*
X010325Y023983D02*
X010187Y023983D01*
X010187Y024042D02*
X010283Y024042D01*
X010241Y024100D02*
X010187Y024100D01*
X010187Y024159D02*
X010199Y024159D01*
X009957Y024265D02*
X009957Y023845D01*
X009978Y023843D01*
X009998Y023838D01*
X010017Y023829D01*
X010034Y023817D01*
X010049Y023802D01*
X010061Y023785D01*
X010070Y023766D01*
X010075Y023746D01*
X010077Y023725D01*
X010075Y023704D01*
X010070Y023684D01*
X010061Y023665D01*
X010049Y023648D01*
X010034Y023633D01*
X010017Y023621D01*
X009998Y023612D01*
X009978Y023607D01*
X009957Y023605D01*
X009957Y023185D01*
X009957Y023605D02*
X009978Y023607D01*
X009998Y023612D01*
X010017Y023621D01*
X010034Y023633D01*
X010049Y023648D01*
X010061Y023665D01*
X010070Y023684D01*
X010075Y023704D01*
X010077Y023725D01*
X010075Y023746D01*
X010070Y023766D01*
X010061Y023785D01*
X010049Y023802D01*
X010034Y023817D01*
X010017Y023829D01*
X009998Y023838D01*
X009978Y023843D01*
X009957Y023845D01*
X008437Y023700D02*
X008287Y023475D01*
X008137Y023700D01*
X008437Y023700D01*
X008431Y023691D02*
X008144Y023691D01*
X008183Y023632D02*
X008392Y023632D01*
X008353Y023574D02*
X008222Y023574D01*
X008261Y023515D02*
X008314Y023515D01*
X007612Y023400D02*
X007462Y023625D01*
X007312Y023400D01*
X007612Y023400D01*
X007575Y023457D02*
X007350Y023457D01*
X007389Y023515D02*
X007536Y023515D01*
X007497Y023574D02*
X007428Y023574D01*
X006587Y028625D02*
X006287Y028625D01*
X006437Y028850D01*
X006587Y028625D01*
X006562Y028663D02*
X006313Y028663D01*
X006352Y028722D02*
X006523Y028722D01*
X006484Y028780D02*
X006391Y028780D01*
X006430Y028839D02*
X006445Y028839D01*
X005737Y028925D02*
X005437Y028925D01*
X005587Y028700D01*
X005737Y028925D01*
X005719Y028897D02*
X005456Y028897D01*
X005495Y028839D02*
X005680Y028839D01*
X005641Y028780D02*
X005534Y028780D01*
X005573Y028722D02*
X005602Y028722D01*
X006126Y030770D02*
X006742Y030770D01*
X006744Y030791D01*
X006749Y030811D01*
X006758Y030830D01*
X006770Y030847D01*
X006785Y030862D01*
X006802Y030874D01*
X006821Y030883D01*
X006841Y030888D01*
X006862Y030890D01*
X006883Y030888D01*
X006903Y030883D01*
X006922Y030874D01*
X006939Y030862D01*
X006954Y030847D01*
X006966Y030830D01*
X006975Y030811D01*
X006980Y030791D01*
X006982Y030770D01*
X007599Y030770D01*
X006587Y031025D02*
X006587Y031275D01*
X006237Y031025D01*
X006587Y031025D01*
X006587Y031062D02*
X006289Y031062D01*
X006371Y031120D02*
X006587Y031120D01*
X006587Y031179D02*
X006453Y031179D01*
X006534Y031237D02*
X006587Y031237D01*
X006126Y032730D02*
X007599Y032730D01*
X025512Y029925D02*
X025512Y029675D01*
X025862Y029925D01*
X025512Y029925D01*
X025512Y029892D02*
X025816Y029892D01*
X025734Y029833D02*
X025512Y029833D01*
X025512Y029775D02*
X025652Y029775D01*
X025570Y029716D02*
X025512Y029716D01*
X028198Y030980D02*
X028532Y030980D01*
X028365Y030980D02*
X028365Y031480D01*
X028532Y031314D01*
X028714Y031397D02*
X028797Y031480D01*
X028964Y031480D01*
X029047Y031397D01*
X029047Y031063D01*
X028964Y030980D01*
X028797Y030980D01*
X028714Y031063D01*
X028714Y031397D01*
X028881Y031147D02*
X028714Y030980D01*
X029317Y031605D02*
X027857Y031605D01*
X027857Y031825D01*
X029317Y031605D02*
X029317Y034245D01*
X027857Y034245D01*
X027857Y034025D01*
X031287Y032300D02*
X031512Y032150D01*
X031512Y032450D01*
X031287Y032300D01*
X031302Y032290D02*
X031512Y032290D01*
X031512Y032232D02*
X031390Y032232D01*
X031478Y032173D02*
X031512Y032173D01*
X031512Y032349D02*
X031360Y032349D01*
X031448Y032407D02*
X031512Y032407D01*
X042217Y028969D02*
X042217Y028181D01*
X042362Y028425D02*
X042662Y028425D01*
X042512Y028650D01*
X042362Y028425D01*
X042365Y028429D02*
X042660Y028429D01*
X042621Y028488D02*
X042404Y028488D01*
X042443Y028546D02*
X042582Y028546D01*
X042543Y028605D02*
X042482Y028605D01*
X042808Y028969D02*
X042808Y028181D01*
X042362Y026900D02*
X042137Y026750D01*
X042362Y026600D01*
X042362Y026900D01*
X042362Y026850D02*
X042287Y026850D01*
X042362Y026791D02*
X042199Y026791D01*
X042164Y026733D02*
X042362Y026733D01*
X042362Y026674D02*
X042251Y026674D01*
X042339Y026616D02*
X042362Y026616D01*
X045242Y023925D02*
X045242Y020025D01*
X046532Y020025D01*
X046532Y023925D01*
X046007Y023925D01*
X046005Y023904D01*
X046000Y023884D01*
X045991Y023865D01*
X045979Y023848D01*
X045964Y023833D01*
X045947Y023821D01*
X045928Y023812D01*
X045908Y023807D01*
X045887Y023805D01*
X045866Y023807D01*
X045846Y023812D01*
X045827Y023821D01*
X045810Y023833D01*
X045795Y023848D01*
X045783Y023865D01*
X045774Y023884D01*
X045769Y023904D01*
X045767Y023925D01*
X045242Y023925D01*
X046062Y023725D02*
X046062Y023475D01*
X046412Y023725D01*
X046062Y023725D01*
X046062Y023691D02*
X046364Y023691D01*
X046282Y023632D02*
X046062Y023632D01*
X046062Y023574D02*
X046201Y023574D01*
X046119Y023515D02*
X046062Y023515D01*
X048662Y019175D02*
X048437Y019025D01*
X048662Y018875D01*
X048662Y019175D01*
X048662Y019128D02*
X048591Y019128D01*
X048662Y019069D02*
X048504Y019069D01*
X048459Y019011D02*
X048662Y019011D01*
X048662Y018952D02*
X048547Y018952D01*
X048635Y018894D02*
X048662Y018894D01*
X045552Y015315D02*
X045232Y015315D01*
X045232Y015040D01*
X045792Y014810D02*
X045792Y014640D01*
X045552Y014135D02*
X045232Y014135D01*
X045232Y014410D01*
X047762Y012605D02*
X047762Y011845D01*
X047783Y011843D01*
X047803Y011838D01*
X047822Y011829D01*
X047839Y011817D01*
X047854Y011802D01*
X047866Y011785D01*
X047875Y011766D01*
X047880Y011746D01*
X047882Y011725D01*
X047880Y011704D01*
X047875Y011684D01*
X047866Y011665D01*
X047854Y011648D01*
X047839Y011633D01*
X047822Y011621D01*
X047803Y011612D01*
X047783Y011607D01*
X047762Y011605D01*
X047762Y010845D01*
X047962Y012075D02*
X048162Y012075D01*
X047962Y012400D01*
X047962Y012075D01*
X047962Y012108D02*
X048142Y012108D01*
X048106Y012166D02*
X047962Y012166D01*
X047962Y012225D02*
X048070Y012225D01*
X048034Y012283D02*
X047962Y012283D01*
X047962Y012342D02*
X047998Y012342D01*
X049862Y012605D02*
X049862Y010845D01*
X045637Y010400D02*
X045412Y010250D01*
X045412Y010550D01*
X045637Y010400D01*
X045621Y010411D02*
X045412Y010411D01*
X045412Y010353D02*
X045566Y010353D01*
X045479Y010294D02*
X045412Y010294D01*
X045412Y010470D02*
X045533Y010470D01*
X045445Y010528D02*
X045412Y010528D01*
X039787Y003675D02*
X039562Y003525D01*
X039787Y003375D01*
X039787Y003675D01*
X039787Y003625D02*
X039712Y003625D01*
X039787Y003567D02*
X039625Y003567D01*
X039588Y003508D02*
X039787Y003508D01*
X039787Y003450D02*
X039676Y003450D01*
X039763Y003391D02*
X039787Y003391D01*
X015937Y004775D02*
X015787Y005000D01*
X015637Y004775D01*
X015937Y004775D01*
X015924Y004795D02*
X015651Y004795D01*
X015690Y004854D02*
X015885Y004854D01*
X015846Y004912D02*
X015729Y004912D01*
X015768Y004971D02*
X015807Y004971D01*
X014587Y005805D02*
X014587Y006330D01*
X014566Y006332D01*
X014546Y006337D01*
X014527Y006346D01*
X014510Y006358D01*
X014495Y006373D01*
X014483Y006390D01*
X014474Y006409D01*
X014469Y006429D01*
X014467Y006450D01*
X014469Y006471D01*
X014474Y006491D01*
X014483Y006510D01*
X014495Y006527D01*
X014510Y006542D01*
X014527Y006554D01*
X014546Y006563D01*
X014566Y006568D01*
X014587Y006570D01*
X014587Y007095D01*
X014387Y006325D02*
X014137Y006325D01*
X014387Y005975D01*
X014387Y006325D01*
X014387Y006316D02*
X014144Y006316D01*
X014186Y006258D02*
X014387Y006258D01*
X014387Y006199D02*
X014227Y006199D01*
X014269Y006141D02*
X014387Y006141D01*
X014387Y006082D02*
X014311Y006082D01*
X014353Y006024D02*
X014387Y006024D01*
X012687Y005805D02*
X012687Y007095D01*
X013912Y008925D02*
X013762Y009150D01*
X014062Y009150D01*
X013912Y008925D01*
X013897Y008949D02*
X013928Y008949D01*
X013967Y009007D02*
X013858Y009007D01*
X013819Y009066D02*
X014006Y009066D01*
X014045Y009124D02*
X013780Y009124D01*
X042462Y017475D02*
X042762Y017475D01*
X042612Y017700D01*
X042462Y017475D01*
X042472Y017490D02*
X042753Y017490D01*
X042714Y017548D02*
X042511Y017548D01*
X042550Y017607D02*
X042675Y017607D01*
X042636Y017665D02*
X042589Y017665D01*
D16*
X047399Y013487D02*
X047592Y013293D01*
X047544Y013245D01*
X047447Y013245D01*
X047399Y013293D01*
X047399Y013487D01*
X047447Y013535D01*
X047544Y013535D01*
X047592Y013487D01*
X047592Y013293D01*
X047693Y013293D02*
X047742Y013245D01*
X047838Y013245D01*
X047887Y013293D01*
X047887Y013390D02*
X047790Y013438D01*
X047742Y013438D01*
X047693Y013390D01*
X047693Y013293D01*
X047887Y013390D02*
X047887Y013535D01*
X047693Y013535D01*
X047988Y013487D02*
X048036Y013535D01*
X048133Y013535D01*
X048181Y013487D01*
X048181Y013293D01*
X048133Y013245D01*
X048036Y013245D01*
X047988Y013293D01*
X026793Y025415D02*
X026793Y025560D01*
X026744Y025608D01*
X026648Y025608D01*
X026599Y025560D01*
X026599Y025415D01*
X026502Y025415D02*
X026793Y025415D01*
X026599Y025512D02*
X026502Y025608D01*
X026502Y025710D02*
X026502Y025903D01*
X026502Y025806D02*
X026793Y025806D01*
X026696Y025710D01*
X026793Y026004D02*
X026793Y026198D01*
X026744Y026198D01*
X026551Y026004D01*
X026502Y026004D01*
X025977Y024823D02*
X025977Y024629D01*
X025977Y024726D02*
X026268Y024726D01*
X026171Y024629D01*
X026171Y024528D02*
X025977Y024335D01*
X025977Y024528D01*
X026171Y024528D02*
X026219Y024528D01*
X026268Y024480D01*
X026268Y024383D01*
X026219Y024335D01*
X026219Y024233D02*
X026123Y024233D01*
X026074Y024185D01*
X026074Y024040D01*
X025977Y024040D02*
X026268Y024040D01*
X026268Y024185D01*
X026219Y024233D01*
X026074Y024137D02*
X025977Y024233D01*
X024273Y024226D02*
X024273Y024129D01*
X024224Y024081D01*
X024031Y024081D01*
X023982Y024129D01*
X023982Y024226D01*
X024031Y024275D01*
X023982Y024376D02*
X024176Y024569D01*
X024224Y024569D01*
X024273Y024521D01*
X024273Y024424D01*
X024224Y024376D01*
X024224Y024275D02*
X024273Y024226D01*
X023982Y024376D02*
X023982Y024569D01*
X024031Y024670D02*
X023982Y024719D01*
X023982Y024815D01*
X024031Y024864D01*
X024079Y024864D01*
X024128Y024815D01*
X024128Y024670D01*
X024031Y024670D01*
X024128Y024670D02*
X024224Y024767D01*
X024273Y024864D01*
X024224Y025131D02*
X024031Y025131D01*
X023982Y025179D01*
X023982Y025276D01*
X024031Y025325D01*
X023982Y025426D02*
X024176Y025619D01*
X024224Y025619D01*
X024273Y025571D01*
X024273Y025474D01*
X024224Y025426D01*
X024224Y025325D02*
X024273Y025276D01*
X024273Y025179D01*
X024224Y025131D01*
X023982Y025426D02*
X023982Y025619D01*
X024031Y025720D02*
X024079Y025720D01*
X024128Y025769D01*
X024128Y025865D01*
X024079Y025914D01*
X024031Y025914D01*
X023982Y025865D01*
X023982Y025769D01*
X024031Y025720D01*
X024128Y025769D02*
X024176Y025720D01*
X024224Y025720D01*
X024273Y025769D01*
X024273Y025865D01*
X024224Y025914D01*
X024176Y025914D01*
X024128Y025865D01*
X028552Y026215D02*
X028843Y026215D01*
X028843Y026360D01*
X028794Y026408D01*
X028698Y026408D01*
X028649Y026360D01*
X028649Y026215D01*
X028649Y026312D02*
X028552Y026408D01*
X028552Y026510D02*
X028552Y026703D01*
X028552Y026606D02*
X028843Y026606D01*
X028746Y026510D01*
X028746Y026804D02*
X028698Y026853D01*
X028698Y026998D01*
X028794Y026998D02*
X028843Y026949D01*
X028843Y026853D01*
X028794Y026804D01*
X028746Y026804D01*
X028601Y026804D02*
X028552Y026853D01*
X028552Y026949D01*
X028601Y026998D01*
X028794Y026998D01*
X028767Y027220D02*
X028767Y027268D01*
X028574Y027462D01*
X028574Y027510D01*
X028767Y027510D01*
X028868Y027462D02*
X028917Y027510D01*
X029013Y027510D01*
X029062Y027462D01*
X029163Y027462D02*
X029211Y027510D01*
X029308Y027510D01*
X029356Y027462D01*
X029356Y027268D01*
X029308Y027220D01*
X029211Y027220D01*
X029163Y027268D01*
X029062Y027220D02*
X028868Y027413D01*
X028868Y027462D01*
X028868Y027220D02*
X029062Y027220D01*
X024985Y022760D02*
X024888Y022760D01*
X024936Y022760D02*
X024936Y022518D01*
X024985Y022470D01*
X025033Y022470D01*
X025081Y022518D01*
X024787Y022470D02*
X024787Y022760D01*
X024642Y022760D01*
X024593Y022712D01*
X024593Y022615D01*
X024642Y022567D01*
X024787Y022567D01*
X024492Y022470D02*
X024299Y022663D01*
X024299Y022712D01*
X024347Y022760D01*
X024444Y022760D01*
X024492Y022712D01*
X024492Y022470D02*
X024299Y022470D01*
X024506Y018439D02*
X024554Y018439D01*
X024603Y018390D01*
X024603Y018245D01*
X024506Y018245D01*
X024457Y018294D01*
X024457Y018390D01*
X024506Y018439D01*
X024699Y018342D02*
X024603Y018245D01*
X024699Y018342D02*
X024748Y018439D01*
X024748Y018144D02*
X024699Y018144D01*
X024506Y017951D01*
X024457Y017951D01*
X024457Y017850D02*
X024554Y017753D01*
X024554Y017801D02*
X024554Y017656D01*
X024457Y017656D02*
X024748Y017656D01*
X024748Y017801D01*
X024699Y017850D01*
X024603Y017850D01*
X024554Y017801D01*
X024748Y017951D02*
X024748Y018144D01*
X023147Y017532D02*
X023147Y017338D01*
X023099Y017290D01*
X023002Y017290D01*
X022954Y017338D01*
X022853Y017338D02*
X022659Y017532D01*
X022659Y017580D01*
X022853Y017580D01*
X022954Y017532D02*
X023002Y017580D01*
X023099Y017580D01*
X023147Y017532D01*
X022853Y017338D02*
X022853Y017290D01*
X022558Y017290D02*
X022365Y017290D01*
X022461Y017290D02*
X022461Y017580D01*
X022558Y017483D01*
X022544Y016873D02*
X022351Y016679D01*
X022302Y016728D01*
X022302Y016824D01*
X022351Y016873D01*
X022544Y016873D01*
X022593Y016824D01*
X022593Y016728D01*
X022544Y016679D01*
X022351Y016679D01*
X022544Y016578D02*
X022351Y016385D01*
X022302Y016385D01*
X022351Y016283D02*
X022302Y016235D01*
X022302Y016138D01*
X022351Y016090D01*
X022544Y016090D01*
X022593Y016138D01*
X022593Y016235D01*
X022544Y016283D01*
X022593Y016385D02*
X022593Y016578D01*
X022544Y016578D01*
X022740Y016357D02*
X022788Y016405D01*
X022885Y016405D01*
X022933Y016357D01*
X022933Y016308D01*
X022885Y016260D01*
X022740Y016260D01*
X022740Y016163D02*
X022740Y016357D01*
X022740Y016163D02*
X022788Y016115D01*
X022885Y016115D01*
X022933Y016163D01*
X023034Y016163D02*
X023034Y016212D01*
X023083Y016260D01*
X023228Y016260D01*
X023228Y016163D01*
X023179Y016115D01*
X023083Y016115D01*
X023034Y016163D01*
X023131Y016357D02*
X023228Y016260D01*
X023131Y016357D02*
X023034Y016405D01*
X023329Y016357D02*
X023377Y016405D01*
X023474Y016405D01*
X023522Y016357D01*
X023522Y016163D01*
X023474Y016115D01*
X023377Y016115D01*
X023329Y016163D01*
X020348Y016306D02*
X020348Y016451D01*
X020299Y016500D01*
X020203Y016500D01*
X020154Y016451D01*
X020154Y016306D01*
X020057Y016306D02*
X020348Y016306D01*
X020154Y016403D02*
X020057Y016500D01*
X020057Y016601D02*
X020106Y016601D01*
X020299Y016794D01*
X020348Y016794D01*
X020348Y016601D01*
X020299Y016895D02*
X020348Y016944D01*
X020348Y017040D01*
X020299Y017089D01*
X020251Y017089D01*
X020203Y017040D01*
X020154Y017089D01*
X020106Y017089D01*
X020057Y017040D01*
X020057Y016944D01*
X020106Y016895D01*
X020203Y016992D02*
X020203Y017040D01*
X020227Y017340D02*
X020179Y017388D01*
X020227Y017340D02*
X020324Y017340D01*
X020372Y017388D01*
X020372Y017582D01*
X020324Y017630D01*
X020227Y017630D01*
X020179Y017582D01*
X020078Y017485D02*
X019933Y017485D01*
X019884Y017437D01*
X019884Y017388D01*
X019933Y017340D01*
X020029Y017340D01*
X020078Y017388D01*
X020078Y017485D01*
X019981Y017582D01*
X019884Y017630D01*
X019783Y017485D02*
X019638Y017485D01*
X019590Y017437D01*
X019590Y017388D01*
X019638Y017340D01*
X019735Y017340D01*
X019783Y017388D01*
X019783Y017485D01*
X019686Y017582D01*
X019590Y017630D01*
X023747Y014360D02*
X023892Y014215D01*
X023699Y014215D01*
X023747Y014070D02*
X023747Y014360D01*
X023993Y014360D02*
X023993Y014312D01*
X024187Y014118D01*
X024187Y014070D01*
X024288Y014070D02*
X024385Y014167D01*
X024336Y014167D02*
X024481Y014167D01*
X024481Y014070D02*
X024481Y014360D01*
X024336Y014360D01*
X024288Y014312D01*
X024288Y014215D01*
X024336Y014167D01*
X024187Y014360D02*
X023993Y014360D01*
X015393Y009126D02*
X015102Y009126D01*
X015102Y009029D02*
X015102Y009223D01*
X015296Y009029D02*
X015393Y009126D01*
X015393Y008928D02*
X015344Y008831D01*
X015248Y008735D01*
X015248Y008880D01*
X015199Y008928D01*
X015151Y008928D01*
X015102Y008880D01*
X015102Y008783D01*
X015151Y008735D01*
X015248Y008735D01*
X015248Y008633D02*
X015199Y008585D01*
X015199Y008440D01*
X015102Y008440D02*
X015393Y008440D01*
X015393Y008585D01*
X015344Y008633D01*
X015248Y008633D01*
X015199Y008537D02*
X015102Y008633D01*
X015996Y025184D02*
X016093Y025184D01*
X016141Y025232D01*
X016242Y025232D02*
X016242Y025426D01*
X016291Y025474D01*
X016436Y025474D01*
X016436Y025184D01*
X016291Y025184D01*
X016242Y025232D01*
X016141Y025426D02*
X016093Y025474D01*
X015996Y025474D01*
X015948Y025426D01*
X015948Y025377D01*
X015996Y025329D01*
X015948Y025280D01*
X015948Y025232D01*
X015996Y025184D01*
X015996Y025329D02*
X016044Y025329D01*
X016537Y025426D02*
X016731Y025232D01*
X016731Y025184D01*
X016537Y025184D01*
X016537Y025426D02*
X016537Y025474D01*
X016731Y025474D01*
D17*
X029448Y028890D02*
X029448Y029560D01*
X030077Y029560D02*
X030077Y028890D01*
X046084Y026945D02*
X046084Y026865D01*
X046084Y026945D02*
X048486Y026945D01*
X048486Y024355D01*
X046084Y024355D01*
X046084Y024435D01*
X032286Y015545D02*
X029884Y015545D01*
X029884Y015465D01*
X032286Y015545D02*
X032286Y012955D01*
X029884Y012955D01*
X029884Y013035D01*
X029367Y007048D02*
X029367Y004647D01*
X029447Y004647D01*
X031878Y004647D02*
X031958Y004647D01*
X031958Y007048D01*
X029367Y007048D01*
D18*
X032449Y014250D03*
X048649Y025650D03*
D19*
X048665Y024750D03*
X048665Y026550D03*
X032465Y015150D03*
X032465Y013350D03*
D20*
X045699Y010400D03*
X039501Y003525D03*
X048376Y019025D03*
X042076Y026750D03*
X031226Y032300D03*
X017849Y025325D03*
D21*
X030662Y007212D03*
D22*
X031562Y007227D03*
X029763Y007227D03*
D23*
X015787Y005061D03*
X013912Y008864D03*
X008287Y023414D03*
X007462Y023686D03*
X005587Y028639D03*
X006437Y028911D03*
X042512Y028711D03*
X042612Y017761D03*
D24*
X035983Y015631D02*
X035983Y014069D01*
X033442Y014069D01*
X033442Y015631D01*
X035983Y015631D01*
X035793Y010045D02*
X034232Y010045D01*
X034232Y007505D01*
X035793Y007505D01*
X035793Y010045D01*
X045507Y029080D02*
X047068Y029080D01*
X047068Y031620D01*
X045507Y031620D01*
X045507Y029080D01*
D25*
X029758Y029540D03*
D26*
X004953Y015225D03*
M02*
