%
M48
M72
T01C0.01575
T02C0.01969
T03C0.02362
T04C0.02756
T05C0.03150
T06C0.03200
T07C0.03543
T08C0.03600
T09C0.03937
T10C0.04000
T11C0.04331
T12C0.04724
T13C0.05512
T14C0.06299
T15C0.06693
T16C0.11811
T17C0.12598
%
T01
X75844Y129463
X187344Y180963
X253094Y207713
X278844Y221213
X298344Y227463
X303844Y222463
X299844Y218713
X305344Y214463
X305344Y204713
X327094Y205713
X333344Y212963
X350094Y202463
X353094Y209463
X355844Y195953
X355594Y191713
X361844Y184963
X366844Y184463
X375344Y179463
X370344Y174463
X375344Y167963
X391344Y171463
X389844Y180963
X356094Y168963
X352844Y178963
X343844Y180963
X341094Y187963
X334844Y186213
X331844Y186213
X323344Y173963
X327594Y170463
X323344Y166963
X293344Y180963
X305344Y185713
X328094Y230213
X317844Y234963
X320094Y239713
X324844Y239713
X339594Y246213
X370344Y246213
X374094Y232963
X380594Y228213
X386594Y228463
X393094Y225963
X381594Y219963
X373594Y225463
X374844Y213963
X387844Y243213
X396844Y261713
X411094Y263713
X436844Y250713
X431344Y244213
X437094Y237713
X447344Y244463
X465094Y240213
X474844Y244222
X476844Y256713
X497594Y242713
X509854Y242972
X507844Y220463
X497844Y202713
X539594Y161213
X537844Y153463
X545594Y145963
X546594Y138463
X537844Y132463
X540344Y121713
X544594Y117463
X555594Y135963
X582594Y117463
X592594Y107713
X602344Y102213
X604844Y127963
X604094Y144713
X604094Y147713
X604344Y162213
X498344Y97963
X492844Y97963
X538844Y90713
X541844Y90713
X476844Y143713
X418844Y126713
X416094Y138463
X401094Y138713
X401344Y133213
X403844Y121213
X388094Y120963
X377094Y129713
X369844Y125963
X356833Y132150
X334594Y123713
X345333Y115400
X359844Y109463
X339344Y103463
X333083Y99400
X326594Y100963
X320094Y94213
X303083Y94650
X307583Y106900
X308594Y112213
X290833Y116150
X275094Y102713
X278094Y95713
X250844Y86963
X247344Y121963
X251344Y129463
X275083Y134150
X319344Y132463
X327441Y138713
X374344Y155713
X294594Y234463
X288594Y240213
X269844Y240213
X270094Y263213
X270594Y271963
X289344Y277713
X305594Y289213
X308594Y289213
X311594Y289213
X253344Y298463
X241094Y298463
X243344Y306963
X198094Y309963
X198344Y297713
X133844Y269713
X133844Y266463
X109594Y347713
X436844Y283963
X444344Y278463
X451094Y261713
X444344Y256463
X268844Y39963
T02
X243344Y59963
X238594Y106713
X232594Y228213
X270594Y307463
X270594Y310713
X270594Y313963
X274094Y313963
X274094Y310713
X274094Y307463
X540344Y71213
X527094Y56713
X518594Y44463
X527094Y41213
X538844Y40463
X542094Y40463
X489094Y41963
X481344Y41963
T03
X568844Y76463
X217344Y92463
X212844Y92463
X208344Y92463
X203844Y92463
X199344Y92463
X194844Y92463
X190344Y92463
X185844Y92463
X181344Y92463
X176844Y92463
X176844Y88213
X176844Y83963
X176844Y79713
X176844Y75463
X176844Y71213
X176844Y66963
X176844Y62713
X176844Y58463
X172344Y58463
X172344Y62713
X172344Y66963
X172344Y71213
X172344Y75463
X172344Y79713
X172344Y83963
X172344Y88213
X172344Y92463
X172344Y112463
X172344Y116713
X172344Y120963
X172344Y125213
X172344Y129463
X172344Y133713
X172344Y137963
X172344Y142213
X176844Y142213
X176844Y137963
X176844Y133713
X176844Y129463
X176844Y125213
X176844Y120963
X176844Y116713
X176844Y112463
X181344Y142213
X185844Y142213
X190344Y142213
X194844Y142213
X199344Y142213
X203844Y142213
X208344Y142213
X212844Y142213
X217344Y142213
X77094Y232213
X73344Y232213
X69594Y232213
X69594Y235963
X69594Y239713
X73344Y239713
X73344Y235963
X77094Y235963
X77094Y239713
X152344Y255213
X152344Y258963
X152344Y262713
X156094Y262713
X156094Y258963
X156094Y255213
X159844Y255213
X159844Y258963
X159844Y262713
T04
X380892Y249963
X386797Y249963
T05
X335031Y271963
X327157Y271963
T06
X373344Y107463
X383344Y107463
X393344Y107463
T07
X628421Y114248
X628421Y124091
X628421Y133933
X628421Y143776
X628421Y153618
X628421Y163461
X628421Y173303
X628421Y183146
X462594Y282807
X462594Y294618
T08
X475844Y312463
X475844Y331713
X515844Y321713
X515844Y302463
X548844Y257713
X588844Y247713
X588844Y231463
X548844Y221463
X518094Y211713
X508094Y171713
T09
X615547Y94642
X625547Y94642
X625547Y84642
X615547Y84642
T10
X571344Y108463
X571344Y128463
X500844Y265963
X480844Y265963
X538094Y274213
X538094Y333213
X631094Y332713
X631094Y273713
X257319Y345390
X237319Y345390
T11
X367844Y324976
X367844Y295449
X436844Y318199
X436844Y347726
X422844Y76976
X422844Y47449
X480844Y71963
X588844Y76463
X351844Y76976
X351844Y47449
X280594Y47449
X280594Y76976
T12
X413696Y120093
X423538Y120093
X433381Y120093
X443223Y120093
X453066Y120093
X462908Y120093
X472751Y120093
X482593Y120093
X477672Y198833
X467830Y198833
X448144Y198833
X428459Y198833
X418617Y198833
X559880Y293876
X609093Y293876
X609093Y333246
X559880Y333246
X378094Y350963
X129209Y356374
X101650Y173303
T13
X477161Y365232
X496661Y365232
X517161Y365232
X537161Y365232
T14
X328374Y343890
X306374Y343890
X284374Y343890
X206327Y343890
X184327Y343890
X162327Y343890
X166957Y185787
X144957Y185787
X122957Y185787
X136374Y149799
X108815Y149799
X217445Y185787
X239445Y185787
X261445Y185787
X143264Y35626
X129484Y35626
X115705Y35626
X101925Y35626
T15
X578028Y64051
X599681Y64051
X600469Y214839
X600469Y231374
X600469Y247909
T16
X629209Y247909
X629209Y214839
X628421Y64051
T17
X62280Y42398
X62280Y357358
X633146Y357358
X633146Y40429
M30
