G75*
G70*
%OFA0B0*%
%FSLAX24Y24*%
%IPPOS*%
%LPD*%
%AMOC8*
5,1,8,0,0,1.08239X$1,22.5*
%
%ADD10C,0.1000*%
%ADD11OC8,0.0600*%
%ADD12OC8,0.0827*%
%ADD13OC8,0.0540*%
%ADD14R,0.0827X0.0827*%
%ADD15C,0.0400*%
%ADD16C,0.0930*%
%ADD17R,0.0512X0.0591*%
%ADD18R,0.0591X0.0472*%
%ADD19C,0.0600*%
%ADD20R,0.0472X0.0591*%
%ADD21R,0.0591X0.0512*%
%ADD22R,0.0098X0.0197*%
%ADD23R,0.5512X0.1181*%
%ADD24R,0.1457X0.0512*%
%ADD25R,0.3976X0.3504*%
%ADD26C,0.1236*%
%ADD27OC8,0.1236*%
%ADD28OC8,0.0860*%
%ADD29R,0.0354X0.0354*%
%ADD30OC8,0.0650*%
%ADD31R,0.0591X0.0689*%
%ADD32R,0.0945X0.0945*%
%ADD33R,0.0689X0.0591*%
%ADD34R,0.0300X0.1280*%
%ADD35R,0.1280X0.0300*%
%ADD36R,0.0472X0.0472*%
%ADD37R,0.0630X0.0709*%
%ADD38R,0.0709X0.0630*%
%ADD39R,0.0866X0.0709*%
%ADD40R,0.1063X0.0630*%
%ADD41OC8,0.1000*%
%ADD42R,0.0394X0.0472*%
%ADD43C,0.0709*%
%ADD44OC8,0.0709*%
%ADD45R,0.0710X0.0630*%
%ADD46R,0.0600X0.1200*%
%ADD47R,0.1600X0.0430*%
%ADD48OC8,0.0930*%
%ADD49R,0.0500X0.0600*%
%ADD50R,0.1000X0.1200*%
%ADD51C,0.0010*%
%ADD52R,0.0350X0.0100*%
%ADD53R,0.0200X0.0100*%
%ADD54C,0.0480*%
%ADD55C,0.0433*%
%ADD56C,0.0400*%
%ADD57C,0.1000*%
%ADD58C,0.1500*%
%ADD59C,0.1200*%
%ADD60C,0.0100*%
%ADD61OC8,0.0317*%
%ADD62C,0.0320*%
%ADD63R,0.2165X0.2165*%
%ADD64C,0.0120*%
%ADD65C,0.0160*%
%ADD66C,0.0240*%
%ADD67R,0.0317X0.0317*%
%ADD68OC8,0.0357*%
%ADD69C,0.0140*%
%ADD70R,0.0357X0.0357*%
%ADD71C,0.2165*%
D10*
X029462Y024125D03*
X007937Y026175D03*
X056319Y017186D03*
X060256Y017186D03*
X060256Y012264D03*
X056319Y012264D03*
D11*
X055612Y010050D03*
X061512Y010050D03*
X061512Y019350D03*
X055612Y019350D03*
D12*
X056912Y006129D03*
X056912Y004475D03*
X056912Y002821D03*
X005864Y016500D03*
X004211Y016500D03*
X054285Y033567D03*
X056335Y033567D03*
X058285Y033567D03*
D13*
X058662Y022200D03*
X058662Y021200D03*
X062662Y021200D03*
X054662Y022200D03*
X054512Y009025D03*
X058662Y008225D03*
X062662Y007225D03*
X053512Y005025D03*
X022787Y022625D03*
X018787Y023625D03*
D14*
X052285Y033567D03*
D15*
X005874Y033771D03*
X062173Y005424D03*
D16*
X037804Y005818D02*
X036874Y005818D01*
X036874Y003618D02*
X037804Y003618D01*
X037804Y008018D02*
X036874Y008018D01*
X036874Y010311D02*
X037804Y010311D01*
X037804Y012511D02*
X036874Y012511D01*
X036874Y014711D02*
X037804Y014711D01*
X037804Y017004D02*
X036874Y017004D01*
X036874Y019204D02*
X037804Y019204D01*
X037804Y021404D02*
X036874Y021404D01*
X036874Y028028D02*
X037804Y028028D01*
X037804Y030228D02*
X036874Y030228D01*
X036874Y032428D02*
X037804Y032428D01*
D17*
X038838Y017375D03*
X039586Y017375D03*
X014961Y011075D03*
X014213Y011075D03*
X004761Y005150D03*
X004013Y005150D03*
D18*
X038717Y016625D03*
X039858Y016625D03*
D19*
X037489Y023716D02*
X036889Y023716D01*
X036889Y025716D02*
X037489Y025716D01*
X004437Y025225D02*
X003837Y025225D01*
X003837Y024225D02*
X004437Y024225D01*
X004437Y023225D02*
X003837Y023225D01*
X003837Y026225D02*
X004437Y026225D01*
X004437Y027225D02*
X003837Y027225D01*
X003837Y028225D02*
X004437Y028225D01*
X004437Y029225D02*
X003837Y029225D01*
X003837Y030225D02*
X004437Y030225D01*
D20*
X039912Y010596D03*
X039912Y009454D03*
D21*
X039112Y009551D03*
X039112Y010299D03*
X014837Y021776D03*
X014837Y022524D03*
X014837Y023326D03*
X014837Y024074D03*
X012912Y020074D03*
X012912Y019326D03*
X010912Y027926D03*
X010912Y028674D03*
X010912Y029651D03*
X010912Y030399D03*
X010912Y031676D03*
X010912Y032424D03*
X010912Y033226D03*
X010912Y033974D03*
X025712Y033899D03*
X025712Y033151D03*
X025712Y032349D03*
X025712Y031601D03*
X026837Y029449D03*
X026837Y028701D03*
X028037Y028701D03*
X028037Y029449D03*
D22*
X054316Y026025D03*
X054409Y026025D03*
D23*
X045787Y021352D03*
X045787Y012848D03*
X045787Y011102D03*
X045787Y002598D03*
D24*
X013889Y002900D03*
X013889Y004900D03*
X013839Y007725D03*
X013839Y009725D03*
D25*
X017815Y008725D03*
X017865Y003900D03*
D26*
X010864Y005850D03*
X017687Y012974D03*
X012089Y013400D03*
X047737Y031826D03*
X054362Y028976D03*
D27*
X054362Y026024D03*
X047737Y028874D03*
X017687Y015926D03*
X009136Y013400D03*
X007911Y005850D03*
D28*
X003362Y018325D03*
D29*
X005362Y018325D03*
D30*
X013862Y016000D03*
X018962Y021900D03*
X028987Y016250D03*
X031612Y026700D03*
X039012Y026575D03*
X038912Y032300D03*
X051887Y007525D03*
D31*
X010912Y024810D03*
X010912Y026090D03*
X008687Y029885D03*
X008687Y031165D03*
D32*
X012287Y031984D03*
X012287Y033716D03*
X012262Y029841D03*
X012262Y028109D03*
X013437Y024016D03*
X013437Y022284D03*
X024412Y031934D03*
X024412Y033666D03*
D33*
X015203Y019900D03*
X013923Y019900D03*
D34*
X016837Y021800D03*
X016837Y023700D03*
X027912Y031275D03*
X027912Y033175D03*
D35*
X009187Y033125D03*
X007287Y033125D03*
D36*
X006512Y023563D03*
X006512Y022737D03*
D37*
X007786Y024550D03*
X008889Y024550D03*
D38*
X006887Y030074D03*
X006887Y031176D03*
D39*
X024362Y029454D03*
X024362Y027446D03*
D40*
X024387Y026501D03*
X024387Y025399D03*
D41*
X029462Y026125D03*
X007937Y028175D03*
D42*
X028862Y028563D03*
X029562Y028563D03*
X029562Y029587D03*
X028862Y029587D03*
D43*
X022549Y029650D03*
X022549Y027681D03*
X022549Y031619D03*
X022549Y032603D03*
X014675Y033095D03*
X014675Y032111D03*
X014675Y031126D03*
X014675Y030142D03*
X014675Y029158D03*
X014675Y028174D03*
X014675Y027189D03*
X014675Y026205D03*
D44*
X022549Y026697D03*
D45*
X025462Y026510D03*
X025462Y025390D03*
D46*
X005377Y006925D03*
X003397Y006925D03*
D47*
X003582Y009975D03*
X006042Y009975D03*
X006042Y013450D03*
X003582Y013450D03*
D48*
X021032Y011231D03*
X021032Y009854D03*
X021032Y008476D03*
X021032Y007098D03*
X032449Y007787D03*
X032449Y010543D03*
D49*
X010237Y020100D03*
X007912Y020075D03*
X040532Y028925D03*
X041262Y028925D03*
X041992Y028925D03*
X041992Y031925D03*
X041262Y031925D03*
X040532Y031925D03*
D50*
X040232Y030425D03*
X042292Y030425D03*
D51*
X010865Y020215D02*
X010882Y020159D01*
X010887Y020100D01*
X010882Y020041D01*
X010865Y019985D01*
X010837Y019933D01*
X010800Y019888D01*
X010754Y019851D01*
X010702Y019823D01*
X010646Y019806D01*
X010587Y019800D01*
X010587Y020400D01*
X010646Y020394D01*
X010702Y020377D01*
X010754Y020349D01*
X010800Y020312D01*
X010837Y020267D01*
X010865Y020215D01*
X010864Y020217D02*
X010587Y020217D01*
X010587Y020225D02*
X010859Y020225D01*
X010855Y020234D02*
X010587Y020234D01*
X010587Y020242D02*
X010850Y020242D01*
X010846Y020251D02*
X010587Y020251D01*
X010587Y020259D02*
X010841Y020259D01*
X010836Y020268D02*
X010587Y020268D01*
X010587Y020276D02*
X010829Y020276D01*
X010822Y020285D02*
X010587Y020285D01*
X010587Y020293D02*
X010815Y020293D01*
X010808Y020302D02*
X010587Y020302D01*
X010587Y020310D02*
X010801Y020310D01*
X010792Y020319D02*
X010587Y020319D01*
X010587Y020327D02*
X010781Y020327D01*
X010771Y020336D02*
X010587Y020336D01*
X010587Y020344D02*
X010761Y020344D01*
X010748Y020353D02*
X010587Y020353D01*
X010587Y020361D02*
X010732Y020361D01*
X010716Y020370D02*
X010587Y020370D01*
X010587Y020378D02*
X010699Y020378D01*
X010671Y020387D02*
X010587Y020387D01*
X010587Y020395D02*
X010638Y020395D01*
X010587Y020208D02*
X010867Y020208D01*
X010869Y020200D02*
X010587Y020200D01*
X010587Y020191D02*
X010872Y020191D01*
X010874Y020183D02*
X010587Y020183D01*
X010587Y020174D02*
X010877Y020174D01*
X010880Y020166D02*
X010587Y020166D01*
X010587Y020157D02*
X010882Y020157D01*
X010883Y020149D02*
X010587Y020149D01*
X010587Y020140D02*
X010884Y020140D01*
X010884Y020132D02*
X010587Y020132D01*
X010587Y020123D02*
X010885Y020123D01*
X010886Y020115D02*
X010587Y020115D01*
X010587Y020106D02*
X010887Y020106D01*
X010887Y020098D02*
X010587Y020098D01*
X010587Y020089D02*
X010886Y020089D01*
X010886Y020081D02*
X010587Y020081D01*
X010587Y020072D02*
X010885Y020072D01*
X010884Y020064D02*
X010587Y020064D01*
X010587Y020055D02*
X010883Y020055D01*
X010882Y020047D02*
X010587Y020047D01*
X010587Y020038D02*
X010881Y020038D01*
X010878Y020030D02*
X010587Y020030D01*
X010587Y020021D02*
X010876Y020021D01*
X010873Y020013D02*
X010587Y020013D01*
X010587Y020004D02*
X010870Y020004D01*
X010868Y019996D02*
X010587Y019996D01*
X010587Y019987D02*
X010865Y019987D01*
X010861Y019979D02*
X010587Y019979D01*
X010587Y019970D02*
X010857Y019970D01*
X010852Y019962D02*
X010587Y019962D01*
X010587Y019953D02*
X010847Y019953D01*
X010843Y019945D02*
X010587Y019945D01*
X010587Y019936D02*
X010838Y019936D01*
X010832Y019928D02*
X010587Y019928D01*
X010587Y019919D02*
X010825Y019919D01*
X010818Y019911D02*
X010587Y019911D01*
X010587Y019902D02*
X010811Y019902D01*
X010804Y019894D02*
X010587Y019894D01*
X010587Y019885D02*
X010796Y019885D01*
X010786Y019877D02*
X010587Y019877D01*
X010587Y019868D02*
X010775Y019868D01*
X010765Y019860D02*
X010587Y019860D01*
X010587Y019851D02*
X010755Y019851D01*
X010739Y019843D02*
X010587Y019843D01*
X010587Y019834D02*
X010723Y019834D01*
X010707Y019826D02*
X010587Y019826D01*
X010587Y019817D02*
X010683Y019817D01*
X010655Y019809D02*
X010587Y019809D01*
X010587Y019800D02*
X010588Y019800D01*
X010037Y020050D02*
X010037Y020150D01*
X009887Y020150D01*
X009887Y020400D01*
X009829Y020394D01*
X009773Y020377D01*
X009721Y020349D01*
X009675Y020312D01*
X009638Y020267D01*
X009610Y020215D01*
X009593Y020159D01*
X009587Y020100D01*
X009593Y020041D01*
X009610Y019985D01*
X009638Y019933D01*
X009675Y019888D01*
X009721Y019851D01*
X009773Y019823D01*
X009829Y019806D01*
X009887Y019800D01*
X009887Y019800D01*
X009887Y020050D01*
X010037Y020050D01*
X010037Y020055D02*
X009592Y020055D01*
X009593Y020047D02*
X009887Y020047D01*
X009887Y020038D02*
X009594Y020038D01*
X009597Y020030D02*
X009887Y020030D01*
X009887Y020021D02*
X009599Y020021D01*
X009602Y020013D02*
X009887Y020013D01*
X009887Y020004D02*
X009605Y020004D01*
X009607Y019996D02*
X009887Y019996D01*
X009887Y019987D02*
X009610Y019987D01*
X009614Y019979D02*
X009887Y019979D01*
X009887Y019970D02*
X009618Y019970D01*
X009623Y019962D02*
X009887Y019962D01*
X009887Y019953D02*
X009627Y019953D01*
X009632Y019945D02*
X009887Y019945D01*
X009887Y019936D02*
X009637Y019936D01*
X009643Y019928D02*
X009887Y019928D01*
X009887Y019919D02*
X009650Y019919D01*
X009657Y019911D02*
X009887Y019911D01*
X009887Y019902D02*
X009664Y019902D01*
X009671Y019894D02*
X009887Y019894D01*
X009887Y019885D02*
X009679Y019885D01*
X009689Y019877D02*
X009887Y019877D01*
X009887Y019868D02*
X009699Y019868D01*
X009710Y019860D02*
X009887Y019860D01*
X009887Y019851D02*
X009720Y019851D01*
X009736Y019843D02*
X009887Y019843D01*
X009887Y019834D02*
X009752Y019834D01*
X009768Y019826D02*
X009887Y019826D01*
X009887Y019817D02*
X009792Y019817D01*
X009820Y019809D02*
X009887Y019809D01*
X010037Y020064D02*
X009591Y020064D01*
X009590Y020072D02*
X010037Y020072D01*
X010037Y020081D02*
X009589Y020081D01*
X009589Y020089D02*
X010037Y020089D01*
X010037Y020098D02*
X009588Y020098D01*
X009588Y020106D02*
X010037Y020106D01*
X010037Y020115D02*
X009589Y020115D01*
X009590Y020123D02*
X010037Y020123D01*
X010037Y020132D02*
X009591Y020132D01*
X009591Y020140D02*
X010037Y020140D01*
X010037Y020149D02*
X009592Y020149D01*
X009593Y020157D02*
X009887Y020157D01*
X009887Y020166D02*
X009595Y020166D01*
X009598Y020174D02*
X009887Y020174D01*
X009887Y020183D02*
X009601Y020183D01*
X009603Y020191D02*
X009887Y020191D01*
X009887Y020200D02*
X009606Y020200D01*
X009608Y020208D02*
X009887Y020208D01*
X009887Y020217D02*
X009611Y020217D01*
X009616Y020225D02*
X009887Y020225D01*
X009887Y020234D02*
X009620Y020234D01*
X009625Y020242D02*
X009887Y020242D01*
X009887Y020251D02*
X009629Y020251D01*
X009634Y020259D02*
X009887Y020259D01*
X009887Y020268D02*
X009639Y020268D01*
X009646Y020276D02*
X009887Y020276D01*
X009887Y020285D02*
X009653Y020285D01*
X009660Y020293D02*
X009887Y020293D01*
X009887Y020302D02*
X009667Y020302D01*
X009674Y020310D02*
X009887Y020310D01*
X009887Y020319D02*
X009683Y020319D01*
X009694Y020327D02*
X009887Y020327D01*
X009887Y020336D02*
X009704Y020336D01*
X009714Y020344D02*
X009887Y020344D01*
X009887Y020353D02*
X009727Y020353D01*
X009743Y020361D02*
X009887Y020361D01*
X009887Y020370D02*
X009758Y020370D01*
X009776Y020378D02*
X009887Y020378D01*
X009887Y020387D02*
X009804Y020387D01*
X009837Y020395D02*
X009887Y020395D01*
X008557Y020134D02*
X008562Y020075D01*
X008557Y020016D01*
X008540Y019960D01*
X008512Y019908D01*
X008475Y019863D01*
X008429Y019826D01*
X008377Y019798D01*
X008321Y019781D01*
X008262Y019775D01*
X008262Y020025D01*
X008112Y020025D01*
X008112Y020125D01*
X008262Y020125D01*
X008262Y020375D01*
X008321Y020369D01*
X008377Y020352D01*
X008429Y020324D01*
X008475Y020287D01*
X008512Y020242D01*
X008540Y020190D01*
X008557Y020134D01*
X008557Y020132D02*
X008262Y020132D01*
X008262Y020140D02*
X008555Y020140D01*
X008552Y020149D02*
X008262Y020149D01*
X008262Y020157D02*
X008550Y020157D01*
X008547Y020166D02*
X008262Y020166D01*
X008262Y020174D02*
X008544Y020174D01*
X008542Y020183D02*
X008262Y020183D01*
X008262Y020191D02*
X008539Y020191D01*
X008534Y020200D02*
X008262Y020200D01*
X008262Y020208D02*
X008530Y020208D01*
X008525Y020217D02*
X008262Y020217D01*
X008262Y020225D02*
X008521Y020225D01*
X008516Y020234D02*
X008262Y020234D01*
X008262Y020242D02*
X008512Y020242D01*
X008505Y020251D02*
X008262Y020251D01*
X008262Y020259D02*
X008498Y020259D01*
X008491Y020268D02*
X008262Y020268D01*
X008262Y020276D02*
X008484Y020276D01*
X008477Y020285D02*
X008262Y020285D01*
X008262Y020293D02*
X008467Y020293D01*
X008457Y020302D02*
X008262Y020302D01*
X008262Y020310D02*
X008447Y020310D01*
X008436Y020319D02*
X008262Y020319D01*
X008262Y020327D02*
X008424Y020327D01*
X008408Y020336D02*
X008262Y020336D01*
X008262Y020344D02*
X008392Y020344D01*
X008376Y020353D02*
X008262Y020353D01*
X008262Y020361D02*
X008348Y020361D01*
X008318Y020370D02*
X008262Y020370D01*
X008112Y020123D02*
X008558Y020123D01*
X008559Y020115D02*
X008112Y020115D01*
X008112Y020106D02*
X008559Y020106D01*
X008560Y020098D02*
X008112Y020098D01*
X008112Y020089D02*
X008561Y020089D01*
X008562Y020081D02*
X008112Y020081D01*
X008112Y020072D02*
X008562Y020072D01*
X008561Y020064D02*
X008112Y020064D01*
X008112Y020055D02*
X008561Y020055D01*
X008560Y020047D02*
X008112Y020047D01*
X008112Y020038D02*
X008559Y020038D01*
X008558Y020030D02*
X008112Y020030D01*
X008262Y020021D02*
X008557Y020021D01*
X008556Y020013D02*
X008262Y020013D01*
X008262Y020004D02*
X008553Y020004D01*
X008550Y019996D02*
X008262Y019996D01*
X008262Y019987D02*
X008548Y019987D01*
X008545Y019979D02*
X008262Y019979D01*
X008262Y019970D02*
X008543Y019970D01*
X008540Y019962D02*
X008262Y019962D01*
X008262Y019953D02*
X008536Y019953D01*
X008531Y019945D02*
X008262Y019945D01*
X008262Y019936D02*
X008527Y019936D01*
X008522Y019928D02*
X008262Y019928D01*
X008262Y019919D02*
X008518Y019919D01*
X008513Y019911D02*
X008262Y019911D01*
X008262Y019902D02*
X008507Y019902D01*
X008500Y019894D02*
X008262Y019894D01*
X008262Y019885D02*
X008493Y019885D01*
X008486Y019877D02*
X008262Y019877D01*
X008262Y019868D02*
X008479Y019868D01*
X008471Y019860D02*
X008262Y019860D01*
X008262Y019851D02*
X008460Y019851D01*
X008450Y019843D02*
X008262Y019843D01*
X008262Y019834D02*
X008439Y019834D01*
X008429Y019826D02*
X008262Y019826D01*
X008262Y019817D02*
X008413Y019817D01*
X008397Y019809D02*
X008262Y019809D01*
X008262Y019800D02*
X008381Y019800D01*
X008357Y019792D02*
X008262Y019792D01*
X008262Y019783D02*
X008329Y019783D01*
X007562Y019783D02*
X007496Y019783D01*
X007504Y019781D02*
X007448Y019798D01*
X007396Y019826D01*
X007562Y019826D01*
X007562Y019834D02*
X007385Y019834D01*
X007375Y019843D02*
X007562Y019843D01*
X007562Y019851D02*
X007365Y019851D01*
X007354Y019860D02*
X007562Y019860D01*
X007562Y019868D02*
X007346Y019868D01*
X007350Y019863D02*
X007313Y019908D01*
X007285Y019960D01*
X007268Y020016D01*
X007262Y020075D01*
X007268Y020134D01*
X007285Y020190D01*
X007313Y020242D01*
X007350Y020287D01*
X007396Y020324D01*
X007448Y020352D01*
X007504Y020369D01*
X007562Y020375D01*
X007562Y019775D01*
X007504Y019781D01*
X007468Y019792D02*
X007562Y019792D01*
X007562Y019800D02*
X007444Y019800D01*
X007428Y019809D02*
X007562Y019809D01*
X007562Y019817D02*
X007412Y019817D01*
X007396Y019826D02*
X007350Y019863D01*
X007339Y019877D02*
X007562Y019877D01*
X007562Y019885D02*
X007332Y019885D01*
X007325Y019894D02*
X007562Y019894D01*
X007562Y019902D02*
X007318Y019902D01*
X007312Y019911D02*
X007562Y019911D01*
X007562Y019919D02*
X007307Y019919D01*
X007303Y019928D02*
X007562Y019928D01*
X007562Y019936D02*
X007298Y019936D01*
X007294Y019945D02*
X007562Y019945D01*
X007562Y019953D02*
X007289Y019953D01*
X007285Y019962D02*
X007562Y019962D01*
X007562Y019970D02*
X007282Y019970D01*
X007280Y019979D02*
X007562Y019979D01*
X007562Y019987D02*
X007277Y019987D01*
X007275Y019996D02*
X007562Y019996D01*
X007562Y020004D02*
X007272Y020004D01*
X007269Y020013D02*
X007562Y020013D01*
X007562Y020021D02*
X007268Y020021D01*
X007267Y020030D02*
X007562Y020030D01*
X007562Y020038D02*
X007266Y020038D01*
X007265Y020047D02*
X007562Y020047D01*
X007562Y020055D02*
X007264Y020055D01*
X007264Y020064D02*
X007562Y020064D01*
X007562Y020072D02*
X007263Y020072D01*
X007263Y020081D02*
X007562Y020081D01*
X007562Y020089D02*
X007264Y020089D01*
X007265Y020098D02*
X007562Y020098D01*
X007562Y020106D02*
X007266Y020106D01*
X007266Y020115D02*
X007562Y020115D01*
X007562Y020123D02*
X007267Y020123D01*
X007268Y020132D02*
X007562Y020132D01*
X007562Y020140D02*
X007270Y020140D01*
X007273Y020149D02*
X007562Y020149D01*
X007562Y020157D02*
X007275Y020157D01*
X007278Y020166D02*
X007562Y020166D01*
X007562Y020174D02*
X007281Y020174D01*
X007283Y020183D02*
X007562Y020183D01*
X007562Y020191D02*
X007286Y020191D01*
X007291Y020200D02*
X007562Y020200D01*
X007562Y020208D02*
X007295Y020208D01*
X007300Y020217D02*
X007562Y020217D01*
X007562Y020225D02*
X007304Y020225D01*
X007309Y020234D02*
X007562Y020234D01*
X007562Y020242D02*
X007313Y020242D01*
X007320Y020251D02*
X007562Y020251D01*
X007562Y020259D02*
X007327Y020259D01*
X007334Y020268D02*
X007562Y020268D01*
X007562Y020276D02*
X007341Y020276D01*
X007348Y020285D02*
X007562Y020285D01*
X007562Y020293D02*
X007358Y020293D01*
X007368Y020302D02*
X007562Y020302D01*
X007562Y020310D02*
X007378Y020310D01*
X007389Y020319D02*
X007562Y020319D01*
X007562Y020327D02*
X007401Y020327D01*
X007417Y020336D02*
X007562Y020336D01*
X007562Y020344D02*
X007433Y020344D01*
X007449Y020353D02*
X007562Y020353D01*
X007562Y020361D02*
X007477Y020361D01*
X007507Y020370D02*
X007562Y020370D01*
D52*
X008362Y020075D03*
X009787Y020100D03*
D53*
X010762Y020100D03*
X007387Y020075D03*
D54*
X005937Y020310D02*
X005937Y020790D01*
X004937Y020790D02*
X004937Y020310D01*
X003937Y020310D02*
X003937Y020790D01*
D55*
X030887Y028455D03*
X030887Y029045D03*
D56*
X025462Y025390D02*
X025454Y025399D01*
X024387Y025399D01*
X024387Y025325D01*
X024037Y024975D01*
X022549Y026463D01*
X022549Y026697D01*
X022549Y027681D01*
X024362Y027446D02*
X024387Y027446D01*
X024387Y026501D01*
X024037Y024975D02*
X025162Y023850D01*
X029187Y023850D01*
X029462Y024125D01*
X024362Y029454D02*
X022746Y029454D01*
X022549Y029650D01*
X014675Y029158D02*
X014380Y029158D01*
X013687Y029850D01*
X012287Y029850D01*
X010187Y027950D02*
X010163Y027926D01*
X009688Y027926D01*
X007937Y026175D01*
X008022Y026090D01*
X010912Y026090D01*
X056912Y002821D02*
X057037Y002946D01*
X060737Y002946D01*
X061467Y002946D01*
X061780Y003259D01*
X060737Y002946D02*
X060737Y007225D01*
X060737Y007700D01*
X058562Y009875D01*
X058562Y021200D01*
X058662Y021200D01*
X058562Y021200D02*
X058562Y022100D01*
X058662Y022200D01*
D57*
X047962Y012850D02*
X045789Y012850D01*
X045787Y012848D01*
X047937Y012825D02*
X047937Y011950D01*
X047937Y011125D01*
X047914Y011102D01*
X045787Y011102D01*
X047937Y012825D02*
X047962Y012850D01*
X042537Y030425D02*
X042292Y030425D01*
X040232Y030425D02*
X039737Y030425D01*
D58*
X039087Y030425D01*
X038889Y030228D01*
X037339Y030228D01*
X042537Y030425D02*
X043237Y030425D01*
X044639Y031826D01*
X047737Y031826D01*
X052014Y031826D01*
X052037Y031850D01*
X051189Y028874D02*
X047737Y028874D01*
X045211Y028874D01*
X042053Y025716D01*
X037189Y025716D01*
X051189Y028874D02*
X054039Y026024D01*
X054362Y026024D01*
D59*
X054409Y026025D02*
X054712Y026025D01*
X057287Y028600D01*
X057487Y028800D01*
X058285Y029597D01*
X058285Y033567D01*
X054362Y029800D02*
X052285Y031878D01*
X052285Y033567D01*
X054362Y029800D02*
X054362Y028976D01*
X049537Y023375D02*
X051512Y021400D01*
X051512Y013975D01*
X049487Y011950D01*
X047937Y011950D01*
X045787Y017800D02*
X040498Y012511D01*
X037339Y012511D01*
X045787Y017800D02*
X045787Y021352D01*
X042737Y023375D02*
X040787Y021425D01*
X039787Y021425D01*
X039662Y021300D01*
X039662Y023350D01*
X039297Y023716D01*
X037189Y023716D01*
X039662Y021300D02*
X039662Y019600D01*
X039266Y019204D01*
X037339Y019204D01*
X042737Y023375D02*
X049537Y023375D01*
X045587Y007150D02*
X040337Y007150D01*
X039006Y005818D01*
X037339Y005818D01*
X045587Y007150D02*
X046737Y006000D01*
X046737Y005400D01*
X045787Y004450D01*
X045787Y002598D01*
X013887Y002975D02*
X011487Y002975D01*
X008612Y005850D01*
X007911Y005850D01*
X008612Y005850D02*
X010462Y007725D01*
X013137Y007725D01*
X013839Y007725D01*
D60*
X013387Y007850D02*
X013137Y007725D01*
X013387Y007850D02*
X013387Y007025D01*
X014962Y007004D02*
X020357Y007004D01*
X020357Y006906D02*
X014962Y006906D01*
X014962Y006807D02*
X020368Y006807D01*
X020357Y006818D02*
X020752Y006423D01*
X021311Y006423D01*
X021707Y006818D01*
X021707Y007377D01*
X021544Y007540D01*
X021802Y007540D01*
X021802Y006000D01*
X014962Y006000D01*
X014962Y010325D01*
X015662Y010325D01*
X015662Y011475D01*
X018287Y011475D01*
X020012Y013200D01*
X026062Y013200D01*
X026062Y009360D01*
X020311Y009360D01*
X020215Y009320D01*
X020142Y009247D01*
X020102Y009152D01*
X020102Y009048D01*
X020102Y007748D01*
X020142Y007653D01*
X020215Y007580D01*
X020311Y007540D01*
X020520Y007540D01*
X020357Y007377D01*
X020357Y006818D01*
X020466Y006709D02*
X014962Y006709D01*
X014962Y006610D02*
X020565Y006610D01*
X020663Y006512D02*
X014962Y006512D01*
X014962Y006413D02*
X021802Y006413D01*
X021802Y006315D02*
X014962Y006315D01*
X014962Y006216D02*
X021802Y006216D01*
X021802Y006118D02*
X014962Y006118D01*
X014962Y006019D02*
X021802Y006019D01*
X022062Y006019D02*
X026062Y006019D01*
X026062Y005921D02*
X022062Y005921D01*
X022062Y005822D02*
X026062Y005822D01*
X026062Y005724D02*
X022062Y005724D01*
X022062Y005700D02*
X014962Y005700D01*
X014962Y001957D01*
X026062Y001957D01*
X026062Y009100D01*
X020362Y009100D01*
X020362Y007800D01*
X022062Y007800D01*
X022062Y005700D01*
X022062Y006118D02*
X026062Y006118D01*
X026062Y006216D02*
X022062Y006216D01*
X022062Y006315D02*
X026062Y006315D01*
X026062Y006413D02*
X022062Y006413D01*
X022062Y006512D02*
X026062Y006512D01*
X026062Y006610D02*
X022062Y006610D01*
X022062Y006709D02*
X026062Y006709D01*
X026062Y006807D02*
X022062Y006807D01*
X022062Y006906D02*
X026062Y006906D01*
X026062Y007004D02*
X022062Y007004D01*
X022062Y007103D02*
X026062Y007103D01*
X026062Y007201D02*
X022062Y007201D01*
X022062Y007300D02*
X026062Y007300D01*
X026062Y007398D02*
X022062Y007398D01*
X022062Y007497D02*
X026062Y007497D01*
X026062Y007595D02*
X022062Y007595D01*
X022062Y007694D02*
X026062Y007694D01*
X026062Y007792D02*
X022062Y007792D01*
X021802Y007497D02*
X021587Y007497D01*
X021686Y007398D02*
X021802Y007398D01*
X021802Y007300D02*
X021707Y007300D01*
X021707Y007201D02*
X021802Y007201D01*
X021802Y007103D02*
X021707Y007103D01*
X021707Y007004D02*
X021802Y007004D01*
X021802Y006906D02*
X021707Y006906D01*
X021696Y006807D02*
X021802Y006807D01*
X021802Y006709D02*
X021597Y006709D01*
X021499Y006610D02*
X021802Y006610D01*
X021802Y006512D02*
X021400Y006512D01*
X020357Y007103D02*
X014962Y007103D01*
X014962Y007201D02*
X020357Y007201D01*
X020357Y007300D02*
X014962Y007300D01*
X014962Y007398D02*
X020378Y007398D01*
X020476Y007497D02*
X014962Y007497D01*
X014962Y007595D02*
X020200Y007595D01*
X020125Y007694D02*
X014962Y007694D01*
X014962Y007792D02*
X020102Y007792D01*
X020102Y007891D02*
X014962Y007891D01*
X014962Y007989D02*
X020102Y007989D01*
X020102Y008088D02*
X014962Y008088D01*
X014962Y008186D02*
X020102Y008186D01*
X020102Y008285D02*
X014962Y008285D01*
X014962Y008383D02*
X020102Y008383D01*
X020102Y008482D02*
X014962Y008482D01*
X014962Y008580D02*
X020102Y008580D01*
X020102Y008679D02*
X014962Y008679D01*
X014962Y008777D02*
X020102Y008777D01*
X020102Y008876D02*
X014962Y008876D01*
X014962Y008974D02*
X020102Y008974D01*
X020102Y009073D02*
X014962Y009073D01*
X014962Y009171D02*
X020110Y009171D01*
X020164Y009270D02*
X014962Y009270D01*
X014962Y009368D02*
X026062Y009368D01*
X026062Y009467D02*
X014962Y009467D01*
X014962Y009565D02*
X026062Y009565D01*
X026062Y009664D02*
X014962Y009664D01*
X014962Y009762D02*
X026062Y009762D01*
X026062Y009861D02*
X014962Y009861D01*
X014962Y009959D02*
X026062Y009959D01*
X026062Y010058D02*
X014962Y010058D01*
X014962Y010156D02*
X026062Y010156D01*
X026062Y010255D02*
X014962Y010255D01*
X015662Y010353D02*
X026062Y010353D01*
X026062Y010452D02*
X015662Y010452D01*
X015662Y010550D02*
X026062Y010550D01*
X026062Y010649D02*
X021403Y010649D01*
X021311Y010557D02*
X020752Y010557D01*
X020357Y010952D01*
X020357Y011511D01*
X020752Y011906D01*
X021311Y011906D01*
X021707Y011511D01*
X021707Y010952D01*
X021311Y010557D01*
X021502Y010747D02*
X026062Y010747D01*
X026062Y010846D02*
X021600Y010846D01*
X021699Y010944D02*
X026062Y010944D01*
X026062Y011043D02*
X021707Y011043D01*
X021707Y011141D02*
X026062Y011141D01*
X026062Y011240D02*
X021707Y011240D01*
X021707Y011338D02*
X026062Y011338D01*
X026062Y011437D02*
X021707Y011437D01*
X021683Y011535D02*
X026062Y011535D01*
X026062Y011634D02*
X021584Y011634D01*
X021486Y011732D02*
X026062Y011732D01*
X026062Y011831D02*
X021387Y011831D01*
X020676Y011831D02*
X018643Y011831D01*
X018741Y011929D02*
X026062Y011929D01*
X026062Y012028D02*
X018840Y012028D01*
X018938Y012126D02*
X026062Y012126D01*
X026062Y012225D02*
X019037Y012225D01*
X019135Y012323D02*
X026062Y012323D01*
X026062Y012422D02*
X019234Y012422D01*
X019332Y012520D02*
X026062Y012520D01*
X026062Y012619D02*
X019431Y012619D01*
X019529Y012717D02*
X026062Y012717D01*
X026062Y012816D02*
X019628Y012816D01*
X019726Y012914D02*
X026062Y012914D01*
X026062Y013013D02*
X019825Y013013D01*
X019923Y013111D02*
X026062Y013111D01*
X027432Y013111D02*
X029862Y013111D01*
X029862Y013013D02*
X027432Y013013D01*
X027432Y012914D02*
X029862Y012914D01*
X029862Y012816D02*
X027432Y012816D01*
X027432Y012717D02*
X029862Y012717D01*
X029862Y012619D02*
X027432Y012619D01*
X027432Y012520D02*
X029862Y012520D01*
X029862Y012422D02*
X027432Y012422D01*
X027432Y012323D02*
X029862Y012323D01*
X029862Y012225D02*
X027432Y012225D01*
X027432Y012126D02*
X029862Y012126D01*
X029862Y012028D02*
X027432Y012028D01*
X027432Y011929D02*
X029862Y011929D01*
X029862Y011831D02*
X027432Y011831D01*
X027432Y011732D02*
X029862Y011732D01*
X029862Y011634D02*
X027432Y011634D01*
X027432Y011535D02*
X029862Y011535D01*
X029862Y011437D02*
X027432Y011437D01*
X027432Y011338D02*
X029862Y011338D01*
X029862Y011240D02*
X027432Y011240D01*
X027432Y011141D02*
X029862Y011141D01*
X029862Y011043D02*
X027432Y011043D01*
X027432Y010944D02*
X029862Y010944D01*
X029862Y010846D02*
X027432Y010846D01*
X027432Y010747D02*
X029862Y010747D01*
X029862Y010649D02*
X027432Y010649D01*
X027432Y010550D02*
X029862Y010550D01*
X029862Y010452D02*
X027432Y010452D01*
X027432Y010353D02*
X029862Y010353D01*
X029862Y010255D02*
X027432Y010255D01*
X027432Y010156D02*
X029862Y010156D01*
X029862Y010058D02*
X027432Y010058D01*
X027432Y009975D02*
X027432Y014975D01*
X029862Y014975D01*
X029862Y009975D01*
X027432Y009975D01*
X027432Y009075D02*
X029862Y009075D01*
X029862Y004400D01*
X027432Y004400D01*
X027432Y009075D01*
X027432Y009073D02*
X029862Y009073D01*
X029862Y008974D02*
X027432Y008974D01*
X027432Y008876D02*
X029862Y008876D01*
X029862Y008777D02*
X027432Y008777D01*
X027432Y008679D02*
X029862Y008679D01*
X029862Y008580D02*
X027432Y008580D01*
X027432Y008482D02*
X029862Y008482D01*
X029862Y008383D02*
X027432Y008383D01*
X027432Y008285D02*
X029862Y008285D01*
X029862Y008186D02*
X027432Y008186D01*
X027432Y008088D02*
X029862Y008088D01*
X029862Y007989D02*
X027432Y007989D01*
X027432Y007891D02*
X029862Y007891D01*
X029862Y007792D02*
X027432Y007792D01*
X027432Y007694D02*
X029862Y007694D01*
X029862Y007595D02*
X027432Y007595D01*
X027432Y007497D02*
X029862Y007497D01*
X029862Y007398D02*
X027432Y007398D01*
X027432Y007300D02*
X029862Y007300D01*
X029862Y007201D02*
X027432Y007201D01*
X027432Y007103D02*
X029862Y007103D01*
X029862Y007004D02*
X027432Y007004D01*
X027432Y006906D02*
X029862Y006906D01*
X029862Y006807D02*
X027432Y006807D01*
X027432Y006709D02*
X029862Y006709D01*
X029862Y006610D02*
X027432Y006610D01*
X027432Y006512D02*
X029862Y006512D01*
X029862Y006413D02*
X027432Y006413D01*
X027432Y006315D02*
X029862Y006315D01*
X029862Y006216D02*
X027432Y006216D01*
X027432Y006118D02*
X029862Y006118D01*
X029862Y006019D02*
X027432Y006019D01*
X027432Y005921D02*
X029862Y005921D01*
X029862Y005822D02*
X027432Y005822D01*
X027432Y005724D02*
X029862Y005724D01*
X029862Y005625D02*
X027432Y005625D01*
X027432Y005527D02*
X029862Y005527D01*
X029862Y005428D02*
X027432Y005428D01*
X027432Y005330D02*
X029862Y005330D01*
X029862Y005231D02*
X027432Y005231D01*
X027432Y005133D02*
X029862Y005133D01*
X029862Y005034D02*
X027432Y005034D01*
X027432Y004936D02*
X029862Y004936D01*
X029862Y004837D02*
X027432Y004837D01*
X027432Y004739D02*
X029862Y004739D01*
X029862Y004640D02*
X027432Y004640D01*
X027432Y004542D02*
X029862Y004542D01*
X029862Y004443D02*
X027432Y004443D01*
X026062Y004443D02*
X014962Y004443D01*
X014962Y004345D02*
X026062Y004345D01*
X026062Y004246D02*
X014962Y004246D01*
X014962Y004148D02*
X026062Y004148D01*
X026062Y004049D02*
X014962Y004049D01*
X014962Y003951D02*
X026062Y003951D01*
X026062Y003852D02*
X014962Y003852D01*
X014962Y003754D02*
X026062Y003754D01*
X026062Y003655D02*
X014962Y003655D01*
X014962Y003557D02*
X026062Y003557D01*
X026062Y003458D02*
X014962Y003458D01*
X014962Y003360D02*
X026062Y003360D01*
X026062Y003261D02*
X014962Y003261D01*
X014962Y003163D02*
X026062Y003163D01*
X026062Y003064D02*
X014962Y003064D01*
X014962Y002966D02*
X026062Y002966D01*
X026062Y002867D02*
X014962Y002867D01*
X014962Y002769D02*
X026062Y002769D01*
X026062Y002670D02*
X014962Y002670D01*
X014962Y002572D02*
X026062Y002572D01*
X026062Y002473D02*
X014962Y002473D01*
X014962Y002375D02*
X026062Y002375D01*
X026062Y002276D02*
X014962Y002276D01*
X014962Y002178D02*
X026062Y002178D01*
X026062Y002079D02*
X014962Y002079D01*
X014962Y001981D02*
X026062Y001981D01*
X026062Y004542D02*
X014962Y004542D01*
X014962Y004640D02*
X026062Y004640D01*
X026062Y004739D02*
X014962Y004739D01*
X014962Y004837D02*
X026062Y004837D01*
X026062Y004936D02*
X014962Y004936D01*
X014962Y005034D02*
X026062Y005034D01*
X026062Y005133D02*
X014962Y005133D01*
X014962Y005231D02*
X026062Y005231D01*
X026062Y005330D02*
X014962Y005330D01*
X014962Y005428D02*
X026062Y005428D01*
X026062Y005527D02*
X014962Y005527D01*
X014962Y005625D02*
X026062Y005625D01*
X026062Y007891D02*
X020362Y007891D01*
X020362Y007989D02*
X026062Y007989D01*
X026062Y008088D02*
X020362Y008088D01*
X020362Y008186D02*
X026062Y008186D01*
X026062Y008285D02*
X020362Y008285D01*
X020362Y008383D02*
X026062Y008383D01*
X026062Y008482D02*
X020362Y008482D01*
X020362Y008580D02*
X026062Y008580D01*
X026062Y008679D02*
X020362Y008679D01*
X020362Y008777D02*
X026062Y008777D01*
X026062Y008876D02*
X020362Y008876D01*
X020362Y008974D02*
X026062Y008974D01*
X026062Y009073D02*
X020362Y009073D01*
X017815Y008725D02*
X016597Y009000D01*
X013337Y009000D01*
X012262Y008974D02*
X007562Y008974D01*
X007562Y008876D02*
X012262Y008876D01*
X012262Y008777D02*
X007562Y008777D01*
X007562Y008679D02*
X012262Y008679D01*
X012262Y008580D02*
X007562Y008580D01*
X007562Y008482D02*
X010144Y008482D01*
X010162Y008500D02*
X008362Y006700D01*
X008362Y006457D01*
X008221Y006598D01*
X007961Y006598D01*
X007961Y005900D01*
X007861Y005900D01*
X007861Y005800D01*
X007163Y005800D01*
X007163Y005540D01*
X007601Y005102D01*
X007861Y005102D01*
X007861Y005800D01*
X007961Y005800D01*
X007961Y005102D01*
X008221Y005102D01*
X008362Y005243D01*
X008362Y004500D01*
X008262Y004400D01*
X006362Y004400D01*
X006162Y004600D01*
X006162Y005956D01*
X006283Y005956D01*
X006406Y006079D01*
X006406Y007754D01*
X007562Y007775D01*
X007562Y016800D01*
X010798Y016792D01*
X010885Y016706D01*
X011190Y016706D01*
X011275Y016791D01*
X015919Y016781D01*
X015919Y016622D01*
X016135Y016406D01*
X016440Y016406D01*
X016614Y016580D01*
X017283Y016580D01*
X016939Y016236D01*
X016939Y015976D01*
X017637Y015976D01*
X017637Y015876D01*
X016939Y015876D01*
X016939Y015617D01*
X017378Y015178D01*
X017637Y015178D01*
X017637Y015876D01*
X017737Y015876D01*
X017737Y015178D01*
X017997Y015178D01*
X018436Y015617D01*
X018436Y015876D01*
X017737Y015876D01*
X017737Y015976D01*
X018436Y015976D01*
X018436Y016170D01*
X018837Y015768D01*
X018837Y014675D01*
X018362Y014200D01*
X014356Y014200D01*
X014356Y014378D01*
X014140Y014594D01*
X013835Y014594D01*
X013619Y014378D01*
X013619Y014200D01*
X012321Y014200D01*
X012254Y014228D01*
X011924Y014228D01*
X011620Y014102D01*
X011387Y013869D01*
X011261Y013565D01*
X011261Y013235D01*
X011387Y012931D01*
X011620Y012698D01*
X011924Y012572D01*
X012254Y012572D01*
X012262Y012576D01*
X012262Y008500D01*
X010162Y008500D01*
X010045Y008383D02*
X007562Y008383D01*
X007562Y008285D02*
X009947Y008285D01*
X009848Y008186D02*
X007562Y008186D01*
X007562Y008088D02*
X009750Y008088D01*
X009651Y007989D02*
X007562Y007989D01*
X007562Y007891D02*
X009553Y007891D01*
X009454Y007792D02*
X007562Y007792D01*
X007362Y007792D02*
X006385Y007792D01*
X006406Y007771D02*
X006283Y007894D01*
X005894Y007894D01*
X005262Y008525D01*
X005262Y016500D01*
X005562Y016800D01*
X007362Y016800D01*
X007362Y013500D01*
X006662Y013500D01*
X006662Y013300D01*
X007362Y013300D01*
X007362Y010100D01*
X006662Y010100D01*
X006662Y009900D01*
X007362Y009900D01*
X007362Y007600D01*
X006406Y007620D01*
X006406Y007771D01*
X006406Y007694D02*
X007362Y007694D01*
X007362Y007891D02*
X006286Y007891D01*
X006406Y007694D02*
X009356Y007694D01*
X009257Y007595D02*
X006406Y007595D01*
X006406Y007497D02*
X009159Y007497D01*
X009060Y007398D02*
X006406Y007398D01*
X006406Y007300D02*
X008962Y007300D01*
X008863Y007201D02*
X006406Y007201D01*
X006406Y007103D02*
X008765Y007103D01*
X008666Y007004D02*
X006406Y007004D01*
X006406Y006906D02*
X008568Y006906D01*
X008469Y006807D02*
X006406Y006807D01*
X006406Y006709D02*
X008371Y006709D01*
X008362Y006610D02*
X006406Y006610D01*
X006406Y006512D02*
X007515Y006512D01*
X007601Y006598D02*
X007163Y006160D01*
X007163Y005900D01*
X007861Y005900D01*
X007861Y006598D01*
X007601Y006598D01*
X007416Y006413D02*
X006406Y006413D01*
X006406Y006315D02*
X007318Y006315D01*
X007219Y006216D02*
X006406Y006216D01*
X006406Y006118D02*
X007163Y006118D01*
X007163Y006019D02*
X006346Y006019D01*
X006162Y005921D02*
X007163Y005921D01*
X007163Y005724D02*
X006162Y005724D01*
X006162Y005822D02*
X007861Y005822D01*
X007861Y005724D02*
X007961Y005724D01*
X007961Y005625D02*
X007861Y005625D01*
X007861Y005527D02*
X007961Y005527D01*
X007961Y005428D02*
X007861Y005428D01*
X007861Y005330D02*
X007961Y005330D01*
X007961Y005231D02*
X007861Y005231D01*
X007861Y005133D02*
X007961Y005133D01*
X008252Y005133D02*
X008362Y005133D01*
X008350Y005231D02*
X008362Y005231D01*
X008362Y005034D02*
X006162Y005034D01*
X006162Y004936D02*
X008362Y004936D01*
X008362Y004837D02*
X006162Y004837D01*
X006162Y004739D02*
X008362Y004739D01*
X008362Y004640D02*
X006162Y004640D01*
X006221Y004542D02*
X008362Y004542D01*
X008305Y004443D02*
X006319Y004443D01*
X006162Y005133D02*
X007571Y005133D01*
X007472Y005231D02*
X006162Y005231D01*
X006162Y005330D02*
X007374Y005330D01*
X007275Y005428D02*
X006162Y005428D01*
X006162Y005527D02*
X007177Y005527D01*
X007163Y005625D02*
X006162Y005625D01*
X004762Y006000D02*
X004562Y005800D01*
X002801Y005800D01*
X002801Y016800D01*
X004562Y016800D01*
X004762Y016600D01*
X004762Y013500D01*
X004262Y013500D01*
X004262Y013300D01*
X004762Y013300D01*
X004762Y010100D01*
X004262Y010100D01*
X004262Y009900D01*
X004762Y009900D01*
X004762Y006000D01*
X004762Y006019D02*
X002801Y006019D01*
X002801Y005921D02*
X004683Y005921D01*
X004584Y005822D02*
X002801Y005822D01*
X002801Y006118D02*
X004762Y006118D01*
X004762Y006216D02*
X002801Y006216D01*
X002801Y006315D02*
X004762Y006315D01*
X004762Y006413D02*
X002801Y006413D01*
X002801Y006512D02*
X004762Y006512D01*
X004762Y006610D02*
X002801Y006610D01*
X002801Y006709D02*
X004762Y006709D01*
X004762Y006807D02*
X002801Y006807D01*
X002801Y006906D02*
X004762Y006906D01*
X004762Y007004D02*
X002801Y007004D01*
X002801Y007103D02*
X004762Y007103D01*
X004762Y007201D02*
X002801Y007201D01*
X002801Y007300D02*
X004762Y007300D01*
X004762Y007398D02*
X002801Y007398D01*
X002801Y007497D02*
X004762Y007497D01*
X004762Y007595D02*
X002801Y007595D01*
X002801Y007694D02*
X004762Y007694D01*
X004762Y007792D02*
X002801Y007792D01*
X002801Y007891D02*
X004762Y007891D01*
X004762Y007989D02*
X002801Y007989D01*
X002801Y008088D02*
X004762Y008088D01*
X004762Y008186D02*
X002801Y008186D01*
X002801Y008285D02*
X004762Y008285D01*
X004762Y008383D02*
X002801Y008383D01*
X002801Y008482D02*
X004762Y008482D01*
X004762Y008580D02*
X002801Y008580D01*
X002801Y008679D02*
X004762Y008679D01*
X004762Y008777D02*
X002801Y008777D01*
X002801Y008876D02*
X004762Y008876D01*
X004762Y008974D02*
X002801Y008974D01*
X002801Y009073D02*
X004762Y009073D01*
X004762Y009171D02*
X002801Y009171D01*
X002801Y009270D02*
X004762Y009270D01*
X004762Y009368D02*
X002801Y009368D01*
X002801Y009467D02*
X004762Y009467D01*
X004762Y009565D02*
X002801Y009565D01*
X002801Y009664D02*
X004762Y009664D01*
X004762Y009762D02*
X002801Y009762D01*
X002801Y009861D02*
X004762Y009861D01*
X004762Y010156D02*
X002801Y010156D01*
X002801Y010058D02*
X004262Y010058D01*
X004262Y009959D02*
X002801Y009959D01*
X002801Y010255D02*
X004762Y010255D01*
X004762Y010353D02*
X002801Y010353D01*
X002801Y010452D02*
X004762Y010452D01*
X004762Y010550D02*
X002801Y010550D01*
X002801Y010649D02*
X004762Y010649D01*
X004762Y010747D02*
X002801Y010747D01*
X002801Y010846D02*
X004762Y010846D01*
X004762Y010944D02*
X002801Y010944D01*
X002801Y011043D02*
X004762Y011043D01*
X004762Y011141D02*
X002801Y011141D01*
X002801Y011240D02*
X004762Y011240D01*
X004762Y011338D02*
X002801Y011338D01*
X002801Y011437D02*
X004762Y011437D01*
X004762Y011535D02*
X002801Y011535D01*
X002801Y011634D02*
X004762Y011634D01*
X004762Y011732D02*
X002801Y011732D01*
X002801Y011831D02*
X004762Y011831D01*
X004762Y011929D02*
X002801Y011929D01*
X002801Y012028D02*
X004762Y012028D01*
X004762Y012126D02*
X002801Y012126D01*
X002801Y012225D02*
X004762Y012225D01*
X004762Y012323D02*
X002801Y012323D01*
X002801Y012422D02*
X004762Y012422D01*
X004762Y012520D02*
X002801Y012520D01*
X002801Y012619D02*
X004762Y012619D01*
X004762Y012717D02*
X002801Y012717D01*
X002801Y012816D02*
X004762Y012816D01*
X004762Y012914D02*
X002801Y012914D01*
X002801Y013013D02*
X004762Y013013D01*
X004762Y013111D02*
X002801Y013111D01*
X002801Y013210D02*
X004762Y013210D01*
X004762Y013505D02*
X002801Y013505D01*
X002801Y013407D02*
X004262Y013407D01*
X004262Y013308D02*
X002801Y013308D01*
X002801Y013604D02*
X004762Y013604D01*
X004762Y013702D02*
X002801Y013702D01*
X002801Y013801D02*
X004762Y013801D01*
X004762Y013899D02*
X002801Y013899D01*
X002801Y013998D02*
X004762Y013998D01*
X004762Y014096D02*
X002801Y014096D01*
X002801Y014195D02*
X004762Y014195D01*
X004762Y014293D02*
X002801Y014293D01*
X002801Y014392D02*
X004762Y014392D01*
X004762Y014490D02*
X002801Y014490D01*
X002801Y014589D02*
X004762Y014589D01*
X004762Y014687D02*
X002801Y014687D01*
X002801Y014786D02*
X004762Y014786D01*
X004762Y014884D02*
X002801Y014884D01*
X002801Y014983D02*
X004762Y014983D01*
X004762Y015081D02*
X002801Y015081D01*
X002801Y015180D02*
X004762Y015180D01*
X004762Y015278D02*
X002801Y015278D01*
X002801Y015377D02*
X004762Y015377D01*
X004762Y015475D02*
X002801Y015475D01*
X002801Y015574D02*
X004762Y015574D01*
X004762Y015672D02*
X002801Y015672D01*
X002801Y015771D02*
X004762Y015771D01*
X004762Y015869D02*
X002801Y015869D01*
X002801Y015968D02*
X004762Y015968D01*
X004762Y016066D02*
X002801Y016066D01*
X002801Y016165D02*
X004762Y016165D01*
X004762Y016263D02*
X002801Y016263D01*
X002801Y016362D02*
X004762Y016362D01*
X004762Y016460D02*
X002801Y016460D01*
X002801Y016559D02*
X004762Y016559D01*
X004705Y016657D02*
X002801Y016657D01*
X002801Y016756D02*
X004607Y016756D01*
X005262Y016460D02*
X007362Y016460D01*
X007362Y016362D02*
X005262Y016362D01*
X005262Y016263D02*
X007362Y016263D01*
X007362Y016165D02*
X005262Y016165D01*
X005262Y016066D02*
X007362Y016066D01*
X007362Y015968D02*
X005262Y015968D01*
X005262Y015869D02*
X007362Y015869D01*
X007362Y015771D02*
X005262Y015771D01*
X005262Y015672D02*
X007362Y015672D01*
X007362Y015574D02*
X005262Y015574D01*
X005262Y015475D02*
X007362Y015475D01*
X007362Y015377D02*
X005262Y015377D01*
X005262Y015278D02*
X007362Y015278D01*
X007362Y015180D02*
X005262Y015180D01*
X005262Y015081D02*
X007362Y015081D01*
X007362Y014983D02*
X005262Y014983D01*
X005262Y014884D02*
X007362Y014884D01*
X007362Y014786D02*
X005262Y014786D01*
X005262Y014687D02*
X007362Y014687D01*
X007362Y014589D02*
X005262Y014589D01*
X005262Y014490D02*
X007362Y014490D01*
X007362Y014392D02*
X005262Y014392D01*
X005262Y014293D02*
X007362Y014293D01*
X007362Y014195D02*
X005262Y014195D01*
X005262Y014096D02*
X007362Y014096D01*
X007362Y013998D02*
X005262Y013998D01*
X005262Y013899D02*
X007362Y013899D01*
X007362Y013801D02*
X005262Y013801D01*
X005262Y013702D02*
X007362Y013702D01*
X007362Y013604D02*
X005262Y013604D01*
X005262Y013505D02*
X007362Y013505D01*
X007562Y013505D02*
X008388Y013505D01*
X008388Y013450D02*
X009086Y013450D01*
X009086Y013350D01*
X008388Y013350D01*
X008388Y013090D01*
X008826Y012652D01*
X009086Y012652D01*
X009086Y013350D01*
X009186Y013350D01*
X009186Y012652D01*
X009446Y012652D01*
X009884Y013090D01*
X009884Y013350D01*
X009186Y013350D01*
X009186Y013450D01*
X009086Y013450D01*
X009086Y014148D01*
X008826Y014148D01*
X008388Y013710D01*
X008388Y013450D01*
X008388Y013308D02*
X007562Y013308D01*
X007562Y013210D02*
X008388Y013210D01*
X008388Y013111D02*
X007562Y013111D01*
X007562Y013013D02*
X008466Y013013D01*
X008564Y012914D02*
X007562Y012914D01*
X007562Y012816D02*
X008663Y012816D01*
X008761Y012717D02*
X007562Y012717D01*
X007562Y012619D02*
X011812Y012619D01*
X011601Y012717D02*
X009511Y012717D01*
X009610Y012816D02*
X011502Y012816D01*
X011404Y012914D02*
X009708Y012914D01*
X009807Y013013D02*
X011353Y013013D01*
X011312Y013111D02*
X009884Y013111D01*
X009884Y013210D02*
X011271Y013210D01*
X011261Y013308D02*
X009884Y013308D01*
X009884Y013450D02*
X009884Y013710D01*
X009446Y014148D01*
X009186Y014148D01*
X009186Y013450D01*
X009884Y013450D01*
X009884Y013505D02*
X011261Y013505D01*
X011261Y013407D02*
X009186Y013407D01*
X009186Y013505D02*
X009086Y013505D01*
X009086Y013407D02*
X007562Y013407D01*
X007562Y013604D02*
X008388Y013604D01*
X008388Y013702D02*
X007562Y013702D01*
X007562Y013801D02*
X008479Y013801D01*
X008577Y013899D02*
X007562Y013899D01*
X007562Y013998D02*
X008676Y013998D01*
X008774Y014096D02*
X007562Y014096D01*
X007562Y014195D02*
X011843Y014195D01*
X011614Y014096D02*
X009498Y014096D01*
X009597Y013998D02*
X011515Y013998D01*
X011417Y013899D02*
X009695Y013899D01*
X009794Y013801D02*
X011358Y013801D01*
X011318Y013702D02*
X009884Y013702D01*
X009884Y013604D02*
X011277Y013604D01*
X012262Y012520D02*
X007562Y012520D01*
X007562Y012422D02*
X012262Y012422D01*
X012262Y012323D02*
X007562Y012323D01*
X007562Y012225D02*
X012262Y012225D01*
X012262Y012126D02*
X007562Y012126D01*
X007562Y012028D02*
X012262Y012028D01*
X012262Y011929D02*
X007562Y011929D01*
X007562Y011831D02*
X012262Y011831D01*
X012262Y011732D02*
X007562Y011732D01*
X007562Y011634D02*
X012262Y011634D01*
X012262Y011535D02*
X007562Y011535D01*
X007562Y011437D02*
X012262Y011437D01*
X012262Y011338D02*
X007562Y011338D01*
X007562Y011240D02*
X012262Y011240D01*
X012262Y011141D02*
X007562Y011141D01*
X007562Y011043D02*
X012262Y011043D01*
X012262Y010944D02*
X007562Y010944D01*
X007562Y010846D02*
X012262Y010846D01*
X012262Y010747D02*
X007562Y010747D01*
X007562Y010649D02*
X012262Y010649D01*
X012262Y010550D02*
X007562Y010550D01*
X007562Y010452D02*
X012262Y010452D01*
X012262Y010353D02*
X007562Y010353D01*
X007562Y010255D02*
X012262Y010255D01*
X012262Y010156D02*
X007562Y010156D01*
X007562Y010058D02*
X012262Y010058D01*
X012262Y009959D02*
X007562Y009959D01*
X007562Y009861D02*
X012262Y009861D01*
X012262Y009762D02*
X007562Y009762D01*
X007562Y009664D02*
X012262Y009664D01*
X012262Y009565D02*
X007562Y009565D01*
X007562Y009467D02*
X012262Y009467D01*
X012262Y009368D02*
X007562Y009368D01*
X007562Y009270D02*
X012262Y009270D01*
X012262Y009171D02*
X007562Y009171D01*
X007562Y009073D02*
X012262Y009073D01*
X015662Y010649D02*
X020660Y010649D01*
X020562Y010747D02*
X015662Y010747D01*
X015662Y010846D02*
X020463Y010846D01*
X020365Y010944D02*
X015662Y010944D01*
X015662Y011043D02*
X020357Y011043D01*
X020357Y011141D02*
X015662Y011141D01*
X015662Y011240D02*
X020357Y011240D01*
X020357Y011338D02*
X015662Y011338D01*
X015662Y011437D02*
X020357Y011437D01*
X020381Y011535D02*
X018347Y011535D01*
X018446Y011634D02*
X020479Y011634D01*
X020578Y011732D02*
X018544Y011732D01*
X018162Y011875D02*
X015287Y011875D01*
X014961Y011549D01*
X014961Y011075D01*
X014213Y011075D02*
X013987Y011301D01*
X013987Y014225D01*
X013731Y014490D02*
X007562Y014490D01*
X007562Y014392D02*
X013633Y014392D01*
X013619Y014293D02*
X007562Y014293D01*
X007562Y014589D02*
X013830Y014589D01*
X014145Y014589D02*
X018751Y014589D01*
X018837Y014687D02*
X007562Y014687D01*
X007562Y014786D02*
X018837Y014786D01*
X018837Y014884D02*
X007562Y014884D01*
X007562Y014983D02*
X018837Y014983D01*
X018837Y015081D02*
X007562Y015081D01*
X007562Y015180D02*
X017376Y015180D01*
X017278Y015278D02*
X007562Y015278D01*
X007562Y015377D02*
X017179Y015377D01*
X017081Y015475D02*
X014094Y015475D01*
X014084Y015465D02*
X014397Y015778D01*
X014397Y016222D01*
X014084Y016535D01*
X013641Y016535D01*
X013328Y016222D01*
X013328Y015778D01*
X013641Y015465D01*
X014084Y015465D01*
X014192Y015574D02*
X016982Y015574D01*
X016939Y015672D02*
X014291Y015672D01*
X014389Y015771D02*
X016939Y015771D01*
X016939Y015869D02*
X014397Y015869D01*
X014397Y015968D02*
X017637Y015968D01*
X017637Y015869D02*
X017737Y015869D01*
X017737Y015771D02*
X017637Y015771D01*
X017637Y015672D02*
X017737Y015672D01*
X017737Y015574D02*
X017637Y015574D01*
X017637Y015475D02*
X017737Y015475D01*
X017737Y015377D02*
X017637Y015377D01*
X017637Y015278D02*
X017737Y015278D01*
X017737Y015180D02*
X017637Y015180D01*
X017999Y015180D02*
X018837Y015180D01*
X018837Y015278D02*
X018097Y015278D01*
X018196Y015377D02*
X018837Y015377D01*
X018837Y015475D02*
X018294Y015475D01*
X018393Y015574D02*
X018837Y015574D01*
X018837Y015672D02*
X018436Y015672D01*
X018436Y015771D02*
X018835Y015771D01*
X018737Y015869D02*
X018436Y015869D01*
X018436Y016066D02*
X018540Y016066D01*
X018638Y015968D02*
X017737Y015968D01*
X017163Y016460D02*
X016494Y016460D01*
X016592Y016559D02*
X017262Y016559D01*
X017065Y016362D02*
X014257Y016362D01*
X014159Y016460D02*
X016081Y016460D01*
X015982Y016559D02*
X007562Y016559D01*
X007562Y016657D02*
X015919Y016657D01*
X015919Y016756D02*
X011239Y016756D01*
X010835Y016756D02*
X007562Y016756D01*
X007362Y016756D02*
X005518Y016756D01*
X005420Y016657D02*
X007362Y016657D01*
X007362Y016559D02*
X005321Y016559D01*
X007562Y016460D02*
X013566Y016460D01*
X013468Y016362D02*
X007562Y016362D01*
X007562Y016263D02*
X013369Y016263D01*
X013328Y016165D02*
X007562Y016165D01*
X007562Y016066D02*
X013328Y016066D01*
X013328Y015968D02*
X007562Y015968D01*
X007562Y015869D02*
X013328Y015869D01*
X013336Y015771D02*
X007562Y015771D01*
X007562Y015672D02*
X013434Y015672D01*
X013533Y015574D02*
X007562Y015574D01*
X007562Y015475D02*
X013631Y015475D01*
X014397Y016066D02*
X016939Y016066D01*
X016939Y016165D02*
X014397Y016165D01*
X014356Y016263D02*
X016966Y016263D01*
X018436Y016165D02*
X018441Y016165D01*
X018653Y014490D02*
X014244Y014490D01*
X014342Y014392D02*
X018554Y014392D01*
X018456Y014293D02*
X014356Y014293D01*
X018162Y011875D02*
X019937Y013650D01*
X020762Y013650D01*
X020787Y013675D01*
X020787Y014400D01*
X020762Y013650D02*
X021837Y013650D01*
X027432Y013604D02*
X029862Y013604D01*
X029862Y013702D02*
X027432Y013702D01*
X027432Y013801D02*
X029862Y013801D01*
X029862Y013899D02*
X027432Y013899D01*
X027432Y013998D02*
X029862Y013998D01*
X029862Y014096D02*
X027432Y014096D01*
X027432Y014195D02*
X029862Y014195D01*
X029862Y014293D02*
X027432Y014293D01*
X027432Y014392D02*
X029862Y014392D01*
X029862Y014490D02*
X027432Y014490D01*
X027432Y014589D02*
X029862Y014589D01*
X029862Y014687D02*
X027432Y014687D01*
X027432Y014786D02*
X029862Y014786D01*
X029862Y014884D02*
X027432Y014884D01*
X027432Y013505D02*
X029862Y013505D01*
X029862Y013407D02*
X027432Y013407D01*
X027432Y013308D02*
X029862Y013308D01*
X029862Y013210D02*
X027432Y013210D01*
X039287Y016175D02*
X042137Y016175D01*
X042412Y016450D01*
X042412Y016025D02*
X042362Y015975D01*
X040137Y015975D01*
X039937Y015775D01*
X040037Y015875D01*
X044037Y014275D02*
X045512Y014275D01*
X050437Y009625D02*
X051662Y010850D01*
X051837Y010850D01*
X050437Y009625D02*
X050437Y008775D01*
X049287Y008750D02*
X048837Y008750D01*
X049287Y008750D02*
X052662Y012125D01*
X052662Y025275D01*
X050737Y027200D01*
X045587Y027200D01*
X045462Y027075D01*
X041992Y028130D02*
X041992Y028925D01*
X041992Y028130D02*
X041987Y028125D01*
X040537Y028125D02*
X040532Y028130D01*
X040532Y028925D01*
X052037Y031850D02*
X052257Y031850D01*
X052285Y031878D01*
X016812Y022890D02*
X016812Y021825D01*
X016812Y021775D01*
X016557Y021775D01*
X016557Y021143D01*
X016566Y021110D01*
X016583Y021080D01*
X016608Y021056D01*
X016637Y021039D01*
X016670Y021030D01*
X016812Y021030D01*
X016812Y021775D01*
X016812Y021775D01*
X016812Y020675D01*
X012112Y020675D01*
X012112Y021427D01*
X012282Y021427D01*
X012486Y021631D01*
X012486Y021919D01*
X012282Y022123D01*
X012112Y022123D01*
X012112Y023600D01*
X012795Y023600D01*
X012795Y023473D01*
X012895Y023374D01*
X013980Y023374D01*
X014080Y023473D01*
X014080Y023600D01*
X014372Y023600D01*
X014372Y023000D01*
X014447Y022925D01*
X014372Y022850D01*
X014372Y022198D01*
X014448Y022122D01*
X014438Y022112D01*
X014421Y022082D01*
X014412Y022049D01*
X014412Y021826D01*
X014787Y021826D01*
X014787Y021726D01*
X014412Y021726D01*
X014412Y021503D01*
X014421Y021470D01*
X014438Y021440D01*
X014462Y021416D01*
X014492Y021399D01*
X014525Y021390D01*
X014787Y021390D01*
X014787Y021726D01*
X014887Y021726D01*
X014887Y021390D01*
X015150Y021390D01*
X015183Y021399D01*
X015213Y021416D01*
X015237Y021440D01*
X015254Y021470D01*
X015263Y021503D01*
X015263Y021726D01*
X014887Y021726D01*
X014887Y021826D01*
X015263Y021826D01*
X015263Y022049D01*
X015254Y022082D01*
X015237Y022112D01*
X015227Y022122D01*
X015303Y022198D01*
X015303Y022850D01*
X015228Y022925D01*
X015303Y023000D01*
X015303Y023600D01*
X016517Y023600D01*
X016517Y022990D01*
X016617Y022890D01*
X016812Y022890D01*
X016812Y022863D02*
X015291Y022863D01*
X015303Y022764D02*
X016812Y022764D01*
X016812Y022666D02*
X015303Y022666D01*
X015303Y022567D02*
X016659Y022567D01*
X016670Y022570D02*
X016637Y022561D01*
X016608Y022544D01*
X016583Y022520D01*
X016566Y022490D01*
X016557Y022457D01*
X016557Y021825D01*
X016812Y021825D01*
X016812Y022570D01*
X016670Y022570D01*
X016812Y022567D02*
X016812Y022567D01*
X016812Y022469D02*
X016812Y022469D01*
X016812Y022370D02*
X016812Y022370D01*
X016812Y022272D02*
X016812Y022272D01*
X016812Y022173D02*
X016812Y022173D01*
X016812Y022075D02*
X016812Y022075D01*
X016812Y021976D02*
X016812Y021976D01*
X016812Y021878D02*
X016812Y021878D01*
X016812Y021825D02*
X016812Y021825D01*
X016812Y021779D02*
X014887Y021779D01*
X014887Y021681D02*
X014787Y021681D01*
X014787Y021779D02*
X014036Y021779D01*
X014040Y021794D02*
X014040Y022234D01*
X013487Y022234D01*
X013487Y021681D01*
X013927Y021681D01*
X013960Y021690D01*
X013990Y021707D01*
X014014Y021732D01*
X014031Y021761D01*
X014040Y021794D01*
X014040Y021878D02*
X014412Y021878D01*
X014412Y021976D02*
X014040Y021976D01*
X014040Y022075D02*
X014419Y022075D01*
X014397Y022173D02*
X014040Y022173D01*
X014040Y022334D02*
X014040Y022773D01*
X014031Y022806D01*
X014014Y022836D01*
X013990Y022860D01*
X013960Y022877D01*
X013927Y022886D01*
X013487Y022886D01*
X013487Y022334D01*
X013387Y022334D01*
X013387Y022234D01*
X012835Y022234D01*
X012835Y021794D01*
X012844Y021761D01*
X012861Y021732D01*
X012885Y021707D01*
X012915Y021690D01*
X012948Y021681D01*
X013387Y021681D01*
X013387Y022234D01*
X013487Y022234D01*
X013487Y022334D01*
X014040Y022334D01*
X014040Y022370D02*
X014372Y022370D01*
X014372Y022272D02*
X013487Y022272D01*
X013487Y022370D02*
X013387Y022370D01*
X013387Y022334D02*
X013387Y022886D01*
X012948Y022886D01*
X012915Y022877D01*
X012885Y022860D01*
X012861Y022836D01*
X012844Y022806D01*
X012835Y022773D01*
X012835Y022334D01*
X013387Y022334D01*
X013387Y022272D02*
X012112Y022272D01*
X012112Y022370D02*
X012835Y022370D01*
X012835Y022469D02*
X012112Y022469D01*
X012112Y022567D02*
X012835Y022567D01*
X012835Y022666D02*
X012112Y022666D01*
X012112Y022764D02*
X012835Y022764D01*
X012889Y022863D02*
X012112Y022863D01*
X012112Y022961D02*
X014411Y022961D01*
X014384Y022863D02*
X013986Y022863D01*
X014040Y022764D02*
X014372Y022764D01*
X014372Y022666D02*
X014040Y022666D01*
X014040Y022567D02*
X014372Y022567D01*
X014372Y022469D02*
X014040Y022469D01*
X013487Y022469D02*
X013387Y022469D01*
X013387Y022567D02*
X013487Y022567D01*
X013487Y022666D02*
X013387Y022666D01*
X013387Y022764D02*
X013487Y022764D01*
X013487Y022863D02*
X013387Y022863D01*
X012815Y023454D02*
X012112Y023454D01*
X012112Y023552D02*
X012795Y023552D01*
X012112Y023355D02*
X014372Y023355D01*
X014372Y023257D02*
X012112Y023257D01*
X012112Y023158D02*
X014372Y023158D01*
X014372Y023060D02*
X012112Y023060D01*
X012112Y022173D02*
X012835Y022173D01*
X012835Y022075D02*
X012331Y022075D01*
X012429Y021976D02*
X012835Y021976D01*
X012835Y021878D02*
X012486Y021878D01*
X012486Y021779D02*
X012839Y021779D01*
X012486Y021681D02*
X014412Y021681D01*
X014412Y021582D02*
X012437Y021582D01*
X012339Y021484D02*
X014417Y021484D01*
X014787Y021484D02*
X014887Y021484D01*
X014887Y021582D02*
X014787Y021582D01*
X015263Y021582D02*
X016557Y021582D01*
X016557Y021484D02*
X015258Y021484D01*
X015263Y021681D02*
X016557Y021681D01*
X016557Y021878D02*
X015263Y021878D01*
X015263Y021976D02*
X016557Y021976D01*
X016557Y022075D02*
X015256Y022075D01*
X015278Y022173D02*
X016557Y022173D01*
X016557Y022272D02*
X015303Y022272D01*
X015303Y022370D02*
X016557Y022370D01*
X016561Y022469D02*
X015303Y022469D01*
X015264Y022961D02*
X016546Y022961D01*
X016517Y023060D02*
X015303Y023060D01*
X015303Y023158D02*
X016517Y023158D01*
X016517Y023257D02*
X015303Y023257D01*
X015303Y023355D02*
X016517Y023355D01*
X016517Y023454D02*
X015303Y023454D01*
X015303Y023552D02*
X016517Y023552D01*
X014372Y023552D02*
X014080Y023552D01*
X014060Y023454D02*
X014372Y023454D01*
X013487Y022173D02*
X013387Y022173D01*
X013387Y022075D02*
X013487Y022075D01*
X013487Y021976D02*
X013387Y021976D01*
X013387Y021878D02*
X013487Y021878D01*
X013487Y021779D02*
X013387Y021779D01*
X012112Y021385D02*
X016557Y021385D01*
X016557Y021287D02*
X012112Y021287D01*
X012112Y021188D02*
X016557Y021188D01*
X016578Y021090D02*
X012112Y021090D01*
X012112Y020991D02*
X016812Y020991D01*
X016812Y020893D02*
X012112Y020893D01*
X012112Y020794D02*
X016812Y020794D01*
X016812Y020696D02*
X012112Y020696D01*
X016812Y021090D02*
X016812Y021090D01*
X016812Y021188D02*
X016812Y021188D01*
X016812Y021287D02*
X016812Y021287D01*
X016812Y021385D02*
X016812Y021385D01*
X016812Y021484D02*
X016812Y021484D01*
X016812Y021582D02*
X016812Y021582D01*
X016812Y021681D02*
X016812Y021681D01*
X013337Y026675D02*
X010062Y026675D01*
X010062Y030600D01*
X010467Y030600D01*
X010467Y030081D01*
X010523Y030025D01*
X010467Y029969D01*
X010467Y029333D01*
X010555Y029245D01*
X010642Y029245D01*
X010642Y029080D01*
X010555Y029080D01*
X010467Y028992D01*
X010467Y028356D01*
X010537Y028286D01*
X010513Y028262D01*
X010496Y028232D01*
X010487Y028199D01*
X010487Y027976D01*
X010862Y027976D01*
X010862Y027876D01*
X010487Y027876D01*
X010487Y027653D01*
X010496Y027620D01*
X010513Y027590D01*
X010537Y027566D01*
X010567Y027549D01*
X010600Y027540D01*
X010862Y027540D01*
X010862Y027876D01*
X010962Y027876D01*
X010962Y027540D01*
X011225Y027540D01*
X011258Y027549D01*
X011288Y027566D01*
X011312Y027590D01*
X011329Y027620D01*
X011338Y027653D01*
X011338Y027876D01*
X010962Y027876D01*
X010962Y027976D01*
X011338Y027976D01*
X011338Y028199D01*
X011329Y028232D01*
X011312Y028262D01*
X011288Y028286D01*
X011358Y028356D01*
X011358Y028992D01*
X011270Y029080D01*
X011182Y029080D01*
X011182Y029245D01*
X011270Y029245D01*
X011358Y029333D01*
X011358Y029969D01*
X011302Y030025D01*
X011358Y030081D01*
X011358Y030129D01*
X011593Y030129D01*
X011640Y030082D01*
X011640Y029307D01*
X011728Y029219D01*
X012797Y029219D01*
X012885Y029307D01*
X012885Y029500D01*
X013337Y029500D01*
X013337Y026675D01*
X013337Y026704D02*
X010062Y026704D01*
X010062Y026803D02*
X013337Y026803D01*
X013337Y026901D02*
X010062Y026901D01*
X010062Y027000D02*
X013337Y027000D01*
X013337Y027098D02*
X010062Y027098D01*
X010062Y027197D02*
X013337Y027197D01*
X013337Y027295D02*
X010062Y027295D01*
X010062Y027394D02*
X013337Y027394D01*
X013337Y027492D02*
X010062Y027492D01*
X010062Y027591D02*
X010513Y027591D01*
X010487Y027689D02*
X010062Y027689D01*
X010062Y027788D02*
X010487Y027788D01*
X010487Y027985D02*
X010062Y027985D01*
X010062Y028083D02*
X010487Y028083D01*
X010487Y028182D02*
X010062Y028182D01*
X010062Y028280D02*
X010532Y028280D01*
X010467Y028379D02*
X010062Y028379D01*
X010062Y028477D02*
X010467Y028477D01*
X010467Y028576D02*
X010062Y028576D01*
X010062Y028674D02*
X010467Y028674D01*
X010467Y028773D02*
X010062Y028773D01*
X010062Y028871D02*
X010467Y028871D01*
X010467Y028970D02*
X010062Y028970D01*
X010062Y029068D02*
X010543Y029068D01*
X010642Y029167D02*
X010062Y029167D01*
X010062Y029265D02*
X010535Y029265D01*
X010467Y029364D02*
X010062Y029364D01*
X010062Y029462D02*
X010467Y029462D01*
X010467Y029561D02*
X010062Y029561D01*
X010062Y029659D02*
X010467Y029659D01*
X010467Y029758D02*
X010062Y029758D01*
X010062Y029856D02*
X010467Y029856D01*
X010467Y029955D02*
X010062Y029955D01*
X010062Y030053D02*
X010495Y030053D01*
X010467Y030152D02*
X010062Y030152D01*
X010062Y030250D02*
X010467Y030250D01*
X010467Y030349D02*
X010062Y030349D01*
X010062Y030447D02*
X010467Y030447D01*
X010467Y030546D02*
X010062Y030546D01*
X011330Y030053D02*
X011640Y030053D01*
X011640Y029955D02*
X011358Y029955D01*
X011358Y029856D02*
X011640Y029856D01*
X011640Y029758D02*
X011358Y029758D01*
X011358Y029659D02*
X011640Y029659D01*
X011640Y029561D02*
X011358Y029561D01*
X011358Y029462D02*
X011640Y029462D01*
X011640Y029364D02*
X011358Y029364D01*
X011290Y029265D02*
X011682Y029265D01*
X011358Y028970D02*
X013337Y028970D01*
X013337Y029068D02*
X011282Y029068D01*
X011182Y029167D02*
X013337Y029167D01*
X013337Y029265D02*
X012843Y029265D01*
X012885Y029364D02*
X013337Y029364D01*
X013337Y029462D02*
X012885Y029462D01*
X013337Y028871D02*
X011358Y028871D01*
X011358Y028773D02*
X013337Y028773D01*
X013337Y028674D02*
X012826Y028674D01*
X012815Y028685D02*
X012785Y028702D01*
X012752Y028711D01*
X012312Y028711D01*
X012312Y028159D01*
X012212Y028159D01*
X012212Y028059D01*
X011660Y028059D01*
X011660Y027619D01*
X011669Y027586D01*
X011686Y027557D01*
X011710Y027532D01*
X011740Y027515D01*
X011773Y027506D01*
X012212Y027506D01*
X012212Y028059D01*
X012312Y028059D01*
X012312Y027506D01*
X012752Y027506D01*
X012785Y027515D01*
X012815Y027532D01*
X012839Y027557D01*
X012856Y027586D01*
X012865Y027619D01*
X012865Y028059D01*
X012312Y028059D01*
X012312Y028159D01*
X012865Y028159D01*
X012865Y028598D01*
X012856Y028631D01*
X012839Y028661D01*
X012815Y028685D01*
X012865Y028576D02*
X013337Y028576D01*
X013337Y028477D02*
X012865Y028477D01*
X012865Y028379D02*
X013337Y028379D01*
X013337Y028280D02*
X012865Y028280D01*
X012865Y028182D02*
X013337Y028182D01*
X013337Y028083D02*
X012312Y028083D01*
X012312Y027985D02*
X012212Y027985D01*
X012212Y028083D02*
X011338Y028083D01*
X011338Y027985D02*
X011660Y027985D01*
X011660Y027886D02*
X010962Y027886D01*
X010962Y027788D02*
X010862Y027788D01*
X010862Y027886D02*
X010062Y027886D01*
X010862Y027689D02*
X010962Y027689D01*
X010962Y027591D02*
X010862Y027591D01*
X011312Y027591D02*
X011668Y027591D01*
X011660Y027689D02*
X011338Y027689D01*
X011338Y027788D02*
X011660Y027788D01*
X011660Y028159D02*
X011660Y028598D01*
X011669Y028631D01*
X011686Y028661D01*
X011710Y028685D01*
X011740Y028702D01*
X011773Y028711D01*
X012212Y028711D01*
X012212Y028159D01*
X011660Y028159D01*
X011660Y028182D02*
X011338Y028182D01*
X011293Y028280D02*
X011660Y028280D01*
X011660Y028379D02*
X011358Y028379D01*
X011358Y028477D02*
X011660Y028477D01*
X011660Y028576D02*
X011358Y028576D01*
X011358Y028674D02*
X011699Y028674D01*
X012212Y028674D02*
X012312Y028674D01*
X012312Y028576D02*
X012212Y028576D01*
X012212Y028477D02*
X012312Y028477D01*
X012312Y028379D02*
X012212Y028379D01*
X012212Y028280D02*
X012312Y028280D01*
X012312Y028182D02*
X012212Y028182D01*
X012212Y027886D02*
X012312Y027886D01*
X012312Y027788D02*
X012212Y027788D01*
X012212Y027689D02*
X012312Y027689D01*
X012312Y027591D02*
X012212Y027591D01*
X012857Y027591D02*
X013337Y027591D01*
X013337Y027689D02*
X012865Y027689D01*
X012865Y027788D02*
X013337Y027788D01*
X013337Y027886D02*
X012865Y027886D01*
X012865Y027985D02*
X013337Y027985D01*
X011665Y032175D02*
X011358Y032175D01*
X011358Y032742D01*
X011275Y032825D01*
X011358Y032908D01*
X011358Y033544D01*
X011288Y033614D01*
X011312Y033638D01*
X011329Y033668D01*
X011338Y033701D01*
X011338Y033924D01*
X010962Y033924D01*
X010962Y034024D01*
X010862Y034024D01*
X010862Y033924D01*
X010487Y033924D01*
X010487Y033701D01*
X010496Y033668D01*
X010513Y033638D01*
X010537Y033614D01*
X010467Y033544D01*
X010467Y032908D01*
X010550Y032825D01*
X010467Y032742D01*
X010467Y032175D01*
X008587Y032175D01*
X008587Y032845D01*
X009162Y032845D01*
X009162Y033100D01*
X008587Y033100D01*
X008587Y033150D01*
X009162Y033150D01*
X009162Y033100D01*
X009212Y033100D01*
X009212Y032845D01*
X009845Y032845D01*
X009878Y032854D01*
X009907Y032871D01*
X009931Y032895D01*
X009949Y032925D01*
X009957Y032958D01*
X009957Y033100D01*
X009212Y033100D01*
X009212Y033150D01*
X009162Y033150D01*
X009162Y033405D01*
X008587Y033405D01*
X008587Y034482D01*
X014062Y034482D01*
X014062Y033088D01*
X013268Y032294D01*
X012910Y032294D01*
X012910Y032518D01*
X012822Y032606D01*
X011753Y032606D01*
X011665Y032518D01*
X011665Y032175D01*
X011665Y032220D02*
X011358Y032220D01*
X011358Y032319D02*
X011665Y032319D01*
X011665Y032417D02*
X011358Y032417D01*
X011358Y032516D02*
X011665Y032516D01*
X011358Y032614D02*
X013588Y032614D01*
X013490Y032516D02*
X012910Y032516D01*
X012910Y032417D02*
X013391Y032417D01*
X013293Y032319D02*
X012910Y032319D01*
X013687Y032713D02*
X011358Y032713D01*
X011289Y032811D02*
X013785Y032811D01*
X013884Y032910D02*
X011358Y032910D01*
X011358Y033008D02*
X013982Y033008D01*
X014062Y033107D02*
X011358Y033107D01*
X011358Y033205D02*
X011691Y033205D01*
X011694Y033194D02*
X011711Y033164D01*
X011735Y033140D01*
X011765Y033123D01*
X011798Y033114D01*
X012237Y033114D01*
X012237Y033666D01*
X011685Y033666D01*
X011685Y033227D01*
X011694Y033194D01*
X011685Y033304D02*
X011358Y033304D01*
X011358Y033402D02*
X011685Y033402D01*
X011685Y033501D02*
X011358Y033501D01*
X011303Y033599D02*
X011685Y033599D01*
X011685Y033766D02*
X011685Y034206D01*
X011694Y034239D01*
X011711Y034268D01*
X011735Y034293D01*
X011765Y034310D01*
X011798Y034319D01*
X012237Y034319D01*
X012237Y033766D01*
X012237Y033666D01*
X012337Y033666D01*
X012337Y033114D01*
X012777Y033114D01*
X012810Y033123D01*
X012840Y033140D01*
X012864Y033164D01*
X012881Y033194D01*
X012890Y033227D01*
X012890Y033666D01*
X012337Y033666D01*
X012337Y033766D01*
X012237Y033766D01*
X011685Y033766D01*
X011685Y033796D02*
X011338Y033796D01*
X011337Y033698D02*
X012237Y033698D01*
X012237Y033796D02*
X012337Y033796D01*
X012337Y033766D02*
X012337Y034319D01*
X012777Y034319D01*
X012810Y034310D01*
X012840Y034293D01*
X012864Y034268D01*
X012881Y034239D01*
X012890Y034206D01*
X012890Y033766D01*
X012337Y033766D01*
X012337Y033698D02*
X014062Y033698D01*
X014062Y033796D02*
X012890Y033796D01*
X012890Y033895D02*
X014062Y033895D01*
X014062Y033993D02*
X012890Y033993D01*
X012890Y034092D02*
X014062Y034092D01*
X014062Y034190D02*
X012890Y034190D01*
X012844Y034289D02*
X014062Y034289D01*
X014062Y034387D02*
X008587Y034387D01*
X008587Y034289D02*
X010501Y034289D01*
X010496Y034280D02*
X010487Y034247D01*
X010487Y034024D01*
X010862Y034024D01*
X010862Y034360D01*
X010600Y034360D01*
X010567Y034351D01*
X010537Y034334D01*
X010513Y034310D01*
X010496Y034280D01*
X010487Y034190D02*
X008587Y034190D01*
X008587Y034092D02*
X010487Y034092D01*
X010487Y033895D02*
X008587Y033895D01*
X008587Y033993D02*
X010862Y033993D01*
X010862Y034092D02*
X010962Y034092D01*
X010962Y034024D02*
X010962Y034360D01*
X011225Y034360D01*
X011258Y034351D01*
X011288Y034334D01*
X011312Y034310D01*
X011329Y034280D01*
X011338Y034247D01*
X011338Y034024D01*
X010962Y034024D01*
X010962Y033993D02*
X011685Y033993D01*
X011685Y033895D02*
X011338Y033895D01*
X011338Y034092D02*
X011685Y034092D01*
X011685Y034190D02*
X011338Y034190D01*
X011324Y034289D02*
X011731Y034289D01*
X012237Y034289D02*
X012337Y034289D01*
X012337Y034190D02*
X012237Y034190D01*
X012237Y034092D02*
X012337Y034092D01*
X012337Y033993D02*
X012237Y033993D01*
X012237Y033895D02*
X012337Y033895D01*
X012337Y033599D02*
X012237Y033599D01*
X012237Y033501D02*
X012337Y033501D01*
X012337Y033402D02*
X012237Y033402D01*
X012237Y033304D02*
X012337Y033304D01*
X012337Y033205D02*
X012237Y033205D01*
X012884Y033205D02*
X014062Y033205D01*
X014062Y033304D02*
X012890Y033304D01*
X012890Y033402D02*
X014062Y033402D01*
X014062Y033501D02*
X012890Y033501D01*
X012890Y033599D02*
X014062Y033599D01*
X010962Y034190D02*
X010862Y034190D01*
X010862Y034289D02*
X010962Y034289D01*
X010487Y033796D02*
X008587Y033796D01*
X008587Y033698D02*
X010488Y033698D01*
X010522Y033599D02*
X008587Y033599D01*
X008587Y033501D02*
X010467Y033501D01*
X010467Y033402D02*
X009855Y033402D01*
X009845Y033405D02*
X009212Y033405D01*
X009212Y033150D01*
X009957Y033150D01*
X009957Y033292D01*
X009949Y033325D01*
X009931Y033355D01*
X009907Y033379D01*
X009878Y033396D01*
X009845Y033405D01*
X009954Y033304D02*
X010467Y033304D01*
X010467Y033205D02*
X009957Y033205D01*
X009957Y033008D02*
X010467Y033008D01*
X010467Y032910D02*
X009940Y032910D01*
X010467Y033107D02*
X009212Y033107D01*
X009162Y033107D02*
X008587Y033107D01*
X008587Y032811D02*
X010536Y032811D01*
X010467Y032713D02*
X008587Y032713D01*
X008587Y032614D02*
X010467Y032614D01*
X010467Y032516D02*
X008587Y032516D01*
X008587Y032417D02*
X010467Y032417D01*
X010467Y032319D02*
X008587Y032319D01*
X008587Y032220D02*
X010467Y032220D01*
X009212Y032910D02*
X009162Y032910D01*
X009162Y033008D02*
X009212Y033008D01*
X009212Y033205D02*
X009162Y033205D01*
X009162Y033304D02*
X009212Y033304D01*
X009212Y033402D02*
X009162Y033402D01*
X009086Y014096D02*
X009186Y014096D01*
X009186Y013998D02*
X009086Y013998D01*
X009086Y013899D02*
X009186Y013899D01*
X009186Y013801D02*
X009086Y013801D01*
X009086Y013702D02*
X009186Y013702D01*
X009186Y013604D02*
X009086Y013604D01*
X009086Y013308D02*
X009186Y013308D01*
X009186Y013210D02*
X009086Y013210D01*
X009086Y013111D02*
X009186Y013111D01*
X009186Y013013D02*
X009086Y013013D01*
X009086Y012914D02*
X009186Y012914D01*
X009186Y012816D02*
X009086Y012816D01*
X009086Y012717D02*
X009186Y012717D01*
X007362Y012717D02*
X005262Y012717D01*
X005262Y012619D02*
X007362Y012619D01*
X007362Y012520D02*
X005262Y012520D01*
X005262Y012422D02*
X007362Y012422D01*
X007362Y012323D02*
X005262Y012323D01*
X005262Y012225D02*
X007362Y012225D01*
X007362Y012126D02*
X005262Y012126D01*
X005262Y012028D02*
X007362Y012028D01*
X007362Y011929D02*
X005262Y011929D01*
X005262Y011831D02*
X007362Y011831D01*
X007362Y011732D02*
X005262Y011732D01*
X005262Y011634D02*
X007362Y011634D01*
X007362Y011535D02*
X005262Y011535D01*
X005262Y011437D02*
X007362Y011437D01*
X007362Y011338D02*
X005262Y011338D01*
X005262Y011240D02*
X007362Y011240D01*
X007362Y011141D02*
X005262Y011141D01*
X005262Y011043D02*
X007362Y011043D01*
X007362Y010944D02*
X005262Y010944D01*
X005262Y010846D02*
X007362Y010846D01*
X007362Y010747D02*
X005262Y010747D01*
X005262Y010649D02*
X007362Y010649D01*
X007362Y010550D02*
X005262Y010550D01*
X005262Y010452D02*
X007362Y010452D01*
X007362Y010353D02*
X005262Y010353D01*
X005262Y010255D02*
X007362Y010255D01*
X007362Y010156D02*
X005262Y010156D01*
X005262Y010058D02*
X006662Y010058D01*
X006662Y009959D02*
X005262Y009959D01*
X005262Y009861D02*
X007362Y009861D01*
X007362Y009762D02*
X005262Y009762D01*
X005262Y009664D02*
X007362Y009664D01*
X007362Y009565D02*
X005262Y009565D01*
X005262Y009467D02*
X007362Y009467D01*
X007362Y009368D02*
X005262Y009368D01*
X005262Y009270D02*
X007362Y009270D01*
X007362Y009171D02*
X005262Y009171D01*
X005262Y009073D02*
X007362Y009073D01*
X007362Y008974D02*
X005262Y008974D01*
X005262Y008876D02*
X007362Y008876D01*
X007362Y008777D02*
X005262Y008777D01*
X005262Y008679D02*
X007362Y008679D01*
X007362Y008580D02*
X005262Y008580D01*
X005306Y008482D02*
X007362Y008482D01*
X007362Y008383D02*
X005404Y008383D01*
X005503Y008285D02*
X007362Y008285D01*
X007362Y008186D02*
X005601Y008186D01*
X005700Y008088D02*
X007362Y008088D01*
X007362Y007989D02*
X005798Y007989D01*
X007861Y006512D02*
X007961Y006512D01*
X007961Y006413D02*
X007861Y006413D01*
X007861Y006315D02*
X007961Y006315D01*
X007961Y006216D02*
X007861Y006216D01*
X007861Y006118D02*
X007961Y006118D01*
X007961Y006019D02*
X007861Y006019D01*
X007861Y005921D02*
X007961Y005921D01*
X008308Y006512D02*
X008362Y006512D01*
X012787Y004750D02*
X012787Y004675D01*
X013562Y003900D01*
X017865Y003900D01*
X007362Y012816D02*
X005262Y012816D01*
X005262Y012914D02*
X007362Y012914D01*
X007362Y013013D02*
X005262Y013013D01*
X005262Y013111D02*
X007362Y013111D01*
X007362Y013210D02*
X005262Y013210D01*
X005262Y013308D02*
X006662Y013308D01*
X006662Y013407D02*
X005262Y013407D01*
X046137Y008425D02*
X046887Y008425D01*
X047312Y008000D01*
X051887Y008000D01*
X051887Y008425D01*
X051887Y008000D02*
X051887Y007525D01*
D61*
X051887Y008425D03*
X050437Y008775D03*
X048837Y008750D03*
X049862Y010600D03*
X050287Y010600D03*
X051837Y010850D03*
X049612Y013500D03*
X048212Y014175D03*
X045512Y014275D03*
X044037Y014275D03*
X042412Y016025D03*
X042412Y016450D03*
X043587Y018175D03*
X042997Y018435D03*
X044512Y018500D03*
X043987Y019925D03*
X047412Y019625D03*
X048637Y019725D03*
X050612Y020125D03*
X048637Y017750D03*
X043328Y022840D03*
X043337Y023500D03*
X044037Y024875D03*
X045462Y024975D03*
X045462Y027075D03*
X041987Y028125D03*
X040537Y028125D03*
X030762Y031250D03*
X028837Y030250D03*
X027912Y029850D03*
X027437Y028425D03*
X027262Y027000D03*
X026637Y026250D03*
X028412Y026025D03*
X026562Y024775D03*
X021612Y024225D03*
X021612Y025525D03*
X023762Y021850D03*
X021962Y019100D03*
X021912Y017425D03*
X021962Y016725D03*
X023237Y016150D03*
X023987Y015250D03*
X024637Y016150D03*
X024462Y017200D03*
X024837Y018475D03*
X021837Y015350D03*
X020787Y015250D03*
X020214Y015848D03*
X019937Y015375D03*
X020787Y014400D03*
X021837Y013650D03*
X024587Y013600D03*
X025937Y013600D03*
X025412Y014500D03*
X030487Y015575D03*
X030487Y017800D03*
X033537Y018000D03*
X036862Y018000D03*
X039287Y016175D03*
X039937Y015775D03*
X041587Y008975D03*
X046137Y008425D03*
X051012Y024075D03*
X050912Y025900D03*
X025837Y031175D03*
X013137Y024900D03*
X012737Y025600D03*
X006437Y028575D03*
X007412Y029750D03*
X006512Y022350D03*
X005737Y022350D03*
X007037Y020950D03*
X006787Y019575D03*
X006287Y017875D03*
X007887Y017525D03*
X009912Y017875D03*
X011037Y017075D03*
X011437Y017900D03*
X010887Y019150D03*
X011537Y021275D03*
X017562Y018150D03*
X016212Y017525D03*
X016287Y016775D03*
X019412Y017525D03*
X019062Y020550D03*
X013987Y014225D03*
X013337Y009000D03*
X012137Y008600D03*
X013387Y007025D03*
X012787Y004750D03*
D62*
X014437Y006575D02*
X014437Y007327D01*
X013839Y007725D01*
X025937Y013600D02*
X025937Y019675D01*
X023762Y021850D01*
X029462Y026125D02*
X030037Y026700D01*
X030037Y028450D01*
X030037Y029475D01*
X030037Y029850D01*
X028612Y031275D01*
X027987Y031275D01*
X024537Y026651D02*
X024387Y026501D01*
X024396Y026510D01*
X025462Y026510D01*
X016837Y025175D02*
X016837Y023700D01*
X016837Y025175D02*
X014823Y027189D01*
X014675Y027189D01*
X014675Y026205D02*
X014687Y026193D01*
X014687Y025550D01*
X013437Y024300D01*
X013437Y024016D01*
X009487Y018200D02*
X008712Y018200D01*
X007887Y018200D01*
X028887Y007775D02*
X032462Y007775D01*
X032449Y010543D02*
X032449Y010988D01*
X030912Y012525D01*
X030662Y012525D01*
X030312Y012525D01*
X030487Y015575D02*
X030487Y017800D01*
X014582Y033170D02*
X013396Y031984D01*
X012287Y031984D01*
X014582Y033170D02*
X014675Y033095D01*
X060737Y007225D02*
X062662Y007225D01*
D63*
X061780Y003259D03*
D64*
X043062Y022925D02*
X043087Y022950D01*
X042912Y023375D02*
X043337Y023500D01*
X042912Y023375D02*
X042737Y023375D01*
X030037Y029475D02*
X029926Y029587D01*
X029562Y029587D01*
X028862Y029587D02*
X028175Y029587D01*
X028037Y029449D01*
X027912Y029574D01*
X027912Y029850D01*
X027637Y030250D02*
X028837Y030250D01*
X027637Y030250D02*
X027437Y030050D01*
X027437Y028425D01*
X027113Y028425D01*
X026837Y028701D01*
X026837Y029449D02*
X026337Y029949D01*
X026337Y033750D01*
X026212Y033875D01*
X025713Y033875D01*
X026612Y033880D02*
X027638Y033880D01*
X027632Y033869D02*
X027622Y033833D01*
X027622Y033190D01*
X027897Y033190D01*
X027897Y033160D01*
X027622Y033160D01*
X027622Y032517D01*
X027632Y032481D01*
X027650Y032449D01*
X027677Y032423D01*
X027708Y032405D01*
X027744Y032395D01*
X027897Y032395D01*
X027897Y033160D01*
X027927Y033160D01*
X027927Y032395D01*
X028081Y032395D01*
X028117Y032405D01*
X028148Y032423D01*
X028174Y032449D01*
X028193Y032481D01*
X028202Y032517D01*
X028202Y033160D01*
X027927Y033160D01*
X027927Y033190D01*
X027897Y033190D01*
X027897Y033955D01*
X027744Y033955D01*
X027708Y033945D01*
X027677Y033927D01*
X027650Y033901D01*
X027632Y033869D01*
X027622Y033762D02*
X026617Y033762D01*
X026617Y033806D02*
X026612Y033818D01*
X026612Y034472D01*
X029262Y034472D01*
X029262Y032275D01*
X026617Y032275D01*
X026617Y033806D01*
X026617Y033643D02*
X027622Y033643D01*
X027622Y033525D02*
X026617Y033525D01*
X026617Y033406D02*
X027622Y033406D01*
X027622Y033288D02*
X026617Y033288D01*
X026617Y033169D02*
X027897Y033169D01*
X027912Y033175D02*
X028037Y033225D01*
X027927Y033190D02*
X028202Y033190D01*
X028202Y033833D01*
X028193Y033869D01*
X028174Y033901D01*
X028148Y033927D01*
X028117Y033945D01*
X028081Y033955D01*
X027927Y033955D01*
X027927Y033190D01*
X027927Y033169D02*
X029262Y033169D01*
X029262Y033051D02*
X028202Y033051D01*
X028202Y032932D02*
X029262Y032932D01*
X029262Y032814D02*
X028202Y032814D01*
X028202Y032695D02*
X029262Y032695D01*
X029262Y032577D02*
X028202Y032577D01*
X028180Y032458D02*
X029262Y032458D01*
X029262Y032340D02*
X026617Y032340D01*
X026617Y032458D02*
X027645Y032458D01*
X027622Y032577D02*
X026617Y032577D01*
X026617Y032695D02*
X027622Y032695D01*
X027622Y032814D02*
X026617Y032814D01*
X026617Y032932D02*
X027622Y032932D01*
X027622Y033051D02*
X026617Y033051D01*
X026612Y033999D02*
X029262Y033999D01*
X029262Y034117D02*
X026612Y034117D01*
X026612Y034236D02*
X029262Y034236D01*
X029262Y034354D02*
X026612Y034354D01*
X027897Y033880D02*
X027927Y033880D01*
X027927Y033762D02*
X027897Y033762D01*
X027897Y033643D02*
X027927Y033643D01*
X027927Y033525D02*
X027897Y033525D01*
X027897Y033406D02*
X027927Y033406D01*
X027927Y033288D02*
X027897Y033288D01*
X027897Y033051D02*
X027927Y033051D01*
X027927Y032932D02*
X027897Y032932D01*
X027897Y032814D02*
X027927Y032814D01*
X027927Y032695D02*
X027897Y032695D01*
X027897Y032577D02*
X027927Y032577D01*
X027927Y032458D02*
X027897Y032458D01*
X028202Y033288D02*
X029262Y033288D01*
X029262Y033406D02*
X028202Y033406D01*
X028202Y033525D02*
X029262Y033525D01*
X029262Y033643D02*
X028202Y033643D01*
X028202Y033762D02*
X029262Y033762D01*
X029262Y033880D02*
X028187Y033880D01*
X025837Y031551D02*
X025837Y031175D01*
X028037Y028701D02*
X028037Y028075D01*
X027262Y027300D01*
X027262Y027000D01*
X026637Y026250D02*
X026637Y024850D01*
X026562Y024775D01*
X028412Y026025D02*
X028412Y027513D01*
X028862Y027963D01*
X028862Y028563D01*
X029562Y028563D01*
X021612Y025525D02*
X021612Y024225D01*
X019062Y019500D02*
X024462Y019500D01*
X025412Y018550D01*
X025412Y014500D01*
X024587Y014850D02*
X024562Y014875D01*
X025012Y015325D01*
X025012Y016650D01*
X024462Y017200D01*
X024637Y016150D02*
X023237Y016150D01*
X023887Y015350D02*
X021837Y015350D01*
X020787Y015250D02*
X020787Y015750D01*
X020362Y016175D01*
X019787Y016175D01*
X017812Y018150D01*
X017562Y018150D01*
X017437Y018275D01*
X010612Y018275D01*
X010212Y017875D01*
X009912Y017875D01*
X006287Y017875D01*
X006812Y019250D02*
X006787Y019275D01*
X006787Y019575D01*
X006337Y019875D02*
X006537Y020075D01*
X007387Y020075D01*
X007387Y019950D01*
X007912Y020075D02*
X007912Y019575D01*
X007987Y019500D01*
X009562Y019500D01*
X009912Y019150D01*
X010887Y019150D01*
X010987Y020100D02*
X010762Y020100D01*
X011537Y021275D02*
X009437Y021275D01*
X008687Y022025D01*
X006062Y022025D01*
X005737Y022350D01*
X005737Y025075D01*
X004587Y026225D01*
X004137Y026225D01*
X006512Y023663D02*
X006799Y023950D01*
X008512Y023950D01*
X008887Y024325D01*
X008887Y024250D01*
X008887Y024325D02*
X008889Y024326D01*
X008889Y024550D01*
X009189Y024250D01*
X011387Y024250D01*
X012737Y025600D01*
X013137Y024900D02*
X013137Y026800D01*
X006512Y023663D02*
X006512Y023563D01*
X004937Y020550D02*
X004937Y020225D01*
X005287Y019875D01*
X006337Y019875D01*
X007887Y017525D02*
X007962Y017450D01*
X010137Y017450D01*
X010587Y017900D01*
X011437Y017900D01*
X011037Y017075D02*
X018237Y017075D01*
X019937Y015375D01*
X019612Y015375D02*
X019612Y015225D01*
X019962Y014875D01*
X024562Y014875D01*
X024587Y014850D02*
X024587Y013600D01*
X023987Y015250D02*
X023887Y015350D01*
X022337Y017100D02*
X021962Y016725D01*
X022337Y017100D02*
X022337Y018475D01*
X022337Y018725D01*
X021962Y019100D01*
X022337Y018475D02*
X024837Y018475D01*
X020214Y015848D02*
X019789Y015848D01*
X018337Y017300D01*
X016437Y017300D01*
X016212Y017525D01*
X016362Y016850D02*
X016287Y016775D01*
X016362Y016850D02*
X018137Y016850D01*
X019612Y015375D01*
D65*
X019187Y017150D02*
X017812Y018525D01*
X009812Y018525D01*
X009362Y018975D01*
X004012Y018975D01*
X002937Y020050D01*
X002937Y028500D01*
X003662Y029225D01*
X004137Y029225D01*
X006437Y029624D02*
X006437Y028575D01*
X006437Y029624D02*
X006887Y030074D01*
X006887Y029850D01*
X007312Y029850D01*
X007412Y029750D01*
X006887Y030074D02*
X006887Y030125D01*
X008512Y030125D01*
X008687Y029950D01*
X008687Y029885D01*
X004137Y027225D02*
X003487Y027225D01*
X003262Y027000D01*
X003262Y020100D01*
X004112Y019250D01*
X006812Y019250D01*
X009462Y019250D01*
X009912Y018800D01*
X019062Y018800D01*
X019062Y019500D01*
X019062Y020550D01*
X019062Y018800D02*
X019062Y017875D01*
X019412Y017525D01*
X019187Y017150D02*
X021637Y017150D01*
X021912Y017425D01*
X012912Y019350D02*
X012912Y019400D01*
X012837Y019475D01*
X012537Y019475D01*
X012437Y019575D01*
X010387Y019575D01*
X010237Y019725D01*
X010237Y020075D01*
X009787Y020100D02*
X009612Y020100D01*
X008362Y021350D01*
X005637Y021350D01*
X005012Y021975D01*
X005012Y023625D01*
X004412Y024225D01*
X004137Y024225D01*
X004837Y025225D02*
X005337Y024725D01*
X005337Y022125D01*
X005762Y021700D01*
X008512Y021700D01*
X009212Y021000D01*
X011062Y021000D01*
X011988Y020074D01*
X012912Y020074D01*
X012137Y021775D02*
X010437Y021775D01*
X009262Y022950D01*
X009262Y024050D01*
X008987Y024325D01*
X007937Y024701D02*
X007887Y025050D01*
X007937Y024701D02*
X007786Y024550D01*
X004837Y025225D02*
X004137Y025225D01*
X007037Y020950D02*
X008037Y020950D01*
X008362Y020625D01*
X008362Y020075D01*
X011562Y017475D02*
X011962Y017875D01*
X012137Y017875D01*
X011562Y017475D02*
X010612Y017475D01*
X010287Y017150D01*
X007162Y017150D01*
X007112Y017200D01*
X013862Y010100D02*
X013864Y009877D01*
X013839Y009725D01*
X016112Y009550D02*
X016687Y009050D01*
X016612Y008975D01*
X014137Y005000D02*
X014562Y004575D01*
X014137Y005000D02*
X013889Y004900D01*
X013887Y002975D02*
X013889Y002973D01*
X013889Y002900D01*
X013887Y002875D01*
X014462Y002875D01*
X016622Y004785D02*
X017762Y004750D01*
X017865Y003900D02*
X016622Y004785D01*
X005737Y006925D02*
X005377Y006925D01*
X005377Y005766D01*
X004761Y005150D01*
X004013Y005150D02*
X004013Y006309D01*
X037187Y025700D02*
X037562Y025325D01*
X042987Y025325D01*
X043312Y025650D01*
X050662Y025650D01*
X050912Y025900D01*
X049712Y025375D02*
X051012Y024075D01*
X049712Y025375D02*
X043412Y025375D01*
X043112Y025075D01*
X037830Y025075D01*
X037189Y025716D01*
X043053Y022915D02*
X043062Y022925D01*
X043053Y022915D02*
X043328Y022840D01*
X044037Y024875D02*
X044137Y024975D01*
X045462Y024975D01*
X047912Y020125D02*
X047412Y019625D01*
X048212Y019300D02*
X048637Y019725D01*
X047912Y020125D02*
X050612Y020125D01*
X048212Y019300D02*
X048212Y014175D01*
X048637Y014475D02*
X049612Y013500D01*
X048637Y014475D02*
X048637Y017750D01*
X044512Y018500D02*
X043387Y017375D01*
X039586Y017375D01*
X039587Y017425D01*
X039586Y017375D02*
X039586Y017524D01*
X038838Y017375D02*
X038717Y017303D01*
X042997Y018435D02*
X043987Y019425D01*
X043987Y019925D01*
X039100Y010311D02*
X039112Y010299D01*
X027987Y031275D02*
X027912Y031275D01*
X007387Y033225D02*
X007287Y033125D01*
X007387Y033225D02*
X007387Y033425D01*
X007087Y033425D02*
X007087Y033150D01*
X007137Y033100D01*
X006887Y033100D01*
D66*
X006887Y031176D01*
X008687Y031165D02*
X008687Y032500D01*
X008862Y033150D02*
X009187Y033125D01*
X009111Y033126D01*
X009187Y033125D02*
X009303Y033150D01*
X010912Y033226D02*
X010912Y032424D01*
X010912Y031676D02*
X010912Y031651D01*
X011955Y031651D01*
X012287Y031984D01*
X012237Y031934D01*
X011705Y030399D02*
X010912Y030399D01*
X011705Y030399D02*
X012262Y029841D01*
X010912Y029651D02*
X010912Y028674D01*
X010912Y024810D02*
X009149Y024810D01*
X008889Y024550D01*
X008887Y024549D01*
X008887Y022525D01*
X008287Y022525D01*
X008887Y022525D02*
X009037Y022525D01*
X009787Y021775D01*
X012912Y020074D02*
X013749Y020074D01*
X013923Y019900D01*
X012912Y019350D02*
X016862Y019350D01*
X017662Y020150D01*
X017662Y022850D01*
X016837Y023675D01*
X014837Y024016D02*
X014837Y024075D01*
X014837Y024016D02*
X013437Y024016D01*
X014837Y023326D02*
X014837Y022524D01*
X016837Y021800D02*
X016912Y021800D01*
X017262Y021450D01*
X017262Y020325D01*
X017012Y020075D01*
X015212Y020075D01*
X015203Y020065D01*
X015203Y019900D01*
X012912Y019350D02*
X012912Y019326D01*
X012912Y019275D01*
X025462Y026510D02*
X025604Y026601D01*
X030037Y028450D02*
X030042Y028455D01*
X030887Y028455D01*
X030887Y029045D02*
X030887Y031125D01*
X030762Y031250D01*
X031162Y031250D01*
X033537Y028875D01*
X033537Y018000D01*
X036862Y018000D02*
X043412Y018000D01*
X043587Y018175D01*
X039858Y016625D02*
X039586Y016947D01*
X039586Y017375D01*
X038838Y017375D02*
X037710Y017375D01*
X037339Y017004D01*
X038717Y017303D02*
X038717Y016625D01*
X039912Y010596D02*
X039792Y010475D01*
X039112Y010475D01*
X039112Y010299D01*
X039100Y010311D02*
X037339Y010311D01*
X039112Y009551D02*
X039816Y009551D01*
X039912Y009454D01*
X010337Y002775D02*
X008312Y004800D01*
X008112Y004800D01*
X024720Y031626D02*
X025712Y031626D01*
X025712Y031601D01*
X025712Y031551D01*
X025837Y031551D01*
X025712Y032349D02*
X025712Y033151D01*
X025713Y033875D02*
X024621Y033875D01*
X024412Y033666D01*
X024454Y033666D01*
X023744Y032603D02*
X024412Y031934D01*
X024404Y031925D01*
X024412Y031934D02*
X024720Y031626D01*
X023744Y032603D02*
X022549Y032603D01*
D67*
X026762Y032750D03*
X026762Y032400D03*
X026762Y033100D03*
X026762Y033450D03*
X026762Y033800D03*
X028762Y033800D03*
X028762Y033450D03*
X028762Y033100D03*
X028762Y032750D03*
X028762Y032400D03*
X010987Y020100D03*
X009487Y018200D03*
X008712Y018200D03*
X007887Y018200D03*
X007887Y025050D03*
X007587Y025050D03*
X007387Y033425D03*
X007087Y033425D03*
X027637Y011275D03*
X027937Y011275D03*
X028237Y011275D03*
X028537Y011275D03*
X028537Y010325D03*
X028237Y010325D03*
X027937Y010325D03*
X027637Y010325D03*
X027637Y005975D03*
X027937Y005975D03*
X028237Y005975D03*
X028537Y005975D03*
X028537Y004975D03*
X028237Y004975D03*
X027937Y004975D03*
X027637Y004975D03*
X006037Y006325D03*
X005737Y006325D03*
X005737Y006625D03*
X005737Y006925D03*
X005737Y007225D03*
X005737Y007525D03*
X006037Y007525D03*
X006037Y007225D03*
X006037Y006925D03*
X006037Y006625D03*
D68*
X010337Y002775D03*
X014462Y002875D03*
X014562Y004575D03*
X014437Y006575D03*
X013862Y010100D03*
X007112Y017200D03*
X012137Y017875D03*
X012137Y021775D03*
X009787Y021775D03*
X008287Y022525D03*
X030312Y012525D03*
X030662Y012525D03*
D69*
X039887Y009450D02*
X039912Y009425D01*
X039912Y009454D01*
X040433Y009975D01*
X049387Y009975D01*
X049862Y010450D01*
X049862Y010600D01*
X050287Y010600D02*
X050287Y010525D01*
X049487Y009725D01*
X042337Y009725D01*
X041587Y008975D01*
D70*
X018112Y004750D03*
X017762Y004750D03*
X016462Y009550D03*
X016112Y009550D03*
D71*
X003906Y003062D03*
X003906Y033377D03*
X061780Y033377D03*
M02*
