G75*
%MOIN*%
%OFA0B0*%
%FSLAX25Y25*%
%IPPOS*%
%LPD*%
%AMOC8*
5,1,8,0,0,1.08239X$1,22.5*
%
%ADD10C,0.00400*%
%ADD11C,0.00500*%
%ADD12C,0.01000*%
%ADD13C,0.00600*%
%ADD14C,0.01600*%
%ADD15C,0.00700*%
%ADD16C,0.00800*%
%ADD17R,0.03000X0.03400*%
%ADD18R,0.10196X0.03544*%
%ADD19R,0.05512X0.00787*%
%ADD20C,0.00300*%
%ADD21R,0.00787X0.05512*%
%ADD22R,0.03268X0.02992*%
%ADD23R,0.03583X0.02992*%
%ADD24R,0.02992X0.03268*%
%ADD25R,0.02992X0.03583*%
%ADD26C,0.00200*%
%ADD27R,0.08268X0.01181*%
D10*
X0038927Y0130293D02*
X0042530Y0130293D01*
X0042530Y0132094D01*
X0041930Y0132695D01*
X0040729Y0132695D01*
X0040128Y0132094D01*
X0040128Y0130293D01*
X0040128Y0133976D02*
X0041329Y0135177D01*
X0041329Y0135777D01*
X0040729Y0137045D02*
X0039528Y0137045D01*
X0038927Y0137645D01*
X0038927Y0138846D01*
X0039528Y0139447D01*
X0040729Y0139447D01*
X0041329Y0138846D01*
X0041329Y0137645D01*
X0040729Y0137045D01*
X0041329Y0133976D02*
X0038927Y0133976D01*
X0037726Y0140728D02*
X0037726Y0141329D01*
X0038327Y0141929D01*
X0041329Y0141929D01*
X0042530Y0141929D02*
X0043131Y0141929D01*
X0041329Y0143784D02*
X0041329Y0144985D01*
X0040729Y0145586D01*
X0040128Y0145586D01*
X0040128Y0143184D01*
X0039528Y0143184D02*
X0040729Y0143184D01*
X0041329Y0143784D01*
X0039528Y0143184D02*
X0038927Y0143784D01*
X0038927Y0144985D01*
X0039528Y0146867D02*
X0038927Y0147467D01*
X0038927Y0149269D01*
X0039528Y0151150D02*
X0038927Y0151751D01*
X0039528Y0151150D02*
X0041930Y0151150D01*
X0041329Y0150550D02*
X0041329Y0151751D01*
X0041329Y0149269D02*
X0041329Y0147467D01*
X0040729Y0146867D01*
X0039528Y0146867D01*
X0038927Y0156688D02*
X0038927Y0158490D01*
X0039528Y0159090D01*
X0040128Y0158490D01*
X0040128Y0157289D01*
X0040729Y0156688D01*
X0041329Y0157289D01*
X0041329Y0159090D01*
X0040729Y0160372D02*
X0039528Y0160372D01*
X0038927Y0160972D01*
X0038927Y0162173D01*
X0039528Y0162774D01*
X0040729Y0162774D01*
X0041329Y0162173D01*
X0041329Y0160972D01*
X0040729Y0160372D01*
X0041329Y0164055D02*
X0039528Y0164055D01*
X0038927Y0164655D01*
X0038927Y0166457D01*
X0041329Y0166457D01*
X0041329Y0167738D02*
X0038927Y0167738D01*
X0040128Y0167738D02*
X0041329Y0168939D01*
X0041329Y0169539D01*
X0040729Y0170807D02*
X0039528Y0170807D01*
X0038927Y0171408D01*
X0038927Y0173209D01*
X0039528Y0174490D02*
X0040729Y0174490D01*
X0041329Y0175091D01*
X0041329Y0176292D01*
X0040729Y0176892D01*
X0040128Y0176892D01*
X0040128Y0174490D01*
X0039528Y0174490D02*
X0038927Y0175091D01*
X0038927Y0176292D01*
X0041329Y0173209D02*
X0041329Y0171408D01*
X0040729Y0170807D01*
X0040729Y0181857D02*
X0039528Y0181857D01*
X0038927Y0182457D01*
X0038927Y0184259D01*
X0039528Y0185540D02*
X0038927Y0186140D01*
X0038927Y0187341D01*
X0039528Y0187942D01*
X0040729Y0187942D01*
X0041329Y0187341D01*
X0041329Y0186140D01*
X0040729Y0185540D01*
X0039528Y0185540D01*
X0041329Y0184259D02*
X0041329Y0182457D01*
X0040729Y0181857D01*
X0040729Y0189223D02*
X0041329Y0189823D01*
X0041329Y0191625D01*
X0042530Y0191625D02*
X0038927Y0191625D01*
X0038927Y0189823D01*
X0039528Y0189223D01*
X0040729Y0189223D01*
X0040729Y0192906D02*
X0041329Y0193506D01*
X0041329Y0194707D01*
X0040729Y0195308D01*
X0040128Y0195308D01*
X0040128Y0192906D01*
X0039528Y0192906D02*
X0040729Y0192906D01*
X0039528Y0192906D02*
X0038927Y0193506D01*
X0038927Y0194707D01*
X0038927Y0196589D02*
X0039528Y0196589D01*
X0039528Y0197190D01*
X0038927Y0197190D01*
X0038927Y0196589D01*
X0040729Y0196589D02*
X0041329Y0196589D01*
X0041329Y0197190D01*
X0040729Y0197190D01*
X0040729Y0196589D01*
X0040729Y0202114D02*
X0039528Y0202114D01*
X0038927Y0202714D01*
X0038927Y0204516D01*
X0038327Y0204516D02*
X0041329Y0204516D01*
X0041329Y0202714D01*
X0040729Y0202114D01*
X0037726Y0203315D02*
X0037726Y0203915D01*
X0038327Y0204516D01*
X0038927Y0205797D02*
X0038927Y0206998D01*
X0038927Y0206397D02*
X0041329Y0206397D01*
X0041329Y0205797D01*
X0042530Y0206397D02*
X0043131Y0206397D01*
X0041329Y0208252D02*
X0041329Y0209453D01*
X0041930Y0208853D02*
X0039528Y0208853D01*
X0038927Y0209453D01*
X0038927Y0210708D02*
X0042530Y0210708D01*
X0041329Y0211308D02*
X0041329Y0212509D01*
X0040729Y0213110D01*
X0038927Y0213110D01*
X0039528Y0214391D02*
X0038927Y0214991D01*
X0038927Y0216793D01*
X0041329Y0216793D01*
X0041329Y0218074D02*
X0041329Y0219876D01*
X0040729Y0220476D01*
X0039528Y0220476D01*
X0038927Y0219876D01*
X0038927Y0218074D01*
X0042530Y0218074D01*
X0041329Y0214391D02*
X0039528Y0214391D01*
X0041329Y0211308D02*
X0040729Y0210708D01*
X0039528Y0221757D02*
X0039528Y0222358D01*
X0038927Y0222358D01*
X0038927Y0221757D01*
X0039528Y0221757D01*
X0039528Y0223599D02*
X0038927Y0224199D01*
X0038927Y0226001D01*
X0039528Y0227282D02*
X0038927Y0227882D01*
X0038927Y0229084D01*
X0039528Y0229684D01*
X0040729Y0229684D01*
X0041329Y0229084D01*
X0041329Y0227882D01*
X0040729Y0227282D01*
X0039528Y0227282D01*
X0041329Y0226001D02*
X0041329Y0224199D01*
X0040729Y0223599D01*
X0039528Y0223599D01*
X0038927Y0230965D02*
X0041329Y0230965D01*
X0041329Y0231566D01*
X0040729Y0232166D01*
X0041329Y0232767D01*
X0040729Y0233367D01*
X0038927Y0233367D01*
X0038927Y0232166D02*
X0040729Y0232166D01*
X0038927Y0234648D02*
X0042530Y0237050D01*
X0040729Y0238331D02*
X0041329Y0238932D01*
X0041329Y0240133D01*
X0040729Y0240733D01*
X0040128Y0240733D01*
X0040128Y0238331D01*
X0039528Y0238331D02*
X0040729Y0238331D01*
X0039528Y0238331D02*
X0038927Y0238932D01*
X0038927Y0240133D01*
X0039528Y0242015D02*
X0040729Y0242015D01*
X0041329Y0242615D01*
X0041329Y0243816D01*
X0040729Y0244417D01*
X0040128Y0244417D01*
X0040128Y0242015D01*
X0039528Y0242015D02*
X0038927Y0242615D01*
X0038927Y0243816D01*
X0038927Y0245698D02*
X0038927Y0248100D01*
X0040729Y0249381D02*
X0040729Y0251783D01*
X0040729Y0253064D02*
X0039528Y0253064D01*
X0038927Y0253664D01*
X0038927Y0254866D01*
X0039528Y0255466D01*
X0040729Y0255466D01*
X0041329Y0254866D01*
X0041329Y0253664D01*
X0040729Y0253064D01*
X0041329Y0256747D02*
X0037726Y0256747D01*
X0038927Y0256747D02*
X0038927Y0258549D01*
X0039528Y0259149D01*
X0040729Y0259149D01*
X0041329Y0258549D01*
X0041329Y0256747D01*
X0040729Y0260430D02*
X0041329Y0261031D01*
X0041329Y0262232D01*
X0040729Y0262832D01*
X0040128Y0262832D01*
X0040128Y0260430D01*
X0039528Y0260430D02*
X0040729Y0260430D01*
X0039528Y0260430D02*
X0038927Y0261031D01*
X0038927Y0262232D01*
X0038927Y0264113D02*
X0041329Y0264113D01*
X0041329Y0265915D01*
X0040729Y0266515D01*
X0038927Y0266515D01*
X0038927Y0267797D02*
X0042530Y0270199D01*
X0041930Y0271480D02*
X0039528Y0271480D01*
X0038927Y0272080D01*
X0038927Y0273281D01*
X0039528Y0273882D01*
X0038927Y0275163D02*
X0042530Y0275163D01*
X0042530Y0277565D01*
X0040729Y0276364D02*
X0040729Y0275163D01*
X0041930Y0273882D02*
X0042530Y0273281D01*
X0042530Y0272080D01*
X0041930Y0271480D01*
X0040729Y0278846D02*
X0040729Y0281248D01*
X0042530Y0282529D02*
X0042530Y0284331D01*
X0041930Y0284931D01*
X0039528Y0284931D01*
X0038927Y0284331D01*
X0038927Y0282529D01*
X0042530Y0282529D01*
X0042530Y0286212D02*
X0042530Y0287413D01*
X0042530Y0286813D02*
X0038927Y0286813D01*
X0038927Y0287413D02*
X0038927Y0286212D01*
X0039528Y0288668D02*
X0038927Y0289268D01*
X0038927Y0290469D01*
X0039528Y0291070D01*
X0041930Y0291070D02*
X0042530Y0290469D01*
X0042530Y0289268D01*
X0041930Y0288668D01*
X0039528Y0288668D01*
X0041329Y0248100D02*
X0038927Y0245698D01*
X0041329Y0245698D02*
X0041329Y0248100D01*
X0126608Y0191646D02*
X0126608Y0188043D01*
X0124205Y0188043D01*
X0127889Y0188043D02*
X0130291Y0188043D01*
X0130291Y0191646D01*
X0131572Y0191646D02*
X0131572Y0188643D01*
X0132172Y0188043D01*
X0133373Y0188043D01*
X0133974Y0188643D01*
X0133974Y0191646D01*
X0135255Y0191045D02*
X0135255Y0189844D01*
X0135855Y0189244D01*
X0137657Y0189244D01*
X0137657Y0188043D02*
X0137657Y0191646D01*
X0135855Y0191646D01*
X0135255Y0191045D01*
X0200509Y0232643D02*
X0200509Y0233244D01*
X0201109Y0233844D01*
X0202911Y0233844D01*
X0202911Y0232643D01*
X0202310Y0232043D01*
X0201109Y0232043D01*
X0200509Y0232643D01*
X0201710Y0235045D02*
X0202911Y0233844D01*
X0204192Y0234445D02*
X0206594Y0232043D01*
X0204192Y0232043D01*
X0204192Y0234445D02*
X0204192Y0235045D01*
X0204792Y0235646D01*
X0205993Y0235646D01*
X0206594Y0235045D01*
X0207875Y0235045D02*
X0207875Y0233844D01*
X0208475Y0233244D01*
X0210277Y0233244D01*
X0209076Y0233244D02*
X0207875Y0232043D01*
X0210277Y0232043D02*
X0210277Y0235646D01*
X0208475Y0235646D01*
X0207875Y0235045D01*
X0201710Y0235045D02*
X0200509Y0235646D01*
X0208028Y0244493D02*
X0207427Y0245094D01*
X0207427Y0246295D01*
X0208028Y0246895D01*
X0208028Y0248176D02*
X0207427Y0248777D01*
X0207427Y0249978D01*
X0208028Y0250578D01*
X0208628Y0250578D01*
X0209229Y0249978D01*
X0209229Y0249377D01*
X0209229Y0249978D02*
X0209829Y0250578D01*
X0210430Y0250578D01*
X0211030Y0249978D01*
X0211030Y0248777D01*
X0210430Y0248176D01*
X0210430Y0246895D02*
X0211030Y0246295D01*
X0211030Y0245094D01*
X0210430Y0244493D01*
X0208028Y0244493D01*
X0209229Y0251859D02*
X0209229Y0254261D01*
X0211030Y0253661D02*
X0209229Y0251859D01*
X0211030Y0253661D02*
X0207427Y0253661D01*
X0196280Y0253527D02*
X0196280Y0252326D01*
X0195680Y0251726D01*
X0195680Y0250445D02*
X0194479Y0250445D01*
X0193878Y0249844D01*
X0193878Y0248043D01*
X0193878Y0249244D02*
X0192677Y0250445D01*
X0192677Y0251726D02*
X0195079Y0254128D01*
X0195680Y0254128D01*
X0196280Y0253527D01*
X0196280Y0255409D02*
X0196280Y0257811D01*
X0195680Y0257811D01*
X0193278Y0255409D01*
X0192677Y0255409D01*
X0192677Y0254128D02*
X0192677Y0251726D01*
X0195680Y0250445D02*
X0196280Y0249844D01*
X0196280Y0248043D01*
X0192677Y0248043D01*
X0180780Y0247545D02*
X0180780Y0245743D01*
X0177177Y0245743D01*
X0178378Y0245743D02*
X0178378Y0247545D01*
X0178979Y0248145D01*
X0180180Y0248145D01*
X0180780Y0247545D01*
X0180180Y0249426D02*
X0180780Y0250027D01*
X0180780Y0251228D01*
X0180180Y0251828D01*
X0179579Y0251828D01*
X0178979Y0251228D01*
X0178378Y0251828D01*
X0177778Y0251828D01*
X0177177Y0251228D01*
X0177177Y0250027D01*
X0177778Y0249426D01*
X0177177Y0248145D02*
X0178378Y0246944D01*
X0178979Y0250627D02*
X0178979Y0251228D01*
X0180180Y0253109D02*
X0180780Y0253710D01*
X0180780Y0254911D01*
X0180180Y0255511D01*
X0177778Y0253109D01*
X0177177Y0253710D01*
X0177177Y0254911D01*
X0177778Y0255511D01*
X0180180Y0255511D01*
X0180180Y0253109D02*
X0177778Y0253109D01*
X0172030Y0263543D02*
X0172030Y0265344D01*
X0171430Y0265945D01*
X0170229Y0265945D01*
X0169628Y0265344D01*
X0169628Y0263543D01*
X0169628Y0264744D02*
X0168427Y0265945D01*
X0169028Y0267226D02*
X0168427Y0267826D01*
X0168427Y0269027D01*
X0169028Y0269628D01*
X0169628Y0269628D01*
X0170229Y0269027D01*
X0170229Y0268427D01*
X0170229Y0269027D02*
X0170829Y0269628D01*
X0171430Y0269628D01*
X0172030Y0269027D01*
X0172030Y0267826D01*
X0171430Y0267226D01*
X0171430Y0270909D02*
X0172030Y0271509D01*
X0172030Y0272710D01*
X0171430Y0273311D01*
X0170829Y0273311D01*
X0170229Y0272710D01*
X0169628Y0273311D01*
X0169028Y0273311D01*
X0168427Y0272710D01*
X0168427Y0271509D01*
X0169028Y0270909D01*
X0170229Y0272110D02*
X0170229Y0272710D01*
X0168427Y0263543D02*
X0172030Y0263543D01*
X0183114Y0279462D02*
X0183114Y0281263D01*
X0183715Y0281864D01*
X0186117Y0281864D01*
X0186717Y0281263D01*
X0186717Y0279462D01*
X0183114Y0279462D01*
X0183114Y0283145D02*
X0183114Y0285547D01*
X0183114Y0284346D02*
X0186717Y0284346D01*
X0185516Y0283145D01*
X0186117Y0286828D02*
X0186717Y0287429D01*
X0186717Y0288630D01*
X0186117Y0289230D01*
X0185516Y0289230D01*
X0183114Y0286828D01*
X0183114Y0289230D01*
X0163030Y0289493D02*
X0163030Y0291295D01*
X0162430Y0291895D01*
X0161229Y0291895D01*
X0160628Y0291295D01*
X0160628Y0289493D01*
X0159427Y0289493D02*
X0163030Y0289493D01*
X0160628Y0290694D02*
X0159427Y0291895D01*
X0159427Y0293176D02*
X0161829Y0295578D01*
X0162430Y0295578D01*
X0163030Y0294978D01*
X0163030Y0293777D01*
X0162430Y0293176D01*
X0159427Y0293176D02*
X0159427Y0295578D01*
X0160028Y0296859D02*
X0160628Y0296859D01*
X0161229Y0297460D01*
X0161229Y0298661D01*
X0160628Y0299261D01*
X0160028Y0299261D01*
X0159427Y0298661D01*
X0159427Y0297460D01*
X0160028Y0296859D01*
X0161229Y0297460D02*
X0161829Y0296859D01*
X0162430Y0296859D01*
X0163030Y0297460D01*
X0163030Y0298661D01*
X0162430Y0299261D01*
X0161829Y0299261D01*
X0161229Y0298661D01*
X0154030Y0287310D02*
X0150427Y0287310D01*
X0150427Y0286109D02*
X0150427Y0288511D01*
X0152829Y0286109D02*
X0154030Y0287310D01*
X0153430Y0284828D02*
X0152829Y0284828D01*
X0152229Y0284228D01*
X0151628Y0284828D01*
X0151028Y0284828D01*
X0150427Y0284228D01*
X0150427Y0283027D01*
X0151028Y0282426D01*
X0150427Y0281145D02*
X0151628Y0279944D01*
X0151628Y0280545D02*
X0151628Y0278743D01*
X0150427Y0278743D02*
X0154030Y0278743D01*
X0154030Y0280545D01*
X0153430Y0281145D01*
X0152229Y0281145D01*
X0151628Y0280545D01*
X0153430Y0282426D02*
X0154030Y0283027D01*
X0154030Y0284228D01*
X0153430Y0284828D01*
X0152229Y0284228D02*
X0152229Y0283627D01*
X0188677Y0308643D02*
X0188677Y0309844D01*
X0189278Y0310445D01*
X0189278Y0311726D02*
X0188677Y0312326D01*
X0188677Y0313527D01*
X0189278Y0314128D01*
X0189878Y0314128D01*
X0190479Y0313527D01*
X0190479Y0312927D01*
X0190479Y0313527D02*
X0191079Y0314128D01*
X0191680Y0314128D01*
X0192280Y0313527D01*
X0192280Y0312326D01*
X0191680Y0311726D01*
X0191680Y0310445D02*
X0192280Y0309844D01*
X0192280Y0308643D01*
X0191680Y0308043D01*
X0189278Y0308043D01*
X0188677Y0308643D01*
X0195927Y0308643D02*
X0195927Y0309844D01*
X0196528Y0310445D01*
X0196528Y0311726D02*
X0195927Y0312326D01*
X0195927Y0313527D01*
X0196528Y0314128D01*
X0197128Y0314128D01*
X0197729Y0313527D01*
X0197729Y0312927D01*
X0197729Y0313527D02*
X0198329Y0314128D01*
X0198930Y0314128D01*
X0199530Y0313527D01*
X0199530Y0312326D01*
X0198930Y0311726D01*
X0198930Y0310445D02*
X0199530Y0309844D01*
X0199530Y0308643D01*
X0198930Y0308043D01*
X0196528Y0308043D01*
X0195927Y0308643D01*
X0202427Y0308643D02*
X0202427Y0309844D01*
X0203028Y0310445D01*
X0203028Y0311726D02*
X0202427Y0312326D01*
X0202427Y0313527D01*
X0203028Y0314128D01*
X0203628Y0314128D01*
X0204229Y0313527D01*
X0204229Y0312927D01*
X0204229Y0313527D02*
X0204829Y0314128D01*
X0205430Y0314128D01*
X0206030Y0313527D01*
X0206030Y0312326D01*
X0205430Y0311726D01*
X0205430Y0310445D02*
X0206030Y0309844D01*
X0206030Y0308643D01*
X0205430Y0308043D01*
X0203028Y0308043D01*
X0202427Y0308643D01*
X0203028Y0315409D02*
X0202427Y0316009D01*
X0202427Y0317210D01*
X0203028Y0317811D01*
X0204229Y0317811D01*
X0204829Y0317210D01*
X0204829Y0316610D01*
X0204229Y0315409D01*
X0206030Y0315409D01*
X0206030Y0317811D01*
X0199530Y0317811D02*
X0198930Y0316610D01*
X0197729Y0315409D01*
X0197729Y0317210D01*
X0197128Y0317811D01*
X0196528Y0317811D01*
X0195927Y0317210D01*
X0195927Y0316009D01*
X0196528Y0315409D01*
X0197729Y0315409D01*
X0192280Y0315409D02*
X0192280Y0317811D01*
X0191680Y0317811D01*
X0189278Y0315409D01*
X0188677Y0315409D01*
X0178777Y0319793D02*
X0178777Y0323396D01*
X0176975Y0323396D01*
X0176375Y0322795D01*
X0176375Y0321594D01*
X0176975Y0320994D01*
X0178777Y0320994D01*
X0177576Y0320994D02*
X0176375Y0319793D01*
X0175094Y0320393D02*
X0174493Y0319793D01*
X0173292Y0319793D01*
X0172692Y0320393D01*
X0172692Y0320994D01*
X0173292Y0321594D01*
X0173893Y0321594D01*
X0173292Y0321594D02*
X0172692Y0322195D01*
X0172692Y0322795D01*
X0173292Y0323396D01*
X0174493Y0323396D01*
X0175094Y0322795D01*
X0171411Y0322795D02*
X0170810Y0323396D01*
X0169609Y0323396D01*
X0169009Y0322795D01*
X0169009Y0322195D01*
X0171411Y0319793D01*
X0169009Y0319793D01*
X0148467Y0319380D02*
X0147867Y0319980D01*
X0147266Y0319980D01*
X0146666Y0319380D01*
X0146065Y0319980D01*
X0145465Y0319980D01*
X0144864Y0319380D01*
X0144864Y0318179D01*
X0145465Y0317578D01*
X0144864Y0316297D02*
X0144864Y0313895D01*
X0144864Y0315096D02*
X0148467Y0315096D01*
X0147266Y0313895D01*
X0147867Y0312614D02*
X0148467Y0312013D01*
X0148467Y0310212D01*
X0144864Y0310212D01*
X0144864Y0312013D01*
X0145465Y0312614D01*
X0147867Y0312614D01*
X0147867Y0317578D02*
X0148467Y0318179D01*
X0148467Y0319380D01*
X0146666Y0319380D02*
X0146666Y0318779D01*
X0158754Y0345293D02*
X0161156Y0345293D01*
X0161156Y0348896D01*
X0158754Y0348896D01*
X0159955Y0347094D02*
X0161156Y0347094D01*
X0162437Y0345893D02*
X0163037Y0345293D01*
X0164839Y0345293D01*
X0164839Y0348896D01*
X0163037Y0348896D01*
X0162437Y0348295D01*
X0162437Y0345893D01*
X0166093Y0345293D02*
X0167294Y0345293D01*
X0166694Y0345293D02*
X0166694Y0348896D01*
X0167294Y0348896D02*
X0166093Y0348896D01*
X0168576Y0348295D02*
X0169176Y0348896D01*
X0170377Y0348896D01*
X0170978Y0348295D01*
X0170978Y0347695D01*
X0170377Y0347094D01*
X0169176Y0347094D01*
X0168576Y0346494D01*
X0168576Y0345893D01*
X0169176Y0345293D01*
X0170377Y0345293D01*
X0170978Y0345893D01*
X0172259Y0347094D02*
X0174661Y0347094D01*
X0175942Y0345893D02*
X0175942Y0348295D01*
X0176542Y0348896D01*
X0177743Y0348896D01*
X0178344Y0348295D01*
X0178344Y0345893D01*
X0177743Y0345293D01*
X0176542Y0345293D01*
X0175942Y0345893D01*
X0179625Y0345293D02*
X0182027Y0345293D01*
X0182027Y0348896D01*
X0218677Y0317210D02*
X0219278Y0317811D01*
X0221680Y0317811D01*
X0219278Y0315409D01*
X0218677Y0316009D01*
X0218677Y0317210D01*
X0219278Y0315409D02*
X0221680Y0315409D01*
X0222280Y0316009D01*
X0222280Y0317210D01*
X0221680Y0317811D01*
X0221680Y0314128D02*
X0221079Y0314128D01*
X0220479Y0313527D01*
X0219878Y0314128D01*
X0219278Y0314128D01*
X0218677Y0313527D01*
X0218677Y0312326D01*
X0219278Y0311726D01*
X0219278Y0310445D02*
X0218677Y0309844D01*
X0218677Y0308643D01*
X0219278Y0308043D01*
X0221680Y0308043D01*
X0222280Y0308643D01*
X0222280Y0309844D01*
X0221680Y0310445D01*
X0221680Y0311726D02*
X0222280Y0312326D01*
X0222280Y0313527D01*
X0221680Y0314128D01*
X0220479Y0313527D02*
X0220479Y0312927D01*
X0225427Y0314128D02*
X0225427Y0311726D01*
X0227829Y0314128D01*
X0228430Y0314128D01*
X0229030Y0313527D01*
X0229030Y0312326D01*
X0228430Y0311726D01*
X0228430Y0310445D02*
X0229030Y0309844D01*
X0229030Y0308643D01*
X0228430Y0308043D01*
X0226028Y0308043D01*
X0225427Y0308643D01*
X0225427Y0309844D01*
X0226028Y0310445D01*
X0226028Y0315409D02*
X0225427Y0316009D01*
X0225427Y0317210D01*
X0226028Y0317811D01*
X0228430Y0317811D01*
X0229030Y0317210D01*
X0229030Y0316009D01*
X0228430Y0315409D01*
X0227829Y0315409D01*
X0227229Y0316009D01*
X0227229Y0317811D01*
X0232177Y0317210D02*
X0232177Y0316009D01*
X0232778Y0315409D01*
X0233378Y0315409D01*
X0233979Y0316009D01*
X0233979Y0317210D01*
X0233378Y0317811D01*
X0232778Y0317811D01*
X0232177Y0317210D01*
X0233979Y0317210D02*
X0234579Y0317811D01*
X0235180Y0317811D01*
X0235780Y0317210D01*
X0235780Y0316009D01*
X0235180Y0315409D01*
X0234579Y0315409D01*
X0233979Y0316009D01*
X0234579Y0314128D02*
X0235180Y0314128D01*
X0235780Y0313527D01*
X0235780Y0312326D01*
X0235180Y0311726D01*
X0235180Y0310445D02*
X0235780Y0309844D01*
X0235780Y0308643D01*
X0235180Y0308043D01*
X0232778Y0308043D01*
X0232177Y0308643D01*
X0232177Y0309844D01*
X0232778Y0310445D01*
X0232177Y0311726D02*
X0232177Y0314128D01*
X0232177Y0311726D02*
X0234579Y0314128D01*
X0241009Y0320893D02*
X0241609Y0320293D01*
X0242810Y0320293D01*
X0243411Y0320893D01*
X0241009Y0323295D01*
X0241009Y0320893D01*
X0243411Y0320893D02*
X0243411Y0323295D01*
X0242810Y0323896D01*
X0241609Y0323896D01*
X0241009Y0323295D01*
X0244692Y0323295D02*
X0245292Y0323896D01*
X0246493Y0323896D01*
X0247094Y0323295D01*
X0248375Y0323295D02*
X0248375Y0322094D01*
X0248975Y0321494D01*
X0250777Y0321494D01*
X0249576Y0321494D02*
X0248375Y0320293D01*
X0247094Y0320293D02*
X0244692Y0322695D01*
X0244692Y0323295D01*
X0244692Y0320293D02*
X0247094Y0320293D01*
X0248375Y0323295D02*
X0248975Y0323896D01*
X0250777Y0323896D01*
X0250777Y0320293D01*
X0250743Y0308896D02*
X0251344Y0308295D01*
X0250743Y0308896D02*
X0249542Y0308896D01*
X0248942Y0308295D01*
X0248942Y0307695D01*
X0251344Y0305293D01*
X0248942Y0305293D01*
X0247661Y0305293D02*
X0245259Y0305293D01*
X0246460Y0305293D02*
X0246460Y0308896D01*
X0247661Y0307695D01*
X0252625Y0308295D02*
X0252625Y0307094D01*
X0253225Y0306494D01*
X0255027Y0306494D01*
X0253826Y0306494D02*
X0252625Y0305293D01*
X0255027Y0305293D02*
X0255027Y0308896D01*
X0253225Y0308896D01*
X0252625Y0308295D01*
X0276977Y0312456D02*
X0277578Y0311856D01*
X0278779Y0311856D01*
X0279379Y0312456D01*
X0276977Y0314858D01*
X0276977Y0312456D01*
X0276977Y0314858D02*
X0277578Y0315459D01*
X0278779Y0315459D01*
X0279379Y0314858D01*
X0279379Y0312456D01*
X0280661Y0311856D02*
X0283063Y0311856D01*
X0281862Y0311856D02*
X0281862Y0315459D01*
X0283063Y0314258D01*
X0284344Y0314858D02*
X0284944Y0315459D01*
X0286746Y0315459D01*
X0286746Y0311856D01*
X0284944Y0311856D01*
X0284344Y0312456D01*
X0284344Y0314858D01*
X0284884Y0345293D02*
X0282482Y0345293D01*
X0283683Y0347094D02*
X0284884Y0347094D01*
X0286165Y0345893D02*
X0286165Y0348295D01*
X0286765Y0348896D01*
X0288567Y0348896D01*
X0288567Y0345293D01*
X0286765Y0345293D01*
X0286165Y0345893D01*
X0284884Y0345293D02*
X0284884Y0348896D01*
X0282482Y0348896D01*
X0289821Y0348896D02*
X0291022Y0348896D01*
X0290422Y0348896D02*
X0290422Y0345293D01*
X0291022Y0345293D02*
X0289821Y0345293D01*
X0292303Y0345893D02*
X0292904Y0345293D01*
X0294105Y0345293D01*
X0294705Y0345893D01*
X0294105Y0347094D02*
X0292904Y0347094D01*
X0292303Y0346494D01*
X0292303Y0345893D01*
X0294105Y0347094D02*
X0294705Y0347695D01*
X0294705Y0348295D01*
X0294105Y0348896D01*
X0292904Y0348896D01*
X0292303Y0348295D01*
X0295986Y0347094D02*
X0298388Y0347094D01*
X0299643Y0345293D02*
X0300844Y0345293D01*
X0300243Y0345293D02*
X0300243Y0348896D01*
X0299643Y0348896D02*
X0300844Y0348896D01*
X0302125Y0348896D02*
X0302125Y0345293D01*
X0302125Y0347094D02*
X0304527Y0347094D01*
X0304527Y0345293D02*
X0304527Y0348896D01*
X0331159Y0292896D02*
X0332360Y0292896D01*
X0332960Y0292295D01*
X0332960Y0291695D01*
X0332360Y0291094D01*
X0330558Y0291094D01*
X0330558Y0289893D02*
X0330558Y0292295D01*
X0331159Y0292896D01*
X0330558Y0289893D02*
X0331159Y0289293D01*
X0332360Y0289293D01*
X0332960Y0289893D01*
X0334241Y0289293D02*
X0336643Y0289293D01*
X0334241Y0291695D01*
X0334241Y0292295D01*
X0334842Y0292896D01*
X0336043Y0292896D01*
X0336643Y0292295D01*
X0337924Y0292295D02*
X0337924Y0291094D01*
X0338525Y0290494D01*
X0340326Y0290494D01*
X0339125Y0290494D02*
X0337924Y0289293D01*
X0340326Y0289293D02*
X0340326Y0292896D01*
X0338525Y0292896D01*
X0337924Y0292295D01*
X0323576Y0278396D02*
X0321775Y0278396D01*
X0321174Y0277795D01*
X0321174Y0276594D01*
X0321775Y0275994D01*
X0323576Y0275994D01*
X0322375Y0275994D02*
X0321174Y0274793D01*
X0319893Y0275393D02*
X0319293Y0274793D01*
X0318092Y0274793D01*
X0317491Y0275393D01*
X0317491Y0275994D01*
X0318092Y0276594D01*
X0318692Y0276594D01*
X0318092Y0276594D02*
X0317491Y0277195D01*
X0317491Y0277795D01*
X0318092Y0278396D01*
X0319293Y0278396D01*
X0319893Y0277795D01*
X0323576Y0278396D02*
X0323576Y0274793D01*
X0316210Y0275393D02*
X0315610Y0274793D01*
X0314409Y0274793D01*
X0313808Y0275393D01*
X0313808Y0275994D01*
X0314409Y0276594D01*
X0316210Y0276594D01*
X0316210Y0275393D01*
X0316210Y0276594D02*
X0315009Y0277795D01*
X0313808Y0278396D01*
X0276027Y0279396D02*
X0276027Y0275793D01*
X0274225Y0275793D01*
X0273625Y0276393D01*
X0273625Y0278795D01*
X0274225Y0279396D01*
X0276027Y0279396D01*
X0272344Y0278795D02*
X0272344Y0278195D01*
X0271743Y0277594D01*
X0269942Y0277594D01*
X0269942Y0276393D02*
X0269942Y0278795D01*
X0270542Y0279396D01*
X0271743Y0279396D01*
X0272344Y0278795D01*
X0272344Y0276393D02*
X0271743Y0275793D01*
X0270542Y0275793D01*
X0269942Y0276393D01*
X0274528Y0262311D02*
X0273927Y0261710D01*
X0273927Y0260509D01*
X0274528Y0259909D01*
X0275128Y0259909D01*
X0275729Y0260509D01*
X0275729Y0261710D01*
X0275128Y0262311D01*
X0274528Y0262311D01*
X0275729Y0261710D02*
X0276329Y0262311D01*
X0276930Y0262311D01*
X0277530Y0261710D01*
X0277530Y0260509D01*
X0276930Y0259909D01*
X0276329Y0259909D01*
X0275729Y0260509D01*
X0273927Y0258628D02*
X0273927Y0256226D01*
X0273927Y0257427D02*
X0277530Y0257427D01*
X0276329Y0256226D01*
X0275729Y0254945D02*
X0275128Y0254344D01*
X0275128Y0252543D01*
X0275128Y0253744D02*
X0273927Y0254945D01*
X0275729Y0254945D02*
X0276930Y0254945D01*
X0277530Y0254344D01*
X0277530Y0252543D01*
X0273927Y0252543D01*
X0251530Y0249261D02*
X0250930Y0249261D01*
X0248528Y0246859D01*
X0247927Y0246859D01*
X0247927Y0245578D02*
X0247927Y0243176D01*
X0250329Y0245578D01*
X0250930Y0245578D01*
X0251530Y0244978D01*
X0251530Y0243777D01*
X0250930Y0243176D01*
X0250930Y0241895D02*
X0251530Y0241295D01*
X0251530Y0240094D01*
X0250930Y0239493D01*
X0248528Y0239493D01*
X0247927Y0240094D01*
X0247927Y0241295D01*
X0248528Y0241895D01*
X0244030Y0242228D02*
X0244030Y0241027D01*
X0243430Y0240426D01*
X0243430Y0239145D02*
X0244030Y0238545D01*
X0244030Y0237344D01*
X0243430Y0236743D01*
X0241028Y0236743D01*
X0240427Y0237344D01*
X0240427Y0238545D01*
X0241028Y0239145D01*
X0240427Y0240426D02*
X0242829Y0242828D01*
X0243430Y0242828D01*
X0244030Y0242228D01*
X0242229Y0244109D02*
X0242229Y0245911D01*
X0241628Y0246511D01*
X0241028Y0246511D01*
X0240427Y0245911D01*
X0240427Y0244710D01*
X0241028Y0244109D01*
X0242229Y0244109D01*
X0243430Y0245310D01*
X0244030Y0246511D01*
X0240427Y0242828D02*
X0240427Y0240426D01*
X0234030Y0239728D02*
X0234030Y0238527D01*
X0233430Y0237926D01*
X0233430Y0236645D02*
X0232229Y0236645D01*
X0231628Y0236045D01*
X0231628Y0234243D01*
X0230427Y0234243D02*
X0234030Y0234243D01*
X0234030Y0236045D01*
X0233430Y0236645D01*
X0231628Y0235444D02*
X0230427Y0236645D01*
X0230427Y0237926D02*
X0232829Y0240328D01*
X0233430Y0240328D01*
X0234030Y0239728D01*
X0233430Y0241609D02*
X0234030Y0242210D01*
X0234030Y0243411D01*
X0233430Y0244011D01*
X0232829Y0244011D01*
X0230427Y0241609D01*
X0230427Y0244011D01*
X0230427Y0240328D02*
X0230427Y0237926D01*
X0226280Y0238777D02*
X0225680Y0238176D01*
X0226280Y0238777D02*
X0226280Y0239978D01*
X0225680Y0240578D01*
X0225079Y0240578D01*
X0222677Y0238176D01*
X0222677Y0240578D01*
X0223278Y0241859D02*
X0222677Y0242460D01*
X0222677Y0243661D01*
X0223278Y0244261D01*
X0223878Y0244261D01*
X0224479Y0243661D01*
X0224479Y0243060D01*
X0224479Y0243661D02*
X0225079Y0244261D01*
X0225680Y0244261D01*
X0226280Y0243661D01*
X0226280Y0242460D01*
X0225680Y0241859D01*
X0225680Y0236895D02*
X0224479Y0236895D01*
X0223878Y0236295D01*
X0223878Y0234493D01*
X0222677Y0234493D02*
X0226280Y0234493D01*
X0226280Y0236295D01*
X0225680Y0236895D01*
X0223878Y0235694D02*
X0222677Y0236895D01*
X0218280Y0236661D02*
X0217680Y0237261D01*
X0217079Y0237261D01*
X0216479Y0236661D01*
X0216479Y0235460D01*
X0217079Y0234859D01*
X0217680Y0234859D01*
X0218280Y0235460D01*
X0218280Y0236661D01*
X0216479Y0236661D02*
X0215878Y0237261D01*
X0215278Y0237261D01*
X0214677Y0236661D01*
X0214677Y0235460D01*
X0215278Y0234859D01*
X0215878Y0234859D01*
X0216479Y0235460D01*
X0217079Y0233578D02*
X0216479Y0232978D01*
X0215878Y0233578D01*
X0215278Y0233578D01*
X0214677Y0232978D01*
X0214677Y0231777D01*
X0215278Y0231176D01*
X0214677Y0229895D02*
X0215878Y0228694D01*
X0215878Y0229295D02*
X0215878Y0227493D01*
X0214677Y0227493D02*
X0218280Y0227493D01*
X0218280Y0229295D01*
X0217680Y0229895D01*
X0216479Y0229895D01*
X0215878Y0229295D01*
X0217680Y0231176D02*
X0218280Y0231777D01*
X0218280Y0232978D01*
X0217680Y0233578D01*
X0217079Y0233578D01*
X0216479Y0232978D02*
X0216479Y0232377D01*
X0251530Y0246859D02*
X0251530Y0249261D01*
X0295614Y0230130D02*
X0299217Y0230130D01*
X0297416Y0228328D01*
X0297416Y0230730D01*
X0296215Y0227047D02*
X0298617Y0227047D01*
X0299217Y0226446D01*
X0299217Y0224645D01*
X0295614Y0224645D01*
X0295614Y0226446D01*
X0296215Y0227047D01*
X0295614Y0223364D02*
X0295614Y0220962D01*
X0296215Y0220962D01*
X0298617Y0223364D01*
X0299217Y0223364D01*
X0299217Y0220962D01*
X0303177Y0220777D02*
X0306780Y0220777D01*
X0304979Y0218976D01*
X0304979Y0221378D01*
X0303778Y0222659D02*
X0306180Y0222659D01*
X0306780Y0223259D01*
X0306780Y0224460D01*
X0306180Y0225061D01*
X0303778Y0222659D01*
X0303177Y0223259D01*
X0303177Y0224460D01*
X0303778Y0225061D01*
X0306180Y0225061D01*
X0310177Y0225277D02*
X0310177Y0224076D01*
X0310778Y0223476D01*
X0310177Y0222195D02*
X0311378Y0220994D01*
X0311378Y0221594D02*
X0311378Y0219793D01*
X0310177Y0219793D02*
X0313780Y0219793D01*
X0313780Y0221594D01*
X0313180Y0222195D01*
X0311979Y0222195D01*
X0311378Y0221594D01*
X0313180Y0223476D02*
X0313780Y0224076D01*
X0313780Y0225277D01*
X0313180Y0225878D01*
X0312579Y0225878D01*
X0311979Y0225277D01*
X0311378Y0225878D01*
X0310778Y0225878D01*
X0310177Y0225277D01*
X0311979Y0225277D02*
X0311979Y0224677D01*
X0312579Y0227159D02*
X0311979Y0227759D01*
X0311979Y0229561D01*
X0313180Y0229561D02*
X0313780Y0228960D01*
X0313780Y0227759D01*
X0313180Y0227159D01*
X0312579Y0227159D01*
X0310778Y0227159D02*
X0310177Y0227759D01*
X0310177Y0228960D01*
X0310778Y0229561D01*
X0313180Y0229561D01*
X0317927Y0229311D02*
X0317927Y0226909D01*
X0317927Y0228110D02*
X0321530Y0228110D01*
X0320329Y0226909D01*
X0319729Y0225628D02*
X0319729Y0223226D01*
X0321530Y0225027D01*
X0317927Y0225027D01*
X0317927Y0221945D02*
X0319128Y0220744D01*
X0319128Y0221344D02*
X0319128Y0219543D01*
X0317927Y0219543D02*
X0321530Y0219543D01*
X0321530Y0221344D01*
X0320930Y0221945D01*
X0319729Y0221945D01*
X0319128Y0221344D01*
X0306780Y0217094D02*
X0306780Y0215893D01*
X0306180Y0215293D01*
X0303778Y0215293D01*
X0303177Y0215893D01*
X0303177Y0217094D01*
X0303778Y0217695D01*
X0306180Y0217695D02*
X0306780Y0217094D01*
X0328677Y0206561D02*
X0328677Y0204159D01*
X0331079Y0206561D01*
X0331680Y0206561D01*
X0332280Y0205960D01*
X0332280Y0204759D01*
X0331680Y0204159D01*
X0332280Y0202878D02*
X0332280Y0200476D01*
X0330479Y0200476D01*
X0331079Y0201677D01*
X0331079Y0202277D01*
X0330479Y0202878D01*
X0329278Y0202878D01*
X0328677Y0202277D01*
X0328677Y0201076D01*
X0329278Y0200476D01*
X0328677Y0199195D02*
X0329878Y0197994D01*
X0329878Y0198594D02*
X0329878Y0196793D01*
X0328677Y0196793D02*
X0332280Y0196793D01*
X0332280Y0198594D01*
X0331680Y0199195D01*
X0330479Y0199195D01*
X0329878Y0198594D01*
X0344427Y0212893D02*
X0344427Y0214094D01*
X0345028Y0214695D01*
X0346229Y0215976D02*
X0346229Y0218378D01*
X0345028Y0219659D02*
X0344427Y0219659D01*
X0345028Y0219659D02*
X0347430Y0222061D01*
X0348030Y0222061D01*
X0348030Y0219659D01*
X0348030Y0217777D02*
X0346229Y0215976D01*
X0347430Y0214695D02*
X0348030Y0214094D01*
X0348030Y0212893D01*
X0347430Y0212293D01*
X0345028Y0212293D01*
X0344427Y0212893D01*
X0344427Y0217777D02*
X0348030Y0217777D01*
X0352177Y0217777D02*
X0352778Y0218378D01*
X0353979Y0218378D01*
X0354579Y0217777D01*
X0354579Y0217177D01*
X0353979Y0215976D01*
X0355780Y0215976D01*
X0355780Y0218378D01*
X0353979Y0219659D02*
X0355780Y0221460D01*
X0352177Y0221460D01*
X0353979Y0222061D02*
X0353979Y0219659D01*
X0352177Y0217777D02*
X0352177Y0216576D01*
X0352778Y0215976D01*
X0352177Y0214695D02*
X0353378Y0213494D01*
X0353378Y0214094D02*
X0353378Y0212293D01*
X0352177Y0212293D02*
X0355780Y0212293D01*
X0355780Y0214094D01*
X0355180Y0214695D01*
X0353979Y0214695D01*
X0353378Y0214094D01*
X0353792Y0231293D02*
X0354993Y0231293D01*
X0355594Y0231893D01*
X0355594Y0233094D02*
X0354393Y0233695D01*
X0353792Y0233695D01*
X0353192Y0233094D01*
X0353192Y0231893D01*
X0353792Y0231293D01*
X0351911Y0231293D02*
X0349509Y0233695D01*
X0349509Y0234295D01*
X0350109Y0234896D01*
X0351310Y0234896D01*
X0351911Y0234295D01*
X0353192Y0234896D02*
X0355594Y0234896D01*
X0355594Y0233094D01*
X0356875Y0231893D02*
X0357475Y0231293D01*
X0358677Y0231293D01*
X0359277Y0231893D01*
X0359277Y0234295D01*
X0358677Y0234896D01*
X0357475Y0234896D01*
X0356875Y0234295D01*
X0351911Y0231293D02*
X0349509Y0231293D01*
X0391023Y0211083D02*
X0392224Y0210482D01*
X0393425Y0209281D01*
X0391623Y0209281D01*
X0391023Y0208681D01*
X0391023Y0208080D01*
X0391623Y0207480D01*
X0392824Y0207480D01*
X0393425Y0208080D01*
X0393425Y0209281D01*
X0394706Y0208080D02*
X0394706Y0210482D01*
X0395306Y0211083D01*
X0397108Y0211083D01*
X0397108Y0207480D01*
X0395306Y0207480D01*
X0394706Y0208080D01*
X0369326Y0193896D02*
X0367525Y0193896D01*
X0366924Y0193295D01*
X0366924Y0192094D01*
X0367525Y0191494D01*
X0369326Y0191494D01*
X0368125Y0191494D02*
X0366924Y0190293D01*
X0365643Y0192094D02*
X0363241Y0192094D01*
X0361960Y0192695D02*
X0361360Y0192094D01*
X0359558Y0192094D01*
X0359558Y0190893D02*
X0359558Y0193295D01*
X0360159Y0193896D01*
X0361360Y0193896D01*
X0361960Y0193295D01*
X0361960Y0192695D01*
X0361960Y0190893D02*
X0361360Y0190293D01*
X0360159Y0190293D01*
X0359558Y0190893D01*
X0363842Y0190293D02*
X0363842Y0193896D01*
X0365643Y0192094D01*
X0369326Y0190293D02*
X0369326Y0193896D01*
X0362030Y0173060D02*
X0358427Y0173060D01*
X0358427Y0171859D02*
X0358427Y0174261D01*
X0360829Y0171859D02*
X0362030Y0173060D01*
X0360229Y0170578D02*
X0360229Y0168176D01*
X0362030Y0169978D01*
X0358427Y0169978D01*
X0359028Y0166895D02*
X0358427Y0166295D01*
X0358427Y0165094D01*
X0359028Y0164493D01*
X0361430Y0164493D01*
X0362030Y0165094D01*
X0362030Y0166295D01*
X0361430Y0166895D01*
X0383677Y0158960D02*
X0383677Y0157759D01*
X0384278Y0157159D01*
X0385479Y0157159D02*
X0386079Y0158360D01*
X0386079Y0158960D01*
X0385479Y0159561D01*
X0384278Y0159561D01*
X0383677Y0158960D01*
X0385479Y0157159D02*
X0387280Y0157159D01*
X0387280Y0159561D01*
X0386680Y0155878D02*
X0386079Y0155878D01*
X0385479Y0155277D01*
X0384878Y0155878D01*
X0384278Y0155878D01*
X0383677Y0155277D01*
X0383677Y0154076D01*
X0384278Y0153476D01*
X0383677Y0152195D02*
X0384878Y0150994D01*
X0384878Y0151594D02*
X0384878Y0149793D01*
X0383677Y0149793D02*
X0387280Y0149793D01*
X0387280Y0151594D01*
X0386680Y0152195D01*
X0385479Y0152195D01*
X0384878Y0151594D01*
X0386680Y0153476D02*
X0387280Y0154076D01*
X0387280Y0155277D01*
X0386680Y0155878D01*
X0385479Y0155277D02*
X0385479Y0154677D01*
X0360930Y0129811D02*
X0361530Y0129210D01*
X0361530Y0128009D01*
X0360930Y0127409D01*
X0361530Y0126128D02*
X0359128Y0123726D01*
X0359729Y0124326D02*
X0357927Y0126128D01*
X0357927Y0127409D02*
X0360329Y0129811D01*
X0360930Y0129811D01*
X0357927Y0129811D02*
X0357927Y0127409D01*
X0357927Y0123726D02*
X0361530Y0123726D01*
X0360930Y0122445D02*
X0361530Y0121844D01*
X0361530Y0120643D01*
X0360930Y0120043D01*
X0358528Y0120043D01*
X0357927Y0120643D01*
X0357927Y0121844D01*
X0358528Y0122445D01*
X0360930Y0122445D01*
X0347280Y0121594D02*
X0346680Y0122195D01*
X0344278Y0122195D01*
X0343677Y0121594D01*
X0343677Y0120393D01*
X0344278Y0119793D01*
X0346680Y0119793D01*
X0347280Y0120393D01*
X0347280Y0121594D01*
X0347280Y0123476D02*
X0343677Y0123476D01*
X0344878Y0123476D02*
X0347280Y0125878D01*
X0346680Y0127159D02*
X0347280Y0127759D01*
X0347280Y0128960D01*
X0346680Y0129561D01*
X0346079Y0129561D01*
X0345479Y0128960D01*
X0344878Y0129561D01*
X0344278Y0129561D01*
X0343677Y0128960D01*
X0343677Y0127759D01*
X0344278Y0127159D01*
X0343677Y0125878D02*
X0345479Y0124076D01*
X0345479Y0128360D02*
X0345479Y0128960D01*
X0340576Y0131393D02*
X0339976Y0130793D01*
X0338775Y0130793D01*
X0338174Y0131393D01*
X0336893Y0131393D02*
X0336893Y0130793D01*
X0336893Y0131393D02*
X0334491Y0133795D01*
X0334491Y0134396D01*
X0336893Y0134396D01*
X0338174Y0133795D02*
X0338775Y0134396D01*
X0339976Y0134396D01*
X0340576Y0133795D01*
X0340576Y0131393D01*
X0333210Y0131393D02*
X0332610Y0130793D01*
X0331409Y0130793D01*
X0330808Y0131393D01*
X0330808Y0132594D01*
X0331409Y0133195D01*
X0332009Y0133195D01*
X0333210Y0132594D01*
X0333210Y0134396D01*
X0330808Y0134396D01*
X0315277Y0127396D02*
X0315277Y0123793D01*
X0315277Y0124994D02*
X0313475Y0124994D01*
X0312875Y0125594D01*
X0312875Y0126795D01*
X0313475Y0127396D01*
X0315277Y0127396D01*
X0314076Y0124994D02*
X0312875Y0123793D01*
X0311594Y0124393D02*
X0311594Y0124994D01*
X0310993Y0125594D01*
X0309792Y0125594D01*
X0309192Y0124994D01*
X0309192Y0124393D01*
X0309792Y0123793D01*
X0310993Y0123793D01*
X0311594Y0124393D01*
X0310993Y0125594D02*
X0311594Y0126195D01*
X0311594Y0126795D01*
X0310993Y0127396D01*
X0309792Y0127396D01*
X0309192Y0126795D01*
X0309192Y0126195D01*
X0309792Y0125594D01*
X0307911Y0124393D02*
X0307310Y0123793D01*
X0306109Y0123793D01*
X0305509Y0124393D01*
X0305509Y0124994D01*
X0306109Y0125594D01*
X0306710Y0125594D01*
X0306109Y0125594D02*
X0305509Y0126195D01*
X0305509Y0126795D01*
X0306109Y0127396D01*
X0307310Y0127396D01*
X0307911Y0126795D01*
X0307310Y0120146D02*
X0307911Y0119545D01*
X0307310Y0120146D02*
X0306109Y0120146D01*
X0305509Y0119545D01*
X0305509Y0118945D01*
X0307911Y0116543D01*
X0305509Y0116543D01*
X0309192Y0119545D02*
X0311594Y0117143D01*
X0311594Y0116543D01*
X0312875Y0117143D02*
X0313475Y0116543D01*
X0314677Y0116543D01*
X0315277Y0117143D01*
X0315277Y0119545D01*
X0314677Y0120146D01*
X0313475Y0120146D01*
X0312875Y0119545D01*
X0311594Y0120146D02*
X0309192Y0120146D01*
X0309192Y0119545D01*
X0298826Y0126393D02*
X0298226Y0125793D01*
X0297025Y0125793D01*
X0296424Y0126393D01*
X0295143Y0126393D02*
X0295143Y0125793D01*
X0295143Y0126393D02*
X0292741Y0128795D01*
X0292741Y0129396D01*
X0295143Y0129396D01*
X0296424Y0128795D02*
X0297025Y0129396D01*
X0298226Y0129396D01*
X0298826Y0128795D01*
X0298826Y0126393D01*
X0291460Y0126393D02*
X0291460Y0127594D01*
X0289659Y0127594D01*
X0289058Y0126994D01*
X0289058Y0126393D01*
X0289659Y0125793D01*
X0290860Y0125793D01*
X0291460Y0126393D01*
X0291460Y0127594D02*
X0290259Y0128795D01*
X0289058Y0129396D01*
X0292460Y0111646D02*
X0292460Y0108043D01*
X0293661Y0108043D02*
X0291259Y0108043D01*
X0293661Y0110445D02*
X0292460Y0111646D01*
X0294942Y0111646D02*
X0294942Y0111045D01*
X0297344Y0108643D01*
X0297344Y0108043D01*
X0298625Y0108643D02*
X0299225Y0108043D01*
X0300427Y0108043D01*
X0301027Y0108643D01*
X0301027Y0111045D01*
X0300427Y0111646D01*
X0299225Y0111646D01*
X0298625Y0111045D01*
X0297344Y0111646D02*
X0294942Y0111646D01*
X0293743Y0104396D02*
X0292542Y0104396D01*
X0291942Y0103795D01*
X0291942Y0103195D01*
X0292542Y0102594D01*
X0293743Y0102594D01*
X0294344Y0103195D01*
X0294344Y0103795D01*
X0293743Y0104396D01*
X0293743Y0102594D02*
X0294344Y0101994D01*
X0294344Y0101393D01*
X0293743Y0100793D01*
X0292542Y0100793D01*
X0291942Y0101393D01*
X0291942Y0101994D01*
X0292542Y0102594D01*
X0290661Y0102594D02*
X0289460Y0103795D01*
X0288259Y0104396D01*
X0288859Y0102594D02*
X0290661Y0102594D01*
X0290661Y0101393D01*
X0290060Y0100793D01*
X0288859Y0100793D01*
X0288259Y0101393D01*
X0288259Y0101994D01*
X0288859Y0102594D01*
X0289609Y0096146D02*
X0290810Y0096146D01*
X0291411Y0095545D01*
X0291411Y0094945D01*
X0290810Y0094344D01*
X0289009Y0094344D01*
X0289009Y0093143D02*
X0289009Y0095545D01*
X0289609Y0096146D01*
X0289009Y0093143D02*
X0289609Y0092543D01*
X0290810Y0092543D01*
X0291411Y0093143D01*
X0292692Y0095545D02*
X0295094Y0093143D01*
X0295094Y0092543D01*
X0296375Y0092543D02*
X0297576Y0093744D01*
X0296975Y0093744D02*
X0298777Y0093744D01*
X0298777Y0092543D02*
X0298777Y0096146D01*
X0296975Y0096146D01*
X0296375Y0095545D01*
X0296375Y0094344D01*
X0296975Y0093744D01*
X0295094Y0096146D02*
X0292692Y0096146D01*
X0292692Y0095545D01*
X0295625Y0100793D02*
X0296826Y0101994D01*
X0296225Y0101994D02*
X0298027Y0101994D01*
X0298027Y0100793D02*
X0298027Y0104396D01*
X0296225Y0104396D01*
X0295625Y0103795D01*
X0295625Y0102594D01*
X0296225Y0101994D01*
X0276777Y0099045D02*
X0276777Y0096643D01*
X0276177Y0096043D01*
X0274975Y0096043D01*
X0274375Y0096643D01*
X0273094Y0096643D02*
X0272493Y0096043D01*
X0271292Y0096043D01*
X0270692Y0096643D01*
X0270692Y0097244D01*
X0271292Y0097844D01*
X0273094Y0097844D01*
X0273094Y0096643D01*
X0273094Y0097844D02*
X0271893Y0099045D01*
X0270692Y0099646D01*
X0269411Y0099646D02*
X0269411Y0097844D01*
X0268210Y0098445D01*
X0267609Y0098445D01*
X0267009Y0097844D01*
X0267009Y0096643D01*
X0267609Y0096043D01*
X0268810Y0096043D01*
X0269411Y0096643D01*
X0269411Y0099646D02*
X0267009Y0099646D01*
X0274375Y0099045D02*
X0274975Y0099646D01*
X0276177Y0099646D01*
X0276777Y0099045D01*
X0277159Y0084396D02*
X0278960Y0082594D01*
X0276558Y0082594D01*
X0277159Y0080793D02*
X0277159Y0084396D01*
X0280241Y0084396D02*
X0281442Y0083795D01*
X0282643Y0082594D01*
X0280842Y0082594D01*
X0280241Y0081994D01*
X0280241Y0081393D01*
X0280842Y0080793D01*
X0282043Y0080793D01*
X0282643Y0081393D01*
X0282643Y0082594D01*
X0283924Y0081393D02*
X0284525Y0080793D01*
X0285726Y0080793D01*
X0286326Y0081393D01*
X0286326Y0083795D01*
X0285726Y0084396D01*
X0284525Y0084396D01*
X0283924Y0083795D01*
X0298677Y0072210D02*
X0298677Y0071009D01*
X0299278Y0070409D01*
X0301680Y0072811D01*
X0299278Y0072811D01*
X0298677Y0072210D01*
X0299278Y0070409D02*
X0301680Y0070409D01*
X0302280Y0071009D01*
X0302280Y0072210D01*
X0301680Y0072811D01*
X0301680Y0069128D02*
X0301079Y0069128D01*
X0300479Y0068527D01*
X0300479Y0067326D01*
X0301079Y0066726D01*
X0301680Y0066726D01*
X0302280Y0067326D01*
X0302280Y0068527D01*
X0301680Y0069128D01*
X0300479Y0068527D02*
X0299878Y0069128D01*
X0299278Y0069128D01*
X0298677Y0068527D01*
X0298677Y0067326D01*
X0299278Y0066726D01*
X0299878Y0066726D01*
X0300479Y0067326D01*
X0300479Y0065445D02*
X0299878Y0064844D01*
X0299878Y0063043D01*
X0299878Y0064244D02*
X0298677Y0065445D01*
X0300479Y0065445D02*
X0301680Y0065445D01*
X0302280Y0064844D01*
X0302280Y0063043D01*
X0298677Y0063043D01*
X0300528Y0056061D02*
X0299927Y0055460D01*
X0299927Y0054259D01*
X0300528Y0053659D01*
X0302930Y0056061D01*
X0300528Y0056061D01*
X0302930Y0056061D02*
X0303530Y0055460D01*
X0303530Y0054259D01*
X0302930Y0053659D01*
X0300528Y0053659D01*
X0302930Y0052378D02*
X0300528Y0049976D01*
X0299927Y0049976D01*
X0300528Y0048695D02*
X0299927Y0048094D01*
X0299927Y0046893D01*
X0300528Y0046293D01*
X0302930Y0046293D01*
X0303530Y0046893D01*
X0303530Y0048094D01*
X0302930Y0048695D01*
X0303530Y0049976D02*
X0303530Y0052378D01*
X0302930Y0052378D01*
X0322677Y0051726D02*
X0323278Y0051726D01*
X0325680Y0054128D01*
X0326280Y0054128D01*
X0326280Y0051726D01*
X0325680Y0050445D02*
X0324479Y0050445D01*
X0323878Y0049844D01*
X0323878Y0048043D01*
X0323878Y0049244D02*
X0322677Y0050445D01*
X0322677Y0048043D02*
X0326280Y0048043D01*
X0326280Y0049844D01*
X0325680Y0050445D01*
X0326280Y0055409D02*
X0326280Y0057811D01*
X0325680Y0057811D01*
X0323278Y0055409D01*
X0322677Y0055409D01*
X0322677Y0063793D02*
X0326280Y0063793D01*
X0326280Y0065594D01*
X0325680Y0066195D01*
X0324479Y0066195D01*
X0323878Y0065594D01*
X0323878Y0063793D01*
X0323878Y0064994D02*
X0322677Y0066195D01*
X0323278Y0067476D02*
X0322677Y0068076D01*
X0322677Y0069277D01*
X0323278Y0069878D01*
X0323878Y0069878D01*
X0324479Y0069277D01*
X0324479Y0068076D01*
X0325079Y0067476D01*
X0325680Y0067476D01*
X0326280Y0068076D01*
X0326280Y0069277D01*
X0325680Y0069878D01*
X0325079Y0069878D01*
X0324479Y0069277D01*
X0324479Y0068076D02*
X0323878Y0067476D01*
X0323278Y0067476D01*
X0322677Y0071159D02*
X0322677Y0073561D01*
X0322677Y0072360D02*
X0326280Y0072360D01*
X0325079Y0071159D01*
X0327610Y0087543D02*
X0327610Y0088143D01*
X0325208Y0090545D01*
X0325208Y0091146D01*
X0327610Y0091146D01*
X0328891Y0090545D02*
X0329492Y0091146D01*
X0330693Y0091146D01*
X0331293Y0090545D01*
X0331293Y0088143D01*
X0330693Y0087543D01*
X0329492Y0087543D01*
X0328891Y0088143D01*
X0332548Y0087543D02*
X0333749Y0087543D01*
X0333148Y0087543D02*
X0333148Y0091146D01*
X0332548Y0091146D02*
X0333749Y0091146D01*
X0382427Y0116143D02*
X0382427Y0117344D01*
X0383028Y0117945D01*
X0383028Y0119226D02*
X0382427Y0119226D01*
X0383028Y0119226D02*
X0385430Y0121628D01*
X0386030Y0121628D01*
X0386030Y0119226D01*
X0385430Y0117945D02*
X0386030Y0117344D01*
X0386030Y0116143D01*
X0385430Y0115543D01*
X0383028Y0115543D01*
X0382427Y0116143D01*
X0383028Y0122909D02*
X0383628Y0122909D01*
X0384229Y0123509D01*
X0384229Y0124710D01*
X0383628Y0125311D01*
X0383028Y0125311D01*
X0382427Y0124710D01*
X0382427Y0123509D01*
X0383028Y0122909D01*
X0384229Y0123509D02*
X0384829Y0122909D01*
X0385430Y0122909D01*
X0386030Y0123509D01*
X0386030Y0124710D01*
X0385430Y0125311D01*
X0384829Y0125311D01*
X0384229Y0124710D01*
X0320576Y0149543D02*
X0320576Y0153146D01*
X0318775Y0153146D01*
X0318174Y0152545D01*
X0318174Y0151344D01*
X0318775Y0150744D01*
X0320576Y0150744D01*
X0319375Y0150744D02*
X0318174Y0149543D01*
X0316893Y0150143D02*
X0316293Y0149543D01*
X0315092Y0149543D01*
X0314491Y0150143D01*
X0314491Y0151344D01*
X0315092Y0151945D01*
X0315692Y0151945D01*
X0316893Y0151344D01*
X0316893Y0153146D01*
X0314491Y0153146D01*
X0313210Y0152545D02*
X0312610Y0153146D01*
X0311409Y0153146D01*
X0310808Y0152545D01*
X0313210Y0150143D01*
X0312610Y0149543D01*
X0311409Y0149543D01*
X0310808Y0150143D01*
X0310808Y0152545D01*
X0313210Y0152545D02*
X0313210Y0150143D01*
X0313280Y0158043D02*
X0309677Y0158043D01*
X0310878Y0158043D02*
X0310878Y0159844D01*
X0311479Y0160445D01*
X0312680Y0160445D01*
X0313280Y0159844D01*
X0313280Y0158043D01*
X0310878Y0159244D02*
X0309677Y0160445D01*
X0311479Y0161726D02*
X0311479Y0164128D01*
X0312079Y0165409D02*
X0312680Y0165409D01*
X0313280Y0166009D01*
X0313280Y0167210D01*
X0312680Y0167811D01*
X0312079Y0167811D01*
X0311479Y0167210D01*
X0311479Y0166009D01*
X0312079Y0165409D01*
X0311479Y0166009D02*
X0310878Y0165409D01*
X0310278Y0165409D01*
X0309677Y0166009D01*
X0309677Y0167210D01*
X0310278Y0167811D01*
X0310878Y0167811D01*
X0311479Y0167210D01*
X0313280Y0163527D02*
X0309677Y0163527D01*
X0311479Y0161726D02*
X0313280Y0163527D01*
X0321377Y0166539D02*
X0322578Y0166539D01*
X0321978Y0166539D02*
X0321978Y0170143D01*
X0322578Y0170143D02*
X0321377Y0170143D01*
X0323832Y0169542D02*
X0324433Y0170143D01*
X0325634Y0170143D01*
X0326234Y0169542D01*
X0327516Y0169542D02*
X0328116Y0170143D01*
X0329317Y0170143D01*
X0329918Y0169542D01*
X0329918Y0168941D01*
X0329317Y0168341D01*
X0328717Y0168341D01*
X0329317Y0168341D02*
X0329918Y0167740D01*
X0329918Y0167140D01*
X0329317Y0166539D01*
X0328116Y0166539D01*
X0327516Y0167140D01*
X0326234Y0167140D02*
X0325634Y0166539D01*
X0324433Y0166539D01*
X0323832Y0167140D01*
X0323832Y0169542D01*
X0292277Y0169896D02*
X0292277Y0166293D01*
X0292277Y0167494D02*
X0290475Y0167494D01*
X0289875Y0168094D01*
X0289875Y0169295D01*
X0290475Y0169896D01*
X0292277Y0169896D01*
X0291076Y0167494D02*
X0289875Y0166293D01*
X0288594Y0166893D02*
X0287993Y0166293D01*
X0286792Y0166293D01*
X0286192Y0166893D01*
X0286192Y0168094D01*
X0286792Y0168695D01*
X0287393Y0168695D01*
X0288594Y0168094D01*
X0288594Y0169896D01*
X0286192Y0169896D01*
X0284911Y0169295D02*
X0284310Y0169896D01*
X0283109Y0169896D01*
X0282509Y0169295D01*
X0282509Y0168695D01*
X0283109Y0168094D01*
X0282509Y0167494D01*
X0282509Y0166893D01*
X0283109Y0166293D01*
X0284310Y0166293D01*
X0284911Y0166893D01*
X0283710Y0168094D02*
X0283109Y0168094D01*
X0283359Y0173543D02*
X0282759Y0174143D01*
X0282759Y0174744D01*
X0283359Y0175344D01*
X0285161Y0175344D01*
X0285161Y0174143D01*
X0284560Y0173543D01*
X0283359Y0173543D01*
X0285161Y0175344D02*
X0283960Y0176545D01*
X0282759Y0177146D01*
X0286442Y0175344D02*
X0288844Y0175344D01*
X0287042Y0177146D01*
X0287042Y0173543D01*
X0290125Y0174143D02*
X0290725Y0173543D01*
X0291927Y0173543D01*
X0292527Y0174143D01*
X0292527Y0176545D01*
X0291927Y0177146D01*
X0290725Y0177146D01*
X0290125Y0176545D01*
X0290725Y0181543D02*
X0290125Y0182143D01*
X0290725Y0181543D02*
X0291927Y0181543D01*
X0292527Y0182143D01*
X0292527Y0184545D01*
X0291927Y0185146D01*
X0290725Y0185146D01*
X0290125Y0184545D01*
X0288844Y0183344D02*
X0286442Y0183344D01*
X0285161Y0182143D02*
X0284560Y0181543D01*
X0283359Y0181543D01*
X0282759Y0182143D01*
X0282759Y0182744D01*
X0283359Y0183344D01*
X0283960Y0183344D01*
X0283359Y0183344D02*
X0282759Y0183945D01*
X0282759Y0184545D01*
X0283359Y0185146D01*
X0284560Y0185146D01*
X0285161Y0184545D01*
X0287042Y0185146D02*
X0288844Y0183344D01*
X0287042Y0181543D02*
X0287042Y0185146D01*
X0287042Y0189043D02*
X0287042Y0192646D01*
X0288844Y0190844D01*
X0286442Y0190844D01*
X0285161Y0190844D02*
X0283960Y0191445D01*
X0283359Y0191445D01*
X0282759Y0190844D01*
X0282759Y0189643D01*
X0283359Y0189043D01*
X0284560Y0189043D01*
X0285161Y0189643D01*
X0285161Y0190844D02*
X0285161Y0192646D01*
X0282759Y0192646D01*
X0283359Y0196293D02*
X0282759Y0196893D01*
X0282759Y0197494D01*
X0283359Y0198094D01*
X0285161Y0198094D01*
X0285161Y0196893D01*
X0284560Y0196293D01*
X0283359Y0196293D01*
X0285161Y0198094D02*
X0283960Y0199295D01*
X0282759Y0199896D01*
X0286442Y0198094D02*
X0288844Y0198094D01*
X0287042Y0199896D01*
X0287042Y0196293D01*
X0290125Y0196293D02*
X0291326Y0197494D01*
X0290725Y0197494D02*
X0292527Y0197494D01*
X0292527Y0196293D02*
X0292527Y0199896D01*
X0290725Y0199896D01*
X0290125Y0199295D01*
X0290125Y0198094D01*
X0290725Y0197494D01*
X0290725Y0192646D02*
X0290125Y0192045D01*
X0290125Y0190844D01*
X0290725Y0190244D01*
X0292527Y0190244D01*
X0291326Y0190244D02*
X0290125Y0189043D01*
X0292527Y0189043D02*
X0292527Y0192646D01*
X0290725Y0192646D01*
X0268076Y0192244D02*
X0266275Y0192244D01*
X0265674Y0192844D01*
X0265674Y0194045D01*
X0266275Y0194646D01*
X0268076Y0194646D01*
X0268076Y0191043D01*
X0266875Y0192244D02*
X0265674Y0191043D01*
X0264393Y0192844D02*
X0262592Y0194646D01*
X0262592Y0191043D01*
X0261991Y0192844D02*
X0264393Y0192844D01*
X0260710Y0192844D02*
X0258308Y0192844D01*
X0258909Y0191043D02*
X0258909Y0194646D01*
X0260710Y0192844D01*
X0232907Y0191646D02*
X0232907Y0188043D01*
X0232907Y0189244D02*
X0231105Y0189244D01*
X0230505Y0189844D01*
X0230505Y0191045D01*
X0231105Y0191646D01*
X0232907Y0191646D01*
X0229224Y0191646D02*
X0229224Y0188643D01*
X0228623Y0188043D01*
X0227422Y0188043D01*
X0226822Y0188643D01*
X0226822Y0191646D01*
X0225541Y0191045D02*
X0225541Y0190445D01*
X0224940Y0189844D01*
X0223739Y0189844D01*
X0223139Y0189244D01*
X0223139Y0188643D01*
X0223739Y0188043D01*
X0224940Y0188043D01*
X0225541Y0188643D01*
X0225541Y0191045D02*
X0224940Y0191646D01*
X0223739Y0191646D01*
X0223139Y0191045D01*
X0221858Y0191646D02*
X0221858Y0188043D01*
X0221858Y0189844D02*
X0219455Y0189844D01*
X0219455Y0188043D02*
X0219455Y0191646D01*
X0260227Y0173858D02*
X0260828Y0174459D01*
X0262029Y0174459D01*
X0262629Y0173858D01*
X0262629Y0173258D01*
X0262029Y0172657D01*
X0260227Y0172657D01*
X0260227Y0171456D02*
X0260227Y0173858D01*
X0260227Y0171456D02*
X0260828Y0170856D01*
X0262029Y0170856D01*
X0262629Y0171456D01*
X0263911Y0170856D02*
X0266313Y0170856D01*
X0265112Y0170856D02*
X0265112Y0174459D01*
X0266313Y0173258D01*
X0267594Y0173858D02*
X0268194Y0174459D01*
X0269996Y0174459D01*
X0269996Y0170856D01*
X0268194Y0170856D01*
X0267594Y0171456D01*
X0267594Y0173858D01*
X0282177Y0161161D02*
X0282177Y0159960D01*
X0282778Y0159359D01*
X0285180Y0161761D01*
X0282778Y0161761D01*
X0282177Y0161161D01*
X0282778Y0159359D02*
X0285180Y0159359D01*
X0285780Y0159960D01*
X0285780Y0161161D01*
X0285180Y0161761D01*
X0285180Y0158078D02*
X0285780Y0157478D01*
X0285780Y0156277D01*
X0285180Y0155676D01*
X0285180Y0154395D02*
X0282778Y0154395D01*
X0282177Y0153795D01*
X0282177Y0151993D01*
X0285780Y0151993D01*
X0285780Y0153795D01*
X0285180Y0154395D01*
X0282177Y0155676D02*
X0284579Y0158078D01*
X0285180Y0158078D01*
X0282177Y0158078D02*
X0282177Y0155676D01*
X0226277Y0131045D02*
X0226277Y0130445D01*
X0225677Y0129844D01*
X0224475Y0129844D01*
X0223875Y0129244D01*
X0223875Y0128643D01*
X0224475Y0128043D01*
X0225677Y0128043D01*
X0226277Y0128643D01*
X0226277Y0131045D02*
X0225677Y0131646D01*
X0224475Y0131646D01*
X0223875Y0131045D01*
X0222594Y0131646D02*
X0220792Y0131646D01*
X0220192Y0131045D01*
X0220192Y0129844D01*
X0220792Y0129244D01*
X0222594Y0129244D01*
X0221393Y0129244D02*
X0220192Y0128043D01*
X0218911Y0128043D02*
X0218911Y0131646D01*
X0216509Y0131646D01*
X0215228Y0131045D02*
X0215228Y0128643D01*
X0214627Y0128043D01*
X0213426Y0128043D01*
X0212826Y0128643D01*
X0211544Y0128043D02*
X0209142Y0130445D01*
X0209142Y0131045D01*
X0209743Y0131646D01*
X0210944Y0131646D01*
X0211544Y0131045D01*
X0212826Y0131045D02*
X0213426Y0131646D01*
X0214627Y0131646D01*
X0215228Y0131045D01*
X0217710Y0129844D02*
X0218911Y0129844D01*
X0218911Y0128043D02*
X0216509Y0128043D01*
X0211544Y0128043D02*
X0209142Y0128043D01*
X0222594Y0128043D02*
X0222594Y0131646D01*
X0221844Y0082646D02*
X0220042Y0082646D01*
X0219442Y0082045D01*
X0219442Y0080844D01*
X0220042Y0080244D01*
X0221844Y0080244D01*
X0220643Y0080244D02*
X0219442Y0079043D01*
X0218161Y0079043D02*
X0215759Y0079043D01*
X0214478Y0079643D02*
X0213877Y0079043D01*
X0212676Y0079043D01*
X0212076Y0079643D01*
X0210794Y0079043D02*
X0208392Y0079043D01*
X0209593Y0079043D02*
X0209593Y0082646D01*
X0210794Y0081445D01*
X0212076Y0082045D02*
X0212676Y0082646D01*
X0213877Y0082646D01*
X0214478Y0082045D01*
X0214478Y0079643D01*
X0216960Y0080844D02*
X0218161Y0080844D01*
X0218161Y0079043D02*
X0218161Y0082646D01*
X0215759Y0082646D01*
X0221844Y0082646D02*
X0221844Y0079043D01*
X0223125Y0079643D02*
X0223725Y0079043D01*
X0224927Y0079043D01*
X0225527Y0079643D01*
X0224927Y0080844D02*
X0223725Y0080844D01*
X0223125Y0080244D01*
X0223125Y0079643D01*
X0224927Y0080844D02*
X0225527Y0081445D01*
X0225527Y0082045D01*
X0224927Y0082646D01*
X0223725Y0082646D01*
X0223125Y0082045D01*
X0400312Y0233543D02*
X0403381Y0233543D01*
X0404916Y0233543D02*
X0406450Y0235077D01*
X0404916Y0234310D02*
X0405683Y0233543D01*
X0407218Y0233543D01*
X0407985Y0234310D01*
X0407985Y0237379D01*
X0407218Y0238146D01*
X0405683Y0238146D01*
X0404916Y0237379D01*
X0404916Y0234310D01*
X0403381Y0236612D02*
X0401846Y0238146D01*
X0401846Y0233543D01*
X0425558Y0240393D02*
X0425558Y0240994D01*
X0426159Y0241594D01*
X0427960Y0241594D01*
X0427960Y0240393D01*
X0427360Y0239793D01*
X0426159Y0239793D01*
X0425558Y0240393D01*
X0426759Y0242795D02*
X0425558Y0243396D01*
X0426759Y0242795D02*
X0427960Y0241594D01*
X0429241Y0240393D02*
X0429842Y0239793D01*
X0431043Y0239793D01*
X0431643Y0240393D01*
X0431643Y0242795D01*
X0431043Y0243396D01*
X0429842Y0243396D01*
X0429241Y0242795D01*
X0428280Y0249926D02*
X0424677Y0249926D01*
X0425878Y0249926D02*
X0425878Y0251728D01*
X0426479Y0252328D01*
X0427680Y0252328D01*
X0428280Y0251728D01*
X0428280Y0249926D01*
X0425878Y0251127D02*
X0424677Y0252328D01*
X0426479Y0253609D02*
X0426479Y0256011D01*
X0428280Y0255411D02*
X0424677Y0255411D01*
X0426479Y0253609D02*
X0428280Y0255411D01*
X0427680Y0264293D02*
X0425278Y0264293D01*
X0424677Y0264893D01*
X0424677Y0266094D01*
X0425278Y0266695D01*
X0425278Y0267976D02*
X0425878Y0267976D01*
X0426479Y0268576D01*
X0426479Y0269777D01*
X0425878Y0270378D01*
X0425278Y0270378D01*
X0424677Y0269777D01*
X0424677Y0268576D01*
X0425278Y0267976D01*
X0426479Y0268576D02*
X0427079Y0267976D01*
X0427680Y0267976D01*
X0428280Y0268576D01*
X0428280Y0269777D01*
X0427680Y0270378D01*
X0427079Y0270378D01*
X0426479Y0269777D01*
X0427680Y0266695D02*
X0428280Y0266094D01*
X0428280Y0264893D01*
X0427680Y0264293D01*
X0412967Y0276712D02*
X0412967Y0279114D01*
X0412367Y0279114D01*
X0409965Y0276712D01*
X0409364Y0276712D01*
X0409364Y0279114D01*
X0409364Y0280395D02*
X0409364Y0282196D01*
X0409965Y0282797D01*
X0412367Y0282797D01*
X0412967Y0282196D01*
X0412967Y0280395D01*
X0409364Y0280395D01*
X0409364Y0284078D02*
X0409364Y0286480D01*
X0409364Y0285279D02*
X0412967Y0285279D01*
X0411766Y0284078D01*
X0455427Y0255960D02*
X0459030Y0255960D01*
X0457229Y0254159D01*
X0457229Y0256561D01*
X0457829Y0252878D02*
X0458430Y0252878D01*
X0459030Y0252277D01*
X0459030Y0251076D01*
X0458430Y0250476D01*
X0458430Y0249195D02*
X0459030Y0248594D01*
X0459030Y0247393D01*
X0458430Y0246793D01*
X0456028Y0246793D01*
X0455427Y0247393D01*
X0455427Y0248594D01*
X0456028Y0249195D01*
X0455427Y0250476D02*
X0457829Y0252878D01*
X0455427Y0252878D02*
X0455427Y0250476D01*
X0452780Y0251759D02*
X0452780Y0252960D01*
X0452180Y0253561D01*
X0451579Y0253561D01*
X0450979Y0252960D01*
X0450979Y0251759D01*
X0451579Y0251159D01*
X0452180Y0251159D01*
X0452780Y0251759D01*
X0450979Y0251759D02*
X0450378Y0251159D01*
X0449778Y0251159D01*
X0449177Y0251759D01*
X0449177Y0252960D01*
X0449778Y0253561D01*
X0450378Y0253561D01*
X0450979Y0252960D01*
X0449177Y0249878D02*
X0449177Y0247476D01*
X0449177Y0248677D02*
X0452780Y0248677D01*
X0451579Y0247476D01*
X0452180Y0246195D02*
X0452780Y0245594D01*
X0452780Y0244393D01*
X0452180Y0243793D01*
X0449778Y0243793D01*
X0449177Y0244393D01*
X0449177Y0245594D01*
X0449778Y0246195D01*
X0471677Y0246793D02*
X0475280Y0246793D01*
X0475280Y0248594D01*
X0474680Y0249195D01*
X0473479Y0249195D01*
X0472878Y0248594D01*
X0472878Y0246793D01*
X0472878Y0247994D02*
X0471677Y0249195D01*
X0471677Y0250476D02*
X0471677Y0252878D01*
X0471677Y0251677D02*
X0475280Y0251677D01*
X0474079Y0250476D01*
X0474680Y0254159D02*
X0475280Y0254759D01*
X0475280Y0255960D01*
X0474680Y0256561D01*
X0474079Y0256561D01*
X0471677Y0254159D01*
X0471677Y0256561D01*
X0482558Y0234646D02*
X0484960Y0234646D01*
X0484960Y0232844D01*
X0483759Y0233445D01*
X0483159Y0233445D01*
X0482558Y0232844D01*
X0482558Y0231643D01*
X0483159Y0231043D01*
X0484360Y0231043D01*
X0484960Y0231643D01*
X0486241Y0231043D02*
X0488643Y0231043D01*
X0487442Y0231043D02*
X0487442Y0234646D01*
X0488643Y0233445D01*
X0489924Y0234045D02*
X0489924Y0232844D01*
X0490525Y0232244D01*
X0492326Y0232244D01*
X0491125Y0232244D02*
X0489924Y0231043D01*
X0492326Y0231043D02*
X0492326Y0234646D01*
X0490525Y0234646D01*
X0489924Y0234045D01*
X0505927Y0233176D02*
X0509530Y0233176D01*
X0509530Y0234978D01*
X0508930Y0235578D01*
X0507729Y0235578D01*
X0507128Y0234978D01*
X0507128Y0233176D01*
X0507128Y0234377D02*
X0505927Y0235578D01*
X0506528Y0236859D02*
X0507128Y0236859D01*
X0507729Y0237460D01*
X0507729Y0238661D01*
X0507128Y0239261D01*
X0506528Y0239261D01*
X0505927Y0238661D01*
X0505927Y0237460D01*
X0506528Y0236859D01*
X0507729Y0237460D02*
X0508329Y0236859D01*
X0508930Y0236859D01*
X0509530Y0237460D01*
X0509530Y0238661D01*
X0508930Y0239261D01*
X0508329Y0239261D01*
X0507729Y0238661D01*
X0507878Y0252043D02*
X0507878Y0253844D01*
X0508479Y0254445D01*
X0509680Y0254445D01*
X0510280Y0253844D01*
X0510280Y0252043D01*
X0506677Y0252043D01*
X0507878Y0253244D02*
X0506677Y0254445D01*
X0506677Y0255726D02*
X0507278Y0255726D01*
X0509680Y0258128D01*
X0510280Y0258128D01*
X0510280Y0255726D01*
X0499030Y0218761D02*
X0498430Y0217560D01*
X0497229Y0216359D01*
X0497229Y0218161D01*
X0496628Y0218761D01*
X0496028Y0218761D01*
X0495427Y0218161D01*
X0495427Y0216960D01*
X0496028Y0216359D01*
X0497229Y0216359D01*
X0495427Y0215078D02*
X0495427Y0212676D01*
X0495427Y0213877D02*
X0499030Y0213877D01*
X0497829Y0212676D01*
X0498430Y0211395D02*
X0497229Y0211395D01*
X0496628Y0210795D01*
X0496628Y0208993D01*
X0495427Y0208993D02*
X0499030Y0208993D01*
X0499030Y0210795D01*
X0498430Y0211395D01*
X0496628Y0210194D02*
X0495427Y0211395D01*
X0485326Y0205045D02*
X0484726Y0205646D01*
X0483525Y0205646D01*
X0482924Y0205045D01*
X0481643Y0205045D02*
X0481043Y0205646D01*
X0479842Y0205646D01*
X0479241Y0205045D01*
X0479241Y0204445D01*
X0481643Y0202043D01*
X0479241Y0202043D01*
X0477960Y0202643D02*
X0477360Y0202043D01*
X0476159Y0202043D01*
X0475558Y0202643D01*
X0475558Y0203844D01*
X0476159Y0204445D01*
X0476759Y0204445D01*
X0477960Y0203844D01*
X0477960Y0205646D01*
X0475558Y0205646D01*
X0482924Y0202643D02*
X0483525Y0202043D01*
X0484726Y0202043D01*
X0485326Y0202643D01*
X0485326Y0205045D01*
X0492927Y0192011D02*
X0492927Y0189609D01*
X0492927Y0190810D02*
X0496530Y0190810D01*
X0495329Y0189609D01*
X0496530Y0188328D02*
X0494128Y0185926D01*
X0494729Y0186527D02*
X0492927Y0188328D01*
X0492927Y0185926D02*
X0496530Y0185926D01*
X0495930Y0184645D02*
X0496530Y0184045D01*
X0496530Y0182844D01*
X0495930Y0182243D01*
X0493528Y0182243D01*
X0492927Y0182844D01*
X0492927Y0184045D01*
X0493528Y0184645D01*
X0495930Y0184645D01*
X0504909Y0152896D02*
X0504308Y0152295D01*
X0504308Y0151695D01*
X0504909Y0151094D01*
X0504308Y0150494D01*
X0504308Y0149893D01*
X0504909Y0149293D01*
X0506110Y0149293D01*
X0506710Y0149893D01*
X0507991Y0149293D02*
X0510393Y0149293D01*
X0509192Y0149293D02*
X0509192Y0152896D01*
X0510393Y0151695D01*
X0511674Y0152295D02*
X0511674Y0151094D01*
X0512275Y0150494D01*
X0514076Y0150494D01*
X0512875Y0150494D02*
X0511674Y0149293D01*
X0514076Y0149293D02*
X0514076Y0152896D01*
X0512275Y0152896D01*
X0511674Y0152295D01*
X0506710Y0152295D02*
X0506110Y0152896D01*
X0504909Y0152896D01*
X0504909Y0151094D02*
X0505509Y0151094D01*
X0505710Y0145396D02*
X0503308Y0145396D01*
X0503308Y0144795D01*
X0505710Y0142393D01*
X0505710Y0141793D01*
X0506991Y0141793D02*
X0509393Y0141793D01*
X0508192Y0141793D02*
X0508192Y0145396D01*
X0509393Y0144195D01*
X0510674Y0144795D02*
X0510674Y0143594D01*
X0511275Y0142994D01*
X0513076Y0142994D01*
X0511875Y0142994D02*
X0510674Y0141793D01*
X0513076Y0141793D02*
X0513076Y0145396D01*
X0511275Y0145396D01*
X0510674Y0144795D01*
X0534757Y0141445D02*
X0535958Y0142646D01*
X0537239Y0142646D02*
X0537239Y0140244D01*
X0538440Y0139043D01*
X0539641Y0140244D01*
X0539641Y0142646D01*
X0540922Y0142646D02*
X0543324Y0142646D01*
X0543324Y0140844D01*
X0542123Y0141445D01*
X0541523Y0141445D01*
X0540922Y0140844D01*
X0540922Y0139643D01*
X0541523Y0139043D01*
X0542724Y0139043D01*
X0543324Y0139643D01*
X0544566Y0139643D02*
X0544566Y0139043D01*
X0545166Y0139043D01*
X0545166Y0139643D01*
X0544566Y0139643D01*
X0546447Y0139043D02*
X0548849Y0139043D01*
X0546447Y0141445D01*
X0546447Y0142045D01*
X0547048Y0142646D01*
X0548249Y0142646D01*
X0548849Y0142045D01*
X0553773Y0139643D02*
X0553773Y0139043D01*
X0554374Y0139043D01*
X0554374Y0139643D01*
X0553773Y0139643D01*
X0555655Y0139043D02*
X0558057Y0141445D01*
X0559338Y0140844D02*
X0559338Y0139043D01*
X0561140Y0139043D01*
X0561740Y0139643D01*
X0561140Y0140244D01*
X0559338Y0140244D01*
X0559338Y0140844D02*
X0559939Y0141445D01*
X0561140Y0141445D01*
X0563021Y0140844D02*
X0563021Y0139043D01*
X0564222Y0139043D02*
X0564222Y0140844D01*
X0563622Y0141445D01*
X0563021Y0140844D01*
X0564222Y0140844D02*
X0564823Y0141445D01*
X0565423Y0141445D01*
X0565423Y0139043D01*
X0566678Y0139043D02*
X0567879Y0140244D01*
X0567879Y0141445D01*
X0566678Y0142646D01*
X0572843Y0140844D02*
X0575245Y0140844D01*
X0574044Y0142045D02*
X0574044Y0139643D01*
X0576526Y0139043D02*
X0576526Y0142646D01*
X0576526Y0145043D02*
X0576526Y0148646D01*
X0575245Y0146844D02*
X0572843Y0146844D01*
X0576526Y0145043D02*
X0578928Y0148646D01*
X0578928Y0145043D01*
X0580209Y0145643D02*
X0580209Y0148045D01*
X0580810Y0148646D01*
X0582011Y0148646D01*
X0582611Y0148045D01*
X0582611Y0145643D01*
X0582011Y0145043D01*
X0580810Y0145043D01*
X0580209Y0145643D01*
X0580810Y0142646D02*
X0580209Y0142045D01*
X0580209Y0139643D01*
X0580810Y0139043D01*
X0582011Y0139043D01*
X0582611Y0139643D01*
X0582611Y0142045D01*
X0582011Y0142646D01*
X0580810Y0142646D01*
X0578928Y0142646D02*
X0576526Y0139043D01*
X0575445Y0137443D02*
X0593861Y0137443D01*
X0593661Y0136646D02*
X0591259Y0136646D01*
X0589978Y0135445D02*
X0588777Y0136646D01*
X0587576Y0135445D01*
X0587576Y0133043D01*
X0586294Y0133643D02*
X0585694Y0133043D01*
X0584493Y0133043D01*
X0583892Y0133643D01*
X0583892Y0136646D01*
X0582611Y0136646D02*
X0582611Y0133043D01*
X0580209Y0133043D01*
X0577727Y0133043D02*
X0577727Y0136646D01*
X0578928Y0136646D02*
X0576526Y0136646D01*
X0578928Y0139043D02*
X0578928Y0142646D01*
X0583892Y0142646D02*
X0583892Y0139043D01*
X0586294Y0139043D02*
X0586294Y0142646D01*
X0585093Y0141445D01*
X0583892Y0142646D01*
X0583892Y0145043D02*
X0583892Y0148646D01*
X0585093Y0147445D01*
X0586294Y0148646D01*
X0586294Y0145043D01*
X0587576Y0144442D02*
X0589978Y0144442D01*
X0591259Y0145643D02*
X0591259Y0148646D01*
X0593661Y0148646D02*
X0593661Y0145643D01*
X0593060Y0145043D01*
X0591859Y0145043D01*
X0591259Y0145643D01*
X0591259Y0142646D02*
X0591259Y0139643D01*
X0591859Y0139043D01*
X0593060Y0139043D01*
X0593661Y0139643D01*
X0593661Y0142646D01*
X0598625Y0142646D02*
X0601027Y0142646D01*
X0601027Y0140844D01*
X0599826Y0141445D01*
X0599225Y0141445D01*
X0598625Y0140844D01*
X0598625Y0139643D01*
X0599225Y0139043D01*
X0600427Y0139043D01*
X0601027Y0139643D01*
X0599225Y0136646D02*
X0601027Y0134844D01*
X0598625Y0134844D01*
X0599225Y0133043D02*
X0599225Y0136646D01*
X0593661Y0136646D02*
X0593661Y0133043D01*
X0593661Y0134844D02*
X0592460Y0134844D01*
X0589978Y0134844D02*
X0587576Y0134844D01*
X0586294Y0133643D02*
X0586294Y0136646D01*
X0587576Y0138442D02*
X0589978Y0138442D01*
X0589978Y0135445D02*
X0589978Y0133043D01*
X0591259Y0130646D02*
X0591259Y0128244D01*
X0592460Y0127043D01*
X0593661Y0128244D01*
X0593661Y0130646D01*
X0589978Y0128844D02*
X0587576Y0128844D01*
X0588777Y0130045D02*
X0588777Y0127643D01*
X0588176Y0123445D02*
X0587576Y0122844D01*
X0587576Y0121043D01*
X0586294Y0121643D02*
X0586294Y0122844D01*
X0585694Y0123445D01*
X0583892Y0123445D01*
X0583892Y0124646D02*
X0583892Y0121043D01*
X0585694Y0121043D01*
X0586294Y0121643D01*
X0588176Y0123445D02*
X0589978Y0123445D01*
X0589978Y0121043D01*
X0591259Y0121643D02*
X0591259Y0122844D01*
X0592460Y0122844D01*
X0593661Y0121643D02*
X0593060Y0121043D01*
X0591859Y0121043D01*
X0591259Y0121643D01*
X0593661Y0121643D02*
X0593661Y0124045D01*
X0593060Y0124646D01*
X0591859Y0124646D01*
X0591259Y0124045D01*
X0598625Y0124045D02*
X0599225Y0124646D01*
X0600427Y0124646D01*
X0601027Y0124045D01*
X0598625Y0124045D02*
X0598625Y0123445D01*
X0601027Y0121043D01*
X0598625Y0121043D01*
X0599826Y0118646D02*
X0599826Y0115043D01*
X0601027Y0115043D02*
X0598625Y0115043D01*
X0601027Y0117445D02*
X0599826Y0118646D01*
X0593661Y0118646D02*
X0593661Y0116244D01*
X0592460Y0115043D01*
X0591259Y0116244D01*
X0591259Y0118646D01*
X0589978Y0116844D02*
X0587576Y0116844D01*
X0598625Y0127643D02*
X0599225Y0127043D01*
X0600427Y0127043D01*
X0601027Y0127643D01*
X0599826Y0128844D02*
X0599225Y0128844D01*
X0598625Y0128244D01*
X0598625Y0127643D01*
X0599225Y0128844D02*
X0598625Y0129445D01*
X0598625Y0130045D01*
X0599225Y0130646D01*
X0600427Y0130646D01*
X0601027Y0130045D01*
X0600427Y0145043D02*
X0599225Y0145043D01*
X0598625Y0145643D01*
X0598625Y0146244D01*
X0599225Y0146844D01*
X0601027Y0146844D01*
X0601027Y0145643D01*
X0600427Y0145043D01*
X0601027Y0146844D02*
X0599826Y0148045D01*
X0598625Y0148646D01*
X0601027Y0151043D02*
X0601027Y0151643D01*
X0598625Y0154045D01*
X0598625Y0154646D01*
X0601027Y0154646D01*
X0600427Y0157043D02*
X0601027Y0157643D01*
X0601027Y0158244D01*
X0600427Y0158844D01*
X0599225Y0158844D01*
X0598625Y0158244D01*
X0598625Y0157643D01*
X0599225Y0157043D01*
X0600427Y0157043D01*
X0600427Y0158844D02*
X0601027Y0159445D01*
X0601027Y0160045D01*
X0600427Y0160646D01*
X0599225Y0160646D01*
X0598625Y0160045D01*
X0598625Y0159445D01*
X0599225Y0158844D01*
X0593661Y0158844D02*
X0591859Y0158844D01*
X0591259Y0158244D01*
X0591259Y0157643D01*
X0591859Y0157043D01*
X0593661Y0157043D01*
X0593661Y0160646D01*
X0591859Y0160646D01*
X0591259Y0160045D01*
X0591259Y0159445D01*
X0591859Y0158844D01*
X0589978Y0159445D02*
X0589377Y0159445D01*
X0589377Y0157043D01*
X0588777Y0157043D02*
X0589978Y0157043D01*
X0589377Y0155246D02*
X0589377Y0154646D01*
X0589377Y0153445D02*
X0589377Y0151043D01*
X0588777Y0151043D02*
X0589978Y0151043D01*
X0591259Y0151643D02*
X0591859Y0151043D01*
X0593661Y0151043D01*
X0593661Y0154646D01*
X0591859Y0154646D01*
X0591259Y0154045D01*
X0591259Y0153445D01*
X0591859Y0152844D01*
X0593661Y0152844D01*
X0591859Y0152844D02*
X0591259Y0152244D01*
X0591259Y0151643D01*
X0589978Y0153445D02*
X0589377Y0153445D01*
X0586922Y0153445D02*
X0585721Y0153445D01*
X0585120Y0152844D01*
X0585120Y0151043D01*
X0586922Y0151043D01*
X0587522Y0151643D01*
X0586922Y0152244D01*
X0585120Y0152244D01*
X0583839Y0152844D02*
X0583239Y0153445D01*
X0581437Y0153445D01*
X0582037Y0152244D02*
X0581437Y0151643D01*
X0582037Y0151043D01*
X0583839Y0151043D01*
X0583239Y0152244D02*
X0583839Y0152844D01*
X0583239Y0152244D02*
X0582037Y0152244D01*
X0580156Y0152844D02*
X0577754Y0152844D01*
X0578955Y0157643D02*
X0578955Y0160045D01*
X0580156Y0158844D02*
X0577754Y0158844D01*
X0581437Y0159445D02*
X0583239Y0159445D01*
X0583839Y0158844D01*
X0583239Y0158244D01*
X0582037Y0158244D01*
X0581437Y0157643D01*
X0582037Y0157043D01*
X0583839Y0157043D01*
X0585120Y0157043D02*
X0586922Y0157043D01*
X0587522Y0157643D01*
X0586922Y0158244D01*
X0585120Y0158244D01*
X0585120Y0158844D02*
X0585120Y0157043D01*
X0585120Y0158844D02*
X0585721Y0159445D01*
X0586922Y0159445D01*
X0589377Y0160646D02*
X0589377Y0161246D01*
X0588209Y0167543D02*
X0588209Y0169344D01*
X0588810Y0169945D01*
X0590611Y0169945D01*
X0590611Y0167543D01*
X0591892Y0168143D02*
X0591892Y0169344D01*
X0592493Y0169945D01*
X0593694Y0169945D01*
X0594294Y0169344D01*
X0594294Y0168143D01*
X0593694Y0167543D01*
X0592493Y0167543D01*
X0591892Y0168143D01*
X0595576Y0167543D02*
X0597377Y0167543D01*
X0597978Y0168143D01*
X0597978Y0169344D01*
X0597377Y0169945D01*
X0595576Y0169945D01*
X0602942Y0169945D02*
X0602942Y0170545D01*
X0603542Y0171146D01*
X0604743Y0171146D01*
X0605344Y0170545D01*
X0606625Y0171146D02*
X0609027Y0167543D01*
X0606625Y0167543D02*
X0609027Y0171146D01*
X0605344Y0167543D02*
X0602942Y0169945D01*
X0602942Y0167543D02*
X0605344Y0167543D01*
X0586928Y0167543D02*
X0586928Y0169945D01*
X0585127Y0169945D01*
X0584526Y0169344D01*
X0584526Y0167543D01*
X0583245Y0168143D02*
X0583245Y0169344D01*
X0582645Y0169945D01*
X0581443Y0169945D01*
X0580843Y0169344D01*
X0580843Y0168744D01*
X0583245Y0168744D01*
X0583245Y0168143D02*
X0582645Y0167543D01*
X0581443Y0167543D01*
X0579562Y0168143D02*
X0578961Y0167543D01*
X0577160Y0167543D01*
X0575278Y0168143D02*
X0574678Y0167543D01*
X0575278Y0168143D02*
X0575278Y0170545D01*
X0574678Y0169945D02*
X0575879Y0169945D01*
X0577160Y0169945D02*
X0578961Y0169945D01*
X0579562Y0169344D01*
X0579562Y0168143D01*
X0573423Y0168143D02*
X0572823Y0167543D01*
X0571622Y0167543D01*
X0571021Y0168143D01*
X0571021Y0169344D01*
X0571622Y0169945D01*
X0572823Y0169945D01*
X0573423Y0169344D01*
X0573423Y0168143D01*
X0569740Y0167543D02*
X0569740Y0169945D01*
X0569740Y0168744D02*
X0568539Y0169945D01*
X0567939Y0169945D01*
X0555655Y0141445D02*
X0558057Y0139043D01*
X0535958Y0139043D02*
X0534757Y0140244D01*
X0534757Y0141445D01*
X0486496Y0136209D02*
X0484094Y0136209D01*
X0484094Y0135608D01*
X0486496Y0133206D01*
X0486496Y0132606D01*
X0484094Y0132606D01*
X0482813Y0132606D02*
X0481011Y0132606D01*
X0480411Y0133206D01*
X0480411Y0135608D01*
X0481011Y0136209D01*
X0482813Y0136209D01*
X0482813Y0132606D01*
X0479129Y0133206D02*
X0478529Y0132606D01*
X0477328Y0132606D01*
X0476727Y0133206D01*
X0476727Y0133807D01*
X0477328Y0134407D01*
X0477928Y0134407D01*
X0477328Y0134407D02*
X0476727Y0135008D01*
X0476727Y0135608D01*
X0477328Y0136209D01*
X0478529Y0136209D01*
X0479129Y0135608D01*
X0514930Y0058061D02*
X0512528Y0055659D01*
X0511927Y0055659D01*
X0512528Y0054378D02*
X0513128Y0054378D01*
X0513729Y0053777D01*
X0513729Y0051976D01*
X0512528Y0051976D01*
X0511927Y0052576D01*
X0511927Y0053777D01*
X0512528Y0054378D01*
X0514930Y0053177D02*
X0513729Y0051976D01*
X0513729Y0050695D02*
X0513128Y0050094D01*
X0513128Y0048293D01*
X0513128Y0049494D02*
X0511927Y0050695D01*
X0513729Y0050695D02*
X0514930Y0050695D01*
X0515530Y0050094D01*
X0515530Y0048293D01*
X0511927Y0048293D01*
X0514930Y0053177D02*
X0515530Y0054378D01*
X0515530Y0055659D02*
X0515530Y0058061D01*
X0514930Y0058061D01*
X0476826Y0036396D02*
X0476826Y0032793D01*
X0476826Y0033994D02*
X0475025Y0033994D01*
X0474424Y0034594D01*
X0474424Y0035795D01*
X0475025Y0036396D01*
X0476826Y0036396D01*
X0475625Y0033994D02*
X0474424Y0032793D01*
X0473143Y0033393D02*
X0472543Y0032793D01*
X0471342Y0032793D01*
X0470741Y0033393D01*
X0470741Y0033994D01*
X0471342Y0034594D01*
X0473143Y0034594D01*
X0473143Y0033393D01*
X0473143Y0034594D02*
X0471942Y0035795D01*
X0470741Y0036396D01*
X0469460Y0035795D02*
X0468860Y0036396D01*
X0467659Y0036396D01*
X0467058Y0035795D01*
X0467058Y0035195D01*
X0467659Y0034594D01*
X0467058Y0033994D01*
X0467058Y0033393D01*
X0467659Y0032793D01*
X0468860Y0032793D01*
X0469460Y0033393D01*
X0468259Y0034594D02*
X0467659Y0034594D01*
X0560177Y0035893D02*
X0560778Y0035293D01*
X0563180Y0035293D01*
X0563780Y0035893D01*
X0563780Y0037094D01*
X0563180Y0037695D01*
X0561979Y0038976D02*
X0561979Y0040777D01*
X0561378Y0041378D01*
X0560778Y0041378D01*
X0560177Y0040777D01*
X0560177Y0039576D01*
X0560778Y0038976D01*
X0561979Y0038976D01*
X0563180Y0040177D01*
X0563780Y0041378D01*
X0563780Y0042659D02*
X0563780Y0045061D01*
X0563180Y0045061D01*
X0560778Y0042659D01*
X0560177Y0042659D01*
X0560778Y0037695D02*
X0560177Y0037094D01*
X0560177Y0035893D01*
X0571009Y0047543D02*
X0573411Y0047543D01*
X0572210Y0047543D02*
X0572210Y0051146D01*
X0573411Y0049945D01*
X0574692Y0051146D02*
X0575893Y0050545D01*
X0577094Y0049344D01*
X0575292Y0049344D01*
X0574692Y0048744D01*
X0574692Y0048143D01*
X0575292Y0047543D01*
X0576493Y0047543D01*
X0577094Y0048143D01*
X0577094Y0049344D01*
X0578375Y0048143D02*
X0578975Y0047543D01*
X0580177Y0047543D01*
X0580777Y0048143D01*
X0580777Y0050545D01*
X0580177Y0051146D01*
X0578975Y0051146D01*
X0578375Y0050545D01*
X0602427Y0044960D02*
X0603028Y0045561D01*
X0603628Y0045561D01*
X0604229Y0044960D01*
X0604229Y0043159D01*
X0603028Y0043159D01*
X0602427Y0043759D01*
X0602427Y0044960D01*
X0604229Y0043159D02*
X0605430Y0044360D01*
X0606030Y0045561D01*
X0606030Y0041878D02*
X0605430Y0040677D01*
X0604229Y0039476D01*
X0604229Y0041277D01*
X0603628Y0041878D01*
X0603028Y0041878D01*
X0602427Y0041277D01*
X0602427Y0040076D01*
X0603028Y0039476D01*
X0604229Y0039476D01*
X0605430Y0038195D02*
X0606030Y0037594D01*
X0606030Y0036393D01*
X0605430Y0035793D01*
X0603028Y0035793D01*
X0602427Y0036393D01*
X0602427Y0037594D01*
X0603028Y0038195D01*
X0581027Y0026545D02*
X0581027Y0024143D01*
X0580427Y0023543D01*
X0579225Y0023543D01*
X0578625Y0024143D01*
X0577344Y0024143D02*
X0576743Y0023543D01*
X0575542Y0023543D01*
X0574942Y0024143D01*
X0574942Y0024744D01*
X0575542Y0025344D01*
X0577344Y0025344D01*
X0577344Y0024143D01*
X0577344Y0025344D02*
X0576143Y0026545D01*
X0574942Y0027146D01*
X0573661Y0026545D02*
X0573060Y0027146D01*
X0571859Y0027146D01*
X0571259Y0026545D01*
X0573661Y0024143D01*
X0573060Y0023543D01*
X0571859Y0023543D01*
X0571259Y0024143D01*
X0571259Y0026545D01*
X0573661Y0026545D02*
X0573661Y0024143D01*
X0578625Y0026545D02*
X0579225Y0027146D01*
X0580427Y0027146D01*
X0581027Y0026545D01*
X0590435Y0290844D02*
X0594038Y0290844D01*
X0594038Y0292645D01*
X0593437Y0293246D01*
X0592236Y0293246D01*
X0591636Y0292645D01*
X0591636Y0290844D01*
X0591636Y0292045D02*
X0590435Y0293246D01*
X0590435Y0294527D02*
X0592837Y0296929D01*
X0593437Y0296929D01*
X0594038Y0296328D01*
X0594038Y0295127D01*
X0593437Y0294527D01*
X0590435Y0294527D02*
X0590435Y0296929D01*
X0590435Y0310844D02*
X0594038Y0310844D01*
X0594038Y0312645D01*
X0593437Y0313246D01*
X0592236Y0313246D01*
X0591636Y0312645D01*
X0591636Y0310844D01*
X0591636Y0312045D02*
X0590435Y0313246D01*
X0590435Y0314527D02*
X0590435Y0316929D01*
X0590435Y0315728D02*
X0594038Y0315728D01*
X0592837Y0314527D01*
D11*
X0589355Y0323380D02*
X0580615Y0323380D01*
X0580615Y0303907D01*
X0589355Y0303907D01*
X0589355Y0323380D01*
X0589355Y0303880D02*
X0580615Y0303880D01*
X0580615Y0284407D01*
X0589355Y0284407D01*
X0589355Y0303880D01*
X0505597Y0264079D02*
X0496857Y0264079D01*
X0496857Y0244606D01*
X0505597Y0244606D01*
X0505597Y0264079D01*
X0505097Y0244610D02*
X0497357Y0244610D01*
X0497357Y0229075D01*
X0505097Y0229075D01*
X0505097Y0244610D01*
X0494495Y0229963D02*
X0478959Y0229963D01*
X0478959Y0222222D01*
X0494495Y0222222D01*
X0494495Y0229963D01*
X0494597Y0222110D02*
X0486857Y0222110D01*
X0486857Y0206575D01*
X0494597Y0206575D01*
X0494597Y0222110D01*
X0486745Y0222213D02*
X0486745Y0214472D01*
X0471209Y0214472D01*
X0471209Y0222213D01*
X0486745Y0222213D01*
X0486745Y0214463D02*
X0486745Y0206722D01*
X0471209Y0206722D01*
X0471209Y0214463D01*
X0486745Y0214463D01*
X0477347Y0230325D02*
X0469607Y0230325D01*
X0469607Y0245860D01*
X0477347Y0245860D01*
X0477347Y0230325D01*
X0469597Y0230325D02*
X0469597Y0245860D01*
X0461857Y0245860D01*
X0461857Y0230325D01*
X0469597Y0230325D01*
X0461847Y0230325D02*
X0454107Y0230325D01*
X0454107Y0245860D01*
X0461847Y0245860D01*
X0461847Y0230325D01*
X0454097Y0230293D02*
X0454097Y0242892D01*
X0447357Y0242892D01*
X0447357Y0230293D01*
X0454097Y0230293D01*
X0423526Y0237972D02*
X0423526Y0244713D01*
X0410928Y0244713D01*
X0410928Y0237972D01*
X0423526Y0237972D01*
X0423597Y0244575D02*
X0415857Y0244575D01*
X0415857Y0260110D01*
X0423597Y0260110D01*
X0423597Y0244575D01*
X0423597Y0260075D02*
X0415857Y0260075D01*
X0415857Y0275610D01*
X0423597Y0275610D01*
X0423597Y0260075D01*
X0372776Y0236463D02*
X0372776Y0229722D01*
X0360178Y0229722D01*
X0360178Y0236463D01*
X0372776Y0236463D01*
X0357847Y0211610D02*
X0350107Y0211610D01*
X0350107Y0196075D01*
X0357847Y0196075D01*
X0357847Y0211610D01*
X0350097Y0211610D02*
X0342357Y0211610D01*
X0342357Y0196075D01*
X0350097Y0196075D01*
X0350097Y0211610D01*
X0341097Y0209610D02*
X0333357Y0209610D01*
X0333357Y0194075D01*
X0341097Y0194075D01*
X0341097Y0209610D01*
X0323597Y0203075D02*
X0323597Y0218610D01*
X0315857Y0218610D01*
X0315857Y0203075D01*
X0323597Y0203075D01*
X0315847Y0203075D02*
X0308107Y0203075D01*
X0308107Y0218610D01*
X0315847Y0218610D01*
X0315847Y0203075D01*
X0308995Y0201713D02*
X0308995Y0193972D01*
X0293459Y0193972D01*
X0293459Y0201713D01*
X0308995Y0201713D01*
X0308097Y0201793D02*
X0301357Y0201793D01*
X0301357Y0214392D01*
X0308097Y0214392D01*
X0308097Y0201793D01*
X0308995Y0193963D02*
X0293459Y0193963D01*
X0293459Y0186222D01*
X0308995Y0186222D01*
X0308995Y0193963D01*
X0308995Y0186213D02*
X0293459Y0186213D01*
X0293459Y0178472D01*
X0308995Y0178472D01*
X0308995Y0186213D01*
X0308995Y0178463D02*
X0293459Y0178463D01*
X0293459Y0170722D01*
X0308995Y0170722D01*
X0308995Y0178463D01*
X0308847Y0170610D02*
X0301107Y0170610D01*
X0301107Y0155075D01*
X0308847Y0155075D01*
X0308847Y0170610D01*
X0301097Y0170610D02*
X0293357Y0170610D01*
X0293357Y0155075D01*
X0301097Y0155075D01*
X0301097Y0170610D01*
X0293459Y0154963D02*
X0293459Y0147222D01*
X0308995Y0147222D01*
X0308995Y0154963D01*
X0293459Y0154963D01*
X0269745Y0182472D02*
X0254209Y0182472D01*
X0254209Y0190213D01*
X0269745Y0190213D01*
X0269745Y0182472D01*
X0257481Y0205093D02*
X0257481Y0207344D01*
X0256730Y0208095D01*
X0253728Y0208095D01*
X0252977Y0207344D01*
X0252977Y0205093D01*
X0257481Y0205093D01*
X0255980Y0209696D02*
X0257481Y0211198D01*
X0252977Y0211198D01*
X0252977Y0212699D02*
X0252977Y0209696D01*
X0253728Y0214300D02*
X0252977Y0215051D01*
X0252977Y0216552D01*
X0253728Y0217303D01*
X0255229Y0217303D01*
X0255980Y0216552D01*
X0255980Y0215802D01*
X0255229Y0214300D01*
X0257481Y0214300D01*
X0257481Y0217303D01*
X0220347Y0238325D02*
X0212607Y0238325D01*
X0212607Y0253860D01*
X0220347Y0253860D01*
X0220347Y0238325D01*
X0220357Y0245075D02*
X0228097Y0245075D01*
X0228097Y0260610D01*
X0220357Y0260610D01*
X0220357Y0245075D01*
X0228107Y0245075D02*
X0235847Y0245075D01*
X0235847Y0260610D01*
X0228107Y0260610D01*
X0228107Y0245075D01*
X0238357Y0247575D02*
X0246097Y0247575D01*
X0246097Y0263110D01*
X0238357Y0263110D01*
X0238357Y0247575D01*
X0246107Y0250543D02*
X0252847Y0250543D01*
X0252847Y0263142D01*
X0246107Y0263142D01*
X0246107Y0250543D01*
X0265357Y0249825D02*
X0265357Y0265360D01*
X0273097Y0265360D01*
X0273097Y0249825D01*
X0265357Y0249825D01*
X0310459Y0265972D02*
X0325995Y0265972D01*
X0325995Y0273713D01*
X0310459Y0273713D01*
X0310459Y0265972D01*
X0325741Y0279722D02*
X0345213Y0279722D01*
X0345213Y0288463D01*
X0325741Y0288463D01*
X0325741Y0279722D01*
X0298481Y0306343D02*
X0297730Y0305593D01*
X0294728Y0305593D01*
X0293977Y0306343D01*
X0293977Y0307844D01*
X0294728Y0308595D01*
X0294728Y0310196D02*
X0293977Y0310947D01*
X0293977Y0312448D01*
X0294728Y0313199D01*
X0295478Y0313199D01*
X0296229Y0312448D01*
X0296229Y0311698D01*
X0296229Y0312448D02*
X0296980Y0313199D01*
X0297730Y0313199D01*
X0298481Y0312448D01*
X0298481Y0310947D01*
X0297730Y0310196D01*
X0297730Y0308595D02*
X0298481Y0307844D01*
X0298481Y0306343D01*
X0297730Y0314800D02*
X0298481Y0315551D01*
X0298481Y0317052D01*
X0297730Y0317803D01*
X0296980Y0317803D01*
X0296229Y0317052D01*
X0295478Y0317803D01*
X0294728Y0317803D01*
X0293977Y0317052D01*
X0293977Y0315551D01*
X0294728Y0314800D01*
X0296229Y0316302D02*
X0296229Y0317052D01*
X0267245Y0317972D02*
X0267245Y0325713D01*
X0251709Y0325713D01*
X0251709Y0317972D01*
X0267245Y0317972D01*
X0257745Y0317463D02*
X0257745Y0309722D01*
X0242209Y0309722D01*
X0242209Y0317463D01*
X0257745Y0317463D01*
X0237097Y0307142D02*
X0230357Y0307142D01*
X0230357Y0294543D01*
X0237097Y0294543D01*
X0237097Y0307142D01*
X0230347Y0307142D02*
X0223607Y0307142D01*
X0223607Y0294543D01*
X0230347Y0294543D01*
X0230347Y0307142D01*
X0223597Y0307142D02*
X0216857Y0307142D01*
X0216857Y0294543D01*
X0223597Y0294543D01*
X0223597Y0307142D01*
X0213731Y0301218D02*
X0213731Y0299716D01*
X0212980Y0298966D01*
X0212980Y0297364D02*
X0213731Y0296614D01*
X0213731Y0295112D01*
X0212980Y0294362D01*
X0209978Y0294362D01*
X0209227Y0295112D01*
X0209227Y0296614D01*
X0209978Y0297364D01*
X0209227Y0298966D02*
X0212230Y0301968D01*
X0212980Y0301968D01*
X0213731Y0301218D01*
X0209227Y0301968D02*
X0209227Y0298966D01*
X0207597Y0294543D02*
X0200857Y0294543D01*
X0200857Y0307142D01*
X0207597Y0307142D01*
X0207597Y0294543D01*
X0209227Y0292794D02*
X0209227Y0291293D01*
X0209227Y0292043D02*
X0213731Y0292043D01*
X0213731Y0291293D02*
X0213731Y0292794D01*
X0200847Y0294543D02*
X0194107Y0294543D01*
X0194107Y0307142D01*
X0200847Y0307142D01*
X0200847Y0294543D01*
X0194097Y0294543D02*
X0187357Y0294543D01*
X0187357Y0307142D01*
X0194097Y0307142D01*
X0194097Y0294543D01*
X0181745Y0310972D02*
X0181745Y0318713D01*
X0166209Y0318713D01*
X0166209Y0310972D01*
X0181745Y0310972D01*
X0165347Y0315860D02*
X0165347Y0300325D01*
X0157607Y0300325D01*
X0157607Y0315860D01*
X0165347Y0315860D01*
X0156347Y0305110D02*
X0148607Y0305110D01*
X0148607Y0289575D01*
X0156347Y0289575D01*
X0156347Y0305110D01*
X0172857Y0276110D02*
X0172857Y0260575D01*
X0180597Y0260575D01*
X0180597Y0276110D01*
X0172857Y0276110D01*
X0181607Y0258610D02*
X0189347Y0258610D01*
X0189347Y0243075D01*
X0181607Y0243075D01*
X0181607Y0258610D01*
X0197107Y0260360D02*
X0197107Y0244825D01*
X0204847Y0244825D01*
X0204847Y0260360D01*
X0197107Y0260360D01*
X0206678Y0260463D02*
X0206678Y0253722D01*
X0219276Y0253722D01*
X0219276Y0260463D01*
X0206678Y0260463D01*
X0212495Y0244463D02*
X0196959Y0244463D01*
X0196959Y0236722D01*
X0212495Y0236722D01*
X0212495Y0244463D01*
X0162231Y0231490D02*
X0162231Y0229989D01*
X0161480Y0229239D01*
X0160730Y0229239D01*
X0159979Y0229989D01*
X0159979Y0231490D01*
X0159228Y0232241D01*
X0158478Y0232241D01*
X0157727Y0231490D01*
X0157727Y0229989D01*
X0158478Y0229239D01*
X0159228Y0229239D01*
X0159979Y0229989D01*
X0159979Y0231490D02*
X0160730Y0232241D01*
X0161480Y0232241D01*
X0162231Y0231490D01*
X0157727Y0227637D02*
X0157727Y0224635D01*
X0157727Y0226136D02*
X0162231Y0226136D01*
X0160730Y0224635D01*
X0161480Y0223033D02*
X0162231Y0222283D01*
X0162231Y0220031D01*
X0157727Y0220031D01*
X0157727Y0222283D01*
X0158478Y0223033D01*
X0161480Y0223033D01*
X0165578Y0192596D02*
X0165578Y0191846D01*
X0168581Y0188843D01*
X0168581Y0188093D01*
X0170933Y0188093D02*
X0170933Y0192596D01*
X0173185Y0190344D01*
X0170182Y0190344D01*
X0168581Y0192596D02*
X0165578Y0192596D01*
X0162709Y0186963D02*
X0162709Y0179222D01*
X0178245Y0179222D01*
X0178245Y0186963D01*
X0162709Y0186963D01*
X0174786Y0188093D02*
X0176288Y0189594D01*
X0175537Y0189594D02*
X0177789Y0189594D01*
X0177789Y0188093D02*
X0177789Y0192596D01*
X0175537Y0192596D01*
X0174786Y0191846D01*
X0174786Y0190344D01*
X0175537Y0189594D01*
X0175206Y0171409D02*
X0177458Y0171409D01*
X0177458Y0166906D01*
X0175206Y0166906D01*
X0174456Y0167656D01*
X0174456Y0170659D01*
X0175206Y0171409D01*
X0172854Y0170659D02*
X0172104Y0171409D01*
X0170602Y0171409D01*
X0169852Y0170659D01*
X0169852Y0169908D01*
X0172854Y0166906D01*
X0169852Y0166906D01*
X0168250Y0166906D02*
X0165248Y0166906D01*
X0166749Y0166906D02*
X0166749Y0171409D01*
X0168250Y0169908D01*
X0130727Y0132846D02*
X0130727Y0129843D01*
X0129976Y0129093D01*
X0128475Y0129093D01*
X0127724Y0129843D01*
X0126123Y0129843D02*
X0125372Y0129093D01*
X0123871Y0129093D01*
X0123121Y0129843D01*
X0123121Y0130594D01*
X0123871Y0131344D01*
X0124622Y0131344D01*
X0123871Y0131344D02*
X0123121Y0132095D01*
X0123121Y0132846D01*
X0123871Y0133596D01*
X0125372Y0133596D01*
X0126123Y0132846D01*
X0127724Y0132846D02*
X0128475Y0133596D01*
X0129976Y0133596D01*
X0130727Y0132846D01*
X0131066Y0128079D02*
X0118388Y0128079D01*
X0118388Y0108606D01*
X0131066Y0108606D01*
X0131066Y0128079D01*
X0121519Y0129843D02*
X0121519Y0130594D01*
X0120769Y0131344D01*
X0119267Y0131344D01*
X0118517Y0130594D01*
X0118517Y0129843D01*
X0119267Y0129093D01*
X0120769Y0129093D01*
X0121519Y0129843D01*
X0120769Y0131344D02*
X0121519Y0132095D01*
X0121519Y0132846D01*
X0120769Y0133596D01*
X0119267Y0133596D01*
X0118517Y0132846D01*
X0118517Y0132095D01*
X0119267Y0131344D01*
X0105977Y0128596D02*
X0105977Y0124093D01*
X0105977Y0125594D02*
X0103725Y0125594D01*
X0102974Y0126344D01*
X0102974Y0127846D01*
X0103725Y0128596D01*
X0105977Y0128596D01*
X0104476Y0125594D02*
X0102974Y0124093D01*
X0101373Y0124093D02*
X0098371Y0127095D01*
X0098371Y0127846D01*
X0099121Y0128596D01*
X0100622Y0128596D01*
X0101373Y0127846D01*
X0101373Y0124093D02*
X0098371Y0124093D01*
X0096769Y0124843D02*
X0096019Y0124093D01*
X0094517Y0124093D01*
X0093767Y0124843D01*
X0093767Y0126344D01*
X0094517Y0127095D01*
X0095268Y0127095D01*
X0096769Y0126344D01*
X0096769Y0128596D01*
X0093767Y0128596D01*
X0085119Y0122900D02*
X0085119Y0107285D01*
X0053835Y0107285D01*
X0053835Y0122900D01*
X0085119Y0122900D01*
X0085085Y0122900D02*
X0085085Y0107285D01*
X0116369Y0107285D01*
X0116369Y0122900D01*
X0085085Y0122900D01*
X0075539Y0124243D02*
X0075539Y0128746D01*
X0073287Y0128746D01*
X0072536Y0127996D01*
X0072536Y0126494D01*
X0073287Y0125744D01*
X0075539Y0125744D01*
X0074038Y0125744D02*
X0072536Y0124243D01*
X0070935Y0124243D02*
X0067932Y0127245D01*
X0067932Y0127996D01*
X0068683Y0128746D01*
X0070184Y0128746D01*
X0070935Y0127996D01*
X0070935Y0124243D02*
X0067932Y0124243D01*
X0066331Y0126494D02*
X0063328Y0126494D01*
X0064079Y0124243D02*
X0064079Y0128746D01*
X0066331Y0126494D01*
X0050997Y0130476D02*
X0046493Y0130476D01*
X0046493Y0133479D01*
X0046493Y0135080D02*
X0046493Y0138083D01*
X0046493Y0139684D02*
X0046493Y0142687D01*
X0046493Y0139684D02*
X0047243Y0139684D01*
X0050246Y0142687D01*
X0050997Y0142687D01*
X0050997Y0139684D01*
X0050997Y0138083D02*
X0050997Y0135080D01*
X0046493Y0135080D01*
X0048745Y0135080D02*
X0048745Y0136582D01*
X0050997Y0133479D02*
X0050997Y0130476D01*
X0048745Y0130476D02*
X0048745Y0131978D01*
X0050246Y0148892D02*
X0047243Y0148892D01*
X0046493Y0149643D01*
X0046493Y0151144D01*
X0047243Y0151895D01*
X0046493Y0153496D02*
X0050997Y0153496D01*
X0050997Y0156499D01*
X0048745Y0154997D02*
X0048745Y0153496D01*
X0050246Y0151895D02*
X0050997Y0151144D01*
X0050997Y0149643D01*
X0050246Y0148892D01*
X0048745Y0158100D02*
X0048745Y0161102D01*
X0050997Y0162704D02*
X0050997Y0164956D01*
X0050246Y0165706D01*
X0047243Y0165706D01*
X0046493Y0164956D01*
X0046493Y0162704D01*
X0050997Y0162704D01*
X0050997Y0167308D02*
X0050997Y0168809D01*
X0050997Y0168058D02*
X0046493Y0168058D01*
X0046493Y0167308D02*
X0046493Y0168809D01*
X0047243Y0170377D02*
X0046493Y0171128D01*
X0046493Y0172629D01*
X0047243Y0173380D01*
X0047243Y0170377D02*
X0050246Y0170377D01*
X0050997Y0171128D01*
X0050997Y0172629D01*
X0050246Y0173380D01*
X0049495Y0179585D02*
X0050997Y0181086D01*
X0049495Y0179585D02*
X0047994Y0179585D01*
X0046493Y0181086D01*
X0046493Y0182654D02*
X0046493Y0185657D01*
X0046493Y0184155D02*
X0050997Y0184155D01*
X0049495Y0182654D01*
X0050246Y0187258D02*
X0050997Y0188009D01*
X0050997Y0189510D01*
X0050246Y0190261D01*
X0049495Y0190261D01*
X0046493Y0187258D01*
X0046493Y0190261D01*
X0046493Y0191862D02*
X0050997Y0194865D01*
X0050246Y0196466D02*
X0050997Y0197217D01*
X0050997Y0198718D01*
X0050246Y0199469D01*
X0049495Y0199469D01*
X0046493Y0196466D01*
X0046493Y0199469D01*
X0047243Y0201070D02*
X0050246Y0204072D01*
X0047243Y0204072D01*
X0046493Y0203322D01*
X0046493Y0201821D01*
X0047243Y0201070D01*
X0050246Y0201070D01*
X0050997Y0201821D01*
X0050997Y0203322D01*
X0050246Y0204072D01*
X0049495Y0205674D02*
X0050997Y0207175D01*
X0046493Y0207175D01*
X0046493Y0205674D02*
X0046493Y0208676D01*
X0047243Y0210278D02*
X0047994Y0210278D01*
X0048745Y0211028D01*
X0048745Y0212530D01*
X0047994Y0213280D01*
X0047243Y0213280D01*
X0046493Y0212530D01*
X0046493Y0211028D01*
X0047243Y0210278D01*
X0048745Y0211028D02*
X0049495Y0210278D01*
X0050246Y0210278D01*
X0050997Y0211028D01*
X0050997Y0212530D01*
X0050246Y0213280D01*
X0049495Y0213280D01*
X0048745Y0212530D01*
X0049495Y0219486D02*
X0046493Y0219486D01*
X0047994Y0219486D02*
X0049495Y0220987D01*
X0049495Y0221737D01*
X0048745Y0223322D02*
X0049495Y0224823D01*
X0049495Y0225574D01*
X0048745Y0226325D01*
X0047243Y0226325D01*
X0046493Y0225574D01*
X0046493Y0224073D01*
X0047243Y0223322D01*
X0048745Y0223322D02*
X0050997Y0223322D01*
X0050997Y0226325D01*
X0050997Y0227926D02*
X0050997Y0230178D01*
X0050246Y0230929D01*
X0049495Y0230929D01*
X0048745Y0230178D01*
X0048745Y0227926D01*
X0046493Y0227926D02*
X0050997Y0227926D01*
X0048745Y0230178D02*
X0047994Y0230929D01*
X0047243Y0230929D01*
X0046493Y0230178D01*
X0046493Y0227926D01*
X0047243Y0232530D02*
X0046493Y0233281D01*
X0046493Y0234782D01*
X0047243Y0235533D01*
X0048745Y0235533D01*
X0049495Y0234782D01*
X0049495Y0234031D01*
X0048745Y0232530D01*
X0050997Y0232530D01*
X0050997Y0235533D01*
X0050997Y0237134D02*
X0049495Y0238635D01*
X0047994Y0238635D01*
X0046493Y0237134D01*
X0073170Y0250951D02*
X0088784Y0250951D01*
X0088784Y0282234D01*
X0073170Y0282234D01*
X0073170Y0250951D01*
X0088920Y0250951D02*
X0104534Y0250951D01*
X0104534Y0282234D01*
X0088920Y0282234D01*
X0088920Y0250951D01*
X0132328Y0256843D02*
X0132328Y0259846D01*
X0133079Y0260596D01*
X0134580Y0260596D01*
X0135331Y0259846D01*
X0135331Y0259095D01*
X0134580Y0258344D01*
X0132328Y0258344D01*
X0132328Y0256843D02*
X0133079Y0256093D01*
X0134580Y0256093D01*
X0135331Y0256843D01*
X0136932Y0256843D02*
X0137683Y0256093D01*
X0139184Y0256093D01*
X0139935Y0256843D01*
X0141536Y0256843D02*
X0142287Y0256093D01*
X0143788Y0256093D01*
X0144539Y0256843D01*
X0144539Y0259846D01*
X0143788Y0260596D01*
X0142287Y0260596D01*
X0141536Y0259846D01*
X0139935Y0259846D02*
X0139184Y0260596D01*
X0137683Y0260596D01*
X0136932Y0259846D01*
X0136932Y0259095D01*
X0137683Y0258344D01*
X0136932Y0257594D01*
X0136932Y0256843D01*
X0137683Y0258344D02*
X0138434Y0258344D01*
X0102727Y0283593D02*
X0102727Y0288096D01*
X0100475Y0288096D01*
X0099724Y0287346D01*
X0099724Y0285844D01*
X0100475Y0285094D01*
X0102727Y0285094D01*
X0101226Y0285094D02*
X0099724Y0283593D01*
X0098123Y0284343D02*
X0097372Y0283593D01*
X0095871Y0283593D01*
X0095121Y0284343D01*
X0095121Y0285094D01*
X0095871Y0285844D01*
X0096622Y0285844D01*
X0095871Y0285844D02*
X0095121Y0286595D01*
X0095121Y0287346D01*
X0095871Y0288096D01*
X0097372Y0288096D01*
X0098123Y0287346D01*
X0093519Y0288096D02*
X0090517Y0288096D01*
X0090517Y0287346D01*
X0093519Y0284343D01*
X0093519Y0283593D01*
X0086227Y0283343D02*
X0086227Y0287846D01*
X0083975Y0287846D01*
X0083224Y0287096D01*
X0083224Y0285594D01*
X0083975Y0284844D01*
X0086227Y0284844D01*
X0084726Y0284844D02*
X0083224Y0283343D01*
X0081623Y0284093D02*
X0080872Y0283343D01*
X0079371Y0283343D01*
X0078621Y0284093D01*
X0078621Y0284844D01*
X0079371Y0285594D01*
X0080122Y0285594D01*
X0079371Y0285594D02*
X0078621Y0286345D01*
X0078621Y0287096D01*
X0079371Y0287846D01*
X0080872Y0287846D01*
X0081623Y0287096D01*
X0077019Y0285594D02*
X0074017Y0285594D01*
X0074767Y0283343D02*
X0074767Y0287846D01*
X0077019Y0285594D01*
X0091935Y0320189D02*
X0091935Y0324693D01*
X0094187Y0322441D01*
X0091185Y0322441D01*
X0095789Y0320189D02*
X0098791Y0320189D01*
X0097290Y0320189D02*
X0097290Y0324693D01*
X0098791Y0323192D01*
X0100393Y0323942D02*
X0101143Y0324693D01*
X0103395Y0324693D01*
X0103395Y0320189D01*
X0101143Y0320189D01*
X0100393Y0320940D01*
X0100393Y0323942D01*
X0342209Y0195963D02*
X0342209Y0188222D01*
X0357745Y0188222D01*
X0357745Y0195963D01*
X0342209Y0195963D01*
X0345178Y0187963D02*
X0345178Y0181222D01*
X0357776Y0181222D01*
X0357776Y0187963D01*
X0345178Y0187963D01*
X0345178Y0181213D02*
X0345178Y0174472D01*
X0357776Y0174472D01*
X0357776Y0181213D01*
X0345178Y0181213D01*
X0342209Y0174463D02*
X0342209Y0166722D01*
X0357745Y0166722D01*
X0357745Y0174463D01*
X0342209Y0174463D01*
X0375107Y0162110D02*
X0375107Y0146575D01*
X0382847Y0146575D01*
X0382847Y0162110D01*
X0375107Y0162110D01*
X0373857Y0127860D02*
X0381597Y0127860D01*
X0381597Y0112325D01*
X0373857Y0112325D01*
X0373857Y0127860D01*
X0339597Y0129860D02*
X0339597Y0114325D01*
X0331857Y0114325D01*
X0331857Y0129860D01*
X0339597Y0129860D01*
X0331745Y0129713D02*
X0316209Y0129713D01*
X0316209Y0121972D01*
X0331745Y0121972D01*
X0331745Y0129713D01*
X0331745Y0121963D02*
X0331745Y0114222D01*
X0316209Y0114222D01*
X0316209Y0121963D01*
X0331745Y0121963D01*
X0314526Y0112963D02*
X0314526Y0106222D01*
X0301928Y0106222D01*
X0301928Y0112963D01*
X0314526Y0112963D01*
X0314495Y0106213D02*
X0298959Y0106213D01*
X0298959Y0098472D01*
X0314495Y0098472D01*
X0314495Y0106213D01*
X0314495Y0098463D02*
X0298959Y0098463D01*
X0298959Y0090722D01*
X0314495Y0090722D01*
X0314495Y0098463D01*
X0302963Y0116222D02*
X0283491Y0116222D01*
X0283491Y0124963D01*
X0302963Y0124963D01*
X0302963Y0116222D01*
X0304727Y0119343D02*
X0304727Y0121843D01*
X0305977Y0120593D02*
X0303477Y0120593D01*
X0281713Y0095213D02*
X0262241Y0095213D01*
X0262241Y0085972D01*
X0281713Y0085972D01*
X0281713Y0095213D01*
X0274776Y0085963D02*
X0262178Y0085963D01*
X0262178Y0079222D01*
X0274776Y0079222D01*
X0274776Y0085963D01*
X0303357Y0075860D02*
X0311097Y0075860D01*
X0311097Y0060325D01*
X0303357Y0060325D01*
X0303357Y0075860D01*
X0314107Y0075860D02*
X0321847Y0075860D01*
X0321847Y0060325D01*
X0314107Y0060325D01*
X0314107Y0075860D01*
X0314107Y0060360D02*
X0321847Y0060360D01*
X0321847Y0044825D01*
X0314107Y0044825D01*
X0314107Y0060360D01*
X0311097Y0057392D02*
X0304357Y0057392D01*
X0304357Y0044793D01*
X0311097Y0044793D01*
X0311097Y0057392D01*
X0220272Y0061730D02*
X0219521Y0060979D01*
X0218020Y0060979D01*
X0217269Y0061730D01*
X0217269Y0064732D01*
X0218020Y0065483D01*
X0219521Y0065483D01*
X0220272Y0064732D01*
X0220272Y0061730D01*
X0218770Y0062480D02*
X0217269Y0060979D01*
X0215668Y0060979D02*
X0215668Y0061730D01*
X0212665Y0064732D01*
X0212665Y0065483D01*
X0215668Y0065483D01*
X0215098Y0110160D02*
X0215849Y0110911D01*
X0215849Y0111662D01*
X0215098Y0112412D01*
X0213597Y0112412D01*
X0212846Y0111662D01*
X0212846Y0110911D01*
X0213597Y0110160D01*
X0215098Y0110160D01*
X0215098Y0112412D02*
X0215849Y0113163D01*
X0215849Y0113913D01*
X0215098Y0114664D01*
X0213597Y0114664D01*
X0212846Y0113913D01*
X0212846Y0113163D01*
X0213597Y0112412D01*
X0217450Y0113913D02*
X0217450Y0110911D01*
X0218201Y0110160D01*
X0219702Y0110160D01*
X0220453Y0110911D01*
X0220453Y0113913D01*
X0219702Y0114664D01*
X0218201Y0114664D01*
X0217450Y0113913D01*
X0218951Y0111662D02*
X0217450Y0110160D01*
X0446101Y0195093D02*
X0449104Y0195093D01*
X0447603Y0195093D02*
X0447603Y0199596D01*
X0449104Y0198095D01*
X0450705Y0198846D02*
X0451456Y0199596D01*
X0452957Y0199596D01*
X0453708Y0198846D01*
X0453708Y0195843D01*
X0452957Y0195093D01*
X0451456Y0195093D01*
X0450705Y0195843D01*
X0455276Y0195093D02*
X0456777Y0195093D01*
X0456026Y0195093D02*
X0456026Y0199596D01*
X0455276Y0199596D02*
X0456777Y0199596D01*
X0486959Y0155213D02*
X0486959Y0147472D01*
X0502495Y0147472D01*
X0502495Y0155213D01*
X0486959Y0155213D01*
X0486959Y0147463D02*
X0486959Y0139722D01*
X0502495Y0139722D01*
X0502495Y0147463D01*
X0486959Y0147463D01*
X0522357Y0058329D02*
X0531597Y0058329D01*
X0531597Y0038856D01*
X0522357Y0038856D01*
X0522357Y0058329D01*
X0532477Y0054491D02*
X0532477Y0051489D01*
X0535480Y0054491D01*
X0536230Y0054491D01*
X0536981Y0053740D01*
X0536981Y0052239D01*
X0536230Y0051489D01*
X0536981Y0049887D02*
X0536230Y0048386D01*
X0534729Y0046885D01*
X0534729Y0049137D01*
X0533978Y0049887D01*
X0533228Y0049887D01*
X0532477Y0049137D01*
X0532477Y0047635D01*
X0533228Y0046885D01*
X0534729Y0046885D01*
X0536230Y0045283D02*
X0536981Y0044533D01*
X0536981Y0043031D01*
X0536230Y0042281D01*
X0533228Y0042281D01*
X0532477Y0043031D01*
X0532477Y0044533D01*
X0533228Y0045283D01*
X0533316Y0038829D02*
X0520638Y0038829D01*
X0520638Y0019356D01*
X0533316Y0019356D01*
X0533316Y0038829D01*
X0534227Y0034240D02*
X0538731Y0034240D01*
X0536479Y0031989D01*
X0536479Y0034991D01*
X0535728Y0030387D02*
X0536479Y0029637D01*
X0536479Y0027385D01*
X0534978Y0027385D01*
X0534227Y0028135D01*
X0534227Y0029637D01*
X0534978Y0030387D01*
X0535728Y0030387D01*
X0537980Y0028886D02*
X0536479Y0027385D01*
X0536479Y0025783D02*
X0535728Y0025033D01*
X0535728Y0022781D01*
X0534227Y0022781D02*
X0538731Y0022781D01*
X0538731Y0025033D01*
X0537980Y0025783D01*
X0536479Y0025783D01*
X0535728Y0024282D02*
X0534227Y0025783D01*
X0537980Y0028886D02*
X0538731Y0030387D01*
X0550107Y0030856D02*
X0559347Y0030856D01*
X0559347Y0050329D01*
X0550107Y0050329D01*
X0550107Y0030856D01*
X0566491Y0028222D02*
X0566491Y0037463D01*
X0585963Y0037463D01*
X0585963Y0028222D01*
X0566491Y0028222D01*
X0566491Y0037472D02*
X0566491Y0046713D01*
X0585963Y0046713D01*
X0585963Y0037472D01*
X0566491Y0037472D01*
X0592107Y0030606D02*
X0601347Y0030606D01*
X0601347Y0050079D01*
X0592107Y0050079D01*
X0592107Y0030606D01*
X0518097Y0031325D02*
X0518097Y0046860D01*
X0510357Y0046860D01*
X0510357Y0031325D01*
X0518097Y0031325D01*
X0479495Y0031713D02*
X0479495Y0023972D01*
X0463959Y0023972D01*
X0463959Y0031713D01*
X0479495Y0031713D01*
D12*
X0605727Y0116843D02*
X0605729Y0116887D01*
X0605735Y0116931D01*
X0605745Y0116974D01*
X0605758Y0117016D01*
X0605775Y0117057D01*
X0605796Y0117096D01*
X0605820Y0117133D01*
X0605847Y0117168D01*
X0605877Y0117200D01*
X0605910Y0117230D01*
X0605946Y0117256D01*
X0605983Y0117280D01*
X0606023Y0117299D01*
X0606064Y0117316D01*
X0606107Y0117328D01*
X0606150Y0117337D01*
X0606194Y0117342D01*
X0606238Y0117343D01*
X0606282Y0117340D01*
X0606326Y0117333D01*
X0606369Y0117322D01*
X0606411Y0117308D01*
X0606451Y0117290D01*
X0606490Y0117268D01*
X0606526Y0117244D01*
X0606560Y0117216D01*
X0606592Y0117185D01*
X0606621Y0117151D01*
X0606647Y0117115D01*
X0606669Y0117077D01*
X0606688Y0117037D01*
X0606703Y0116995D01*
X0606715Y0116953D01*
X0606723Y0116909D01*
X0606727Y0116865D01*
X0606727Y0116821D01*
X0606723Y0116777D01*
X0606715Y0116733D01*
X0606703Y0116691D01*
X0606688Y0116649D01*
X0606669Y0116609D01*
X0606647Y0116571D01*
X0606621Y0116535D01*
X0606592Y0116501D01*
X0606560Y0116470D01*
X0606526Y0116442D01*
X0606490Y0116418D01*
X0606451Y0116396D01*
X0606411Y0116378D01*
X0606369Y0116364D01*
X0606326Y0116353D01*
X0606282Y0116346D01*
X0606238Y0116343D01*
X0606194Y0116344D01*
X0606150Y0116349D01*
X0606107Y0116358D01*
X0606064Y0116370D01*
X0606023Y0116387D01*
X0605983Y0116406D01*
X0605946Y0116430D01*
X0605910Y0116456D01*
X0605877Y0116486D01*
X0605847Y0116518D01*
X0605820Y0116553D01*
X0605796Y0116590D01*
X0605775Y0116629D01*
X0605758Y0116670D01*
X0605745Y0116712D01*
X0605735Y0116755D01*
X0605729Y0116799D01*
X0605727Y0116843D01*
X0605727Y0122843D02*
X0605729Y0122887D01*
X0605735Y0122931D01*
X0605745Y0122974D01*
X0605758Y0123016D01*
X0605775Y0123057D01*
X0605796Y0123096D01*
X0605820Y0123133D01*
X0605847Y0123168D01*
X0605877Y0123200D01*
X0605910Y0123230D01*
X0605946Y0123256D01*
X0605983Y0123280D01*
X0606023Y0123299D01*
X0606064Y0123316D01*
X0606107Y0123328D01*
X0606150Y0123337D01*
X0606194Y0123342D01*
X0606238Y0123343D01*
X0606282Y0123340D01*
X0606326Y0123333D01*
X0606369Y0123322D01*
X0606411Y0123308D01*
X0606451Y0123290D01*
X0606490Y0123268D01*
X0606526Y0123244D01*
X0606560Y0123216D01*
X0606592Y0123185D01*
X0606621Y0123151D01*
X0606647Y0123115D01*
X0606669Y0123077D01*
X0606688Y0123037D01*
X0606703Y0122995D01*
X0606715Y0122953D01*
X0606723Y0122909D01*
X0606727Y0122865D01*
X0606727Y0122821D01*
X0606723Y0122777D01*
X0606715Y0122733D01*
X0606703Y0122691D01*
X0606688Y0122649D01*
X0606669Y0122609D01*
X0606647Y0122571D01*
X0606621Y0122535D01*
X0606592Y0122501D01*
X0606560Y0122470D01*
X0606526Y0122442D01*
X0606490Y0122418D01*
X0606451Y0122396D01*
X0606411Y0122378D01*
X0606369Y0122364D01*
X0606326Y0122353D01*
X0606282Y0122346D01*
X0606238Y0122343D01*
X0606194Y0122344D01*
X0606150Y0122349D01*
X0606107Y0122358D01*
X0606064Y0122370D01*
X0606023Y0122387D01*
X0605983Y0122406D01*
X0605946Y0122430D01*
X0605910Y0122456D01*
X0605877Y0122486D01*
X0605847Y0122518D01*
X0605820Y0122553D01*
X0605796Y0122590D01*
X0605775Y0122629D01*
X0605758Y0122670D01*
X0605745Y0122712D01*
X0605735Y0122755D01*
X0605729Y0122799D01*
X0605727Y0122843D01*
X0605727Y0128843D02*
X0605729Y0128887D01*
X0605735Y0128931D01*
X0605745Y0128974D01*
X0605758Y0129016D01*
X0605775Y0129057D01*
X0605796Y0129096D01*
X0605820Y0129133D01*
X0605847Y0129168D01*
X0605877Y0129200D01*
X0605910Y0129230D01*
X0605946Y0129256D01*
X0605983Y0129280D01*
X0606023Y0129299D01*
X0606064Y0129316D01*
X0606107Y0129328D01*
X0606150Y0129337D01*
X0606194Y0129342D01*
X0606238Y0129343D01*
X0606282Y0129340D01*
X0606326Y0129333D01*
X0606369Y0129322D01*
X0606411Y0129308D01*
X0606451Y0129290D01*
X0606490Y0129268D01*
X0606526Y0129244D01*
X0606560Y0129216D01*
X0606592Y0129185D01*
X0606621Y0129151D01*
X0606647Y0129115D01*
X0606669Y0129077D01*
X0606688Y0129037D01*
X0606703Y0128995D01*
X0606715Y0128953D01*
X0606723Y0128909D01*
X0606727Y0128865D01*
X0606727Y0128821D01*
X0606723Y0128777D01*
X0606715Y0128733D01*
X0606703Y0128691D01*
X0606688Y0128649D01*
X0606669Y0128609D01*
X0606647Y0128571D01*
X0606621Y0128535D01*
X0606592Y0128501D01*
X0606560Y0128470D01*
X0606526Y0128442D01*
X0606490Y0128418D01*
X0606451Y0128396D01*
X0606411Y0128378D01*
X0606369Y0128364D01*
X0606326Y0128353D01*
X0606282Y0128346D01*
X0606238Y0128343D01*
X0606194Y0128344D01*
X0606150Y0128349D01*
X0606107Y0128358D01*
X0606064Y0128370D01*
X0606023Y0128387D01*
X0605983Y0128406D01*
X0605946Y0128430D01*
X0605910Y0128456D01*
X0605877Y0128486D01*
X0605847Y0128518D01*
X0605820Y0128553D01*
X0605796Y0128590D01*
X0605775Y0128629D01*
X0605758Y0128670D01*
X0605745Y0128712D01*
X0605735Y0128755D01*
X0605729Y0128799D01*
X0605727Y0128843D01*
X0605727Y0134843D02*
X0605729Y0134887D01*
X0605735Y0134931D01*
X0605745Y0134974D01*
X0605758Y0135016D01*
X0605775Y0135057D01*
X0605796Y0135096D01*
X0605820Y0135133D01*
X0605847Y0135168D01*
X0605877Y0135200D01*
X0605910Y0135230D01*
X0605946Y0135256D01*
X0605983Y0135280D01*
X0606023Y0135299D01*
X0606064Y0135316D01*
X0606107Y0135328D01*
X0606150Y0135337D01*
X0606194Y0135342D01*
X0606238Y0135343D01*
X0606282Y0135340D01*
X0606326Y0135333D01*
X0606369Y0135322D01*
X0606411Y0135308D01*
X0606451Y0135290D01*
X0606490Y0135268D01*
X0606526Y0135244D01*
X0606560Y0135216D01*
X0606592Y0135185D01*
X0606621Y0135151D01*
X0606647Y0135115D01*
X0606669Y0135077D01*
X0606688Y0135037D01*
X0606703Y0134995D01*
X0606715Y0134953D01*
X0606723Y0134909D01*
X0606727Y0134865D01*
X0606727Y0134821D01*
X0606723Y0134777D01*
X0606715Y0134733D01*
X0606703Y0134691D01*
X0606688Y0134649D01*
X0606669Y0134609D01*
X0606647Y0134571D01*
X0606621Y0134535D01*
X0606592Y0134501D01*
X0606560Y0134470D01*
X0606526Y0134442D01*
X0606490Y0134418D01*
X0606451Y0134396D01*
X0606411Y0134378D01*
X0606369Y0134364D01*
X0606326Y0134353D01*
X0606282Y0134346D01*
X0606238Y0134343D01*
X0606194Y0134344D01*
X0606150Y0134349D01*
X0606107Y0134358D01*
X0606064Y0134370D01*
X0606023Y0134387D01*
X0605983Y0134406D01*
X0605946Y0134430D01*
X0605910Y0134456D01*
X0605877Y0134486D01*
X0605847Y0134518D01*
X0605820Y0134553D01*
X0605796Y0134590D01*
X0605775Y0134629D01*
X0605758Y0134670D01*
X0605745Y0134712D01*
X0605735Y0134755D01*
X0605729Y0134799D01*
X0605727Y0134843D01*
X0605727Y0140843D02*
X0605729Y0140887D01*
X0605735Y0140931D01*
X0605745Y0140974D01*
X0605758Y0141016D01*
X0605775Y0141057D01*
X0605796Y0141096D01*
X0605820Y0141133D01*
X0605847Y0141168D01*
X0605877Y0141200D01*
X0605910Y0141230D01*
X0605946Y0141256D01*
X0605983Y0141280D01*
X0606023Y0141299D01*
X0606064Y0141316D01*
X0606107Y0141328D01*
X0606150Y0141337D01*
X0606194Y0141342D01*
X0606238Y0141343D01*
X0606282Y0141340D01*
X0606326Y0141333D01*
X0606369Y0141322D01*
X0606411Y0141308D01*
X0606451Y0141290D01*
X0606490Y0141268D01*
X0606526Y0141244D01*
X0606560Y0141216D01*
X0606592Y0141185D01*
X0606621Y0141151D01*
X0606647Y0141115D01*
X0606669Y0141077D01*
X0606688Y0141037D01*
X0606703Y0140995D01*
X0606715Y0140953D01*
X0606723Y0140909D01*
X0606727Y0140865D01*
X0606727Y0140821D01*
X0606723Y0140777D01*
X0606715Y0140733D01*
X0606703Y0140691D01*
X0606688Y0140649D01*
X0606669Y0140609D01*
X0606647Y0140571D01*
X0606621Y0140535D01*
X0606592Y0140501D01*
X0606560Y0140470D01*
X0606526Y0140442D01*
X0606490Y0140418D01*
X0606451Y0140396D01*
X0606411Y0140378D01*
X0606369Y0140364D01*
X0606326Y0140353D01*
X0606282Y0140346D01*
X0606238Y0140343D01*
X0606194Y0140344D01*
X0606150Y0140349D01*
X0606107Y0140358D01*
X0606064Y0140370D01*
X0606023Y0140387D01*
X0605983Y0140406D01*
X0605946Y0140430D01*
X0605910Y0140456D01*
X0605877Y0140486D01*
X0605847Y0140518D01*
X0605820Y0140553D01*
X0605796Y0140590D01*
X0605775Y0140629D01*
X0605758Y0140670D01*
X0605745Y0140712D01*
X0605735Y0140755D01*
X0605729Y0140799D01*
X0605727Y0140843D01*
X0605727Y0146843D02*
X0605729Y0146887D01*
X0605735Y0146931D01*
X0605745Y0146974D01*
X0605758Y0147016D01*
X0605775Y0147057D01*
X0605796Y0147096D01*
X0605820Y0147133D01*
X0605847Y0147168D01*
X0605877Y0147200D01*
X0605910Y0147230D01*
X0605946Y0147256D01*
X0605983Y0147280D01*
X0606023Y0147299D01*
X0606064Y0147316D01*
X0606107Y0147328D01*
X0606150Y0147337D01*
X0606194Y0147342D01*
X0606238Y0147343D01*
X0606282Y0147340D01*
X0606326Y0147333D01*
X0606369Y0147322D01*
X0606411Y0147308D01*
X0606451Y0147290D01*
X0606490Y0147268D01*
X0606526Y0147244D01*
X0606560Y0147216D01*
X0606592Y0147185D01*
X0606621Y0147151D01*
X0606647Y0147115D01*
X0606669Y0147077D01*
X0606688Y0147037D01*
X0606703Y0146995D01*
X0606715Y0146953D01*
X0606723Y0146909D01*
X0606727Y0146865D01*
X0606727Y0146821D01*
X0606723Y0146777D01*
X0606715Y0146733D01*
X0606703Y0146691D01*
X0606688Y0146649D01*
X0606669Y0146609D01*
X0606647Y0146571D01*
X0606621Y0146535D01*
X0606592Y0146501D01*
X0606560Y0146470D01*
X0606526Y0146442D01*
X0606490Y0146418D01*
X0606451Y0146396D01*
X0606411Y0146378D01*
X0606369Y0146364D01*
X0606326Y0146353D01*
X0606282Y0146346D01*
X0606238Y0146343D01*
X0606194Y0146344D01*
X0606150Y0146349D01*
X0606107Y0146358D01*
X0606064Y0146370D01*
X0606023Y0146387D01*
X0605983Y0146406D01*
X0605946Y0146430D01*
X0605910Y0146456D01*
X0605877Y0146486D01*
X0605847Y0146518D01*
X0605820Y0146553D01*
X0605796Y0146590D01*
X0605775Y0146629D01*
X0605758Y0146670D01*
X0605745Y0146712D01*
X0605735Y0146755D01*
X0605729Y0146799D01*
X0605727Y0146843D01*
X0605727Y0152843D02*
X0605729Y0152887D01*
X0605735Y0152931D01*
X0605745Y0152974D01*
X0605758Y0153016D01*
X0605775Y0153057D01*
X0605796Y0153096D01*
X0605820Y0153133D01*
X0605847Y0153168D01*
X0605877Y0153200D01*
X0605910Y0153230D01*
X0605946Y0153256D01*
X0605983Y0153280D01*
X0606023Y0153299D01*
X0606064Y0153316D01*
X0606107Y0153328D01*
X0606150Y0153337D01*
X0606194Y0153342D01*
X0606238Y0153343D01*
X0606282Y0153340D01*
X0606326Y0153333D01*
X0606369Y0153322D01*
X0606411Y0153308D01*
X0606451Y0153290D01*
X0606490Y0153268D01*
X0606526Y0153244D01*
X0606560Y0153216D01*
X0606592Y0153185D01*
X0606621Y0153151D01*
X0606647Y0153115D01*
X0606669Y0153077D01*
X0606688Y0153037D01*
X0606703Y0152995D01*
X0606715Y0152953D01*
X0606723Y0152909D01*
X0606727Y0152865D01*
X0606727Y0152821D01*
X0606723Y0152777D01*
X0606715Y0152733D01*
X0606703Y0152691D01*
X0606688Y0152649D01*
X0606669Y0152609D01*
X0606647Y0152571D01*
X0606621Y0152535D01*
X0606592Y0152501D01*
X0606560Y0152470D01*
X0606526Y0152442D01*
X0606490Y0152418D01*
X0606451Y0152396D01*
X0606411Y0152378D01*
X0606369Y0152364D01*
X0606326Y0152353D01*
X0606282Y0152346D01*
X0606238Y0152343D01*
X0606194Y0152344D01*
X0606150Y0152349D01*
X0606107Y0152358D01*
X0606064Y0152370D01*
X0606023Y0152387D01*
X0605983Y0152406D01*
X0605946Y0152430D01*
X0605910Y0152456D01*
X0605877Y0152486D01*
X0605847Y0152518D01*
X0605820Y0152553D01*
X0605796Y0152590D01*
X0605775Y0152629D01*
X0605758Y0152670D01*
X0605745Y0152712D01*
X0605735Y0152755D01*
X0605729Y0152799D01*
X0605727Y0152843D01*
X0605727Y0158843D02*
X0605729Y0158887D01*
X0605735Y0158931D01*
X0605745Y0158974D01*
X0605758Y0159016D01*
X0605775Y0159057D01*
X0605796Y0159096D01*
X0605820Y0159133D01*
X0605847Y0159168D01*
X0605877Y0159200D01*
X0605910Y0159230D01*
X0605946Y0159256D01*
X0605983Y0159280D01*
X0606023Y0159299D01*
X0606064Y0159316D01*
X0606107Y0159328D01*
X0606150Y0159337D01*
X0606194Y0159342D01*
X0606238Y0159343D01*
X0606282Y0159340D01*
X0606326Y0159333D01*
X0606369Y0159322D01*
X0606411Y0159308D01*
X0606451Y0159290D01*
X0606490Y0159268D01*
X0606526Y0159244D01*
X0606560Y0159216D01*
X0606592Y0159185D01*
X0606621Y0159151D01*
X0606647Y0159115D01*
X0606669Y0159077D01*
X0606688Y0159037D01*
X0606703Y0158995D01*
X0606715Y0158953D01*
X0606723Y0158909D01*
X0606727Y0158865D01*
X0606727Y0158821D01*
X0606723Y0158777D01*
X0606715Y0158733D01*
X0606703Y0158691D01*
X0606688Y0158649D01*
X0606669Y0158609D01*
X0606647Y0158571D01*
X0606621Y0158535D01*
X0606592Y0158501D01*
X0606560Y0158470D01*
X0606526Y0158442D01*
X0606490Y0158418D01*
X0606451Y0158396D01*
X0606411Y0158378D01*
X0606369Y0158364D01*
X0606326Y0158353D01*
X0606282Y0158346D01*
X0606238Y0158343D01*
X0606194Y0158344D01*
X0606150Y0158349D01*
X0606107Y0158358D01*
X0606064Y0158370D01*
X0606023Y0158387D01*
X0605983Y0158406D01*
X0605946Y0158430D01*
X0605910Y0158456D01*
X0605877Y0158486D01*
X0605847Y0158518D01*
X0605820Y0158553D01*
X0605796Y0158590D01*
X0605775Y0158629D01*
X0605758Y0158670D01*
X0605745Y0158712D01*
X0605735Y0158755D01*
X0605729Y0158799D01*
X0605727Y0158843D01*
X0099483Y0302146D02*
X0096727Y0307067D01*
X0093971Y0302146D01*
X0099483Y0302146D01*
X0096727Y0302093D02*
X0096727Y0299593D01*
X0096727Y0307343D02*
X0096727Y0309843D01*
D13*
X0150977Y0316343D02*
X0152477Y0314093D01*
X0153977Y0316343D01*
X0150977Y0316343D01*
X0151014Y0316288D02*
X0153941Y0316288D01*
X0153542Y0315689D02*
X0151413Y0315689D01*
X0151812Y0315091D02*
X0153143Y0315091D01*
X0152743Y0314492D02*
X0152211Y0314492D01*
X0188727Y0282793D02*
X0227727Y0282793D01*
X0227727Y0277543D01*
X0227658Y0277541D01*
X0227590Y0277535D01*
X0227522Y0277525D01*
X0227455Y0277512D01*
X0227389Y0277494D01*
X0227324Y0277473D01*
X0227260Y0277448D01*
X0227198Y0277420D01*
X0227137Y0277388D01*
X0227078Y0277353D01*
X0227022Y0277314D01*
X0226967Y0277272D01*
X0226916Y0277227D01*
X0226866Y0277179D01*
X0226820Y0277129D01*
X0226777Y0277076D01*
X0226736Y0277020D01*
X0226699Y0276963D01*
X0226666Y0276903D01*
X0226635Y0276841D01*
X0226609Y0276778D01*
X0226586Y0276714D01*
X0226566Y0276648D01*
X0226551Y0276581D01*
X0226539Y0276514D01*
X0226531Y0276446D01*
X0226527Y0276377D01*
X0226527Y0276309D01*
X0226531Y0276240D01*
X0226539Y0276172D01*
X0226551Y0276105D01*
X0226566Y0276038D01*
X0226586Y0275972D01*
X0226609Y0275908D01*
X0226635Y0275845D01*
X0226666Y0275783D01*
X0226699Y0275723D01*
X0226736Y0275666D01*
X0226777Y0275610D01*
X0226820Y0275557D01*
X0226866Y0275507D01*
X0226916Y0275459D01*
X0226967Y0275414D01*
X0227022Y0275372D01*
X0227078Y0275333D01*
X0227137Y0275298D01*
X0227198Y0275266D01*
X0227260Y0275238D01*
X0227324Y0275213D01*
X0227389Y0275192D01*
X0227455Y0275174D01*
X0227522Y0275161D01*
X0227590Y0275151D01*
X0227658Y0275145D01*
X0227727Y0275143D01*
X0227727Y0269893D01*
X0188727Y0269893D01*
X0188727Y0282793D01*
X0184727Y0270343D02*
X0186227Y0268093D01*
X0183227Y0268093D01*
X0184727Y0270343D01*
X0184634Y0270202D02*
X0184820Y0270202D01*
X0185219Y0269604D02*
X0184235Y0269604D01*
X0183836Y0269005D02*
X0185618Y0269005D01*
X0186017Y0268407D02*
X0183437Y0268407D01*
X0223227Y0274593D02*
X0225727Y0271093D01*
X0225727Y0274593D01*
X0223227Y0274593D01*
X0223370Y0274392D02*
X0225727Y0274392D01*
X0225727Y0273793D02*
X0223798Y0273793D01*
X0224225Y0273195D02*
X0225727Y0273195D01*
X0225727Y0272596D02*
X0224653Y0272596D01*
X0225080Y0271998D02*
X0225727Y0271998D01*
X0225727Y0271399D02*
X0225508Y0271399D01*
X0266727Y0313593D02*
X0268977Y0312093D01*
X0268977Y0315093D01*
X0266727Y0313593D01*
X0267173Y0313295D02*
X0268977Y0313295D01*
X0268977Y0312697D02*
X0268071Y0312697D01*
X0268969Y0312098D02*
X0268977Y0312098D01*
X0268977Y0313894D02*
X0267179Y0313894D01*
X0268077Y0314492D02*
X0268977Y0314492D01*
X0268974Y0315091D02*
X0268977Y0315091D01*
X0399677Y0251243D02*
X0399677Y0248493D01*
X0399677Y0251243D02*
X0402877Y0251243D01*
X0405277Y0246193D02*
X0405277Y0244493D01*
X0402877Y0239443D02*
X0399677Y0239443D01*
X0399677Y0242193D01*
X0410977Y0266093D02*
X0409477Y0268343D01*
X0412477Y0268343D01*
X0410977Y0266093D01*
X0410631Y0266611D02*
X0411323Y0266611D01*
X0411722Y0267210D02*
X0410232Y0267210D01*
X0409833Y0267808D02*
X0412121Y0267808D01*
X0430477Y0221543D02*
X0469477Y0221543D01*
X0469477Y0208643D01*
X0430477Y0208643D01*
X0430477Y0213893D01*
X0430546Y0213895D01*
X0430614Y0213901D01*
X0430682Y0213911D01*
X0430749Y0213924D01*
X0430815Y0213942D01*
X0430880Y0213963D01*
X0430944Y0213988D01*
X0431006Y0214016D01*
X0431067Y0214048D01*
X0431126Y0214083D01*
X0431182Y0214122D01*
X0431237Y0214164D01*
X0431288Y0214209D01*
X0431338Y0214257D01*
X0431384Y0214307D01*
X0431427Y0214360D01*
X0431468Y0214416D01*
X0431505Y0214473D01*
X0431538Y0214533D01*
X0431569Y0214595D01*
X0431595Y0214658D01*
X0431618Y0214722D01*
X0431638Y0214788D01*
X0431653Y0214855D01*
X0431665Y0214922D01*
X0431673Y0214990D01*
X0431677Y0215059D01*
X0431677Y0215127D01*
X0431673Y0215196D01*
X0431665Y0215264D01*
X0431653Y0215331D01*
X0431638Y0215398D01*
X0431618Y0215464D01*
X0431595Y0215528D01*
X0431569Y0215591D01*
X0431538Y0215653D01*
X0431505Y0215713D01*
X0431468Y0215770D01*
X0431427Y0215826D01*
X0431384Y0215879D01*
X0431338Y0215929D01*
X0431288Y0215977D01*
X0431237Y0216022D01*
X0431182Y0216064D01*
X0431126Y0216103D01*
X0431067Y0216138D01*
X0431006Y0216170D01*
X0430944Y0216198D01*
X0430880Y0216223D01*
X0430815Y0216244D01*
X0430749Y0216262D01*
X0430682Y0216275D01*
X0430614Y0216285D01*
X0430546Y0216291D01*
X0430477Y0216293D01*
X0430477Y0221543D01*
X0432477Y0220343D02*
X0434977Y0216843D01*
X0432477Y0216843D01*
X0432477Y0220343D01*
X0432477Y0219927D02*
X0432774Y0219927D01*
X0432477Y0219329D02*
X0433201Y0219329D01*
X0433629Y0218730D02*
X0432477Y0218730D01*
X0432477Y0218132D02*
X0434056Y0218132D01*
X0434484Y0217533D02*
X0432477Y0217533D01*
X0432477Y0216935D02*
X0434911Y0216935D01*
X0408227Y0209343D02*
X0405977Y0207843D01*
X0405977Y0210843D01*
X0408227Y0209343D01*
X0407945Y0209154D02*
X0405977Y0209154D01*
X0405977Y0208556D02*
X0407047Y0208556D01*
X0406149Y0207957D02*
X0405977Y0207957D01*
X0405977Y0209753D02*
X0407612Y0209753D01*
X0406714Y0210351D02*
X0405977Y0210351D01*
X0403477Y0203343D02*
X0403477Y0198593D01*
X0406727Y0201093D01*
X0403477Y0203343D01*
X0403477Y0203169D02*
X0403727Y0203169D01*
X0403477Y0202571D02*
X0404592Y0202571D01*
X0405457Y0201972D02*
X0403477Y0201972D01*
X0403477Y0201374D02*
X0406321Y0201374D01*
X0406314Y0200775D02*
X0403477Y0200775D01*
X0403477Y0200177D02*
X0405536Y0200177D01*
X0404758Y0199578D02*
X0403477Y0199578D01*
X0403477Y0198980D02*
X0403980Y0198980D01*
X0374430Y0185280D02*
X0374430Y0177406D01*
X0371477Y0180593D02*
X0369977Y0182843D01*
X0372977Y0182843D01*
X0371477Y0180593D01*
X0371189Y0181024D02*
X0371765Y0181024D01*
X0372164Y0181623D02*
X0370790Y0181623D01*
X0370391Y0182221D02*
X0372563Y0182221D01*
X0372962Y0182820D02*
X0369992Y0182820D01*
X0368524Y0185280D02*
X0368524Y0177406D01*
X0367680Y0177406D02*
X0367680Y0185280D01*
X0366227Y0182843D02*
X0363227Y0182843D01*
X0364727Y0180593D01*
X0366227Y0182843D01*
X0366212Y0182820D02*
X0363242Y0182820D01*
X0363641Y0182221D02*
X0365813Y0182221D01*
X0365414Y0181623D02*
X0364040Y0181623D01*
X0364439Y0181024D02*
X0365015Y0181024D01*
X0361774Y0177406D02*
X0361774Y0185280D01*
X0334777Y0192093D02*
X0327177Y0192093D01*
X0327175Y0192024D01*
X0327169Y0191956D01*
X0327159Y0191888D01*
X0327146Y0191821D01*
X0327128Y0191755D01*
X0327107Y0191690D01*
X0327082Y0191626D01*
X0327054Y0191564D01*
X0327022Y0191503D01*
X0326987Y0191444D01*
X0326948Y0191388D01*
X0326906Y0191333D01*
X0326861Y0191282D01*
X0326813Y0191232D01*
X0326763Y0191186D01*
X0326710Y0191143D01*
X0326654Y0191102D01*
X0326597Y0191065D01*
X0326537Y0191032D01*
X0326475Y0191001D01*
X0326412Y0190975D01*
X0326348Y0190952D01*
X0326282Y0190932D01*
X0326215Y0190917D01*
X0326148Y0190905D01*
X0326080Y0190897D01*
X0326011Y0190893D01*
X0325943Y0190893D01*
X0325874Y0190897D01*
X0325806Y0190905D01*
X0325739Y0190917D01*
X0325672Y0190932D01*
X0325606Y0190952D01*
X0325542Y0190975D01*
X0325479Y0191001D01*
X0325417Y0191032D01*
X0325357Y0191065D01*
X0325300Y0191102D01*
X0325244Y0191143D01*
X0325191Y0191186D01*
X0325141Y0191232D01*
X0325093Y0191282D01*
X0325048Y0191333D01*
X0325006Y0191388D01*
X0324967Y0191444D01*
X0324932Y0191503D01*
X0324900Y0191564D01*
X0324872Y0191626D01*
X0324847Y0191690D01*
X0324826Y0191755D01*
X0324808Y0191821D01*
X0324795Y0191888D01*
X0324785Y0191956D01*
X0324779Y0192024D01*
X0324777Y0192093D01*
X0317177Y0192093D01*
X0329477Y0190093D02*
X0329477Y0188093D01*
X0332727Y0190093D01*
X0329477Y0190093D01*
X0329477Y0190002D02*
X0332580Y0190002D01*
X0331607Y0189403D02*
X0329477Y0189403D01*
X0329477Y0188805D02*
X0330635Y0188805D01*
X0329662Y0188206D02*
X0329477Y0188206D01*
X0334777Y0171093D02*
X0317177Y0171093D01*
X0326790Y0167545D02*
X0334664Y0167545D01*
X0331477Y0164593D02*
X0329227Y0163093D01*
X0329227Y0166093D01*
X0331477Y0164593D01*
X0331069Y0164864D02*
X0329227Y0164864D01*
X0329227Y0164266D02*
X0330987Y0164266D01*
X0330089Y0163667D02*
X0329227Y0163667D01*
X0329227Y0165463D02*
X0330171Y0165463D01*
X0329274Y0166061D02*
X0329227Y0166061D01*
X0326790Y0161640D02*
X0334664Y0161640D01*
X0347727Y0142793D02*
X0347727Y0129893D01*
X0353192Y0133742D02*
X0354727Y0133742D01*
X0354727Y0134340D02*
X0352764Y0134340D01*
X0352337Y0134939D02*
X0354727Y0134939D01*
X0354727Y0135093D02*
X0354727Y0131593D01*
X0352227Y0135093D01*
X0354727Y0135093D01*
X0354727Y0133143D02*
X0353619Y0133143D01*
X0354047Y0132545D02*
X0354727Y0132545D01*
X0354727Y0131946D02*
X0354474Y0131946D01*
X0356727Y0129893D02*
X0356727Y0135143D01*
X0356658Y0135145D01*
X0356590Y0135151D01*
X0356522Y0135161D01*
X0356455Y0135174D01*
X0356389Y0135192D01*
X0356324Y0135213D01*
X0356260Y0135238D01*
X0356198Y0135266D01*
X0356137Y0135298D01*
X0356078Y0135333D01*
X0356022Y0135372D01*
X0355967Y0135414D01*
X0355916Y0135459D01*
X0355866Y0135507D01*
X0355820Y0135557D01*
X0355777Y0135610D01*
X0355736Y0135666D01*
X0355699Y0135723D01*
X0355666Y0135783D01*
X0355635Y0135845D01*
X0355609Y0135908D01*
X0355586Y0135972D01*
X0355566Y0136038D01*
X0355551Y0136105D01*
X0355539Y0136172D01*
X0355531Y0136240D01*
X0355527Y0136309D01*
X0355527Y0136377D01*
X0355531Y0136446D01*
X0355539Y0136514D01*
X0355551Y0136581D01*
X0355566Y0136648D01*
X0355586Y0136714D01*
X0355609Y0136778D01*
X0355635Y0136841D01*
X0355666Y0136903D01*
X0355699Y0136963D01*
X0355736Y0137020D01*
X0355777Y0137076D01*
X0355820Y0137129D01*
X0355866Y0137179D01*
X0355916Y0137227D01*
X0355967Y0137272D01*
X0356022Y0137314D01*
X0356078Y0137353D01*
X0356137Y0137388D01*
X0356198Y0137420D01*
X0356260Y0137448D01*
X0356324Y0137473D01*
X0356389Y0137494D01*
X0356455Y0137512D01*
X0356522Y0137525D01*
X0356590Y0137535D01*
X0356658Y0137541D01*
X0356727Y0137543D01*
X0356727Y0142793D01*
X0362227Y0142793D02*
X0362227Y0137543D01*
X0362296Y0137541D01*
X0362364Y0137535D01*
X0362432Y0137525D01*
X0362499Y0137512D01*
X0362565Y0137494D01*
X0362630Y0137473D01*
X0362694Y0137448D01*
X0362756Y0137420D01*
X0362817Y0137388D01*
X0362876Y0137353D01*
X0362932Y0137314D01*
X0362987Y0137272D01*
X0363038Y0137227D01*
X0363088Y0137179D01*
X0363134Y0137129D01*
X0363177Y0137076D01*
X0363218Y0137020D01*
X0363255Y0136963D01*
X0363288Y0136903D01*
X0363319Y0136841D01*
X0363345Y0136778D01*
X0363368Y0136714D01*
X0363388Y0136648D01*
X0363403Y0136581D01*
X0363415Y0136514D01*
X0363423Y0136446D01*
X0363427Y0136377D01*
X0363427Y0136309D01*
X0363423Y0136240D01*
X0363415Y0136172D01*
X0363403Y0136105D01*
X0363388Y0136038D01*
X0363368Y0135972D01*
X0363345Y0135908D01*
X0363319Y0135845D01*
X0363288Y0135783D01*
X0363255Y0135723D01*
X0363218Y0135666D01*
X0363177Y0135610D01*
X0363134Y0135557D01*
X0363088Y0135507D01*
X0363038Y0135459D01*
X0362987Y0135414D01*
X0362932Y0135372D01*
X0362876Y0135333D01*
X0362817Y0135298D01*
X0362756Y0135266D01*
X0362694Y0135238D01*
X0362630Y0135213D01*
X0362565Y0135192D01*
X0362499Y0135174D01*
X0362432Y0135161D01*
X0362364Y0135151D01*
X0362296Y0135145D01*
X0362227Y0135143D01*
X0362227Y0129893D01*
X0371227Y0129893D02*
X0371227Y0142793D01*
X0365630Y0139128D02*
X0364227Y0139128D01*
X0364227Y0138530D02*
X0366057Y0138530D01*
X0366485Y0137931D02*
X0364227Y0137931D01*
X0364227Y0137593D02*
X0366727Y0137593D01*
X0364227Y0141093D01*
X0364227Y0137593D01*
X0364227Y0139727D02*
X0365202Y0139727D01*
X0364775Y0140325D02*
X0364227Y0140325D01*
X0364227Y0140924D02*
X0364347Y0140924D01*
X0337596Y0111893D02*
X0331427Y0111893D01*
X0331425Y0111824D01*
X0331419Y0111756D01*
X0331409Y0111688D01*
X0331396Y0111621D01*
X0331378Y0111555D01*
X0331357Y0111490D01*
X0331332Y0111426D01*
X0331304Y0111364D01*
X0331272Y0111303D01*
X0331237Y0111244D01*
X0331198Y0111188D01*
X0331156Y0111133D01*
X0331111Y0111082D01*
X0331063Y0111032D01*
X0331013Y0110986D01*
X0330960Y0110943D01*
X0330904Y0110902D01*
X0330847Y0110865D01*
X0330787Y0110832D01*
X0330725Y0110801D01*
X0330662Y0110775D01*
X0330598Y0110752D01*
X0330532Y0110732D01*
X0330465Y0110717D01*
X0330398Y0110705D01*
X0330330Y0110697D01*
X0330261Y0110693D01*
X0330193Y0110693D01*
X0330124Y0110697D01*
X0330056Y0110705D01*
X0329989Y0110717D01*
X0329922Y0110732D01*
X0329856Y0110752D01*
X0329792Y0110775D01*
X0329729Y0110801D01*
X0329667Y0110832D01*
X0329607Y0110865D01*
X0329550Y0110902D01*
X0329494Y0110943D01*
X0329441Y0110986D01*
X0329391Y0111032D01*
X0329343Y0111082D01*
X0329298Y0111133D01*
X0329256Y0111188D01*
X0329217Y0111244D01*
X0329182Y0111303D01*
X0329150Y0111364D01*
X0329122Y0111426D01*
X0329097Y0111490D01*
X0329076Y0111555D01*
X0329058Y0111621D01*
X0329045Y0111688D01*
X0329035Y0111756D01*
X0329029Y0111824D01*
X0329027Y0111893D01*
X0322859Y0111893D01*
X0332977Y0109343D02*
X0332977Y0106843D01*
X0336477Y0109343D01*
X0332977Y0109343D01*
X0332977Y0109203D02*
X0336281Y0109203D01*
X0335444Y0108604D02*
X0332977Y0108604D01*
X0332977Y0108006D02*
X0334606Y0108006D01*
X0333768Y0107407D02*
X0332977Y0107407D01*
X0337596Y0092293D02*
X0322859Y0092293D01*
X0292430Y0152906D02*
X0292430Y0160780D01*
X0290977Y0158343D02*
X0287977Y0158343D01*
X0289477Y0156093D01*
X0290977Y0158343D01*
X0290936Y0158281D02*
X0288018Y0158281D01*
X0288417Y0157682D02*
X0290537Y0157682D01*
X0290138Y0157084D02*
X0288816Y0157084D01*
X0289215Y0156485D02*
X0289739Y0156485D01*
X0286524Y0152906D02*
X0286524Y0160780D01*
X0264727Y0176843D02*
X0264727Y0179843D01*
X0262477Y0178343D01*
X0264727Y0176843D01*
X0264727Y0177433D02*
X0263841Y0177433D01*
X0264727Y0178032D02*
X0262943Y0178032D01*
X0262908Y0178630D02*
X0264727Y0178630D01*
X0264727Y0179229D02*
X0263806Y0179229D01*
X0264704Y0179827D02*
X0264727Y0179827D01*
X0297477Y0210593D02*
X0295977Y0212843D01*
X0298977Y0212843D01*
X0297477Y0210593D01*
X0297239Y0210950D02*
X0297715Y0210950D01*
X0298114Y0211548D02*
X0296840Y0211548D01*
X0296441Y0212147D02*
X0298513Y0212147D01*
X0298912Y0212745D02*
X0296042Y0212745D01*
X0170977Y0176593D02*
X0170977Y0173593D01*
X0168727Y0175093D01*
X0170977Y0176593D01*
X0170977Y0176236D02*
X0170442Y0176236D01*
X0170977Y0175638D02*
X0169545Y0175638D01*
X0168807Y0175039D02*
X0170977Y0175039D01*
X0170977Y0174441D02*
X0169705Y0174441D01*
X0170603Y0173842D02*
X0170977Y0173842D01*
X0480477Y0145343D02*
X0483477Y0145343D01*
X0481977Y0147593D01*
X0480477Y0145343D01*
X0480723Y0145712D02*
X0483231Y0145712D01*
X0482832Y0146311D02*
X0481122Y0146311D01*
X0481521Y0146909D02*
X0482433Y0146909D01*
X0482034Y0147508D02*
X0481920Y0147508D01*
X0482727Y0169893D02*
X0482727Y0182793D01*
X0487227Y0175093D02*
X0489727Y0171593D01*
X0489727Y0175093D01*
X0487227Y0175093D01*
X0487265Y0175039D02*
X0489727Y0175039D01*
X0489727Y0174441D02*
X0487693Y0174441D01*
X0488120Y0173842D02*
X0489727Y0173842D01*
X0489727Y0173244D02*
X0488548Y0173244D01*
X0488975Y0172645D02*
X0489727Y0172645D01*
X0489727Y0172047D02*
X0489403Y0172047D01*
X0491727Y0169893D02*
X0491727Y0175143D01*
X0491658Y0175145D01*
X0491590Y0175151D01*
X0491522Y0175161D01*
X0491455Y0175174D01*
X0491389Y0175192D01*
X0491324Y0175213D01*
X0491260Y0175238D01*
X0491198Y0175266D01*
X0491137Y0175298D01*
X0491078Y0175333D01*
X0491022Y0175372D01*
X0490967Y0175414D01*
X0490916Y0175459D01*
X0490866Y0175507D01*
X0490820Y0175557D01*
X0490777Y0175610D01*
X0490736Y0175666D01*
X0490699Y0175723D01*
X0490666Y0175783D01*
X0490635Y0175845D01*
X0490609Y0175908D01*
X0490586Y0175972D01*
X0490566Y0176038D01*
X0490551Y0176105D01*
X0490539Y0176172D01*
X0490531Y0176240D01*
X0490527Y0176309D01*
X0490527Y0176377D01*
X0490531Y0176446D01*
X0490539Y0176514D01*
X0490551Y0176581D01*
X0490566Y0176648D01*
X0490586Y0176714D01*
X0490609Y0176778D01*
X0490635Y0176841D01*
X0490666Y0176903D01*
X0490699Y0176963D01*
X0490736Y0177020D01*
X0490777Y0177076D01*
X0490820Y0177129D01*
X0490866Y0177179D01*
X0490916Y0177227D01*
X0490967Y0177272D01*
X0491022Y0177314D01*
X0491078Y0177353D01*
X0491137Y0177388D01*
X0491198Y0177420D01*
X0491260Y0177448D01*
X0491324Y0177473D01*
X0491389Y0177494D01*
X0491455Y0177512D01*
X0491522Y0177525D01*
X0491590Y0177535D01*
X0491658Y0177541D01*
X0491727Y0177543D01*
X0491727Y0182793D01*
X0603227Y0162093D02*
X0603227Y0113843D01*
X0609227Y0113843D01*
X0609227Y0162093D01*
X0603227Y0162093D01*
X0626925Y0210993D02*
X0629427Y0210993D01*
X0626925Y0210993D02*
X0626091Y0211827D01*
X0626091Y0214329D01*
X0629427Y0214329D01*
X0629427Y0216098D02*
X0629427Y0217766D01*
X0629427Y0216932D02*
X0626091Y0216932D01*
X0626091Y0217766D01*
X0624423Y0216932D02*
X0623589Y0216932D01*
X0625257Y0224743D02*
X0624423Y0225577D01*
X0624423Y0227245D01*
X0625257Y0228079D01*
X0628593Y0228079D01*
X0629427Y0227245D01*
X0629427Y0225577D01*
X0628593Y0224743D01*
X0629427Y0229899D02*
X0626091Y0229899D01*
X0624423Y0231567D01*
X0626091Y0233236D01*
X0629427Y0233236D01*
X0626925Y0233236D02*
X0626925Y0229899D01*
X0624423Y0066522D02*
X0624423Y0064020D01*
X0625257Y0063186D01*
X0628593Y0063186D01*
X0629427Y0064020D01*
X0629427Y0066522D01*
X0624423Y0066522D01*
X0625257Y0061366D02*
X0628593Y0061366D01*
X0629427Y0060532D01*
X0629427Y0058864D01*
X0628593Y0058030D01*
X0625257Y0058030D02*
X0624423Y0058864D01*
X0624423Y0060532D01*
X0625257Y0061366D01*
X0626925Y0051053D02*
X0628593Y0051053D01*
X0629427Y0050219D01*
X0629427Y0048551D01*
X0628593Y0047717D01*
X0626925Y0047717D01*
X0626091Y0048551D01*
X0626091Y0050219D01*
X0626925Y0051053D01*
X0626091Y0045897D02*
X0628593Y0045897D01*
X0629427Y0045063D01*
X0629427Y0042561D01*
X0626091Y0042561D01*
X0626091Y0040740D02*
X0626091Y0039072D01*
X0625257Y0039906D02*
X0628593Y0039906D01*
X0629427Y0039072D01*
D14*
X0457951Y0317211D02*
X0427951Y0317211D01*
X0442951Y0342211D01*
X0457951Y0317211D01*
X0444488Y0321355D02*
X0441807Y0321355D01*
X0440951Y0322211D02*
X0443951Y0319211D01*
X0444951Y0323211D01*
X0440951Y0322211D01*
X0443924Y0322954D02*
X0444887Y0322954D01*
X0444088Y0319757D02*
X0443405Y0319757D01*
X0443951Y0319711D02*
X0441451Y0327211D01*
X0446451Y0327211D01*
X0443951Y0334711D01*
X0443951Y0335211D02*
X0445951Y0327211D01*
X0441951Y0335211D01*
X0443951Y0335211D01*
X0444218Y0334143D02*
X0442485Y0334143D01*
X0443284Y0332545D02*
X0444618Y0332545D01*
X0445018Y0330946D02*
X0444084Y0330946D01*
X0444883Y0329348D02*
X0445417Y0329348D01*
X0445682Y0327749D02*
X0445817Y0327749D01*
D15*
X0427577Y0326645D02*
X0423641Y0326645D01*
X0423641Y0323693D02*
X0423641Y0329598D01*
X0421500Y0329598D02*
X0419532Y0329598D01*
X0420516Y0329598D02*
X0420516Y0323693D01*
X0421500Y0323693D02*
X0419532Y0323693D01*
X0417449Y0324677D02*
X0416465Y0323693D01*
X0414496Y0323693D01*
X0413512Y0324677D01*
X0413512Y0326645D01*
X0415480Y0326645D01*
X0413512Y0328613D02*
X0414496Y0329598D01*
X0416465Y0329598D01*
X0417449Y0328613D01*
X0417449Y0324677D01*
X0411371Y0323693D02*
X0411371Y0329598D01*
X0411371Y0326645D02*
X0407435Y0326645D01*
X0407435Y0323693D02*
X0407435Y0329598D01*
X0406307Y0333593D02*
X0406307Y0337529D01*
X0404339Y0339498D01*
X0402370Y0337529D01*
X0402370Y0333593D01*
X0400230Y0334577D02*
X0400230Y0339498D01*
X0402370Y0336545D02*
X0406307Y0336545D01*
X0408448Y0334577D02*
X0409432Y0333593D01*
X0411400Y0333593D01*
X0412384Y0334577D01*
X0412384Y0338513D01*
X0411400Y0339498D01*
X0409432Y0339498D01*
X0408448Y0338513D01*
X0400230Y0334577D02*
X0399246Y0333593D01*
X0397277Y0333593D01*
X0396293Y0334577D01*
X0396293Y0339498D01*
X0394153Y0339498D02*
X0390216Y0339498D01*
X0392184Y0339498D02*
X0392184Y0333593D01*
X0392156Y0329598D02*
X0393140Y0328613D01*
X0393140Y0324677D01*
X0392156Y0323693D01*
X0390187Y0323693D01*
X0389203Y0324677D01*
X0389203Y0328613D01*
X0390187Y0329598D01*
X0392156Y0329598D01*
X0395280Y0329598D02*
X0395280Y0325661D01*
X0397249Y0323693D01*
X0399217Y0325661D01*
X0399217Y0329598D01*
X0388076Y0333593D02*
X0386107Y0333593D01*
X0387091Y0333593D02*
X0387091Y0339498D01*
X0386107Y0339498D02*
X0388076Y0339498D01*
X0384024Y0338513D02*
X0384024Y0334577D01*
X0383040Y0333593D01*
X0381072Y0333593D01*
X0380087Y0334577D01*
X0380087Y0338513D01*
X0381072Y0339498D01*
X0383040Y0339498D01*
X0384024Y0338513D01*
X0377947Y0339498D02*
X0377947Y0333593D01*
X0374010Y0333593D02*
X0374010Y0339498D01*
X0377947Y0339498D02*
X0374010Y0333593D01*
X0372940Y0329598D02*
X0370972Y0327629D01*
X0370972Y0323693D01*
X0368831Y0324677D02*
X0367847Y0323693D01*
X0365879Y0323693D01*
X0364894Y0324677D01*
X0364894Y0326645D01*
X0366863Y0326645D01*
X0368831Y0328613D02*
X0368831Y0324677D01*
X0370972Y0326645D02*
X0374908Y0326645D01*
X0374908Y0327629D02*
X0372940Y0329598D01*
X0374908Y0327629D02*
X0374908Y0323693D01*
X0379017Y0323693D02*
X0379017Y0329598D01*
X0377049Y0329598D02*
X0380986Y0329598D01*
X0387063Y0329598D02*
X0387063Y0323693D01*
X0383126Y0323693D01*
X0368831Y0328613D02*
X0367847Y0329598D01*
X0365879Y0329598D01*
X0364894Y0328613D01*
X0362754Y0329598D02*
X0358817Y0329598D01*
X0360786Y0326645D02*
X0362754Y0326645D01*
X0362754Y0323693D02*
X0358817Y0323693D01*
X0362754Y0323693D02*
X0362754Y0329598D01*
X0427577Y0329598D02*
X0427577Y0323693D01*
D16*
X0207467Y0044234D02*
X0172018Y0044234D01*
X0207467Y0044234D02*
X0207467Y0082951D01*
X0172018Y0082951D01*
X0172018Y0092984D02*
X0207467Y0092984D01*
X0207467Y0131701D01*
X0172018Y0131701D01*
X0222245Y0197140D02*
X0246260Y0197140D01*
X0246260Y0197939D01*
X0222245Y0197140D02*
X0222245Y0223045D01*
X0246260Y0223045D01*
X0246260Y0222246D01*
X0237944Y0264390D02*
X0237944Y0265189D01*
X0237944Y0264390D02*
X0261959Y0264390D01*
X0261959Y0290295D01*
X0237944Y0290295D01*
X0237944Y0289496D01*
X0155930Y0234376D02*
X0155131Y0234376D01*
X0155930Y0234376D02*
X0155930Y0210360D01*
X0130024Y0210360D01*
X0130024Y0234376D01*
X0130823Y0234376D01*
D17*
X0209131Y0112343D03*
X0209131Y0063593D03*
D18*
X0212963Y0073593D03*
X0212963Y0053593D03*
X0212963Y0102343D03*
X0212963Y0122343D03*
D19*
X0289477Y0155480D03*
X0364727Y0179980D03*
X0371477Y0179980D03*
X0297477Y0209980D03*
X0410977Y0265480D03*
X0481977Y0148205D03*
X0184727Y0270955D03*
X0152477Y0313480D03*
D20*
X0323877Y0199837D02*
X0326780Y0199837D01*
X0325328Y0198386D01*
X0325328Y0200321D01*
X0325328Y0197374D02*
X0324845Y0196890D01*
X0324845Y0195439D01*
X0323877Y0195439D02*
X0326780Y0195439D01*
X0326780Y0196890D01*
X0326296Y0197374D01*
X0325328Y0197374D01*
X0326780Y0194427D02*
X0326780Y0193460D01*
X0326780Y0193944D02*
X0324361Y0193944D01*
X0323877Y0193460D01*
X0323877Y0192976D01*
X0324361Y0192493D01*
X0341377Y0187837D02*
X0341377Y0186869D01*
X0341861Y0186386D01*
X0342828Y0186386D02*
X0343312Y0187353D01*
X0343312Y0187837D01*
X0342828Y0188321D01*
X0341861Y0188321D01*
X0341377Y0187837D01*
X0342828Y0186386D02*
X0344280Y0186386D01*
X0344280Y0188321D01*
X0342828Y0185374D02*
X0342828Y0183439D01*
X0344280Y0184890D01*
X0341377Y0184890D01*
X0341861Y0182427D02*
X0341377Y0181944D01*
X0341377Y0180976D01*
X0341861Y0180493D01*
X0343796Y0180493D01*
X0344280Y0180976D01*
X0344280Y0181944D01*
X0343796Y0182427D01*
X0358377Y0182821D02*
X0358377Y0180886D01*
X0360312Y0182821D01*
X0360796Y0182821D01*
X0361280Y0182337D01*
X0361280Y0181369D01*
X0360796Y0180886D01*
X0359828Y0179874D02*
X0359828Y0177939D01*
X0361280Y0179390D01*
X0358377Y0179390D01*
X0358861Y0176927D02*
X0358377Y0176444D01*
X0358377Y0175476D01*
X0358861Y0174993D01*
X0360796Y0174993D01*
X0361280Y0175476D01*
X0361280Y0176444D01*
X0360796Y0176927D01*
X0363177Y0172731D02*
X0363177Y0170796D01*
X0365112Y0172731D01*
X0365596Y0172731D01*
X0366080Y0172247D01*
X0366080Y0171280D01*
X0365596Y0170796D01*
X0365596Y0169784D02*
X0366080Y0169301D01*
X0366080Y0168333D01*
X0365596Y0167849D01*
X0365596Y0166838D02*
X0366080Y0166354D01*
X0366080Y0164903D01*
X0363177Y0164903D01*
X0363177Y0166354D01*
X0363661Y0166838D01*
X0365596Y0166838D01*
X0363177Y0167849D02*
X0365112Y0169784D01*
X0365596Y0169784D01*
X0363177Y0169784D02*
X0363177Y0167849D01*
X0369677Y0167849D02*
X0371612Y0169784D01*
X0372096Y0169784D01*
X0372580Y0169301D01*
X0372580Y0168333D01*
X0372096Y0167849D01*
X0372096Y0166838D02*
X0372580Y0166354D01*
X0372580Y0164903D01*
X0369677Y0164903D01*
X0369677Y0166354D01*
X0370161Y0166838D01*
X0372096Y0166838D01*
X0369677Y0167849D02*
X0369677Y0169784D01*
X0371128Y0170796D02*
X0371128Y0172731D01*
X0369677Y0172247D02*
X0372580Y0172247D01*
X0371128Y0170796D01*
X0346199Y0149445D02*
X0345232Y0149445D01*
X0345715Y0149445D02*
X0345715Y0147026D01*
X0346199Y0146543D01*
X0346683Y0146543D01*
X0347167Y0147026D01*
X0344220Y0146543D02*
X0344220Y0149445D01*
X0342769Y0149445D01*
X0342285Y0148961D01*
X0342285Y0147994D01*
X0342769Y0147510D01*
X0344220Y0147510D01*
X0341274Y0147510D02*
X0340790Y0147994D01*
X0339822Y0147994D01*
X0339339Y0147510D01*
X0339339Y0147026D01*
X0339822Y0146543D01*
X0340790Y0146543D01*
X0341274Y0147026D01*
X0341274Y0147510D01*
X0340790Y0147994D02*
X0341274Y0148477D01*
X0341274Y0148961D01*
X0340790Y0149445D01*
X0339822Y0149445D01*
X0339339Y0148961D01*
X0339339Y0148477D01*
X0339822Y0147994D01*
X0335836Y0157856D02*
X0334385Y0157856D01*
X0333901Y0158339D01*
X0333901Y0160274D01*
X0334385Y0160758D01*
X0335836Y0160758D01*
X0335836Y0157856D01*
X0332889Y0157856D02*
X0330954Y0157856D01*
X0331922Y0157856D02*
X0331922Y0160758D01*
X0332889Y0159790D01*
X0329943Y0160758D02*
X0328008Y0160758D01*
X0328008Y0160274D01*
X0329943Y0158339D01*
X0329943Y0157856D01*
X0398589Y0129945D02*
X0400524Y0129945D01*
X0400524Y0128494D01*
X0399556Y0128977D01*
X0399072Y0128977D01*
X0398589Y0128494D01*
X0398589Y0127526D01*
X0399072Y0127043D01*
X0400040Y0127043D01*
X0400524Y0127526D01*
X0401535Y0128494D02*
X0402019Y0128010D01*
X0403470Y0128010D01*
X0403470Y0127043D02*
X0403470Y0129945D01*
X0402019Y0129945D01*
X0401535Y0129461D01*
X0401535Y0128494D01*
X0404482Y0129945D02*
X0405449Y0129945D01*
X0404965Y0129945D02*
X0404965Y0127526D01*
X0405449Y0127043D01*
X0405933Y0127043D01*
X0406417Y0127526D01*
X0405199Y0119195D02*
X0404232Y0119195D01*
X0404715Y0119195D02*
X0404715Y0116776D01*
X0405199Y0116293D01*
X0405683Y0116293D01*
X0406167Y0116776D01*
X0403220Y0116293D02*
X0403220Y0119195D01*
X0401769Y0119195D01*
X0401285Y0118711D01*
X0401285Y0117744D01*
X0401769Y0117260D01*
X0403220Y0117260D01*
X0400274Y0117744D02*
X0398822Y0117744D01*
X0398339Y0117260D01*
X0398339Y0116776D01*
X0398822Y0116293D01*
X0399790Y0116293D01*
X0400274Y0116776D01*
X0400274Y0117744D01*
X0399306Y0118711D01*
X0398339Y0119195D01*
X0367167Y0106026D02*
X0366683Y0105543D01*
X0366199Y0105543D01*
X0365715Y0106026D01*
X0365715Y0108445D01*
X0365232Y0108445D02*
X0366199Y0108445D01*
X0364220Y0108445D02*
X0362769Y0108445D01*
X0362285Y0107961D01*
X0362285Y0106994D01*
X0362769Y0106510D01*
X0364220Y0106510D01*
X0364220Y0105543D02*
X0364220Y0108445D01*
X0361274Y0108445D02*
X0359339Y0108445D01*
X0359339Y0107961D01*
X0361274Y0106026D01*
X0361274Y0105543D01*
X0386623Y0199680D02*
X0388558Y0199680D01*
X0386623Y0201615D01*
X0386623Y0202098D01*
X0387107Y0202582D01*
X0388074Y0202582D01*
X0388558Y0202098D01*
X0389570Y0202098D02*
X0390053Y0202582D01*
X0391505Y0202582D01*
X0391505Y0199680D01*
X0390053Y0199680D01*
X0389570Y0200163D01*
X0389570Y0202098D01*
X0392516Y0202098D02*
X0394451Y0200163D01*
X0394451Y0199680D01*
X0392516Y0199680D01*
X0392516Y0202098D02*
X0392516Y0202582D01*
X0394451Y0202582D01*
X0470249Y0223476D02*
X0470733Y0222993D01*
X0471700Y0222993D01*
X0472184Y0223476D01*
X0473196Y0222993D02*
X0475131Y0222993D01*
X0473196Y0224927D01*
X0473196Y0225411D01*
X0473679Y0225895D01*
X0474647Y0225895D01*
X0475131Y0225411D01*
X0476142Y0225411D02*
X0476626Y0225895D01*
X0477593Y0225895D01*
X0478077Y0225411D01*
X0478077Y0223476D01*
X0477593Y0222993D01*
X0476626Y0222993D01*
X0476142Y0223476D01*
X0472184Y0225411D02*
X0471700Y0225895D01*
X0470733Y0225895D01*
X0470249Y0225411D01*
X0470249Y0224927D01*
X0470733Y0224444D01*
X0470249Y0223960D01*
X0470249Y0223476D01*
X0470733Y0224444D02*
X0471217Y0224444D01*
X0469417Y0247043D02*
X0469417Y0249945D01*
X0467965Y0249945D01*
X0467482Y0249461D01*
X0467482Y0248494D01*
X0467965Y0248010D01*
X0469417Y0248010D01*
X0468449Y0248010D02*
X0467482Y0247043D01*
X0466470Y0247043D02*
X0464535Y0247043D01*
X0465503Y0247043D02*
X0465503Y0249945D01*
X0466470Y0248977D01*
X0463524Y0248494D02*
X0461589Y0248494D01*
X0462072Y0249945D02*
X0463524Y0248494D01*
X0462072Y0247043D02*
X0462072Y0249945D01*
X0392077Y0256476D02*
X0391593Y0255993D01*
X0391110Y0255993D01*
X0390626Y0256476D01*
X0390626Y0258895D01*
X0391110Y0258895D02*
X0390142Y0258895D01*
X0389131Y0258895D02*
X0387679Y0258895D01*
X0387196Y0258411D01*
X0387196Y0257444D01*
X0387679Y0256960D01*
X0389131Y0256960D01*
X0389131Y0255993D02*
X0389131Y0258895D01*
X0386184Y0257927D02*
X0385217Y0258895D01*
X0385217Y0255993D01*
X0386184Y0255993D02*
X0384249Y0255993D01*
D21*
X0408839Y0209343D03*
X0407339Y0201093D03*
X0332089Y0164593D03*
X0261865Y0178343D03*
X0168115Y0175093D03*
X0266115Y0313593D03*
D22*
X0263593Y0277343D03*
X0220611Y0210093D03*
D23*
X0220453Y0201096D03*
X0220453Y0219089D03*
X0263751Y0268346D03*
X0263751Y0286339D03*
D24*
X0142977Y0208726D03*
D25*
X0151973Y0208569D03*
X0133981Y0208569D03*
D26*
X0130432Y0250285D02*
X0105022Y0250285D01*
X0105022Y0265900D01*
X0130432Y0265900D01*
X0130432Y0250285D01*
X0288170Y0279388D02*
X0303784Y0279388D01*
X0303784Y0304797D01*
X0288170Y0304797D01*
X0288170Y0279388D01*
D27*
X0096727Y0307264D03*
M02*
