G75*
%MOIN*%
%OFA0B0*%
%FSLAX25Y25*%
%IPPOS*%
%LPD*%
%AMOC8*
5,1,8,0,0,1.08239X$1,22.5*
%
%ADD10C,0.10000*%
%ADD11OC8,0.06000*%
%ADD12OC8,0.08268*%
%ADD13OC8,0.05400*%
%ADD14R,0.08268X0.08268*%
%ADD15C,0.04000*%
%ADD16C,0.09299*%
%ADD17R,0.05118X0.05906*%
%ADD18R,0.05906X0.04724*%
%ADD19C,0.06000*%
%ADD20R,0.04724X0.05906*%
%ADD21R,0.05906X0.05118*%
%ADD22R,0.00984X0.01969*%
%ADD23C,0.02953*%
%ADD24R,0.14567X0.05118*%
%ADD25R,0.39764X0.35039*%
%ADD26C,0.12362*%
%ADD27OC8,0.12362*%
%ADD28OC8,0.08600*%
%ADD29R,0.03543X0.03543*%
%ADD30OC8,0.06496*%
%ADD31R,0.06000X0.12000*%
%ADD32R,0.16000X0.04300*%
%ADD33OC8,0.09299*%
%ADD34R,0.05000X0.06000*%
%ADD35C,0.02500*%
%ADD36R,0.06000X0.05000*%
%ADD37C,0.00100*%
%ADD38R,0.01000X0.03500*%
%ADD39R,0.01000X0.02000*%
%ADD40C,0.04331*%
%ADD41R,0.04724X0.04724*%
%ADD42C,0.04800*%
%ADD43R,0.06890X0.05906*%
%ADD44R,0.09449X0.09449*%
%ADD45R,0.05906X0.06890*%
%ADD46R,0.12800X0.03000*%
%ADD47R,0.07500X0.04500*%
%ADD48R,0.12500X0.20000*%
%ADD49R,0.04331X0.03937*%
%ADD50R,0.07087X0.06299*%
%ADD51R,0.08661X0.07087*%
%ADD52R,0.06299X0.10630*%
%ADD53R,0.10630X0.06299*%
%ADD54OC8,0.10000*%
%ADD55R,0.03000X0.12800*%
%ADD56R,0.03937X0.04724*%
%ADD57C,0.07087*%
%ADD58OC8,0.07087*%
%ADD59R,0.07098X0.06299*%
%ADD60R,0.05512X0.05512*%
%ADD61C,0.10000*%
%ADD62C,0.15000*%
%ADD63OC8,0.03175*%
%ADD64C,0.01000*%
%ADD65C,0.01600*%
%ADD66C,0.12000*%
%ADD67C,0.01200*%
%ADD68C,0.02400*%
%ADD69C,0.04000*%
%ADD70R,0.21654X0.21654*%
%ADD71C,0.03200*%
%ADD72OC8,0.03569*%
%ADD73C,0.02000*%
%ADD74OC8,0.03962*%
%ADD75R,0.03175X0.03175*%
%ADD76R,0.03569X0.03569*%
%ADD77C,0.01400*%
%ADD78C,0.21654*%
D10*
X0082918Y0264250D03*
X0307168Y0262500D03*
X0561733Y0171856D03*
X0601103Y0171856D03*
X0601103Y0122644D03*
X0561733Y0122644D03*
D11*
X0554668Y0100500D03*
X0613668Y0100500D03*
X0613668Y0193500D03*
X0554668Y0193500D03*
D12*
X0567668Y0061285D03*
X0567668Y0044750D03*
X0567668Y0028215D03*
X0561881Y0337709D03*
X0581381Y0337709D03*
X0541381Y0337709D03*
X0057186Y0165000D03*
X0040650Y0165000D03*
D13*
X0182918Y0226500D03*
X0222918Y0216500D03*
X0533668Y0051500D03*
X0585168Y0082250D03*
X0625168Y0072250D03*
X0543668Y0091500D03*
X0585168Y0212000D03*
X0585168Y0222000D03*
X0545168Y0222000D03*
X0625168Y0212000D03*
D14*
X0521381Y0337709D03*
D15*
X0620278Y0054244D03*
X0056036Y0324459D03*
D16*
X0367286Y0324276D02*
X0376585Y0324276D01*
X0376585Y0302276D02*
X0367286Y0302276D01*
X0367286Y0280276D02*
X0376585Y0280276D01*
X0376585Y0214039D02*
X0367286Y0214039D01*
X0367286Y0192039D02*
X0376585Y0192039D01*
X0376585Y0170039D02*
X0367286Y0170039D01*
X0367286Y0147110D02*
X0376585Y0147110D01*
X0376585Y0125110D02*
X0367286Y0125110D01*
X0367286Y0103110D02*
X0376585Y0103110D01*
X0376585Y0080181D02*
X0367286Y0080181D01*
X0367286Y0058181D02*
X0376585Y0058181D01*
X0376585Y0036181D02*
X0367286Y0036181D01*
D17*
X0353158Y0041000D03*
X0345678Y0041000D03*
X0386928Y0173750D03*
X0394408Y0173750D03*
X0258908Y0301000D03*
X0251428Y0301000D03*
X0251428Y0308750D03*
X0258908Y0308750D03*
X0243408Y0308750D03*
X0235928Y0308750D03*
X0300678Y0333000D03*
X0308158Y0333000D03*
X0316178Y0333000D03*
X0323658Y0333000D03*
X0157658Y0216500D03*
X0150178Y0216500D03*
X0142158Y0216500D03*
X0134678Y0216500D03*
X0078908Y0249500D03*
X0071428Y0249500D03*
X0046158Y0051500D03*
X0038678Y0051500D03*
D18*
X0385709Y0166250D03*
X0397127Y0166250D03*
X0311127Y0341250D03*
X0299709Y0341250D03*
D19*
X0367436Y0257157D02*
X0373436Y0257157D01*
X0373436Y0237157D02*
X0367436Y0237157D01*
X0042918Y0237000D02*
X0036918Y0237000D01*
X0036918Y0247000D02*
X0042918Y0247000D01*
X0042918Y0257000D02*
X0036918Y0257000D01*
X0036918Y0267000D02*
X0042918Y0267000D01*
X0042918Y0277000D02*
X0036918Y0277000D01*
X0036918Y0287000D02*
X0042918Y0287000D01*
X0042918Y0297000D02*
X0036918Y0297000D01*
X0036918Y0307000D02*
X0042918Y0307000D01*
D20*
X0397668Y0105959D03*
X0397668Y0094541D03*
D21*
X0389668Y0095510D03*
X0389668Y0102990D03*
X0521418Y0035990D03*
X0521418Y0028510D03*
X0271168Y0280760D03*
X0271168Y0288240D03*
X0121668Y0291510D03*
X0121668Y0298990D03*
X0113918Y0298990D03*
X0113918Y0291510D03*
X0104168Y0318760D03*
X0104168Y0326240D03*
X0104168Y0334260D03*
X0104168Y0341740D03*
X0058668Y0237740D03*
X0058668Y0230260D03*
D22*
X0545955Y0260250D03*
X0546881Y0260250D03*
D23*
X0482501Y0209091D02*
X0430335Y0209091D01*
X0430335Y0217949D01*
X0482501Y0217949D01*
X0482501Y0209091D01*
X0482501Y0212043D02*
X0430335Y0212043D01*
X0430335Y0214995D02*
X0482501Y0214995D01*
X0482501Y0217947D02*
X0430335Y0217947D01*
X0430335Y0124051D02*
X0482501Y0124051D01*
X0430335Y0124051D02*
X0430335Y0132909D01*
X0482501Y0132909D01*
X0482501Y0124051D01*
X0482501Y0127003D02*
X0430335Y0127003D01*
X0430335Y0129955D02*
X0482501Y0129955D01*
X0482501Y0132907D02*
X0430335Y0132907D01*
X0430335Y0115449D02*
X0482501Y0115449D01*
X0482501Y0106591D01*
X0430335Y0106591D01*
X0430335Y0115449D01*
X0430335Y0109543D02*
X0482501Y0109543D01*
X0482501Y0112495D02*
X0430335Y0112495D01*
X0430335Y0115447D02*
X0482501Y0115447D01*
X0482501Y0030409D02*
X0430335Y0030409D01*
X0482501Y0030409D02*
X0482501Y0021551D01*
X0430335Y0021551D01*
X0430335Y0030409D01*
X0430335Y0024503D02*
X0482501Y0024503D01*
X0482501Y0027455D02*
X0430335Y0027455D01*
X0430335Y0030407D02*
X0482501Y0030407D01*
D24*
X0136934Y0029000D03*
X0136934Y0049000D03*
X0136934Y0077250D03*
X0136934Y0097250D03*
D25*
X0176698Y0087250D03*
X0176698Y0039000D03*
D26*
X0107182Y0058500D03*
X0119432Y0134000D03*
X0175418Y0135486D03*
X0475918Y0318264D03*
X0546418Y0289764D03*
D27*
X0546418Y0260236D03*
X0475918Y0288736D03*
X0175418Y0165014D03*
X0089904Y0134000D03*
X0077654Y0058500D03*
D28*
X0032168Y0183250D03*
D29*
X0052168Y0183250D03*
D30*
X0168418Y0216500D03*
X0228668Y0175000D03*
X0288418Y0168500D03*
X0388668Y0265750D03*
X0387668Y0323000D03*
X0525918Y0090500D03*
D31*
X0052318Y0069250D03*
X0032518Y0069250D03*
D32*
X0034368Y0099750D03*
X0058968Y0099750D03*
X0058968Y0134500D03*
X0034368Y0134500D03*
D33*
X0208861Y0112315D03*
X0208861Y0098535D03*
X0208861Y0084756D03*
X0208861Y0070976D03*
X0323034Y0077866D03*
X0323034Y0105425D03*
D34*
X0403868Y0289250D03*
X0411168Y0289250D03*
X0418468Y0289250D03*
X0418468Y0319250D03*
X0411168Y0319250D03*
X0403868Y0319250D03*
D35*
X0404618Y0299500D02*
X0397118Y0299500D01*
X0397118Y0309000D01*
X0404618Y0309000D01*
X0404618Y0299500D01*
X0404618Y0301999D02*
X0397118Y0301999D01*
X0397118Y0304498D02*
X0404618Y0304498D01*
X0404618Y0306997D02*
X0397118Y0306997D01*
X0417718Y0299500D02*
X0425218Y0299500D01*
X0417718Y0299500D02*
X0417718Y0309000D01*
X0425218Y0309000D01*
X0425218Y0299500D01*
X0425218Y0301999D02*
X0417718Y0301999D01*
X0417718Y0304498D02*
X0425218Y0304498D01*
X0425218Y0306997D02*
X0417718Y0306997D01*
D36*
X0224668Y0228000D03*
X0073918Y0202000D03*
D37*
X0074418Y0204000D02*
X0073418Y0204000D01*
X0073418Y0205500D01*
X0070918Y0205500D01*
X0070976Y0206085D01*
X0071146Y0206648D01*
X0071424Y0207167D01*
X0071797Y0207621D01*
X0072251Y0207994D01*
X0072770Y0208272D01*
X0073333Y0208442D01*
X0073918Y0208500D01*
X0074503Y0208442D01*
X0075066Y0208272D01*
X0075585Y0207994D01*
X0076039Y0207621D01*
X0076412Y0207167D01*
X0076690Y0206648D01*
X0076860Y0206085D01*
X0076918Y0205500D01*
X0074418Y0205500D01*
X0074418Y0204000D01*
X0074418Y0204023D02*
X0073418Y0204023D01*
X0073418Y0204121D02*
X0074418Y0204121D01*
X0074418Y0204220D02*
X0073418Y0204220D01*
X0073418Y0204318D02*
X0074418Y0204318D01*
X0074418Y0204417D02*
X0073418Y0204417D01*
X0073418Y0204515D02*
X0074418Y0204515D01*
X0074418Y0204614D02*
X0073418Y0204614D01*
X0073418Y0204712D02*
X0074418Y0204712D01*
X0074418Y0204811D02*
X0073418Y0204811D01*
X0073418Y0204909D02*
X0074418Y0204909D01*
X0074418Y0205008D02*
X0073418Y0205008D01*
X0073418Y0205106D02*
X0074418Y0205106D01*
X0074418Y0205205D02*
X0073418Y0205205D01*
X0073418Y0205303D02*
X0074418Y0205303D01*
X0074418Y0205402D02*
X0073418Y0205402D01*
X0070928Y0205599D02*
X0076908Y0205599D01*
X0076899Y0205697D02*
X0070937Y0205697D01*
X0070947Y0205796D02*
X0076889Y0205796D01*
X0076879Y0205894D02*
X0070957Y0205894D01*
X0070967Y0205993D02*
X0076869Y0205993D01*
X0076858Y0206091D02*
X0070977Y0206091D01*
X0071007Y0206190D02*
X0076829Y0206190D01*
X0076799Y0206288D02*
X0071037Y0206288D01*
X0071067Y0206387D02*
X0076769Y0206387D01*
X0076739Y0206485D02*
X0071097Y0206485D01*
X0071127Y0206584D02*
X0076709Y0206584D01*
X0076671Y0206682D02*
X0071165Y0206682D01*
X0071217Y0206781D02*
X0076619Y0206781D01*
X0076566Y0206879D02*
X0071270Y0206879D01*
X0071323Y0206978D02*
X0076513Y0206978D01*
X0076461Y0207076D02*
X0071375Y0207076D01*
X0071430Y0207175D02*
X0076406Y0207175D01*
X0076325Y0207274D02*
X0071511Y0207274D01*
X0071592Y0207372D02*
X0076244Y0207372D01*
X0076163Y0207471D02*
X0071673Y0207471D01*
X0071754Y0207569D02*
X0076082Y0207569D01*
X0075983Y0207668D02*
X0071853Y0207668D01*
X0071973Y0207766D02*
X0075863Y0207766D01*
X0075743Y0207865D02*
X0072093Y0207865D01*
X0072213Y0207963D02*
X0075623Y0207963D01*
X0075459Y0208062D02*
X0072377Y0208062D01*
X0072561Y0208160D02*
X0075275Y0208160D01*
X0075090Y0208259D02*
X0072746Y0208259D01*
X0073052Y0208357D02*
X0074784Y0208357D01*
X0074368Y0208456D02*
X0073468Y0208456D01*
X0070918Y0205500D02*
X0076918Y0205500D01*
X0076918Y0198500D02*
X0070918Y0198500D01*
X0070976Y0197915D01*
X0076860Y0197915D01*
X0076690Y0197352D01*
X0076412Y0196833D01*
X0076039Y0196379D01*
X0075585Y0196006D01*
X0075066Y0195728D01*
X0074503Y0195558D01*
X0073918Y0195500D01*
X0073333Y0195558D01*
X0072770Y0195728D01*
X0072251Y0196006D01*
X0071797Y0196379D01*
X0071424Y0196833D01*
X0071146Y0197352D01*
X0070976Y0197915D01*
X0070966Y0198013D02*
X0076870Y0198013D01*
X0076860Y0197915D02*
X0076918Y0198500D01*
X0076909Y0198407D02*
X0070927Y0198407D01*
X0070937Y0198309D02*
X0076899Y0198309D01*
X0076889Y0198210D02*
X0070946Y0198210D01*
X0070956Y0198112D02*
X0076880Y0198112D01*
X0076831Y0197816D02*
X0071005Y0197816D01*
X0071035Y0197718D02*
X0076801Y0197718D01*
X0076771Y0197619D02*
X0071065Y0197619D01*
X0071095Y0197521D02*
X0076741Y0197521D01*
X0076711Y0197422D02*
X0071125Y0197422D01*
X0071161Y0197324D02*
X0076675Y0197324D01*
X0076622Y0197225D02*
X0071214Y0197225D01*
X0071267Y0197127D02*
X0076569Y0197127D01*
X0076517Y0197028D02*
X0071319Y0197028D01*
X0071372Y0196930D02*
X0076464Y0196930D01*
X0076411Y0196831D02*
X0071425Y0196831D01*
X0071506Y0196733D02*
X0076330Y0196733D01*
X0076249Y0196634D02*
X0071587Y0196634D01*
X0071668Y0196536D02*
X0076168Y0196536D01*
X0076087Y0196437D02*
X0071749Y0196437D01*
X0071845Y0196339D02*
X0075991Y0196339D01*
X0075871Y0196240D02*
X0071965Y0196240D01*
X0072085Y0196142D02*
X0075751Y0196142D01*
X0075631Y0196043D02*
X0072205Y0196043D01*
X0072365Y0195945D02*
X0075471Y0195945D01*
X0075287Y0195846D02*
X0072549Y0195846D01*
X0072734Y0195748D02*
X0075102Y0195748D01*
X0074805Y0195649D02*
X0073031Y0195649D01*
X0073404Y0195551D02*
X0074432Y0195551D01*
X0221726Y0223915D02*
X0221668Y0224500D01*
X0224168Y0224500D01*
X0224168Y0226000D01*
X0225168Y0226000D01*
X0225168Y0224500D01*
X0227668Y0224500D01*
X0227610Y0223915D01*
X0227440Y0223352D01*
X0227162Y0222833D01*
X0226789Y0222379D01*
X0226335Y0222006D01*
X0225816Y0221728D01*
X0225253Y0221558D01*
X0224668Y0221500D01*
X0224083Y0221558D01*
X0223520Y0221728D01*
X0223001Y0222006D01*
X0222547Y0222379D01*
X0222174Y0222833D01*
X0221896Y0223352D01*
X0221726Y0223915D01*
X0221725Y0223922D02*
X0227611Y0223922D01*
X0227621Y0224020D02*
X0221715Y0224020D01*
X0221706Y0224119D02*
X0227630Y0224119D01*
X0227640Y0224217D02*
X0221696Y0224217D01*
X0221686Y0224316D02*
X0227650Y0224316D01*
X0227660Y0224414D02*
X0221676Y0224414D01*
X0221753Y0223823D02*
X0227583Y0223823D01*
X0227553Y0223725D02*
X0221783Y0223725D01*
X0221813Y0223626D02*
X0227523Y0223626D01*
X0227493Y0223528D02*
X0221843Y0223528D01*
X0221873Y0223429D02*
X0227463Y0223429D01*
X0227428Y0223331D02*
X0221908Y0223331D01*
X0221960Y0223232D02*
X0227376Y0223232D01*
X0227323Y0223134D02*
X0222013Y0223134D01*
X0222066Y0223035D02*
X0227270Y0223035D01*
X0227218Y0222937D02*
X0222118Y0222937D01*
X0222171Y0222838D02*
X0227165Y0222838D01*
X0227086Y0222740D02*
X0222250Y0222740D01*
X0222331Y0222641D02*
X0227005Y0222641D01*
X0226924Y0222543D02*
X0222412Y0222543D01*
X0222493Y0222444D02*
X0226843Y0222444D01*
X0226749Y0222346D02*
X0222587Y0222346D01*
X0222707Y0222247D02*
X0226629Y0222247D01*
X0226509Y0222149D02*
X0222827Y0222149D01*
X0222947Y0222050D02*
X0226389Y0222050D01*
X0226234Y0221952D02*
X0223102Y0221952D01*
X0223286Y0221853D02*
X0226050Y0221853D01*
X0225865Y0221755D02*
X0223471Y0221755D01*
X0223758Y0221656D02*
X0225578Y0221656D01*
X0225253Y0221558D02*
X0224083Y0221558D01*
X0224168Y0224513D02*
X0225168Y0224513D01*
X0225168Y0224612D02*
X0224168Y0224612D01*
X0224168Y0224710D02*
X0225168Y0224710D01*
X0225168Y0224809D02*
X0224168Y0224809D01*
X0224168Y0224907D02*
X0225168Y0224907D01*
X0225168Y0225006D02*
X0224168Y0225006D01*
X0224168Y0225104D02*
X0225168Y0225104D01*
X0225168Y0225203D02*
X0224168Y0225203D01*
X0224168Y0225301D02*
X0225168Y0225301D01*
X0225168Y0225400D02*
X0224168Y0225400D01*
X0224168Y0225498D02*
X0225168Y0225498D01*
X0225168Y0225597D02*
X0224168Y0225597D01*
X0224168Y0225695D02*
X0225168Y0225695D01*
X0225168Y0225794D02*
X0224168Y0225794D01*
X0224168Y0225892D02*
X0225168Y0225892D01*
X0225168Y0225991D02*
X0224168Y0225991D01*
X0221668Y0231500D02*
X0221726Y0232085D01*
X0221896Y0232648D01*
X0222174Y0233167D01*
X0222547Y0233621D01*
X0223001Y0233994D01*
X0223520Y0234272D01*
X0224083Y0234442D01*
X0224668Y0234500D01*
X0225253Y0234442D01*
X0225816Y0234272D01*
X0226335Y0233994D01*
X0226789Y0233621D01*
X0227162Y0233167D01*
X0227440Y0232648D01*
X0227610Y0232085D01*
X0227668Y0231500D01*
X0221668Y0231500D01*
X0221669Y0231507D02*
X0227667Y0231507D01*
X0227658Y0231606D02*
X0221678Y0231606D01*
X0221688Y0231704D02*
X0227648Y0231704D01*
X0227638Y0231803D02*
X0221698Y0231803D01*
X0221707Y0231901D02*
X0227628Y0231901D01*
X0227619Y0232000D02*
X0221717Y0232000D01*
X0221730Y0232098D02*
X0227606Y0232098D01*
X0227576Y0232197D02*
X0221759Y0232197D01*
X0221789Y0232295D02*
X0227547Y0232295D01*
X0227517Y0232394D02*
X0221819Y0232394D01*
X0221849Y0232492D02*
X0227487Y0232492D01*
X0227457Y0232591D02*
X0221879Y0232591D01*
X0221918Y0232689D02*
X0227417Y0232689D01*
X0227365Y0232788D02*
X0221971Y0232788D01*
X0222024Y0232886D02*
X0227312Y0232886D01*
X0227260Y0232985D02*
X0222076Y0232985D01*
X0222129Y0233083D02*
X0227207Y0233083D01*
X0227150Y0233182D02*
X0222186Y0233182D01*
X0222267Y0233280D02*
X0227069Y0233280D01*
X0226988Y0233379D02*
X0222348Y0233379D01*
X0222429Y0233478D02*
X0226907Y0233478D01*
X0226826Y0233576D02*
X0222509Y0233576D01*
X0222612Y0233675D02*
X0226724Y0233675D01*
X0226604Y0233773D02*
X0222732Y0233773D01*
X0222852Y0233872D02*
X0226484Y0233872D01*
X0226364Y0233970D02*
X0222972Y0233970D01*
X0223140Y0234069D02*
X0226196Y0234069D01*
X0226012Y0234167D02*
X0223324Y0234167D01*
X0223509Y0234266D02*
X0225827Y0234266D01*
X0225511Y0234364D02*
X0223825Y0234364D01*
X0224289Y0234463D02*
X0225047Y0234463D01*
D38*
X0224668Y0223500D03*
X0073918Y0206500D03*
D39*
X0073918Y0196750D03*
X0224668Y0233250D03*
D40*
X0236965Y0337250D03*
X0242871Y0337250D03*
X0328668Y0043203D03*
X0328668Y0037297D03*
D41*
X0529168Y0036384D03*
X0529168Y0028116D03*
X0048802Y0220500D03*
X0040534Y0220500D03*
D42*
X0037918Y0206650D02*
X0037918Y0201850D01*
X0047918Y0201850D02*
X0047918Y0206650D01*
X0057918Y0206650D02*
X0057918Y0201850D01*
D43*
X0091516Y0243750D03*
X0104316Y0243750D03*
D44*
X0119918Y0263089D03*
X0119918Y0280411D03*
X0120418Y0317589D03*
X0120418Y0334911D03*
X0240257Y0322250D03*
X0257579Y0322250D03*
X0157079Y0231750D03*
X0139757Y0231750D03*
D45*
X0074668Y0227598D03*
X0074668Y0240398D03*
X0085418Y0299852D03*
X0085418Y0312652D03*
D46*
X0090168Y0333000D03*
X0071168Y0333000D03*
X0098168Y0218250D03*
X0117168Y0218250D03*
D47*
X0301318Y0304400D03*
X0301318Y0313500D03*
X0301318Y0322600D03*
D48*
X0324018Y0313500D03*
D49*
X0301264Y0296250D03*
X0294572Y0296250D03*
D50*
X0114918Y0249012D03*
X0114918Y0237988D03*
X0068418Y0300238D03*
X0068418Y0311262D03*
D51*
X0238418Y0288039D03*
X0238418Y0267961D03*
D52*
X0242406Y0236250D03*
X0253430Y0236250D03*
D53*
X0255168Y0248488D03*
X0255168Y0259512D03*
X0240418Y0259512D03*
X0240418Y0248488D03*
D54*
X0287168Y0262500D03*
X0082918Y0284250D03*
D55*
X0278418Y0318750D03*
X0278418Y0337750D03*
D56*
X0279168Y0289868D03*
X0279168Y0279632D03*
D57*
X0220538Y0287250D03*
X0220538Y0267565D03*
X0220538Y0306935D03*
X0220538Y0316778D03*
X0141798Y0321699D03*
X0141798Y0311856D03*
X0141798Y0302014D03*
X0141798Y0292171D03*
X0141798Y0282329D03*
X0141798Y0272486D03*
X0141798Y0262644D03*
X0141798Y0252801D03*
D58*
X0220538Y0257722D03*
D59*
X0305168Y0236098D03*
X0305168Y0224902D03*
D60*
X0283148Y0299750D03*
X0268188Y0299750D03*
D61*
X0395910Y0304250D02*
X0400868Y0304250D01*
X0421468Y0304250D02*
X0423918Y0304250D01*
X0456418Y0213520D02*
X0456418Y0209000D01*
X0456438Y0128500D02*
X0456418Y0128480D01*
X0456438Y0128500D02*
X0478168Y0128500D01*
X0477918Y0128250D01*
X0477918Y0119500D01*
X0477918Y0111250D01*
X0477688Y0111020D01*
X0456418Y0111020D01*
D62*
X0419075Y0257157D02*
X0370436Y0257157D01*
X0419075Y0257157D02*
X0450654Y0288736D01*
X0475918Y0288736D01*
X0514682Y0288736D01*
X0543182Y0260236D01*
X0546418Y0260236D01*
X0517668Y0318264D02*
X0475918Y0318264D01*
X0444932Y0318264D01*
X0430918Y0304250D01*
X0423918Y0304250D01*
X0395910Y0304250D02*
X0389410Y0304250D01*
X0387436Y0302276D01*
X0371936Y0302276D01*
D63*
X0403918Y0281250D03*
X0418418Y0281250D03*
X0453168Y0270750D03*
X0453168Y0249750D03*
X0438918Y0248750D03*
X0431918Y0235000D03*
X0431822Y0228404D03*
X0438418Y0199250D03*
X0443668Y0185000D03*
X0428514Y0184346D03*
X0422668Y0164500D03*
X0422668Y0160250D03*
X0438918Y0142750D03*
X0453668Y0142750D03*
X0480668Y0141750D03*
X0494668Y0135000D03*
X0498918Y0161000D03*
X0481418Y0176000D03*
X0481418Y0197250D03*
X0472418Y0196750D03*
X0501418Y0201250D03*
X0508668Y0240750D03*
X0507668Y0259000D03*
X0499668Y0312750D03*
X0336168Y0229750D03*
X0336168Y0219250D03*
X0300418Y0223500D03*
X0285418Y0236250D03*
X0275168Y0244750D03*
X0269418Y0240750D03*
X0267668Y0260750D03*
X0265168Y0270500D03*
X0269168Y0292250D03*
X0294418Y0293250D03*
X0235668Y0302500D03*
X0161918Y0255500D03*
X0128168Y0255500D03*
X0114918Y0233500D03*
X0117668Y0208000D03*
X0082418Y0204000D03*
X0084918Y0194000D03*
X0068168Y0193500D03*
X0061418Y0186000D03*
X0084918Y0179250D03*
X0161418Y0175750D03*
X0161418Y0182750D03*
X0174168Y0186250D03*
X0193418Y0181000D03*
X0197168Y0177250D03*
X0214168Y0173000D03*
X0200688Y0164230D03*
X0198668Y0160250D03*
X0206418Y0158250D03*
X0206418Y0149750D03*
X0216918Y0159250D03*
X0230918Y0166500D03*
X0238418Y0158250D03*
X0244918Y0166500D03*
X0243168Y0177750D03*
X0242918Y0190500D03*
X0214168Y0196750D03*
X0189168Y0211000D03*
X0211918Y0229250D03*
X0224668Y0235250D03*
X0211918Y0242250D03*
X0168918Y0234250D03*
X0092918Y0273000D03*
X0063418Y0271000D03*
X0065168Y0254750D03*
X0062918Y0238000D03*
X0068418Y0306750D03*
X0311668Y0178000D03*
X0311668Y0155750D03*
X0252668Y0150750D03*
X0244418Y0141750D03*
X0223418Y0140250D03*
X0130918Y0090000D03*
X0119918Y0086000D03*
X0131418Y0070250D03*
X0125418Y0047500D03*
X0268918Y0027250D03*
X0268918Y0020750D03*
X0336168Y0032750D03*
X0346668Y0037000D03*
X0352918Y0037250D03*
X0414418Y0089750D03*
X0461418Y0084250D03*
X0471918Y0073250D03*
X0486918Y0087500D03*
X0502918Y0087750D03*
X0530168Y0102250D03*
X0501418Y0106000D03*
X0497168Y0106000D03*
X0500918Y0060250D03*
X0485168Y0051000D03*
X0475918Y0051000D03*
X0481168Y0042750D03*
X0499918Y0037500D03*
X0499918Y0024000D03*
X0517168Y0035500D03*
X0519418Y0044000D03*
X0398168Y0156250D03*
X0393668Y0159500D03*
D64*
X0417668Y0159500D01*
X0422668Y0164500D01*
X0422668Y0160250D02*
X0421668Y0160250D01*
X0418668Y0157250D01*
X0399168Y0157250D01*
X0398168Y0156250D01*
X0438918Y0142750D02*
X0453668Y0142750D01*
X0472168Y0125750D02*
X0472168Y0115500D01*
X0479168Y0115500D01*
X0479168Y0125750D01*
X0472168Y0125750D01*
X0472168Y0124824D02*
X0479168Y0124824D01*
X0479168Y0123826D02*
X0472168Y0123826D01*
X0472168Y0122827D02*
X0479168Y0122827D01*
X0479168Y0121829D02*
X0472168Y0121829D01*
X0472168Y0120830D02*
X0479168Y0120830D01*
X0479168Y0119832D02*
X0472168Y0119832D01*
X0472168Y0118833D02*
X0479168Y0118833D01*
X0479168Y0117835D02*
X0472168Y0117835D01*
X0472168Y0116836D02*
X0479168Y0116836D01*
X0479168Y0115838D02*
X0472168Y0115838D01*
X0497918Y0087500D02*
X0501418Y0091000D01*
X0514418Y0091000D01*
X0530168Y0106750D01*
X0530168Y0245750D01*
X0505418Y0270500D01*
X0453418Y0270500D01*
X0453168Y0270750D01*
X0418468Y0281300D02*
X0418418Y0281250D01*
X0418468Y0281300D02*
X0418468Y0289250D01*
X0403868Y0289250D02*
X0403868Y0281300D01*
X0403918Y0281250D01*
X0338168Y0281591D02*
X0322863Y0281591D01*
X0321864Y0282589D02*
X0338168Y0282589D01*
X0338168Y0283588D02*
X0320866Y0283588D01*
X0319867Y0284586D02*
X0338168Y0284586D01*
X0338168Y0285585D02*
X0318869Y0285585D01*
X0317870Y0286583D02*
X0338168Y0286583D01*
X0338168Y0287582D02*
X0316872Y0287582D01*
X0315873Y0288580D02*
X0338168Y0288580D01*
X0338168Y0289579D02*
X0314875Y0289579D01*
X0313876Y0290577D02*
X0338168Y0290577D01*
X0338168Y0291576D02*
X0312878Y0291576D01*
X0311879Y0292574D02*
X0338168Y0292574D01*
X0338168Y0293573D02*
X0310881Y0293573D01*
X0309882Y0294571D02*
X0338168Y0294571D01*
X0338168Y0295570D02*
X0308884Y0295570D01*
X0307885Y0296568D02*
X0338168Y0296568D01*
X0338168Y0297567D02*
X0306887Y0297567D01*
X0305888Y0298565D02*
X0338168Y0298565D01*
X0338168Y0299564D02*
X0304890Y0299564D01*
X0304502Y0299951D02*
X0304502Y0300850D01*
X0305606Y0300850D01*
X0306368Y0301612D01*
X0306368Y0307188D01*
X0305606Y0307950D01*
X0297029Y0307950D01*
X0296268Y0307188D01*
X0296268Y0301612D01*
X0297029Y0300850D01*
X0298334Y0300850D01*
X0298334Y0299292D01*
X0297918Y0298876D01*
X0297275Y0299518D01*
X0294168Y0299518D01*
X0294168Y0338750D01*
X0295457Y0338750D01*
X0295457Y0338349D01*
X0296218Y0337588D01*
X0297209Y0337588D01*
X0297209Y0336882D01*
X0296819Y0336491D01*
X0296819Y0329509D01*
X0297580Y0328747D01*
X0303775Y0328747D01*
X0304418Y0329390D01*
X0304919Y0328888D01*
X0302181Y0326150D01*
X0297029Y0326150D01*
X0296268Y0325388D01*
X0296268Y0319812D01*
X0297029Y0319050D01*
X0305606Y0319050D01*
X0306368Y0319812D01*
X0306368Y0324963D01*
X0310058Y0328653D01*
X0310058Y0328747D01*
X0311256Y0328747D01*
X0312017Y0329509D01*
X0312017Y0331100D01*
X0312319Y0331100D01*
X0312319Y0329509D01*
X0313080Y0328747D01*
X0319275Y0328747D01*
X0319956Y0329428D01*
X0320059Y0329249D01*
X0320301Y0329007D01*
X0320597Y0328836D01*
X0320928Y0328747D01*
X0323158Y0328747D01*
X0323158Y0332500D01*
X0324158Y0332500D01*
X0324158Y0328747D01*
X0326388Y0328747D01*
X0326719Y0328836D01*
X0327015Y0329007D01*
X0327257Y0329249D01*
X0327429Y0329545D01*
X0327517Y0329876D01*
X0327517Y0332500D01*
X0324158Y0332500D01*
X0324158Y0333500D01*
X0323158Y0333500D01*
X0323158Y0337253D01*
X0320928Y0337253D01*
X0320597Y0337164D01*
X0320301Y0336993D01*
X0320059Y0336751D01*
X0319956Y0336572D01*
X0319275Y0337253D01*
X0313080Y0337253D01*
X0313027Y0337199D01*
X0313027Y0337588D01*
X0314618Y0337588D01*
X0315379Y0338349D01*
X0315379Y0344000D01*
X0338168Y0344000D01*
X0338168Y0274000D01*
X0330453Y0274000D01*
X0304502Y0299951D01*
X0304502Y0300562D02*
X0338168Y0300562D01*
X0338168Y0301561D02*
X0306317Y0301561D01*
X0306368Y0302559D02*
X0338168Y0302559D01*
X0338168Y0303558D02*
X0306368Y0303558D01*
X0306368Y0304556D02*
X0338168Y0304556D01*
X0338168Y0305555D02*
X0306368Y0305555D01*
X0306368Y0306553D02*
X0338168Y0306553D01*
X0338168Y0307552D02*
X0306005Y0307552D01*
X0305239Y0309950D02*
X0301818Y0309950D01*
X0301818Y0313000D01*
X0301818Y0314000D01*
X0306368Y0314000D01*
X0306368Y0315921D01*
X0306279Y0316252D01*
X0306108Y0316548D01*
X0305866Y0316790D01*
X0305570Y0316961D01*
X0305239Y0317050D01*
X0301818Y0317050D01*
X0301818Y0314000D01*
X0300818Y0314000D01*
X0300818Y0317050D01*
X0297397Y0317050D01*
X0297066Y0316961D01*
X0296770Y0316790D01*
X0296528Y0316548D01*
X0296357Y0316252D01*
X0296268Y0315921D01*
X0296268Y0314000D01*
X0300818Y0314000D01*
X0300818Y0313000D01*
X0301818Y0313000D01*
X0306368Y0313000D01*
X0306368Y0311079D01*
X0306279Y0310748D01*
X0306108Y0310452D01*
X0305866Y0310210D01*
X0305570Y0310039D01*
X0305239Y0309950D01*
X0306163Y0310547D02*
X0338168Y0310547D01*
X0338168Y0309549D02*
X0294168Y0309549D01*
X0294168Y0310547D02*
X0296472Y0310547D01*
X0296528Y0310452D02*
X0296770Y0310210D01*
X0297066Y0310039D01*
X0297397Y0309950D01*
X0300818Y0309950D01*
X0300818Y0313000D01*
X0296268Y0313000D01*
X0296268Y0311079D01*
X0296357Y0310748D01*
X0296528Y0310452D01*
X0296268Y0311546D02*
X0294168Y0311546D01*
X0294168Y0312544D02*
X0296268Y0312544D01*
X0296268Y0314541D02*
X0294168Y0314541D01*
X0294168Y0313543D02*
X0300818Y0313543D01*
X0300818Y0314541D02*
X0301818Y0314541D01*
X0301818Y0313543D02*
X0338168Y0313543D01*
X0338168Y0314541D02*
X0306368Y0314541D01*
X0306368Y0315540D02*
X0338168Y0315540D01*
X0338168Y0316539D02*
X0306114Y0316539D01*
X0306090Y0319534D02*
X0338168Y0319534D01*
X0338168Y0318536D02*
X0294168Y0318536D01*
X0294168Y0319534D02*
X0296545Y0319534D01*
X0296268Y0320533D02*
X0294168Y0320533D01*
X0294168Y0321531D02*
X0296268Y0321531D01*
X0296268Y0322530D02*
X0294168Y0322530D01*
X0294168Y0323528D02*
X0296268Y0323528D01*
X0296268Y0324527D02*
X0294168Y0324527D01*
X0294168Y0325525D02*
X0296405Y0325525D01*
X0294168Y0326524D02*
X0302555Y0326524D01*
X0303553Y0327522D02*
X0294168Y0327522D01*
X0294168Y0328521D02*
X0304552Y0328521D01*
X0306930Y0325525D02*
X0338168Y0325525D01*
X0338168Y0324527D02*
X0306368Y0324527D01*
X0306368Y0323528D02*
X0338168Y0323528D01*
X0338168Y0322530D02*
X0306368Y0322530D01*
X0306368Y0321531D02*
X0338168Y0321531D01*
X0338168Y0320533D02*
X0306368Y0320533D01*
X0301818Y0316539D02*
X0300818Y0316539D01*
X0300818Y0315540D02*
X0301818Y0315540D01*
X0301818Y0312544D02*
X0300818Y0312544D01*
X0300818Y0311546D02*
X0301818Y0311546D01*
X0301818Y0310547D02*
X0300818Y0310547D01*
X0296631Y0307552D02*
X0294168Y0307552D01*
X0294168Y0308550D02*
X0338168Y0308550D01*
X0338168Y0311546D02*
X0306368Y0311546D01*
X0306368Y0312544D02*
X0338168Y0312544D01*
X0338168Y0317537D02*
X0294168Y0317537D01*
X0294168Y0316539D02*
X0296522Y0316539D01*
X0296268Y0315540D02*
X0294168Y0315540D01*
X0294168Y0306553D02*
X0296268Y0306553D01*
X0296268Y0305555D02*
X0294168Y0305555D01*
X0294168Y0304556D02*
X0296268Y0304556D01*
X0296268Y0303558D02*
X0294168Y0303558D01*
X0294168Y0302559D02*
X0296268Y0302559D01*
X0296319Y0301561D02*
X0294168Y0301561D01*
X0294168Y0300562D02*
X0298334Y0300562D01*
X0298334Y0299564D02*
X0294168Y0299564D01*
X0323861Y0280592D02*
X0338168Y0280592D01*
X0338168Y0279594D02*
X0324860Y0279594D01*
X0325858Y0278595D02*
X0338168Y0278595D01*
X0338168Y0277597D02*
X0326857Y0277597D01*
X0327855Y0276598D02*
X0338168Y0276598D01*
X0338168Y0275600D02*
X0328854Y0275600D01*
X0329852Y0274601D02*
X0338168Y0274601D01*
X0285418Y0236250D02*
X0280918Y0240750D01*
X0269418Y0240750D01*
X0206418Y0163250D02*
X0182668Y0187000D01*
X0174168Y0187000D01*
X0062418Y0187000D01*
X0061418Y0186000D01*
X0068168Y0193500D02*
X0038668Y0193500D01*
X0030918Y0201250D01*
X0030918Y0261750D01*
X0036168Y0267000D01*
X0039918Y0267000D01*
X0097418Y0266613D02*
X0113894Y0266613D01*
X0113894Y0267611D02*
X0097418Y0267611D01*
X0097418Y0268610D02*
X0114153Y0268610D01*
X0114153Y0268611D02*
X0113982Y0268315D01*
X0113894Y0267984D01*
X0113894Y0263589D01*
X0119418Y0263589D01*
X0119418Y0269113D01*
X0115022Y0269113D01*
X0114692Y0269024D01*
X0114395Y0268853D01*
X0114153Y0268611D01*
X0113894Y0265614D02*
X0097418Y0265614D01*
X0097418Y0264616D02*
X0113894Y0264616D01*
X0113894Y0263617D02*
X0097418Y0263617D01*
X0097418Y0262619D02*
X0119418Y0262619D01*
X0119418Y0262589D02*
X0113894Y0262589D01*
X0113894Y0258193D01*
X0113982Y0257862D01*
X0114153Y0257566D01*
X0114395Y0257324D01*
X0114692Y0257153D01*
X0115022Y0257064D01*
X0119418Y0257064D01*
X0119418Y0262589D01*
X0119418Y0263589D01*
X0120418Y0263589D01*
X0120418Y0269113D01*
X0124814Y0269113D01*
X0125144Y0269024D01*
X0125441Y0268853D01*
X0125683Y0268611D01*
X0125854Y0268315D01*
X0125942Y0267984D01*
X0125942Y0263589D01*
X0120418Y0263589D01*
X0120418Y0262589D01*
X0125942Y0262589D01*
X0125942Y0258193D01*
X0125854Y0257862D01*
X0125683Y0257566D01*
X0125441Y0257324D01*
X0125144Y0257153D01*
X0124814Y0257064D01*
X0120418Y0257064D01*
X0120418Y0262589D01*
X0119418Y0262589D01*
X0119418Y0261620D02*
X0120418Y0261620D01*
X0120418Y0260622D02*
X0119418Y0260622D01*
X0119418Y0259623D02*
X0120418Y0259623D01*
X0120418Y0258625D02*
X0119418Y0258625D01*
X0119418Y0257626D02*
X0120418Y0257626D01*
X0125717Y0257626D02*
X0130168Y0257626D01*
X0130168Y0256628D02*
X0097418Y0256628D01*
X0097418Y0257626D02*
X0114118Y0257626D01*
X0113894Y0258625D02*
X0097418Y0258625D01*
X0097418Y0259623D02*
X0113894Y0259623D01*
X0113894Y0260622D02*
X0097418Y0260622D01*
X0097418Y0261620D02*
X0113894Y0261620D01*
X0119418Y0263617D02*
X0120418Y0263617D01*
X0120418Y0262619D02*
X0130168Y0262619D01*
X0130168Y0263617D02*
X0125942Y0263617D01*
X0125942Y0264616D02*
X0130168Y0264616D01*
X0130168Y0265614D02*
X0125942Y0265614D01*
X0125942Y0266613D02*
X0130168Y0266613D01*
X0130168Y0267611D02*
X0125942Y0267611D01*
X0125683Y0268610D02*
X0130168Y0268610D01*
X0130168Y0269608D02*
X0097418Y0269608D01*
X0097418Y0270607D02*
X0130168Y0270607D01*
X0130168Y0271605D02*
X0097418Y0271605D01*
X0097418Y0272604D02*
X0130168Y0272604D01*
X0130168Y0273603D02*
X0097418Y0273603D01*
X0097418Y0274601D02*
X0113875Y0274601D01*
X0113494Y0274983D02*
X0114489Y0273987D01*
X0125347Y0273987D01*
X0126342Y0274983D01*
X0126342Y0278629D01*
X0130168Y0278629D01*
X0130168Y0254500D01*
X0097418Y0254500D01*
X0097418Y0290250D01*
X0109665Y0290250D01*
X0109665Y0288780D01*
X0109754Y0288449D01*
X0109925Y0288153D01*
X0110167Y0287911D01*
X0110463Y0287739D01*
X0110794Y0287651D01*
X0113418Y0287651D01*
X0113418Y0290250D01*
X0114418Y0290250D01*
X0114418Y0287651D01*
X0117042Y0287651D01*
X0117373Y0287739D01*
X0117468Y0287794D01*
X0118011Y0287251D01*
X0118768Y0287251D01*
X0118768Y0286836D01*
X0114489Y0286836D01*
X0113494Y0285840D01*
X0113494Y0274983D01*
X0113494Y0275600D02*
X0097418Y0275600D01*
X0097418Y0276598D02*
X0113494Y0276598D01*
X0113494Y0277597D02*
X0097418Y0277597D01*
X0097418Y0278595D02*
X0113494Y0278595D01*
X0113494Y0279594D02*
X0097418Y0279594D01*
X0097418Y0280592D02*
X0113494Y0280592D01*
X0113494Y0281591D02*
X0097418Y0281591D01*
X0097418Y0282589D02*
X0113494Y0282589D01*
X0113494Y0283588D02*
X0097418Y0283588D01*
X0097418Y0284586D02*
X0113494Y0284586D01*
X0113494Y0285585D02*
X0097418Y0285585D01*
X0097418Y0286583D02*
X0114237Y0286583D01*
X0114418Y0288580D02*
X0113418Y0288580D01*
X0113418Y0289579D02*
X0114418Y0289579D01*
X0117680Y0287582D02*
X0097418Y0287582D01*
X0097418Y0288580D02*
X0109719Y0288580D01*
X0109665Y0289579D02*
X0097418Y0289579D01*
X0126342Y0278595D02*
X0130168Y0278595D01*
X0130168Y0277597D02*
X0126342Y0277597D01*
X0126342Y0276598D02*
X0130168Y0276598D01*
X0130168Y0275600D02*
X0126342Y0275600D01*
X0125961Y0274601D02*
X0130168Y0274601D01*
X0120418Y0268610D02*
X0119418Y0268610D01*
X0119418Y0267611D02*
X0120418Y0267611D01*
X0120418Y0266613D02*
X0119418Y0266613D01*
X0119418Y0265614D02*
X0120418Y0265614D01*
X0120418Y0264616D02*
X0119418Y0264616D01*
X0125942Y0261620D02*
X0130168Y0261620D01*
X0130168Y0260622D02*
X0125942Y0260622D01*
X0125942Y0259623D02*
X0130168Y0259623D01*
X0130168Y0258625D02*
X0125942Y0258625D01*
X0130168Y0255629D02*
X0097418Y0255629D01*
X0097418Y0254631D02*
X0130168Y0254631D01*
X0129269Y0244250D02*
X0150518Y0244250D01*
X0150518Y0231423D01*
X0150655Y0231092D01*
X0150655Y0226321D01*
X0151651Y0225326D01*
X0152168Y0225326D01*
X0152168Y0221153D01*
X0146915Y0221153D01*
X0146168Y0220406D01*
X0145421Y0221153D01*
X0138895Y0221153D01*
X0138135Y0220393D01*
X0138035Y0220493D01*
X0137739Y0220664D01*
X0137408Y0220753D01*
X0135178Y0220753D01*
X0135178Y0217000D01*
X0134178Y0217000D01*
X0134178Y0220753D01*
X0131948Y0220753D01*
X0131617Y0220664D01*
X0131321Y0220493D01*
X0131079Y0220251D01*
X0130907Y0219955D01*
X0130819Y0219624D01*
X0130819Y0217000D01*
X0134178Y0217000D01*
X0134178Y0216000D01*
X0130819Y0216000D01*
X0130819Y0213750D01*
X0125668Y0213750D01*
X0125668Y0240649D01*
X0129269Y0244250D01*
X0128666Y0243647D02*
X0150518Y0243647D01*
X0150518Y0242649D02*
X0127668Y0242649D01*
X0126669Y0241650D02*
X0150518Y0241650D01*
X0150518Y0240652D02*
X0125671Y0240652D01*
X0125668Y0239653D02*
X0150518Y0239653D01*
X0150518Y0238655D02*
X0125668Y0238655D01*
X0125668Y0237656D02*
X0134479Y0237656D01*
X0134530Y0237686D02*
X0134234Y0237515D01*
X0133992Y0237273D01*
X0133821Y0236976D01*
X0133732Y0236646D01*
X0133732Y0232250D01*
X0139257Y0232250D01*
X0139257Y0237774D01*
X0134861Y0237774D01*
X0134530Y0237686D01*
X0133735Y0236658D02*
X0125668Y0236658D01*
X0125668Y0235659D02*
X0133732Y0235659D01*
X0133732Y0234661D02*
X0125668Y0234661D01*
X0125668Y0233662D02*
X0133732Y0233662D01*
X0133732Y0232664D02*
X0125668Y0232664D01*
X0125668Y0231665D02*
X0139257Y0231665D01*
X0139257Y0231250D02*
X0133732Y0231250D01*
X0133732Y0226854D01*
X0133821Y0226524D01*
X0133992Y0226227D01*
X0134234Y0225985D01*
X0134530Y0225814D01*
X0134861Y0225726D01*
X0139257Y0225726D01*
X0139257Y0231250D01*
X0140257Y0231250D01*
X0140257Y0232250D01*
X0145781Y0232250D01*
X0145781Y0236646D01*
X0145692Y0236976D01*
X0145521Y0237273D01*
X0145279Y0237515D01*
X0144983Y0237686D01*
X0144652Y0237774D01*
X0140257Y0237774D01*
X0140257Y0232250D01*
X0139257Y0232250D01*
X0139257Y0231250D01*
X0139257Y0230667D02*
X0140257Y0230667D01*
X0140257Y0231250D02*
X0140257Y0225726D01*
X0144652Y0225726D01*
X0144983Y0225814D01*
X0145279Y0225985D01*
X0145521Y0226227D01*
X0145692Y0226524D01*
X0145781Y0226854D01*
X0145781Y0231250D01*
X0140257Y0231250D01*
X0140257Y0231665D02*
X0150518Y0231665D01*
X0150518Y0232664D02*
X0145781Y0232664D01*
X0145781Y0233662D02*
X0150518Y0233662D01*
X0150518Y0234661D02*
X0145781Y0234661D01*
X0145781Y0235659D02*
X0150518Y0235659D01*
X0150518Y0236658D02*
X0145778Y0236658D01*
X0145034Y0237656D02*
X0150518Y0237656D01*
X0140257Y0237656D02*
X0139257Y0237656D01*
X0139257Y0236658D02*
X0140257Y0236658D01*
X0140257Y0235659D02*
X0139257Y0235659D01*
X0139257Y0234661D02*
X0140257Y0234661D01*
X0140257Y0233662D02*
X0139257Y0233662D01*
X0139257Y0232664D02*
X0140257Y0232664D01*
X0140257Y0229668D02*
X0139257Y0229668D01*
X0139257Y0228670D02*
X0140257Y0228670D01*
X0140257Y0227671D02*
X0139257Y0227671D01*
X0139257Y0226672D02*
X0140257Y0226672D01*
X0145732Y0226672D02*
X0150655Y0226672D01*
X0150655Y0227671D02*
X0145781Y0227671D01*
X0145781Y0228670D02*
X0150655Y0228670D01*
X0150655Y0229668D02*
X0145781Y0229668D01*
X0145781Y0230667D02*
X0150655Y0230667D01*
X0151302Y0225674D02*
X0125668Y0225674D01*
X0125668Y0226672D02*
X0133781Y0226672D01*
X0133732Y0227671D02*
X0125668Y0227671D01*
X0125668Y0228670D02*
X0133732Y0228670D01*
X0133732Y0229668D02*
X0125668Y0229668D01*
X0125668Y0230667D02*
X0133732Y0230667D01*
X0134178Y0220681D02*
X0135178Y0220681D01*
X0135178Y0219683D02*
X0134178Y0219683D01*
X0134178Y0218684D02*
X0135178Y0218684D01*
X0135178Y0217686D02*
X0134178Y0217686D01*
X0134178Y0216687D02*
X0125668Y0216687D01*
X0125668Y0215689D02*
X0130819Y0215689D01*
X0130819Y0214690D02*
X0125668Y0214690D01*
X0125668Y0217686D02*
X0130819Y0217686D01*
X0130819Y0218684D02*
X0125668Y0218684D01*
X0125668Y0219683D02*
X0130835Y0219683D01*
X0131681Y0220681D02*
X0125668Y0220681D01*
X0125668Y0221680D02*
X0152168Y0221680D01*
X0152168Y0222678D02*
X0125668Y0222678D01*
X0125668Y0223677D02*
X0152168Y0223677D01*
X0152168Y0224675D02*
X0125668Y0224675D01*
X0137674Y0220681D02*
X0138424Y0220681D01*
X0145893Y0220681D02*
X0146443Y0220681D01*
X0158203Y0173750D02*
X0074168Y0173750D01*
X0074168Y0077750D01*
X0062605Y0077544D01*
X0062605Y0060793D01*
X0061375Y0059563D01*
X0060168Y0059563D01*
X0060168Y0046000D01*
X0062168Y0044000D01*
X0081168Y0044000D01*
X0082168Y0045000D01*
X0082168Y0052434D01*
X0080753Y0051019D01*
X0078154Y0051019D01*
X0078154Y0058000D01*
X0077154Y0058000D01*
X0070173Y0058000D01*
X0070173Y0055401D01*
X0074555Y0051019D01*
X0077154Y0051019D01*
X0077154Y0058000D01*
X0077154Y0059000D01*
X0070173Y0059000D01*
X0070173Y0061599D01*
X0074555Y0065981D01*
X0077154Y0065981D01*
X0077154Y0059000D01*
X0078154Y0059000D01*
X0078154Y0065981D01*
X0080753Y0065981D01*
X0082168Y0064566D01*
X0082168Y0067000D01*
X0100168Y0085000D01*
X0121168Y0085000D01*
X0121168Y0098000D01*
X0165168Y0142000D01*
X0170221Y0142000D01*
X0170727Y0142507D01*
X0173771Y0143767D01*
X0177065Y0143767D01*
X0180109Y0142507D01*
X0180615Y0142000D01*
X0182168Y0142000D01*
X0186918Y0146750D01*
X0186918Y0167432D01*
X0180600Y0173750D01*
X0164633Y0173750D01*
X0162945Y0172063D01*
X0159891Y0172063D01*
X0158203Y0173750D01*
X0159200Y0172753D02*
X0074168Y0172753D01*
X0074168Y0171754D02*
X0171579Y0171754D01*
X0172319Y0172495D02*
X0167937Y0168113D01*
X0167937Y0165514D01*
X0174918Y0165514D01*
X0174918Y0172495D01*
X0172319Y0172495D01*
X0170580Y0170756D02*
X0074168Y0170756D01*
X0074168Y0169757D02*
X0169582Y0169757D01*
X0168583Y0168759D02*
X0074168Y0168759D01*
X0074168Y0167760D02*
X0167937Y0167760D01*
X0167937Y0166762D02*
X0074168Y0166762D01*
X0074168Y0165763D02*
X0167937Y0165763D01*
X0167937Y0164514D02*
X0167937Y0161915D01*
X0172319Y0157533D01*
X0174918Y0157533D01*
X0174918Y0164514D01*
X0167937Y0164514D01*
X0167937Y0163766D02*
X0074168Y0163766D01*
X0074168Y0162768D02*
X0167937Y0162768D01*
X0168083Y0161769D02*
X0074168Y0161769D01*
X0074168Y0160771D02*
X0169081Y0160771D01*
X0170080Y0159772D02*
X0074168Y0159772D01*
X0074168Y0158774D02*
X0171078Y0158774D01*
X0172077Y0157775D02*
X0074168Y0157775D01*
X0074168Y0156777D02*
X0186918Y0156777D01*
X0186918Y0157775D02*
X0178759Y0157775D01*
X0178517Y0157533D02*
X0182899Y0161915D01*
X0182899Y0164514D01*
X0175918Y0164514D01*
X0175918Y0165514D01*
X0174918Y0165514D01*
X0174918Y0164514D01*
X0175918Y0164514D01*
X0175918Y0157533D01*
X0178517Y0157533D01*
X0179758Y0158774D02*
X0186918Y0158774D01*
X0186918Y0159772D02*
X0180756Y0159772D01*
X0181755Y0160771D02*
X0186918Y0160771D01*
X0186918Y0161769D02*
X0182753Y0161769D01*
X0182899Y0162768D02*
X0186918Y0162768D01*
X0186918Y0163766D02*
X0182899Y0163766D01*
X0182899Y0165514D02*
X0175918Y0165514D01*
X0175918Y0172495D01*
X0178517Y0172495D01*
X0182899Y0168113D01*
X0182899Y0165514D01*
X0182899Y0165763D02*
X0186918Y0165763D01*
X0186918Y0164765D02*
X0175918Y0164765D01*
X0175918Y0165763D02*
X0174918Y0165763D01*
X0174918Y0164765D02*
X0074168Y0164765D01*
X0072168Y0164765D02*
X0051168Y0164765D01*
X0051168Y0165000D02*
X0054168Y0168000D01*
X0072168Y0168000D01*
X0072168Y0135000D01*
X0065168Y0135000D01*
X0065168Y0133000D01*
X0072168Y0133000D01*
X0072168Y0101000D01*
X0065168Y0101000D01*
X0065168Y0099000D01*
X0072168Y0099000D01*
X0072168Y0076000D01*
X0062605Y0076199D01*
X0062605Y0077707D01*
X0061375Y0078937D01*
X0057481Y0078937D01*
X0051168Y0085250D01*
X0051168Y0165000D01*
X0051931Y0165763D02*
X0072168Y0165763D01*
X0072168Y0166762D02*
X0052930Y0166762D01*
X0053928Y0167760D02*
X0072168Y0167760D01*
X0072168Y0163766D02*
X0051168Y0163766D01*
X0051168Y0162768D02*
X0072168Y0162768D01*
X0072168Y0161769D02*
X0051168Y0161769D01*
X0051168Y0160771D02*
X0072168Y0160771D01*
X0072168Y0159772D02*
X0051168Y0159772D01*
X0051168Y0158774D02*
X0072168Y0158774D01*
X0072168Y0157775D02*
X0051168Y0157775D01*
X0051168Y0156777D02*
X0072168Y0156777D01*
X0072168Y0155778D02*
X0051168Y0155778D01*
X0051168Y0154780D02*
X0072168Y0154780D01*
X0072168Y0153781D02*
X0051168Y0153781D01*
X0051168Y0152783D02*
X0072168Y0152783D01*
X0072168Y0151784D02*
X0051168Y0151784D01*
X0051168Y0150786D02*
X0072168Y0150786D01*
X0072168Y0149787D02*
X0051168Y0149787D01*
X0051168Y0148789D02*
X0072168Y0148789D01*
X0072168Y0147790D02*
X0051168Y0147790D01*
X0051168Y0146792D02*
X0072168Y0146792D01*
X0072168Y0145793D02*
X0051168Y0145793D01*
X0051168Y0144795D02*
X0072168Y0144795D01*
X0072168Y0143796D02*
X0051168Y0143796D01*
X0051168Y0142798D02*
X0072168Y0142798D01*
X0072168Y0141799D02*
X0051168Y0141799D01*
X0051168Y0140801D02*
X0072168Y0140801D01*
X0072168Y0139802D02*
X0051168Y0139802D01*
X0051168Y0138803D02*
X0072168Y0138803D01*
X0072168Y0137805D02*
X0051168Y0137805D01*
X0051168Y0136806D02*
X0072168Y0136806D01*
X0072168Y0135808D02*
X0051168Y0135808D01*
X0051168Y0134809D02*
X0065168Y0134809D01*
X0065168Y0133811D02*
X0051168Y0133811D01*
X0051168Y0132812D02*
X0072168Y0132812D01*
X0072168Y0131814D02*
X0051168Y0131814D01*
X0051168Y0130815D02*
X0072168Y0130815D01*
X0072168Y0129817D02*
X0051168Y0129817D01*
X0051168Y0128818D02*
X0072168Y0128818D01*
X0072168Y0127820D02*
X0051168Y0127820D01*
X0051168Y0126821D02*
X0072168Y0126821D01*
X0072168Y0125823D02*
X0051168Y0125823D01*
X0051168Y0124824D02*
X0072168Y0124824D01*
X0072168Y0123826D02*
X0051168Y0123826D01*
X0051168Y0122827D02*
X0072168Y0122827D01*
X0072168Y0121829D02*
X0051168Y0121829D01*
X0051168Y0120830D02*
X0072168Y0120830D01*
X0072168Y0119832D02*
X0051168Y0119832D01*
X0051168Y0118833D02*
X0072168Y0118833D01*
X0072168Y0117835D02*
X0051168Y0117835D01*
X0051168Y0116836D02*
X0072168Y0116836D01*
X0072168Y0115838D02*
X0051168Y0115838D01*
X0051168Y0114839D02*
X0072168Y0114839D01*
X0072168Y0113841D02*
X0051168Y0113841D01*
X0051168Y0112842D02*
X0072168Y0112842D01*
X0072168Y0111844D02*
X0051168Y0111844D01*
X0051168Y0110845D02*
X0072168Y0110845D01*
X0072168Y0109847D02*
X0051168Y0109847D01*
X0051168Y0108848D02*
X0072168Y0108848D01*
X0072168Y0107850D02*
X0051168Y0107850D01*
X0051168Y0106851D02*
X0072168Y0106851D01*
X0072168Y0105853D02*
X0051168Y0105853D01*
X0051168Y0104854D02*
X0072168Y0104854D01*
X0072168Y0103856D02*
X0051168Y0103856D01*
X0051168Y0102857D02*
X0072168Y0102857D01*
X0072168Y0101859D02*
X0051168Y0101859D01*
X0051168Y0100860D02*
X0065168Y0100860D01*
X0065168Y0099862D02*
X0051168Y0099862D01*
X0051168Y0098863D02*
X0072168Y0098863D01*
X0072168Y0097865D02*
X0051168Y0097865D01*
X0051168Y0096866D02*
X0072168Y0096866D01*
X0072168Y0095868D02*
X0051168Y0095868D01*
X0051168Y0094869D02*
X0072168Y0094869D01*
X0072168Y0093870D02*
X0051168Y0093870D01*
X0051168Y0092872D02*
X0072168Y0092872D01*
X0072168Y0091873D02*
X0051168Y0091873D01*
X0051168Y0090875D02*
X0072168Y0090875D01*
X0072168Y0089876D02*
X0051168Y0089876D01*
X0051168Y0088878D02*
X0072168Y0088878D01*
X0072168Y0087879D02*
X0051168Y0087879D01*
X0051168Y0086881D02*
X0072168Y0086881D01*
X0072168Y0085882D02*
X0051168Y0085882D01*
X0051534Y0084884D02*
X0072168Y0084884D01*
X0072168Y0083885D02*
X0052533Y0083885D01*
X0053531Y0082887D02*
X0072168Y0082887D01*
X0072168Y0081888D02*
X0054530Y0081888D01*
X0055528Y0080890D02*
X0072168Y0080890D01*
X0072168Y0079891D02*
X0056527Y0079891D01*
X0061420Y0078893D02*
X0072168Y0078893D01*
X0072168Y0077894D02*
X0062418Y0077894D01*
X0062605Y0076896D02*
X0072168Y0076896D01*
X0074168Y0077894D02*
X0093062Y0077894D01*
X0092064Y0076896D02*
X0062605Y0076896D01*
X0062605Y0075897D02*
X0091065Y0075897D01*
X0090067Y0074899D02*
X0062605Y0074899D01*
X0062605Y0073900D02*
X0089068Y0073900D01*
X0088070Y0072902D02*
X0062605Y0072902D01*
X0062605Y0071903D02*
X0087071Y0071903D01*
X0086073Y0070905D02*
X0062605Y0070905D01*
X0062605Y0069906D02*
X0085074Y0069906D01*
X0084076Y0068908D02*
X0062605Y0068908D01*
X0062605Y0067909D02*
X0083077Y0067909D01*
X0082168Y0066911D02*
X0062605Y0066911D01*
X0062605Y0065912D02*
X0074487Y0065912D01*
X0073488Y0064914D02*
X0062605Y0064914D01*
X0062605Y0063915D02*
X0072489Y0063915D01*
X0071491Y0062917D02*
X0062605Y0062917D01*
X0062605Y0061918D02*
X0070492Y0061918D01*
X0070173Y0060920D02*
X0062605Y0060920D01*
X0061734Y0059921D02*
X0070173Y0059921D01*
X0070173Y0057924D02*
X0060168Y0057924D01*
X0060168Y0056926D02*
X0070173Y0056926D01*
X0070173Y0055927D02*
X0060168Y0055927D01*
X0060168Y0054929D02*
X0070646Y0054929D01*
X0071644Y0053930D02*
X0060168Y0053930D01*
X0060168Y0052932D02*
X0072643Y0052932D01*
X0073641Y0051933D02*
X0060168Y0051933D01*
X0060168Y0050934D02*
X0082168Y0050934D01*
X0082168Y0049936D02*
X0060168Y0049936D01*
X0060168Y0048937D02*
X0082168Y0048937D01*
X0082168Y0047939D02*
X0060168Y0047939D01*
X0060168Y0046940D02*
X0082168Y0046940D01*
X0082168Y0045942D02*
X0060226Y0045942D01*
X0061225Y0044943D02*
X0082111Y0044943D01*
X0082168Y0051933D02*
X0081667Y0051933D01*
X0078154Y0051933D02*
X0077154Y0051933D01*
X0077154Y0052932D02*
X0078154Y0052932D01*
X0078154Y0053930D02*
X0077154Y0053930D01*
X0077154Y0054929D02*
X0078154Y0054929D01*
X0078154Y0055927D02*
X0077154Y0055927D01*
X0077154Y0056926D02*
X0078154Y0056926D01*
X0078154Y0057924D02*
X0077154Y0057924D01*
X0077154Y0058923D02*
X0060168Y0058923D01*
X0046168Y0060000D02*
X0044168Y0058000D01*
X0026550Y0058000D01*
X0026550Y0168000D01*
X0044168Y0168000D01*
X0046168Y0166000D01*
X0046168Y0135000D01*
X0041168Y0135000D01*
X0041168Y0133000D01*
X0046168Y0133000D01*
X0046168Y0101000D01*
X0041168Y0101000D01*
X0041168Y0099000D01*
X0046168Y0099000D01*
X0046168Y0060000D01*
X0046089Y0059921D02*
X0026550Y0059921D01*
X0026550Y0058923D02*
X0045091Y0058923D01*
X0046168Y0060920D02*
X0026550Y0060920D01*
X0026550Y0061918D02*
X0046168Y0061918D01*
X0046168Y0062917D02*
X0026550Y0062917D01*
X0026550Y0063915D02*
X0046168Y0063915D01*
X0046168Y0064914D02*
X0026550Y0064914D01*
X0026550Y0065912D02*
X0046168Y0065912D01*
X0046168Y0066911D02*
X0026550Y0066911D01*
X0026550Y0067909D02*
X0046168Y0067909D01*
X0046168Y0068908D02*
X0026550Y0068908D01*
X0026550Y0069906D02*
X0046168Y0069906D01*
X0046168Y0070905D02*
X0026550Y0070905D01*
X0026550Y0071903D02*
X0046168Y0071903D01*
X0046168Y0072902D02*
X0026550Y0072902D01*
X0026550Y0073900D02*
X0046168Y0073900D01*
X0046168Y0074899D02*
X0026550Y0074899D01*
X0026550Y0075897D02*
X0046168Y0075897D01*
X0046168Y0076896D02*
X0026550Y0076896D01*
X0026550Y0077894D02*
X0046168Y0077894D01*
X0046168Y0078893D02*
X0026550Y0078893D01*
X0026550Y0079891D02*
X0046168Y0079891D01*
X0046168Y0080890D02*
X0026550Y0080890D01*
X0026550Y0081888D02*
X0046168Y0081888D01*
X0046168Y0082887D02*
X0026550Y0082887D01*
X0026550Y0083885D02*
X0046168Y0083885D01*
X0046168Y0084884D02*
X0026550Y0084884D01*
X0026550Y0085882D02*
X0046168Y0085882D01*
X0046168Y0086881D02*
X0026550Y0086881D01*
X0026550Y0087879D02*
X0046168Y0087879D01*
X0046168Y0088878D02*
X0026550Y0088878D01*
X0026550Y0089876D02*
X0046168Y0089876D01*
X0046168Y0090875D02*
X0026550Y0090875D01*
X0026550Y0091873D02*
X0046168Y0091873D01*
X0046168Y0092872D02*
X0026550Y0092872D01*
X0026550Y0093870D02*
X0046168Y0093870D01*
X0046168Y0094869D02*
X0026550Y0094869D01*
X0026550Y0095868D02*
X0046168Y0095868D01*
X0046168Y0096866D02*
X0026550Y0096866D01*
X0026550Y0097865D02*
X0046168Y0097865D01*
X0046168Y0098863D02*
X0026550Y0098863D01*
X0026550Y0099862D02*
X0041168Y0099862D01*
X0041168Y0100860D02*
X0026550Y0100860D01*
X0026550Y0101859D02*
X0046168Y0101859D01*
X0046168Y0102857D02*
X0026550Y0102857D01*
X0026550Y0103856D02*
X0046168Y0103856D01*
X0046168Y0104854D02*
X0026550Y0104854D01*
X0026550Y0105853D02*
X0046168Y0105853D01*
X0046168Y0106851D02*
X0026550Y0106851D01*
X0026550Y0107850D02*
X0046168Y0107850D01*
X0046168Y0108848D02*
X0026550Y0108848D01*
X0026550Y0109847D02*
X0046168Y0109847D01*
X0046168Y0110845D02*
X0026550Y0110845D01*
X0026550Y0111844D02*
X0046168Y0111844D01*
X0046168Y0112842D02*
X0026550Y0112842D01*
X0026550Y0113841D02*
X0046168Y0113841D01*
X0046168Y0114839D02*
X0026550Y0114839D01*
X0026550Y0115838D02*
X0046168Y0115838D01*
X0046168Y0116836D02*
X0026550Y0116836D01*
X0026550Y0117835D02*
X0046168Y0117835D01*
X0046168Y0118833D02*
X0026550Y0118833D01*
X0026550Y0119832D02*
X0046168Y0119832D01*
X0046168Y0120830D02*
X0026550Y0120830D01*
X0026550Y0121829D02*
X0046168Y0121829D01*
X0046168Y0122827D02*
X0026550Y0122827D01*
X0026550Y0123826D02*
X0046168Y0123826D01*
X0046168Y0124824D02*
X0026550Y0124824D01*
X0026550Y0125823D02*
X0046168Y0125823D01*
X0046168Y0126821D02*
X0026550Y0126821D01*
X0026550Y0127820D02*
X0046168Y0127820D01*
X0046168Y0128818D02*
X0026550Y0128818D01*
X0026550Y0129817D02*
X0046168Y0129817D01*
X0046168Y0130815D02*
X0026550Y0130815D01*
X0026550Y0131814D02*
X0046168Y0131814D01*
X0046168Y0132812D02*
X0026550Y0132812D01*
X0026550Y0133811D02*
X0041168Y0133811D01*
X0041168Y0134809D02*
X0026550Y0134809D01*
X0026550Y0135808D02*
X0046168Y0135808D01*
X0046168Y0136806D02*
X0026550Y0136806D01*
X0026550Y0137805D02*
X0046168Y0137805D01*
X0046168Y0138803D02*
X0026550Y0138803D01*
X0026550Y0139802D02*
X0046168Y0139802D01*
X0046168Y0140801D02*
X0026550Y0140801D01*
X0026550Y0141799D02*
X0046168Y0141799D01*
X0046168Y0142798D02*
X0026550Y0142798D01*
X0026550Y0143796D02*
X0046168Y0143796D01*
X0046168Y0144795D02*
X0026550Y0144795D01*
X0026550Y0145793D02*
X0046168Y0145793D01*
X0046168Y0146792D02*
X0026550Y0146792D01*
X0026550Y0147790D02*
X0046168Y0147790D01*
X0046168Y0148789D02*
X0026550Y0148789D01*
X0026550Y0149787D02*
X0046168Y0149787D01*
X0046168Y0150786D02*
X0026550Y0150786D01*
X0026550Y0151784D02*
X0046168Y0151784D01*
X0046168Y0152783D02*
X0026550Y0152783D01*
X0026550Y0153781D02*
X0046168Y0153781D01*
X0046168Y0154780D02*
X0026550Y0154780D01*
X0026550Y0155778D02*
X0046168Y0155778D01*
X0046168Y0156777D02*
X0026550Y0156777D01*
X0026550Y0157775D02*
X0046168Y0157775D01*
X0046168Y0158774D02*
X0026550Y0158774D01*
X0026550Y0159772D02*
X0046168Y0159772D01*
X0046168Y0160771D02*
X0026550Y0160771D01*
X0026550Y0161769D02*
X0046168Y0161769D01*
X0046168Y0162768D02*
X0026550Y0162768D01*
X0026550Y0163766D02*
X0046168Y0163766D01*
X0046168Y0164765D02*
X0026550Y0164765D01*
X0026550Y0165763D02*
X0046168Y0165763D01*
X0045406Y0166762D02*
X0026550Y0166762D01*
X0026550Y0167760D02*
X0044408Y0167760D01*
X0074168Y0155778D02*
X0186918Y0155778D01*
X0186918Y0154780D02*
X0074168Y0154780D01*
X0074168Y0153781D02*
X0186918Y0153781D01*
X0186918Y0152783D02*
X0074168Y0152783D01*
X0074168Y0151784D02*
X0186918Y0151784D01*
X0186918Y0150786D02*
X0074168Y0150786D01*
X0074168Y0149787D02*
X0186918Y0149787D01*
X0186918Y0148789D02*
X0074168Y0148789D01*
X0074168Y0147790D02*
X0186918Y0147790D01*
X0186918Y0146792D02*
X0074168Y0146792D01*
X0074168Y0145793D02*
X0185961Y0145793D01*
X0184963Y0144795D02*
X0074168Y0144795D01*
X0074168Y0143796D02*
X0183964Y0143796D01*
X0182966Y0142798D02*
X0179406Y0142798D01*
X0171430Y0142798D02*
X0074168Y0142798D01*
X0074168Y0141799D02*
X0116621Y0141799D01*
X0117785Y0142281D02*
X0114741Y0141020D01*
X0112411Y0138691D01*
X0111151Y0135647D01*
X0111151Y0132353D01*
X0112411Y0129309D01*
X0114741Y0126980D01*
X0117785Y0125719D01*
X0121079Y0125719D01*
X0124123Y0126980D01*
X0126452Y0129309D01*
X0127713Y0132353D01*
X0127713Y0135647D01*
X0126452Y0138691D01*
X0124123Y0141020D01*
X0121079Y0142281D01*
X0117785Y0142281D01*
X0114521Y0140801D02*
X0093684Y0140801D01*
X0093003Y0141481D02*
X0090404Y0141481D01*
X0090404Y0134500D01*
X0089404Y0134500D01*
X0089404Y0133500D01*
X0082423Y0133500D01*
X0082423Y0130901D01*
X0086805Y0126519D01*
X0089404Y0126519D01*
X0089404Y0133500D01*
X0090404Y0133500D01*
X0090404Y0126519D01*
X0093003Y0126519D01*
X0097385Y0130901D01*
X0097385Y0133500D01*
X0090404Y0133500D01*
X0090404Y0134500D01*
X0097385Y0134500D01*
X0097385Y0137099D01*
X0093003Y0141481D01*
X0094682Y0139802D02*
X0113523Y0139802D01*
X0112524Y0138803D02*
X0095681Y0138803D01*
X0096679Y0137805D02*
X0112044Y0137805D01*
X0111631Y0136806D02*
X0097385Y0136806D01*
X0097385Y0135808D02*
X0111217Y0135808D01*
X0111151Y0134809D02*
X0097385Y0134809D01*
X0097385Y0132812D02*
X0111151Y0132812D01*
X0111151Y0133811D02*
X0090404Y0133811D01*
X0090404Y0134809D02*
X0089404Y0134809D01*
X0089404Y0134500D02*
X0089404Y0141481D01*
X0086805Y0141481D01*
X0082423Y0137099D01*
X0082423Y0134500D01*
X0089404Y0134500D01*
X0089404Y0133811D02*
X0074168Y0133811D01*
X0074168Y0134809D02*
X0082423Y0134809D01*
X0082423Y0135808D02*
X0074168Y0135808D01*
X0074168Y0136806D02*
X0082423Y0136806D01*
X0083129Y0137805D02*
X0074168Y0137805D01*
X0074168Y0138803D02*
X0084128Y0138803D01*
X0085126Y0139802D02*
X0074168Y0139802D01*
X0074168Y0140801D02*
X0086125Y0140801D01*
X0089404Y0140801D02*
X0090404Y0140801D01*
X0090404Y0139802D02*
X0089404Y0139802D01*
X0089404Y0138803D02*
X0090404Y0138803D01*
X0090404Y0137805D02*
X0089404Y0137805D01*
X0089404Y0136806D02*
X0090404Y0136806D01*
X0090404Y0135808D02*
X0089404Y0135808D01*
X0089404Y0132812D02*
X0090404Y0132812D01*
X0090404Y0131814D02*
X0089404Y0131814D01*
X0089404Y0130815D02*
X0090404Y0130815D01*
X0090404Y0129817D02*
X0089404Y0129817D01*
X0089404Y0128818D02*
X0090404Y0128818D01*
X0090404Y0127820D02*
X0089404Y0127820D01*
X0089404Y0126821D02*
X0090404Y0126821D01*
X0093305Y0126821D02*
X0115123Y0126821D01*
X0113901Y0127820D02*
X0094304Y0127820D01*
X0095302Y0128818D02*
X0112902Y0128818D01*
X0112201Y0129817D02*
X0096301Y0129817D01*
X0097299Y0130815D02*
X0111787Y0130815D01*
X0111374Y0131814D02*
X0097385Y0131814D01*
X0086503Y0126821D02*
X0074168Y0126821D01*
X0074168Y0125823D02*
X0117534Y0125823D01*
X0121330Y0125823D02*
X0148991Y0125823D01*
X0149989Y0126821D02*
X0123741Y0126821D01*
X0124963Y0127820D02*
X0150988Y0127820D01*
X0151986Y0128818D02*
X0125961Y0128818D01*
X0126662Y0129817D02*
X0152985Y0129817D01*
X0153983Y0130815D02*
X0127076Y0130815D01*
X0127490Y0131814D02*
X0154982Y0131814D01*
X0155980Y0132812D02*
X0127713Y0132812D01*
X0127713Y0133811D02*
X0156979Y0133811D01*
X0157977Y0134809D02*
X0127713Y0134809D01*
X0127646Y0135808D02*
X0158976Y0135808D01*
X0159974Y0136806D02*
X0127233Y0136806D01*
X0126819Y0137805D02*
X0160973Y0137805D01*
X0161971Y0138803D02*
X0126339Y0138803D01*
X0125341Y0139802D02*
X0162970Y0139802D01*
X0163968Y0140801D02*
X0124342Y0140801D01*
X0122243Y0141799D02*
X0164967Y0141799D01*
X0184735Y0129817D02*
X0259168Y0129817D01*
X0259168Y0130815D02*
X0185733Y0130815D01*
X0186732Y0131814D02*
X0259168Y0131814D01*
X0259168Y0132000D02*
X0259168Y0093600D01*
X0201651Y0093600D01*
X0200695Y0093204D01*
X0199964Y0092473D01*
X0199568Y0091517D01*
X0199568Y0077483D01*
X0199964Y0076527D01*
X0200695Y0075796D01*
X0201651Y0075400D01*
X0203739Y0075400D01*
X0202111Y0073772D01*
X0202111Y0068181D01*
X0206065Y0064227D01*
X0211657Y0064227D01*
X0215610Y0068181D01*
X0215610Y0073772D01*
X0213983Y0075400D01*
X0216568Y0075400D01*
X0216568Y0060000D01*
X0148168Y0060000D01*
X0148168Y0114750D01*
X0154918Y0121500D01*
X0176418Y0121500D01*
X0186918Y0132000D01*
X0259168Y0132000D01*
X0259168Y0128818D02*
X0183736Y0128818D01*
X0182738Y0127820D02*
X0259168Y0127820D01*
X0259168Y0126821D02*
X0181739Y0126821D01*
X0180741Y0125823D02*
X0259168Y0125823D01*
X0259168Y0124824D02*
X0179742Y0124824D01*
X0178744Y0123826D02*
X0259168Y0123826D01*
X0259168Y0122827D02*
X0177745Y0122827D01*
X0176747Y0121829D02*
X0259168Y0121829D01*
X0259168Y0120830D02*
X0154248Y0120830D01*
X0153250Y0119832D02*
X0259168Y0119832D01*
X0259168Y0118833D02*
X0211888Y0118833D01*
X0211657Y0119065D02*
X0206065Y0119065D01*
X0202111Y0115111D01*
X0202111Y0109519D01*
X0206065Y0105565D01*
X0211657Y0105565D01*
X0215610Y0109519D01*
X0215610Y0115111D01*
X0211657Y0119065D01*
X0212886Y0117835D02*
X0259168Y0117835D01*
X0259168Y0116836D02*
X0213885Y0116836D01*
X0214883Y0115838D02*
X0259168Y0115838D01*
X0259168Y0114839D02*
X0215610Y0114839D01*
X0215610Y0113841D02*
X0259168Y0113841D01*
X0259168Y0112842D02*
X0215610Y0112842D01*
X0215610Y0111844D02*
X0259168Y0111844D01*
X0259168Y0110845D02*
X0215610Y0110845D01*
X0215610Y0109847D02*
X0259168Y0109847D01*
X0259168Y0108848D02*
X0214939Y0108848D01*
X0213941Y0107850D02*
X0259168Y0107850D01*
X0259168Y0106851D02*
X0212942Y0106851D01*
X0211944Y0105853D02*
X0259168Y0105853D01*
X0259168Y0104854D02*
X0148168Y0104854D01*
X0148168Y0103856D02*
X0259168Y0103856D01*
X0259168Y0102857D02*
X0148168Y0102857D01*
X0148168Y0101859D02*
X0259168Y0101859D01*
X0259168Y0100860D02*
X0148168Y0100860D01*
X0148168Y0099862D02*
X0259168Y0099862D01*
X0259168Y0098863D02*
X0148168Y0098863D01*
X0148168Y0097865D02*
X0259168Y0097865D01*
X0259168Y0096866D02*
X0148168Y0096866D01*
X0148168Y0095868D02*
X0259168Y0095868D01*
X0259168Y0094869D02*
X0148168Y0094869D01*
X0148168Y0093870D02*
X0259168Y0093870D01*
X0259168Y0091000D02*
X0259168Y0019571D01*
X0148168Y0019571D01*
X0148168Y0057000D01*
X0219168Y0057000D01*
X0219168Y0078000D01*
X0202168Y0078000D01*
X0202168Y0091000D01*
X0259168Y0091000D01*
X0259168Y0090875D02*
X0202168Y0090875D01*
X0202168Y0089876D02*
X0259168Y0089876D01*
X0259168Y0088878D02*
X0202168Y0088878D01*
X0202168Y0087879D02*
X0259168Y0087879D01*
X0259168Y0086881D02*
X0202168Y0086881D01*
X0202168Y0085882D02*
X0259168Y0085882D01*
X0259168Y0084884D02*
X0202168Y0084884D01*
X0202168Y0083885D02*
X0259168Y0083885D01*
X0259168Y0082887D02*
X0202168Y0082887D01*
X0202168Y0081888D02*
X0259168Y0081888D01*
X0259168Y0080890D02*
X0202168Y0080890D01*
X0202168Y0079891D02*
X0259168Y0079891D01*
X0259168Y0078893D02*
X0202168Y0078893D01*
X0199568Y0078893D02*
X0148168Y0078893D01*
X0148168Y0079891D02*
X0199568Y0079891D01*
X0199568Y0080890D02*
X0148168Y0080890D01*
X0148168Y0081888D02*
X0199568Y0081888D01*
X0199568Y0082887D02*
X0148168Y0082887D01*
X0148168Y0083885D02*
X0199568Y0083885D01*
X0199568Y0084884D02*
X0148168Y0084884D01*
X0148168Y0085882D02*
X0199568Y0085882D01*
X0199568Y0086881D02*
X0148168Y0086881D01*
X0148168Y0087879D02*
X0199568Y0087879D01*
X0199568Y0088878D02*
X0148168Y0088878D01*
X0148168Y0089876D02*
X0199568Y0089876D01*
X0199568Y0090875D02*
X0148168Y0090875D01*
X0148168Y0091873D02*
X0199716Y0091873D01*
X0200363Y0092872D02*
X0148168Y0092872D01*
X0164518Y0090000D02*
X0176698Y0087250D01*
X0164518Y0090000D02*
X0130918Y0090000D01*
X0121168Y0089876D02*
X0074168Y0089876D01*
X0074168Y0088878D02*
X0121168Y0088878D01*
X0121168Y0087879D02*
X0074168Y0087879D01*
X0074168Y0086881D02*
X0121168Y0086881D01*
X0121168Y0085882D02*
X0074168Y0085882D01*
X0074168Y0084884D02*
X0100052Y0084884D01*
X0099053Y0083885D02*
X0074168Y0083885D01*
X0074168Y0082887D02*
X0098055Y0082887D01*
X0097056Y0081888D02*
X0074168Y0081888D01*
X0074168Y0080890D02*
X0096058Y0080890D01*
X0095059Y0079891D02*
X0074168Y0079891D01*
X0074168Y0078893D02*
X0094061Y0078893D01*
X0074168Y0090875D02*
X0121168Y0090875D01*
X0121168Y0091873D02*
X0074168Y0091873D01*
X0074168Y0092872D02*
X0121168Y0092872D01*
X0121168Y0093870D02*
X0074168Y0093870D01*
X0074168Y0094869D02*
X0121168Y0094869D01*
X0121168Y0095868D02*
X0074168Y0095868D01*
X0074168Y0096866D02*
X0121168Y0096866D01*
X0121168Y0097865D02*
X0074168Y0097865D01*
X0074168Y0098863D02*
X0122031Y0098863D01*
X0123030Y0099862D02*
X0074168Y0099862D01*
X0074168Y0100860D02*
X0124028Y0100860D01*
X0125027Y0101859D02*
X0074168Y0101859D01*
X0074168Y0102857D02*
X0126025Y0102857D01*
X0127024Y0103856D02*
X0074168Y0103856D01*
X0074168Y0104854D02*
X0128022Y0104854D01*
X0129021Y0105853D02*
X0074168Y0105853D01*
X0074168Y0106851D02*
X0130019Y0106851D01*
X0131018Y0107850D02*
X0074168Y0107850D01*
X0074168Y0108848D02*
X0132016Y0108848D01*
X0133015Y0109847D02*
X0074168Y0109847D01*
X0074168Y0110845D02*
X0134013Y0110845D01*
X0135012Y0111844D02*
X0074168Y0111844D01*
X0074168Y0112842D02*
X0136010Y0112842D01*
X0137009Y0113841D02*
X0074168Y0113841D01*
X0074168Y0114839D02*
X0138007Y0114839D01*
X0139006Y0115838D02*
X0074168Y0115838D01*
X0074168Y0116836D02*
X0140004Y0116836D01*
X0141003Y0117835D02*
X0074168Y0117835D01*
X0074168Y0118833D02*
X0142001Y0118833D01*
X0143000Y0119832D02*
X0074168Y0119832D01*
X0074168Y0120830D02*
X0143998Y0120830D01*
X0144997Y0121829D02*
X0074168Y0121829D01*
X0074168Y0122827D02*
X0145995Y0122827D01*
X0146994Y0123826D02*
X0074168Y0123826D01*
X0074168Y0124824D02*
X0147992Y0124824D01*
X0152251Y0118833D02*
X0205834Y0118833D01*
X0204835Y0117835D02*
X0151253Y0117835D01*
X0150254Y0116836D02*
X0203837Y0116836D01*
X0202838Y0115838D02*
X0149256Y0115838D01*
X0148257Y0114839D02*
X0202111Y0114839D01*
X0202111Y0113841D02*
X0148168Y0113841D01*
X0148168Y0112842D02*
X0202111Y0112842D01*
X0202111Y0111844D02*
X0148168Y0111844D01*
X0148168Y0110845D02*
X0202111Y0110845D01*
X0202111Y0109847D02*
X0148168Y0109847D01*
X0148168Y0108848D02*
X0202782Y0108848D01*
X0203781Y0107850D02*
X0148168Y0107850D01*
X0148168Y0106851D02*
X0204779Y0106851D01*
X0205778Y0105853D02*
X0148168Y0105853D01*
X0132418Y0078500D02*
X0129918Y0077250D01*
X0132418Y0078500D02*
X0131418Y0070250D01*
X0148168Y0069906D02*
X0202111Y0069906D01*
X0202111Y0068908D02*
X0148168Y0068908D01*
X0148168Y0067909D02*
X0202383Y0067909D01*
X0203381Y0066911D02*
X0148168Y0066911D01*
X0148168Y0065912D02*
X0204380Y0065912D01*
X0205378Y0064914D02*
X0148168Y0064914D01*
X0148168Y0063915D02*
X0216568Y0063915D01*
X0216568Y0062917D02*
X0148168Y0062917D01*
X0148168Y0061918D02*
X0216568Y0061918D01*
X0216568Y0060920D02*
X0148168Y0060920D01*
X0148168Y0056926D02*
X0259168Y0056926D01*
X0259168Y0057924D02*
X0219168Y0057924D01*
X0219168Y0058923D02*
X0259168Y0058923D01*
X0259168Y0059921D02*
X0219168Y0059921D01*
X0219168Y0060920D02*
X0259168Y0060920D01*
X0259168Y0061918D02*
X0219168Y0061918D01*
X0219168Y0062917D02*
X0259168Y0062917D01*
X0259168Y0063915D02*
X0219168Y0063915D01*
X0219168Y0064914D02*
X0259168Y0064914D01*
X0259168Y0065912D02*
X0219168Y0065912D01*
X0219168Y0066911D02*
X0259168Y0066911D01*
X0259168Y0067909D02*
X0219168Y0067909D01*
X0219168Y0068908D02*
X0259168Y0068908D01*
X0259168Y0069906D02*
X0219168Y0069906D01*
X0219168Y0070905D02*
X0259168Y0070905D01*
X0259168Y0071903D02*
X0219168Y0071903D01*
X0219168Y0072902D02*
X0259168Y0072902D01*
X0259168Y0073900D02*
X0219168Y0073900D01*
X0219168Y0074899D02*
X0259168Y0074899D01*
X0259168Y0075897D02*
X0219168Y0075897D01*
X0219168Y0076896D02*
X0259168Y0076896D01*
X0259168Y0077894D02*
X0219168Y0077894D01*
X0216568Y0074899D02*
X0214484Y0074899D01*
X0215482Y0073900D02*
X0216568Y0073900D01*
X0216568Y0072902D02*
X0215610Y0072902D01*
X0215610Y0071903D02*
X0216568Y0071903D01*
X0216568Y0070905D02*
X0215610Y0070905D01*
X0215610Y0069906D02*
X0216568Y0069906D01*
X0216568Y0068908D02*
X0215610Y0068908D01*
X0215339Y0067909D02*
X0216568Y0067909D01*
X0216568Y0066911D02*
X0214341Y0066911D01*
X0213342Y0065912D02*
X0216568Y0065912D01*
X0216568Y0064914D02*
X0212344Y0064914D01*
X0202111Y0070905D02*
X0148168Y0070905D01*
X0148168Y0071903D02*
X0202111Y0071903D01*
X0202111Y0072902D02*
X0148168Y0072902D01*
X0148168Y0073900D02*
X0202239Y0073900D01*
X0203238Y0074899D02*
X0148168Y0074899D01*
X0148168Y0075897D02*
X0200594Y0075897D01*
X0199811Y0076896D02*
X0148168Y0076896D01*
X0148168Y0077894D02*
X0199568Y0077894D01*
X0148168Y0055927D02*
X0259168Y0055927D01*
X0259168Y0054929D02*
X0148168Y0054929D01*
X0148168Y0053930D02*
X0259168Y0053930D01*
X0259168Y0052932D02*
X0148168Y0052932D01*
X0148168Y0051933D02*
X0259168Y0051933D01*
X0259168Y0050934D02*
X0148168Y0050934D01*
X0148168Y0049936D02*
X0259168Y0049936D01*
X0259168Y0048937D02*
X0148168Y0048937D01*
X0148168Y0047939D02*
X0259168Y0047939D01*
X0259168Y0046940D02*
X0148168Y0046940D01*
X0148168Y0045942D02*
X0259168Y0045942D01*
X0259168Y0044943D02*
X0148168Y0044943D01*
X0148168Y0043945D02*
X0259168Y0043945D01*
X0259168Y0042946D02*
X0148168Y0042946D01*
X0148168Y0041948D02*
X0259168Y0041948D01*
X0259168Y0040949D02*
X0148168Y0040949D01*
X0148168Y0039951D02*
X0259168Y0039951D01*
X0259168Y0038952D02*
X0148168Y0038952D01*
X0148168Y0037954D02*
X0259168Y0037954D01*
X0259168Y0036955D02*
X0148168Y0036955D01*
X0148168Y0035957D02*
X0259168Y0035957D01*
X0259168Y0034958D02*
X0148168Y0034958D01*
X0148168Y0033960D02*
X0259168Y0033960D01*
X0259168Y0032961D02*
X0148168Y0032961D01*
X0148168Y0031963D02*
X0259168Y0031963D01*
X0259168Y0030964D02*
X0148168Y0030964D01*
X0148168Y0029966D02*
X0259168Y0029966D01*
X0259168Y0028967D02*
X0148168Y0028967D01*
X0148168Y0027969D02*
X0259168Y0027969D01*
X0259168Y0026970D02*
X0148168Y0026970D01*
X0148168Y0025972D02*
X0259168Y0025972D01*
X0259168Y0024973D02*
X0148168Y0024973D01*
X0148168Y0023975D02*
X0259168Y0023975D01*
X0259168Y0022976D02*
X0148168Y0022976D01*
X0148168Y0021978D02*
X0259168Y0021978D01*
X0259168Y0020979D02*
X0148168Y0020979D01*
X0148168Y0019981D02*
X0259168Y0019981D01*
X0268918Y0020750D02*
X0268918Y0027250D01*
X0272868Y0044000D02*
X0272868Y0090750D01*
X0297168Y0090750D01*
X0297168Y0044000D01*
X0272868Y0044000D01*
X0272868Y0044943D02*
X0297168Y0044943D01*
X0297168Y0045942D02*
X0272868Y0045942D01*
X0272868Y0046940D02*
X0297168Y0046940D01*
X0297168Y0047939D02*
X0272868Y0047939D01*
X0272868Y0048937D02*
X0297168Y0048937D01*
X0297168Y0049936D02*
X0272868Y0049936D01*
X0272868Y0050934D02*
X0297168Y0050934D01*
X0297168Y0051933D02*
X0272868Y0051933D01*
X0272868Y0052932D02*
X0297168Y0052932D01*
X0297168Y0053930D02*
X0272868Y0053930D01*
X0272868Y0054929D02*
X0297168Y0054929D01*
X0297168Y0055927D02*
X0272868Y0055927D01*
X0272868Y0056926D02*
X0297168Y0056926D01*
X0297168Y0057924D02*
X0272868Y0057924D01*
X0272868Y0058923D02*
X0297168Y0058923D01*
X0297168Y0059921D02*
X0272868Y0059921D01*
X0272868Y0060920D02*
X0297168Y0060920D01*
X0297168Y0061918D02*
X0272868Y0061918D01*
X0272868Y0062917D02*
X0297168Y0062917D01*
X0297168Y0063915D02*
X0272868Y0063915D01*
X0272868Y0064914D02*
X0297168Y0064914D01*
X0297168Y0065912D02*
X0272868Y0065912D01*
X0272868Y0066911D02*
X0297168Y0066911D01*
X0297168Y0067909D02*
X0272868Y0067909D01*
X0272868Y0068908D02*
X0297168Y0068908D01*
X0297168Y0069906D02*
X0272868Y0069906D01*
X0272868Y0070905D02*
X0297168Y0070905D01*
X0297168Y0071903D02*
X0272868Y0071903D01*
X0272868Y0072902D02*
X0297168Y0072902D01*
X0297168Y0073900D02*
X0272868Y0073900D01*
X0272868Y0074899D02*
X0297168Y0074899D01*
X0297168Y0075897D02*
X0272868Y0075897D01*
X0272868Y0076896D02*
X0297168Y0076896D01*
X0297168Y0077894D02*
X0272868Y0077894D01*
X0272868Y0078893D02*
X0297168Y0078893D01*
X0297168Y0079891D02*
X0272868Y0079891D01*
X0272868Y0080890D02*
X0297168Y0080890D01*
X0297168Y0081888D02*
X0272868Y0081888D01*
X0272868Y0082887D02*
X0297168Y0082887D01*
X0297168Y0083885D02*
X0272868Y0083885D01*
X0272868Y0084884D02*
X0297168Y0084884D01*
X0297168Y0085882D02*
X0272868Y0085882D01*
X0272868Y0086881D02*
X0297168Y0086881D01*
X0297168Y0087879D02*
X0272868Y0087879D01*
X0272868Y0088878D02*
X0297168Y0088878D01*
X0297168Y0089876D02*
X0272868Y0089876D01*
X0272868Y0099750D02*
X0272868Y0145500D01*
X0297168Y0145500D01*
X0297168Y0099750D01*
X0272868Y0099750D01*
X0272868Y0099862D02*
X0297168Y0099862D01*
X0297168Y0100860D02*
X0272868Y0100860D01*
X0272868Y0101859D02*
X0297168Y0101859D01*
X0297168Y0102857D02*
X0272868Y0102857D01*
X0272868Y0103856D02*
X0297168Y0103856D01*
X0297168Y0104854D02*
X0272868Y0104854D01*
X0272868Y0105853D02*
X0297168Y0105853D01*
X0297168Y0106851D02*
X0272868Y0106851D01*
X0272868Y0107850D02*
X0297168Y0107850D01*
X0297168Y0108848D02*
X0272868Y0108848D01*
X0272868Y0109847D02*
X0297168Y0109847D01*
X0297168Y0110845D02*
X0272868Y0110845D01*
X0272868Y0111844D02*
X0297168Y0111844D01*
X0297168Y0112842D02*
X0272868Y0112842D01*
X0272868Y0113841D02*
X0297168Y0113841D01*
X0297168Y0114839D02*
X0272868Y0114839D01*
X0272868Y0115838D02*
X0297168Y0115838D01*
X0297168Y0116836D02*
X0272868Y0116836D01*
X0272868Y0117835D02*
X0297168Y0117835D01*
X0297168Y0118833D02*
X0272868Y0118833D01*
X0272868Y0119832D02*
X0297168Y0119832D01*
X0297168Y0120830D02*
X0272868Y0120830D01*
X0272868Y0121829D02*
X0297168Y0121829D01*
X0297168Y0122827D02*
X0272868Y0122827D01*
X0272868Y0123826D02*
X0297168Y0123826D01*
X0297168Y0124824D02*
X0272868Y0124824D01*
X0272868Y0125823D02*
X0297168Y0125823D01*
X0297168Y0126821D02*
X0272868Y0126821D01*
X0272868Y0127820D02*
X0297168Y0127820D01*
X0297168Y0128818D02*
X0272868Y0128818D01*
X0272868Y0129817D02*
X0297168Y0129817D01*
X0297168Y0130815D02*
X0272868Y0130815D01*
X0272868Y0131814D02*
X0297168Y0131814D01*
X0297168Y0132812D02*
X0272868Y0132812D01*
X0272868Y0133811D02*
X0297168Y0133811D01*
X0297168Y0134809D02*
X0272868Y0134809D01*
X0272868Y0135808D02*
X0297168Y0135808D01*
X0297168Y0136806D02*
X0272868Y0136806D01*
X0272868Y0137805D02*
X0297168Y0137805D01*
X0297168Y0138803D02*
X0272868Y0138803D01*
X0272868Y0139802D02*
X0297168Y0139802D01*
X0297168Y0140801D02*
X0272868Y0140801D01*
X0272868Y0141799D02*
X0297168Y0141799D01*
X0297168Y0142798D02*
X0272868Y0142798D01*
X0272868Y0143796D02*
X0297168Y0143796D01*
X0297168Y0144795D02*
X0272868Y0144795D01*
X0223418Y0140250D02*
X0213918Y0149750D01*
X0206418Y0149750D01*
X0206418Y0158250D02*
X0206418Y0163250D01*
X0186918Y0166762D02*
X0182899Y0166762D01*
X0182899Y0167760D02*
X0186589Y0167760D01*
X0185591Y0168759D02*
X0182253Y0168759D01*
X0181254Y0169757D02*
X0184592Y0169757D01*
X0183594Y0170756D02*
X0180256Y0170756D01*
X0179257Y0171754D02*
X0182595Y0171754D01*
X0181597Y0172753D02*
X0163636Y0172753D01*
X0174918Y0171754D02*
X0175918Y0171754D01*
X0175918Y0170756D02*
X0174918Y0170756D01*
X0174918Y0169757D02*
X0175918Y0169757D01*
X0175918Y0168759D02*
X0174918Y0168759D01*
X0174918Y0167760D02*
X0175918Y0167760D01*
X0175918Y0166762D02*
X0174918Y0166762D01*
X0174918Y0163766D02*
X0175918Y0163766D01*
X0175918Y0162768D02*
X0174918Y0162768D01*
X0174918Y0161769D02*
X0175918Y0161769D01*
X0175918Y0160771D02*
X0174918Y0160771D01*
X0174918Y0159772D02*
X0175918Y0159772D01*
X0175918Y0158774D02*
X0174918Y0158774D01*
X0174918Y0157775D02*
X0175918Y0157775D01*
X0085504Y0127820D02*
X0074168Y0127820D01*
X0074168Y0128818D02*
X0084506Y0128818D01*
X0083507Y0129817D02*
X0074168Y0129817D01*
X0074168Y0130815D02*
X0082509Y0130815D01*
X0082423Y0131814D02*
X0074168Y0131814D01*
X0074168Y0132812D02*
X0082423Y0132812D01*
X0082168Y0065912D02*
X0080822Y0065912D01*
X0081820Y0064914D02*
X0082168Y0064914D01*
X0078154Y0064914D02*
X0077154Y0064914D01*
X0077154Y0065912D02*
X0078154Y0065912D01*
X0078154Y0063915D02*
X0077154Y0063915D01*
X0077154Y0062917D02*
X0078154Y0062917D01*
X0078154Y0061918D02*
X0077154Y0061918D01*
X0077154Y0060920D02*
X0078154Y0060920D01*
X0078154Y0059921D02*
X0077154Y0059921D01*
X0125418Y0047500D02*
X0126418Y0046750D01*
X0134168Y0039000D01*
X0176698Y0039000D01*
X0345678Y0041000D02*
X0346668Y0040740D01*
X0346668Y0037000D01*
X0352918Y0037250D02*
X0354168Y0038500D01*
X0354168Y0039990D01*
X0353158Y0041000D01*
X0461418Y0084250D02*
X0462668Y0083000D01*
X0518418Y0083000D01*
X0525918Y0090500D01*
X0515668Y0087750D02*
X0530168Y0102250D01*
X0515668Y0087750D02*
X0502918Y0087750D01*
X0497918Y0087500D02*
X0486918Y0087500D01*
X0496668Y0073250D02*
X0471918Y0073250D01*
X0496668Y0073250D02*
X0529168Y0040750D01*
X0529168Y0036384D01*
X0500918Y0060250D02*
X0494418Y0060250D01*
X0485168Y0051000D01*
X0481168Y0045750D02*
X0475918Y0051000D01*
X0481168Y0045750D02*
X0481168Y0042750D01*
X0498918Y0161000D02*
X0498918Y0163750D01*
X0482168Y0180500D01*
X0477168Y0180500D01*
X0499668Y0312750D02*
X0517668Y0318264D01*
X0338168Y0326524D02*
X0307929Y0326524D01*
X0308927Y0327522D02*
X0338168Y0327522D01*
X0338168Y0328521D02*
X0309926Y0328521D01*
X0312017Y0329519D02*
X0312319Y0329519D01*
X0312319Y0330518D02*
X0312017Y0330518D01*
X0313027Y0337507D02*
X0338168Y0337507D01*
X0338168Y0336509D02*
X0327397Y0336509D01*
X0327429Y0336455D02*
X0327257Y0336751D01*
X0327015Y0336993D01*
X0326719Y0337164D01*
X0326388Y0337253D01*
X0324158Y0337253D01*
X0324158Y0333500D01*
X0327517Y0333500D01*
X0327517Y0336124D01*
X0327429Y0336455D01*
X0327517Y0335510D02*
X0338168Y0335510D01*
X0338168Y0334512D02*
X0327517Y0334512D01*
X0327517Y0333513D02*
X0338168Y0333513D01*
X0338168Y0332515D02*
X0324158Y0332515D01*
X0324158Y0333513D02*
X0323158Y0333513D01*
X0323158Y0334512D02*
X0324158Y0334512D01*
X0324158Y0335510D02*
X0323158Y0335510D01*
X0323158Y0336509D02*
X0324158Y0336509D01*
X0324158Y0331516D02*
X0323158Y0331516D01*
X0323158Y0330518D02*
X0324158Y0330518D01*
X0324158Y0329519D02*
X0323158Y0329519D01*
X0327413Y0329519D02*
X0338168Y0329519D01*
X0338168Y0330518D02*
X0327517Y0330518D01*
X0327517Y0331516D02*
X0338168Y0331516D01*
X0338168Y0338506D02*
X0315379Y0338506D01*
X0315379Y0339504D02*
X0338168Y0339504D01*
X0338168Y0340503D02*
X0315379Y0340503D01*
X0315379Y0341501D02*
X0338168Y0341501D01*
X0338168Y0342500D02*
X0315379Y0342500D01*
X0315379Y0343498D02*
X0338168Y0343498D01*
X0297209Y0337507D02*
X0294168Y0337507D01*
X0294168Y0336509D02*
X0296836Y0336509D01*
X0296819Y0335510D02*
X0294168Y0335510D01*
X0294168Y0334512D02*
X0296819Y0334512D01*
X0296819Y0333513D02*
X0294168Y0333513D01*
X0294168Y0332515D02*
X0296819Y0332515D01*
X0296819Y0331516D02*
X0294168Y0331516D01*
X0294168Y0330518D02*
X0296819Y0330518D01*
X0296819Y0329519D02*
X0294168Y0329519D01*
X0294168Y0338506D02*
X0295457Y0338506D01*
X0133918Y0338506D02*
X0126442Y0338506D01*
X0126442Y0339504D02*
X0133918Y0339504D01*
X0133918Y0340503D02*
X0126114Y0340503D01*
X0126183Y0340434D02*
X0125941Y0340676D01*
X0125644Y0340847D01*
X0125314Y0340936D01*
X0120918Y0340936D01*
X0120918Y0335411D01*
X0126442Y0335411D01*
X0126442Y0339807D01*
X0126354Y0340138D01*
X0126183Y0340434D01*
X0126442Y0337507D02*
X0133918Y0337507D01*
X0133918Y0336509D02*
X0126442Y0336509D01*
X0126442Y0335510D02*
X0133918Y0335510D01*
X0133918Y0334512D02*
X0120918Y0334512D01*
X0120918Y0334411D02*
X0120918Y0335411D01*
X0119918Y0335411D01*
X0119918Y0334411D01*
X0120918Y0334411D01*
X0120918Y0328887D01*
X0125314Y0328887D01*
X0125644Y0328976D01*
X0125941Y0329147D01*
X0126183Y0329389D01*
X0126354Y0329685D01*
X0126442Y0330016D01*
X0126442Y0334411D01*
X0120918Y0334411D01*
X0120918Y0333513D02*
X0119918Y0333513D01*
X0119918Y0334411D02*
X0119918Y0328887D01*
X0115522Y0328887D01*
X0115192Y0328976D01*
X0114895Y0329147D01*
X0114653Y0329389D01*
X0114482Y0329685D01*
X0114394Y0330016D01*
X0114394Y0334411D01*
X0119918Y0334411D01*
X0119918Y0334512D02*
X0108821Y0334512D01*
X0108821Y0335510D02*
X0114394Y0335510D01*
X0114394Y0335411D02*
X0114394Y0339807D01*
X0114482Y0340138D01*
X0114653Y0340434D01*
X0114895Y0340676D01*
X0115192Y0340847D01*
X0115522Y0340936D01*
X0119918Y0340936D01*
X0119918Y0335411D01*
X0114394Y0335411D01*
X0114394Y0336509D02*
X0108821Y0336509D01*
X0108821Y0337507D02*
X0114394Y0337507D01*
X0114394Y0338506D02*
X0108232Y0338506D01*
X0108161Y0338383D02*
X0108332Y0338679D01*
X0108421Y0339010D01*
X0108421Y0341240D01*
X0104668Y0341240D01*
X0104668Y0342240D01*
X0108421Y0342240D01*
X0108421Y0344470D01*
X0108332Y0344801D01*
X0108320Y0344823D01*
X0133918Y0344823D01*
X0133918Y0320489D01*
X0126842Y0320489D01*
X0126842Y0323017D01*
X0125847Y0324013D01*
X0114989Y0324013D01*
X0113994Y0323017D01*
X0113994Y0317160D01*
X0109869Y0317160D01*
X0108821Y0318208D01*
X0108821Y0322023D01*
X0108344Y0322500D01*
X0108821Y0322977D01*
X0108821Y0329503D01*
X0108074Y0330250D01*
X0108821Y0330997D01*
X0108821Y0337523D01*
X0108061Y0338283D01*
X0108161Y0338383D01*
X0108421Y0339504D02*
X0114394Y0339504D01*
X0114722Y0340503D02*
X0108421Y0340503D01*
X0108421Y0342500D02*
X0133918Y0342500D01*
X0133918Y0343498D02*
X0108421Y0343498D01*
X0108414Y0344497D02*
X0133918Y0344497D01*
X0133918Y0341501D02*
X0104668Y0341501D01*
X0108821Y0333513D02*
X0114394Y0333513D01*
X0114394Y0332515D02*
X0108821Y0332515D01*
X0108821Y0331516D02*
X0114394Y0331516D01*
X0114394Y0330518D02*
X0108342Y0330518D01*
X0108805Y0329519D02*
X0114578Y0329519D01*
X0119918Y0329519D02*
X0120918Y0329519D01*
X0120918Y0330518D02*
X0119918Y0330518D01*
X0119918Y0331516D02*
X0120918Y0331516D01*
X0120918Y0332515D02*
X0119918Y0332515D01*
X0119918Y0335510D02*
X0120918Y0335510D01*
X0120918Y0336509D02*
X0119918Y0336509D01*
X0119918Y0337507D02*
X0120918Y0337507D01*
X0120918Y0338506D02*
X0119918Y0338506D01*
X0119918Y0339504D02*
X0120918Y0339504D01*
X0120918Y0340503D02*
X0119918Y0340503D01*
X0126442Y0333513D02*
X0133918Y0333513D01*
X0133918Y0332515D02*
X0126442Y0332515D01*
X0126442Y0331516D02*
X0133918Y0331516D01*
X0133918Y0330518D02*
X0126442Y0330518D01*
X0126258Y0329519D02*
X0133918Y0329519D01*
X0133918Y0328521D02*
X0108821Y0328521D01*
X0108821Y0327522D02*
X0133918Y0327522D01*
X0133918Y0326524D02*
X0108821Y0326524D01*
X0108821Y0325525D02*
X0133918Y0325525D01*
X0133918Y0324527D02*
X0108821Y0324527D01*
X0108821Y0323528D02*
X0114505Y0323528D01*
X0113994Y0322530D02*
X0108373Y0322530D01*
X0108821Y0321531D02*
X0113994Y0321531D01*
X0113994Y0320533D02*
X0108821Y0320533D01*
X0108821Y0319534D02*
X0113994Y0319534D01*
X0113994Y0318536D02*
X0108821Y0318536D01*
X0109492Y0317537D02*
X0113994Y0317537D01*
X0126331Y0323528D02*
X0133918Y0323528D01*
X0133918Y0322530D02*
X0126842Y0322530D01*
X0126842Y0321531D02*
X0133918Y0321531D01*
X0133918Y0320533D02*
X0126842Y0320533D01*
D65*
X0121668Y0298990D02*
X0113918Y0298990D01*
X0068418Y0311262D02*
X0066906Y0309750D01*
X0063418Y0309750D01*
X0039918Y0297000D02*
X0038168Y0297000D01*
X0027918Y0286750D01*
X0027918Y0200500D01*
X0038668Y0189750D01*
X0184668Y0189750D01*
X0193418Y0181000D01*
X0196918Y0200750D02*
X0189168Y0200750D01*
X0085668Y0200750D01*
X0082418Y0204000D01*
X0075168Y0183000D02*
X0072168Y0180000D01*
X0075168Y0183000D02*
X0119918Y0183000D01*
X0062918Y0238000D02*
X0058928Y0238000D01*
X0058668Y0237740D01*
X0057678Y0236750D01*
X0071168Y0333000D02*
X0067668Y0334000D01*
X0069418Y0336000D01*
X0220538Y0287250D02*
X0220788Y0287500D01*
X0220538Y0267565D02*
X0220603Y0267500D01*
X0224668Y0235250D02*
X0224668Y0233250D01*
X0224668Y0228000D02*
X0220668Y0228000D01*
X0217668Y0225000D01*
X0217668Y0219750D01*
X0217793Y0219625D01*
X0220418Y0217000D01*
X0220918Y0216500D01*
X0222918Y0216500D01*
X0294418Y0293250D02*
X0294572Y0293404D01*
X0294572Y0296250D01*
X0301264Y0296250D02*
X0301264Y0297096D01*
X0302543Y0298375D01*
X0258908Y0301000D02*
X0258908Y0308750D01*
X0236965Y0337250D02*
X0236965Y0342703D01*
X0236918Y0342750D01*
X0370436Y0257157D02*
X0376843Y0250750D01*
X0429668Y0250750D01*
X0432668Y0253750D01*
X0495668Y0253750D01*
X0508668Y0240750D01*
X0505168Y0256500D02*
X0507668Y0259000D01*
X0505168Y0256500D02*
X0431668Y0256500D01*
X0428418Y0253250D01*
X0374168Y0253250D01*
X0370418Y0257000D01*
X0429072Y0229154D02*
X0429168Y0229250D01*
X0429072Y0229154D02*
X0431822Y0228404D01*
X0438918Y0248750D02*
X0439918Y0249750D01*
X0453168Y0249750D01*
X0438418Y0199250D02*
X0438418Y0194250D01*
X0428514Y0184346D01*
X0432418Y0173750D02*
X0443668Y0185000D01*
X0432418Y0173750D02*
X0394408Y0173750D01*
X0394418Y0174250D01*
X0394408Y0173750D02*
X0394408Y0175240D01*
X0386928Y0173750D02*
X0385709Y0173031D01*
X0477168Y0180500D02*
X0477168Y0145250D01*
X0480668Y0141750D01*
X0494668Y0135000D02*
X0494668Y0162750D01*
X0491168Y0166250D01*
X0489418Y0168000D01*
X0481418Y0176000D01*
X0477168Y0180500D02*
X0477168Y0193000D01*
X0481418Y0197250D01*
X0389548Y0103110D02*
X0389668Y0102990D01*
X0176698Y0039000D02*
X0164768Y0047850D01*
X0144168Y0045750D02*
X0139918Y0050000D01*
X0136934Y0049000D01*
X0137418Y0029750D02*
X0137434Y0029734D01*
X0136934Y0029000D01*
X0137418Y0028750D01*
X0143168Y0028750D01*
X0052318Y0057660D02*
X0046158Y0051500D01*
X0038678Y0051500D02*
X0038678Y0063090D01*
X0052318Y0057660D02*
X0052318Y0069250D01*
X0055918Y0069250D01*
X0136934Y0097250D02*
X0137184Y0098766D01*
X0137168Y0101000D01*
X0164668Y0089750D02*
X0165418Y0090500D01*
X0517668Y0318264D02*
X0517668Y0319750D01*
D66*
X0519418Y0316764D02*
X0546418Y0289764D01*
X0552918Y0260250D02*
X0582918Y0290250D01*
X0582918Y0335750D01*
X0519418Y0335750D02*
X0519418Y0316764D01*
X0546881Y0260250D02*
X0552918Y0260250D01*
X0515418Y0212250D02*
X0493918Y0233750D01*
X0424918Y0233750D01*
X0405418Y0214250D01*
X0396418Y0214250D01*
X0395168Y0213000D01*
X0395168Y0233500D01*
X0391510Y0237157D01*
X0370436Y0237157D01*
X0395168Y0213000D02*
X0395168Y0196000D01*
X0391207Y0192039D01*
X0371936Y0192039D01*
X0403528Y0125110D02*
X0456418Y0178000D01*
X0456418Y0209000D01*
X0515418Y0212250D02*
X0515418Y0141500D01*
X0493418Y0119500D01*
X0477918Y0119500D01*
X0447168Y0074000D02*
X0423168Y0074000D01*
X0417168Y0068000D01*
X0417168Y0061000D01*
X0409168Y0053000D01*
X0396168Y0053000D01*
X0390987Y0058181D01*
X0371936Y0058181D01*
X0447168Y0074000D02*
X0456418Y0064750D01*
X0456418Y0025980D01*
X0403528Y0125110D02*
X0371936Y0125110D01*
X0136934Y0077250D02*
X0129918Y0077250D01*
X0103168Y0077250D01*
X0084668Y0058500D01*
X0077654Y0058500D01*
X0084668Y0058500D02*
X0113418Y0029750D01*
X0137418Y0029750D01*
D67*
X0244418Y0141750D02*
X0244418Y0154250D01*
X0244168Y0154500D01*
X0199918Y0154500D01*
X0194418Y0160000D01*
X0194418Y0163750D01*
X0181668Y0176500D01*
X0162168Y0176500D01*
X0161418Y0175750D01*
X0161418Y0182750D02*
X0182168Y0182750D01*
X0200688Y0164230D01*
X0196918Y0164750D02*
X0196918Y0162000D01*
X0198668Y0160250D01*
X0196918Y0164750D02*
X0182418Y0179250D01*
X0084918Y0179250D01*
X0084918Y0194000D02*
X0076918Y0202000D01*
X0073918Y0202000D01*
X0073918Y0206500D02*
X0065418Y0215000D01*
X0037168Y0215000D01*
X0035418Y0216750D01*
X0035418Y0232500D01*
X0039918Y0237000D01*
X0050294Y0230260D02*
X0040534Y0220500D01*
X0048802Y0220500D02*
X0068918Y0220500D01*
X0081418Y0208000D01*
X0117668Y0208000D01*
X0073918Y0196750D02*
X0073668Y0197000D01*
X0053168Y0197000D01*
X0047918Y0202250D01*
X0047918Y0204250D01*
X0050294Y0230260D02*
X0058668Y0230260D01*
X0114918Y0249012D02*
X0116156Y0250250D01*
X0119918Y0250250D01*
X0119918Y0261500D02*
X0119918Y0263089D01*
X0092918Y0273000D02*
X0062918Y0273000D01*
X0063418Y0272500D01*
X0063418Y0271000D01*
X0062918Y0273000D02*
X0052418Y0273000D01*
X0046418Y0267000D01*
X0039918Y0267000D01*
X0104908Y0341000D02*
X0105418Y0341000D01*
X0104908Y0341000D02*
X0104168Y0341740D01*
X0235668Y0308750D02*
X0235668Y0302500D01*
X0237709Y0308219D02*
X0235928Y0308750D01*
X0235668Y0308750D01*
X0251428Y0301000D02*
X0251428Y0299740D01*
X0259793Y0291375D01*
X0268168Y0299750D01*
X0268188Y0299750D01*
X0269168Y0292250D02*
X0271168Y0290250D01*
X0271168Y0288240D01*
X0272796Y0289868D01*
X0279168Y0289868D01*
X0286648Y0296250D02*
X0283148Y0299750D01*
X0286648Y0296250D02*
X0294572Y0296250D01*
X0279168Y0279632D02*
X0279168Y0272500D01*
X0275168Y0268500D01*
X0275168Y0244750D01*
X0267668Y0260750D02*
X0271168Y0264250D01*
X0271168Y0280760D01*
X0265168Y0286000D02*
X0265168Y0270500D01*
X0265168Y0286000D02*
X0259793Y0291375D01*
X0251428Y0300760D02*
X0251428Y0301000D01*
X0301318Y0322600D02*
X0308158Y0329440D01*
X0308158Y0333000D01*
X0310668Y0333000D01*
X0311127Y0333459D01*
X0311127Y0341250D01*
X0310668Y0333000D02*
X0316178Y0333000D01*
X0168918Y0248500D02*
X0161918Y0255500D01*
X0168918Y0248500D02*
X0168918Y0234250D01*
X0189168Y0211000D02*
X0189168Y0200750D01*
X0196918Y0200750D02*
X0197168Y0200500D01*
X0197168Y0177250D01*
X0214168Y0173000D02*
X0217918Y0176750D01*
X0217918Y0190500D01*
X0217918Y0193000D01*
X0214168Y0196750D01*
X0217918Y0190500D02*
X0242918Y0190500D01*
X0252668Y0187250D02*
X0239168Y0200750D01*
X0196918Y0200750D01*
X0174168Y0187000D02*
X0174168Y0186250D01*
X0216918Y0159250D02*
X0237418Y0159250D01*
X0238418Y0158250D01*
X0244168Y0154500D02*
X0248668Y0159000D01*
X0248668Y0172250D01*
X0243168Y0177750D01*
X0252668Y0187250D02*
X0252668Y0150750D01*
X0244918Y0166500D02*
X0230918Y0166500D01*
X0300418Y0223500D02*
X0303766Y0223500D01*
X0305168Y0224902D01*
X0305266Y0225000D01*
X0305168Y0236098D02*
X0305168Y0241750D01*
X0305793Y0242375D01*
X0211918Y0242250D02*
X0211918Y0229250D01*
X0424918Y0233750D02*
X0427668Y0233750D01*
X0431918Y0235000D01*
X0429418Y0229500D02*
X0429168Y0229250D01*
X0517668Y0318264D02*
X0519168Y0316764D01*
X0519418Y0316764D01*
X0519418Y0335750D02*
X0521381Y0337713D01*
X0521381Y0337709D01*
X0581381Y0337709D02*
X0581918Y0337203D01*
X0582918Y0335750D01*
X0521418Y0035990D02*
X0517658Y0035990D01*
X0517168Y0035500D01*
X0521418Y0028510D02*
X0521812Y0028116D01*
X0529168Y0028116D01*
D68*
X0519418Y0044000D02*
X0506418Y0044000D01*
X0499918Y0037500D01*
X0499918Y0024000D01*
X0397668Y0094541D02*
X0396699Y0095510D01*
X0389668Y0095510D01*
X0389668Y0102990D02*
X0389668Y0104750D01*
X0396459Y0104750D01*
X0397668Y0105959D01*
X0389548Y0103110D02*
X0371936Y0103110D01*
X0385709Y0166250D02*
X0385709Y0173031D01*
X0386928Y0173750D02*
X0375646Y0173750D01*
X0371936Y0170039D01*
X0394408Y0169469D02*
X0397127Y0166250D01*
X0394408Y0169469D02*
X0394408Y0173750D01*
X0336168Y0219250D02*
X0336168Y0032750D01*
X0098418Y0031000D02*
X0081418Y0048000D01*
X0078918Y0048000D01*
X0080918Y0213750D02*
X0074418Y0220250D01*
X0074418Y0227348D01*
X0074668Y0227598D01*
X0081668Y0225000D02*
X0081668Y0246740D01*
X0078908Y0249500D01*
X0071428Y0249500D02*
X0071428Y0243638D01*
X0074668Y0240398D01*
X0081668Y0225000D02*
X0088418Y0218250D01*
X0098168Y0218250D01*
X0107918Y0228000D01*
X0116418Y0228000D01*
X0122668Y0234250D01*
X0122668Y0241750D01*
X0134918Y0254000D01*
X0134918Y0259500D01*
X0138062Y0262644D01*
X0141798Y0262644D01*
X0141798Y0252801D02*
X0147367Y0252801D01*
X0153418Y0246750D01*
X0153418Y0232000D01*
X0153668Y0231750D01*
X0157079Y0231750D01*
X0157658Y0233421D01*
X0157658Y0216500D01*
X0150178Y0216500D02*
X0142158Y0216500D01*
X0126918Y0218250D02*
X0117168Y0218250D01*
X0115918Y0218250D01*
X0111418Y0213750D01*
X0080918Y0213750D01*
X0110077Y0237988D02*
X0104316Y0243750D01*
X0110077Y0237988D02*
X0114918Y0237988D01*
X0122418Y0282329D02*
X0121668Y0283079D01*
X0121668Y0291510D01*
X0117089Y0314260D02*
X0108668Y0314260D01*
X0104168Y0318760D01*
X0104168Y0326240D02*
X0104168Y0334260D01*
X0104168Y0341740D02*
X0098908Y0341740D01*
X0090168Y0333000D01*
X0085418Y0328250D01*
X0085418Y0312652D01*
X0085418Y0299852D02*
X0078316Y0299852D01*
X0077668Y0300000D01*
X0076430Y0300238D01*
X0068418Y0300238D01*
X0068406Y0300250D01*
X0057418Y0300250D01*
X0050668Y0307000D01*
X0039918Y0307000D01*
X0117089Y0314260D02*
X0120418Y0317589D01*
X0137688Y0317589D01*
X0141798Y0321699D01*
X0220538Y0316778D02*
X0226010Y0322250D01*
X0237668Y0322250D01*
X0235928Y0320510D01*
X0235928Y0308750D01*
X0243408Y0308750D02*
X0251428Y0308750D01*
X0258908Y0308750D02*
X0259668Y0309240D01*
X0259668Y0320161D01*
X0257579Y0322250D01*
X0240257Y0322250D02*
X0237668Y0322250D01*
X0240168Y0322339D02*
X0240257Y0322250D01*
X0240168Y0322339D02*
X0240168Y0324500D01*
X0278418Y0337750D02*
X0281918Y0341250D01*
X0299709Y0341250D01*
X0299709Y0333969D01*
X0300678Y0333000D01*
X0301218Y0304500D02*
X0301318Y0304400D01*
X0301418Y0304300D01*
X0301418Y0300500D01*
X0301418Y0299500D01*
X0302543Y0298375D01*
X0336168Y0264750D01*
X0336168Y0229750D01*
X0331168Y0224250D02*
X0319418Y0212500D01*
X0235668Y0212500D01*
X0224668Y0223500D01*
X0242406Y0236250D02*
X0242406Y0246500D01*
X0240418Y0248488D01*
X0240418Y0259512D02*
X0240418Y0268000D01*
X0240168Y0268000D01*
X0238418Y0267961D01*
X0240418Y0259512D02*
X0255168Y0259512D01*
X0255168Y0248488D02*
X0253430Y0246750D01*
X0253430Y0236250D01*
X0331168Y0224250D02*
X0342168Y0224250D01*
X0349918Y0232000D01*
X0349918Y0338000D01*
X0354418Y0342500D01*
X0491418Y0342500D01*
X0543918Y0242500D02*
X0564668Y0242500D01*
X0585168Y0222000D01*
X0584168Y0221000D01*
X0501418Y0201250D02*
X0476918Y0201250D01*
X0472418Y0196750D01*
D69*
X0584168Y0212000D02*
X0585168Y0212000D01*
X0584168Y0212000D02*
X0584168Y0221000D01*
X0584168Y0212000D02*
X0584168Y0108250D01*
X0605918Y0086500D01*
X0605918Y0072250D01*
X0605918Y0029465D01*
X0568918Y0029465D01*
X0567668Y0028215D01*
X0605918Y0029465D02*
X0613215Y0029465D01*
X0616341Y0032591D01*
X0305793Y0242375D02*
X0286168Y0222750D01*
X0241168Y0222750D01*
X0235418Y0228500D01*
X0235418Y0248250D01*
X0230010Y0248250D01*
X0220538Y0257722D01*
X0220538Y0267565D01*
X0235668Y0248500D02*
X0235680Y0248488D01*
X0240418Y0248488D01*
X0235668Y0248500D02*
X0235418Y0248250D01*
X0305793Y0242375D02*
X0307168Y0243750D01*
X0307168Y0262500D01*
X0141798Y0272486D02*
X0141798Y0282329D01*
X0122418Y0282329D01*
X0121835Y0282329D01*
X0119918Y0280411D01*
D70*
X0616341Y0032591D03*
D71*
X0625168Y0072250D02*
X0605918Y0072250D01*
X0323168Y0077750D02*
X0287418Y0077750D01*
X0323034Y0105425D02*
X0323034Y0109884D01*
X0307668Y0125250D01*
X0305168Y0125250D01*
X0301668Y0125250D01*
X0311668Y0155750D02*
X0311668Y0178000D01*
X0142918Y0073266D02*
X0136934Y0077250D01*
X0142918Y0073266D02*
X0142918Y0065750D01*
X0091516Y0243750D02*
X0091516Y0255652D01*
X0082918Y0264250D01*
X0099418Y0264250D01*
X0212418Y0312250D02*
X0212418Y0330500D01*
X0224668Y0342750D01*
X0236918Y0342750D01*
X0248418Y0342750D01*
X0253418Y0337750D01*
X0278168Y0337750D01*
X0277007Y0320161D02*
X0259668Y0320161D01*
X0277007Y0320161D02*
X0278418Y0318750D01*
X0283668Y0313500D01*
X0301318Y0313500D01*
X0238629Y0287750D02*
X0238418Y0288039D01*
X0238629Y0287750D02*
X0220538Y0287750D01*
X0220538Y0287250D01*
X0220538Y0306935D02*
X0217733Y0306935D01*
X0212418Y0312250D01*
X0105418Y0341000D02*
X0105408Y0341010D01*
D72*
X0301418Y0300500D03*
X0491418Y0342500D03*
X0543918Y0242500D03*
X0305168Y0125250D03*
X0301668Y0125250D03*
X0142918Y0065750D03*
X0144168Y0045750D03*
X0143168Y0028750D03*
X0098418Y0031000D03*
X0137168Y0101000D03*
X0119918Y0183000D03*
X0072168Y0180000D03*
D73*
X0114918Y0233500D02*
X0114918Y0237988D01*
X0078908Y0249500D02*
X0078908Y0253010D01*
X0077168Y0254750D01*
X0065168Y0254750D01*
X0071428Y0249500D02*
X0053918Y0249500D01*
X0046418Y0257000D01*
X0039918Y0257000D01*
D74*
X0077668Y0300000D03*
D75*
X0063418Y0309750D03*
X0066418Y0330000D03*
X0069418Y0330000D03*
X0069418Y0336000D03*
X0066418Y0336000D03*
X0274918Y0112750D03*
X0277918Y0112750D03*
X0280918Y0112750D03*
X0283918Y0112750D03*
X0283918Y0103250D03*
X0280918Y0103250D03*
X0277918Y0103250D03*
X0274918Y0103250D03*
X0274918Y0059750D03*
X0277918Y0059750D03*
X0280918Y0059750D03*
X0283918Y0059750D03*
X0283918Y0049750D03*
X0280918Y0049750D03*
X0277918Y0049750D03*
X0274918Y0049750D03*
X0206668Y0048000D03*
X0206668Y0044500D03*
X0206668Y0041000D03*
X0206668Y0037500D03*
X0206668Y0034000D03*
X0206668Y0030500D03*
X0206668Y0027000D03*
X0203168Y0027000D03*
X0203168Y0030500D03*
X0203168Y0034000D03*
X0203168Y0037500D03*
X0203168Y0041000D03*
X0203168Y0044500D03*
X0203168Y0048000D03*
X0203168Y0051500D03*
X0206668Y0051500D03*
X0206668Y0055000D03*
X0203168Y0055000D03*
X0197918Y0071500D03*
X0197918Y0075000D03*
X0197918Y0078500D03*
X0197918Y0082000D03*
X0197918Y0085500D03*
X0197918Y0089000D03*
X0197918Y0092500D03*
X0197918Y0096000D03*
X0197918Y0099500D03*
X0197918Y0103000D03*
X0194418Y0103000D03*
X0194418Y0099500D03*
X0194418Y0096000D03*
X0194418Y0092500D03*
X0194418Y0089000D03*
X0194418Y0085500D03*
X0194418Y0082000D03*
X0194418Y0078500D03*
X0194418Y0075000D03*
X0194418Y0071500D03*
X0058918Y0072250D03*
X0058918Y0069250D03*
X0058918Y0066250D03*
X0058918Y0063250D03*
X0055918Y0063250D03*
X0055918Y0066250D03*
X0055918Y0069250D03*
X0055918Y0072250D03*
X0055918Y0075250D03*
X0058918Y0075250D03*
D76*
X0119918Y0250250D03*
D77*
X0397418Y0094500D02*
X0397668Y0094250D01*
X0397668Y0094541D01*
X0402877Y0099750D01*
X0492418Y0099750D01*
X0497168Y0104500D01*
X0497168Y0106000D01*
X0501418Y0106000D02*
X0501418Y0105250D01*
X0493418Y0097250D01*
X0421918Y0097250D01*
X0414418Y0089750D01*
D78*
X0037601Y0030622D03*
X0037601Y0333772D03*
X0616341Y0333772D03*
M02*
