G75*
%MOIN*%
%OFA0B0*%
%FSLAX25Y25*%
%IPPOS*%
%LPD*%
%AMOC8*
5,1,8,0,0,1.08239X$1,22.5*
%
%ADD10C,0.10600*%
%ADD11OC8,0.06600*%
%ADD12R,0.06899X0.07698*%
%ADD13OC8,0.08868*%
%ADD14C,0.12411*%
%ADD15OC8,0.06000*%
%ADD16R,0.14961X0.22835*%
%ADD17R,0.08868X0.08868*%
%ADD18C,0.00500*%
%ADD19R,0.04537X0.04931*%
%ADD20R,0.22254X0.23041*%
%ADD21R,0.05718X0.07293*%
%ADD22R,0.06506X0.05718*%
%ADD23R,0.05324X0.06506*%
%ADD24C,0.06600*%
%ADD25R,0.13198X0.07687*%
%ADD26R,0.06700X0.03000*%
%ADD27R,0.05718X0.06506*%
%ADD28R,0.04931X0.04537*%
%ADD29R,0.08080X0.13986*%
%ADD30R,0.07687X0.13198*%
%ADD31R,0.07687X0.06899*%
%ADD32R,0.06899X0.11230*%
%ADD33C,0.12962*%
%ADD34OC8,0.12962*%
%ADD35OC8,0.09200*%
%ADD36R,0.04143X0.04143*%
%ADD37OC8,0.07096*%
%ADD38R,0.06506X0.05324*%
%ADD39OC8,0.10600*%
%ADD40C,0.07687*%
%ADD41OC8,0.07687*%
%ADD42R,0.06112X0.06112*%
%ADD43R,0.06899X0.07687*%
%ADD44OC8,0.09899*%
%ADD45R,0.02962X0.09261*%
%ADD46R,0.07687X0.07293*%
%ADD47C,0.04931*%
%ADD48C,0.05400*%
%ADD49R,0.06112X0.04537*%
%ADD50R,0.22254X0.22254*%
%ADD51OC8,0.04562*%
%ADD52R,0.04562X0.04562*%
%ADD53C,0.22254*%
D10*
X0175085Y0112890D03*
X0175085Y0134890D03*
X0175085Y0156890D03*
X0100563Y0220378D03*
X0061193Y0220378D03*
X0061193Y0269591D03*
X0100563Y0269591D03*
X0175085Y0275000D03*
X0175085Y0253000D03*
X0175085Y0231000D03*
X0336503Y0219882D03*
X0336503Y0197882D03*
X0336503Y0175882D03*
X0352227Y0106843D03*
X0574977Y0067343D03*
X0336503Y0250685D03*
X0336503Y0272685D03*
X0336503Y0294685D03*
D11*
X0100328Y0291585D03*
X0041328Y0291585D03*
X0041578Y0197635D03*
X0100578Y0197635D03*
D12*
X0095877Y0258085D03*
X0084680Y0258085D03*
X0076377Y0258085D03*
X0065180Y0258085D03*
X0331129Y0125343D03*
X0342325Y0125343D03*
X0350629Y0125343D03*
X0361825Y0125343D03*
D13*
X0602959Y0185593D03*
X0619495Y0185593D03*
X0073683Y0316752D03*
X0073683Y0333287D03*
X0073683Y0349823D03*
X0039963Y0105520D03*
X0039963Y0085020D03*
X0039963Y0065520D03*
D14*
X0051833Y0325020D03*
X0088841Y0349823D03*
D15*
X0110278Y0352835D03*
X0126426Y0322850D03*
X0100278Y0312835D03*
X0116426Y0282850D03*
X0037227Y0177843D03*
X0037227Y0158093D03*
X0077227Y0167843D03*
X0077227Y0148093D03*
X0428727Y0126093D03*
X0468727Y0116093D03*
D16*
X0100528Y0240085D03*
X0061028Y0240085D03*
D17*
X0039963Y0125520D03*
D18*
X0039570Y0049339D02*
X0038701Y0049263D01*
X0037859Y0049037D01*
X0037070Y0048669D01*
X0036356Y0048169D01*
X0035739Y0047553D01*
X0035239Y0046839D01*
X0034871Y0046049D01*
X0034646Y0045207D01*
X0034570Y0044339D01*
X0034646Y0043470D01*
X0034871Y0042628D01*
X0035239Y0041839D01*
X0035739Y0041125D01*
X0036356Y0040508D01*
X0037070Y0040008D01*
X0037859Y0039640D01*
X0038701Y0039415D01*
X0039570Y0039339D01*
X0040438Y0039415D01*
X0041280Y0039640D01*
X0042070Y0040008D01*
X0042783Y0040508D01*
X0043400Y0041125D01*
X0043900Y0041839D01*
X0044268Y0042628D01*
X0044494Y0043470D01*
X0044570Y0044339D01*
X0044494Y0045207D01*
X0044268Y0046049D01*
X0043900Y0046839D01*
X0043400Y0047553D01*
X0042783Y0048169D01*
X0042070Y0048669D01*
X0041280Y0049037D01*
X0040438Y0049263D01*
X0039570Y0049339D01*
X0040545Y0049234D02*
X0038594Y0049234D01*
X0037212Y0048735D02*
X0041927Y0048735D01*
X0042686Y0048237D02*
X0036453Y0048237D01*
X0035925Y0047738D02*
X0043214Y0047738D01*
X0043619Y0047240D02*
X0035520Y0047240D01*
X0035194Y0046741D02*
X0043945Y0046741D01*
X0044177Y0046243D02*
X0034962Y0046243D01*
X0034790Y0045744D02*
X0044350Y0045744D01*
X0044483Y0045246D02*
X0034656Y0045246D01*
X0034605Y0044747D02*
X0044534Y0044747D01*
X0044562Y0044249D02*
X0034577Y0044249D01*
X0034621Y0043750D02*
X0044518Y0043750D01*
X0044435Y0043252D02*
X0034704Y0043252D01*
X0034838Y0042753D02*
X0044301Y0042753D01*
X0044094Y0042255D02*
X0035045Y0042255D01*
X0035297Y0041756D02*
X0043842Y0041756D01*
X0043493Y0041258D02*
X0035646Y0041258D01*
X0036105Y0040759D02*
X0043034Y0040759D01*
X0042430Y0040261D02*
X0036709Y0040261D01*
X0037598Y0039762D02*
X0041541Y0039762D01*
X0625791Y0333177D02*
X0625422Y0333967D01*
X0625197Y0334809D01*
X0625121Y0335677D01*
X0625197Y0336545D01*
X0625422Y0337387D01*
X0625791Y0338177D01*
X0626291Y0338891D01*
X0626907Y0339507D01*
X0627621Y0340007D01*
X0628411Y0340376D01*
X0629252Y0340601D01*
X0630121Y0340677D01*
X0630989Y0340601D01*
X0631831Y0340376D01*
X0632621Y0340007D01*
X0633335Y0339507D01*
X0633951Y0338891D01*
X0634451Y0338177D01*
X0634819Y0337387D01*
X0635045Y0336545D01*
X0635121Y0335677D01*
X0635045Y0334809D01*
X0634819Y0333967D01*
X0634451Y0333177D01*
X0633951Y0332463D01*
X0633335Y0331847D01*
X0632621Y0331347D01*
X0631831Y0330979D01*
X0630989Y0330753D01*
X0630121Y0330677D01*
X0629252Y0330753D01*
X0628411Y0330979D01*
X0627621Y0331347D01*
X0626907Y0331847D01*
X0626291Y0332463D01*
X0625791Y0333177D01*
X0625694Y0333385D02*
X0634548Y0333385D01*
X0634780Y0333884D02*
X0625461Y0333884D01*
X0625311Y0334382D02*
X0634930Y0334382D01*
X0635051Y0334881D02*
X0625190Y0334881D01*
X0625147Y0335379D02*
X0635095Y0335379D01*
X0635103Y0335878D02*
X0625138Y0335878D01*
X0625182Y0336376D02*
X0635060Y0336376D01*
X0634956Y0336875D02*
X0625285Y0336875D01*
X0625419Y0337373D02*
X0634823Y0337373D01*
X0634593Y0337872D02*
X0625648Y0337872D01*
X0625926Y0338370D02*
X0634316Y0338370D01*
X0633966Y0338869D02*
X0626275Y0338869D01*
X0626767Y0339367D02*
X0633475Y0339367D01*
X0632823Y0339866D02*
X0627419Y0339866D01*
X0628387Y0340364D02*
X0631855Y0340364D01*
X0634248Y0332887D02*
X0625994Y0332887D01*
X0626365Y0332388D02*
X0633876Y0332388D01*
X0633377Y0331890D02*
X0626864Y0331890D01*
X0627558Y0331391D02*
X0632684Y0331391D01*
X0631510Y0330893D02*
X0628731Y0330893D01*
D19*
X0591227Y0249439D03*
X0591227Y0242746D03*
X0111227Y0169189D03*
X0111227Y0162496D03*
D20*
X0127727Y0127333D03*
X0273727Y0233833D03*
X0273727Y0276352D03*
D21*
X0264731Y0301707D03*
X0282723Y0301707D03*
X0282723Y0208478D03*
X0264731Y0208478D03*
X0136723Y0101978D03*
X0118731Y0101978D03*
D22*
X0149477Y0119102D03*
X0149477Y0126583D03*
X0110977Y0138352D03*
X0103227Y0138352D03*
X0103227Y0145833D03*
X0110977Y0145833D03*
X0138227Y0189102D03*
X0138227Y0196583D03*
X0384227Y0115083D03*
X0384227Y0107602D03*
X0391977Y0107333D03*
X0399727Y0107333D03*
X0399727Y0099852D03*
X0391977Y0099852D03*
X0461977Y0166352D03*
X0461977Y0173833D03*
X0461977Y0181852D03*
X0461977Y0189333D03*
X0570977Y0238602D03*
X0570977Y0246083D03*
X0601727Y0248333D03*
X0601727Y0240852D03*
X0600227Y0224833D03*
X0600227Y0217352D03*
X0575477Y0201333D03*
X0575477Y0193852D03*
X0624977Y0288602D03*
X0624977Y0296083D03*
D23*
X0563227Y0249301D03*
X0563227Y0237884D03*
X0567977Y0201051D03*
X0567977Y0189634D03*
X0400977Y0037801D03*
X0400977Y0026384D03*
X0157227Y0116384D03*
X0157227Y0127801D03*
D24*
X0170585Y0187882D02*
X0176585Y0187882D01*
X0176585Y0207882D02*
X0170585Y0207882D01*
X0620727Y0119593D02*
X0626727Y0119593D01*
X0626727Y0109593D02*
X0620727Y0109593D01*
X0620727Y0099593D02*
X0626727Y0099593D01*
X0626727Y0089593D02*
X0620727Y0089593D01*
X0620727Y0079593D02*
X0626727Y0079593D01*
X0626727Y0069593D02*
X0620727Y0069593D01*
X0620727Y0059593D02*
X0626727Y0059593D01*
X0626727Y0049593D02*
X0620727Y0049593D01*
D25*
X0379727Y0189569D03*
X0379727Y0211616D03*
X0379727Y0220819D03*
X0379727Y0242866D03*
X0241727Y0184616D03*
X0226227Y0184616D03*
X0226227Y0162569D03*
X0241727Y0162569D03*
D26*
X0140677Y0161243D03*
X0140677Y0166243D03*
X0140677Y0171243D03*
X0140677Y0176243D03*
X0140677Y0181243D03*
X0119477Y0181243D03*
X0119477Y0176243D03*
X0119477Y0171243D03*
X0119477Y0166243D03*
X0119477Y0161243D03*
X0119477Y0156243D03*
X0119477Y0151243D03*
X0119477Y0146243D03*
X0140677Y0146243D03*
X0140677Y0151243D03*
X0140677Y0156243D03*
X0384627Y0092093D03*
X0384627Y0087093D03*
X0384627Y0082093D03*
X0384627Y0077093D03*
X0384627Y0072093D03*
X0384627Y0067093D03*
X0384627Y0062093D03*
X0384627Y0057093D03*
X0405827Y0057093D03*
X0405827Y0062093D03*
X0405827Y0067093D03*
X0405827Y0072093D03*
X0405827Y0077093D03*
X0405827Y0082093D03*
X0405827Y0087093D03*
X0405827Y0092093D03*
D27*
X0375967Y0090343D03*
X0368487Y0090343D03*
X0368487Y0098093D03*
X0375967Y0098093D03*
X0375967Y0082593D03*
X0368487Y0082593D03*
X0392237Y0115343D03*
X0399717Y0115343D03*
X0377467Y0125093D03*
X0369987Y0125093D03*
X0471237Y0101843D03*
X0478717Y0101843D03*
X0478717Y0094093D03*
X0471237Y0094093D03*
X0350717Y0032843D03*
X0343237Y0032843D03*
X0343237Y0025093D03*
X0350717Y0025093D03*
X0110717Y0155593D03*
X0103237Y0155593D03*
X0103237Y0176093D03*
X0110717Y0176093D03*
X0605987Y0167843D03*
X0613467Y0167843D03*
D28*
X0377073Y0075343D03*
X0370381Y0075343D03*
X0352073Y0048093D03*
X0345381Y0048093D03*
X0157823Y0174843D03*
X0151131Y0174843D03*
X0151131Y0181593D03*
X0157823Y0181593D03*
X0157823Y0188343D03*
X0151131Y0188343D03*
D29*
X0293050Y0238343D03*
X0308404Y0238343D03*
X0308404Y0271843D03*
X0293050Y0271843D03*
D30*
X0530703Y0220343D03*
X0530703Y0204843D03*
X0552751Y0204843D03*
X0552751Y0220343D03*
X0558251Y0272843D03*
X0536203Y0272843D03*
X0536203Y0288593D03*
X0558251Y0288593D03*
D31*
X0583227Y0255104D03*
X0583227Y0244081D03*
X0596727Y0325081D03*
X0596727Y0336104D03*
D32*
X0618465Y0269093D03*
X0629489Y0269093D03*
X0385989Y0257593D03*
X0374965Y0257593D03*
D33*
X0442477Y0315079D03*
X0513477Y0315079D03*
X0584477Y0315079D03*
X0201227Y0066606D03*
X0106727Y0066606D03*
D34*
X0106727Y0037079D03*
X0201227Y0037079D03*
X0442477Y0344606D03*
X0513477Y0344606D03*
X0584477Y0344606D03*
D35*
X0621227Y0167843D03*
D36*
X0601227Y0167843D03*
D37*
X0586977Y0182343D03*
X0426727Y0139843D03*
X0259227Y0130093D03*
X0195477Y0156843D03*
X0179469Y0171291D03*
D38*
X0128936Y0187843D03*
X0117518Y0187843D03*
X0340518Y0040843D03*
X0351936Y0040843D03*
X0470768Y0109343D03*
X0482186Y0109343D03*
D39*
X0554977Y0067343D03*
X0352227Y0086843D03*
D40*
X0421357Y0079578D03*
X0421357Y0059893D03*
X0421357Y0040207D03*
X0421357Y0030365D03*
X0500097Y0035286D03*
X0500097Y0025444D03*
X0500097Y0045129D03*
X0500097Y0054971D03*
X0500097Y0064814D03*
X0500097Y0074656D03*
X0500097Y0084499D03*
X0500097Y0094341D03*
D41*
X0421357Y0089420D03*
D42*
X0409227Y0038073D03*
X0409227Y0023112D03*
D43*
X0606465Y0194843D03*
X0617489Y0194843D03*
X0609989Y0269093D03*
X0598965Y0269093D03*
D44*
X0477014Y0249575D03*
X0477014Y0235795D03*
X0477014Y0222016D03*
X0477014Y0208236D03*
X0362841Y0215126D03*
X0362841Y0242685D03*
D45*
X0577227Y0231329D03*
X0582227Y0231329D03*
X0587227Y0231329D03*
X0592227Y0231329D03*
X0592227Y0210856D03*
X0587227Y0210856D03*
X0582227Y0210856D03*
X0577227Y0210856D03*
D46*
X0606406Y0204343D03*
X0622548Y0204343D03*
D47*
X0340680Y0065843D03*
X0334774Y0065843D03*
X0263680Y0038093D03*
X0257774Y0038093D03*
D48*
X0606227Y0148193D02*
X0606227Y0152993D01*
X0616227Y0152993D02*
X0616227Y0148193D01*
X0626227Y0148193D02*
X0626227Y0152993D01*
D49*
X0371558Y0030343D03*
X0362896Y0034083D03*
X0362896Y0026602D03*
D50*
X0043507Y0353394D03*
D51*
X0082227Y0177843D03*
D52*
X0503727Y0181343D03*
X0503727Y0186343D03*
X0508727Y0186343D03*
X0508727Y0181343D03*
X0508727Y0191343D03*
X0508727Y0196343D03*
X0508727Y0201343D03*
X0508727Y0206343D03*
X0503727Y0206343D03*
X0503727Y0201343D03*
X0503727Y0196343D03*
X0503727Y0191343D03*
X0503727Y0211343D03*
X0508727Y0211343D03*
X0508477Y0251093D03*
X0508477Y0256093D03*
X0508477Y0261093D03*
X0503477Y0261093D03*
X0503477Y0256093D03*
X0503477Y0251093D03*
X0503477Y0266093D03*
X0503477Y0271093D03*
X0503477Y0276093D03*
X0503477Y0281093D03*
X0508477Y0281093D03*
X0508477Y0276093D03*
X0508477Y0271093D03*
X0508477Y0266093D03*
X0593977Y0269093D03*
X0620227Y0287093D03*
X0633727Y0271093D03*
X0633727Y0267343D03*
D53*
X0043507Y0026622D03*
X0626184Y0026622D03*
X0626184Y0353394D03*
M02*
