G75*
%MOIN*%
%OFA0B0*%
%FSLAX25Y25*%
%IPPOS*%
%LPD*%
%AMOC8*
5,1,8,0,0,1.08239X$1,22.5*
%
%ADD10C,0.10000*%
%ADD11OC8,0.06000*%
%ADD12OC8,0.08268*%
%ADD13OC8,0.05400*%
%ADD14R,0.08268X0.08268*%
%ADD15C,0.04000*%
%ADD16R,0.05600X0.01400*%
%ADD17R,0.05118X0.05906*%
%ADD18R,0.04331X0.03937*%
%ADD19R,0.05906X0.05118*%
%ADD20R,0.04724X0.05906*%
%ADD21C,0.06000*%
%ADD22R,0.05906X0.04724*%
%ADD23R,0.12598X0.07087*%
%ADD24R,0.00984X0.01969*%
%ADD25C,0.02953*%
%ADD26R,0.14567X0.05118*%
%ADD27R,0.39764X0.35039*%
%ADD28R,0.06299X0.07087*%
%ADD29R,0.08661X0.02362*%
%ADD30C,0.12362*%
%ADD31OC8,0.12362*%
%ADD32OC8,0.08600*%
%ADD33R,0.03543X0.03543*%
%ADD34OC8,0.06496*%
%ADD35R,0.06890X0.05906*%
%ADD36R,0.09449X0.09449*%
%ADD37R,0.03000X0.12800*%
%ADD38R,0.12800X0.03000*%
%ADD39R,0.04724X0.04724*%
%ADD40R,0.08661X0.07087*%
%ADD41R,0.10630X0.06299*%
%ADD42OC8,0.10000*%
%ADD43R,0.03937X0.04724*%
%ADD44C,0.07087*%
%ADD45OC8,0.07087*%
%ADD46R,0.07098X0.06299*%
%ADD47R,0.06102X0.02362*%
%ADD48R,0.02362X0.06102*%
%ADD49R,0.07087X0.06299*%
%ADD50R,0.12000X0.06000*%
%ADD51R,0.16000X0.04300*%
%ADD52OC8,0.09299*%
%ADD53R,0.05000X0.06000*%
%ADD54C,0.02500*%
%ADD55R,0.06000X0.05000*%
%ADD56C,0.00100*%
%ADD57R,0.01000X0.03500*%
%ADD58R,0.01000X0.02000*%
%ADD59R,0.03500X0.01000*%
%ADD60R,0.02000X0.01000*%
%ADD61R,0.13386X0.07480*%
%ADD62C,0.04331*%
%ADD63R,0.03937X0.04331*%
%ADD64R,0.05512X0.03937*%
%ADD65C,0.04800*%
%ADD66C,0.14000*%
%ADD67C,0.04000*%
%ADD68C,0.03200*%
%ADD69C,0.10000*%
%ADD70OC8,0.03962*%
%ADD71R,0.21654X0.21654*%
%ADD72OC8,0.03175*%
%ADD73C,0.02400*%
%ADD74C,0.08000*%
%ADD75C,0.01200*%
%ADD76C,0.01600*%
%ADD77C,0.01000*%
%ADD78R,0.03962X0.03962*%
%ADD79R,0.03569X0.03569*%
%ADD80OC8,0.03569*%
%ADD81R,0.03175X0.03175*%
%ADD82C,0.21654*%
D10*
X0175085Y0112890D03*
X0175085Y0134890D03*
X0175085Y0156890D03*
X0100563Y0220378D03*
X0061193Y0220378D03*
X0061193Y0269591D03*
X0100563Y0269591D03*
X0175085Y0275000D03*
X0175085Y0253000D03*
X0175085Y0231000D03*
X0336503Y0219882D03*
X0336503Y0197882D03*
X0336503Y0175882D03*
X0352227Y0106843D03*
X0574977Y0067343D03*
X0336503Y0250685D03*
X0336503Y0272685D03*
X0336503Y0294685D03*
D11*
X0100328Y0291585D03*
X0041328Y0291585D03*
X0041578Y0197635D03*
X0100578Y0197635D03*
D12*
X0039963Y0105520D03*
X0039963Y0085020D03*
X0039963Y0065520D03*
X0073683Y0316752D03*
X0073683Y0333287D03*
X0073683Y0349823D03*
X0602959Y0185593D03*
X0619495Y0185593D03*
D13*
X0468727Y0116093D03*
X0428727Y0126093D03*
X0116426Y0282850D03*
X0100278Y0312835D03*
X0126426Y0322850D03*
X0110278Y0352835D03*
X0037227Y0177843D03*
X0037227Y0158093D03*
X0077227Y0167843D03*
X0077227Y0148093D03*
D14*
X0039963Y0125520D03*
D15*
X0039570Y0044339D03*
X0630121Y0335677D03*
D16*
X0275427Y0107799D03*
X0275427Y0105240D03*
X0275427Y0102681D03*
X0275427Y0100122D03*
X0275427Y0097563D03*
X0275427Y0095004D03*
X0275427Y0092445D03*
X0275427Y0089886D03*
X0253027Y0089886D03*
X0253027Y0092445D03*
X0253027Y0095004D03*
X0253027Y0097563D03*
X0253027Y0100122D03*
X0253027Y0102681D03*
X0253027Y0105240D03*
X0253027Y0107799D03*
D17*
X0245217Y0110843D03*
X0237737Y0110843D03*
X0236987Y0083843D03*
X0244467Y0083843D03*
X0244467Y0076093D03*
X0236987Y0076093D03*
X0268737Y0073593D03*
X0276217Y0073593D03*
X0276217Y0081343D03*
X0268737Y0081343D03*
X0284237Y0087343D03*
X0291717Y0087343D03*
X0291717Y0095093D03*
X0284237Y0095093D03*
X0284237Y0102843D03*
X0291717Y0102843D03*
X0291717Y0110593D03*
X0284237Y0110593D03*
X0284237Y0118343D03*
X0291717Y0118343D03*
X0299737Y0118343D03*
X0307217Y0118343D03*
X0307217Y0126093D03*
X0299737Y0126093D03*
X0296487Y0065343D03*
X0303967Y0065343D03*
X0303967Y0057593D03*
X0296487Y0057593D03*
X0383737Y0039343D03*
X0391217Y0039343D03*
X0399237Y0039343D03*
X0406717Y0039343D03*
X0514987Y0040343D03*
X0522467Y0040343D03*
X0530487Y0040343D03*
X0537967Y0040343D03*
X0537967Y0054843D03*
X0530487Y0054843D03*
X0522467Y0054843D03*
X0514987Y0054843D03*
X0513987Y0085593D03*
X0521467Y0085593D03*
X0529487Y0085593D03*
X0536967Y0085593D03*
X0495467Y0108593D03*
X0487987Y0108593D03*
X0497987Y0145593D03*
X0505467Y0145593D03*
X0530237Y0153593D03*
X0537717Y0153593D03*
X0552987Y0153593D03*
X0560467Y0153593D03*
X0598487Y0135593D03*
X0605967Y0135593D03*
X0418217Y0129093D03*
X0410737Y0129093D03*
X0357717Y0268593D03*
X0350237Y0268593D03*
X0152217Y0173593D03*
X0144737Y0173593D03*
X0122467Y0092193D03*
X0114987Y0092193D03*
X0148237Y0090343D03*
X0155717Y0090343D03*
D18*
X0153823Y0097593D03*
X0147131Y0097593D03*
X0148131Y0145093D03*
X0154823Y0145093D03*
X0154823Y0151843D03*
X0148131Y0151843D03*
X0148131Y0158593D03*
X0154823Y0158593D03*
X0236631Y0103593D03*
X0243323Y0103593D03*
X0245573Y0091093D03*
X0238881Y0091093D03*
X0286131Y0125593D03*
X0292823Y0125593D03*
X0248323Y0037843D03*
X0241631Y0037843D03*
X0496881Y0116843D03*
X0503573Y0116843D03*
X0532131Y0130593D03*
X0538823Y0130593D03*
X0568631Y0153593D03*
X0575323Y0153593D03*
D19*
X0576477Y0141833D03*
X0584227Y0141833D03*
X0584227Y0134352D03*
X0576477Y0134352D03*
X0597477Y0114833D03*
X0597477Y0107352D03*
X0537977Y0138102D03*
X0530227Y0138102D03*
X0530227Y0145583D03*
X0537977Y0145583D03*
X0513227Y0145852D03*
X0513227Y0153333D03*
X0489227Y0154083D03*
X0489227Y0146602D03*
X0479227Y0146602D03*
X0471477Y0146602D03*
X0471477Y0154083D03*
X0479227Y0154083D03*
X0497727Y0137833D03*
X0505477Y0137833D03*
X0513227Y0137833D03*
X0513227Y0130352D03*
X0505477Y0130352D03*
X0497727Y0130352D03*
X0525977Y0119333D03*
X0525977Y0111852D03*
X0375727Y0071833D03*
X0375727Y0064352D03*
X0296227Y0047083D03*
X0296227Y0039602D03*
X0257227Y0048352D03*
X0257227Y0055833D03*
X0249477Y0055833D03*
X0249477Y0048352D03*
X0252477Y0073852D03*
X0252477Y0081333D03*
X0245477Y0118852D03*
X0237727Y0118852D03*
X0237727Y0126333D03*
X0245477Y0126333D03*
X0319227Y0165102D03*
X0319227Y0172583D03*
X0153477Y0210352D03*
X0153477Y0217833D03*
X0153477Y0230852D03*
X0153477Y0238333D03*
X0118727Y0173083D03*
X0118727Y0165602D03*
X0140227Y0098083D03*
X0140227Y0090602D03*
D20*
X0271477Y0113884D03*
X0271477Y0125301D03*
X0311977Y0161384D03*
X0311977Y0172801D03*
X0152227Y0181634D03*
X0152227Y0193051D03*
X0145977Y0207384D03*
X0145977Y0218801D03*
D21*
X0170585Y0207882D02*
X0176585Y0207882D01*
X0176585Y0187882D02*
X0170585Y0187882D01*
X0620727Y0119593D02*
X0626727Y0119593D01*
X0626727Y0109593D02*
X0620727Y0109593D01*
X0620727Y0099593D02*
X0626727Y0099593D01*
X0626727Y0089593D02*
X0620727Y0089593D01*
X0620727Y0079593D02*
X0626727Y0079593D01*
X0626727Y0069593D02*
X0620727Y0069593D01*
X0620727Y0059593D02*
X0626727Y0059593D01*
X0626727Y0049593D02*
X0620727Y0049593D01*
D22*
X0360436Y0276343D03*
X0349018Y0276343D03*
D23*
X0212727Y0142366D03*
X0196977Y0142366D03*
X0196977Y0120319D03*
X0212727Y0120319D03*
D24*
X0107190Y0037093D03*
X0106264Y0037093D03*
D25*
X0222644Y0157144D02*
X0274810Y0157144D01*
X0222644Y0157144D02*
X0222644Y0166002D01*
X0274810Y0166002D01*
X0274810Y0157144D01*
X0274810Y0160096D02*
X0222644Y0160096D01*
X0222644Y0163048D02*
X0274810Y0163048D01*
X0274810Y0166000D02*
X0222644Y0166000D01*
X0222644Y0242183D02*
X0274810Y0242183D01*
X0222644Y0242183D02*
X0222644Y0251041D01*
X0274810Y0251041D01*
X0274810Y0242183D01*
X0274810Y0245135D02*
X0222644Y0245135D01*
X0222644Y0248087D02*
X0274810Y0248087D01*
X0274810Y0251039D02*
X0222644Y0251039D01*
X0222644Y0272752D02*
X0274810Y0272752D01*
X0274810Y0263894D01*
X0222644Y0263894D01*
X0222644Y0272752D01*
X0222644Y0266846D02*
X0274810Y0266846D01*
X0274810Y0269798D02*
X0222644Y0269798D01*
X0222644Y0272750D02*
X0274810Y0272750D01*
X0274810Y0357791D02*
X0222644Y0357791D01*
X0274810Y0357791D02*
X0274810Y0348933D01*
X0222644Y0348933D01*
X0222644Y0357791D01*
X0222644Y0351885D02*
X0274810Y0351885D01*
X0274810Y0354837D02*
X0222644Y0354837D01*
X0222644Y0357789D02*
X0274810Y0357789D01*
D26*
X0570211Y0276093D03*
X0570211Y0256093D03*
X0570461Y0206343D03*
X0570461Y0186343D03*
D27*
X0530698Y0196343D03*
X0530448Y0266093D03*
D28*
X0557465Y0290343D03*
X0568489Y0290343D03*
X0564739Y0221593D03*
X0553715Y0221593D03*
X0590715Y0076843D03*
X0601739Y0076843D03*
X0597739Y0027093D03*
X0586715Y0027093D03*
D29*
X0459357Y0106343D03*
X0459357Y0111343D03*
X0438097Y0111343D03*
X0438097Y0106343D03*
X0438097Y0131343D03*
X0438097Y0136343D03*
X0438097Y0143593D03*
X0438097Y0148593D03*
X0459357Y0148593D03*
X0459357Y0143593D03*
X0459357Y0136343D03*
X0459357Y0131343D03*
D30*
X0201227Y0066606D03*
X0106727Y0066606D03*
X0442477Y0315079D03*
X0513477Y0315079D03*
X0584477Y0315079D03*
D31*
X0584477Y0344606D03*
X0513477Y0344606D03*
X0442477Y0344606D03*
X0201227Y0037079D03*
X0106727Y0037079D03*
D32*
X0621227Y0167843D03*
D33*
X0601227Y0167843D03*
D34*
X0586977Y0182343D03*
X0426727Y0139843D03*
X0314727Y0111093D03*
X0259227Y0130093D03*
X0194727Y0156843D03*
X0179469Y0171291D03*
D35*
X0575325Y0115093D03*
X0588125Y0115093D03*
X0584575Y0093343D03*
X0597375Y0093343D03*
X0598375Y0043093D03*
X0585575Y0043093D03*
D36*
X0535638Y0027843D03*
X0518316Y0027843D03*
X0517066Y0067843D03*
X0534388Y0067843D03*
X0534388Y0098343D03*
X0517066Y0098343D03*
X0406388Y0026843D03*
X0389066Y0026843D03*
D37*
X0364977Y0032843D03*
X0336977Y0032843D03*
X0336977Y0051843D03*
X0364977Y0051843D03*
X0556227Y0095843D03*
X0556227Y0114843D03*
D38*
X0553477Y0031843D03*
X0572477Y0031843D03*
D39*
X0613343Y0135593D03*
X0621611Y0135593D03*
X0403111Y0129093D03*
X0394843Y0129093D03*
D40*
X0404477Y0079132D03*
X0404477Y0059053D03*
D41*
X0402977Y0088581D03*
X0402977Y0099604D03*
D42*
X0352227Y0086843D03*
X0554977Y0067343D03*
D43*
X0367727Y0062974D03*
X0360977Y0062974D03*
X0360977Y0073211D03*
X0367727Y0073211D03*
X0318227Y0092974D03*
X0310977Y0092974D03*
X0310977Y0103211D03*
X0318227Y0103211D03*
X0260477Y0082711D03*
X0260477Y0072474D03*
D44*
X0421357Y0079578D03*
X0421357Y0059893D03*
X0421357Y0040207D03*
X0421357Y0030365D03*
X0500097Y0035286D03*
X0500097Y0025444D03*
X0500097Y0045129D03*
X0500097Y0054971D03*
X0500097Y0064814D03*
X0500097Y0074656D03*
X0500097Y0084499D03*
X0500097Y0094341D03*
D45*
X0421357Y0089420D03*
D46*
X0392227Y0088494D03*
X0392227Y0099691D03*
D47*
X0546347Y0131323D03*
X0546347Y0136323D03*
X0546347Y0141323D03*
X0546347Y0146323D03*
X0567607Y0146323D03*
X0567607Y0141323D03*
X0567607Y0136323D03*
X0567607Y0131323D03*
D48*
X0488957Y0138472D03*
X0483957Y0138472D03*
X0478957Y0138472D03*
X0473957Y0138472D03*
X0473957Y0117213D03*
X0478957Y0117213D03*
X0483957Y0117213D03*
X0488957Y0117213D03*
X0287997Y0061222D03*
X0282997Y0061222D03*
X0277997Y0061222D03*
X0272997Y0061222D03*
X0272997Y0039963D03*
X0277997Y0039963D03*
X0282997Y0039963D03*
X0287997Y0039963D03*
D49*
X0521727Y0142081D03*
X0521727Y0153104D03*
D50*
X0624727Y0282193D03*
X0624727Y0301993D03*
D51*
X0626777Y0258343D03*
X0602177Y0258343D03*
X0602177Y0224843D03*
X0626777Y0224843D03*
D52*
X0477014Y0222016D03*
X0477014Y0208236D03*
X0477014Y0235795D03*
X0477014Y0249575D03*
X0362841Y0242685D03*
X0362841Y0215126D03*
D53*
X0587977Y0153343D03*
X0124277Y0132343D03*
X0116977Y0132343D03*
X0109677Y0132343D03*
X0109677Y0102343D03*
X0116977Y0102343D03*
X0124277Y0102343D03*
D54*
X0123527Y0112593D02*
X0131027Y0112593D01*
X0123527Y0112593D02*
X0123527Y0122093D01*
X0131027Y0122093D01*
X0131027Y0112593D01*
X0131027Y0115092D02*
X0123527Y0115092D01*
X0123527Y0117591D02*
X0131027Y0117591D01*
X0131027Y0120090D02*
X0123527Y0120090D01*
X0110427Y0112593D02*
X0102927Y0112593D01*
X0102927Y0122093D01*
X0110427Y0122093D01*
X0110427Y0112593D01*
X0110427Y0115092D02*
X0102927Y0115092D01*
X0102927Y0117591D02*
X0110427Y0117591D01*
X0110427Y0120090D02*
X0102927Y0120090D01*
D55*
X0424227Y0114843D03*
X0607477Y0107093D03*
D56*
X0606477Y0109093D02*
X0606477Y0111093D01*
X0604477Y0111093D01*
X0604535Y0111678D01*
X0604705Y0112241D01*
X0604983Y0112759D01*
X0605356Y0113214D01*
X0605810Y0113587D01*
X0606329Y0113864D01*
X0606892Y0114035D01*
X0607477Y0114093D01*
X0608062Y0114035D01*
X0608625Y0113864D01*
X0609144Y0113587D01*
X0609598Y0113214D01*
X0609971Y0112759D01*
X0610249Y0112241D01*
X0610419Y0111678D01*
X0610477Y0111093D01*
X0608477Y0111093D01*
X0608477Y0109093D01*
X0606477Y0109093D01*
X0606477Y0109187D02*
X0608477Y0109187D01*
X0608477Y0109285D02*
X0606477Y0109285D01*
X0606477Y0109384D02*
X0608477Y0109384D01*
X0608477Y0109482D02*
X0606477Y0109482D01*
X0606477Y0109581D02*
X0608477Y0109581D01*
X0608477Y0109679D02*
X0606477Y0109679D01*
X0606477Y0109778D02*
X0608477Y0109778D01*
X0608477Y0109876D02*
X0606477Y0109876D01*
X0606477Y0109975D02*
X0608477Y0109975D01*
X0608477Y0110073D02*
X0606477Y0110073D01*
X0606477Y0110172D02*
X0608477Y0110172D01*
X0608477Y0110270D02*
X0606477Y0110270D01*
X0606477Y0110369D02*
X0608477Y0110369D01*
X0608477Y0110467D02*
X0606477Y0110467D01*
X0606477Y0110566D02*
X0608477Y0110566D01*
X0608477Y0110664D02*
X0606477Y0110664D01*
X0606477Y0110763D02*
X0608477Y0110763D01*
X0608477Y0110861D02*
X0606477Y0110861D01*
X0606477Y0110960D02*
X0608477Y0110960D01*
X0608477Y0111058D02*
X0606477Y0111058D01*
X0604493Y0111255D02*
X0610461Y0111255D01*
X0610471Y0111157D02*
X0604483Y0111157D01*
X0604503Y0111354D02*
X0610451Y0111354D01*
X0610442Y0111452D02*
X0604512Y0111452D01*
X0604522Y0111551D02*
X0610432Y0111551D01*
X0610422Y0111649D02*
X0604532Y0111649D01*
X0604556Y0111748D02*
X0610398Y0111748D01*
X0610368Y0111846D02*
X0604586Y0111846D01*
X0604616Y0111945D02*
X0610338Y0111945D01*
X0610308Y0112043D02*
X0604646Y0112043D01*
X0604675Y0112142D02*
X0610279Y0112142D01*
X0610249Y0112240D02*
X0604705Y0112240D01*
X0604758Y0112339D02*
X0610196Y0112339D01*
X0610143Y0112437D02*
X0604811Y0112437D01*
X0604863Y0112536D02*
X0610091Y0112536D01*
X0610038Y0112634D02*
X0604916Y0112634D01*
X0604969Y0112733D02*
X0609985Y0112733D01*
X0609912Y0112832D02*
X0605042Y0112832D01*
X0605123Y0112930D02*
X0609831Y0112930D01*
X0609750Y0113029D02*
X0605204Y0113029D01*
X0605284Y0113127D02*
X0609670Y0113127D01*
X0609584Y0113226D02*
X0605370Y0113226D01*
X0605490Y0113324D02*
X0609464Y0113324D01*
X0609344Y0113423D02*
X0605610Y0113423D01*
X0605730Y0113521D02*
X0609224Y0113521D01*
X0609083Y0113620D02*
X0605871Y0113620D01*
X0606056Y0113718D02*
X0608898Y0113718D01*
X0608714Y0113817D02*
X0606240Y0113817D01*
X0606497Y0113915D02*
X0608457Y0113915D01*
X0608132Y0114014D02*
X0606822Y0114014D01*
X0604477Y0103093D02*
X0604535Y0102507D01*
X0604705Y0101944D01*
X0604983Y0101426D01*
X0605356Y0100971D01*
X0605810Y0100598D01*
X0606329Y0100321D01*
X0606892Y0100150D01*
X0607477Y0100093D01*
X0608062Y0100150D01*
X0608625Y0100321D01*
X0609144Y0100598D01*
X0609598Y0100971D01*
X0609971Y0101426D01*
X0610249Y0101944D01*
X0610419Y0102507D01*
X0610477Y0103093D01*
X0604477Y0103093D01*
X0604478Y0103079D02*
X0610476Y0103079D01*
X0610466Y0102980D02*
X0604488Y0102980D01*
X0604498Y0102882D02*
X0610456Y0102882D01*
X0610447Y0102783D02*
X0604507Y0102783D01*
X0604517Y0102685D02*
X0610437Y0102685D01*
X0610427Y0102586D02*
X0604527Y0102586D01*
X0604541Y0102488D02*
X0610414Y0102488D01*
X0610384Y0102389D02*
X0604570Y0102389D01*
X0604600Y0102291D02*
X0610354Y0102291D01*
X0610324Y0102192D02*
X0604630Y0102192D01*
X0604660Y0102094D02*
X0610294Y0102094D01*
X0610264Y0101995D02*
X0604690Y0101995D01*
X0604731Y0101897D02*
X0610223Y0101897D01*
X0610171Y0101798D02*
X0604784Y0101798D01*
X0604836Y0101700D02*
X0610118Y0101700D01*
X0610065Y0101601D02*
X0604889Y0101601D01*
X0604942Y0101503D02*
X0610013Y0101503D01*
X0609954Y0101404D02*
X0605000Y0101404D01*
X0605081Y0101306D02*
X0609873Y0101306D01*
X0609792Y0101207D02*
X0605162Y0101207D01*
X0605243Y0101109D02*
X0609711Y0101109D01*
X0609630Y0101010D02*
X0605324Y0101010D01*
X0605428Y0100912D02*
X0609526Y0100912D01*
X0609406Y0100813D02*
X0605548Y0100813D01*
X0605668Y0100715D02*
X0609286Y0100715D01*
X0609166Y0100616D02*
X0605788Y0100616D01*
X0605961Y0100518D02*
X0608993Y0100518D01*
X0608809Y0100419D02*
X0606145Y0100419D01*
X0606330Y0100321D02*
X0608624Y0100321D01*
X0608299Y0100222D02*
X0606655Y0100222D01*
X0607162Y0100124D02*
X0607792Y0100124D01*
X0592562Y0150400D02*
X0591977Y0150343D01*
X0591977Y0152343D01*
X0589977Y0152343D01*
X0589977Y0154343D01*
X0591977Y0154343D01*
X0591977Y0156343D01*
X0592562Y0156285D01*
X0593125Y0156114D01*
X0593644Y0155837D01*
X0594098Y0155464D01*
X0594471Y0155009D01*
X0594749Y0154491D01*
X0594919Y0153928D01*
X0594977Y0153343D01*
X0594919Y0152757D01*
X0594749Y0152194D01*
X0594471Y0151676D01*
X0594098Y0151221D01*
X0593644Y0150848D01*
X0593125Y0150571D01*
X0592562Y0150400D01*
X0592769Y0150463D02*
X0591977Y0150463D01*
X0591977Y0150561D02*
X0593094Y0150561D01*
X0593292Y0150660D02*
X0591977Y0150660D01*
X0591977Y0150758D02*
X0593476Y0150758D01*
X0593654Y0150857D02*
X0591977Y0150857D01*
X0591977Y0150955D02*
X0593774Y0150955D01*
X0593895Y0151054D02*
X0591977Y0151054D01*
X0591977Y0151152D02*
X0594015Y0151152D01*
X0594123Y0151251D02*
X0591977Y0151251D01*
X0591977Y0151349D02*
X0594204Y0151349D01*
X0594284Y0151448D02*
X0591977Y0151448D01*
X0591977Y0151546D02*
X0594365Y0151546D01*
X0594446Y0151645D02*
X0591977Y0151645D01*
X0591977Y0151743D02*
X0594508Y0151743D01*
X0594560Y0151842D02*
X0591977Y0151842D01*
X0591977Y0151941D02*
X0594613Y0151941D01*
X0594666Y0152039D02*
X0591977Y0152039D01*
X0591977Y0152138D02*
X0594718Y0152138D01*
X0594761Y0152236D02*
X0591977Y0152236D01*
X0591977Y0152335D02*
X0594791Y0152335D01*
X0594821Y0152433D02*
X0589977Y0152433D01*
X0589977Y0152532D02*
X0594851Y0152532D01*
X0594881Y0152630D02*
X0589977Y0152630D01*
X0589977Y0152729D02*
X0594911Y0152729D01*
X0594926Y0152827D02*
X0589977Y0152827D01*
X0589977Y0152926D02*
X0594936Y0152926D01*
X0594946Y0153024D02*
X0589977Y0153024D01*
X0589977Y0153123D02*
X0594955Y0153123D01*
X0594965Y0153221D02*
X0589977Y0153221D01*
X0589977Y0153320D02*
X0594975Y0153320D01*
X0594970Y0153418D02*
X0589977Y0153418D01*
X0589977Y0153517D02*
X0594960Y0153517D01*
X0594950Y0153615D02*
X0589977Y0153615D01*
X0589977Y0153714D02*
X0594940Y0153714D01*
X0594931Y0153812D02*
X0589977Y0153812D01*
X0589977Y0153911D02*
X0594921Y0153911D01*
X0594895Y0154009D02*
X0589977Y0154009D01*
X0589977Y0154108D02*
X0594865Y0154108D01*
X0594835Y0154206D02*
X0589977Y0154206D01*
X0589977Y0154305D02*
X0594805Y0154305D01*
X0594775Y0154403D02*
X0591977Y0154403D01*
X0591977Y0154502D02*
X0594743Y0154502D01*
X0594690Y0154600D02*
X0591977Y0154600D01*
X0591977Y0154699D02*
X0594637Y0154699D01*
X0594585Y0154797D02*
X0591977Y0154797D01*
X0591977Y0154896D02*
X0594532Y0154896D01*
X0594479Y0154994D02*
X0591977Y0154994D01*
X0591977Y0155093D02*
X0594403Y0155093D01*
X0594322Y0155191D02*
X0591977Y0155191D01*
X0591977Y0155290D02*
X0594241Y0155290D01*
X0594160Y0155388D02*
X0591977Y0155388D01*
X0591977Y0155487D02*
X0594070Y0155487D01*
X0593950Y0155585D02*
X0591977Y0155585D01*
X0591977Y0155684D02*
X0593830Y0155684D01*
X0593710Y0155782D02*
X0591977Y0155782D01*
X0591977Y0155881D02*
X0593561Y0155881D01*
X0593377Y0155979D02*
X0591977Y0155979D01*
X0591977Y0156078D02*
X0593193Y0156078D01*
X0592920Y0156176D02*
X0591977Y0156176D01*
X0591977Y0156275D02*
X0592595Y0156275D01*
X0592198Y0150364D02*
X0591977Y0150364D01*
X0583977Y0150364D02*
X0583756Y0150364D01*
X0583977Y0150343D02*
X0583392Y0150400D01*
X0582829Y0150571D01*
X0582310Y0150848D01*
X0581856Y0151221D01*
X0581483Y0151676D01*
X0581205Y0152194D01*
X0581035Y0152757D01*
X0580977Y0153343D01*
X0581035Y0153928D01*
X0581205Y0154491D01*
X0581483Y0155009D01*
X0581856Y0155464D01*
X0582310Y0155837D01*
X0582829Y0156114D01*
X0583392Y0156285D01*
X0583977Y0156343D01*
X0583977Y0150343D01*
X0583977Y0150463D02*
X0583185Y0150463D01*
X0582860Y0150561D02*
X0583977Y0150561D01*
X0583977Y0150660D02*
X0582663Y0150660D01*
X0582478Y0150758D02*
X0583977Y0150758D01*
X0583977Y0150857D02*
X0582300Y0150857D01*
X0582180Y0150955D02*
X0583977Y0150955D01*
X0583977Y0151054D02*
X0582060Y0151054D01*
X0581940Y0151152D02*
X0583977Y0151152D01*
X0583977Y0151251D02*
X0581831Y0151251D01*
X0581750Y0151349D02*
X0583977Y0151349D01*
X0583977Y0151448D02*
X0581670Y0151448D01*
X0581589Y0151546D02*
X0583977Y0151546D01*
X0583977Y0151645D02*
X0581508Y0151645D01*
X0581446Y0151743D02*
X0583977Y0151743D01*
X0583977Y0151842D02*
X0581394Y0151842D01*
X0581341Y0151941D02*
X0583977Y0151941D01*
X0583977Y0152039D02*
X0581288Y0152039D01*
X0581236Y0152138D02*
X0583977Y0152138D01*
X0583977Y0152236D02*
X0581193Y0152236D01*
X0581163Y0152335D02*
X0583977Y0152335D01*
X0583977Y0152433D02*
X0581133Y0152433D01*
X0581103Y0152532D02*
X0583977Y0152532D01*
X0583977Y0152630D02*
X0581073Y0152630D01*
X0581043Y0152729D02*
X0583977Y0152729D01*
X0583977Y0152827D02*
X0581028Y0152827D01*
X0581018Y0152926D02*
X0583977Y0152926D01*
X0583977Y0153024D02*
X0581008Y0153024D01*
X0580999Y0153123D02*
X0583977Y0153123D01*
X0583977Y0153221D02*
X0580989Y0153221D01*
X0580979Y0153320D02*
X0583977Y0153320D01*
X0583977Y0153418D02*
X0580984Y0153418D01*
X0580994Y0153517D02*
X0583977Y0153517D01*
X0583977Y0153615D02*
X0581004Y0153615D01*
X0581014Y0153714D02*
X0583977Y0153714D01*
X0583977Y0153812D02*
X0581023Y0153812D01*
X0581033Y0153911D02*
X0583977Y0153911D01*
X0583977Y0154009D02*
X0581059Y0154009D01*
X0581089Y0154108D02*
X0583977Y0154108D01*
X0583977Y0154206D02*
X0581119Y0154206D01*
X0581149Y0154305D02*
X0583977Y0154305D01*
X0583977Y0154403D02*
X0581179Y0154403D01*
X0581211Y0154502D02*
X0583977Y0154502D01*
X0583977Y0154600D02*
X0581264Y0154600D01*
X0581317Y0154699D02*
X0583977Y0154699D01*
X0583977Y0154797D02*
X0581369Y0154797D01*
X0581422Y0154896D02*
X0583977Y0154896D01*
X0583977Y0154994D02*
X0581475Y0154994D01*
X0581551Y0155093D02*
X0583977Y0155093D01*
X0583977Y0155191D02*
X0581632Y0155191D01*
X0581713Y0155290D02*
X0583977Y0155290D01*
X0583977Y0155388D02*
X0581794Y0155388D01*
X0581884Y0155487D02*
X0583977Y0155487D01*
X0583977Y0155585D02*
X0582004Y0155585D01*
X0582124Y0155684D02*
X0583977Y0155684D01*
X0583977Y0155782D02*
X0582244Y0155782D01*
X0582393Y0155881D02*
X0583977Y0155881D01*
X0583977Y0155979D02*
X0582577Y0155979D01*
X0582761Y0156078D02*
X0583977Y0156078D01*
X0583977Y0156176D02*
X0583034Y0156176D01*
X0583359Y0156275D02*
X0583977Y0156275D01*
X0427169Y0119428D02*
X0427227Y0118843D01*
X0421227Y0118843D01*
X0421285Y0119428D01*
X0421455Y0119991D01*
X0421733Y0120509D01*
X0422106Y0120964D01*
X0422560Y0121337D01*
X0423079Y0121614D01*
X0423642Y0121785D01*
X0424227Y0121843D01*
X0424812Y0121785D01*
X0425375Y0121614D01*
X0425894Y0121337D01*
X0426348Y0120964D01*
X0426721Y0120509D01*
X0426999Y0119991D01*
X0427169Y0119428D01*
X0427168Y0119432D02*
X0421286Y0119432D01*
X0421275Y0119333D02*
X0427179Y0119333D01*
X0427188Y0119235D02*
X0421266Y0119235D01*
X0421256Y0119136D02*
X0427198Y0119136D01*
X0427208Y0119038D02*
X0421246Y0119038D01*
X0421237Y0118939D02*
X0427218Y0118939D01*
X0427138Y0119530D02*
X0421316Y0119530D01*
X0421346Y0119629D02*
X0427108Y0119629D01*
X0427079Y0119727D02*
X0421376Y0119727D01*
X0421405Y0119826D02*
X0427049Y0119826D01*
X0427019Y0119924D02*
X0421435Y0119924D01*
X0421473Y0120023D02*
X0426981Y0120023D01*
X0426929Y0120121D02*
X0421525Y0120121D01*
X0421578Y0120220D02*
X0426876Y0120220D01*
X0426823Y0120318D02*
X0421631Y0120318D01*
X0421683Y0120417D02*
X0426771Y0120417D01*
X0426716Y0120515D02*
X0421738Y0120515D01*
X0421819Y0120614D02*
X0426636Y0120614D01*
X0426555Y0120712D02*
X0421899Y0120712D01*
X0421980Y0120811D02*
X0426474Y0120811D01*
X0426393Y0120909D02*
X0422061Y0120909D01*
X0422159Y0121008D02*
X0426295Y0121008D01*
X0426175Y0121106D02*
X0422279Y0121106D01*
X0422400Y0121205D02*
X0426055Y0121205D01*
X0425934Y0121303D02*
X0422520Y0121303D01*
X0422682Y0121402D02*
X0425772Y0121402D01*
X0425588Y0121501D02*
X0422866Y0121501D01*
X0423051Y0121599D02*
X0425403Y0121599D01*
X0425100Y0121698D02*
X0423354Y0121698D01*
X0423755Y0121796D02*
X0424699Y0121796D01*
X0425227Y0112843D02*
X0423227Y0112843D01*
X0423227Y0110843D01*
X0421227Y0110843D01*
X0421285Y0110257D01*
X0421455Y0109694D01*
X0421733Y0109176D01*
X0422106Y0108721D01*
X0422560Y0108348D01*
X0423079Y0108071D01*
X0423642Y0107900D01*
X0424227Y0107843D01*
X0424812Y0107900D01*
X0425375Y0108071D01*
X0425894Y0108348D01*
X0426348Y0108721D01*
X0426721Y0109176D01*
X0426999Y0109694D01*
X0427169Y0110257D01*
X0427227Y0110843D01*
X0425227Y0110843D01*
X0425227Y0112843D01*
X0425227Y0112832D02*
X0423227Y0112832D01*
X0423227Y0112733D02*
X0425227Y0112733D01*
X0425227Y0112634D02*
X0423227Y0112634D01*
X0423227Y0112536D02*
X0425227Y0112536D01*
X0425227Y0112437D02*
X0423227Y0112437D01*
X0423227Y0112339D02*
X0425227Y0112339D01*
X0425227Y0112240D02*
X0423227Y0112240D01*
X0423227Y0112142D02*
X0425227Y0112142D01*
X0425227Y0112043D02*
X0423227Y0112043D01*
X0423227Y0111945D02*
X0425227Y0111945D01*
X0425227Y0111846D02*
X0423227Y0111846D01*
X0423227Y0111748D02*
X0425227Y0111748D01*
X0425227Y0111649D02*
X0423227Y0111649D01*
X0423227Y0111551D02*
X0425227Y0111551D01*
X0425227Y0111452D02*
X0423227Y0111452D01*
X0423227Y0111354D02*
X0425227Y0111354D01*
X0425227Y0111255D02*
X0423227Y0111255D01*
X0423227Y0111157D02*
X0425227Y0111157D01*
X0425227Y0111058D02*
X0423227Y0111058D01*
X0423227Y0110960D02*
X0425227Y0110960D01*
X0425227Y0110861D02*
X0423227Y0110861D01*
X0421245Y0110664D02*
X0427209Y0110664D01*
X0427200Y0110566D02*
X0421254Y0110566D01*
X0421264Y0110467D02*
X0427190Y0110467D01*
X0427180Y0110369D02*
X0421274Y0110369D01*
X0421283Y0110270D02*
X0427171Y0110270D01*
X0427143Y0110172D02*
X0421311Y0110172D01*
X0421341Y0110073D02*
X0427114Y0110073D01*
X0427084Y0109975D02*
X0421370Y0109975D01*
X0421400Y0109876D02*
X0427054Y0109876D01*
X0427024Y0109778D02*
X0421430Y0109778D01*
X0421464Y0109679D02*
X0426990Y0109679D01*
X0426938Y0109581D02*
X0421516Y0109581D01*
X0421569Y0109482D02*
X0426885Y0109482D01*
X0426833Y0109384D02*
X0421622Y0109384D01*
X0421674Y0109285D02*
X0426780Y0109285D01*
X0426727Y0109187D02*
X0421727Y0109187D01*
X0421805Y0109088D02*
X0426649Y0109088D01*
X0426569Y0108990D02*
X0421885Y0108990D01*
X0421966Y0108891D02*
X0426488Y0108891D01*
X0426407Y0108793D02*
X0422047Y0108793D01*
X0422139Y0108694D02*
X0426315Y0108694D01*
X0426195Y0108596D02*
X0422259Y0108596D01*
X0422379Y0108497D02*
X0426075Y0108497D01*
X0425955Y0108398D02*
X0422499Y0108398D01*
X0422650Y0108300D02*
X0425804Y0108300D01*
X0425619Y0108201D02*
X0422835Y0108201D01*
X0423019Y0108103D02*
X0425435Y0108103D01*
X0425156Y0108004D02*
X0423298Y0108004D01*
X0423623Y0107906D02*
X0424831Y0107906D01*
X0427219Y0110763D02*
X0421235Y0110763D01*
D57*
X0424227Y0109843D03*
X0607477Y0112093D03*
D58*
X0607477Y0101343D03*
X0424227Y0120593D03*
D59*
X0592977Y0153343D03*
D60*
X0582227Y0153343D03*
D61*
X0153477Y0059520D03*
X0153477Y0044165D03*
D62*
X0257774Y0038093D03*
X0263680Y0038093D03*
X0334774Y0065843D03*
X0340680Y0065843D03*
D63*
X0266227Y0058939D03*
X0266227Y0052246D03*
D64*
X0301396Y0074602D03*
X0301396Y0082083D03*
X0310058Y0078343D03*
D65*
X0606227Y0148193D02*
X0606227Y0152993D01*
X0616227Y0152993D02*
X0616227Y0148193D01*
X0626227Y0148193D02*
X0626227Y0152993D01*
D66*
X0201227Y0066606D02*
X0153477Y0066606D01*
X0106727Y0066606D01*
X0106727Y0037079D02*
X0153477Y0037079D01*
X0201227Y0037079D01*
D67*
X0153477Y0037079D02*
X0153477Y0044165D01*
X0153477Y0059520D02*
X0153477Y0066606D01*
X0082227Y0177843D02*
X0037227Y0177843D01*
X0082227Y0177843D02*
X0082227Y0227843D01*
X0126426Y0272041D01*
X0126426Y0322850D01*
X0126426Y0336687D01*
X0110278Y0352835D01*
X0102270Y0360843D01*
X0078977Y0360843D01*
X0073683Y0355549D01*
X0073683Y0349823D01*
X0047077Y0349823D01*
X0043507Y0353394D01*
X0352227Y0106843D02*
X0359379Y0099691D01*
X0392227Y0099691D01*
X0392314Y0099604D01*
X0402977Y0099604D01*
X0402989Y0099593D01*
X0411227Y0099593D01*
X0411227Y0099550D01*
X0421357Y0089420D01*
X0421357Y0079578D01*
X0404477Y0079132D02*
X0402977Y0079382D01*
X0402977Y0088581D01*
X0402890Y0088494D01*
X0392227Y0088494D01*
X0404066Y0059893D02*
X0421357Y0059893D01*
X0404477Y0059053D02*
X0404066Y0059893D01*
X0500097Y0064814D02*
X0500097Y0069343D01*
X0500097Y0074656D01*
X0500347Y0069593D02*
X0514977Y0069593D01*
D68*
X0534388Y0067843D02*
X0537477Y0064754D01*
X0537477Y0059343D01*
X0537477Y0055333D01*
X0537967Y0054843D01*
X0537477Y0059343D02*
X0566977Y0059343D01*
X0574977Y0067343D01*
X0574977Y0069343D01*
X0574977Y0083744D01*
X0584575Y0093343D01*
X0597375Y0093343D02*
X0601739Y0088978D01*
X0601739Y0078604D01*
X0601739Y0076843D01*
X0612977Y0076843D01*
X0615727Y0079593D01*
X0623727Y0079593D01*
X0574977Y0068593D02*
X0574977Y0067343D01*
X0601227Y0167843D02*
X0601227Y0176093D01*
X0600977Y0176343D01*
X0601227Y0176343D01*
X0621227Y0176343D02*
X0621227Y0167843D01*
X0570461Y0206343D02*
X0570461Y0209858D01*
X0570461Y0215870D01*
X0564739Y0221593D01*
X0570211Y0276093D02*
X0570211Y0288620D01*
X0568489Y0290343D01*
X0384477Y0263343D02*
X0384477Y0194343D01*
X0249477Y0239593D02*
X0249477Y0245862D01*
X0248727Y0246612D01*
X0249727Y0263823D02*
X0248727Y0268323D01*
X0249727Y0263823D02*
X0249727Y0281093D01*
X0212727Y0267593D02*
X0212727Y0239843D01*
X0212727Y0204343D02*
X0212727Y0142366D01*
X0196977Y0142366D01*
X0196977Y0120319D02*
X0212727Y0120319D01*
X0216751Y0120319D01*
X0217227Y0119843D01*
X0217227Y0114843D01*
X0199227Y0120319D02*
X0196977Y0120319D01*
X0100278Y0312835D02*
X0091985Y0312835D01*
X0091977Y0312843D01*
D69*
X0100563Y0220378D02*
X0100578Y0220363D01*
X0100578Y0197635D01*
X0100578Y0171444D01*
X0077227Y0148093D01*
X0059050Y0125520D02*
X0039963Y0125520D01*
X0059050Y0125520D02*
X0065727Y0118843D01*
X0065727Y0087843D01*
X0086963Y0066606D01*
X0106727Y0066606D01*
X0106727Y0073093D01*
X0088227Y0091593D01*
X0088227Y0113093D01*
X0092477Y0117343D01*
X0106677Y0117343D01*
X0127277Y0117343D02*
X0149477Y0117343D01*
X0167024Y0134890D01*
X0175085Y0134890D01*
X0086477Y0037093D02*
X0058050Y0065520D01*
X0039963Y0065520D01*
X0086477Y0037093D02*
X0106264Y0037093D01*
X0041578Y0197635D02*
X0061193Y0217250D01*
X0061193Y0220378D01*
X0570461Y0206343D02*
X0585727Y0206343D01*
X0585727Y0206843D01*
X0584727Y0276093D02*
X0570211Y0276093D01*
X0584727Y0276093D02*
X0584727Y0276843D01*
D70*
X0249727Y0281093D03*
X0212727Y0267593D03*
X0212727Y0239843D03*
X0249477Y0239593D03*
X0212727Y0204343D03*
X0082227Y0177843D03*
X0217227Y0114843D03*
D71*
X0043507Y0353394D03*
D72*
X0157727Y0191593D03*
X0135977Y0176593D03*
X0125477Y0171093D03*
X0121467Y0163602D03*
X0135227Y0156343D03*
X0128477Y0149843D03*
X0128477Y0142093D03*
X0143977Y0144343D03*
X0187727Y0107843D03*
X0192727Y0099593D03*
X0190477Y0095593D03*
X0188977Y0091593D03*
X0186227Y0094593D03*
X0186977Y0087593D03*
X0228477Y0101093D03*
X0257977Y0104843D03*
X0266227Y0096093D03*
X0262727Y0092593D03*
X0236977Y0071593D03*
X0236977Y0061093D03*
X0241227Y0045843D03*
X0339477Y0025593D03*
X0356477Y0022843D03*
X0375977Y0043093D03*
X0382477Y0048843D03*
X0375727Y0059093D03*
X0358477Y0062843D03*
X0379977Y0076843D03*
X0375967Y0086593D03*
X0363477Y0088593D03*
X0377477Y0109343D03*
X0377477Y0121093D03*
X0389477Y0125843D03*
X0389477Y0132343D03*
X0419977Y0120093D03*
X0432727Y0111343D03*
X0438227Y0104343D03*
X0461227Y0100343D03*
X0464727Y0106343D03*
X0464977Y0111343D03*
X0485227Y0094093D03*
X0507727Y0100593D03*
X0519727Y0117093D03*
X0519727Y0129093D03*
X0513227Y0141343D03*
X0497727Y0152083D03*
X0491477Y0138343D03*
X0497727Y0120343D03*
X0461227Y0138843D03*
X0465227Y0148093D03*
X0538727Y0127843D03*
X0538727Y0118343D03*
X0546227Y0106843D03*
X0564977Y0102093D03*
X0586977Y0084843D03*
X0599477Y0081843D03*
X0586977Y0123593D03*
X0598727Y0130843D03*
X0584227Y0145593D03*
X0582227Y0149843D03*
X0596227Y0161093D03*
X0559977Y0138093D03*
X0571227Y0193093D03*
X0572477Y0209843D03*
X0570727Y0251843D03*
X0384477Y0263343D03*
X0384477Y0194343D03*
X0277268Y0145134D03*
X0268977Y0140093D03*
X0265977Y0143093D03*
X0315727Y0122093D03*
X0147227Y0100843D03*
X0130477Y0102093D03*
X0098477Y0018843D03*
X0509977Y0074843D03*
D73*
X0508977Y0079093D02*
X0503571Y0084499D01*
X0500097Y0084499D01*
X0500097Y0094341D02*
X0501598Y0095843D01*
X0513727Y0095843D01*
X0513987Y0095583D01*
X0513987Y0085593D01*
X0521467Y0085593D02*
X0529487Y0085593D01*
X0536967Y0085593D02*
X0536967Y0095764D01*
X0534388Y0098343D01*
X0544477Y0098343D01*
X0556227Y0110093D01*
X0556227Y0114843D01*
X0555977Y0117343D01*
X0555977Y0115343D01*
X0556227Y0115093D01*
X0575325Y0115093D01*
X0588125Y0115093D02*
X0597217Y0115093D01*
X0597477Y0114833D01*
X0600737Y0118093D01*
X0611477Y0118093D01*
X0619977Y0109593D01*
X0623727Y0109593D01*
X0623727Y0099593D02*
X0618977Y0099593D01*
X0611477Y0107093D01*
X0607477Y0107093D01*
X0607227Y0107343D01*
X0603487Y0107343D01*
X0597477Y0107352D01*
X0591467Y0107343D01*
X0562977Y0107343D01*
X0556227Y0100593D01*
X0556227Y0095843D01*
X0556227Y0086593D01*
X0548727Y0079093D01*
X0508977Y0079093D01*
X0514977Y0069593D02*
X0514987Y0069583D01*
X0514987Y0065764D01*
X0517066Y0067843D01*
X0514987Y0065764D02*
X0514987Y0054843D01*
X0522467Y0054843D02*
X0530487Y0054843D01*
X0530487Y0040343D02*
X0522467Y0040343D01*
X0514987Y0040343D02*
X0514987Y0031171D01*
X0518316Y0027843D01*
X0515917Y0025444D01*
X0500097Y0025444D01*
X0535638Y0027843D02*
X0537967Y0030171D01*
X0537967Y0030593D01*
X0539217Y0031843D01*
X0553477Y0031843D01*
X0564727Y0043093D01*
X0585575Y0043093D01*
X0597739Y0042457D02*
X0598375Y0043093D01*
X0602727Y0043093D01*
X0619227Y0059593D01*
X0623727Y0059593D01*
X0623727Y0049593D02*
X0609727Y0035593D01*
X0609727Y0023843D01*
X0604477Y0018593D01*
X0435227Y0018593D01*
X0098727Y0018593D01*
X0098477Y0018843D01*
X0236977Y0028593D02*
X0242227Y0023343D01*
X0316227Y0023343D01*
X0334727Y0041843D01*
X0342227Y0041843D01*
X0351977Y0051593D01*
X0362227Y0056093D02*
X0364977Y0056093D01*
X0364977Y0051843D01*
X0364977Y0056093D02*
X0367977Y0056093D01*
X0391217Y0039343D02*
X0399237Y0039343D01*
X0406717Y0029171D02*
X0420163Y0029171D01*
X0421357Y0030365D01*
X0435227Y0018593D02*
X0435227Y0094593D01*
X0424477Y0105343D01*
X0424477Y0109593D01*
X0424227Y0109843D01*
X0500097Y0069343D02*
X0500347Y0069593D01*
X0513727Y0095843D02*
X0517727Y0095843D01*
X0517066Y0096504D01*
X0517066Y0098343D01*
X0597375Y0093343D02*
X0597477Y0093343D01*
X0599477Y0081843D02*
X0601739Y0079581D01*
X0601739Y0078604D01*
X0597477Y0107352D02*
X0597487Y0113343D01*
X0598727Y0130843D02*
X0598727Y0135343D01*
X0598727Y0158593D01*
X0596227Y0161093D01*
X0597739Y0042457D02*
X0597739Y0027093D01*
X0572477Y0031843D02*
X0565227Y0031843D01*
X0537967Y0030593D02*
X0537967Y0040343D01*
X0389316Y0027181D02*
X0385477Y0023343D01*
X0362727Y0023343D01*
X0353227Y0032843D01*
X0336977Y0032843D01*
X0336977Y0026343D01*
X0337102Y0026218D01*
X0340477Y0022843D01*
X0356477Y0022843D01*
X0337227Y0032093D02*
X0336977Y0032843D01*
X0389066Y0026843D02*
X0389316Y0027181D01*
X0236977Y0028593D02*
X0236977Y0061093D01*
D74*
X0175085Y0156890D02*
X0175085Y0156951D01*
X0184727Y0166593D01*
X0190227Y0172093D01*
X0190227Y0202843D01*
X0175266Y0187882D01*
X0173585Y0187882D01*
X0190227Y0202843D02*
X0190227Y0237858D01*
X0175085Y0253000D01*
X0200227Y0253000D01*
X0200227Y0272593D01*
X0248727Y0321093D01*
X0248727Y0353362D01*
X0248707Y0347843D01*
X0324320Y0272685D02*
X0322477Y0270843D01*
X0322477Y0264843D01*
X0320227Y0262593D01*
X0249957Y0262593D01*
X0248727Y0268323D01*
X0249707Y0250593D02*
X0248727Y0246612D01*
X0249707Y0250593D02*
X0318977Y0250593D01*
X0322477Y0247093D01*
X0322477Y0238343D01*
X0324977Y0235843D01*
X0349727Y0235843D01*
X0355999Y0235843D01*
X0362841Y0242685D01*
X0349727Y0235843D02*
X0349727Y0211106D01*
X0336503Y0197882D01*
X0248477Y0188343D02*
X0248477Y0161593D01*
X0248477Y0188343D02*
X0200227Y0236593D01*
X0200227Y0253000D01*
X0091977Y0312843D02*
X0091977Y0329343D01*
X0088032Y0333287D01*
X0073683Y0333287D01*
X0091977Y0312843D02*
X0070719Y0291585D01*
X0041328Y0291585D01*
X0061193Y0271720D01*
X0061193Y0269591D01*
X0324320Y0272685D02*
X0336503Y0272685D01*
D75*
X0349018Y0276343D02*
X0350237Y0275124D01*
X0350237Y0268593D01*
X0350237Y0264419D01*
X0336503Y0250685D01*
X0355977Y0263593D02*
X0372477Y0247093D01*
X0372477Y0209843D01*
X0349727Y0187093D01*
X0349727Y0174343D01*
X0317477Y0142093D01*
X0271227Y0142093D01*
X0270227Y0143093D01*
X0265977Y0143093D01*
X0268977Y0140093D02*
X0318477Y0140093D01*
X0351727Y0173343D01*
X0351727Y0185843D01*
X0374727Y0208843D01*
X0374727Y0247843D01*
X0357717Y0264852D01*
X0357717Y0268593D01*
X0357717Y0268352D01*
X0357717Y0268593D02*
X0358727Y0269602D01*
X0358727Y0276093D01*
X0358977Y0276343D01*
X0360436Y0276343D01*
X0336503Y0175882D02*
X0322526Y0175882D01*
X0319227Y0172583D01*
X0312196Y0172583D01*
X0311977Y0172801D01*
X0315696Y0165102D02*
X0311977Y0161384D01*
X0295727Y0145134D01*
X0277268Y0145134D01*
X0271477Y0137843D02*
X0263727Y0130093D01*
X0259227Y0130093D01*
X0267852Y0131218D02*
X0272477Y0135843D01*
X0387977Y0135843D01*
X0395727Y0143593D01*
X0426477Y0143593D01*
X0426727Y0143343D01*
X0426727Y0139843D01*
X0426477Y0143593D02*
X0438097Y0143593D01*
X0438097Y0148593D02*
X0435477Y0148593D01*
X0432477Y0145593D01*
X0394727Y0145593D01*
X0386977Y0137843D01*
X0271477Y0137843D01*
X0271518Y0125343D02*
X0275477Y0125343D01*
X0271518Y0125343D02*
X0271477Y0125301D01*
X0282477Y0125593D02*
X0286131Y0125593D01*
X0291717Y0123949D02*
X0292823Y0125593D01*
X0291717Y0123949D02*
X0291717Y0118343D01*
X0299737Y0118343D01*
X0299727Y0118333D01*
X0299727Y0114343D01*
X0308727Y0105343D01*
X0309538Y0104574D01*
X0310977Y0103211D01*
X0311227Y0103461D01*
X0311227Y0108843D01*
X0313477Y0111093D01*
X0314727Y0111093D01*
X0318227Y0103211D02*
X0344109Y0129093D01*
X0394843Y0129093D01*
X0390727Y0133593D02*
X0389477Y0132343D01*
X0390727Y0133593D02*
X0431227Y0133593D01*
X0433977Y0136343D01*
X0438097Y0136343D01*
X0438097Y0131343D02*
X0418967Y0131343D01*
X0418217Y0129093D01*
X0410737Y0129093D02*
X0403111Y0129093D01*
X0389477Y0125843D02*
X0388227Y0127093D01*
X0344977Y0127093D01*
X0335977Y0118093D01*
X0335977Y0071295D01*
X0340680Y0066593D01*
X0340680Y0065843D01*
X0339727Y0056093D02*
X0336977Y0056093D01*
X0336977Y0053843D02*
X0337727Y0053093D01*
X0339727Y0053093D01*
X0358477Y0062843D02*
X0358609Y0062974D01*
X0360977Y0062974D01*
X0375727Y0064352D02*
X0375727Y0059093D01*
X0382477Y0057843D02*
X0364977Y0040343D01*
X0364977Y0036343D01*
X0371727Y0043093D01*
X0375977Y0043093D01*
X0382477Y0048843D02*
X0387227Y0044093D01*
X0411477Y0044093D01*
X0415727Y0039843D01*
X0415727Y0035995D01*
X0421357Y0030365D01*
X0382477Y0057843D02*
X0382477Y0074343D01*
X0379977Y0076843D01*
X0375727Y0071833D02*
X0375727Y0086352D01*
X0375967Y0086593D01*
X0363477Y0088593D02*
X0363477Y0073711D01*
X0362977Y0073211D01*
X0367727Y0073211D01*
X0362977Y0073211D02*
X0360977Y0073211D01*
X0318227Y0092974D02*
X0310977Y0092974D01*
X0310977Y0079262D01*
X0310058Y0078343D01*
X0302977Y0074593D02*
X0302977Y0066333D01*
X0303967Y0065343D01*
X0296487Y0065343D02*
X0296487Y0057593D01*
X0303967Y0057593D02*
X0303977Y0057583D01*
X0303977Y0053343D01*
X0300477Y0047093D02*
X0300467Y0047083D01*
X0296227Y0047083D01*
X0296227Y0039602D02*
X0291467Y0034843D01*
X0282977Y0034843D01*
X0282997Y0034862D01*
X0282997Y0039963D01*
X0287997Y0039963D02*
X0287997Y0044112D01*
X0288477Y0044593D01*
X0287997Y0054862D02*
X0277977Y0044843D01*
X0277977Y0039982D01*
X0277997Y0039963D01*
X0272997Y0039963D01*
X0266930Y0034843D02*
X0263680Y0038093D01*
X0266930Y0034843D02*
X0282977Y0034843D01*
X0258274Y0038593D02*
X0257774Y0038093D01*
X0248573Y0038093D01*
X0248323Y0037843D01*
X0248323Y0039746D01*
X0242227Y0045843D01*
X0241227Y0045843D01*
X0241727Y0041093D02*
X0241631Y0037843D01*
X0248323Y0037843D02*
X0249073Y0037093D01*
X0250227Y0044343D02*
X0250227Y0047102D01*
X0249477Y0048352D01*
X0249477Y0055833D02*
X0257227Y0055833D01*
X0265881Y0052093D02*
X0266227Y0052246D01*
X0265881Y0052093D02*
X0269727Y0052093D01*
X0258274Y0047305D02*
X0257227Y0048352D01*
X0258274Y0047305D02*
X0258274Y0038593D01*
X0287997Y0054862D02*
X0287997Y0061222D01*
X0295237Y0066593D02*
X0279727Y0066593D01*
X0277997Y0064862D01*
X0277997Y0061222D01*
X0295237Y0066593D02*
X0296487Y0065343D01*
X0301396Y0074602D02*
X0302967Y0074602D01*
X0302977Y0074593D01*
X0301396Y0082083D02*
X0301227Y0082252D01*
X0295727Y0095093D02*
X0291717Y0095093D01*
X0275427Y0095004D02*
X0275427Y0092445D01*
X0275427Y0089886D02*
X0269934Y0089886D01*
X0266227Y0093593D01*
X0266227Y0096093D01*
X0262727Y0092593D02*
X0260020Y0089886D01*
X0253027Y0089886D01*
X0253027Y0092445D02*
X0246926Y0092445D01*
X0245573Y0091093D01*
X0244467Y0089986D01*
X0244467Y0083843D01*
X0244467Y0076093D01*
X0252477Y0073852D02*
X0252477Y0069843D01*
X0249477Y0066843D01*
X0235727Y0066843D01*
X0220477Y0082093D01*
X0184567Y0082093D01*
X0183317Y0083343D01*
X0131317Y0083343D01*
X0122467Y0092193D01*
X0122467Y0100533D01*
X0124277Y0102343D01*
X0114987Y0092193D02*
X0116727Y0090452D01*
X0116727Y0090343D01*
X0119477Y0087593D01*
X0124227Y0087593D01*
X0130477Y0081343D01*
X0182477Y0081343D01*
X0183727Y0080093D01*
X0219477Y0080093D01*
X0234977Y0064593D01*
X0252477Y0064593D01*
X0260359Y0072474D01*
X0260477Y0072474D01*
X0260477Y0073843D01*
X0260727Y0081333D02*
X0252477Y0081333D01*
X0260477Y0081583D02*
X0260727Y0081333D01*
X0260477Y0081583D02*
X0260477Y0082711D01*
X0260477Y0082833D01*
X0257329Y0092445D02*
X0253027Y0092445D01*
X0253027Y0095004D02*
X0191066Y0095004D01*
X0190477Y0095593D01*
X0188977Y0091593D02*
X0234977Y0091593D01*
X0235477Y0091093D01*
X0238881Y0091093D01*
X0235487Y0085343D02*
X0236987Y0083843D01*
X0235487Y0085343D02*
X0232977Y0085343D01*
X0230727Y0087593D01*
X0186977Y0087593D01*
X0186227Y0094593D02*
X0186227Y0097593D01*
X0191227Y0102593D01*
X0194227Y0102593D01*
X0196698Y0100122D01*
X0227507Y0100122D01*
X0228477Y0101093D01*
X0229448Y0100122D01*
X0239853Y0100122D01*
X0243323Y0103593D01*
X0244507Y0103593D01*
X0247977Y0100122D01*
X0253027Y0100122D01*
X0253027Y0097563D02*
X0194757Y0097563D01*
X0192727Y0099593D01*
X0233477Y0103343D02*
X0236381Y0103343D01*
X0236631Y0103593D01*
X0237737Y0110843D02*
X0237737Y0118843D01*
X0237727Y0118852D01*
X0245217Y0118593D02*
X0245477Y0118852D01*
X0245217Y0110843D02*
X0247227Y0108833D01*
X0247227Y0104343D01*
X0248888Y0102681D01*
X0253027Y0102681D01*
X0253027Y0105240D02*
X0257579Y0105240D01*
X0257977Y0104843D01*
X0257727Y0105093D01*
X0259727Y0108093D02*
X0261477Y0106343D01*
X0261477Y0100843D01*
X0258477Y0097843D01*
X0258477Y0093593D01*
X0257329Y0092445D01*
X0259727Y0108093D02*
X0253320Y0108093D01*
X0253027Y0107799D01*
X0271477Y0113884D02*
X0273977Y0111384D01*
X0273977Y0107799D01*
X0291717Y0110593D02*
X0295727Y0110593D01*
X0299737Y0118343D02*
X0299737Y0126093D01*
X0307217Y0126093D02*
X0307227Y0126102D01*
X0306977Y0130343D01*
X0315727Y0122093D02*
X0311977Y0118343D01*
X0307217Y0118343D01*
X0311977Y0161384D02*
X0311977Y0163343D01*
X0315696Y0165102D02*
X0319227Y0165102D01*
X0377477Y0121093D02*
X0377477Y0109343D01*
X0419977Y0120093D02*
X0423727Y0120093D01*
X0424227Y0120593D01*
X0432727Y0111343D02*
X0438097Y0111343D01*
X0438097Y0106343D02*
X0438097Y0104472D01*
X0438227Y0104343D01*
X0459357Y0106343D02*
X0464727Y0106343D01*
X0461227Y0100343D02*
X0486477Y0100343D01*
X0489727Y0103593D01*
X0504977Y0103593D01*
X0508227Y0106843D01*
X0525727Y0106843D01*
X0525977Y0107093D01*
X0525977Y0111852D01*
X0519727Y0117093D02*
X0513477Y0110843D01*
X0495727Y0110843D01*
X0495467Y0110583D01*
X0495467Y0108593D01*
X0487987Y0108593D02*
X0483957Y0112622D01*
X0483957Y0117213D01*
X0478957Y0117213D01*
X0473957Y0117213D02*
X0473957Y0120823D01*
X0476727Y0123593D01*
X0530727Y0123593D01*
X0532227Y0122093D01*
X0547227Y0122093D01*
X0552227Y0127093D01*
X0586727Y0127093D01*
X0589227Y0129593D01*
X0589227Y0150343D01*
X0587977Y0153343D01*
X0592977Y0153343D02*
X0592977Y0128593D01*
X0595477Y0126093D01*
X0617227Y0126093D01*
X0623727Y0119593D01*
X0610977Y0112093D02*
X0618727Y0104343D01*
X0629977Y0104343D01*
X0633227Y0107593D01*
X0633227Y0155843D01*
X0621227Y0167843D01*
X0582227Y0153343D02*
X0582227Y0149843D01*
X0584227Y0145593D02*
X0584227Y0141833D01*
X0576477Y0141833D02*
X0575967Y0141323D01*
X0567607Y0141323D01*
X0563497Y0141323D01*
X0560467Y0144352D01*
X0560467Y0153593D01*
X0552987Y0153593D02*
X0552977Y0154083D01*
X0552977Y0144343D01*
X0549957Y0141323D01*
X0546347Y0141323D01*
X0543207Y0141323D01*
X0539987Y0138102D01*
X0537977Y0138102D01*
X0538737Y0138102D01*
X0537977Y0138102D02*
X0530227Y0138102D01*
X0528737Y0138102D01*
X0519727Y0129093D01*
X0513227Y0130352D02*
X0505477Y0130352D01*
X0497727Y0130352D01*
X0488217Y0130352D01*
X0483977Y0134593D01*
X0483977Y0138453D01*
X0483957Y0138472D01*
X0478957Y0138472D02*
X0478957Y0131862D01*
X0484977Y0125843D01*
X0531727Y0125843D01*
X0532977Y0124593D01*
X0546477Y0124593D01*
X0559977Y0138093D01*
X0567607Y0136323D02*
X0574507Y0136323D01*
X0576477Y0134352D01*
X0584227Y0134352D01*
X0576467Y0141823D02*
X0576477Y0141833D01*
X0575227Y0153496D02*
X0575323Y0153593D01*
X0598487Y0135593D02*
X0600477Y0135593D01*
X0598727Y0135343D01*
X0605967Y0135593D02*
X0613343Y0135593D01*
X0621611Y0135593D02*
X0621611Y0131976D01*
X0621477Y0131843D01*
X0610977Y0112093D02*
X0607477Y0112093D01*
X0607477Y0101343D02*
X0607477Y0099093D01*
X0601977Y0098843D02*
X0568227Y0098843D01*
X0564977Y0102093D01*
X0546227Y0106843D02*
X0525727Y0106843D01*
X0507727Y0100593D02*
X0491727Y0100593D01*
X0485227Y0094093D01*
X0464977Y0111343D02*
X0459357Y0111343D01*
X0459357Y0131343D02*
X0464727Y0131343D01*
X0460977Y0136343D02*
X0461227Y0136593D01*
X0461227Y0138843D01*
X0460977Y0136343D02*
X0459357Y0136343D01*
X0459357Y0143593D02*
X0469217Y0143593D01*
X0471477Y0146602D01*
X0465227Y0148093D02*
X0464727Y0148593D01*
X0459357Y0148593D01*
X0471477Y0138593D02*
X0471597Y0138472D01*
X0473957Y0138472D01*
X0478957Y0138472D02*
X0478957Y0145583D01*
X0479227Y0146602D01*
X0489227Y0146602D01*
X0497987Y0145593D02*
X0497987Y0138093D01*
X0497727Y0137833D01*
X0497217Y0138343D01*
X0491477Y0138343D01*
X0489087Y0138343D01*
X0488957Y0138472D01*
X0505477Y0137833D02*
X0505477Y0145583D01*
X0505467Y0145593D01*
X0513227Y0145852D02*
X0513227Y0141343D01*
X0513227Y0137833D01*
X0521727Y0142081D02*
X0520227Y0146093D01*
X0530227Y0145583D02*
X0530227Y0153583D01*
X0530237Y0153593D01*
X0522215Y0153593D01*
X0521727Y0153104D01*
X0521499Y0153333D01*
X0513227Y0153333D01*
X0537717Y0153593D02*
X0537717Y0145843D01*
X0537977Y0145583D01*
X0538717Y0146323D01*
X0546347Y0146323D01*
X0539217Y0146823D02*
X0537977Y0145583D01*
X0546367Y0136843D02*
X0546347Y0136323D01*
X0550707Y0136323D01*
X0550727Y0136343D01*
X0546347Y0131323D02*
X0539554Y0131323D01*
X0538823Y0130593D01*
X0532131Y0130593D02*
X0528727Y0130593D01*
X0524217Y0121093D02*
X0525977Y0119333D01*
X0524217Y0121093D02*
X0498977Y0121093D01*
X0498227Y0120343D01*
X0497727Y0120343D01*
X0482977Y0154093D02*
X0479227Y0154083D01*
X0601977Y0098843D02*
X0611227Y0089593D01*
X0623727Y0089593D01*
X0574977Y0069343D02*
X0569477Y0074843D01*
X0509977Y0074843D01*
X0364977Y0036343D02*
X0364977Y0032843D01*
X0364977Y0027843D01*
X0365227Y0027593D01*
X0339477Y0025593D02*
X0337727Y0025593D01*
X0337102Y0026218D01*
X0336977Y0032843D02*
X0336977Y0035593D01*
X0175719Y0157524D02*
X0175085Y0156890D01*
X0184727Y0166593D02*
X0180028Y0171291D01*
X0179469Y0171291D01*
X0152217Y0173593D02*
X0152217Y0181624D01*
X0152227Y0181634D01*
X0144737Y0173593D02*
X0142227Y0173593D01*
X0128477Y0159843D01*
X0128477Y0149843D01*
X0118727Y0165602D02*
X0118477Y0165612D01*
X0118727Y0173083D02*
X0123487Y0173083D01*
X0125477Y0171093D01*
X0118727Y0173083D02*
X0118467Y0174843D01*
X0152227Y0193051D02*
X0156268Y0193051D01*
X0157727Y0191593D01*
X0109677Y0102343D02*
X0109677Y0097502D01*
X0114987Y0092193D01*
X0553227Y0288843D02*
X0554727Y0290343D01*
X0557465Y0290343D01*
X0556965Y0292343D01*
X0553727Y0292343D01*
X0553227Y0291843D01*
D76*
X0570211Y0256093D02*
X0570727Y0255577D01*
X0570727Y0251843D01*
X0557727Y0223343D02*
X0557727Y0219843D01*
X0553715Y0221593D01*
X0571227Y0193093D02*
X0571227Y0187108D01*
X0570461Y0186343D01*
X0570227Y0186577D01*
X0568727Y0158843D02*
X0593977Y0158843D01*
X0596227Y0161093D01*
X0575227Y0153496D02*
X0575227Y0150343D01*
X0568631Y0147846D02*
X0567607Y0146323D01*
X0568631Y0147846D02*
X0568631Y0153593D01*
X0568727Y0153689D01*
X0568727Y0158843D01*
X0497727Y0158843D01*
X0497727Y0152083D01*
X0489227Y0154083D02*
X0489227Y0158843D01*
X0497727Y0158843D01*
X0489227Y0158843D02*
X0473477Y0158843D01*
X0471477Y0156843D01*
X0471477Y0154083D01*
X0430227Y0124593D02*
X0428727Y0126093D01*
X0430227Y0124593D02*
X0430227Y0116093D01*
X0428977Y0114843D01*
X0424227Y0114843D01*
X0488957Y0117213D02*
X0496510Y0117213D01*
X0496881Y0116843D01*
X0497727Y0117189D01*
X0497727Y0120343D01*
X0503477Y0116939D02*
X0503573Y0116843D01*
X0503477Y0116939D02*
X0507227Y0116843D01*
X0538727Y0118343D02*
X0548227Y0118343D01*
X0553477Y0123593D01*
X0586977Y0123593D01*
X0567607Y0131323D02*
X0567377Y0131593D01*
X0563227Y0131593D01*
X0538823Y0130593D02*
X0538823Y0127939D01*
X0538727Y0127843D01*
X0586977Y0084843D02*
X0586977Y0084593D01*
X0584227Y0081843D01*
X0584227Y0070343D01*
X0597977Y0056593D01*
X0597977Y0043490D01*
X0598375Y0043093D01*
X0586715Y0027093D02*
X0583727Y0027093D01*
X0582227Y0025593D01*
X0572477Y0031843D02*
X0570977Y0030343D01*
X0570977Y0028843D01*
X0590715Y0076843D02*
X0592215Y0078343D01*
X0595227Y0078343D01*
X0406717Y0039343D02*
X0406717Y0029171D01*
X0406388Y0026843D01*
X0389066Y0026843D02*
X0383737Y0032171D01*
X0383737Y0039343D01*
X0351977Y0051593D02*
X0351977Y0054545D01*
X0340680Y0065843D01*
X0336977Y0056093D02*
X0336977Y0053843D01*
X0336977Y0051843D01*
X0367727Y0062974D02*
X0374349Y0062974D01*
X0375727Y0064352D01*
X0280227Y0073593D02*
X0276217Y0073593D01*
X0272997Y0061222D02*
X0268010Y0061222D01*
X0266227Y0058939D01*
X0263573Y0061093D01*
X0236977Y0061093D01*
X0236977Y0071593D02*
X0236987Y0071852D01*
X0236987Y0076093D01*
X0233977Y0076093D01*
X0225727Y0084343D01*
X0185477Y0084343D01*
X0184227Y0085593D01*
X0150227Y0085593D01*
X0148237Y0087583D01*
X0148237Y0090343D01*
X0140487Y0090343D01*
X0140227Y0090602D01*
X0147131Y0091449D02*
X0148237Y0090343D01*
X0147131Y0091449D02*
X0147131Y0097593D01*
X0147227Y0097689D01*
X0147227Y0100843D01*
X0153823Y0098189D02*
X0157727Y0102093D01*
X0181977Y0102093D01*
X0187727Y0107843D01*
X0155717Y0095699D02*
X0155717Y0090343D01*
X0155717Y0095699D02*
X0153823Y0097593D01*
X0153823Y0098189D01*
X0140227Y0098083D02*
X0136217Y0102093D01*
X0130477Y0102093D01*
X0139487Y0098083D02*
X0140227Y0098083D01*
X0128477Y0142093D02*
X0137477Y0151093D01*
X0147977Y0151093D01*
X0148131Y0151246D01*
X0148131Y0151843D01*
X0148131Y0145093D01*
X0147381Y0144343D01*
X0143977Y0144343D01*
X0148131Y0151843D02*
X0148131Y0158593D01*
X0152977Y0162843D02*
X0154823Y0160996D01*
X0154823Y0158593D01*
X0173383Y0158593D01*
X0175085Y0156890D01*
X0154823Y0158593D02*
X0154823Y0151843D01*
X0154823Y0145093D01*
X0141727Y0162843D02*
X0135227Y0156343D01*
X0141727Y0162843D02*
X0152977Y0162843D01*
X0135977Y0176593D02*
X0135977Y0197384D01*
X0145977Y0207384D01*
X0148946Y0210352D01*
X0153477Y0210352D01*
X0153477Y0217833D02*
X0152509Y0218801D01*
X0145977Y0218801D01*
X0153477Y0217833D02*
X0153477Y0230852D01*
X0153477Y0238333D02*
X0153477Y0253392D01*
X0175085Y0275000D01*
X0175085Y0231000D02*
X0168385Y0231000D01*
X0155217Y0217833D01*
X0153477Y0217833D01*
X0117967Y0166843D02*
X0118727Y0165602D01*
X0117967Y0166843D02*
X0121467Y0163602D01*
X0271727Y0093593D02*
X0275227Y0093593D01*
X0619977Y0282343D02*
X0620227Y0282343D01*
X0624577Y0282343D01*
X0624727Y0282193D01*
X0620227Y0282343D02*
X0620227Y0287093D01*
D77*
X0618556Y0286493D02*
X0618225Y0286404D01*
X0617929Y0286233D01*
X0617687Y0285991D01*
X0617516Y0285694D01*
X0617427Y0285364D01*
X0617427Y0282692D01*
X0624227Y0282692D01*
X0624227Y0281693D01*
X0617427Y0281693D01*
X0617427Y0279021D01*
X0617516Y0278691D01*
X0617687Y0278394D01*
X0617929Y0278152D01*
X0618225Y0277981D01*
X0618556Y0277893D01*
X0624227Y0277893D01*
X0624227Y0281692D01*
X0625227Y0281692D01*
X0625227Y0277893D01*
X0630898Y0277893D01*
X0631229Y0277981D01*
X0631525Y0278152D01*
X0631767Y0278394D01*
X0631938Y0278691D01*
X0632027Y0279021D01*
X0632027Y0281693D01*
X0625227Y0281693D01*
X0625227Y0282692D01*
X0632027Y0282692D01*
X0632027Y0285364D01*
X0631938Y0285694D01*
X0631767Y0285991D01*
X0631525Y0286233D01*
X0631229Y0286404D01*
X0630898Y0286493D01*
X0625227Y0286493D01*
X0625227Y0282693D01*
X0624227Y0282693D01*
X0624227Y0286493D01*
X0618556Y0286493D01*
X0618340Y0286435D02*
X0612727Y0286435D01*
X0612727Y0286843D02*
X0635266Y0286843D01*
X0635266Y0261707D01*
X0634948Y0261793D01*
X0627277Y0261793D01*
X0627277Y0258843D01*
X0626277Y0258843D01*
X0626277Y0261793D01*
X0618606Y0261793D01*
X0618275Y0261704D01*
X0617979Y0261533D01*
X0617737Y0261291D01*
X0617566Y0260994D01*
X0617477Y0260664D01*
X0617477Y0258842D01*
X0626277Y0258842D01*
X0626277Y0257843D01*
X0617477Y0257843D01*
X0617477Y0256021D01*
X0617566Y0255691D01*
X0617737Y0255394D01*
X0617979Y0255152D01*
X0618275Y0254981D01*
X0618606Y0254893D01*
X0626277Y0254893D01*
X0626277Y0257842D01*
X0627277Y0257842D01*
X0627277Y0254893D01*
X0634948Y0254893D01*
X0635266Y0254978D01*
X0635266Y0228207D01*
X0634948Y0228293D01*
X0627277Y0228293D01*
X0627277Y0225343D01*
X0626277Y0225343D01*
X0626277Y0228293D01*
X0618606Y0228293D01*
X0618275Y0228204D01*
X0617979Y0228033D01*
X0617737Y0227791D01*
X0617566Y0227494D01*
X0617477Y0227164D01*
X0617477Y0225342D01*
X0626277Y0225342D01*
X0626277Y0224343D01*
X0617477Y0224343D01*
X0617477Y0222521D01*
X0617566Y0222191D01*
X0617737Y0221894D01*
X0617979Y0221652D01*
X0618275Y0221481D01*
X0618606Y0221393D01*
X0626277Y0221393D01*
X0626277Y0224342D01*
X0627277Y0224342D01*
X0627277Y0221393D01*
X0634948Y0221393D01*
X0635266Y0221478D01*
X0635266Y0174843D01*
X0612727Y0174843D01*
X0612727Y0286843D01*
X0612727Y0285436D02*
X0617446Y0285436D01*
X0617427Y0284438D02*
X0612727Y0284438D01*
X0612727Y0283439D02*
X0617427Y0283439D01*
X0617427Y0281442D02*
X0612727Y0281442D01*
X0612727Y0280444D02*
X0617427Y0280444D01*
X0617427Y0279445D02*
X0612727Y0279445D01*
X0612727Y0278447D02*
X0617657Y0278447D01*
X0612727Y0277448D02*
X0635266Y0277448D01*
X0635266Y0276450D02*
X0612727Y0276450D01*
X0612727Y0275451D02*
X0635266Y0275451D01*
X0635266Y0274452D02*
X0612727Y0274452D01*
X0612727Y0273454D02*
X0635266Y0273454D01*
X0635266Y0272455D02*
X0612727Y0272455D01*
X0612727Y0271457D02*
X0635266Y0271457D01*
X0635266Y0270458D02*
X0612727Y0270458D01*
X0612727Y0269460D02*
X0635266Y0269460D01*
X0635266Y0268461D02*
X0612727Y0268461D01*
X0612727Y0267463D02*
X0635266Y0267463D01*
X0635266Y0266464D02*
X0612727Y0266464D01*
X0612727Y0265466D02*
X0635266Y0265466D01*
X0635266Y0264467D02*
X0612727Y0264467D01*
X0612727Y0263469D02*
X0635266Y0263469D01*
X0635266Y0262470D02*
X0612727Y0262470D01*
X0612727Y0261472D02*
X0617918Y0261472D01*
X0617477Y0260473D02*
X0612727Y0260473D01*
X0612727Y0259475D02*
X0617477Y0259475D01*
X0617477Y0257478D02*
X0612727Y0257478D01*
X0612727Y0258476D02*
X0626277Y0258476D01*
X0626277Y0257478D02*
X0627277Y0257478D01*
X0627277Y0256479D02*
X0626277Y0256479D01*
X0626277Y0255481D02*
X0627277Y0255481D01*
X0627277Y0259475D02*
X0626277Y0259475D01*
X0626277Y0260473D02*
X0627277Y0260473D01*
X0627277Y0261472D02*
X0626277Y0261472D01*
X0617477Y0256479D02*
X0612727Y0256479D01*
X0612727Y0255481D02*
X0617687Y0255481D01*
X0612727Y0254482D02*
X0635266Y0254482D01*
X0635266Y0253484D02*
X0612727Y0253484D01*
X0612727Y0252485D02*
X0635266Y0252485D01*
X0635266Y0251487D02*
X0612727Y0251487D01*
X0612727Y0250488D02*
X0635266Y0250488D01*
X0635266Y0249490D02*
X0612727Y0249490D01*
X0612727Y0248491D02*
X0635266Y0248491D01*
X0635266Y0247493D02*
X0612727Y0247493D01*
X0612727Y0246494D02*
X0635266Y0246494D01*
X0635266Y0245496D02*
X0612727Y0245496D01*
X0612727Y0244497D02*
X0635266Y0244497D01*
X0635266Y0243499D02*
X0612727Y0243499D01*
X0612727Y0242500D02*
X0635266Y0242500D01*
X0635266Y0241502D02*
X0612727Y0241502D01*
X0612727Y0240503D02*
X0635266Y0240503D01*
X0635266Y0239505D02*
X0612727Y0239505D01*
X0612727Y0238506D02*
X0635266Y0238506D01*
X0635266Y0237508D02*
X0612727Y0237508D01*
X0612727Y0236509D02*
X0635266Y0236509D01*
X0635266Y0235511D02*
X0612727Y0235511D01*
X0612727Y0234512D02*
X0635266Y0234512D01*
X0635266Y0233514D02*
X0612727Y0233514D01*
X0612727Y0232515D02*
X0635266Y0232515D01*
X0635266Y0231516D02*
X0612727Y0231516D01*
X0612727Y0230518D02*
X0635266Y0230518D01*
X0635266Y0229519D02*
X0612727Y0229519D01*
X0612727Y0228521D02*
X0635266Y0228521D01*
X0627277Y0227522D02*
X0626277Y0227522D01*
X0626277Y0226524D02*
X0627277Y0226524D01*
X0627277Y0225525D02*
X0626277Y0225525D01*
X0626277Y0224527D02*
X0612727Y0224527D01*
X0612727Y0225525D02*
X0617477Y0225525D01*
X0617477Y0226524D02*
X0612727Y0226524D01*
X0612727Y0227522D02*
X0617582Y0227522D01*
X0617477Y0223528D02*
X0612727Y0223528D01*
X0612727Y0222530D02*
X0617477Y0222530D01*
X0618188Y0221531D02*
X0612727Y0221531D01*
X0612727Y0220533D02*
X0635266Y0220533D01*
X0635266Y0219534D02*
X0612727Y0219534D01*
X0612727Y0218536D02*
X0635266Y0218536D01*
X0635266Y0217537D02*
X0612727Y0217537D01*
X0612727Y0216539D02*
X0635266Y0216539D01*
X0635266Y0215540D02*
X0612727Y0215540D01*
X0612727Y0214542D02*
X0635266Y0214542D01*
X0635266Y0213543D02*
X0612727Y0213543D01*
X0612727Y0212545D02*
X0635266Y0212545D01*
X0635266Y0211546D02*
X0612727Y0211546D01*
X0612727Y0210548D02*
X0635266Y0210548D01*
X0635266Y0209549D02*
X0612727Y0209549D01*
X0612727Y0208551D02*
X0635266Y0208551D01*
X0635266Y0207552D02*
X0612727Y0207552D01*
X0612727Y0206554D02*
X0635266Y0206554D01*
X0635266Y0205555D02*
X0612727Y0205555D01*
X0612727Y0204557D02*
X0635266Y0204557D01*
X0635266Y0203558D02*
X0612727Y0203558D01*
X0612727Y0202560D02*
X0635266Y0202560D01*
X0635266Y0201561D02*
X0612727Y0201561D01*
X0612727Y0200563D02*
X0635266Y0200563D01*
X0635266Y0199564D02*
X0612727Y0199564D01*
X0612727Y0198566D02*
X0635266Y0198566D01*
X0635266Y0197567D02*
X0612727Y0197567D01*
X0612727Y0196569D02*
X0635266Y0196569D01*
X0635266Y0195570D02*
X0612727Y0195570D01*
X0612727Y0194572D02*
X0635266Y0194572D01*
X0635266Y0193573D02*
X0612727Y0193573D01*
X0612727Y0192575D02*
X0635266Y0192575D01*
X0635266Y0191576D02*
X0612727Y0191576D01*
X0612727Y0190578D02*
X0616795Y0190578D01*
X0617244Y0191026D02*
X0614061Y0187843D01*
X0614061Y0186092D01*
X0618995Y0186092D01*
X0618995Y0185093D01*
X0614061Y0185093D01*
X0614061Y0183342D01*
X0617244Y0180159D01*
X0618995Y0180159D01*
X0618995Y0185092D01*
X0619995Y0185092D01*
X0619995Y0180159D01*
X0621746Y0180159D01*
X0624929Y0183342D01*
X0624929Y0185093D01*
X0619995Y0185093D01*
X0619995Y0186092D01*
X0624929Y0186092D01*
X0624929Y0187843D01*
X0621746Y0191026D01*
X0619995Y0191026D01*
X0619995Y0186093D01*
X0618995Y0186093D01*
X0618995Y0191026D01*
X0617244Y0191026D01*
X0618995Y0190578D02*
X0619995Y0190578D01*
X0619995Y0189579D02*
X0618995Y0189579D01*
X0618995Y0188581D02*
X0619995Y0188581D01*
X0619995Y0187582D02*
X0618995Y0187582D01*
X0618995Y0186583D02*
X0619995Y0186583D01*
X0619995Y0185585D02*
X0635266Y0185585D01*
X0635266Y0186583D02*
X0624929Y0186583D01*
X0624929Y0187582D02*
X0635266Y0187582D01*
X0635266Y0188581D02*
X0624191Y0188581D01*
X0623193Y0189579D02*
X0635266Y0189579D01*
X0635266Y0190578D02*
X0622194Y0190578D01*
X0615797Y0189579D02*
X0612727Y0189579D01*
X0612727Y0188581D02*
X0614798Y0188581D01*
X0614061Y0187582D02*
X0612727Y0187582D01*
X0612727Y0186583D02*
X0614061Y0186583D01*
X0612727Y0185585D02*
X0618995Y0185585D01*
X0618995Y0184586D02*
X0619995Y0184586D01*
X0619995Y0183588D02*
X0618995Y0183588D01*
X0618995Y0182589D02*
X0619995Y0182589D01*
X0619995Y0181591D02*
X0618995Y0181591D01*
X0618995Y0180592D02*
X0619995Y0180592D01*
X0622179Y0180592D02*
X0635266Y0180592D01*
X0635266Y0179594D02*
X0612727Y0179594D01*
X0612727Y0180592D02*
X0616810Y0180592D01*
X0615812Y0181591D02*
X0612727Y0181591D01*
X0612727Y0182589D02*
X0614813Y0182589D01*
X0614061Y0183588D02*
X0612727Y0183588D01*
X0612727Y0184586D02*
X0614061Y0184586D01*
X0609727Y0184586D02*
X0608393Y0184586D01*
X0608393Y0185093D02*
X0603459Y0185093D01*
X0603459Y0186092D01*
X0608393Y0186092D01*
X0608393Y0187843D01*
X0605210Y0191026D01*
X0603459Y0191026D01*
X0603459Y0186093D01*
X0602459Y0186093D01*
X0602459Y0191026D01*
X0600709Y0191026D01*
X0597525Y0187843D01*
X0597525Y0186092D01*
X0602459Y0186092D01*
X0602459Y0185093D01*
X0597525Y0185093D01*
X0597525Y0183342D01*
X0600709Y0180159D01*
X0602459Y0180159D01*
X0602459Y0185092D01*
X0603459Y0185092D01*
X0603459Y0180159D01*
X0605210Y0180159D01*
X0608393Y0183342D01*
X0608393Y0185093D01*
X0609727Y0185585D02*
X0603459Y0185585D01*
X0603459Y0186583D02*
X0602459Y0186583D01*
X0602459Y0185585D02*
X0590166Y0185585D01*
X0589168Y0186583D02*
X0597525Y0186583D01*
X0597525Y0187582D02*
X0581727Y0187582D01*
X0581727Y0188581D02*
X0598263Y0188581D01*
X0599261Y0189579D02*
X0581727Y0189579D01*
X0581727Y0190578D02*
X0600260Y0190578D01*
X0602459Y0190578D02*
X0603459Y0190578D01*
X0603459Y0189579D02*
X0602459Y0189579D01*
X0602459Y0188581D02*
X0603459Y0188581D01*
X0603459Y0187582D02*
X0602459Y0187582D01*
X0602459Y0184586D02*
X0603459Y0184586D01*
X0603459Y0183588D02*
X0602459Y0183588D01*
X0602459Y0182589D02*
X0603459Y0182589D01*
X0603459Y0181591D02*
X0602459Y0181591D01*
X0602459Y0180592D02*
X0603459Y0180592D01*
X0605644Y0180592D02*
X0609727Y0180592D01*
X0609727Y0179594D02*
X0590660Y0179594D01*
X0591525Y0180459D02*
X0588861Y0177794D01*
X0587477Y0177794D01*
X0587477Y0181842D01*
X0586477Y0181842D01*
X0586477Y0177794D01*
X0585093Y0177794D01*
X0582429Y0180459D01*
X0582429Y0181843D01*
X0586477Y0181843D01*
X0586477Y0182842D01*
X0582429Y0182842D01*
X0582429Y0184226D01*
X0585093Y0186891D01*
X0586477Y0186891D01*
X0586477Y0182843D01*
X0587477Y0182843D01*
X0587477Y0186891D01*
X0588861Y0186891D01*
X0591525Y0184226D01*
X0591525Y0182842D01*
X0587477Y0182842D01*
X0587477Y0181843D01*
X0591525Y0181843D01*
X0591525Y0180459D01*
X0591525Y0180592D02*
X0600275Y0180592D01*
X0599276Y0181591D02*
X0591525Y0181591D01*
X0591525Y0183588D02*
X0597525Y0183588D01*
X0597525Y0184586D02*
X0591165Y0184586D01*
X0587477Y0184586D02*
X0586477Y0184586D01*
X0586477Y0183588D02*
X0587477Y0183588D01*
X0587477Y0182589D02*
X0598278Y0182589D01*
X0606642Y0181591D02*
X0609727Y0181591D01*
X0609727Y0182589D02*
X0607641Y0182589D01*
X0608393Y0183588D02*
X0609727Y0183588D01*
X0609727Y0186583D02*
X0608393Y0186583D01*
X0608393Y0187582D02*
X0609727Y0187582D01*
X0609727Y0188581D02*
X0607656Y0188581D01*
X0606657Y0189579D02*
X0609727Y0189579D01*
X0609727Y0190578D02*
X0605659Y0190578D01*
X0609727Y0191576D02*
X0581727Y0191576D01*
X0581727Y0192575D02*
X0609727Y0192575D01*
X0609727Y0193573D02*
X0581727Y0193573D01*
X0581727Y0194572D02*
X0609727Y0194572D01*
X0609727Y0195570D02*
X0581727Y0195570D01*
X0581727Y0196569D02*
X0609727Y0196569D01*
X0609727Y0197567D02*
X0581727Y0197567D01*
X0581727Y0198566D02*
X0609727Y0198566D01*
X0609727Y0199564D02*
X0581727Y0199564D01*
X0581727Y0200563D02*
X0609727Y0200563D01*
X0609727Y0201561D02*
X0581727Y0201561D01*
X0581727Y0202560D02*
X0609727Y0202560D01*
X0609727Y0203558D02*
X0581727Y0203558D01*
X0581727Y0204557D02*
X0609727Y0204557D01*
X0609727Y0205555D02*
X0581727Y0205555D01*
X0581727Y0206554D02*
X0609727Y0206554D01*
X0609727Y0207552D02*
X0581727Y0207552D01*
X0581727Y0208551D02*
X0609727Y0208551D01*
X0609727Y0209549D02*
X0581727Y0209549D01*
X0581727Y0210548D02*
X0609727Y0210548D01*
X0609727Y0211546D02*
X0581727Y0211546D01*
X0581727Y0212545D02*
X0609727Y0212545D01*
X0609727Y0213543D02*
X0581727Y0213543D01*
X0581727Y0214542D02*
X0609727Y0214542D01*
X0609727Y0215540D02*
X0581727Y0215540D01*
X0581727Y0216539D02*
X0609727Y0216539D01*
X0609727Y0217537D02*
X0581727Y0217537D01*
X0581727Y0218536D02*
X0609727Y0218536D01*
X0609727Y0219534D02*
X0581727Y0219534D01*
X0581727Y0220533D02*
X0609727Y0220533D01*
X0609727Y0221393D02*
X0609727Y0174843D01*
X0585727Y0174843D01*
X0581727Y0178843D01*
X0581727Y0293843D01*
X0574727Y0300843D01*
X0424727Y0300843D01*
X0413727Y0311843D01*
X0413727Y0362476D01*
X0593093Y0362476D01*
X0612727Y0342843D01*
X0612727Y0289843D01*
X0612130Y0289843D01*
X0611028Y0289386D01*
X0610184Y0288542D01*
X0609727Y0287439D01*
X0609727Y0261793D01*
X0602677Y0261793D01*
X0602677Y0258843D01*
X0601677Y0258843D01*
X0601677Y0261793D01*
X0594006Y0261793D01*
X0593675Y0261704D01*
X0593379Y0261533D01*
X0593137Y0261291D01*
X0592966Y0260994D01*
X0592877Y0260664D01*
X0592877Y0258842D01*
X0601677Y0258842D01*
X0601677Y0257843D01*
X0592877Y0257843D01*
X0592877Y0256021D01*
X0592966Y0255691D01*
X0593137Y0255394D01*
X0593379Y0255152D01*
X0593675Y0254981D01*
X0594006Y0254893D01*
X0601677Y0254893D01*
X0601677Y0257842D01*
X0602677Y0257842D01*
X0602677Y0254893D01*
X0609727Y0254893D01*
X0609727Y0228293D01*
X0602677Y0228293D01*
X0602677Y0225343D01*
X0601677Y0225343D01*
X0601677Y0228293D01*
X0594006Y0228293D01*
X0593675Y0228204D01*
X0593379Y0228033D01*
X0593137Y0227791D01*
X0592966Y0227494D01*
X0592877Y0227164D01*
X0592877Y0225342D01*
X0601677Y0225342D01*
X0601677Y0224343D01*
X0592877Y0224343D01*
X0592877Y0222521D01*
X0592966Y0222191D01*
X0593137Y0221894D01*
X0593379Y0221652D01*
X0593675Y0221481D01*
X0594006Y0221393D01*
X0601677Y0221393D01*
X0601677Y0224342D01*
X0602677Y0224342D01*
X0602677Y0221393D01*
X0609727Y0221393D01*
X0602677Y0221531D02*
X0601677Y0221531D01*
X0601677Y0222530D02*
X0602677Y0222530D01*
X0602677Y0223528D02*
X0601677Y0223528D01*
X0601677Y0224527D02*
X0581727Y0224527D01*
X0581727Y0225525D02*
X0592877Y0225525D01*
X0592877Y0226524D02*
X0581727Y0226524D01*
X0581727Y0227522D02*
X0592982Y0227522D01*
X0592877Y0223528D02*
X0581727Y0223528D01*
X0581727Y0222530D02*
X0592877Y0222530D01*
X0593588Y0221531D02*
X0581727Y0221531D01*
X0581727Y0228521D02*
X0609727Y0228521D01*
X0609727Y0229519D02*
X0581727Y0229519D01*
X0581727Y0230518D02*
X0609727Y0230518D01*
X0609727Y0231516D02*
X0581727Y0231516D01*
X0581727Y0232515D02*
X0609727Y0232515D01*
X0609727Y0233514D02*
X0581727Y0233514D01*
X0581727Y0234512D02*
X0609727Y0234512D01*
X0609727Y0235511D02*
X0581727Y0235511D01*
X0581727Y0236509D02*
X0609727Y0236509D01*
X0609727Y0237508D02*
X0581727Y0237508D01*
X0581727Y0238506D02*
X0609727Y0238506D01*
X0609727Y0239505D02*
X0581727Y0239505D01*
X0581727Y0240503D02*
X0609727Y0240503D01*
X0609727Y0241502D02*
X0581727Y0241502D01*
X0581727Y0242500D02*
X0609727Y0242500D01*
X0609727Y0243499D02*
X0581727Y0243499D01*
X0581727Y0244497D02*
X0609727Y0244497D01*
X0609727Y0245496D02*
X0581727Y0245496D01*
X0581727Y0246494D02*
X0609727Y0246494D01*
X0609727Y0247493D02*
X0581727Y0247493D01*
X0581727Y0248491D02*
X0609727Y0248491D01*
X0609727Y0249490D02*
X0581727Y0249490D01*
X0581727Y0250488D02*
X0609727Y0250488D01*
X0609727Y0251487D02*
X0581727Y0251487D01*
X0581727Y0252485D02*
X0609727Y0252485D01*
X0609727Y0253484D02*
X0581727Y0253484D01*
X0581727Y0254482D02*
X0609727Y0254482D01*
X0602677Y0255481D02*
X0601677Y0255481D01*
X0601677Y0256479D02*
X0602677Y0256479D01*
X0602677Y0257478D02*
X0601677Y0257478D01*
X0601677Y0258476D02*
X0581727Y0258476D01*
X0581727Y0257478D02*
X0592877Y0257478D01*
X0592877Y0256479D02*
X0581727Y0256479D01*
X0581727Y0255481D02*
X0593087Y0255481D01*
X0592877Y0259475D02*
X0581727Y0259475D01*
X0581727Y0260473D02*
X0592877Y0260473D01*
X0593318Y0261472D02*
X0581727Y0261472D01*
X0581727Y0262470D02*
X0609727Y0262470D01*
X0609727Y0263469D02*
X0581727Y0263469D01*
X0581727Y0264467D02*
X0609727Y0264467D01*
X0609727Y0265466D02*
X0581727Y0265466D01*
X0581727Y0266464D02*
X0609727Y0266464D01*
X0609727Y0267463D02*
X0581727Y0267463D01*
X0581727Y0268461D02*
X0609727Y0268461D01*
X0609727Y0269460D02*
X0581727Y0269460D01*
X0581727Y0270458D02*
X0609727Y0270458D01*
X0609727Y0271457D02*
X0581727Y0271457D01*
X0581727Y0272455D02*
X0609727Y0272455D01*
X0609727Y0273454D02*
X0581727Y0273454D01*
X0581727Y0274452D02*
X0609727Y0274452D01*
X0609727Y0275451D02*
X0581727Y0275451D01*
X0581727Y0276450D02*
X0609727Y0276450D01*
X0609727Y0277448D02*
X0581727Y0277448D01*
X0581727Y0278447D02*
X0609727Y0278447D01*
X0609727Y0279445D02*
X0581727Y0279445D01*
X0581727Y0280444D02*
X0609727Y0280444D01*
X0609727Y0281442D02*
X0581727Y0281442D01*
X0581727Y0282441D02*
X0609727Y0282441D01*
X0609727Y0283439D02*
X0581727Y0283439D01*
X0581727Y0284438D02*
X0609727Y0284438D01*
X0609727Y0285436D02*
X0581727Y0285436D01*
X0581727Y0286435D02*
X0609727Y0286435D01*
X0609727Y0287433D02*
X0581727Y0287433D01*
X0581727Y0288432D02*
X0610138Y0288432D01*
X0611135Y0289430D02*
X0581727Y0289430D01*
X0581727Y0290429D02*
X0612727Y0290429D01*
X0612727Y0291427D02*
X0581727Y0291427D01*
X0581727Y0292426D02*
X0612727Y0292426D01*
X0612727Y0293424D02*
X0581727Y0293424D01*
X0581147Y0294423D02*
X0612727Y0294423D01*
X0612727Y0295421D02*
X0580148Y0295421D01*
X0579150Y0296420D02*
X0612727Y0296420D01*
X0612727Y0297418D02*
X0578151Y0297418D01*
X0577153Y0298417D02*
X0612727Y0298417D01*
X0612727Y0299415D02*
X0576154Y0299415D01*
X0575156Y0300414D02*
X0612727Y0300414D01*
X0612727Y0301412D02*
X0424157Y0301412D01*
X0423159Y0302411D02*
X0612727Y0302411D01*
X0612727Y0303409D02*
X0422160Y0303409D01*
X0421162Y0304408D02*
X0612727Y0304408D01*
X0612727Y0305406D02*
X0420163Y0305406D01*
X0419165Y0306405D02*
X0440733Y0306405D01*
X0440750Y0306398D02*
X0444204Y0306398D01*
X0447394Y0307719D01*
X0449837Y0310161D01*
X0451158Y0313352D01*
X0451158Y0316806D01*
X0449837Y0319996D01*
X0447394Y0322438D01*
X0444204Y0323760D01*
X0440750Y0323760D01*
X0437560Y0322438D01*
X0435118Y0319996D01*
X0433796Y0316806D01*
X0433796Y0313352D01*
X0435118Y0310161D01*
X0437560Y0307719D01*
X0440750Y0306398D01*
X0438322Y0307403D02*
X0418166Y0307403D01*
X0417168Y0308402D02*
X0436877Y0308402D01*
X0435878Y0309400D02*
X0416169Y0309400D01*
X0415171Y0310399D02*
X0435019Y0310399D01*
X0434606Y0311397D02*
X0414172Y0311397D01*
X0413727Y0312396D02*
X0434192Y0312396D01*
X0433796Y0313394D02*
X0413727Y0313394D01*
X0413727Y0314393D02*
X0433796Y0314393D01*
X0433796Y0315391D02*
X0413727Y0315391D01*
X0413727Y0316390D02*
X0433796Y0316390D01*
X0434037Y0317388D02*
X0413727Y0317388D01*
X0413727Y0318387D02*
X0434451Y0318387D01*
X0434865Y0319385D02*
X0413727Y0319385D01*
X0413727Y0320384D02*
X0435505Y0320384D01*
X0436504Y0321383D02*
X0413727Y0321383D01*
X0413727Y0322381D02*
X0437502Y0322381D01*
X0439832Y0323380D02*
X0413727Y0323380D01*
X0413727Y0324378D02*
X0612727Y0324378D01*
X0612727Y0323380D02*
X0587122Y0323380D01*
X0586204Y0323760D02*
X0582750Y0323760D01*
X0579560Y0322438D01*
X0577118Y0319996D01*
X0575796Y0316806D01*
X0575796Y0313352D01*
X0577118Y0310161D01*
X0579560Y0307719D01*
X0582750Y0306398D01*
X0586204Y0306398D01*
X0589394Y0307719D01*
X0591837Y0310161D01*
X0593158Y0313352D01*
X0593158Y0316806D01*
X0591837Y0319996D01*
X0589394Y0322438D01*
X0586204Y0323760D01*
X0589452Y0322381D02*
X0612727Y0322381D01*
X0612727Y0321383D02*
X0590450Y0321383D01*
X0591449Y0320384D02*
X0612727Y0320384D01*
X0612727Y0319385D02*
X0592089Y0319385D01*
X0592503Y0318387D02*
X0612727Y0318387D01*
X0612727Y0317388D02*
X0592917Y0317388D01*
X0593158Y0316390D02*
X0612727Y0316390D01*
X0612727Y0315391D02*
X0593158Y0315391D01*
X0593158Y0314393D02*
X0612727Y0314393D01*
X0612727Y0313394D02*
X0593158Y0313394D01*
X0592762Y0312396D02*
X0612727Y0312396D01*
X0612727Y0311397D02*
X0592349Y0311397D01*
X0591935Y0310399D02*
X0612727Y0310399D01*
X0612727Y0309400D02*
X0591076Y0309400D01*
X0590077Y0308402D02*
X0612727Y0308402D01*
X0612727Y0307403D02*
X0588632Y0307403D01*
X0586221Y0306405D02*
X0612727Y0306405D01*
X0619227Y0306405D02*
X0632477Y0306405D01*
X0632477Y0307403D02*
X0619227Y0307403D01*
X0619227Y0308402D02*
X0632477Y0308402D01*
X0632477Y0309400D02*
X0619227Y0309400D01*
X0619227Y0310399D02*
X0632477Y0310399D01*
X0632477Y0311397D02*
X0619227Y0311397D01*
X0619227Y0311593D02*
X0632477Y0311593D01*
X0632477Y0299343D01*
X0619227Y0299343D01*
X0619227Y0311593D01*
X0619227Y0305406D02*
X0632477Y0305406D01*
X0632477Y0304408D02*
X0619227Y0304408D01*
X0619227Y0303409D02*
X0632477Y0303409D01*
X0632477Y0302411D02*
X0619227Y0302411D01*
X0619227Y0301412D02*
X0632477Y0301412D01*
X0632477Y0300414D02*
X0619227Y0300414D01*
X0619227Y0299415D02*
X0632477Y0299415D01*
X0631114Y0286435D02*
X0635266Y0286435D01*
X0635266Y0285436D02*
X0632008Y0285436D01*
X0632027Y0284438D02*
X0635266Y0284438D01*
X0635266Y0283439D02*
X0632027Y0283439D01*
X0632027Y0281442D02*
X0635266Y0281442D01*
X0635266Y0280444D02*
X0632027Y0280444D01*
X0632027Y0279445D02*
X0635266Y0279445D01*
X0635266Y0278447D02*
X0631797Y0278447D01*
X0635266Y0282441D02*
X0625227Y0282441D01*
X0625227Y0283439D02*
X0624227Y0283439D01*
X0624227Y0282441D02*
X0612727Y0282441D01*
X0624227Y0281442D02*
X0625227Y0281442D01*
X0625227Y0280444D02*
X0624227Y0280444D01*
X0624227Y0279445D02*
X0625227Y0279445D01*
X0625227Y0278447D02*
X0624227Y0278447D01*
X0624227Y0284438D02*
X0625227Y0284438D01*
X0625227Y0285436D02*
X0624227Y0285436D01*
X0624227Y0286435D02*
X0625227Y0286435D01*
X0602677Y0261472D02*
X0601677Y0261472D01*
X0601677Y0260473D02*
X0602677Y0260473D01*
X0602677Y0259475D02*
X0601677Y0259475D01*
X0568727Y0260752D02*
X0562058Y0260752D01*
X0560828Y0259521D01*
X0560828Y0252664D01*
X0562058Y0251433D01*
X0567040Y0251433D01*
X0567040Y0250315D01*
X0568727Y0248628D01*
X0568727Y0230443D01*
X0453727Y0230443D01*
X0453727Y0242843D01*
X0474201Y0242843D01*
X0474219Y0242825D01*
X0479810Y0242825D01*
X0479828Y0242843D01*
X0486727Y0242843D01*
X0486727Y0256343D01*
X0453727Y0256343D01*
X0453727Y0295843D01*
X0553302Y0295843D01*
X0552990Y0295530D01*
X0550770Y0295530D01*
X0549540Y0294300D01*
X0549540Y0286385D01*
X0550770Y0285155D01*
X0552990Y0285155D01*
X0553446Y0284699D01*
X0561485Y0284699D01*
X0562715Y0285929D01*
X0562715Y0294756D01*
X0561628Y0295843D01*
X0564326Y0295843D01*
X0563239Y0294756D01*
X0563239Y0285929D01*
X0564469Y0284699D01*
X0566511Y0284699D01*
X0566511Y0282245D01*
X0566189Y0282112D01*
X0564829Y0280752D01*
X0562058Y0280752D01*
X0560828Y0279521D01*
X0560828Y0272664D01*
X0562058Y0271433D01*
X0564829Y0271433D01*
X0566189Y0270073D01*
X0568727Y0269022D01*
X0568727Y0260752D01*
X0568727Y0261472D02*
X0453727Y0261472D01*
X0453727Y0262470D02*
X0568727Y0262470D01*
X0568727Y0263469D02*
X0453727Y0263469D01*
X0453727Y0264467D02*
X0568727Y0264467D01*
X0568727Y0265466D02*
X0453727Y0265466D01*
X0453727Y0266464D02*
X0568727Y0266464D01*
X0568727Y0267463D02*
X0453727Y0267463D01*
X0453727Y0268461D02*
X0568727Y0268461D01*
X0567671Y0269460D02*
X0453727Y0269460D01*
X0453727Y0270458D02*
X0565804Y0270458D01*
X0562034Y0271457D02*
X0453727Y0271457D01*
X0453727Y0272455D02*
X0561036Y0272455D01*
X0560828Y0273454D02*
X0453727Y0273454D01*
X0453727Y0274452D02*
X0560828Y0274452D01*
X0560828Y0275451D02*
X0453727Y0275451D01*
X0453727Y0276450D02*
X0560828Y0276450D01*
X0560828Y0277448D02*
X0453727Y0277448D01*
X0453727Y0278447D02*
X0560828Y0278447D01*
X0560828Y0279445D02*
X0453727Y0279445D01*
X0453727Y0280444D02*
X0561750Y0280444D01*
X0565520Y0281442D02*
X0453727Y0281442D01*
X0453727Y0282441D02*
X0566511Y0282441D01*
X0566511Y0283439D02*
X0453727Y0283439D01*
X0453727Y0284438D02*
X0566511Y0284438D01*
X0563732Y0285436D02*
X0562222Y0285436D01*
X0562715Y0286435D02*
X0563239Y0286435D01*
X0563239Y0287433D02*
X0562715Y0287433D01*
X0562715Y0288432D02*
X0563239Y0288432D01*
X0563239Y0289430D02*
X0562715Y0289430D01*
X0562715Y0290429D02*
X0563239Y0290429D01*
X0563239Y0291427D02*
X0562715Y0291427D01*
X0562715Y0292426D02*
X0563239Y0292426D01*
X0563239Y0293424D02*
X0562715Y0293424D01*
X0562715Y0294423D02*
X0563239Y0294423D01*
X0563905Y0295421D02*
X0562049Y0295421D01*
X0550661Y0295421D02*
X0453727Y0295421D01*
X0453727Y0294423D02*
X0549663Y0294423D01*
X0549540Y0293424D02*
X0453727Y0293424D01*
X0453727Y0292426D02*
X0549540Y0292426D01*
X0549540Y0291427D02*
X0453727Y0291427D01*
X0453727Y0290429D02*
X0549540Y0290429D01*
X0549540Y0289430D02*
X0453727Y0289430D01*
X0453727Y0288432D02*
X0549540Y0288432D01*
X0549540Y0287433D02*
X0453727Y0287433D01*
X0453727Y0286435D02*
X0549540Y0286435D01*
X0550489Y0285436D02*
X0453727Y0285436D01*
X0444221Y0306405D02*
X0511733Y0306405D01*
X0511750Y0306398D02*
X0515204Y0306398D01*
X0518394Y0307719D01*
X0520837Y0310161D01*
X0522158Y0313352D01*
X0522158Y0316806D01*
X0520837Y0319996D01*
X0518394Y0322438D01*
X0515204Y0323760D01*
X0511750Y0323760D01*
X0508560Y0322438D01*
X0506118Y0319996D01*
X0504796Y0316806D01*
X0504796Y0313352D01*
X0506118Y0310161D01*
X0508560Y0307719D01*
X0511750Y0306398D01*
X0509322Y0307403D02*
X0446632Y0307403D01*
X0448077Y0308402D02*
X0507877Y0308402D01*
X0506878Y0309400D02*
X0449076Y0309400D01*
X0449935Y0310399D02*
X0506019Y0310399D01*
X0505606Y0311397D02*
X0450349Y0311397D01*
X0450762Y0312396D02*
X0505192Y0312396D01*
X0504796Y0313394D02*
X0451158Y0313394D01*
X0451158Y0314393D02*
X0504796Y0314393D01*
X0504796Y0315391D02*
X0451158Y0315391D01*
X0451158Y0316390D02*
X0504796Y0316390D01*
X0505037Y0317388D02*
X0450917Y0317388D01*
X0450503Y0318387D02*
X0505451Y0318387D01*
X0505865Y0319385D02*
X0450089Y0319385D01*
X0449449Y0320384D02*
X0506505Y0320384D01*
X0507504Y0321383D02*
X0448450Y0321383D01*
X0447452Y0322381D02*
X0508502Y0322381D01*
X0510832Y0323380D02*
X0445122Y0323380D01*
X0445576Y0337125D02*
X0442977Y0337125D01*
X0442977Y0344106D01*
X0441977Y0344106D01*
X0441977Y0337125D01*
X0439378Y0337125D01*
X0434996Y0341508D01*
X0434996Y0344106D01*
X0441977Y0344106D01*
X0441977Y0345106D01*
X0434996Y0345106D01*
X0434996Y0347705D01*
X0439378Y0352087D01*
X0441977Y0352087D01*
X0441977Y0345106D01*
X0442977Y0345106D01*
X0449958Y0345106D01*
X0449958Y0347705D01*
X0445576Y0352087D01*
X0442977Y0352087D01*
X0442977Y0345106D01*
X0442977Y0344106D01*
X0449958Y0344106D01*
X0449958Y0341508D01*
X0445576Y0337125D01*
X0445809Y0337359D02*
X0510145Y0337359D01*
X0510378Y0337125D02*
X0505996Y0341508D01*
X0505996Y0344106D01*
X0512977Y0344106D01*
X0513977Y0344106D01*
X0513977Y0337125D01*
X0516576Y0337125D01*
X0520958Y0341508D01*
X0520958Y0344106D01*
X0513977Y0344106D01*
X0513977Y0345106D01*
X0520958Y0345106D01*
X0520958Y0347705D01*
X0516576Y0352087D01*
X0513977Y0352087D01*
X0513977Y0345106D01*
X0512977Y0345106D01*
X0512977Y0344106D01*
X0512977Y0337125D01*
X0510378Y0337125D01*
X0509146Y0338357D02*
X0446808Y0338357D01*
X0447806Y0339356D02*
X0508148Y0339356D01*
X0507149Y0340354D02*
X0448805Y0340354D01*
X0449803Y0341353D02*
X0506151Y0341353D01*
X0505996Y0342351D02*
X0449958Y0342351D01*
X0449958Y0343350D02*
X0505996Y0343350D01*
X0505996Y0345106D02*
X0512977Y0345106D01*
X0512977Y0352087D01*
X0510378Y0352087D01*
X0505996Y0347705D01*
X0505996Y0345106D01*
X0505996Y0345347D02*
X0449958Y0345347D01*
X0449958Y0346345D02*
X0505996Y0346345D01*
X0505996Y0347344D02*
X0449958Y0347344D01*
X0449321Y0348342D02*
X0506633Y0348342D01*
X0507632Y0349341D02*
X0448322Y0349341D01*
X0447324Y0350339D02*
X0508630Y0350339D01*
X0509629Y0351338D02*
X0446325Y0351338D01*
X0442977Y0351338D02*
X0441977Y0351338D01*
X0441977Y0350339D02*
X0442977Y0350339D01*
X0442977Y0349341D02*
X0441977Y0349341D01*
X0441977Y0348342D02*
X0442977Y0348342D01*
X0442977Y0347344D02*
X0441977Y0347344D01*
X0441977Y0346345D02*
X0442977Y0346345D01*
X0442977Y0345347D02*
X0441977Y0345347D01*
X0441977Y0344348D02*
X0413727Y0344348D01*
X0413727Y0343350D02*
X0434996Y0343350D01*
X0434996Y0342351D02*
X0413727Y0342351D01*
X0413727Y0341353D02*
X0435151Y0341353D01*
X0436149Y0340354D02*
X0413727Y0340354D01*
X0413727Y0339356D02*
X0437148Y0339356D01*
X0438146Y0338357D02*
X0413727Y0338357D01*
X0413727Y0337359D02*
X0439145Y0337359D01*
X0441977Y0337359D02*
X0442977Y0337359D01*
X0442977Y0338357D02*
X0441977Y0338357D01*
X0441977Y0339356D02*
X0442977Y0339356D01*
X0442977Y0340354D02*
X0441977Y0340354D01*
X0441977Y0341353D02*
X0442977Y0341353D01*
X0442977Y0342351D02*
X0441977Y0342351D01*
X0441977Y0343350D02*
X0442977Y0343350D01*
X0442977Y0344348D02*
X0512977Y0344348D01*
X0512977Y0343350D02*
X0513977Y0343350D01*
X0513977Y0344348D02*
X0583977Y0344348D01*
X0583977Y0344106D02*
X0576996Y0344106D01*
X0576996Y0341508D01*
X0581378Y0337125D01*
X0583977Y0337125D01*
X0583977Y0344106D01*
X0584977Y0344106D01*
X0584977Y0337125D01*
X0587576Y0337125D01*
X0591958Y0341508D01*
X0591958Y0344106D01*
X0584977Y0344106D01*
X0584977Y0345106D01*
X0591958Y0345106D01*
X0591958Y0347705D01*
X0587576Y0352087D01*
X0584977Y0352087D01*
X0584977Y0345106D01*
X0583977Y0345106D01*
X0583977Y0344106D01*
X0583977Y0343350D02*
X0584977Y0343350D01*
X0584977Y0344348D02*
X0611221Y0344348D01*
X0612220Y0343350D02*
X0591958Y0343350D01*
X0591958Y0342351D02*
X0612727Y0342351D01*
X0612727Y0341353D02*
X0591803Y0341353D01*
X0590805Y0340354D02*
X0612727Y0340354D01*
X0612727Y0339356D02*
X0589806Y0339356D01*
X0588808Y0338357D02*
X0612727Y0338357D01*
X0612727Y0337359D02*
X0587809Y0337359D01*
X0584977Y0337359D02*
X0583977Y0337359D01*
X0583977Y0338357D02*
X0584977Y0338357D01*
X0584977Y0339356D02*
X0583977Y0339356D01*
X0583977Y0340354D02*
X0584977Y0340354D01*
X0584977Y0341353D02*
X0583977Y0341353D01*
X0583977Y0342351D02*
X0584977Y0342351D01*
X0583977Y0345106D02*
X0576996Y0345106D01*
X0576996Y0347705D01*
X0581378Y0352087D01*
X0583977Y0352087D01*
X0583977Y0345106D01*
X0583977Y0345347D02*
X0584977Y0345347D01*
X0584977Y0346345D02*
X0583977Y0346345D01*
X0583977Y0347344D02*
X0584977Y0347344D01*
X0584977Y0348342D02*
X0583977Y0348342D01*
X0583977Y0349341D02*
X0584977Y0349341D01*
X0584977Y0350339D02*
X0583977Y0350339D01*
X0583977Y0351338D02*
X0584977Y0351338D01*
X0588325Y0351338D02*
X0604232Y0351338D01*
X0605230Y0350339D02*
X0589324Y0350339D01*
X0590322Y0349341D02*
X0606229Y0349341D01*
X0607227Y0348342D02*
X0591321Y0348342D01*
X0591958Y0347344D02*
X0608226Y0347344D01*
X0609224Y0346345D02*
X0591958Y0346345D01*
X0591958Y0345347D02*
X0610223Y0345347D01*
X0603233Y0352336D02*
X0413727Y0352336D01*
X0413727Y0351338D02*
X0438629Y0351338D01*
X0437630Y0350339D02*
X0413727Y0350339D01*
X0413727Y0349341D02*
X0436632Y0349341D01*
X0435633Y0348342D02*
X0413727Y0348342D01*
X0413727Y0347344D02*
X0434996Y0347344D01*
X0434996Y0346345D02*
X0413727Y0346345D01*
X0413727Y0345347D02*
X0434996Y0345347D01*
X0413727Y0353335D02*
X0602235Y0353335D01*
X0601236Y0354333D02*
X0413727Y0354333D01*
X0413727Y0355332D02*
X0600238Y0355332D01*
X0599239Y0356330D02*
X0413727Y0356330D01*
X0413727Y0357329D02*
X0598241Y0357329D01*
X0597242Y0358327D02*
X0413727Y0358327D01*
X0413727Y0359326D02*
X0596244Y0359326D01*
X0595245Y0360324D02*
X0413727Y0360324D01*
X0413727Y0361323D02*
X0594247Y0361323D01*
X0593248Y0362321D02*
X0413727Y0362321D01*
X0413727Y0336360D02*
X0612727Y0336360D01*
X0612727Y0335362D02*
X0413727Y0335362D01*
X0413727Y0334363D02*
X0612727Y0334363D01*
X0612727Y0333365D02*
X0413727Y0333365D01*
X0413727Y0332366D02*
X0612727Y0332366D01*
X0612727Y0331368D02*
X0413727Y0331368D01*
X0413727Y0330369D02*
X0612727Y0330369D01*
X0612727Y0329371D02*
X0413727Y0329371D01*
X0413727Y0328372D02*
X0612727Y0328372D01*
X0612727Y0327374D02*
X0413727Y0327374D01*
X0413727Y0326375D02*
X0612727Y0326375D01*
X0612727Y0325377D02*
X0413727Y0325377D01*
X0512977Y0337359D02*
X0513977Y0337359D01*
X0513977Y0338357D02*
X0512977Y0338357D01*
X0512977Y0339356D02*
X0513977Y0339356D01*
X0513977Y0340354D02*
X0512977Y0340354D01*
X0512977Y0341353D02*
X0513977Y0341353D01*
X0513977Y0342351D02*
X0512977Y0342351D01*
X0512977Y0345347D02*
X0513977Y0345347D01*
X0513977Y0346345D02*
X0512977Y0346345D01*
X0512977Y0347344D02*
X0513977Y0347344D01*
X0513977Y0348342D02*
X0512977Y0348342D01*
X0512977Y0349341D02*
X0513977Y0349341D01*
X0513977Y0350339D02*
X0512977Y0350339D01*
X0512977Y0351338D02*
X0513977Y0351338D01*
X0517325Y0351338D02*
X0580629Y0351338D01*
X0579630Y0350339D02*
X0518324Y0350339D01*
X0519322Y0349341D02*
X0578632Y0349341D01*
X0577633Y0348342D02*
X0520321Y0348342D01*
X0520958Y0347344D02*
X0576996Y0347344D01*
X0576996Y0346345D02*
X0520958Y0346345D01*
X0520958Y0345347D02*
X0576996Y0345347D01*
X0576996Y0343350D02*
X0520958Y0343350D01*
X0520958Y0342351D02*
X0576996Y0342351D01*
X0577151Y0341353D02*
X0520803Y0341353D01*
X0519805Y0340354D02*
X0578149Y0340354D01*
X0579148Y0339356D02*
X0518806Y0339356D01*
X0517808Y0338357D02*
X0580146Y0338357D01*
X0581145Y0337359D02*
X0516809Y0337359D01*
X0516122Y0323380D02*
X0581832Y0323380D01*
X0579502Y0322381D02*
X0518452Y0322381D01*
X0519450Y0321383D02*
X0578504Y0321383D01*
X0577505Y0320384D02*
X0520449Y0320384D01*
X0521089Y0319385D02*
X0576865Y0319385D01*
X0576451Y0318387D02*
X0521503Y0318387D01*
X0521917Y0317388D02*
X0576037Y0317388D01*
X0575796Y0316390D02*
X0522158Y0316390D01*
X0522158Y0315391D02*
X0575796Y0315391D01*
X0575796Y0314393D02*
X0522158Y0314393D01*
X0522158Y0313394D02*
X0575796Y0313394D01*
X0576192Y0312396D02*
X0521762Y0312396D01*
X0521349Y0311397D02*
X0576606Y0311397D01*
X0577019Y0310399D02*
X0520935Y0310399D01*
X0520076Y0309400D02*
X0577878Y0309400D01*
X0578877Y0308402D02*
X0519077Y0308402D01*
X0517632Y0307403D02*
X0580322Y0307403D01*
X0582733Y0306405D02*
X0515221Y0306405D01*
X0561780Y0260473D02*
X0453727Y0260473D01*
X0453727Y0259475D02*
X0560828Y0259475D01*
X0560828Y0258476D02*
X0453727Y0258476D01*
X0453727Y0257478D02*
X0560828Y0257478D01*
X0560828Y0256479D02*
X0453727Y0256479D01*
X0453727Y0242500D02*
X0568727Y0242500D01*
X0568727Y0241502D02*
X0453727Y0241502D01*
X0453727Y0240503D02*
X0568727Y0240503D01*
X0568727Y0239505D02*
X0453727Y0239505D01*
X0453727Y0238506D02*
X0568727Y0238506D01*
X0568727Y0237508D02*
X0453727Y0237508D01*
X0453727Y0236509D02*
X0568727Y0236509D01*
X0568727Y0235511D02*
X0453727Y0235511D01*
X0453727Y0234512D02*
X0568727Y0234512D01*
X0568727Y0233514D02*
X0453727Y0233514D01*
X0453727Y0232515D02*
X0568727Y0232515D01*
X0568727Y0231516D02*
X0453727Y0231516D01*
X0453727Y0230518D02*
X0568727Y0230518D01*
X0567477Y0231593D02*
X0565477Y0231593D01*
X0565977Y0231343D01*
X0568727Y0227843D02*
X0568727Y0226701D01*
X0568593Y0226836D01*
X0560885Y0226836D01*
X0560546Y0226496D01*
X0560215Y0226827D01*
X0557578Y0226827D01*
X0557569Y0226836D01*
X0549861Y0226836D01*
X0548866Y0225840D01*
X0548866Y0217345D01*
X0549861Y0216349D01*
X0557569Y0216349D01*
X0557578Y0216358D01*
X0560215Y0216358D01*
X0560546Y0216689D01*
X0560885Y0216349D01*
X0565315Y0216349D01*
X0567161Y0214503D01*
X0567161Y0212228D01*
X0566666Y0212022D01*
X0565245Y0210602D01*
X0562474Y0210602D01*
X0561478Y0209606D01*
X0561478Y0203079D01*
X0562474Y0202083D01*
X0565245Y0202083D01*
X0566666Y0200663D01*
X0568727Y0199809D01*
X0568727Y0195242D01*
X0567940Y0194454D01*
X0567940Y0191731D01*
X0568727Y0190943D01*
X0568727Y0190602D01*
X0562474Y0190602D01*
X0561478Y0189606D01*
X0561478Y0183079D01*
X0562474Y0182083D01*
X0568727Y0182083D01*
X0568727Y0161843D01*
X0453727Y0161843D01*
X0453727Y0200843D01*
X0486727Y0200843D01*
X0486727Y0214843D01*
X0453727Y0214843D01*
X0453727Y0227843D01*
X0568727Y0227843D01*
X0568727Y0227522D02*
X0453727Y0227522D01*
X0453727Y0226524D02*
X0549550Y0226524D01*
X0548866Y0225525D02*
X0453727Y0225525D01*
X0453727Y0224527D02*
X0548866Y0224527D01*
X0548866Y0223528D02*
X0453727Y0223528D01*
X0453727Y0222530D02*
X0548866Y0222530D01*
X0548866Y0221531D02*
X0453727Y0221531D01*
X0453727Y0220533D02*
X0548866Y0220533D01*
X0548866Y0219534D02*
X0453727Y0219534D01*
X0453727Y0218536D02*
X0548866Y0218536D01*
X0548866Y0217537D02*
X0453727Y0217537D01*
X0453727Y0216539D02*
X0549672Y0216539D01*
X0560396Y0216539D02*
X0560695Y0216539D01*
X0566124Y0215540D02*
X0453727Y0215540D01*
X0453727Y0200563D02*
X0566907Y0200563D01*
X0565767Y0201561D02*
X0486727Y0201561D01*
X0486727Y0202560D02*
X0561997Y0202560D01*
X0561478Y0203558D02*
X0486727Y0203558D01*
X0486727Y0204557D02*
X0561478Y0204557D01*
X0561478Y0205555D02*
X0486727Y0205555D01*
X0486727Y0206554D02*
X0561478Y0206554D01*
X0561478Y0207552D02*
X0486727Y0207552D01*
X0486727Y0208551D02*
X0561478Y0208551D01*
X0561478Y0209549D02*
X0486727Y0209549D01*
X0486727Y0210548D02*
X0562420Y0210548D01*
X0566190Y0211546D02*
X0486727Y0211546D01*
X0486727Y0212545D02*
X0567161Y0212545D01*
X0567161Y0213543D02*
X0486727Y0213543D01*
X0486727Y0214542D02*
X0567123Y0214542D01*
X0570461Y0209858D02*
X0572477Y0209843D01*
X0572477Y0207593D01*
X0568727Y0199564D02*
X0453727Y0199564D01*
X0453727Y0198566D02*
X0568727Y0198566D01*
X0568727Y0197567D02*
X0453727Y0197567D01*
X0453727Y0196569D02*
X0568727Y0196569D01*
X0568727Y0195570D02*
X0453727Y0195570D01*
X0453727Y0194572D02*
X0568057Y0194572D01*
X0567940Y0193573D02*
X0453727Y0193573D01*
X0453727Y0192575D02*
X0567940Y0192575D01*
X0568094Y0191576D02*
X0453727Y0191576D01*
X0453727Y0190578D02*
X0562450Y0190578D01*
X0561478Y0189579D02*
X0453727Y0189579D01*
X0453727Y0188581D02*
X0561478Y0188581D01*
X0561478Y0187582D02*
X0453727Y0187582D01*
X0453727Y0186583D02*
X0561478Y0186583D01*
X0561478Y0185585D02*
X0453727Y0185585D01*
X0453727Y0184586D02*
X0561478Y0184586D01*
X0561478Y0183588D02*
X0453727Y0183588D01*
X0453727Y0182589D02*
X0561968Y0182589D01*
X0568727Y0181591D02*
X0453727Y0181591D01*
X0453727Y0180592D02*
X0568727Y0180592D01*
X0568727Y0179594D02*
X0453727Y0179594D01*
X0453727Y0178595D02*
X0568727Y0178595D01*
X0568727Y0177597D02*
X0453727Y0177597D01*
X0453727Y0176598D02*
X0568727Y0176598D01*
X0568727Y0175600D02*
X0453727Y0175600D01*
X0453727Y0174601D02*
X0568727Y0174601D01*
X0568727Y0173603D02*
X0453727Y0173603D01*
X0453727Y0172604D02*
X0568727Y0172604D01*
X0568727Y0171606D02*
X0453727Y0171606D01*
X0453727Y0170607D02*
X0568727Y0170607D01*
X0568727Y0169609D02*
X0453727Y0169609D01*
X0453727Y0168610D02*
X0568727Y0168610D01*
X0568727Y0167612D02*
X0453727Y0167612D01*
X0453727Y0166613D02*
X0568727Y0166613D01*
X0568727Y0165615D02*
X0453727Y0165615D01*
X0453727Y0164616D02*
X0568727Y0164616D01*
X0568727Y0163618D02*
X0453727Y0163618D01*
X0453727Y0162619D02*
X0568727Y0162619D01*
X0582973Y0177597D02*
X0609727Y0177597D01*
X0609727Y0178595D02*
X0589662Y0178595D01*
X0587477Y0178595D02*
X0586477Y0178595D01*
X0586477Y0179594D02*
X0587477Y0179594D01*
X0587477Y0180592D02*
X0586477Y0180592D01*
X0586477Y0181591D02*
X0587477Y0181591D01*
X0586477Y0182589D02*
X0581727Y0182589D01*
X0581727Y0181591D02*
X0582429Y0181591D01*
X0582429Y0180592D02*
X0581727Y0180592D01*
X0581727Y0179594D02*
X0583294Y0179594D01*
X0584292Y0178595D02*
X0581974Y0178595D01*
X0583971Y0176598D02*
X0609727Y0176598D01*
X0609727Y0175600D02*
X0584970Y0175600D01*
X0582429Y0183588D02*
X0581727Y0183588D01*
X0581727Y0184586D02*
X0582789Y0184586D01*
X0583788Y0185585D02*
X0581727Y0185585D01*
X0581727Y0186583D02*
X0584786Y0186583D01*
X0586477Y0186583D02*
X0587477Y0186583D01*
X0587477Y0185585D02*
X0586477Y0185585D01*
X0612727Y0178595D02*
X0635266Y0178595D01*
X0635266Y0177597D02*
X0612727Y0177597D01*
X0612727Y0176598D02*
X0635266Y0176598D01*
X0635266Y0175600D02*
X0612727Y0175600D01*
X0623178Y0181591D02*
X0635266Y0181591D01*
X0635266Y0182589D02*
X0624176Y0182589D01*
X0624929Y0183588D02*
X0635266Y0183588D01*
X0635266Y0184586D02*
X0624929Y0184586D01*
X0626277Y0221531D02*
X0627277Y0221531D01*
X0627277Y0222530D02*
X0626277Y0222530D01*
X0626277Y0223528D02*
X0627277Y0223528D01*
X0602677Y0225525D02*
X0601677Y0225525D01*
X0601677Y0226524D02*
X0602677Y0226524D01*
X0602677Y0227522D02*
X0601677Y0227522D01*
X0568727Y0243499D02*
X0486727Y0243499D01*
X0486727Y0244497D02*
X0568727Y0244497D01*
X0568727Y0245496D02*
X0486727Y0245496D01*
X0486727Y0246494D02*
X0568727Y0246494D01*
X0568727Y0247493D02*
X0486727Y0247493D01*
X0486727Y0248491D02*
X0568727Y0248491D01*
X0567865Y0249490D02*
X0486727Y0249490D01*
X0486727Y0250488D02*
X0567040Y0250488D01*
X0562005Y0251487D02*
X0486727Y0251487D01*
X0486727Y0252485D02*
X0561006Y0252485D01*
X0560828Y0253484D02*
X0486727Y0253484D01*
X0486727Y0254482D02*
X0560828Y0254482D01*
X0560828Y0255481D02*
X0486727Y0255481D01*
X0560518Y0226524D02*
X0560573Y0226524D01*
X0295727Y0102843D02*
X0291717Y0102843D01*
X0284237Y0102843D02*
X0284075Y0102681D01*
X0275427Y0102681D01*
X0275427Y0100122D02*
X0279448Y0100122D01*
X0284237Y0095333D01*
X0284237Y0095093D01*
X0283727Y0095093D01*
X0280227Y0095843D02*
X0280227Y0087593D01*
X0280227Y0085083D01*
X0276487Y0081343D01*
X0276217Y0081343D01*
X0280477Y0087343D02*
X0280227Y0087593D01*
X0280477Y0087343D02*
X0284237Y0087343D01*
X0291717Y0087343D02*
X0295727Y0087343D01*
X0297477Y0082093D02*
X0301386Y0082093D01*
X0301396Y0082083D01*
X0280227Y0095843D02*
X0278507Y0097563D01*
X0275427Y0097563D01*
X0275427Y0093593D02*
X0275427Y0092445D01*
X0275427Y0093593D02*
X0275227Y0093593D01*
X0275427Y0105240D02*
X0279375Y0105240D01*
X0279727Y0105593D01*
X0279727Y0107843D01*
X0282477Y0110593D01*
X0284237Y0110593D01*
X0280227Y0111093D02*
X0280227Y0114333D01*
X0284237Y0118343D01*
X0280227Y0111093D02*
X0276934Y0107799D01*
X0275427Y0107799D01*
X0273977Y0107799D01*
X0255227Y0118593D02*
X0267852Y0131218D01*
X0271977Y0135343D01*
X0245477Y0126333D02*
X0237727Y0126333D01*
X0245217Y0118593D02*
X0245217Y0110843D01*
X0237737Y0110843D02*
X0233727Y0110843D01*
X0245217Y0118593D02*
X0255227Y0118593D01*
X0260727Y0081333D02*
X0268727Y0081333D01*
X0268737Y0081343D01*
X0268737Y0073593D01*
X0282997Y0061222D02*
X0282997Y0056862D01*
X0274227Y0048093D01*
X0263727Y0048093D01*
X0262477Y0049343D01*
X0262477Y0051843D01*
X0258487Y0055833D01*
X0257227Y0055833D01*
D78*
X0503727Y0181343D03*
X0503727Y0186343D03*
X0508727Y0186343D03*
X0508727Y0181343D03*
X0508727Y0191343D03*
X0508727Y0196343D03*
X0508727Y0201343D03*
X0508727Y0206343D03*
X0503727Y0206343D03*
X0503727Y0201343D03*
X0503727Y0196343D03*
X0503727Y0191343D03*
X0503727Y0211343D03*
X0508727Y0211343D03*
X0508477Y0251093D03*
X0508477Y0256093D03*
X0508477Y0261093D03*
X0503477Y0261093D03*
X0503477Y0256093D03*
X0503477Y0251093D03*
X0503477Y0266093D03*
X0503477Y0271093D03*
X0503477Y0276093D03*
X0503477Y0281093D03*
X0508477Y0281093D03*
X0508477Y0276093D03*
X0508477Y0271093D03*
X0508477Y0266093D03*
X0593977Y0269093D03*
X0620227Y0287093D03*
X0633727Y0271093D03*
X0633727Y0267343D03*
D79*
X0630977Y0306593D03*
X0630977Y0310093D03*
X0627477Y0310093D03*
X0623977Y0310093D03*
X0620477Y0310093D03*
X0620477Y0306593D03*
X0623977Y0306593D03*
X0627477Y0306593D03*
X0557727Y0223343D03*
X0557727Y0219843D03*
X0601227Y0206093D03*
X0601227Y0202593D03*
X0627727Y0202593D03*
X0627727Y0206093D03*
D80*
X0351977Y0051593D03*
D81*
X0362227Y0056093D03*
X0367977Y0056093D03*
X0339727Y0056093D03*
X0339727Y0053093D03*
X0303977Y0053343D03*
X0300477Y0047093D03*
X0288477Y0044593D03*
X0269727Y0052093D03*
X0250227Y0044343D03*
X0241727Y0041093D03*
X0252477Y0069843D03*
X0232977Y0085343D03*
X0235477Y0091093D03*
X0233477Y0103343D03*
X0233727Y0110843D03*
X0271727Y0093593D03*
X0295727Y0095093D03*
X0295727Y0087343D03*
X0297477Y0082093D03*
X0280227Y0073593D03*
X0295727Y0102843D03*
X0295727Y0110593D03*
X0282477Y0125593D03*
X0275477Y0125343D03*
X0306977Y0130343D03*
X0464727Y0131343D03*
X0471477Y0138593D03*
X0482977Y0154093D03*
X0520227Y0146093D03*
X0523227Y0146093D03*
X0528727Y0130593D03*
X0550727Y0136343D03*
X0563227Y0131593D03*
X0575227Y0150343D03*
X0621477Y0131843D03*
X0607477Y0099093D03*
X0595227Y0078343D03*
X0595227Y0075343D03*
X0570977Y0034843D03*
X0570977Y0028843D03*
X0565227Y0031843D03*
X0582227Y0028593D03*
X0582227Y0025593D03*
X0507227Y0116843D03*
X0582227Y0205093D03*
X0595977Y0218343D03*
X0584727Y0250843D03*
X0581727Y0250843D03*
X0591227Y0253093D03*
X0553227Y0288843D03*
X0553227Y0291843D03*
D82*
X0043507Y0026622D03*
X0626184Y0026622D03*
X0626184Y0353394D03*
M02*
