G75*
%MOIN*%
%OFA0B0*%
%FSLAX25Y25*%
%IPPOS*%
%LPD*%
%AMOC8*
5,1,8,0,0,1.08239X$1,22.5*
%
%ADD10C,0.10600*%
%ADD11OC8,0.06600*%
%ADD12C,0.10293*%
%ADD13C,0.12411*%
%ADD14OC8,0.06000*%
%ADD15R,0.08868X0.08868*%
%ADD16OC8,0.08868*%
%ADD17C,0.00500*%
%ADD18R,0.06506X0.05718*%
%ADD19R,0.05718X0.06506*%
%ADD20R,0.07687X0.13198*%
%ADD21R,0.06899X0.07687*%
%ADD22R,0.07687X0.06899*%
%ADD23C,0.12962*%
%ADD24OC8,0.12962*%
%ADD25R,0.05324X0.06506*%
%ADD26R,0.06506X0.05324*%
%ADD27OC8,0.07096*%
%ADD28R,0.06506X0.07490*%
%ADD29R,0.10049X0.10049*%
%ADD30R,0.07490X0.06506*%
%ADD31R,0.03600X0.13400*%
%ADD32R,0.06899X0.11230*%
%ADD33R,0.11230X0.06899*%
%ADD34R,0.07687X0.09261*%
%ADD35OC8,0.10600*%
%ADD36R,0.05324X0.04537*%
%ADD37C,0.07687*%
%ADD38OC8,0.07687*%
%ADD39R,0.06899X0.07698*%
%ADD40R,0.06702X0.02962*%
%ADD41R,0.04931X0.04537*%
%ADD42R,0.06600X0.12600*%
%ADD43R,0.06600X0.05600*%
%ADD44C,0.02650*%
%ADD45C,0.00100*%
%ADD46R,0.02962X0.09261*%
%ADD47R,0.13400X0.03600*%
%ADD48OC8,0.10293*%
%ADD49R,0.07687X0.07293*%
%ADD50R,0.06112X0.04537*%
%ADD51C,0.04931*%
%ADD52C,0.05400*%
%ADD53C,0.09899*%
%ADD54C,0.06600*%
%ADD55C,0.03103*%
%ADD56OC8,0.09899*%
%ADD57C,0.05600*%
%ADD58OC8,0.09200*%
%ADD59R,0.04143X0.04143*%
%ADD60OC8,0.06506*%
%ADD61R,0.05915X0.05915*%
%ADD62OC8,0.05915*%
%ADD63R,0.04900X0.16600*%
%ADD64R,0.04537X0.04931*%
%ADD65OC8,0.22254*%
%ADD66C,0.22254*%
D10*
X0484727Y0258093D03*
X0547013Y0284006D03*
X0596225Y0284006D03*
X0596225Y0323376D03*
X0547013Y0323376D03*
X0558477Y0118593D03*
D11*
X0525227Y0264343D03*
X0618227Y0263843D03*
X0618227Y0322843D03*
X0525227Y0323343D03*
D12*
X0582755Y0238039D02*
X0592448Y0238039D01*
X0592448Y0221504D02*
X0582755Y0221504D01*
X0582755Y0204969D02*
X0592448Y0204969D01*
D13*
X0616341Y0204969D03*
X0616341Y0238039D03*
X0615554Y0052213D03*
D14*
X0495227Y0161843D03*
X0505227Y0201843D03*
X0535977Y0211593D03*
X0575977Y0221593D03*
X0575977Y0237843D03*
X0535977Y0247843D03*
X0502977Y0292593D03*
X0502977Y0311843D03*
X0462977Y0302593D03*
X0462977Y0321843D03*
D15*
X0524294Y0355362D03*
D16*
X0504294Y0355362D03*
X0483794Y0355362D03*
X0464294Y0355362D03*
D17*
X0599530Y0357331D02*
X0599606Y0356462D01*
X0599832Y0355621D01*
X0600200Y0354831D01*
X0600700Y0354117D01*
X0601316Y0353500D01*
X0602030Y0353001D01*
X0602820Y0352632D01*
X0603662Y0352407D01*
X0604530Y0352331D01*
X0605398Y0352407D01*
X0606240Y0352632D01*
X0607030Y0353001D01*
X0607744Y0353500D01*
X0608360Y0354117D01*
X0608860Y0354831D01*
X0609229Y0355621D01*
X0609454Y0356462D01*
X0609530Y0357331D01*
X0609454Y0358199D01*
X0609229Y0359041D01*
X0608860Y0359831D01*
X0608360Y0360545D01*
X0607744Y0361161D01*
X0607030Y0361661D01*
X0606240Y0362029D01*
X0605398Y0362255D01*
X0604530Y0362331D01*
X0603662Y0362255D01*
X0602820Y0362029D01*
X0602030Y0361661D01*
X0601316Y0361161D01*
X0600700Y0360545D01*
X0600200Y0359831D01*
X0599832Y0359041D01*
X0599606Y0358199D01*
X0599530Y0357331D01*
X0599532Y0357314D02*
X0609529Y0357314D01*
X0609488Y0357812D02*
X0599572Y0357812D01*
X0599636Y0358311D02*
X0609424Y0358311D01*
X0609291Y0358809D02*
X0599770Y0358809D01*
X0599956Y0359308D02*
X0609104Y0359308D01*
X0608872Y0359806D02*
X0600189Y0359806D01*
X0600532Y0360305D02*
X0608528Y0360305D01*
X0608102Y0360803D02*
X0600959Y0360803D01*
X0601518Y0361302D02*
X0607543Y0361302D01*
X0606731Y0361800D02*
X0602330Y0361800D01*
X0604167Y0362299D02*
X0604893Y0362299D01*
X0609485Y0356815D02*
X0599575Y0356815D01*
X0599645Y0356317D02*
X0609415Y0356317D01*
X0609282Y0355818D02*
X0599779Y0355818D01*
X0599972Y0355320D02*
X0609088Y0355320D01*
X0608854Y0354821D02*
X0600207Y0354821D01*
X0600556Y0354323D02*
X0608505Y0354323D01*
X0608068Y0353824D02*
X0600992Y0353824D01*
X0601566Y0353326D02*
X0607495Y0353326D01*
X0606658Y0352827D02*
X0602402Y0352827D01*
X0043900Y0050776D02*
X0044268Y0049986D01*
X0044494Y0049144D01*
X0044570Y0048276D01*
X0044494Y0047407D01*
X0044268Y0046565D01*
X0043900Y0045776D01*
X0043400Y0045062D01*
X0042783Y0044445D01*
X0042070Y0043945D01*
X0041280Y0043577D01*
X0040438Y0043352D01*
X0039570Y0043276D01*
X0038701Y0043352D01*
X0037859Y0043577D01*
X0037070Y0043945D01*
X0036356Y0044445D01*
X0035739Y0045062D01*
X0035239Y0045776D01*
X0034871Y0046565D01*
X0034646Y0047407D01*
X0034570Y0048276D01*
X0034646Y0049144D01*
X0034871Y0049986D01*
X0035239Y0050776D01*
X0035739Y0051490D01*
X0036356Y0052106D01*
X0037070Y0052606D01*
X0037859Y0052974D01*
X0038701Y0053200D01*
X0039570Y0053276D01*
X0040438Y0053200D01*
X0041280Y0052974D01*
X0042070Y0052606D01*
X0042783Y0052106D01*
X0043400Y0051490D01*
X0043900Y0050776D01*
X0043921Y0050729D02*
X0035218Y0050729D01*
X0034985Y0050231D02*
X0044154Y0050231D01*
X0044336Y0049732D02*
X0034803Y0049732D01*
X0034670Y0049234D02*
X0044469Y0049234D01*
X0044529Y0048735D02*
X0034610Y0048735D01*
X0034573Y0048237D02*
X0044566Y0048237D01*
X0044523Y0047738D02*
X0034617Y0047738D01*
X0034690Y0047240D02*
X0044449Y0047240D01*
X0044315Y0046741D02*
X0034824Y0046741D01*
X0035022Y0046243D02*
X0044118Y0046243D01*
X0043878Y0045744D02*
X0035261Y0045744D01*
X0035610Y0045246D02*
X0043529Y0045246D01*
X0043085Y0044747D02*
X0036054Y0044747D01*
X0036636Y0044249D02*
X0042503Y0044249D01*
X0041651Y0043750D02*
X0037488Y0043750D01*
X0035556Y0051228D02*
X0043583Y0051228D01*
X0043163Y0051726D02*
X0035976Y0051726D01*
X0036526Y0052225D02*
X0042613Y0052225D01*
X0041817Y0052723D02*
X0037322Y0052723D01*
X0038956Y0053222D02*
X0040183Y0053222D01*
D18*
X0246727Y0088102D03*
X0246727Y0095583D03*
X0279227Y0094852D03*
X0286977Y0094852D03*
X0286977Y0102333D03*
X0279227Y0102333D03*
X0302477Y0115102D03*
X0302477Y0122583D03*
X0310227Y0122583D03*
X0310227Y0115102D03*
X0317977Y0115102D03*
X0317977Y0122583D03*
X0331727Y0124333D03*
X0339477Y0124333D03*
X0339477Y0116852D03*
X0331727Y0116852D03*
X0352727Y0115852D03*
X0352727Y0123333D03*
X0341727Y0100083D03*
X0333977Y0100083D03*
X0333977Y0092602D03*
X0341727Y0092602D03*
X0350977Y0149102D03*
X0350977Y0156583D03*
X0368977Y0185102D03*
X0376727Y0185102D03*
X0376727Y0192583D03*
X0368977Y0192583D03*
X0414727Y0202352D03*
X0414727Y0209833D03*
X0414727Y0217852D03*
X0414727Y0225333D03*
X0261727Y0211333D03*
X0261727Y0203852D03*
X0575227Y0160333D03*
X0575227Y0152852D03*
D19*
X0510467Y0150343D03*
X0502987Y0150343D03*
X0494967Y0150343D03*
X0487487Y0150343D03*
X0487487Y0120093D03*
X0494967Y0120093D03*
X0502987Y0120093D03*
X0510467Y0120093D03*
X0462717Y0094343D03*
X0455237Y0094343D03*
X0447217Y0094343D03*
X0439737Y0094343D03*
X0376717Y0175593D03*
X0369237Y0175593D03*
X0339717Y0205843D03*
X0332237Y0205843D03*
X0332237Y0213593D03*
X0339717Y0213593D03*
X0339717Y0221343D03*
X0332237Y0221343D03*
X0349987Y0223343D03*
X0357467Y0223343D03*
X0366737Y0229093D03*
X0374217Y0229093D03*
X0357467Y0231093D03*
X0349987Y0231093D03*
X0349487Y0243593D03*
X0356967Y0243593D03*
X0339717Y0243593D03*
X0332237Y0243593D03*
X0277717Y0276943D03*
X0270237Y0276943D03*
X0252717Y0203843D03*
X0245237Y0203843D03*
X0248717Y0131093D03*
X0241237Y0131093D03*
X0286987Y0122593D03*
X0294467Y0122593D03*
X0294467Y0114843D03*
X0286987Y0114843D03*
X0439737Y0234593D03*
X0447217Y0234593D03*
X0584987Y0084843D03*
X0592467Y0084843D03*
X0592467Y0077093D03*
X0584987Y0077093D03*
D20*
X0205751Y0068593D03*
X0183703Y0068593D03*
X0183703Y0052843D03*
X0205751Y0052843D03*
X0205751Y0095593D03*
X0183703Y0095593D03*
X0183703Y0111343D03*
X0205751Y0111343D03*
D21*
X0214715Y0092343D03*
X0225739Y0092343D03*
X0225739Y0049843D03*
X0214715Y0049843D03*
D22*
X0451727Y0042854D03*
X0451727Y0031831D03*
D23*
X0409977Y0037579D03*
X0338977Y0037579D03*
X0267727Y0037579D03*
X0354977Y0285579D03*
X0423977Y0308329D03*
D24*
X0423977Y0337856D03*
X0354977Y0315106D03*
X0338977Y0067106D03*
X0409977Y0067106D03*
X0267727Y0067106D03*
D25*
X0238727Y0084884D03*
X0238727Y0096301D03*
D26*
X0238268Y0123343D03*
X0249686Y0123343D03*
D27*
X0467977Y0062093D03*
D28*
X0597727Y0111691D03*
X0597727Y0124490D03*
D29*
X0505388Y0136593D03*
X0488066Y0136593D03*
X0486816Y0106593D03*
X0504138Y0106593D03*
X0461638Y0081093D03*
X0444316Y0081093D03*
X0402227Y0203931D03*
X0402227Y0221254D03*
D30*
X0553075Y0159843D03*
X0565875Y0159843D03*
X0515375Y0081843D03*
X0502575Y0081843D03*
D31*
X0482727Y0090593D03*
X0482727Y0071593D03*
X0532727Y0144343D03*
X0532727Y0163343D03*
D32*
X0586715Y0136093D03*
X0597739Y0136093D03*
X0474989Y0207343D03*
X0463965Y0207343D03*
D33*
X0527477Y0087604D03*
X0527477Y0076581D03*
D34*
X0454516Y0205843D03*
X0434438Y0205843D03*
D35*
X0464727Y0258093D03*
X0558477Y0098593D03*
D36*
X0593109Y0098593D03*
X0603345Y0098593D03*
X0372845Y0152593D03*
X0362609Y0152593D03*
X0341095Y0229093D03*
X0330859Y0229093D03*
X0438359Y0242593D03*
X0438359Y0249343D03*
X0448595Y0249343D03*
X0448595Y0242593D03*
D37*
X0454962Y0188963D03*
X0435277Y0188963D03*
X0415592Y0188963D03*
X0405749Y0188963D03*
X0400828Y0110222D03*
X0410671Y0110222D03*
X0420513Y0110222D03*
X0430356Y0110222D03*
X0440198Y0110222D03*
X0450041Y0110222D03*
X0459883Y0110222D03*
X0469726Y0110222D03*
D38*
X0464805Y0188963D03*
X0365227Y0341093D03*
X0116341Y0346504D03*
X0088782Y0163433D03*
D39*
X0463879Y0218093D03*
X0475075Y0218093D03*
D40*
X0373357Y0215073D03*
X0373357Y0210073D03*
X0373357Y0205073D03*
X0373357Y0200073D03*
X0352097Y0200073D03*
X0352097Y0205073D03*
X0352097Y0210073D03*
X0352097Y0215073D03*
X0320607Y0107073D03*
X0320607Y0102073D03*
X0320607Y0097073D03*
X0320607Y0092073D03*
X0299347Y0092073D03*
X0299347Y0097073D03*
X0299347Y0102073D03*
X0299347Y0107073D03*
D41*
X0327881Y0109093D03*
X0334573Y0109093D03*
X0300573Y0084843D03*
X0293881Y0084843D03*
X0318631Y0206343D03*
X0325323Y0206343D03*
X0368631Y0221843D03*
X0375323Y0221843D03*
X0337823Y0236343D03*
X0331131Y0236343D03*
D42*
X0462077Y0028343D03*
X0481877Y0028343D03*
D43*
X0305977Y0292043D03*
X0305977Y0299343D03*
X0305977Y0306643D03*
X0275977Y0306643D03*
X0275977Y0299343D03*
X0275977Y0292043D03*
D44*
X0286002Y0293018D02*
X0286002Y0285068D01*
X0286002Y0293018D02*
X0295952Y0293018D01*
X0295952Y0285068D01*
X0286002Y0285068D01*
X0286002Y0287717D02*
X0295952Y0287717D01*
X0295952Y0290366D02*
X0286002Y0290366D01*
X0286002Y0293015D02*
X0295952Y0293015D01*
X0286002Y0305668D02*
X0286002Y0313618D01*
X0295952Y0313618D01*
X0295952Y0305668D01*
X0286002Y0305668D01*
X0286002Y0308317D02*
X0295952Y0308317D01*
X0295952Y0310966D02*
X0286002Y0310966D01*
X0286002Y0313615D02*
X0295952Y0313615D01*
D45*
X0495243Y0211932D02*
X0495044Y0211275D01*
X0494977Y0210593D01*
X0495044Y0209910D01*
X0495243Y0209253D01*
X0495567Y0208648D01*
X0496002Y0208118D01*
X0496533Y0207682D01*
X0497138Y0207359D01*
X0497794Y0207160D01*
X0498477Y0207093D01*
X0501727Y0207093D01*
X0501727Y0214093D01*
X0498477Y0214093D01*
X0497794Y0214025D01*
X0497138Y0213826D01*
X0496533Y0213503D01*
X0496002Y0213067D01*
X0495567Y0212537D01*
X0495243Y0211932D01*
X0495245Y0211934D02*
X0501727Y0211934D01*
X0501727Y0212032D02*
X0495297Y0212032D01*
X0495350Y0212131D02*
X0501727Y0212131D01*
X0501727Y0212229D02*
X0495402Y0212229D01*
X0495455Y0212328D02*
X0501727Y0212328D01*
X0501727Y0212426D02*
X0495508Y0212426D01*
X0495560Y0212525D02*
X0501727Y0212525D01*
X0501727Y0212623D02*
X0495638Y0212623D01*
X0495719Y0212722D02*
X0501727Y0212722D01*
X0501727Y0212820D02*
X0495800Y0212820D01*
X0495880Y0212919D02*
X0501727Y0212919D01*
X0501727Y0213018D02*
X0495961Y0213018D01*
X0496061Y0213116D02*
X0501727Y0213116D01*
X0501727Y0213215D02*
X0496181Y0213215D01*
X0496302Y0213313D02*
X0501727Y0213313D01*
X0501727Y0213412D02*
X0496422Y0213412D01*
X0496546Y0213510D02*
X0501727Y0213510D01*
X0501727Y0213609D02*
X0496731Y0213609D01*
X0496915Y0213707D02*
X0501727Y0213707D01*
X0501727Y0213806D02*
X0497099Y0213806D01*
X0497395Y0213904D02*
X0501727Y0213904D01*
X0501727Y0214003D02*
X0497720Y0214003D01*
X0495214Y0211835D02*
X0501727Y0211835D01*
X0501727Y0211737D02*
X0495184Y0211737D01*
X0495154Y0211638D02*
X0501727Y0211638D01*
X0501727Y0211540D02*
X0495125Y0211540D01*
X0495095Y0211441D02*
X0501727Y0211441D01*
X0501727Y0211343D02*
X0495065Y0211343D01*
X0495041Y0211244D02*
X0501727Y0211244D01*
X0501727Y0211146D02*
X0495032Y0211146D01*
X0495022Y0211047D02*
X0501727Y0211047D01*
X0501727Y0210949D02*
X0495012Y0210949D01*
X0495002Y0210850D02*
X0501727Y0210850D01*
X0501727Y0210752D02*
X0494993Y0210752D01*
X0494983Y0210653D02*
X0501727Y0210653D01*
X0501727Y0210555D02*
X0494981Y0210555D01*
X0494990Y0210456D02*
X0501727Y0210456D01*
X0501727Y0210358D02*
X0495000Y0210358D01*
X0495010Y0210259D02*
X0501727Y0210259D01*
X0501727Y0210161D02*
X0495020Y0210161D01*
X0495029Y0210062D02*
X0501727Y0210062D01*
X0501727Y0209964D02*
X0495039Y0209964D01*
X0495058Y0209865D02*
X0501727Y0209865D01*
X0501727Y0209767D02*
X0495088Y0209767D01*
X0495118Y0209668D02*
X0501727Y0209668D01*
X0501727Y0209570D02*
X0495147Y0209570D01*
X0495177Y0209471D02*
X0501727Y0209471D01*
X0501727Y0209373D02*
X0495207Y0209373D01*
X0495237Y0209274D02*
X0501727Y0209274D01*
X0501727Y0209176D02*
X0495285Y0209176D01*
X0495338Y0209077D02*
X0501727Y0209077D01*
X0501727Y0208979D02*
X0495390Y0208979D01*
X0495443Y0208880D02*
X0501727Y0208880D01*
X0501727Y0208782D02*
X0495496Y0208782D01*
X0495548Y0208683D02*
X0501727Y0208683D01*
X0501727Y0208585D02*
X0495619Y0208585D01*
X0495700Y0208486D02*
X0501727Y0208486D01*
X0501727Y0208387D02*
X0495781Y0208387D01*
X0495862Y0208289D02*
X0501727Y0208289D01*
X0501727Y0208190D02*
X0495942Y0208190D01*
X0496033Y0208092D02*
X0501727Y0208092D01*
X0501727Y0207993D02*
X0496153Y0207993D01*
X0496274Y0207895D02*
X0501727Y0207895D01*
X0501727Y0207796D02*
X0496394Y0207796D01*
X0496514Y0207698D02*
X0501727Y0207698D01*
X0501727Y0207599D02*
X0496688Y0207599D01*
X0496872Y0207501D02*
X0501727Y0207501D01*
X0501727Y0207402D02*
X0497056Y0207402D01*
X0497319Y0207304D02*
X0501727Y0207304D01*
X0501727Y0207205D02*
X0497644Y0207205D01*
X0498332Y0207107D02*
X0501727Y0207107D01*
X0503227Y0207107D02*
X0506622Y0207107D01*
X0506477Y0207093D02*
X0507160Y0207160D01*
X0507816Y0207359D01*
X0508422Y0207682D01*
X0508952Y0208118D01*
X0509387Y0208648D01*
X0509711Y0209253D01*
X0509910Y0209910D01*
X0509977Y0210593D01*
X0509910Y0211275D01*
X0509711Y0211932D01*
X0509387Y0212537D01*
X0508952Y0213067D01*
X0508422Y0213503D01*
X0507816Y0213826D01*
X0507160Y0214025D01*
X0506477Y0214093D01*
X0503227Y0214093D01*
X0503227Y0207093D01*
X0506477Y0207093D01*
X0507310Y0207205D02*
X0503227Y0207205D01*
X0503227Y0207304D02*
X0507635Y0207304D01*
X0507898Y0207402D02*
X0503227Y0207402D01*
X0503227Y0207501D02*
X0508082Y0207501D01*
X0508266Y0207599D02*
X0503227Y0207599D01*
X0503227Y0207698D02*
X0508440Y0207698D01*
X0508560Y0207796D02*
X0503227Y0207796D01*
X0503227Y0207895D02*
X0508681Y0207895D01*
X0508801Y0207993D02*
X0503227Y0207993D01*
X0503227Y0208092D02*
X0508921Y0208092D01*
X0509012Y0208190D02*
X0503227Y0208190D01*
X0503227Y0208289D02*
X0509093Y0208289D01*
X0509173Y0208387D02*
X0503227Y0208387D01*
X0503227Y0208486D02*
X0509254Y0208486D01*
X0509335Y0208585D02*
X0503227Y0208585D01*
X0503227Y0208683D02*
X0509406Y0208683D01*
X0509459Y0208782D02*
X0503227Y0208782D01*
X0503227Y0208880D02*
X0509511Y0208880D01*
X0509564Y0208979D02*
X0503227Y0208979D01*
X0503227Y0209077D02*
X0509616Y0209077D01*
X0509669Y0209176D02*
X0503227Y0209176D01*
X0503227Y0209274D02*
X0509717Y0209274D01*
X0509747Y0209373D02*
X0503227Y0209373D01*
X0503227Y0209471D02*
X0509777Y0209471D01*
X0509807Y0209570D02*
X0503227Y0209570D01*
X0503227Y0209668D02*
X0509836Y0209668D01*
X0509866Y0209767D02*
X0503227Y0209767D01*
X0503227Y0209865D02*
X0509896Y0209865D01*
X0509915Y0209964D02*
X0503227Y0209964D01*
X0503227Y0210062D02*
X0509925Y0210062D01*
X0509934Y0210161D02*
X0503227Y0210161D01*
X0503227Y0210259D02*
X0509944Y0210259D01*
X0509954Y0210358D02*
X0503227Y0210358D01*
X0503227Y0210456D02*
X0509964Y0210456D01*
X0509973Y0210555D02*
X0503227Y0210555D01*
X0503227Y0210653D02*
X0509971Y0210653D01*
X0509961Y0210752D02*
X0503227Y0210752D01*
X0503227Y0210850D02*
X0509952Y0210850D01*
X0509942Y0210949D02*
X0503227Y0210949D01*
X0503227Y0211047D02*
X0509932Y0211047D01*
X0509923Y0211146D02*
X0503227Y0211146D01*
X0503227Y0211244D02*
X0509913Y0211244D01*
X0509889Y0211343D02*
X0503227Y0211343D01*
X0503227Y0211441D02*
X0509859Y0211441D01*
X0509830Y0211540D02*
X0503227Y0211540D01*
X0503227Y0211638D02*
X0509800Y0211638D01*
X0509770Y0211737D02*
X0503227Y0211737D01*
X0503227Y0211835D02*
X0509740Y0211835D01*
X0509710Y0211934D02*
X0503227Y0211934D01*
X0503227Y0212032D02*
X0509657Y0212032D01*
X0509604Y0212131D02*
X0503227Y0212131D01*
X0503227Y0212229D02*
X0509552Y0212229D01*
X0509499Y0212328D02*
X0503227Y0212328D01*
X0503227Y0212426D02*
X0509446Y0212426D01*
X0509394Y0212525D02*
X0503227Y0212525D01*
X0503227Y0212623D02*
X0509316Y0212623D01*
X0509235Y0212722D02*
X0503227Y0212722D01*
X0503227Y0212820D02*
X0509155Y0212820D01*
X0509074Y0212919D02*
X0503227Y0212919D01*
X0503227Y0213018D02*
X0508993Y0213018D01*
X0508893Y0213116D02*
X0503227Y0213116D01*
X0503227Y0213215D02*
X0508773Y0213215D01*
X0508653Y0213313D02*
X0503227Y0213313D01*
X0503227Y0213412D02*
X0508533Y0213412D01*
X0508408Y0213510D02*
X0503227Y0213510D01*
X0503227Y0213609D02*
X0508223Y0213609D01*
X0508039Y0213707D02*
X0503227Y0213707D01*
X0503227Y0213806D02*
X0507855Y0213806D01*
X0507559Y0213904D02*
X0503227Y0213904D01*
X0503227Y0214003D02*
X0507234Y0214003D01*
X0590067Y0158287D02*
X0590502Y0158817D01*
X0591033Y0159253D01*
X0591638Y0159576D01*
X0592294Y0159775D01*
X0592977Y0159843D01*
X0596227Y0159843D01*
X0596227Y0152843D01*
X0592977Y0152843D01*
X0592294Y0152910D01*
X0591638Y0153109D01*
X0591033Y0153432D01*
X0590502Y0153868D01*
X0590067Y0154398D01*
X0589743Y0155003D01*
X0589544Y0155660D01*
X0589477Y0156343D01*
X0589544Y0157025D01*
X0589743Y0157682D01*
X0590067Y0158287D01*
X0590045Y0158245D02*
X0596227Y0158245D01*
X0596227Y0158147D02*
X0589992Y0158147D01*
X0589939Y0158048D02*
X0596227Y0158048D01*
X0596227Y0157950D02*
X0589887Y0157950D01*
X0589834Y0157851D02*
X0596227Y0157851D01*
X0596227Y0157753D02*
X0589781Y0157753D01*
X0589735Y0157654D02*
X0596227Y0157654D01*
X0596227Y0157556D02*
X0589705Y0157556D01*
X0589675Y0157457D02*
X0596227Y0157457D01*
X0596227Y0157359D02*
X0589645Y0157359D01*
X0589616Y0157260D02*
X0596227Y0157260D01*
X0596227Y0157162D02*
X0589586Y0157162D01*
X0589556Y0157063D02*
X0596227Y0157063D01*
X0596227Y0156965D02*
X0589538Y0156965D01*
X0589529Y0156866D02*
X0596227Y0156866D01*
X0596227Y0156768D02*
X0589519Y0156768D01*
X0589509Y0156669D02*
X0596227Y0156669D01*
X0596227Y0156571D02*
X0589499Y0156571D01*
X0589490Y0156472D02*
X0596227Y0156472D01*
X0596227Y0156374D02*
X0589480Y0156374D01*
X0589484Y0156275D02*
X0596227Y0156275D01*
X0596227Y0156176D02*
X0589493Y0156176D01*
X0589503Y0156078D02*
X0596227Y0156078D01*
X0596227Y0155979D02*
X0589513Y0155979D01*
X0589522Y0155881D02*
X0596227Y0155881D01*
X0596227Y0155782D02*
X0589532Y0155782D01*
X0589542Y0155684D02*
X0596227Y0155684D01*
X0596227Y0155585D02*
X0589567Y0155585D01*
X0589597Y0155487D02*
X0596227Y0155487D01*
X0596227Y0155388D02*
X0589627Y0155388D01*
X0589656Y0155290D02*
X0596227Y0155290D01*
X0596227Y0155191D02*
X0589686Y0155191D01*
X0589716Y0155093D02*
X0596227Y0155093D01*
X0596227Y0154994D02*
X0589748Y0154994D01*
X0589801Y0154896D02*
X0596227Y0154896D01*
X0596227Y0154797D02*
X0589853Y0154797D01*
X0589906Y0154699D02*
X0596227Y0154699D01*
X0596227Y0154600D02*
X0589959Y0154600D01*
X0590011Y0154502D02*
X0596227Y0154502D01*
X0596227Y0154403D02*
X0590064Y0154403D01*
X0590143Y0154305D02*
X0596227Y0154305D01*
X0596227Y0154206D02*
X0590224Y0154206D01*
X0590305Y0154108D02*
X0596227Y0154108D01*
X0596227Y0154009D02*
X0590386Y0154009D01*
X0590467Y0153911D02*
X0596227Y0153911D01*
X0596227Y0153812D02*
X0590570Y0153812D01*
X0590690Y0153714D02*
X0596227Y0153714D01*
X0596227Y0153615D02*
X0590810Y0153615D01*
X0590930Y0153517D02*
X0596227Y0153517D01*
X0596227Y0153418D02*
X0591059Y0153418D01*
X0591243Y0153320D02*
X0596227Y0153320D01*
X0596227Y0153221D02*
X0591428Y0153221D01*
X0591612Y0153123D02*
X0596227Y0153123D01*
X0596227Y0153024D02*
X0591917Y0153024D01*
X0592242Y0152926D02*
X0596227Y0152926D01*
X0597727Y0152926D02*
X0601712Y0152926D01*
X0601660Y0152910D02*
X0602316Y0153109D01*
X0602922Y0153432D01*
X0603452Y0153868D01*
X0603887Y0154398D01*
X0604211Y0155003D01*
X0604410Y0155660D01*
X0604477Y0156343D01*
X0604410Y0157025D01*
X0604211Y0157682D01*
X0603887Y0158287D01*
X0603452Y0158817D01*
X0602922Y0159253D01*
X0602316Y0159576D01*
X0601660Y0159775D01*
X0600977Y0159843D01*
X0597727Y0159843D01*
X0597727Y0152843D01*
X0600977Y0152843D01*
X0601660Y0152910D01*
X0602037Y0153024D02*
X0597727Y0153024D01*
X0597727Y0153123D02*
X0602342Y0153123D01*
X0602526Y0153221D02*
X0597727Y0153221D01*
X0597727Y0153320D02*
X0602711Y0153320D01*
X0602895Y0153418D02*
X0597727Y0153418D01*
X0597727Y0153517D02*
X0603024Y0153517D01*
X0603144Y0153615D02*
X0597727Y0153615D01*
X0597727Y0153714D02*
X0603264Y0153714D01*
X0603384Y0153812D02*
X0597727Y0153812D01*
X0597727Y0153911D02*
X0603487Y0153911D01*
X0603568Y0154009D02*
X0597727Y0154009D01*
X0597727Y0154108D02*
X0603649Y0154108D01*
X0603730Y0154206D02*
X0597727Y0154206D01*
X0597727Y0154305D02*
X0603811Y0154305D01*
X0603890Y0154403D02*
X0597727Y0154403D01*
X0597727Y0154502D02*
X0603943Y0154502D01*
X0603995Y0154600D02*
X0597727Y0154600D01*
X0597727Y0154699D02*
X0604048Y0154699D01*
X0604101Y0154797D02*
X0597727Y0154797D01*
X0597727Y0154896D02*
X0604153Y0154896D01*
X0604206Y0154994D02*
X0597727Y0154994D01*
X0597727Y0155093D02*
X0604238Y0155093D01*
X0604268Y0155191D02*
X0597727Y0155191D01*
X0597727Y0155290D02*
X0604298Y0155290D01*
X0604327Y0155388D02*
X0597727Y0155388D01*
X0597727Y0155487D02*
X0604357Y0155487D01*
X0604387Y0155585D02*
X0597727Y0155585D01*
X0597727Y0155684D02*
X0604412Y0155684D01*
X0604422Y0155782D02*
X0597727Y0155782D01*
X0597727Y0155881D02*
X0604432Y0155881D01*
X0604441Y0155979D02*
X0597727Y0155979D01*
X0597727Y0156078D02*
X0604451Y0156078D01*
X0604461Y0156176D02*
X0597727Y0156176D01*
X0597727Y0156275D02*
X0604470Y0156275D01*
X0604474Y0156374D02*
X0597727Y0156374D01*
X0597727Y0156472D02*
X0604464Y0156472D01*
X0604455Y0156571D02*
X0597727Y0156571D01*
X0597727Y0156669D02*
X0604445Y0156669D01*
X0604435Y0156768D02*
X0597727Y0156768D01*
X0597727Y0156866D02*
X0604425Y0156866D01*
X0604416Y0156965D02*
X0597727Y0156965D01*
X0597727Y0157063D02*
X0604398Y0157063D01*
X0604368Y0157162D02*
X0597727Y0157162D01*
X0597727Y0157260D02*
X0604339Y0157260D01*
X0604309Y0157359D02*
X0597727Y0157359D01*
X0597727Y0157457D02*
X0604279Y0157457D01*
X0604249Y0157556D02*
X0597727Y0157556D01*
X0597727Y0157654D02*
X0604219Y0157654D01*
X0604173Y0157753D02*
X0597727Y0157753D01*
X0597727Y0157851D02*
X0604120Y0157851D01*
X0604067Y0157950D02*
X0597727Y0157950D01*
X0597727Y0158048D02*
X0604015Y0158048D01*
X0603962Y0158147D02*
X0597727Y0158147D01*
X0597727Y0158245D02*
X0603910Y0158245D01*
X0603841Y0158344D02*
X0597727Y0158344D01*
X0597727Y0158442D02*
X0603760Y0158442D01*
X0603679Y0158541D02*
X0597727Y0158541D01*
X0597727Y0158639D02*
X0603598Y0158639D01*
X0603517Y0158738D02*
X0597727Y0158738D01*
X0597727Y0158836D02*
X0603429Y0158836D01*
X0603309Y0158935D02*
X0597727Y0158935D01*
X0597727Y0159033D02*
X0603189Y0159033D01*
X0603069Y0159132D02*
X0597727Y0159132D01*
X0597727Y0159230D02*
X0602949Y0159230D01*
X0602779Y0159329D02*
X0597727Y0159329D01*
X0597727Y0159427D02*
X0602595Y0159427D01*
X0602410Y0159526D02*
X0597727Y0159526D01*
X0597727Y0159624D02*
X0602157Y0159624D01*
X0601833Y0159723D02*
X0597727Y0159723D01*
X0597727Y0159821D02*
X0601191Y0159821D01*
X0596227Y0159821D02*
X0592763Y0159821D01*
X0592122Y0159723D02*
X0596227Y0159723D01*
X0596227Y0159624D02*
X0591797Y0159624D01*
X0591544Y0159526D02*
X0596227Y0159526D01*
X0596227Y0159427D02*
X0591359Y0159427D01*
X0591175Y0159329D02*
X0596227Y0159329D01*
X0596227Y0159230D02*
X0591005Y0159230D01*
X0590885Y0159132D02*
X0596227Y0159132D01*
X0596227Y0159033D02*
X0590765Y0159033D01*
X0590645Y0158935D02*
X0596227Y0158935D01*
X0596227Y0158836D02*
X0590525Y0158836D01*
X0590437Y0158738D02*
X0596227Y0158738D01*
X0596227Y0158639D02*
X0590356Y0158639D01*
X0590275Y0158541D02*
X0596227Y0158541D01*
X0596227Y0158442D02*
X0590194Y0158442D01*
X0590113Y0158344D02*
X0596227Y0158344D01*
D46*
X0272227Y0118579D03*
X0267227Y0118579D03*
X0262227Y0118579D03*
X0257227Y0118579D03*
X0257227Y0098106D03*
X0262227Y0098106D03*
X0267227Y0098106D03*
X0272227Y0098106D03*
D47*
X0408227Y0243593D03*
X0427227Y0243593D03*
X0427227Y0271593D03*
X0408227Y0271593D03*
D48*
X0565160Y0052213D03*
X0586814Y0052213D03*
D49*
X0583298Y0040843D03*
X0567156Y0040843D03*
D50*
X0370308Y0159852D03*
X0370308Y0167333D03*
X0361646Y0163593D03*
D51*
X0368024Y0240093D03*
X0373930Y0240093D03*
D52*
X0370477Y0099993D02*
X0370477Y0095193D01*
X0380477Y0095193D02*
X0380477Y0099993D01*
X0360477Y0099993D02*
X0360477Y0095193D01*
D53*
X0248577Y0171268D02*
X0248577Y0180567D01*
X0226577Y0180567D02*
X0226577Y0171268D01*
X0204577Y0171268D02*
X0204577Y0180567D01*
X0154089Y0180567D02*
X0154089Y0171268D01*
X0132089Y0171268D02*
X0132089Y0180567D01*
X0110089Y0180567D02*
X0110089Y0171268D01*
X0149459Y0329370D02*
X0149459Y0338669D01*
X0171459Y0338669D02*
X0171459Y0329370D01*
X0193459Y0329370D02*
X0193459Y0338669D01*
X0271507Y0338669D02*
X0271507Y0329370D01*
X0293507Y0329370D02*
X0293507Y0338669D01*
X0315507Y0338669D02*
X0315507Y0329370D01*
D54*
X0244451Y0332520D02*
X0244451Y0338520D01*
X0224451Y0338520D02*
X0224451Y0332520D01*
D55*
X0232843Y0275401D02*
X0232843Y0222785D01*
X0232843Y0275401D02*
X0242151Y0275401D01*
X0242151Y0222785D01*
X0232843Y0222785D01*
X0232843Y0225887D02*
X0242151Y0225887D01*
X0242151Y0228989D02*
X0232843Y0228989D01*
X0232843Y0232091D02*
X0242151Y0232091D01*
X0242151Y0235193D02*
X0232843Y0235193D01*
X0232843Y0238295D02*
X0242151Y0238295D01*
X0242151Y0241397D02*
X0232843Y0241397D01*
X0232843Y0244499D02*
X0242151Y0244499D01*
X0242151Y0247601D02*
X0232843Y0247601D01*
X0232843Y0250703D02*
X0242151Y0250703D01*
X0242151Y0253805D02*
X0232843Y0253805D01*
X0232843Y0256907D02*
X0242151Y0256907D01*
X0242151Y0260009D02*
X0232843Y0260009D01*
X0232843Y0263111D02*
X0242151Y0263111D01*
X0242151Y0266213D02*
X0232843Y0266213D01*
X0232843Y0269315D02*
X0242151Y0269315D01*
X0242151Y0272417D02*
X0232843Y0272417D01*
X0147803Y0275401D02*
X0147803Y0222785D01*
X0147803Y0275401D02*
X0157111Y0275401D01*
X0157111Y0222785D01*
X0147803Y0222785D01*
X0147803Y0225887D02*
X0157111Y0225887D01*
X0157111Y0228989D02*
X0147803Y0228989D01*
X0147803Y0232091D02*
X0157111Y0232091D01*
X0157111Y0235193D02*
X0147803Y0235193D01*
X0147803Y0238295D02*
X0157111Y0238295D01*
X0157111Y0241397D02*
X0147803Y0241397D01*
X0147803Y0244499D02*
X0157111Y0244499D01*
X0157111Y0247601D02*
X0147803Y0247601D01*
X0147803Y0250703D02*
X0157111Y0250703D01*
X0157111Y0253805D02*
X0147803Y0253805D01*
X0147803Y0256907D02*
X0157111Y0256907D01*
X0157111Y0260009D02*
X0147803Y0260009D01*
X0147803Y0263111D02*
X0157111Y0263111D01*
X0157111Y0266213D02*
X0147803Y0266213D01*
X0147803Y0269315D02*
X0157111Y0269315D01*
X0157111Y0272417D02*
X0147803Y0272417D01*
X0138401Y0275401D02*
X0138401Y0222785D01*
X0129093Y0222785D01*
X0129093Y0275401D01*
X0138401Y0275401D01*
X0138401Y0225887D02*
X0129093Y0225887D01*
X0129093Y0228989D02*
X0138401Y0228989D01*
X0138401Y0232091D02*
X0129093Y0232091D01*
X0129093Y0235193D02*
X0138401Y0235193D01*
X0138401Y0238295D02*
X0129093Y0238295D01*
X0129093Y0241397D02*
X0138401Y0241397D01*
X0138401Y0244499D02*
X0129093Y0244499D01*
X0129093Y0247601D02*
X0138401Y0247601D01*
X0138401Y0250703D02*
X0129093Y0250703D01*
X0129093Y0253805D02*
X0138401Y0253805D01*
X0138401Y0256907D02*
X0129093Y0256907D01*
X0129093Y0260009D02*
X0138401Y0260009D01*
X0138401Y0263111D02*
X0129093Y0263111D01*
X0129093Y0266213D02*
X0138401Y0266213D01*
X0138401Y0269315D02*
X0129093Y0269315D01*
X0129093Y0272417D02*
X0138401Y0272417D01*
X0053361Y0275401D02*
X0053361Y0222785D01*
X0044053Y0222785D01*
X0044053Y0275401D01*
X0053361Y0275401D01*
X0053361Y0225887D02*
X0044053Y0225887D01*
X0044053Y0228989D02*
X0053361Y0228989D01*
X0053361Y0232091D02*
X0044053Y0232091D01*
X0044053Y0235193D02*
X0053361Y0235193D01*
X0053361Y0238295D02*
X0044053Y0238295D01*
X0044053Y0241397D02*
X0053361Y0241397D01*
X0053361Y0244499D02*
X0044053Y0244499D01*
X0044053Y0247601D02*
X0053361Y0247601D01*
X0053361Y0250703D02*
X0044053Y0250703D01*
X0044053Y0253805D02*
X0053361Y0253805D01*
X0053361Y0256907D02*
X0044053Y0256907D01*
X0044053Y0260009D02*
X0053361Y0260009D01*
X0053361Y0263111D02*
X0044053Y0263111D01*
X0044053Y0266213D02*
X0053361Y0266213D01*
X0053361Y0269315D02*
X0044053Y0269315D01*
X0044053Y0272417D02*
X0053361Y0272417D01*
D56*
X0095948Y0139929D03*
X0123507Y0139929D03*
X0130396Y0025756D03*
X0116617Y0025756D03*
X0102837Y0025756D03*
X0089058Y0025756D03*
D57*
X0314290Y0262093D03*
X0322164Y0262093D03*
D58*
X0582727Y0063343D03*
D59*
X0562727Y0063343D03*
D60*
X0602680Y0074772D03*
X0612680Y0074772D03*
X0612680Y0084772D03*
X0602680Y0084772D03*
D61*
X0615554Y0104378D03*
D62*
X0615554Y0114220D03*
X0615554Y0124063D03*
X0615554Y0133906D03*
X0615554Y0143748D03*
X0615554Y0153591D03*
X0615554Y0163433D03*
X0615554Y0173276D03*
D63*
X0539227Y0049643D03*
X0505727Y0049643D03*
X0505727Y0025043D03*
X0539227Y0025043D03*
D64*
X0361727Y0174746D03*
X0361727Y0181439D03*
D65*
X0626184Y0353394D03*
D66*
X0043507Y0026622D03*
X0043507Y0353394D03*
X0626184Y0026622D03*
M02*
