G75*
%MOIN*%
%OFA0B0*%
%FSLAX25Y25*%
%IPPOS*%
%LPD*%
%AMOC8*
5,1,8,0,0,1.08239X$1,22.5*
%
%ADD10C,0.10600*%
%ADD11OC8,0.06600*%
%ADD12R,0.07698X0.06899*%
%ADD13C,0.10293*%
%ADD14C,0.12411*%
%ADD15OC8,0.06000*%
%ADD16R,0.22835X0.14961*%
%ADD17R,0.08868X0.08868*%
%ADD18OC8,0.08868*%
%ADD19C,0.00500*%
%ADD20R,0.04931X0.04537*%
%ADD21R,0.15167X0.05718*%
%ADD22R,0.40364X0.35639*%
%ADD23R,0.06899X0.07687*%
%ADD24C,0.12962*%
%ADD25OC8,0.12962*%
%ADD26OC8,0.07096*%
%ADD27R,0.05718X0.06506*%
%ADD28R,0.05324X0.06506*%
%ADD29R,0.06506X0.05718*%
%ADD30R,0.02962X0.09261*%
%ADD31R,0.04537X0.04931*%
%ADD32OC8,0.10600*%
%ADD33R,0.03000X0.06700*%
%ADD34C,0.07687*%
%ADD35OC8,0.07687*%
%ADD36R,0.06112X0.06112*%
%ADD37R,0.06702X0.02962*%
%ADD38R,0.04537X0.05324*%
%ADD39C,0.00100*%
%ADD40OC8,0.10293*%
%ADD41R,0.11230X0.06899*%
%ADD42R,0.07687X0.06899*%
%ADD43R,0.05324X0.04537*%
%ADD44C,0.04931*%
%ADD45C,0.05400*%
%ADD46R,0.06506X0.05324*%
%ADD47R,0.06112X0.04537*%
%ADD48R,0.06200X0.02000*%
%ADD49R,0.23041X0.22254*%
%ADD50R,0.07293X0.05718*%
%ADD51C,0.09899*%
%ADD52C,0.06600*%
%ADD53R,0.07687X0.13198*%
%ADD54R,0.06899X0.07698*%
%ADD55R,0.22254X0.23041*%
%ADD56R,0.05718X0.07293*%
%ADD57R,0.13198X0.07687*%
%ADD58R,0.13986X0.08080*%
%ADD59R,0.08080X0.13986*%
%ADD60OC8,0.09899*%
%ADD61C,0.05600*%
%ADD62R,0.09261X0.07687*%
%ADD63OC8,0.09200*%
%ADD64R,0.04143X0.04143*%
%ADD65OC8,0.06506*%
%ADD66R,0.05915X0.05915*%
%ADD67OC8,0.05915*%
%ADD68OC8,0.22254*%
%ADD69C,0.22254*%
D10*
X0484727Y0258093D03*
X0547013Y0284006D03*
X0596225Y0284006D03*
X0596225Y0323376D03*
X0547013Y0323376D03*
X0558477Y0118593D03*
D11*
X0525227Y0264343D03*
X0618227Y0263843D03*
X0618227Y0322843D03*
X0525227Y0323343D03*
D12*
X0584985Y0319242D03*
X0584985Y0308045D03*
X0584985Y0299742D03*
X0584985Y0288545D03*
X0501227Y0259941D03*
X0501227Y0248744D03*
D13*
X0582755Y0238039D02*
X0592448Y0238039D01*
X0592448Y0221504D02*
X0582755Y0221504D01*
X0582755Y0204969D02*
X0592448Y0204969D01*
D14*
X0616341Y0204969D03*
X0616341Y0238039D03*
X0615554Y0052213D03*
D15*
X0495227Y0161843D03*
X0505227Y0201843D03*
X0535977Y0211593D03*
X0575977Y0221593D03*
X0575977Y0237843D03*
X0535977Y0247843D03*
X0502977Y0292593D03*
X0502977Y0311843D03*
X0462977Y0302593D03*
X0462977Y0321843D03*
D16*
X0566719Y0323541D03*
X0566719Y0284041D03*
D17*
X0524294Y0355362D03*
D18*
X0504294Y0355362D03*
X0483794Y0355362D03*
X0464294Y0355362D03*
D19*
X0599530Y0357331D02*
X0599606Y0356462D01*
X0599832Y0355621D01*
X0600200Y0354831D01*
X0600700Y0354117D01*
X0601316Y0353500D01*
X0602030Y0353001D01*
X0602820Y0352632D01*
X0603662Y0352407D01*
X0604530Y0352331D01*
X0605398Y0352407D01*
X0606240Y0352632D01*
X0607030Y0353001D01*
X0607744Y0353500D01*
X0608360Y0354117D01*
X0608860Y0354831D01*
X0609229Y0355621D01*
X0609454Y0356462D01*
X0609530Y0357331D01*
X0609454Y0358199D01*
X0609229Y0359041D01*
X0608860Y0359831D01*
X0608360Y0360545D01*
X0607744Y0361161D01*
X0607030Y0361661D01*
X0606240Y0362029D01*
X0605398Y0362255D01*
X0604530Y0362331D01*
X0603662Y0362255D01*
X0602820Y0362029D01*
X0602030Y0361661D01*
X0601316Y0361161D01*
X0600700Y0360545D01*
X0600200Y0359831D01*
X0599832Y0359041D01*
X0599606Y0358199D01*
X0599530Y0357331D01*
X0599532Y0357314D02*
X0609529Y0357314D01*
X0609488Y0357812D02*
X0599572Y0357812D01*
X0599636Y0358311D02*
X0609424Y0358311D01*
X0609291Y0358809D02*
X0599770Y0358809D01*
X0599956Y0359308D02*
X0609104Y0359308D01*
X0608872Y0359806D02*
X0600189Y0359806D01*
X0600532Y0360305D02*
X0608528Y0360305D01*
X0608102Y0360803D02*
X0600959Y0360803D01*
X0601518Y0361302D02*
X0607543Y0361302D01*
X0606731Y0361800D02*
X0602330Y0361800D01*
X0604167Y0362299D02*
X0604893Y0362299D01*
X0609485Y0356815D02*
X0599575Y0356815D01*
X0599645Y0356317D02*
X0609415Y0356317D01*
X0609282Y0355818D02*
X0599779Y0355818D01*
X0599972Y0355320D02*
X0609088Y0355320D01*
X0608854Y0354821D02*
X0600207Y0354821D01*
X0600556Y0354323D02*
X0608505Y0354323D01*
X0608068Y0353824D02*
X0600992Y0353824D01*
X0601566Y0353326D02*
X0607495Y0353326D01*
X0606658Y0352827D02*
X0602402Y0352827D01*
X0043900Y0050776D02*
X0044268Y0049986D01*
X0044494Y0049144D01*
X0044570Y0048276D01*
X0044494Y0047407D01*
X0044268Y0046565D01*
X0043900Y0045776D01*
X0043400Y0045062D01*
X0042783Y0044445D01*
X0042070Y0043945D01*
X0041280Y0043577D01*
X0040438Y0043352D01*
X0039570Y0043276D01*
X0038701Y0043352D01*
X0037859Y0043577D01*
X0037070Y0043945D01*
X0036356Y0044445D01*
X0035739Y0045062D01*
X0035239Y0045776D01*
X0034871Y0046565D01*
X0034646Y0047407D01*
X0034570Y0048276D01*
X0034646Y0049144D01*
X0034871Y0049986D01*
X0035239Y0050776D01*
X0035739Y0051490D01*
X0036356Y0052106D01*
X0037070Y0052606D01*
X0037859Y0052974D01*
X0038701Y0053200D01*
X0039570Y0053276D01*
X0040438Y0053200D01*
X0041280Y0052974D01*
X0042070Y0052606D01*
X0042783Y0052106D01*
X0043400Y0051490D01*
X0043900Y0050776D01*
X0043921Y0050729D02*
X0035218Y0050729D01*
X0034985Y0050231D02*
X0044154Y0050231D01*
X0044336Y0049732D02*
X0034803Y0049732D01*
X0034670Y0049234D02*
X0044469Y0049234D01*
X0044529Y0048735D02*
X0034610Y0048735D01*
X0034573Y0048237D02*
X0044566Y0048237D01*
X0044523Y0047738D02*
X0034617Y0047738D01*
X0034690Y0047240D02*
X0044449Y0047240D01*
X0044315Y0046741D02*
X0034824Y0046741D01*
X0035022Y0046243D02*
X0044118Y0046243D01*
X0043878Y0045744D02*
X0035261Y0045744D01*
X0035610Y0045246D02*
X0043529Y0045246D01*
X0043085Y0044747D02*
X0036054Y0044747D01*
X0036636Y0044249D02*
X0042503Y0044249D01*
X0041651Y0043750D02*
X0037488Y0043750D01*
X0035556Y0051228D02*
X0043583Y0051228D01*
X0043163Y0051726D02*
X0035976Y0051726D01*
X0036526Y0052225D02*
X0042613Y0052225D01*
X0041817Y0052723D02*
X0037322Y0052723D01*
X0038956Y0053222D02*
X0040183Y0053222D01*
D20*
X0265131Y0082593D03*
X0271823Y0082593D03*
X0304881Y0109593D03*
X0311573Y0109593D03*
X0348131Y0177843D03*
X0354823Y0177843D03*
X0354823Y0184593D03*
X0348131Y0184593D03*
X0363131Y0233093D03*
X0369823Y0233093D03*
X0413881Y0241343D03*
X0420573Y0241343D03*
X0216323Y0257093D03*
X0209631Y0257093D03*
D21*
X0226211Y0122343D03*
X0226211Y0102343D03*
X0226211Y0073593D03*
X0226211Y0053593D03*
D22*
X0186448Y0063593D03*
X0186448Y0112343D03*
D23*
X0266465Y0090593D03*
X0277489Y0090593D03*
X0287715Y0120593D03*
X0298739Y0120593D03*
X0570715Y0042093D03*
X0581739Y0042093D03*
X0581739Y0032843D03*
X0570715Y0032843D03*
D24*
X0409977Y0037579D03*
X0338977Y0037579D03*
X0267727Y0037579D03*
X0354977Y0285579D03*
X0423977Y0308329D03*
D25*
X0423977Y0337856D03*
X0354977Y0315106D03*
X0338977Y0067106D03*
X0409977Y0067106D03*
X0267727Y0067106D03*
D26*
X0467977Y0062093D03*
D27*
X0467987Y0027843D03*
X0475467Y0027843D03*
X0327717Y0118093D03*
X0320237Y0118093D03*
X0320237Y0125843D03*
X0327717Y0125843D03*
X0310467Y0102343D03*
X0302987Y0102343D03*
X0302987Y0094593D03*
X0310467Y0094593D03*
X0304967Y0151093D03*
X0297487Y0151093D03*
X0297487Y0174593D03*
X0304967Y0174593D03*
X0304967Y0182343D03*
X0297487Y0182343D03*
X0297487Y0190093D03*
X0304967Y0190093D03*
X0304967Y0197843D03*
X0297487Y0197843D03*
X0265717Y0186343D03*
X0258237Y0186343D03*
X0174217Y0183093D03*
X0166737Y0183093D03*
X0200987Y0240593D03*
X0208467Y0240593D03*
X0314487Y0269843D03*
X0321967Y0269843D03*
X0253717Y0313593D03*
X0246237Y0313593D03*
X0255737Y0321843D03*
X0263217Y0321843D03*
X0177717Y0314843D03*
X0170237Y0314843D03*
X0346237Y0192093D03*
X0353717Y0192093D03*
X0353717Y0170593D03*
X0346237Y0170593D03*
X0475237Y0210593D03*
X0482717Y0210593D03*
X0482717Y0218343D03*
X0475237Y0218343D03*
X0482987Y0226093D03*
X0490467Y0226093D03*
X0490987Y0151343D03*
X0498467Y0151343D03*
X0498467Y0143593D03*
X0490987Y0143593D03*
D28*
X0481977Y0141134D03*
X0481977Y0152551D03*
X0410977Y0261134D03*
X0410977Y0272551D03*
X0297477Y0217051D03*
X0297477Y0205634D03*
X0184727Y0263884D03*
X0184727Y0275301D03*
X0152477Y0309134D03*
X0152477Y0320551D03*
D29*
X0161477Y0311833D03*
X0161477Y0304352D03*
X0152477Y0301083D03*
X0152477Y0293602D03*
X0176727Y0272083D03*
X0176727Y0264602D03*
X0185477Y0254583D03*
X0185477Y0247102D03*
X0200977Y0248852D03*
X0200977Y0256333D03*
X0216477Y0249833D03*
X0216477Y0242352D03*
X0224227Y0249102D03*
X0231977Y0249102D03*
X0231977Y0256583D03*
X0224227Y0256583D03*
X0242227Y0259083D03*
X0242227Y0251602D03*
X0269227Y0253852D03*
X0269227Y0261333D03*
X0311977Y0214583D03*
X0319727Y0214583D03*
X0319727Y0207102D03*
X0311977Y0207102D03*
X0337227Y0205583D03*
X0346227Y0207583D03*
X0353977Y0207583D03*
X0353977Y0200102D03*
X0346227Y0200102D03*
X0337227Y0198102D03*
X0304977Y0166583D03*
X0304977Y0159102D03*
X0297227Y0159102D03*
X0297227Y0166583D03*
X0335727Y0125833D03*
X0335727Y0118352D03*
X0377727Y0116352D03*
X0377727Y0123833D03*
X0378977Y0150602D03*
X0378977Y0158083D03*
X0490727Y0210602D03*
X0490727Y0218083D03*
X0501227Y0233102D03*
X0501227Y0240583D03*
X0473477Y0241833D03*
X0473477Y0234352D03*
X0465727Y0234352D03*
X0465727Y0241833D03*
X0457977Y0241833D03*
X0457977Y0234352D03*
X0419727Y0248602D03*
X0419727Y0256083D03*
X0419727Y0264102D03*
X0419727Y0271583D03*
X0317977Y0071833D03*
X0317977Y0064352D03*
X0317977Y0056333D03*
X0317977Y0048852D03*
X0307227Y0064352D03*
X0307227Y0071833D03*
X0514227Y0042833D03*
X0514227Y0035352D03*
D30*
X0369227Y0125713D03*
X0364227Y0125713D03*
X0354727Y0125713D03*
X0349727Y0125713D03*
X0349727Y0146972D03*
X0354727Y0146972D03*
X0364227Y0146972D03*
X0369227Y0146972D03*
X0484727Y0165713D03*
X0489727Y0165713D03*
X0489727Y0186972D03*
X0484727Y0186972D03*
D31*
X0450727Y0233246D03*
X0450727Y0239939D03*
X0304727Y0211439D03*
X0304727Y0204746D03*
X0249477Y0253496D03*
X0249477Y0260189D03*
X0233727Y0297496D03*
X0226977Y0297496D03*
X0220227Y0297496D03*
X0220227Y0304189D03*
X0226977Y0304189D03*
X0233727Y0304189D03*
X0204227Y0304189D03*
X0197477Y0304189D03*
X0190727Y0304189D03*
X0190727Y0297496D03*
X0197477Y0297496D03*
X0204227Y0297496D03*
X0307727Y0054439D03*
X0307727Y0047746D03*
D32*
X0558477Y0098593D03*
X0464727Y0258093D03*
D33*
X0462477Y0225693D03*
X0457477Y0225693D03*
X0452477Y0225693D03*
X0447477Y0225693D03*
X0442477Y0225693D03*
X0437477Y0225693D03*
X0432477Y0225693D03*
X0432477Y0204493D03*
X0437477Y0204493D03*
X0442477Y0204493D03*
X0447477Y0204493D03*
X0452477Y0204493D03*
X0457477Y0204493D03*
X0462477Y0204493D03*
X0467477Y0204493D03*
X0467477Y0225693D03*
X0225727Y0265743D03*
X0220727Y0265743D03*
X0215727Y0265743D03*
X0210727Y0265743D03*
X0205727Y0265743D03*
X0200727Y0265743D03*
X0195727Y0265743D03*
X0190727Y0265743D03*
X0190727Y0286943D03*
X0195727Y0286943D03*
X0200727Y0286943D03*
X0205727Y0286943D03*
X0210727Y0286943D03*
X0215727Y0286943D03*
X0220727Y0286943D03*
X0225727Y0286943D03*
D34*
X0405749Y0188963D03*
X0415592Y0188963D03*
X0435277Y0188963D03*
X0454962Y0188963D03*
X0450041Y0110222D03*
X0440198Y0110222D03*
X0430356Y0110222D03*
X0420513Y0110222D03*
X0410671Y0110222D03*
X0400828Y0110222D03*
X0459883Y0110222D03*
X0469726Y0110222D03*
D35*
X0464805Y0188963D03*
X0365227Y0341093D03*
X0116341Y0346504D03*
X0088782Y0163433D03*
D36*
X0398497Y0201093D03*
X0413457Y0201093D03*
D37*
X0340857Y0109573D03*
X0340857Y0104573D03*
X0340857Y0099573D03*
X0340857Y0094573D03*
X0319597Y0094573D03*
X0319597Y0099573D03*
X0319597Y0104573D03*
X0319597Y0109573D03*
D38*
X0289477Y0151724D03*
X0289477Y0161961D03*
X0364727Y0176224D03*
X0371477Y0176224D03*
X0371477Y0186461D03*
X0364727Y0186461D03*
D39*
X0344316Y0158576D02*
X0343660Y0158775D01*
X0342977Y0158843D01*
X0342294Y0158775D01*
X0341638Y0158576D01*
X0341033Y0158253D01*
X0340502Y0157817D01*
X0340067Y0157287D01*
X0339743Y0156682D01*
X0339544Y0156025D01*
X0339477Y0155343D01*
X0339477Y0154593D01*
X0346477Y0154593D01*
X0346477Y0153843D01*
X0346410Y0153160D01*
X0346211Y0152503D01*
X0345887Y0151898D01*
X0345452Y0151368D01*
X0344922Y0150932D01*
X0344316Y0150609D01*
X0343660Y0150410D01*
X0342977Y0150343D01*
X0342294Y0150410D01*
X0341638Y0150609D01*
X0341033Y0150932D01*
X0340502Y0151368D01*
X0340067Y0151898D01*
X0339743Y0152503D01*
X0339544Y0153160D01*
X0339477Y0153843D01*
X0339477Y0154593D01*
X0346477Y0154593D01*
X0346477Y0155343D01*
X0346410Y0156025D01*
X0346211Y0156682D01*
X0345887Y0157287D01*
X0345452Y0157817D01*
X0344922Y0158253D01*
X0344316Y0158576D01*
X0344383Y0158541D02*
X0341572Y0158541D01*
X0341387Y0158442D02*
X0344567Y0158442D01*
X0344751Y0158344D02*
X0341203Y0158344D01*
X0341023Y0158245D02*
X0344931Y0158245D01*
X0345051Y0158147D02*
X0340903Y0158147D01*
X0340783Y0158048D02*
X0345171Y0158048D01*
X0345291Y0157950D02*
X0340663Y0157950D01*
X0340543Y0157851D02*
X0345411Y0157851D01*
X0345505Y0157753D02*
X0340449Y0157753D01*
X0340368Y0157654D02*
X0345586Y0157654D01*
X0345667Y0157556D02*
X0340287Y0157556D01*
X0340206Y0157457D02*
X0345748Y0157457D01*
X0345828Y0157359D02*
X0340126Y0157359D01*
X0340053Y0157260D02*
X0345902Y0157260D01*
X0345954Y0157162D02*
X0340000Y0157162D01*
X0339947Y0157063D02*
X0346007Y0157063D01*
X0346060Y0156965D02*
X0339895Y0156965D01*
X0339842Y0156866D02*
X0346112Y0156866D01*
X0346165Y0156768D02*
X0339789Y0156768D01*
X0339740Y0156669D02*
X0346215Y0156669D01*
X0346244Y0156571D02*
X0339710Y0156571D01*
X0339680Y0156472D02*
X0346274Y0156472D01*
X0346304Y0156374D02*
X0339650Y0156374D01*
X0339620Y0156275D02*
X0346334Y0156275D01*
X0346364Y0156176D02*
X0339590Y0156176D01*
X0339560Y0156078D02*
X0346394Y0156078D01*
X0346414Y0155979D02*
X0339540Y0155979D01*
X0339530Y0155881D02*
X0346424Y0155881D01*
X0346434Y0155782D02*
X0339520Y0155782D01*
X0339511Y0155684D02*
X0346443Y0155684D01*
X0346453Y0155585D02*
X0339501Y0155585D01*
X0339491Y0155487D02*
X0346463Y0155487D01*
X0346473Y0155388D02*
X0339482Y0155388D01*
X0339477Y0155290D02*
X0346477Y0155290D01*
X0346477Y0155191D02*
X0339477Y0155191D01*
X0339477Y0155093D02*
X0346477Y0155093D01*
X0346477Y0154994D02*
X0339477Y0154994D01*
X0339477Y0154896D02*
X0346477Y0154896D01*
X0346477Y0154797D02*
X0339477Y0154797D01*
X0339477Y0154699D02*
X0346477Y0154699D01*
X0346477Y0154600D02*
X0339477Y0154600D01*
X0339477Y0154502D02*
X0346477Y0154502D01*
X0346477Y0154403D02*
X0339477Y0154403D01*
X0339477Y0154305D02*
X0346477Y0154305D01*
X0346477Y0154206D02*
X0339477Y0154206D01*
X0339477Y0154108D02*
X0346477Y0154108D01*
X0346477Y0154009D02*
X0339477Y0154009D01*
X0339477Y0153911D02*
X0346477Y0153911D01*
X0346474Y0153812D02*
X0339480Y0153812D01*
X0339490Y0153714D02*
X0346464Y0153714D01*
X0346455Y0153615D02*
X0339499Y0153615D01*
X0339509Y0153517D02*
X0346445Y0153517D01*
X0346435Y0153418D02*
X0339519Y0153418D01*
X0339529Y0153320D02*
X0346426Y0153320D01*
X0346416Y0153221D02*
X0339538Y0153221D01*
X0339556Y0153123D02*
X0346399Y0153123D01*
X0346369Y0153024D02*
X0339585Y0153024D01*
X0339615Y0152926D02*
X0346339Y0152926D01*
X0346309Y0152827D02*
X0339645Y0152827D01*
X0339675Y0152729D02*
X0346279Y0152729D01*
X0346249Y0152630D02*
X0339705Y0152630D01*
X0339735Y0152532D02*
X0346219Y0152532D01*
X0346173Y0152433D02*
X0339781Y0152433D01*
X0339834Y0152335D02*
X0346121Y0152335D01*
X0346068Y0152236D02*
X0339886Y0152236D01*
X0339939Y0152138D02*
X0346015Y0152138D01*
X0345963Y0152039D02*
X0339992Y0152039D01*
X0340044Y0151941D02*
X0345910Y0151941D01*
X0345841Y0151842D02*
X0340113Y0151842D01*
X0340194Y0151743D02*
X0345760Y0151743D01*
X0345680Y0151645D02*
X0340275Y0151645D01*
X0340355Y0151546D02*
X0345599Y0151546D01*
X0345518Y0151448D02*
X0340436Y0151448D01*
X0340524Y0151349D02*
X0345430Y0151349D01*
X0345310Y0151251D02*
X0340644Y0151251D01*
X0340764Y0151152D02*
X0345190Y0151152D01*
X0345070Y0151054D02*
X0340884Y0151054D01*
X0341005Y0150955D02*
X0344950Y0150955D01*
X0344780Y0150857D02*
X0341174Y0150857D01*
X0341358Y0150758D02*
X0344596Y0150758D01*
X0344412Y0150660D02*
X0341542Y0150660D01*
X0341795Y0150561D02*
X0344160Y0150561D01*
X0343835Y0150463D02*
X0342119Y0150463D01*
X0342756Y0150364D02*
X0343198Y0150364D01*
X0344108Y0158639D02*
X0341846Y0158639D01*
X0342171Y0158738D02*
X0343783Y0158738D01*
X0343040Y0158836D02*
X0342914Y0158836D01*
X0389817Y0130787D02*
X0390252Y0131317D01*
X0390783Y0131753D01*
X0391388Y0132076D01*
X0392044Y0132275D01*
X0392727Y0132343D01*
X0393477Y0132343D01*
X0393477Y0125343D01*
X0392727Y0125343D01*
X0392044Y0125410D01*
X0391388Y0125609D01*
X0390783Y0125932D01*
X0390252Y0126368D01*
X0389817Y0126898D01*
X0389493Y0127503D01*
X0389294Y0128160D01*
X0389227Y0128843D01*
X0389294Y0129525D01*
X0389493Y0130182D01*
X0389817Y0130787D01*
X0389803Y0130761D02*
X0393477Y0130761D01*
X0397151Y0130761D01*
X0397137Y0130787D02*
X0397461Y0130182D01*
X0397660Y0129525D01*
X0397727Y0128843D01*
X0397660Y0128160D01*
X0397461Y0127503D01*
X0397137Y0126898D01*
X0396702Y0126368D01*
X0396172Y0125932D01*
X0395566Y0125609D01*
X0394910Y0125410D01*
X0394227Y0125343D01*
X0393477Y0125343D01*
X0393477Y0132343D01*
X0394227Y0132343D01*
X0394910Y0132275D01*
X0395566Y0132076D01*
X0396172Y0131753D01*
X0396702Y0131317D01*
X0397137Y0130787D01*
X0397078Y0130859D02*
X0393477Y0130859D01*
X0389876Y0130859D01*
X0389957Y0130958D02*
X0393477Y0130958D01*
X0396997Y0130958D01*
X0396916Y0131056D02*
X0393477Y0131056D01*
X0390038Y0131056D01*
X0390119Y0131155D02*
X0393477Y0131155D01*
X0396835Y0131155D01*
X0396755Y0131253D02*
X0393477Y0131253D01*
X0390199Y0131253D01*
X0390294Y0131352D02*
X0393477Y0131352D01*
X0396660Y0131352D01*
X0396540Y0131450D02*
X0393477Y0131450D01*
X0390414Y0131450D01*
X0390534Y0131549D02*
X0393477Y0131549D01*
X0396420Y0131549D01*
X0396300Y0131647D02*
X0393477Y0131647D01*
X0390654Y0131647D01*
X0390774Y0131746D02*
X0393477Y0131746D01*
X0396180Y0131746D01*
X0396000Y0131844D02*
X0393477Y0131844D01*
X0390954Y0131844D01*
X0391138Y0131943D02*
X0393477Y0131943D01*
X0395816Y0131943D01*
X0395632Y0132041D02*
X0393477Y0132041D01*
X0391322Y0132041D01*
X0391597Y0132140D02*
X0393477Y0132140D01*
X0395357Y0132140D01*
X0395032Y0132238D02*
X0393477Y0132238D01*
X0391922Y0132238D01*
X0392668Y0132337D02*
X0393477Y0132337D01*
X0394286Y0132337D01*
X0393477Y0130662D02*
X0389750Y0130662D01*
X0389697Y0130564D02*
X0393477Y0130564D01*
X0397257Y0130564D01*
X0397204Y0130662D02*
X0393477Y0130662D01*
X0393477Y0130465D02*
X0389645Y0130465D01*
X0389592Y0130367D02*
X0393477Y0130367D01*
X0397362Y0130367D01*
X0397309Y0130465D02*
X0393477Y0130465D01*
X0393477Y0130268D02*
X0389539Y0130268D01*
X0389490Y0130170D02*
X0393477Y0130170D01*
X0397464Y0130170D01*
X0397494Y0130071D02*
X0393477Y0130071D01*
X0389460Y0130071D01*
X0389430Y0129972D02*
X0393477Y0129972D01*
X0397524Y0129972D01*
X0397554Y0129874D02*
X0393477Y0129874D01*
X0389400Y0129874D01*
X0389370Y0129775D02*
X0393477Y0129775D01*
X0397584Y0129775D01*
X0397614Y0129677D02*
X0393477Y0129677D01*
X0389340Y0129677D01*
X0389310Y0129578D02*
X0393477Y0129578D01*
X0397644Y0129578D01*
X0397664Y0129480D02*
X0393477Y0129480D01*
X0389290Y0129480D01*
X0389280Y0129381D02*
X0393477Y0129381D01*
X0397674Y0129381D01*
X0397684Y0129283D02*
X0393477Y0129283D01*
X0389270Y0129283D01*
X0389261Y0129184D02*
X0393477Y0129184D01*
X0397693Y0129184D01*
X0397703Y0129086D02*
X0393477Y0129086D01*
X0389251Y0129086D01*
X0389241Y0128987D02*
X0393477Y0128987D01*
X0397713Y0128987D01*
X0397722Y0128889D02*
X0393477Y0128889D01*
X0389232Y0128889D01*
X0389232Y0128790D02*
X0393477Y0128790D01*
X0397722Y0128790D01*
X0397712Y0128692D02*
X0393477Y0128692D01*
X0389242Y0128692D01*
X0389252Y0128593D02*
X0393477Y0128593D01*
X0397702Y0128593D01*
X0397693Y0128495D02*
X0393477Y0128495D01*
X0389261Y0128495D01*
X0389271Y0128396D02*
X0393477Y0128396D01*
X0397683Y0128396D01*
X0397673Y0128298D02*
X0393477Y0128298D01*
X0389281Y0128298D01*
X0389290Y0128199D02*
X0393477Y0128199D01*
X0397664Y0128199D01*
X0397642Y0128101D02*
X0393477Y0128101D01*
X0389312Y0128101D01*
X0389342Y0128002D02*
X0393477Y0128002D01*
X0397612Y0128002D01*
X0397582Y0127904D02*
X0393477Y0127904D01*
X0389372Y0127904D01*
X0389402Y0127805D02*
X0393477Y0127805D01*
X0397552Y0127805D01*
X0397522Y0127707D02*
X0393477Y0127707D01*
X0389432Y0127707D01*
X0389462Y0127608D02*
X0393477Y0127608D01*
X0397492Y0127608D01*
X0397463Y0127510D02*
X0393477Y0127510D01*
X0389491Y0127510D01*
X0389543Y0127411D02*
X0393477Y0127411D01*
X0397411Y0127411D01*
X0397359Y0127313D02*
X0393477Y0127313D01*
X0389595Y0127313D01*
X0389648Y0127214D02*
X0393477Y0127214D01*
X0397306Y0127214D01*
X0397254Y0127116D02*
X0393477Y0127116D01*
X0389701Y0127116D01*
X0389753Y0127017D02*
X0393477Y0127017D01*
X0397201Y0127017D01*
X0397148Y0126919D02*
X0393477Y0126919D01*
X0389806Y0126919D01*
X0389881Y0126820D02*
X0393477Y0126820D01*
X0397073Y0126820D01*
X0396992Y0126722D02*
X0393477Y0126722D01*
X0389962Y0126722D01*
X0390043Y0126623D02*
X0393477Y0126623D01*
X0396912Y0126623D01*
X0396831Y0126525D02*
X0393477Y0126525D01*
X0390123Y0126525D01*
X0390204Y0126426D02*
X0393477Y0126426D01*
X0396750Y0126426D01*
X0396653Y0126328D02*
X0393477Y0126328D01*
X0390301Y0126328D01*
X0390421Y0126229D02*
X0393477Y0126229D01*
X0396533Y0126229D01*
X0396413Y0126131D02*
X0393477Y0126131D01*
X0390541Y0126131D01*
X0390661Y0126032D02*
X0393477Y0126032D01*
X0396293Y0126032D01*
X0396173Y0125934D02*
X0393477Y0125934D01*
X0390781Y0125934D01*
X0390965Y0125835D02*
X0393477Y0125835D01*
X0395989Y0125835D01*
X0395805Y0125736D02*
X0393477Y0125736D01*
X0391149Y0125736D01*
X0391333Y0125638D02*
X0393477Y0125638D01*
X0395621Y0125638D01*
X0395337Y0125539D02*
X0393477Y0125539D01*
X0391617Y0125539D01*
X0391941Y0125441D02*
X0393477Y0125441D01*
X0395013Y0125441D01*
X0394623Y0121303D02*
X0393477Y0121303D01*
X0392331Y0121303D01*
X0392044Y0121275D02*
X0392727Y0121343D01*
X0393477Y0121343D01*
X0393477Y0114343D01*
X0394227Y0114343D01*
X0394910Y0114410D01*
X0395566Y0114609D01*
X0396172Y0114932D01*
X0396702Y0115368D01*
X0397137Y0115898D01*
X0397461Y0116503D01*
X0397660Y0117160D01*
X0397727Y0117843D01*
X0397660Y0118525D01*
X0397461Y0119182D01*
X0397137Y0119787D01*
X0396702Y0120317D01*
X0396172Y0120753D01*
X0395566Y0121076D01*
X0394910Y0121275D01*
X0394227Y0121343D01*
X0393477Y0121343D01*
X0393477Y0114343D01*
X0392727Y0114343D01*
X0392044Y0114410D01*
X0391388Y0114609D01*
X0390783Y0114932D01*
X0390252Y0115368D01*
X0389817Y0115898D01*
X0389493Y0116503D01*
X0389294Y0117160D01*
X0389227Y0117843D01*
X0389294Y0118525D01*
X0389493Y0119182D01*
X0389817Y0119787D01*
X0390252Y0120317D01*
X0390783Y0120753D01*
X0391388Y0121076D01*
X0392044Y0121275D01*
X0391812Y0121205D02*
X0393477Y0121205D01*
X0395142Y0121205D01*
X0395466Y0121106D02*
X0393477Y0121106D01*
X0391488Y0121106D01*
X0391260Y0121008D02*
X0393477Y0121008D01*
X0395694Y0121008D01*
X0395878Y0120909D02*
X0393477Y0120909D01*
X0391076Y0120909D01*
X0390892Y0120811D02*
X0393477Y0120811D01*
X0396063Y0120811D01*
X0396221Y0120712D02*
X0393477Y0120712D01*
X0390733Y0120712D01*
X0390613Y0120614D02*
X0393477Y0120614D01*
X0396341Y0120614D01*
X0396461Y0120515D02*
X0393477Y0120515D01*
X0390493Y0120515D01*
X0390373Y0120417D02*
X0393477Y0120417D01*
X0396581Y0120417D01*
X0396701Y0120318D02*
X0393477Y0120318D01*
X0390253Y0120318D01*
X0390172Y0120220D02*
X0393477Y0120220D01*
X0396782Y0120220D01*
X0396863Y0120121D02*
X0393477Y0120121D01*
X0390091Y0120121D01*
X0390010Y0120023D02*
X0393477Y0120023D01*
X0396944Y0120023D01*
X0397024Y0119924D02*
X0393477Y0119924D01*
X0389930Y0119924D01*
X0389849Y0119826D02*
X0393477Y0119826D01*
X0397105Y0119826D01*
X0397169Y0119727D02*
X0393477Y0119727D01*
X0389785Y0119727D01*
X0389732Y0119629D02*
X0393477Y0119629D01*
X0397222Y0119629D01*
X0397274Y0119530D02*
X0393477Y0119530D01*
X0389680Y0119530D01*
X0389627Y0119432D02*
X0393477Y0119432D01*
X0397327Y0119432D01*
X0397380Y0119333D02*
X0393477Y0119333D01*
X0389574Y0119333D01*
X0389522Y0119235D02*
X0393477Y0119235D01*
X0397432Y0119235D01*
X0397474Y0119136D02*
X0393477Y0119136D01*
X0389480Y0119136D01*
X0389450Y0119038D02*
X0393477Y0119038D01*
X0397504Y0119038D01*
X0397534Y0118939D02*
X0393477Y0118939D01*
X0389420Y0118939D01*
X0389390Y0118841D02*
X0393477Y0118841D01*
X0397564Y0118841D01*
X0397594Y0118742D02*
X0393477Y0118742D01*
X0389360Y0118742D01*
X0389330Y0118644D02*
X0393477Y0118644D01*
X0397624Y0118644D01*
X0397654Y0118545D02*
X0393477Y0118545D01*
X0389300Y0118545D01*
X0389287Y0118447D02*
X0393477Y0118447D01*
X0397668Y0118447D01*
X0397677Y0118348D02*
X0393477Y0118348D01*
X0389277Y0118348D01*
X0389267Y0118250D02*
X0393477Y0118250D01*
X0397687Y0118250D01*
X0397697Y0118151D02*
X0393477Y0118151D01*
X0389257Y0118151D01*
X0389248Y0118053D02*
X0393477Y0118053D01*
X0397706Y0118053D01*
X0397716Y0117954D02*
X0393477Y0117954D01*
X0389238Y0117954D01*
X0389228Y0117856D02*
X0393477Y0117856D01*
X0397726Y0117856D01*
X0397719Y0117757D02*
X0393477Y0117757D01*
X0389235Y0117757D01*
X0389245Y0117659D02*
X0393477Y0117659D01*
X0397709Y0117659D01*
X0397699Y0117560D02*
X0393477Y0117560D01*
X0389255Y0117560D01*
X0389265Y0117462D02*
X0393477Y0117462D01*
X0397690Y0117462D01*
X0397680Y0117363D02*
X0393477Y0117363D01*
X0389274Y0117363D01*
X0389284Y0117265D02*
X0393477Y0117265D01*
X0397670Y0117265D01*
X0397660Y0117166D02*
X0393477Y0117166D01*
X0389294Y0117166D01*
X0389322Y0117067D02*
X0393477Y0117067D01*
X0397632Y0117067D01*
X0397602Y0116969D02*
X0393477Y0116969D01*
X0389352Y0116969D01*
X0389382Y0116870D02*
X0393477Y0116870D01*
X0397572Y0116870D01*
X0397542Y0116772D02*
X0393477Y0116772D01*
X0389412Y0116772D01*
X0389442Y0116673D02*
X0393477Y0116673D01*
X0397512Y0116673D01*
X0397482Y0116575D02*
X0393477Y0116575D01*
X0389472Y0116575D01*
X0389508Y0116476D02*
X0393477Y0116476D01*
X0397446Y0116476D01*
X0397394Y0116378D02*
X0393477Y0116378D01*
X0389560Y0116378D01*
X0389613Y0116279D02*
X0393477Y0116279D01*
X0397341Y0116279D01*
X0397288Y0116181D02*
X0393477Y0116181D01*
X0389666Y0116181D01*
X0389718Y0116082D02*
X0393477Y0116082D01*
X0397236Y0116082D01*
X0397183Y0115984D02*
X0393477Y0115984D01*
X0389771Y0115984D01*
X0389827Y0115885D02*
X0393477Y0115885D01*
X0397127Y0115885D01*
X0397046Y0115787D02*
X0393477Y0115787D01*
X0389908Y0115787D01*
X0389989Y0115688D02*
X0393477Y0115688D01*
X0396965Y0115688D01*
X0396884Y0115590D02*
X0393477Y0115590D01*
X0390070Y0115590D01*
X0390151Y0115491D02*
X0393477Y0115491D01*
X0396803Y0115491D01*
X0396723Y0115393D02*
X0393477Y0115393D01*
X0390232Y0115393D01*
X0390342Y0115294D02*
X0393477Y0115294D01*
X0396613Y0115294D01*
X0396492Y0115196D02*
X0393477Y0115196D01*
X0390462Y0115196D01*
X0390582Y0115097D02*
X0393477Y0115097D01*
X0396372Y0115097D01*
X0396252Y0114999D02*
X0393477Y0114999D01*
X0390702Y0114999D01*
X0390843Y0114900D02*
X0393477Y0114900D01*
X0396111Y0114900D01*
X0395927Y0114802D02*
X0393477Y0114802D01*
X0391027Y0114802D01*
X0391211Y0114703D02*
X0393477Y0114703D01*
X0395743Y0114703D01*
X0395552Y0114605D02*
X0393477Y0114605D01*
X0391402Y0114605D01*
X0391726Y0114506D02*
X0393477Y0114506D01*
X0395228Y0114506D01*
X0394889Y0114408D02*
X0393477Y0114408D01*
X0392065Y0114408D01*
X0382191Y0109187D02*
X0375977Y0109187D01*
X0375977Y0109285D02*
X0382138Y0109285D01*
X0382137Y0109287D02*
X0382461Y0108682D01*
X0382660Y0108025D01*
X0382727Y0107343D01*
X0382660Y0106660D01*
X0382461Y0106003D01*
X0382137Y0105398D01*
X0381702Y0104868D01*
X0381172Y0104432D01*
X0380566Y0104109D01*
X0379910Y0103910D01*
X0379227Y0103843D01*
X0375977Y0103843D01*
X0375977Y0110843D01*
X0379227Y0110843D01*
X0379910Y0110775D01*
X0380566Y0110576D01*
X0381172Y0110253D01*
X0381702Y0109817D01*
X0382137Y0109287D01*
X0382058Y0109384D02*
X0375977Y0109384D01*
X0375977Y0109482D02*
X0381977Y0109482D01*
X0381896Y0109581D02*
X0375977Y0109581D01*
X0375977Y0109679D02*
X0381815Y0109679D01*
X0381735Y0109778D02*
X0375977Y0109778D01*
X0375977Y0109876D02*
X0381630Y0109876D01*
X0381510Y0109975D02*
X0375977Y0109975D01*
X0375977Y0110073D02*
X0381390Y0110073D01*
X0381270Y0110172D02*
X0375977Y0110172D01*
X0375977Y0110270D02*
X0381139Y0110270D01*
X0380954Y0110369D02*
X0375977Y0110369D01*
X0375977Y0110467D02*
X0380770Y0110467D01*
X0380586Y0110566D02*
X0375977Y0110566D01*
X0375977Y0110664D02*
X0380276Y0110664D01*
X0379951Y0110763D02*
X0375977Y0110763D01*
X0374477Y0110763D02*
X0370503Y0110763D01*
X0370544Y0110775D02*
X0371227Y0110843D01*
X0374477Y0110843D01*
X0374477Y0103843D01*
X0371227Y0103843D01*
X0370544Y0103910D01*
X0369888Y0104109D01*
X0369283Y0104432D01*
X0368752Y0104868D01*
X0368317Y0105398D01*
X0367993Y0106003D01*
X0367794Y0106660D01*
X0367727Y0107343D01*
X0367794Y0108025D01*
X0367993Y0108682D01*
X0368317Y0109287D01*
X0368752Y0109817D01*
X0369283Y0110253D01*
X0369888Y0110576D01*
X0370544Y0110775D01*
X0370178Y0110664D02*
X0374477Y0110664D01*
X0374477Y0110566D02*
X0369868Y0110566D01*
X0369684Y0110467D02*
X0374477Y0110467D01*
X0374477Y0110369D02*
X0369500Y0110369D01*
X0369315Y0110270D02*
X0374477Y0110270D01*
X0374477Y0110172D02*
X0369184Y0110172D01*
X0369064Y0110073D02*
X0374477Y0110073D01*
X0374477Y0109975D02*
X0368944Y0109975D01*
X0368824Y0109876D02*
X0374477Y0109876D01*
X0374477Y0109778D02*
X0368720Y0109778D01*
X0368639Y0109679D02*
X0374477Y0109679D01*
X0374477Y0109581D02*
X0368558Y0109581D01*
X0368477Y0109482D02*
X0374477Y0109482D01*
X0374477Y0109384D02*
X0368396Y0109384D01*
X0368316Y0109285D02*
X0374477Y0109285D01*
X0374477Y0109187D02*
X0368263Y0109187D01*
X0368211Y0109088D02*
X0374477Y0109088D01*
X0374477Y0108990D02*
X0368158Y0108990D01*
X0368105Y0108891D02*
X0374477Y0108891D01*
X0374477Y0108793D02*
X0368053Y0108793D01*
X0368000Y0108694D02*
X0374477Y0108694D01*
X0374477Y0108596D02*
X0367967Y0108596D01*
X0367937Y0108497D02*
X0374477Y0108497D01*
X0374477Y0108398D02*
X0367907Y0108398D01*
X0367878Y0108300D02*
X0374477Y0108300D01*
X0374477Y0108201D02*
X0367848Y0108201D01*
X0367818Y0108103D02*
X0374477Y0108103D01*
X0374477Y0108004D02*
X0367792Y0108004D01*
X0367783Y0107906D02*
X0374477Y0107906D01*
X0374477Y0107807D02*
X0367773Y0107807D01*
X0367763Y0107709D02*
X0374477Y0107709D01*
X0374477Y0107610D02*
X0367753Y0107610D01*
X0367744Y0107512D02*
X0374477Y0107512D01*
X0374477Y0107413D02*
X0367734Y0107413D01*
X0367730Y0107315D02*
X0374477Y0107315D01*
X0374477Y0107216D02*
X0367739Y0107216D01*
X0367749Y0107118D02*
X0374477Y0107118D01*
X0374477Y0107019D02*
X0367759Y0107019D01*
X0367769Y0106921D02*
X0374477Y0106921D01*
X0374477Y0106822D02*
X0367778Y0106822D01*
X0367788Y0106724D02*
X0374477Y0106724D01*
X0374477Y0106625D02*
X0367805Y0106625D01*
X0367835Y0106527D02*
X0374477Y0106527D01*
X0374477Y0106428D02*
X0367864Y0106428D01*
X0367894Y0106330D02*
X0374477Y0106330D01*
X0374477Y0106231D02*
X0367924Y0106231D01*
X0367954Y0106133D02*
X0374477Y0106133D01*
X0374477Y0106034D02*
X0367984Y0106034D01*
X0368029Y0105936D02*
X0374477Y0105936D01*
X0374477Y0105837D02*
X0368082Y0105837D01*
X0368135Y0105739D02*
X0374477Y0105739D01*
X0374477Y0105640D02*
X0368187Y0105640D01*
X0368240Y0105542D02*
X0374477Y0105542D01*
X0374477Y0105443D02*
X0368293Y0105443D01*
X0368361Y0105345D02*
X0374477Y0105345D01*
X0374477Y0105246D02*
X0368442Y0105246D01*
X0368522Y0105148D02*
X0374477Y0105148D01*
X0374477Y0105049D02*
X0368603Y0105049D01*
X0368684Y0104951D02*
X0374477Y0104951D01*
X0374477Y0104852D02*
X0368771Y0104852D01*
X0368891Y0104754D02*
X0374477Y0104754D01*
X0374477Y0104655D02*
X0369011Y0104655D01*
X0369131Y0104557D02*
X0374477Y0104557D01*
X0374477Y0104458D02*
X0369251Y0104458D01*
X0369419Y0104360D02*
X0374477Y0104360D01*
X0374477Y0104261D02*
X0369603Y0104261D01*
X0369787Y0104163D02*
X0374477Y0104163D01*
X0374477Y0104064D02*
X0370036Y0104064D01*
X0370361Y0103965D02*
X0374477Y0103965D01*
X0374477Y0103867D02*
X0370979Y0103867D01*
X0375977Y0103867D02*
X0379475Y0103867D01*
X0380094Y0103965D02*
X0375977Y0103965D01*
X0375977Y0104064D02*
X0380418Y0104064D01*
X0380667Y0104163D02*
X0375977Y0104163D01*
X0375977Y0104261D02*
X0380851Y0104261D01*
X0381035Y0104360D02*
X0375977Y0104360D01*
X0375977Y0104458D02*
X0381203Y0104458D01*
X0381323Y0104557D02*
X0375977Y0104557D01*
X0375977Y0104655D02*
X0381443Y0104655D01*
X0381563Y0104754D02*
X0375977Y0104754D01*
X0375977Y0104852D02*
X0381683Y0104852D01*
X0381770Y0104951D02*
X0375977Y0104951D01*
X0375977Y0105049D02*
X0381851Y0105049D01*
X0381932Y0105148D02*
X0375977Y0105148D01*
X0375977Y0105246D02*
X0382013Y0105246D01*
X0382093Y0105345D02*
X0375977Y0105345D01*
X0375977Y0105443D02*
X0382161Y0105443D01*
X0382214Y0105542D02*
X0375977Y0105542D01*
X0375977Y0105640D02*
X0382267Y0105640D01*
X0382319Y0105739D02*
X0375977Y0105739D01*
X0375977Y0105837D02*
X0382372Y0105837D01*
X0382425Y0105936D02*
X0375977Y0105936D01*
X0375977Y0106034D02*
X0382470Y0106034D01*
X0382500Y0106133D02*
X0375977Y0106133D01*
X0375977Y0106231D02*
X0382530Y0106231D01*
X0382560Y0106330D02*
X0375977Y0106330D01*
X0375977Y0106428D02*
X0382590Y0106428D01*
X0382619Y0106527D02*
X0375977Y0106527D01*
X0375977Y0106625D02*
X0382649Y0106625D01*
X0382666Y0106724D02*
X0375977Y0106724D01*
X0375977Y0106822D02*
X0382676Y0106822D01*
X0382686Y0106921D02*
X0375977Y0106921D01*
X0375977Y0107019D02*
X0382695Y0107019D01*
X0382705Y0107118D02*
X0375977Y0107118D01*
X0375977Y0107216D02*
X0382715Y0107216D01*
X0382724Y0107315D02*
X0375977Y0107315D01*
X0375977Y0107413D02*
X0382720Y0107413D01*
X0382710Y0107512D02*
X0375977Y0107512D01*
X0375977Y0107610D02*
X0382701Y0107610D01*
X0382691Y0107709D02*
X0375977Y0107709D01*
X0375977Y0107807D02*
X0382681Y0107807D01*
X0382672Y0107906D02*
X0375977Y0107906D01*
X0375977Y0108004D02*
X0382662Y0108004D01*
X0382636Y0108103D02*
X0375977Y0108103D01*
X0375977Y0108201D02*
X0382606Y0108201D01*
X0382576Y0108300D02*
X0375977Y0108300D01*
X0375977Y0108398D02*
X0382547Y0108398D01*
X0382517Y0108497D02*
X0375977Y0108497D01*
X0375977Y0108596D02*
X0382487Y0108596D01*
X0382454Y0108694D02*
X0375977Y0108694D01*
X0375977Y0108793D02*
X0382401Y0108793D01*
X0382349Y0108891D02*
X0375977Y0108891D01*
X0375977Y0108990D02*
X0382296Y0108990D01*
X0382244Y0109088D02*
X0375977Y0109088D01*
X0393477Y0130268D02*
X0397415Y0130268D01*
X0322202Y0193618D02*
X0321672Y0193182D01*
X0321066Y0192859D01*
X0320410Y0192660D01*
X0319727Y0192593D01*
X0318977Y0192593D01*
X0318977Y0199593D01*
X0318227Y0199593D01*
X0317544Y0199525D01*
X0316888Y0199326D01*
X0316283Y0199003D01*
X0315752Y0198567D01*
X0315317Y0198037D01*
X0314993Y0197432D01*
X0314794Y0196775D01*
X0314727Y0196093D01*
X0314794Y0195410D01*
X0314993Y0194753D01*
X0315317Y0194148D01*
X0315752Y0193618D01*
X0316283Y0193182D01*
X0316888Y0192859D01*
X0317544Y0192660D01*
X0318227Y0192593D01*
X0318977Y0192593D01*
X0318977Y0199593D01*
X0319727Y0199593D01*
X0320410Y0199525D01*
X0321066Y0199326D01*
X0321672Y0199003D01*
X0322202Y0198567D01*
X0322637Y0198037D01*
X0322961Y0197432D01*
X0323160Y0196775D01*
X0323227Y0196093D01*
X0323160Y0195410D01*
X0322961Y0194753D01*
X0322637Y0194148D01*
X0322202Y0193618D01*
X0322194Y0193611D02*
X0318977Y0193611D01*
X0315761Y0193611D01*
X0315677Y0193709D02*
X0318977Y0193709D01*
X0322277Y0193709D01*
X0322358Y0193808D02*
X0318977Y0193808D01*
X0315596Y0193808D01*
X0315515Y0193906D02*
X0318977Y0193906D01*
X0322439Y0193906D01*
X0322520Y0194005D02*
X0318977Y0194005D01*
X0315434Y0194005D01*
X0315354Y0194103D02*
X0318977Y0194103D01*
X0322601Y0194103D01*
X0322666Y0194202D02*
X0318977Y0194202D01*
X0315288Y0194202D01*
X0315235Y0194300D02*
X0318977Y0194300D01*
X0322719Y0194300D01*
X0322771Y0194399D02*
X0318977Y0194399D01*
X0315183Y0194399D01*
X0315130Y0194497D02*
X0318977Y0194497D01*
X0322824Y0194497D01*
X0322877Y0194596D02*
X0318977Y0194596D01*
X0315077Y0194596D01*
X0315025Y0194694D02*
X0318977Y0194694D01*
X0322929Y0194694D01*
X0322973Y0194793D02*
X0318977Y0194793D01*
X0314981Y0194793D01*
X0314952Y0194891D02*
X0318977Y0194891D01*
X0323003Y0194891D01*
X0323032Y0194990D02*
X0318977Y0194990D01*
X0314922Y0194990D01*
X0314892Y0195088D02*
X0318977Y0195088D01*
X0323062Y0195088D01*
X0323092Y0195187D02*
X0318977Y0195187D01*
X0314862Y0195187D01*
X0314832Y0195285D02*
X0318977Y0195285D01*
X0323122Y0195285D01*
X0323152Y0195384D02*
X0318977Y0195384D01*
X0314802Y0195384D01*
X0314787Y0195483D02*
X0318977Y0195483D01*
X0323167Y0195483D01*
X0323177Y0195581D02*
X0318977Y0195581D01*
X0314777Y0195581D01*
X0314768Y0195680D02*
X0318977Y0195680D01*
X0323186Y0195680D01*
X0323196Y0195778D02*
X0318977Y0195778D01*
X0314758Y0195778D01*
X0314748Y0195877D02*
X0318977Y0195877D01*
X0323206Y0195877D01*
X0323215Y0195975D02*
X0318977Y0195975D01*
X0314739Y0195975D01*
X0314729Y0196074D02*
X0318977Y0196074D01*
X0323225Y0196074D01*
X0323219Y0196172D02*
X0318977Y0196172D01*
X0314735Y0196172D01*
X0314745Y0196271D02*
X0318977Y0196271D01*
X0323209Y0196271D01*
X0323200Y0196369D02*
X0318977Y0196369D01*
X0314754Y0196369D01*
X0314764Y0196468D02*
X0318977Y0196468D01*
X0323190Y0196468D01*
X0323180Y0196566D02*
X0318977Y0196566D01*
X0314774Y0196566D01*
X0314783Y0196665D02*
X0318977Y0196665D01*
X0323171Y0196665D01*
X0323161Y0196763D02*
X0318977Y0196763D01*
X0314793Y0196763D01*
X0314820Y0196862D02*
X0318977Y0196862D01*
X0323134Y0196862D01*
X0323104Y0196960D02*
X0318977Y0196960D01*
X0314850Y0196960D01*
X0314880Y0197059D02*
X0318977Y0197059D01*
X0323074Y0197059D01*
X0323044Y0197157D02*
X0318977Y0197157D01*
X0314910Y0197157D01*
X0314940Y0197256D02*
X0318977Y0197256D01*
X0323014Y0197256D01*
X0322984Y0197354D02*
X0318977Y0197354D01*
X0314970Y0197354D01*
X0315005Y0197453D02*
X0318977Y0197453D01*
X0322949Y0197453D01*
X0322897Y0197551D02*
X0318977Y0197551D01*
X0315057Y0197551D01*
X0315110Y0197650D02*
X0318977Y0197650D01*
X0322844Y0197650D01*
X0322792Y0197748D02*
X0318977Y0197748D01*
X0315163Y0197748D01*
X0315215Y0197847D02*
X0318977Y0197847D01*
X0322739Y0197847D01*
X0322686Y0197945D02*
X0318977Y0197945D01*
X0315268Y0197945D01*
X0315322Y0198044D02*
X0318977Y0198044D01*
X0322632Y0198044D01*
X0322551Y0198142D02*
X0318977Y0198142D01*
X0315403Y0198142D01*
X0315484Y0198241D02*
X0318977Y0198241D01*
X0322470Y0198241D01*
X0322389Y0198339D02*
X0318977Y0198339D01*
X0315565Y0198339D01*
X0315646Y0198438D02*
X0318977Y0198438D01*
X0322308Y0198438D01*
X0322227Y0198536D02*
X0318977Y0198536D01*
X0315727Y0198536D01*
X0315834Y0198635D02*
X0318977Y0198635D01*
X0322120Y0198635D01*
X0322000Y0198733D02*
X0318977Y0198733D01*
X0315954Y0198733D01*
X0316074Y0198832D02*
X0318977Y0198832D01*
X0321880Y0198832D01*
X0321760Y0198930D02*
X0318977Y0198930D01*
X0316194Y0198930D01*
X0316332Y0199029D02*
X0318977Y0199029D01*
X0321622Y0199029D01*
X0321438Y0199127D02*
X0318977Y0199127D01*
X0316516Y0199127D01*
X0316700Y0199226D02*
X0318977Y0199226D01*
X0321254Y0199226D01*
X0321070Y0199324D02*
X0318977Y0199324D01*
X0316885Y0199324D01*
X0317207Y0199423D02*
X0318977Y0199423D01*
X0320747Y0199423D01*
X0320422Y0199521D02*
X0318977Y0199521D01*
X0317532Y0199521D01*
X0318977Y0193512D02*
X0315881Y0193512D01*
X0316001Y0193414D02*
X0318977Y0193414D01*
X0321953Y0193414D01*
X0321833Y0193315D02*
X0318977Y0193315D01*
X0316121Y0193315D01*
X0316241Y0193217D02*
X0318977Y0193217D01*
X0321713Y0193217D01*
X0321552Y0193118D02*
X0318977Y0193118D01*
X0316403Y0193118D01*
X0316587Y0193020D02*
X0318977Y0193020D01*
X0321367Y0193020D01*
X0321183Y0192921D02*
X0318977Y0192921D01*
X0316771Y0192921D01*
X0317007Y0192823D02*
X0318977Y0192823D01*
X0320947Y0192823D01*
X0320622Y0192724D02*
X0318977Y0192724D01*
X0317332Y0192724D01*
X0317890Y0192626D02*
X0318977Y0192626D01*
X0320064Y0192626D01*
X0318977Y0193512D02*
X0322074Y0193512D01*
X0385002Y0249368D02*
X0384567Y0249898D01*
X0384243Y0250503D01*
X0384044Y0251160D01*
X0383977Y0251843D01*
X0384044Y0252525D01*
X0384243Y0253182D01*
X0384567Y0253787D01*
X0385002Y0254317D01*
X0385533Y0254753D01*
X0386138Y0255076D01*
X0386794Y0255275D01*
X0387477Y0255343D01*
X0388227Y0255343D01*
X0388227Y0248343D01*
X0387477Y0248343D01*
X0386794Y0248410D01*
X0386138Y0248609D01*
X0385533Y0248932D01*
X0385002Y0249368D01*
X0388227Y0249368D01*
X0391452Y0249368D01*
X0390922Y0248932D01*
X0390316Y0248609D01*
X0389660Y0248410D01*
X0388977Y0248343D01*
X0388227Y0248343D01*
X0388227Y0255343D01*
X0388977Y0255343D01*
X0389660Y0255275D01*
X0390316Y0255076D01*
X0390922Y0254753D01*
X0391452Y0254317D01*
X0391887Y0253787D01*
X0392211Y0253182D01*
X0392410Y0252525D01*
X0392477Y0251843D01*
X0392410Y0251160D01*
X0392211Y0250503D01*
X0391887Y0249898D01*
X0391452Y0249368D01*
X0391533Y0249467D02*
X0388227Y0249467D01*
X0384921Y0249467D01*
X0384840Y0249565D02*
X0388227Y0249565D01*
X0391614Y0249565D01*
X0391695Y0249664D02*
X0388227Y0249664D01*
X0384759Y0249664D01*
X0384678Y0249762D02*
X0388227Y0249762D01*
X0391776Y0249762D01*
X0391857Y0249861D02*
X0388227Y0249861D01*
X0384597Y0249861D01*
X0384534Y0249959D02*
X0388227Y0249959D01*
X0391920Y0249959D01*
X0391973Y0250058D02*
X0388227Y0250058D01*
X0384482Y0250058D01*
X0384429Y0250156D02*
X0388227Y0250156D01*
X0392025Y0250156D01*
X0392078Y0250255D02*
X0388227Y0250255D01*
X0384376Y0250255D01*
X0384324Y0250353D02*
X0388227Y0250353D01*
X0392131Y0250353D01*
X0392183Y0250452D02*
X0388227Y0250452D01*
X0384271Y0250452D01*
X0384229Y0250550D02*
X0388227Y0250550D01*
X0392225Y0250550D01*
X0392255Y0250649D02*
X0388227Y0250649D01*
X0384199Y0250649D01*
X0384169Y0250747D02*
X0388227Y0250747D01*
X0392285Y0250747D01*
X0392315Y0250846D02*
X0388227Y0250846D01*
X0384139Y0250846D01*
X0384110Y0250944D02*
X0388227Y0250944D01*
X0392344Y0250944D01*
X0392374Y0251043D02*
X0388227Y0251043D01*
X0384080Y0251043D01*
X0384050Y0251141D02*
X0388227Y0251141D01*
X0392404Y0251141D01*
X0392418Y0251240D02*
X0388227Y0251240D01*
X0384036Y0251240D01*
X0384027Y0251338D02*
X0388227Y0251338D01*
X0392427Y0251338D01*
X0392437Y0251437D02*
X0388227Y0251437D01*
X0384017Y0251437D01*
X0384007Y0251535D02*
X0388227Y0251535D01*
X0392447Y0251535D01*
X0392456Y0251634D02*
X0388227Y0251634D01*
X0383998Y0251634D01*
X0383988Y0251732D02*
X0388227Y0251732D01*
X0392466Y0251732D01*
X0392476Y0251831D02*
X0388227Y0251831D01*
X0383978Y0251831D01*
X0383986Y0251929D02*
X0388227Y0251929D01*
X0392468Y0251929D01*
X0392459Y0252028D02*
X0388227Y0252028D01*
X0383995Y0252028D01*
X0384005Y0252127D02*
X0388227Y0252127D01*
X0392449Y0252127D01*
X0392439Y0252225D02*
X0388227Y0252225D01*
X0384015Y0252225D01*
X0384024Y0252324D02*
X0388227Y0252324D01*
X0392430Y0252324D01*
X0392420Y0252422D02*
X0388227Y0252422D01*
X0384034Y0252422D01*
X0384044Y0252521D02*
X0388227Y0252521D01*
X0392410Y0252521D01*
X0392381Y0252619D02*
X0388227Y0252619D01*
X0384073Y0252619D01*
X0384103Y0252718D02*
X0388227Y0252718D01*
X0392351Y0252718D01*
X0392322Y0252816D02*
X0388227Y0252816D01*
X0384132Y0252816D01*
X0384162Y0252915D02*
X0388227Y0252915D01*
X0392292Y0252915D01*
X0392262Y0253013D02*
X0388227Y0253013D01*
X0384192Y0253013D01*
X0384222Y0253112D02*
X0388227Y0253112D01*
X0392232Y0253112D01*
X0392196Y0253210D02*
X0388227Y0253210D01*
X0384259Y0253210D01*
X0384311Y0253309D02*
X0388227Y0253309D01*
X0392143Y0253309D01*
X0392090Y0253407D02*
X0388227Y0253407D01*
X0384364Y0253407D01*
X0384416Y0253506D02*
X0388227Y0253506D01*
X0392038Y0253506D01*
X0391985Y0253604D02*
X0388227Y0253604D01*
X0384469Y0253604D01*
X0384522Y0253703D02*
X0388227Y0253703D01*
X0391932Y0253703D01*
X0391876Y0253801D02*
X0388227Y0253801D01*
X0384579Y0253801D01*
X0384659Y0253900D02*
X0388227Y0253900D01*
X0391795Y0253900D01*
X0391714Y0253998D02*
X0388227Y0253998D01*
X0384740Y0253998D01*
X0384821Y0254097D02*
X0388227Y0254097D01*
X0391633Y0254097D01*
X0391552Y0254195D02*
X0388227Y0254195D01*
X0384902Y0254195D01*
X0384983Y0254294D02*
X0388227Y0254294D01*
X0391471Y0254294D01*
X0391361Y0254392D02*
X0388227Y0254392D01*
X0385093Y0254392D01*
X0385213Y0254491D02*
X0388227Y0254491D01*
X0391241Y0254491D01*
X0391121Y0254589D02*
X0388227Y0254589D01*
X0385333Y0254589D01*
X0385454Y0254688D02*
X0388227Y0254688D01*
X0391001Y0254688D01*
X0390859Y0254786D02*
X0388227Y0254786D01*
X0385595Y0254786D01*
X0385780Y0254885D02*
X0388227Y0254885D01*
X0390674Y0254885D01*
X0390490Y0254983D02*
X0388227Y0254983D01*
X0385964Y0254983D01*
X0386157Y0255082D02*
X0388227Y0255082D01*
X0390297Y0255082D01*
X0389973Y0255180D02*
X0388227Y0255180D01*
X0386481Y0255180D01*
X0386831Y0255279D02*
X0388227Y0255279D01*
X0389623Y0255279D01*
X0388227Y0249270D02*
X0385122Y0249270D01*
X0385242Y0249171D02*
X0388227Y0249171D01*
X0391213Y0249171D01*
X0391333Y0249270D02*
X0388227Y0249270D01*
X0388227Y0249073D02*
X0385362Y0249073D01*
X0385482Y0248974D02*
X0388227Y0248974D01*
X0390972Y0248974D01*
X0391092Y0249073D02*
X0388227Y0249073D01*
X0388227Y0248876D02*
X0385639Y0248876D01*
X0385823Y0248777D02*
X0388227Y0248777D01*
X0390631Y0248777D01*
X0390447Y0248679D02*
X0388227Y0248679D01*
X0386007Y0248679D01*
X0386233Y0248580D02*
X0388227Y0248580D01*
X0390221Y0248580D01*
X0389897Y0248482D02*
X0388227Y0248482D01*
X0386557Y0248482D01*
X0387065Y0248383D02*
X0388227Y0248383D01*
X0389389Y0248383D01*
X0388227Y0248876D02*
X0390815Y0248876D01*
D40*
X0565160Y0052213D03*
X0586814Y0052213D03*
D41*
X0526977Y0034604D03*
X0526977Y0023581D03*
X0124727Y0112831D03*
X0124727Y0123854D03*
D42*
X0526977Y0054104D03*
X0526977Y0043081D03*
X0554727Y0046104D03*
X0554727Y0035081D03*
X0596727Y0034831D03*
X0596727Y0045854D03*
D43*
X0335845Y0164593D03*
X0325609Y0164593D03*
D44*
X0368024Y0240093D03*
X0373930Y0240093D03*
D45*
X0370477Y0099993D02*
X0370477Y0095193D01*
X0380477Y0095193D02*
X0380477Y0099993D01*
X0360477Y0099993D02*
X0360477Y0095193D01*
D46*
X0268936Y0178343D03*
X0257518Y0178343D03*
X0175186Y0175093D03*
X0163768Y0175093D03*
X0261768Y0313593D03*
X0273186Y0313593D03*
X0401768Y0209343D03*
X0413186Y0209343D03*
D47*
X0406808Y0241602D03*
X0398146Y0245343D03*
X0406808Y0249083D03*
D48*
X0337177Y0190549D03*
X0337177Y0187990D03*
X0337177Y0185431D03*
X0337177Y0182872D03*
X0337177Y0180313D03*
X0337177Y0177754D03*
X0337177Y0175195D03*
X0337177Y0172636D03*
X0314777Y0172636D03*
X0314777Y0175195D03*
X0314777Y0177754D03*
X0314777Y0180313D03*
X0314777Y0182872D03*
X0314777Y0185431D03*
X0314777Y0187990D03*
X0314777Y0190549D03*
D49*
X0240217Y0210093D03*
X0243987Y0277343D03*
D50*
X0269341Y0286339D03*
X0269341Y0268346D03*
X0214863Y0219089D03*
X0214863Y0201096D03*
D51*
X0204577Y0180567D02*
X0204577Y0171268D01*
X0226577Y0171268D02*
X0226577Y0180567D01*
X0248577Y0180567D02*
X0248577Y0171268D01*
X0154089Y0171268D02*
X0154089Y0180567D01*
X0132089Y0180567D02*
X0132089Y0171268D01*
X0110089Y0171268D02*
X0110089Y0180567D01*
X0149459Y0329370D02*
X0149459Y0338669D01*
X0171459Y0338669D02*
X0171459Y0329370D01*
X0193459Y0329370D02*
X0193459Y0338669D01*
X0271507Y0338669D02*
X0271507Y0329370D01*
X0293507Y0329370D02*
X0293507Y0338669D01*
X0315507Y0338669D02*
X0315507Y0329370D01*
D52*
X0244451Y0332520D02*
X0244451Y0338520D01*
X0224451Y0338520D02*
X0224451Y0332520D01*
D53*
X0111751Y0115093D03*
X0089703Y0115093D03*
X0080501Y0115093D03*
X0058453Y0115093D03*
D54*
X0329879Y0284093D03*
X0341075Y0284093D03*
D55*
X0142977Y0228333D03*
D56*
X0133981Y0202978D03*
X0151973Y0202978D03*
D57*
X0096727Y0255569D03*
X0080977Y0255569D03*
X0080977Y0277616D03*
X0096727Y0277616D03*
D58*
X0295977Y0284415D03*
X0295977Y0299770D03*
D59*
X0125404Y0258093D03*
X0110050Y0258093D03*
D60*
X0123507Y0139929D03*
X0095948Y0139929D03*
X0102837Y0025756D03*
X0089058Y0025756D03*
X0116617Y0025756D03*
X0130396Y0025756D03*
D61*
X0314290Y0262093D03*
X0322164Y0262093D03*
D62*
X0096727Y0294803D03*
X0096727Y0314882D03*
D63*
X0582727Y0063343D03*
D64*
X0562727Y0063343D03*
D65*
X0602680Y0074772D03*
X0612680Y0074772D03*
X0612680Y0084772D03*
X0602680Y0084772D03*
D66*
X0615554Y0104378D03*
D67*
X0615554Y0114220D03*
X0615554Y0124063D03*
X0615554Y0133906D03*
X0615554Y0143748D03*
X0615554Y0153591D03*
X0615554Y0163433D03*
X0615554Y0173276D03*
D68*
X0626184Y0353394D03*
D69*
X0043507Y0026622D03*
X0043507Y0353394D03*
X0626184Y0026622D03*
M02*
