G75*
%MOIN*%
%OFA0B0*%
%FSLAX25Y25*%
%IPPOS*%
%LPD*%
%AMOC8*
5,1,8,0,0,1.08239X$1,22.5*
%
%ADD10C,0.00400*%
%ADD11C,0.00394*%
%ADD12C,0.00000*%
D10*
X0126977Y0108713D02*
X0126977Y0112713D01*
X0148627Y0112713D01*
X0152727Y0116813D01*
X0152727Y0148363D01*
X0159327Y0154963D01*
X0248727Y0154963D01*
X0248727Y0150963D01*
X0160827Y0150963D01*
X0156727Y0146863D01*
X0156727Y0115313D01*
X0150127Y0108713D01*
X0126977Y0108713D01*
X0342977Y0144213D02*
X0342977Y0148213D01*
X0376727Y0148213D01*
X0376727Y0144213D01*
X0342977Y0144213D01*
X0423427Y0181344D02*
X0427427Y0181344D01*
X0427427Y0211713D01*
X0428677Y0212963D01*
X0456295Y0212963D01*
X0456295Y0216963D01*
X0427177Y0216963D01*
X0423427Y0213213D01*
X0423427Y0181344D01*
X0462477Y0177213D02*
X0462477Y0173213D01*
X0516677Y0173213D01*
X0520177Y0176763D01*
X0520177Y0194913D01*
X0521477Y0196213D01*
X0600977Y0196213D01*
X0600977Y0200213D01*
X0519977Y0200213D01*
X0516177Y0196413D01*
X0516177Y0178513D01*
X0514927Y0177213D01*
X0462477Y0177213D01*
D11*
X0634058Y0022713D02*
X0035633Y0022713D01*
X0035633Y0022712D02*
X0035481Y0022714D01*
X0035329Y0022720D01*
X0035177Y0022730D01*
X0035026Y0022743D01*
X0034875Y0022761D01*
X0034724Y0022782D01*
X0034574Y0022808D01*
X0034425Y0022837D01*
X0034276Y0022870D01*
X0034129Y0022907D01*
X0033982Y0022947D01*
X0033837Y0022992D01*
X0033693Y0023040D01*
X0033550Y0023092D01*
X0033408Y0023147D01*
X0033268Y0023206D01*
X0033129Y0023269D01*
X0032992Y0023335D01*
X0032857Y0023405D01*
X0032724Y0023478D01*
X0032593Y0023555D01*
X0032463Y0023635D01*
X0032336Y0023718D01*
X0032211Y0023804D01*
X0032088Y0023894D01*
X0031968Y0023987D01*
X0031850Y0024083D01*
X0031734Y0024182D01*
X0031621Y0024284D01*
X0031511Y0024388D01*
X0031403Y0024496D01*
X0031299Y0024606D01*
X0031197Y0024719D01*
X0031098Y0024835D01*
X0031002Y0024953D01*
X0030909Y0025073D01*
X0030819Y0025196D01*
X0030733Y0025321D01*
X0030650Y0025448D01*
X0030570Y0025578D01*
X0030493Y0025709D01*
X0030420Y0025842D01*
X0030350Y0025977D01*
X0030284Y0026114D01*
X0030221Y0026253D01*
X0030162Y0026393D01*
X0030107Y0026535D01*
X0030055Y0026678D01*
X0030007Y0026822D01*
X0029962Y0026967D01*
X0029922Y0027114D01*
X0029885Y0027261D01*
X0029852Y0027410D01*
X0029823Y0027559D01*
X0029797Y0027709D01*
X0029776Y0027860D01*
X0029758Y0028011D01*
X0029745Y0028162D01*
X0029735Y0028314D01*
X0029729Y0028466D01*
X0029727Y0028618D01*
X0029727Y0371138D01*
X0029729Y0371290D01*
X0029735Y0371442D01*
X0029745Y0371594D01*
X0029758Y0371745D01*
X0029776Y0371896D01*
X0029797Y0372047D01*
X0029823Y0372197D01*
X0029852Y0372346D01*
X0029885Y0372495D01*
X0029922Y0372642D01*
X0029962Y0372789D01*
X0030007Y0372934D01*
X0030055Y0373078D01*
X0030107Y0373221D01*
X0030162Y0373363D01*
X0030221Y0373503D01*
X0030284Y0373642D01*
X0030350Y0373779D01*
X0030420Y0373914D01*
X0030493Y0374047D01*
X0030570Y0374178D01*
X0030650Y0374308D01*
X0030733Y0374435D01*
X0030819Y0374560D01*
X0030909Y0374683D01*
X0031002Y0374803D01*
X0031098Y0374921D01*
X0031197Y0375037D01*
X0031299Y0375150D01*
X0031403Y0375260D01*
X0031511Y0375368D01*
X0031621Y0375472D01*
X0031734Y0375574D01*
X0031850Y0375673D01*
X0031968Y0375769D01*
X0032088Y0375862D01*
X0032211Y0375952D01*
X0032336Y0376038D01*
X0032463Y0376121D01*
X0032593Y0376201D01*
X0032724Y0376278D01*
X0032857Y0376351D01*
X0032992Y0376421D01*
X0033129Y0376487D01*
X0033268Y0376550D01*
X0033408Y0376609D01*
X0033550Y0376664D01*
X0033693Y0376716D01*
X0033837Y0376764D01*
X0033982Y0376809D01*
X0034129Y0376849D01*
X0034276Y0376886D01*
X0034425Y0376919D01*
X0034574Y0376948D01*
X0034724Y0376974D01*
X0034875Y0376995D01*
X0035026Y0377013D01*
X0035177Y0377026D01*
X0035329Y0377036D01*
X0035481Y0377042D01*
X0035633Y0377044D01*
X0035633Y0377043D02*
X0634058Y0377043D01*
X0634058Y0377044D02*
X0634210Y0377042D01*
X0634362Y0377036D01*
X0634514Y0377026D01*
X0634665Y0377013D01*
X0634816Y0376995D01*
X0634967Y0376974D01*
X0635117Y0376948D01*
X0635266Y0376919D01*
X0635415Y0376886D01*
X0635562Y0376849D01*
X0635709Y0376809D01*
X0635854Y0376764D01*
X0635998Y0376716D01*
X0636141Y0376664D01*
X0636283Y0376609D01*
X0636423Y0376550D01*
X0636562Y0376487D01*
X0636699Y0376421D01*
X0636834Y0376351D01*
X0636967Y0376278D01*
X0637098Y0376201D01*
X0637228Y0376121D01*
X0637355Y0376038D01*
X0637480Y0375952D01*
X0637603Y0375862D01*
X0637723Y0375769D01*
X0637841Y0375673D01*
X0637957Y0375574D01*
X0638070Y0375472D01*
X0638180Y0375368D01*
X0638288Y0375260D01*
X0638392Y0375150D01*
X0638494Y0375037D01*
X0638593Y0374921D01*
X0638689Y0374803D01*
X0638782Y0374683D01*
X0638872Y0374560D01*
X0638958Y0374435D01*
X0639041Y0374308D01*
X0639121Y0374178D01*
X0639198Y0374047D01*
X0639271Y0373914D01*
X0639341Y0373779D01*
X0639407Y0373642D01*
X0639470Y0373503D01*
X0639529Y0373363D01*
X0639584Y0373221D01*
X0639636Y0373078D01*
X0639684Y0372934D01*
X0639729Y0372789D01*
X0639769Y0372642D01*
X0639806Y0372495D01*
X0639839Y0372346D01*
X0639868Y0372197D01*
X0639894Y0372047D01*
X0639915Y0371896D01*
X0639933Y0371745D01*
X0639946Y0371594D01*
X0639956Y0371442D01*
X0639962Y0371290D01*
X0639964Y0371138D01*
X0639963Y0371138D02*
X0639963Y0028618D01*
X0639964Y0028618D02*
X0639962Y0028466D01*
X0639956Y0028314D01*
X0639946Y0028162D01*
X0639933Y0028011D01*
X0639915Y0027860D01*
X0639894Y0027709D01*
X0639868Y0027559D01*
X0639839Y0027410D01*
X0639806Y0027261D01*
X0639769Y0027114D01*
X0639729Y0026967D01*
X0639684Y0026822D01*
X0639636Y0026678D01*
X0639584Y0026535D01*
X0639529Y0026393D01*
X0639470Y0026253D01*
X0639407Y0026114D01*
X0639341Y0025977D01*
X0639271Y0025842D01*
X0639198Y0025709D01*
X0639121Y0025578D01*
X0639041Y0025448D01*
X0638958Y0025321D01*
X0638872Y0025196D01*
X0638782Y0025073D01*
X0638689Y0024953D01*
X0638593Y0024835D01*
X0638494Y0024719D01*
X0638392Y0024606D01*
X0638288Y0024496D01*
X0638180Y0024388D01*
X0638070Y0024284D01*
X0637957Y0024182D01*
X0637841Y0024083D01*
X0637723Y0023987D01*
X0637603Y0023894D01*
X0637480Y0023804D01*
X0637355Y0023718D01*
X0637228Y0023635D01*
X0637098Y0023555D01*
X0636967Y0023478D01*
X0636834Y0023405D01*
X0636699Y0023335D01*
X0636562Y0023269D01*
X0636423Y0023206D01*
X0636283Y0023147D01*
X0636141Y0023092D01*
X0635998Y0023040D01*
X0635854Y0022992D01*
X0635709Y0022947D01*
X0635562Y0022907D01*
X0635415Y0022870D01*
X0635266Y0022837D01*
X0635117Y0022808D01*
X0634967Y0022782D01*
X0634816Y0022761D01*
X0634665Y0022743D01*
X0634514Y0022730D01*
X0634362Y0022720D01*
X0634210Y0022714D01*
X0634058Y0022712D01*
X0604136Y0217201D02*
X0575790Y0217201D01*
X0575790Y0221138D01*
X0604136Y0221138D01*
X0604136Y0217201D01*
X0604136Y0233736D02*
X0575790Y0233736D01*
X0575790Y0237673D01*
X0604136Y0237673D01*
X0604136Y0233736D01*
X0516262Y0358839D02*
X0512325Y0358839D01*
X0512325Y0374587D01*
X0516262Y0374587D01*
X0516262Y0358839D01*
X0496262Y0358839D02*
X0496262Y0374587D01*
X0492325Y0374587D01*
X0492325Y0358839D01*
X0496262Y0358839D01*
X0476262Y0358839D02*
X0476262Y0374587D01*
X0472325Y0374587D01*
X0472325Y0358839D01*
X0476262Y0358839D01*
D12*
X0612797Y0243972D02*
X0612799Y0244125D01*
X0612805Y0244279D01*
X0612815Y0244432D01*
X0612829Y0244584D01*
X0612847Y0244737D01*
X0612869Y0244888D01*
X0612894Y0245039D01*
X0612924Y0245190D01*
X0612958Y0245340D01*
X0612995Y0245488D01*
X0613036Y0245636D01*
X0613081Y0245782D01*
X0613130Y0245928D01*
X0613183Y0246072D01*
X0613239Y0246214D01*
X0613299Y0246355D01*
X0613363Y0246495D01*
X0613430Y0246633D01*
X0613501Y0246769D01*
X0613576Y0246903D01*
X0613653Y0247035D01*
X0613735Y0247165D01*
X0613819Y0247293D01*
X0613907Y0247419D01*
X0613998Y0247542D01*
X0614092Y0247663D01*
X0614190Y0247781D01*
X0614290Y0247897D01*
X0614394Y0248010D01*
X0614500Y0248121D01*
X0614609Y0248229D01*
X0614721Y0248334D01*
X0614835Y0248435D01*
X0614953Y0248534D01*
X0615072Y0248630D01*
X0615194Y0248723D01*
X0615319Y0248812D01*
X0615446Y0248899D01*
X0615575Y0248981D01*
X0615706Y0249061D01*
X0615839Y0249137D01*
X0615974Y0249210D01*
X0616111Y0249279D01*
X0616250Y0249344D01*
X0616390Y0249406D01*
X0616532Y0249464D01*
X0616675Y0249519D01*
X0616820Y0249570D01*
X0616966Y0249617D01*
X0617113Y0249660D01*
X0617261Y0249699D01*
X0617410Y0249735D01*
X0617560Y0249766D01*
X0617711Y0249794D01*
X0617862Y0249818D01*
X0618015Y0249838D01*
X0618167Y0249854D01*
X0618320Y0249866D01*
X0618473Y0249874D01*
X0618626Y0249878D01*
X0618780Y0249878D01*
X0618933Y0249874D01*
X0619086Y0249866D01*
X0619239Y0249854D01*
X0619391Y0249838D01*
X0619544Y0249818D01*
X0619695Y0249794D01*
X0619846Y0249766D01*
X0619996Y0249735D01*
X0620145Y0249699D01*
X0620293Y0249660D01*
X0620440Y0249617D01*
X0620586Y0249570D01*
X0620731Y0249519D01*
X0620874Y0249464D01*
X0621016Y0249406D01*
X0621156Y0249344D01*
X0621295Y0249279D01*
X0621432Y0249210D01*
X0621567Y0249137D01*
X0621700Y0249061D01*
X0621831Y0248981D01*
X0621960Y0248899D01*
X0622087Y0248812D01*
X0622212Y0248723D01*
X0622334Y0248630D01*
X0622453Y0248534D01*
X0622571Y0248435D01*
X0622685Y0248334D01*
X0622797Y0248229D01*
X0622906Y0248121D01*
X0623012Y0248010D01*
X0623116Y0247897D01*
X0623216Y0247781D01*
X0623314Y0247663D01*
X0623408Y0247542D01*
X0623499Y0247419D01*
X0623587Y0247293D01*
X0623671Y0247165D01*
X0623753Y0247035D01*
X0623830Y0246903D01*
X0623905Y0246769D01*
X0623976Y0246633D01*
X0624043Y0246495D01*
X0624107Y0246355D01*
X0624167Y0246214D01*
X0624223Y0246072D01*
X0624276Y0245928D01*
X0624325Y0245782D01*
X0624370Y0245636D01*
X0624411Y0245488D01*
X0624448Y0245340D01*
X0624482Y0245190D01*
X0624512Y0245039D01*
X0624537Y0244888D01*
X0624559Y0244737D01*
X0624577Y0244584D01*
X0624591Y0244432D01*
X0624601Y0244279D01*
X0624607Y0244125D01*
X0624609Y0243972D01*
X0624607Y0243819D01*
X0624601Y0243665D01*
X0624591Y0243512D01*
X0624577Y0243360D01*
X0624559Y0243207D01*
X0624537Y0243056D01*
X0624512Y0242905D01*
X0624482Y0242754D01*
X0624448Y0242604D01*
X0624411Y0242456D01*
X0624370Y0242308D01*
X0624325Y0242162D01*
X0624276Y0242016D01*
X0624223Y0241872D01*
X0624167Y0241730D01*
X0624107Y0241589D01*
X0624043Y0241449D01*
X0623976Y0241311D01*
X0623905Y0241175D01*
X0623830Y0241041D01*
X0623753Y0240909D01*
X0623671Y0240779D01*
X0623587Y0240651D01*
X0623499Y0240525D01*
X0623408Y0240402D01*
X0623314Y0240281D01*
X0623216Y0240163D01*
X0623116Y0240047D01*
X0623012Y0239934D01*
X0622906Y0239823D01*
X0622797Y0239715D01*
X0622685Y0239610D01*
X0622571Y0239509D01*
X0622453Y0239410D01*
X0622334Y0239314D01*
X0622212Y0239221D01*
X0622087Y0239132D01*
X0621960Y0239045D01*
X0621831Y0238963D01*
X0621700Y0238883D01*
X0621567Y0238807D01*
X0621432Y0238734D01*
X0621295Y0238665D01*
X0621156Y0238600D01*
X0621016Y0238538D01*
X0620874Y0238480D01*
X0620731Y0238425D01*
X0620586Y0238374D01*
X0620440Y0238327D01*
X0620293Y0238284D01*
X0620145Y0238245D01*
X0619996Y0238209D01*
X0619846Y0238178D01*
X0619695Y0238150D01*
X0619544Y0238126D01*
X0619391Y0238106D01*
X0619239Y0238090D01*
X0619086Y0238078D01*
X0618933Y0238070D01*
X0618780Y0238066D01*
X0618626Y0238066D01*
X0618473Y0238070D01*
X0618320Y0238078D01*
X0618167Y0238090D01*
X0618015Y0238106D01*
X0617862Y0238126D01*
X0617711Y0238150D01*
X0617560Y0238178D01*
X0617410Y0238209D01*
X0617261Y0238245D01*
X0617113Y0238284D01*
X0616966Y0238327D01*
X0616820Y0238374D01*
X0616675Y0238425D01*
X0616532Y0238480D01*
X0616390Y0238538D01*
X0616250Y0238600D01*
X0616111Y0238665D01*
X0615974Y0238734D01*
X0615839Y0238807D01*
X0615706Y0238883D01*
X0615575Y0238963D01*
X0615446Y0239045D01*
X0615319Y0239132D01*
X0615194Y0239221D01*
X0615072Y0239314D01*
X0614953Y0239410D01*
X0614835Y0239509D01*
X0614721Y0239610D01*
X0614609Y0239715D01*
X0614500Y0239823D01*
X0614394Y0239934D01*
X0614290Y0240047D01*
X0614190Y0240163D01*
X0614092Y0240281D01*
X0613998Y0240402D01*
X0613907Y0240525D01*
X0613819Y0240651D01*
X0613735Y0240779D01*
X0613653Y0240909D01*
X0613576Y0241041D01*
X0613501Y0241175D01*
X0613430Y0241311D01*
X0613363Y0241449D01*
X0613299Y0241589D01*
X0613239Y0241730D01*
X0613183Y0241872D01*
X0613130Y0242016D01*
X0613081Y0242162D01*
X0613036Y0242308D01*
X0612995Y0242456D01*
X0612958Y0242604D01*
X0612924Y0242754D01*
X0612894Y0242905D01*
X0612869Y0243056D01*
X0612847Y0243207D01*
X0612829Y0243360D01*
X0612815Y0243512D01*
X0612805Y0243665D01*
X0612799Y0243819D01*
X0612797Y0243972D01*
X0612797Y0210902D02*
X0612799Y0211055D01*
X0612805Y0211209D01*
X0612815Y0211362D01*
X0612829Y0211514D01*
X0612847Y0211667D01*
X0612869Y0211818D01*
X0612894Y0211969D01*
X0612924Y0212120D01*
X0612958Y0212270D01*
X0612995Y0212418D01*
X0613036Y0212566D01*
X0613081Y0212712D01*
X0613130Y0212858D01*
X0613183Y0213002D01*
X0613239Y0213144D01*
X0613299Y0213285D01*
X0613363Y0213425D01*
X0613430Y0213563D01*
X0613501Y0213699D01*
X0613576Y0213833D01*
X0613653Y0213965D01*
X0613735Y0214095D01*
X0613819Y0214223D01*
X0613907Y0214349D01*
X0613998Y0214472D01*
X0614092Y0214593D01*
X0614190Y0214711D01*
X0614290Y0214827D01*
X0614394Y0214940D01*
X0614500Y0215051D01*
X0614609Y0215159D01*
X0614721Y0215264D01*
X0614835Y0215365D01*
X0614953Y0215464D01*
X0615072Y0215560D01*
X0615194Y0215653D01*
X0615319Y0215742D01*
X0615446Y0215829D01*
X0615575Y0215911D01*
X0615706Y0215991D01*
X0615839Y0216067D01*
X0615974Y0216140D01*
X0616111Y0216209D01*
X0616250Y0216274D01*
X0616390Y0216336D01*
X0616532Y0216394D01*
X0616675Y0216449D01*
X0616820Y0216500D01*
X0616966Y0216547D01*
X0617113Y0216590D01*
X0617261Y0216629D01*
X0617410Y0216665D01*
X0617560Y0216696D01*
X0617711Y0216724D01*
X0617862Y0216748D01*
X0618015Y0216768D01*
X0618167Y0216784D01*
X0618320Y0216796D01*
X0618473Y0216804D01*
X0618626Y0216808D01*
X0618780Y0216808D01*
X0618933Y0216804D01*
X0619086Y0216796D01*
X0619239Y0216784D01*
X0619391Y0216768D01*
X0619544Y0216748D01*
X0619695Y0216724D01*
X0619846Y0216696D01*
X0619996Y0216665D01*
X0620145Y0216629D01*
X0620293Y0216590D01*
X0620440Y0216547D01*
X0620586Y0216500D01*
X0620731Y0216449D01*
X0620874Y0216394D01*
X0621016Y0216336D01*
X0621156Y0216274D01*
X0621295Y0216209D01*
X0621432Y0216140D01*
X0621567Y0216067D01*
X0621700Y0215991D01*
X0621831Y0215911D01*
X0621960Y0215829D01*
X0622087Y0215742D01*
X0622212Y0215653D01*
X0622334Y0215560D01*
X0622453Y0215464D01*
X0622571Y0215365D01*
X0622685Y0215264D01*
X0622797Y0215159D01*
X0622906Y0215051D01*
X0623012Y0214940D01*
X0623116Y0214827D01*
X0623216Y0214711D01*
X0623314Y0214593D01*
X0623408Y0214472D01*
X0623499Y0214349D01*
X0623587Y0214223D01*
X0623671Y0214095D01*
X0623753Y0213965D01*
X0623830Y0213833D01*
X0623905Y0213699D01*
X0623976Y0213563D01*
X0624043Y0213425D01*
X0624107Y0213285D01*
X0624167Y0213144D01*
X0624223Y0213002D01*
X0624276Y0212858D01*
X0624325Y0212712D01*
X0624370Y0212566D01*
X0624411Y0212418D01*
X0624448Y0212270D01*
X0624482Y0212120D01*
X0624512Y0211969D01*
X0624537Y0211818D01*
X0624559Y0211667D01*
X0624577Y0211514D01*
X0624591Y0211362D01*
X0624601Y0211209D01*
X0624607Y0211055D01*
X0624609Y0210902D01*
X0624607Y0210749D01*
X0624601Y0210595D01*
X0624591Y0210442D01*
X0624577Y0210290D01*
X0624559Y0210137D01*
X0624537Y0209986D01*
X0624512Y0209835D01*
X0624482Y0209684D01*
X0624448Y0209534D01*
X0624411Y0209386D01*
X0624370Y0209238D01*
X0624325Y0209092D01*
X0624276Y0208946D01*
X0624223Y0208802D01*
X0624167Y0208660D01*
X0624107Y0208519D01*
X0624043Y0208379D01*
X0623976Y0208241D01*
X0623905Y0208105D01*
X0623830Y0207971D01*
X0623753Y0207839D01*
X0623671Y0207709D01*
X0623587Y0207581D01*
X0623499Y0207455D01*
X0623408Y0207332D01*
X0623314Y0207211D01*
X0623216Y0207093D01*
X0623116Y0206977D01*
X0623012Y0206864D01*
X0622906Y0206753D01*
X0622797Y0206645D01*
X0622685Y0206540D01*
X0622571Y0206439D01*
X0622453Y0206340D01*
X0622334Y0206244D01*
X0622212Y0206151D01*
X0622087Y0206062D01*
X0621960Y0205975D01*
X0621831Y0205893D01*
X0621700Y0205813D01*
X0621567Y0205737D01*
X0621432Y0205664D01*
X0621295Y0205595D01*
X0621156Y0205530D01*
X0621016Y0205468D01*
X0620874Y0205410D01*
X0620731Y0205355D01*
X0620586Y0205304D01*
X0620440Y0205257D01*
X0620293Y0205214D01*
X0620145Y0205175D01*
X0619996Y0205139D01*
X0619846Y0205108D01*
X0619695Y0205080D01*
X0619544Y0205056D01*
X0619391Y0205036D01*
X0619239Y0205020D01*
X0619086Y0205008D01*
X0618933Y0205000D01*
X0618780Y0204996D01*
X0618626Y0204996D01*
X0618473Y0205000D01*
X0618320Y0205008D01*
X0618167Y0205020D01*
X0618015Y0205036D01*
X0617862Y0205056D01*
X0617711Y0205080D01*
X0617560Y0205108D01*
X0617410Y0205139D01*
X0617261Y0205175D01*
X0617113Y0205214D01*
X0616966Y0205257D01*
X0616820Y0205304D01*
X0616675Y0205355D01*
X0616532Y0205410D01*
X0616390Y0205468D01*
X0616250Y0205530D01*
X0616111Y0205595D01*
X0615974Y0205664D01*
X0615839Y0205737D01*
X0615706Y0205813D01*
X0615575Y0205893D01*
X0615446Y0205975D01*
X0615319Y0206062D01*
X0615194Y0206151D01*
X0615072Y0206244D01*
X0614953Y0206340D01*
X0614835Y0206439D01*
X0614721Y0206540D01*
X0614609Y0206645D01*
X0614500Y0206753D01*
X0614394Y0206864D01*
X0614290Y0206977D01*
X0614190Y0207093D01*
X0614092Y0207211D01*
X0613998Y0207332D01*
X0613907Y0207455D01*
X0613819Y0207581D01*
X0613735Y0207709D01*
X0613653Y0207839D01*
X0613576Y0207971D01*
X0613501Y0208105D01*
X0613430Y0208241D01*
X0613363Y0208379D01*
X0613299Y0208519D01*
X0613239Y0208660D01*
X0613183Y0208802D01*
X0613130Y0208946D01*
X0613081Y0209092D01*
X0613036Y0209238D01*
X0612995Y0209386D01*
X0612958Y0209534D01*
X0612924Y0209684D01*
X0612894Y0209835D01*
X0612869Y0209986D01*
X0612847Y0210137D01*
X0612829Y0210290D01*
X0612815Y0210442D01*
X0612805Y0210595D01*
X0612799Y0210749D01*
X0612797Y0210902D01*
X0443101Y0187833D02*
X0443103Y0187921D01*
X0443109Y0188009D01*
X0443119Y0188097D01*
X0443133Y0188185D01*
X0443150Y0188271D01*
X0443172Y0188357D01*
X0443197Y0188441D01*
X0443227Y0188525D01*
X0443259Y0188607D01*
X0443296Y0188687D01*
X0443336Y0188766D01*
X0443380Y0188843D01*
X0443427Y0188918D01*
X0443477Y0188990D01*
X0443531Y0189061D01*
X0443587Y0189128D01*
X0443647Y0189194D01*
X0443709Y0189256D01*
X0443775Y0189316D01*
X0443842Y0189372D01*
X0443913Y0189426D01*
X0443985Y0189476D01*
X0444060Y0189523D01*
X0444137Y0189567D01*
X0444216Y0189607D01*
X0444296Y0189644D01*
X0444378Y0189676D01*
X0444462Y0189706D01*
X0444546Y0189731D01*
X0444632Y0189753D01*
X0444718Y0189770D01*
X0444806Y0189784D01*
X0444894Y0189794D01*
X0444982Y0189800D01*
X0445070Y0189802D01*
X0445158Y0189800D01*
X0445246Y0189794D01*
X0445334Y0189784D01*
X0445422Y0189770D01*
X0445508Y0189753D01*
X0445594Y0189731D01*
X0445678Y0189706D01*
X0445762Y0189676D01*
X0445844Y0189644D01*
X0445924Y0189607D01*
X0446003Y0189567D01*
X0446080Y0189523D01*
X0446155Y0189476D01*
X0446227Y0189426D01*
X0446298Y0189372D01*
X0446365Y0189316D01*
X0446431Y0189256D01*
X0446493Y0189194D01*
X0446553Y0189128D01*
X0446609Y0189061D01*
X0446663Y0188990D01*
X0446713Y0188918D01*
X0446760Y0188843D01*
X0446804Y0188766D01*
X0446844Y0188687D01*
X0446881Y0188607D01*
X0446913Y0188525D01*
X0446943Y0188441D01*
X0446968Y0188357D01*
X0446990Y0188271D01*
X0447007Y0188185D01*
X0447021Y0188097D01*
X0447031Y0188009D01*
X0447037Y0187921D01*
X0447039Y0187833D01*
X0447037Y0187745D01*
X0447031Y0187657D01*
X0447021Y0187569D01*
X0447007Y0187481D01*
X0446990Y0187395D01*
X0446968Y0187309D01*
X0446943Y0187225D01*
X0446913Y0187141D01*
X0446881Y0187059D01*
X0446844Y0186979D01*
X0446804Y0186900D01*
X0446760Y0186823D01*
X0446713Y0186748D01*
X0446663Y0186676D01*
X0446609Y0186605D01*
X0446553Y0186538D01*
X0446493Y0186472D01*
X0446431Y0186410D01*
X0446365Y0186350D01*
X0446298Y0186294D01*
X0446227Y0186240D01*
X0446155Y0186190D01*
X0446080Y0186143D01*
X0446003Y0186099D01*
X0445924Y0186059D01*
X0445844Y0186022D01*
X0445762Y0185990D01*
X0445678Y0185960D01*
X0445594Y0185935D01*
X0445508Y0185913D01*
X0445422Y0185896D01*
X0445334Y0185882D01*
X0445246Y0185872D01*
X0445158Y0185866D01*
X0445070Y0185864D01*
X0444982Y0185866D01*
X0444894Y0185872D01*
X0444806Y0185882D01*
X0444718Y0185896D01*
X0444632Y0185913D01*
X0444546Y0185935D01*
X0444462Y0185960D01*
X0444378Y0185990D01*
X0444296Y0186022D01*
X0444216Y0186059D01*
X0444137Y0186099D01*
X0444060Y0186143D01*
X0443985Y0186190D01*
X0443913Y0186240D01*
X0443842Y0186294D01*
X0443775Y0186350D01*
X0443709Y0186410D01*
X0443647Y0186472D01*
X0443587Y0186538D01*
X0443531Y0186605D01*
X0443477Y0186676D01*
X0443427Y0186748D01*
X0443380Y0186823D01*
X0443336Y0186900D01*
X0443296Y0186979D01*
X0443259Y0187059D01*
X0443227Y0187141D01*
X0443197Y0187225D01*
X0443172Y0187309D01*
X0443150Y0187395D01*
X0443133Y0187481D01*
X0443119Y0187569D01*
X0443109Y0187657D01*
X0443103Y0187745D01*
X0443101Y0187833D01*
X0423416Y0187833D02*
X0423418Y0187921D01*
X0423424Y0188009D01*
X0423434Y0188097D01*
X0423448Y0188185D01*
X0423465Y0188271D01*
X0423487Y0188357D01*
X0423512Y0188441D01*
X0423542Y0188525D01*
X0423574Y0188607D01*
X0423611Y0188687D01*
X0423651Y0188766D01*
X0423695Y0188843D01*
X0423742Y0188918D01*
X0423792Y0188990D01*
X0423846Y0189061D01*
X0423902Y0189128D01*
X0423962Y0189194D01*
X0424024Y0189256D01*
X0424090Y0189316D01*
X0424157Y0189372D01*
X0424228Y0189426D01*
X0424300Y0189476D01*
X0424375Y0189523D01*
X0424452Y0189567D01*
X0424531Y0189607D01*
X0424611Y0189644D01*
X0424693Y0189676D01*
X0424777Y0189706D01*
X0424861Y0189731D01*
X0424947Y0189753D01*
X0425033Y0189770D01*
X0425121Y0189784D01*
X0425209Y0189794D01*
X0425297Y0189800D01*
X0425385Y0189802D01*
X0425473Y0189800D01*
X0425561Y0189794D01*
X0425649Y0189784D01*
X0425737Y0189770D01*
X0425823Y0189753D01*
X0425909Y0189731D01*
X0425993Y0189706D01*
X0426077Y0189676D01*
X0426159Y0189644D01*
X0426239Y0189607D01*
X0426318Y0189567D01*
X0426395Y0189523D01*
X0426470Y0189476D01*
X0426542Y0189426D01*
X0426613Y0189372D01*
X0426680Y0189316D01*
X0426746Y0189256D01*
X0426808Y0189194D01*
X0426868Y0189128D01*
X0426924Y0189061D01*
X0426978Y0188990D01*
X0427028Y0188918D01*
X0427075Y0188843D01*
X0427119Y0188766D01*
X0427159Y0188687D01*
X0427196Y0188607D01*
X0427228Y0188525D01*
X0427258Y0188441D01*
X0427283Y0188357D01*
X0427305Y0188271D01*
X0427322Y0188185D01*
X0427336Y0188097D01*
X0427346Y0188009D01*
X0427352Y0187921D01*
X0427354Y0187833D01*
X0427352Y0187745D01*
X0427346Y0187657D01*
X0427336Y0187569D01*
X0427322Y0187481D01*
X0427305Y0187395D01*
X0427283Y0187309D01*
X0427258Y0187225D01*
X0427228Y0187141D01*
X0427196Y0187059D01*
X0427159Y0186979D01*
X0427119Y0186900D01*
X0427075Y0186823D01*
X0427028Y0186748D01*
X0426978Y0186676D01*
X0426924Y0186605D01*
X0426868Y0186538D01*
X0426808Y0186472D01*
X0426746Y0186410D01*
X0426680Y0186350D01*
X0426613Y0186294D01*
X0426542Y0186240D01*
X0426470Y0186190D01*
X0426395Y0186143D01*
X0426318Y0186099D01*
X0426239Y0186059D01*
X0426159Y0186022D01*
X0426077Y0185990D01*
X0425993Y0185960D01*
X0425909Y0185935D01*
X0425823Y0185913D01*
X0425737Y0185896D01*
X0425649Y0185882D01*
X0425561Y0185872D01*
X0425473Y0185866D01*
X0425385Y0185864D01*
X0425297Y0185866D01*
X0425209Y0185872D01*
X0425121Y0185882D01*
X0425033Y0185896D01*
X0424947Y0185913D01*
X0424861Y0185935D01*
X0424777Y0185960D01*
X0424693Y0185990D01*
X0424611Y0186022D01*
X0424531Y0186059D01*
X0424452Y0186099D01*
X0424375Y0186143D01*
X0424300Y0186190D01*
X0424228Y0186240D01*
X0424157Y0186294D01*
X0424090Y0186350D01*
X0424024Y0186410D01*
X0423962Y0186472D01*
X0423902Y0186538D01*
X0423846Y0186605D01*
X0423792Y0186676D01*
X0423742Y0186748D01*
X0423695Y0186823D01*
X0423651Y0186900D01*
X0423611Y0186979D01*
X0423574Y0187059D01*
X0423542Y0187141D01*
X0423512Y0187225D01*
X0423487Y0187309D01*
X0423465Y0187395D01*
X0423448Y0187481D01*
X0423434Y0187569D01*
X0423424Y0187657D01*
X0423418Y0187745D01*
X0423416Y0187833D01*
X0611616Y0059720D02*
X0611618Y0059873D01*
X0611624Y0060027D01*
X0611634Y0060180D01*
X0611648Y0060332D01*
X0611666Y0060485D01*
X0611688Y0060636D01*
X0611713Y0060787D01*
X0611743Y0060938D01*
X0611777Y0061088D01*
X0611814Y0061236D01*
X0611855Y0061384D01*
X0611900Y0061530D01*
X0611949Y0061676D01*
X0612002Y0061820D01*
X0612058Y0061962D01*
X0612118Y0062103D01*
X0612182Y0062243D01*
X0612249Y0062381D01*
X0612320Y0062517D01*
X0612395Y0062651D01*
X0612472Y0062783D01*
X0612554Y0062913D01*
X0612638Y0063041D01*
X0612726Y0063167D01*
X0612817Y0063290D01*
X0612911Y0063411D01*
X0613009Y0063529D01*
X0613109Y0063645D01*
X0613213Y0063758D01*
X0613319Y0063869D01*
X0613428Y0063977D01*
X0613540Y0064082D01*
X0613654Y0064183D01*
X0613772Y0064282D01*
X0613891Y0064378D01*
X0614013Y0064471D01*
X0614138Y0064560D01*
X0614265Y0064647D01*
X0614394Y0064729D01*
X0614525Y0064809D01*
X0614658Y0064885D01*
X0614793Y0064958D01*
X0614930Y0065027D01*
X0615069Y0065092D01*
X0615209Y0065154D01*
X0615351Y0065212D01*
X0615494Y0065267D01*
X0615639Y0065318D01*
X0615785Y0065365D01*
X0615932Y0065408D01*
X0616080Y0065447D01*
X0616229Y0065483D01*
X0616379Y0065514D01*
X0616530Y0065542D01*
X0616681Y0065566D01*
X0616834Y0065586D01*
X0616986Y0065602D01*
X0617139Y0065614D01*
X0617292Y0065622D01*
X0617445Y0065626D01*
X0617599Y0065626D01*
X0617752Y0065622D01*
X0617905Y0065614D01*
X0618058Y0065602D01*
X0618210Y0065586D01*
X0618363Y0065566D01*
X0618514Y0065542D01*
X0618665Y0065514D01*
X0618815Y0065483D01*
X0618964Y0065447D01*
X0619112Y0065408D01*
X0619259Y0065365D01*
X0619405Y0065318D01*
X0619550Y0065267D01*
X0619693Y0065212D01*
X0619835Y0065154D01*
X0619975Y0065092D01*
X0620114Y0065027D01*
X0620251Y0064958D01*
X0620386Y0064885D01*
X0620519Y0064809D01*
X0620650Y0064729D01*
X0620779Y0064647D01*
X0620906Y0064560D01*
X0621031Y0064471D01*
X0621153Y0064378D01*
X0621272Y0064282D01*
X0621390Y0064183D01*
X0621504Y0064082D01*
X0621616Y0063977D01*
X0621725Y0063869D01*
X0621831Y0063758D01*
X0621935Y0063645D01*
X0622035Y0063529D01*
X0622133Y0063411D01*
X0622227Y0063290D01*
X0622318Y0063167D01*
X0622406Y0063041D01*
X0622490Y0062913D01*
X0622572Y0062783D01*
X0622649Y0062651D01*
X0622724Y0062517D01*
X0622795Y0062381D01*
X0622862Y0062243D01*
X0622926Y0062103D01*
X0622986Y0061962D01*
X0623042Y0061820D01*
X0623095Y0061676D01*
X0623144Y0061530D01*
X0623189Y0061384D01*
X0623230Y0061236D01*
X0623267Y0061088D01*
X0623301Y0060938D01*
X0623331Y0060787D01*
X0623356Y0060636D01*
X0623378Y0060485D01*
X0623396Y0060332D01*
X0623410Y0060180D01*
X0623420Y0060027D01*
X0623426Y0059873D01*
X0623428Y0059720D01*
X0623426Y0059567D01*
X0623420Y0059413D01*
X0623410Y0059260D01*
X0623396Y0059108D01*
X0623378Y0058955D01*
X0623356Y0058804D01*
X0623331Y0058653D01*
X0623301Y0058502D01*
X0623267Y0058352D01*
X0623230Y0058204D01*
X0623189Y0058056D01*
X0623144Y0057910D01*
X0623095Y0057764D01*
X0623042Y0057620D01*
X0622986Y0057478D01*
X0622926Y0057337D01*
X0622862Y0057197D01*
X0622795Y0057059D01*
X0622724Y0056923D01*
X0622649Y0056789D01*
X0622572Y0056657D01*
X0622490Y0056527D01*
X0622406Y0056399D01*
X0622318Y0056273D01*
X0622227Y0056150D01*
X0622133Y0056029D01*
X0622035Y0055911D01*
X0621935Y0055795D01*
X0621831Y0055682D01*
X0621725Y0055571D01*
X0621616Y0055463D01*
X0621504Y0055358D01*
X0621390Y0055257D01*
X0621272Y0055158D01*
X0621153Y0055062D01*
X0621031Y0054969D01*
X0620906Y0054880D01*
X0620779Y0054793D01*
X0620650Y0054711D01*
X0620519Y0054631D01*
X0620386Y0054555D01*
X0620251Y0054482D01*
X0620114Y0054413D01*
X0619975Y0054348D01*
X0619835Y0054286D01*
X0619693Y0054228D01*
X0619550Y0054173D01*
X0619405Y0054122D01*
X0619259Y0054075D01*
X0619112Y0054032D01*
X0618964Y0053993D01*
X0618815Y0053957D01*
X0618665Y0053926D01*
X0618514Y0053898D01*
X0618363Y0053874D01*
X0618210Y0053854D01*
X0618058Y0053838D01*
X0617905Y0053826D01*
X0617752Y0053818D01*
X0617599Y0053814D01*
X0617445Y0053814D01*
X0617292Y0053818D01*
X0617139Y0053826D01*
X0616986Y0053838D01*
X0616834Y0053854D01*
X0616681Y0053874D01*
X0616530Y0053898D01*
X0616379Y0053926D01*
X0616229Y0053957D01*
X0616080Y0053993D01*
X0615932Y0054032D01*
X0615785Y0054075D01*
X0615639Y0054122D01*
X0615494Y0054173D01*
X0615351Y0054228D01*
X0615209Y0054286D01*
X0615069Y0054348D01*
X0614930Y0054413D01*
X0614793Y0054482D01*
X0614658Y0054555D01*
X0614525Y0054631D01*
X0614394Y0054711D01*
X0614265Y0054793D01*
X0614138Y0054880D01*
X0614013Y0054969D01*
X0613891Y0055062D01*
X0613772Y0055158D01*
X0613654Y0055257D01*
X0613540Y0055358D01*
X0613428Y0055463D01*
X0613319Y0055571D01*
X0613213Y0055682D01*
X0613109Y0055795D01*
X0613009Y0055911D01*
X0612911Y0056029D01*
X0612817Y0056150D01*
X0612726Y0056273D01*
X0612638Y0056399D01*
X0612554Y0056527D01*
X0612472Y0056657D01*
X0612395Y0056789D01*
X0612320Y0056923D01*
X0612249Y0057059D01*
X0612182Y0057197D01*
X0612118Y0057337D01*
X0612058Y0057478D01*
X0612002Y0057620D01*
X0611949Y0057764D01*
X0611900Y0057910D01*
X0611855Y0058056D01*
X0611814Y0058204D01*
X0611777Y0058352D01*
X0611743Y0058502D01*
X0611713Y0058653D01*
X0611688Y0058804D01*
X0611666Y0058955D01*
X0611648Y0059108D01*
X0611634Y0059260D01*
X0611624Y0059413D01*
X0611618Y0059567D01*
X0611616Y0059720D01*
M02*
